<svg width="286" height="28" viewBox="0 0 286 28" fill="none" xmlns="http://www.w3.org/2000/svg">
<path d="M1.08 9V8.256L3.972 5.136C4.244 4.84 4.464 4.564 4.632 4.308C4.8 4.044 4.924 3.788 5.004 3.54C5.084 3.292 5.124 3.04 5.124 2.784C5.124 2.304 4.976 1.94 4.68 1.692C4.392 1.436 3.968 1.308 3.408 1.308C2.976 1.308 2.572 1.388 2.196 1.548C1.828 1.7 1.476 1.94 1.14 2.268L0.768 1.5C1.08 1.18 1.476 0.924 1.956 0.732C2.444 0.532 2.956 0.431999 3.492 0.431999C4.06 0.431999 4.54 0.52 4.932 0.696C5.324 0.872 5.62 1.132 5.82 1.476C6.02 1.812 6.12 2.224 6.12 2.712C6.12 2.968 6.088 3.22 6.024 3.468C5.968 3.708 5.876 3.952 5.748 4.2C5.628 4.44 5.472 4.688 5.28 4.944C5.096 5.2 4.872 5.464 4.608 5.736L2.064 8.436V8.16H6.468V9H1.08ZM10.9753 9.108C10.6153 9.108 10.2633 9.068 9.91931 8.988C9.57531 8.908 9.25131 8.792 8.94731 8.64C8.65131 8.488 8.38731 8.308 8.15531 8.1L8.52731 7.32C8.91131 7.632 9.29931 7.864 9.69131 8.016C10.0913 8.16 10.5153 8.232 10.9633 8.232C11.5553 8.232 12.0153 8.068 12.3433 7.74C12.6793 7.412 12.8473 6.98 12.8473 6.444C12.8473 5.892 12.6873 5.44 12.3673 5.088C12.0473 4.736 11.6073 4.56 11.0473 4.56C10.6393 4.56 10.2793 4.644 9.96731 4.812C9.66331 4.972 9.38731 5.224 9.13931 5.568H8.41931V0.539999H13.3273V1.38H9.39131V4.752H9.12731C9.33531 4.416 9.62331 4.16 9.99131 3.984C10.3593 3.8 10.7713 3.708 11.2273 3.708C11.7633 3.708 12.2233 3.82 12.6073 4.044C12.9993 4.268 13.2993 4.584 13.5073 4.992C13.7233 5.392 13.8313 5.86 13.8313 6.396C13.8313 6.924 13.7153 7.392 13.4833 7.8C13.2513 8.208 12.9233 8.528 12.4993 8.76C12.0753 8.992 11.5673 9.108 10.9753 9.108ZM17.9906 9.108C17.3506 9.108 16.8066 8.944 16.3586 8.616C15.9186 8.28 15.5866 7.788 15.3626 7.14C15.1386 6.492 15.0266 5.7 15.0266 4.764C15.0266 3.82 15.1386 3.028 15.3626 2.388C15.5866 1.74 15.9186 1.252 16.3586 0.924C16.8066 0.595999 17.3506 0.431999 17.9906 0.431999C18.6386 0.431999 19.1826 0.595999 19.6226 0.924C20.0626 1.252 20.3946 1.736 20.6186 2.376C20.8426 3.016 20.9546 3.808 20.9546 4.752C20.9546 5.696 20.8426 6.492 20.6186 7.14C20.3946 7.788 20.0626 8.28 19.6226 8.616C19.1826 8.944 18.6386 9.108 17.9906 9.108ZM17.9906 8.256C18.6626 8.256 19.1586 7.972 19.4786 7.404C19.8066 6.836 19.9706 5.952 19.9706 4.752C19.9706 3.552 19.8106 2.676 19.4906 2.124C19.1706 1.564 18.6706 1.284 17.9906 1.284C17.3266 1.284 16.8306 1.564 16.5026 2.124C16.1746 2.684 16.0106 3.56 16.0106 4.752C16.0106 5.952 16.1706 6.836 16.4906 7.404C16.8186 7.972 17.3186 8.256 17.9906 8.256ZM22.5219 9V3.168H23.4699V4.464H23.3379C23.4339 4.168 23.5739 3.916 23.7579 3.708C23.9499 3.492 24.1739 3.332 24.4299 3.228C24.6939 3.116 24.9819 3.06 25.2939 3.06C25.7899 3.06 26.1899 3.18 26.4939 3.42C26.8059 3.652 27.0139 4.016 27.1179 4.512H26.9379C27.0819 4.064 27.3379 3.712 27.7059 3.456C28.0819 3.192 28.5179 3.06 29.0139 3.06C29.4539 3.06 29.8139 3.144 30.0939 3.312C30.3819 3.48 30.5979 3.736 30.7419 4.08C30.8859 4.416 30.9579 4.844 30.9579 5.364V9H29.9859V5.412C29.9859 4.876 29.8939 4.484 29.7099 4.236C29.5259 3.98 29.2139 3.852 28.7739 3.852C28.4619 3.852 28.1859 3.928 27.9459 4.08C27.7139 4.232 27.5339 4.448 27.4059 4.728C27.2859 5 27.2259 5.324 27.2259 5.7V9H26.2539V5.412C26.2539 4.876 26.1579 4.484 25.9659 4.236C25.7819 3.98 25.4739 3.852 25.0419 3.852C24.7219 3.852 24.4459 3.928 24.2139 4.08C23.9819 4.232 23.8019 4.448 23.6739 4.728C23.5539 5 23.4939 5.324 23.4939 5.7V9H22.5219ZM34.5633 9.108C33.9713 9.108 33.5233 8.932 33.2193 8.58C32.9233 8.228 32.7753 7.724 32.7753 7.068V0.539999H33.7473V6.996C33.7473 7.276 33.7833 7.512 33.8553 7.704C33.9353 7.896 34.0513 8.04 34.2033 8.136C34.3553 8.232 34.5433 8.28 34.7673 8.28C34.8633 8.28 34.9553 8.276 35.0433 8.268C35.1393 8.252 35.2273 8.232 35.3073 8.208L35.2833 9.024C35.1553 9.048 35.0313 9.068 34.9113 9.084C34.7993 9.1 34.6833 9.108 34.5633 9.108ZM38.4481 9.084L38.3761 8.256L39.0961 8.208C39.3761 8.184 39.6081 8.116 39.7921 8.004C39.9761 7.884 40.1161 7.716 40.2121 7.5C40.3081 7.284 40.3561 7.032 40.3561 6.744V0.539999H41.3401V6.756C41.3401 7.212 41.2601 7.608 41.1001 7.944C40.9401 8.272 40.7041 8.528 40.3921 8.712C40.0801 8.896 39.6921 9.004 39.2281 9.036L38.4481 9.084ZM45.3627 9.108C44.8907 9.108 44.4987 9.024 44.1867 8.856C43.8827 8.68 43.6507 8.42 43.4907 8.076C43.3387 7.732 43.2627 7.304 43.2627 6.792V3.168H44.2347V6.78C44.2347 7.124 44.2787 7.412 44.3667 7.644C44.4627 7.868 44.6107 8.036 44.8107 8.148C45.0107 8.252 45.2587 8.304 45.5547 8.304C45.8907 8.304 46.1827 8.228 46.4307 8.076C46.6787 7.924 46.8747 7.712 47.0187 7.44C47.1627 7.168 47.2347 6.848 47.2347 6.48V3.168H48.2067V9H47.2587V7.656H47.4147C47.2547 8.128 46.9907 8.488 46.6227 8.736C46.2627 8.984 45.8427 9.108 45.3627 9.108ZM49.9053 1.716V0.624H51.1053V1.716H49.9053ZM50.0253 9V3.168H50.9973V9H50.0253ZM55.2863 9.108C54.7023 9.108 54.1983 8.98 53.7743 8.724C53.3503 8.468 53.0223 8.112 52.7903 7.656C52.5663 7.192 52.4543 6.656 52.4543 6.048C52.4543 5.432 52.5663 4.9 52.7903 4.452C53.0223 4.004 53.3503 3.66 53.7743 3.42C54.1983 3.18 54.7023 3.06 55.2863 3.06C55.6463 3.06 56.0023 3.124 56.3543 3.252C56.7063 3.38 56.9983 3.56 57.2303 3.792L56.8943 4.5C56.6623 4.276 56.4063 4.112 56.1263 4.008C55.8543 3.904 55.5943 3.852 55.3463 3.852C54.7383 3.852 54.2703 4.044 53.9423 4.428C53.6143 4.804 53.4503 5.348 53.4503 6.06C53.4503 6.756 53.6143 7.308 53.9423 7.716C54.2703 8.116 54.7383 8.316 55.3463 8.316C55.5943 8.316 55.8543 8.264 56.1263 8.16C56.4063 8.056 56.6623 7.888 56.8943 7.656L57.2303 8.364C56.9983 8.596 56.7023 8.78 56.3423 8.916C55.9903 9.044 55.6383 9.108 55.2863 9.108ZM60.8798 9.108C60.2638 9.108 59.7318 8.988 59.2838 8.748C58.8438 8.5 58.4998 8.152 58.2518 7.704C58.0118 7.256 57.8918 6.72 57.8918 6.096C57.8918 5.488 58.0118 4.96 58.2518 4.512C58.4918 4.056 58.8198 3.7 59.2358 3.444C59.6598 3.188 60.1478 3.06 60.6998 3.06C61.2278 3.06 61.6798 3.176 62.0558 3.408C62.4318 3.64 62.7198 3.968 62.9198 4.392C63.1278 4.816 63.2318 5.324 63.2318 5.916V6.288H58.6358V5.652H62.5838L62.3918 5.808C62.3918 5.168 62.2478 4.672 61.9598 4.32C61.6798 3.96 61.2678 3.78 60.7238 3.78C60.3158 3.78 59.9678 3.876 59.6798 4.068C59.3998 4.252 59.1878 4.512 59.0438 4.848C58.8998 5.176 58.8278 5.56 58.8278 6V6.072C58.8278 6.56 58.9038 6.972 59.0558 7.308C59.2158 7.644 59.4518 7.9 59.7638 8.076C60.0758 8.244 60.4478 8.328 60.8798 8.328C61.2238 8.328 61.5558 8.276 61.8758 8.172C62.2038 8.06 62.5118 7.88 62.7998 7.632L63.1358 8.316C62.8718 8.556 62.5358 8.748 62.1278 8.892C61.7198 9.036 61.3038 9.108 60.8798 9.108ZM71.7166 9.108C70.8126 9.108 70.0486 8.936 69.4246 8.592C68.8086 8.248 68.3406 7.752 68.0206 7.104C67.7006 6.456 67.5406 5.68 67.5406 4.776C67.5406 3.88 67.7006 3.108 68.0206 2.46C68.3406 1.812 68.8006 1.312 69.4006 0.96C70.0006 0.608 70.7246 0.431999 71.5726 0.431999C71.9726 0.431999 72.3486 0.471999 72.7006 0.551999C73.0606 0.632 73.3926 0.752 73.6966 0.912C74.0086 1.064 74.2806 1.256 74.5126 1.488L74.1286 2.28C73.7446 1.944 73.3486 1.7 72.9406 1.548C72.5326 1.396 72.0726 1.32 71.5606 1.32C70.5926 1.32 69.8526 1.62 69.3406 2.22C68.8366 2.82 68.5846 3.672 68.5846 4.776C68.5846 5.896 68.8446 6.752 69.3646 7.344C69.8926 7.936 70.6846 8.232 71.7406 8.232C72.1246 8.232 72.5006 8.196 72.8686 8.124C73.2366 8.044 73.5846 7.936 73.9126 7.8L73.6966 8.364V5.376H71.5486V4.596H74.5486V8.508C74.3326 8.62 74.0646 8.724 73.7446 8.82C73.4246 8.908 73.0886 8.976 72.7366 9.024C72.3846 9.08 72.0446 9.108 71.7166 9.108ZM78.2156 9.108C77.6236 9.108 77.1756 8.932 76.8716 8.58C76.5756 8.228 76.4276 7.724 76.4276 7.068V0.539999H77.3996V6.996C77.3996 7.276 77.4356 7.512 77.5076 7.704C77.5876 7.896 77.7036 8.04 77.8556 8.136C78.0076 8.232 78.1956 8.28 78.4196 8.28C78.5156 8.28 78.6076 8.276 78.6956 8.268C78.7916 8.252 78.8796 8.232 78.9596 8.208L78.9356 9.024C78.8076 9.048 78.6836 9.068 78.5636 9.084C78.4516 9.1 78.3356 9.108 78.2156 9.108ZM81.8144 9.108C81.4144 9.108 81.0544 9.032 80.7344 8.88C80.4224 8.72 80.1744 8.504 79.9904 8.232C79.8064 7.96 79.7144 7.656 79.7144 7.32C79.7144 6.888 79.8224 6.548 80.0384 6.3C80.2624 6.052 80.6264 5.876 81.1304 5.772C81.6424 5.668 82.3384 5.616 83.2184 5.616H83.7584V6.252H83.2304C82.7424 6.252 82.3344 6.268 82.0064 6.3C81.6784 6.332 81.4184 6.388 81.2264 6.468C81.0344 6.548 80.8984 6.652 80.8184 6.78C80.7384 6.908 80.6984 7.068 80.6984 7.26C80.6984 7.588 80.8104 7.856 81.0344 8.064C81.2664 8.272 81.5784 8.376 81.9704 8.376C82.2904 8.376 82.5704 8.3 82.8104 8.148C83.0584 7.996 83.2504 7.788 83.3864 7.524C83.5304 7.26 83.6024 6.956 83.6024 6.612V5.244C83.6024 4.748 83.5024 4.392 83.3024 4.176C83.1024 3.952 82.7744 3.84 82.3184 3.84C81.9664 3.84 81.6264 3.892 81.2984 3.996C80.9704 4.092 80.6344 4.252 80.2904 4.476L79.9544 3.768C80.1624 3.624 80.3984 3.5 80.6624 3.396C80.9264 3.284 81.2024 3.2 81.4904 3.144C81.7784 3.088 82.0544 3.06 82.3184 3.06C82.8224 3.06 83.2384 3.144 83.5664 3.312C83.8944 3.472 84.1384 3.72 84.2984 4.056C84.4584 4.384 84.5384 4.808 84.5384 5.328V9H83.6264V7.644H83.7344C83.6704 7.948 83.5464 8.208 83.3624 8.424C83.1864 8.64 82.9664 8.808 82.7024 8.928C82.4384 9.048 82.1424 9.108 81.8144 9.108ZM88.3097 9.108C88.0057 9.108 87.7097 9.076 87.4217 9.012C87.1417 8.956 86.8777 8.876 86.6297 8.772C86.3897 8.66 86.1817 8.528 86.0057 8.376L86.3177 7.692C86.5097 7.844 86.7177 7.972 86.9417 8.076C87.1657 8.172 87.3937 8.244 87.6257 8.292C87.8577 8.34 88.0937 8.364 88.3337 8.364C88.7897 8.364 89.1337 8.28 89.3657 8.112C89.5977 7.944 89.7137 7.716 89.7137 7.428C89.7137 7.204 89.6377 7.028 89.4857 6.9C89.3337 6.764 89.0937 6.66 88.7657 6.588L87.6737 6.348C87.1697 6.244 86.7937 6.064 86.5457 5.808C86.3057 5.552 86.1857 5.22 86.1857 4.812C86.1857 4.452 86.2777 4.144 86.4617 3.888C86.6537 3.624 86.9217 3.42 87.2657 3.276C87.6097 3.132 88.0097 3.06 88.4657 3.06C88.7377 3.06 88.9977 3.088 89.2457 3.144C89.4937 3.2 89.7257 3.284 89.9417 3.396C90.1657 3.5 90.3577 3.632 90.5177 3.792L90.1937 4.476C90.0417 4.332 89.8697 4.212 89.6777 4.116C89.4857 4.012 89.2857 3.936 89.0777 3.888C88.8777 3.832 88.6737 3.804 88.4657 3.804C88.0177 3.804 87.6777 3.892 87.4457 4.068C87.2137 4.244 87.0977 4.476 87.0977 4.764C87.0977 4.988 87.1697 5.172 87.3137 5.316C87.4577 5.46 87.6817 5.564 87.9857 5.628L89.0777 5.856C89.5977 5.968 89.9857 6.148 90.2417 6.396C90.5057 6.636 90.6377 6.964 90.6377 7.38C90.6377 7.732 90.5417 8.04 90.3497 8.304C90.1577 8.56 89.8857 8.76 89.5337 8.904C89.1897 9.04 88.7817 9.108 88.3097 9.108ZM94.087 9.108C93.783 9.108 93.487 9.076 93.199 9.012C92.919 8.956 92.655 8.876 92.407 8.772C92.167 8.66 91.959 8.528 91.783 8.376L92.095 7.692C92.287 7.844 92.495 7.972 92.719 8.076C92.943 8.172 93.171 8.244 93.403 8.292C93.635 8.34 93.871 8.364 94.111 8.364C94.567 8.364 94.911 8.28 95.143 8.112C95.375 7.944 95.491 7.716 95.491 7.428C95.491 7.204 95.415 7.028 95.263 6.9C95.111 6.764 94.871 6.66 94.543 6.588L93.451 6.348C92.947 6.244 92.571 6.064 92.323 5.808C92.083 5.552 91.963 5.22 91.963 4.812C91.963 4.452 92.055 4.144 92.239 3.888C92.431 3.624 92.699 3.42 93.043 3.276C93.387 3.132 93.787 3.06 94.243 3.06C94.515 3.06 94.775 3.088 95.023 3.144C95.271 3.2 95.503 3.284 95.719 3.396C95.943 3.5 96.135 3.632 96.295 3.792L95.971 4.476C95.819 4.332 95.647 4.212 95.455 4.116C95.263 4.012 95.063 3.936 94.855 3.888C94.655 3.832 94.451 3.804 94.243 3.804C93.795 3.804 93.455 3.892 93.223 4.068C92.991 4.244 92.875 4.476 92.875 4.764C92.875 4.988 92.947 5.172 93.091 5.316C93.235 5.46 93.459 5.564 93.763 5.628L94.855 5.856C95.375 5.968 95.763 6.148 96.019 6.396C96.283 6.636 96.415 6.964 96.415 7.38C96.415 7.732 96.319 8.04 96.127 8.304C95.935 8.56 95.663 8.76 95.311 8.904C94.967 9.04 94.559 9.108 94.087 9.108ZM98.1858 10.368L97.7298 10.02C97.8738 9.868 97.9818 9.724 98.0538 9.588C98.1338 9.46 98.1858 9.328 98.2098 9.192C98.2418 9.064 98.2578 8.932 98.2578 8.796L98.4738 9H97.6818V7.776H98.9058V8.64C98.9058 8.856 98.8818 9.06 98.8338 9.252C98.7938 9.452 98.7218 9.644 98.6178 9.828C98.5138 10.012 98.3698 10.192 98.1858 10.368ZM103.782 9V0.539999H109.014V1.368H104.766V4.32H108.774V5.148H104.766V9H103.782ZM112.426 9.108C111.858 9.108 111.366 8.984 110.95 8.736C110.534 8.488 110.21 8.14 109.978 7.692C109.754 7.236 109.642 6.7 109.642 6.084C109.642 5.468 109.754 4.936 109.978 4.488C110.21 4.032 110.534 3.68 110.95 3.432C111.366 3.184 111.858 3.06 112.426 3.06C112.994 3.06 113.486 3.184 113.902 3.432C114.318 3.68 114.638 4.032 114.862 4.488C115.094 4.936 115.21 5.468 115.21 6.084C115.21 6.7 115.094 7.236 114.862 7.692C114.638 8.14 114.318 8.488 113.902 8.736C113.486 8.984 112.994 9.108 112.426 9.108ZM112.426 8.328C112.978 8.328 113.414 8.136 113.734 7.752C114.062 7.36 114.226 6.8 114.226 6.072C114.226 5.352 114.062 4.8 113.734 4.416C113.414 4.032 112.978 3.84 112.426 3.84C111.882 3.84 111.446 4.032 111.118 4.416C110.79 4.8 110.626 5.352 110.626 6.072C110.626 6.8 110.79 7.36 111.118 7.752C111.446 8.136 111.882 8.328 112.426 8.328ZM119.094 9.108C118.526 9.108 118.034 8.984 117.618 8.736C117.202 8.488 116.878 8.14 116.646 7.692C116.422 7.236 116.31 6.7 116.31 6.084C116.31 5.468 116.422 4.936 116.646 4.488C116.878 4.032 117.202 3.68 117.618 3.432C118.034 3.184 118.526 3.06 119.094 3.06C119.662 3.06 120.154 3.184 120.57 3.432C120.986 3.68 121.306 4.032 121.53 4.488C121.762 4.936 121.878 5.468 121.878 6.084C121.878 6.7 121.762 7.236 121.53 7.692C121.306 8.14 120.986 8.488 120.57 8.736C120.154 8.984 119.662 9.108 119.094 9.108ZM119.094 8.328C119.646 8.328 120.082 8.136 120.402 7.752C120.73 7.36 120.894 6.8 120.894 6.072C120.894 5.352 120.73 4.8 120.402 4.416C120.082 4.032 119.646 3.84 119.094 3.84C118.55 3.84 118.114 4.032 117.786 4.416C117.458 4.8 117.294 5.352 117.294 6.072C117.294 6.8 117.458 7.36 117.786 7.752C118.114 8.136 118.55 8.328 119.094 8.328ZM125.558 9.108C125.038 9.108 124.582 8.984 124.19 8.736C123.806 8.488 123.506 8.14 123.29 7.692C123.082 7.236 122.978 6.7 122.978 6.084C122.978 5.46 123.082 4.924 123.29 4.476C123.506 4.02 123.806 3.672 124.19 3.432C124.582 3.184 125.038 3.06 125.558 3.06C126.086 3.06 126.538 3.192 126.914 3.456C127.29 3.72 127.542 4.076 127.67 4.524H127.538V0.539999H128.51V9H127.562V7.608H127.682C127.554 8.064 127.298 8.428 126.914 8.7C126.538 8.972 126.086 9.108 125.558 9.108ZM125.762 8.328C126.314 8.328 126.75 8.136 127.07 7.752C127.398 7.36 127.562 6.804 127.562 6.084C127.562 5.356 127.398 4.8 127.07 4.416C126.75 4.032 126.314 3.84 125.762 3.84C125.218 3.84 124.782 4.032 124.454 4.416C124.126 4.8 123.962 5.356 123.962 6.084C123.962 6.804 124.126 7.36 124.454 7.752C124.782 8.136 125.218 8.328 125.762 8.328ZM130.286 6.204V5.4H133.646V6.204H130.286ZM139.416 9.108C138.512 9.108 137.748 8.936 137.124 8.592C136.508 8.248 136.04 7.752 135.72 7.104C135.4 6.456 135.24 5.68 135.24 4.776C135.24 3.88 135.4 3.108 135.72 2.46C136.04 1.812 136.5 1.312 137.1 0.96C137.7 0.608 138.424 0.431999 139.272 0.431999C139.672 0.431999 140.048 0.471999 140.4 0.551999C140.76 0.632 141.092 0.752 141.396 0.912C141.708 1.064 141.98 1.256 142.212 1.488L141.828 2.28C141.444 1.944 141.048 1.7 140.64 1.548C140.232 1.396 139.772 1.32 139.26 1.32C138.292 1.32 137.552 1.62 137.04 2.22C136.536 2.82 136.284 3.672 136.284 4.776C136.284 5.896 136.544 6.752 137.064 7.344C137.592 7.936 138.384 8.232 139.44 8.232C139.824 8.232 140.2 8.196 140.568 8.124C140.936 8.044 141.284 7.936 141.612 7.8L141.396 8.364V5.376H139.248V4.596H142.248V8.508C142.032 8.62 141.764 8.724 141.444 8.82C141.124 8.908 140.788 8.976 140.436 9.024C140.084 9.08 139.744 9.108 139.416 9.108ZM144.127 9V3.168H145.075V4.548H144.955C145.091 4.076 145.327 3.72 145.663 3.48C145.999 3.232 146.443 3.088 146.995 3.048L147.343 3.012L147.415 3.852L146.803 3.924C146.259 3.972 145.839 4.148 145.543 4.452C145.255 4.748 145.111 5.156 145.111 5.676V9H144.127ZM150.205 9.108C149.805 9.108 149.445 9.032 149.125 8.88C148.813 8.72 148.565 8.504 148.381 8.232C148.197 7.96 148.105 7.656 148.105 7.32C148.105 6.888 148.213 6.548 148.429 6.3C148.653 6.052 149.017 5.876 149.521 5.772C150.033 5.668 150.729 5.616 151.609 5.616H152.149V6.252H151.621C151.133 6.252 150.725 6.268 150.397 6.3C150.069 6.332 149.809 6.388 149.617 6.468C149.425 6.548 149.289 6.652 149.209 6.78C149.129 6.908 149.089 7.068 149.089 7.26C149.089 7.588 149.201 7.856 149.425 8.064C149.657 8.272 149.969 8.376 150.361 8.376C150.681 8.376 150.961 8.3 151.201 8.148C151.449 7.996 151.641 7.788 151.777 7.524C151.921 7.26 151.993 6.956 151.993 6.612V5.244C151.993 4.748 151.893 4.392 151.693 4.176C151.493 3.952 151.165 3.84 150.709 3.84C150.357 3.84 150.017 3.892 149.689 3.996C149.361 4.092 149.025 4.252 148.681 4.476L148.345 3.768C148.553 3.624 148.789 3.5 149.053 3.396C149.317 3.284 149.593 3.2 149.881 3.144C150.169 3.088 150.445 3.06 150.709 3.06C151.213 3.06 151.629 3.144 151.957 3.312C152.285 3.472 152.529 3.72 152.689 4.056C152.849 4.384 152.929 4.808 152.929 5.328V9H152.017V7.644H152.125C152.061 7.948 151.937 8.208 151.753 8.424C151.577 8.64 151.357 8.808 151.093 8.928C150.829 9.048 150.533 9.108 150.205 9.108ZM156.952 9.108C156.432 9.108 155.976 8.984 155.584 8.736C155.2 8.488 154.9 8.14 154.684 7.692C154.476 7.236 154.372 6.7 154.372 6.084C154.372 5.46 154.476 4.924 154.684 4.476C154.9 4.02 155.2 3.672 155.584 3.432C155.976 3.184 156.432 3.06 156.952 3.06C157.48 3.06 157.932 3.192 158.308 3.456C158.684 3.72 158.936 4.076 159.064 4.524H158.932V0.539999H159.904V9H158.956V7.608H159.076C158.948 8.064 158.692 8.428 158.308 8.7C157.932 8.972 157.48 9.108 156.952 9.108ZM157.156 8.328C157.708 8.328 158.144 8.136 158.464 7.752C158.792 7.36 158.956 6.804 158.956 6.084C158.956 5.356 158.792 4.8 158.464 4.416C158.144 4.032 157.708 3.84 157.156 3.84C156.612 3.84 156.176 4.032 155.848 4.416C155.52 4.8 155.356 5.356 155.356 6.084C155.356 6.804 155.52 7.36 155.848 7.752C156.176 8.136 156.612 8.328 157.156 8.328ZM164.356 9.108C163.74 9.108 163.208 8.988 162.76 8.748C162.32 8.5 161.976 8.152 161.728 7.704C161.488 7.256 161.368 6.72 161.368 6.096C161.368 5.488 161.488 4.96 161.728 4.512C161.968 4.056 162.296 3.7 162.712 3.444C163.136 3.188 163.624 3.06 164.176 3.06C164.704 3.06 165.156 3.176 165.532 3.408C165.908 3.64 166.196 3.968 166.396 4.392C166.604 4.816 166.708 5.324 166.708 5.916V6.288H162.112V5.652H166.06L165.868 5.808C165.868 5.168 165.724 4.672 165.436 4.32C165.156 3.96 164.744 3.78 164.2 3.78C163.792 3.78 163.444 3.876 163.156 4.068C162.876 4.252 162.664 4.512 162.52 4.848C162.376 5.176 162.304 5.56 162.304 6V6.072C162.304 6.56 162.38 6.972 162.532 7.308C162.692 7.644 162.928 7.9 163.24 8.076C163.552 8.244 163.924 8.328 164.356 8.328C164.7 8.328 165.032 8.276 165.352 8.172C165.68 8.06 165.988 7.88 166.276 7.632L166.612 8.316C166.348 8.556 166.012 8.748 165.604 8.892C165.196 9.036 164.78 9.108 164.356 9.108ZM170.513 9L174.245 0.539999H175.085L178.817 9H177.797L176.753 6.588L177.233 6.84H172.073L172.565 6.588L171.533 9H170.513ZM174.653 1.692L172.721 6.24L172.433 6.012H176.873L176.609 6.24L174.677 1.692H174.653ZM179.939 9V3.168H180.887V4.464H180.755C180.923 4 181.195 3.652 181.571 3.42C181.955 3.18 182.395 3.06 182.891 3.06C183.355 3.06 183.739 3.144 184.043 3.312C184.355 3.472 184.587 3.724 184.739 4.068C184.891 4.412 184.967 4.844 184.967 5.364V9H183.995V5.424C183.995 5.064 183.947 4.768 183.851 4.536C183.763 4.304 183.619 4.132 183.419 4.02C183.227 3.908 182.975 3.852 182.663 3.852C182.311 3.852 182.003 3.928 181.739 4.08C181.475 4.232 181.271 4.444 181.127 4.716C180.983 4.988 180.911 5.308 180.911 5.676V9H179.939ZM188.98 9.108C188.46 9.108 188.004 8.984 187.612 8.736C187.228 8.488 186.928 8.14 186.712 7.692C186.504 7.236 186.4 6.7 186.4 6.084C186.4 5.46 186.504 4.924 186.712 4.476C186.928 4.02 187.228 3.672 187.612 3.432C188.004 3.184 188.46 3.06 188.98 3.06C189.508 3.06 189.96 3.192 190.336 3.456C190.712 3.72 190.964 4.076 191.092 4.524H190.96V0.539999H191.932V9H190.984V7.608H191.104C190.976 8.064 190.72 8.428 190.336 8.7C189.96 8.972 189.508 9.108 188.98 9.108ZM189.184 8.328C189.736 8.328 190.172 8.136 190.492 7.752C190.82 7.36 190.984 6.804 190.984 6.084C190.984 5.356 190.82 4.8 190.492 4.416C190.172 4.032 189.736 3.84 189.184 3.84C188.64 3.84 188.204 4.032 187.876 4.416C187.548 4.8 187.384 5.356 187.384 6.084C187.384 6.804 187.548 7.36 187.876 7.752C188.204 8.136 188.64 8.328 189.184 8.328ZM196.994 9V0.539999H197.822L201.254 6.984H200.894L204.302 0.539999H205.13V9H204.218V1.86H204.506L201.398 7.692H200.75L197.606 1.848H197.894V9H196.994ZM206.983 1.716V0.624H208.183V1.716H206.983ZM207.103 9V3.168H208.075V9H207.103ZM212.364 9.108C211.78 9.108 211.276 8.98 210.852 8.724C210.428 8.468 210.1 8.112 209.868 7.656C209.644 7.192 209.532 6.656 209.532 6.048C209.532 5.432 209.644 4.9 209.868 4.452C210.1 4.004 210.428 3.66 210.852 3.42C211.276 3.18 211.78 3.06 212.364 3.06C212.724 3.06 213.08 3.124 213.432 3.252C213.784 3.38 214.076 3.56 214.308 3.792L213.972 4.5C213.74 4.276 213.484 4.112 213.204 4.008C212.932 3.904 212.672 3.852 212.424 3.852C211.816 3.852 211.348 4.044 211.02 4.428C210.692 4.804 210.528 5.348 210.528 6.06C210.528 6.756 210.692 7.308 211.02 7.716C211.348 8.116 211.816 8.316 212.424 8.316C212.672 8.316 212.932 8.264 213.204 8.16C213.484 8.056 213.74 7.888 213.972 7.656L214.308 8.364C214.076 8.596 213.78 8.78 213.42 8.916C213.068 9.044 212.716 9.108 212.364 9.108ZM215.447 9V3.168H216.395V4.548H216.275C216.411 4.076 216.647 3.72 216.983 3.48C217.319 3.232 217.763 3.088 218.315 3.048L218.663 3.012L218.735 3.852L218.123 3.924C217.579 3.972 217.159 4.148 216.863 4.452C216.575 4.748 216.431 5.156 216.431 5.676V9H215.447ZM222.102 9.108C221.534 9.108 221.042 8.984 220.626 8.736C220.21 8.488 219.886 8.14 219.654 7.692C219.43 7.236 219.318 6.7 219.318 6.084C219.318 5.468 219.43 4.936 219.654 4.488C219.886 4.032 220.21 3.68 220.626 3.432C221.042 3.184 221.534 3.06 222.102 3.06C222.67 3.06 223.162 3.184 223.578 3.432C223.994 3.68 224.314 4.032 224.538 4.488C224.77 4.936 224.886 5.468 224.886 6.084C224.886 6.7 224.77 7.236 224.538 7.692C224.314 8.14 223.994 8.488 223.578 8.736C223.162 8.984 222.67 9.108 222.102 9.108ZM222.102 8.328C222.654 8.328 223.09 8.136 223.41 7.752C223.738 7.36 223.902 6.8 223.902 6.072C223.902 5.352 223.738 4.8 223.41 4.416C223.09 4.032 222.654 3.84 222.102 3.84C221.558 3.84 221.122 4.032 220.794 4.416C220.466 4.8 220.302 5.352 220.302 6.072C220.302 6.8 220.466 7.36 220.794 7.752C221.122 8.136 221.558 8.328 222.102 8.328ZM227.812 9L225.64 3.168H226.66L228.448 8.28H228.16L230.008 3.168H230.836L232.648 8.28H232.372L234.184 3.168H235.156L232.972 9H232.048L230.14 3.756H230.656L228.748 9H227.812ZM238.072 9.108C237.672 9.108 237.312 9.032 236.992 8.88C236.68 8.72 236.432 8.504 236.248 8.232C236.064 7.96 235.972 7.656 235.972 7.32C235.972 6.888 236.08 6.548 236.296 6.3C236.52 6.052 236.884 5.876 237.388 5.772C237.9 5.668 238.596 5.616 239.476 5.616H240.016V6.252H239.488C239 6.252 238.592 6.268 238.264 6.3C237.936 6.332 237.676 6.388 237.484 6.468C237.292 6.548 237.156 6.652 237.076 6.78C236.996 6.908 236.956 7.068 236.956 7.26C236.956 7.588 237.068 7.856 237.292 8.064C237.524 8.272 237.836 8.376 238.228 8.376C238.548 8.376 238.828 8.3 239.068 8.148C239.316 7.996 239.508 7.788 239.644 7.524C239.788 7.26 239.86 6.956 239.86 6.612V5.244C239.86 4.748 239.76 4.392 239.56 4.176C239.36 3.952 239.032 3.84 238.576 3.84C238.224 3.84 237.884 3.892 237.556 3.996C237.228 4.092 236.892 4.252 236.548 4.476L236.212 3.768C236.42 3.624 236.656 3.5 236.92 3.396C237.184 3.284 237.46 3.2 237.748 3.144C238.036 3.088 238.312 3.06 238.576 3.06C239.08 3.06 239.496 3.144 239.824 3.312C240.152 3.472 240.396 3.72 240.556 4.056C240.716 4.384 240.796 4.808 240.796 5.328V9H239.884V7.644H239.992C239.928 7.948 239.804 8.208 239.62 8.424C239.444 8.64 239.224 8.808 238.96 8.928C238.696 9.048 238.4 9.108 238.072 9.108ZM244.257 9L241.749 3.168H242.805L244.893 8.28H244.569L246.693 3.168H247.689L245.169 9H244.257ZM251.263 9.108C250.647 9.108 250.115 8.988 249.667 8.748C249.227 8.5 248.883 8.152 248.635 7.704C248.395 7.256 248.275 6.72 248.275 6.096C248.275 5.488 248.395 4.96 248.635 4.512C248.875 4.056 249.203 3.7 249.619 3.444C250.043 3.188 250.531 3.06 251.083 3.06C251.611 3.06 252.063 3.176 252.439 3.408C252.815 3.64 253.103 3.968 253.303 4.392C253.511 4.816 253.615 5.324 253.615 5.916V6.288H249.019V5.652H252.967L252.775 5.808C252.775 5.168 252.631 4.672 252.343 4.32C252.063 3.96 251.651 3.78 251.107 3.78C250.699 3.78 250.351 3.876 250.063 4.068C249.783 4.252 249.571 4.512 249.427 4.848C249.283 5.176 249.211 5.56 249.211 6V6.072C249.211 6.56 249.287 6.972 249.439 7.308C249.599 7.644 249.835 7.9 250.147 8.076C250.459 8.244 250.831 8.328 251.263 8.328C251.607 8.328 251.939 8.276 252.259 8.172C252.587 8.06 252.895 7.88 253.183 7.632L253.519 8.316C253.255 8.556 252.919 8.748 252.511 8.892C252.103 9.036 251.687 9.108 251.263 9.108ZM255.102 6.204V5.4H258.462V6.204H255.102ZM262.87 9.108C262.43 9.108 262.014 9.068 261.622 8.988C261.238 8.908 260.882 8.796 260.554 8.652C260.234 8.5 259.942 8.316 259.678 8.1L260.026 7.308C260.298 7.508 260.574 7.68 260.854 7.824C261.142 7.96 261.45 8.064 261.778 8.136C262.114 8.2 262.478 8.232 262.87 8.232C263.59 8.232 264.122 8.1 264.466 7.836C264.818 7.564 264.994 7.208 264.994 6.768C264.994 6.536 264.938 6.336 264.826 6.168C264.722 6 264.546 5.856 264.298 5.736C264.058 5.616 263.742 5.516 263.35 5.436L262.102 5.184C261.35 5.024 260.786 4.764 260.41 4.404C260.042 4.036 259.858 3.548 259.858 2.94C259.858 2.436 259.986 1.996 260.242 1.62C260.506 1.244 260.87 0.951999 261.334 0.744C261.806 0.536 262.342 0.431999 262.942 0.431999C263.326 0.431999 263.69 0.471999 264.034 0.551999C264.378 0.632 264.694 0.752 264.982 0.912C265.278 1.064 265.538 1.252 265.762 1.476L265.414 2.244C265.054 1.916 264.674 1.68 264.274 1.536C263.874 1.384 263.426 1.308 262.93 1.308C262.506 1.308 262.138 1.372 261.826 1.5C261.522 1.628 261.282 1.816 261.106 2.064C260.938 2.304 260.854 2.584 260.854 2.904C260.854 3.288 260.97 3.592 261.202 3.816C261.442 4.04 261.83 4.204 262.366 4.308L263.614 4.572C264.422 4.74 265.018 4.996 265.402 5.34C265.794 5.676 265.99 6.136 265.99 6.72C265.99 7.184 265.862 7.6 265.606 7.968C265.358 8.328 264.998 8.608 264.526 8.808C264.062 9.008 263.51 9.108 262.87 9.108ZM269.221 9.108C268.821 9.108 268.461 9.032 268.141 8.88C267.829 8.72 267.581 8.504 267.397 8.232C267.213 7.96 267.121 7.656 267.121 7.32C267.121 6.888 267.229 6.548 267.445 6.3C267.669 6.052 268.033 5.876 268.537 5.772C269.049 5.668 269.745 5.616 270.625 5.616H271.165V6.252H270.637C270.149 6.252 269.741 6.268 269.413 6.3C269.085 6.332 268.825 6.388 268.633 6.468C268.441 6.548 268.305 6.652 268.225 6.78C268.145 6.908 268.105 7.068 268.105 7.26C268.105 7.588 268.217 7.856 268.441 8.064C268.673 8.272 268.985 8.376 269.377 8.376C269.697 8.376 269.977 8.3 270.217 8.148C270.465 7.996 270.657 7.788 270.793 7.524C270.937 7.26 271.009 6.956 271.009 6.612V5.244C271.009 4.748 270.909 4.392 270.709 4.176C270.509 3.952 270.181 3.84 269.725 3.84C269.373 3.84 269.033 3.892 268.705 3.996C268.377 4.092 268.041 4.252 267.697 4.476L267.361 3.768C267.569 3.624 267.805 3.5 268.069 3.396C268.333 3.284 268.609 3.2 268.897 3.144C269.185 3.088 269.461 3.06 269.725 3.06C270.229 3.06 270.645 3.144 270.973 3.312C271.301 3.472 271.545 3.72 271.705 4.056C271.865 4.384 271.945 4.808 271.945 5.328V9H271.033V7.644H271.141C271.077 7.948 270.953 8.208 270.769 8.424C270.593 8.64 270.373 8.808 270.109 8.928C269.845 9.048 269.549 9.108 269.221 9.108ZM274.06 9V3.924H272.908V3.168H274.324L274.06 3.42V2.964C274.06 2.188 274.252 1.6 274.636 1.2C275.028 0.799999 275.628 0.575999 276.436 0.528L276.904 0.504L276.988 1.248L276.436 1.284C276.108 1.308 275.84 1.38 275.632 1.5C275.424 1.62 275.272 1.792 275.176 2.016C275.08 2.24 275.032 2.516 275.032 2.844V3.348L274.888 3.168H276.712V3.924H275.032V9H274.06ZM280.208 9.108C279.592 9.108 279.06 8.988 278.612 8.748C278.172 8.5 277.828 8.152 277.58 7.704C277.34 7.256 277.22 6.72 277.22 6.096C277.22 5.488 277.34 4.96 277.58 4.512C277.82 4.056 278.148 3.7 278.564 3.444C278.988 3.188 279.476 3.06 280.028 3.06C280.556 3.06 281.008 3.176 281.384 3.408C281.76 3.64 282.048 3.968 282.248 4.392C282.456 4.816 282.56 5.324 282.56 5.916V6.288H277.964V5.652H281.912L281.72 5.808C281.72 5.168 281.576 4.672 281.288 4.32C281.008 3.96 280.596 3.78 280.052 3.78C279.644 3.78 279.296 3.876 279.008 4.068C278.728 4.252 278.516 4.512 278.372 4.848C278.228 5.176 278.156 5.56 278.156 6V6.072C278.156 6.56 278.232 6.972 278.384 7.308C278.544 7.644 278.78 7.9 279.092 8.076C279.404 8.244 279.776 8.328 280.208 8.328C280.552 8.328 280.884 8.276 281.204 8.172C281.532 8.06 281.84 7.88 282.128 7.632L282.464 8.316C282.2 8.556 281.864 8.748 281.456 8.892C281.048 9.036 280.632 9.108 280.208 9.108ZM284.315 10.368L283.859 10.02C284.003 9.868 284.111 9.724 284.183 9.588C284.263 9.46 284.315 9.328 284.339 9.192C284.371 9.064 284.387 8.932 284.387 8.796L284.603 9H283.811V7.776H285.035V8.64C285.035 8.856 285.011 9.06 284.963 9.252C284.923 9.452 284.851 9.644 284.747 9.828C284.643 10.012 284.499 10.192 284.315 10.368ZM1.044 25V16.54H4.392C5 16.54 5.512 16.64 5.928 16.84C6.352 17.032 6.672 17.32 6.888 17.704C7.104 18.08 7.212 18.54 7.212 19.084C7.212 19.612 7.104 20.068 6.888 20.452C6.672 20.836 6.352 21.128 5.928 21.328C5.512 21.528 5 21.628 4.392 21.628H2.028V25H1.044ZM2.028 20.8H4.272C4.92 20.8 5.408 20.656 5.736 20.368C6.072 20.072 6.24 19.644 6.24 19.084C6.24 18.516 6.072 18.088 5.736 17.8C5.408 17.504 4.92 17.356 4.272 17.356H2.028V20.8ZM10.8759 25.108C10.2599 25.108 9.72794 24.988 9.27994 24.748C8.83994 24.5 8.49594 24.152 8.24794 23.704C8.00794 23.256 7.88794 22.72 7.88794 22.096C7.88794 21.488 8.00794 20.96 8.24794 20.512C8.48794 20.056 8.81594 19.7 9.23194 19.444C9.65594 19.188 10.1439 19.06 10.6959 19.06C11.2239 19.06 11.6759 19.176 12.0519 19.408C12.4279 19.64 12.7159 19.968 12.9159 20.392C13.1239 20.816 13.2279 21.324 13.2279 21.916V22.288H8.63194V21.652H12.5799L12.3879 21.808C12.3879 21.168 12.2439 20.672 11.9559 20.32C11.6759 19.96 11.2639 19.78 10.7199 19.78C10.3119 19.78 9.96394 19.876 9.67594 20.068C9.39594 20.252 9.18394 20.512 9.03994 20.848C8.89594 21.176 8.82394 21.56 8.82394 22V22.072C8.82394 22.56 8.89994 22.972 9.05194 23.308C9.21194 23.644 9.44794 23.9 9.75994 24.076C10.0719 24.244 10.4439 24.328 10.8759 24.328C11.2199 24.328 11.5519 24.276 11.8719 24.172C12.1999 24.06 12.5079 23.88 12.7959 23.632L13.1319 24.316C12.8679 24.556 12.5319 24.748 12.1239 24.892C11.7159 25.036 11.2999 25.108 10.8759 25.108ZM14.6347 25V19.168H15.5827V20.548H15.4627C15.5987 20.076 15.8347 19.72 16.1707 19.48C16.5067 19.232 16.9507 19.088 17.5027 19.048L17.8507 19.012L17.9227 19.852L17.3107 19.924C16.7667 19.972 16.3467 20.148 16.0507 20.452C15.7627 20.748 15.6187 21.156 15.6187 21.676V25H14.6347ZM19.5638 25V19.924H18.4118V19.168H19.8278L19.5638 19.42V18.964C19.5638 18.188 19.7558 17.6 20.1398 17.2C20.5318 16.8 21.1318 16.576 21.9398 16.528L22.4078 16.504L22.4918 17.248L21.9398 17.284C21.6118 17.308 21.3438 17.38 21.1358 17.5C20.9278 17.62 20.7758 17.792 20.6798 18.016C20.5838 18.24 20.5358 18.516 20.5358 18.844V19.348L20.3918 19.168H22.2158V19.924H20.5358V25H19.5638ZM25.7119 25.108C25.0959 25.108 24.5639 24.988 24.1159 24.748C23.6759 24.5 23.3319 24.152 23.0839 23.704C22.8439 23.256 22.7239 22.72 22.7239 22.096C22.7239 21.488 22.8439 20.96 23.0839 20.512C23.3239 20.056 23.6519 19.7 24.0679 19.444C24.4919 19.188 24.9799 19.06 25.5319 19.06C26.0599 19.06 26.5119 19.176 26.8879 19.408C27.2639 19.64 27.5519 19.968 27.7519 20.392C27.9599 20.816 28.0639 21.324 28.0639 21.916V22.288H23.4679V21.652H27.4159L27.2239 21.808C27.2239 21.168 27.0799 20.672 26.7919 20.32C26.5119 19.96 26.0999 19.78 25.5559 19.78C25.1479 19.78 24.7999 19.876 24.5119 20.068C24.2319 20.252 24.0199 20.512 23.8759 20.848C23.7319 21.176 23.6599 21.56 23.6599 22V22.072C23.6599 22.56 23.7359 22.972 23.8879 23.308C24.0479 23.644 24.2839 23.9 24.5959 24.076C24.9079 24.244 25.2799 24.328 25.7119 24.328C26.0559 24.328 26.3879 24.276 26.7079 24.172C27.0359 24.06 27.3439 23.88 27.6319 23.632L27.9679 24.316C27.7039 24.556 27.3679 24.748 26.9599 24.892C26.5519 25.036 26.1359 25.108 25.7119 25.108ZM31.9426 25.108C31.3586 25.108 30.8546 24.98 30.4306 24.724C30.0066 24.468 29.6786 24.112 29.4466 23.656C29.2226 23.192 29.1106 22.656 29.1106 22.048C29.1106 21.432 29.2226 20.9 29.4466 20.452C29.6786 20.004 30.0066 19.66 30.4306 19.42C30.8546 19.18 31.3586 19.06 31.9426 19.06C32.3026 19.06 32.6586 19.124 33.0106 19.252C33.3626 19.38 33.6546 19.56 33.8866 19.792L33.5506 20.5C33.3186 20.276 33.0626 20.112 32.7826 20.008C32.5106 19.904 32.2506 19.852 32.0026 19.852C31.3946 19.852 30.9266 20.044 30.5986 20.428C30.2706 20.804 30.1066 21.348 30.1066 22.06C30.1066 22.756 30.2706 23.308 30.5986 23.716C30.9266 24.116 31.3946 24.316 32.0026 24.316C32.2506 24.316 32.5106 24.264 32.7826 24.16C33.0626 24.056 33.3186 23.888 33.5506 23.656L33.8866 24.364C33.6546 24.596 33.3586 24.78 32.9986 24.916C32.6466 25.044 32.2946 25.108 31.9426 25.108ZM37.3653 25.108C36.6773 25.108 36.1613 24.924 35.8173 24.556C35.4733 24.188 35.3013 23.664 35.3013 22.984V19.924H34.1613V19.168H35.3013V17.38H36.2733V19.168H38.1213V19.924H36.2733V22.888C36.2733 23.344 36.3693 23.692 36.5613 23.932C36.7533 24.164 37.0653 24.28 37.4973 24.28C37.6253 24.28 37.7533 24.264 37.8813 24.232C38.0093 24.2 38.1253 24.168 38.2293 24.136L38.3973 24.88C38.2933 24.936 38.1413 24.988 37.9413 25.036C37.7413 25.084 37.5493 25.108 37.3653 25.108ZM42.4346 25V16.54H47.6666V17.368H43.4186V20.32H47.4266V21.148H43.4186V25H42.4346ZM51.0782 25.108C50.5102 25.108 50.0182 24.984 49.6022 24.736C49.1862 24.488 48.8622 24.14 48.6302 23.692C48.4062 23.236 48.2942 22.7 48.2942 22.084C48.2942 21.468 48.4062 20.936 48.6302 20.488C48.8622 20.032 49.1862 19.68 49.6022 19.432C50.0182 19.184 50.5102 19.06 51.0782 19.06C51.6462 19.06 52.1382 19.184 52.5542 19.432C52.9702 19.68 53.2902 20.032 53.5142 20.488C53.7462 20.936 53.8622 21.468 53.8622 22.084C53.8622 22.7 53.7462 23.236 53.5142 23.692C53.2902 24.14 52.9702 24.488 52.5542 24.736C52.1382 24.984 51.6462 25.108 51.0782 25.108ZM51.0782 24.328C51.6302 24.328 52.0662 24.136 52.3862 23.752C52.7142 23.36 52.8782 22.8 52.8782 22.072C52.8782 21.352 52.7142 20.8 52.3862 20.416C52.0662 20.032 51.6302 19.84 51.0782 19.84C50.5342 19.84 50.0982 20.032 49.7702 20.416C49.4422 20.8 49.2782 21.352 49.2782 22.072C49.2782 22.8 49.4422 23.36 49.7702 23.752C50.0982 24.136 50.5342 24.328 51.0782 24.328ZM55.3222 25V19.168H56.2702V20.548H56.1502C56.2862 20.076 56.5222 19.72 56.8582 19.48C57.1942 19.232 57.6382 19.088 58.1902 19.048L58.5382 19.012L58.6102 19.852L57.9982 19.924C57.4542 19.972 57.0342 20.148 56.7382 20.452C56.4502 20.748 56.3062 21.156 56.3062 21.676V25H55.3222ZM61.745 25.084L61.673 24.256L62.393 24.208C62.673 24.184 62.905 24.116 63.089 24.004C63.273 23.884 63.413 23.716 63.509 23.5C63.605 23.284 63.653 23.032 63.653 22.744V16.54H64.637V22.756C64.637 23.212 64.557 23.608 64.397 23.944C64.237 24.272 64.001 24.528 63.689 24.712C63.377 24.896 62.989 25.004 62.525 25.036L61.745 25.084ZM68.6596 25.108C68.1876 25.108 67.7956 25.024 67.4836 24.856C67.1796 24.68 66.9476 24.42 66.7876 24.076C66.6356 23.732 66.5596 23.304 66.5596 22.792V19.168H67.5316V22.78C67.5316 23.124 67.5756 23.412 67.6636 23.644C67.7596 23.868 67.9076 24.036 68.1076 24.148C68.3076 24.252 68.5556 24.304 68.8516 24.304C69.1876 24.304 69.4796 24.228 69.7276 24.076C69.9756 23.924 70.1716 23.712 70.3156 23.44C70.4596 23.168 70.5316 22.848 70.5316 22.48V19.168H71.5036V25H70.5556V23.656H70.7116C70.5516 24.128 70.2876 24.488 69.9196 24.736C69.5596 24.984 69.1396 25.108 68.6596 25.108ZM73.2022 17.716V16.624H74.4022V17.716H73.2022ZM73.3222 25V19.168H74.2942V25H73.3222ZM78.5832 25.108C77.9992 25.108 77.4952 24.98 77.0712 24.724C76.6472 24.468 76.3192 24.112 76.0872 23.656C75.8632 23.192 75.7512 22.656 75.7512 22.048C75.7512 21.432 75.8632 20.9 76.0872 20.452C76.3192 20.004 76.6472 19.66 77.0712 19.42C77.4952 19.18 77.9992 19.06 78.5832 19.06C78.9432 19.06 79.2992 19.124 79.6512 19.252C80.0032 19.38 80.2952 19.56 80.5272 19.792L80.1912 20.5C79.9592 20.276 79.7032 20.112 79.4232 20.008C79.1512 19.904 78.8912 19.852 78.6432 19.852C78.0352 19.852 77.5672 20.044 77.2392 20.428C76.9112 20.804 76.7472 21.348 76.7472 22.06C76.7472 22.756 76.9112 23.308 77.2392 23.716C77.5672 24.116 78.0352 24.316 78.6432 24.316C78.8912 24.316 79.1512 24.264 79.4232 24.16C79.7032 24.056 79.9592 23.888 80.1912 23.656L80.5272 24.364C80.2952 24.596 79.9992 24.78 79.6392 24.916C79.2872 25.044 78.9352 25.108 78.5832 25.108ZM84.1767 25.108C83.5607 25.108 83.0287 24.988 82.5807 24.748C82.1407 24.5 81.7967 24.152 81.5487 23.704C81.3087 23.256 81.1887 22.72 81.1887 22.096C81.1887 21.488 81.3087 20.96 81.5487 20.512C81.7887 20.056 82.1167 19.7 82.5327 19.444C82.9567 19.188 83.4447 19.06 83.9967 19.06C84.5247 19.06 84.9767 19.176 85.3527 19.408C85.7287 19.64 86.0167 19.968 86.2167 20.392C86.4247 20.816 86.5287 21.324 86.5287 21.916V22.288H81.9327V21.652H85.8807L85.6887 21.808C85.6887 21.168 85.5447 20.672 85.2567 20.32C84.9767 19.96 84.5647 19.78 84.0207 19.78C83.6127 19.78 83.2647 19.876 82.9767 20.068C82.6967 20.252 82.4847 20.512 82.3407 20.848C82.1967 21.176 82.1247 21.56 82.1247 22V22.072C82.1247 22.56 82.2007 22.972 82.3527 23.308C82.5127 23.644 82.7487 23.9 83.0607 24.076C83.3727 24.244 83.7447 24.328 84.1767 24.328C84.5207 24.328 84.8527 24.276 85.1727 24.172C85.5007 24.06 85.8087 23.88 86.0967 23.632L86.4327 24.316C86.1687 24.556 85.8327 24.748 85.4247 24.892C85.0167 25.036 84.6007 25.108 84.1767 25.108ZM89.9034 25.108C89.5994 25.108 89.3034 25.076 89.0154 25.012C88.7354 24.956 88.4714 24.876 88.2234 24.772C87.9834 24.66 87.7754 24.528 87.5994 24.376L87.9114 23.692C88.1034 23.844 88.3114 23.972 88.5354 24.076C88.7594 24.172 88.9874 24.244 89.2194 24.292C89.4514 24.34 89.6874 24.364 89.9274 24.364C90.3834 24.364 90.7274 24.28 90.9594 24.112C91.1914 23.944 91.3074 23.716 91.3074 23.428C91.3074 23.204 91.2314 23.028 91.0794 22.9C90.9274 22.764 90.6874 22.66 90.3594 22.588L89.2674 22.348C88.7634 22.244 88.3874 22.064 88.1394 21.808C87.8994 21.552 87.7794 21.22 87.7794 20.812C87.7794 20.452 87.8714 20.144 88.0554 19.888C88.2474 19.624 88.5154 19.42 88.8594 19.276C89.2034 19.132 89.6034 19.06 90.0594 19.06C90.3314 19.06 90.5914 19.088 90.8394 19.144C91.0874 19.2 91.3194 19.284 91.5354 19.396C91.7594 19.5 91.9514 19.632 92.1114 19.792L91.7874 20.476C91.6354 20.332 91.4634 20.212 91.2714 20.116C91.0794 20.012 90.8794 19.936 90.6714 19.888C90.4714 19.832 90.2674 19.804 90.0594 19.804C89.6114 19.804 89.2714 19.892 89.0394 20.068C88.8074 20.244 88.6914 20.476 88.6914 20.764C88.6914 20.988 88.7634 21.172 88.9074 21.316C89.0514 21.46 89.2754 21.564 89.5794 21.628L90.6714 21.856C91.1914 21.968 91.5794 22.148 91.8354 22.396C92.0994 22.636 92.2314 22.964 92.2314 23.38C92.2314 23.732 92.1354 24.04 91.9434 24.304C91.7514 24.56 91.4794 24.76 91.1274 24.904C90.7834 25.04 90.3754 25.108 89.9034 25.108ZM94.0022 26.368L93.5462 26.02C93.6902 25.868 93.7982 25.724 93.8702 25.588C93.9502 25.46 94.0022 25.328 94.0262 25.192C94.0582 25.064 94.0742 24.932 94.0742 24.796L94.2902 25H93.4982V23.776H94.7222V24.64C94.7222 24.856 94.6982 25.06 94.6502 25.252C94.6102 25.452 94.5382 25.644 94.4342 25.828C94.3302 26.012 94.1862 26.192 94.0022 26.368ZM102.335 25.108C101.895 25.108 101.479 25.068 101.087 24.988C100.703 24.908 100.347 24.796 100.019 24.652C99.6987 24.5 99.4067 24.316 99.1427 24.1L99.4907 23.308C99.7627 23.508 100.039 23.68 100.319 23.824C100.607 23.96 100.915 24.064 101.243 24.136C101.579 24.2 101.943 24.232 102.335 24.232C103.055 24.232 103.587 24.1 103.931 23.836C104.283 23.564 104.459 23.208 104.459 22.768C104.459 22.536 104.403 22.336 104.291 22.168C104.187 22 104.011 21.856 103.763 21.736C103.523 21.616 103.207 21.516 102.815 21.436L101.567 21.184C100.815 21.024 100.251 20.764 99.8747 20.404C99.5067 20.036 99.3227 19.548 99.3227 18.94C99.3227 18.436 99.4507 17.996 99.7067 17.62C99.9707 17.244 100.335 16.952 100.799 16.744C101.271 16.536 101.807 16.432 102.407 16.432C102.791 16.432 103.155 16.472 103.499 16.552C103.843 16.632 104.159 16.752 104.447 16.912C104.743 17.064 105.003 17.252 105.227 17.476L104.879 18.244C104.519 17.916 104.139 17.68 103.739 17.536C103.339 17.384 102.891 17.308 102.395 17.308C101.971 17.308 101.603 17.372 101.291 17.5C100.987 17.628 100.747 17.816 100.571 18.064C100.403 18.304 100.319 18.584 100.319 18.904C100.319 19.288 100.435 19.592 100.667 19.816C100.907 20.04 101.295 20.204 101.831 20.308L103.079 20.572C103.887 20.74 104.483 20.996 104.867 21.34C105.259 21.676 105.455 22.136 105.455 22.72C105.455 23.184 105.327 23.6 105.071 23.968C104.823 24.328 104.463 24.608 103.991 24.808C103.527 25.008 102.975 25.108 102.335 25.108ZM106.874 25V19.168H107.822V20.464H107.69C107.786 20.168 107.926 19.916 108.11 19.708C108.302 19.492 108.526 19.332 108.782 19.228C109.046 19.116 109.334 19.06 109.646 19.06C110.142 19.06 110.542 19.18 110.846 19.42C111.158 19.652 111.366 20.016 111.47 20.512H111.29C111.434 20.064 111.69 19.712 112.058 19.456C112.434 19.192 112.87 19.06 113.366 19.06C113.806 19.06 114.166 19.144 114.446 19.312C114.734 19.48 114.95 19.736 115.094 20.08C115.238 20.416 115.31 20.844 115.31 21.364V25H114.338V21.412C114.338 20.876 114.246 20.484 114.062 20.236C113.878 19.98 113.566 19.852 113.126 19.852C112.814 19.852 112.538 19.928 112.298 20.08C112.066 20.232 111.886 20.448 111.758 20.728C111.638 21 111.578 21.324 111.578 21.7V25H110.606V21.412C110.606 20.876 110.51 20.484 110.318 20.236C110.134 19.98 109.826 19.852 109.394 19.852C109.074 19.852 108.798 19.928 108.566 20.08C108.334 20.232 108.154 20.448 108.026 20.728C107.906 21 107.846 21.324 107.846 21.7V25H106.874ZM119.551 25.108C118.983 25.108 118.491 24.984 118.075 24.736C117.659 24.488 117.335 24.14 117.103 23.692C116.879 23.236 116.767 22.7 116.767 22.084C116.767 21.468 116.879 20.936 117.103 20.488C117.335 20.032 117.659 19.68 118.075 19.432C118.491 19.184 118.983 19.06 119.551 19.06C120.119 19.06 120.611 19.184 121.027 19.432C121.443 19.68 121.763 20.032 121.987 20.488C122.219 20.936 122.335 21.468 122.335 22.084C122.335 22.7 122.219 23.236 121.987 23.692C121.763 24.14 121.443 24.488 121.027 24.736C120.611 24.984 120.119 25.108 119.551 25.108ZM119.551 24.328C120.103 24.328 120.539 24.136 120.859 23.752C121.187 23.36 121.351 22.8 121.351 22.072C121.351 21.352 121.187 20.8 120.859 20.416C120.539 20.032 120.103 19.84 119.551 19.84C119.007 19.84 118.571 20.032 118.243 20.416C117.915 20.8 117.751 21.352 117.751 22.072C117.751 22.8 117.915 23.36 118.243 23.752C118.571 24.136 119.007 24.328 119.551 24.328ZM126.219 25.108C125.651 25.108 125.159 24.984 124.743 24.736C124.327 24.488 124.003 24.14 123.771 23.692C123.547 23.236 123.435 22.7 123.435 22.084C123.435 21.468 123.547 20.936 123.771 20.488C124.003 20.032 124.327 19.68 124.743 19.432C125.159 19.184 125.651 19.06 126.219 19.06C126.787 19.06 127.279 19.184 127.695 19.432C128.111 19.68 128.431 20.032 128.655 20.488C128.887 20.936 129.003 21.468 129.003 22.084C129.003 22.7 128.887 23.236 128.655 23.692C128.431 24.14 128.111 24.488 127.695 24.736C127.279 24.984 126.787 25.108 126.219 25.108ZM126.219 24.328C126.771 24.328 127.207 24.136 127.527 23.752C127.855 23.36 128.019 22.8 128.019 22.072C128.019 21.352 127.855 20.8 127.527 20.416C127.207 20.032 126.771 19.84 126.219 19.84C125.675 19.84 125.239 20.032 124.911 20.416C124.583 20.8 124.419 21.352 124.419 22.072C124.419 22.8 124.583 23.36 124.911 23.752C125.239 24.136 125.675 24.328 126.219 24.328ZM132.744 25.108C132.056 25.108 131.54 24.924 131.196 24.556C130.852 24.188 130.68 23.664 130.68 22.984V19.924H129.54V19.168H130.68V17.38H131.652V19.168H133.5V19.924H131.652V22.888C131.652 23.344 131.748 23.692 131.94 23.932C132.132 24.164 132.444 24.28 132.876 24.28C133.004 24.28 133.132 24.264 133.26 24.232C133.388 24.2 133.504 24.168 133.608 24.136L133.776 24.88C133.672 24.936 133.52 24.988 133.32 25.036C133.12 25.084 132.928 25.108 132.744 25.108ZM134.6 25V16.54H135.572V20.464H135.416C135.584 20 135.856 19.652 136.232 19.42C136.616 19.18 137.056 19.06 137.552 19.06C138.016 19.06 138.4 19.144 138.704 19.312C139.016 19.48 139.248 19.736 139.4 20.08C139.552 20.416 139.628 20.844 139.628 21.364V25H138.656V21.424C138.656 21.064 138.608 20.768 138.512 20.536C138.424 20.304 138.28 20.132 138.08 20.02C137.888 19.908 137.636 19.852 137.324 19.852C136.972 19.852 136.664 19.928 136.4 20.08C136.136 20.232 135.932 20.444 135.788 20.716C135.644 20.988 135.572 21.308 135.572 21.676V25H134.6ZM141.3 17.716V16.624H142.5V17.716H141.3ZM141.42 25V19.168H142.392V25H141.42ZM146.837 25.108C146.221 25.108 145.689 24.988 145.241 24.748C144.801 24.5 144.457 24.152 144.209 23.704C143.969 23.256 143.849 22.72 143.849 22.096C143.849 21.488 143.969 20.96 144.209 20.512C144.449 20.056 144.777 19.7 145.193 19.444C145.617 19.188 146.105 19.06 146.657 19.06C147.185 19.06 147.637 19.176 148.013 19.408C148.389 19.64 148.677 19.968 148.877 20.392C149.085 20.816 149.189 21.324 149.189 21.916V22.288H144.593V21.652H148.541L148.349 21.808C148.349 21.168 148.205 20.672 147.917 20.32C147.637 19.96 147.225 19.78 146.681 19.78C146.273 19.78 145.925 19.876 145.637 20.068C145.357 20.252 145.145 20.512 145.001 20.848C144.857 21.176 144.785 21.56 144.785 22V22.072C144.785 22.56 144.861 22.972 145.013 23.308C145.173 23.644 145.409 23.9 145.721 24.076C146.033 24.244 146.405 24.328 146.837 24.328C147.181 24.328 147.513 24.276 147.833 24.172C148.161 24.06 148.469 23.88 148.757 23.632L149.093 24.316C148.829 24.556 148.493 24.748 148.085 24.892C147.677 25.036 147.261 25.108 146.837 25.108ZM152.564 25.108C152.26 25.108 151.964 25.076 151.676 25.012C151.396 24.956 151.132 24.876 150.884 24.772C150.644 24.66 150.436 24.528 150.26 24.376L150.572 23.692C150.764 23.844 150.972 23.972 151.196 24.076C151.42 24.172 151.648 24.244 151.88 24.292C152.112 24.34 152.348 24.364 152.588 24.364C153.044 24.364 153.388 24.28 153.62 24.112C153.852 23.944 153.968 23.716 153.968 23.428C153.968 23.204 153.892 23.028 153.74 22.9C153.588 22.764 153.348 22.66 153.02 22.588L151.928 22.348C151.424 22.244 151.048 22.064 150.8 21.808C150.56 21.552 150.44 21.22 150.44 20.812C150.44 20.452 150.532 20.144 150.716 19.888C150.908 19.624 151.176 19.42 151.52 19.276C151.864 19.132 152.264 19.06 152.72 19.06C152.992 19.06 153.252 19.088 153.5 19.144C153.748 19.2 153.98 19.284 154.196 19.396C154.42 19.5 154.612 19.632 154.772 19.792L154.448 20.476C154.296 20.332 154.124 20.212 153.932 20.116C153.74 20.012 153.54 19.936 153.332 19.888C153.132 19.832 152.928 19.804 152.72 19.804C152.272 19.804 151.932 19.892 151.7 20.068C151.468 20.244 151.352 20.476 151.352 20.764C151.352 20.988 151.424 21.172 151.568 21.316C151.712 21.46 151.936 21.564 152.24 21.628L153.332 21.856C153.852 21.968 154.24 22.148 154.496 22.396C154.76 22.636 154.892 22.964 154.892 23.38C154.892 23.732 154.796 24.04 154.604 24.304C154.412 24.56 154.14 24.76 153.788 24.904C153.444 25.04 153.036 25.108 152.564 25.108ZM156.662 26.368L156.206 26.02C156.35 25.868 156.458 25.724 156.53 25.588C156.61 25.46 156.662 25.328 156.686 25.192C156.718 25.064 156.734 24.932 156.734 24.796L156.95 25H156.158V23.776H157.382V24.64C157.382 24.856 157.358 25.06 157.31 25.252C157.27 25.452 157.198 25.644 157.094 25.828C156.99 26.012 156.846 26.192 156.662 26.368ZM161.443 25L165.175 16.54H166.015L169.747 25H168.727L167.683 22.588L168.163 22.84H163.003L163.495 22.588L162.463 25H161.443ZM165.583 17.692L163.651 22.24L163.363 22.012H167.803L167.539 22.24L165.607 17.692H165.583ZM170.869 25V19.168H171.817V20.464H171.685C171.853 20 172.125 19.652 172.501 19.42C172.885 19.18 173.325 19.06 173.821 19.06C174.285 19.06 174.669 19.144 174.973 19.312C175.285 19.472 175.517 19.724 175.669 20.068C175.821 20.412 175.897 20.844 175.897 21.364V25H174.925V21.424C174.925 21.064 174.877 20.768 174.781 20.536C174.693 20.304 174.549 20.132 174.349 20.02C174.157 19.908 173.905 19.852 173.593 19.852C173.241 19.852 172.933 19.928 172.669 20.08C172.405 20.232 172.201 20.444 172.057 20.716C171.913 20.988 171.841 21.308 171.841 21.676V25H170.869ZM179.909 25.108C179.389 25.108 178.933 24.984 178.541 24.736C178.157 24.488 177.857 24.14 177.641 23.692C177.433 23.236 177.329 22.7 177.329 22.084C177.329 21.46 177.433 20.924 177.641 20.476C177.857 20.02 178.157 19.672 178.541 19.432C178.933 19.184 179.389 19.06 179.909 19.06C180.437 19.06 180.889 19.192 181.265 19.456C181.641 19.72 181.893 20.076 182.021 20.524H181.889V16.54H182.861V25H181.913V23.608H182.033C181.905 24.064 181.649 24.428 181.265 24.7C180.889 24.972 180.437 25.108 179.909 25.108ZM180.113 24.328C180.665 24.328 181.101 24.136 181.421 23.752C181.749 23.36 181.913 22.804 181.913 22.084C181.913 21.356 181.749 20.8 181.421 20.416C181.101 20.032 180.665 19.84 180.113 19.84C179.569 19.84 179.133 20.032 178.805 20.416C178.477 20.8 178.313 21.356 178.313 22.084C178.313 22.804 178.477 23.36 178.805 23.752C179.133 24.136 179.569 24.328 180.113 24.328ZM191.559 25.108C190.727 25.108 190.015 24.932 189.423 24.58C188.831 24.228 188.375 23.728 188.055 23.08C187.743 22.432 187.587 21.66 187.587 20.764C187.587 19.868 187.743 19.1 188.055 18.46C188.375 17.812 188.831 17.312 189.423 16.96C190.015 16.608 190.727 16.432 191.559 16.432C192.143 16.432 192.683 16.524 193.179 16.708C193.675 16.892 194.091 17.16 194.427 17.512L194.043 18.316C193.675 17.972 193.291 17.724 192.891 17.572C192.499 17.412 192.063 17.332 191.583 17.332C190.631 17.332 189.903 17.632 189.399 18.232C188.895 18.832 188.643 19.676 188.643 20.764C188.643 21.852 188.895 22.7 189.399 23.308C189.903 23.908 190.631 24.208 191.583 24.208C192.063 24.208 192.499 24.132 192.891 23.98C193.291 23.82 193.675 23.568 194.043 23.224L194.427 24.028C194.091 24.372 193.675 24.64 193.179 24.832C192.683 25.016 192.143 25.108 191.559 25.108ZM197.844 25.108C197.276 25.108 196.784 24.984 196.368 24.736C195.952 24.488 195.628 24.14 195.396 23.692C195.172 23.236 195.06 22.7 195.06 22.084C195.06 21.468 195.172 20.936 195.396 20.488C195.628 20.032 195.952 19.68 196.368 19.432C196.784 19.184 197.276 19.06 197.844 19.06C198.412 19.06 198.904 19.184 199.32 19.432C199.736 19.68 200.056 20.032 200.28 20.488C200.512 20.936 200.628 21.468 200.628 22.084C200.628 22.7 200.512 23.236 200.28 23.692C200.056 24.14 199.736 24.488 199.32 24.736C198.904 24.984 198.412 25.108 197.844 25.108ZM197.844 24.328C198.396 24.328 198.832 24.136 199.152 23.752C199.48 23.36 199.644 22.8 199.644 22.072C199.644 21.352 199.48 20.8 199.152 20.416C198.832 20.032 198.396 19.84 197.844 19.84C197.3 19.84 196.864 20.032 196.536 20.416C196.208 20.8 196.044 21.352 196.044 22.072C196.044 22.8 196.208 23.36 196.536 23.752C196.864 24.136 197.3 24.328 197.844 24.328ZM203.876 25.108C203.284 25.108 202.836 24.932 202.532 24.58C202.236 24.228 202.088 23.724 202.088 23.068V16.54H203.06V22.996C203.06 23.276 203.096 23.512 203.168 23.704C203.248 23.896 203.364 24.04 203.516 24.136C203.668 24.232 203.856 24.28 204.08 24.28C204.176 24.28 204.268 24.276 204.356 24.268C204.452 24.252 204.54 24.232 204.62 24.208L204.596 25.024C204.468 25.048 204.344 25.068 204.224 25.084C204.112 25.1 203.996 25.108 203.876 25.108ZM207.8 25.108C207.28 25.108 206.824 24.984 206.432 24.736C206.048 24.488 205.748 24.14 205.532 23.692C205.324 23.236 205.22 22.7 205.22 22.084C205.22 21.46 205.324 20.924 205.532 20.476C205.748 20.02 206.048 19.672 206.432 19.432C206.824 19.184 207.28 19.06 207.8 19.06C208.328 19.06 208.78 19.192 209.156 19.456C209.532 19.72 209.784 20.076 209.912 20.524H209.78V16.54H210.752V25H209.804V23.608H209.924C209.796 24.064 209.54 24.428 209.156 24.7C208.78 24.972 208.328 25.108 207.8 25.108ZM208.004 24.328C208.556 24.328 208.992 24.136 209.312 23.752C209.64 23.36 209.804 22.804 209.804 22.084C209.804 21.356 209.64 20.8 209.312 20.416C208.992 20.032 208.556 19.84 208.004 19.84C207.46 19.84 207.024 20.032 206.696 20.416C206.368 20.8 206.204 21.356 206.204 22.084C206.204 22.804 206.368 23.36 206.696 23.752C207.024 24.136 207.46 24.328 208.004 24.328ZM215.79 25V16.54H219.174C220.038 16.54 220.71 16.732 221.19 17.116C221.67 17.5 221.91 18.044 221.91 18.748C221.91 19.276 221.754 19.716 221.442 20.068C221.138 20.42 220.722 20.652 220.194 20.764V20.596C220.594 20.644 220.938 20.76 221.226 20.944C221.514 21.12 221.734 21.356 221.886 21.652C222.038 21.94 222.114 22.28 222.114 22.672C222.114 23.176 222.002 23.604 221.778 23.956C221.562 24.3 221.246 24.56 220.83 24.736C220.414 24.912 219.91 25 219.318 25H215.79ZM216.75 24.208H219.222C219.478 24.208 219.706 24.188 219.906 24.148C220.114 24.108 220.294 24.048 220.446 23.968C220.598 23.88 220.726 23.776 220.83 23.656C220.934 23.536 221.01 23.392 221.058 23.224C221.114 23.056 221.142 22.868 221.142 22.66C221.142 22.444 221.114 22.256 221.058 22.096C221.01 21.928 220.934 21.784 220.83 21.664C220.726 21.536 220.598 21.432 220.446 21.352C220.294 21.272 220.114 21.212 219.906 21.172C219.706 21.132 219.478 21.112 219.222 21.112H216.75V24.208ZM216.75 20.32H219.03C219.654 20.32 220.126 20.192 220.446 19.936C220.774 19.68 220.938 19.312 220.938 18.832C220.938 18.336 220.774 17.964 220.446 17.716C220.126 17.46 219.654 17.332 219.03 17.332H216.75V20.32ZM226.395 25.108C225.779 25.108 225.247 24.988 224.799 24.748C224.359 24.5 224.015 24.152 223.767 23.704C223.527 23.256 223.407 22.72 223.407 22.096C223.407 21.488 223.527 20.96 223.767 20.512C224.007 20.056 224.335 19.7 224.751 19.444C225.175 19.188 225.663 19.06 226.215 19.06C226.743 19.06 227.195 19.176 227.571 19.408C227.947 19.64 228.235 19.968 228.435 20.392C228.643 20.816 228.747 21.324 228.747 21.916V22.288H224.151V21.652H228.099L227.907 21.808C227.907 21.168 227.763 20.672 227.475 20.32C227.195 19.96 226.783 19.78 226.239 19.78C225.831 19.78 225.483 19.876 225.195 20.068C224.915 20.252 224.703 20.512 224.559 20.848C224.415 21.176 224.343 21.56 224.343 22V22.072C224.343 22.56 224.419 22.972 224.571 23.308C224.731 23.644 224.967 23.9 225.279 24.076C225.591 24.244 225.963 24.328 226.395 24.328C226.739 24.328 227.071 24.276 227.391 24.172C227.719 24.06 228.027 23.88 228.315 23.632L228.651 24.316C228.387 24.556 228.051 24.748 227.643 24.892C227.235 25.036 226.819 25.108 226.395 25.108ZM231.8 25L229.292 19.168H230.348L232.436 24.28H232.112L234.236 19.168H235.232L232.712 25H231.8ZM238.806 25.108C238.19 25.108 237.658 24.988 237.21 24.748C236.77 24.5 236.426 24.152 236.178 23.704C235.938 23.256 235.818 22.72 235.818 22.096C235.818 21.488 235.938 20.96 236.178 20.512C236.418 20.056 236.746 19.7 237.162 19.444C237.586 19.188 238.074 19.06 238.626 19.06C239.154 19.06 239.606 19.176 239.982 19.408C240.358 19.64 240.646 19.968 240.846 20.392C241.054 20.816 241.158 21.324 241.158 21.916V22.288H236.562V21.652H240.51L240.318 21.808C240.318 21.168 240.174 20.672 239.886 20.32C239.606 19.96 239.194 19.78 238.65 19.78C238.242 19.78 237.894 19.876 237.606 20.068C237.326 20.252 237.114 20.512 236.97 20.848C236.826 21.176 236.754 21.56 236.754 22V22.072C236.754 22.56 236.83 22.972 236.982 23.308C237.142 23.644 237.378 23.9 237.69 24.076C238.002 24.244 238.374 24.328 238.806 24.328C239.15 24.328 239.482 24.276 239.802 24.172C240.13 24.06 240.438 23.88 240.726 23.632L241.062 24.316C240.798 24.556 240.462 24.748 240.054 24.892C239.646 25.036 239.23 25.108 238.806 25.108ZM242.564 25V19.168H243.512V20.548H243.392C243.528 20.076 243.764 19.72 244.1 19.48C244.436 19.232 244.88 19.088 245.432 19.048L245.78 19.012L245.852 19.852L245.24 19.924C244.696 19.972 244.276 20.148 243.98 20.452C243.692 20.748 243.548 21.156 243.548 21.676V25H242.564ZM248.643 25.108C248.243 25.108 247.883 25.032 247.563 24.88C247.251 24.72 247.003 24.504 246.819 24.232C246.635 23.96 246.543 23.656 246.543 23.32C246.543 22.888 246.651 22.548 246.867 22.3C247.091 22.052 247.455 21.876 247.959 21.772C248.471 21.668 249.167 21.616 250.047 21.616H250.587V22.252H250.059C249.571 22.252 249.163 22.268 248.835 22.3C248.507 22.332 248.247 22.388 248.055 22.468C247.863 22.548 247.727 22.652 247.647 22.78C247.567 22.908 247.527 23.068 247.527 23.26C247.527 23.588 247.639 23.856 247.863 24.064C248.095 24.272 248.407 24.376 248.799 24.376C249.119 24.376 249.399 24.3 249.639 24.148C249.887 23.996 250.079 23.788 250.215 23.524C250.359 23.26 250.431 22.956 250.431 22.612V21.244C250.431 20.748 250.331 20.392 250.131 20.176C249.931 19.952 249.603 19.84 249.147 19.84C248.795 19.84 248.455 19.892 248.127 19.996C247.799 20.092 247.463 20.252 247.119 20.476L246.783 19.768C246.991 19.624 247.227 19.5 247.491 19.396C247.755 19.284 248.031 19.2 248.319 19.144C248.607 19.088 248.883 19.06 249.147 19.06C249.651 19.06 250.067 19.144 250.395 19.312C250.723 19.472 250.967 19.72 251.127 20.056C251.287 20.384 251.367 20.808 251.367 21.328V25H250.455V23.644H250.563C250.499 23.948 250.375 24.208 250.191 24.424C250.015 24.64 249.795 24.808 249.531 24.928C249.267 25.048 248.971 25.108 248.643 25.108ZM255.75 27.268C255.246 27.268 254.77 27.2 254.322 27.064C253.882 26.936 253.49 26.74 253.146 26.476L253.47 25.768C253.71 25.936 253.946 26.072 254.178 26.176C254.418 26.288 254.662 26.368 254.91 26.416C255.166 26.464 255.43 26.488 255.702 26.488C256.27 26.488 256.698 26.336 256.986 26.032C257.282 25.728 257.43 25.288 257.43 24.712V23.356H257.55C257.43 23.82 257.174 24.188 256.782 24.46C256.398 24.732 255.946 24.868 255.426 24.868C254.89 24.868 254.426 24.748 254.034 24.508C253.642 24.26 253.338 23.916 253.122 23.476C252.914 23.036 252.81 22.528 252.81 21.952C252.81 21.376 252.914 20.872 253.122 20.44C253.338 20 253.642 19.66 254.034 19.42C254.426 19.18 254.89 19.06 255.426 19.06C255.954 19.06 256.41 19.196 256.794 19.468C257.178 19.732 257.426 20.092 257.538 20.548H257.43V19.168H258.378V24.58C258.378 25.172 258.278 25.668 258.078 26.068C257.886 26.468 257.594 26.768 257.202 26.968C256.81 27.168 256.326 27.268 255.75 27.268ZM255.606 24.076C256.166 24.076 256.61 23.884 256.938 23.5C257.266 23.116 257.43 22.6 257.43 21.952C257.43 21.304 257.266 20.792 256.938 20.416C256.61 20.032 256.166 19.84 255.606 19.84C255.054 19.84 254.614 20.032 254.286 20.416C253.958 20.792 253.794 21.304 253.794 21.952C253.794 22.6 253.958 23.116 254.286 23.5C254.614 23.884 255.054 24.076 255.606 24.076ZM262.829 25.108C262.213 25.108 261.681 24.988 261.233 24.748C260.793 24.5 260.449 24.152 260.201 23.704C259.961 23.256 259.841 22.72 259.841 22.096C259.841 21.488 259.961 20.96 260.201 20.512C260.441 20.056 260.769 19.7 261.185 19.444C261.609 19.188 262.097 19.06 262.649 19.06C263.177 19.06 263.629 19.176 264.005 19.408C264.381 19.64 264.669 19.968 264.869 20.392C265.077 20.816 265.181 21.324 265.181 21.916V22.288H260.585V21.652H264.533L264.341 21.808C264.341 21.168 264.197 20.672 263.909 20.32C263.629 19.96 263.217 19.78 262.673 19.78C262.265 19.78 261.917 19.876 261.629 20.068C261.349 20.252 261.137 20.512 260.993 20.848C260.849 21.176 260.777 21.56 260.777 22V22.072C260.777 22.56 260.853 22.972 261.005 23.308C261.165 23.644 261.401 23.9 261.713 24.076C262.025 24.244 262.397 24.328 262.829 24.328C263.173 24.328 263.505 24.276 263.825 24.172C264.153 24.06 264.461 23.88 264.749 23.632L265.085 24.316C264.821 24.556 264.485 24.748 264.077 24.892C263.669 25.036 263.253 25.108 262.829 25.108ZM268.556 25.108C268.252 25.108 267.956 25.076 267.668 25.012C267.388 24.956 267.124 24.876 266.876 24.772C266.636 24.66 266.428 24.528 266.252 24.376L266.564 23.692C266.756 23.844 266.964 23.972 267.188 24.076C267.412 24.172 267.64 24.244 267.872 24.292C268.104 24.34 268.34 24.364 268.58 24.364C269.036 24.364 269.38 24.28 269.612 24.112C269.844 23.944 269.96 23.716 269.96 23.428C269.96 23.204 269.884 23.028 269.732 22.9C269.58 22.764 269.34 22.66 269.012 22.588L267.92 22.348C267.416 22.244 267.04 22.064 266.792 21.808C266.552 21.552 266.432 21.22 266.432 20.812C266.432 20.452 266.524 20.144 266.708 19.888C266.9 19.624 267.168 19.42 267.512 19.276C267.856 19.132 268.256 19.06 268.712 19.06C268.984 19.06 269.244 19.088 269.492 19.144C269.74 19.2 269.972 19.284 270.188 19.396C270.412 19.5 270.604 19.632 270.764 19.792L270.44 20.476C270.288 20.332 270.116 20.212 269.924 20.116C269.732 20.012 269.532 19.936 269.324 19.888C269.124 19.832 268.92 19.804 268.712 19.804C268.264 19.804 267.924 19.892 267.692 20.068C267.46 20.244 267.344 20.476 267.344 20.764C267.344 20.988 267.416 21.172 267.56 21.316C267.704 21.46 267.928 21.564 268.232 21.628L269.324 21.856C269.844 21.968 270.232 22.148 270.488 22.396C270.752 22.636 270.884 22.964 270.884 23.38C270.884 23.732 270.788 24.04 270.596 24.304C270.404 24.56 270.132 24.76 269.78 24.904C269.436 25.04 269.028 25.108 268.556 25.108ZM272.151 25V23.776H273.375V25H272.151Z" fill="black"/>
</svg>
