<svg width="292" height="28" viewBox="0 0 292 28" fill="none" xmlns="http://www.w3.org/2000/svg">
<path d="M2.08 9V8.256L4.972 5.136C5.244 4.84 5.464 4.564 5.632 4.308C5.8 4.044 5.924 3.788 6.004 3.54C6.084 3.292 6.124 3.04 6.124 2.784C6.124 2.304 5.976 1.94 5.68 1.692C5.392 1.436 4.968 1.308 4.408 1.308C3.976 1.308 3.572 1.388 3.196 1.548C2.828 1.7 2.476 1.94 2.14 2.268L1.768 1.5C2.08 1.18 2.476 0.924 2.956 0.732C3.444 0.532 3.956 0.431999 4.492 0.431999C5.06 0.431999 5.54 0.52 5.932 0.696C6.324 0.872 6.62 1.132 6.82 1.476C7.02 1.812 7.12 2.224 7.12 2.712C7.12 2.968 7.088 3.22 7.024 3.468C6.968 3.708 6.876 3.952 6.748 4.2C6.628 4.44 6.472 4.688 6.28 4.944C6.096 5.2 5.872 5.464 5.608 5.736L3.064 8.436V8.16H7.468V9H2.08ZM11.9753 9.108C11.6153 9.108 11.2633 9.068 10.9193 8.988C10.5753 8.908 10.2513 8.792 9.94731 8.64C9.65131 8.488 9.38731 8.308 9.15531 8.1L9.52731 7.32C9.91131 7.632 10.2993 7.864 10.6913 8.016C11.0913 8.16 11.5153 8.232 11.9633 8.232C12.5553 8.232 13.0153 8.068 13.3433 7.74C13.6793 7.412 13.8473 6.98 13.8473 6.444C13.8473 5.892 13.6873 5.44 13.3673 5.088C13.0473 4.736 12.6073 4.56 12.0473 4.56C11.6393 4.56 11.2793 4.644 10.9673 4.812C10.6633 4.972 10.3873 5.224 10.1393 5.568H9.41931V0.539999H14.3273V1.38H10.3913V4.752H10.1273C10.3353 4.416 10.6233 4.16 10.9913 3.984C11.3593 3.8 11.7713 3.708 12.2273 3.708C12.7633 3.708 13.2233 3.82 13.6073 4.044C13.9993 4.268 14.2993 4.584 14.5073 4.992C14.7233 5.392 14.8313 5.86 14.8313 6.396C14.8313 6.924 14.7153 7.392 14.4833 7.8C14.2513 8.208 13.9233 8.528 13.4993 8.76C13.0753 8.992 12.5673 9.108 11.9753 9.108ZM18.9906 9.108C18.3506 9.108 17.8066 8.944 17.3586 8.616C16.9186 8.28 16.5866 7.788 16.3626 7.14C16.1386 6.492 16.0266 5.7 16.0266 4.764C16.0266 3.82 16.1386 3.028 16.3626 2.388C16.5866 1.74 16.9186 1.252 17.3586 0.924C17.8066 0.595999 18.3506 0.431999 18.9906 0.431999C19.6386 0.431999 20.1826 0.595999 20.6226 0.924C21.0626 1.252 21.3946 1.736 21.6186 2.376C21.8426 3.016 21.9546 3.808 21.9546 4.752C21.9546 5.696 21.8426 6.492 21.6186 7.14C21.3946 7.788 21.0626 8.28 20.6226 8.616C20.1826 8.944 19.6386 9.108 18.9906 9.108ZM18.9906 8.256C19.6626 8.256 20.1586 7.972 20.4786 7.404C20.8066 6.836 20.9706 5.952 20.9706 4.752C20.9706 3.552 20.8106 2.676 20.4906 2.124C20.1706 1.564 19.6706 1.284 18.9906 1.284C18.3266 1.284 17.8306 1.564 17.5026 2.124C17.1746 2.684 17.0106 3.56 17.0106 4.752C17.0106 5.952 17.1706 6.836 17.4906 7.404C17.8186 7.972 18.3186 8.256 18.9906 8.256ZM23.5219 9V3.168H24.4699V4.464H24.3379C24.4339 4.168 24.5739 3.916 24.7579 3.708C24.9499 3.492 25.1739 3.332 25.4299 3.228C25.6939 3.116 25.9819 3.06 26.2939 3.06C26.7899 3.06 27.1899 3.18 27.4939 3.42C27.8059 3.652 28.0139 4.016 28.1179 4.512H27.9379C28.0819 4.064 28.3379 3.712 28.7059 3.456C29.0819 3.192 29.5179 3.06 30.0139 3.06C30.4539 3.06 30.8139 3.144 31.0939 3.312C31.3819 3.48 31.5979 3.736 31.7419 4.08C31.8859 4.416 31.9579 4.844 31.9579 5.364V9H30.9859V5.412C30.9859 4.876 30.8939 4.484 30.7099 4.236C30.5259 3.98 30.2139 3.852 29.7739 3.852C29.4619 3.852 29.1859 3.928 28.9459 4.08C28.7139 4.232 28.5339 4.448 28.4059 4.728C28.2859 5 28.2259 5.324 28.2259 5.7V9H27.2539V5.412C27.2539 4.876 27.1579 4.484 26.9659 4.236C26.7819 3.98 26.4739 3.852 26.0419 3.852C25.7219 3.852 25.4459 3.928 25.2139 4.08C24.9819 4.232 24.8019 4.448 24.6739 4.728C24.5539 5 24.4939 5.324 24.4939 5.7V9H23.5219ZM35.5633 9.108C34.9713 9.108 34.5233 8.932 34.2193 8.58C33.9233 8.228 33.7753 7.724 33.7753 7.068V0.539999H34.7473V6.996C34.7473 7.276 34.7833 7.512 34.8553 7.704C34.9353 7.896 35.0513 8.04 35.2033 8.136C35.3553 8.232 35.5433 8.28 35.7673 8.28C35.8633 8.28 35.9553 8.276 36.0433 8.268C36.1393 8.252 36.2273 8.232 36.3073 8.208L36.2833 9.024C36.1553 9.048 36.0313 9.068 35.9113 9.084C35.7993 9.1 35.6833 9.108 35.5633 9.108ZM43.2761 9.108C42.8361 9.108 42.4201 9.068 42.0281 8.988C41.6441 8.908 41.2881 8.796 40.9601 8.652C40.6401 8.5 40.3481 8.316 40.0841 8.1L40.4321 7.308C40.7041 7.508 40.9801 7.68 41.2601 7.824C41.5481 7.96 41.8561 8.064 42.1841 8.136C42.5201 8.2 42.8841 8.232 43.2761 8.232C43.9961 8.232 44.5281 8.1 44.8721 7.836C45.2241 7.564 45.4001 7.208 45.4001 6.768C45.4001 6.536 45.3441 6.336 45.2321 6.168C45.1281 6 44.9521 5.856 44.7041 5.736C44.4641 5.616 44.1481 5.516 43.7561 5.436L42.5081 5.184C41.7561 5.024 41.1921 4.764 40.8161 4.404C40.4481 4.036 40.2641 3.548 40.2641 2.94C40.2641 2.436 40.3921 1.996 40.6481 1.62C40.9121 1.244 41.2761 0.951999 41.7401 0.744C42.2121 0.536 42.7481 0.431999 43.3481 0.431999C43.7321 0.431999 44.0961 0.471999 44.4401 0.551999C44.7841 0.632 45.1001 0.752 45.3881 0.912C45.6841 1.064 45.9441 1.252 46.1681 1.476L45.8201 2.244C45.4601 1.916 45.0801 1.68 44.6801 1.536C44.2801 1.384 43.8321 1.308 43.3361 1.308C42.9121 1.308 42.5441 1.372 42.2321 1.5C41.9281 1.628 41.6881 1.816 41.5121 2.064C41.3441 2.304 41.2601 2.584 41.2601 2.904C41.2601 3.288 41.3761 3.592 41.6081 3.816C41.8481 4.04 42.2361 4.204 42.7721 4.308L44.0201 4.572C44.8281 4.74 45.4241 4.996 45.8081 5.34C46.2001 5.676 46.3961 6.136 46.3961 6.72C46.3961 7.184 46.2681 7.6 46.0121 7.968C45.7641 8.328 45.4041 8.608 44.9321 8.808C44.4681 9.008 43.9161 9.108 43.2761 9.108ZM47.6709 1.716V0.624H48.8709V1.716H47.6709ZM47.7909 9V3.168H48.7629V9H47.7909ZM50.58 11.16V3.168H51.528V4.548H51.408C51.536 4.092 51.788 3.732 52.164 3.468C52.548 3.196 53.004 3.06 53.532 3.06C54.052 3.06 54.504 3.184 54.888 3.432C55.28 3.672 55.58 4.02 55.788 4.476C56.004 4.924 56.112 5.46 56.112 6.084C56.112 6.7 56.004 7.236 55.788 7.692C55.58 8.14 55.284 8.488 54.9 8.736C54.516 8.984 54.06 9.108 53.532 9.108C53.004 9.108 52.552 8.976 52.176 8.712C51.8 8.44 51.544 8.08 51.408 7.632H51.552V11.16H50.58ZM53.328 8.328C53.88 8.328 54.316 8.136 54.636 7.752C54.964 7.36 55.128 6.804 55.128 6.084C55.128 5.356 54.964 4.8 54.636 4.416C54.316 4.032 53.88 3.84 53.328 3.84C52.784 3.84 52.348 4.032 52.02 4.416C51.692 4.8 51.528 5.356 51.528 6.084C51.528 6.804 51.692 7.36 52.02 7.752C52.348 8.136 52.784 8.328 53.328 8.328ZM57.5761 11.16V3.168H58.5241V4.548H58.4041C58.5321 4.092 58.7841 3.732 59.1601 3.468C59.5441 3.196 60.0001 3.06 60.5281 3.06C61.0481 3.06 61.5001 3.184 61.8841 3.432C62.2761 3.672 62.5761 4.02 62.7841 4.476C63.0001 4.924 63.1081 5.46 63.1081 6.084C63.1081 6.7 63.0001 7.236 62.7841 7.692C62.5761 8.14 62.2801 8.488 61.8961 8.736C61.5121 8.984 61.0561 9.108 60.5281 9.108C60.0001 9.108 59.5481 8.976 59.1721 8.712C58.7961 8.44 58.5401 8.08 58.4041 7.632H58.5481V11.16H57.5761ZM60.3241 8.328C60.8761 8.328 61.3121 8.136 61.6321 7.752C61.9601 7.36 62.1241 6.804 62.1241 6.084C62.1241 5.356 61.9601 4.8 61.6321 4.416C61.3121 4.032 60.8761 3.84 60.3241 3.84C59.7801 3.84 59.3441 4.032 59.0161 4.416C58.6881 4.8 58.5241 5.356 58.5241 6.084C58.5241 6.804 58.6881 7.36 59.0161 7.752C59.3441 8.136 59.7801 8.328 60.3241 8.328ZM67.2002 9.108C66.5842 9.108 66.0522 8.988 65.6042 8.748C65.1642 8.5 64.8202 8.152 64.5722 7.704C64.3322 7.256 64.2122 6.72 64.2122 6.096C64.2122 5.488 64.3322 4.96 64.5722 4.512C64.8122 4.056 65.1402 3.7 65.5562 3.444C65.9802 3.188 66.4682 3.06 67.0202 3.06C67.5482 3.06 68.0002 3.176 68.3762 3.408C68.7522 3.64 69.0402 3.968 69.2402 4.392C69.4482 4.816 69.5522 5.324 69.5522 5.916V6.288H64.9562V5.652H68.9042L68.7122 5.808C68.7122 5.168 68.5682 4.672 68.2802 4.32C68.0002 3.96 67.5882 3.78 67.0442 3.78C66.6362 3.78 66.2882 3.876 66.0002 4.068C65.7202 4.252 65.5082 4.512 65.3642 4.848C65.2202 5.176 65.1482 5.56 65.1482 6V6.072C65.1482 6.56 65.2242 6.972 65.3762 7.308C65.5362 7.644 65.7722 7.9 66.0842 8.076C66.3962 8.244 66.7682 8.328 67.2002 8.328C67.5442 8.328 67.8762 8.276 68.1962 8.172C68.5242 8.06 68.8322 7.88 69.1202 7.632L69.4562 8.316C69.1922 8.556 68.8562 8.748 68.4482 8.892C68.0402 9.036 67.6242 9.108 67.2002 9.108ZM70.9589 9V3.168H71.9069V4.548H71.7869C71.9229 4.076 72.1589 3.72 72.4949 3.48C72.8309 3.232 73.2749 3.088 73.8269 3.048L74.1749 3.012L74.2469 3.852L73.6349 3.924C73.0909 3.972 72.6709 4.148 72.3749 4.452C72.0869 4.748 71.9429 5.156 71.9429 5.676V9H70.9589ZM82.3377 9.108C81.4337 9.108 80.6697 8.936 80.0457 8.592C79.4297 8.248 78.9617 7.752 78.6417 7.104C78.3217 6.456 78.1617 5.68 78.1617 4.776C78.1617 3.88 78.3217 3.108 78.6417 2.46C78.9617 1.812 79.4217 1.312 80.0217 0.96C80.6217 0.608 81.3457 0.431999 82.1937 0.431999C82.5937 0.431999 82.9697 0.471999 83.3217 0.551999C83.6817 0.632 84.0137 0.752 84.3177 0.912C84.6297 1.064 84.9017 1.256 85.1337 1.488L84.7497 2.28C84.3657 1.944 83.9697 1.7 83.5617 1.548C83.1537 1.396 82.6937 1.32 82.1817 1.32C81.2137 1.32 80.4737 1.62 79.9617 2.22C79.4577 2.82 79.2057 3.672 79.2057 4.776C79.2057 5.896 79.4657 6.752 79.9857 7.344C80.5137 7.936 81.3057 8.232 82.3617 8.232C82.7457 8.232 83.1217 8.196 83.4897 8.124C83.8577 8.044 84.2057 7.936 84.5337 7.8L84.3177 8.364V5.376H82.1697V4.596H85.1697V8.508C84.9537 8.62 84.6857 8.724 84.3657 8.82C84.0457 8.908 83.7097 8.976 83.3577 9.024C83.0057 9.08 82.6657 9.108 82.3377 9.108ZM88.8367 9.108C88.2447 9.108 87.7967 8.932 87.4927 8.58C87.1967 8.228 87.0487 7.724 87.0487 7.068V0.539999H88.0207V6.996C88.0207 7.276 88.0567 7.512 88.1287 7.704C88.2087 7.896 88.3247 8.04 88.4767 8.136C88.6287 8.232 88.8167 8.28 89.0407 8.28C89.1367 8.28 89.2287 8.276 89.3167 8.268C89.4127 8.252 89.5007 8.232 89.5807 8.208L89.5567 9.024C89.4287 9.048 89.3047 9.068 89.1847 9.084C89.0727 9.1 88.9567 9.108 88.8367 9.108ZM92.4355 9.108C92.0355 9.108 91.6755 9.032 91.3555 8.88C91.0435 8.72 90.7955 8.504 90.6115 8.232C90.4275 7.96 90.3355 7.656 90.3355 7.32C90.3355 6.888 90.4435 6.548 90.6595 6.3C90.8835 6.052 91.2475 5.876 91.7515 5.772C92.2635 5.668 92.9595 5.616 93.8395 5.616H94.3795V6.252H93.8515C93.3635 6.252 92.9555 6.268 92.6275 6.3C92.2995 6.332 92.0395 6.388 91.8475 6.468C91.6555 6.548 91.5195 6.652 91.4395 6.78C91.3595 6.908 91.3195 7.068 91.3195 7.26C91.3195 7.588 91.4315 7.856 91.6555 8.064C91.8875 8.272 92.1995 8.376 92.5915 8.376C92.9115 8.376 93.1915 8.3 93.4315 8.148C93.6795 7.996 93.8715 7.788 94.0075 7.524C94.1515 7.26 94.2235 6.956 94.2235 6.612V5.244C94.2235 4.748 94.1235 4.392 93.9235 4.176C93.7235 3.952 93.3955 3.84 92.9395 3.84C92.5875 3.84 92.2475 3.892 91.9195 3.996C91.5915 4.092 91.2555 4.252 90.9115 4.476L90.5755 3.768C90.7835 3.624 91.0195 3.5 91.2835 3.396C91.5475 3.284 91.8235 3.2 92.1115 3.144C92.3995 3.088 92.6755 3.06 92.9395 3.06C93.4435 3.06 93.8595 3.144 94.1875 3.312C94.5155 3.472 94.7595 3.72 94.9195 4.056C95.0795 4.384 95.1595 4.808 95.1595 5.328V9H94.2475V7.644H94.3555C94.2915 7.948 94.1675 8.208 93.9835 8.424C93.8075 8.64 93.5875 8.808 93.3235 8.928C93.0595 9.048 92.7635 9.108 92.4355 9.108ZM98.9308 9.108C98.6268 9.108 98.3308 9.076 98.0428 9.012C97.7628 8.956 97.4988 8.876 97.2508 8.772C97.0108 8.66 96.8028 8.528 96.6268 8.376L96.9388 7.692C97.1308 7.844 97.3388 7.972 97.5628 8.076C97.7868 8.172 98.0148 8.244 98.2468 8.292C98.4788 8.34 98.7148 8.364 98.9548 8.364C99.4108 8.364 99.7548 8.28 99.9868 8.112C100.219 7.944 100.335 7.716 100.335 7.428C100.335 7.204 100.259 7.028 100.107 6.9C99.9548 6.764 99.7148 6.66 99.3868 6.588L98.2948 6.348C97.7908 6.244 97.4148 6.064 97.1668 5.808C96.9268 5.552 96.8068 5.22 96.8068 4.812C96.8068 4.452 96.8988 4.144 97.0828 3.888C97.2748 3.624 97.5428 3.42 97.8868 3.276C98.2308 3.132 98.6308 3.06 99.0868 3.06C99.3588 3.06 99.6188 3.088 99.8668 3.144C100.115 3.2 100.347 3.284 100.563 3.396C100.787 3.5 100.979 3.632 101.139 3.792L100.815 4.476C100.663 4.332 100.491 4.212 100.299 4.116C100.107 4.012 99.9068 3.936 99.6988 3.888C99.4988 3.832 99.2948 3.804 99.0868 3.804C98.6388 3.804 98.2988 3.892 98.0668 4.068C97.8348 4.244 97.7188 4.476 97.7188 4.764C97.7188 4.988 97.7908 5.172 97.9348 5.316C98.0788 5.46 98.3028 5.564 98.6068 5.628L99.6988 5.856C100.219 5.968 100.607 6.148 100.863 6.396C101.127 6.636 101.259 6.964 101.259 7.38C101.259 7.732 101.163 8.04 100.971 8.304C100.779 8.56 100.507 8.76 100.155 8.904C99.8108 9.04 99.4028 9.108 98.9308 9.108ZM104.708 9.108C104.404 9.108 104.108 9.076 103.82 9.012C103.54 8.956 103.276 8.876 103.028 8.772C102.788 8.66 102.58 8.528 102.404 8.376L102.716 7.692C102.908 7.844 103.116 7.972 103.34 8.076C103.564 8.172 103.792 8.244 104.024 8.292C104.256 8.34 104.492 8.364 104.732 8.364C105.188 8.364 105.532 8.28 105.764 8.112C105.996 7.944 106.112 7.716 106.112 7.428C106.112 7.204 106.036 7.028 105.884 6.9C105.732 6.764 105.492 6.66 105.164 6.588L104.072 6.348C103.568 6.244 103.192 6.064 102.944 5.808C102.704 5.552 102.584 5.22 102.584 4.812C102.584 4.452 102.676 4.144 102.86 3.888C103.052 3.624 103.32 3.42 103.664 3.276C104.008 3.132 104.408 3.06 104.864 3.06C105.136 3.06 105.396 3.088 105.644 3.144C105.892 3.2 106.124 3.284 106.34 3.396C106.564 3.5 106.756 3.632 106.916 3.792L106.592 4.476C106.44 4.332 106.268 4.212 106.076 4.116C105.884 4.012 105.684 3.936 105.476 3.888C105.276 3.832 105.072 3.804 104.864 3.804C104.416 3.804 104.076 3.892 103.844 4.068C103.612 4.244 103.496 4.476 103.496 4.764C103.496 4.988 103.568 5.172 103.712 5.316C103.856 5.46 104.08 5.564 104.384 5.628L105.476 5.856C105.996 5.968 106.384 6.148 106.64 6.396C106.904 6.636 107.036 6.964 107.036 7.38C107.036 7.732 106.94 8.04 106.748 8.304C106.556 8.56 106.284 8.76 105.932 8.904C105.588 9.04 105.18 9.108 104.708 9.108ZM114.012 9L111.048 0.539999H112.08L114.684 8.16H114.264L116.916 0.539999H117.708L120.324 8.16H119.952L122.568 0.539999H123.552L120.588 9H119.712L117.168 1.68H117.432L114.864 9H114.012ZM124.687 1.716V0.624H125.887V1.716H124.687ZM124.807 9V3.168H125.779V9H124.807ZM129.936 9.108C129.248 9.108 128.732 8.924 128.388 8.556C128.044 8.188 127.872 7.664 127.872 6.984V3.924H126.732V3.168H127.872V1.38H128.844V3.168H130.692V3.924H128.844V6.888C128.844 7.344 128.94 7.692 129.132 7.932C129.324 8.164 129.636 8.28 130.068 8.28C130.196 8.28 130.324 8.264 130.452 8.232C130.58 8.2 130.696 8.168 130.8 8.136L130.968 8.88C130.864 8.936 130.712 8.988 130.512 9.036C130.312 9.084 130.12 9.108 129.936 9.108ZM131.791 9V0.539999H132.763V4.464H132.607C132.775 4 133.047 3.652 133.423 3.42C133.807 3.18 134.247 3.06 134.743 3.06C135.207 3.06 135.591 3.144 135.895 3.312C136.207 3.48 136.439 3.736 136.591 4.08C136.743 4.416 136.819 4.844 136.819 5.364V9H135.847V5.424C135.847 5.064 135.799 4.768 135.703 4.536C135.615 4.304 135.471 4.132 135.271 4.02C135.079 3.908 134.827 3.852 134.515 3.852C134.163 3.852 133.855 3.928 133.591 4.08C133.327 4.232 133.123 4.444 132.979 4.716C132.835 4.988 132.763 5.308 132.763 5.676V9H131.791ZM141.825 9V0.539999H147.165V1.368H142.785V4.296H146.913V5.124H142.785V8.172H147.165V9H141.825ZM148.689 9V3.168H149.637V4.548H149.517C149.653 4.076 149.889 3.72 150.225 3.48C150.561 3.232 151.005 3.088 151.557 3.048L151.905 3.012L151.977 3.852L151.365 3.924C150.821 3.972 150.401 4.148 150.105 4.452C149.817 4.748 149.673 5.156 149.673 5.676V9H148.689ZM155.5 11.268C154.996 11.268 154.52 11.2 154.072 11.064C153.632 10.936 153.24 10.74 152.896 10.476L153.22 9.768C153.46 9.936 153.696 10.072 153.928 10.176C154.168 10.288 154.412 10.368 154.66 10.416C154.916 10.464 155.18 10.488 155.452 10.488C156.02 10.488 156.448 10.336 156.736 10.032C157.032 9.728 157.18 9.288 157.18 8.712V7.356H157.3C157.18 7.82 156.924 8.188 156.532 8.46C156.148 8.732 155.696 8.868 155.176 8.868C154.64 8.868 154.176 8.748 153.784 8.508C153.392 8.26 153.088 7.916 152.872 7.476C152.664 7.036 152.56 6.528 152.56 5.952C152.56 5.376 152.664 4.872 152.872 4.44C153.088 4 153.392 3.66 153.784 3.42C154.176 3.18 154.64 3.06 155.176 3.06C155.704 3.06 156.16 3.196 156.544 3.468C156.928 3.732 157.176 4.092 157.288 4.548H157.18V3.168H158.128V8.58C158.128 9.172 158.028 9.668 157.828 10.068C157.636 10.468 157.344 10.768 156.952 10.968C156.56 11.168 156.076 11.268 155.5 11.268ZM155.356 8.076C155.916 8.076 156.36 7.884 156.688 7.5C157.016 7.116 157.18 6.6 157.18 5.952C157.18 5.304 157.016 4.792 156.688 4.416C156.36 4.032 155.916 3.84 155.356 3.84C154.804 3.84 154.364 4.032 154.036 4.416C153.708 4.792 153.544 5.304 153.544 5.952C153.544 6.6 153.708 7.116 154.036 7.5C154.364 7.884 154.804 8.076 155.356 8.076ZM162.375 9.108C161.807 9.108 161.315 8.984 160.899 8.736C160.483 8.488 160.159 8.14 159.927 7.692C159.703 7.236 159.591 6.7 159.591 6.084C159.591 5.468 159.703 4.936 159.927 4.488C160.159 4.032 160.483 3.68 160.899 3.432C161.315 3.184 161.807 3.06 162.375 3.06C162.943 3.06 163.435 3.184 163.851 3.432C164.267 3.68 164.587 4.032 164.811 4.488C165.043 4.936 165.159 5.468 165.159 6.084C165.159 6.7 165.043 7.236 164.811 7.692C164.587 8.14 164.267 8.488 163.851 8.736C163.435 8.984 162.943 9.108 162.375 9.108ZM162.375 8.328C162.927 8.328 163.363 8.136 163.683 7.752C164.011 7.36 164.175 6.8 164.175 6.072C164.175 5.352 164.011 4.8 163.683 4.416C163.363 4.032 162.927 3.84 162.375 3.84C161.831 3.84 161.395 4.032 161.067 4.416C160.739 4.8 160.575 5.352 160.575 6.072C160.575 6.8 160.739 7.36 161.067 7.752C161.395 8.136 161.831 8.328 162.375 8.328ZM166.619 9V3.168H167.567V4.464H167.435C167.603 4 167.875 3.652 168.251 3.42C168.635 3.18 169.075 3.06 169.571 3.06C170.035 3.06 170.419 3.144 170.723 3.312C171.035 3.472 171.267 3.724 171.419 4.068C171.571 4.412 171.647 4.844 171.647 5.364V9H170.675V5.424C170.675 5.064 170.627 4.768 170.531 4.536C170.443 4.304 170.299 4.132 170.099 4.02C169.907 3.908 169.655 3.852 169.343 3.852C168.991 3.852 168.683 3.928 168.419 4.08C168.155 4.232 167.951 4.444 167.807 4.716C167.663 4.988 167.591 5.308 167.591 5.676V9H166.619ZM175.863 9.108C175.295 9.108 174.803 8.984 174.387 8.736C173.971 8.488 173.647 8.14 173.415 7.692C173.191 7.236 173.079 6.7 173.079 6.084C173.079 5.468 173.191 4.936 173.415 4.488C173.647 4.032 173.971 3.68 174.387 3.432C174.803 3.184 175.295 3.06 175.863 3.06C176.431 3.06 176.923 3.184 177.339 3.432C177.755 3.68 178.075 4.032 178.299 4.488C178.531 4.936 178.647 5.468 178.647 6.084C178.647 6.7 178.531 7.236 178.299 7.692C178.075 8.14 177.755 8.488 177.339 8.736C176.923 8.984 176.431 9.108 175.863 9.108ZM175.863 8.328C176.415 8.328 176.851 8.136 177.171 7.752C177.499 7.36 177.663 6.8 177.663 6.072C177.663 5.352 177.499 4.8 177.171 4.416C176.851 4.032 176.415 3.84 175.863 3.84C175.319 3.84 174.883 4.032 174.555 4.416C174.227 4.8 174.063 5.352 174.063 6.072C174.063 6.8 174.227 7.36 174.555 7.752C174.883 8.136 175.319 8.328 175.863 8.328ZM180.131 9V3.168H181.079V4.464H180.947C181.043 4.168 181.183 3.916 181.367 3.708C181.559 3.492 181.783 3.332 182.039 3.228C182.303 3.116 182.591 3.06 182.903 3.06C183.399 3.06 183.799 3.18 184.103 3.42C184.415 3.652 184.623 4.016 184.727 4.512H184.547C184.691 4.064 184.947 3.712 185.315 3.456C185.691 3.192 186.127 3.06 186.623 3.06C187.063 3.06 187.423 3.144 187.703 3.312C187.991 3.48 188.207 3.736 188.351 4.08C188.495 4.416 188.567 4.844 188.567 5.364V9H187.595V5.412C187.595 4.876 187.503 4.484 187.319 4.236C187.135 3.98 186.823 3.852 186.383 3.852C186.071 3.852 185.795 3.928 185.555 4.08C185.323 4.232 185.143 4.448 185.015 4.728C184.895 5 184.835 5.324 184.835 5.7V9H183.863V5.412C183.863 4.876 183.767 4.484 183.575 4.236C183.391 3.98 183.083 3.852 182.651 3.852C182.331 3.852 182.055 3.928 181.823 4.08C181.591 4.232 181.411 4.448 181.283 4.728C181.163 5 181.103 5.324 181.103 5.7V9H180.131ZM190.265 1.716V0.624H191.465V1.716H190.265ZM190.385 9V3.168H191.357V9H190.385ZM195.646 9.108C195.062 9.108 194.558 8.98 194.134 8.724C193.71 8.468 193.382 8.112 193.15 7.656C192.926 7.192 192.814 6.656 192.814 6.048C192.814 5.432 192.926 4.9 193.15 4.452C193.382 4.004 193.71 3.66 194.134 3.42C194.558 3.18 195.062 3.06 195.646 3.06C196.006 3.06 196.362 3.124 196.714 3.252C197.066 3.38 197.358 3.56 197.59 3.792L197.254 4.5C197.022 4.276 196.766 4.112 196.486 4.008C196.214 3.904 195.954 3.852 195.706 3.852C195.098 3.852 194.63 4.044 194.302 4.428C193.974 4.804 193.81 5.348 193.81 6.06C193.81 6.756 193.974 7.308 194.302 7.716C194.63 8.116 195.098 8.316 195.706 8.316C195.954 8.316 196.214 8.264 196.486 8.16C196.766 8.056 197.022 7.888 197.254 7.656L197.59 8.364C197.358 8.596 197.062 8.78 196.702 8.916C196.35 9.044 195.998 9.108 195.646 9.108ZM201.942 9V0.539999H204.798C205.718 0.539999 206.494 0.704 207.126 1.032C207.766 1.352 208.25 1.828 208.578 2.46C208.914 3.084 209.082 3.852 209.082 4.764C209.082 5.676 208.914 6.448 208.578 7.08C208.25 7.712 207.766 8.192 207.126 8.52C206.494 8.84 205.718 9 204.798 9H201.942ZM202.926 8.16H204.726C205.838 8.16 206.666 7.876 207.21 7.308C207.762 6.74 208.038 5.892 208.038 4.764C208.038 3.636 207.762 2.792 207.21 2.232C206.658 1.664 205.83 1.38 204.726 1.38H202.926V8.16ZM213.345 9.108C212.729 9.108 212.197 8.988 211.749 8.748C211.309 8.5 210.965 8.152 210.717 7.704C210.477 7.256 210.357 6.72 210.357 6.096C210.357 5.488 210.477 4.96 210.717 4.512C210.957 4.056 211.285 3.7 211.701 3.444C212.125 3.188 212.613 3.06 213.165 3.06C213.693 3.06 214.145 3.176 214.521 3.408C214.897 3.64 215.185 3.968 215.385 4.392C215.593 4.816 215.697 5.324 215.697 5.916V6.288H211.101V5.652H215.049L214.857 5.808C214.857 5.168 214.713 4.672 214.425 4.32C214.145 3.96 213.733 3.78 213.189 3.78C212.781 3.78 212.433 3.876 212.145 4.068C211.865 4.252 211.653 4.512 211.509 4.848C211.365 5.176 211.293 5.56 211.293 6V6.072C211.293 6.56 211.369 6.972 211.521 7.308C211.681 7.644 211.917 7.9 212.229 8.076C212.541 8.244 212.913 8.328 213.345 8.328C213.689 8.328 214.021 8.276 214.341 8.172C214.669 8.06 214.977 7.88 215.265 7.632L215.601 8.316C215.337 8.556 215.001 8.748 214.593 8.892C214.185 9.036 213.769 9.108 213.345 9.108ZM219.071 9.108C218.767 9.108 218.471 9.076 218.183 9.012C217.903 8.956 217.639 8.876 217.391 8.772C217.151 8.66 216.943 8.528 216.767 8.376L217.079 7.692C217.271 7.844 217.479 7.972 217.703 8.076C217.927 8.172 218.155 8.244 218.387 8.292C218.619 8.34 218.855 8.364 219.095 8.364C219.551 8.364 219.895 8.28 220.127 8.112C220.359 7.944 220.475 7.716 220.475 7.428C220.475 7.204 220.399 7.028 220.247 6.9C220.095 6.764 219.855 6.66 219.527 6.588L218.435 6.348C217.931 6.244 217.555 6.064 217.307 5.808C217.067 5.552 216.947 5.22 216.947 4.812C216.947 4.452 217.039 4.144 217.223 3.888C217.415 3.624 217.683 3.42 218.027 3.276C218.371 3.132 218.771 3.06 219.227 3.06C219.499 3.06 219.759 3.088 220.007 3.144C220.255 3.2 220.487 3.284 220.703 3.396C220.927 3.5 221.119 3.632 221.279 3.792L220.955 4.476C220.803 4.332 220.631 4.212 220.439 4.116C220.247 4.012 220.047 3.936 219.839 3.888C219.639 3.832 219.435 3.804 219.227 3.804C218.779 3.804 218.439 3.892 218.207 4.068C217.975 4.244 217.859 4.476 217.859 4.764C217.859 4.988 217.931 5.172 218.075 5.316C218.219 5.46 218.443 5.564 218.747 5.628L219.839 5.856C220.359 5.968 220.747 6.148 221.003 6.396C221.267 6.636 221.399 6.964 221.399 7.38C221.399 7.732 221.303 8.04 221.111 8.304C220.919 8.56 220.647 8.76 220.295 8.904C219.951 9.04 219.543 9.108 219.071 9.108ZM222.761 1.716V0.624H223.961V1.716H222.761ZM222.881 9V3.168H223.853V9H222.881ZM228.25 11.268C227.746 11.268 227.27 11.2 226.822 11.064C226.382 10.936 225.99 10.74 225.646 10.476L225.97 9.768C226.21 9.936 226.446 10.072 226.678 10.176C226.918 10.288 227.162 10.368 227.41 10.416C227.666 10.464 227.93 10.488 228.202 10.488C228.77 10.488 229.198 10.336 229.486 10.032C229.782 9.728 229.93 9.288 229.93 8.712V7.356H230.05C229.93 7.82 229.674 8.188 229.282 8.46C228.898 8.732 228.446 8.868 227.926 8.868C227.39 8.868 226.926 8.748 226.534 8.508C226.142 8.26 225.838 7.916 225.622 7.476C225.414 7.036 225.31 6.528 225.31 5.952C225.31 5.376 225.414 4.872 225.622 4.44C225.838 4 226.142 3.66 226.534 3.42C226.926 3.18 227.39 3.06 227.926 3.06C228.454 3.06 228.91 3.196 229.294 3.468C229.678 3.732 229.926 4.092 230.038 4.548H229.93V3.168H230.878V8.58C230.878 9.172 230.778 9.668 230.578 10.068C230.386 10.468 230.094 10.768 229.702 10.968C229.31 11.168 228.826 11.268 228.25 11.268ZM228.106 8.076C228.666 8.076 229.11 7.884 229.438 7.5C229.766 7.116 229.93 6.6 229.93 5.952C229.93 5.304 229.766 4.792 229.438 4.416C229.11 4.032 228.666 3.84 228.106 3.84C227.554 3.84 227.114 4.032 226.786 4.416C226.458 4.792 226.294 5.304 226.294 5.952C226.294 6.6 226.458 7.116 226.786 7.5C227.114 7.884 227.554 8.076 228.106 8.076ZM232.701 9V3.168H233.649V4.464H233.517C233.685 4 233.957 3.652 234.333 3.42C234.717 3.18 235.157 3.06 235.653 3.06C236.117 3.06 236.501 3.144 236.805 3.312C237.117 3.472 237.349 3.724 237.501 4.068C237.653 4.412 237.729 4.844 237.729 5.364V9H236.757V5.424C236.757 5.064 236.709 4.768 236.613 4.536C236.525 4.304 236.381 4.132 236.181 4.02C235.989 3.908 235.737 3.852 235.425 3.852C235.073 3.852 234.765 3.928 234.501 4.08C234.237 4.232 234.033 4.444 233.889 4.716C233.745 4.988 233.673 5.308 233.673 5.676V9H232.701ZM239.869 10.368L239.413 10.02C239.557 9.868 239.665 9.724 239.737 9.588C239.817 9.46 239.869 9.328 239.893 9.192C239.925 9.064 239.941 8.932 239.941 8.796L240.157 9H239.365V7.776H240.589V8.64C240.589 8.856 240.565 9.06 240.517 9.252C240.477 9.452 240.405 9.644 240.301 9.828C240.197 10.012 240.053 10.192 239.869 10.368ZM245.466 9V0.539999H246.45V9H245.466ZM250.624 9.108C250.104 9.108 249.648 8.984 249.256 8.736C248.872 8.488 248.572 8.14 248.356 7.692C248.148 7.236 248.044 6.7 248.044 6.084C248.044 5.46 248.148 4.924 248.356 4.476C248.572 4.02 248.872 3.672 249.256 3.432C249.648 3.184 250.104 3.06 250.624 3.06C251.152 3.06 251.604 3.192 251.98 3.456C252.356 3.72 252.608 4.076 252.736 4.524H252.604V0.539999H253.576V9H252.628V7.608H252.748C252.62 8.064 252.364 8.428 251.98 8.7C251.604 8.972 251.152 9.108 250.624 9.108ZM250.828 8.328C251.38 8.328 251.816 8.136 252.136 7.752C252.464 7.36 252.628 6.804 252.628 6.084C252.628 5.356 252.464 4.8 252.136 4.416C251.816 4.032 251.38 3.84 250.828 3.84C250.284 3.84 249.848 4.032 249.52 4.416C249.192 4.8 249.028 5.356 249.028 6.084C249.028 6.804 249.192 7.36 249.52 7.752C249.848 8.136 250.284 8.328 250.828 8.328ZM258.028 9.108C257.412 9.108 256.88 8.988 256.432 8.748C255.992 8.5 255.648 8.152 255.4 7.704C255.16 7.256 255.04 6.72 255.04 6.096C255.04 5.488 255.16 4.96 255.4 4.512C255.64 4.056 255.968 3.7 256.384 3.444C256.808 3.188 257.296 3.06 257.848 3.06C258.376 3.06 258.828 3.176 259.204 3.408C259.58 3.64 259.868 3.968 260.068 4.392C260.276 4.816 260.38 5.324 260.38 5.916V6.288H255.784V5.652H259.732L259.54 5.808C259.54 5.168 259.396 4.672 259.108 4.32C258.828 3.96 258.416 3.78 257.872 3.78C257.464 3.78 257.116 3.876 256.828 4.068C256.548 4.252 256.336 4.512 256.192 4.848C256.048 5.176 255.976 5.56 255.976 6V6.072C255.976 6.56 256.052 6.972 256.204 7.308C256.364 7.644 256.6 7.9 256.912 8.076C257.224 8.244 257.596 8.328 258.028 8.328C258.372 8.328 258.704 8.276 259.024 8.172C259.352 8.06 259.66 7.88 259.948 7.632L260.284 8.316C260.02 8.556 259.684 8.748 259.276 8.892C258.868 9.036 258.452 9.108 258.028 9.108ZM263.623 9.108C263.223 9.108 262.863 9.032 262.543 8.88C262.231 8.72 261.983 8.504 261.799 8.232C261.615 7.96 261.523 7.656 261.523 7.32C261.523 6.888 261.631 6.548 261.847 6.3C262.071 6.052 262.435 5.876 262.939 5.772C263.451 5.668 264.147 5.616 265.027 5.616H265.567V6.252H265.039C264.551 6.252 264.143 6.268 263.815 6.3C263.487 6.332 263.227 6.388 263.035 6.468C262.843 6.548 262.707 6.652 262.627 6.78C262.547 6.908 262.507 7.068 262.507 7.26C262.507 7.588 262.619 7.856 262.843 8.064C263.075 8.272 263.387 8.376 263.779 8.376C264.099 8.376 264.379 8.3 264.619 8.148C264.867 7.996 265.059 7.788 265.195 7.524C265.339 7.26 265.411 6.956 265.411 6.612V5.244C265.411 4.748 265.311 4.392 265.111 4.176C264.911 3.952 264.583 3.84 264.127 3.84C263.775 3.84 263.435 3.892 263.107 3.996C262.779 4.092 262.443 4.252 262.099 4.476L261.763 3.768C261.971 3.624 262.207 3.5 262.471 3.396C262.735 3.284 263.011 3.2 263.299 3.144C263.587 3.088 263.863 3.06 264.127 3.06C264.631 3.06 265.047 3.144 265.375 3.312C265.703 3.472 265.947 3.72 266.107 4.056C266.267 4.384 266.347 4.808 266.347 5.328V9H265.435V7.644H265.543C265.479 7.948 265.355 8.208 265.171 8.424C264.995 8.64 264.775 8.808 264.511 8.928C264.247 9.048 263.951 9.108 263.623 9.108ZM269.938 9.108C269.346 9.108 268.898 8.932 268.594 8.58C268.298 8.228 268.15 7.724 268.15 7.068V0.539999H269.122V6.996C269.122 7.276 269.158 7.512 269.23 7.704C269.31 7.896 269.426 8.04 269.578 8.136C269.73 8.232 269.918 8.28 270.142 8.28C270.238 8.28 270.33 8.276 270.418 8.268C270.514 8.252 270.602 8.232 270.682 8.208L270.658 9.024C270.53 9.048 270.406 9.068 270.286 9.084C270.174 9.1 270.058 9.108 269.938 9.108ZM274.915 9V0.539999H280.147V1.368H275.899V4.32H279.907V5.148H275.899V9H274.915ZM283.559 9.108C282.991 9.108 282.499 8.984 282.083 8.736C281.667 8.488 281.343 8.14 281.111 7.692C280.887 7.236 280.775 6.7 280.775 6.084C280.775 5.468 280.887 4.936 281.111 4.488C281.343 4.032 281.667 3.68 282.083 3.432C282.499 3.184 282.991 3.06 283.559 3.06C284.127 3.06 284.619 3.184 285.035 3.432C285.451 3.68 285.771 4.032 285.995 4.488C286.227 4.936 286.343 5.468 286.343 6.084C286.343 6.7 286.227 7.236 285.995 7.692C285.771 8.14 285.451 8.488 285.035 8.736C284.619 8.984 284.127 9.108 283.559 9.108ZM283.559 8.328C284.111 8.328 284.547 8.136 284.867 7.752C285.195 7.36 285.359 6.8 285.359 6.072C285.359 5.352 285.195 4.8 284.867 4.416C284.547 4.032 284.111 3.84 283.559 3.84C283.015 3.84 282.579 4.032 282.251 4.416C281.923 4.8 281.759 5.352 281.759 6.072C281.759 6.8 281.923 7.36 282.251 7.752C282.579 8.136 283.015 8.328 283.559 8.328ZM287.803 9V3.168H288.751V4.548H288.631C288.767 4.076 289.003 3.72 289.339 3.48C289.675 3.232 290.119 3.088 290.671 3.048L291.019 3.012L291.091 3.852L290.479 3.924C289.935 3.972 289.515 4.148 289.219 4.452C288.931 4.748 288.787 5.156 288.787 5.676V9H287.803ZM0.952 25.084L0.88 24.256L1.6 24.208C1.88 24.184 2.112 24.116 2.296 24.004C2.48 23.884 2.62 23.716 2.716 23.5C2.812 23.284 2.86 23.032 2.86 22.744V16.54H3.844V22.756C3.844 23.212 3.764 23.608 3.604 23.944C3.444 24.272 3.208 24.528 2.896 24.712C2.584 24.896 2.196 25.004 1.732 25.036L0.952 25.084ZM7.86663 25.108C7.39463 25.108 7.00263 25.024 6.69063 24.856C6.38663 24.68 6.15463 24.42 5.99463 24.076C5.84263 23.732 5.76663 23.304 5.76663 22.792V19.168H6.73863V22.78C6.73863 23.124 6.78263 23.412 6.87063 23.644C6.96663 23.868 7.11463 24.036 7.31463 24.148C7.51463 24.252 7.76263 24.304 8.05862 24.304C8.39463 24.304 8.68663 24.228 8.93463 24.076C9.18263 23.924 9.37863 23.712 9.52263 23.44C9.66663 23.168 9.73863 22.848 9.73863 22.48V19.168H10.7106V25H9.76263V23.656H9.91863C9.75863 24.128 9.49463 24.488 9.12663 24.736C8.76663 24.984 8.34663 25.108 7.86663 25.108ZM12.4092 17.716V16.624H13.6092V17.716H12.4092ZM12.5292 25V19.168H13.5012V25H12.5292ZM17.7903 25.108C17.2063 25.108 16.7023 24.98 16.2783 24.724C15.8543 24.468 15.5263 24.112 15.2943 23.656C15.0703 23.192 14.9583 22.656 14.9583 22.048C14.9583 21.432 15.0703 20.9 15.2943 20.452C15.5263 20.004 15.8543 19.66 16.2783 19.42C16.7023 19.18 17.2063 19.06 17.7903 19.06C18.1503 19.06 18.5063 19.124 18.8583 19.252C19.2103 19.38 19.5023 19.56 19.7343 19.792L19.3983 20.5C19.1663 20.276 18.9103 20.112 18.6303 20.008C18.3583 19.904 18.0983 19.852 17.8503 19.852C17.2423 19.852 16.7743 20.044 16.4463 20.428C16.1183 20.804 15.9543 21.348 15.9543 22.06C15.9543 22.756 16.1183 23.308 16.4463 23.716C16.7743 24.116 17.2423 24.316 17.8503 24.316C18.0983 24.316 18.3583 24.264 18.6303 24.16C18.9103 24.056 19.1663 23.888 19.3983 23.656L19.7343 24.364C19.5023 24.596 19.2063 24.78 18.8463 24.916C18.4943 25.044 18.1423 25.108 17.7903 25.108ZM23.3838 25.108C22.7678 25.108 22.2358 24.988 21.7878 24.748C21.3478 24.5 21.0038 24.152 20.7558 23.704C20.5158 23.256 20.3958 22.72 20.3958 22.096C20.3958 21.488 20.5158 20.96 20.7558 20.512C20.9958 20.056 21.3238 19.7 21.7398 19.444C22.1638 19.188 22.6518 19.06 23.2038 19.06C23.7318 19.06 24.1838 19.176 24.5598 19.408C24.9358 19.64 25.2238 19.968 25.4238 20.392C25.6318 20.816 25.7358 21.324 25.7358 21.916V22.288H21.1398V21.652H25.0878L24.8958 21.808C24.8958 21.168 24.7518 20.672 24.4638 20.32C24.1838 19.96 23.7718 19.78 23.2278 19.78C22.8198 19.78 22.4718 19.876 22.1838 20.068C21.9038 20.252 21.6918 20.512 21.5478 20.848C21.4038 21.176 21.3318 21.56 21.3318 22V22.072C21.3318 22.56 21.4078 22.972 21.5598 23.308C21.7198 23.644 21.9558 23.9 22.2678 24.076C22.5798 24.244 22.9518 24.328 23.3838 24.328C23.7278 24.328 24.0598 24.276 24.3798 24.172C24.7078 24.06 25.0158 23.88 25.3038 23.632L25.6398 24.316C25.3758 24.556 25.0398 24.748 24.6318 24.892C24.2238 25.036 23.8078 25.108 23.3838 25.108ZM29.1105 25.108C28.8065 25.108 28.5105 25.076 28.2225 25.012C27.9425 24.956 27.6785 24.876 27.4305 24.772C27.1905 24.66 26.9825 24.528 26.8065 24.376L27.1185 23.692C27.3105 23.844 27.5185 23.972 27.7425 24.076C27.9665 24.172 28.1945 24.244 28.4265 24.292C28.6585 24.34 28.8945 24.364 29.1345 24.364C29.5905 24.364 29.9345 24.28 30.1665 24.112C30.3985 23.944 30.5145 23.716 30.5145 23.428C30.5145 23.204 30.4385 23.028 30.2865 22.9C30.1345 22.764 29.8945 22.66 29.5665 22.588L28.4745 22.348C27.9705 22.244 27.5945 22.064 27.3465 21.808C27.1065 21.552 26.9865 21.22 26.9865 20.812C26.9865 20.452 27.0785 20.144 27.2625 19.888C27.4545 19.624 27.7225 19.42 28.0665 19.276C28.4105 19.132 28.8105 19.06 29.2665 19.06C29.5385 19.06 29.7985 19.088 30.0465 19.144C30.2945 19.2 30.5265 19.284 30.7425 19.396C30.9665 19.5 31.1585 19.632 31.3185 19.792L30.9945 20.476C30.8425 20.332 30.6705 20.212 30.4785 20.116C30.2865 20.012 30.0865 19.936 29.8785 19.888C29.6785 19.832 29.4745 19.804 29.2665 19.804C28.8185 19.804 28.4785 19.892 28.2465 20.068C28.0145 20.244 27.8985 20.476 27.8985 20.764C27.8985 20.988 27.9705 21.172 28.1145 21.316C28.2585 21.46 28.4825 21.564 28.7865 21.628L29.8785 21.856C30.3985 21.968 30.7865 22.148 31.0425 22.396C31.3065 22.636 31.4385 22.964 31.4385 23.38C31.4385 23.732 31.3425 24.04 31.1505 24.304C30.9585 24.56 30.6865 24.76 30.3345 24.904C29.9905 25.04 29.5825 25.108 29.1105 25.108ZM33.2092 26.368L32.7532 26.02C32.8972 25.868 33.0052 25.724 33.0772 25.588C33.1572 25.46 33.2092 25.328 33.2332 25.192C33.2652 25.064 33.2812 24.932 33.2812 24.796L33.4972 25H32.7052V23.776H33.9292V24.64C33.9292 24.856 33.9052 25.06 33.8572 25.252C33.8172 25.452 33.7452 25.644 33.6412 25.828C33.5372 26.012 33.3932 26.192 33.2092 26.368ZM41.5417 25.108C41.1017 25.108 40.6857 25.068 40.2937 24.988C39.9097 24.908 39.5537 24.796 39.2257 24.652C38.9057 24.5 38.6137 24.316 38.3497 24.1L38.6977 23.308C38.9697 23.508 39.2457 23.68 39.5257 23.824C39.8137 23.96 40.1217 24.064 40.4497 24.136C40.7857 24.2 41.1497 24.232 41.5417 24.232C42.2617 24.232 42.7937 24.1 43.1377 23.836C43.4897 23.564 43.6657 23.208 43.6657 22.768C43.6657 22.536 43.6097 22.336 43.4977 22.168C43.3937 22 43.2177 21.856 42.9697 21.736C42.7297 21.616 42.4137 21.516 42.0217 21.436L40.7737 21.184C40.0217 21.024 39.4577 20.764 39.0817 20.404C38.7137 20.036 38.5297 19.548 38.5297 18.94C38.5297 18.436 38.6577 17.996 38.9137 17.62C39.1777 17.244 39.5417 16.952 40.0057 16.744C40.4777 16.536 41.0137 16.432 41.6137 16.432C41.9977 16.432 42.3617 16.472 42.7057 16.552C43.0497 16.632 43.3657 16.752 43.6537 16.912C43.9497 17.064 44.2097 17.252 44.4337 17.476L44.0857 18.244C43.7257 17.916 43.3457 17.68 42.9457 17.536C42.5457 17.384 42.0977 17.308 41.6017 17.308C41.1777 17.308 40.8097 17.372 40.4977 17.5C40.1937 17.628 39.9537 17.816 39.7777 18.064C39.6097 18.304 39.5257 18.584 39.5257 18.904C39.5257 19.288 39.6417 19.592 39.8737 19.816C40.1137 20.04 40.5017 20.204 41.0377 20.308L42.2857 20.572C43.0937 20.74 43.6897 20.996 44.0737 21.34C44.4657 21.676 44.6617 22.136 44.6617 22.72C44.6617 23.184 44.5337 23.6 44.2777 23.968C44.0297 24.328 43.6697 24.608 43.1977 24.808C42.7337 25.008 42.1817 25.108 41.5417 25.108ZM46.0805 25V19.168H47.0285V20.464H46.8965C46.9925 20.168 47.1325 19.916 47.3165 19.708C47.5085 19.492 47.7325 19.332 47.9885 19.228C48.2525 19.116 48.5405 19.06 48.8525 19.06C49.3485 19.06 49.7485 19.18 50.0525 19.42C50.3645 19.652 50.5725 20.016 50.6765 20.512H50.4965C50.6405 20.064 50.8965 19.712 51.2645 19.456C51.6405 19.192 52.0765 19.06 52.5725 19.06C53.0125 19.06 53.3725 19.144 53.6525 19.312C53.9405 19.48 54.1565 19.736 54.3005 20.08C54.4445 20.416 54.5165 20.844 54.5165 21.364V25H53.5445V21.412C53.5445 20.876 53.4525 20.484 53.2685 20.236C53.0845 19.98 52.7725 19.852 52.3325 19.852C52.0205 19.852 51.7445 19.928 51.5045 20.08C51.2725 20.232 51.0925 20.448 50.9645 20.728C50.8445 21 50.7845 21.324 50.7845 21.7V25H49.8125V21.412C49.8125 20.876 49.7165 20.484 49.5245 20.236C49.3405 19.98 49.0325 19.852 48.6005 19.852C48.2805 19.852 48.0045 19.928 47.7725 20.08C47.5405 20.232 47.3605 20.448 47.2325 20.728C47.1125 21 47.0525 21.324 47.0525 21.7V25H46.0805ZM58.7579 25.108C58.1899 25.108 57.6979 24.984 57.2819 24.736C56.8659 24.488 56.5419 24.14 56.3099 23.692C56.0859 23.236 55.9739 22.7 55.9739 22.084C55.9739 21.468 56.0859 20.936 56.3099 20.488C56.5419 20.032 56.8659 19.68 57.2819 19.432C57.6979 19.184 58.1899 19.06 58.7579 19.06C59.3259 19.06 59.8179 19.184 60.2339 19.432C60.6499 19.68 60.9699 20.032 61.1939 20.488C61.4259 20.936 61.5419 21.468 61.5419 22.084C61.5419 22.7 61.4259 23.236 61.1939 23.692C60.9699 24.14 60.6499 24.488 60.2339 24.736C59.8179 24.984 59.3259 25.108 58.7579 25.108ZM58.7579 24.328C59.3099 24.328 59.7459 24.136 60.0659 23.752C60.3939 23.36 60.5579 22.8 60.5579 22.072C60.5579 21.352 60.3939 20.8 60.0659 20.416C59.7459 20.032 59.3099 19.84 58.7579 19.84C58.2139 19.84 57.7779 20.032 57.4499 20.416C57.1219 20.8 56.9579 21.352 56.9579 22.072C56.9579 22.8 57.1219 23.36 57.4499 23.752C57.7779 24.136 58.2139 24.328 58.7579 24.328ZM65.4258 25.108C64.8578 25.108 64.3658 24.984 63.9498 24.736C63.5338 24.488 63.2098 24.14 62.9778 23.692C62.7538 23.236 62.6418 22.7 62.6418 22.084C62.6418 21.468 62.7538 20.936 62.9778 20.488C63.2098 20.032 63.5338 19.68 63.9498 19.432C64.3658 19.184 64.8578 19.06 65.4258 19.06C65.9938 19.06 66.4858 19.184 66.9018 19.432C67.3178 19.68 67.6378 20.032 67.8618 20.488C68.0938 20.936 68.2098 21.468 68.2098 22.084C68.2098 22.7 68.0938 23.236 67.8618 23.692C67.6378 24.14 67.3178 24.488 66.9018 24.736C66.4858 24.984 65.9938 25.108 65.4258 25.108ZM65.4258 24.328C65.9778 24.328 66.4138 24.136 66.7338 23.752C67.0618 23.36 67.2258 22.8 67.2258 22.072C67.2258 21.352 67.0618 20.8 66.7338 20.416C66.4138 20.032 65.9778 19.84 65.4258 19.84C64.8818 19.84 64.4458 20.032 64.1178 20.416C63.7898 20.8 63.6258 21.352 63.6258 22.072C63.6258 22.8 63.7898 23.36 64.1178 23.752C64.4458 24.136 64.8818 24.328 65.4258 24.328ZM71.9512 25.108C71.2632 25.108 70.7472 24.924 70.4032 24.556C70.0592 24.188 69.8872 23.664 69.8872 22.984V19.924H68.7472V19.168H69.8872V17.38H70.8592V19.168H72.7072V19.924H70.8592V22.888C70.8592 23.344 70.9552 23.692 71.1472 23.932C71.3392 24.164 71.6512 24.28 72.0832 24.28C72.2112 24.28 72.3392 24.264 72.4672 24.232C72.5952 24.2 72.7112 24.168 72.8152 24.136L72.9832 24.88C72.8792 24.936 72.7272 24.988 72.5272 25.036C72.3272 25.084 72.1352 25.108 71.9512 25.108ZM73.8065 25V16.54H74.7785V20.464H74.6225C74.7905 20 75.0625 19.652 75.4385 19.42C75.8225 19.18 76.2625 19.06 76.7585 19.06C77.2225 19.06 77.6065 19.144 77.9105 19.312C78.2225 19.48 78.4545 19.736 78.6065 20.08C78.7585 20.416 78.8345 20.844 78.8345 21.364V25H77.8625V21.424C77.8625 21.064 77.8145 20.768 77.7185 20.536C77.6305 20.304 77.4865 20.132 77.2865 20.02C77.0945 19.908 76.8425 19.852 76.5305 19.852C76.1785 19.852 75.8705 19.928 75.6065 20.08C75.3425 20.232 75.1385 20.444 74.9945 20.716C74.8505 20.988 74.7785 21.308 74.7785 21.676V25H73.8065ZM80.5068 17.716V16.624H81.7068V17.716H80.5068ZM80.6268 25V19.168H81.5988V25H80.6268ZM86.0439 25.108C85.4279 25.108 84.8959 24.988 84.4479 24.748C84.0079 24.5 83.6639 24.152 83.4159 23.704C83.1759 23.256 83.0559 22.72 83.0559 22.096C83.0559 21.488 83.1759 20.96 83.4159 20.512C83.6559 20.056 83.9839 19.7 84.3999 19.444C84.8239 19.188 85.3119 19.06 85.8639 19.06C86.3919 19.06 86.8439 19.176 87.2199 19.408C87.5959 19.64 87.8839 19.968 88.0839 20.392C88.2919 20.816 88.3959 21.324 88.3959 21.916V22.288H83.7999V21.652H87.7479L87.5559 21.808C87.5559 21.168 87.4119 20.672 87.1239 20.32C86.8439 19.96 86.4319 19.78 85.8879 19.78C85.4799 19.78 85.1319 19.876 84.8439 20.068C84.5639 20.252 84.3519 20.512 84.2079 20.848C84.0639 21.176 83.9919 21.56 83.9919 22V22.072C83.9919 22.56 84.0679 22.972 84.2199 23.308C84.3799 23.644 84.6159 23.9 84.9279 24.076C85.2399 24.244 85.6119 24.328 86.0439 24.328C86.3879 24.328 86.7199 24.276 87.0399 24.172C87.3679 24.06 87.6759 23.88 87.9639 23.632L88.2999 24.316C88.0359 24.556 87.6999 24.748 87.2919 24.892C86.8839 25.036 86.4679 25.108 86.0439 25.108ZM91.7706 25.108C91.4666 25.108 91.1706 25.076 90.8826 25.012C90.6026 24.956 90.3386 24.876 90.0906 24.772C89.8506 24.66 89.6426 24.528 89.4666 24.376L89.7786 23.692C89.9706 23.844 90.1786 23.972 90.4026 24.076C90.6266 24.172 90.8546 24.244 91.0866 24.292C91.3186 24.34 91.5546 24.364 91.7946 24.364C92.2506 24.364 92.5946 24.28 92.8266 24.112C93.0586 23.944 93.1746 23.716 93.1746 23.428C93.1746 23.204 93.0986 23.028 92.9466 22.9C92.7946 22.764 92.5546 22.66 92.2266 22.588L91.1346 22.348C90.6306 22.244 90.2546 22.064 90.0066 21.808C89.7666 21.552 89.6466 21.22 89.6466 20.812C89.6466 20.452 89.7386 20.144 89.9226 19.888C90.1146 19.624 90.3826 19.42 90.7266 19.276C91.0706 19.132 91.4706 19.06 91.9266 19.06C92.1986 19.06 92.4586 19.088 92.7066 19.144C92.9546 19.2 93.1866 19.284 93.4026 19.396C93.6266 19.5 93.8186 19.632 93.9786 19.792L93.6546 20.476C93.5026 20.332 93.3306 20.212 93.1386 20.116C92.9466 20.012 92.7466 19.936 92.5386 19.888C92.3386 19.832 92.1346 19.804 91.9266 19.804C91.4786 19.804 91.1386 19.892 90.9066 20.068C90.6746 20.244 90.5586 20.476 90.5586 20.764C90.5586 20.988 90.6306 21.172 90.7746 21.316C90.9186 21.46 91.1426 21.564 91.4466 21.628L92.5386 21.856C93.0586 21.968 93.4466 22.148 93.7026 22.396C93.9666 22.636 94.0986 22.964 94.0986 23.38C94.0986 23.732 94.0026 24.04 93.8106 24.304C93.6186 24.56 93.3466 24.76 92.9946 24.904C92.6506 25.04 92.2426 25.108 91.7706 25.108ZM95.8694 26.368L95.4134 26.02C95.5574 25.868 95.6654 25.724 95.7374 25.588C95.8174 25.46 95.8694 25.328 95.8934 25.192C95.9254 25.064 95.9414 24.932 95.9414 24.796L96.1574 25H95.3654V23.776H96.5894V24.64C96.5894 24.856 96.5654 25.06 96.5174 25.252C96.4774 25.452 96.4054 25.644 96.3014 25.828C96.1974 26.012 96.0534 26.192 95.8694 26.368ZM100.65 25L104.382 16.54H105.222L108.954 25H107.934L106.89 22.588L107.37 22.84H102.21L102.702 22.588L101.67 25H100.65ZM104.79 17.692L102.858 22.24L102.57 22.012H107.01L106.746 22.24L104.814 17.692H104.79ZM110.076 25V19.168H111.024V20.464H110.892C111.06 20 111.332 19.652 111.708 19.42C112.092 19.18 112.532 19.06 113.028 19.06C113.492 19.06 113.876 19.144 114.18 19.312C114.492 19.472 114.724 19.724 114.876 20.068C115.028 20.412 115.104 20.844 115.104 21.364V25H114.132V21.424C114.132 21.064 114.084 20.768 113.988 20.536C113.9 20.304 113.756 20.132 113.556 20.02C113.364 19.908 113.112 19.852 112.8 19.852C112.448 19.852 112.14 19.928 111.876 20.08C111.612 20.232 111.408 20.444 111.264 20.716C111.12 20.988 111.048 21.308 111.048 21.676V25H110.076ZM119.116 25.108C118.596 25.108 118.14 24.984 117.748 24.736C117.364 24.488 117.064 24.14 116.848 23.692C116.64 23.236 116.536 22.7 116.536 22.084C116.536 21.46 116.64 20.924 116.848 20.476C117.064 20.02 117.364 19.672 117.748 19.432C118.14 19.184 118.596 19.06 119.116 19.06C119.644 19.06 120.096 19.192 120.472 19.456C120.848 19.72 121.1 20.076 121.228 20.524H121.096V16.54H122.068V25H121.12V23.608H121.24C121.112 24.064 120.856 24.428 120.472 24.7C120.096 24.972 119.644 25.108 119.116 25.108ZM119.32 24.328C119.872 24.328 120.308 24.136 120.628 23.752C120.956 23.36 121.12 22.804 121.12 22.084C121.12 21.356 120.956 20.8 120.628 20.416C120.308 20.032 119.872 19.84 119.32 19.84C118.776 19.84 118.34 20.032 118.012 20.416C117.684 20.8 117.52 21.356 117.52 22.084C117.52 22.804 117.684 23.36 118.012 23.752C118.34 24.136 118.776 24.328 119.32 24.328ZM130.767 25.108C129.935 25.108 129.223 24.932 128.631 24.58C128.039 24.228 127.583 23.728 127.263 23.08C126.951 22.432 126.795 21.66 126.795 20.764C126.795 19.868 126.951 19.1 127.263 18.46C127.583 17.812 128.039 17.312 128.631 16.96C129.223 16.608 129.935 16.432 130.767 16.432C131.351 16.432 131.891 16.524 132.387 16.708C132.883 16.892 133.299 17.16 133.635 17.512L133.251 18.316C132.883 17.972 132.499 17.724 132.099 17.572C131.707 17.412 131.271 17.332 130.791 17.332C129.839 17.332 129.111 17.632 128.607 18.232C128.103 18.832 127.851 19.676 127.851 20.764C127.851 21.852 128.103 22.7 128.607 23.308C129.111 23.908 129.839 24.208 130.791 24.208C131.271 24.208 131.707 24.132 132.099 23.98C132.499 23.82 132.883 23.568 133.251 23.224L133.635 24.028C133.299 24.372 132.883 24.64 132.387 24.832C131.891 25.016 131.351 25.108 130.767 25.108ZM137.051 25.108C136.483 25.108 135.991 24.984 135.575 24.736C135.159 24.488 134.835 24.14 134.603 23.692C134.379 23.236 134.267 22.7 134.267 22.084C134.267 21.468 134.379 20.936 134.603 20.488C134.835 20.032 135.159 19.68 135.575 19.432C135.991 19.184 136.483 19.06 137.051 19.06C137.619 19.06 138.111 19.184 138.527 19.432C138.943 19.68 139.263 20.032 139.487 20.488C139.719 20.936 139.835 21.468 139.835 22.084C139.835 22.7 139.719 23.236 139.487 23.692C139.263 24.14 138.943 24.488 138.527 24.736C138.111 24.984 137.619 25.108 137.051 25.108ZM137.051 24.328C137.603 24.328 138.039 24.136 138.359 23.752C138.687 23.36 138.851 22.8 138.851 22.072C138.851 21.352 138.687 20.8 138.359 20.416C138.039 20.032 137.603 19.84 137.051 19.84C136.507 19.84 136.071 20.032 135.743 20.416C135.415 20.8 135.251 21.352 135.251 22.072C135.251 22.8 135.415 23.36 135.743 23.752C136.071 24.136 136.507 24.328 137.051 24.328ZM143.083 25.108C142.491 25.108 142.043 24.932 141.739 24.58C141.443 24.228 141.295 23.724 141.295 23.068V16.54H142.267V22.996C142.267 23.276 142.303 23.512 142.375 23.704C142.455 23.896 142.571 24.04 142.723 24.136C142.875 24.232 143.063 24.28 143.287 24.28C143.383 24.28 143.475 24.276 143.563 24.268C143.659 24.252 143.747 24.232 143.827 24.208L143.803 25.024C143.675 25.048 143.551 25.068 143.431 25.084C143.319 25.1 143.203 25.108 143.083 25.108ZM147.007 25.108C146.487 25.108 146.031 24.984 145.639 24.736C145.255 24.488 144.955 24.14 144.739 23.692C144.531 23.236 144.427 22.7 144.427 22.084C144.427 21.46 144.531 20.924 144.739 20.476C144.955 20.02 145.255 19.672 145.639 19.432C146.031 19.184 146.487 19.06 147.007 19.06C147.535 19.06 147.987 19.192 148.363 19.456C148.739 19.72 148.991 20.076 149.119 20.524H148.987V16.54H149.959V25H149.011V23.608H149.131C149.003 24.064 148.747 24.428 148.363 24.7C147.987 24.972 147.535 25.108 147.007 25.108ZM147.211 24.328C147.763 24.328 148.199 24.136 148.519 23.752C148.847 23.36 149.011 22.804 149.011 22.084C149.011 21.356 148.847 20.8 148.519 20.416C148.199 20.032 147.763 19.84 147.211 19.84C146.667 19.84 146.231 20.032 145.903 20.416C145.575 20.8 145.411 21.356 145.411 22.084C145.411 22.804 145.575 23.36 145.903 23.752C146.231 24.136 146.667 24.328 147.211 24.328ZM154.997 25V16.54H158.381C159.245 16.54 159.917 16.732 160.397 17.116C160.877 17.5 161.117 18.044 161.117 18.748C161.117 19.276 160.961 19.716 160.649 20.068C160.345 20.42 159.929 20.652 159.401 20.764V20.596C159.801 20.644 160.145 20.76 160.433 20.944C160.721 21.12 160.941 21.356 161.093 21.652C161.245 21.94 161.321 22.28 161.321 22.672C161.321 23.176 161.209 23.604 160.985 23.956C160.769 24.3 160.453 24.56 160.037 24.736C159.621 24.912 159.117 25 158.525 25H154.997ZM155.957 24.208H158.429C158.685 24.208 158.913 24.188 159.113 24.148C159.321 24.108 159.501 24.048 159.653 23.968C159.805 23.88 159.933 23.776 160.037 23.656C160.141 23.536 160.217 23.392 160.265 23.224C160.321 23.056 160.349 22.868 160.349 22.66C160.349 22.444 160.321 22.256 160.265 22.096C160.217 21.928 160.141 21.784 160.037 21.664C159.933 21.536 159.805 21.432 159.653 21.352C159.501 21.272 159.321 21.212 159.113 21.172C158.913 21.132 158.685 21.112 158.429 21.112H155.957V24.208ZM155.957 20.32H158.237C158.861 20.32 159.333 20.192 159.653 19.936C159.981 19.68 160.145 19.312 160.145 18.832C160.145 18.336 159.981 17.964 159.653 17.716C159.333 17.46 158.861 17.332 158.237 17.332H155.957V20.32ZM165.603 25.108C164.987 25.108 164.455 24.988 164.007 24.748C163.567 24.5 163.223 24.152 162.975 23.704C162.735 23.256 162.615 22.72 162.615 22.096C162.615 21.488 162.735 20.96 162.975 20.512C163.215 20.056 163.543 19.7 163.959 19.444C164.383 19.188 164.871 19.06 165.423 19.06C165.951 19.06 166.403 19.176 166.779 19.408C167.155 19.64 167.443 19.968 167.643 20.392C167.851 20.816 167.955 21.324 167.955 21.916V22.288H163.359V21.652H167.307L167.115 21.808C167.115 21.168 166.971 20.672 166.683 20.32C166.403 19.96 165.991 19.78 165.447 19.78C165.039 19.78 164.691 19.876 164.403 20.068C164.123 20.252 163.911 20.512 163.767 20.848C163.623 21.176 163.551 21.56 163.551 22V22.072C163.551 22.56 163.627 22.972 163.779 23.308C163.939 23.644 164.175 23.9 164.487 24.076C164.799 24.244 165.171 24.328 165.603 24.328C165.947 24.328 166.279 24.276 166.599 24.172C166.927 24.06 167.235 23.88 167.523 23.632L167.859 24.316C167.595 24.556 167.259 24.748 166.851 24.892C166.443 25.036 166.027 25.108 165.603 25.108ZM171.007 25L168.499 19.168H169.555L171.643 24.28H171.319L173.443 19.168H174.439L171.919 25H171.007ZM178.013 25.108C177.397 25.108 176.865 24.988 176.417 24.748C175.977 24.5 175.633 24.152 175.385 23.704C175.145 23.256 175.025 22.72 175.025 22.096C175.025 21.488 175.145 20.96 175.385 20.512C175.625 20.056 175.953 19.7 176.369 19.444C176.793 19.188 177.281 19.06 177.833 19.06C178.361 19.06 178.813 19.176 179.189 19.408C179.565 19.64 179.853 19.968 180.053 20.392C180.261 20.816 180.365 21.324 180.365 21.916V22.288H175.769V21.652H179.717L179.525 21.808C179.525 21.168 179.381 20.672 179.093 20.32C178.813 19.96 178.401 19.78 177.857 19.78C177.449 19.78 177.101 19.876 176.813 20.068C176.533 20.252 176.321 20.512 176.177 20.848C176.033 21.176 175.961 21.56 175.961 22V22.072C175.961 22.56 176.037 22.972 176.189 23.308C176.349 23.644 176.585 23.9 176.897 24.076C177.209 24.244 177.581 24.328 178.013 24.328C178.357 24.328 178.689 24.276 179.009 24.172C179.337 24.06 179.645 23.88 179.933 23.632L180.269 24.316C180.005 24.556 179.669 24.748 179.261 24.892C178.853 25.036 178.437 25.108 178.013 25.108ZM181.771 25V19.168H182.719V20.548H182.599C182.735 20.076 182.971 19.72 183.307 19.48C183.643 19.232 184.087 19.088 184.639 19.048L184.987 19.012L185.059 19.852L184.447 19.924C183.903 19.972 183.483 20.148 183.187 20.452C182.899 20.748 182.755 21.156 182.755 21.676V25H181.771ZM187.85 25.108C187.45 25.108 187.09 25.032 186.77 24.88C186.458 24.72 186.21 24.504 186.026 24.232C185.842 23.96 185.75 23.656 185.75 23.32C185.75 22.888 185.858 22.548 186.074 22.3C186.298 22.052 186.662 21.876 187.166 21.772C187.678 21.668 188.374 21.616 189.254 21.616H189.794V22.252H189.266C188.778 22.252 188.37 22.268 188.042 22.3C187.714 22.332 187.454 22.388 187.262 22.468C187.07 22.548 186.934 22.652 186.854 22.78C186.774 22.908 186.734 23.068 186.734 23.26C186.734 23.588 186.846 23.856 187.07 24.064C187.302 24.272 187.614 24.376 188.006 24.376C188.326 24.376 188.606 24.3 188.846 24.148C189.094 23.996 189.286 23.788 189.422 23.524C189.566 23.26 189.638 22.956 189.638 22.612V21.244C189.638 20.748 189.538 20.392 189.338 20.176C189.138 19.952 188.81 19.84 188.354 19.84C188.002 19.84 187.662 19.892 187.334 19.996C187.006 20.092 186.67 20.252 186.326 20.476L185.99 19.768C186.198 19.624 186.434 19.5 186.698 19.396C186.962 19.284 187.238 19.2 187.526 19.144C187.814 19.088 188.09 19.06 188.354 19.06C188.858 19.06 189.274 19.144 189.602 19.312C189.93 19.472 190.174 19.72 190.334 20.056C190.494 20.384 190.574 20.808 190.574 21.328V25H189.662V23.644H189.77C189.706 23.948 189.582 24.208 189.398 24.424C189.222 24.64 189.002 24.808 188.738 24.928C188.474 25.048 188.178 25.108 187.85 25.108ZM194.957 27.268C194.453 27.268 193.977 27.2 193.529 27.064C193.089 26.936 192.697 26.74 192.353 26.476L192.677 25.768C192.917 25.936 193.153 26.072 193.385 26.176C193.625 26.288 193.869 26.368 194.117 26.416C194.373 26.464 194.637 26.488 194.909 26.488C195.477 26.488 195.905 26.336 196.193 26.032C196.489 25.728 196.637 25.288 196.637 24.712V23.356H196.757C196.637 23.82 196.381 24.188 195.989 24.46C195.605 24.732 195.153 24.868 194.633 24.868C194.097 24.868 193.633 24.748 193.241 24.508C192.849 24.26 192.545 23.916 192.329 23.476C192.121 23.036 192.017 22.528 192.017 21.952C192.017 21.376 192.121 20.872 192.329 20.44C192.545 20 192.849 19.66 193.241 19.42C193.633 19.18 194.097 19.06 194.633 19.06C195.161 19.06 195.617 19.196 196.001 19.468C196.385 19.732 196.633 20.092 196.745 20.548H196.637V19.168H197.585V24.58C197.585 25.172 197.485 25.668 197.285 26.068C197.093 26.468 196.801 26.768 196.409 26.968C196.017 27.168 195.533 27.268 194.957 27.268ZM194.813 24.076C195.373 24.076 195.817 23.884 196.145 23.5C196.473 23.116 196.637 22.6 196.637 21.952C196.637 21.304 196.473 20.792 196.145 20.416C195.817 20.032 195.373 19.84 194.813 19.84C194.261 19.84 193.821 20.032 193.493 20.416C193.165 20.792 193.001 21.304 193.001 21.952C193.001 22.6 193.165 23.116 193.493 23.5C193.821 23.884 194.261 24.076 194.813 24.076ZM202.036 25.108C201.42 25.108 200.888 24.988 200.44 24.748C200 24.5 199.656 24.152 199.408 23.704C199.168 23.256 199.048 22.72 199.048 22.096C199.048 21.488 199.168 20.96 199.408 20.512C199.648 20.056 199.976 19.7 200.392 19.444C200.816 19.188 201.304 19.06 201.856 19.06C202.384 19.06 202.836 19.176 203.212 19.408C203.588 19.64 203.876 19.968 204.076 20.392C204.284 20.816 204.388 21.324 204.388 21.916V22.288H199.792V21.652H203.74L203.548 21.808C203.548 21.168 203.404 20.672 203.116 20.32C202.836 19.96 202.424 19.78 201.88 19.78C201.472 19.78 201.124 19.876 200.836 20.068C200.556 20.252 200.344 20.512 200.2 20.848C200.056 21.176 199.984 21.56 199.984 22V22.072C199.984 22.56 200.06 22.972 200.212 23.308C200.372 23.644 200.608 23.9 200.92 24.076C201.232 24.244 201.604 24.328 202.036 24.328C202.38 24.328 202.712 24.276 203.032 24.172C203.36 24.06 203.668 23.88 203.956 23.632L204.292 24.316C204.028 24.556 203.692 24.748 203.284 24.892C202.876 25.036 202.46 25.108 202.036 25.108ZM207.763 25.108C207.459 25.108 207.163 25.076 206.875 25.012C206.595 24.956 206.331 24.876 206.083 24.772C205.843 24.66 205.635 24.528 205.459 24.376L205.771 23.692C205.963 23.844 206.171 23.972 206.395 24.076C206.619 24.172 206.847 24.244 207.079 24.292C207.311 24.34 207.547 24.364 207.787 24.364C208.243 24.364 208.587 24.28 208.819 24.112C209.051 23.944 209.167 23.716 209.167 23.428C209.167 23.204 209.091 23.028 208.939 22.9C208.787 22.764 208.547 22.66 208.219 22.588L207.127 22.348C206.623 22.244 206.247 22.064 205.999 21.808C205.759 21.552 205.639 21.22 205.639 20.812C205.639 20.452 205.731 20.144 205.915 19.888C206.107 19.624 206.375 19.42 206.719 19.276C207.063 19.132 207.463 19.06 207.919 19.06C208.191 19.06 208.451 19.088 208.699 19.144C208.947 19.2 209.179 19.284 209.395 19.396C209.619 19.5 209.811 19.632 209.971 19.792L209.647 20.476C209.495 20.332 209.323 20.212 209.131 20.116C208.939 20.012 208.739 19.936 208.531 19.888C208.331 19.832 208.127 19.804 207.919 19.804C207.471 19.804 207.131 19.892 206.899 20.068C206.667 20.244 206.551 20.476 206.551 20.764C206.551 20.988 206.623 21.172 206.767 21.316C206.911 21.46 207.135 21.564 207.439 21.628L208.531 21.856C209.051 21.968 209.439 22.148 209.695 22.396C209.959 22.636 210.091 22.964 210.091 23.38C210.091 23.732 209.995 24.04 209.803 24.304C209.611 24.56 209.339 24.76 208.987 24.904C208.643 25.04 208.235 25.108 207.763 25.108ZM211.358 25V23.776H212.582V25H211.358Z" fill="white"/>
</svg>
