<svg width="320" height="28" viewBox="0 0 320 28" fill="none" xmlns="http://www.w3.org/2000/svg">
<path d="M1.08 9V8.256L3.972 5.136C4.244 4.84 4.464 4.564 4.632 4.308C4.8 4.044 4.924 3.788 5.004 3.54C5.084 3.292 5.124 3.04 5.124 2.784C5.124 2.304 4.976 1.94 4.68 1.692C4.392 1.436 3.968 1.308 3.408 1.308C2.976 1.308 2.572 1.388 2.196 1.548C1.828 1.7 1.476 1.94 1.14 2.268L0.768 1.5C1.08 1.18 1.476 0.924 1.956 0.732C2.444 0.532 2.956 0.431999 3.492 0.431999C4.06 0.431999 4.54 0.52 4.932 0.696C5.324 0.872 5.62 1.132 5.82 1.476C6.02 1.812 6.12 2.224 6.12 2.712C6.12 2.968 6.088 3.22 6.024 3.468C5.968 3.708 5.876 3.952 5.748 4.2C5.628 4.44 5.472 4.688 5.28 4.944C5.096 5.2 4.872 5.464 4.608 5.736L2.064 8.436V8.16H6.468V9H1.08ZM10.9753 9.108C10.6153 9.108 10.2633 9.068 9.91931 8.988C9.57531 8.908 9.25131 8.792 8.94731 8.64C8.65131 8.488 8.38731 8.308 8.15531 8.1L8.52731 7.32C8.91131 7.632 9.29931 7.864 9.69131 8.016C10.0913 8.16 10.5153 8.232 10.9633 8.232C11.5553 8.232 12.0153 8.068 12.3433 7.74C12.6793 7.412 12.8473 6.98 12.8473 6.444C12.8473 5.892 12.6873 5.44 12.3673 5.088C12.0473 4.736 11.6073 4.56 11.0473 4.56C10.6393 4.56 10.2793 4.644 9.96731 4.812C9.66331 4.972 9.38731 5.224 9.13931 5.568H8.41931V0.539999H13.3273V1.38H9.39131V4.752H9.12731C9.33531 4.416 9.62331 4.16 9.99131 3.984C10.3593 3.8 10.7713 3.708 11.2273 3.708C11.7633 3.708 12.2233 3.82 12.6073 4.044C12.9993 4.268 13.2993 4.584 13.5073 4.992C13.7233 5.392 13.8313 5.86 13.8313 6.396C13.8313 6.924 13.7153 7.392 13.4833 7.8C13.2513 8.208 12.9233 8.528 12.4993 8.76C12.0753 8.992 11.5673 9.108 10.9753 9.108ZM17.9906 9.108C17.3506 9.108 16.8066 8.944 16.3586 8.616C15.9186 8.28 15.5866 7.788 15.3626 7.14C15.1386 6.492 15.0266 5.7 15.0266 4.764C15.0266 3.82 15.1386 3.028 15.3626 2.388C15.5866 1.74 15.9186 1.252 16.3586 0.924C16.8066 0.595999 17.3506 0.431999 17.9906 0.431999C18.6386 0.431999 19.1826 0.595999 19.6226 0.924C20.0626 1.252 20.3946 1.736 20.6186 2.376C20.8426 3.016 20.9546 3.808 20.9546 4.752C20.9546 5.696 20.8426 6.492 20.6186 7.14C20.3946 7.788 20.0626 8.28 19.6226 8.616C19.1826 8.944 18.6386 9.108 17.9906 9.108ZM17.9906 8.256C18.6626 8.256 19.1586 7.972 19.4786 7.404C19.8066 6.836 19.9706 5.952 19.9706 4.752C19.9706 3.552 19.8106 2.676 19.4906 2.124C19.1706 1.564 18.6706 1.284 17.9906 1.284C17.3266 1.284 16.8306 1.564 16.5026 2.124C16.1746 2.684 16.0106 3.56 16.0106 4.752C16.0106 5.952 16.1706 6.836 16.4906 7.404C16.8186 7.972 17.3186 8.256 17.9906 8.256ZM22.5219 9V3.168H23.4699V4.464H23.3379C23.4339 4.168 23.5739 3.916 23.7579 3.708C23.9499 3.492 24.1739 3.332 24.4299 3.228C24.6939 3.116 24.9819 3.06 25.2939 3.06C25.7899 3.06 26.1899 3.18 26.4939 3.42C26.8059 3.652 27.0139 4.016 27.1179 4.512H26.9379C27.0819 4.064 27.3379 3.712 27.7059 3.456C28.0819 3.192 28.5179 3.06 29.0139 3.06C29.4539 3.06 29.8139 3.144 30.0939 3.312C30.3819 3.48 30.5979 3.736 30.7419 4.08C30.8859 4.416 30.9579 4.844 30.9579 5.364V9H29.9859V5.412C29.9859 4.876 29.8939 4.484 29.7099 4.236C29.5259 3.98 29.2139 3.852 28.7739 3.852C28.4619 3.852 28.1859 3.928 27.9459 4.08C27.7139 4.232 27.5339 4.448 27.4059 4.728C27.2859 5 27.2259 5.324 27.2259 5.7V9H26.2539V5.412C26.2539 4.876 26.1579 4.484 25.9659 4.236C25.7819 3.98 25.4739 3.852 25.0419 3.852C24.7219 3.852 24.4459 3.928 24.2139 4.08C23.9819 4.232 23.8019 4.448 23.6739 4.728C23.5539 5 23.4939 5.324 23.4939 5.7V9H22.5219ZM34.5633 9.108C33.9713 9.108 33.5233 8.932 33.2193 8.58C32.9233 8.228 32.7753 7.724 32.7753 7.068V0.539999H33.7473V6.996C33.7473 7.276 33.7833 7.512 33.8553 7.704C33.9353 7.896 34.0513 8.04 34.2033 8.136C34.3553 8.232 34.5433 8.28 34.7673 8.28C34.8633 8.28 34.9553 8.276 35.0433 8.268C35.1393 8.252 35.2273 8.232 35.3073 8.208L35.2833 9.024C35.1553 9.048 35.0313 9.068 34.9113 9.084C34.7993 9.1 34.6833 9.108 34.5633 9.108ZM42.2761 9.108C41.8361 9.108 41.4201 9.068 41.0281 8.988C40.6441 8.908 40.2881 8.796 39.9601 8.652C39.6401 8.5 39.3481 8.316 39.0841 8.1L39.4321 7.308C39.7041 7.508 39.9801 7.68 40.2601 7.824C40.5481 7.96 40.8561 8.064 41.1841 8.136C41.5201 8.2 41.8841 8.232 42.2761 8.232C42.9961 8.232 43.5281 8.1 43.8721 7.836C44.2241 7.564 44.4001 7.208 44.4001 6.768C44.4001 6.536 44.3441 6.336 44.2321 6.168C44.1281 6 43.9521 5.856 43.7041 5.736C43.4641 5.616 43.1481 5.516 42.7561 5.436L41.5081 5.184C40.7561 5.024 40.1921 4.764 39.8161 4.404C39.4481 4.036 39.2641 3.548 39.2641 2.94C39.2641 2.436 39.3921 1.996 39.6481 1.62C39.9121 1.244 40.2761 0.951999 40.7401 0.744C41.2121 0.536 41.7481 0.431999 42.3481 0.431999C42.7321 0.431999 43.0961 0.471999 43.4401 0.551999C43.7841 0.632 44.1001 0.752 44.3881 0.912C44.6841 1.064 44.9441 1.252 45.1681 1.476L44.8201 2.244C44.4601 1.916 44.0801 1.68 43.6801 1.536C43.2801 1.384 42.8321 1.308 42.3361 1.308C41.9121 1.308 41.5441 1.372 41.2321 1.5C40.9281 1.628 40.6881 1.816 40.5121 2.064C40.3441 2.304 40.2601 2.584 40.2601 2.904C40.2601 3.288 40.3761 3.592 40.6081 3.816C40.8481 4.04 41.2361 4.204 41.7721 4.308L43.0201 4.572C43.8281 4.74 44.4241 4.996 44.8081 5.34C45.2001 5.676 45.3961 6.136 45.3961 6.72C45.3961 7.184 45.2681 7.6 45.0121 7.968C44.7641 8.328 44.4041 8.608 43.9321 8.808C43.4681 9.008 42.9161 9.108 42.2761 9.108ZM46.6709 1.716V0.624H47.8709V1.716H46.6709ZM46.7909 9V3.168H47.7629V9H46.7909ZM49.58 11.16V3.168H50.528V4.548H50.408C50.536 4.092 50.788 3.732 51.164 3.468C51.548 3.196 52.004 3.06 52.532 3.06C53.052 3.06 53.504 3.184 53.888 3.432C54.28 3.672 54.58 4.02 54.788 4.476C55.004 4.924 55.112 5.46 55.112 6.084C55.112 6.7 55.004 7.236 54.788 7.692C54.58 8.14 54.284 8.488 53.9 8.736C53.516 8.984 53.06 9.108 52.532 9.108C52.004 9.108 51.552 8.976 51.176 8.712C50.8 8.44 50.544 8.08 50.408 7.632H50.552V11.16H49.58ZM52.328 8.328C52.88 8.328 53.316 8.136 53.636 7.752C53.964 7.36 54.128 6.804 54.128 6.084C54.128 5.356 53.964 4.8 53.636 4.416C53.316 4.032 52.88 3.84 52.328 3.84C51.784 3.84 51.348 4.032 51.02 4.416C50.692 4.8 50.528 5.356 50.528 6.084C50.528 6.804 50.692 7.36 51.02 7.752C51.348 8.136 51.784 8.328 52.328 8.328ZM56.5761 11.16V3.168H57.5241V4.548H57.4041C57.5321 4.092 57.7841 3.732 58.1601 3.468C58.5441 3.196 59.0001 3.06 59.5281 3.06C60.0481 3.06 60.5001 3.184 60.8841 3.432C61.2761 3.672 61.5761 4.02 61.7841 4.476C62.0001 4.924 62.1081 5.46 62.1081 6.084C62.1081 6.7 62.0001 7.236 61.7841 7.692C61.5761 8.14 61.2801 8.488 60.8961 8.736C60.5121 8.984 60.0561 9.108 59.5281 9.108C59.0001 9.108 58.5481 8.976 58.1721 8.712C57.7961 8.44 57.5401 8.08 57.4041 7.632H57.5481V11.16H56.5761ZM59.3241 8.328C59.8761 8.328 60.3121 8.136 60.6321 7.752C60.9601 7.36 61.1241 6.804 61.1241 6.084C61.1241 5.356 60.9601 4.8 60.6321 4.416C60.3121 4.032 59.8761 3.84 59.3241 3.84C58.7801 3.84 58.3441 4.032 58.0161 4.416C57.6881 4.8 57.5241 5.356 57.5241 6.084C57.5241 6.804 57.6881 7.36 58.0161 7.752C58.3441 8.136 58.7801 8.328 59.3241 8.328ZM66.2002 9.108C65.5842 9.108 65.0522 8.988 64.6042 8.748C64.1642 8.5 63.8202 8.152 63.5722 7.704C63.3322 7.256 63.2122 6.72 63.2122 6.096C63.2122 5.488 63.3322 4.96 63.5722 4.512C63.8122 4.056 64.1402 3.7 64.5562 3.444C64.9802 3.188 65.4682 3.06 66.0202 3.06C66.5482 3.06 67.0002 3.176 67.3762 3.408C67.7522 3.64 68.0402 3.968 68.2402 4.392C68.4482 4.816 68.5522 5.324 68.5522 5.916V6.288H63.9562V5.652H67.9042L67.7122 5.808C67.7122 5.168 67.5682 4.672 67.2802 4.32C67.0002 3.96 66.5882 3.78 66.0442 3.78C65.6362 3.78 65.2882 3.876 65.0002 4.068C64.7202 4.252 64.5082 4.512 64.3642 4.848C64.2202 5.176 64.1482 5.56 64.1482 6V6.072C64.1482 6.56 64.2242 6.972 64.3762 7.308C64.5362 7.644 64.7722 7.9 65.0842 8.076C65.3962 8.244 65.7682 8.328 66.2002 8.328C66.5442 8.328 66.8762 8.276 67.1962 8.172C67.5242 8.06 67.8322 7.88 68.1202 7.632L68.4562 8.316C68.1922 8.556 67.8562 8.748 67.4482 8.892C67.0402 9.036 66.6242 9.108 66.2002 9.108ZM69.9589 9V3.168H70.9069V4.548H70.7869C70.9229 4.076 71.1589 3.72 71.4949 3.48C71.8309 3.232 72.2749 3.088 72.8269 3.048L73.1749 3.012L73.2469 3.852L72.6349 3.924C72.0909 3.972 71.6709 4.148 71.3749 4.452C71.0869 4.748 70.9429 5.156 70.9429 5.676V9H69.9589ZM81.3377 9.108C80.4337 9.108 79.6697 8.936 79.0457 8.592C78.4297 8.248 77.9617 7.752 77.6417 7.104C77.3217 6.456 77.1617 5.68 77.1617 4.776C77.1617 3.88 77.3217 3.108 77.6417 2.46C77.9617 1.812 78.4217 1.312 79.0217 0.96C79.6217 0.608 80.3457 0.431999 81.1937 0.431999C81.5937 0.431999 81.9697 0.471999 82.3217 0.551999C82.6817 0.632 83.0137 0.752 83.3177 0.912C83.6297 1.064 83.9017 1.256 84.1337 1.488L83.7497 2.28C83.3657 1.944 82.9697 1.7 82.5617 1.548C82.1537 1.396 81.6937 1.32 81.1817 1.32C80.2137 1.32 79.4737 1.62 78.9617 2.22C78.4577 2.82 78.2057 3.672 78.2057 4.776C78.2057 5.896 78.4657 6.752 78.9857 7.344C79.5137 7.936 80.3057 8.232 81.3617 8.232C81.7457 8.232 82.1217 8.196 82.4897 8.124C82.8577 8.044 83.2057 7.936 83.5337 7.8L83.3177 8.364V5.376H81.1697V4.596H84.1697V8.508C83.9537 8.62 83.6857 8.724 83.3657 8.82C83.0457 8.908 82.7097 8.976 82.3577 9.024C82.0057 9.08 81.6657 9.108 81.3377 9.108ZM87.8367 9.108C87.2447 9.108 86.7967 8.932 86.4927 8.58C86.1967 8.228 86.0487 7.724 86.0487 7.068V0.539999H87.0207V6.996C87.0207 7.276 87.0567 7.512 87.1287 7.704C87.2087 7.896 87.3247 8.04 87.4767 8.136C87.6287 8.232 87.8167 8.28 88.0407 8.28C88.1367 8.28 88.2287 8.276 88.3167 8.268C88.4127 8.252 88.5007 8.232 88.5807 8.208L88.5567 9.024C88.4287 9.048 88.3047 9.068 88.1847 9.084C88.0727 9.1 87.9567 9.108 87.8367 9.108ZM91.4355 9.108C91.0355 9.108 90.6755 9.032 90.3555 8.88C90.0435 8.72 89.7955 8.504 89.6115 8.232C89.4275 7.96 89.3355 7.656 89.3355 7.32C89.3355 6.888 89.4435 6.548 89.6595 6.3C89.8835 6.052 90.2475 5.876 90.7515 5.772C91.2635 5.668 91.9595 5.616 92.8395 5.616H93.3795V6.252H92.8515C92.3635 6.252 91.9555 6.268 91.6275 6.3C91.2995 6.332 91.0395 6.388 90.8475 6.468C90.6555 6.548 90.5195 6.652 90.4395 6.78C90.3595 6.908 90.3195 7.068 90.3195 7.26C90.3195 7.588 90.4315 7.856 90.6555 8.064C90.8875 8.272 91.1995 8.376 91.5915 8.376C91.9115 8.376 92.1915 8.3 92.4315 8.148C92.6795 7.996 92.8715 7.788 93.0075 7.524C93.1515 7.26 93.2235 6.956 93.2235 6.612V5.244C93.2235 4.748 93.1235 4.392 92.9235 4.176C92.7235 3.952 92.3955 3.84 91.9395 3.84C91.5875 3.84 91.2475 3.892 90.9195 3.996C90.5915 4.092 90.2555 4.252 89.9115 4.476L89.5755 3.768C89.7835 3.624 90.0195 3.5 90.2835 3.396C90.5475 3.284 90.8235 3.2 91.1115 3.144C91.3995 3.088 91.6755 3.06 91.9395 3.06C92.4435 3.06 92.8595 3.144 93.1875 3.312C93.5155 3.472 93.7595 3.72 93.9195 4.056C94.0795 4.384 94.1595 4.808 94.1595 5.328V9H93.2475V7.644H93.3555C93.2915 7.948 93.1675 8.208 92.9835 8.424C92.8075 8.64 92.5875 8.808 92.3235 8.928C92.0595 9.048 91.7635 9.108 91.4355 9.108ZM97.9308 9.108C97.6268 9.108 97.3308 9.076 97.0428 9.012C96.7628 8.956 96.4988 8.876 96.2508 8.772C96.0108 8.66 95.8028 8.528 95.6268 8.376L95.9388 7.692C96.1308 7.844 96.3388 7.972 96.5628 8.076C96.7868 8.172 97.0148 8.244 97.2468 8.292C97.4788 8.34 97.7148 8.364 97.9548 8.364C98.4108 8.364 98.7548 8.28 98.9868 8.112C99.2188 7.944 99.3348 7.716 99.3348 7.428C99.3348 7.204 99.2588 7.028 99.1068 6.9C98.9548 6.764 98.7148 6.66 98.3868 6.588L97.2948 6.348C96.7908 6.244 96.4148 6.064 96.1668 5.808C95.9268 5.552 95.8068 5.22 95.8068 4.812C95.8068 4.452 95.8988 4.144 96.0828 3.888C96.2748 3.624 96.5428 3.42 96.8868 3.276C97.2308 3.132 97.6308 3.06 98.0868 3.06C98.3588 3.06 98.6188 3.088 98.8668 3.144C99.1148 3.2 99.3468 3.284 99.5628 3.396C99.7868 3.5 99.9788 3.632 100.139 3.792L99.8148 4.476C99.6628 4.332 99.4908 4.212 99.2988 4.116C99.1068 4.012 98.9068 3.936 98.6988 3.888C98.4988 3.832 98.2948 3.804 98.0868 3.804C97.6388 3.804 97.2988 3.892 97.0668 4.068C96.8348 4.244 96.7188 4.476 96.7188 4.764C96.7188 4.988 96.7908 5.172 96.9348 5.316C97.0788 5.46 97.3028 5.564 97.6068 5.628L98.6988 5.856C99.2188 5.968 99.6068 6.148 99.8628 6.396C100.127 6.636 100.259 6.964 100.259 7.38C100.259 7.732 100.163 8.04 99.9708 8.304C99.7788 8.56 99.5068 8.76 99.1548 8.904C98.8108 9.04 98.4028 9.108 97.9308 9.108ZM103.708 9.108C103.404 9.108 103.108 9.076 102.82 9.012C102.54 8.956 102.276 8.876 102.028 8.772C101.788 8.66 101.58 8.528 101.404 8.376L101.716 7.692C101.908 7.844 102.116 7.972 102.34 8.076C102.564 8.172 102.792 8.244 103.024 8.292C103.256 8.34 103.492 8.364 103.732 8.364C104.188 8.364 104.532 8.28 104.764 8.112C104.996 7.944 105.112 7.716 105.112 7.428C105.112 7.204 105.036 7.028 104.884 6.9C104.732 6.764 104.492 6.66 104.164 6.588L103.072 6.348C102.568 6.244 102.192 6.064 101.944 5.808C101.704 5.552 101.584 5.22 101.584 4.812C101.584 4.452 101.676 4.144 101.86 3.888C102.052 3.624 102.32 3.42 102.664 3.276C103.008 3.132 103.408 3.06 103.864 3.06C104.136 3.06 104.396 3.088 104.644 3.144C104.892 3.2 105.124 3.284 105.34 3.396C105.564 3.5 105.756 3.632 105.916 3.792L105.592 4.476C105.44 4.332 105.268 4.212 105.076 4.116C104.884 4.012 104.684 3.936 104.476 3.888C104.276 3.832 104.072 3.804 103.864 3.804C103.416 3.804 103.076 3.892 102.844 4.068C102.612 4.244 102.496 4.476 102.496 4.764C102.496 4.988 102.568 5.172 102.712 5.316C102.856 5.46 103.08 5.564 103.384 5.628L104.476 5.856C104.996 5.968 105.384 6.148 105.64 6.396C105.904 6.636 106.036 6.964 106.036 7.38C106.036 7.732 105.94 8.04 105.748 8.304C105.556 8.56 105.284 8.76 104.932 8.904C104.588 9.04 104.18 9.108 103.708 9.108ZM107.807 10.368L107.351 10.02C107.495 9.868 107.603 9.724 107.675 9.588C107.755 9.46 107.807 9.328 107.831 9.192C107.863 9.064 107.879 8.932 107.879 8.796L108.095 9H107.303V7.776H108.527V8.64C108.527 8.856 108.503 9.06 108.455 9.252C108.415 9.452 108.343 9.644 108.239 9.828C108.135 10.012 107.991 10.192 107.807 10.368ZM113.403 9V0.539999H118.635V1.368H114.387V4.32H118.395V5.148H114.387V9H113.403ZM119.726 1.716V0.624H120.926V1.716H119.726ZM119.846 9V3.168H120.818V9H119.846ZM122.635 9V3.168H123.583V4.548H123.463C123.599 4.076 123.835 3.72 124.171 3.48C124.507 3.232 124.951 3.088 125.503 3.048L125.851 3.012L125.923 3.852L125.311 3.924C124.767 3.972 124.347 4.148 124.051 4.452C123.763 4.748 123.619 5.156 123.619 5.676V9H122.635ZM128.845 9.108C128.541 9.108 128.245 9.076 127.957 9.012C127.677 8.956 127.413 8.876 127.165 8.772C126.925 8.66 126.717 8.528 126.541 8.376L126.853 7.692C127.045 7.844 127.253 7.972 127.477 8.076C127.701 8.172 127.929 8.244 128.161 8.292C128.393 8.34 128.629 8.364 128.869 8.364C129.325 8.364 129.669 8.28 129.901 8.112C130.133 7.944 130.249 7.716 130.249 7.428C130.249 7.204 130.173 7.028 130.021 6.9C129.869 6.764 129.629 6.66 129.301 6.588L128.209 6.348C127.705 6.244 127.329 6.064 127.081 5.808C126.841 5.552 126.721 5.22 126.721 4.812C126.721 4.452 126.813 4.144 126.997 3.888C127.189 3.624 127.457 3.42 127.801 3.276C128.145 3.132 128.545 3.06 129.001 3.06C129.273 3.06 129.533 3.088 129.781 3.144C130.029 3.2 130.261 3.284 130.477 3.396C130.701 3.5 130.893 3.632 131.053 3.792L130.729 4.476C130.577 4.332 130.405 4.212 130.213 4.116C130.021 4.012 129.821 3.936 129.613 3.888C129.413 3.832 129.209 3.804 129.001 3.804C128.553 3.804 128.213 3.892 127.981 4.068C127.749 4.244 127.633 4.476 127.633 4.764C127.633 4.988 127.705 5.172 127.849 5.316C127.993 5.46 128.217 5.564 128.521 5.628L129.613 5.856C130.133 5.968 130.521 6.148 130.777 6.396C131.041 6.636 131.173 6.964 131.173 7.38C131.173 7.732 131.077 8.04 130.885 8.304C130.693 8.56 130.421 8.76 130.069 8.904C129.725 9.04 129.317 9.108 128.845 9.108ZM134.936 9.108C134.248 9.108 133.732 8.924 133.388 8.556C133.044 8.188 132.872 7.664 132.872 6.984V3.924H131.732V3.168H132.872V1.38H133.844V3.168H135.692V3.924H133.844V6.888C133.844 7.344 133.94 7.692 134.132 7.932C134.324 8.164 134.636 8.28 135.068 8.28C135.196 8.28 135.324 8.264 135.452 8.232C135.58 8.2 135.696 8.168 135.8 8.136L135.968 8.88C135.864 8.936 135.712 8.988 135.512 9.036C135.312 9.084 135.12 9.108 134.936 9.108ZM142.081 9V1.392H139.009V0.539999H146.149V1.392H143.077V9H142.081ZM146.972 1.716V0.624H148.172V1.716H146.972ZM147.092 9V3.168H148.064V9H147.092ZM149.905 9V3.168H150.853V4.464H150.721C150.817 4.168 150.957 3.916 151.141 3.708C151.333 3.492 151.557 3.332 151.813 3.228C152.077 3.116 152.365 3.06 152.677 3.06C153.173 3.06 153.573 3.18 153.877 3.42C154.189 3.652 154.397 4.016 154.501 4.512H154.321C154.465 4.064 154.721 3.712 155.089 3.456C155.465 3.192 155.901 3.06 156.397 3.06C156.837 3.06 157.197 3.144 157.477 3.312C157.765 3.48 157.981 3.736 158.125 4.08C158.269 4.416 158.341 4.844 158.341 5.364V9H157.369V5.412C157.369 4.876 157.277 4.484 157.093 4.236C156.909 3.98 156.597 3.852 156.157 3.852C155.845 3.852 155.569 3.928 155.329 4.08C155.097 4.232 154.917 4.448 154.789 4.728C154.669 5 154.609 5.324 154.609 5.7V9H153.637V5.412C153.637 4.876 153.541 4.484 153.349 4.236C153.165 3.98 152.857 3.852 152.425 3.852C152.105 3.852 151.829 3.928 151.597 4.08C151.365 4.232 151.185 4.448 151.057 4.728C150.937 5 150.877 5.324 150.877 5.7V9H149.905ZM162.786 9.108C162.17 9.108 161.638 8.988 161.19 8.748C160.75 8.5 160.406 8.152 160.158 7.704C159.918 7.256 159.798 6.72 159.798 6.096C159.798 5.488 159.918 4.96 160.158 4.512C160.398 4.056 160.726 3.7 161.142 3.444C161.566 3.188 162.054 3.06 162.606 3.06C163.134 3.06 163.586 3.176 163.962 3.408C164.338 3.64 164.626 3.968 164.826 4.392C165.034 4.816 165.138 5.324 165.138 5.916V6.288H160.542V5.652H164.49L164.298 5.808C164.298 5.168 164.154 4.672 163.866 4.32C163.586 3.96 163.174 3.78 162.63 3.78C162.222 3.78 161.874 3.876 161.586 4.068C161.306 4.252 161.094 4.512 160.95 4.848C160.806 5.176 160.734 5.56 160.734 6V6.072C160.734 6.56 160.81 6.972 160.962 7.308C161.122 7.644 161.358 7.9 161.67 8.076C161.982 8.244 162.354 8.328 162.786 8.328C163.13 8.328 163.462 8.276 163.782 8.172C164.11 8.06 164.418 7.88 164.706 7.632L165.042 8.316C164.778 8.556 164.442 8.748 164.034 8.892C163.626 9.036 163.21 9.108 162.786 9.108ZM169.759 9V0.539999H170.743V9H169.759ZM172.697 9V3.168H173.645V4.464H173.513C173.681 4 173.953 3.652 174.329 3.42C174.713 3.18 175.153 3.06 175.649 3.06C176.113 3.06 176.497 3.144 176.801 3.312C177.113 3.472 177.345 3.724 177.497 4.068C177.649 4.412 177.725 4.844 177.725 5.364V9H176.753V5.424C176.753 5.064 176.705 4.768 176.609 4.536C176.521 4.304 176.377 4.132 176.177 4.02C175.985 3.908 175.733 3.852 175.421 3.852C175.069 3.852 174.761 3.928 174.497 4.08C174.233 4.232 174.029 4.444 173.885 4.716C173.741 4.988 173.669 5.308 173.669 5.676V9H172.697ZM182.732 9V0.539999H183.716V9H182.732ZM185.67 9V3.168H186.618V4.464H186.486C186.654 4 186.926 3.652 187.302 3.42C187.686 3.18 188.126 3.06 188.622 3.06C189.086 3.06 189.47 3.144 189.774 3.312C190.086 3.472 190.318 3.724 190.47 4.068C190.622 4.412 190.698 4.844 190.698 5.364V9H189.726V5.424C189.726 5.064 189.678 4.768 189.582 4.536C189.494 4.304 189.35 4.132 189.15 4.02C188.958 3.908 188.706 3.852 188.394 3.852C188.042 3.852 187.734 3.928 187.47 4.08C187.206 4.232 187.002 4.444 186.858 4.716C186.714 4.988 186.642 5.308 186.642 5.676V9H185.67ZM194.71 9.108C194.19 9.108 193.734 8.984 193.342 8.736C192.958 8.488 192.658 8.14 192.442 7.692C192.234 7.236 192.13 6.7 192.13 6.084C192.13 5.46 192.234 4.924 192.442 4.476C192.658 4.02 192.958 3.672 193.342 3.432C193.734 3.184 194.19 3.06 194.71 3.06C195.238 3.06 195.69 3.192 196.066 3.456C196.442 3.72 196.694 4.076 196.822 4.524H196.69V0.539999H197.662V9H196.714V7.608H196.834C196.706 8.064 196.45 8.428 196.066 8.7C195.69 8.972 195.238 9.108 194.71 9.108ZM194.914 8.328C195.466 8.328 195.902 8.136 196.222 7.752C196.55 7.36 196.714 6.804 196.714 6.084C196.714 5.356 196.55 4.8 196.222 4.416C195.902 4.032 195.466 3.84 194.914 3.84C194.37 3.84 193.934 4.032 193.606 4.416C193.278 4.8 193.114 5.356 193.114 6.084C193.114 6.804 193.278 7.36 193.606 7.752C193.934 8.136 194.37 8.328 194.914 8.328ZM199.366 1.716V0.624H200.566V1.716H199.366ZM199.486 9V3.168H200.458V9H199.486ZM204.111 9.108C203.711 9.108 203.351 9.032 203.031 8.88C202.719 8.72 202.471 8.504 202.287 8.232C202.103 7.96 202.011 7.656 202.011 7.32C202.011 6.888 202.119 6.548 202.335 6.3C202.559 6.052 202.923 5.876 203.427 5.772C203.939 5.668 204.635 5.616 205.515 5.616H206.055V6.252H205.527C205.039 6.252 204.631 6.268 204.303 6.3C203.975 6.332 203.715 6.388 203.523 6.468C203.331 6.548 203.195 6.652 203.115 6.78C203.035 6.908 202.995 7.068 202.995 7.26C202.995 7.588 203.107 7.856 203.331 8.064C203.563 8.272 203.875 8.376 204.267 8.376C204.587 8.376 204.867 8.3 205.107 8.148C205.355 7.996 205.547 7.788 205.683 7.524C205.827 7.26 205.899 6.956 205.899 6.612V5.244C205.899 4.748 205.799 4.392 205.599 4.176C205.399 3.952 205.071 3.84 204.615 3.84C204.263 3.84 203.923 3.892 203.595 3.996C203.267 4.092 202.931 4.252 202.587 4.476L202.251 3.768C202.459 3.624 202.695 3.5 202.959 3.396C203.223 3.284 203.499 3.2 203.787 3.144C204.075 3.088 204.351 3.06 204.615 3.06C205.119 3.06 205.535 3.144 205.863 3.312C206.191 3.472 206.435 3.72 206.595 4.056C206.755 4.384 206.835 4.808 206.835 5.328V9H205.923V7.644H206.031C205.967 7.948 205.843 8.208 205.659 8.424C205.483 8.64 205.263 8.808 204.999 8.928C204.735 9.048 204.439 9.108 204.111 9.108ZM214.133 9L211.169 0.539999H212.201L214.805 8.16H214.385L217.037 0.539999H217.829L220.445 8.16H220.073L222.689 0.539999H223.673L220.709 9H219.833L217.289 1.68H217.553L214.985 9H214.133ZM224.808 1.716V0.624H226.008V1.716H224.808ZM224.928 9V3.168H225.9V9H224.928ZM230.057 9.108C229.369 9.108 228.853 8.924 228.509 8.556C228.165 8.188 227.993 7.664 227.993 6.984V3.924H226.853V3.168H227.993V1.38H228.965V3.168H230.813V3.924H228.965V6.888C228.965 7.344 229.061 7.692 229.253 7.932C229.445 8.164 229.757 8.28 230.189 8.28C230.317 8.28 230.445 8.264 230.573 8.232C230.701 8.2 230.817 8.168 230.921 8.136L231.089 8.88C230.985 8.936 230.833 8.988 230.633 9.036C230.433 9.084 230.241 9.108 230.057 9.108ZM231.912 9V0.539999H232.884V4.464H232.728C232.896 4 233.168 3.652 233.544 3.42C233.928 3.18 234.368 3.06 234.864 3.06C235.328 3.06 235.712 3.144 236.016 3.312C236.328 3.48 236.56 3.736 236.712 4.08C236.864 4.416 236.94 4.844 236.94 5.364V9H235.968V5.424C235.968 5.064 235.92 4.768 235.824 4.536C235.736 4.304 235.592 4.132 235.392 4.02C235.2 3.908 234.948 3.852 234.636 3.852C234.284 3.852 233.976 3.928 233.712 4.08C233.448 4.232 233.244 4.444 233.1 4.716C232.956 4.988 232.884 5.308 232.884 5.676V9H231.912ZM241.946 9V0.539999H242.93V8.136H247.238V9H241.946ZM250.899 9.108C250.283 9.108 249.751 8.988 249.303 8.748C248.863 8.5 248.519 8.152 248.271 7.704C248.031 7.256 247.911 6.72 247.911 6.096C247.911 5.488 248.031 4.96 248.271 4.512C248.511 4.056 248.839 3.7 249.255 3.444C249.679 3.188 250.167 3.06 250.719 3.06C251.247 3.06 251.699 3.176 252.075 3.408C252.451 3.64 252.739 3.968 252.939 4.392C253.147 4.816 253.251 5.324 253.251 5.916V6.288H248.655V5.652H252.603L252.411 5.808C252.411 5.168 252.267 4.672 251.979 4.32C251.699 3.96 251.287 3.78 250.743 3.78C250.335 3.78 249.987 3.876 249.699 4.068C249.419 4.252 249.207 4.512 249.063 4.848C248.919 5.176 248.847 5.56 248.847 6V6.072C248.847 6.56 248.923 6.972 249.075 7.308C249.235 7.644 249.471 7.9 249.783 8.076C250.095 8.244 250.467 8.328 250.899 8.328C251.243 8.328 251.575 8.276 251.895 8.172C252.223 8.06 252.531 7.88 252.819 7.632L253.155 8.316C252.891 8.556 252.555 8.748 252.147 8.892C251.739 9.036 251.323 9.108 250.899 9.108ZM256.494 9.108C256.094 9.108 255.734 9.032 255.414 8.88C255.102 8.72 254.854 8.504 254.67 8.232C254.486 7.96 254.394 7.656 254.394 7.32C254.394 6.888 254.502 6.548 254.718 6.3C254.942 6.052 255.306 5.876 255.81 5.772C256.322 5.668 257.018 5.616 257.898 5.616H258.438V6.252H257.91C257.422 6.252 257.014 6.268 256.686 6.3C256.358 6.332 256.098 6.388 255.906 6.468C255.714 6.548 255.578 6.652 255.498 6.78C255.418 6.908 255.378 7.068 255.378 7.26C255.378 7.588 255.49 7.856 255.714 8.064C255.946 8.272 256.258 8.376 256.65 8.376C256.97 8.376 257.25 8.3 257.49 8.148C257.738 7.996 257.93 7.788 258.066 7.524C258.21 7.26 258.282 6.956 258.282 6.612V5.244C258.282 4.748 258.182 4.392 257.982 4.176C257.782 3.952 257.454 3.84 256.998 3.84C256.646 3.84 256.306 3.892 255.978 3.996C255.65 4.092 255.314 4.252 254.97 4.476L254.634 3.768C254.842 3.624 255.078 3.5 255.342 3.396C255.606 3.284 255.882 3.2 256.17 3.144C256.458 3.088 256.734 3.06 256.998 3.06C257.502 3.06 257.918 3.144 258.246 3.312C258.574 3.472 258.818 3.72 258.978 4.056C259.138 4.384 259.218 4.808 259.218 5.328V9H258.306V7.644H258.414C258.35 7.948 258.226 8.208 258.042 8.424C257.866 8.64 257.646 8.808 257.382 8.928C257.118 9.048 256.822 9.108 256.494 9.108ZM261.021 9V0.539999H261.993V5.76H262.017L264.717 3.168H265.953L262.749 6.24V5.712L266.205 9H264.969L262.017 6.264H261.993V9H261.021ZM266.622 6.204V5.4H269.982V6.204H266.622ZM271.888 9V0.539999H275.236C275.844 0.539999 276.356 0.64 276.772 0.84C277.196 1.032 277.516 1.32 277.732 1.704C277.948 2.08 278.056 2.54 278.056 3.084C278.056 3.612 277.948 4.068 277.732 4.452C277.516 4.836 277.196 5.128 276.772 5.328C276.356 5.528 275.844 5.628 275.236 5.628H272.872V9H271.888ZM272.872 4.8H275.116C275.764 4.8 276.252 4.656 276.58 4.368C276.916 4.072 277.084 3.644 277.084 3.084C277.084 2.516 276.916 2.088 276.58 1.8C276.252 1.504 275.764 1.356 275.116 1.356H272.872V4.8ZM279.232 9V3.168H280.18V4.548H280.06C280.196 4.076 280.432 3.72 280.768 3.48C281.104 3.232 281.548 3.088 282.1 3.048L282.448 3.012L282.52 3.852L281.908 3.924C281.364 3.972 280.944 4.148 280.648 4.452C280.36 4.748 280.216 5.156 280.216 5.676V9H279.232ZM285.887 9.108C285.319 9.108 284.827 8.984 284.411 8.736C283.995 8.488 283.671 8.14 283.439 7.692C283.215 7.236 283.103 6.7 283.103 6.084C283.103 5.468 283.215 4.936 283.439 4.488C283.671 4.032 283.995 3.68 284.411 3.432C284.827 3.184 285.319 3.06 285.887 3.06C286.455 3.06 286.947 3.184 287.363 3.432C287.779 3.68 288.099 4.032 288.323 4.488C288.555 4.936 288.671 5.468 288.671 6.084C288.671 6.7 288.555 7.236 288.323 7.692C288.099 8.14 287.779 8.488 287.363 8.736C286.947 8.984 286.455 9.108 285.887 9.108ZM285.887 8.328C286.439 8.328 286.875 8.136 287.195 7.752C287.523 7.36 287.687 6.8 287.687 6.072C287.687 5.352 287.523 4.8 287.195 4.416C286.875 4.032 286.439 3.84 285.887 3.84C285.343 3.84 284.907 4.032 284.579 4.416C284.251 4.8 284.087 5.352 284.087 6.072C284.087 6.8 284.251 7.36 284.579 7.752C284.907 8.136 285.343 8.328 285.887 8.328ZM292.555 9.108C291.987 9.108 291.495 8.984 291.079 8.736C290.663 8.488 290.339 8.14 290.107 7.692C289.883 7.236 289.771 6.7 289.771 6.084C289.771 5.468 289.883 4.936 290.107 4.488C290.339 4.032 290.663 3.68 291.079 3.432C291.495 3.184 291.987 3.06 292.555 3.06C293.123 3.06 293.615 3.184 294.031 3.432C294.447 3.68 294.767 4.032 294.991 4.488C295.223 4.936 295.339 5.468 295.339 6.084C295.339 6.7 295.223 7.236 294.991 7.692C294.767 8.14 294.447 8.488 294.031 8.736C293.615 8.984 293.123 9.108 292.555 9.108ZM292.555 8.328C293.107 8.328 293.543 8.136 293.863 7.752C294.191 7.36 294.355 6.8 294.355 6.072C294.355 5.352 294.191 4.8 293.863 4.416C293.543 4.032 293.107 3.84 292.555 3.84C292.011 3.84 291.575 4.032 291.247 4.416C290.919 4.8 290.755 5.352 290.755 6.072C290.755 6.8 290.919 7.36 291.247 7.752C291.575 8.136 292.011 8.328 292.555 8.328ZM297.052 9V3.924H295.9V3.168H297.316L297.052 3.42V2.964C297.052 2.188 297.244 1.6 297.628 1.2C298.02 0.799999 298.62 0.575999 299.428 0.528L299.896 0.504L299.98 1.248L299.428 1.284C299.1 1.308 298.832 1.38 298.624 1.5C298.416 1.62 298.264 1.792 298.168 2.016C298.072 2.24 298.024 2.516 298.024 2.844V3.348L297.88 3.168H299.704V3.924H298.024V9H297.052ZM3.78 25.108C3.34 25.108 2.924 25.068 2.532 24.988C2.148 24.908 1.792 24.796 1.464 24.652C1.144 24.5 0.852 24.316 0.588 24.1L0.936 23.308C1.208 23.508 1.484 23.68 1.764 23.824C2.052 23.96 2.36 24.064 2.688 24.136C3.024 24.2 3.388 24.232 3.78 24.232C4.5 24.232 5.032 24.1 5.376 23.836C5.728 23.564 5.904 23.208 5.904 22.768C5.904 22.536 5.848 22.336 5.736 22.168C5.632 22 5.456 21.856 5.208 21.736C4.968 21.616 4.652 21.516 4.26 21.436L3.012 21.184C2.26 21.024 1.696 20.764 1.32 20.404C0.952 20.036 0.768 19.548 0.768 18.94C0.768 18.436 0.896 17.996 1.152 17.62C1.416 17.244 1.78 16.952 2.244 16.744C2.716 16.536 3.252 16.432 3.852 16.432C4.236 16.432 4.6 16.472 4.944 16.552C5.288 16.632 5.604 16.752 5.892 16.912C6.188 17.064 6.448 17.252 6.672 17.476L6.324 18.244C5.964 17.916 5.584 17.68 5.184 17.536C4.784 17.384 4.336 17.308 3.84 17.308C3.416 17.308 3.048 17.372 2.736 17.5C2.432 17.628 2.192 17.816 2.016 18.064C1.848 18.304 1.764 18.584 1.764 18.904C1.764 19.288 1.88 19.592 2.112 19.816C2.352 20.04 2.74 20.204 3.276 20.308L4.524 20.572C5.332 20.74 5.928 20.996 6.312 21.34C6.704 21.676 6.9 22.136 6.9 22.72C6.9 23.184 6.772 23.6 6.516 23.968C6.268 24.328 5.908 24.608 5.436 24.808C4.972 25.008 4.42 25.108 3.78 25.108ZM10.9228 25.108C10.3068 25.108 9.77481 24.988 9.32681 24.748C8.88681 24.5 8.54281 24.152 8.29481 23.704C8.05481 23.256 7.93481 22.72 7.93481 22.096C7.93481 21.488 8.05481 20.96 8.29481 20.512C8.53481 20.056 8.86281 19.7 9.27881 19.444C9.70281 19.188 10.1908 19.06 10.7428 19.06C11.2708 19.06 11.7228 19.176 12.0988 19.408C12.4748 19.64 12.7628 19.968 12.9628 20.392C13.1708 20.816 13.2748 21.324 13.2748 21.916V22.288H8.67881V21.652H12.6268L12.4348 21.808C12.4348 21.168 12.2908 20.672 12.0028 20.32C11.7228 19.96 11.3108 19.78 10.7668 19.78C10.3588 19.78 10.0108 19.876 9.72281 20.068C9.44281 20.252 9.23081 20.512 9.08681 20.848C8.94281 21.176 8.87081 21.56 8.87081 22V22.072C8.87081 22.56 8.94681 22.972 9.09881 23.308C9.25881 23.644 9.49481 23.9 9.80681 24.076C10.1188 24.244 10.4908 24.328 10.9228 24.328C11.2668 24.328 11.5988 24.276 11.9188 24.172C12.2468 24.06 12.5548 23.88 12.8428 23.632L13.1788 24.316C12.9148 24.556 12.5788 24.748 12.1708 24.892C11.7628 25.036 11.3468 25.108 10.9228 25.108ZM16.5175 25.108C16.1175 25.108 15.7575 25.032 15.4375 24.88C15.1255 24.72 14.8775 24.504 14.6935 24.232C14.5095 23.96 14.4175 23.656 14.4175 23.32C14.4175 22.888 14.5255 22.548 14.7415 22.3C14.9655 22.052 15.3295 21.876 15.8335 21.772C16.3455 21.668 17.0415 21.616 17.9215 21.616H18.4615V22.252H17.9335C17.4455 22.252 17.0375 22.268 16.7095 22.3C16.3815 22.332 16.1215 22.388 15.9295 22.468C15.7375 22.548 15.6015 22.652 15.5215 22.78C15.4415 22.908 15.4015 23.068 15.4015 23.26C15.4015 23.588 15.5135 23.856 15.7375 24.064C15.9695 24.272 16.2815 24.376 16.6735 24.376C16.9935 24.376 17.2735 24.3 17.5135 24.148C17.7615 23.996 17.9535 23.788 18.0895 23.524C18.2335 23.26 18.3055 22.956 18.3055 22.612V21.244C18.3055 20.748 18.2055 20.392 18.0055 20.176C17.8055 19.952 17.4775 19.84 17.0215 19.84C16.6695 19.84 16.3295 19.892 16.0015 19.996C15.6735 20.092 15.3375 20.252 14.9935 20.476L14.6575 19.768C14.8655 19.624 15.1015 19.5 15.3655 19.396C15.6295 19.284 15.9055 19.2 16.1935 19.144C16.4815 19.088 16.7575 19.06 17.0215 19.06C17.5255 19.06 17.9415 19.144 18.2695 19.312C18.5975 19.472 18.8415 19.72 19.0015 20.056C19.1615 20.384 19.2415 20.808 19.2415 21.328V25H18.3295V23.644H18.4375C18.3735 23.948 18.2495 24.208 18.0655 24.424C17.8895 24.64 17.6695 24.808 17.4055 24.928C17.1415 25.048 16.8455 25.108 16.5175 25.108ZM22.8328 25.108C22.2408 25.108 21.7928 24.932 21.4888 24.58C21.1928 24.228 21.0448 23.724 21.0448 23.068V16.54H22.0168V22.996C22.0168 23.276 22.0528 23.512 22.1248 23.704C22.2048 23.896 22.3208 24.04 22.4728 24.136C22.6248 24.232 22.8128 24.28 23.0368 24.28C23.1328 24.28 23.2248 24.276 23.3128 24.268C23.4088 24.252 23.4968 24.232 23.5768 24.208L23.5528 25.024C23.4248 25.048 23.3008 25.068 23.1808 25.084C23.0688 25.1 22.9528 25.108 22.8328 25.108ZM24.4756 17.716V16.624H25.6756V17.716H24.4756ZM24.5956 25V19.168H25.5676V25H24.5956ZM27.3847 25V19.168H28.3327V20.464H28.2007C28.3687 20 28.6407 19.652 29.0167 19.42C29.4007 19.18 29.8407 19.06 30.3367 19.06C30.8007 19.06 31.1847 19.144 31.4887 19.312C31.8007 19.472 32.0327 19.724 32.1847 20.068C32.3367 20.412 32.4127 20.844 32.4127 21.364V25H31.4407V21.424C31.4407 21.064 31.3927 20.768 31.2967 20.536C31.2087 20.304 31.0647 20.132 30.8647 20.02C30.6727 19.908 30.4207 19.852 30.1087 19.852C29.7567 19.852 29.4487 19.928 29.1847 20.08C28.9207 20.232 28.7167 20.444 28.5727 20.716C28.4287 20.988 28.3567 21.308 28.3567 21.676V25H27.3847ZM36.785 27.268C36.281 27.268 35.805 27.2 35.357 27.064C34.917 26.936 34.525 26.74 34.181 26.476L34.505 25.768C34.745 25.936 34.981 26.072 35.213 26.176C35.453 26.288 35.697 26.368 35.945 26.416C36.201 26.464 36.465 26.488 36.737 26.488C37.305 26.488 37.733 26.336 38.021 26.032C38.317 25.728 38.465 25.288 38.465 24.712V23.356H38.585C38.465 23.82 38.209 24.188 37.817 24.46C37.433 24.732 36.981 24.868 36.461 24.868C35.925 24.868 35.461 24.748 35.069 24.508C34.677 24.26 34.373 23.916 34.157 23.476C33.949 23.036 33.845 22.528 33.845 21.952C33.845 21.376 33.949 20.872 34.157 20.44C34.373 20 34.677 19.66 35.069 19.42C35.461 19.18 35.925 19.06 36.461 19.06C36.989 19.06 37.445 19.196 37.829 19.468C38.213 19.732 38.461 20.092 38.573 20.548H38.465V19.168H39.413V24.58C39.413 25.172 39.313 25.668 39.113 26.068C38.921 26.468 38.629 26.768 38.237 26.968C37.845 27.168 37.361 27.268 36.785 27.268ZM36.641 24.076C37.201 24.076 37.645 23.884 37.973 23.5C38.301 23.116 38.465 22.6 38.465 21.952C38.465 21.304 38.301 20.792 37.973 20.416C37.645 20.032 37.201 19.84 36.641 19.84C36.089 19.84 35.649 20.032 35.321 20.416C34.993 20.792 34.829 21.304 34.829 21.952C34.829 22.6 34.993 23.116 35.321 23.5C35.649 23.884 36.089 24.076 36.641 24.076ZM41.5842 26.368L41.1282 26.02C41.2722 25.868 41.3802 25.724 41.4522 25.588C41.5322 25.46 41.5842 25.328 41.6082 25.192C41.6402 25.064 41.6562 24.932 41.6562 24.796L41.8722 25H41.0802V23.776H42.3042V24.64C42.3042 24.856 42.2802 25.06 42.2322 25.252C42.1922 25.452 42.1202 25.644 42.0162 25.828C41.9122 26.012 41.7682 26.192 41.5842 26.368ZM47.1807 25V16.54H50.5287C51.1367 16.54 51.6487 16.64 52.0647 16.84C52.4887 17.032 52.8087 17.32 53.0247 17.704C53.2407 18.08 53.3487 18.54 53.3487 19.084C53.3487 19.612 53.2407 20.068 53.0247 20.452C52.8087 20.836 52.4887 21.128 52.0647 21.328C51.6487 21.528 51.1367 21.628 50.5287 21.628H48.1647V25H47.1807ZM48.1647 20.8H50.4087C51.0567 20.8 51.5447 20.656 51.8727 20.368C52.2087 20.072 52.3767 19.644 52.3767 19.084C52.3767 18.516 52.2087 18.088 51.8727 17.8C51.5447 17.504 51.0567 17.356 50.4087 17.356H48.1647V20.8ZM57.0127 25.108C56.3967 25.108 55.8647 24.988 55.4167 24.748C54.9767 24.5 54.6327 24.152 54.3847 23.704C54.1447 23.256 54.0247 22.72 54.0247 22.096C54.0247 21.488 54.1447 20.96 54.3847 20.512C54.6247 20.056 54.9527 19.7 55.3687 19.444C55.7927 19.188 56.2807 19.06 56.8327 19.06C57.3607 19.06 57.8127 19.176 58.1887 19.408C58.5647 19.64 58.8527 19.968 59.0527 20.392C59.2607 20.816 59.3647 21.324 59.3647 21.916V22.288H54.7687V21.652H58.7167L58.5247 21.808C58.5247 21.168 58.3807 20.672 58.0927 20.32C57.8127 19.96 57.4007 19.78 56.8567 19.78C56.4487 19.78 56.1007 19.876 55.8127 20.068C55.5327 20.252 55.3207 20.512 55.1767 20.848C55.0327 21.176 54.9607 21.56 54.9607 22V22.072C54.9607 22.56 55.0367 22.972 55.1887 23.308C55.3487 23.644 55.5847 23.9 55.8967 24.076C56.2087 24.244 56.5807 24.328 57.0127 24.328C57.3567 24.328 57.6887 24.276 58.0087 24.172C58.3367 24.06 58.6447 23.88 58.9327 23.632L59.2687 24.316C59.0047 24.556 58.6687 24.748 58.2607 24.892C57.8527 25.036 57.4367 25.108 57.0127 25.108ZM60.7714 25V19.168H61.7194V20.548H61.5994C61.7354 20.076 61.9714 19.72 62.3074 19.48C62.6434 19.232 63.0874 19.088 63.6394 19.048L63.9874 19.012L64.0594 19.852L63.4474 19.924C62.9034 19.972 62.4834 20.148 62.1874 20.452C61.8994 20.748 61.7554 21.156 61.7554 21.676V25H60.7714ZM65.7006 25V19.924H64.5486V19.168H65.9646L65.7006 19.42V18.964C65.7006 18.188 65.8926 17.6 66.2766 17.2C66.6686 16.8 67.2686 16.576 68.0766 16.528L68.5446 16.504L68.6286 17.248L68.0766 17.284C67.7486 17.308 67.4806 17.38 67.2726 17.5C67.0646 17.62 66.9126 17.792 66.8166 18.016C66.7206 18.24 66.6726 18.516 66.6726 18.844V19.348L66.5286 19.168H68.3526V19.924H66.6726V25H65.7006ZM71.8486 25.108C71.2326 25.108 70.7006 24.988 70.2526 24.748C69.8126 24.5 69.4686 24.152 69.2206 23.704C68.9806 23.256 68.8606 22.72 68.8606 22.096C68.8606 21.488 68.9806 20.96 69.2206 20.512C69.4606 20.056 69.7886 19.7 70.2046 19.444C70.6286 19.188 71.1166 19.06 71.6686 19.06C72.1966 19.06 72.6486 19.176 73.0246 19.408C73.4006 19.64 73.6886 19.968 73.8886 20.392C74.0966 20.816 74.2006 21.324 74.2006 21.916V22.288H69.6046V21.652H73.5526L73.3606 21.808C73.3606 21.168 73.2166 20.672 72.9286 20.32C72.6486 19.96 72.2366 19.78 71.6926 19.78C71.2846 19.78 70.9366 19.876 70.6486 20.068C70.3686 20.252 70.1566 20.512 70.0126 20.848C69.8686 21.176 69.7966 21.56 69.7966 22V22.072C69.7966 22.56 69.8726 22.972 70.0246 23.308C70.1846 23.644 70.4206 23.9 70.7326 24.076C71.0446 24.244 71.4166 24.328 71.8486 24.328C72.1926 24.328 72.5246 24.276 72.8446 24.172C73.1726 24.06 73.4806 23.88 73.7686 23.632L74.1046 24.316C73.8406 24.556 73.5046 24.748 73.0966 24.892C72.6886 25.036 72.2726 25.108 71.8486 25.108ZM78.0793 25.108C77.4953 25.108 76.9913 24.98 76.5673 24.724C76.1433 24.468 75.8153 24.112 75.5833 23.656C75.3593 23.192 75.2473 22.656 75.2473 22.048C75.2473 21.432 75.3593 20.9 75.5833 20.452C75.8153 20.004 76.1433 19.66 76.5673 19.42C76.9913 19.18 77.4953 19.06 78.0793 19.06C78.4393 19.06 78.7953 19.124 79.1473 19.252C79.4993 19.38 79.7913 19.56 80.0233 19.792L79.6873 20.5C79.4553 20.276 79.1993 20.112 78.9193 20.008C78.6473 19.904 78.3873 19.852 78.1393 19.852C77.5313 19.852 77.0633 20.044 76.7353 20.428C76.4073 20.804 76.2433 21.348 76.2433 22.06C76.2433 22.756 76.4073 23.308 76.7353 23.716C77.0633 24.116 77.5313 24.316 78.1393 24.316C78.3873 24.316 78.6473 24.264 78.9193 24.16C79.1993 24.056 79.4553 23.888 79.6873 23.656L80.0233 24.364C79.7913 24.596 79.4953 24.78 79.1353 24.916C78.7833 25.044 78.4313 25.108 78.0793 25.108ZM83.502 25.108C82.814 25.108 82.298 24.924 81.954 24.556C81.61 24.188 81.438 23.664 81.438 22.984V19.924H80.298V19.168H81.438V17.38H82.41V19.168H84.258V19.924H82.41V22.888C82.41 23.344 82.506 23.692 82.698 23.932C82.89 24.164 83.202 24.28 83.634 24.28C83.762 24.28 83.89 24.264 84.018 24.232C84.146 24.2 84.262 24.168 84.366 24.136L84.534 24.88C84.43 24.936 84.278 24.988 84.078 25.036C83.878 25.084 83.686 25.108 83.502 25.108ZM88.5713 25V16.54H93.8033V17.368H89.5553V20.32H93.5633V21.148H89.5553V25H88.5713ZM97.2149 25.108C96.6469 25.108 96.1549 24.984 95.7389 24.736C95.3229 24.488 94.9989 24.14 94.7669 23.692C94.5429 23.236 94.4309 22.7 94.4309 22.084C94.4309 21.468 94.5429 20.936 94.7669 20.488C94.9989 20.032 95.3229 19.68 95.7389 19.432C96.1549 19.184 96.6469 19.06 97.2149 19.06C97.7829 19.06 98.2749 19.184 98.6909 19.432C99.1069 19.68 99.4269 20.032 99.6509 20.488C99.8829 20.936 99.9989 21.468 99.9989 22.084C99.9989 22.7 99.8829 23.236 99.6509 23.692C99.4269 24.14 99.1069 24.488 98.6909 24.736C98.2749 24.984 97.7829 25.108 97.2149 25.108ZM97.2149 24.328C97.7669 24.328 98.2029 24.136 98.5229 23.752C98.8509 23.36 99.0149 22.8 99.0149 22.072C99.0149 21.352 98.8509 20.8 98.5229 20.416C98.2029 20.032 97.7669 19.84 97.2149 19.84C96.6709 19.84 96.2349 20.032 95.9069 20.416C95.5789 20.8 95.4149 21.352 95.4149 22.072C95.4149 22.8 95.5789 23.36 95.9069 23.752C96.2349 24.136 96.6709 24.328 97.2149 24.328ZM101.459 25V19.168H102.407V20.548H102.287C102.423 20.076 102.659 19.72 102.995 19.48C103.331 19.232 103.775 19.088 104.327 19.048L104.675 19.012L104.747 19.852L104.135 19.924C103.591 19.972 103.171 20.148 102.875 20.452C102.587 20.748 102.443 21.156 102.443 21.676V25H101.459ZM107.882 25.084L107.81 24.256L108.53 24.208C108.81 24.184 109.042 24.116 109.226 24.004C109.41 23.884 109.55 23.716 109.646 23.5C109.742 23.284 109.79 23.032 109.79 22.744V16.54H110.774V22.756C110.774 23.212 110.694 23.608 110.534 23.944C110.374 24.272 110.138 24.528 109.826 24.712C109.514 24.896 109.126 25.004 108.662 25.036L107.882 25.084ZM114.796 25.108C114.324 25.108 113.932 25.024 113.62 24.856C113.316 24.68 113.084 24.42 112.924 24.076C112.772 23.732 112.696 23.304 112.696 22.792V19.168H113.668V22.78C113.668 23.124 113.712 23.412 113.8 23.644C113.896 23.868 114.044 24.036 114.244 24.148C114.444 24.252 114.692 24.304 114.988 24.304C115.324 24.304 115.616 24.228 115.864 24.076C116.112 23.924 116.308 23.712 116.452 23.44C116.596 23.168 116.668 22.848 116.668 22.48V19.168H117.64V25H116.692V23.656H116.848C116.688 24.128 116.424 24.488 116.056 24.736C115.696 24.984 115.276 25.108 114.796 25.108ZM119.339 17.716V16.624H120.539V17.716H119.339ZM119.459 25V19.168H120.431V25H119.459ZM124.72 25.108C124.136 25.108 123.632 24.98 123.208 24.724C122.784 24.468 122.456 24.112 122.224 23.656C122 23.192 121.888 22.656 121.888 22.048C121.888 21.432 122 20.9 122.224 20.452C122.456 20.004 122.784 19.66 123.208 19.42C123.632 19.18 124.136 19.06 124.72 19.06C125.08 19.06 125.436 19.124 125.788 19.252C126.14 19.38 126.432 19.56 126.664 19.792L126.328 20.5C126.096 20.276 125.84 20.112 125.56 20.008C125.288 19.904 125.028 19.852 124.78 19.852C124.172 19.852 123.704 20.044 123.376 20.428C123.048 20.804 122.884 21.348 122.884 22.06C122.884 22.756 123.048 23.308 123.376 23.716C123.704 24.116 124.172 24.316 124.78 24.316C125.028 24.316 125.288 24.264 125.56 24.16C125.84 24.056 126.096 23.888 126.328 23.656L126.664 24.364C126.432 24.596 126.136 24.78 125.776 24.916C125.424 25.044 125.072 25.108 124.72 25.108ZM130.313 25.108C129.697 25.108 129.165 24.988 128.717 24.748C128.277 24.5 127.933 24.152 127.685 23.704C127.445 23.256 127.325 22.72 127.325 22.096C127.325 21.488 127.445 20.96 127.685 20.512C127.925 20.056 128.253 19.7 128.669 19.444C129.093 19.188 129.581 19.06 130.133 19.06C130.661 19.06 131.113 19.176 131.489 19.408C131.865 19.64 132.153 19.968 132.353 20.392C132.561 20.816 132.665 21.324 132.665 21.916V22.288H128.069V21.652H132.017L131.825 21.808C131.825 21.168 131.681 20.672 131.393 20.32C131.113 19.96 130.701 19.78 130.157 19.78C129.749 19.78 129.401 19.876 129.113 20.068C128.833 20.252 128.621 20.512 128.477 20.848C128.333 21.176 128.261 21.56 128.261 22V22.072C128.261 22.56 128.337 22.972 128.489 23.308C128.649 23.644 128.885 23.9 129.197 24.076C129.509 24.244 129.881 24.328 130.313 24.328C130.657 24.328 130.989 24.276 131.309 24.172C131.637 24.06 131.945 23.88 132.233 23.632L132.569 24.316C132.305 24.556 131.969 24.748 131.561 24.892C131.153 25.036 130.737 25.108 130.313 25.108ZM136.04 25.108C135.736 25.108 135.44 25.076 135.152 25.012C134.872 24.956 134.608 24.876 134.36 24.772C134.12 24.66 133.912 24.528 133.736 24.376L134.048 23.692C134.24 23.844 134.448 23.972 134.672 24.076C134.896 24.172 135.124 24.244 135.356 24.292C135.588 24.34 135.824 24.364 136.064 24.364C136.52 24.364 136.864 24.28 137.096 24.112C137.328 23.944 137.444 23.716 137.444 23.428C137.444 23.204 137.368 23.028 137.216 22.9C137.064 22.764 136.824 22.66 136.496 22.588L135.404 22.348C134.9 22.244 134.524 22.064 134.276 21.808C134.036 21.552 133.916 21.22 133.916 20.812C133.916 20.452 134.008 20.144 134.192 19.888C134.384 19.624 134.652 19.42 134.996 19.276C135.34 19.132 135.74 19.06 136.196 19.06C136.468 19.06 136.728 19.088 136.976 19.144C137.224 19.2 137.456 19.284 137.672 19.396C137.896 19.5 138.088 19.632 138.248 19.792L137.924 20.476C137.772 20.332 137.6 20.212 137.408 20.116C137.216 20.012 137.016 19.936 136.808 19.888C136.608 19.832 136.404 19.804 136.196 19.804C135.748 19.804 135.408 19.892 135.176 20.068C134.944 20.244 134.828 20.476 134.828 20.764C134.828 20.988 134.9 21.172 135.044 21.316C135.188 21.46 135.412 21.564 135.716 21.628L136.808 21.856C137.328 21.968 137.716 22.148 137.972 22.396C138.236 22.636 138.368 22.964 138.368 23.38C138.368 23.732 138.272 24.04 138.08 24.304C137.888 24.56 137.616 24.76 137.264 24.904C136.92 25.04 136.512 25.108 136.04 25.108ZM140.139 26.368L139.683 26.02C139.827 25.868 139.935 25.724 140.007 25.588C140.087 25.46 140.139 25.328 140.163 25.192C140.195 25.064 140.211 24.932 140.211 24.796L140.427 25H139.635V23.776H140.859V24.64C140.859 24.856 140.835 25.06 140.787 25.252C140.747 25.452 140.675 25.644 140.571 25.828C140.467 26.012 140.323 26.192 140.139 26.368ZM148.471 25.108C148.031 25.108 147.615 25.068 147.223 24.988C146.839 24.908 146.483 24.796 146.155 24.652C145.835 24.5 145.543 24.316 145.279 24.1L145.627 23.308C145.899 23.508 146.175 23.68 146.455 23.824C146.743 23.96 147.051 24.064 147.379 24.136C147.715 24.2 148.079 24.232 148.471 24.232C149.191 24.232 149.723 24.1 150.067 23.836C150.419 23.564 150.595 23.208 150.595 22.768C150.595 22.536 150.539 22.336 150.427 22.168C150.323 22 150.147 21.856 149.899 21.736C149.659 21.616 149.343 21.516 148.951 21.436L147.703 21.184C146.951 21.024 146.387 20.764 146.011 20.404C145.643 20.036 145.459 19.548 145.459 18.94C145.459 18.436 145.587 17.996 145.843 17.62C146.107 17.244 146.471 16.952 146.935 16.744C147.407 16.536 147.943 16.432 148.543 16.432C148.927 16.432 149.291 16.472 149.635 16.552C149.979 16.632 150.295 16.752 150.583 16.912C150.879 17.064 151.139 17.252 151.363 17.476L151.015 18.244C150.655 17.916 150.275 17.68 149.875 17.536C149.475 17.384 149.027 17.308 148.531 17.308C148.107 17.308 147.739 17.372 147.427 17.5C147.123 17.628 146.883 17.816 146.707 18.064C146.539 18.304 146.455 18.584 146.455 18.904C146.455 19.288 146.571 19.592 146.803 19.816C147.043 20.04 147.431 20.204 147.967 20.308L149.215 20.572C150.023 20.74 150.619 20.996 151.003 21.34C151.395 21.676 151.591 22.136 151.591 22.72C151.591 23.184 151.463 23.6 151.207 23.968C150.959 24.328 150.599 24.608 150.127 24.808C149.663 25.008 149.111 25.108 148.471 25.108ZM153.01 25V19.168H153.958V20.464H153.826C153.922 20.168 154.062 19.916 154.246 19.708C154.438 19.492 154.662 19.332 154.918 19.228C155.182 19.116 155.47 19.06 155.782 19.06C156.278 19.06 156.678 19.18 156.982 19.42C157.294 19.652 157.502 20.016 157.606 20.512H157.426C157.57 20.064 157.826 19.712 158.194 19.456C158.57 19.192 159.006 19.06 159.502 19.06C159.942 19.06 160.302 19.144 160.582 19.312C160.87 19.48 161.086 19.736 161.23 20.08C161.374 20.416 161.446 20.844 161.446 21.364V25H160.474V21.412C160.474 20.876 160.382 20.484 160.198 20.236C160.014 19.98 159.702 19.852 159.262 19.852C158.95 19.852 158.674 19.928 158.434 20.08C158.202 20.232 158.022 20.448 157.894 20.728C157.774 21 157.714 21.324 157.714 21.7V25H156.742V21.412C156.742 20.876 156.646 20.484 156.454 20.236C156.27 19.98 155.962 19.852 155.53 19.852C155.21 19.852 154.934 19.928 154.702 20.08C154.47 20.232 154.29 20.448 154.162 20.728C154.042 21 153.982 21.324 153.982 21.7V25H153.01ZM165.688 25.108C165.12 25.108 164.628 24.984 164.212 24.736C163.796 24.488 163.472 24.14 163.24 23.692C163.016 23.236 162.904 22.7 162.904 22.084C162.904 21.468 163.016 20.936 163.24 20.488C163.472 20.032 163.796 19.68 164.212 19.432C164.628 19.184 165.12 19.06 165.688 19.06C166.256 19.06 166.748 19.184 167.164 19.432C167.58 19.68 167.9 20.032 168.124 20.488C168.356 20.936 168.472 21.468 168.472 22.084C168.472 22.7 168.356 23.236 168.124 23.692C167.9 24.14 167.58 24.488 167.164 24.736C166.748 24.984 166.256 25.108 165.688 25.108ZM165.688 24.328C166.24 24.328 166.676 24.136 166.996 23.752C167.324 23.36 167.488 22.8 167.488 22.072C167.488 21.352 167.324 20.8 166.996 20.416C166.676 20.032 166.24 19.84 165.688 19.84C165.144 19.84 164.708 20.032 164.38 20.416C164.052 20.8 163.888 21.352 163.888 22.072C163.888 22.8 164.052 23.36 164.38 23.752C164.708 24.136 165.144 24.328 165.688 24.328ZM172.356 25.108C171.788 25.108 171.296 24.984 170.88 24.736C170.464 24.488 170.14 24.14 169.908 23.692C169.684 23.236 169.572 22.7 169.572 22.084C169.572 21.468 169.684 20.936 169.908 20.488C170.14 20.032 170.464 19.68 170.88 19.432C171.296 19.184 171.788 19.06 172.356 19.06C172.924 19.06 173.416 19.184 173.832 19.432C174.248 19.68 174.568 20.032 174.792 20.488C175.024 20.936 175.14 21.468 175.14 22.084C175.14 22.7 175.024 23.236 174.792 23.692C174.568 24.14 174.248 24.488 173.832 24.736C173.416 24.984 172.924 25.108 172.356 25.108ZM172.356 24.328C172.908 24.328 173.344 24.136 173.664 23.752C173.992 23.36 174.156 22.8 174.156 22.072C174.156 21.352 173.992 20.8 173.664 20.416C173.344 20.032 172.908 19.84 172.356 19.84C171.812 19.84 171.376 20.032 171.048 20.416C170.72 20.8 170.556 21.352 170.556 22.072C170.556 22.8 170.72 23.36 171.048 23.752C171.376 24.136 171.812 24.328 172.356 24.328ZM178.881 25.108C178.193 25.108 177.677 24.924 177.333 24.556C176.989 24.188 176.817 23.664 176.817 22.984V19.924H175.677V19.168H176.817V17.38H177.789V19.168H179.637V19.924H177.789V22.888C177.789 23.344 177.885 23.692 178.077 23.932C178.269 24.164 178.581 24.28 179.013 24.28C179.141 24.28 179.269 24.264 179.397 24.232C179.525 24.2 179.641 24.168 179.745 24.136L179.913 24.88C179.809 24.936 179.657 24.988 179.457 25.036C179.257 25.084 179.065 25.108 178.881 25.108ZM180.736 25V16.54H181.708V20.464H181.552C181.72 20 181.992 19.652 182.368 19.42C182.752 19.18 183.192 19.06 183.688 19.06C184.152 19.06 184.536 19.144 184.84 19.312C185.152 19.48 185.384 19.736 185.536 20.08C185.688 20.416 185.764 20.844 185.764 21.364V25H184.792V21.424C184.792 21.064 184.744 20.768 184.648 20.536C184.56 20.304 184.416 20.132 184.216 20.02C184.024 19.908 183.772 19.852 183.46 19.852C183.108 19.852 182.8 19.928 182.536 20.08C182.272 20.232 182.068 20.444 181.924 20.716C181.78 20.988 181.708 21.308 181.708 21.676V25H180.736ZM187.437 17.716V16.624H188.637V17.716H187.437ZM187.557 25V19.168H188.529V25H187.557ZM192.974 25.108C192.358 25.108 191.826 24.988 191.378 24.748C190.938 24.5 190.594 24.152 190.346 23.704C190.106 23.256 189.986 22.72 189.986 22.096C189.986 21.488 190.106 20.96 190.346 20.512C190.586 20.056 190.914 19.7 191.33 19.444C191.754 19.188 192.242 19.06 192.794 19.06C193.322 19.06 193.774 19.176 194.15 19.408C194.526 19.64 194.814 19.968 195.014 20.392C195.222 20.816 195.326 21.324 195.326 21.916V22.288H190.73V21.652H194.678L194.486 21.808C194.486 21.168 194.342 20.672 194.054 20.32C193.774 19.96 193.362 19.78 192.818 19.78C192.41 19.78 192.062 19.876 191.774 20.068C191.494 20.252 191.282 20.512 191.138 20.848C190.994 21.176 190.922 21.56 190.922 22V22.072C190.922 22.56 190.998 22.972 191.15 23.308C191.31 23.644 191.546 23.9 191.858 24.076C192.17 24.244 192.542 24.328 192.974 24.328C193.318 24.328 193.65 24.276 193.97 24.172C194.298 24.06 194.606 23.88 194.894 23.632L195.23 24.316C194.966 24.556 194.63 24.748 194.222 24.892C193.814 25.036 193.398 25.108 192.974 25.108ZM198.7 25.108C198.396 25.108 198.1 25.076 197.812 25.012C197.532 24.956 197.268 24.876 197.02 24.772C196.78 24.66 196.572 24.528 196.396 24.376L196.708 23.692C196.9 23.844 197.108 23.972 197.332 24.076C197.556 24.172 197.784 24.244 198.016 24.292C198.248 24.34 198.484 24.364 198.724 24.364C199.18 24.364 199.524 24.28 199.756 24.112C199.988 23.944 200.104 23.716 200.104 23.428C200.104 23.204 200.028 23.028 199.876 22.9C199.724 22.764 199.484 22.66 199.156 22.588L198.064 22.348C197.56 22.244 197.184 22.064 196.936 21.808C196.696 21.552 196.576 21.22 196.576 20.812C196.576 20.452 196.668 20.144 196.852 19.888C197.044 19.624 197.312 19.42 197.656 19.276C198 19.132 198.4 19.06 198.856 19.06C199.128 19.06 199.388 19.088 199.636 19.144C199.884 19.2 200.116 19.284 200.332 19.396C200.556 19.5 200.748 19.632 200.908 19.792L200.584 20.476C200.432 20.332 200.26 20.212 200.068 20.116C199.876 20.012 199.676 19.936 199.468 19.888C199.268 19.832 199.064 19.804 198.856 19.804C198.408 19.804 198.068 19.892 197.836 20.068C197.604 20.244 197.488 20.476 197.488 20.764C197.488 20.988 197.56 21.172 197.704 21.316C197.848 21.46 198.072 21.564 198.376 21.628L199.468 21.856C199.988 21.968 200.376 22.148 200.632 22.396C200.896 22.636 201.028 22.964 201.028 23.38C201.028 23.732 200.932 24.04 200.74 24.304C200.548 24.56 200.276 24.76 199.924 24.904C199.58 25.04 199.172 25.108 198.7 25.108ZM202.799 26.368L202.343 26.02C202.487 25.868 202.595 25.724 202.667 25.588C202.747 25.46 202.799 25.328 202.823 25.192C202.855 25.064 202.871 24.932 202.871 24.796L203.087 25H202.295V23.776H203.519V24.64C203.519 24.856 203.495 25.06 203.447 25.252C203.407 25.452 203.335 25.644 203.231 25.828C203.127 26.012 202.983 26.192 202.799 26.368ZM207.58 25L211.312 16.54H212.152L215.884 25H214.864L213.82 22.588L214.3 22.84H209.14L209.632 22.588L208.6 25H207.58ZM211.72 17.692L209.788 22.24L209.5 22.012H213.94L213.676 22.24L211.744 17.692H211.72ZM217.006 25V19.168H217.954V20.464H217.822C217.99 20 218.262 19.652 218.638 19.42C219.022 19.18 219.462 19.06 219.958 19.06C220.422 19.06 220.806 19.144 221.11 19.312C221.422 19.472 221.654 19.724 221.806 20.068C221.958 20.412 222.034 20.844 222.034 21.364V25H221.062V21.424C221.062 21.064 221.014 20.768 220.918 20.536C220.83 20.304 220.686 20.132 220.486 20.02C220.294 19.908 220.042 19.852 219.73 19.852C219.378 19.852 219.07 19.928 218.806 20.08C218.542 20.232 218.338 20.444 218.194 20.716C218.05 20.988 217.978 21.308 217.978 21.676V25H217.006ZM226.046 25.108C225.526 25.108 225.07 24.984 224.678 24.736C224.294 24.488 223.994 24.14 223.778 23.692C223.57 23.236 223.466 22.7 223.466 22.084C223.466 21.46 223.57 20.924 223.778 20.476C223.994 20.02 224.294 19.672 224.678 19.432C225.07 19.184 225.526 19.06 226.046 19.06C226.574 19.06 227.026 19.192 227.402 19.456C227.778 19.72 228.03 20.076 228.158 20.524H228.026V16.54H228.998V25H228.05V23.608H228.17C228.042 24.064 227.786 24.428 227.402 24.7C227.026 24.972 226.574 25.108 226.046 25.108ZM226.25 24.328C226.802 24.328 227.238 24.136 227.558 23.752C227.886 23.36 228.05 22.804 228.05 22.084C228.05 21.356 227.886 20.8 227.558 20.416C227.238 20.032 226.802 19.84 226.25 19.84C225.706 19.84 225.27 20.032 224.942 20.416C224.614 20.8 224.45 21.356 224.45 22.084C224.45 22.804 224.614 23.36 224.942 23.752C225.27 24.136 225.706 24.328 226.25 24.328ZM237.696 25.108C236.864 25.108 236.152 24.932 235.56 24.58C234.968 24.228 234.512 23.728 234.192 23.08C233.88 22.432 233.724 21.66 233.724 20.764C233.724 19.868 233.88 19.1 234.192 18.46C234.512 17.812 234.968 17.312 235.56 16.96C236.152 16.608 236.864 16.432 237.696 16.432C238.28 16.432 238.82 16.524 239.316 16.708C239.812 16.892 240.228 17.16 240.564 17.512L240.18 18.316C239.812 17.972 239.428 17.724 239.028 17.572C238.636 17.412 238.2 17.332 237.72 17.332C236.768 17.332 236.04 17.632 235.536 18.232C235.032 18.832 234.78 19.676 234.78 20.764C234.78 21.852 235.032 22.7 235.536 23.308C236.04 23.908 236.768 24.208 237.72 24.208C238.2 24.208 238.636 24.132 239.028 23.98C239.428 23.82 239.812 23.568 240.18 23.224L240.564 24.028C240.228 24.372 239.812 24.64 239.316 24.832C238.82 25.016 238.28 25.108 237.696 25.108ZM243.981 25.108C243.413 25.108 242.921 24.984 242.505 24.736C242.089 24.488 241.765 24.14 241.533 23.692C241.309 23.236 241.197 22.7 241.197 22.084C241.197 21.468 241.309 20.936 241.533 20.488C241.765 20.032 242.089 19.68 242.505 19.432C242.921 19.184 243.413 19.06 243.981 19.06C244.549 19.06 245.041 19.184 245.457 19.432C245.873 19.68 246.193 20.032 246.417 20.488C246.649 20.936 246.765 21.468 246.765 22.084C246.765 22.7 246.649 23.236 246.417 23.692C246.193 24.14 245.873 24.488 245.457 24.736C245.041 24.984 244.549 25.108 243.981 25.108ZM243.981 24.328C244.533 24.328 244.969 24.136 245.289 23.752C245.617 23.36 245.781 22.8 245.781 22.072C245.781 21.352 245.617 20.8 245.289 20.416C244.969 20.032 244.533 19.84 243.981 19.84C243.437 19.84 243.001 20.032 242.673 20.416C242.345 20.8 242.181 21.352 242.181 22.072C242.181 22.8 242.345 23.36 242.673 23.752C243.001 24.136 243.437 24.328 243.981 24.328ZM250.013 25.108C249.421 25.108 248.973 24.932 248.669 24.58C248.373 24.228 248.225 23.724 248.225 23.068V16.54H249.197V22.996C249.197 23.276 249.233 23.512 249.305 23.704C249.385 23.896 249.501 24.04 249.653 24.136C249.805 24.232 249.993 24.28 250.217 24.28C250.313 24.28 250.405 24.276 250.493 24.268C250.589 24.252 250.677 24.232 250.757 24.208L250.733 25.024C250.605 25.048 250.481 25.068 250.361 25.084C250.249 25.1 250.133 25.108 250.013 25.108ZM253.937 25.108C253.417 25.108 252.961 24.984 252.569 24.736C252.185 24.488 251.885 24.14 251.669 23.692C251.461 23.236 251.357 22.7 251.357 22.084C251.357 21.46 251.461 20.924 251.669 20.476C251.885 20.02 252.185 19.672 252.569 19.432C252.961 19.184 253.417 19.06 253.937 19.06C254.465 19.06 254.917 19.192 255.293 19.456C255.669 19.72 255.921 20.076 256.049 20.524H255.917V16.54H256.889V25H255.941V23.608H256.061C255.933 24.064 255.677 24.428 255.293 24.7C254.917 24.972 254.465 25.108 253.937 25.108ZM254.141 24.328C254.693 24.328 255.129 24.136 255.449 23.752C255.777 23.36 255.941 22.804 255.941 22.084C255.941 21.356 255.777 20.8 255.449 20.416C255.129 20.032 254.693 19.84 254.141 19.84C253.597 19.84 253.161 20.032 252.833 20.416C252.505 20.8 252.341 21.356 252.341 22.084C252.341 22.804 252.505 23.36 252.833 23.752C253.161 24.136 253.597 24.328 254.141 24.328ZM261.927 25V16.54H265.311C266.175 16.54 266.847 16.732 267.327 17.116C267.807 17.5 268.047 18.044 268.047 18.748C268.047 19.276 267.891 19.716 267.579 20.068C267.275 20.42 266.859 20.652 266.331 20.764V20.596C266.731 20.644 267.075 20.76 267.363 20.944C267.651 21.12 267.871 21.356 268.023 21.652C268.175 21.94 268.251 22.28 268.251 22.672C268.251 23.176 268.139 23.604 267.915 23.956C267.699 24.3 267.383 24.56 266.967 24.736C266.551 24.912 266.047 25 265.455 25H261.927ZM262.887 24.208H265.359C265.615 24.208 265.843 24.188 266.043 24.148C266.251 24.108 266.431 24.048 266.583 23.968C266.735 23.88 266.863 23.776 266.967 23.656C267.071 23.536 267.147 23.392 267.195 23.224C267.251 23.056 267.279 22.868 267.279 22.66C267.279 22.444 267.251 22.256 267.195 22.096C267.147 21.928 267.071 21.784 266.967 21.664C266.863 21.536 266.735 21.432 266.583 21.352C266.431 21.272 266.251 21.212 266.043 21.172C265.843 21.132 265.615 21.112 265.359 21.112H262.887V24.208ZM262.887 20.32H265.167C265.791 20.32 266.263 20.192 266.583 19.936C266.911 19.68 267.075 19.312 267.075 18.832C267.075 18.336 266.911 17.964 266.583 17.716C266.263 17.46 265.791 17.332 265.167 17.332H262.887V20.32ZM272.532 25.108C271.916 25.108 271.384 24.988 270.936 24.748C270.496 24.5 270.152 24.152 269.904 23.704C269.664 23.256 269.544 22.72 269.544 22.096C269.544 21.488 269.664 20.96 269.904 20.512C270.144 20.056 270.472 19.7 270.888 19.444C271.312 19.188 271.8 19.06 272.352 19.06C272.88 19.06 273.332 19.176 273.708 19.408C274.084 19.64 274.372 19.968 274.572 20.392C274.78 20.816 274.884 21.324 274.884 21.916V22.288H270.288V21.652H274.236L274.044 21.808C274.044 21.168 273.9 20.672 273.612 20.32C273.332 19.96 272.92 19.78 272.376 19.78C271.968 19.78 271.62 19.876 271.332 20.068C271.052 20.252 270.84 20.512 270.696 20.848C270.552 21.176 270.48 21.56 270.48 22V22.072C270.48 22.56 270.556 22.972 270.708 23.308C270.868 23.644 271.104 23.9 271.416 24.076C271.728 24.244 272.1 24.328 272.532 24.328C272.876 24.328 273.208 24.276 273.528 24.172C273.856 24.06 274.164 23.88 274.452 23.632L274.788 24.316C274.524 24.556 274.188 24.748 273.78 24.892C273.372 25.036 272.956 25.108 272.532 25.108ZM277.937 25L275.429 19.168H276.485L278.573 24.28H278.249L280.373 19.168H281.369L278.849 25H277.937ZM284.942 25.108C284.326 25.108 283.794 24.988 283.346 24.748C282.906 24.5 282.562 24.152 282.314 23.704C282.074 23.256 281.954 22.72 281.954 22.096C281.954 21.488 282.074 20.96 282.314 20.512C282.554 20.056 282.882 19.7 283.298 19.444C283.722 19.188 284.21 19.06 284.762 19.06C285.29 19.06 285.742 19.176 286.118 19.408C286.494 19.64 286.782 19.968 286.982 20.392C287.19 20.816 287.294 21.324 287.294 21.916V22.288H282.698V21.652H286.646L286.454 21.808C286.454 21.168 286.31 20.672 286.022 20.32C285.742 19.96 285.33 19.78 284.786 19.78C284.378 19.78 284.03 19.876 283.742 20.068C283.462 20.252 283.25 20.512 283.106 20.848C282.962 21.176 282.89 21.56 282.89 22V22.072C282.89 22.56 282.966 22.972 283.118 23.308C283.278 23.644 283.514 23.9 283.826 24.076C284.138 24.244 284.51 24.328 284.942 24.328C285.286 24.328 285.618 24.276 285.938 24.172C286.266 24.06 286.574 23.88 286.862 23.632L287.198 24.316C286.934 24.556 286.598 24.748 286.19 24.892C285.782 25.036 285.366 25.108 284.942 25.108ZM288.701 25V19.168H289.649V20.548H289.529C289.665 20.076 289.901 19.72 290.237 19.48C290.573 19.232 291.017 19.088 291.569 19.048L291.917 19.012L291.989 19.852L291.377 19.924C290.833 19.972 290.413 20.148 290.117 20.452C289.829 20.748 289.685 21.156 289.685 21.676V25H288.701ZM294.779 25.108C294.379 25.108 294.019 25.032 293.699 24.88C293.387 24.72 293.139 24.504 292.955 24.232C292.771 23.96 292.679 23.656 292.679 23.32C292.679 22.888 292.787 22.548 293.003 22.3C293.227 22.052 293.591 21.876 294.095 21.772C294.607 21.668 295.303 21.616 296.183 21.616H296.723V22.252H296.195C295.707 22.252 295.299 22.268 294.971 22.3C294.643 22.332 294.383 22.388 294.191 22.468C293.999 22.548 293.863 22.652 293.783 22.78C293.703 22.908 293.663 23.068 293.663 23.26C293.663 23.588 293.775 23.856 293.999 24.064C294.231 24.272 294.543 24.376 294.935 24.376C295.255 24.376 295.535 24.3 295.775 24.148C296.023 23.996 296.215 23.788 296.351 23.524C296.495 23.26 296.567 22.956 296.567 22.612V21.244C296.567 20.748 296.467 20.392 296.267 20.176C296.067 19.952 295.739 19.84 295.283 19.84C294.931 19.84 294.591 19.892 294.263 19.996C293.935 20.092 293.599 20.252 293.255 20.476L292.919 19.768C293.127 19.624 293.363 19.5 293.627 19.396C293.891 19.284 294.167 19.2 294.455 19.144C294.743 19.088 295.019 19.06 295.283 19.06C295.787 19.06 296.203 19.144 296.531 19.312C296.859 19.472 297.103 19.72 297.263 20.056C297.423 20.384 297.503 20.808 297.503 21.328V25H296.591V23.644H296.699C296.635 23.948 296.511 24.208 296.327 24.424C296.151 24.64 295.931 24.808 295.667 24.928C295.403 25.048 295.107 25.108 294.779 25.108ZM301.887 27.268C301.383 27.268 300.907 27.2 300.459 27.064C300.019 26.936 299.627 26.74 299.283 26.476L299.607 25.768C299.847 25.936 300.083 26.072 300.315 26.176C300.555 26.288 300.799 26.368 301.047 26.416C301.303 26.464 301.567 26.488 301.839 26.488C302.407 26.488 302.835 26.336 303.123 26.032C303.419 25.728 303.567 25.288 303.567 24.712V23.356H303.687C303.567 23.82 303.311 24.188 302.919 24.46C302.535 24.732 302.083 24.868 301.563 24.868C301.027 24.868 300.563 24.748 300.171 24.508C299.779 24.26 299.475 23.916 299.259 23.476C299.051 23.036 298.947 22.528 298.947 21.952C298.947 21.376 299.051 20.872 299.259 20.44C299.475 20 299.779 19.66 300.171 19.42C300.563 19.18 301.027 19.06 301.563 19.06C302.091 19.06 302.547 19.196 302.931 19.468C303.315 19.732 303.563 20.092 303.675 20.548H303.567V19.168H304.515V24.58C304.515 25.172 304.415 25.668 304.215 26.068C304.023 26.468 303.731 26.768 303.339 26.968C302.947 27.168 302.463 27.268 301.887 27.268ZM301.743 24.076C302.303 24.076 302.747 23.884 303.075 23.5C303.403 23.116 303.567 22.6 303.567 21.952C303.567 21.304 303.403 20.792 303.075 20.416C302.747 20.032 302.303 19.84 301.743 19.84C301.191 19.84 300.751 20.032 300.423 20.416C300.095 20.792 299.931 21.304 299.931 21.952C299.931 22.6 300.095 23.116 300.423 23.5C300.751 23.884 301.191 24.076 301.743 24.076ZM308.966 25.108C308.35 25.108 307.818 24.988 307.37 24.748C306.93 24.5 306.586 24.152 306.338 23.704C306.098 23.256 305.978 22.72 305.978 22.096C305.978 21.488 306.098 20.96 306.338 20.512C306.578 20.056 306.906 19.7 307.322 19.444C307.746 19.188 308.234 19.06 308.786 19.06C309.314 19.06 309.766 19.176 310.142 19.408C310.518 19.64 310.806 19.968 311.006 20.392C311.214 20.816 311.318 21.324 311.318 21.916V22.288H306.722V21.652H310.67L310.478 21.808C310.478 21.168 310.334 20.672 310.046 20.32C309.766 19.96 309.354 19.78 308.81 19.78C308.402 19.78 308.054 19.876 307.766 20.068C307.486 20.252 307.274 20.512 307.13 20.848C306.986 21.176 306.914 21.56 306.914 22V22.072C306.914 22.56 306.99 22.972 307.142 23.308C307.302 23.644 307.538 23.9 307.85 24.076C308.162 24.244 308.534 24.328 308.966 24.328C309.31 24.328 309.642 24.276 309.962 24.172C310.29 24.06 310.598 23.88 310.886 23.632L311.222 24.316C310.958 24.556 310.622 24.748 310.214 24.892C309.806 25.036 309.39 25.108 308.966 25.108ZM314.693 25.108C314.389 25.108 314.093 25.076 313.805 25.012C313.525 24.956 313.261 24.876 313.013 24.772C312.773 24.66 312.565 24.528 312.389 24.376L312.701 23.692C312.893 23.844 313.101 23.972 313.325 24.076C313.549 24.172 313.777 24.244 314.009 24.292C314.241 24.34 314.477 24.364 314.717 24.364C315.173 24.364 315.517 24.28 315.749 24.112C315.981 23.944 316.097 23.716 316.097 23.428C316.097 23.204 316.021 23.028 315.869 22.9C315.717 22.764 315.477 22.66 315.149 22.588L314.057 22.348C313.553 22.244 313.177 22.064 312.929 21.808C312.689 21.552 312.569 21.22 312.569 20.812C312.569 20.452 312.661 20.144 312.845 19.888C313.037 19.624 313.305 19.42 313.649 19.276C313.993 19.132 314.393 19.06 314.849 19.06C315.121 19.06 315.381 19.088 315.629 19.144C315.877 19.2 316.109 19.284 316.325 19.396C316.549 19.5 316.741 19.632 316.901 19.792L316.577 20.476C316.425 20.332 316.253 20.212 316.061 20.116C315.869 20.012 315.669 19.936 315.461 19.888C315.261 19.832 315.057 19.804 314.849 19.804C314.401 19.804 314.061 19.892 313.829 20.068C313.597 20.244 313.481 20.476 313.481 20.764C313.481 20.988 313.553 21.172 313.697 21.316C313.841 21.46 314.065 21.564 314.369 21.628L315.461 21.856C315.981 21.968 316.369 22.148 316.625 22.396C316.889 22.636 317.021 22.964 317.021 23.38C317.021 23.732 316.925 24.04 316.733 24.304C316.541 24.56 316.269 24.76 315.917 24.904C315.573 25.04 315.165 25.108 314.693 25.108ZM318.287 25V23.776H319.511V25H318.287Z" fill="white"/>
</svg>
