<svg width="90" height="82" viewBox="0 0 90 82" fill="none" xmlns="http://www.w3.org/2000/svg">
<g filter="url(#filter0_d_535_573)">
<rect x="4" y="24" width="82" height="50" rx="2" fill="#EBDBBA"/>
<rect x="4.25" y="24.25" width="81.5" height="49.5" rx="1.75" stroke="white" stroke-width="0.5"/>
</g>
<rect x="29.271" y="0.0341797" width="30.0847" height="30.2425" rx="3" fill="#CB3335"/>
<g clip-path="url(#clip0_535_573)">
<path fill-rule="evenodd" clip-rule="evenodd" d="M35.6578 10.7115C35.7137 10.7323 35.7792 10.779 35.8036 10.8153C35.8397 10.8693 35.8476 11.34 35.8473 15.8597L35.7667 15.9424C35.7104 16 35.6502 16.0251 35.5693 16.0251C35.4886 16.0251 35.4271 15.9996 35.2879 15.8597V13.3789C35.2879 11.7911 35.2998 10.8742 35.3208 10.8319C35.3389 10.7955 35.3995 10.7452 35.4551 10.7198C35.5344 10.684 35.5785 10.6824 35.6578 10.7115ZM51.9459 10.7115C52.0018 10.7323 52.0673 10.779 52.0916 10.8153C52.1278 10.8693 52.1357 11.34 52.1354 15.8597L52.0548 15.9424C51.9985 16 51.9383 16.0251 51.8573 16.0251C51.7767 16.0251 51.7152 15.9996 51.576 15.8597V13.3789C51.576 11.7911 51.5878 10.8742 51.6089 10.8319C51.627 10.7955 51.6875 10.7452 51.7432 10.7198C51.8225 10.684 51.8666 10.6824 51.9459 10.7115ZM51.9765 16.9017L52.1354 17.0836V18.8532C52.1354 19.967 52.1232 20.6474 52.1025 20.6891C52.0844 20.7255 52.0179 20.7777 51.9544 20.8048C51.8531 20.8485 50.8629 20.8545 43.7117 20.8545C36.5604 20.8545 35.5703 20.8485 35.4689 20.8048C35.4054 20.7777 35.3389 20.7255 35.3208 20.6891C35.3001 20.6474 35.2879 19.969 35.2876 18.8615C35.2876 17.2959 35.2932 17.0915 35.3402 17.0234C35.3695 16.981 35.4251 16.9337 35.464 16.9179C35.5035 16.9017 39.1684 16.8917 51.9765 16.9017ZM35.8638 20.2756H51.5595L51.5648 17.4474H50.7205C50.7188 17.9988 50.7034 18.1464 50.6783 18.1811C50.6563 18.2119 50.5938 18.2539 50.5395 18.2747C50.4599 18.3055 50.42 18.3025 50.3338 18.2605C50.2637 18.2261 50.2154 18.1712 50.1933 18.1007C50.1749 18.0415 50.1601 17.8705 50.1604 17.7203L50.1611 17.4474H49.0423C49.0423 18.6591 49.0407 18.673 48.963 18.7623C48.9034 18.8304 48.8534 18.8532 48.7626 18.8532C48.6718 18.8532 48.6218 18.8304 48.5622 18.7623C48.4846 18.673 48.4829 18.6591 48.4829 18.0594V17.4474H47.3641C47.3487 18.1021 47.3395 18.1487 47.2743 18.2139C47.2266 18.2618 47.1595 18.2883 47.0825 18.2893C46.9926 18.2906 46.9439 18.2684 46.884 18.2C46.8117 18.1169 46.8047 18.0806 46.8047 17.7782V17.4474H45.686C45.686 18.4361 45.6741 18.6002 45.6366 18.6879C45.607 18.7577 45.5514 18.8175 45.4968 18.8387C45.4471 18.8579 45.373 18.8652 45.3322 18.8552C45.2914 18.845 45.2283 18.8033 45.1917 18.7623C45.1299 18.6932 45.1253 18.6439 45.1259 18.0677L45.1266 17.4474H44.0078C44.0075 17.8447 43.9927 18.016 43.9746 18.0842C43.9502 18.1771 43.913 18.2228 43.8268 18.2661C43.7173 18.3214 43.7061 18.3214 43.5965 18.2661C43.5103 18.2228 43.4731 18.1771 43.4487 18.0842C43.4306 18.016 43.4158 17.8447 43.4158 17.7038L43.4155 17.4474H42.2967C42.2951 18.503 42.2826 18.7034 42.2546 18.7405C42.2326 18.7692 42.1812 18.8102 42.1404 18.8314C42.0996 18.8526 42.022 18.8625 41.9677 18.8532C41.9019 18.8422 41.847 18.8009 41.8032 18.7292C41.7443 18.6323 41.7377 18.5632 41.7373 18.0346V17.4474H40.6186C40.6186 18.0806 40.6117 18.1169 40.5393 18.2C40.4804 18.2671 40.429 18.2909 40.3425 18.2909C40.2646 18.2909 40.2007 18.2658 40.1507 18.2155C40.0835 18.1484 40.0746 18.1044 40.0674 17.7938L40.0592 17.4474H38.9404C38.9243 18.6743 38.9207 18.7061 38.8506 18.7762C38.8029 18.8241 38.7357 18.8506 38.6587 18.8516C38.5689 18.8529 38.5202 18.8308 38.4603 18.7623C38.3827 18.673 38.381 18.6591 38.381 18.0594V17.4474H37.2622C37.2632 17.8705 37.2484 18.0415 37.23 18.1007C37.2079 18.1712 37.1596 18.2261 37.0895 18.2605C37.0033 18.3025 36.9635 18.3055 36.8838 18.2747C36.8295 18.2539 36.767 18.2119 36.745 18.1811C36.72 18.1464 36.7045 17.9988 36.7038 17.7865L36.7028 17.4474H35.8467L35.8638 20.2756ZM37.9736 11.5265C38.0168 11.5265 38.0928 11.5626 38.2329 11.686L38.2494 13.2135H49.1739L49.1904 11.686L49.2809 11.6062C49.3305 11.5626 49.4046 11.5259 49.4454 11.5252C49.4862 11.5242 49.552 11.5503 49.5915 11.5831C49.6313 11.6155 49.961 12.0293 50.3243 12.5023C50.6879 12.9753 50.9939 13.3997 51.0048 13.445C51.0163 13.4927 51.0031 13.5697 50.9738 13.627C50.9459 13.6815 50.676 14.0464 50.3746 14.4374C50.0729 14.8287 49.7682 15.2193 49.6974 15.3057C49.5961 15.4294 49.5477 15.4628 49.4701 15.4628C49.4158 15.4628 49.3417 15.4479 49.3055 15.4297C49.2693 15.4115 49.2246 15.3483 49.2062 15.2891C49.1877 15.2299 49.1729 14.8654 49.1739 13.7758H38.2494L38.2501 14.4787C38.2501 14.8654 38.2352 15.2299 38.2171 15.2891C38.1987 15.3483 38.154 15.4115 38.1178 15.4297C38.0816 15.4479 38.0075 15.4628 37.9532 15.4628C37.8756 15.4628 37.8272 15.4294 37.7259 15.3057C37.6548 15.2193 37.3501 14.8287 37.0487 14.4374C36.7469 14.0464 36.4774 13.6815 36.4495 13.627C36.4202 13.5697 36.407 13.4927 36.4185 13.445C36.4294 13.3997 36.7354 12.9753 37.0987 12.5023C37.462 12.0293 37.79 11.6162 37.8275 11.5844C37.8647 11.5527 37.9305 11.5265 37.9736 11.5265ZM37.0645 13.5608C37.0882 13.5972 37.2346 13.7927 37.3902 13.9954C37.5462 14.1982 37.6847 14.3583 37.6982 14.351C37.7117 14.3441 37.7229 13.9587 37.7229 13.4946C37.7229 13.0283 37.7097 12.6512 37.6936 12.6512C37.6778 12.6512 37.5202 12.841 37.3432 13.0729C37.053 13.4543 37.026 13.5009 37.0645 13.5608ZM49.7251 14.351C49.7386 14.3583 49.8771 14.1982 50.0327 13.9954C50.1884 13.7927 50.3351 13.5972 50.3585 13.5608C50.397 13.5009 50.37 13.4543 50.0755 13.0716C49.8962 12.8387 49.7386 12.6488 49.7251 12.6498C49.7116 12.6505 49.7004 13.0309 49.7004 13.4946C49.7004 13.9587 49.7116 14.3441 49.7251 14.351Z" fill="white"/>
</g>
<path d="M24.832 45.0627V39.4227H26.808C27.4107 39.4227 27.9227 39.5321 28.344 39.7507C28.7653 39.9694 29.0853 40.2894 29.304 40.7107C29.528 41.1267 29.64 41.6361 29.64 42.2387C29.64 42.8414 29.528 43.3534 29.304 43.7747C29.0853 44.1961 28.7653 44.5161 28.344 44.7347C27.9227 44.9534 27.4107 45.0627 26.808 45.0627H24.832ZM25.544 44.4387H26.768C27.4667 44.4387 27.9947 44.2574 28.352 43.8947C28.7147 43.5321 28.896 42.9801 28.896 42.2387C28.896 41.4974 28.7147 40.9481 28.352 40.5907C27.9947 40.2281 27.4667 40.0467 26.768 40.0467H25.544V44.4387ZM30.8742 40.1587V39.3667H31.7382V40.1587H30.8742ZM30.9542 45.0627V41.1107H31.6662V45.0627H30.9542ZM33.103 45.0627V41.1107H33.759V41.9747C33.8283 41.7987 33.9243 41.6414 34.047 41.5027C34.175 41.3587 34.327 41.2467 34.503 41.1667C34.6843 41.0814 34.8817 41.0387 35.095 41.0387C35.4417 41.0387 35.727 41.1241 35.951 41.2947C36.175 41.4654 36.3137 41.6894 36.367 41.9667H36.359C36.4657 41.7054 36.6337 41.4867 36.863 41.3107C37.0977 41.1294 37.391 41.0387 37.743 41.0387C38.0417 41.0387 38.295 41.0974 38.503 41.2147C38.711 41.3267 38.8683 41.5001 38.975 41.7347C39.0817 41.9694 39.135 42.2654 39.135 42.6227V45.0627H38.431V42.6707C38.431 42.3294 38.3697 42.0734 38.247 41.9027C38.1243 41.7321 37.9057 41.6467 37.591 41.6467C37.3563 41.6467 37.1537 41.7001 36.983 41.8067C36.8177 41.9081 36.6897 42.0521 36.599 42.2387C36.5137 42.4201 36.471 42.6254 36.471 42.8547V45.0627H35.767V42.6707C35.767 42.3347 35.6977 42.0814 35.559 41.9107C35.4203 41.7347 35.2097 41.6467 34.927 41.6467C34.6977 41.6467 34.4977 41.7054 34.327 41.8227C34.1617 41.9347 34.0337 42.0814 33.943 42.2627C33.8523 42.4441 33.807 42.6361 33.807 42.8387V45.0627H33.103ZM42.4676 45.1347C42.0249 45.1347 41.6409 45.0547 41.3156 44.8947C40.9956 44.7294 40.7502 44.4947 40.5796 44.1907C40.4089 43.8814 40.3236 43.5134 40.3236 43.0867C40.3236 42.6867 40.4036 42.3347 40.5636 42.0307C40.7236 41.7214 40.9502 41.4787 41.2436 41.3027C41.5369 41.1267 41.8862 41.0387 42.2916 41.0387C42.6756 41.0387 43.0009 41.1214 43.2676 41.2867C43.5396 41.4521 43.7449 41.6841 43.8836 41.9827C44.0276 42.2814 44.0996 42.6361 44.0996 43.0467V43.2787H40.8596V42.7827H43.6356L43.4836 42.9427C43.4836 42.5054 43.3796 42.1694 43.1716 41.9347C42.9689 41.7001 42.6756 41.5827 42.2916 41.5827C42.0409 41.5827 41.8169 41.6414 41.6196 41.7587C41.4276 41.8707 41.2782 42.0307 41.1716 42.2387C41.0649 42.4467 41.0116 42.7001 41.0116 42.9987V43.0787C41.0116 43.3987 41.0702 43.6681 41.1876 43.8867C41.3049 44.1054 41.4729 44.2707 41.6916 44.3827C41.9102 44.4947 42.1716 44.5507 42.4756 44.5507C42.6942 44.5507 42.9156 44.5214 43.1396 44.4627C43.3689 44.3987 43.5822 44.2867 43.7796 44.1267L44.0196 44.6387C43.8169 44.8094 43.5742 44.9347 43.2916 45.0147C43.0142 45.0947 42.7396 45.1347 42.4676 45.1347ZM45.2745 45.0627V41.1107H45.9385V41.9667C46.0665 41.6734 46.2585 41.4467 46.5145 41.2867C46.7705 41.1214 47.0585 41.0387 47.3785 41.0387C47.7038 41.0387 47.9758 41.0974 48.1945 41.2147C48.4132 41.3267 48.5758 41.5027 48.6825 41.7427C48.7945 41.9774 48.8505 42.2707 48.8505 42.6227V45.0627H48.1385V42.6627C48.1385 42.4494 48.1092 42.2681 48.0505 42.1187C47.9918 41.9694 47.8932 41.8547 47.7545 41.7747C47.6212 41.6894 47.4425 41.6467 47.2185 41.6467C46.9838 41.6467 46.7705 41.7001 46.5785 41.8067C46.3918 41.9134 46.2452 42.0574 46.1385 42.2387C46.0372 42.4201 45.9865 42.6227 45.9865 42.8467V45.0627H45.2745ZM51.7149 45.1347C51.4962 45.1347 51.2802 45.1134 51.0669 45.0707C50.8589 45.0334 50.6642 44.9801 50.4829 44.9107C50.3069 44.8361 50.1549 44.7454 50.0269 44.6387L50.2589 44.1347C50.3922 44.2361 50.5389 44.3187 50.6989 44.3827C50.8642 44.4467 51.0322 44.4947 51.2029 44.5267C51.3789 44.5534 51.5469 44.5667 51.7069 44.5667C52.0375 44.5667 52.2909 44.5161 52.4669 44.4147C52.6482 44.3134 52.7389 44.1721 52.7389 43.9907C52.7389 43.8361 52.6855 43.7187 52.5789 43.6387C52.4775 43.5534 52.3069 43.4894 52.0669 43.4467L51.2429 43.3027C50.8749 43.2334 50.5975 43.1081 50.4109 42.9267C50.2295 42.7454 50.1389 42.5081 50.1389 42.2147C50.1389 41.9801 50.2029 41.7747 50.3309 41.5987C50.4642 41.4227 50.6535 41.2867 50.8989 41.1907C51.1442 41.0894 51.4375 41.0387 51.7789 41.0387C51.9655 41.0387 52.1549 41.0574 52.3469 41.0947C52.5442 41.1321 52.7255 41.1881 52.8909 41.2627C53.0615 41.3321 53.2002 41.4201 53.3069 41.5267L53.0669 42.0307C52.9602 41.9294 52.8322 41.8494 52.6829 41.7907C52.5389 41.7267 52.3869 41.6814 52.2269 41.6547C52.0722 41.6227 51.9202 41.6067 51.7709 41.6067C51.4615 41.6067 51.2215 41.6601 51.0509 41.7667C50.8802 41.8681 50.7949 42.0121 50.7949 42.1987C50.7949 42.3481 50.8429 42.4654 50.9389 42.5507C51.0402 42.6361 51.2029 42.7001 51.4269 42.7427L52.2269 42.8867C52.6215 42.9614 52.9149 43.0867 53.1069 43.2627C53.2989 43.4334 53.3949 43.6707 53.3949 43.9747C53.3949 44.2094 53.3255 44.4147 53.1869 44.5907C53.0482 44.7614 52.8535 44.8947 52.6029 44.9907C52.3522 45.0867 52.0562 45.1347 51.7149 45.1347ZM54.4914 40.1587V39.3667H55.3554V40.1587H54.4914ZM54.5714 45.0627V41.1107H55.2834V45.0627H54.5714ZM58.4242 45.1347C58.0242 45.1347 57.6775 45.0494 57.3842 44.8787C57.0909 44.7081 56.8642 44.4707 56.7042 44.1667C56.5442 43.8574 56.4642 43.4947 56.4642 43.0787C56.4642 42.6681 56.5442 42.3107 56.7042 42.0067C56.8642 41.6974 57.0909 41.4601 57.3842 41.2947C57.6775 41.1241 58.0242 41.0387 58.4242 41.0387C58.8242 41.0387 59.1682 41.1241 59.4562 41.2947C59.7495 41.4601 59.9762 41.6974 60.1362 42.0067C60.2962 42.3107 60.3762 42.6681 60.3762 43.0787C60.3762 43.4947 60.2962 43.8574 60.1362 44.1667C59.9815 44.4707 59.7575 44.7081 59.4642 44.8787C59.1709 45.0494 58.8242 45.1347 58.4242 45.1347ZM58.4162 44.5347C58.8055 44.5347 59.1122 44.4041 59.3362 44.1427C59.5602 43.8814 59.6722 43.5267 59.6722 43.0787C59.6722 42.6307 59.5602 42.2787 59.3362 42.0227C59.1175 41.7667 58.8135 41.6387 58.4242 41.6387C58.0349 41.6387 57.7282 41.7667 57.5042 42.0227C57.2802 42.2787 57.1682 42.6307 57.1682 43.0787C57.1682 43.5267 57.2802 43.8814 57.5042 44.1427C57.7335 44.4041 58.0375 44.5347 58.4162 44.5347ZM61.5714 45.0627V41.1107H62.2354V41.9667C62.3634 41.6734 62.5554 41.4467 62.8114 41.2867C63.0674 41.1214 63.3554 41.0387 63.6754 41.0387C64.0007 41.0387 64.2727 41.0974 64.4914 41.2147C64.71 41.3267 64.8727 41.5027 64.9794 41.7427C65.0914 41.9774 65.1474 42.2707 65.1474 42.6227V45.0627H64.4354V42.6627C64.4354 42.4494 64.406 42.2681 64.3474 42.1187C64.2887 41.9694 64.19 41.8547 64.0514 41.7747C63.918 41.6894 63.7394 41.6467 63.5154 41.6467C63.2807 41.6467 63.0674 41.7001 62.8754 41.8067C62.6887 41.9134 62.542 42.0574 62.4354 42.2387C62.334 42.4201 62.2834 42.6227 62.2834 42.8467V45.0627H61.5714Z" fill="#CE3439"/>
<path d="M27.7398 58.0627L30.4998 52.7107L30.5318 53.0547H27.3558V52.4227H31.1238V52.9587L28.5158 58.0627H27.7398ZM34.1046 58.1347C33.8593 58.1347 33.622 58.1081 33.3926 58.0547C33.1686 58.0014 32.958 57.9241 32.7606 57.8227C32.5633 57.7161 32.3873 57.5881 32.2326 57.4387L32.5126 56.8787C32.758 57.1027 33.0086 57.2654 33.2646 57.3667C33.526 57.4627 33.806 57.5107 34.1046 57.5107C34.4993 57.5107 34.806 57.4094 35.0246 57.2067C35.2486 56.9987 35.3606 56.7081 35.3606 56.3347C35.3606 55.9667 35.2566 55.6734 35.0486 55.4547C34.8406 55.2361 34.5526 55.1267 34.1846 55.1267C33.9393 55.1267 33.7153 55.1774 33.5126 55.2787C33.3153 55.3747 33.1313 55.5374 32.9606 55.7667H32.4006V52.4227H35.7766V53.0387H33.0486V55.1587H33.0166C33.1446 54.9667 33.3206 54.8121 33.5446 54.6947C33.7686 54.5721 34.0193 54.5107 34.2966 54.5107C34.6593 54.5107 34.9713 54.5881 35.2326 54.7427C35.494 54.8921 35.694 55.1001 35.8326 55.3667C35.9766 55.6334 36.0486 55.9454 36.0486 56.3027C36.0486 56.6814 35.9686 57.0094 35.8086 57.2867C35.6486 57.5587 35.4246 57.7694 35.1366 57.9187C34.8486 58.0627 34.5046 58.1347 34.1046 58.1347ZM37.7575 55.3747L37.2855 55.0947L37.9895 54.0307L38.0055 54.0547L36.7175 54.1347V53.5827L38.0055 53.6627L37.9815 53.6787L37.2855 52.6227L37.7655 52.3427L38.3335 53.5267H38.3255L38.8775 52.3427L39.3575 52.6227L38.6535 53.6787L38.6295 53.6627L39.9255 53.5827V54.1347L38.6375 54.0547L38.6615 54.0307L39.3575 55.0947L38.8855 55.3747L38.3255 54.1987H38.3335L37.7575 55.3747ZM43.2511 58.0627V56.8947H40.6191V56.3587L43.2191 52.4227H43.9311V56.2947H44.7151V56.8947H43.9311V58.0627H43.2511ZM43.2751 56.2947V53.3027H43.3071L41.2431 56.4307L41.1871 56.2947H43.2751ZM47.464 58.1347C47.2187 58.1347 46.9813 58.1081 46.752 58.0547C46.528 58.0014 46.3173 57.9241 46.12 57.8227C45.9227 57.7161 45.7467 57.5881 45.592 57.4387L45.872 56.8787C46.1173 57.1027 46.368 57.2654 46.624 57.3667C46.8853 57.4627 47.1653 57.5107 47.464 57.5107C47.8587 57.5107 48.1653 57.4094 48.384 57.2067C48.608 56.9987 48.72 56.7081 48.72 56.3347C48.72 55.9667 48.616 55.6734 48.408 55.4547C48.2 55.2361 47.912 55.1267 47.544 55.1267C47.2987 55.1267 47.0747 55.1774 46.872 55.2787C46.6747 55.3747 46.4907 55.5374 46.32 55.7667H45.76V52.4227H49.136V53.0387H46.408V55.1587H46.376C46.504 54.9667 46.68 54.8121 46.904 54.6947C47.128 54.5721 47.3787 54.5107 47.656 54.5107C48.0187 54.5107 48.3307 54.5881 48.592 54.7427C48.8533 54.8921 49.0533 55.1001 49.192 55.3667C49.336 55.6334 49.408 55.9454 49.408 56.3027C49.408 56.6814 49.328 57.0094 49.168 57.2867C49.008 57.5587 48.784 57.7694 48.496 57.9187C48.208 58.0627 47.864 58.1347 47.464 58.1347ZM51.1169 55.3747L50.6449 55.0947L51.3489 54.0307L51.3649 54.0547L50.0769 54.1347V53.5827L51.3649 53.6627L51.3409 53.6787L50.6449 52.6227L51.1249 52.3427L51.6929 53.5267H51.6849L52.2369 52.3427L52.7169 52.6227L52.0129 53.6787L51.9889 53.6627L53.2849 53.5827V54.1347L51.9969 54.0547L52.0209 54.0307L52.7169 55.0947L52.2449 55.3747L51.6849 54.1987H51.6929L51.1169 55.3747ZM55.6105 58.1347C55.4025 58.1347 55.1998 58.1107 55.0025 58.0627C54.8105 58.0147 54.6265 57.9427 54.4505 57.8467C54.2798 57.7454 54.1198 57.6227 53.9705 57.4787L54.2425 56.9347C54.4612 57.1534 54.6825 57.3054 54.9065 57.3907C55.1305 57.4707 55.3678 57.5107 55.6185 57.5107C55.8798 57.5107 56.1092 57.4627 56.3065 57.3667C56.5092 57.2654 56.6798 57.1187 56.8185 56.9267C56.9572 56.7294 57.0612 56.4867 57.1305 56.1987C57.1998 55.9107 57.2345 55.5801 57.2345 55.2067V54.7427H57.2265C57.1838 54.9934 57.0878 55.2121 56.9385 55.3987C56.7945 55.5801 56.6158 55.7187 56.4025 55.8147C56.1892 55.9107 55.9545 55.9587 55.6985 55.9587C55.3625 55.9587 55.0638 55.8841 54.8025 55.7347C54.5412 55.5854 54.3358 55.3774 54.1865 55.1107C54.0425 54.8441 53.9705 54.5347 53.9705 54.1827C53.9705 53.8307 54.0478 53.5161 54.2025 53.2387C54.3572 52.9614 54.5705 52.7454 54.8425 52.5907C55.1145 52.4307 55.4265 52.3507 55.7785 52.3507C56.2372 52.3507 56.6238 52.4601 56.9385 52.6787C57.2532 52.8921 57.4905 53.2041 57.6505 53.6147C57.8105 54.0254 57.8905 54.5267 57.8905 55.1187C57.8905 55.7587 57.7998 56.3054 57.6185 56.7587C57.4372 57.2067 57.1758 57.5481 56.8345 57.7827C56.4985 58.0174 56.0905 58.1347 55.6105 58.1347ZM55.8185 55.3667C56.0532 55.3667 56.2612 55.3161 56.4425 55.2147C56.6238 55.1134 56.7652 54.9721 56.8665 54.7907C56.9678 54.6094 57.0185 54.4014 57.0185 54.1667C57.0185 53.9214 56.9678 53.7081 56.8665 53.5267C56.7705 53.3454 56.6318 53.2067 56.4505 53.1107C56.2692 53.0094 56.0558 52.9587 55.8105 52.9587C55.5758 52.9587 55.3705 53.0094 55.1945 53.1107C55.0185 53.2121 54.8798 53.3534 54.7785 53.5347C54.6825 53.7161 54.6345 53.9267 54.6345 54.1667C54.6345 54.4014 54.6852 54.6094 54.7865 54.7907C54.8878 54.9721 55.0265 55.1134 55.2025 55.2147C55.3785 55.3161 55.5838 55.3667 55.8185 55.3667ZM60.8234 58.1347C60.578 58.1347 60.3407 58.1081 60.1114 58.0547C59.8874 58.0014 59.6767 57.9241 59.4794 57.8227C59.282 57.7161 59.106 57.5881 58.9514 57.4387L59.2314 56.8787C59.4767 57.1027 59.7274 57.2654 59.9834 57.3667C60.2447 57.4627 60.5247 57.5107 60.8234 57.5107C61.218 57.5107 61.5247 57.4094 61.7434 57.2067C61.9674 56.9987 62.0794 56.7081 62.0794 56.3347C62.0794 55.9667 61.9754 55.6734 61.7674 55.4547C61.5594 55.2361 61.2714 55.1267 60.9034 55.1267C60.658 55.1267 60.434 55.1774 60.2314 55.2787C60.034 55.3747 59.85 55.5374 59.6794 55.7667H59.1194V52.4227H62.4954V53.0387H59.7674V55.1587H59.7354C59.8634 54.9667 60.0394 54.8121 60.2634 54.6947C60.4874 54.5721 60.738 54.5107 61.0154 54.5107C61.378 54.5107 61.69 54.5881 61.9514 54.7427C62.2127 54.8921 62.4127 55.1001 62.5514 55.3667C62.6954 55.6334 62.7674 55.9454 62.7674 56.3027C62.7674 56.6814 62.6874 57.0094 62.5274 57.2867C62.3674 57.5587 62.1434 57.7694 61.8554 57.9187C61.5674 58.0627 61.2234 58.1347 60.8234 58.1347Z" fill="black"/>
<defs>
<filter id="filter0_d_535_573" x="0.0999999" y="24" width="89.8" height="57.9" filterUnits="userSpaceOnUse" color-interpolation-filters="sRGB">
<feFlood flood-opacity="0" result="BackgroundImageFix"/>
<feColorMatrix in="SourceAlpha" type="matrix" values="0 0 0 0 0 0 0 0 0 0 0 0 0 0 0 0 0 0 127 0" result="hardAlpha"/>
<feOffset dy="4"/>
<feGaussianBlur stdDeviation="1.95"/>
<feComposite in2="hardAlpha" operator="out"/>
<feColorMatrix type="matrix" values="0 0 0 0 0 0 0 0 0 0 0 0 0 0 0 0 0 0 0.2 0"/>
<feBlend mode="normal" in2="BackgroundImageFix" result="effect1_dropShadow_535_573"/>
<feBlend mode="normal" in="SourceGraphic" in2="effect1_dropShadow_535_573" result="shape"/>
</filter>
<clipPath id="clip0_535_573">
<rect width="16.8475" height="16.9358" fill="white" transform="translate(35.2881 7.29248)"/>
</clipPath>
</defs>
</svg>
