<svg width="292" height="28" viewBox="0 0 292 28" fill="none" xmlns="http://www.w3.org/2000/svg">
<path d="M0.0440001 9V0.539999H1.028V9H0.0440001ZM2.98231 9V3.168H3.93031V4.464H3.79831C3.96631 4 4.23831 3.652 4.61431 3.42C4.99831 3.18 5.43831 3.06 5.93431 3.06C6.39831 3.06 6.78231 3.144 7.08631 3.312C7.39831 3.472 7.63031 3.724 7.78231 4.068C7.93431 4.412 8.01031 4.844 8.01031 5.364V9H7.03831V5.424C7.03831 5.064 6.99031 4.768 6.89431 4.536C6.80631 4.304 6.66231 4.132 6.46231 4.02C6.27031 3.908 6.01831 3.852 5.70631 3.852C5.35431 3.852 5.04631 3.928 4.78231 4.08C4.51831 4.232 4.31431 4.444 4.17031 4.716C4.02631 4.988 3.95431 5.308 3.95431 5.676V9H2.98231ZM12.0226 9.108C11.5026 9.108 11.0466 8.984 10.6546 8.736C10.2706 8.488 9.97063 8.14 9.75463 7.692C9.54663 7.236 9.44263 6.7 9.44263 6.084C9.44263 5.46 9.54663 4.924 9.75463 4.476C9.97063 4.02 10.2706 3.672 10.6546 3.432C11.0466 3.184 11.5026 3.06 12.0226 3.06C12.5506 3.06 13.0026 3.192 13.3786 3.456C13.7546 3.72 14.0066 4.076 14.1346 4.524H14.0026V0.539999H14.9746V9H14.0266V7.608H14.1466C14.0186 8.064 13.7626 8.428 13.3786 8.7C13.0026 8.972 12.5506 9.108 12.0226 9.108ZM12.2266 8.328C12.7786 8.328 13.2146 8.136 13.5346 7.752C13.8626 7.36 14.0266 6.804 14.0266 6.084C14.0266 5.356 13.8626 4.8 13.5346 4.416C13.2146 4.032 12.7786 3.84 12.2266 3.84C11.6826 3.84 11.2466 4.032 10.9186 4.416C10.5906 4.8 10.4266 5.356 10.4266 6.084C10.4266 6.804 10.5906 7.36 10.9186 7.752C11.2466 8.136 11.6826 8.328 12.2266 8.328ZM16.6787 1.716V0.624H17.8787V1.716H16.6787ZM16.7987 9V3.168H17.7707V9H16.7987ZM21.4238 9.108C21.0238 9.108 20.6638 9.032 20.3438 8.88C20.0318 8.72 19.7838 8.504 19.5998 8.232C19.4158 7.96 19.3238 7.656 19.3238 7.32C19.3238 6.888 19.4318 6.548 19.6478 6.3C19.8718 6.052 20.2358 5.876 20.7398 5.772C21.2518 5.668 21.9478 5.616 22.8278 5.616H23.3678V6.252H22.8398C22.3518 6.252 21.9438 6.268 21.6158 6.3C21.2878 6.332 21.0278 6.388 20.8358 6.468C20.6438 6.548 20.5078 6.652 20.4278 6.78C20.3478 6.908 20.3078 7.068 20.3078 7.26C20.3078 7.588 20.4198 7.856 20.6438 8.064C20.8758 8.272 21.1878 8.376 21.5798 8.376C21.8998 8.376 22.1798 8.3 22.4198 8.148C22.6678 7.996 22.8598 7.788 22.9958 7.524C23.1398 7.26 23.2118 6.956 23.2118 6.612V5.244C23.2118 4.748 23.1118 4.392 22.9118 4.176C22.7118 3.952 22.3838 3.84 21.9278 3.84C21.5758 3.84 21.2358 3.892 20.9078 3.996C20.5798 4.092 20.2438 4.252 19.8998 4.476L19.5638 3.768C19.7718 3.624 20.0078 3.5 20.2718 3.396C20.5358 3.284 20.8118 3.2 21.0998 3.144C21.3878 3.088 21.6638 3.06 21.9278 3.06C22.4318 3.06 22.8478 3.144 23.1758 3.312C23.5038 3.472 23.7478 3.72 23.9078 4.056C24.0678 4.384 24.1478 4.808 24.1478 5.328V9H23.2358V7.644H23.3438C23.2798 7.948 23.1558 8.208 22.9718 8.424C22.7958 8.64 22.5758 8.808 22.3118 8.928C22.0478 9.048 21.7518 9.108 21.4238 9.108ZM26.0764 3.144L25.6324 2.784C25.7764 2.64 25.8844 2.5 25.9564 2.364C26.0364 2.228 26.0884 2.096 26.1124 1.968C26.1444 1.84 26.1604 1.708 26.1604 1.572L26.4604 1.764H25.5844V0.539999H26.8084V1.404C26.8084 1.62 26.7844 1.828 26.7364 2.028C26.6964 2.22 26.6244 2.408 26.5204 2.592C26.4164 2.776 26.2684 2.96 26.0764 3.144ZM30.0753 9.108C29.7713 9.108 29.4753 9.076 29.1873 9.012C28.9073 8.956 28.6433 8.876 28.3953 8.772C28.1553 8.66 27.9473 8.528 27.7713 8.376L28.0833 7.692C28.2753 7.844 28.4833 7.972 28.7073 8.076C28.9313 8.172 29.1593 8.244 29.3913 8.292C29.6233 8.34 29.8593 8.364 30.0993 8.364C30.5553 8.364 30.8993 8.28 31.1313 8.112C31.3633 7.944 31.4793 7.716 31.4793 7.428C31.4793 7.204 31.4033 7.028 31.2513 6.9C31.0993 6.764 30.8593 6.66 30.5313 6.588L29.4393 6.348C28.9353 6.244 28.5593 6.064 28.3113 5.808C28.0713 5.552 27.9513 5.22 27.9513 4.812C27.9513 4.452 28.0433 4.144 28.2273 3.888C28.4193 3.624 28.6873 3.42 29.0313 3.276C29.3753 3.132 29.7753 3.06 30.2313 3.06C30.5033 3.06 30.7633 3.088 31.0113 3.144C31.2593 3.2 31.4913 3.284 31.7073 3.396C31.9313 3.5 32.1233 3.632 32.2833 3.792L31.9593 4.476C31.8073 4.332 31.6353 4.212 31.4433 4.116C31.2513 4.012 31.0513 3.936 30.8433 3.888C30.6433 3.832 30.4393 3.804 30.2313 3.804C29.7833 3.804 29.4433 3.892 29.2113 4.068C28.9793 4.244 28.8633 4.476 28.8633 4.764C28.8633 4.988 28.9353 5.172 29.0793 5.316C29.2233 5.46 29.4473 5.564 29.7513 5.628L30.8433 5.856C31.3633 5.968 31.7513 6.148 32.0073 6.396C32.2713 6.636 32.4033 6.964 32.4033 7.38C32.4033 7.732 32.3073 8.04 32.1153 8.304C31.9233 8.56 31.6513 8.76 31.2993 8.904C30.9553 9.04 30.5473 9.108 30.0753 9.108ZM37.0987 9V0.539999H42.3307V1.368H38.0827V4.32H42.0907V5.148H38.0827V9H37.0987ZM43.4209 1.716V0.624H44.6209V1.716H43.4209ZM43.5409 9V3.168H44.5129V9H43.5409ZM46.33 9V3.168H47.278V4.548H47.158C47.294 4.076 47.53 3.72 47.866 3.48C48.202 3.232 48.646 3.088 49.198 3.048L49.546 3.012L49.618 3.852L49.006 3.924C48.462 3.972 48.042 4.148 47.746 4.452C47.458 4.748 47.314 5.156 47.314 5.676V9H46.33ZM52.5402 9.108C52.2362 9.108 51.9402 9.076 51.6522 9.012C51.3722 8.956 51.1082 8.876 50.8602 8.772C50.6202 8.66 50.4122 8.528 50.2362 8.376L50.5482 7.692C50.7402 7.844 50.9482 7.972 51.1722 8.076C51.3962 8.172 51.6242 8.244 51.8562 8.292C52.0882 8.34 52.3242 8.364 52.5642 8.364C53.0202 8.364 53.3642 8.28 53.5962 8.112C53.8282 7.944 53.9442 7.716 53.9442 7.428C53.9442 7.204 53.8682 7.028 53.7162 6.9C53.5642 6.764 53.3242 6.66 52.9962 6.588L51.9042 6.348C51.4002 6.244 51.0242 6.064 50.7762 5.808C50.5362 5.552 50.4162 5.22 50.4162 4.812C50.4162 4.452 50.5082 4.144 50.6922 3.888C50.8842 3.624 51.1522 3.42 51.4962 3.276C51.8402 3.132 52.2402 3.06 52.6962 3.06C52.9682 3.06 53.2282 3.088 53.4762 3.144C53.7242 3.2 53.9562 3.284 54.1722 3.396C54.3962 3.5 54.5882 3.632 54.7482 3.792L54.4242 4.476C54.2722 4.332 54.1002 4.212 53.9082 4.116C53.7162 4.012 53.5162 3.936 53.3082 3.888C53.1082 3.832 52.9042 3.804 52.6962 3.804C52.2482 3.804 51.9082 3.892 51.6762 4.068C51.4442 4.244 51.3282 4.476 51.3282 4.764C51.3282 4.988 51.4002 5.172 51.5442 5.316C51.6882 5.46 51.9122 5.564 52.2162 5.628L53.3082 5.856C53.8282 5.968 54.2162 6.148 54.4722 6.396C54.7362 6.636 54.8682 6.964 54.8682 7.38C54.8682 7.732 54.7722 8.04 54.5802 8.304C54.3882 8.56 54.1162 8.76 53.7642 8.904C53.4202 9.04 53.0122 9.108 52.5402 9.108ZM58.6309 9.108C57.9429 9.108 57.4269 8.924 57.0829 8.556C56.7389 8.188 56.5669 7.664 56.5669 6.984V3.924H55.4269V3.168H56.5669V1.38H57.5389V3.168H59.3869V3.924H57.5389V6.888C57.5389 7.344 57.6349 7.692 57.8269 7.932C58.0189 8.164 58.3309 8.28 58.7629 8.28C58.8909 8.28 59.0189 8.264 59.1469 8.232C59.2749 8.2 59.3909 8.168 59.4949 8.136L59.6629 8.88C59.5589 8.936 59.4069 8.988 59.2069 9.036C59.0069 9.084 58.8149 9.108 58.6309 9.108ZM63.7363 9V8.256L66.6283 5.136C66.9003 4.84 67.1203 4.564 67.2883 4.308C67.4563 4.044 67.5803 3.788 67.6603 3.54C67.7403 3.292 67.7803 3.04 67.7803 2.784C67.7803 2.304 67.6323 1.94 67.3363 1.692C67.0483 1.436 66.6243 1.308 66.0643 1.308C65.6323 1.308 65.2283 1.388 64.8523 1.548C64.4843 1.7 64.1323 1.94 63.7963 2.268L63.4243 1.5C63.7363 1.18 64.1323 0.924 64.6123 0.732C65.1003 0.532 65.6123 0.431999 66.1483 0.431999C66.7163 0.431999 67.1963 0.52 67.5883 0.696C67.9803 0.872 68.2763 1.132 68.4763 1.476C68.6763 1.812 68.7763 2.224 68.7763 2.712C68.7763 2.968 68.7443 3.22 68.6803 3.468C68.6243 3.708 68.5323 3.952 68.4043 4.2C68.2843 4.44 68.1283 4.688 67.9363 4.944C67.7523 5.2 67.5283 5.464 67.2643 5.736L64.7203 8.436V8.16H69.1243V9H63.7363ZM73.6316 9.108C73.2716 9.108 72.9196 9.068 72.5756 8.988C72.2316 8.908 71.9076 8.792 71.6036 8.64C71.3076 8.488 71.0436 8.308 70.8116 8.1L71.1836 7.32C71.5676 7.632 71.9556 7.864 72.3476 8.016C72.7476 8.16 73.1716 8.232 73.6196 8.232C74.2116 8.232 74.6716 8.068 74.9996 7.74C75.3356 7.412 75.5036 6.98 75.5036 6.444C75.5036 5.892 75.3436 5.44 75.0236 5.088C74.7036 4.736 74.2636 4.56 73.7036 4.56C73.2956 4.56 72.9356 4.644 72.6236 4.812C72.3196 4.972 72.0436 5.224 71.7956 5.568H71.0756V0.539999H75.9836V1.38H72.0476V4.752H71.7836C71.9916 4.416 72.2796 4.16 72.6476 3.984C73.0156 3.8 73.4276 3.708 73.8836 3.708C74.4196 3.708 74.8796 3.82 75.2636 4.044C75.6556 4.268 75.9556 4.584 76.1636 4.992C76.3796 5.392 76.4876 5.86 76.4876 6.396C76.4876 6.924 76.3716 7.392 76.1396 7.8C75.9076 8.208 75.5796 8.528 75.1556 8.76C74.7316 8.992 74.2236 9.108 73.6316 9.108ZM80.6469 9.108C80.0069 9.108 79.4629 8.944 79.0149 8.616C78.5749 8.28 78.2429 7.788 78.0189 7.14C77.7949 6.492 77.6829 5.7 77.6829 4.764C77.6829 3.82 77.7949 3.028 78.0189 2.388C78.2429 1.74 78.5749 1.252 79.0149 0.924C79.4629 0.595999 80.0069 0.431999 80.6469 0.431999C81.2949 0.431999 81.8389 0.595999 82.2789 0.924C82.7189 1.252 83.0509 1.736 83.2749 2.376C83.4989 3.016 83.6109 3.808 83.6109 4.752C83.6109 5.696 83.4989 6.492 83.2749 7.14C83.0509 7.788 82.7189 8.28 82.2789 8.616C81.8389 8.944 81.2949 9.108 80.6469 9.108ZM80.6469 8.256C81.3189 8.256 81.8149 7.972 82.1349 7.404C82.4629 6.836 82.6269 5.952 82.6269 4.752C82.6269 3.552 82.4669 2.676 82.1469 2.124C81.8269 1.564 81.3269 1.284 80.6469 1.284C79.9829 1.284 79.4869 1.564 79.1589 2.124C78.8309 2.684 78.6669 3.56 78.6669 4.752C78.6669 5.952 78.8269 6.836 79.1469 7.404C79.4749 7.972 79.9749 8.256 80.6469 8.256ZM85.1782 9V3.168H86.1262V4.464H85.9942C86.0902 4.168 86.2302 3.916 86.4142 3.708C86.6062 3.492 86.8302 3.332 87.0862 3.228C87.3502 3.116 87.6382 3.06 87.9502 3.06C88.4462 3.06 88.8462 3.18 89.1502 3.42C89.4622 3.652 89.6702 4.016 89.7742 4.512H89.5942C89.7382 4.064 89.9942 3.712 90.3622 3.456C90.7382 3.192 91.1742 3.06 91.6702 3.06C92.1102 3.06 92.4702 3.144 92.7502 3.312C93.0382 3.48 93.2542 3.736 93.3982 4.08C93.5422 4.416 93.6142 4.844 93.6142 5.364V9H92.6422V5.412C92.6422 4.876 92.5502 4.484 92.3662 4.236C92.1822 3.98 91.8702 3.852 91.4302 3.852C91.1182 3.852 90.8422 3.928 90.6022 4.08C90.3702 4.232 90.1902 4.448 90.0622 4.728C89.9422 5 89.8822 5.324 89.8822 5.7V9H88.9102V5.412C88.9102 4.876 88.8142 4.484 88.6222 4.236C88.4382 3.98 88.1302 3.852 87.6982 3.852C87.3782 3.852 87.1022 3.928 86.8702 4.08C86.6382 4.232 86.4582 4.448 86.3302 4.728C86.2102 5 86.1502 5.324 86.1502 5.7V9H85.1782ZM97.2195 9.108C96.6275 9.108 96.1795 8.932 95.8755 8.58C95.5795 8.228 95.4315 7.724 95.4315 7.068V0.539999H96.4035V6.996C96.4035 7.276 96.4395 7.512 96.5115 7.704C96.5915 7.896 96.7075 8.04 96.8595 8.136C97.0115 8.232 97.1995 8.28 97.4235 8.28C97.5195 8.28 97.6115 8.276 97.6995 8.268C97.7955 8.252 97.8835 8.232 97.9635 8.208L97.9395 9.024C97.8115 9.048 97.6875 9.068 97.5675 9.084C97.4555 9.1 97.3395 9.108 97.2195 9.108ZM102.196 9V0.539999H103.18V8.136H107.488V9H102.196ZM111.149 9.108C110.533 9.108 110.001 8.988 109.553 8.748C109.113 8.5 108.769 8.152 108.521 7.704C108.281 7.256 108.161 6.72 108.161 6.096C108.161 5.488 108.281 4.96 108.521 4.512C108.761 4.056 109.089 3.7 109.505 3.444C109.929 3.188 110.417 3.06 110.969 3.06C111.497 3.06 111.949 3.176 112.325 3.408C112.701 3.64 112.989 3.968 113.189 4.392C113.397 4.816 113.501 5.324 113.501 5.916V6.288H108.905V5.652H112.853L112.661 5.808C112.661 5.168 112.517 4.672 112.229 4.32C111.949 3.96 111.537 3.78 110.993 3.78C110.585 3.78 110.237 3.876 109.949 4.068C109.669 4.252 109.457 4.512 109.313 4.848C109.169 5.176 109.097 5.56 109.097 6V6.072C109.097 6.56 109.173 6.972 109.325 7.308C109.485 7.644 109.721 7.9 110.033 8.076C110.345 8.244 110.717 8.328 111.149 8.328C111.493 8.328 111.825 8.276 112.145 8.172C112.473 8.06 112.781 7.88 113.069 7.632L113.405 8.316C113.141 8.556 112.805 8.748 112.397 8.892C111.989 9.036 111.573 9.108 111.149 9.108ZM116.744 9.108C116.344 9.108 115.984 9.032 115.664 8.88C115.352 8.72 115.104 8.504 114.92 8.232C114.736 7.96 114.644 7.656 114.644 7.32C114.644 6.888 114.752 6.548 114.968 6.3C115.192 6.052 115.556 5.876 116.06 5.772C116.572 5.668 117.268 5.616 118.148 5.616H118.688V6.252H118.16C117.672 6.252 117.264 6.268 116.936 6.3C116.608 6.332 116.348 6.388 116.156 6.468C115.964 6.548 115.828 6.652 115.748 6.78C115.668 6.908 115.628 7.068 115.628 7.26C115.628 7.588 115.74 7.856 115.964 8.064C116.196 8.272 116.508 8.376 116.9 8.376C117.22 8.376 117.5 8.3 117.74 8.148C117.988 7.996 118.18 7.788 118.316 7.524C118.46 7.26 118.532 6.956 118.532 6.612V5.244C118.532 4.748 118.432 4.392 118.232 4.176C118.032 3.952 117.704 3.84 117.248 3.84C116.896 3.84 116.556 3.892 116.228 3.996C115.9 4.092 115.564 4.252 115.22 4.476L114.884 3.768C115.092 3.624 115.328 3.5 115.592 3.396C115.856 3.284 116.132 3.2 116.42 3.144C116.708 3.088 116.984 3.06 117.248 3.06C117.752 3.06 118.168 3.144 118.496 3.312C118.824 3.472 119.068 3.72 119.228 4.056C119.388 4.384 119.468 4.808 119.468 5.328V9H118.556V7.644H118.664C118.6 7.948 118.476 8.208 118.292 8.424C118.116 8.64 117.896 8.808 117.632 8.928C117.368 9.048 117.072 9.108 116.744 9.108ZM121.271 9V0.539999H122.243V5.76H122.267L124.967 3.168H126.203L122.999 6.24V5.712L126.455 9H125.219L122.267 6.264H122.243V9H121.271ZM126.872 6.204V5.4H130.232V6.204H126.872ZM132.138 9V0.539999H135.486C136.094 0.539999 136.606 0.64 137.022 0.84C137.446 1.032 137.766 1.32 137.982 1.704C138.198 2.08 138.306 2.54 138.306 3.084C138.306 3.612 138.198 4.068 137.982 4.452C137.766 4.836 137.446 5.128 137.022 5.328C136.606 5.528 136.094 5.628 135.486 5.628H133.122V9H132.138ZM133.122 4.8H135.366C136.014 4.8 136.502 4.656 136.83 4.368C137.166 4.072 137.334 3.644 137.334 3.084C137.334 2.516 137.166 2.088 136.83 1.8C136.502 1.504 136.014 1.356 135.366 1.356H133.122V4.8ZM139.482 9V3.168H140.43V4.548H140.31C140.446 4.076 140.682 3.72 141.018 3.48C141.354 3.232 141.798 3.088 142.35 3.048L142.698 3.012L142.77 3.852L142.158 3.924C141.614 3.972 141.194 4.148 140.898 4.452C140.61 4.748 140.466 5.156 140.466 5.676V9H139.482ZM146.137 9.108C145.569 9.108 145.077 8.984 144.661 8.736C144.245 8.488 143.921 8.14 143.689 7.692C143.465 7.236 143.353 6.7 143.353 6.084C143.353 5.468 143.465 4.936 143.689 4.488C143.921 4.032 144.245 3.68 144.661 3.432C145.077 3.184 145.569 3.06 146.137 3.06C146.705 3.06 147.197 3.184 147.613 3.432C148.029 3.68 148.349 4.032 148.573 4.488C148.805 4.936 148.921 5.468 148.921 6.084C148.921 6.7 148.805 7.236 148.573 7.692C148.349 8.14 148.029 8.488 147.613 8.736C147.197 8.984 146.705 9.108 146.137 9.108ZM146.137 8.328C146.689 8.328 147.125 8.136 147.445 7.752C147.773 7.36 147.937 6.8 147.937 6.072C147.937 5.352 147.773 4.8 147.445 4.416C147.125 4.032 146.689 3.84 146.137 3.84C145.593 3.84 145.157 4.032 144.829 4.416C144.501 4.8 144.337 5.352 144.337 6.072C144.337 6.8 144.501 7.36 144.829 7.752C145.157 8.136 145.593 8.328 146.137 8.328ZM152.805 9.108C152.237 9.108 151.745 8.984 151.329 8.736C150.913 8.488 150.589 8.14 150.357 7.692C150.133 7.236 150.021 6.7 150.021 6.084C150.021 5.468 150.133 4.936 150.357 4.488C150.589 4.032 150.913 3.68 151.329 3.432C151.745 3.184 152.237 3.06 152.805 3.06C153.373 3.06 153.865 3.184 154.281 3.432C154.697 3.68 155.017 4.032 155.241 4.488C155.473 4.936 155.589 5.468 155.589 6.084C155.589 6.7 155.473 7.236 155.241 7.692C155.017 8.14 154.697 8.488 154.281 8.736C153.865 8.984 153.373 9.108 152.805 9.108ZM152.805 8.328C153.357 8.328 153.793 8.136 154.113 7.752C154.441 7.36 154.605 6.8 154.605 6.072C154.605 5.352 154.441 4.8 154.113 4.416C153.793 4.032 153.357 3.84 152.805 3.84C152.261 3.84 151.825 4.032 151.497 4.416C151.169 4.8 151.005 5.352 151.005 6.072C151.005 6.8 151.169 7.36 151.497 7.752C151.825 8.136 152.261 8.328 152.805 8.328ZM157.302 9V3.924H156.15V3.168H157.566L157.302 3.42V2.964C157.302 2.188 157.494 1.6 157.878 1.2C158.27 0.799999 158.87 0.575999 159.678 0.528L160.146 0.504L160.23 1.248L159.678 1.284C159.35 1.308 159.082 1.38 158.874 1.5C158.666 1.62 158.514 1.792 158.418 2.016C158.322 2.24 158.274 2.516 158.274 2.844V3.348L158.13 3.168H159.954V3.924H158.274V9H157.302ZM166.936 9.108C166.496 9.108 166.08 9.068 165.688 8.988C165.304 8.908 164.948 8.796 164.62 8.652C164.3 8.5 164.008 8.316 163.744 8.1L164.092 7.308C164.364 7.508 164.64 7.68 164.92 7.824C165.208 7.96 165.516 8.064 165.844 8.136C166.18 8.2 166.544 8.232 166.936 8.232C167.656 8.232 168.188 8.1 168.532 7.836C168.884 7.564 169.06 7.208 169.06 6.768C169.06 6.536 169.004 6.336 168.892 6.168C168.788 6 168.612 5.856 168.364 5.736C168.124 5.616 167.808 5.516 167.416 5.436L166.168 5.184C165.416 5.024 164.852 4.764 164.476 4.404C164.108 4.036 163.924 3.548 163.924 2.94C163.924 2.436 164.052 1.996 164.308 1.62C164.572 1.244 164.936 0.951999 165.4 0.744C165.872 0.536 166.408 0.431999 167.008 0.431999C167.392 0.431999 167.756 0.471999 168.1 0.551999C168.444 0.632 168.76 0.752 169.048 0.912C169.344 1.064 169.604 1.252 169.828 1.476L169.48 2.244C169.12 1.916 168.74 1.68 168.34 1.536C167.94 1.384 167.492 1.308 166.996 1.308C166.572 1.308 166.204 1.372 165.892 1.5C165.588 1.628 165.348 1.816 165.172 2.064C165.004 2.304 164.92 2.584 164.92 2.904C164.92 3.288 165.036 3.592 165.268 3.816C165.508 4.04 165.896 4.204 166.432 4.308L167.68 4.572C168.488 4.74 169.084 4.996 169.468 5.34C169.86 5.676 170.056 6.136 170.056 6.72C170.056 7.184 169.928 7.6 169.672 7.968C169.424 8.328 169.064 8.608 168.592 8.808C168.128 9.008 167.576 9.108 166.936 9.108ZM171.331 1.716V0.624H172.531V1.716H171.331ZM171.451 9V3.168H172.423V9H171.451ZM174.24 11.16V3.168H175.188V4.548H175.068C175.196 4.092 175.448 3.732 175.824 3.468C176.208 3.196 176.664 3.06 177.192 3.06C177.712 3.06 178.164 3.184 178.548 3.432C178.94 3.672 179.24 4.02 179.448 4.476C179.664 4.924 179.772 5.46 179.772 6.084C179.772 6.7 179.664 7.236 179.448 7.692C179.24 8.14 178.944 8.488 178.56 8.736C178.176 8.984 177.72 9.108 177.192 9.108C176.664 9.108 176.212 8.976 175.836 8.712C175.46 8.44 175.204 8.08 175.068 7.632H175.212V11.16H174.24ZM176.988 8.328C177.54 8.328 177.976 8.136 178.296 7.752C178.624 7.36 178.788 6.804 178.788 6.084C178.788 5.356 178.624 4.8 178.296 4.416C177.976 4.032 177.54 3.84 176.988 3.84C176.444 3.84 176.008 4.032 175.68 4.416C175.352 4.8 175.188 5.356 175.188 6.084C175.188 6.804 175.352 7.36 175.68 7.752C176.008 8.136 176.444 8.328 176.988 8.328ZM181.236 11.16V3.168H182.184V4.548H182.064C182.192 4.092 182.444 3.732 182.82 3.468C183.204 3.196 183.66 3.06 184.188 3.06C184.708 3.06 185.16 3.184 185.544 3.432C185.936 3.672 186.236 4.02 186.444 4.476C186.66 4.924 186.768 5.46 186.768 6.084C186.768 6.7 186.66 7.236 186.444 7.692C186.236 8.14 185.94 8.488 185.556 8.736C185.172 8.984 184.716 9.108 184.188 9.108C183.66 9.108 183.208 8.976 182.832 8.712C182.456 8.44 182.2 8.08 182.064 7.632H182.208V11.16H181.236ZM183.984 8.328C184.536 8.328 184.972 8.136 185.292 7.752C185.62 7.36 185.784 6.804 185.784 6.084C185.784 5.356 185.62 4.8 185.292 4.416C184.972 4.032 184.536 3.84 183.984 3.84C183.44 3.84 183.004 4.032 182.676 4.416C182.348 4.8 182.184 5.356 182.184 6.084C182.184 6.804 182.348 7.36 182.676 7.752C183.004 8.136 183.44 8.328 183.984 8.328ZM190.86 9.108C190.244 9.108 189.712 8.988 189.264 8.748C188.824 8.5 188.48 8.152 188.232 7.704C187.992 7.256 187.872 6.72 187.872 6.096C187.872 5.488 187.992 4.96 188.232 4.512C188.472 4.056 188.8 3.7 189.216 3.444C189.64 3.188 190.128 3.06 190.68 3.06C191.208 3.06 191.66 3.176 192.036 3.408C192.412 3.64 192.7 3.968 192.9 4.392C193.108 4.816 193.212 5.324 193.212 5.916V6.288H188.616V5.652H192.564L192.372 5.808C192.372 5.168 192.228 4.672 191.94 4.32C191.66 3.96 191.248 3.78 190.704 3.78C190.296 3.78 189.948 3.876 189.66 4.068C189.38 4.252 189.168 4.512 189.024 4.848C188.88 5.176 188.808 5.56 188.808 6V6.072C188.808 6.56 188.884 6.972 189.036 7.308C189.196 7.644 189.432 7.9 189.744 8.076C190.056 8.244 190.428 8.328 190.86 8.328C191.204 8.328 191.536 8.276 191.856 8.172C192.184 8.06 192.492 7.88 192.78 7.632L193.116 8.316C192.852 8.556 192.516 8.748 192.108 8.892C191.7 9.036 191.284 9.108 190.86 9.108ZM194.619 9V3.168H195.567V4.548H195.447C195.583 4.076 195.819 3.72 196.155 3.48C196.491 3.232 196.935 3.088 197.487 3.048L197.835 3.012L197.907 3.852L197.295 3.924C196.751 3.972 196.331 4.148 196.035 4.452C195.747 4.748 195.603 5.156 195.603 5.676V9H194.619ZM205.998 9.108C205.094 9.108 204.33 8.936 203.706 8.592C203.09 8.248 202.622 7.752 202.302 7.104C201.982 6.456 201.822 5.68 201.822 4.776C201.822 3.88 201.982 3.108 202.302 2.46C202.622 1.812 203.082 1.312 203.682 0.96C204.282 0.608 205.006 0.431999 205.854 0.431999C206.254 0.431999 206.63 0.471999 206.982 0.551999C207.342 0.632 207.674 0.752 207.978 0.912C208.29 1.064 208.562 1.256 208.794 1.488L208.41 2.28C208.026 1.944 207.63 1.7 207.222 1.548C206.814 1.396 206.354 1.32 205.842 1.32C204.874 1.32 204.134 1.62 203.622 2.22C203.118 2.82 202.866 3.672 202.866 4.776C202.866 5.896 203.126 6.752 203.646 7.344C204.174 7.936 204.966 8.232 206.022 8.232C206.406 8.232 206.782 8.196 207.15 8.124C207.518 8.044 207.866 7.936 208.194 7.8L207.978 8.364V5.376H205.83V4.596H208.83V8.508C208.614 8.62 208.346 8.724 208.026 8.82C207.706 8.908 207.37 8.976 207.018 9.024C206.666 9.08 206.326 9.108 205.998 9.108ZM212.497 9.108C211.905 9.108 211.457 8.932 211.153 8.58C210.857 8.228 210.709 7.724 210.709 7.068V0.539999H211.681V6.996C211.681 7.276 211.717 7.512 211.789 7.704C211.869 7.896 211.985 8.04 212.137 8.136C212.289 8.232 212.477 8.28 212.701 8.28C212.797 8.28 212.889 8.276 212.977 8.268C213.073 8.252 213.161 8.232 213.241 8.208L213.217 9.024C213.089 9.048 212.965 9.068 212.845 9.084C212.733 9.1 212.617 9.108 212.497 9.108ZM216.096 9.108C215.696 9.108 215.336 9.032 215.016 8.88C214.704 8.72 214.456 8.504 214.272 8.232C214.088 7.96 213.996 7.656 213.996 7.32C213.996 6.888 214.104 6.548 214.32 6.3C214.544 6.052 214.908 5.876 215.412 5.772C215.924 5.668 216.62 5.616 217.5 5.616H218.04V6.252H217.512C217.024 6.252 216.616 6.268 216.288 6.3C215.96 6.332 215.7 6.388 215.508 6.468C215.316 6.548 215.18 6.652 215.1 6.78C215.02 6.908 214.98 7.068 214.98 7.26C214.98 7.588 215.092 7.856 215.316 8.064C215.548 8.272 215.86 8.376 216.252 8.376C216.572 8.376 216.852 8.3 217.092 8.148C217.34 7.996 217.532 7.788 217.668 7.524C217.812 7.26 217.884 6.956 217.884 6.612V5.244C217.884 4.748 217.784 4.392 217.584 4.176C217.384 3.952 217.056 3.84 216.6 3.84C216.248 3.84 215.908 3.892 215.58 3.996C215.252 4.092 214.916 4.252 214.572 4.476L214.236 3.768C214.444 3.624 214.68 3.5 214.944 3.396C215.208 3.284 215.484 3.2 215.772 3.144C216.06 3.088 216.336 3.06 216.6 3.06C217.104 3.06 217.52 3.144 217.848 3.312C218.176 3.472 218.42 3.72 218.58 4.056C218.74 4.384 218.82 4.808 218.82 5.328V9H217.908V7.644H218.016C217.952 7.948 217.828 8.208 217.644 8.424C217.468 8.64 217.248 8.808 216.984 8.928C216.72 9.048 216.424 9.108 216.096 9.108ZM222.591 9.108C222.287 9.108 221.991 9.076 221.703 9.012C221.423 8.956 221.159 8.876 220.911 8.772C220.671 8.66 220.463 8.528 220.287 8.376L220.599 7.692C220.791 7.844 220.999 7.972 221.223 8.076C221.447 8.172 221.675 8.244 221.907 8.292C222.139 8.34 222.375 8.364 222.615 8.364C223.071 8.364 223.415 8.28 223.647 8.112C223.879 7.944 223.995 7.716 223.995 7.428C223.995 7.204 223.919 7.028 223.767 6.9C223.615 6.764 223.375 6.66 223.047 6.588L221.955 6.348C221.451 6.244 221.075 6.064 220.827 5.808C220.587 5.552 220.467 5.22 220.467 4.812C220.467 4.452 220.559 4.144 220.743 3.888C220.935 3.624 221.203 3.42 221.547 3.276C221.891 3.132 222.291 3.06 222.747 3.06C223.019 3.06 223.279 3.088 223.527 3.144C223.775 3.2 224.007 3.284 224.223 3.396C224.447 3.5 224.639 3.632 224.799 3.792L224.475 4.476C224.323 4.332 224.151 4.212 223.959 4.116C223.767 4.012 223.567 3.936 223.359 3.888C223.159 3.832 222.955 3.804 222.747 3.804C222.299 3.804 221.959 3.892 221.727 4.068C221.495 4.244 221.379 4.476 221.379 4.764C221.379 4.988 221.451 5.172 221.595 5.316C221.739 5.46 221.963 5.564 222.267 5.628L223.359 5.856C223.879 5.968 224.267 6.148 224.523 6.396C224.787 6.636 224.919 6.964 224.919 7.38C224.919 7.732 224.823 8.04 224.631 8.304C224.439 8.56 224.167 8.76 223.815 8.904C223.471 9.04 223.063 9.108 222.591 9.108ZM228.368 9.108C228.064 9.108 227.768 9.076 227.48 9.012C227.2 8.956 226.936 8.876 226.688 8.772C226.448 8.66 226.24 8.528 226.064 8.376L226.376 7.692C226.568 7.844 226.776 7.972 227 8.076C227.224 8.172 227.452 8.244 227.684 8.292C227.916 8.34 228.152 8.364 228.392 8.364C228.848 8.364 229.192 8.28 229.424 8.112C229.656 7.944 229.772 7.716 229.772 7.428C229.772 7.204 229.696 7.028 229.544 6.9C229.392 6.764 229.152 6.66 228.824 6.588L227.732 6.348C227.228 6.244 226.852 6.064 226.604 5.808C226.364 5.552 226.244 5.22 226.244 4.812C226.244 4.452 226.336 4.144 226.52 3.888C226.712 3.624 226.98 3.42 227.324 3.276C227.668 3.132 228.068 3.06 228.524 3.06C228.796 3.06 229.056 3.088 229.304 3.144C229.552 3.2 229.784 3.284 230 3.396C230.224 3.5 230.416 3.632 230.576 3.792L230.252 4.476C230.1 4.332 229.928 4.212 229.736 4.116C229.544 4.012 229.344 3.936 229.136 3.888C228.936 3.832 228.732 3.804 228.524 3.804C228.076 3.804 227.736 3.892 227.504 4.068C227.272 4.244 227.156 4.476 227.156 4.764C227.156 4.988 227.228 5.172 227.372 5.316C227.516 5.46 227.74 5.564 228.044 5.628L229.136 5.856C229.656 5.968 230.044 6.148 230.3 6.396C230.564 6.636 230.696 6.964 230.696 7.38C230.696 7.732 230.6 8.04 230.408 8.304C230.216 8.56 229.944 8.76 229.592 8.904C229.248 9.04 228.84 9.108 228.368 9.108ZM237.672 9L234.708 0.539999H235.74L238.344 8.16H237.924L240.576 0.539999H241.368L243.984 8.16H243.612L246.228 0.539999H247.212L244.248 9H243.372L240.828 1.68H241.092L238.524 9H237.672ZM248.347 1.716V0.624H249.547V1.716H248.347ZM248.467 9V3.168H249.439V9H248.467ZM253.596 9.108C252.908 9.108 252.392 8.924 252.048 8.556C251.704 8.188 251.532 7.664 251.532 6.984V3.924H250.392V3.168H251.532V1.38H252.504V3.168H254.352V3.924H252.504V6.888C252.504 7.344 252.6 7.692 252.792 7.932C252.984 8.164 253.296 8.28 253.728 8.28C253.856 8.28 253.984 8.264 254.112 8.232C254.24 8.2 254.356 8.168 254.46 8.136L254.628 8.88C254.524 8.936 254.372 8.988 254.172 9.036C253.972 9.084 253.78 9.108 253.596 9.108ZM255.451 9V0.539999H256.423V4.464H256.267C256.435 4 256.707 3.652 257.083 3.42C257.467 3.18 257.907 3.06 258.403 3.06C258.867 3.06 259.251 3.144 259.555 3.312C259.867 3.48 260.099 3.736 260.251 4.08C260.403 4.416 260.479 4.844 260.479 5.364V9H259.507V5.424C259.507 5.064 259.459 4.768 259.363 4.536C259.275 4.304 259.131 4.132 258.931 4.02C258.739 3.908 258.487 3.852 258.175 3.852C257.823 3.852 257.515 3.928 257.251 4.08C256.987 4.232 256.783 4.444 256.639 4.716C256.495 4.988 256.423 5.308 256.423 5.676V9H255.451ZM0.0440001 25V16.54H5.384V17.368H1.004V20.296H5.132V21.124H1.004V24.172H5.384V25H0.0440001ZM6.90809 25V19.168H7.85609V20.548H7.73609C7.87209 20.076 8.10809 19.72 8.44409 19.48C8.78009 19.232 9.22409 19.088 9.77609 19.048L10.1241 19.012L10.1961 19.852L9.58409 19.924C9.04009 19.972 8.62009 20.148 8.32409 20.452C8.03609 20.748 7.89209 21.156 7.89209 21.676V25H6.90809ZM13.7186 27.268C13.2146 27.268 12.7386 27.2 12.2906 27.064C11.8506 26.936 11.4586 26.74 11.1146 26.476L11.4386 25.768C11.6786 25.936 11.9146 26.072 12.1466 26.176C12.3866 26.288 12.6306 26.368 12.8786 26.416C13.1346 26.464 13.3986 26.488 13.6706 26.488C14.2386 26.488 14.6666 26.336 14.9546 26.032C15.2506 25.728 15.3986 25.288 15.3986 24.712V23.356H15.5186C15.3986 23.82 15.1426 24.188 14.7506 24.46C14.3666 24.732 13.9146 24.868 13.3946 24.868C12.8586 24.868 12.3946 24.748 12.0026 24.508C11.6106 24.26 11.3066 23.916 11.0906 23.476C10.8826 23.036 10.7786 22.528 10.7786 21.952C10.7786 21.376 10.8826 20.872 11.0906 20.44C11.3066 20 11.6106 19.66 12.0026 19.42C12.3946 19.18 12.8586 19.06 13.3946 19.06C13.9226 19.06 14.3786 19.196 14.7626 19.468C15.1466 19.732 15.3946 20.092 15.5066 20.548H15.3986V19.168H16.3466V24.58C16.3466 25.172 16.2466 25.668 16.0466 26.068C15.8546 26.468 15.5626 26.768 15.1706 26.968C14.7786 27.168 14.2946 27.268 13.7186 27.268ZM13.5746 24.076C14.1346 24.076 14.5786 23.884 14.9066 23.5C15.2346 23.116 15.3986 22.6 15.3986 21.952C15.3986 21.304 15.2346 20.792 14.9066 20.416C14.5786 20.032 14.1346 19.84 13.5746 19.84C13.0226 19.84 12.5826 20.032 12.2546 20.416C11.9266 20.792 11.7626 21.304 11.7626 21.952C11.7626 22.6 11.9266 23.116 12.2546 23.5C12.5826 23.884 13.0226 24.076 13.5746 24.076ZM20.5938 25.108C20.0258 25.108 19.5338 24.984 19.1178 24.736C18.7018 24.488 18.3778 24.14 18.1458 23.692C17.9218 23.236 17.8098 22.7 17.8098 22.084C17.8098 21.468 17.9218 20.936 18.1458 20.488C18.3778 20.032 18.7018 19.68 19.1178 19.432C19.5338 19.184 20.0258 19.06 20.5938 19.06C21.1618 19.06 21.6538 19.184 22.0698 19.432C22.4858 19.68 22.8058 20.032 23.0298 20.488C23.2618 20.936 23.3778 21.468 23.3778 22.084C23.3778 22.7 23.2618 23.236 23.0298 23.692C22.8058 24.14 22.4858 24.488 22.0698 24.736C21.6538 24.984 21.1618 25.108 20.5938 25.108ZM20.5938 24.328C21.1458 24.328 21.5818 24.136 21.9018 23.752C22.2298 23.36 22.3938 22.8 22.3938 22.072C22.3938 21.352 22.2298 20.8 21.9018 20.416C21.5818 20.032 21.1458 19.84 20.5938 19.84C20.0498 19.84 19.6138 20.032 19.2858 20.416C18.9578 20.8 18.7938 21.352 18.7938 22.072C18.7938 22.8 18.9578 23.36 19.2858 23.752C19.6138 24.136 20.0498 24.328 20.5938 24.328ZM24.8378 25V19.168H25.7858V20.464H25.6538C25.8218 20 26.0938 19.652 26.4698 19.42C26.8538 19.18 27.2938 19.06 27.7898 19.06C28.2538 19.06 28.6378 19.144 28.9418 19.312C29.2538 19.472 29.4858 19.724 29.6378 20.068C29.7898 20.412 29.8658 20.844 29.8658 21.364V25H28.8938V21.424C28.8938 21.064 28.8458 20.768 28.7498 20.536C28.6618 20.304 28.5178 20.132 28.3178 20.02C28.1258 19.908 27.8738 19.852 27.5618 19.852C27.2098 19.852 26.9018 19.928 26.6378 20.08C26.3738 20.232 26.1698 20.444 26.0258 20.716C25.8818 20.988 25.8098 21.308 25.8098 21.676V25H24.8378ZM34.0821 25.108C33.5141 25.108 33.0221 24.984 32.6061 24.736C32.1901 24.488 31.8661 24.14 31.6341 23.692C31.4101 23.236 31.2981 22.7 31.2981 22.084C31.2981 21.468 31.4101 20.936 31.6341 20.488C31.8661 20.032 32.1901 19.68 32.6061 19.432C33.0221 19.184 33.5141 19.06 34.0821 19.06C34.6501 19.06 35.1421 19.184 35.5581 19.432C35.9741 19.68 36.2941 20.032 36.5181 20.488C36.7501 20.936 36.8661 21.468 36.8661 22.084C36.8661 22.7 36.7501 23.236 36.5181 23.692C36.2941 24.14 35.9741 24.488 35.5581 24.736C35.1421 24.984 34.6501 25.108 34.0821 25.108ZM34.0821 24.328C34.6341 24.328 35.0701 24.136 35.3901 23.752C35.7181 23.36 35.8821 22.8 35.8821 22.072C35.8821 21.352 35.7181 20.8 35.3901 20.416C35.0701 20.032 34.6341 19.84 34.0821 19.84C33.5381 19.84 33.1021 20.032 32.7741 20.416C32.4461 20.8 32.2821 21.352 32.2821 22.072C32.2821 22.8 32.4461 23.36 32.7741 23.752C33.1021 24.136 33.5381 24.328 34.0821 24.328ZM38.3501 25V19.168H39.2981V20.464H39.1661C39.2621 20.168 39.4021 19.916 39.5861 19.708C39.7781 19.492 40.0021 19.332 40.2581 19.228C40.5221 19.116 40.8101 19.06 41.1221 19.06C41.6181 19.06 42.0181 19.18 42.3221 19.42C42.6341 19.652 42.8421 20.016 42.9461 20.512H42.7661C42.9101 20.064 43.1661 19.712 43.5341 19.456C43.9101 19.192 44.3461 19.06 44.8421 19.06C45.2821 19.06 45.6421 19.144 45.9221 19.312C46.2101 19.48 46.4261 19.736 46.5701 20.08C46.7141 20.416 46.7861 20.844 46.7861 21.364V25H45.8141V21.412C45.8141 20.876 45.7221 20.484 45.5381 20.236C45.3541 19.98 45.0421 19.852 44.6021 19.852C44.2901 19.852 44.0141 19.928 43.7741 20.08C43.5421 20.232 43.3621 20.448 43.2341 20.728C43.1141 21 43.0541 21.324 43.0541 21.7V25H42.0821V21.412C42.0821 20.876 41.9861 20.484 41.7941 20.236C41.6101 19.98 41.3021 19.852 40.8701 19.852C40.5501 19.852 40.2741 19.928 40.0421 20.08C39.8101 20.232 39.6301 20.448 39.5021 20.728C39.3821 21 39.3221 21.324 39.3221 21.7V25H38.3501ZM48.4834 17.716V16.624H49.6834V17.716H48.4834ZM48.6034 25V19.168H49.5754V25H48.6034ZM53.8645 25.108C53.2805 25.108 52.7765 24.98 52.3525 24.724C51.9285 24.468 51.6005 24.112 51.3685 23.656C51.1445 23.192 51.0325 22.656 51.0325 22.048C51.0325 21.432 51.1445 20.9 51.3685 20.452C51.6005 20.004 51.9285 19.66 52.3525 19.42C52.7765 19.18 53.2805 19.06 53.8645 19.06C54.2245 19.06 54.5805 19.124 54.9325 19.252C55.2845 19.38 55.5765 19.56 55.8085 19.792L55.4725 20.5C55.2405 20.276 54.9845 20.112 54.7045 20.008C54.4325 19.904 54.1725 19.852 53.9245 19.852C53.3165 19.852 52.8485 20.044 52.5205 20.428C52.1925 20.804 52.0285 21.348 52.0285 22.06C52.0285 22.756 52.1925 23.308 52.5205 23.716C52.8485 24.116 53.3165 24.316 53.9245 24.316C54.1725 24.316 54.4325 24.264 54.7045 24.16C54.9845 24.056 55.2405 23.888 55.4725 23.656L55.8085 24.364C55.5765 24.596 55.2805 24.78 54.9205 24.916C54.5685 25.044 54.2165 25.108 53.8645 25.108ZM60.1612 25V16.54H63.0172C63.9372 16.54 64.7132 16.704 65.3452 17.032C65.9852 17.352 66.4692 17.828 66.7972 18.46C67.1332 19.084 67.3012 19.852 67.3012 20.764C67.3012 21.676 67.1332 22.448 66.7972 23.08C66.4692 23.712 65.9852 24.192 65.3452 24.52C64.7132 24.84 63.9372 25 63.0172 25H60.1612ZM61.1452 24.16H62.9452C64.0572 24.16 64.8852 23.876 65.4292 23.308C65.9812 22.74 66.2572 21.892 66.2572 20.764C66.2572 19.636 65.9812 18.792 65.4292 18.232C64.8772 17.664 64.0492 17.38 62.9452 17.38H61.1452V24.16ZM71.5634 25.108C70.9474 25.108 70.4154 24.988 69.9674 24.748C69.5274 24.5 69.1834 24.152 68.9354 23.704C68.6954 23.256 68.5754 22.72 68.5754 22.096C68.5754 21.488 68.6954 20.96 68.9354 20.512C69.1754 20.056 69.5034 19.7 69.9194 19.444C70.3434 19.188 70.8314 19.06 71.3834 19.06C71.9114 19.06 72.3634 19.176 72.7394 19.408C73.1154 19.64 73.4034 19.968 73.6034 20.392C73.8114 20.816 73.9154 21.324 73.9154 21.916V22.288H69.3194V21.652H73.2674L73.0754 21.808C73.0754 21.168 72.9314 20.672 72.6434 20.32C72.3634 19.96 71.9514 19.78 71.4074 19.78C70.9994 19.78 70.6514 19.876 70.3634 20.068C70.0834 20.252 69.8714 20.512 69.7274 20.848C69.5834 21.176 69.5114 21.56 69.5114 22V22.072C69.5114 22.56 69.5874 22.972 69.7394 23.308C69.8994 23.644 70.1354 23.9 70.4474 24.076C70.7594 24.244 71.1314 24.328 71.5634 24.328C71.9074 24.328 72.2394 24.276 72.5594 24.172C72.8874 24.06 73.1954 23.88 73.4834 23.632L73.8194 24.316C73.5554 24.556 73.2194 24.748 72.8114 24.892C72.4034 25.036 71.9874 25.108 71.5634 25.108ZM77.2902 25.108C76.9862 25.108 76.6902 25.076 76.4022 25.012C76.1222 24.956 75.8582 24.876 75.6102 24.772C75.3702 24.66 75.1622 24.528 74.9862 24.376L75.2982 23.692C75.4902 23.844 75.6982 23.972 75.9222 24.076C76.1462 24.172 76.3742 24.244 76.6062 24.292C76.8382 24.34 77.0742 24.364 77.3142 24.364C77.7702 24.364 78.1142 24.28 78.3462 24.112C78.5782 23.944 78.6942 23.716 78.6942 23.428C78.6942 23.204 78.6182 23.028 78.4662 22.9C78.3142 22.764 78.0742 22.66 77.7462 22.588L76.6542 22.348C76.1502 22.244 75.7742 22.064 75.5262 21.808C75.2862 21.552 75.1662 21.22 75.1662 20.812C75.1662 20.452 75.2582 20.144 75.4422 19.888C75.6342 19.624 75.9022 19.42 76.2462 19.276C76.5902 19.132 76.9902 19.06 77.4462 19.06C77.7182 19.06 77.9782 19.088 78.2262 19.144C78.4742 19.2 78.7062 19.284 78.9222 19.396C79.1462 19.5 79.3382 19.632 79.4982 19.792L79.1742 20.476C79.0222 20.332 78.8502 20.212 78.6582 20.116C78.4662 20.012 78.2662 19.936 78.0582 19.888C77.8582 19.832 77.6542 19.804 77.4462 19.804C76.9982 19.804 76.6582 19.892 76.4262 20.068C76.1942 20.244 76.0782 20.476 76.0782 20.764C76.0782 20.988 76.1502 21.172 76.2942 21.316C76.4382 21.46 76.6622 21.564 76.9662 21.628L78.0582 21.856C78.5782 21.968 78.9662 22.148 79.2222 22.396C79.4862 22.636 79.6182 22.964 79.6182 23.38C79.6182 23.732 79.5222 24.04 79.3302 24.304C79.1382 24.56 78.8662 24.76 78.5142 24.904C78.1702 25.04 77.7622 25.108 77.2902 25.108ZM80.9795 17.716V16.624H82.1795V17.716H80.9795ZM81.0995 25V19.168H82.0715V25H81.0995ZM86.4686 27.268C85.9646 27.268 85.4886 27.2 85.0406 27.064C84.6006 26.936 84.2086 26.74 83.8646 26.476L84.1886 25.768C84.4286 25.936 84.6646 26.072 84.8966 26.176C85.1366 26.288 85.3806 26.368 85.6286 26.416C85.8846 26.464 86.1486 26.488 86.4206 26.488C86.9886 26.488 87.4166 26.336 87.7046 26.032C88.0006 25.728 88.1486 25.288 88.1486 24.712V23.356H88.2686C88.1486 23.82 87.8926 24.188 87.5006 24.46C87.1166 24.732 86.6646 24.868 86.1446 24.868C85.6086 24.868 85.1446 24.748 84.7526 24.508C84.3606 24.26 84.0566 23.916 83.8406 23.476C83.6326 23.036 83.5286 22.528 83.5286 21.952C83.5286 21.376 83.6326 20.872 83.8406 20.44C84.0566 20 84.3606 19.66 84.7526 19.42C85.1446 19.18 85.6086 19.06 86.1446 19.06C86.6726 19.06 87.1286 19.196 87.5126 19.468C87.8966 19.732 88.1446 20.092 88.2566 20.548H88.1486V19.168H89.0966V24.58C89.0966 25.172 88.9966 25.668 88.7966 26.068C88.6046 26.468 88.3126 26.768 87.9206 26.968C87.5286 27.168 87.0446 27.268 86.4686 27.268ZM86.3246 24.076C86.8846 24.076 87.3286 23.884 87.6566 23.5C87.9846 23.116 88.1486 22.6 88.1486 21.952C88.1486 21.304 87.9846 20.792 87.6566 20.416C87.3286 20.032 86.8846 19.84 86.3246 19.84C85.7726 19.84 85.3326 20.032 85.0046 20.416C84.6766 20.792 84.5126 21.304 84.5126 21.952C84.5126 22.6 84.6766 23.116 85.0046 23.5C85.3326 23.884 85.7726 24.076 86.3246 24.076ZM90.9198 25V19.168H91.8678V20.464H91.7358C91.9038 20 92.1758 19.652 92.5518 19.42C92.9358 19.18 93.3758 19.06 93.8718 19.06C94.3358 19.06 94.7198 19.144 95.0238 19.312C95.3358 19.472 95.5678 19.724 95.7198 20.068C95.8718 20.412 95.9478 20.844 95.9478 21.364V25H94.9758V21.424C94.9758 21.064 94.9278 20.768 94.8318 20.536C94.7438 20.304 94.5998 20.132 94.3998 20.02C94.2078 19.908 93.9558 19.852 93.6438 19.852C93.2918 19.852 92.9838 19.928 92.7198 20.08C92.4558 20.232 92.2518 20.444 92.1078 20.716C91.9638 20.988 91.8918 21.308 91.8918 21.676V25H90.9198ZM98.0881 26.368L97.6321 26.02C97.7761 25.868 97.8841 25.724 97.9561 25.588C98.0361 25.46 98.0881 25.328 98.1121 25.192C98.1441 25.064 98.1601 24.932 98.1601 24.796L98.3761 25H97.5841V23.776H98.8081V24.64C98.8081 24.856 98.7841 25.06 98.7361 25.252C98.6961 25.452 98.6241 25.644 98.5201 25.828C98.4161 26.012 98.2721 26.192 98.0881 26.368ZM103.685 25V16.54H107.033C107.641 16.54 108.153 16.64 108.569 16.84C108.993 17.032 109.313 17.32 109.529 17.704C109.745 18.08 109.853 18.54 109.853 19.084C109.853 19.612 109.745 20.068 109.529 20.452C109.313 20.836 108.993 21.128 108.569 21.328C108.153 21.528 107.641 21.628 107.033 21.628H104.669V25H103.685ZM104.669 20.8H106.913C107.561 20.8 108.049 20.656 108.377 20.368C108.713 20.072 108.881 19.644 108.881 19.084C108.881 18.516 108.713 18.088 108.377 17.8C108.049 17.504 107.561 17.356 106.913 17.356H104.669V20.8ZM113.517 25.108C112.901 25.108 112.369 24.988 111.921 24.748C111.481 24.5 111.137 24.152 110.889 23.704C110.649 23.256 110.529 22.72 110.529 22.096C110.529 21.488 110.649 20.96 110.889 20.512C111.129 20.056 111.457 19.7 111.873 19.444C112.297 19.188 112.785 19.06 113.337 19.06C113.865 19.06 114.317 19.176 114.693 19.408C115.069 19.64 115.357 19.968 115.557 20.392C115.765 20.816 115.869 21.324 115.869 21.916V22.288H111.273V21.652H115.221L115.029 21.808C115.029 21.168 114.885 20.672 114.597 20.32C114.317 19.96 113.905 19.78 113.361 19.78C112.953 19.78 112.605 19.876 112.317 20.068C112.037 20.252 111.825 20.512 111.681 20.848C111.537 21.176 111.465 21.56 111.465 22V22.072C111.465 22.56 111.541 22.972 111.693 23.308C111.853 23.644 112.089 23.9 112.401 24.076C112.713 24.244 113.085 24.328 113.517 24.328C113.861 24.328 114.193 24.276 114.513 24.172C114.841 24.06 115.149 23.88 115.437 23.632L115.773 24.316C115.509 24.556 115.173 24.748 114.765 24.892C114.357 25.036 113.941 25.108 113.517 25.108ZM117.275 25V19.168H118.223V20.548H118.103C118.239 20.076 118.475 19.72 118.811 19.48C119.147 19.232 119.591 19.088 120.143 19.048L120.491 19.012L120.563 19.852L119.951 19.924C119.407 19.972 118.987 20.148 118.691 20.452C118.403 20.748 118.259 21.156 118.259 21.676V25H117.275ZM122.204 25V19.924H121.052V19.168H122.468L122.204 19.42V18.964C122.204 18.188 122.396 17.6 122.78 17.2C123.172 16.8 123.772 16.576 124.58 16.528L125.048 16.504L125.132 17.248L124.58 17.284C124.252 17.308 123.984 17.38 123.776 17.5C123.568 17.62 123.416 17.792 123.32 18.016C123.224 18.24 123.176 18.516 123.176 18.844V19.348L123.032 19.168H124.856V19.924H123.176V25H122.204ZM128.353 25.108C127.737 25.108 127.205 24.988 126.757 24.748C126.317 24.5 125.973 24.152 125.725 23.704C125.485 23.256 125.365 22.72 125.365 22.096C125.365 21.488 125.485 20.96 125.725 20.512C125.965 20.056 126.293 19.7 126.709 19.444C127.133 19.188 127.621 19.06 128.173 19.06C128.701 19.06 129.153 19.176 129.529 19.408C129.905 19.64 130.193 19.968 130.393 20.392C130.601 20.816 130.705 21.324 130.705 21.916V22.288H126.109V21.652H130.057L129.865 21.808C129.865 21.168 129.721 20.672 129.433 20.32C129.153 19.96 128.741 19.78 128.197 19.78C127.789 19.78 127.441 19.876 127.153 20.068C126.873 20.252 126.661 20.512 126.517 20.848C126.373 21.176 126.301 21.56 126.301 22V22.072C126.301 22.56 126.377 22.972 126.529 23.308C126.689 23.644 126.925 23.9 127.237 24.076C127.549 24.244 127.921 24.328 128.353 24.328C128.697 24.328 129.029 24.276 129.349 24.172C129.677 24.06 129.985 23.88 130.273 23.632L130.609 24.316C130.345 24.556 130.009 24.748 129.601 24.892C129.193 25.036 128.777 25.108 128.353 25.108ZM134.583 25.108C133.999 25.108 133.495 24.98 133.071 24.724C132.647 24.468 132.319 24.112 132.087 23.656C131.863 23.192 131.751 22.656 131.751 22.048C131.751 21.432 131.863 20.9 132.087 20.452C132.319 20.004 132.647 19.66 133.071 19.42C133.495 19.18 133.999 19.06 134.583 19.06C134.943 19.06 135.299 19.124 135.651 19.252C136.003 19.38 136.295 19.56 136.527 19.792L136.191 20.5C135.959 20.276 135.703 20.112 135.423 20.008C135.151 19.904 134.891 19.852 134.643 19.852C134.035 19.852 133.567 20.044 133.239 20.428C132.911 20.804 132.747 21.348 132.747 22.06C132.747 22.756 132.911 23.308 133.239 23.716C133.567 24.116 134.035 24.316 134.643 24.316C134.891 24.316 135.151 24.264 135.423 24.16C135.703 24.056 135.959 23.888 136.191 23.656L136.527 24.364C136.295 24.596 135.999 24.78 135.639 24.916C135.287 25.044 134.935 25.108 134.583 25.108ZM140.006 25.108C139.318 25.108 138.802 24.924 138.458 24.556C138.114 24.188 137.942 23.664 137.942 22.984V19.924H136.802V19.168H137.942V17.38H138.914V19.168H140.762V19.924H138.914V22.888C138.914 23.344 139.01 23.692 139.202 23.932C139.394 24.164 139.706 24.28 140.138 24.28C140.266 24.28 140.394 24.264 140.522 24.232C140.65 24.2 140.766 24.168 140.87 24.136L141.038 24.88C140.934 24.936 140.782 24.988 140.582 25.036C140.382 25.084 140.19 25.108 140.006 25.108ZM145.075 25V16.54H150.307V17.368H146.059V20.32H150.067V21.148H146.059V25H145.075ZM153.719 25.108C153.151 25.108 152.659 24.984 152.243 24.736C151.827 24.488 151.503 24.14 151.271 23.692C151.047 23.236 150.935 22.7 150.935 22.084C150.935 21.468 151.047 20.936 151.271 20.488C151.503 20.032 151.827 19.68 152.243 19.432C152.659 19.184 153.151 19.06 153.719 19.06C154.287 19.06 154.779 19.184 155.195 19.432C155.611 19.68 155.931 20.032 156.155 20.488C156.387 20.936 156.503 21.468 156.503 22.084C156.503 22.7 156.387 23.236 156.155 23.692C155.931 24.14 155.611 24.488 155.195 24.736C154.779 24.984 154.287 25.108 153.719 25.108ZM153.719 24.328C154.271 24.328 154.707 24.136 155.027 23.752C155.355 23.36 155.519 22.8 155.519 22.072C155.519 21.352 155.355 20.8 155.027 20.416C154.707 20.032 154.271 19.84 153.719 19.84C153.175 19.84 152.739 20.032 152.411 20.416C152.083 20.8 151.919 21.352 151.919 22.072C151.919 22.8 152.083 23.36 152.411 23.752C152.739 24.136 153.175 24.328 153.719 24.328ZM157.963 25V19.168H158.911V20.548H158.791C158.927 20.076 159.163 19.72 159.499 19.48C159.835 19.232 160.279 19.088 160.831 19.048L161.179 19.012L161.251 19.852L160.639 19.924C160.095 19.972 159.675 20.148 159.379 20.452C159.091 20.748 158.947 21.156 158.947 21.676V25H157.963ZM164.386 25.084L164.314 24.256L165.034 24.208C165.314 24.184 165.546 24.116 165.73 24.004C165.914 23.884 166.054 23.716 166.15 23.5C166.246 23.284 166.294 23.032 166.294 22.744V16.54H167.278V22.756C167.278 23.212 167.198 23.608 167.038 23.944C166.878 24.272 166.642 24.528 166.33 24.712C166.018 24.896 165.63 25.004 165.166 25.036L164.386 25.084ZM171.3 25.108C170.828 25.108 170.436 25.024 170.124 24.856C169.82 24.68 169.588 24.42 169.428 24.076C169.276 23.732 169.2 23.304 169.2 22.792V19.168H170.172V22.78C170.172 23.124 170.216 23.412 170.304 23.644C170.4 23.868 170.548 24.036 170.748 24.148C170.948 24.252 171.196 24.304 171.492 24.304C171.828 24.304 172.12 24.228 172.368 24.076C172.616 23.924 172.812 23.712 172.956 23.44C173.1 23.168 173.172 22.848 173.172 22.48V19.168H174.144V25H173.196V23.656H173.352C173.192 24.128 172.928 24.488 172.56 24.736C172.2 24.984 171.78 25.108 171.3 25.108ZM175.843 17.716V16.624H177.043V17.716H175.843ZM175.963 25V19.168H176.935V25H175.963ZM181.224 25.108C180.64 25.108 180.136 24.98 179.712 24.724C179.288 24.468 178.96 24.112 178.728 23.656C178.504 23.192 178.392 22.656 178.392 22.048C178.392 21.432 178.504 20.9 178.728 20.452C178.96 20.004 179.288 19.66 179.712 19.42C180.136 19.18 180.64 19.06 181.224 19.06C181.584 19.06 181.94 19.124 182.292 19.252C182.644 19.38 182.936 19.56 183.168 19.792L182.832 20.5C182.6 20.276 182.344 20.112 182.064 20.008C181.792 19.904 181.532 19.852 181.284 19.852C180.676 19.852 180.208 20.044 179.88 20.428C179.552 20.804 179.388 21.348 179.388 22.06C179.388 22.756 179.552 23.308 179.88 23.716C180.208 24.116 180.676 24.316 181.284 24.316C181.532 24.316 181.792 24.264 182.064 24.16C182.344 24.056 182.6 23.888 182.832 23.656L183.168 24.364C182.936 24.596 182.64 24.78 182.28 24.916C181.928 25.044 181.576 25.108 181.224 25.108ZM186.817 25.108C186.201 25.108 185.669 24.988 185.221 24.748C184.781 24.5 184.437 24.152 184.189 23.704C183.949 23.256 183.829 22.72 183.829 22.096C183.829 21.488 183.949 20.96 184.189 20.512C184.429 20.056 184.757 19.7 185.173 19.444C185.597 19.188 186.085 19.06 186.637 19.06C187.165 19.06 187.617 19.176 187.993 19.408C188.369 19.64 188.657 19.968 188.857 20.392C189.065 20.816 189.169 21.324 189.169 21.916V22.288H184.573V21.652H188.521L188.329 21.808C188.329 21.168 188.185 20.672 187.897 20.32C187.617 19.96 187.205 19.78 186.661 19.78C186.253 19.78 185.905 19.876 185.617 20.068C185.337 20.252 185.125 20.512 184.981 20.848C184.837 21.176 184.765 21.56 184.765 22V22.072C184.765 22.56 184.841 22.972 184.993 23.308C185.153 23.644 185.389 23.9 185.701 24.076C186.013 24.244 186.385 24.328 186.817 24.328C187.161 24.328 187.493 24.276 187.813 24.172C188.141 24.06 188.449 23.88 188.737 23.632L189.073 24.316C188.809 24.556 188.473 24.748 188.065 24.892C187.657 25.036 187.241 25.108 186.817 25.108ZM192.544 25.108C192.24 25.108 191.944 25.076 191.656 25.012C191.376 24.956 191.112 24.876 190.864 24.772C190.624 24.66 190.416 24.528 190.24 24.376L190.552 23.692C190.744 23.844 190.952 23.972 191.176 24.076C191.4 24.172 191.628 24.244 191.86 24.292C192.092 24.34 192.328 24.364 192.568 24.364C193.024 24.364 193.368 24.28 193.6 24.112C193.832 23.944 193.948 23.716 193.948 23.428C193.948 23.204 193.872 23.028 193.72 22.9C193.568 22.764 193.328 22.66 193 22.588L191.908 22.348C191.404 22.244 191.028 22.064 190.78 21.808C190.54 21.552 190.42 21.22 190.42 20.812C190.42 20.452 190.512 20.144 190.696 19.888C190.888 19.624 191.156 19.42 191.5 19.276C191.844 19.132 192.244 19.06 192.7 19.06C192.972 19.06 193.232 19.088 193.48 19.144C193.728 19.2 193.96 19.284 194.176 19.396C194.4 19.5 194.592 19.632 194.752 19.792L194.428 20.476C194.276 20.332 194.104 20.212 193.912 20.116C193.72 20.012 193.52 19.936 193.312 19.888C193.112 19.832 192.908 19.804 192.7 19.804C192.252 19.804 191.912 19.892 191.68 20.068C191.448 20.244 191.332 20.476 191.332 20.764C191.332 20.988 191.404 21.172 191.548 21.316C191.692 21.46 191.916 21.564 192.22 21.628L193.312 21.856C193.832 21.968 194.22 22.148 194.476 22.396C194.74 22.636 194.872 22.964 194.872 23.38C194.872 23.732 194.776 24.04 194.584 24.304C194.392 24.56 194.12 24.76 193.768 24.904C193.424 25.04 193.016 25.108 192.544 25.108ZM196.643 26.368L196.187 26.02C196.331 25.868 196.439 25.724 196.511 25.588C196.591 25.46 196.643 25.328 196.667 25.192C196.699 25.064 196.715 24.932 196.715 24.796L196.931 25H196.139V23.776H197.363V24.64C197.363 24.856 197.339 25.06 197.291 25.252C197.251 25.452 197.179 25.644 197.075 25.828C196.971 26.012 196.827 26.192 196.643 26.368ZM201.423 25L205.155 16.54H205.995L209.727 25H208.707L207.663 22.588L208.143 22.84H202.983L203.475 22.588L202.443 25H201.423ZM205.563 17.692L203.631 22.24L203.343 22.012H207.783L207.519 22.24L205.587 17.692H205.563ZM210.85 25V19.168H211.798V20.464H211.666C211.834 20 212.106 19.652 212.482 19.42C212.866 19.18 213.306 19.06 213.802 19.06C214.266 19.06 214.65 19.144 214.954 19.312C215.266 19.472 215.498 19.724 215.65 20.068C215.802 20.412 215.878 20.844 215.878 21.364V25H214.906V21.424C214.906 21.064 214.858 20.768 214.762 20.536C214.674 20.304 214.53 20.132 214.33 20.02C214.138 19.908 213.886 19.852 213.574 19.852C213.222 19.852 212.914 19.928 212.65 20.08C212.386 20.232 212.182 20.444 212.038 20.716C211.894 20.988 211.822 21.308 211.822 21.676V25H210.85ZM219.89 25.108C219.37 25.108 218.914 24.984 218.522 24.736C218.138 24.488 217.838 24.14 217.622 23.692C217.414 23.236 217.31 22.7 217.31 22.084C217.31 21.46 217.414 20.924 217.622 20.476C217.838 20.02 218.138 19.672 218.522 19.432C218.914 19.184 219.37 19.06 219.89 19.06C220.418 19.06 220.87 19.192 221.246 19.456C221.622 19.72 221.874 20.076 222.002 20.524H221.87V16.54H222.842V25H221.894V23.608H222.014C221.886 24.064 221.63 24.428 221.246 24.7C220.87 24.972 220.418 25.108 219.89 25.108ZM220.094 24.328C220.646 24.328 221.082 24.136 221.402 23.752C221.73 23.36 221.894 22.804 221.894 22.084C221.894 21.356 221.73 20.8 221.402 20.416C221.082 20.032 220.646 19.84 220.094 19.84C219.55 19.84 219.114 20.032 218.786 20.416C218.458 20.8 218.294 21.356 218.294 22.084C218.294 22.804 218.458 23.36 218.786 23.752C219.114 24.136 219.55 24.328 220.094 24.328ZM231.54 25.108C230.708 25.108 229.996 24.932 229.404 24.58C228.812 24.228 228.356 23.728 228.036 23.08C227.724 22.432 227.568 21.66 227.568 20.764C227.568 19.868 227.724 19.1 228.036 18.46C228.356 17.812 228.812 17.312 229.404 16.96C229.996 16.608 230.708 16.432 231.54 16.432C232.124 16.432 232.664 16.524 233.16 16.708C233.656 16.892 234.072 17.16 234.408 17.512L234.024 18.316C233.656 17.972 233.272 17.724 232.872 17.572C232.48 17.412 232.044 17.332 231.564 17.332C230.612 17.332 229.884 17.632 229.38 18.232C228.876 18.832 228.624 19.676 228.624 20.764C228.624 21.852 228.876 22.7 229.38 23.308C229.884 23.908 230.612 24.208 231.564 24.208C232.044 24.208 232.48 24.132 232.872 23.98C233.272 23.82 233.656 23.568 234.024 23.224L234.408 24.028C234.072 24.372 233.656 24.64 233.16 24.832C232.664 25.016 232.124 25.108 231.54 25.108ZM237.824 25.108C237.256 25.108 236.764 24.984 236.348 24.736C235.932 24.488 235.608 24.14 235.376 23.692C235.152 23.236 235.04 22.7 235.04 22.084C235.04 21.468 235.152 20.936 235.376 20.488C235.608 20.032 235.932 19.68 236.348 19.432C236.764 19.184 237.256 19.06 237.824 19.06C238.392 19.06 238.884 19.184 239.3 19.432C239.716 19.68 240.036 20.032 240.26 20.488C240.492 20.936 240.608 21.468 240.608 22.084C240.608 22.7 240.492 23.236 240.26 23.692C240.036 24.14 239.716 24.488 239.3 24.736C238.884 24.984 238.392 25.108 237.824 25.108ZM237.824 24.328C238.376 24.328 238.812 24.136 239.132 23.752C239.46 23.36 239.624 22.8 239.624 22.072C239.624 21.352 239.46 20.8 239.132 20.416C238.812 20.032 238.376 19.84 237.824 19.84C237.28 19.84 236.844 20.032 236.516 20.416C236.188 20.8 236.024 21.352 236.024 22.072C236.024 22.8 236.188 23.36 236.516 23.752C236.844 24.136 237.28 24.328 237.824 24.328ZM243.856 25.108C243.264 25.108 242.816 24.932 242.512 24.58C242.216 24.228 242.068 23.724 242.068 23.068V16.54H243.04V22.996C243.04 23.276 243.076 23.512 243.148 23.704C243.228 23.896 243.344 24.04 243.496 24.136C243.648 24.232 243.836 24.28 244.06 24.28C244.156 24.28 244.248 24.276 244.336 24.268C244.432 24.252 244.52 24.232 244.6 24.208L244.576 25.024C244.448 25.048 244.324 25.068 244.204 25.084C244.092 25.1 243.976 25.108 243.856 25.108ZM247.78 25.108C247.26 25.108 246.804 24.984 246.412 24.736C246.028 24.488 245.728 24.14 245.512 23.692C245.304 23.236 245.2 22.7 245.2 22.084C245.2 21.46 245.304 20.924 245.512 20.476C245.728 20.02 246.028 19.672 246.412 19.432C246.804 19.184 247.26 19.06 247.78 19.06C248.308 19.06 248.76 19.192 249.136 19.456C249.512 19.72 249.764 20.076 249.892 20.524H249.76V16.54H250.732V25H249.784V23.608H249.904C249.776 24.064 249.52 24.428 249.136 24.7C248.76 24.972 248.308 25.108 247.78 25.108ZM247.984 24.328C248.536 24.328 248.972 24.136 249.292 23.752C249.62 23.36 249.784 22.804 249.784 22.084C249.784 21.356 249.62 20.8 249.292 20.416C248.972 20.032 248.536 19.84 247.984 19.84C247.44 19.84 247.004 20.032 246.676 20.416C246.348 20.8 246.184 21.356 246.184 22.084C246.184 22.804 246.348 23.36 246.676 23.752C247.004 24.136 247.44 24.328 247.984 24.328ZM255.771 25V16.54H258.627C259.547 16.54 260.323 16.704 260.955 17.032C261.595 17.352 262.079 17.828 262.407 18.46C262.743 19.084 262.911 19.852 262.911 20.764C262.911 21.676 262.743 22.448 262.407 23.08C262.079 23.712 261.595 24.192 260.955 24.52C260.323 24.84 259.547 25 258.627 25H255.771ZM256.755 24.16H258.555C259.667 24.16 260.495 23.876 261.039 23.308C261.591 22.74 261.867 21.892 261.867 20.764C261.867 19.636 261.591 18.792 261.039 18.232C260.487 17.664 259.659 17.38 258.555 17.38H256.755V24.16ZM264.545 25V19.168H265.493V20.548H265.373C265.509 20.076 265.745 19.72 266.081 19.48C266.417 19.232 266.861 19.088 267.413 19.048L267.761 19.012L267.833 19.852L267.221 19.924C266.677 19.972 266.257 20.148 265.961 20.452C265.673 20.748 265.529 21.156 265.529 21.676V25H264.545ZM268.726 17.716V16.624H269.926V17.716H268.726ZM268.846 25V19.168H269.818V25H268.846ZM271.635 25V19.168H272.583V20.464H272.451C272.619 20 272.891 19.652 273.267 19.42C273.651 19.18 274.091 19.06 274.587 19.06C275.051 19.06 275.435 19.144 275.739 19.312C276.051 19.472 276.283 19.724 276.435 20.068C276.587 20.412 276.663 20.844 276.663 21.364V25H275.691V21.424C275.691 21.064 275.643 20.768 275.547 20.536C275.459 20.304 275.315 20.132 275.115 20.02C274.923 19.908 274.671 19.852 274.359 19.852C274.007 19.852 273.699 19.928 273.435 20.08C273.171 20.232 272.967 20.444 272.823 20.716C272.679 20.988 272.607 21.308 272.607 21.676V25H271.635ZM278.455 25V16.54H279.427V21.76H279.451L282.151 19.168H283.387L280.183 22.24V21.712L283.639 25H282.403L279.451 22.264H279.427V25H278.455ZM286.318 25.108C286.014 25.108 285.718 25.076 285.43 25.012C285.15 24.956 284.886 24.876 284.638 24.772C284.398 24.66 284.19 24.528 284.014 24.376L284.326 23.692C284.518 23.844 284.726 23.972 284.95 24.076C285.174 24.172 285.402 24.244 285.634 24.292C285.866 24.34 286.102 24.364 286.342 24.364C286.798 24.364 287.142 24.28 287.374 24.112C287.606 23.944 287.722 23.716 287.722 23.428C287.722 23.204 287.646 23.028 287.494 22.9C287.342 22.764 287.102 22.66 286.774 22.588L285.682 22.348C285.178 22.244 284.802 22.064 284.554 21.808C284.314 21.552 284.194 21.22 284.194 20.812C284.194 20.452 284.286 20.144 284.47 19.888C284.662 19.624 284.93 19.42 285.274 19.276C285.618 19.132 286.018 19.06 286.474 19.06C286.746 19.06 287.006 19.088 287.254 19.144C287.502 19.2 287.734 19.284 287.95 19.396C288.174 19.5 288.366 19.632 288.526 19.792L288.202 20.476C288.05 20.332 287.878 20.212 287.686 20.116C287.494 20.012 287.294 19.936 287.086 19.888C286.886 19.832 286.682 19.804 286.474 19.804C286.026 19.804 285.686 19.892 285.454 20.068C285.222 20.244 285.106 20.476 285.106 20.764C285.106 20.988 285.178 21.172 285.322 21.316C285.466 21.46 285.69 21.564 285.994 21.628L287.086 21.856C287.606 21.968 287.994 22.148 288.25 22.396C288.514 22.636 288.646 22.964 288.646 23.38C288.646 23.732 288.55 24.04 288.358 24.304C288.166 24.56 287.894 24.76 287.542 24.904C287.198 25.04 286.79 25.108 286.318 25.108ZM289.912 25V23.776H291.136V25H289.912Z" fill="white"/>
</svg>
