<svg width="273" height="27" viewBox="0 0 273 27" fill="none" xmlns="http://www.w3.org/2000/svg">
<path d="M0.488 9V8.16H2.42V1.392H2.936L0.896 2.688L0.476 1.956L2.696 0.539999H3.404V8.16H5.216V9H0.488ZM7.27531 9V8.256L10.1673 5.136C10.4393 4.84 10.6593 4.564 10.8273 4.308C10.9953 4.044 11.1193 3.788 11.1993 3.54C11.2793 3.292 11.3193 3.04 11.3193 2.784C11.3193 2.304 11.1713 1.94 10.8753 1.692C10.5873 1.436 10.1633 1.308 9.60331 1.308C9.17131 1.308 8.76731 1.388 8.39131 1.548C8.02331 1.7 7.67131 1.94 7.33531 2.268L6.96331 1.5C7.27531 1.18 7.67131 0.924 8.15131 0.732C8.63931 0.532 9.15131 0.431999 9.68731 0.431999C10.2553 0.431999 10.7353 0.52 11.1273 0.696C11.5193 0.872 11.8153 1.132 12.0153 1.476C12.2153 1.812 12.3153 2.224 12.3153 2.712C12.3153 2.968 12.2833 3.22 12.2193 3.468C12.1633 3.708 12.0713 3.952 11.9433 4.2C11.8233 4.44 11.6673 4.688 11.4753 4.944C11.2913 5.2 11.0673 5.464 10.8033 5.736L8.25931 8.436V8.16H12.6633V9H7.27531ZM16.9906 9.108C16.3506 9.108 15.8066 8.944 15.3586 8.616C14.9186 8.28 14.5866 7.788 14.3626 7.14C14.1386 6.492 14.0266 5.7 14.0266 4.764C14.0266 3.82 14.1386 3.028 14.3626 2.388C14.5866 1.74 14.9186 1.252 15.3586 0.924C15.8066 0.595999 16.3506 0.431999 16.9906 0.431999C17.6386 0.431999 18.1826 0.595999 18.6226 0.924C19.0626 1.252 19.3946 1.736 19.6186 2.376C19.8426 3.016 19.9546 3.808 19.9546 4.752C19.9546 5.696 19.8426 6.492 19.6186 7.14C19.3946 7.788 19.0626 8.28 18.6226 8.616C18.1826 8.944 17.6386 9.108 16.9906 9.108ZM16.9906 8.256C17.6626 8.256 18.1586 7.972 18.4786 7.404C18.8066 6.836 18.9706 5.952 18.9706 4.752C18.9706 3.552 18.8106 2.676 18.4906 2.124C18.1706 1.564 17.6706 1.284 16.9906 1.284C16.3266 1.284 15.8306 1.564 15.5026 2.124C15.1746 2.684 15.0106 3.56 15.0106 4.752C15.0106 5.952 15.1706 6.836 15.4906 7.404C15.8186 7.972 16.3186 8.256 16.9906 8.256ZM21.5219 9V3.168H22.4699V4.464H22.3379C22.4339 4.168 22.5739 3.916 22.7579 3.708C22.9499 3.492 23.1739 3.332 23.4299 3.228C23.6939 3.116 23.9819 3.06 24.2939 3.06C24.7899 3.06 25.1899 3.18 25.4939 3.42C25.8059 3.652 26.0139 4.016 26.1179 4.512H25.9379C26.0819 4.064 26.3379 3.712 26.7059 3.456C27.0819 3.192 27.5179 3.06 28.0139 3.06C28.4539 3.06 28.8139 3.144 29.0939 3.312C29.3819 3.48 29.5979 3.736 29.7419 4.08C29.8859 4.416 29.9579 4.844 29.9579 5.364V9H28.9859V5.412C28.9859 4.876 28.8939 4.484 28.7099 4.236C28.5259 3.98 28.2139 3.852 27.7739 3.852C27.4619 3.852 27.1859 3.928 26.9459 4.08C26.7139 4.232 26.5339 4.448 26.4059 4.728C26.2859 5 26.2259 5.324 26.2259 5.7V9H25.2539V5.412C25.2539 4.876 25.1579 4.484 24.9659 4.236C24.7819 3.98 24.4739 3.852 24.0419 3.852C23.7219 3.852 23.4459 3.928 23.2139 4.08C22.9819 4.232 22.8019 4.448 22.6739 4.728C22.5539 5 22.4939 5.324 22.4939 5.7V9H21.5219ZM33.5633 9.108C32.9713 9.108 32.5233 8.932 32.2193 8.58C31.9233 8.228 31.7753 7.724 31.7753 7.068V0.539999H32.7473V6.996C32.7473 7.276 32.7833 7.512 32.8553 7.704C32.9353 7.896 33.0513 8.04 33.2033 8.136C33.3553 8.232 33.5433 8.28 33.7673 8.28C33.8633 8.28 33.9553 8.276 34.0433 8.268C34.1393 8.252 34.2273 8.232 34.3073 8.208L34.2833 9.024C34.1553 9.048 34.0313 9.068 33.9113 9.084C33.7993 9.1 33.6833 9.108 33.5633 9.108ZM38.5401 9V0.539999H41.3961C42.3161 0.539999 43.0921 0.704 43.7241 1.032C44.3641 1.352 44.8481 1.828 45.1761 2.46C45.5121 3.084 45.6801 3.852 45.6801 4.764C45.6801 5.676 45.5121 6.448 45.1761 7.08C44.8481 7.712 44.3641 8.192 43.7241 8.52C43.0921 8.84 42.3161 9 41.3961 9H38.5401ZM39.5241 8.16H41.3241C42.4361 8.16 43.2641 7.876 43.8081 7.308C44.3601 6.74 44.6361 5.892 44.6361 4.764C44.6361 3.636 44.3601 2.792 43.8081 2.232C43.2561 1.664 42.4281 1.38 41.3241 1.38H39.5241V8.16ZM49.9423 9.108C49.3263 9.108 48.7943 8.988 48.3463 8.748C47.9063 8.5 47.5623 8.152 47.3143 7.704C47.0743 7.256 46.9543 6.72 46.9543 6.096C46.9543 5.488 47.0743 4.96 47.3143 4.512C47.5543 4.056 47.8823 3.7 48.2983 3.444C48.7223 3.188 49.2103 3.06 49.7623 3.06C50.2903 3.06 50.7423 3.176 51.1183 3.408C51.4943 3.64 51.7823 3.968 51.9823 4.392C52.1903 4.816 52.2943 5.324 52.2943 5.916V6.288H47.6983V5.652H51.6463L51.4543 5.808C51.4543 5.168 51.3103 4.672 51.0223 4.32C50.7423 3.96 50.3303 3.78 49.7863 3.78C49.3783 3.78 49.0303 3.876 48.7423 4.068C48.4623 4.252 48.2503 4.512 48.1063 4.848C47.9623 5.176 47.8903 5.56 47.8903 6V6.072C47.8903 6.56 47.9663 6.972 48.1183 7.308C48.2783 7.644 48.5143 7.9 48.8263 8.076C49.1383 8.244 49.5103 8.328 49.9423 8.328C50.2863 8.328 50.6183 8.276 50.9383 8.172C51.2663 8.06 51.5743 7.88 51.8623 7.632L52.1983 8.316C51.9343 8.556 51.5983 8.748 51.1903 8.892C50.7823 9.036 50.3663 9.108 49.9423 9.108ZM55.6691 9.108C55.3651 9.108 55.0691 9.076 54.7811 9.012C54.5011 8.956 54.2371 8.876 53.9891 8.772C53.7491 8.66 53.5411 8.528 53.3651 8.376L53.6771 7.692C53.8691 7.844 54.0771 7.972 54.3011 8.076C54.5251 8.172 54.7531 8.244 54.9851 8.292C55.2171 8.34 55.4531 8.364 55.6931 8.364C56.1491 8.364 56.4931 8.28 56.7251 8.112C56.9571 7.944 57.0731 7.716 57.0731 7.428C57.0731 7.204 56.9971 7.028 56.8451 6.9C56.6931 6.764 56.4531 6.66 56.1251 6.588L55.0331 6.348C54.5291 6.244 54.1531 6.064 53.9051 5.808C53.6651 5.552 53.5451 5.22 53.5451 4.812C53.5451 4.452 53.6371 4.144 53.8211 3.888C54.0131 3.624 54.2811 3.42 54.6251 3.276C54.9691 3.132 55.3691 3.06 55.8251 3.06C56.0971 3.06 56.3571 3.088 56.6051 3.144C56.8531 3.2 57.0851 3.284 57.3011 3.396C57.5251 3.5 57.7171 3.632 57.8771 3.792L57.5531 4.476C57.4011 4.332 57.2291 4.212 57.0371 4.116C56.8451 4.012 56.6451 3.936 56.4371 3.888C56.2371 3.832 56.0331 3.804 55.8251 3.804C55.3771 3.804 55.0371 3.892 54.8051 4.068C54.5731 4.244 54.4571 4.476 54.4571 4.764C54.4571 4.988 54.5291 5.172 54.6731 5.316C54.8171 5.46 55.0411 5.564 55.3451 5.628L56.4371 5.856C56.9571 5.968 57.3451 6.148 57.6011 6.396C57.8651 6.636 57.9971 6.964 57.9971 7.38C57.9971 7.732 57.9011 8.04 57.7091 8.304C57.5171 8.56 57.2451 8.76 56.8931 8.904C56.5491 9.04 56.1411 9.108 55.6691 9.108ZM61.4464 9.108C61.1424 9.108 60.8464 9.076 60.5584 9.012C60.2784 8.956 60.0144 8.876 59.7664 8.772C59.5264 8.66 59.3184 8.528 59.1424 8.376L59.4544 7.692C59.6464 7.844 59.8544 7.972 60.0784 8.076C60.3024 8.172 60.5304 8.244 60.7624 8.292C60.9944 8.34 61.2304 8.364 61.4704 8.364C61.9264 8.364 62.2704 8.28 62.5024 8.112C62.7344 7.944 62.8504 7.716 62.8504 7.428C62.8504 7.204 62.7744 7.028 62.6224 6.9C62.4704 6.764 62.2304 6.66 61.9024 6.588L60.8104 6.348C60.3064 6.244 59.9304 6.064 59.6824 5.808C59.4424 5.552 59.3224 5.22 59.3224 4.812C59.3224 4.452 59.4144 4.144 59.5984 3.888C59.7904 3.624 60.0584 3.42 60.4024 3.276C60.7464 3.132 61.1464 3.06 61.6024 3.06C61.8744 3.06 62.1344 3.088 62.3824 3.144C62.6304 3.2 62.8624 3.284 63.0784 3.396C63.3024 3.5 63.4944 3.632 63.6544 3.792L63.3304 4.476C63.1784 4.332 63.0064 4.212 62.8144 4.116C62.6224 4.012 62.4224 3.936 62.2144 3.888C62.0144 3.832 61.8104 3.804 61.6024 3.804C61.1544 3.804 60.8144 3.892 60.5824 4.068C60.3504 4.244 60.2344 4.476 60.2344 4.764C60.2344 4.988 60.3064 5.172 60.4504 5.316C60.5944 5.46 60.8184 5.564 61.1224 5.628L62.2144 5.856C62.7344 5.968 63.1224 6.148 63.3784 6.396C63.6424 6.636 63.7744 6.964 63.7744 7.38C63.7744 7.732 63.6784 8.04 63.4864 8.304C63.2944 8.56 63.0224 8.76 62.6704 8.904C62.3264 9.04 61.9184 9.108 61.4464 9.108ZM67.8838 9.108C67.2678 9.108 66.7358 8.988 66.2878 8.748C65.8478 8.5 65.5038 8.152 65.2558 7.704C65.0158 7.256 64.8958 6.72 64.8958 6.096C64.8958 5.488 65.0158 4.96 65.2558 4.512C65.4958 4.056 65.8238 3.7 66.2398 3.444C66.6638 3.188 67.1518 3.06 67.7038 3.06C68.2318 3.06 68.6838 3.176 69.0598 3.408C69.4358 3.64 69.7238 3.968 69.9238 4.392C70.1318 4.816 70.2358 5.324 70.2358 5.916V6.288H65.6398V5.652H69.5878L69.3958 5.808C69.3958 5.168 69.2518 4.672 68.9638 4.32C68.6838 3.96 68.2718 3.78 67.7278 3.78C67.3198 3.78 66.9718 3.876 66.6838 4.068C66.4038 4.252 66.1918 4.512 66.0478 4.848C65.9038 5.176 65.8318 5.56 65.8318 6V6.072C65.8318 6.56 65.9078 6.972 66.0598 7.308C66.2198 7.644 66.4558 7.9 66.7678 8.076C67.0798 8.244 67.4518 8.328 67.8838 8.328C68.2278 8.328 68.5598 8.276 68.8798 8.172C69.2078 8.06 69.5158 7.88 69.8038 7.632L70.1398 8.316C69.8758 8.556 69.5398 8.748 69.1318 8.892C68.7238 9.036 68.3078 9.108 67.8838 9.108ZM71.6425 9V3.168H72.5905V4.548H72.4705C72.6065 4.076 72.8425 3.72 73.1785 3.48C73.5145 3.232 73.9585 3.088 74.5105 3.048L74.8585 3.012L74.9305 3.852L74.3185 3.924C73.7745 3.972 73.3545 4.148 73.0585 4.452C72.7705 4.748 72.6265 5.156 72.6265 5.676V9H71.6425ZM78.5997 9.108C77.9117 9.108 77.3957 8.924 77.0517 8.556C76.7077 8.188 76.5357 7.664 76.5357 6.984V3.924H75.3957V3.168H76.5357V1.38H77.5077V3.168H79.3557V3.924H77.5077V6.888C77.5077 7.344 77.6037 7.692 77.7957 7.932C77.9877 8.164 78.2997 8.28 78.7317 8.28C78.8597 8.28 78.9877 8.264 79.1157 8.232C79.2437 8.2 79.3597 8.168 79.4637 8.136L79.6317 8.88C79.5277 8.936 79.3757 8.988 79.1757 9.036C78.9757 9.084 78.7837 9.108 78.5997 9.108ZM87.329 9.108C86.497 9.108 85.785 8.932 85.193 8.58C84.601 8.228 84.145 7.728 83.825 7.08C83.513 6.432 83.357 5.66 83.357 4.764C83.357 3.868 83.513 3.1 83.825 2.46C84.145 1.812 84.601 1.312 85.193 0.96C85.785 0.608 86.497 0.431999 87.329 0.431999C87.913 0.431999 88.453 0.523999 88.949 0.707999C89.445 0.891999 89.861 1.16 90.197 1.512L89.813 2.316C89.445 1.972 89.061 1.724 88.661 1.572C88.269 1.412 87.833 1.332 87.353 1.332C86.401 1.332 85.673 1.632 85.169 2.232C84.665 2.832 84.413 3.676 84.413 4.764C84.413 5.852 84.665 6.7 85.169 7.308C85.673 7.908 86.401 8.208 87.353 8.208C87.833 8.208 88.269 8.132 88.661 7.98C89.061 7.82 89.445 7.568 89.813 7.224L90.197 8.028C89.861 8.372 89.445 8.64 88.949 8.832C88.453 9.016 87.913 9.108 87.329 9.108ZM93.5463 9.108C93.0743 9.108 92.6823 9.024 92.3703 8.856C92.0663 8.68 91.8343 8.42 91.6743 8.076C91.5223 7.732 91.4463 7.304 91.4463 6.792V3.168H92.4183V6.78C92.4183 7.124 92.4623 7.412 92.5503 7.644C92.6463 7.868 92.7943 8.036 92.9943 8.148C93.1943 8.252 93.4423 8.304 93.7383 8.304C94.0743 8.304 94.3663 8.228 94.6143 8.076C94.8623 7.924 95.0583 7.712 95.2023 7.44C95.3463 7.168 95.4183 6.848 95.4183 6.48V3.168H96.3903V9H95.4423V7.656H95.5983C95.4383 8.128 95.1743 8.488 94.8063 8.736C94.4463 8.984 94.0263 9.108 93.5463 9.108ZM98.2089 11.16V3.168H99.1569V4.548H99.0369C99.1649 4.092 99.4169 3.732 99.7929 3.468C100.177 3.196 100.633 3.06 101.161 3.06C101.681 3.06 102.133 3.184 102.517 3.432C102.909 3.672 103.209 4.02 103.417 4.476C103.633 4.924 103.741 5.46 103.741 6.084C103.741 6.7 103.633 7.236 103.417 7.692C103.209 8.14 102.913 8.488 102.529 8.736C102.145 8.984 101.689 9.108 101.161 9.108C100.633 9.108 100.181 8.976 99.8049 8.712C99.4289 8.44 99.1729 8.08 99.0369 7.632H99.1809V11.16H98.2089ZM100.957 8.328C101.509 8.328 101.945 8.136 102.265 7.752C102.593 7.36 102.757 6.804 102.757 6.084C102.757 5.356 102.593 4.8 102.265 4.416C101.945 4.032 101.509 3.84 100.957 3.84C100.413 3.84 99.9769 4.032 99.6489 4.416C99.3209 4.8 99.1569 5.356 99.1569 6.084C99.1569 6.804 99.3209 7.36 99.6489 7.752C99.9769 8.136 100.413 8.328 100.957 8.328ZM104.469 6.12V5.484H116.469V6.12H104.469ZM117.513 9V0.539999H120.861C121.469 0.539999 121.981 0.64 122.397 0.84C122.821 1.032 123.141 1.32 123.357 1.704C123.573 2.08 123.681 2.54 123.681 3.084C123.681 3.612 123.573 4.068 123.357 4.452C123.141 4.836 122.821 5.128 122.397 5.328C121.981 5.528 121.469 5.628 120.861 5.628H118.497V9H117.513ZM118.497 4.8H120.741C121.389 4.8 121.877 4.656 122.205 4.368C122.541 4.072 122.709 3.644 122.709 3.084C122.709 2.516 122.541 2.088 122.205 1.8C121.877 1.504 121.389 1.356 120.741 1.356H118.497V4.8ZM127.345 9.108C126.729 9.108 126.197 8.988 125.749 8.748C125.309 8.5 124.965 8.152 124.717 7.704C124.477 7.256 124.357 6.72 124.357 6.096C124.357 5.488 124.477 4.96 124.717 4.512C124.957 4.056 125.285 3.7 125.701 3.444C126.125 3.188 126.613 3.06 127.165 3.06C127.693 3.06 128.145 3.176 128.521 3.408C128.897 3.64 129.185 3.968 129.385 4.392C129.593 4.816 129.697 5.324 129.697 5.916V6.288H125.101V5.652H129.049L128.857 5.808C128.857 5.168 128.713 4.672 128.425 4.32C128.145 3.96 127.733 3.78 127.189 3.78C126.781 3.78 126.433 3.876 126.145 4.068C125.865 4.252 125.653 4.512 125.509 4.848C125.365 5.176 125.293 5.56 125.293 6V6.072C125.293 6.56 125.369 6.972 125.521 7.308C125.681 7.644 125.917 7.9 126.229 8.076C126.541 8.244 126.913 8.328 127.345 8.328C127.689 8.328 128.021 8.276 128.341 8.172C128.669 8.06 128.977 7.88 129.265 7.632L129.601 8.316C129.337 8.556 129.001 8.748 128.593 8.892C128.185 9.036 127.769 9.108 127.345 9.108ZM131.103 9V3.168H132.051V4.548H131.931C132.067 4.076 132.303 3.72 132.639 3.48C132.975 3.232 133.419 3.088 133.971 3.048L134.319 3.012L134.391 3.852L133.779 3.924C133.235 3.972 132.815 4.148 132.519 4.452C132.231 4.748 132.087 5.156 132.087 5.676V9H131.103ZM136.033 9V3.924H134.881V3.168H136.297L136.033 3.42V2.964C136.033 2.188 136.225 1.6 136.609 1.2C137.001 0.799999 137.601 0.575999 138.409 0.528L138.877 0.504L138.961 1.248L138.409 1.284C138.081 1.308 137.813 1.38 137.605 1.5C137.397 1.62 137.245 1.792 137.149 2.016C137.053 2.24 137.005 2.516 137.005 2.844V3.348L136.861 3.168H138.685V3.924H137.005V9H136.033ZM142.181 9.108C141.565 9.108 141.033 8.988 140.585 8.748C140.145 8.5 139.801 8.152 139.553 7.704C139.313 7.256 139.193 6.72 139.193 6.096C139.193 5.488 139.313 4.96 139.553 4.512C139.793 4.056 140.121 3.7 140.537 3.444C140.961 3.188 141.449 3.06 142.001 3.06C142.529 3.06 142.981 3.176 143.357 3.408C143.733 3.64 144.021 3.968 144.221 4.392C144.429 4.816 144.533 5.324 144.533 5.916V6.288H139.937V5.652H143.885L143.693 5.808C143.693 5.168 143.549 4.672 143.261 4.32C142.981 3.96 142.569 3.78 142.025 3.78C141.617 3.78 141.269 3.876 140.981 4.068C140.701 4.252 140.489 4.512 140.345 4.848C140.201 5.176 140.129 5.56 140.129 6V6.072C140.129 6.56 140.205 6.972 140.357 7.308C140.517 7.644 140.753 7.9 141.065 8.076C141.377 8.244 141.749 8.328 142.181 8.328C142.525 8.328 142.857 8.276 143.177 8.172C143.505 8.06 143.813 7.88 144.101 7.632L144.437 8.316C144.173 8.556 143.837 8.748 143.429 8.892C143.021 9.036 142.605 9.108 142.181 9.108ZM148.411 9.108C147.827 9.108 147.323 8.98 146.899 8.724C146.475 8.468 146.147 8.112 145.915 7.656C145.691 7.192 145.579 6.656 145.579 6.048C145.579 5.432 145.691 4.9 145.915 4.452C146.147 4.004 146.475 3.66 146.899 3.42C147.323 3.18 147.827 3.06 148.411 3.06C148.771 3.06 149.127 3.124 149.479 3.252C149.831 3.38 150.123 3.56 150.355 3.792L150.019 4.5C149.787 4.276 149.531 4.112 149.251 4.008C148.979 3.904 148.719 3.852 148.471 3.852C147.863 3.852 147.395 4.044 147.067 4.428C146.739 4.804 146.575 5.348 146.575 6.06C146.575 6.756 146.739 7.308 147.067 7.716C147.395 8.116 147.863 8.316 148.471 8.316C148.719 8.316 148.979 8.264 149.251 8.16C149.531 8.056 149.787 7.888 150.019 7.656L150.355 8.364C150.123 8.596 149.827 8.78 149.467 8.916C149.115 9.044 148.763 9.108 148.411 9.108ZM153.834 9.108C153.146 9.108 152.63 8.924 152.286 8.556C151.942 8.188 151.77 7.664 151.77 6.984V3.924H150.63V3.168H151.77V1.38H152.742V3.168H154.59V3.924H152.742V6.888C152.742 7.344 152.838 7.692 153.03 7.932C153.222 8.164 153.534 8.28 153.966 8.28C154.094 8.28 154.222 8.264 154.35 8.232C154.478 8.2 154.594 8.168 154.698 8.136L154.866 8.88C154.762 8.936 154.61 8.988 154.41 9.036C154.21 9.084 154.018 9.108 153.834 9.108ZM157.477 9.108C156.885 9.108 156.437 8.932 156.133 8.58C155.837 8.228 155.689 7.724 155.689 7.068V0.539999H156.661V6.996C156.661 7.276 156.697 7.512 156.769 7.704C156.849 7.896 156.965 8.04 157.117 8.136C157.269 8.232 157.457 8.28 157.681 8.28C157.777 8.28 157.869 8.276 157.957 8.268C158.053 8.252 158.141 8.232 158.221 8.208L158.197 9.024C158.069 9.048 157.945 9.068 157.825 9.084C157.713 9.1 157.597 9.108 157.477 9.108ZM159.783 11.16L160.875 8.7V9.12L158.319 3.168H159.375L161.463 8.28H161.139L163.251 3.168H164.271L160.803 11.16H159.783ZM171.225 9.108C170.785 9.108 170.369 9.068 169.977 8.988C169.593 8.908 169.237 8.796 168.909 8.652C168.589 8.5 168.297 8.316 168.033 8.1L168.381 7.308C168.653 7.508 168.929 7.68 169.209 7.824C169.497 7.96 169.805 8.064 170.133 8.136C170.469 8.2 170.833 8.232 171.225 8.232C171.945 8.232 172.477 8.1 172.821 7.836C173.173 7.564 173.349 7.208 173.349 6.768C173.349 6.536 173.293 6.336 173.181 6.168C173.077 6 172.901 5.856 172.653 5.736C172.413 5.616 172.097 5.516 171.705 5.436L170.457 5.184C169.705 5.024 169.141 4.764 168.765 4.404C168.397 4.036 168.213 3.548 168.213 2.94C168.213 2.436 168.341 1.996 168.597 1.62C168.861 1.244 169.225 0.951999 169.689 0.744C170.161 0.536 170.697 0.431999 171.297 0.431999C171.681 0.431999 172.045 0.471999 172.389 0.551999C172.733 0.632 173.049 0.752 173.337 0.912C173.633 1.064 173.893 1.252 174.117 1.476L173.769 2.244C173.409 1.916 173.029 1.68 172.629 1.536C172.229 1.384 171.781 1.308 171.285 1.308C170.861 1.308 170.493 1.372 170.181 1.5C169.877 1.628 169.637 1.816 169.461 2.064C169.293 2.304 169.209 2.584 169.209 2.904C169.209 3.288 169.325 3.592 169.557 3.816C169.797 4.04 170.185 4.204 170.721 4.308L171.969 4.572C172.777 4.74 173.373 4.996 173.757 5.34C174.149 5.676 174.345 6.136 174.345 6.72C174.345 7.184 174.217 7.6 173.961 7.968C173.713 8.328 173.353 8.608 172.881 8.808C172.417 9.008 171.865 9.108 171.225 9.108ZM175.62 1.716V0.624H176.82V1.716H175.62ZM175.74 9V3.168H176.712V9H175.74ZM178.277 9V8.352L181.793 3.672V3.924H178.277V3.168H182.693V3.816L179.141 8.52V8.244H182.825V9H178.277ZM186.595 9.108C185.979 9.108 185.447 8.988 184.999 8.748C184.559 8.5 184.215 8.152 183.967 7.704C183.727 7.256 183.607 6.72 183.607 6.096C183.607 5.488 183.727 4.96 183.967 4.512C184.207 4.056 184.535 3.7 184.951 3.444C185.375 3.188 185.863 3.06 186.415 3.06C186.943 3.06 187.395 3.176 187.771 3.408C188.147 3.64 188.435 3.968 188.635 4.392C188.843 4.816 188.947 5.324 188.947 5.916V6.288H184.351V5.652H188.299L188.107 5.808C188.107 5.168 187.963 4.672 187.675 4.32C187.395 3.96 186.983 3.78 186.439 3.78C186.031 3.78 185.683 3.876 185.395 4.068C185.115 4.252 184.903 4.512 184.759 4.848C184.615 5.176 184.543 5.56 184.543 6V6.072C184.543 6.56 184.619 6.972 184.771 7.308C184.931 7.644 185.167 7.9 185.479 8.076C185.791 8.244 186.163 8.328 186.595 8.328C186.939 8.328 187.271 8.276 187.591 8.172C187.919 8.06 188.227 7.88 188.515 7.632L188.851 8.316C188.587 8.556 188.251 8.748 187.843 8.892C187.435 9.036 187.019 9.108 186.595 9.108ZM192.573 9.108C192.053 9.108 191.597 8.984 191.205 8.736C190.821 8.488 190.521 8.14 190.305 7.692C190.097 7.236 189.993 6.7 189.993 6.084C189.993 5.46 190.097 4.924 190.305 4.476C190.521 4.02 190.821 3.672 191.205 3.432C191.597 3.184 192.053 3.06 192.573 3.06C193.101 3.06 193.553 3.192 193.929 3.456C194.305 3.72 194.557 4.076 194.685 4.524H194.553V0.539999H195.525V9H194.577V7.608H194.697C194.569 8.064 194.313 8.428 193.929 8.7C193.553 8.972 193.101 9.108 192.573 9.108ZM192.777 8.328C193.329 8.328 193.765 8.136 194.085 7.752C194.413 7.36 194.577 6.804 194.577 6.084C194.577 5.356 194.413 4.8 194.085 4.416C193.765 4.032 193.329 3.84 192.777 3.84C192.233 3.84 191.797 4.032 191.469 4.416C191.141 4.8 190.977 5.356 190.977 6.084C190.977 6.804 191.141 7.36 191.469 7.752C191.797 8.136 192.233 8.328 192.777 8.328ZM200.564 9V0.539999H205.796V1.368H201.548V4.32H205.556V5.148H201.548V9H200.564ZM209.207 9.108C208.639 9.108 208.147 8.984 207.731 8.736C207.315 8.488 206.991 8.14 206.759 7.692C206.535 7.236 206.423 6.7 206.423 6.084C206.423 5.468 206.535 4.936 206.759 4.488C206.991 4.032 207.315 3.68 207.731 3.432C208.147 3.184 208.639 3.06 209.207 3.06C209.775 3.06 210.267 3.184 210.683 3.432C211.099 3.68 211.419 4.032 211.643 4.488C211.875 4.936 211.991 5.468 211.991 6.084C211.991 6.7 211.875 7.236 211.643 7.692C211.419 8.14 211.099 8.488 210.683 8.736C210.267 8.984 209.775 9.108 209.207 9.108ZM209.207 8.328C209.759 8.328 210.195 8.136 210.515 7.752C210.843 7.36 211.007 6.8 211.007 6.072C211.007 5.352 210.843 4.8 210.515 4.416C210.195 4.032 209.759 3.84 209.207 3.84C208.663 3.84 208.227 4.032 207.899 4.416C207.571 4.8 207.407 5.352 207.407 6.072C207.407 6.8 207.571 7.36 207.899 7.752C208.227 8.136 208.663 8.328 209.207 8.328ZM213.451 9V3.168H214.399V4.548H214.279C214.415 4.076 214.651 3.72 214.987 3.48C215.323 3.232 215.767 3.088 216.319 3.048L216.667 3.012L216.739 3.852L216.127 3.924C215.583 3.972 215.163 4.148 214.867 4.452C214.579 4.748 214.435 5.156 214.435 5.676V9H213.451ZM220.966 9V0.539999H224.314C224.922 0.539999 225.434 0.64 225.85 0.84C226.274 1.032 226.594 1.32 226.81 1.704C227.026 2.08 227.134 2.54 227.134 3.084C227.134 3.612 227.026 4.068 226.81 4.452C226.594 4.836 226.274 5.128 225.85 5.328C225.434 5.528 224.922 5.628 224.314 5.628H221.95V9H220.966ZM221.95 4.8H224.194C224.842 4.8 225.33 4.656 225.658 4.368C225.994 4.072 226.162 3.644 226.162 3.084C226.162 2.516 225.994 2.088 225.658 1.8C225.33 1.504 224.842 1.356 224.194 1.356H221.95V4.8ZM230.421 9.108C229.949 9.108 229.557 9.024 229.245 8.856C228.941 8.68 228.709 8.42 228.549 8.076C228.397 7.732 228.321 7.304 228.321 6.792V3.168H229.293V6.78C229.293 7.124 229.337 7.412 229.425 7.644C229.521 7.868 229.669 8.036 229.869 8.148C230.069 8.252 230.317 8.304 230.613 8.304C230.949 8.304 231.241 8.228 231.489 8.076C231.737 7.924 231.933 7.712 232.077 7.44C232.221 7.168 232.293 6.848 232.293 6.48V3.168H233.265V9H232.317V7.656H232.473C232.313 8.128 232.049 8.488 231.681 8.736C231.321 8.984 230.901 9.108 230.421 9.108ZM237.304 9.108C236.784 9.108 236.328 8.984 235.936 8.736C235.552 8.488 235.252 8.14 235.036 7.692C234.828 7.236 234.724 6.7 234.724 6.084C234.724 5.46 234.828 4.924 235.036 4.476C235.252 4.02 235.552 3.672 235.936 3.432C236.328 3.184 236.784 3.06 237.304 3.06C237.832 3.06 238.284 3.192 238.66 3.456C239.036 3.72 239.288 4.076 239.416 4.524H239.284V0.539999H240.256V9H239.308V7.608H239.428C239.3 8.064 239.044 8.428 238.66 8.7C238.284 8.972 237.832 9.108 237.304 9.108ZM237.508 8.328C238.06 8.328 238.496 8.136 238.816 7.752C239.144 7.36 239.308 6.804 239.308 6.084C239.308 5.356 239.144 4.8 238.816 4.416C238.496 4.032 238.06 3.84 237.508 3.84C236.964 3.84 236.528 4.032 236.2 4.416C235.872 4.8 235.708 5.356 235.708 6.084C235.708 6.804 235.872 7.36 236.2 7.752C236.528 8.136 236.964 8.328 237.508 8.328ZM244.3 9.108C243.78 9.108 243.324 8.984 242.932 8.736C242.548 8.488 242.248 8.14 242.032 7.692C241.824 7.236 241.72 6.7 241.72 6.084C241.72 5.46 241.824 4.924 242.032 4.476C242.248 4.02 242.548 3.672 242.932 3.432C243.324 3.184 243.78 3.06 244.3 3.06C244.828 3.06 245.28 3.192 245.656 3.456C246.032 3.72 246.284 4.076 246.412 4.524H246.28V0.539999H247.252V9H246.304V7.608H246.424C246.296 8.064 246.04 8.428 245.656 8.7C245.28 8.972 244.828 9.108 244.3 9.108ZM244.504 8.328C245.056 8.328 245.492 8.136 245.812 7.752C246.14 7.36 246.304 6.804 246.304 6.084C246.304 5.356 246.14 4.8 245.812 4.416C245.492 4.032 245.056 3.84 244.504 3.84C243.96 3.84 243.524 4.032 243.196 4.416C242.868 4.8 242.704 5.356 242.704 6.084C242.704 6.804 242.868 7.36 243.196 7.752C243.524 8.136 243.96 8.328 244.504 8.328ZM248.956 1.716V0.624H250.156V1.716H248.956ZM249.076 9V3.168H250.048V9H249.076ZM251.865 9V3.168H252.813V4.464H252.681C252.849 4 253.121 3.652 253.497 3.42C253.881 3.18 254.321 3.06 254.817 3.06C255.281 3.06 255.665 3.144 255.969 3.312C256.281 3.472 256.513 3.724 256.665 4.068C256.817 4.412 256.893 4.844 256.893 5.364V9H255.921V5.424C255.921 5.064 255.873 4.768 255.777 4.536C255.689 4.304 255.545 4.132 255.345 4.02C255.153 3.908 254.901 3.852 254.589 3.852C254.237 3.852 253.929 3.928 253.665 4.08C253.401 4.232 253.197 4.444 253.053 4.716C252.909 4.988 252.837 5.308 252.837 5.676V9H251.865ZM261.265 11.268C260.761 11.268 260.285 11.2 259.837 11.064C259.397 10.936 259.005 10.74 258.661 10.476L258.985 9.768C259.225 9.936 259.461 10.072 259.693 10.176C259.933 10.288 260.177 10.368 260.425 10.416C260.681 10.464 260.945 10.488 261.217 10.488C261.785 10.488 262.213 10.336 262.501 10.032C262.797 9.728 262.945 9.288 262.945 8.712V7.356H263.065C262.945 7.82 262.689 8.188 262.297 8.46C261.913 8.732 261.461 8.868 260.941 8.868C260.405 8.868 259.941 8.748 259.549 8.508C259.157 8.26 258.853 7.916 258.637 7.476C258.429 7.036 258.325 6.528 258.325 5.952C258.325 5.376 258.429 4.872 258.637 4.44C258.853 4 259.157 3.66 259.549 3.42C259.941 3.18 260.405 3.06 260.941 3.06C261.469 3.06 261.925 3.196 262.309 3.468C262.693 3.732 262.941 4.092 263.053 4.548H262.945V3.168H263.893V8.58C263.893 9.172 263.793 9.668 263.593 10.068C263.401 10.468 263.109 10.768 262.717 10.968C262.325 11.168 261.841 11.268 261.265 11.268ZM261.121 8.076C261.681 8.076 262.125 7.884 262.453 7.5C262.781 7.116 262.945 6.6 262.945 5.952C262.945 5.304 262.781 4.792 262.453 4.416C262.125 4.032 261.681 3.84 261.121 3.84C260.569 3.84 260.129 4.032 259.801 4.416C259.473 4.792 259.309 5.304 259.309 5.952C259.309 6.6 259.473 7.116 259.801 7.5C260.129 7.884 260.569 8.076 261.121 8.076ZM267.685 9.108C267.381 9.108 267.085 9.076 266.797 9.012C266.517 8.956 266.253 8.876 266.005 8.772C265.765 8.66 265.557 8.528 265.381 8.376L265.693 7.692C265.885 7.844 266.093 7.972 266.317 8.076C266.541 8.172 266.769 8.244 267.001 8.292C267.233 8.34 267.469 8.364 267.709 8.364C268.165 8.364 268.509 8.28 268.741 8.112C268.973 7.944 269.089 7.716 269.089 7.428C269.089 7.204 269.013 7.028 268.861 6.9C268.709 6.764 268.469 6.66 268.141 6.588L267.049 6.348C266.545 6.244 266.169 6.064 265.921 5.808C265.681 5.552 265.561 5.22 265.561 4.812C265.561 4.452 265.653 4.144 265.837 3.888C266.029 3.624 266.297 3.42 266.641 3.276C266.985 3.132 267.385 3.06 267.841 3.06C268.113 3.06 268.373 3.088 268.621 3.144C268.869 3.2 269.101 3.284 269.317 3.396C269.541 3.5 269.733 3.632 269.893 3.792L269.569 4.476C269.417 4.332 269.245 4.212 269.053 4.116C268.861 4.012 268.661 3.936 268.453 3.888C268.253 3.832 268.049 3.804 267.841 3.804C267.393 3.804 267.053 3.892 266.821 4.068C266.589 4.244 266.473 4.476 266.473 4.764C266.473 4.988 266.545 5.172 266.689 5.316C266.833 5.46 267.057 5.564 267.361 5.628L268.453 5.856C268.973 5.968 269.361 6.148 269.617 6.396C269.881 6.636 270.013 6.964 270.013 7.38C270.013 7.732 269.917 8.04 269.725 8.304C269.533 8.56 269.261 8.76 268.909 8.904C268.565 9.04 268.157 9.108 267.685 9.108ZM271.783 10.368L271.327 10.02C271.471 9.868 271.579 9.724 271.651 9.588C271.731 9.46 271.783 9.328 271.807 9.192C271.839 9.064 271.855 8.932 271.855 8.796L272.071 9H271.279V7.776H272.503V8.64C272.503 8.856 272.479 9.06 272.431 9.252C272.391 9.452 272.319 9.644 272.215 9.828C272.111 10.012 271.967 10.192 271.783 10.368ZM0.068 25V16.54H0.896L4.328 22.984H3.968L7.376 16.54H8.204V25H7.292V17.86H7.58L4.472 23.692H3.824L0.68 17.848H0.968V25H0.068ZM12.6016 25.108C12.0336 25.108 11.5416 24.984 11.1256 24.736C10.7096 24.488 10.3856 24.14 10.1536 23.692C9.92963 23.236 9.81763 22.7 9.81763 22.084C9.81763 21.468 9.92963 20.936 10.1536 20.488C10.3856 20.032 10.7096 19.68 11.1256 19.432C11.5416 19.184 12.0336 19.06 12.6016 19.06C13.1696 19.06 13.6616 19.184 14.0776 19.432C14.4936 19.68 14.8136 20.032 15.0376 20.488C15.2696 20.936 15.3856 21.468 15.3856 22.084C15.3856 22.7 15.2696 23.236 15.0376 23.692C14.8136 24.14 14.4936 24.488 14.0776 24.736C13.6616 24.984 13.1696 25.108 12.6016 25.108ZM12.6016 24.328C13.1536 24.328 13.5896 24.136 13.9096 23.752C14.2376 23.36 14.4016 22.8 14.4016 22.072C14.4016 21.352 14.2376 20.8 13.9096 20.416C13.5896 20.032 13.1536 19.84 12.6016 19.84C12.0576 19.84 11.6216 20.032 11.2936 20.416C10.9656 20.8 10.8016 21.352 10.8016 22.072C10.8016 22.8 10.9656 23.36 11.2936 23.752C11.6216 24.136 12.0576 24.328 12.6016 24.328ZM18.9096 25.108C18.4376 25.108 18.0456 25.024 17.7336 24.856C17.4296 24.68 17.1976 24.42 17.0376 24.076C16.8856 23.732 16.8096 23.304 16.8096 22.792V19.168H17.7816V22.78C17.7816 23.124 17.8256 23.412 17.9136 23.644C18.0096 23.868 18.1576 24.036 18.3576 24.148C18.5576 24.252 18.8056 24.304 19.1016 24.304C19.4376 24.304 19.7296 24.228 19.9776 24.076C20.2256 23.924 20.4216 23.712 20.5656 23.44C20.7096 23.168 20.7816 22.848 20.7816 22.48V19.168H21.7536V25H20.8056V23.656H20.9616C20.8016 24.128 20.5376 24.488 20.1696 24.736C19.8096 24.984 19.3896 25.108 18.9096 25.108ZM25.5402 25.108C25.2362 25.108 24.9402 25.076 24.6522 25.012C24.3722 24.956 24.1082 24.876 23.8602 24.772C23.6202 24.66 23.4122 24.528 23.2362 24.376L23.5482 23.692C23.7402 23.844 23.9482 23.972 24.1722 24.076C24.3962 24.172 24.6242 24.244 24.8562 24.292C25.0882 24.34 25.3242 24.364 25.5642 24.364C26.0202 24.364 26.3642 24.28 26.5962 24.112C26.8282 23.944 26.9442 23.716 26.9442 23.428C26.9442 23.204 26.8682 23.028 26.7162 22.9C26.5642 22.764 26.3242 22.66 25.9962 22.588L24.9042 22.348C24.4002 22.244 24.0242 22.064 23.7762 21.808C23.5362 21.552 23.4162 21.22 23.4162 20.812C23.4162 20.452 23.5082 20.144 23.6922 19.888C23.8842 19.624 24.1522 19.42 24.4962 19.276C24.8402 19.132 25.2402 19.06 25.6962 19.06C25.9682 19.06 26.2282 19.088 26.4762 19.144C26.7242 19.2 26.9562 19.284 27.1722 19.396C27.3962 19.5 27.5882 19.632 27.7482 19.792L27.4242 20.476C27.2722 20.332 27.1002 20.212 26.9082 20.116C26.7162 20.012 26.5162 19.936 26.3082 19.888C26.1082 19.832 25.9042 19.804 25.6962 19.804C25.2482 19.804 24.9082 19.892 24.6762 20.068C24.4442 20.244 24.3282 20.476 24.3282 20.764C24.3282 20.988 24.4002 21.172 24.5442 21.316C24.6882 21.46 24.9122 21.564 25.2162 21.628L26.3082 21.856C26.8282 21.968 27.2162 22.148 27.4722 22.396C27.7362 22.636 27.8682 22.964 27.8682 23.38C27.8682 23.732 27.7722 24.04 27.5802 24.304C27.3882 24.56 27.1162 24.76 26.7642 24.904C26.4202 25.04 26.0122 25.108 25.5402 25.108ZM31.3175 25.108C31.0135 25.108 30.7175 25.076 30.4295 25.012C30.1495 24.956 29.8855 24.876 29.6375 24.772C29.3975 24.66 29.1895 24.528 29.0135 24.376L29.3255 23.692C29.5175 23.844 29.7255 23.972 29.9495 24.076C30.1735 24.172 30.4015 24.244 30.6335 24.292C30.8655 24.34 31.1015 24.364 31.3415 24.364C31.7975 24.364 32.1415 24.28 32.3735 24.112C32.6055 23.944 32.7215 23.716 32.7215 23.428C32.7215 23.204 32.6455 23.028 32.4935 22.9C32.3415 22.764 32.1015 22.66 31.7735 22.588L30.6815 22.348C30.1775 22.244 29.8015 22.064 29.5535 21.808C29.3135 21.552 29.1935 21.22 29.1935 20.812C29.1935 20.452 29.2855 20.144 29.4695 19.888C29.6615 19.624 29.9295 19.42 30.2735 19.276C30.6175 19.132 31.0175 19.06 31.4735 19.06C31.7455 19.06 32.0055 19.088 32.2535 19.144C32.5015 19.2 32.7335 19.284 32.9495 19.396C33.1735 19.5 33.3655 19.632 33.5255 19.792L33.2015 20.476C33.0495 20.332 32.8775 20.212 32.6855 20.116C32.4935 20.012 32.2935 19.936 32.0855 19.888C31.8855 19.832 31.6815 19.804 31.4735 19.804C31.0255 19.804 30.6855 19.892 30.4535 20.068C30.2215 20.244 30.1055 20.476 30.1055 20.764C30.1055 20.988 30.1775 21.172 30.3215 21.316C30.4655 21.46 30.6895 21.564 30.9935 21.628L32.0855 21.856C32.6055 21.968 32.9935 22.148 33.2495 22.396C33.5135 22.636 33.6455 22.964 33.6455 23.38C33.6455 23.732 33.5495 24.04 33.3575 24.304C33.1655 24.56 32.8935 24.76 32.5415 24.904C32.1975 25.04 31.7895 25.108 31.3175 25.108ZM37.7548 25.108C37.1388 25.108 36.6068 24.988 36.1588 24.748C35.7188 24.5 35.3748 24.152 35.1268 23.704C34.8868 23.256 34.7668 22.72 34.7668 22.096C34.7668 21.488 34.8868 20.96 35.1268 20.512C35.3668 20.056 35.6948 19.7 36.1108 19.444C36.5348 19.188 37.0228 19.06 37.5748 19.06C38.1028 19.06 38.5548 19.176 38.9308 19.408C39.3068 19.64 39.5948 19.968 39.7948 20.392C40.0028 20.816 40.1068 21.324 40.1068 21.916V22.288H35.5108V21.652H39.4588L39.2668 21.808C39.2668 21.168 39.1228 20.672 38.8348 20.32C38.5548 19.96 38.1428 19.78 37.5988 19.78C37.1908 19.78 36.8428 19.876 36.5548 20.068C36.2748 20.252 36.0628 20.512 35.9188 20.848C35.7748 21.176 35.7028 21.56 35.7028 22V22.072C35.7028 22.56 35.7788 22.972 35.9308 23.308C36.0908 23.644 36.3268 23.9 36.6388 24.076C36.9508 24.244 37.3228 24.328 37.7548 24.328C38.0988 24.328 38.4308 24.276 38.7508 24.172C39.0788 24.06 39.3868 23.88 39.6748 23.632L40.0108 24.316C39.7468 24.556 39.4108 24.748 39.0028 24.892C38.5948 25.036 38.1788 25.108 37.7548 25.108ZM43.4816 25.108C43.1776 25.108 42.8816 25.076 42.5936 25.012C42.3136 24.956 42.0496 24.876 41.8016 24.772C41.5616 24.66 41.3536 24.528 41.1776 24.376L41.4896 23.692C41.6816 23.844 41.8896 23.972 42.1136 24.076C42.3376 24.172 42.5656 24.244 42.7976 24.292C43.0296 24.34 43.2656 24.364 43.5056 24.364C43.9616 24.364 44.3056 24.28 44.5376 24.112C44.7696 23.944 44.8856 23.716 44.8856 23.428C44.8856 23.204 44.8096 23.028 44.6576 22.9C44.5056 22.764 44.2656 22.66 43.9376 22.588L42.8456 22.348C42.3416 22.244 41.9656 22.064 41.7176 21.808C41.4776 21.552 41.3576 21.22 41.3576 20.812C41.3576 20.452 41.4496 20.144 41.6336 19.888C41.8256 19.624 42.0936 19.42 42.4376 19.276C42.7816 19.132 43.1816 19.06 43.6376 19.06C43.9096 19.06 44.1696 19.088 44.4176 19.144C44.6656 19.2 44.8976 19.284 45.1136 19.396C45.3376 19.5 45.5296 19.632 45.6896 19.792L45.3656 20.476C45.2136 20.332 45.0416 20.212 44.8496 20.116C44.6576 20.012 44.4576 19.936 44.2496 19.888C44.0496 19.832 43.8456 19.804 43.6376 19.804C43.1896 19.804 42.8496 19.892 42.6176 20.068C42.3856 20.244 42.2696 20.476 42.2696 20.764C42.2696 20.988 42.3416 21.172 42.4856 21.316C42.6296 21.46 42.8536 21.564 43.1576 21.628L44.2496 21.856C44.7696 21.968 45.1576 22.148 45.4136 22.396C45.6776 22.636 45.8096 22.964 45.8096 23.38C45.8096 23.732 45.7136 24.04 45.5216 24.304C45.3296 24.56 45.0576 24.76 44.7056 24.904C44.3616 25.04 43.9536 25.108 43.4816 25.108ZM47.5803 26.368L47.1243 26.02C47.2683 25.868 47.3763 25.724 47.4483 25.588C47.5283 25.46 47.5803 25.328 47.6043 25.192C47.6363 25.064 47.6523 24.932 47.6523 24.796L47.8683 25H47.0763V23.776H48.3003V24.64C48.3003 24.856 48.2763 25.06 48.2283 25.252C48.1883 25.452 48.1163 25.644 48.0123 25.828C47.9083 26.012 47.7643 26.192 47.5803 26.368ZM53.1768 25V16.54H54.1608V25H53.1768ZM58.5871 25.108C58.0031 25.108 57.4991 24.98 57.0751 24.724C56.6511 24.468 56.3231 24.112 56.0911 23.656C55.8671 23.192 55.7551 22.656 55.7551 22.048C55.7551 21.432 55.8671 20.9 56.0911 20.452C56.3231 20.004 56.6511 19.66 57.0751 19.42C57.4991 19.18 58.0031 19.06 58.5871 19.06C58.9471 19.06 59.3031 19.124 59.6551 19.252C60.0071 19.38 60.2991 19.56 60.5311 19.792L60.1951 20.5C59.9631 20.276 59.7071 20.112 59.4271 20.008C59.1551 19.904 58.8951 19.852 58.6471 19.852C58.0391 19.852 57.5711 20.044 57.2431 20.428C56.9151 20.804 56.7511 21.348 56.7511 22.06C56.7511 22.756 56.9151 23.308 57.2431 23.716C57.5711 24.116 58.0391 24.316 58.6471 24.316C58.8951 24.316 59.1551 24.264 59.4271 24.16C59.7071 24.056 59.9631 23.888 60.1951 23.656L60.5311 24.364C60.2991 24.596 60.0031 24.78 59.6431 24.916C59.2911 25.044 58.9391 25.108 58.5871 25.108ZM64.1806 25.108C63.5646 25.108 63.0326 24.988 62.5846 24.748C62.1446 24.5 61.8006 24.152 61.5526 23.704C61.3126 23.256 61.1926 22.72 61.1926 22.096C61.1926 21.488 61.3126 20.96 61.5526 20.512C61.7926 20.056 62.1206 19.7 62.5366 19.444C62.9606 19.188 63.4486 19.06 64.0006 19.06C64.5286 19.06 64.9806 19.176 65.3566 19.408C65.7326 19.64 66.0206 19.968 66.2206 20.392C66.4286 20.816 66.5326 21.324 66.5326 21.916V22.288H61.9366V21.652H65.8846L65.6926 21.808C65.6926 21.168 65.5486 20.672 65.2606 20.32C64.9806 19.96 64.5686 19.78 64.0246 19.78C63.6166 19.78 63.2686 19.876 62.9806 20.068C62.7006 20.252 62.4886 20.512 62.3446 20.848C62.2006 21.176 62.1286 21.56 62.1286 22V22.072C62.1286 22.56 62.2046 22.972 62.3566 23.308C62.5166 23.644 62.7526 23.9 63.0646 24.076C63.3766 24.244 63.7486 24.328 64.1806 24.328C64.5246 24.328 64.8566 24.276 65.1766 24.172C65.5046 24.06 65.8126 23.88 66.1006 23.632L66.4366 24.316C66.1726 24.556 65.8366 24.748 65.4286 24.892C65.0206 25.036 64.6046 25.108 64.1806 25.108ZM74.8134 25.108C73.9814 25.108 73.2694 24.932 72.6774 24.58C72.0854 24.228 71.6294 23.728 71.3094 23.08C70.9974 22.432 70.8414 21.66 70.8414 20.764C70.8414 19.868 70.9974 19.1 71.3094 18.46C71.6294 17.812 72.0854 17.312 72.6774 16.96C73.2694 16.608 73.9814 16.432 74.8134 16.432C75.3974 16.432 75.9374 16.524 76.4334 16.708C76.9294 16.892 77.3454 17.16 77.6814 17.512L77.2974 18.316C76.9294 17.972 76.5454 17.724 76.1454 17.572C75.7534 17.412 75.3174 17.332 74.8374 17.332C73.8854 17.332 73.1574 17.632 72.6534 18.232C72.1494 18.832 71.8974 19.676 71.8974 20.764C71.8974 21.852 72.1494 22.7 72.6534 23.308C73.1574 23.908 73.8854 24.208 74.8374 24.208C75.3174 24.208 75.7534 24.132 76.1454 23.98C76.5454 23.82 76.9294 23.568 77.2974 23.224L77.6814 24.028C77.3454 24.372 76.9294 24.64 76.4334 24.832C75.9374 25.016 75.3974 25.108 74.8134 25.108ZM79.0956 25V19.168H80.0436V20.548H79.9236C80.0596 20.076 80.2956 19.72 80.6316 19.48C80.9676 19.232 81.4116 19.088 81.9636 19.048L82.3116 19.012L82.3836 19.852L81.7716 19.924C81.2276 19.972 80.8076 20.148 80.5116 20.452C80.2236 20.748 80.0796 21.156 80.0796 21.676V25H79.0956ZM85.9541 25.108C85.3381 25.108 84.8061 24.988 84.3581 24.748C83.9181 24.5 83.5741 24.152 83.3261 23.704C83.0861 23.256 82.9661 22.72 82.9661 22.096C82.9661 21.488 83.0861 20.96 83.3261 20.512C83.5661 20.056 83.8941 19.7 84.3101 19.444C84.7341 19.188 85.2221 19.06 85.7741 19.06C86.3021 19.06 86.7541 19.176 87.1301 19.408C87.5061 19.64 87.7941 19.968 87.9941 20.392C88.2021 20.816 88.3061 21.324 88.3061 21.916V22.288H83.7101V21.652H87.6581L87.4661 21.808C87.4661 21.168 87.3221 20.672 87.0341 20.32C86.7541 19.96 86.3421 19.78 85.7981 19.78C85.3901 19.78 85.0421 19.876 84.7541 20.068C84.4741 20.252 84.2621 20.512 84.1181 20.848C83.9741 21.176 83.9021 21.56 83.9021 22V22.072C83.9021 22.56 83.9781 22.972 84.1301 23.308C84.2901 23.644 84.5261 23.9 84.8381 24.076C85.1501 24.244 85.5221 24.328 85.9541 24.328C86.2981 24.328 86.6301 24.276 86.9501 24.172C87.2781 24.06 87.5861 23.88 87.8741 23.632L88.2101 24.316C87.9461 24.556 87.6101 24.748 87.2021 24.892C86.7941 25.036 86.3781 25.108 85.9541 25.108ZM91.5488 25.108C91.1488 25.108 90.7888 25.032 90.4688 24.88C90.1568 24.72 89.9088 24.504 89.7248 24.232C89.5408 23.96 89.4488 23.656 89.4488 23.32C89.4488 22.888 89.5568 22.548 89.7728 22.3C89.9968 22.052 90.3608 21.876 90.8648 21.772C91.3768 21.668 92.0728 21.616 92.9528 21.616H93.4928V22.252H92.9648C92.4768 22.252 92.0688 22.268 91.7408 22.3C91.4128 22.332 91.1528 22.388 90.9608 22.468C90.7688 22.548 90.6328 22.652 90.5528 22.78C90.4728 22.908 90.4328 23.068 90.4328 23.26C90.4328 23.588 90.5448 23.856 90.7688 24.064C91.0008 24.272 91.3128 24.376 91.7048 24.376C92.0248 24.376 92.3048 24.3 92.5448 24.148C92.7928 23.996 92.9848 23.788 93.1208 23.524C93.2648 23.26 93.3368 22.956 93.3368 22.612V21.244C93.3368 20.748 93.2368 20.392 93.0368 20.176C92.8368 19.952 92.5088 19.84 92.0528 19.84C91.7008 19.84 91.3608 19.892 91.0328 19.996C90.7048 20.092 90.3688 20.252 90.0248 20.476L89.6888 19.768C89.8968 19.624 90.1328 19.5 90.3968 19.396C90.6608 19.284 90.9368 19.2 91.2248 19.144C91.5128 19.088 91.7888 19.06 92.0528 19.06C92.5568 19.06 92.9728 19.144 93.3008 19.312C93.6288 19.472 93.8728 19.72 94.0328 20.056C94.1928 20.384 94.2728 20.808 94.2728 21.328V25H93.3608V23.644H93.4688C93.4048 23.948 93.2808 24.208 93.0968 24.424C92.9208 24.64 92.7008 24.808 92.4368 24.928C92.1728 25.048 91.8768 25.108 91.5488 25.108ZM96.1001 25V19.168H97.0481V20.464H96.9161C97.0121 20.168 97.1521 19.916 97.3361 19.708C97.5281 19.492 97.7521 19.332 98.0081 19.228C98.2721 19.116 98.5601 19.06 98.8721 19.06C99.3681 19.06 99.7681 19.18 100.072 19.42C100.384 19.652 100.592 20.016 100.696 20.512H100.516C100.66 20.064 100.916 19.712 101.284 19.456C101.66 19.192 102.096 19.06 102.592 19.06C103.032 19.06 103.392 19.144 103.672 19.312C103.96 19.48 104.176 19.736 104.32 20.08C104.464 20.416 104.536 20.844 104.536 21.364V25H103.564V21.412C103.564 20.876 103.472 20.484 103.288 20.236C103.104 19.98 102.792 19.852 102.352 19.852C102.04 19.852 101.764 19.928 101.524 20.08C101.292 20.232 101.112 20.448 100.984 20.728C100.864 21 100.804 21.324 100.804 21.7V25H99.8321V21.412C99.8321 20.876 99.7361 20.484 99.5441 20.236C99.3601 19.98 99.0521 19.852 98.6201 19.852C98.3001 19.852 98.0241 19.928 97.7921 20.08C97.5601 20.232 97.3801 20.448 97.2521 20.728C97.1321 21 97.0721 21.324 97.0721 21.7V25H96.1001ZM108.321 25.108C108.017 25.108 107.721 25.076 107.433 25.012C107.153 24.956 106.889 24.876 106.641 24.772C106.401 24.66 106.193 24.528 106.017 24.376L106.329 23.692C106.521 23.844 106.729 23.972 106.953 24.076C107.177 24.172 107.405 24.244 107.637 24.292C107.869 24.34 108.105 24.364 108.345 24.364C108.801 24.364 109.145 24.28 109.377 24.112C109.609 23.944 109.725 23.716 109.725 23.428C109.725 23.204 109.649 23.028 109.497 22.9C109.345 22.764 109.105 22.66 108.777 22.588L107.685 22.348C107.181 22.244 106.805 22.064 106.557 21.808C106.317 21.552 106.197 21.22 106.197 20.812C106.197 20.452 106.289 20.144 106.473 19.888C106.665 19.624 106.933 19.42 107.277 19.276C107.621 19.132 108.021 19.06 108.477 19.06C108.749 19.06 109.009 19.088 109.257 19.144C109.505 19.2 109.737 19.284 109.953 19.396C110.177 19.5 110.369 19.632 110.529 19.792L110.205 20.476C110.053 20.332 109.881 20.212 109.689 20.116C109.497 20.012 109.297 19.936 109.089 19.888C108.889 19.832 108.685 19.804 108.477 19.804C108.029 19.804 107.689 19.892 107.457 20.068C107.225 20.244 107.109 20.476 107.109 20.764C107.109 20.988 107.181 21.172 107.325 21.316C107.469 21.46 107.693 21.564 107.997 21.628L109.089 21.856C109.609 21.968 109.997 22.148 110.253 22.396C110.517 22.636 110.649 22.964 110.649 23.38C110.649 23.732 110.553 24.04 110.361 24.304C110.169 24.56 109.897 24.76 109.545 24.904C109.201 25.04 108.793 25.108 108.321 25.108ZM112.42 26.368L111.964 26.02C112.108 25.868 112.216 25.724 112.288 25.588C112.368 25.46 112.42 25.328 112.444 25.192C112.476 25.064 112.492 24.932 112.492 24.796L112.708 25H111.916V23.776H113.14V24.64C113.14 24.856 113.116 25.06 113.068 25.252C113.028 25.452 112.956 25.644 112.852 25.828C112.748 26.012 112.604 26.192 112.42 26.368ZM117.201 25L120.933 16.54H121.773L125.505 25H124.485L123.441 22.588L123.921 22.84H118.761L119.253 22.588L118.221 25H117.201ZM121.341 17.692L119.409 22.24L119.121 22.012H123.561L123.297 22.24L121.365 17.692H121.341ZM126.627 25V19.168H127.575V20.464H127.443C127.611 20 127.883 19.652 128.259 19.42C128.643 19.18 129.083 19.06 129.579 19.06C130.043 19.06 130.427 19.144 130.731 19.312C131.043 19.472 131.275 19.724 131.427 20.068C131.579 20.412 131.655 20.844 131.655 21.364V25H130.683V21.424C130.683 21.064 130.635 20.768 130.539 20.536C130.451 20.304 130.307 20.132 130.107 20.02C129.915 19.908 129.663 19.852 129.351 19.852C128.999 19.852 128.691 19.928 128.427 20.08C128.163 20.232 127.959 20.444 127.815 20.716C127.671 20.988 127.599 21.308 127.599 21.676V25H126.627ZM135.667 25.108C135.147 25.108 134.691 24.984 134.299 24.736C133.915 24.488 133.615 24.14 133.399 23.692C133.191 23.236 133.087 22.7 133.087 22.084C133.087 21.46 133.191 20.924 133.399 20.476C133.615 20.02 133.915 19.672 134.299 19.432C134.691 19.184 135.147 19.06 135.667 19.06C136.195 19.06 136.647 19.192 137.023 19.456C137.399 19.72 137.651 20.076 137.779 20.524H137.647V16.54H138.619V25H137.671V23.608H137.791C137.663 24.064 137.407 24.428 137.023 24.7C136.647 24.972 136.195 25.108 135.667 25.108ZM135.871 24.328C136.423 24.328 136.859 24.136 137.179 23.752C137.507 23.36 137.671 22.804 137.671 22.084C137.671 21.356 137.507 20.8 137.179 20.416C136.859 20.032 136.423 19.84 135.871 19.84C135.327 19.84 134.891 20.032 134.563 20.416C134.235 20.8 134.071 21.356 134.071 22.084C134.071 22.804 134.235 23.36 134.563 23.752C134.891 24.136 135.327 24.328 135.871 24.328ZM146.393 25.108C145.953 25.108 145.537 25.068 145.145 24.988C144.761 24.908 144.405 24.796 144.077 24.652C143.757 24.5 143.465 24.316 143.201 24.1L143.549 23.308C143.821 23.508 144.097 23.68 144.377 23.824C144.665 23.96 144.973 24.064 145.301 24.136C145.637 24.2 146.001 24.232 146.393 24.232C147.113 24.232 147.645 24.1 147.989 23.836C148.341 23.564 148.517 23.208 148.517 22.768C148.517 22.536 148.461 22.336 148.349 22.168C148.245 22 148.069 21.856 147.821 21.736C147.581 21.616 147.265 21.516 146.873 21.436L145.625 21.184C144.873 21.024 144.309 20.764 143.933 20.404C143.565 20.036 143.381 19.548 143.381 18.94C143.381 18.436 143.509 17.996 143.765 17.62C144.029 17.244 144.393 16.952 144.857 16.744C145.329 16.536 145.865 16.432 146.465 16.432C146.849 16.432 147.213 16.472 147.557 16.552C147.901 16.632 148.217 16.752 148.505 16.912C148.801 17.064 149.061 17.252 149.285 17.476L148.937 18.244C148.577 17.916 148.197 17.68 147.797 17.536C147.397 17.384 146.949 17.308 146.453 17.308C146.029 17.308 145.661 17.372 145.349 17.5C145.045 17.628 144.805 17.816 144.629 18.064C144.461 18.304 144.377 18.584 144.377 18.904C144.377 19.288 144.493 19.592 144.725 19.816C144.965 20.04 145.353 20.204 145.889 20.308L147.137 20.572C147.945 20.74 148.541 20.996 148.925 21.34C149.317 21.676 149.513 22.136 149.513 22.72C149.513 23.184 149.385 23.6 149.129 23.968C148.881 24.328 148.521 24.608 148.049 24.808C147.585 25.008 147.033 25.108 146.393 25.108ZM150.932 25V19.168H151.88V20.464H151.748C151.844 20.168 151.984 19.916 152.168 19.708C152.36 19.492 152.584 19.332 152.84 19.228C153.104 19.116 153.392 19.06 153.704 19.06C154.2 19.06 154.6 19.18 154.904 19.42C155.216 19.652 155.424 20.016 155.528 20.512H155.348C155.492 20.064 155.748 19.712 156.116 19.456C156.492 19.192 156.928 19.06 157.424 19.06C157.864 19.06 158.224 19.144 158.504 19.312C158.792 19.48 159.008 19.736 159.152 20.08C159.296 20.416 159.368 20.844 159.368 21.364V25H158.396V21.412C158.396 20.876 158.304 20.484 158.12 20.236C157.936 19.98 157.624 19.852 157.184 19.852C156.872 19.852 156.596 19.928 156.356 20.08C156.124 20.232 155.944 20.448 155.816 20.728C155.696 21 155.636 21.324 155.636 21.7V25H154.664V21.412C154.664 20.876 154.568 20.484 154.376 20.236C154.192 19.98 153.884 19.852 153.452 19.852C153.132 19.852 152.856 19.928 152.624 20.08C152.392 20.232 152.212 20.448 152.084 20.728C151.964 21 151.904 21.324 151.904 21.7V25H150.932ZM163.021 25.108C162.621 25.108 162.261 25.032 161.941 24.88C161.629 24.72 161.381 24.504 161.197 24.232C161.013 23.96 160.921 23.656 160.921 23.32C160.921 22.888 161.029 22.548 161.245 22.3C161.469 22.052 161.833 21.876 162.337 21.772C162.849 21.668 163.545 21.616 164.425 21.616H164.965V22.252H164.437C163.949 22.252 163.541 22.268 163.213 22.3C162.885 22.332 162.625 22.388 162.433 22.468C162.241 22.548 162.105 22.652 162.025 22.78C161.945 22.908 161.905 23.068 161.905 23.26C161.905 23.588 162.017 23.856 162.241 24.064C162.473 24.272 162.785 24.376 163.177 24.376C163.497 24.376 163.777 24.3 164.017 24.148C164.265 23.996 164.457 23.788 164.593 23.524C164.737 23.26 164.809 22.956 164.809 22.612V21.244C164.809 20.748 164.709 20.392 164.509 20.176C164.309 19.952 163.981 19.84 163.525 19.84C163.173 19.84 162.833 19.892 162.505 19.996C162.177 20.092 161.841 20.252 161.497 20.476L161.161 19.768C161.369 19.624 161.605 19.5 161.869 19.396C162.133 19.284 162.409 19.2 162.697 19.144C162.985 19.088 163.261 19.06 163.525 19.06C164.029 19.06 164.445 19.144 164.773 19.312C165.101 19.472 165.345 19.72 165.505 20.056C165.665 20.384 165.745 20.808 165.745 21.328V25H164.833V23.644H164.941C164.877 23.948 164.753 24.208 164.569 24.424C164.393 24.64 164.173 24.808 163.909 24.928C163.645 25.048 163.349 25.108 163.021 25.108ZM169.337 25.108C168.745 25.108 168.297 24.932 167.993 24.58C167.697 24.228 167.549 23.724 167.549 23.068V16.54H168.521V22.996C168.521 23.276 168.557 23.512 168.629 23.704C168.709 23.896 168.825 24.04 168.977 24.136C169.129 24.232 169.317 24.28 169.541 24.28C169.637 24.28 169.729 24.276 169.817 24.268C169.913 24.252 170.001 24.232 170.081 24.208L170.057 25.024C169.929 25.048 169.805 25.068 169.685 25.084C169.573 25.1 169.457 25.108 169.337 25.108ZM172.888 25.108C172.296 25.108 171.848 24.932 171.544 24.58C171.248 24.228 171.1 23.724 171.1 23.068V16.54H172.072V22.996C172.072 23.276 172.108 23.512 172.18 23.704C172.26 23.896 172.376 24.04 172.528 24.136C172.68 24.232 172.868 24.28 173.092 24.28C173.188 24.28 173.28 24.276 173.368 24.268C173.464 24.252 173.552 24.232 173.632 24.208L173.608 25.024C173.48 25.048 173.356 25.068 173.236 25.084C173.124 25.1 173.008 25.108 172.888 25.108ZM177.864 25V16.54H180.72C181.64 16.54 182.416 16.704 183.048 17.032C183.688 17.352 184.172 17.828 184.5 18.46C184.836 19.084 185.004 19.852 185.004 20.764C185.004 21.676 184.836 22.448 184.5 23.08C184.172 23.712 183.688 24.192 183.048 24.52C182.416 24.84 181.64 25 180.72 25H177.864ZM178.848 24.16H180.648C181.76 24.16 182.588 23.876 183.132 23.308C183.684 22.74 183.96 21.892 183.96 20.764C183.96 19.636 183.684 18.792 183.132 18.232C182.58 17.664 181.752 17.38 180.648 17.38H178.848V24.16ZM189.267 25.108C188.651 25.108 188.119 24.988 187.671 24.748C187.231 24.5 186.887 24.152 186.639 23.704C186.399 23.256 186.279 22.72 186.279 22.096C186.279 21.488 186.399 20.96 186.639 20.512C186.879 20.056 187.207 19.7 187.623 19.444C188.047 19.188 188.535 19.06 189.087 19.06C189.615 19.06 190.067 19.176 190.443 19.408C190.819 19.64 191.107 19.968 191.307 20.392C191.515 20.816 191.619 21.324 191.619 21.916V22.288H187.023V21.652H190.971L190.779 21.808C190.779 21.168 190.635 20.672 190.347 20.32C190.067 19.96 189.655 19.78 189.111 19.78C188.703 19.78 188.355 19.876 188.067 20.068C187.787 20.252 187.575 20.512 187.431 20.848C187.287 21.176 187.215 21.56 187.215 22V22.072C187.215 22.56 187.291 22.972 187.443 23.308C187.603 23.644 187.839 23.9 188.151 24.076C188.463 24.244 188.835 24.328 189.267 24.328C189.611 24.328 189.943 24.276 190.263 24.172C190.591 24.06 190.899 23.88 191.187 23.632L191.523 24.316C191.259 24.556 190.923 24.748 190.515 24.892C190.107 25.036 189.691 25.108 189.267 25.108ZM194.993 25.108C194.689 25.108 194.393 25.076 194.105 25.012C193.825 24.956 193.561 24.876 193.313 24.772C193.073 24.66 192.865 24.528 192.689 24.376L193.001 23.692C193.193 23.844 193.401 23.972 193.625 24.076C193.849 24.172 194.077 24.244 194.309 24.292C194.541 24.34 194.777 24.364 195.017 24.364C195.473 24.364 195.817 24.28 196.049 24.112C196.281 23.944 196.397 23.716 196.397 23.428C196.397 23.204 196.321 23.028 196.169 22.9C196.017 22.764 195.777 22.66 195.449 22.588L194.357 22.348C193.853 22.244 193.477 22.064 193.229 21.808C192.989 21.552 192.869 21.22 192.869 20.812C192.869 20.452 192.961 20.144 193.145 19.888C193.337 19.624 193.605 19.42 193.949 19.276C194.293 19.132 194.693 19.06 195.149 19.06C195.421 19.06 195.681 19.088 195.929 19.144C196.177 19.2 196.409 19.284 196.625 19.396C196.849 19.5 197.041 19.632 197.201 19.792L196.877 20.476C196.725 20.332 196.553 20.212 196.361 20.116C196.169 20.012 195.969 19.936 195.761 19.888C195.561 19.832 195.357 19.804 195.149 19.804C194.701 19.804 194.361 19.892 194.129 20.068C193.897 20.244 193.781 20.476 193.781 20.764C193.781 20.988 193.853 21.172 193.997 21.316C194.141 21.46 194.365 21.564 194.669 21.628L195.761 21.856C196.281 21.968 196.669 22.148 196.925 22.396C197.189 22.636 197.321 22.964 197.321 23.38C197.321 23.732 197.225 24.04 197.033 24.304C196.841 24.56 196.569 24.76 196.217 24.904C195.873 25.04 195.465 25.108 194.993 25.108ZM200.771 25.108C200.467 25.108 200.171 25.076 199.883 25.012C199.603 24.956 199.339 24.876 199.091 24.772C198.851 24.66 198.643 24.528 198.467 24.376L198.779 23.692C198.971 23.844 199.179 23.972 199.403 24.076C199.627 24.172 199.855 24.244 200.087 24.292C200.319 24.34 200.555 24.364 200.795 24.364C201.251 24.364 201.595 24.28 201.827 24.112C202.059 23.944 202.175 23.716 202.175 23.428C202.175 23.204 202.099 23.028 201.947 22.9C201.795 22.764 201.555 22.66 201.227 22.588L200.135 22.348C199.631 22.244 199.255 22.064 199.007 21.808C198.767 21.552 198.647 21.22 198.647 20.812C198.647 20.452 198.739 20.144 198.923 19.888C199.115 19.624 199.383 19.42 199.727 19.276C200.071 19.132 200.471 19.06 200.927 19.06C201.199 19.06 201.459 19.088 201.707 19.144C201.955 19.2 202.187 19.284 202.403 19.396C202.627 19.5 202.819 19.632 202.979 19.792L202.655 20.476C202.503 20.332 202.331 20.212 202.139 20.116C201.947 20.012 201.747 19.936 201.539 19.888C201.339 19.832 201.135 19.804 200.927 19.804C200.479 19.804 200.139 19.892 199.907 20.068C199.675 20.244 199.559 20.476 199.559 20.764C199.559 20.988 199.631 21.172 199.775 21.316C199.919 21.46 200.143 21.564 200.447 21.628L201.539 21.856C202.059 21.968 202.447 22.148 202.703 22.396C202.967 22.636 203.099 22.964 203.099 23.38C203.099 23.732 203.003 24.04 202.811 24.304C202.619 24.56 202.347 24.76 201.995 24.904C201.651 25.04 201.243 25.108 200.771 25.108ZM207.208 25.108C206.592 25.108 206.06 24.988 205.612 24.748C205.172 24.5 204.828 24.152 204.58 23.704C204.34 23.256 204.22 22.72 204.22 22.096C204.22 21.488 204.34 20.96 204.58 20.512C204.82 20.056 205.148 19.7 205.564 19.444C205.988 19.188 206.476 19.06 207.028 19.06C207.556 19.06 208.008 19.176 208.384 19.408C208.76 19.64 209.048 19.968 209.248 20.392C209.456 20.816 209.56 21.324 209.56 21.916V22.288H204.964V21.652H208.912L208.72 21.808C208.72 21.168 208.576 20.672 208.288 20.32C208.008 19.96 207.596 19.78 207.052 19.78C206.644 19.78 206.296 19.876 206.008 20.068C205.728 20.252 205.516 20.512 205.372 20.848C205.228 21.176 205.156 21.56 205.156 22V22.072C205.156 22.56 205.232 22.972 205.384 23.308C205.544 23.644 205.78 23.9 206.092 24.076C206.404 24.244 206.776 24.328 207.208 24.328C207.552 24.328 207.884 24.276 208.204 24.172C208.532 24.06 208.84 23.88 209.128 23.632L209.464 24.316C209.2 24.556 208.864 24.748 208.456 24.892C208.048 25.036 207.632 25.108 207.208 25.108ZM210.967 25V19.168H211.915V20.548H211.795C211.931 20.076 212.167 19.72 212.503 19.48C212.839 19.232 213.283 19.088 213.835 19.048L214.183 19.012L214.255 19.852L213.643 19.924C213.099 19.972 212.679 20.148 212.383 20.452C212.095 20.748 211.951 21.156 211.951 21.676V25H210.967ZM217.924 25.108C217.236 25.108 216.72 24.924 216.376 24.556C216.032 24.188 215.86 23.664 215.86 22.984V19.924H214.72V19.168H215.86V17.38H216.832V19.168H218.68V19.924H216.832V22.888C216.832 23.344 216.928 23.692 217.12 23.932C217.312 24.164 217.624 24.28 218.056 24.28C218.184 24.28 218.312 24.264 218.44 24.232C218.568 24.2 218.684 24.168 218.788 24.136L218.956 24.88C218.852 24.936 218.7 24.988 218.5 25.036C218.3 25.084 218.108 25.108 217.924 25.108ZM221.747 25.108C221.443 25.108 221.147 25.076 220.859 25.012C220.579 24.956 220.315 24.876 220.067 24.772C219.827 24.66 219.619 24.528 219.443 24.376L219.755 23.692C219.947 23.844 220.155 23.972 220.379 24.076C220.603 24.172 220.831 24.244 221.063 24.292C221.295 24.34 221.531 24.364 221.771 24.364C222.227 24.364 222.571 24.28 222.803 24.112C223.035 23.944 223.151 23.716 223.151 23.428C223.151 23.204 223.075 23.028 222.923 22.9C222.771 22.764 222.531 22.66 222.203 22.588L221.111 22.348C220.607 22.244 220.231 22.064 219.983 21.808C219.743 21.552 219.623 21.22 219.623 20.812C219.623 20.452 219.715 20.144 219.899 19.888C220.091 19.624 220.359 19.42 220.703 19.276C221.047 19.132 221.447 19.06 221.903 19.06C222.175 19.06 222.435 19.088 222.683 19.144C222.931 19.2 223.163 19.284 223.379 19.396C223.603 19.5 223.795 19.632 223.955 19.792L223.631 20.476C223.479 20.332 223.307 20.212 223.115 20.116C222.923 20.012 222.723 19.936 222.515 19.888C222.315 19.832 222.111 19.804 221.903 19.804C221.455 19.804 221.115 19.892 220.883 20.068C220.651 20.244 220.535 20.476 220.535 20.764C220.535 20.988 220.607 21.172 220.751 21.316C220.895 21.46 221.119 21.564 221.423 21.628L222.515 21.856C223.035 21.968 223.423 22.148 223.679 22.396C223.943 22.636 224.075 22.964 224.075 23.38C224.075 23.732 223.979 24.04 223.787 24.304C223.595 24.56 223.323 24.76 222.971 24.904C222.627 25.04 222.219 25.108 221.747 25.108ZM225.342 25V23.776H226.566V25H225.342Z" fill="white"/>
</svg>
