<svg width="296" height="27" viewBox="0 0 296 27" fill="none" xmlns="http://www.w3.org/2000/svg">
<path d="M1.488 9V8.16H3.42V1.392H3.936L1.896 2.688L1.476 1.956L3.696 0.539999H4.404V8.16H6.216V9H1.488ZM8.27531 9V8.256L11.1673 5.136C11.4393 4.84 11.6593 4.564 11.8273 4.308C11.9953 4.044 12.1193 3.788 12.1993 3.54C12.2793 3.292 12.3193 3.04 12.3193 2.784C12.3193 2.304 12.1713 1.94 11.8753 1.692C11.5873 1.436 11.1633 1.308 10.6033 1.308C10.1713 1.308 9.76731 1.388 9.39131 1.548C9.02331 1.7 8.67131 1.94 8.33531 2.268L7.96331 1.5C8.27531 1.18 8.67131 0.924 9.15131 0.732C9.63931 0.532 10.1513 0.431999 10.6873 0.431999C11.2553 0.431999 11.7353 0.52 12.1273 0.696C12.5193 0.872 12.8153 1.132 13.0153 1.476C13.2153 1.812 13.3153 2.224 13.3153 2.712C13.3153 2.968 13.2833 3.22 13.2193 3.468C13.1633 3.708 13.0713 3.952 12.9433 4.2C12.8233 4.44 12.6673 4.688 12.4753 4.944C12.2913 5.2 12.0673 5.464 11.8033 5.736L9.25931 8.436V8.16H13.6633V9H8.27531ZM17.9906 9.108C17.3506 9.108 16.8066 8.944 16.3586 8.616C15.9186 8.28 15.5866 7.788 15.3626 7.14C15.1386 6.492 15.0266 5.7 15.0266 4.764C15.0266 3.82 15.1386 3.028 15.3626 2.388C15.5866 1.74 15.9186 1.252 16.3586 0.924C16.8066 0.595999 17.3506 0.431999 17.9906 0.431999C18.6386 0.431999 19.1826 0.595999 19.6226 0.924C20.0626 1.252 20.3946 1.736 20.6186 2.376C20.8426 3.016 20.9546 3.808 20.9546 4.752C20.9546 5.696 20.8426 6.492 20.6186 7.14C20.3946 7.788 20.0626 8.28 19.6226 8.616C19.1826 8.944 18.6386 9.108 17.9906 9.108ZM17.9906 8.256C18.6626 8.256 19.1586 7.972 19.4786 7.404C19.8066 6.836 19.9706 5.952 19.9706 4.752C19.9706 3.552 19.8106 2.676 19.4906 2.124C19.1706 1.564 18.6706 1.284 17.9906 1.284C17.3266 1.284 16.8306 1.564 16.5026 2.124C16.1746 2.684 16.0106 3.56 16.0106 4.752C16.0106 5.952 16.1706 6.836 16.4906 7.404C16.8186 7.972 17.3186 8.256 17.9906 8.256ZM22.5219 9V3.168H23.4699V4.464H23.3379C23.4339 4.168 23.5739 3.916 23.7579 3.708C23.9499 3.492 24.1739 3.332 24.4299 3.228C24.6939 3.116 24.9819 3.06 25.2939 3.06C25.7899 3.06 26.1899 3.18 26.4939 3.42C26.8059 3.652 27.0139 4.016 27.1179 4.512H26.9379C27.0819 4.064 27.3379 3.712 27.7059 3.456C28.0819 3.192 28.5179 3.06 29.0139 3.06C29.4539 3.06 29.8139 3.144 30.0939 3.312C30.3819 3.48 30.5979 3.736 30.7419 4.08C30.8859 4.416 30.9579 4.844 30.9579 5.364V9H29.9859V5.412C29.9859 4.876 29.8939 4.484 29.7099 4.236C29.5259 3.98 29.2139 3.852 28.7739 3.852C28.4619 3.852 28.1859 3.928 27.9459 4.08C27.7139 4.232 27.5339 4.448 27.4059 4.728C27.2859 5 27.2259 5.324 27.2259 5.7V9H26.2539V5.412C26.2539 4.876 26.1579 4.484 25.9659 4.236C25.7819 3.98 25.4739 3.852 25.0419 3.852C24.7219 3.852 24.4459 3.928 24.2139 4.08C23.9819 4.232 23.8019 4.448 23.6739 4.728C23.5539 5 23.4939 5.324 23.4939 5.7V9H22.5219ZM34.5633 9.108C33.9713 9.108 33.5233 8.932 33.2193 8.58C32.9233 8.228 32.7753 7.724 32.7753 7.068V0.539999H33.7473V6.996C33.7473 7.276 33.7833 7.512 33.8553 7.704C33.9353 7.896 34.0513 8.04 34.2033 8.136C34.3553 8.232 34.5433 8.28 34.7673 8.28C34.8633 8.28 34.9553 8.276 35.0433 8.268C35.1393 8.252 35.2273 8.232 35.3073 8.208L35.2833 9.024C35.1553 9.048 35.0313 9.068 34.9113 9.084C34.7993 9.1 34.6833 9.108 34.5633 9.108ZM39.5401 9V0.539999H42.3961C43.3161 0.539999 44.0921 0.704 44.7241 1.032C45.3641 1.352 45.8481 1.828 46.1761 2.46C46.5121 3.084 46.6801 3.852 46.6801 4.764C46.6801 5.676 46.5121 6.448 46.1761 7.08C45.8481 7.712 45.3641 8.192 44.7241 8.52C44.0921 8.84 43.3161 9 42.3961 9H39.5401ZM40.5241 8.16H42.3241C43.4361 8.16 44.2641 7.876 44.8081 7.308C45.3601 6.74 45.6361 5.892 45.6361 4.764C45.6361 3.636 45.3601 2.792 44.8081 2.232C44.2561 1.664 43.4281 1.38 42.3241 1.38H40.5241V8.16ZM50.9423 9.108C50.3263 9.108 49.7943 8.988 49.3463 8.748C48.9063 8.5 48.5623 8.152 48.3143 7.704C48.0743 7.256 47.9543 6.72 47.9543 6.096C47.9543 5.488 48.0743 4.96 48.3143 4.512C48.5543 4.056 48.8823 3.7 49.2983 3.444C49.7223 3.188 50.2103 3.06 50.7623 3.06C51.2903 3.06 51.7423 3.176 52.1183 3.408C52.4943 3.64 52.7823 3.968 52.9823 4.392C53.1903 4.816 53.2943 5.324 53.2943 5.916V6.288H48.6983V5.652H52.6463L52.4543 5.808C52.4543 5.168 52.3103 4.672 52.0223 4.32C51.7423 3.96 51.3303 3.78 50.7863 3.78C50.3783 3.78 50.0303 3.876 49.7423 4.068C49.4623 4.252 49.2503 4.512 49.1063 4.848C48.9623 5.176 48.8903 5.56 48.8903 6V6.072C48.8903 6.56 48.9663 6.972 49.1183 7.308C49.2783 7.644 49.5143 7.9 49.8263 8.076C50.1383 8.244 50.5103 8.328 50.9423 8.328C51.2863 8.328 51.6183 8.276 51.9383 8.172C52.2663 8.06 52.5743 7.88 52.8623 7.632L53.1983 8.316C52.9343 8.556 52.5983 8.748 52.1903 8.892C51.7823 9.036 51.3663 9.108 50.9423 9.108ZM56.6691 9.108C56.3651 9.108 56.0691 9.076 55.7811 9.012C55.5011 8.956 55.2371 8.876 54.9891 8.772C54.7491 8.66 54.5411 8.528 54.3651 8.376L54.6771 7.692C54.8691 7.844 55.0771 7.972 55.3011 8.076C55.5251 8.172 55.7531 8.244 55.9851 8.292C56.2171 8.34 56.4531 8.364 56.6931 8.364C57.1491 8.364 57.4931 8.28 57.7251 8.112C57.9571 7.944 58.0731 7.716 58.0731 7.428C58.0731 7.204 57.9971 7.028 57.8451 6.9C57.6931 6.764 57.4531 6.66 57.1251 6.588L56.0331 6.348C55.5291 6.244 55.1531 6.064 54.9051 5.808C54.6651 5.552 54.5451 5.22 54.5451 4.812C54.5451 4.452 54.6371 4.144 54.8211 3.888C55.0131 3.624 55.2811 3.42 55.6251 3.276C55.9691 3.132 56.3691 3.06 56.8251 3.06C57.0971 3.06 57.3571 3.088 57.6051 3.144C57.8531 3.2 58.0851 3.284 58.3011 3.396C58.5251 3.5 58.7171 3.632 58.8771 3.792L58.5531 4.476C58.4011 4.332 58.2291 4.212 58.0371 4.116C57.8451 4.012 57.6451 3.936 57.4371 3.888C57.2371 3.832 57.0331 3.804 56.8251 3.804C56.3771 3.804 56.0371 3.892 55.8051 4.068C55.5731 4.244 55.4571 4.476 55.4571 4.764C55.4571 4.988 55.5291 5.172 55.6731 5.316C55.8171 5.46 56.0411 5.564 56.3451 5.628L57.4371 5.856C57.9571 5.968 58.3451 6.148 58.6011 6.396C58.8651 6.636 58.9971 6.964 58.9971 7.38C58.9971 7.732 58.9011 8.04 58.7091 8.304C58.5171 8.56 58.2451 8.76 57.8931 8.904C57.5491 9.04 57.1411 9.108 56.6691 9.108ZM62.4464 9.108C62.1424 9.108 61.8464 9.076 61.5584 9.012C61.2784 8.956 61.0144 8.876 60.7664 8.772C60.5264 8.66 60.3184 8.528 60.1424 8.376L60.4544 7.692C60.6464 7.844 60.8544 7.972 61.0784 8.076C61.3024 8.172 61.5304 8.244 61.7624 8.292C61.9944 8.34 62.2304 8.364 62.4704 8.364C62.9264 8.364 63.2704 8.28 63.5024 8.112C63.7344 7.944 63.8504 7.716 63.8504 7.428C63.8504 7.204 63.7744 7.028 63.6224 6.9C63.4704 6.764 63.2304 6.66 62.9024 6.588L61.8104 6.348C61.3064 6.244 60.9304 6.064 60.6824 5.808C60.4424 5.552 60.3224 5.22 60.3224 4.812C60.3224 4.452 60.4144 4.144 60.5984 3.888C60.7904 3.624 61.0584 3.42 61.4024 3.276C61.7464 3.132 62.1464 3.06 62.6024 3.06C62.8744 3.06 63.1344 3.088 63.3824 3.144C63.6304 3.2 63.8624 3.284 64.0784 3.396C64.3024 3.5 64.4944 3.632 64.6544 3.792L64.3304 4.476C64.1784 4.332 64.0064 4.212 63.8144 4.116C63.6224 4.012 63.4224 3.936 63.2144 3.888C63.0144 3.832 62.8104 3.804 62.6024 3.804C62.1544 3.804 61.8144 3.892 61.5824 4.068C61.3504 4.244 61.2344 4.476 61.2344 4.764C61.2344 4.988 61.3064 5.172 61.4504 5.316C61.5944 5.46 61.8184 5.564 62.1224 5.628L63.2144 5.856C63.7344 5.968 64.1224 6.148 64.3784 6.396C64.6424 6.636 64.7744 6.964 64.7744 7.38C64.7744 7.732 64.6784 8.04 64.4864 8.304C64.2944 8.56 64.0224 8.76 63.6704 8.904C63.3264 9.04 62.9184 9.108 62.4464 9.108ZM68.8838 9.108C68.2678 9.108 67.7358 8.988 67.2878 8.748C66.8478 8.5 66.5038 8.152 66.2558 7.704C66.0158 7.256 65.8958 6.72 65.8958 6.096C65.8958 5.488 66.0158 4.96 66.2558 4.512C66.4958 4.056 66.8238 3.7 67.2398 3.444C67.6638 3.188 68.1518 3.06 68.7038 3.06C69.2318 3.06 69.6838 3.176 70.0598 3.408C70.4358 3.64 70.7238 3.968 70.9238 4.392C71.1318 4.816 71.2358 5.324 71.2358 5.916V6.288H66.6398V5.652H70.5878L70.3958 5.808C70.3958 5.168 70.2518 4.672 69.9638 4.32C69.6838 3.96 69.2718 3.78 68.7278 3.78C68.3198 3.78 67.9718 3.876 67.6838 4.068C67.4038 4.252 67.1918 4.512 67.0478 4.848C66.9038 5.176 66.8318 5.56 66.8318 6V6.072C66.8318 6.56 66.9078 6.972 67.0598 7.308C67.2198 7.644 67.4558 7.9 67.7678 8.076C68.0798 8.244 68.4518 8.328 68.8838 8.328C69.2278 8.328 69.5598 8.276 69.8798 8.172C70.2078 8.06 70.5158 7.88 70.8038 7.632L71.1398 8.316C70.8758 8.556 70.5398 8.748 70.1318 8.892C69.7238 9.036 69.3078 9.108 68.8838 9.108ZM72.6425 9V3.168H73.5905V4.548H73.4705C73.6065 4.076 73.8425 3.72 74.1785 3.48C74.5145 3.232 74.9585 3.088 75.5105 3.048L75.8585 3.012L75.9305 3.852L75.3185 3.924C74.7745 3.972 74.3545 4.148 74.0585 4.452C73.7705 4.748 73.6265 5.156 73.6265 5.676V9H72.6425ZM79.5997 9.108C78.9117 9.108 78.3957 8.924 78.0517 8.556C77.7077 8.188 77.5357 7.664 77.5357 6.984V3.924H76.3957V3.168H77.5357V1.38H78.5077V3.168H80.3557V3.924H78.5077V6.888C78.5077 7.344 78.6037 7.692 78.7957 7.932C78.9877 8.164 79.2997 8.28 79.7317 8.28C79.8597 8.28 79.9877 8.264 80.1157 8.232C80.2437 8.2 80.3597 8.168 80.4637 8.136L80.6317 8.88C80.5277 8.936 80.3757 8.988 80.1757 9.036C79.9757 9.084 79.7837 9.108 79.5997 9.108ZM88.329 9.108C87.497 9.108 86.785 8.932 86.193 8.58C85.601 8.228 85.145 7.728 84.825 7.08C84.513 6.432 84.357 5.66 84.357 4.764C84.357 3.868 84.513 3.1 84.825 2.46C85.145 1.812 85.601 1.312 86.193 0.96C86.785 0.608 87.497 0.431999 88.329 0.431999C88.913 0.431999 89.453 0.523999 89.949 0.707999C90.445 0.891999 90.861 1.16 91.197 1.512L90.813 2.316C90.445 1.972 90.061 1.724 89.661 1.572C89.269 1.412 88.833 1.332 88.353 1.332C87.401 1.332 86.673 1.632 86.169 2.232C85.665 2.832 85.413 3.676 85.413 4.764C85.413 5.852 85.665 6.7 86.169 7.308C86.673 7.908 87.401 8.208 88.353 8.208C88.833 8.208 89.269 8.132 89.661 7.98C90.061 7.82 90.445 7.568 90.813 7.224L91.197 8.028C90.861 8.372 90.445 8.64 89.949 8.832C89.453 9.016 88.913 9.108 88.329 9.108ZM94.5463 9.108C94.0743 9.108 93.6823 9.024 93.3703 8.856C93.0663 8.68 92.8343 8.42 92.6743 8.076C92.5223 7.732 92.4463 7.304 92.4463 6.792V3.168H93.4183V6.78C93.4183 7.124 93.4623 7.412 93.5503 7.644C93.6463 7.868 93.7943 8.036 93.9943 8.148C94.1943 8.252 94.4423 8.304 94.7383 8.304C95.0743 8.304 95.3663 8.228 95.6143 8.076C95.8623 7.924 96.0583 7.712 96.2023 7.44C96.3463 7.168 96.4183 6.848 96.4183 6.48V3.168H97.3903V9H96.4423V7.656H96.5983C96.4383 8.128 96.1743 8.488 95.8063 8.736C95.4463 8.984 95.0263 9.108 94.5463 9.108ZM99.2089 11.16V3.168H100.157V4.548H100.037C100.165 4.092 100.417 3.732 100.793 3.468C101.177 3.196 101.633 3.06 102.161 3.06C102.681 3.06 103.133 3.184 103.517 3.432C103.909 3.672 104.209 4.02 104.417 4.476C104.633 4.924 104.741 5.46 104.741 6.084C104.741 6.7 104.633 7.236 104.417 7.692C104.209 8.14 103.913 8.488 103.529 8.736C103.145 8.984 102.689 9.108 102.161 9.108C101.633 9.108 101.181 8.976 100.805 8.712C100.429 8.44 100.173 8.08 100.037 7.632H100.181V11.16H99.2089ZM101.957 8.328C102.509 8.328 102.945 8.136 103.265 7.752C103.593 7.36 103.757 6.804 103.757 6.084C103.757 5.356 103.593 4.8 103.265 4.416C102.945 4.032 102.509 3.84 101.957 3.84C101.413 3.84 100.977 4.032 100.649 4.416C100.321 4.8 100.157 5.356 100.157 6.084C100.157 6.804 100.321 7.36 100.649 7.752C100.977 8.136 101.413 8.328 101.957 8.328ZM106.283 10.368L105.827 10.02C105.971 9.868 106.079 9.724 106.151 9.588C106.231 9.46 106.283 9.328 106.307 9.192C106.339 9.064 106.355 8.932 106.355 8.796L106.571 9H105.779V7.776H107.003V8.64C107.003 8.856 106.979 9.06 106.931 9.252C106.891 9.452 106.819 9.644 106.715 9.828C106.611 10.012 106.467 10.192 106.283 10.368ZM111.88 9V0.539999H115.228C115.836 0.539999 116.348 0.64 116.764 0.84C117.188 1.032 117.508 1.32 117.724 1.704C117.94 2.08 118.048 2.54 118.048 3.084C118.048 3.612 117.94 4.068 117.724 4.452C117.508 4.836 117.188 5.128 116.764 5.328C116.348 5.528 115.836 5.628 115.228 5.628H112.864V9H111.88ZM112.864 4.8H115.108C115.756 4.8 116.244 4.656 116.572 4.368C116.908 4.072 117.076 3.644 117.076 3.084C117.076 2.516 116.908 2.088 116.572 1.8C116.244 1.504 115.756 1.356 115.108 1.356H112.864V4.8ZM121.712 9.108C121.096 9.108 120.564 8.988 120.116 8.748C119.676 8.5 119.332 8.152 119.084 7.704C118.844 7.256 118.724 6.72 118.724 6.096C118.724 5.488 118.844 4.96 119.084 4.512C119.324 4.056 119.652 3.7 120.068 3.444C120.492 3.188 120.98 3.06 121.532 3.06C122.06 3.06 122.512 3.176 122.888 3.408C123.264 3.64 123.552 3.968 123.752 4.392C123.96 4.816 124.064 5.324 124.064 5.916V6.288H119.468V5.652H123.416L123.224 5.808C123.224 5.168 123.08 4.672 122.792 4.32C122.512 3.96 122.1 3.78 121.556 3.78C121.148 3.78 120.8 3.876 120.512 4.068C120.232 4.252 120.02 4.512 119.876 4.848C119.732 5.176 119.66 5.56 119.66 6V6.072C119.66 6.56 119.736 6.972 119.888 7.308C120.048 7.644 120.284 7.9 120.596 8.076C120.908 8.244 121.28 8.328 121.712 8.328C122.056 8.328 122.388 8.276 122.708 8.172C123.036 8.06 123.344 7.88 123.632 7.632L123.968 8.316C123.704 8.556 123.368 8.748 122.96 8.892C122.552 9.036 122.136 9.108 121.712 9.108ZM125.471 9V3.168H126.419V4.548H126.299C126.435 4.076 126.671 3.72 127.007 3.48C127.343 3.232 127.787 3.088 128.339 3.048L128.687 3.012L128.759 3.852L128.147 3.924C127.603 3.972 127.183 4.148 126.887 4.452C126.599 4.748 126.455 5.156 126.455 5.676V9H125.471ZM130.4 9V3.924H129.248V3.168H130.664L130.4 3.42V2.964C130.4 2.188 130.592 1.6 130.976 1.2C131.368 0.799999 131.968 0.575999 132.776 0.528L133.244 0.504L133.328 1.248L132.776 1.284C132.448 1.308 132.18 1.38 131.972 1.5C131.764 1.62 131.612 1.792 131.516 2.016C131.42 2.24 131.372 2.516 131.372 2.844V3.348L131.228 3.168H133.052V3.924H131.372V9H130.4ZM136.548 9.108C135.932 9.108 135.4 8.988 134.952 8.748C134.512 8.5 134.168 8.152 133.92 7.704C133.68 7.256 133.56 6.72 133.56 6.096C133.56 5.488 133.68 4.96 133.92 4.512C134.16 4.056 134.488 3.7 134.904 3.444C135.328 3.188 135.816 3.06 136.368 3.06C136.896 3.06 137.348 3.176 137.724 3.408C138.1 3.64 138.388 3.968 138.588 4.392C138.796 4.816 138.9 5.324 138.9 5.916V6.288H134.304V5.652H138.252L138.06 5.808C138.06 5.168 137.916 4.672 137.628 4.32C137.348 3.96 136.936 3.78 136.392 3.78C135.984 3.78 135.636 3.876 135.348 4.068C135.068 4.252 134.856 4.512 134.712 4.848C134.568 5.176 134.496 5.56 134.496 6V6.072C134.496 6.56 134.572 6.972 134.724 7.308C134.884 7.644 135.12 7.9 135.432 8.076C135.744 8.244 136.116 8.328 136.548 8.328C136.892 8.328 137.224 8.276 137.544 8.172C137.872 8.06 138.18 7.88 138.468 7.632L138.804 8.316C138.54 8.556 138.204 8.748 137.796 8.892C137.388 9.036 136.972 9.108 136.548 9.108ZM142.779 9.108C142.195 9.108 141.691 8.98 141.267 8.724C140.843 8.468 140.515 8.112 140.283 7.656C140.059 7.192 139.947 6.656 139.947 6.048C139.947 5.432 140.059 4.9 140.283 4.452C140.515 4.004 140.843 3.66 141.267 3.42C141.691 3.18 142.195 3.06 142.779 3.06C143.139 3.06 143.495 3.124 143.847 3.252C144.199 3.38 144.491 3.56 144.723 3.792L144.387 4.5C144.155 4.276 143.899 4.112 143.619 4.008C143.347 3.904 143.087 3.852 142.839 3.852C142.231 3.852 141.763 4.044 141.435 4.428C141.107 4.804 140.943 5.348 140.943 6.06C140.943 6.756 141.107 7.308 141.435 7.716C141.763 8.116 142.231 8.316 142.839 8.316C143.087 8.316 143.347 8.264 143.619 8.16C143.899 8.056 144.155 7.888 144.387 7.656L144.723 8.364C144.491 8.596 144.195 8.78 143.835 8.916C143.483 9.044 143.131 9.108 142.779 9.108ZM148.201 9.108C147.513 9.108 146.997 8.924 146.653 8.556C146.309 8.188 146.137 7.664 146.137 6.984V3.924H144.997V3.168H146.137V1.38H147.109V3.168H148.957V3.924H147.109V6.888C147.109 7.344 147.205 7.692 147.397 7.932C147.589 8.164 147.901 8.28 148.333 8.28C148.461 8.28 148.589 8.264 148.717 8.232C148.845 8.2 148.961 8.168 149.065 8.136L149.233 8.88C149.129 8.936 148.977 8.988 148.777 9.036C148.577 9.084 148.385 9.108 148.201 9.108ZM153.271 9V0.539999H158.503V1.368H154.255V4.32H158.263V5.148H154.255V9H153.271ZM161.914 9.108C161.346 9.108 160.854 8.984 160.438 8.736C160.022 8.488 159.698 8.14 159.466 7.692C159.242 7.236 159.13 6.7 159.13 6.084C159.13 5.468 159.242 4.936 159.466 4.488C159.698 4.032 160.022 3.68 160.438 3.432C160.854 3.184 161.346 3.06 161.914 3.06C162.482 3.06 162.974 3.184 163.39 3.432C163.806 3.68 164.126 4.032 164.35 4.488C164.582 4.936 164.698 5.468 164.698 6.084C164.698 6.7 164.582 7.236 164.35 7.692C164.126 8.14 163.806 8.488 163.39 8.736C162.974 8.984 162.482 9.108 161.914 9.108ZM161.914 8.328C162.466 8.328 162.902 8.136 163.222 7.752C163.55 7.36 163.714 6.8 163.714 6.072C163.714 5.352 163.55 4.8 163.222 4.416C162.902 4.032 162.466 3.84 161.914 3.84C161.37 3.84 160.934 4.032 160.606 4.416C160.278 4.8 160.114 5.352 160.114 6.072C160.114 6.8 160.278 7.36 160.606 7.752C160.934 8.136 161.37 8.328 161.914 8.328ZM166.158 9V3.168H167.106V4.548H166.986C167.122 4.076 167.358 3.72 167.694 3.48C168.03 3.232 168.474 3.088 169.026 3.048L169.374 3.012L169.446 3.852L168.834 3.924C168.29 3.972 167.87 4.148 167.574 4.452C167.286 4.748 167.142 5.156 167.142 5.676V9H166.158ZM173.673 9V0.539999H177.021C177.629 0.539999 178.141 0.64 178.557 0.84C178.981 1.032 179.301 1.32 179.517 1.704C179.733 2.08 179.841 2.54 179.841 3.084C179.841 3.612 179.733 4.068 179.517 4.452C179.301 4.836 178.981 5.128 178.557 5.328C178.141 5.528 177.629 5.628 177.021 5.628H174.657V9H173.673ZM174.657 4.8H176.901C177.549 4.8 178.037 4.656 178.365 4.368C178.701 4.072 178.869 3.644 178.869 3.084C178.869 2.516 178.701 2.088 178.365 1.8C178.037 1.504 177.549 1.356 176.901 1.356H174.657V4.8ZM183.128 9.108C182.656 9.108 182.264 9.024 181.952 8.856C181.648 8.68 181.416 8.42 181.256 8.076C181.104 7.732 181.028 7.304 181.028 6.792V3.168H182V6.78C182 7.124 182.044 7.412 182.132 7.644C182.228 7.868 182.376 8.036 182.576 8.148C182.776 8.252 183.024 8.304 183.32 8.304C183.656 8.304 183.948 8.228 184.196 8.076C184.444 7.924 184.64 7.712 184.784 7.44C184.928 7.168 185 6.848 185 6.48V3.168H185.972V9H185.024V7.656H185.18C185.02 8.128 184.756 8.488 184.388 8.736C184.028 8.984 183.608 9.108 183.128 9.108ZM190.011 9.108C189.491 9.108 189.035 8.984 188.643 8.736C188.259 8.488 187.959 8.14 187.743 7.692C187.535 7.236 187.431 6.7 187.431 6.084C187.431 5.46 187.535 4.924 187.743 4.476C187.959 4.02 188.259 3.672 188.643 3.432C189.035 3.184 189.491 3.06 190.011 3.06C190.539 3.06 190.991 3.192 191.367 3.456C191.743 3.72 191.995 4.076 192.123 4.524H191.991V0.539999H192.963V9H192.015V7.608H192.135C192.007 8.064 191.751 8.428 191.367 8.7C190.991 8.972 190.539 9.108 190.011 9.108ZM190.215 8.328C190.767 8.328 191.203 8.136 191.523 7.752C191.851 7.36 192.015 6.804 192.015 6.084C192.015 5.356 191.851 4.8 191.523 4.416C191.203 4.032 190.767 3.84 190.215 3.84C189.671 3.84 189.235 4.032 188.907 4.416C188.579 4.8 188.415 5.356 188.415 6.084C188.415 6.804 188.579 7.36 188.907 7.752C189.235 8.136 189.671 8.328 190.215 8.328ZM197.007 9.108C196.487 9.108 196.031 8.984 195.639 8.736C195.255 8.488 194.955 8.14 194.739 7.692C194.531 7.236 194.427 6.7 194.427 6.084C194.427 5.46 194.531 4.924 194.739 4.476C194.955 4.02 195.255 3.672 195.639 3.432C196.031 3.184 196.487 3.06 197.007 3.06C197.535 3.06 197.987 3.192 198.363 3.456C198.739 3.72 198.991 4.076 199.119 4.524H198.987V0.539999H199.959V9H199.011V7.608H199.131C199.003 8.064 198.747 8.428 198.363 8.7C197.987 8.972 197.535 9.108 197.007 9.108ZM197.211 8.328C197.763 8.328 198.199 8.136 198.519 7.752C198.847 7.36 199.011 6.804 199.011 6.084C199.011 5.356 198.847 4.8 198.519 4.416C198.199 4.032 197.763 3.84 197.211 3.84C196.667 3.84 196.231 4.032 195.903 4.416C195.575 4.8 195.411 5.356 195.411 6.084C195.411 6.804 195.575 7.36 195.903 7.752C196.231 8.136 196.667 8.328 197.211 8.328ZM201.663 1.716V0.624H202.863V1.716H201.663ZM201.783 9V3.168H202.755V9H201.783ZM204.572 9V3.168H205.52V4.464H205.388C205.556 4 205.828 3.652 206.204 3.42C206.588 3.18 207.028 3.06 207.524 3.06C207.988 3.06 208.372 3.144 208.676 3.312C208.988 3.472 209.22 3.724 209.372 4.068C209.524 4.412 209.6 4.844 209.6 5.364V9H208.628V5.424C208.628 5.064 208.58 4.768 208.484 4.536C208.396 4.304 208.252 4.132 208.052 4.02C207.86 3.908 207.608 3.852 207.296 3.852C206.944 3.852 206.636 3.928 206.372 4.08C206.108 4.232 205.904 4.444 205.76 4.716C205.616 4.988 205.544 5.308 205.544 5.676V9H204.572ZM213.972 11.268C213.468 11.268 212.992 11.2 212.544 11.064C212.104 10.936 211.712 10.74 211.368 10.476L211.692 9.768C211.932 9.936 212.168 10.072 212.4 10.176C212.64 10.288 212.884 10.368 213.132 10.416C213.388 10.464 213.652 10.488 213.924 10.488C214.492 10.488 214.92 10.336 215.208 10.032C215.504 9.728 215.652 9.288 215.652 8.712V7.356H215.772C215.652 7.82 215.396 8.188 215.004 8.46C214.62 8.732 214.168 8.868 213.648 8.868C213.112 8.868 212.648 8.748 212.256 8.508C211.864 8.26 211.56 7.916 211.344 7.476C211.136 7.036 211.032 6.528 211.032 5.952C211.032 5.376 211.136 4.872 211.344 4.44C211.56 4 211.864 3.66 212.256 3.42C212.648 3.18 213.112 3.06 213.648 3.06C214.176 3.06 214.632 3.196 215.016 3.468C215.4 3.732 215.648 4.092 215.76 4.548H215.652V3.168H216.6V8.58C216.6 9.172 216.5 9.668 216.3 10.068C216.108 10.468 215.816 10.768 215.424 10.968C215.032 11.168 214.548 11.268 213.972 11.268ZM213.828 8.076C214.388 8.076 214.832 7.884 215.16 7.5C215.488 7.116 215.652 6.6 215.652 5.952C215.652 5.304 215.488 4.792 215.16 4.416C214.832 4.032 214.388 3.84 213.828 3.84C213.276 3.84 212.836 4.032 212.508 4.416C212.18 4.792 212.016 5.304 212.016 5.952C212.016 6.6 212.18 7.116 212.508 7.5C212.836 7.884 213.276 8.076 213.828 8.076ZM220.392 9.108C220.088 9.108 219.792 9.076 219.504 9.012C219.224 8.956 218.96 8.876 218.712 8.772C218.472 8.66 218.264 8.528 218.088 8.376L218.4 7.692C218.592 7.844 218.8 7.972 219.024 8.076C219.248 8.172 219.476 8.244 219.708 8.292C219.94 8.34 220.176 8.364 220.416 8.364C220.872 8.364 221.216 8.28 221.448 8.112C221.68 7.944 221.796 7.716 221.796 7.428C221.796 7.204 221.72 7.028 221.568 6.9C221.416 6.764 221.176 6.66 220.848 6.588L219.756 6.348C219.252 6.244 218.876 6.064 218.628 5.808C218.388 5.552 218.268 5.22 218.268 4.812C218.268 4.452 218.36 4.144 218.544 3.888C218.736 3.624 219.004 3.42 219.348 3.276C219.692 3.132 220.092 3.06 220.548 3.06C220.82 3.06 221.08 3.088 221.328 3.144C221.576 3.2 221.808 3.284 222.024 3.396C222.248 3.5 222.44 3.632 222.6 3.792L222.276 4.476C222.124 4.332 221.952 4.212 221.76 4.116C221.568 4.012 221.368 3.936 221.16 3.888C220.96 3.832 220.756 3.804 220.548 3.804C220.1 3.804 219.76 3.892 219.528 4.068C219.296 4.244 219.18 4.476 219.18 4.764C219.18 4.988 219.252 5.172 219.396 5.316C219.54 5.46 219.764 5.564 220.068 5.628L221.16 5.856C221.68 5.968 222.068 6.148 222.324 6.396C222.588 6.636 222.72 6.964 222.72 7.38C222.72 7.732 222.624 8.04 222.432 8.304C222.24 8.56 221.968 8.76 221.616 8.904C221.272 9.04 220.864 9.108 220.392 9.108ZM224.49 10.368L224.034 10.02C224.178 9.868 224.286 9.724 224.358 9.588C224.438 9.46 224.49 9.328 224.514 9.192C224.546 9.064 224.562 8.932 224.562 8.796L224.778 9H223.986V7.776H225.21V8.64C225.21 8.856 225.186 9.06 225.138 9.252C225.098 9.452 225.026 9.644 224.922 9.828C224.818 10.012 224.674 10.192 224.49 10.368ZM230.111 9V0.539999H230.939L234.371 6.984H234.011L237.419 0.539999H238.247V9H237.335V1.86H237.623L234.515 7.692H233.867L230.723 1.848H231.011V9H230.111ZM242.057 9.108C241.657 9.108 241.297 9.032 240.977 8.88C240.665 8.72 240.417 8.504 240.233 8.232C240.049 7.96 239.957 7.656 239.957 7.32C239.957 6.888 240.065 6.548 240.281 6.3C240.505 6.052 240.869 5.876 241.373 5.772C241.885 5.668 242.581 5.616 243.461 5.616H244.001V6.252H243.473C242.985 6.252 242.577 6.268 242.249 6.3C241.921 6.332 241.661 6.388 241.469 6.468C241.277 6.548 241.141 6.652 241.061 6.78C240.981 6.908 240.941 7.068 240.941 7.26C240.941 7.588 241.053 7.856 241.277 8.064C241.509 8.272 241.821 8.376 242.213 8.376C242.533 8.376 242.813 8.3 243.053 8.148C243.301 7.996 243.493 7.788 243.629 7.524C243.773 7.26 243.845 6.956 243.845 6.612V5.244C243.845 4.748 243.745 4.392 243.545 4.176C243.345 3.952 243.017 3.84 242.561 3.84C242.209 3.84 241.869 3.892 241.541 3.996C241.213 4.092 240.877 4.252 240.533 4.476L240.197 3.768C240.405 3.624 240.641 3.5 240.905 3.396C241.169 3.284 241.445 3.2 241.733 3.144C242.021 3.088 242.297 3.06 242.561 3.06C243.065 3.06 243.481 3.144 243.809 3.312C244.137 3.472 244.381 3.72 244.541 4.056C244.701 4.384 244.781 4.808 244.781 5.328V9H243.869V7.644H243.977C243.913 7.948 243.789 8.208 243.605 8.424C243.429 8.64 243.209 8.808 242.945 8.928C242.681 9.048 242.385 9.108 242.057 9.108ZM247.197 11.16L248.289 8.7V9.12L245.733 3.168H246.789L248.877 8.28H248.553L250.665 3.168H251.685L248.217 11.16H247.197ZM255.031 9.108C254.463 9.108 253.971 8.984 253.555 8.736C253.139 8.488 252.815 8.14 252.583 7.692C252.359 7.236 252.247 6.7 252.247 6.084C252.247 5.468 252.359 4.936 252.583 4.488C252.815 4.032 253.139 3.68 253.555 3.432C253.971 3.184 254.463 3.06 255.031 3.06C255.599 3.06 256.091 3.184 256.507 3.432C256.923 3.68 257.243 4.032 257.467 4.488C257.699 4.936 257.815 5.468 257.815 6.084C257.815 6.7 257.699 7.236 257.467 7.692C257.243 8.14 256.923 8.488 256.507 8.736C256.091 8.984 255.599 9.108 255.031 9.108ZM255.031 8.328C255.583 8.328 256.019 8.136 256.339 7.752C256.667 7.36 256.831 6.8 256.831 6.072C256.831 5.352 256.667 4.8 256.339 4.416C256.019 4.032 255.583 3.84 255.031 3.84C254.487 3.84 254.051 4.032 253.723 4.416C253.395 4.8 253.231 5.352 253.231 6.072C253.231 6.8 253.395 7.36 253.723 7.752C254.051 8.136 254.487 8.328 255.031 8.328ZM259.275 9V3.168H260.223V4.464H260.091C260.259 4 260.531 3.652 260.907 3.42C261.291 3.18 261.731 3.06 262.227 3.06C262.691 3.06 263.075 3.144 263.379 3.312C263.691 3.472 263.923 3.724 264.075 4.068C264.227 4.412 264.303 4.844 264.303 5.364V9H263.331V5.424C263.331 5.064 263.283 4.768 263.187 4.536C263.099 4.304 262.955 4.132 262.755 4.02C262.563 3.908 262.311 3.852 261.999 3.852C261.647 3.852 261.339 3.928 261.075 4.08C260.811 4.232 260.607 4.444 260.463 4.716C260.319 4.988 260.247 5.308 260.247 5.676V9H259.275ZM266.096 9V3.168H267.044V4.464H266.912C267.08 4 267.352 3.652 267.728 3.42C268.112 3.18 268.552 3.06 269.048 3.06C269.512 3.06 269.896 3.144 270.2 3.312C270.512 3.472 270.744 3.724 270.896 4.068C271.048 4.412 271.124 4.844 271.124 5.364V9H270.152V5.424C270.152 5.064 270.104 4.768 270.008 4.536C269.92 4.304 269.776 4.132 269.576 4.02C269.384 3.908 269.132 3.852 268.82 3.852C268.468 3.852 268.16 3.928 267.896 4.08C267.632 4.232 267.428 4.444 267.284 4.716C267.14 4.988 267.068 5.308 267.068 5.676V9H266.096ZM274.752 9.108C274.352 9.108 273.992 9.032 273.672 8.88C273.36 8.72 273.112 8.504 272.928 8.232C272.744 7.96 272.652 7.656 272.652 7.32C272.652 6.888 272.76 6.548 272.976 6.3C273.2 6.052 273.564 5.876 274.068 5.772C274.58 5.668 275.276 5.616 276.156 5.616H276.696V6.252H276.168C275.68 6.252 275.272 6.268 274.944 6.3C274.616 6.332 274.356 6.388 274.164 6.468C273.972 6.548 273.836 6.652 273.756 6.78C273.676 6.908 273.636 7.068 273.636 7.26C273.636 7.588 273.748 7.856 273.972 8.064C274.204 8.272 274.516 8.376 274.908 8.376C275.228 8.376 275.508 8.3 275.748 8.148C275.996 7.996 276.188 7.788 276.324 7.524C276.468 7.26 276.54 6.956 276.54 6.612V5.244C276.54 4.748 276.44 4.392 276.24 4.176C276.04 3.952 275.712 3.84 275.256 3.84C274.904 3.84 274.564 3.892 274.236 3.996C273.908 4.092 273.572 4.252 273.228 4.476L272.892 3.768C273.1 3.624 273.336 3.5 273.6 3.396C273.864 3.284 274.14 3.2 274.428 3.144C274.716 3.088 274.992 3.06 275.256 3.06C275.76 3.06 276.176 3.144 276.504 3.312C276.832 3.472 277.076 3.72 277.236 4.056C277.396 4.384 277.476 4.808 277.476 5.328V9H276.564V7.644H276.672C276.608 7.948 276.484 8.208 276.3 8.424C276.124 8.64 275.904 8.808 275.64 8.928C275.376 9.048 275.08 9.108 274.752 9.108ZM279.159 1.716V0.624H280.359V1.716H279.159ZM279.279 9V3.168H280.251V9H279.279ZM284.036 9.108C283.732 9.108 283.436 9.076 283.148 9.012C282.868 8.956 282.604 8.876 282.356 8.772C282.116 8.66 281.908 8.528 281.732 8.376L282.044 7.692C282.236 7.844 282.444 7.972 282.668 8.076C282.892 8.172 283.12 8.244 283.352 8.292C283.584 8.34 283.82 8.364 284.06 8.364C284.516 8.364 284.86 8.28 285.092 8.112C285.324 7.944 285.44 7.716 285.44 7.428C285.44 7.204 285.364 7.028 285.212 6.9C285.06 6.764 284.82 6.66 284.492 6.588L283.4 6.348C282.896 6.244 282.52 6.064 282.272 5.808C282.032 5.552 281.912 5.22 281.912 4.812C281.912 4.452 282.004 4.144 282.188 3.888C282.38 3.624 282.648 3.42 282.992 3.276C283.336 3.132 283.736 3.06 284.192 3.06C284.464 3.06 284.724 3.088 284.972 3.144C285.22 3.2 285.452 3.284 285.668 3.396C285.892 3.5 286.084 3.632 286.244 3.792L285.92 4.476C285.768 4.332 285.596 4.212 285.404 4.116C285.212 4.012 285.012 3.936 284.804 3.888C284.604 3.832 284.4 3.804 284.192 3.804C283.744 3.804 283.404 3.892 283.172 4.068C282.94 4.244 282.824 4.476 282.824 4.764C282.824 4.988 282.896 5.172 283.04 5.316C283.184 5.46 283.408 5.564 283.712 5.628L284.804 5.856C285.324 5.968 285.712 6.148 285.968 6.396C286.232 6.636 286.364 6.964 286.364 7.38C286.364 7.732 286.268 8.04 286.076 8.304C285.884 8.56 285.612 8.76 285.26 8.904C284.916 9.04 284.508 9.108 284.036 9.108ZM290.474 9.108C289.858 9.108 289.326 8.988 288.878 8.748C288.438 8.5 288.094 8.152 287.846 7.704C287.606 7.256 287.486 6.72 287.486 6.096C287.486 5.488 287.606 4.96 287.846 4.512C288.086 4.056 288.414 3.7 288.83 3.444C289.254 3.188 289.742 3.06 290.294 3.06C290.822 3.06 291.274 3.176 291.65 3.408C292.026 3.64 292.314 3.968 292.514 4.392C292.722 4.816 292.826 5.324 292.826 5.916V6.288H288.23V5.652H292.178L291.986 5.808C291.986 5.168 291.842 4.672 291.554 4.32C291.274 3.96 290.862 3.78 290.318 3.78C289.91 3.78 289.562 3.876 289.274 4.068C288.994 4.252 288.782 4.512 288.638 4.848C288.494 5.176 288.422 5.56 288.422 6V6.072C288.422 6.56 288.498 6.972 288.65 7.308C288.81 7.644 289.046 7.9 289.358 8.076C289.67 8.244 290.042 8.328 290.474 8.328C290.818 8.328 291.15 8.276 291.47 8.172C291.798 8.06 292.106 7.88 292.394 7.632L292.73 8.316C292.466 8.556 292.13 8.748 291.722 8.892C291.314 9.036 290.898 9.108 290.474 9.108ZM294.58 10.368L294.124 10.02C294.268 9.868 294.376 9.724 294.448 9.588C294.528 9.46 294.58 9.328 294.604 9.192C294.636 9.064 294.652 8.932 294.652 8.796L294.868 9H294.076V7.776H295.3V8.64C295.3 8.856 295.276 9.06 295.228 9.252C295.188 9.452 295.116 9.644 295.012 9.828C294.908 10.012 294.764 10.192 294.58 10.368ZM3.78 25.108C3.34 25.108 2.924 25.068 2.532 24.988C2.148 24.908 1.792 24.796 1.464 24.652C1.144 24.5 0.852 24.316 0.588 24.1L0.936 23.308C1.208 23.508 1.484 23.68 1.764 23.824C2.052 23.96 2.36 24.064 2.688 24.136C3.024 24.2 3.388 24.232 3.78 24.232C4.5 24.232 5.032 24.1 5.376 23.836C5.728 23.564 5.904 23.208 5.904 22.768C5.904 22.536 5.848 22.336 5.736 22.168C5.632 22 5.456 21.856 5.208 21.736C4.968 21.616 4.652 21.516 4.26 21.436L3.012 21.184C2.26 21.024 1.696 20.764 1.32 20.404C0.952 20.036 0.768 19.548 0.768 18.94C0.768 18.436 0.896 17.996 1.152 17.62C1.416 17.244 1.78 16.952 2.244 16.744C2.716 16.536 3.252 16.432 3.852 16.432C4.236 16.432 4.6 16.472 4.944 16.552C5.288 16.632 5.604 16.752 5.892 16.912C6.188 17.064 6.448 17.252 6.672 17.476L6.324 18.244C5.964 17.916 5.584 17.68 5.184 17.536C4.784 17.384 4.336 17.308 3.84 17.308C3.416 17.308 3.048 17.372 2.736 17.5C2.432 17.628 2.192 17.816 2.016 18.064C1.848 18.304 1.764 18.584 1.764 18.904C1.764 19.288 1.88 19.592 2.112 19.816C2.352 20.04 2.74 20.204 3.276 20.308L4.524 20.572C5.332 20.74 5.928 20.996 6.312 21.34C6.704 21.676 6.9 22.136 6.9 22.72C6.9 23.184 6.772 23.6 6.516 23.968C6.268 24.328 5.908 24.608 5.436 24.808C4.972 25.008 4.42 25.108 3.78 25.108ZM10.1308 25.108C9.73081 25.108 9.37081 25.032 9.05081 24.88C8.73881 24.72 8.49081 24.504 8.30681 24.232C8.12281 23.96 8.03081 23.656 8.03081 23.32C8.03081 22.888 8.13881 22.548 8.35481 22.3C8.57881 22.052 8.94281 21.876 9.44681 21.772C9.95881 21.668 10.6548 21.616 11.5348 21.616H12.0748V22.252H11.5468C11.0588 22.252 10.6508 22.268 10.3228 22.3C9.99481 22.332 9.73481 22.388 9.54281 22.468C9.35081 22.548 9.21481 22.652 9.13481 22.78C9.05481 22.908 9.01481 23.068 9.01481 23.26C9.01481 23.588 9.12681 23.856 9.35081 24.064C9.58281 24.272 9.89481 24.376 10.2868 24.376C10.6068 24.376 10.8868 24.3 11.1268 24.148C11.3748 23.996 11.5668 23.788 11.7028 23.524C11.8468 23.26 11.9188 22.956 11.9188 22.612V21.244C11.9188 20.748 11.8188 20.392 11.6188 20.176C11.4188 19.952 11.0908 19.84 10.6348 19.84C10.2828 19.84 9.94281 19.892 9.61481 19.996C9.28681 20.092 8.95081 20.252 8.60681 20.476L8.27081 19.768C8.47881 19.624 8.71481 19.5 8.97881 19.396C9.24281 19.284 9.51881 19.2 9.80681 19.144C10.0948 19.088 10.3708 19.06 10.6348 19.06C11.1388 19.06 11.5548 19.144 11.8828 19.312C12.2108 19.472 12.4548 19.72 12.6148 20.056C12.7748 20.384 12.8548 20.808 12.8548 21.328V25H11.9428V23.644H12.0508C11.9868 23.948 11.8628 24.208 11.6788 24.424C11.5028 24.64 11.2828 24.808 11.0188 24.928C10.7548 25.048 10.4588 25.108 10.1308 25.108ZM16.7221 25.108C16.2501 25.108 15.8581 25.024 15.5461 24.856C15.2421 24.68 15.0101 24.42 14.8501 24.076C14.6981 23.732 14.6221 23.304 14.6221 22.792V19.168H15.5941V22.78C15.5941 23.124 15.6381 23.412 15.7261 23.644C15.8221 23.868 15.9701 24.036 16.1701 24.148C16.3701 24.252 16.6181 24.304 16.9141 24.304C17.2501 24.304 17.5421 24.228 17.7901 24.076C18.0381 23.924 18.2341 23.712 18.3781 23.44C18.5221 23.168 18.5941 22.848 18.5941 22.48V19.168H19.5661V25H18.6181V23.656H18.7741C18.6141 24.128 18.3501 24.488 17.9821 24.736C17.6221 24.984 17.2021 25.108 16.7221 25.108ZM23.8567 25.108C23.2727 25.108 22.7687 24.98 22.3447 24.724C21.9207 24.468 21.5927 24.112 21.3607 23.656C21.1367 23.192 21.0247 22.656 21.0247 22.048C21.0247 21.432 21.1367 20.9 21.3607 20.452C21.5927 20.004 21.9207 19.66 22.3447 19.42C22.7687 19.18 23.2727 19.06 23.8567 19.06C24.2167 19.06 24.5727 19.124 24.9247 19.252C25.2767 19.38 25.5687 19.56 25.8007 19.792L25.4647 20.5C25.2327 20.276 24.9767 20.112 24.6967 20.008C24.4247 19.904 24.1647 19.852 23.9167 19.852C23.3087 19.852 22.8407 20.044 22.5127 20.428C22.1847 20.804 22.0207 21.348 22.0207 22.06C22.0207 22.756 22.1847 23.308 22.5127 23.716C22.8407 24.116 23.3087 24.316 23.9167 24.316C24.1647 24.316 24.4247 24.264 24.6967 24.16C24.9767 24.056 25.2327 23.888 25.4647 23.656L25.8007 24.364C25.5687 24.596 25.2727 24.78 24.9127 24.916C24.5607 25.044 24.2087 25.108 23.8567 25.108ZM29.4502 25.108C28.8342 25.108 28.3022 24.988 27.8542 24.748C27.4142 24.5 27.0702 24.152 26.8222 23.704C26.5822 23.256 26.4622 22.72 26.4622 22.096C26.4622 21.488 26.5822 20.96 26.8222 20.512C27.0622 20.056 27.3902 19.7 27.8062 19.444C28.2302 19.188 28.7182 19.06 29.2702 19.06C29.7982 19.06 30.2502 19.176 30.6262 19.408C31.0022 19.64 31.2902 19.968 31.4902 20.392C31.6982 20.816 31.8022 21.324 31.8022 21.916V22.288H27.2062V21.652H31.1542L30.9622 21.808C30.9622 21.168 30.8182 20.672 30.5302 20.32C30.2502 19.96 29.8382 19.78 29.2942 19.78C28.8862 19.78 28.5382 19.876 28.2502 20.068C27.9702 20.252 27.7582 20.512 27.6142 20.848C27.4702 21.176 27.3982 21.56 27.3982 22V22.072C27.3982 22.56 27.4742 22.972 27.6262 23.308C27.7862 23.644 28.0222 23.9 28.3342 24.076C28.6462 24.244 29.0182 24.328 29.4502 24.328C29.7942 24.328 30.1262 24.276 30.4462 24.172C30.7742 24.06 31.0822 23.88 31.3702 23.632L31.7062 24.316C31.4422 24.556 31.1062 24.748 30.6982 24.892C30.2902 25.036 29.8742 25.108 29.4502 25.108ZM35.1769 25.108C34.8729 25.108 34.5769 25.076 34.2889 25.012C34.0089 24.956 33.7449 24.876 33.4969 24.772C33.2569 24.66 33.0489 24.528 32.8729 24.376L33.1849 23.692C33.3769 23.844 33.5849 23.972 33.8089 24.076C34.0329 24.172 34.2609 24.244 34.4929 24.292C34.7249 24.34 34.9609 24.364 35.2009 24.364C35.6569 24.364 36.0009 24.28 36.2329 24.112C36.4649 23.944 36.5809 23.716 36.5809 23.428C36.5809 23.204 36.5049 23.028 36.3529 22.9C36.2009 22.764 35.9609 22.66 35.6329 22.588L34.5409 22.348C34.0369 22.244 33.6609 22.064 33.4129 21.808C33.1729 21.552 33.0529 21.22 33.0529 20.812C33.0529 20.452 33.1449 20.144 33.3289 19.888C33.5209 19.624 33.7889 19.42 34.1329 19.276C34.4769 19.132 34.8769 19.06 35.3329 19.06C35.6049 19.06 35.8649 19.088 36.1129 19.144C36.3609 19.2 36.5929 19.284 36.8089 19.396C37.0329 19.5 37.2249 19.632 37.3849 19.792L37.0609 20.476C36.9089 20.332 36.7369 20.212 36.5449 20.116C36.3529 20.012 36.1529 19.936 35.9449 19.888C35.7449 19.832 35.5409 19.804 35.3329 19.804C34.8849 19.804 34.5449 19.892 34.3129 20.068C34.0809 20.244 33.9649 20.476 33.9649 20.764C33.9649 20.988 34.0369 21.172 34.1809 21.316C34.3249 21.46 34.5489 21.564 34.8529 21.628L35.9449 21.856C36.4649 21.968 36.8529 22.148 37.1089 22.396C37.3729 22.636 37.5049 22.964 37.5049 23.38C37.5049 23.732 37.4089 24.04 37.2169 24.304C37.0249 24.56 36.7529 24.76 36.4009 24.904C36.0569 25.04 35.6489 25.108 35.1769 25.108ZM39.2756 26.368L38.8196 26.02C38.9636 25.868 39.0716 25.724 39.1436 25.588C39.2236 25.46 39.2756 25.328 39.2996 25.192C39.3316 25.064 39.3476 24.932 39.3476 24.796L39.5636 25H38.7716V23.776H39.9956V24.64C39.9956 24.856 39.9716 25.06 39.9236 25.252C39.8836 25.452 39.8116 25.644 39.7076 25.828C39.6036 26.012 39.4596 26.192 39.2756 26.368ZM44.8721 25V16.54H45.8561V25H44.8721ZM50.2824 25.108C49.6984 25.108 49.1944 24.98 48.7704 24.724C48.3464 24.468 48.0184 24.112 47.7864 23.656C47.5624 23.192 47.4504 22.656 47.4504 22.048C47.4504 21.432 47.5624 20.9 47.7864 20.452C48.0184 20.004 48.3464 19.66 48.7704 19.42C49.1944 19.18 49.6984 19.06 50.2824 19.06C50.6424 19.06 50.9984 19.124 51.3504 19.252C51.7024 19.38 51.9944 19.56 52.2264 19.792L51.8904 20.5C51.6584 20.276 51.4024 20.112 51.1224 20.008C50.8504 19.904 50.5904 19.852 50.3424 19.852C49.7344 19.852 49.2664 20.044 48.9384 20.428C48.6104 20.804 48.4464 21.348 48.4464 22.06C48.4464 22.756 48.6104 23.308 48.9384 23.716C49.2664 24.116 49.7344 24.316 50.3424 24.316C50.5904 24.316 50.8504 24.264 51.1224 24.16C51.4024 24.056 51.6584 23.888 51.8904 23.656L52.2264 24.364C51.9944 24.596 51.6984 24.78 51.3384 24.916C50.9864 25.044 50.6344 25.108 50.2824 25.108ZM55.8759 25.108C55.2599 25.108 54.7279 24.988 54.2799 24.748C53.8399 24.5 53.4959 24.152 53.2479 23.704C53.0079 23.256 52.8879 22.72 52.8879 22.096C52.8879 21.488 53.0079 20.96 53.2479 20.512C53.4879 20.056 53.8159 19.7 54.2319 19.444C54.6559 19.188 55.1439 19.06 55.6959 19.06C56.2239 19.06 56.6759 19.176 57.0519 19.408C57.4279 19.64 57.7159 19.968 57.9159 20.392C58.1239 20.816 58.2279 21.324 58.2279 21.916V22.288H53.6319V21.652H57.5799L57.3879 21.808C57.3879 21.168 57.2439 20.672 56.9559 20.32C56.6759 19.96 56.2639 19.78 55.7199 19.78C55.3119 19.78 54.9639 19.876 54.6759 20.068C54.3959 20.252 54.1839 20.512 54.0399 20.848C53.8959 21.176 53.8239 21.56 53.8239 22V22.072C53.8239 22.56 53.8999 22.972 54.0519 23.308C54.2119 23.644 54.4479 23.9 54.7599 24.076C55.0719 24.244 55.4439 24.328 55.8759 24.328C56.2199 24.328 56.5519 24.276 56.8719 24.172C57.1999 24.06 57.5079 23.88 57.7959 23.632L58.1319 24.316C57.8679 24.556 57.5319 24.748 57.1239 24.892C56.7159 25.036 56.2999 25.108 55.8759 25.108ZM66.5087 25.108C65.6767 25.108 64.9647 24.932 64.3727 24.58C63.7807 24.228 63.3247 23.728 63.0047 23.08C62.6927 22.432 62.5367 21.66 62.5367 20.764C62.5367 19.868 62.6927 19.1 63.0047 18.46C63.3247 17.812 63.7807 17.312 64.3727 16.96C64.9647 16.608 65.6767 16.432 66.5087 16.432C67.0927 16.432 67.6327 16.524 68.1287 16.708C68.6247 16.892 69.0407 17.16 69.3767 17.512L68.9927 18.316C68.6247 17.972 68.2407 17.724 67.8407 17.572C67.4487 17.412 67.0127 17.332 66.5327 17.332C65.5807 17.332 64.8527 17.632 64.3487 18.232C63.8447 18.832 63.5927 19.676 63.5927 20.764C63.5927 21.852 63.8447 22.7 64.3487 23.308C64.8527 23.908 65.5807 24.208 66.5327 24.208C67.0127 24.208 67.4487 24.132 67.8407 23.98C68.2407 23.82 68.6247 23.568 68.9927 23.224L69.3767 24.028C69.0407 24.372 68.6247 24.64 68.1287 24.832C67.6327 25.016 67.0927 25.108 66.5087 25.108ZM70.7909 25V19.168H71.7389V20.548H71.6189C71.7549 20.076 71.9909 19.72 72.3269 19.48C72.6629 19.232 73.1069 19.088 73.6589 19.048L74.0069 19.012L74.0789 19.852L73.4669 19.924C72.9229 19.972 72.5029 20.148 72.2069 20.452C71.9189 20.748 71.7749 21.156 71.7749 21.676V25H70.7909ZM77.6494 25.108C77.0334 25.108 76.5014 24.988 76.0534 24.748C75.6134 24.5 75.2694 24.152 75.0214 23.704C74.7814 23.256 74.6614 22.72 74.6614 22.096C74.6614 21.488 74.7814 20.96 75.0214 20.512C75.2614 20.056 75.5894 19.7 76.0054 19.444C76.4294 19.188 76.9174 19.06 77.4694 19.06C77.9974 19.06 78.4494 19.176 78.8254 19.408C79.2014 19.64 79.4894 19.968 79.6894 20.392C79.8974 20.816 80.0014 21.324 80.0014 21.916V22.288H75.4054V21.652H79.3534L79.1614 21.808C79.1614 21.168 79.0174 20.672 78.7294 20.32C78.4494 19.96 78.0374 19.78 77.4934 19.78C77.0854 19.78 76.7374 19.876 76.4494 20.068C76.1694 20.252 75.9574 20.512 75.8134 20.848C75.6694 21.176 75.5974 21.56 75.5974 22V22.072C75.5974 22.56 75.6734 22.972 75.8254 23.308C75.9854 23.644 76.2214 23.9 76.5334 24.076C76.8454 24.244 77.2174 24.328 77.6494 24.328C77.9934 24.328 78.3254 24.276 78.6454 24.172C78.9734 24.06 79.2814 23.88 79.5694 23.632L79.9054 24.316C79.6414 24.556 79.3054 24.748 78.8974 24.892C78.4894 25.036 78.0734 25.108 77.6494 25.108ZM83.2441 25.108C82.8441 25.108 82.4841 25.032 82.1641 24.88C81.8521 24.72 81.6041 24.504 81.4201 24.232C81.2361 23.96 81.1441 23.656 81.1441 23.32C81.1441 22.888 81.2521 22.548 81.4681 22.3C81.6921 22.052 82.0561 21.876 82.5601 21.772C83.0721 21.668 83.7681 21.616 84.6481 21.616H85.1881V22.252H84.6601C84.1721 22.252 83.7641 22.268 83.4361 22.3C83.1081 22.332 82.8481 22.388 82.6561 22.468C82.4641 22.548 82.3281 22.652 82.2481 22.78C82.1681 22.908 82.1281 23.068 82.1281 23.26C82.1281 23.588 82.2401 23.856 82.4641 24.064C82.6961 24.272 83.0081 24.376 83.4001 24.376C83.7201 24.376 84.0001 24.3 84.2401 24.148C84.4881 23.996 84.6801 23.788 84.8161 23.524C84.9601 23.26 85.0321 22.956 85.0321 22.612V21.244C85.0321 20.748 84.9321 20.392 84.7321 20.176C84.5321 19.952 84.2041 19.84 83.7481 19.84C83.3961 19.84 83.0561 19.892 82.7281 19.996C82.4001 20.092 82.0641 20.252 81.7201 20.476L81.3841 19.768C81.5921 19.624 81.8281 19.5 82.0921 19.396C82.3561 19.284 82.6321 19.2 82.9201 19.144C83.2081 19.088 83.4841 19.06 83.7481 19.06C84.2521 19.06 84.6681 19.144 84.9961 19.312C85.3241 19.472 85.5681 19.72 85.7281 20.056C85.8881 20.384 85.9681 20.808 85.9681 21.328V25H85.0561V23.644H85.1641C85.1001 23.948 84.9761 24.208 84.7921 24.424C84.6161 24.64 84.3961 24.808 84.1321 24.928C83.8681 25.048 83.5721 25.108 83.2441 25.108ZM87.7954 25V19.168H88.7434V20.464H88.6114C88.7074 20.168 88.8474 19.916 89.0314 19.708C89.2234 19.492 89.4474 19.332 89.7034 19.228C89.9674 19.116 90.2554 19.06 90.5674 19.06C91.0634 19.06 91.4634 19.18 91.7674 19.42C92.0794 19.652 92.2874 20.016 92.3914 20.512H92.2114C92.3554 20.064 92.6114 19.712 92.9794 19.456C93.3554 19.192 93.7914 19.06 94.2874 19.06C94.7274 19.06 95.0874 19.144 95.3674 19.312C95.6554 19.48 95.8714 19.736 96.0154 20.08C96.1594 20.416 96.2314 20.844 96.2314 21.364V25H95.2594V21.412C95.2594 20.876 95.1674 20.484 94.9834 20.236C94.7994 19.98 94.4874 19.852 94.0474 19.852C93.7354 19.852 93.4594 19.928 93.2194 20.08C92.9874 20.232 92.8074 20.448 92.6794 20.728C92.5594 21 92.4994 21.324 92.4994 21.7V25H91.5274V21.412C91.5274 20.876 91.4314 20.484 91.2394 20.236C91.0554 19.98 90.7474 19.852 90.3154 19.852C89.9954 19.852 89.7194 19.928 89.4874 20.08C89.2554 20.232 89.0754 20.448 88.9474 20.728C88.8274 21 88.7674 21.324 88.7674 21.7V25H87.7954ZM100.017 25.108C99.7127 25.108 99.4167 25.076 99.1287 25.012C98.8487 24.956 98.5847 24.876 98.3367 24.772C98.0967 24.66 97.8887 24.528 97.7127 24.376L98.0247 23.692C98.2167 23.844 98.4247 23.972 98.6487 24.076C98.8727 24.172 99.1007 24.244 99.3327 24.292C99.5647 24.34 99.8007 24.364 100.041 24.364C100.497 24.364 100.841 24.28 101.073 24.112C101.305 23.944 101.421 23.716 101.421 23.428C101.421 23.204 101.345 23.028 101.193 22.9C101.041 22.764 100.801 22.66 100.473 22.588L99.3807 22.348C98.8767 22.244 98.5007 22.064 98.2527 21.808C98.0127 21.552 97.8927 21.22 97.8927 20.812C97.8927 20.452 97.9847 20.144 98.1687 19.888C98.3607 19.624 98.6287 19.42 98.9727 19.276C99.3167 19.132 99.7167 19.06 100.173 19.06C100.445 19.06 100.705 19.088 100.953 19.144C101.201 19.2 101.433 19.284 101.649 19.396C101.873 19.5 102.065 19.632 102.225 19.792L101.901 20.476C101.749 20.332 101.577 20.212 101.385 20.116C101.193 20.012 100.993 19.936 100.785 19.888C100.585 19.832 100.381 19.804 100.173 19.804C99.7247 19.804 99.3847 19.892 99.1527 20.068C98.9207 20.244 98.8047 20.476 98.8047 20.764C98.8047 20.988 98.8767 21.172 99.0207 21.316C99.1647 21.46 99.3887 21.564 99.6927 21.628L100.785 21.856C101.305 21.968 101.693 22.148 101.949 22.396C102.213 22.636 102.345 22.964 102.345 23.38C102.345 23.732 102.249 24.04 102.057 24.304C101.865 24.56 101.593 24.76 101.241 24.904C100.897 25.04 100.489 25.108 100.017 25.108ZM104.115 26.368L103.659 26.02C103.803 25.868 103.911 25.724 103.983 25.588C104.063 25.46 104.115 25.328 104.139 25.192C104.171 25.064 104.187 24.932 104.187 24.796L104.403 25H103.611V23.776H104.835V24.64C104.835 24.856 104.811 25.06 104.763 25.252C104.723 25.452 104.651 25.644 104.547 25.828C104.443 26.012 104.299 26.192 104.115 26.368ZM109.712 25V16.54H113.06C113.668 16.54 114.18 16.64 114.596 16.84C115.02 17.032 115.34 17.32 115.556 17.704C115.772 18.08 115.88 18.54 115.88 19.084C115.88 19.612 115.772 20.068 115.556 20.452C115.34 20.836 115.02 21.128 114.596 21.328C114.18 21.528 113.668 21.628 113.06 21.628H110.696V25H109.712ZM110.696 20.8H112.94C113.588 20.8 114.076 20.656 114.404 20.368C114.74 20.072 114.908 19.644 114.908 19.084C114.908 18.516 114.74 18.088 114.404 17.8C114.076 17.504 113.588 17.356 112.94 17.356H110.696V20.8ZM118.717 25.108C118.317 25.108 117.957 25.032 117.637 24.88C117.325 24.72 117.077 24.504 116.893 24.232C116.709 23.96 116.617 23.656 116.617 23.32C116.617 22.888 116.725 22.548 116.941 22.3C117.165 22.052 117.529 21.876 118.033 21.772C118.545 21.668 119.241 21.616 120.121 21.616H120.661V22.252H120.133C119.645 22.252 119.237 22.268 118.909 22.3C118.581 22.332 118.321 22.388 118.129 22.468C117.937 22.548 117.801 22.652 117.721 22.78C117.641 22.908 117.601 23.068 117.601 23.26C117.601 23.588 117.713 23.856 117.937 24.064C118.169 24.272 118.481 24.376 118.873 24.376C119.193 24.376 119.473 24.3 119.713 24.148C119.961 23.996 120.153 23.788 120.289 23.524C120.433 23.26 120.505 22.956 120.505 22.612V21.244C120.505 20.748 120.405 20.392 120.205 20.176C120.005 19.952 119.677 19.84 119.221 19.84C118.869 19.84 118.529 19.892 118.201 19.996C117.873 20.092 117.537 20.252 117.193 20.476L116.857 19.768C117.065 19.624 117.301 19.5 117.565 19.396C117.829 19.284 118.105 19.2 118.393 19.144C118.681 19.088 118.957 19.06 119.221 19.06C119.725 19.06 120.141 19.144 120.469 19.312C120.797 19.472 121.041 19.72 121.201 20.056C121.361 20.384 121.441 20.808 121.441 21.328V25H120.529V23.644H120.637C120.573 23.948 120.449 24.208 120.265 24.424C120.089 24.64 119.869 24.808 119.605 24.928C119.341 25.048 119.045 25.108 118.717 25.108ZM123.244 25V19.168H124.192V20.548H124.072C124.208 20.076 124.444 19.72 124.78 19.48C125.116 19.232 125.56 19.088 126.112 19.048L126.46 19.012L126.532 19.852L125.92 19.924C125.376 19.972 124.956 20.148 124.66 20.452C124.372 20.748 124.228 21.156 124.228 21.676V25H123.244ZM128.173 25V19.924H127.021V19.168H128.437L128.173 19.42V18.964C128.173 18.188 128.365 17.6 128.749 17.2C129.141 16.8 129.741 16.576 130.549 16.528L131.017 16.504L131.101 17.248L130.549 17.284C130.221 17.308 129.953 17.38 129.745 17.5C129.537 17.62 129.385 17.792 129.289 18.016C129.193 18.24 129.145 18.516 129.145 18.844V19.348L129.001 19.168H130.825V19.924H129.145V25H128.173ZM133.635 25.108C133.235 25.108 132.875 25.032 132.555 24.88C132.243 24.72 131.995 24.504 131.811 24.232C131.627 23.96 131.535 23.656 131.535 23.32C131.535 22.888 131.643 22.548 131.859 22.3C132.083 22.052 132.447 21.876 132.951 21.772C133.463 21.668 134.159 21.616 135.039 21.616H135.579V22.252H135.051C134.563 22.252 134.155 22.268 133.827 22.3C133.499 22.332 133.239 22.388 133.047 22.468C132.855 22.548 132.719 22.652 132.639 22.78C132.559 22.908 132.519 23.068 132.519 23.26C132.519 23.588 132.631 23.856 132.855 24.064C133.087 24.272 133.399 24.376 133.791 24.376C134.111 24.376 134.391 24.3 134.631 24.148C134.879 23.996 135.071 23.788 135.207 23.524C135.351 23.26 135.423 22.956 135.423 22.612V21.244C135.423 20.748 135.323 20.392 135.123 20.176C134.923 19.952 134.595 19.84 134.139 19.84C133.787 19.84 133.447 19.892 133.119 19.996C132.791 20.092 132.455 20.252 132.111 20.476L131.775 19.768C131.983 19.624 132.219 19.5 132.483 19.396C132.747 19.284 133.023 19.2 133.311 19.144C133.599 19.088 133.875 19.06 134.139 19.06C134.643 19.06 135.059 19.144 135.387 19.312C135.715 19.472 135.959 19.72 136.119 20.056C136.279 20.384 136.359 20.808 136.359 21.328V25H135.447V23.644H135.555C135.491 23.948 135.367 24.208 135.183 24.424C135.007 24.64 134.787 24.808 134.523 24.928C134.259 25.048 133.963 25.108 133.635 25.108ZM138.042 17.716V16.624H139.242V17.716H138.042ZM138.162 25V19.168H139.134V25H138.162ZM143.291 25.108C142.603 25.108 142.087 24.924 141.743 24.556C141.399 24.188 141.227 23.664 141.227 22.984V19.924H140.087V19.168H141.227V17.38H142.199V19.168H144.047V19.924H142.199V22.888C142.199 23.344 142.295 23.692 142.487 23.932C142.679 24.164 142.991 24.28 143.423 24.28C143.551 24.28 143.679 24.264 143.807 24.232C143.935 24.2 144.051 24.168 144.155 24.136L144.323 24.88C144.219 24.936 144.067 24.988 143.867 25.036C143.667 25.084 143.475 25.108 143.291 25.108ZM147.114 25.108C146.81 25.108 146.514 25.076 146.226 25.012C145.946 24.956 145.682 24.876 145.434 24.772C145.194 24.66 144.986 24.528 144.81 24.376L145.122 23.692C145.314 23.844 145.522 23.972 145.746 24.076C145.97 24.172 146.198 24.244 146.43 24.292C146.662 24.34 146.898 24.364 147.138 24.364C147.594 24.364 147.938 24.28 148.17 24.112C148.402 23.944 148.518 23.716 148.518 23.428C148.518 23.204 148.442 23.028 148.29 22.9C148.138 22.764 147.898 22.66 147.57 22.588L146.478 22.348C145.974 22.244 145.598 22.064 145.35 21.808C145.11 21.552 144.99 21.22 144.99 20.812C144.99 20.452 145.082 20.144 145.266 19.888C145.458 19.624 145.726 19.42 146.07 19.276C146.414 19.132 146.814 19.06 147.27 19.06C147.542 19.06 147.802 19.088 148.05 19.144C148.298 19.2 148.53 19.284 148.746 19.396C148.97 19.5 149.162 19.632 149.322 19.792L148.998 20.476C148.846 20.332 148.674 20.212 148.482 20.116C148.29 20.012 148.09 19.936 147.882 19.888C147.682 19.832 147.478 19.804 147.27 19.804C146.822 19.804 146.482 19.892 146.25 20.068C146.018 20.244 145.902 20.476 145.902 20.764C145.902 20.988 145.974 21.172 146.118 21.316C146.262 21.46 146.486 21.564 146.79 21.628L147.882 21.856C148.402 21.968 148.79 22.148 149.046 22.396C149.31 22.636 149.442 22.964 149.442 23.38C149.442 23.732 149.346 24.04 149.154 24.304C148.962 24.56 148.69 24.76 148.338 24.904C147.994 25.04 147.586 25.108 147.114 25.108ZM151.213 26.368L150.757 26.02C150.901 25.868 151.009 25.724 151.081 25.588C151.161 25.46 151.213 25.328 151.237 25.192C151.269 25.064 151.285 24.932 151.285 24.796L151.501 25H150.709V23.776H151.933V24.64C151.933 24.856 151.909 25.06 151.861 25.252C151.821 25.452 151.749 25.644 151.645 25.828C151.541 26.012 151.397 26.192 151.213 26.368ZM155.994 25L159.726 16.54H160.566L164.298 25H163.278L162.234 22.588L162.714 22.84H157.554L158.046 22.588L157.014 25H155.994ZM160.134 17.692L158.202 22.24L157.914 22.012H162.354L162.09 22.24L160.158 17.692H160.134ZM165.42 25V19.168H166.368V20.464H166.236C166.404 20 166.676 19.652 167.052 19.42C167.436 19.18 167.876 19.06 168.372 19.06C168.836 19.06 169.22 19.144 169.524 19.312C169.836 19.472 170.068 19.724 170.22 20.068C170.372 20.412 170.448 20.844 170.448 21.364V25H169.476V21.424C169.476 21.064 169.428 20.768 169.332 20.536C169.244 20.304 169.1 20.132 168.9 20.02C168.708 19.908 168.456 19.852 168.144 19.852C167.792 19.852 167.484 19.928 167.22 20.08C166.956 20.232 166.752 20.444 166.608 20.716C166.464 20.988 166.392 21.308 166.392 21.676V25H165.42ZM174.46 25.108C173.94 25.108 173.484 24.984 173.092 24.736C172.708 24.488 172.408 24.14 172.192 23.692C171.984 23.236 171.88 22.7 171.88 22.084C171.88 21.46 171.984 20.924 172.192 20.476C172.408 20.02 172.708 19.672 173.092 19.432C173.484 19.184 173.94 19.06 174.46 19.06C174.988 19.06 175.44 19.192 175.816 19.456C176.192 19.72 176.444 20.076 176.572 20.524H176.44V16.54H177.412V25H176.464V23.608H176.584C176.456 24.064 176.2 24.428 175.816 24.7C175.44 24.972 174.988 25.108 174.46 25.108ZM174.664 24.328C175.216 24.328 175.652 24.136 175.972 23.752C176.3 23.36 176.464 22.804 176.464 22.084C176.464 21.356 176.3 20.8 175.972 20.416C175.652 20.032 175.216 19.84 174.664 19.84C174.12 19.84 173.684 20.032 173.356 20.416C173.028 20.8 172.864 21.356 172.864 22.084C172.864 22.804 173.028 23.36 173.356 23.752C173.684 24.136 174.12 24.328 174.664 24.328ZM185.186 25.108C184.746 25.108 184.33 25.068 183.938 24.988C183.554 24.908 183.198 24.796 182.87 24.652C182.55 24.5 182.258 24.316 181.994 24.1L182.342 23.308C182.614 23.508 182.89 23.68 183.17 23.824C183.458 23.96 183.766 24.064 184.094 24.136C184.43 24.2 184.794 24.232 185.186 24.232C185.906 24.232 186.438 24.1 186.782 23.836C187.134 23.564 187.31 23.208 187.31 22.768C187.31 22.536 187.254 22.336 187.142 22.168C187.038 22 186.862 21.856 186.614 21.736C186.374 21.616 186.058 21.516 185.666 21.436L184.418 21.184C183.666 21.024 183.102 20.764 182.726 20.404C182.358 20.036 182.174 19.548 182.174 18.94C182.174 18.436 182.302 17.996 182.558 17.62C182.822 17.244 183.186 16.952 183.65 16.744C184.122 16.536 184.658 16.432 185.258 16.432C185.642 16.432 186.006 16.472 186.35 16.552C186.694 16.632 187.01 16.752 187.298 16.912C187.594 17.064 187.854 17.252 188.078 17.476L187.73 18.244C187.37 17.916 186.99 17.68 186.59 17.536C186.19 17.384 185.742 17.308 185.246 17.308C184.822 17.308 184.454 17.372 184.142 17.5C183.838 17.628 183.598 17.816 183.422 18.064C183.254 18.304 183.17 18.584 183.17 18.904C183.17 19.288 183.286 19.592 183.518 19.816C183.758 20.04 184.146 20.204 184.682 20.308L185.93 20.572C186.738 20.74 187.334 20.996 187.718 21.34C188.11 21.676 188.306 22.136 188.306 22.72C188.306 23.184 188.178 23.6 187.922 23.968C187.674 24.328 187.314 24.608 186.842 24.808C186.378 25.008 185.826 25.108 185.186 25.108ZM189.725 25V19.168H190.673V20.464H190.541C190.637 20.168 190.777 19.916 190.961 19.708C191.153 19.492 191.377 19.332 191.633 19.228C191.897 19.116 192.185 19.06 192.497 19.06C192.993 19.06 193.393 19.18 193.697 19.42C194.009 19.652 194.217 20.016 194.321 20.512H194.141C194.285 20.064 194.541 19.712 194.909 19.456C195.285 19.192 195.721 19.06 196.217 19.06C196.657 19.06 197.017 19.144 197.297 19.312C197.585 19.48 197.801 19.736 197.945 20.08C198.089 20.416 198.161 20.844 198.161 21.364V25H197.189V21.412C197.189 20.876 197.097 20.484 196.913 20.236C196.729 19.98 196.417 19.852 195.977 19.852C195.665 19.852 195.389 19.928 195.149 20.08C194.917 20.232 194.737 20.448 194.609 20.728C194.489 21 194.429 21.324 194.429 21.7V25H193.457V21.412C193.457 20.876 193.361 20.484 193.169 20.236C192.985 19.98 192.677 19.852 192.245 19.852C191.925 19.852 191.649 19.928 191.417 20.08C191.185 20.232 191.005 20.448 190.877 20.728C190.757 21 190.697 21.324 190.697 21.7V25H189.725ZM201.814 25.108C201.414 25.108 201.054 25.032 200.734 24.88C200.422 24.72 200.174 24.504 199.99 24.232C199.806 23.96 199.714 23.656 199.714 23.32C199.714 22.888 199.822 22.548 200.038 22.3C200.262 22.052 200.626 21.876 201.13 21.772C201.642 21.668 202.338 21.616 203.218 21.616H203.758V22.252H203.23C202.742 22.252 202.334 22.268 202.006 22.3C201.678 22.332 201.418 22.388 201.226 22.468C201.034 22.548 200.898 22.652 200.818 22.78C200.738 22.908 200.698 23.068 200.698 23.26C200.698 23.588 200.81 23.856 201.034 24.064C201.266 24.272 201.578 24.376 201.97 24.376C202.29 24.376 202.57 24.3 202.81 24.148C203.058 23.996 203.25 23.788 203.386 23.524C203.53 23.26 203.602 22.956 203.602 22.612V21.244C203.602 20.748 203.502 20.392 203.302 20.176C203.102 19.952 202.774 19.84 202.318 19.84C201.966 19.84 201.626 19.892 201.298 19.996C200.97 20.092 200.634 20.252 200.29 20.476L199.954 19.768C200.162 19.624 200.398 19.5 200.662 19.396C200.926 19.284 201.202 19.2 201.49 19.144C201.778 19.088 202.054 19.06 202.318 19.06C202.822 19.06 203.238 19.144 203.566 19.312C203.894 19.472 204.138 19.72 204.298 20.056C204.458 20.384 204.538 20.808 204.538 21.328V25H203.626V23.644H203.734C203.67 23.948 203.546 24.208 203.362 24.424C203.186 24.64 202.966 24.808 202.702 24.928C202.438 25.048 202.142 25.108 201.814 25.108ZM208.13 25.108C207.538 25.108 207.09 24.932 206.786 24.58C206.49 24.228 206.342 23.724 206.342 23.068V16.54H207.314V22.996C207.314 23.276 207.35 23.512 207.422 23.704C207.502 23.896 207.618 24.04 207.77 24.136C207.922 24.232 208.11 24.28 208.334 24.28C208.43 24.28 208.522 24.276 208.61 24.268C208.706 24.252 208.794 24.232 208.874 24.208L208.85 25.024C208.722 25.048 208.598 25.068 208.478 25.084C208.366 25.1 208.25 25.108 208.13 25.108ZM211.68 25.108C211.088 25.108 210.64 24.932 210.336 24.58C210.04 24.228 209.892 23.724 209.892 23.068V16.54H210.864V22.996C210.864 23.276 210.9 23.512 210.972 23.704C211.052 23.896 211.168 24.04 211.32 24.136C211.472 24.232 211.66 24.28 211.884 24.28C211.98 24.28 212.072 24.276 212.16 24.268C212.256 24.252 212.344 24.232 212.424 24.208L212.4 25.024C212.272 25.048 212.148 25.068 212.028 25.084C211.916 25.1 211.8 25.108 211.68 25.108ZM218.733 25V17.392H215.661V16.54H222.801V17.392H219.729V25H218.733ZM222.83 25V19.168H223.778V20.548H223.658C223.794 20.076 224.03 19.72 224.366 19.48C224.702 19.232 225.146 19.088 225.698 19.048L226.046 19.012L226.118 19.852L225.506 19.924C224.962 19.972 224.542 20.148 224.246 20.452C223.958 20.748 223.814 21.156 223.814 21.676V25H222.83ZM229.688 25.108C229.072 25.108 228.54 24.988 228.092 24.748C227.652 24.5 227.308 24.152 227.06 23.704C226.82 23.256 226.7 22.72 226.7 22.096C226.7 21.488 226.82 20.96 227.06 20.512C227.3 20.056 227.628 19.7 228.044 19.444C228.468 19.188 228.956 19.06 229.508 19.06C230.036 19.06 230.488 19.176 230.864 19.408C231.24 19.64 231.528 19.968 231.728 20.392C231.936 20.816 232.04 21.324 232.04 21.916V22.288H227.444V21.652H231.392L231.2 21.808C231.2 21.168 231.056 20.672 230.768 20.32C230.488 19.96 230.076 19.78 229.532 19.78C229.124 19.78 228.776 19.876 228.488 20.068C228.208 20.252 227.996 20.512 227.852 20.848C227.708 21.176 227.636 21.56 227.636 22V22.072C227.636 22.56 227.712 22.972 227.864 23.308C228.024 23.644 228.26 23.9 228.572 24.076C228.884 24.244 229.256 24.328 229.688 24.328C230.032 24.328 230.364 24.276 230.684 24.172C231.012 24.06 231.32 23.88 231.608 23.632L231.944 24.316C231.68 24.556 231.344 24.748 230.936 24.892C230.528 25.036 230.112 25.108 229.688 25.108ZM235.283 25.108C234.883 25.108 234.523 25.032 234.203 24.88C233.891 24.72 233.643 24.504 233.459 24.232C233.275 23.96 233.183 23.656 233.183 23.32C233.183 22.888 233.291 22.548 233.507 22.3C233.731 22.052 234.095 21.876 234.599 21.772C235.111 21.668 235.807 21.616 236.687 21.616H237.227V22.252H236.699C236.211 22.252 235.803 22.268 235.475 22.3C235.147 22.332 234.887 22.388 234.695 22.468C234.503 22.548 234.367 22.652 234.287 22.78C234.207 22.908 234.167 23.068 234.167 23.26C234.167 23.588 234.279 23.856 234.503 24.064C234.735 24.272 235.047 24.376 235.439 24.376C235.759 24.376 236.039 24.3 236.279 24.148C236.527 23.996 236.719 23.788 236.855 23.524C236.999 23.26 237.071 22.956 237.071 22.612V21.244C237.071 20.748 236.971 20.392 236.771 20.176C236.571 19.952 236.243 19.84 235.787 19.84C235.435 19.84 235.095 19.892 234.767 19.996C234.439 20.092 234.103 20.252 233.759 20.476L233.423 19.768C233.631 19.624 233.867 19.5 234.131 19.396C234.395 19.284 234.671 19.2 234.959 19.144C235.247 19.088 235.523 19.06 235.787 19.06C236.291 19.06 236.707 19.144 237.035 19.312C237.363 19.472 237.607 19.72 237.767 20.056C237.927 20.384 238.007 20.808 238.007 21.328V25H237.095V23.644H237.203C237.139 23.948 237.015 24.208 236.831 24.424C236.655 24.64 236.435 24.808 236.171 24.928C235.907 25.048 235.611 25.108 235.283 25.108ZM242.15 25.108C241.462 25.108 240.946 24.924 240.602 24.556C240.258 24.188 240.086 23.664 240.086 22.984V19.924H238.946V19.168H240.086V17.38H241.058V19.168H242.906V19.924H241.058V22.888C241.058 23.344 241.154 23.692 241.346 23.932C241.538 24.164 241.85 24.28 242.282 24.28C242.41 24.28 242.538 24.264 242.666 24.232C242.794 24.2 242.91 24.168 243.014 24.136L243.182 24.88C243.078 24.936 242.926 24.988 242.726 25.036C242.526 25.084 242.334 25.108 242.15 25.108ZM245.974 25.108C245.67 25.108 245.374 25.076 245.086 25.012C244.806 24.956 244.542 24.876 244.294 24.772C244.054 24.66 243.846 24.528 243.67 24.376L243.982 23.692C244.174 23.844 244.382 23.972 244.606 24.076C244.83 24.172 245.058 24.244 245.29 24.292C245.522 24.34 245.758 24.364 245.998 24.364C246.454 24.364 246.798 24.28 247.03 24.112C247.262 23.944 247.378 23.716 247.378 23.428C247.378 23.204 247.302 23.028 247.15 22.9C246.998 22.764 246.758 22.66 246.43 22.588L245.338 22.348C244.834 22.244 244.458 22.064 244.21 21.808C243.97 21.552 243.85 21.22 243.85 20.812C243.85 20.452 243.942 20.144 244.126 19.888C244.318 19.624 244.586 19.42 244.93 19.276C245.274 19.132 245.674 19.06 246.13 19.06C246.402 19.06 246.662 19.088 246.91 19.144C247.158 19.2 247.39 19.284 247.606 19.396C247.83 19.5 248.022 19.632 248.182 19.792L247.858 20.476C247.706 20.332 247.534 20.212 247.342 20.116C247.15 20.012 246.95 19.936 246.742 19.888C246.542 19.832 246.338 19.804 246.13 19.804C245.682 19.804 245.342 19.892 245.11 20.068C244.878 20.244 244.762 20.476 244.762 20.764C244.762 20.988 244.834 21.172 244.978 21.316C245.122 21.46 245.346 21.564 245.65 21.628L246.742 21.856C247.262 21.968 247.65 22.148 247.906 22.396C248.17 22.636 248.302 22.964 248.302 23.38C248.302 23.732 248.206 24.04 248.014 24.304C247.822 24.56 247.55 24.76 247.198 24.904C246.854 25.04 246.446 25.108 245.974 25.108ZM249.569 25V23.776H250.793V25H249.569Z" fill="white"/>
</svg>
