<svg width="356" height="28" viewBox="0 0 356 28" fill="none" xmlns="http://www.w3.org/2000/svg">
<path d="M0.0440001 9V0.539999H5.276V1.368H1.028V4.32H5.036V5.148H1.028V9H0.0440001ZM6.36622 1.716V0.624H7.56622V1.716H6.36622ZM6.48622 9V3.168H7.45822V9H6.48622ZM9.27528 9V3.168H10.2233V4.548H10.1033C10.2393 4.076 10.4753 3.72 10.8113 3.48C11.1473 3.232 11.5913 3.088 12.1433 3.048L12.4913 3.012L12.5633 3.852L11.9513 3.924C11.4073 3.972 10.9873 4.148 10.6913 4.452C10.4033 4.748 10.2593 5.156 10.2593 5.676V9H9.27528ZM15.4855 9.108C15.1815 9.108 14.8855 9.076 14.5975 9.012C14.3175 8.956 14.0535 8.876 13.8055 8.772C13.5655 8.66 13.3575 8.528 13.1815 8.376L13.4935 7.692C13.6855 7.844 13.8935 7.972 14.1175 8.076C14.3415 8.172 14.5695 8.244 14.8015 8.292C15.0335 8.34 15.2695 8.364 15.5095 8.364C15.9655 8.364 16.3095 8.28 16.5415 8.112C16.7735 7.944 16.8895 7.716 16.8895 7.428C16.8895 7.204 16.8135 7.028 16.6615 6.9C16.5095 6.764 16.2695 6.66 15.9415 6.588L14.8495 6.348C14.3455 6.244 13.9695 6.064 13.7215 5.808C13.4815 5.552 13.3615 5.22 13.3615 4.812C13.3615 4.452 13.4535 4.144 13.6375 3.888C13.8295 3.624 14.0975 3.42 14.4415 3.276C14.7855 3.132 15.1855 3.06 15.6415 3.06C15.9135 3.06 16.1735 3.088 16.4215 3.144C16.6695 3.2 16.9015 3.284 17.1175 3.396C17.3415 3.5 17.5335 3.632 17.6935 3.792L17.3695 4.476C17.2175 4.332 17.0455 4.212 16.8535 4.116C16.6615 4.012 16.4615 3.936 16.2535 3.888C16.0535 3.832 15.8495 3.804 15.6415 3.804C15.1935 3.804 14.8535 3.892 14.6215 4.068C14.3895 4.244 14.2735 4.476 14.2735 4.764C14.2735 4.988 14.3455 5.172 14.4895 5.316C14.6335 5.46 14.8575 5.564 15.1615 5.628L16.2535 5.856C16.7735 5.968 17.1615 6.148 17.4175 6.396C17.6815 6.636 17.8135 6.964 17.8135 7.38C17.8135 7.732 17.7175 8.04 17.5255 8.304C17.3335 8.56 17.0615 8.76 16.7095 8.904C16.3655 9.04 15.9575 9.108 15.4855 9.108ZM21.5762 9.108C20.8882 9.108 20.3722 8.924 20.0282 8.556C19.6842 8.188 19.5122 7.664 19.5122 6.984V3.924H18.3722V3.168H19.5122V1.38H20.4842V3.168H22.3322V3.924H20.4842V6.888C20.4842 7.344 20.5802 7.692 20.7722 7.932C20.9642 8.164 21.2762 8.28 21.7082 8.28C21.8362 8.28 21.9642 8.264 22.0922 8.232C22.2202 8.2 22.3362 8.168 22.4402 8.136L22.6082 8.88C22.5042 8.936 22.3522 8.988 22.1522 9.036C21.9522 9.084 21.7602 9.108 21.5762 9.108ZM23.2663 6.204V5.4H26.6263V6.204H23.2663ZM30.0575 9V1.392H26.9855V0.539999H34.1255V1.392H31.0535V9H30.0575ZM34.9482 1.716V0.624H36.1483V1.716H34.9482ZM35.0683 9V3.168H36.0403V9H35.0683ZM37.8813 9V3.168H38.8293V4.464H38.6973C38.7933 4.168 38.9333 3.916 39.1173 3.708C39.3093 3.492 39.5333 3.332 39.7893 3.228C40.0533 3.116 40.3413 3.06 40.6533 3.06C41.1493 3.06 41.5493 3.18 41.8533 3.42C42.1653 3.652 42.3733 4.016 42.4773 4.512H42.2973C42.4413 4.064 42.6973 3.712 43.0653 3.456C43.4413 3.192 43.8773 3.06 44.3733 3.06C44.8133 3.06 45.1733 3.144 45.4533 3.312C45.7413 3.48 45.9573 3.736 46.1013 4.08C46.2453 4.416 46.3173 4.844 46.3173 5.364V9H45.3453V5.412C45.3453 4.876 45.2533 4.484 45.0693 4.236C44.8853 3.98 44.5733 3.852 44.1333 3.852C43.8213 3.852 43.5453 3.928 43.3053 4.08C43.0733 4.232 42.8933 4.448 42.7653 4.728C42.6453 5 42.5853 5.324 42.5853 5.7V9H41.6133V5.412C41.6133 4.876 41.5173 4.484 41.3253 4.236C41.1413 3.98 40.8333 3.852 40.4013 3.852C40.0813 3.852 39.8053 3.928 39.5733 4.08C39.3413 4.232 39.1613 4.448 39.0333 4.728C38.9133 5 38.8533 5.324 38.8533 5.7V9H37.8813ZM50.7627 9.108C50.1467 9.108 49.6147 8.988 49.1667 8.748C48.7267 8.5 48.3827 8.152 48.1347 7.704C47.8947 7.256 47.7747 6.72 47.7747 6.096C47.7747 5.488 47.8947 4.96 48.1347 4.512C48.3747 4.056 48.7027 3.7 49.1187 3.444C49.5427 3.188 50.0307 3.06 50.5827 3.06C51.1107 3.06 51.5627 3.176 51.9387 3.408C52.3147 3.64 52.6027 3.968 52.8027 4.392C53.0107 4.816 53.1147 5.324 53.1147 5.916V6.288H48.5187V5.652H52.4667L52.2747 5.808C52.2747 5.168 52.1307 4.672 51.8427 4.32C51.5627 3.96 51.1507 3.78 50.6067 3.78C50.1987 3.78 49.8507 3.876 49.5627 4.068C49.2827 4.252 49.0707 4.512 48.9267 4.848C48.7827 5.176 48.7107 5.56 48.7107 6V6.072C48.7107 6.56 48.7867 6.972 48.9387 7.308C49.0987 7.644 49.3347 7.9 49.6467 8.076C49.9587 8.244 50.3307 8.328 50.7627 8.328C51.1067 8.328 51.4387 8.276 51.7587 8.172C52.0867 8.06 52.3947 7.88 52.6827 7.632L53.0187 8.316C52.7547 8.556 52.4187 8.748 52.0107 8.892C51.6027 9.036 51.1867 9.108 50.7627 9.108ZM54.6023 6.204V5.4H57.9623V6.204H54.6023ZM59.8682 9V0.539999H60.8522V9H59.8682ZM62.8065 9V3.168H63.7545V4.464H63.6225C63.7905 4 64.0625 3.652 64.4385 3.42C64.8225 3.18 65.2625 3.06 65.7585 3.06C66.2225 3.06 66.6065 3.144 66.9105 3.312C67.2225 3.472 67.4545 3.724 67.6065 4.068C67.7585 4.412 67.8345 4.844 67.8345 5.364V9H66.8625V5.424C66.8625 5.064 66.8145 4.768 66.7185 4.536C66.6305 4.304 66.4865 4.132 66.2865 4.02C66.0945 3.908 65.8425 3.852 65.5305 3.852C65.1785 3.852 64.8705 3.928 64.6065 4.08C64.3425 4.232 64.1385 4.444 63.9945 4.716C63.8505 4.988 63.7785 5.308 63.7785 5.676V9H62.8065ZM69.5788 6.204V5.4H72.9388V6.204H69.5788ZM74.8448 9V0.539999H75.8288V9H74.8448ZM77.7831 9V3.168H78.7311V4.464H78.5991C78.7671 4 79.0391 3.652 79.4151 3.42C79.7991 3.18 80.2391 3.06 80.7351 3.06C81.1991 3.06 81.5831 3.144 81.8871 3.312C82.1991 3.472 82.4311 3.724 82.5831 4.068C82.7351 4.412 82.8111 4.844 82.8111 5.364V9H81.8391V5.424C81.8391 5.064 81.7911 4.768 81.6951 4.536C81.6071 4.304 81.4631 4.132 81.2631 4.02C81.0711 3.908 80.8191 3.852 80.5071 3.852C80.1551 3.852 79.8471 3.928 79.5831 4.08C79.3191 4.232 79.1151 4.444 78.9711 4.716C78.8271 4.988 78.7551 5.308 78.7551 5.676V9H77.7831ZM86.8234 9.108C86.3034 9.108 85.8474 8.984 85.4554 8.736C85.0714 8.488 84.7714 8.14 84.5554 7.692C84.3474 7.236 84.2434 6.7 84.2434 6.084C84.2434 5.46 84.3474 4.924 84.5554 4.476C84.7714 4.02 85.0714 3.672 85.4554 3.432C85.8474 3.184 86.3034 3.06 86.8234 3.06C87.3514 3.06 87.8034 3.192 88.1794 3.456C88.5554 3.72 88.8074 4.076 88.9354 4.524H88.8034V0.539999H89.7754V9H88.8274V7.608H88.9474C88.8194 8.064 88.5634 8.428 88.1794 8.7C87.8034 8.972 87.3514 9.108 86.8234 9.108ZM87.0274 8.328C87.5794 8.328 88.0154 8.136 88.3354 7.752C88.6634 7.36 88.8274 6.804 88.8274 6.084C88.8274 5.356 88.6634 4.8 88.3354 4.416C88.0154 4.032 87.5794 3.84 87.0274 3.84C86.4834 3.84 86.0474 4.032 85.7194 4.416C85.3914 4.8 85.2274 5.356 85.2274 6.084C85.2274 6.804 85.3914 7.36 85.7194 7.752C86.0474 8.136 86.4834 8.328 87.0274 8.328ZM91.4795 1.716V0.624H92.6795V1.716H91.4795ZM91.5995 9V3.168H92.5715V9H91.5995ZM96.2246 9.108C95.8246 9.108 95.4646 9.032 95.1446 8.88C94.8326 8.72 94.5846 8.504 94.4006 8.232C94.2166 7.96 94.1246 7.656 94.1246 7.32C94.1246 6.888 94.2326 6.548 94.4486 6.3C94.6726 6.052 95.0366 5.876 95.5406 5.772C96.0526 5.668 96.7486 5.616 97.6286 5.616H98.1686V6.252H97.6406C97.1526 6.252 96.7446 6.268 96.4166 6.3C96.0886 6.332 95.8286 6.388 95.6366 6.468C95.4446 6.548 95.3086 6.652 95.2286 6.78C95.1486 6.908 95.1086 7.068 95.1086 7.26C95.1086 7.588 95.2206 7.856 95.4446 8.064C95.6766 8.272 95.9886 8.376 96.3806 8.376C96.7006 8.376 96.9806 8.3 97.2206 8.148C97.4686 7.996 97.6606 7.788 97.7966 7.524C97.9406 7.26 98.0126 6.956 98.0126 6.612V5.244C98.0126 4.748 97.9126 4.392 97.7126 4.176C97.5126 3.952 97.1846 3.84 96.7286 3.84C96.3766 3.84 96.0366 3.892 95.7086 3.996C95.3806 4.092 95.0446 4.252 94.7006 4.476L94.3646 3.768C94.5726 3.624 94.8086 3.5 95.0726 3.396C95.3366 3.284 95.6126 3.2 95.9006 3.144C96.1886 3.088 96.4646 3.06 96.7286 3.06C97.2326 3.06 97.6486 3.144 97.9766 3.312C98.3046 3.472 98.5486 3.72 98.7086 4.056C98.8686 4.384 98.9486 4.808 98.9486 5.328V9H98.0366V7.644H98.1446C98.0806 7.948 97.9566 8.208 97.7726 8.424C97.5966 8.64 97.3766 8.808 97.1126 8.928C96.8486 9.048 96.5526 9.108 96.2246 9.108ZM104.002 9V8.256L106.894 5.136C107.166 4.84 107.386 4.564 107.554 4.308C107.722 4.044 107.846 3.788 107.926 3.54C108.006 3.292 108.046 3.04 108.046 2.784C108.046 2.304 107.898 1.94 107.602 1.692C107.314 1.436 106.89 1.308 106.33 1.308C105.898 1.308 105.494 1.388 105.118 1.548C104.75 1.7 104.398 1.94 104.062 2.268L103.69 1.5C104.002 1.18 104.398 0.924 104.878 0.732C105.366 0.532 105.878 0.431999 106.414 0.431999C106.982 0.431999 107.462 0.52 107.854 0.696C108.246 0.872 108.542 1.132 108.742 1.476C108.942 1.812 109.042 2.224 109.042 2.712C109.042 2.968 109.01 3.22 108.946 3.468C108.89 3.708 108.798 3.952 108.67 4.2C108.55 4.44 108.394 4.688 108.202 4.944C108.018 5.2 107.794 5.464 107.53 5.736L104.986 8.436V8.16H109.39V9H104.002ZM113.897 9.108C113.537 9.108 113.185 9.068 112.841 8.988C112.497 8.908 112.173 8.792 111.869 8.64C111.573 8.488 111.309 8.308 111.077 8.1L111.449 7.32C111.833 7.632 112.221 7.864 112.613 8.016C113.013 8.16 113.437 8.232 113.885 8.232C114.477 8.232 114.937 8.068 115.265 7.74C115.601 7.412 115.769 6.98 115.769 6.444C115.769 5.892 115.609 5.44 115.289 5.088C114.969 4.736 114.529 4.56 113.969 4.56C113.561 4.56 113.201 4.644 112.889 4.812C112.585 4.972 112.309 5.224 112.061 5.568H111.341V0.539999H116.249V1.38H112.313V4.752H112.049C112.257 4.416 112.545 4.16 112.913 3.984C113.281 3.8 113.693 3.708 114.149 3.708C114.685 3.708 115.145 3.82 115.529 4.044C115.921 4.268 116.221 4.584 116.429 4.992C116.645 5.392 116.753 5.86 116.753 6.396C116.753 6.924 116.637 7.392 116.405 7.8C116.173 8.208 115.845 8.528 115.421 8.76C114.997 8.992 114.489 9.108 113.897 9.108ZM120.913 9.108C120.273 9.108 119.729 8.944 119.281 8.616C118.841 8.28 118.509 7.788 118.285 7.14C118.061 6.492 117.949 5.7 117.949 4.764C117.949 3.82 118.061 3.028 118.285 2.388C118.509 1.74 118.841 1.252 119.281 0.924C119.729 0.595999 120.273 0.431999 120.913 0.431999C121.561 0.431999 122.105 0.595999 122.545 0.924C122.985 1.252 123.317 1.736 123.541 2.376C123.765 3.016 123.877 3.808 123.877 4.752C123.877 5.696 123.765 6.492 123.541 7.14C123.317 7.788 122.985 8.28 122.545 8.616C122.105 8.944 121.561 9.108 120.913 9.108ZM120.913 8.256C121.585 8.256 122.081 7.972 122.401 7.404C122.729 6.836 122.893 5.952 122.893 4.752C122.893 3.552 122.733 2.676 122.413 2.124C122.093 1.564 121.593 1.284 120.913 1.284C120.249 1.284 119.753 1.564 119.425 2.124C119.097 2.684 118.933 3.56 118.933 4.752C118.933 5.952 119.093 6.836 119.413 7.404C119.741 7.972 120.241 8.256 120.913 8.256ZM125.444 9V3.168H126.392V4.464H126.26C126.356 4.168 126.496 3.916 126.68 3.708C126.872 3.492 127.096 3.332 127.352 3.228C127.616 3.116 127.904 3.06 128.216 3.06C128.712 3.06 129.112 3.18 129.416 3.42C129.728 3.652 129.936 4.016 130.04 4.512H129.86C130.004 4.064 130.26 3.712 130.628 3.456C131.004 3.192 131.44 3.06 131.936 3.06C132.376 3.06 132.736 3.144 133.016 3.312C133.304 3.48 133.52 3.736 133.664 4.08C133.808 4.416 133.88 4.844 133.88 5.364V9H132.908V5.412C132.908 4.876 132.816 4.484 132.632 4.236C132.448 3.98 132.136 3.852 131.696 3.852C131.384 3.852 131.108 3.928 130.868 4.08C130.636 4.232 130.456 4.448 130.328 4.728C130.208 5 130.148 5.324 130.148 5.7V9H129.176V5.412C129.176 4.876 129.08 4.484 128.888 4.236C128.704 3.98 128.396 3.852 127.964 3.852C127.644 3.852 127.368 3.928 127.136 4.08C126.904 4.232 126.724 4.448 126.596 4.728C126.476 5 126.416 5.324 126.416 5.7V9H125.444ZM137.485 9.108C136.893 9.108 136.445 8.932 136.141 8.58C135.845 8.228 135.697 7.724 135.697 7.068V0.539999H136.669V6.996C136.669 7.276 136.705 7.512 136.777 7.704C136.857 7.896 136.973 8.04 137.125 8.136C137.277 8.232 137.465 8.28 137.689 8.28C137.785 8.28 137.877 8.276 137.965 8.268C138.061 8.252 138.149 8.232 138.229 8.208L138.205 9.024C138.077 9.048 137.953 9.068 137.833 9.084C137.721 9.1 137.605 9.108 137.485 9.108ZM149.408 9.108C148.504 9.108 147.74 8.936 147.116 8.592C146.5 8.248 146.032 7.752 145.712 7.104C145.392 6.456 145.232 5.68 145.232 4.776C145.232 3.88 145.392 3.108 145.712 2.46C146.032 1.812 146.492 1.312 147.092 0.96C147.692 0.608 148.416 0.431999 149.264 0.431999C149.664 0.431999 150.04 0.471999 150.392 0.551999C150.752 0.632 151.084 0.752 151.388 0.912C151.7 1.064 151.972 1.256 152.204 1.488L151.82 2.28C151.436 1.944 151.04 1.7 150.632 1.548C150.224 1.396 149.764 1.32 149.252 1.32C148.284 1.32 147.544 1.62 147.032 2.22C146.528 2.82 146.276 3.672 146.276 4.776C146.276 5.896 146.536 6.752 147.056 7.344C147.584 7.936 148.376 8.232 149.432 8.232C149.816 8.232 150.192 8.196 150.56 8.124C150.928 8.044 151.276 7.936 151.604 7.8L151.388 8.364V5.376H149.24V4.596H152.24V8.508C152.024 8.62 151.756 8.724 151.436 8.82C151.116 8.908 150.78 8.976 150.428 9.024C150.076 9.08 149.736 9.108 149.408 9.108ZM155.907 9.108C155.315 9.108 154.867 8.932 154.563 8.58C154.267 8.228 154.119 7.724 154.119 7.068V0.539999H155.091V6.996C155.091 7.276 155.127 7.512 155.199 7.704C155.279 7.896 155.395 8.04 155.547 8.136C155.699 8.232 155.887 8.28 156.111 8.28C156.207 8.28 156.299 8.276 156.387 8.268C156.483 8.252 156.571 8.232 156.651 8.208L156.627 9.024C156.499 9.048 156.375 9.068 156.255 9.084C156.143 9.1 156.027 9.108 155.907 9.108ZM159.506 9.108C159.106 9.108 158.746 9.032 158.426 8.88C158.114 8.72 157.866 8.504 157.682 8.232C157.498 7.96 157.406 7.656 157.406 7.32C157.406 6.888 157.514 6.548 157.73 6.3C157.954 6.052 158.318 5.876 158.822 5.772C159.334 5.668 160.03 5.616 160.91 5.616H161.45V6.252H160.922C160.434 6.252 160.026 6.268 159.698 6.3C159.37 6.332 159.11 6.388 158.918 6.468C158.726 6.548 158.59 6.652 158.51 6.78C158.43 6.908 158.39 7.068 158.39 7.26C158.39 7.588 158.502 7.856 158.726 8.064C158.958 8.272 159.27 8.376 159.662 8.376C159.982 8.376 160.262 8.3 160.502 8.148C160.75 7.996 160.942 7.788 161.078 7.524C161.222 7.26 161.294 6.956 161.294 6.612V5.244C161.294 4.748 161.194 4.392 160.994 4.176C160.794 3.952 160.466 3.84 160.01 3.84C159.658 3.84 159.318 3.892 158.99 3.996C158.662 4.092 158.326 4.252 157.982 4.476L157.646 3.768C157.854 3.624 158.09 3.5 158.354 3.396C158.618 3.284 158.894 3.2 159.182 3.144C159.47 3.088 159.746 3.06 160.01 3.06C160.514 3.06 160.93 3.144 161.258 3.312C161.586 3.472 161.83 3.72 161.99 4.056C162.15 4.384 162.23 4.808 162.23 5.328V9H161.318V7.644H161.426C161.362 7.948 161.238 8.208 161.054 8.424C160.878 8.64 160.658 8.808 160.394 8.928C160.13 9.048 159.834 9.108 159.506 9.108ZM166.001 9.108C165.697 9.108 165.401 9.076 165.113 9.012C164.833 8.956 164.569 8.876 164.321 8.772C164.081 8.66 163.873 8.528 163.697 8.376L164.009 7.692C164.201 7.844 164.409 7.972 164.633 8.076C164.857 8.172 165.085 8.244 165.317 8.292C165.549 8.34 165.785 8.364 166.025 8.364C166.481 8.364 166.825 8.28 167.057 8.112C167.289 7.944 167.405 7.716 167.405 7.428C167.405 7.204 167.329 7.028 167.177 6.9C167.025 6.764 166.785 6.66 166.457 6.588L165.365 6.348C164.861 6.244 164.485 6.064 164.237 5.808C163.997 5.552 163.877 5.22 163.877 4.812C163.877 4.452 163.969 4.144 164.153 3.888C164.345 3.624 164.613 3.42 164.957 3.276C165.301 3.132 165.701 3.06 166.157 3.06C166.429 3.06 166.689 3.088 166.937 3.144C167.185 3.2 167.417 3.284 167.633 3.396C167.857 3.5 168.049 3.632 168.209 3.792L167.885 4.476C167.733 4.332 167.561 4.212 167.369 4.116C167.177 4.012 166.977 3.936 166.769 3.888C166.569 3.832 166.365 3.804 166.157 3.804C165.709 3.804 165.369 3.892 165.137 4.068C164.905 4.244 164.789 4.476 164.789 4.764C164.789 4.988 164.861 5.172 165.005 5.316C165.149 5.46 165.373 5.564 165.677 5.628L166.769 5.856C167.289 5.968 167.677 6.148 167.933 6.396C168.197 6.636 168.329 6.964 168.329 7.38C168.329 7.732 168.233 8.04 168.041 8.304C167.849 8.56 167.577 8.76 167.225 8.904C166.881 9.04 166.473 9.108 166.001 9.108ZM171.778 9.108C171.474 9.108 171.178 9.076 170.89 9.012C170.61 8.956 170.346 8.876 170.098 8.772C169.858 8.66 169.65 8.528 169.474 8.376L169.786 7.692C169.978 7.844 170.186 7.972 170.41 8.076C170.634 8.172 170.862 8.244 171.094 8.292C171.326 8.34 171.562 8.364 171.802 8.364C172.258 8.364 172.602 8.28 172.834 8.112C173.066 7.944 173.182 7.716 173.182 7.428C173.182 7.204 173.106 7.028 172.954 6.9C172.802 6.764 172.562 6.66 172.234 6.588L171.142 6.348C170.638 6.244 170.262 6.064 170.014 5.808C169.774 5.552 169.654 5.22 169.654 4.812C169.654 4.452 169.746 4.144 169.93 3.888C170.122 3.624 170.39 3.42 170.734 3.276C171.078 3.132 171.478 3.06 171.934 3.06C172.206 3.06 172.466 3.088 172.714 3.144C172.962 3.2 173.194 3.284 173.41 3.396C173.634 3.5 173.826 3.632 173.986 3.792L173.662 4.476C173.51 4.332 173.338 4.212 173.146 4.116C172.954 4.012 172.754 3.936 172.546 3.888C172.346 3.832 172.142 3.804 171.934 3.804C171.486 3.804 171.146 3.892 170.914 4.068C170.682 4.244 170.566 4.476 170.566 4.764C170.566 4.988 170.638 5.172 170.782 5.316C170.926 5.46 171.15 5.564 171.454 5.628L172.546 5.856C173.066 5.968 173.454 6.148 173.71 6.396C173.974 6.636 174.106 6.964 174.106 7.38C174.106 7.732 174.01 8.04 173.818 8.304C173.626 8.56 173.354 8.76 173.002 8.904C172.658 9.04 172.25 9.108 171.778 9.108ZM175.877 10.368L175.421 10.02C175.565 9.868 175.673 9.724 175.745 9.588C175.825 9.46 175.877 9.328 175.901 9.192C175.933 9.064 175.949 8.932 175.949 8.796L176.165 9H175.373V7.776H176.597V8.64C176.597 8.856 176.573 9.06 176.525 9.252C176.485 9.452 176.413 9.644 176.309 9.828C176.205 10.012 176.061 10.192 175.877 10.368ZM181.474 9V0.539999H184.33C185.25 0.539999 186.026 0.704 186.658 1.032C187.298 1.352 187.782 1.828 188.11 2.46C188.446 3.084 188.614 3.852 188.614 4.764C188.614 5.676 188.446 6.448 188.11 7.08C187.782 7.712 187.298 8.192 186.658 8.52C186.026 8.84 185.25 9 184.33 9H181.474ZM182.458 8.16H184.258C185.37 8.16 186.198 7.876 186.742 7.308C187.294 6.74 187.57 5.892 187.57 4.764C187.57 3.636 187.294 2.792 186.742 2.232C186.19 1.664 185.362 1.38 184.258 1.38H182.458V8.16ZM192.876 9.108C192.26 9.108 191.728 8.988 191.28 8.748C190.84 8.5 190.496 8.152 190.248 7.704C190.008 7.256 189.888 6.72 189.888 6.096C189.888 5.488 190.008 4.96 190.248 4.512C190.488 4.056 190.816 3.7 191.232 3.444C191.656 3.188 192.144 3.06 192.696 3.06C193.224 3.06 193.676 3.176 194.052 3.408C194.428 3.64 194.716 3.968 194.916 4.392C195.124 4.816 195.228 5.324 195.228 5.916V6.288H190.632V5.652H194.58L194.388 5.808C194.388 5.168 194.244 4.672 193.956 4.32C193.676 3.96 193.264 3.78 192.72 3.78C192.312 3.78 191.964 3.876 191.676 4.068C191.396 4.252 191.184 4.512 191.04 4.848C190.896 5.176 190.824 5.56 190.824 6V6.072C190.824 6.56 190.9 6.972 191.052 7.308C191.212 7.644 191.448 7.9 191.76 8.076C192.072 8.244 192.444 8.328 192.876 8.328C193.22 8.328 193.552 8.276 193.872 8.172C194.2 8.06 194.508 7.88 194.796 7.632L195.132 8.316C194.868 8.556 194.532 8.748 194.124 8.892C193.716 9.036 193.3 9.108 192.876 9.108ZM198.603 9.108C198.299 9.108 198.003 9.076 197.715 9.012C197.435 8.956 197.171 8.876 196.923 8.772C196.683 8.66 196.475 8.528 196.299 8.376L196.611 7.692C196.803 7.844 197.011 7.972 197.235 8.076C197.459 8.172 197.687 8.244 197.919 8.292C198.151 8.34 198.387 8.364 198.627 8.364C199.083 8.364 199.427 8.28 199.659 8.112C199.891 7.944 200.007 7.716 200.007 7.428C200.007 7.204 199.931 7.028 199.779 6.9C199.627 6.764 199.387 6.66 199.059 6.588L197.967 6.348C197.463 6.244 197.087 6.064 196.839 5.808C196.599 5.552 196.479 5.22 196.479 4.812C196.479 4.452 196.571 4.144 196.755 3.888C196.947 3.624 197.215 3.42 197.559 3.276C197.903 3.132 198.303 3.06 198.759 3.06C199.031 3.06 199.291 3.088 199.539 3.144C199.787 3.2 200.019 3.284 200.235 3.396C200.459 3.5 200.651 3.632 200.811 3.792L200.487 4.476C200.335 4.332 200.163 4.212 199.971 4.116C199.779 4.012 199.579 3.936 199.371 3.888C199.171 3.832 198.967 3.804 198.759 3.804C198.311 3.804 197.971 3.892 197.739 4.068C197.507 4.244 197.391 4.476 197.391 4.764C197.391 4.988 197.463 5.172 197.607 5.316C197.751 5.46 197.975 5.564 198.279 5.628L199.371 5.856C199.891 5.968 200.279 6.148 200.535 6.396C200.799 6.636 200.931 6.964 200.931 7.38C200.931 7.732 200.835 8.04 200.643 8.304C200.451 8.56 200.179 8.76 199.827 8.904C199.483 9.04 199.075 9.108 198.603 9.108ZM202.292 1.716V0.624H203.492V1.716H202.292ZM202.412 9V3.168H203.384V9H202.412ZM207.781 11.268C207.277 11.268 206.801 11.2 206.353 11.064C205.913 10.936 205.521 10.74 205.177 10.476L205.501 9.768C205.741 9.936 205.977 10.072 206.209 10.176C206.449 10.288 206.693 10.368 206.941 10.416C207.197 10.464 207.461 10.488 207.733 10.488C208.301 10.488 208.729 10.336 209.017 10.032C209.313 9.728 209.461 9.288 209.461 8.712V7.356H209.581C209.461 7.82 209.205 8.188 208.813 8.46C208.429 8.732 207.977 8.868 207.457 8.868C206.921 8.868 206.457 8.748 206.065 8.508C205.673 8.26 205.369 7.916 205.153 7.476C204.945 7.036 204.841 6.528 204.841 5.952C204.841 5.376 204.945 4.872 205.153 4.44C205.369 4 205.673 3.66 206.065 3.42C206.457 3.18 206.921 3.06 207.457 3.06C207.985 3.06 208.441 3.196 208.825 3.468C209.209 3.732 209.457 4.092 209.569 4.548H209.461V3.168H210.409V8.58C210.409 9.172 210.309 9.668 210.109 10.068C209.917 10.468 209.625 10.768 209.233 10.968C208.841 11.168 208.357 11.268 207.781 11.268ZM207.637 8.076C208.197 8.076 208.641 7.884 208.969 7.5C209.297 7.116 209.461 6.6 209.461 5.952C209.461 5.304 209.297 4.792 208.969 4.416C208.641 4.032 208.197 3.84 207.637 3.84C207.085 3.84 206.645 4.032 206.317 4.416C205.989 4.792 205.825 5.304 205.825 5.952C205.825 6.6 205.989 7.116 206.317 7.5C206.645 7.884 207.085 8.076 207.637 8.076ZM212.232 9V3.168H213.18V4.464H213.048C213.216 4 213.488 3.652 213.864 3.42C214.248 3.18 214.688 3.06 215.184 3.06C215.648 3.06 216.032 3.144 216.336 3.312C216.648 3.472 216.88 3.724 217.032 4.068C217.184 4.412 217.26 4.844 217.26 5.364V9H216.288V5.424C216.288 5.064 216.24 4.768 216.144 4.536C216.056 4.304 215.912 4.132 215.712 4.02C215.52 3.908 215.268 3.852 214.956 3.852C214.604 3.852 214.296 3.928 214.032 4.08C213.768 4.232 213.564 4.444 213.42 4.716C213.276 4.988 213.204 5.308 213.204 5.676V9H212.232ZM219.005 6.204V5.4H222.365V6.204H219.005ZM224.271 9V0.539999H227.619C228.523 0.539999 229.219 0.752 229.707 1.176C230.195 1.6 230.439 2.204 230.439 2.988C230.439 3.484 230.327 3.916 230.103 4.284C229.887 4.644 229.567 4.92 229.143 5.112C228.719 5.296 228.211 5.388 227.619 5.388L227.739 5.232H227.979C228.291 5.232 228.563 5.312 228.795 5.472C229.027 5.632 229.239 5.888 229.431 6.24L230.919 9H229.839L228.375 6.288C228.255 6.064 228.119 5.888 227.967 5.76C227.823 5.632 227.655 5.544 227.463 5.496C227.279 5.448 227.055 5.424 226.791 5.424H225.255V9H224.271ZM225.255 4.644H227.475C228.131 4.644 228.627 4.508 228.963 4.236C229.299 3.956 229.467 3.54 229.467 2.988C229.467 2.452 229.299 2.048 228.963 1.776C228.627 1.496 228.131 1.356 227.475 1.356H225.255V4.644ZM234.665 9.108C234.049 9.108 233.517 8.988 233.069 8.748C232.629 8.5 232.285 8.152 232.037 7.704C231.797 7.256 231.677 6.72 231.677 6.096C231.677 5.488 231.797 4.96 232.037 4.512C232.277 4.056 232.605 3.7 233.021 3.444C233.445 3.188 233.933 3.06 234.485 3.06C235.013 3.06 235.465 3.176 235.841 3.408C236.217 3.64 236.505 3.968 236.705 4.392C236.913 4.816 237.017 5.324 237.017 5.916V6.288H232.421V5.652H236.369L236.177 5.808C236.177 5.168 236.033 4.672 235.745 4.32C235.465 3.96 235.053 3.78 234.509 3.78C234.101 3.78 233.753 3.876 233.465 4.068C233.185 4.252 232.973 4.512 232.829 4.848C232.685 5.176 232.613 5.56 232.613 6V6.072C232.613 6.56 232.689 6.972 232.841 7.308C233.001 7.644 233.237 7.9 233.549 8.076C233.861 8.244 234.233 8.328 234.665 8.328C235.009 8.328 235.341 8.276 235.661 8.172C235.989 8.06 236.297 7.88 236.585 7.632L236.921 8.316C236.657 8.556 236.321 8.748 235.913 8.892C235.505 9.036 235.089 9.108 234.665 9.108ZM241.004 11.268C240.5 11.268 240.024 11.2 239.576 11.064C239.136 10.936 238.744 10.74 238.4 10.476L238.724 9.768C238.964 9.936 239.2 10.072 239.432 10.176C239.672 10.288 239.916 10.368 240.164 10.416C240.42 10.464 240.684 10.488 240.956 10.488C241.524 10.488 241.952 10.336 242.24 10.032C242.536 9.728 242.684 9.288 242.684 8.712V7.356H242.804C242.684 7.82 242.428 8.188 242.036 8.46C241.652 8.732 241.2 8.868 240.68 8.868C240.144 8.868 239.68 8.748 239.288 8.508C238.896 8.26 238.592 7.916 238.376 7.476C238.168 7.036 238.064 6.528 238.064 5.952C238.064 5.376 238.168 4.872 238.376 4.44C238.592 4 238.896 3.66 239.288 3.42C239.68 3.18 240.144 3.06 240.68 3.06C241.208 3.06 241.664 3.196 242.048 3.468C242.432 3.732 242.68 4.092 242.792 4.548H242.684V3.168H243.632V8.58C243.632 9.172 243.532 9.668 243.332 10.068C243.14 10.468 242.848 10.768 242.456 10.968C242.064 11.168 241.58 11.268 241.004 11.268ZM240.86 8.076C241.42 8.076 241.864 7.884 242.192 7.5C242.52 7.116 242.684 6.6 242.684 5.952C242.684 5.304 242.52 4.792 242.192 4.416C241.864 4.032 241.42 3.84 240.86 3.84C240.308 3.84 239.868 4.032 239.54 4.416C239.212 4.792 239.048 5.304 239.048 5.952C239.048 6.6 239.212 7.116 239.54 7.5C239.868 7.884 240.308 8.076 240.86 8.076ZM245.335 1.716V0.624H246.535V1.716H245.335ZM245.455 9V3.168H246.427V9H245.455ZM250.212 9.108C249.908 9.108 249.612 9.076 249.324 9.012C249.044 8.956 248.78 8.876 248.532 8.772C248.292 8.66 248.084 8.528 247.908 8.376L248.22 7.692C248.412 7.844 248.62 7.972 248.844 8.076C249.068 8.172 249.296 8.244 249.528 8.292C249.76 8.34 249.996 8.364 250.236 8.364C250.692 8.364 251.036 8.28 251.268 8.112C251.5 7.944 251.616 7.716 251.616 7.428C251.616 7.204 251.54 7.028 251.388 6.9C251.236 6.764 250.996 6.66 250.668 6.588L249.576 6.348C249.072 6.244 248.696 6.064 248.448 5.808C248.208 5.552 248.088 5.22 248.088 4.812C248.088 4.452 248.18 4.144 248.364 3.888C248.556 3.624 248.824 3.42 249.168 3.276C249.512 3.132 249.912 3.06 250.368 3.06C250.64 3.06 250.9 3.088 251.148 3.144C251.396 3.2 251.628 3.284 251.844 3.396C252.068 3.5 252.26 3.632 252.42 3.792L252.096 4.476C251.944 4.332 251.772 4.212 251.58 4.116C251.388 4.012 251.188 3.936 250.98 3.888C250.78 3.832 250.576 3.804 250.368 3.804C249.92 3.804 249.58 3.892 249.348 4.068C249.116 4.244 249 4.476 249 4.764C249 4.988 249.072 5.172 249.216 5.316C249.36 5.46 249.584 5.564 249.888 5.628L250.98 5.856C251.5 5.968 251.888 6.148 252.144 6.396C252.408 6.636 252.54 6.964 252.54 7.38C252.54 7.732 252.444 8.04 252.252 8.304C252.06 8.56 251.788 8.76 251.436 8.904C251.092 9.04 250.684 9.108 250.212 9.108ZM256.303 9.108C255.615 9.108 255.099 8.924 254.755 8.556C254.411 8.188 254.239 7.664 254.239 6.984V3.924H253.099V3.168H254.239V1.38H255.211V3.168H257.059V3.924H255.211V6.888C255.211 7.344 255.307 7.692 255.499 7.932C255.691 8.164 256.003 8.28 256.435 8.28C256.563 8.28 256.691 8.264 256.819 8.232C256.947 8.2 257.063 8.168 257.167 8.136L257.335 8.88C257.231 8.936 257.079 8.988 256.879 9.036C256.679 9.084 256.487 9.108 256.303 9.108ZM260.728 9.108C260.112 9.108 259.58 8.988 259.132 8.748C258.692 8.5 258.348 8.152 258.1 7.704C257.86 7.256 257.74 6.72 257.74 6.096C257.74 5.488 257.86 4.96 258.1 4.512C258.34 4.056 258.668 3.7 259.084 3.444C259.508 3.188 259.996 3.06 260.548 3.06C261.076 3.06 261.528 3.176 261.904 3.408C262.28 3.64 262.568 3.968 262.768 4.392C262.976 4.816 263.08 5.324 263.08 5.916V6.288H258.484V5.652H262.432L262.24 5.808C262.24 5.168 262.096 4.672 261.808 4.32C261.528 3.96 261.116 3.78 260.572 3.78C260.164 3.78 259.816 3.876 259.528 4.068C259.248 4.252 259.036 4.512 258.892 4.848C258.748 5.176 258.676 5.56 258.676 6V6.072C258.676 6.56 258.752 6.972 258.904 7.308C259.064 7.644 259.3 7.9 259.612 8.076C259.924 8.244 260.296 8.328 260.728 8.328C261.072 8.328 261.404 8.276 261.724 8.172C262.052 8.06 262.36 7.88 262.648 7.632L262.984 8.316C262.72 8.556 262.384 8.748 261.976 8.892C261.568 9.036 261.152 9.108 260.728 9.108ZM264.486 9V3.168H265.434V4.548H265.314C265.45 4.076 265.686 3.72 266.022 3.48C266.358 3.232 266.802 3.088 267.354 3.048L267.702 3.012L267.774 3.852L267.162 3.924C266.618 3.972 266.198 4.148 265.902 4.452C265.614 4.748 265.47 5.156 265.47 5.676V9H264.486ZM271.345 9.108C270.729 9.108 270.197 8.988 269.749 8.748C269.309 8.5 268.965 8.152 268.717 7.704C268.477 7.256 268.357 6.72 268.357 6.096C268.357 5.488 268.477 4.96 268.717 4.512C268.957 4.056 269.285 3.7 269.701 3.444C270.125 3.188 270.613 3.06 271.165 3.06C271.693 3.06 272.145 3.176 272.521 3.408C272.897 3.64 273.185 3.968 273.385 4.392C273.593 4.816 273.697 5.324 273.697 5.916V6.288H269.101V5.652H273.049L272.857 5.808C272.857 5.168 272.713 4.672 272.425 4.32C272.145 3.96 271.733 3.78 271.189 3.78C270.781 3.78 270.433 3.876 270.145 4.068C269.865 4.252 269.653 4.512 269.509 4.848C269.365 5.176 269.293 5.56 269.293 6V6.072C269.293 6.56 269.369 6.972 269.521 7.308C269.681 7.644 269.917 7.9 270.229 8.076C270.541 8.244 270.913 8.328 271.345 8.328C271.689 8.328 272.021 8.276 272.341 8.172C272.669 8.06 272.977 7.88 273.265 7.632L273.601 8.316C273.337 8.556 273.001 8.748 272.593 8.892C272.185 9.036 271.769 9.108 271.345 9.108ZM277.323 9.108C276.803 9.108 276.347 8.984 275.955 8.736C275.571 8.488 275.271 8.14 275.055 7.692C274.847 7.236 274.743 6.7 274.743 6.084C274.743 5.46 274.847 4.924 275.055 4.476C275.271 4.02 275.571 3.672 275.955 3.432C276.347 3.184 276.803 3.06 277.323 3.06C277.851 3.06 278.303 3.192 278.679 3.456C279.055 3.72 279.307 4.076 279.435 4.524H279.303V0.539999H280.275V9H279.327V7.608H279.447C279.319 8.064 279.063 8.428 278.679 8.7C278.303 8.972 277.851 9.108 277.323 9.108ZM277.527 8.328C278.079 8.328 278.515 8.136 278.835 7.752C279.163 7.36 279.327 6.804 279.327 6.084C279.327 5.356 279.163 4.8 278.835 4.416C278.515 4.032 278.079 3.84 277.527 3.84C276.983 3.84 276.547 4.032 276.219 4.416C275.891 4.8 275.727 5.356 275.727 6.084C275.727 6.804 275.891 7.36 276.219 7.752C276.547 8.136 276.983 8.328 277.527 8.328ZM287.594 9L284.63 0.539999H285.662L288.266 8.16H287.846L290.498 0.539999H291.29L293.906 8.16H293.534L296.15 0.539999H297.134L294.17 9H293.294L290.75 1.68H291.014L288.446 9H287.594ZM298.269 1.716V0.624H299.469V1.716H298.269ZM298.389 9V3.168H299.361V9H298.389ZM303.518 9.108C302.83 9.108 302.314 8.924 301.97 8.556C301.626 8.188 301.454 7.664 301.454 6.984V3.924H300.314V3.168H301.454V1.38H302.426V3.168H304.274V3.924H302.426V6.888C302.426 7.344 302.522 7.692 302.714 7.932C302.906 8.164 303.218 8.28 303.65 8.28C303.778 8.28 303.906 8.264 304.034 8.232C304.162 8.2 304.278 8.168 304.382 8.136L304.55 8.88C304.446 8.936 304.294 8.988 304.094 9.036C303.894 9.084 303.702 9.108 303.518 9.108ZM305.373 9V0.539999H306.345V4.464H306.189C306.357 4 306.629 3.652 307.005 3.42C307.389 3.18 307.829 3.06 308.325 3.06C308.789 3.06 309.173 3.144 309.477 3.312C309.789 3.48 310.021 3.736 310.173 4.08C310.325 4.416 310.401 4.844 310.401 5.364V9H309.429V5.424C309.429 5.064 309.381 4.768 309.285 4.536C309.197 4.304 309.053 4.132 308.853 4.02C308.661 3.908 308.409 3.852 308.097 3.852C307.745 3.852 307.437 3.928 307.173 4.08C306.909 4.232 306.705 4.444 306.561 4.716C306.417 4.988 306.345 5.308 306.345 5.676V9H305.373ZM315.407 9V0.539999H316.391V8.136H320.699V9H315.407ZM324.36 9.108C323.744 9.108 323.212 8.988 322.764 8.748C322.324 8.5 321.98 8.152 321.732 7.704C321.492 7.256 321.372 6.72 321.372 6.096C321.372 5.488 321.492 4.96 321.732 4.512C321.972 4.056 322.3 3.7 322.716 3.444C323.14 3.188 323.628 3.06 324.18 3.06C324.708 3.06 325.16 3.176 325.536 3.408C325.912 3.64 326.2 3.968 326.4 4.392C326.608 4.816 326.712 5.324 326.712 5.916V6.288H322.116V5.652H326.064L325.872 5.808C325.872 5.168 325.728 4.672 325.44 4.32C325.16 3.96 324.748 3.78 324.204 3.78C323.796 3.78 323.448 3.876 323.16 4.068C322.88 4.252 322.668 4.512 322.524 4.848C322.38 5.176 322.308 5.56 322.308 6V6.072C322.308 6.56 322.384 6.972 322.536 7.308C322.696 7.644 322.932 7.9 323.244 8.076C323.556 8.244 323.928 8.328 324.36 8.328C324.704 8.328 325.036 8.276 325.356 8.172C325.684 8.06 325.992 7.88 326.28 7.632L326.616 8.316C326.352 8.556 326.016 8.748 325.608 8.892C325.2 9.036 324.784 9.108 324.36 9.108ZM329.955 9.108C329.555 9.108 329.195 9.032 328.875 8.88C328.563 8.72 328.315 8.504 328.131 8.232C327.947 7.96 327.855 7.656 327.855 7.32C327.855 6.888 327.963 6.548 328.179 6.3C328.403 6.052 328.767 5.876 329.271 5.772C329.783 5.668 330.479 5.616 331.359 5.616H331.899V6.252H331.371C330.883 6.252 330.475 6.268 330.147 6.3C329.819 6.332 329.559 6.388 329.367 6.468C329.175 6.548 329.039 6.652 328.959 6.78C328.879 6.908 328.839 7.068 328.839 7.26C328.839 7.588 328.951 7.856 329.175 8.064C329.407 8.272 329.719 8.376 330.111 8.376C330.431 8.376 330.711 8.3 330.951 8.148C331.199 7.996 331.391 7.788 331.527 7.524C331.671 7.26 331.743 6.956 331.743 6.612V5.244C331.743 4.748 331.643 4.392 331.443 4.176C331.243 3.952 330.915 3.84 330.459 3.84C330.107 3.84 329.767 3.892 329.439 3.996C329.111 4.092 328.775 4.252 328.431 4.476L328.095 3.768C328.303 3.624 328.539 3.5 328.803 3.396C329.067 3.284 329.343 3.2 329.631 3.144C329.919 3.088 330.195 3.06 330.459 3.06C330.963 3.06 331.379 3.144 331.707 3.312C332.035 3.472 332.279 3.72 332.439 4.056C332.599 4.384 332.679 4.808 332.679 5.328V9H331.767V7.644H331.875C331.811 7.948 331.687 8.208 331.503 8.424C331.327 8.64 331.107 8.808 330.843 8.928C330.579 9.048 330.283 9.108 329.955 9.108ZM334.482 9V0.539999H335.454V5.76H335.478L338.178 3.168H339.414L336.21 6.24V5.712L339.666 9H338.43L335.478 6.264H335.454V9H334.482ZM340.083 6.204V5.4H343.443V6.204H340.083ZM0.0440001 25V16.54H3.392C4 16.54 4.512 16.64 4.928 16.84C5.352 17.032 5.672 17.32 5.888 17.704C6.104 18.08 6.212 18.54 6.212 19.084C6.212 19.612 6.104 20.068 5.888 20.452C5.672 20.836 5.352 21.128 4.928 21.328C4.512 21.528 4 21.628 3.392 21.628H1.028V25H0.0440001ZM1.028 20.8H3.272C3.92 20.8 4.408 20.656 4.736 20.368C5.072 20.072 5.24 19.644 5.24 19.084C5.24 18.516 5.072 18.088 4.736 17.8C4.408 17.504 3.92 17.356 3.272 17.356H1.028V20.8ZM7.38856 25V19.168H8.33656V20.548H8.21656C8.35256 20.076 8.58856 19.72 8.92456 19.48C9.26056 19.232 9.70456 19.088 10.2566 19.048L10.6046 19.012L10.6766 19.852L10.0646 19.924C9.52056 19.972 9.10056 20.148 8.80456 20.452C8.51656 20.748 8.37256 21.156 8.37256 21.676V25H7.38856ZM14.043 25.108C13.475 25.108 12.983 24.984 12.567 24.736C12.151 24.488 11.827 24.14 11.595 23.692C11.371 23.236 11.259 22.7 11.259 22.084C11.259 21.468 11.371 20.936 11.595 20.488C11.827 20.032 12.151 19.68 12.567 19.432C12.983 19.184 13.475 19.06 14.043 19.06C14.611 19.06 15.103 19.184 15.519 19.432C15.935 19.68 16.255 20.032 16.479 20.488C16.711 20.936 16.827 21.468 16.827 22.084C16.827 22.7 16.711 23.236 16.479 23.692C16.255 24.14 15.935 24.488 15.519 24.736C15.103 24.984 14.611 25.108 14.043 25.108ZM14.043 24.328C14.595 24.328 15.031 24.136 15.351 23.752C15.679 23.36 15.843 22.8 15.843 22.072C15.843 21.352 15.679 20.8 15.351 20.416C15.031 20.032 14.595 19.84 14.043 19.84C13.499 19.84 13.063 20.032 12.735 20.416C12.407 20.8 12.243 21.352 12.243 22.072C12.243 22.8 12.407 23.36 12.735 23.752C13.063 24.136 13.499 24.328 14.043 24.328ZM20.711 25.108C20.143 25.108 19.651 24.984 19.235 24.736C18.819 24.488 18.495 24.14 18.263 23.692C18.039 23.236 17.927 22.7 17.927 22.084C17.927 21.468 18.039 20.936 18.263 20.488C18.495 20.032 18.819 19.68 19.235 19.432C19.651 19.184 20.143 19.06 20.711 19.06C21.279 19.06 21.771 19.184 22.187 19.432C22.603 19.68 22.923 20.032 23.147 20.488C23.379 20.936 23.495 21.468 23.495 22.084C23.495 22.7 23.379 23.236 23.147 23.692C22.923 24.14 22.603 24.488 22.187 24.736C21.771 24.984 21.279 25.108 20.711 25.108ZM20.711 24.328C21.263 24.328 21.699 24.136 22.019 23.752C22.347 23.36 22.511 22.8 22.511 22.072C22.511 21.352 22.347 20.8 22.019 20.416C21.699 20.032 21.263 19.84 20.711 19.84C20.167 19.84 19.731 20.032 19.403 20.416C19.075 20.8 18.911 21.352 18.911 22.072C18.911 22.8 19.075 23.36 19.403 23.752C19.731 24.136 20.167 24.328 20.711 24.328ZM25.2084 25V19.924H24.0564V19.168H25.4724L25.2084 19.42V18.964C25.2084 18.188 25.4004 17.6 25.7844 17.2C26.1764 16.8 26.7764 16.576 27.5844 16.528L28.0524 16.504L28.1364 17.248L27.5844 17.284C27.2564 17.308 26.9884 17.38 26.7804 17.5C26.5724 17.62 26.4204 17.792 26.3244 18.016C26.2284 18.24 26.1804 18.516 26.1804 18.844V19.348L26.0364 19.168H27.8604V19.924H26.1804V25H25.2084ZM34.8425 25.108C34.4025 25.108 33.9865 25.068 33.5945 24.988C33.2105 24.908 32.8545 24.796 32.5265 24.652C32.2065 24.5 31.9145 24.316 31.6505 24.1L31.9985 23.308C32.2705 23.508 32.5465 23.68 32.8265 23.824C33.1145 23.96 33.4225 24.064 33.7505 24.136C34.0865 24.2 34.4505 24.232 34.8425 24.232C35.5625 24.232 36.0945 24.1 36.4385 23.836C36.7905 23.564 36.9665 23.208 36.9665 22.768C36.9665 22.536 36.9105 22.336 36.7985 22.168C36.6945 22 36.5185 21.856 36.2705 21.736C36.0305 21.616 35.7145 21.516 35.3225 21.436L34.0745 21.184C33.3225 21.024 32.7585 20.764 32.3825 20.404C32.0145 20.036 31.8305 19.548 31.8305 18.94C31.8305 18.436 31.9585 17.996 32.2145 17.62C32.4785 17.244 32.8425 16.952 33.3065 16.744C33.7785 16.536 34.3145 16.432 34.9145 16.432C35.2985 16.432 35.6625 16.472 36.0065 16.552C36.3505 16.632 36.6665 16.752 36.9545 16.912C37.2505 17.064 37.5105 17.252 37.7345 17.476L37.3865 18.244C37.0265 17.916 36.6465 17.68 36.2465 17.536C35.8465 17.384 35.3985 17.308 34.9025 17.308C34.4785 17.308 34.1105 17.372 33.7985 17.5C33.4945 17.628 33.2545 17.816 33.0785 18.064C32.9105 18.304 32.8265 18.584 32.8265 18.904C32.8265 19.288 32.9425 19.592 33.1745 19.816C33.4145 20.04 33.8025 20.204 34.3385 20.308L35.5865 20.572C36.3945 20.74 36.9905 20.996 37.3745 21.34C37.7665 21.676 37.9625 22.136 37.9625 22.72C37.9625 23.184 37.8345 23.6 37.5785 23.968C37.3305 24.328 36.9705 24.608 36.4985 24.808C36.0345 25.008 35.4825 25.108 34.8425 25.108ZM41.9853 25.108C41.3693 25.108 40.8373 24.988 40.3893 24.748C39.9493 24.5 39.6053 24.152 39.3573 23.704C39.1173 23.256 38.9973 22.72 38.9973 22.096C38.9973 21.488 39.1173 20.96 39.3573 20.512C39.5973 20.056 39.9253 19.7 40.3413 19.444C40.7653 19.188 41.2533 19.06 41.8053 19.06C42.3333 19.06 42.7853 19.176 43.1613 19.408C43.5373 19.64 43.8253 19.968 44.0253 20.392C44.2333 20.816 44.3373 21.324 44.3373 21.916V22.288H39.7413V21.652H43.6893L43.4973 21.808C43.4973 21.168 43.3533 20.672 43.0653 20.32C42.7853 19.96 42.3733 19.78 41.8293 19.78C41.4213 19.78 41.0733 19.876 40.7853 20.068C40.5053 20.252 40.2933 20.512 40.1493 20.848C40.0053 21.176 39.9333 21.56 39.9333 22V22.072C39.9333 22.56 40.0093 22.972 40.1613 23.308C40.3213 23.644 40.5573 23.9 40.8693 24.076C41.1813 24.244 41.5533 24.328 41.9853 24.328C42.3293 24.328 42.6613 24.276 42.9813 24.172C43.3093 24.06 43.6173 23.88 43.9053 23.632L44.2413 24.316C43.9773 24.556 43.6413 24.748 43.2333 24.892C42.8253 25.036 42.4093 25.108 41.9853 25.108ZM47.58 25.108C47.18 25.108 46.82 25.032 46.5 24.88C46.188 24.72 45.94 24.504 45.756 24.232C45.572 23.96 45.48 23.656 45.48 23.32C45.48 22.888 45.588 22.548 45.804 22.3C46.028 22.052 46.392 21.876 46.896 21.772C47.408 21.668 48.104 21.616 48.984 21.616H49.524V22.252H48.996C48.508 22.252 48.1 22.268 47.772 22.3C47.444 22.332 47.184 22.388 46.992 22.468C46.8 22.548 46.664 22.652 46.584 22.78C46.504 22.908 46.464 23.068 46.464 23.26C46.464 23.588 46.576 23.856 46.8 24.064C47.032 24.272 47.344 24.376 47.736 24.376C48.056 24.376 48.336 24.3 48.576 24.148C48.824 23.996 49.016 23.788 49.152 23.524C49.296 23.26 49.368 22.956 49.368 22.612V21.244C49.368 20.748 49.268 20.392 49.068 20.176C48.868 19.952 48.54 19.84 48.084 19.84C47.732 19.84 47.392 19.892 47.064 19.996C46.736 20.092 46.4 20.252 46.056 20.476L45.72 19.768C45.928 19.624 46.164 19.5 46.428 19.396C46.692 19.284 46.968 19.2 47.256 19.144C47.544 19.088 47.82 19.06 48.084 19.06C48.588 19.06 49.004 19.144 49.332 19.312C49.66 19.472 49.904 19.72 50.064 20.056C50.224 20.384 50.304 20.808 50.304 21.328V25H49.392V23.644H49.5C49.436 23.948 49.312 24.208 49.128 24.424C48.952 24.64 48.732 24.808 48.468 24.928C48.204 25.048 47.908 25.108 47.58 25.108ZM53.8953 25.108C53.3033 25.108 52.8553 24.932 52.5513 24.58C52.2553 24.228 52.1073 23.724 52.1073 23.068V16.54H53.0793V22.996C53.0793 23.276 53.1153 23.512 53.1873 23.704C53.2673 23.896 53.3833 24.04 53.5353 24.136C53.6873 24.232 53.8753 24.28 54.0993 24.28C54.1953 24.28 54.2873 24.276 54.3753 24.268C54.4713 24.252 54.5593 24.232 54.6393 24.208L54.6153 25.024C54.4873 25.048 54.3633 25.068 54.2433 25.084C54.1313 25.1 54.0153 25.108 53.8953 25.108ZM55.5381 17.716V16.624H56.7381V17.716H55.5381ZM55.6581 25V19.168H56.6301V25H55.6581ZM58.4472 25V19.168H59.3952V20.464H59.2632C59.4312 20 59.7032 19.652 60.0792 19.42C60.4632 19.18 60.9032 19.06 61.3992 19.06C61.8632 19.06 62.2472 19.144 62.5512 19.312C62.8632 19.472 63.0952 19.724 63.2472 20.068C63.3992 20.412 63.4752 20.844 63.4752 21.364V25H62.5032V21.424C62.5032 21.064 62.4552 20.768 62.3592 20.536C62.2712 20.304 62.1272 20.132 61.9272 20.02C61.7352 19.908 61.4832 19.852 61.1712 19.852C60.8192 19.852 60.5112 19.928 60.2472 20.08C59.9832 20.232 59.7792 20.444 59.6352 20.716C59.4912 20.988 59.4192 21.308 59.4192 21.676V25H58.4472ZM67.8475 27.268C67.3435 27.268 66.8675 27.2 66.4195 27.064C65.9795 26.936 65.5875 26.74 65.2435 26.476L65.5675 25.768C65.8075 25.936 66.0435 26.072 66.2755 26.176C66.5155 26.288 66.7595 26.368 67.0075 26.416C67.2635 26.464 67.5275 26.488 67.7995 26.488C68.3675 26.488 68.7955 26.336 69.0835 26.032C69.3795 25.728 69.5275 25.288 69.5275 24.712V23.356H69.6475C69.5275 23.82 69.2715 24.188 68.8795 24.46C68.4955 24.732 68.0435 24.868 67.5235 24.868C66.9875 24.868 66.5235 24.748 66.1315 24.508C65.7395 24.26 65.4355 23.916 65.2195 23.476C65.0115 23.036 64.9075 22.528 64.9075 21.952C64.9075 21.376 65.0115 20.872 65.2195 20.44C65.4355 20 65.7395 19.66 66.1315 19.42C66.5235 19.18 66.9875 19.06 67.5235 19.06C68.0515 19.06 68.5075 19.196 68.8915 19.468C69.2755 19.732 69.5235 20.092 69.6355 20.548H69.5275V19.168H70.4755V24.58C70.4755 25.172 70.3755 25.668 70.1755 26.068C69.9835 26.468 69.6915 26.768 69.2995 26.968C68.9075 27.168 68.4235 27.268 67.8475 27.268ZM67.7035 24.076C68.2635 24.076 68.7075 23.884 69.0355 23.5C69.3635 23.116 69.5275 22.6 69.5275 21.952C69.5275 21.304 69.3635 20.792 69.0355 20.416C68.7075 20.032 68.2635 19.84 67.7035 19.84C67.1515 19.84 66.7115 20.032 66.3835 20.416C66.0555 20.792 65.8915 21.304 65.8915 21.952C65.8915 22.6 66.0555 23.116 66.3835 23.5C66.7115 23.884 67.1515 24.076 67.7035 24.076ZM72.6467 26.368L72.1907 26.02C72.3347 25.868 72.4427 25.724 72.5147 25.588C72.5947 25.46 72.6467 25.328 72.6707 25.192C72.7027 25.064 72.7187 24.932 72.7187 24.796L72.9347 25H72.1427V23.776H73.3667V24.64C73.3667 24.856 73.3427 25.06 73.2947 25.252C73.2547 25.452 73.1827 25.644 73.0787 25.828C72.9747 26.012 72.8307 26.192 72.6467 26.368ZM78.2672 25V16.54H79.0952L82.5272 22.984H82.1672L85.5752 16.54H86.4032V25H85.4912V17.86H85.7792L82.6712 23.692H82.0232L78.8792 17.848H79.1672V25H78.2672ZM90.2128 25.108C89.8128 25.108 89.4528 25.032 89.1328 24.88C88.8208 24.72 88.5728 24.504 88.3888 24.232C88.2048 23.96 88.1128 23.656 88.1128 23.32C88.1128 22.888 88.2208 22.548 88.4368 22.3C88.6608 22.052 89.0248 21.876 89.5288 21.772C90.0408 21.668 90.7368 21.616 91.6168 21.616H92.1568V22.252H91.6288C91.1408 22.252 90.7328 22.268 90.4048 22.3C90.0768 22.332 89.8168 22.388 89.6248 22.468C89.4328 22.548 89.2968 22.652 89.2168 22.78C89.1368 22.908 89.0968 23.068 89.0968 23.26C89.0968 23.588 89.2088 23.856 89.4328 24.064C89.6648 24.272 89.9768 24.376 90.3688 24.376C90.6888 24.376 90.9688 24.3 91.2088 24.148C91.4568 23.996 91.6488 23.788 91.7848 23.524C91.9288 23.26 92.0008 22.956 92.0008 22.612V21.244C92.0008 20.748 91.9008 20.392 91.7008 20.176C91.5008 19.952 91.1728 19.84 90.7168 19.84C90.3648 19.84 90.0248 19.892 89.6968 19.996C89.3688 20.092 89.0328 20.252 88.6888 20.476L88.3528 19.768C88.5608 19.624 88.7968 19.5 89.0608 19.396C89.3248 19.284 89.6008 19.2 89.8888 19.144C90.1768 19.088 90.4528 19.06 90.7168 19.06C91.2208 19.06 91.6368 19.144 91.9648 19.312C92.2928 19.472 92.5368 19.72 92.6968 20.056C92.8568 20.384 92.9368 20.808 92.9368 21.328V25H92.0248V23.644H92.1328C92.0688 23.948 91.9448 24.208 91.7608 24.424C91.5848 24.64 91.3648 24.808 91.1008 24.928C90.8368 25.048 90.5408 25.108 90.2128 25.108ZM96.9601 25.108C96.4401 25.108 95.9841 24.984 95.5921 24.736C95.2081 24.488 94.9081 24.14 94.6921 23.692C94.4841 23.236 94.3801 22.7 94.3801 22.084C94.3801 21.46 94.4841 20.924 94.6921 20.476C94.9081 20.02 95.2081 19.672 95.5921 19.432C95.9841 19.184 96.4401 19.06 96.9601 19.06C97.4881 19.06 97.9401 19.192 98.3161 19.456C98.6921 19.72 98.9441 20.076 99.0721 20.524H98.9401V16.54H99.9121V25H98.9641V23.608H99.0841C98.9561 24.064 98.7001 24.428 98.3161 24.7C97.9401 24.972 97.4881 25.108 96.9601 25.108ZM97.1641 24.328C97.7161 24.328 98.1521 24.136 98.4721 23.752C98.8001 23.36 98.9641 22.804 98.9641 22.084C98.9641 21.356 98.8001 20.8 98.4721 20.416C98.1521 20.032 97.7161 19.84 97.1641 19.84C96.6201 19.84 96.1841 20.032 95.8561 20.416C95.5281 20.8 95.3641 21.356 95.3641 22.084C95.3641 22.804 95.5281 23.36 95.8561 23.752C96.1841 24.136 96.6201 24.328 97.1641 24.328ZM104.364 25.108C103.748 25.108 103.216 24.988 102.768 24.748C102.328 24.5 101.984 24.152 101.736 23.704C101.496 23.256 101.376 22.72 101.376 22.096C101.376 21.488 101.496 20.96 101.736 20.512C101.976 20.056 102.304 19.7 102.72 19.444C103.144 19.188 103.632 19.06 104.184 19.06C104.712 19.06 105.164 19.176 105.54 19.408C105.916 19.64 106.204 19.968 106.404 20.392C106.612 20.816 106.716 21.324 106.716 21.916V22.288H102.12V21.652H106.068L105.876 21.808C105.876 21.168 105.732 20.672 105.444 20.32C105.164 19.96 104.752 19.78 104.208 19.78C103.8 19.78 103.452 19.876 103.164 20.068C102.884 20.252 102.672 20.512 102.528 20.848C102.384 21.176 102.312 21.56 102.312 22V22.072C102.312 22.56 102.388 22.972 102.54 23.308C102.7 23.644 102.936 23.9 103.248 24.076C103.56 24.244 103.932 24.328 104.364 24.328C104.708 24.328 105.04 24.276 105.36 24.172C105.688 24.06 105.996 23.88 106.284 23.632L106.62 24.316C106.356 24.556 106.02 24.748 105.612 24.892C105.204 25.036 104.788 25.108 104.364 25.108ZM111.337 25V16.54H116.569V17.368H112.321V20.32H116.329V21.148H112.321V25H111.337ZM119.981 25.108C119.413 25.108 118.921 24.984 118.505 24.736C118.089 24.488 117.765 24.14 117.533 23.692C117.309 23.236 117.197 22.7 117.197 22.084C117.197 21.468 117.309 20.936 117.533 20.488C117.765 20.032 118.089 19.68 118.505 19.432C118.921 19.184 119.413 19.06 119.981 19.06C120.549 19.06 121.041 19.184 121.457 19.432C121.873 19.68 122.193 20.032 122.417 20.488C122.649 20.936 122.765 21.468 122.765 22.084C122.765 22.7 122.649 23.236 122.417 23.692C122.193 24.14 121.873 24.488 121.457 24.736C121.041 24.984 120.549 25.108 119.981 25.108ZM119.981 24.328C120.533 24.328 120.969 24.136 121.289 23.752C121.617 23.36 121.781 22.8 121.781 22.072C121.781 21.352 121.617 20.8 121.289 20.416C120.969 20.032 120.533 19.84 119.981 19.84C119.437 19.84 119.001 20.032 118.673 20.416C118.345 20.8 118.181 21.352 118.181 22.072C118.181 22.8 118.345 23.36 118.673 23.752C119.001 24.136 119.437 24.328 119.981 24.328ZM126.649 25.108C126.081 25.108 125.589 24.984 125.173 24.736C124.757 24.488 124.433 24.14 124.201 23.692C123.977 23.236 123.865 22.7 123.865 22.084C123.865 21.468 123.977 20.936 124.201 20.488C124.433 20.032 124.757 19.68 125.173 19.432C125.589 19.184 126.081 19.06 126.649 19.06C127.217 19.06 127.709 19.184 128.125 19.432C128.541 19.68 128.861 20.032 129.085 20.488C129.317 20.936 129.433 21.468 129.433 22.084C129.433 22.7 129.317 23.236 129.085 23.692C128.861 24.14 128.541 24.488 128.125 24.736C127.709 24.984 127.217 25.108 126.649 25.108ZM126.649 24.328C127.201 24.328 127.637 24.136 127.957 23.752C128.285 23.36 128.449 22.8 128.449 22.072C128.449 21.352 128.285 20.8 127.957 20.416C127.637 20.032 127.201 19.84 126.649 19.84C126.105 19.84 125.669 20.032 125.341 20.416C125.013 20.8 124.849 21.352 124.849 22.072C124.849 22.8 125.013 23.36 125.341 23.752C125.669 24.136 126.105 24.328 126.649 24.328ZM133.112 25.108C132.592 25.108 132.136 24.984 131.744 24.736C131.36 24.488 131.06 24.14 130.844 23.692C130.636 23.236 130.532 22.7 130.532 22.084C130.532 21.46 130.636 20.924 130.844 20.476C131.06 20.02 131.36 19.672 131.744 19.432C132.136 19.184 132.592 19.06 133.112 19.06C133.64 19.06 134.092 19.192 134.468 19.456C134.844 19.72 135.096 20.076 135.224 20.524H135.092V16.54H136.064V25H135.116V23.608H135.236C135.108 24.064 134.852 24.428 134.468 24.7C134.092 24.972 133.64 25.108 133.112 25.108ZM133.316 24.328C133.868 24.328 134.304 24.136 134.624 23.752C134.952 23.36 135.116 22.804 135.116 22.084C135.116 21.356 134.952 20.8 134.624 20.416C134.304 20.032 133.868 19.84 133.316 19.84C132.772 19.84 132.336 20.032 132.008 20.416C131.68 20.8 131.516 21.356 131.516 22.084C131.516 22.804 131.68 23.36 132.008 23.752C132.336 24.136 132.772 24.328 133.316 24.328ZM137.841 22.204V21.4H141.201V22.204H137.841ZM146.971 25.108C146.067 25.108 145.303 24.936 144.679 24.592C144.063 24.248 143.595 23.752 143.275 23.104C142.955 22.456 142.795 21.68 142.795 20.776C142.795 19.88 142.955 19.108 143.275 18.46C143.595 17.812 144.055 17.312 144.655 16.96C145.255 16.608 145.979 16.432 146.827 16.432C147.227 16.432 147.603 16.472 147.955 16.552C148.315 16.632 148.647 16.752 148.951 16.912C149.263 17.064 149.535 17.256 149.767 17.488L149.383 18.28C148.999 17.944 148.603 17.7 148.195 17.548C147.787 17.396 147.327 17.32 146.815 17.32C145.847 17.32 145.107 17.62 144.595 18.22C144.091 18.82 143.839 19.672 143.839 20.776C143.839 21.896 144.099 22.752 144.619 23.344C145.147 23.936 145.939 24.232 146.995 24.232C147.379 24.232 147.755 24.196 148.122 24.124C148.49 24.044 148.839 23.936 149.167 23.8L148.951 24.364V21.376H146.803V20.596H149.803V24.508C149.587 24.62 149.319 24.724 148.999 24.82C148.679 24.908 148.343 24.976 147.991 25.024C147.639 25.08 147.299 25.108 146.971 25.108ZM151.682 25V19.168H152.63V20.548H152.51C152.646 20.076 152.882 19.72 153.218 19.48C153.554 19.232 153.998 19.088 154.55 19.048L154.898 19.012L154.97 19.852L154.358 19.924C153.814 19.972 153.394 20.148 153.098 20.452C152.81 20.748 152.666 21.156 152.666 21.676V25H151.682ZM157.76 25.108C157.36 25.108 157 25.032 156.68 24.88C156.368 24.72 156.12 24.504 155.936 24.232C155.752 23.96 155.66 23.656 155.66 23.32C155.66 22.888 155.768 22.548 155.984 22.3C156.208 22.052 156.572 21.876 157.076 21.772C157.588 21.668 158.284 21.616 159.164 21.616H159.704V22.252H159.176C158.688 22.252 158.28 22.268 157.952 22.3C157.624 22.332 157.364 22.388 157.172 22.468C156.98 22.548 156.844 22.652 156.764 22.78C156.684 22.908 156.644 23.068 156.644 23.26C156.644 23.588 156.756 23.856 156.98 24.064C157.212 24.272 157.524 24.376 157.916 24.376C158.236 24.376 158.516 24.3 158.756 24.148C159.004 23.996 159.196 23.788 159.332 23.524C159.476 23.26 159.548 22.956 159.548 22.612V21.244C159.548 20.748 159.448 20.392 159.248 20.176C159.048 19.952 158.72 19.84 158.264 19.84C157.912 19.84 157.572 19.892 157.244 19.996C156.916 20.092 156.58 20.252 156.236 20.476L155.9 19.768C156.108 19.624 156.344 19.5 156.608 19.396C156.872 19.284 157.148 19.2 157.436 19.144C157.724 19.088 158 19.06 158.264 19.06C158.768 19.06 159.184 19.144 159.512 19.312C159.84 19.472 160.084 19.72 160.244 20.056C160.404 20.384 160.484 20.808 160.484 21.328V25H159.572V23.644H159.68C159.616 23.948 159.492 24.208 159.308 24.424C159.132 24.64 158.912 24.808 158.648 24.928C158.384 25.048 158.088 25.108 157.76 25.108ZM164.507 25.108C163.987 25.108 163.531 24.984 163.139 24.736C162.755 24.488 162.455 24.14 162.239 23.692C162.031 23.236 161.927 22.7 161.927 22.084C161.927 21.46 162.031 20.924 162.239 20.476C162.455 20.02 162.755 19.672 163.139 19.432C163.531 19.184 163.987 19.06 164.507 19.06C165.035 19.06 165.487 19.192 165.863 19.456C166.239 19.72 166.491 20.076 166.619 20.524H166.487V16.54H167.459V25H166.511V23.608H166.631C166.503 24.064 166.247 24.428 165.863 24.7C165.487 24.972 165.035 25.108 164.507 25.108ZM164.711 24.328C165.263 24.328 165.699 24.136 166.019 23.752C166.347 23.36 166.511 22.804 166.511 22.084C166.511 21.356 166.347 20.8 166.019 20.416C165.699 20.032 165.263 19.84 164.711 19.84C164.167 19.84 163.731 20.032 163.403 20.416C163.075 20.8 162.911 21.356 162.911 22.084C162.911 22.804 163.075 23.36 163.403 23.752C163.731 24.136 164.167 24.328 164.711 24.328ZM171.911 25.108C171.295 25.108 170.763 24.988 170.315 24.748C169.875 24.5 169.531 24.152 169.283 23.704C169.043 23.256 168.923 22.72 168.923 22.096C168.923 21.488 169.043 20.96 169.283 20.512C169.523 20.056 169.851 19.7 170.267 19.444C170.691 19.188 171.179 19.06 171.731 19.06C172.259 19.06 172.711 19.176 173.087 19.408C173.463 19.64 173.751 19.968 173.951 20.392C174.159 20.816 174.263 21.324 174.263 21.916V22.288H169.667V21.652H173.615L173.423 21.808C173.423 21.168 173.279 20.672 172.991 20.32C172.711 19.96 172.299 19.78 171.755 19.78C171.347 19.78 170.999 19.876 170.711 20.068C170.431 20.252 170.219 20.512 170.075 20.848C169.931 21.176 169.859 21.56 169.859 22V22.072C169.859 22.56 169.935 22.972 170.087 23.308C170.247 23.644 170.483 23.9 170.795 24.076C171.107 24.244 171.479 24.328 171.911 24.328C172.255 24.328 172.587 24.276 172.907 24.172C173.235 24.06 173.543 23.88 173.831 23.632L174.167 24.316C173.903 24.556 173.567 24.748 173.159 24.892C172.751 25.036 172.335 25.108 171.911 25.108ZM178.908 25V16.54H179.736L183.168 22.984H182.808L186.216 16.54H187.044V25H186.132V17.86H186.42L183.312 23.692H182.664L179.52 17.848H179.808V25H178.908ZM190.853 25.108C190.453 25.108 190.093 25.032 189.773 24.88C189.461 24.72 189.213 24.504 189.029 24.232C188.845 23.96 188.753 23.656 188.753 23.32C188.753 22.888 188.861 22.548 189.077 22.3C189.301 22.052 189.665 21.876 190.169 21.772C190.681 21.668 191.377 21.616 192.257 21.616H192.797V22.252H192.269C191.781 22.252 191.373 22.268 191.045 22.3C190.717 22.332 190.457 22.388 190.265 22.468C190.073 22.548 189.937 22.652 189.857 22.78C189.777 22.908 189.737 23.068 189.737 23.26C189.737 23.588 189.849 23.856 190.073 24.064C190.305 24.272 190.617 24.376 191.009 24.376C191.329 24.376 191.609 24.3 191.849 24.148C192.097 23.996 192.289 23.788 192.425 23.524C192.569 23.26 192.641 22.956 192.641 22.612V21.244C192.641 20.748 192.541 20.392 192.341 20.176C192.141 19.952 191.813 19.84 191.357 19.84C191.005 19.84 190.665 19.892 190.337 19.996C190.009 20.092 189.673 20.252 189.329 20.476L188.993 19.768C189.201 19.624 189.437 19.5 189.701 19.396C189.965 19.284 190.241 19.2 190.529 19.144C190.817 19.088 191.093 19.06 191.357 19.06C191.861 19.06 192.277 19.144 192.605 19.312C192.933 19.472 193.177 19.72 193.337 20.056C193.497 20.384 193.577 20.808 193.577 21.328V25H192.665V23.644H192.773C192.709 23.948 192.585 24.208 192.401 24.424C192.225 24.64 192.005 24.808 191.741 24.928C191.477 25.048 191.181 25.108 190.853 25.108ZM197.721 25.108C197.033 25.108 196.517 24.924 196.173 24.556C195.829 24.188 195.657 23.664 195.657 22.984V19.924H194.517V19.168H195.657V17.38H196.629V19.168H198.477V19.924H196.629V22.888C196.629 23.344 196.725 23.692 196.917 23.932C197.109 24.164 197.421 24.28 197.853 24.28C197.981 24.28 198.109 24.264 198.237 24.232C198.365 24.2 198.481 24.168 198.585 24.136L198.753 24.88C198.649 24.936 198.497 24.988 198.297 25.036C198.097 25.084 197.905 25.108 197.721 25.108ZM202.145 25.108C201.529 25.108 200.997 24.988 200.549 24.748C200.109 24.5 199.765 24.152 199.517 23.704C199.277 23.256 199.157 22.72 199.157 22.096C199.157 21.488 199.277 20.96 199.517 20.512C199.757 20.056 200.085 19.7 200.501 19.444C200.925 19.188 201.413 19.06 201.965 19.06C202.493 19.06 202.945 19.176 203.321 19.408C203.697 19.64 203.985 19.968 204.185 20.392C204.393 20.816 204.497 21.324 204.497 21.916V22.288H199.901V21.652H203.849L203.657 21.808C203.657 21.168 203.513 20.672 203.225 20.32C202.945 19.96 202.533 19.78 201.989 19.78C201.581 19.78 201.233 19.876 200.945 20.068C200.665 20.252 200.453 20.512 200.309 20.848C200.165 21.176 200.093 21.56 200.093 22V22.072C200.093 22.56 200.169 22.972 200.321 23.308C200.481 23.644 200.717 23.9 201.029 24.076C201.341 24.244 201.713 24.328 202.145 24.328C202.489 24.328 202.821 24.276 203.141 24.172C203.469 24.06 203.777 23.88 204.065 23.632L204.401 24.316C204.137 24.556 203.801 24.748 203.393 24.892C202.985 25.036 202.569 25.108 202.145 25.108ZM205.904 25V19.168H206.852V20.548H206.732C206.868 20.076 207.104 19.72 207.44 19.48C207.776 19.232 208.22 19.088 208.772 19.048L209.12 19.012L209.192 19.852L208.58 19.924C208.036 19.972 207.616 20.148 207.32 20.452C207.032 20.748 206.888 21.156 206.888 21.676V25H205.904ZM210.085 17.716V16.624H211.285V17.716H210.085ZM210.205 25V19.168H211.177V25H210.205ZM214.83 25.108C214.43 25.108 214.07 25.032 213.75 24.88C213.438 24.72 213.19 24.504 213.006 24.232C212.822 23.96 212.73 23.656 212.73 23.32C212.73 22.888 212.838 22.548 213.054 22.3C213.278 22.052 213.642 21.876 214.146 21.772C214.658 21.668 215.354 21.616 216.234 21.616H216.774V22.252H216.246C215.758 22.252 215.35 22.268 215.022 22.3C214.694 22.332 214.434 22.388 214.242 22.468C214.05 22.548 213.914 22.652 213.834 22.78C213.754 22.908 213.714 23.068 213.714 23.26C213.714 23.588 213.826 23.856 214.05 24.064C214.282 24.272 214.594 24.376 214.986 24.376C215.306 24.376 215.586 24.3 215.826 24.148C216.074 23.996 216.266 23.788 216.402 23.524C216.546 23.26 216.618 22.956 216.618 22.612V21.244C216.618 20.748 216.518 20.392 216.318 20.176C216.118 19.952 215.79 19.84 215.334 19.84C214.982 19.84 214.642 19.892 214.314 19.996C213.986 20.092 213.65 20.252 213.306 20.476L212.97 19.768C213.178 19.624 213.414 19.5 213.678 19.396C213.942 19.284 214.218 19.2 214.506 19.144C214.794 19.088 215.07 19.06 215.334 19.06C215.838 19.06 216.254 19.144 216.582 19.312C216.91 19.472 217.154 19.72 217.314 20.056C217.474 20.384 217.554 20.808 217.554 21.328V25H216.642V23.644H216.75C216.686 23.948 216.562 24.208 216.378 24.424C216.202 24.64 215.982 24.808 215.718 24.928C215.454 25.048 215.158 25.108 214.83 25.108ZM221.145 25.108C220.553 25.108 220.105 24.932 219.801 24.58C219.505 24.228 219.357 23.724 219.357 23.068V16.54H220.329V22.996C220.329 23.276 220.365 23.512 220.437 23.704C220.517 23.896 220.633 24.04 220.785 24.136C220.937 24.232 221.125 24.28 221.349 24.28C221.445 24.28 221.537 24.276 221.625 24.268C221.721 24.252 221.809 24.232 221.889 24.208L221.865 25.024C221.737 25.048 221.613 25.068 221.493 25.084C221.381 25.1 221.265 25.108 221.145 25.108ZM223.373 26.368L222.917 26.02C223.061 25.868 223.169 25.724 223.241 25.588C223.321 25.46 223.373 25.328 223.397 25.192C223.429 25.064 223.445 24.932 223.445 24.796L223.661 25H222.869V23.776H224.093V24.64C224.093 24.856 224.069 25.06 224.021 25.252C223.981 25.452 223.909 25.644 223.805 25.828C223.701 26.012 223.557 26.192 223.373 26.368ZM228.97 25V16.54H229.954V25H228.97ZM234.128 25.108C233.608 25.108 233.152 24.984 232.76 24.736C232.376 24.488 232.076 24.14 231.86 23.692C231.652 23.236 231.548 22.7 231.548 22.084C231.548 21.46 231.652 20.924 231.86 20.476C232.076 20.02 232.376 19.672 232.76 19.432C233.152 19.184 233.608 19.06 234.128 19.06C234.656 19.06 235.108 19.192 235.484 19.456C235.86 19.72 236.112 20.076 236.24 20.524H236.108V16.54H237.08V25H236.132V23.608H236.252C236.124 24.064 235.868 24.428 235.484 24.7C235.108 24.972 234.656 25.108 234.128 25.108ZM234.332 24.328C234.884 24.328 235.32 24.136 235.64 23.752C235.968 23.36 236.132 22.804 236.132 22.084C236.132 21.356 235.968 20.8 235.64 20.416C235.32 20.032 234.884 19.84 234.332 19.84C233.788 19.84 233.352 20.032 233.024 20.416C232.696 20.8 232.532 21.356 232.532 22.084C232.532 22.804 232.696 23.36 233.024 23.752C233.352 24.136 233.788 24.328 234.332 24.328ZM241.532 25.108C240.916 25.108 240.384 24.988 239.936 24.748C239.496 24.5 239.152 24.152 238.904 23.704C238.664 23.256 238.544 22.72 238.544 22.096C238.544 21.488 238.664 20.96 238.904 20.512C239.144 20.056 239.472 19.7 239.888 19.444C240.312 19.188 240.8 19.06 241.352 19.06C241.88 19.06 242.332 19.176 242.708 19.408C243.084 19.64 243.372 19.968 243.572 20.392C243.78 20.816 243.884 21.324 243.884 21.916V22.288H239.288V21.652H243.236L243.044 21.808C243.044 21.168 242.9 20.672 242.612 20.32C242.332 19.96 241.92 19.78 241.376 19.78C240.968 19.78 240.62 19.876 240.332 20.068C240.052 20.252 239.84 20.512 239.696 20.848C239.552 21.176 239.48 21.56 239.48 22V22.072C239.48 22.56 239.556 22.972 239.708 23.308C239.868 23.644 240.104 23.9 240.416 24.076C240.728 24.244 241.1 24.328 241.532 24.328C241.876 24.328 242.208 24.276 242.528 24.172C242.856 24.06 243.164 23.88 243.452 23.632L243.788 24.316C243.524 24.556 243.188 24.748 242.78 24.892C242.372 25.036 241.956 25.108 241.532 25.108ZM247.127 25.108C246.727 25.108 246.367 25.032 246.047 24.88C245.735 24.72 245.487 24.504 245.303 24.232C245.119 23.96 245.027 23.656 245.027 23.32C245.027 22.888 245.135 22.548 245.351 22.3C245.575 22.052 245.939 21.876 246.443 21.772C246.955 21.668 247.651 21.616 248.531 21.616H249.071V22.252H248.543C248.055 22.252 247.647 22.268 247.319 22.3C246.991 22.332 246.731 22.388 246.539 22.468C246.347 22.548 246.211 22.652 246.131 22.78C246.051 22.908 246.011 23.068 246.011 23.26C246.011 23.588 246.123 23.856 246.347 24.064C246.579 24.272 246.891 24.376 247.283 24.376C247.603 24.376 247.883 24.3 248.123 24.148C248.371 23.996 248.563 23.788 248.699 23.524C248.843 23.26 248.915 22.956 248.915 22.612V21.244C248.915 20.748 248.815 20.392 248.615 20.176C248.415 19.952 248.087 19.84 247.631 19.84C247.279 19.84 246.939 19.892 246.611 19.996C246.283 20.092 245.947 20.252 245.603 20.476L245.267 19.768C245.475 19.624 245.711 19.5 245.975 19.396C246.239 19.284 246.515 19.2 246.803 19.144C247.091 19.088 247.367 19.06 247.631 19.06C248.135 19.06 248.551 19.144 248.879 19.312C249.207 19.472 249.451 19.72 249.611 20.056C249.771 20.384 249.851 20.808 249.851 21.328V25H248.939V23.644H249.047C248.983 23.948 248.859 24.208 248.675 24.424C248.499 24.64 248.279 24.808 248.015 24.928C247.751 25.048 247.455 25.108 247.127 25.108ZM253.442 25.108C252.85 25.108 252.402 24.932 252.098 24.58C251.802 24.228 251.654 23.724 251.654 23.068V16.54H252.626V22.996C252.626 23.276 252.662 23.512 252.734 23.704C252.814 23.896 252.93 24.04 253.082 24.136C253.234 24.232 253.422 24.28 253.646 24.28C253.742 24.28 253.834 24.276 253.922 24.268C254.018 24.252 254.106 24.232 254.186 24.208L254.162 25.024C254.034 25.048 253.91 25.068 253.79 25.084C253.678 25.1 253.562 25.108 253.442 25.108ZM258.419 25V16.54H263.651V17.368H259.403V20.32H263.411V21.148H259.403V25H258.419ZM267.063 25.108C266.495 25.108 266.003 24.984 265.587 24.736C265.171 24.488 264.847 24.14 264.615 23.692C264.391 23.236 264.279 22.7 264.279 22.084C264.279 21.468 264.391 20.936 264.615 20.488C264.847 20.032 265.171 19.68 265.587 19.432C266.003 19.184 266.495 19.06 267.063 19.06C267.631 19.06 268.123 19.184 268.539 19.432C268.955 19.68 269.275 20.032 269.499 20.488C269.731 20.936 269.847 21.468 269.847 22.084C269.847 22.7 269.731 23.236 269.499 23.692C269.275 24.14 268.955 24.488 268.539 24.736C268.123 24.984 267.631 25.108 267.063 25.108ZM267.063 24.328C267.615 24.328 268.051 24.136 268.371 23.752C268.699 23.36 268.863 22.8 268.863 22.072C268.863 21.352 268.699 20.8 268.371 20.416C268.051 20.032 267.615 19.84 267.063 19.84C266.519 19.84 266.083 20.032 265.755 20.416C265.427 20.8 265.263 21.352 265.263 22.072C265.263 22.8 265.427 23.36 265.755 23.752C266.083 24.136 266.519 24.328 267.063 24.328ZM271.307 25V19.168H272.255V20.548H272.135C272.271 20.076 272.507 19.72 272.843 19.48C273.179 19.232 273.623 19.088 274.175 19.048L274.523 19.012L274.595 19.852L273.983 19.924C273.439 19.972 273.019 20.148 272.723 20.452C272.435 20.748 272.291 21.156 272.291 21.676V25H271.307ZM281.557 25.108C281.117 25.108 280.701 25.068 280.309 24.988C279.925 24.908 279.569 24.796 279.241 24.652C278.921 24.5 278.629 24.316 278.365 24.1L278.713 23.308C278.985 23.508 279.261 23.68 279.541 23.824C279.829 23.96 280.137 24.064 280.465 24.136C280.801 24.2 281.165 24.232 281.557 24.232C282.277 24.232 282.809 24.1 283.153 23.836C283.505 23.564 283.681 23.208 283.681 22.768C283.681 22.536 283.625 22.336 283.513 22.168C283.409 22 283.233 21.856 282.985 21.736C282.745 21.616 282.429 21.516 282.037 21.436L280.789 21.184C280.037 21.024 279.473 20.764 279.097 20.404C278.729 20.036 278.545 19.548 278.545 18.94C278.545 18.436 278.673 17.996 278.929 17.62C279.193 17.244 279.557 16.952 280.021 16.744C280.493 16.536 281.029 16.432 281.629 16.432C282.013 16.432 282.377 16.472 282.721 16.552C283.065 16.632 283.381 16.752 283.669 16.912C283.965 17.064 284.225 17.252 284.449 17.476L284.101 18.244C283.741 17.916 283.361 17.68 282.961 17.536C282.561 17.384 282.113 17.308 281.617 17.308C281.193 17.308 280.825 17.372 280.513 17.5C280.209 17.628 279.969 17.816 279.793 18.064C279.625 18.304 279.541 18.584 279.541 18.904C279.541 19.288 279.657 19.592 279.889 19.816C280.129 20.04 280.517 20.204 281.053 20.308L282.301 20.572C283.109 20.74 283.705 20.996 284.089 21.34C284.481 21.676 284.677 22.136 284.677 22.72C284.677 23.184 284.549 23.6 284.293 23.968C284.045 24.328 283.685 24.608 283.213 24.808C282.749 25.008 282.197 25.108 281.557 25.108ZM288.7 25.108C288.084 25.108 287.552 24.988 287.104 24.748C286.664 24.5 286.32 24.152 286.072 23.704C285.832 23.256 285.712 22.72 285.712 22.096C285.712 21.488 285.832 20.96 286.072 20.512C286.312 20.056 286.64 19.7 287.056 19.444C287.48 19.188 287.968 19.06 288.52 19.06C289.048 19.06 289.5 19.176 289.876 19.408C290.252 19.64 290.54 19.968 290.74 20.392C290.948 20.816 291.052 21.324 291.052 21.916V22.288H286.456V21.652H290.404L290.212 21.808C290.212 21.168 290.068 20.672 289.78 20.32C289.5 19.96 289.088 19.78 288.544 19.78C288.136 19.78 287.788 19.876 287.5 20.068C287.22 20.252 287.008 20.512 286.864 20.848C286.72 21.176 286.648 21.56 286.648 22V22.072C286.648 22.56 286.724 22.972 286.876 23.308C287.036 23.644 287.272 23.9 287.584 24.076C287.896 24.244 288.268 24.328 288.7 24.328C289.044 24.328 289.376 24.276 289.696 24.172C290.024 24.06 290.332 23.88 290.62 23.632L290.956 24.316C290.692 24.556 290.356 24.748 289.948 24.892C289.54 25.036 289.124 25.108 288.7 25.108ZM292.459 25V19.168H293.407V20.548H293.287C293.423 20.076 293.659 19.72 293.995 19.48C294.331 19.232 294.775 19.088 295.327 19.048L295.675 19.012L295.747 19.852L295.135 19.924C294.591 19.972 294.171 20.148 293.875 20.452C293.587 20.748 293.443 21.156 293.443 21.676V25H292.459ZM298.839 25L296.331 19.168H297.387L299.475 24.28H299.151L301.275 19.168H302.271L299.751 25H298.839ZM303.179 17.716V16.624H304.379V17.716H303.179ZM303.299 25V19.168H304.271V25H303.299ZM306.088 25V19.168H307.036V20.464H306.904C307.072 20 307.344 19.652 307.72 19.42C308.104 19.18 308.544 19.06 309.04 19.06C309.504 19.06 309.888 19.144 310.192 19.312C310.504 19.472 310.736 19.724 310.888 20.068C311.04 20.412 311.116 20.844 311.116 21.364V25H310.144V21.424C310.144 21.064 310.096 20.768 310 20.536C309.912 20.304 309.768 20.132 309.568 20.02C309.376 19.908 309.124 19.852 308.812 19.852C308.46 19.852 308.152 19.928 307.888 20.08C307.624 20.232 307.42 20.444 307.276 20.716C307.132 20.988 307.06 21.308 307.06 21.676V25H306.088ZM315.488 27.268C314.984 27.268 314.508 27.2 314.06 27.064C313.62 26.936 313.228 26.74 312.884 26.476L313.208 25.768C313.448 25.936 313.684 26.072 313.916 26.176C314.156 26.288 314.4 26.368 314.648 26.416C314.904 26.464 315.168 26.488 315.44 26.488C316.008 26.488 316.436 26.336 316.724 26.032C317.02 25.728 317.168 25.288 317.168 24.712V23.356H317.288C317.168 23.82 316.912 24.188 316.52 24.46C316.136 24.732 315.684 24.868 315.164 24.868C314.628 24.868 314.164 24.748 313.772 24.508C313.38 24.26 313.076 23.916 312.86 23.476C312.652 23.036 312.548 22.528 312.548 21.952C312.548 21.376 312.652 20.872 312.86 20.44C313.076 20 313.38 19.66 313.772 19.42C314.164 19.18 314.628 19.06 315.164 19.06C315.692 19.06 316.148 19.196 316.532 19.468C316.916 19.732 317.164 20.092 317.276 20.548H317.168V19.168H318.116V24.58C318.116 25.172 318.016 25.668 317.816 26.068C317.624 26.468 317.332 26.768 316.94 26.968C316.548 27.168 316.064 27.268 315.488 27.268ZM315.344 24.076C315.904 24.076 316.348 23.884 316.676 23.5C317.004 23.116 317.168 22.6 317.168 21.952C317.168 21.304 317.004 20.792 316.676 20.416C316.348 20.032 315.904 19.84 315.344 19.84C314.792 19.84 314.352 20.032 314.024 20.416C313.696 20.792 313.532 21.304 313.532 21.952C313.532 22.6 313.696 23.116 314.024 23.5C314.352 23.884 314.792 24.076 315.344 24.076ZM322.061 25.084L321.989 24.256L322.709 24.208C322.989 24.184 323.221 24.116 323.405 24.004C323.589 23.884 323.729 23.716 323.825 23.5C323.921 23.284 323.969 23.032 323.969 22.744V16.54H324.953V22.756C324.953 23.212 324.873 23.608 324.713 23.944C324.553 24.272 324.317 24.528 324.005 24.712C323.693 24.896 323.305 25.004 322.841 25.036L322.061 25.084ZM328.976 25.108C328.504 25.108 328.112 25.024 327.8 24.856C327.496 24.68 327.264 24.42 327.104 24.076C326.952 23.732 326.876 23.304 326.876 22.792V19.168H327.848V22.78C327.848 23.124 327.892 23.412 327.98 23.644C328.076 23.868 328.224 24.036 328.424 24.148C328.624 24.252 328.872 24.304 329.168 24.304C329.504 24.304 329.796 24.228 330.044 24.076C330.292 23.924 330.488 23.712 330.632 23.44C330.776 23.168 330.848 22.848 330.848 22.48V19.168H331.82V25H330.872V23.656H331.028C330.868 24.128 330.604 24.488 330.236 24.736C329.876 24.984 329.456 25.108 328.976 25.108ZM333.519 17.716V16.624H334.719V17.716H333.519ZM333.639 25V19.168H334.611V25H333.639ZM338.9 25.108C338.316 25.108 337.812 24.98 337.388 24.724C336.964 24.468 336.636 24.112 336.404 23.656C336.18 23.192 336.068 22.656 336.068 22.048C336.068 21.432 336.18 20.9 336.404 20.452C336.636 20.004 336.964 19.66 337.388 19.42C337.812 19.18 338.316 19.06 338.9 19.06C339.26 19.06 339.616 19.124 339.968 19.252C340.32 19.38 340.612 19.56 340.844 19.792L340.508 20.5C340.276 20.276 340.02 20.112 339.74 20.008C339.468 19.904 339.208 19.852 338.96 19.852C338.352 19.852 337.884 20.044 337.556 20.428C337.228 20.804 337.064 21.348 337.064 22.06C337.064 22.756 337.228 23.308 337.556 23.716C337.884 24.116 338.352 24.316 338.96 24.316C339.208 24.316 339.468 24.264 339.74 24.16C340.02 24.056 340.276 23.888 340.508 23.656L340.844 24.364C340.612 24.596 340.316 24.78 339.956 24.916C339.604 25.044 339.252 25.108 338.9 25.108ZM344.493 25.108C343.877 25.108 343.345 24.988 342.897 24.748C342.457 24.5 342.113 24.152 341.865 23.704C341.625 23.256 341.505 22.72 341.505 22.096C341.505 21.488 341.625 20.96 341.865 20.512C342.105 20.056 342.433 19.7 342.849 19.444C343.273 19.188 343.761 19.06 344.313 19.06C344.841 19.06 345.293 19.176 345.669 19.408C346.045 19.64 346.333 19.968 346.533 20.392C346.741 20.816 346.845 21.324 346.845 21.916V22.288H342.249V21.652H346.197L346.005 21.808C346.005 21.168 345.861 20.672 345.573 20.32C345.293 19.96 344.881 19.78 344.337 19.78C343.929 19.78 343.581 19.876 343.293 20.068C343.013 20.252 342.801 20.512 342.657 20.848C342.513 21.176 342.441 21.56 342.441 22V22.072C342.441 22.56 342.517 22.972 342.669 23.308C342.829 23.644 343.065 23.9 343.377 24.076C343.689 24.244 344.061 24.328 344.493 24.328C344.837 24.328 345.169 24.276 345.489 24.172C345.817 24.06 346.125 23.88 346.413 23.632L346.749 24.316C346.485 24.556 346.149 24.748 345.741 24.892C345.333 25.036 344.917 25.108 344.493 25.108ZM350.22 25.108C349.916 25.108 349.62 25.076 349.332 25.012C349.052 24.956 348.788 24.876 348.54 24.772C348.3 24.66 348.092 24.528 347.916 24.376L348.228 23.692C348.42 23.844 348.628 23.972 348.852 24.076C349.076 24.172 349.304 24.244 349.536 24.292C349.768 24.34 350.004 24.364 350.244 24.364C350.7 24.364 351.044 24.28 351.276 24.112C351.508 23.944 351.624 23.716 351.624 23.428C351.624 23.204 351.548 23.028 351.396 22.9C351.244 22.764 351.004 22.66 350.676 22.588L349.584 22.348C349.08 22.244 348.704 22.064 348.456 21.808C348.216 21.552 348.096 21.22 348.096 20.812C348.096 20.452 348.188 20.144 348.372 19.888C348.564 19.624 348.832 19.42 349.176 19.276C349.52 19.132 349.92 19.06 350.376 19.06C350.648 19.06 350.908 19.088 351.156 19.144C351.404 19.2 351.636 19.284 351.852 19.396C352.076 19.5 352.268 19.632 352.428 19.792L352.104 20.476C351.952 20.332 351.78 20.212 351.588 20.116C351.396 20.012 351.196 19.936 350.988 19.888C350.788 19.832 350.584 19.804 350.376 19.804C349.928 19.804 349.588 19.892 349.356 20.068C349.124 20.244 349.008 20.476 349.008 20.764C349.008 20.988 349.08 21.172 349.224 21.316C349.368 21.46 349.592 21.564 349.896 21.628L350.988 21.856C351.508 21.968 351.896 22.148 352.152 22.396C352.416 22.636 352.548 22.964 352.548 23.38C352.548 23.732 352.452 24.04 352.26 24.304C352.068 24.56 351.796 24.76 351.444 24.904C351.1 25.04 350.692 25.108 350.22 25.108ZM353.815 25V23.776H355.039V25H353.815Z" fill="black"/>
</svg>
