<svg width="90" height="83" viewBox="0 0 90 83" fill="none" xmlns="http://www.w3.org/2000/svg">
<g filter="url(#filter0_d_535_523)">
<rect x="4" y="25" width="82" height="50" rx="2" fill="white"/>
<rect x="4.25" y="25.25" width="81.5" height="49.5" rx="1.75" stroke="white" stroke-width="0.5"/>
</g>
<rect x="27.5454" width="28.0303" height="30.1991" rx="3" fill="#CB3335"/>
<g clip-path="url(#clip0_535_523)">
<path fill-rule="evenodd" clip-rule="evenodd" d="M33.4958 10.6619C33.5479 10.6827 33.6089 10.7293 33.6316 10.7656C33.6653 10.8194 33.6727 11.2895 33.6724 15.8027L33.5973 15.8853C33.5448 15.9428 33.4887 15.9679 33.4133 15.9679C33.3382 15.9679 33.2809 15.9424 33.1512 15.8027V13.3255C33.1512 11.74 33.1622 10.8244 33.1818 10.7821C33.1987 10.7458 33.2551 10.6956 33.3069 10.6702C33.3808 10.6345 33.4219 10.6328 33.4958 10.6619ZM48.6716 10.6619C48.7237 10.6827 48.7847 10.7293 48.8074 10.7656C48.8411 10.8194 48.8485 11.2895 48.8482 15.8027L48.773 15.8853C48.7206 15.9428 48.6645 15.9679 48.5891 15.9679C48.514 15.9679 48.4567 15.9424 48.327 15.8027V13.3255C48.327 11.74 48.338 10.8244 48.3576 10.7821C48.3745 10.7458 48.4309 10.6956 48.4827 10.6702C48.5566 10.6345 48.5977 10.6328 48.6716 10.6619ZM48.7001 16.8432L48.8482 17.0249V18.792C48.8482 19.9041 48.8368 20.5835 48.8175 20.6252C48.8006 20.6615 48.7387 20.7137 48.6795 20.7408C48.5851 20.7844 47.6626 20.7903 40.9997 20.7903C34.3367 20.7903 33.4142 20.7844 33.3198 20.7408C33.2606 20.7137 33.1987 20.6615 33.1818 20.6252C33.1625 20.5835 33.1512 19.9061 33.1509 18.8002C33.1509 17.2369 33.1561 17.0328 33.1999 16.9647C33.2272 16.9225 33.279 16.8752 33.3152 16.8594C33.352 16.8432 36.7667 16.8333 48.7001 16.8432ZM33.6877 20.2123H48.3116L48.3165 17.3882H47.5299C47.5283 17.9388 47.5139 18.0861 47.4906 18.1208C47.4701 18.1515 47.4118 18.1935 47.3612 18.2143C47.287 18.245 47.2499 18.242 47.1696 18.2001C47.1043 18.1657 47.0593 18.1109 47.0387 18.0405C47.0215 17.9814 47.0077 17.8106 47.0081 17.6607L47.0087 17.3882H45.9663C45.9663 18.5981 45.9648 18.612 45.8924 18.7011C45.8369 18.7692 45.7903 18.792 45.7057 18.792C45.6211 18.792 45.5745 18.7692 45.519 18.7011C45.4466 18.612 45.4451 18.5981 45.4451 17.9992V17.3882H44.4027C44.3883 18.0419 44.3797 18.0884 44.319 18.1535C44.2746 18.2014 44.212 18.2278 44.1403 18.2288C44.0566 18.2301 44.0112 18.208 43.9554 18.1396C43.888 18.0567 43.8815 18.0204 43.8815 17.7185V17.3882H42.8392C42.8392 18.3755 42.8281 18.5393 42.7932 18.6268C42.7656 18.6965 42.7138 18.7563 42.6629 18.7774C42.6166 18.7966 42.5476 18.8039 42.5096 18.794C42.4716 18.7837 42.4127 18.7421 42.3787 18.7011C42.321 18.6321 42.3167 18.5829 42.3174 18.0075L42.318 17.3882H41.2756C41.2753 17.7849 41.2615 17.956 41.2446 18.024C41.2219 18.1168 41.1873 18.1624 41.107 18.2057C41.0049 18.2608 40.9945 18.2608 40.8924 18.2057C40.812 18.1624 40.7774 18.1168 40.7547 18.024C40.7379 17.956 40.7241 17.7849 40.7241 17.6442L40.7237 17.3882H39.6814C39.6798 18.4422 39.6682 18.6423 39.6421 18.6793C39.6216 18.7081 39.5738 18.749 39.5357 18.7702C39.4977 18.7913 39.4254 18.8012 39.3748 18.792C39.3135 18.781 39.2624 18.7397 39.2215 18.6681C39.1666 18.5713 39.1605 18.5023 39.1602 17.9745V17.3882H38.1178C38.1178 18.0204 38.1114 18.0567 38.0439 18.1396C37.989 18.2067 37.9412 18.2305 37.8606 18.2305C37.788 18.2305 37.7284 18.2054 37.6818 18.1551C37.6193 18.0881 37.611 18.0442 37.6043 17.734L37.5966 17.3882H36.5542C36.5392 18.6133 36.5358 18.645 36.4705 18.715C36.4261 18.7629 36.3635 18.7893 36.2918 18.7903C36.2081 18.7916 36.1627 18.7695 36.1069 18.7011C36.0346 18.612 36.0331 18.5981 36.0331 17.9992V17.3882H34.9907C34.9916 17.8106 34.9778 17.9814 34.9606 18.0405C34.9401 18.1109 34.895 18.1657 34.8297 18.2001C34.7494 18.242 34.7123 18.245 34.6381 18.2143C34.5875 18.1935 34.5293 18.1515 34.5087 18.1208C34.4854 18.0861 34.471 17.9388 34.4704 17.7267L34.4695 17.3882H33.6718L33.6877 20.2123ZM35.6535 11.4758C35.6937 11.4758 35.7645 11.5118 35.8951 11.635L35.9104 13.1603H46.0889L46.1043 11.635L46.1886 11.5554C46.2349 11.5118 46.3038 11.4751 46.3419 11.4744C46.3799 11.4734 46.4412 11.4995 46.478 11.5322C46.5151 11.5646 46.8223 11.9778 47.1607 12.4502C47.4995 12.9225 47.7846 13.3463 47.7947 13.3915C47.8055 13.4391 47.7932 13.516 47.7659 13.5732C47.7399 13.6277 47.4885 13.992 47.2076 14.3824C46.9265 14.7732 46.6426 15.1633 46.5767 15.2495C46.4823 15.373 46.4372 15.4064 46.3648 15.4064C46.3143 15.4064 46.2453 15.3915 46.2116 15.3733C46.1778 15.3552 46.1361 15.2921 46.119 15.233C46.1018 15.1738 46.088 14.8098 46.0889 13.7218H35.9104L35.911 14.4237C35.911 14.8098 35.8972 15.1738 35.8804 15.233C35.8632 15.2921 35.8215 15.3552 35.7878 15.3733C35.7541 15.3915 35.6851 15.4064 35.6345 15.4064C35.5621 15.4064 35.5171 15.373 35.4226 15.2495C35.3564 15.1633 35.0725 14.7732 34.7917 14.3824C34.5106 13.992 34.2595 13.6277 34.2334 13.5732C34.2061 13.516 34.1939 13.4391 34.2046 13.3915C34.2147 13.3463 34.4998 12.9225 34.8383 12.4502C35.1768 11.9778 35.4824 11.5653 35.5174 11.5336C35.552 11.5019 35.6133 11.4758 35.6535 11.4758ZM34.8064 13.5071C34.8285 13.5435 34.9649 13.7387 35.1099 13.9411C35.2553 14.1436 35.3843 14.3035 35.3969 14.2962C35.4095 14.2893 35.4199 13.9045 35.4199 13.4411C35.4199 12.9753 35.4076 12.5988 35.3926 12.5988C35.3779 12.5988 35.231 12.7884 35.0661 13.0199C34.7957 13.4008 34.7705 13.4473 34.8064 13.5071ZM46.6024 14.2962C46.615 14.3035 46.7441 14.1436 46.8891 13.9411C47.0341 13.7387 47.1708 13.5435 47.1926 13.5071C47.2285 13.4473 47.2033 13.4008 46.929 13.0186C46.7619 12.7861 46.615 12.5965 46.6024 12.5975C46.5899 12.5981 46.5795 12.978 46.5795 13.4411C46.5795 13.9045 46.5899 14.2893 46.6024 14.2962Z" fill="white"/>
</g>
<path d="M22.332 45.5754V39.9354H24.308C24.9107 39.9354 25.4227 40.0448 25.844 40.2634C26.2653 40.4821 26.5853 40.8021 26.804 41.2234C27.028 41.6394 27.14 42.1488 27.14 42.7514C27.14 43.3541 27.028 43.8661 26.804 44.2874C26.5853 44.7088 26.2653 45.0288 25.844 45.2474C25.4227 45.4661 24.9107 45.5754 24.308 45.5754H22.332ZM23.044 44.9514H24.268C24.9667 44.9514 25.4947 44.7701 25.852 44.4074C26.2147 44.0448 26.396 43.4928 26.396 42.7514C26.396 42.0101 26.2147 41.4608 25.852 41.1034C25.4947 40.7408 24.9667 40.5594 24.268 40.5594H23.044V44.9514ZM28.3742 40.6714V39.8794H29.2382V40.6714H28.3742ZM28.4542 45.5754V41.6234H29.1662V45.5754H28.4542ZM30.603 45.5754V41.6234H31.259V42.4874C31.3283 42.3114 31.4243 42.1541 31.547 42.0154C31.675 41.8714 31.827 41.7594 32.003 41.6794C32.1843 41.5941 32.3817 41.5514 32.595 41.5514C32.9417 41.5514 33.227 41.6368 33.451 41.8074C33.675 41.9781 33.8137 42.2021 33.867 42.4794H33.859C33.9657 42.2181 34.1337 41.9994 34.363 41.8234C34.5977 41.6421 34.891 41.5514 35.243 41.5514C35.5417 41.5514 35.795 41.6101 36.003 41.7274C36.211 41.8394 36.3683 42.0128 36.475 42.2474C36.5817 42.4821 36.635 42.7781 36.635 43.1354V45.5754H35.931V43.1834C35.931 42.8421 35.8697 42.5861 35.747 42.4154C35.6243 42.2448 35.4057 42.1594 35.091 42.1594C34.8563 42.1594 34.6537 42.2128 34.483 42.3194C34.3177 42.4208 34.1897 42.5648 34.099 42.7514C34.0137 42.9328 33.971 43.1381 33.971 43.3674V45.5754H33.267V43.1834C33.267 42.8474 33.1977 42.5941 33.059 42.4234C32.9203 42.2474 32.7097 42.1594 32.427 42.1594C32.1977 42.1594 31.9977 42.2181 31.827 42.3354C31.6617 42.4474 31.5337 42.5941 31.443 42.7754C31.3523 42.9568 31.307 43.1488 31.307 43.3514V45.5754H30.603ZM39.9676 45.6474C39.5249 45.6474 39.1409 45.5674 38.8156 45.4074C38.4956 45.2421 38.2502 45.0074 38.0796 44.7034C37.9089 44.3941 37.8236 44.0261 37.8236 43.5994C37.8236 43.1994 37.9036 42.8474 38.0636 42.5434C38.2236 42.2341 38.4502 41.9914 38.7436 41.8154C39.0369 41.6394 39.3862 41.5514 39.7916 41.5514C40.1756 41.5514 40.5009 41.6341 40.7676 41.7994C41.0396 41.9648 41.2449 42.1968 41.3836 42.4954C41.5276 42.7941 41.5996 43.1488 41.5996 43.5594V43.7914H38.3596V43.2954H41.1356L40.9836 43.4554C40.9836 43.0181 40.8796 42.6821 40.6716 42.4474C40.4689 42.2128 40.1756 42.0954 39.7916 42.0954C39.5409 42.0954 39.3169 42.1541 39.1196 42.2714C38.9276 42.3834 38.7782 42.5434 38.6716 42.7514C38.5649 42.9594 38.5116 43.2128 38.5116 43.5114V43.5914C38.5116 43.9114 38.5702 44.1808 38.6876 44.3994C38.8049 44.6181 38.9729 44.7834 39.1916 44.8954C39.4102 45.0074 39.6716 45.0634 39.9756 45.0634C40.1942 45.0634 40.4156 45.0341 40.6396 44.9754C40.8689 44.9114 41.0822 44.7994 41.2796 44.6394L41.5196 45.1514C41.3169 45.3221 41.0742 45.4474 40.7916 45.5274C40.5142 45.6074 40.2396 45.6474 39.9676 45.6474ZM42.7745 45.5754V41.6234H43.4385V42.4794C43.5665 42.1861 43.7585 41.9594 44.0145 41.7994C44.2705 41.6341 44.5585 41.5514 44.8785 41.5514C45.2038 41.5514 45.4758 41.6101 45.6945 41.7274C45.9132 41.8394 46.0758 42.0154 46.1825 42.2554C46.2945 42.4901 46.3505 42.7834 46.3505 43.1354V45.5754H45.6385V43.1754C45.6385 42.9621 45.6092 42.7808 45.5505 42.6314C45.4918 42.4821 45.3932 42.3674 45.2545 42.2874C45.1212 42.2021 44.9425 42.1594 44.7185 42.1594C44.4838 42.1594 44.2705 42.2128 44.0785 42.3194C43.8918 42.4261 43.7452 42.5701 43.6385 42.7514C43.5372 42.9328 43.4865 43.1354 43.4865 43.3594V45.5754H42.7745ZM49.2149 45.6474C48.9962 45.6474 48.7802 45.6261 48.5669 45.5834C48.3589 45.5461 48.1642 45.4928 47.9829 45.4234C47.8069 45.3488 47.6549 45.2581 47.5269 45.1514L47.7589 44.6474C47.8922 44.7488 48.0389 44.8314 48.1989 44.8954C48.3642 44.9594 48.5322 45.0074 48.7029 45.0394C48.8789 45.0661 49.0469 45.0794 49.2069 45.0794C49.5375 45.0794 49.7909 45.0288 49.9669 44.9274C50.1482 44.8261 50.2389 44.6848 50.2389 44.5034C50.2389 44.3488 50.1855 44.2314 50.0789 44.1514C49.9775 44.0661 49.8069 44.0021 49.5669 43.9594L48.7429 43.8154C48.3749 43.7461 48.0975 43.6208 47.9109 43.4394C47.7295 43.2581 47.6389 43.0208 47.6389 42.7274C47.6389 42.4928 47.7029 42.2874 47.8309 42.1114C47.9642 41.9354 48.1535 41.7994 48.3989 41.7034C48.6442 41.6021 48.9375 41.5514 49.2789 41.5514C49.4655 41.5514 49.6549 41.5701 49.8469 41.6074C50.0442 41.6448 50.2255 41.7008 50.3909 41.7754C50.5615 41.8448 50.7002 41.9328 50.8069 42.0394L50.5669 42.5434C50.4602 42.4421 50.3322 42.3621 50.1829 42.3034C50.0389 42.2394 49.8869 42.1941 49.7269 42.1674C49.5722 42.1354 49.4202 42.1194 49.2709 42.1194C48.9615 42.1194 48.7215 42.1728 48.5509 42.2794C48.3802 42.3808 48.2949 42.5248 48.2949 42.7114C48.2949 42.8608 48.3429 42.9781 48.4389 43.0634C48.5402 43.1488 48.7029 43.2128 48.9269 43.2554L49.7269 43.3994C50.1215 43.4741 50.4149 43.5994 50.6069 43.7754C50.7989 43.9461 50.8949 44.1834 50.8949 44.4874C50.8949 44.7221 50.8255 44.9274 50.6869 45.1034C50.5482 45.2741 50.3535 45.4074 50.1029 45.5034C49.8522 45.5994 49.5562 45.6474 49.2149 45.6474ZM51.9914 40.6714V39.8794H52.8554V40.6714H51.9914ZM52.0714 45.5754V41.6234H52.7834V45.5754H52.0714ZM55.9242 45.6474C55.5242 45.6474 55.1775 45.5621 54.8842 45.3914C54.5909 45.2208 54.3642 44.9834 54.2042 44.6794C54.0442 44.3701 53.9642 44.0074 53.9642 43.5914C53.9642 43.1808 54.0442 42.8234 54.2042 42.5194C54.3642 42.2101 54.5909 41.9728 54.8842 41.8074C55.1775 41.6368 55.5242 41.5514 55.9242 41.5514C56.3242 41.5514 56.6682 41.6368 56.9562 41.8074C57.2495 41.9728 57.4762 42.2101 57.6362 42.5194C57.7962 42.8234 57.8762 43.1808 57.8762 43.5914C57.8762 44.0074 57.7962 44.3701 57.6362 44.6794C57.4815 44.9834 57.2575 45.2208 56.9642 45.3914C56.6709 45.5621 56.3242 45.6474 55.9242 45.6474ZM55.9162 45.0474C56.3055 45.0474 56.6122 44.9168 56.8362 44.6554C57.0602 44.3941 57.1722 44.0394 57.1722 43.5914C57.1722 43.1434 57.0602 42.7914 56.8362 42.5354C56.6175 42.2794 56.3135 42.1514 55.9242 42.1514C55.5349 42.1514 55.2282 42.2794 55.0042 42.5354C54.7802 42.7914 54.6682 43.1434 54.6682 43.5914C54.6682 44.0394 54.7802 44.3941 55.0042 44.6554C55.2335 44.9168 55.5375 45.0474 55.9162 45.0474ZM59.0714 45.5754V41.6234H59.7354V42.4794C59.8634 42.1861 60.0554 41.9594 60.3114 41.7994C60.5674 41.6341 60.8554 41.5514 61.1754 41.5514C61.5007 41.5514 61.7727 41.6101 61.9914 41.7274C62.21 41.8394 62.3727 42.0154 62.4794 42.2554C62.5914 42.4901 62.6474 42.7834 62.6474 43.1354V45.5754H61.9354V43.1754C61.9354 42.9621 61.906 42.7808 61.8474 42.6314C61.7887 42.4821 61.69 42.3674 61.5514 42.2874C61.418 42.2021 61.2394 42.1594 61.0154 42.1594C60.7807 42.1594 60.5674 42.2128 60.3754 42.3194C60.1887 42.4261 60.042 42.5701 59.9354 42.7514C59.834 42.9328 59.7834 43.1354 59.7834 43.3594V45.5754H59.0714Z" fill="#CE3439"/>
<path d="M22.8413 58.5754L25.6013 53.2234L25.6333 53.5674H22.4573V52.9354H26.2253V53.4714L23.6173 58.5754H22.8413ZM29.2062 58.6474C28.9609 58.6474 28.7235 58.6208 28.4942 58.5674C28.2702 58.5141 28.0595 58.4368 27.8622 58.3354C27.6649 58.2288 27.4889 58.1008 27.3342 57.9514L27.6142 57.3914C27.8595 57.6154 28.1102 57.7781 28.3662 57.8794C28.6275 57.9754 28.9075 58.0234 29.2062 58.0234C29.6009 58.0234 29.9075 57.9221 30.1262 57.7194C30.3502 57.5114 30.4622 57.2208 30.4622 56.8474C30.4622 56.4794 30.3582 56.1861 30.1502 55.9674C29.9422 55.7488 29.6542 55.6394 29.2862 55.6394C29.0409 55.6394 28.8169 55.6901 28.6142 55.7914C28.4169 55.8874 28.2329 56.0501 28.0622 56.2794H27.5022V52.9354H30.8782V53.5514H28.1502V55.6714H28.1182C28.2462 55.4794 28.4222 55.3248 28.6462 55.2074C28.8702 55.0848 29.1209 55.0234 29.3982 55.0234C29.7609 55.0234 30.0729 55.1008 30.3342 55.2554C30.5955 55.4048 30.7955 55.6128 30.9342 55.8794C31.0782 56.1461 31.1502 56.4581 31.1502 56.8154C31.1502 57.1941 31.0702 57.5221 30.9102 57.7994C30.7502 58.0714 30.5262 58.2821 30.2382 58.4314C29.9502 58.5754 29.6062 58.6474 29.2062 58.6474ZM32.8591 55.8874L32.3871 55.6074L33.0911 54.5434L33.1071 54.5674L31.8191 54.6474V54.0954L33.1071 54.1754L33.0831 54.1914L32.3871 53.1354L32.8671 52.8554L33.4351 54.0394H33.4271L33.9791 52.8554L34.4591 53.1354L33.7551 54.1914L33.7311 54.1754L35.0271 54.0954V54.6474L33.7391 54.5674L33.7631 54.5434L34.4591 55.6074L33.9871 55.8874L33.4271 54.7114H33.4351L32.8591 55.8874ZM38.3527 58.5754V57.4074H35.7207V56.8714L38.3207 52.9354H39.0327V56.8074H39.8167V57.4074H39.0327V58.5754H38.3527ZM38.3767 56.8074V53.8154H38.4087L36.3447 56.9434L36.2887 56.8074H38.3767ZM42.5656 58.6474C42.3202 58.6474 42.0829 58.6208 41.8536 58.5674C41.6296 58.5141 41.4189 58.4368 41.2216 58.3354C41.0242 58.2288 40.8482 58.1008 40.6936 57.9514L40.9736 57.3914C41.2189 57.6154 41.4696 57.7781 41.7256 57.8794C41.9869 57.9754 42.2669 58.0234 42.5656 58.0234C42.9602 58.0234 43.2669 57.9221 43.4856 57.7194C43.7096 57.5114 43.8216 57.2208 43.8216 56.8474C43.8216 56.4794 43.7176 56.1861 43.5096 55.9674C43.3016 55.7488 43.0136 55.6394 42.6456 55.6394C42.4002 55.6394 42.1762 55.6901 41.9736 55.7914C41.7762 55.8874 41.5922 56.0501 41.4216 56.2794H40.8616V52.9354H44.2376V53.5514H41.5096V55.6714H41.4776C41.6056 55.4794 41.7816 55.3248 42.0056 55.2074C42.2296 55.0848 42.4802 55.0234 42.7576 55.0234C43.1202 55.0234 43.4322 55.1008 43.6936 55.2554C43.9549 55.4048 44.1549 55.6128 44.2936 55.8794C44.4376 56.1461 44.5096 56.4581 44.5096 56.8154C44.5096 57.1941 44.4296 57.5221 44.2696 57.7994C44.1096 58.0714 43.8856 58.2821 43.5976 58.4314C43.3096 58.5754 42.9656 58.6474 42.5656 58.6474ZM46.2184 55.8874L45.7464 55.6074L46.4504 54.5434L46.4664 54.5674L45.1784 54.6474V54.0954L46.4664 54.1754L46.4424 54.1914L45.7464 53.1354L46.2264 52.8554L46.7944 54.0394H46.7864L47.3384 52.8554L47.8184 53.1354L47.1144 54.1914L47.0904 54.1754L48.3864 54.0954V54.6474L47.0984 54.5674L47.1224 54.5434L47.8184 55.6074L47.3464 55.8874L46.7864 54.7114H46.7944L46.2184 55.8874ZM49.4001 58.5754V57.9674H50.9441V53.5034L51.3201 53.5594L49.6801 54.6154L49.3601 54.0634L51.1281 52.9354H51.6481V57.9674H53.0721V58.5754H49.4001ZM54.1169 58.5754V58.0474L56.1009 55.9674C56.2929 55.7648 56.4423 55.5808 56.5489 55.4154C56.6556 55.2501 56.7329 55.0901 56.7809 54.9354C56.8289 54.7808 56.8529 54.6234 56.8529 54.4634C56.8529 54.1488 56.7516 53.9088 56.5489 53.7434C56.3516 53.5728 56.0769 53.4874 55.7249 53.4874C55.4583 53.4874 55.1943 53.5408 54.9329 53.6474C54.6769 53.7488 54.4316 53.9114 54.1969 54.1354L53.9249 53.5754C54.1596 53.3514 54.4396 53.1781 54.7649 53.0554C55.0903 52.9274 55.4263 52.8634 55.7729 52.8634C56.1409 52.8634 56.4583 52.9274 56.7249 53.0554C56.9916 53.1781 57.1943 53.3568 57.3329 53.5914C57.4769 53.8208 57.5489 54.0981 57.5489 54.4234C57.5489 54.5888 57.5303 54.7514 57.4929 54.9114C57.4556 55.0661 57.3969 55.2208 57.3169 55.3754C57.2423 55.5301 57.1436 55.6901 57.0209 55.8554C56.8983 56.0208 56.7489 56.1941 56.5729 56.3754L55.0209 57.9914V57.9594H57.7809V58.5754H54.1169ZM60.6578 58.6474C60.2258 58.6474 59.8605 58.5381 59.5618 58.3194C59.2631 58.0954 59.0365 57.7701 58.8818 57.3434C58.7325 56.9114 58.6578 56.3808 58.6578 55.7514C58.6578 55.1221 58.7325 54.5941 58.8818 54.1674C59.0365 53.7408 59.2631 53.4181 59.5618 53.1994C59.8605 52.9754 60.2258 52.8634 60.6578 52.8634C61.1005 52.8634 61.4685 52.9728 61.7618 53.1914C62.0551 53.4101 62.2765 53.7328 62.4258 54.1594C62.5805 54.5861 62.6578 55.1141 62.6578 55.7434C62.6578 56.3728 62.5805 56.9034 62.4258 57.3354C62.2765 57.7674 62.0525 58.0954 61.7538 58.3194C61.4551 58.5381 61.0898 58.6474 60.6578 58.6474ZM60.6578 58.0234C61.0951 58.0234 61.4205 57.8394 61.6338 57.4714C61.8471 57.1034 61.9538 56.5274 61.9538 55.7434C61.9538 54.9648 61.8471 54.3941 61.6338 54.0314C61.4258 53.6688 61.1031 53.4874 60.6658 53.4874C60.2231 53.4874 59.8951 53.6714 59.6818 54.0394C59.4685 54.4021 59.3618 54.9728 59.3618 55.7514C59.3618 56.5248 59.4685 57.0981 59.6818 57.4714C59.8951 57.8394 60.2205 58.0234 60.6578 58.0234Z" fill="black"/>
<defs>
<filter id="filter0_d_535_523" x="0.0999999" y="25" width="89.8" height="57.9" filterUnits="userSpaceOnUse" color-interpolation-filters="sRGB">
<feFlood flood-opacity="0" result="BackgroundImageFix"/>
<feColorMatrix in="SourceAlpha" type="matrix" values="0 0 0 0 0 0 0 0 0 0 0 0 0 0 0 0 0 0 127 0" result="hardAlpha"/>
<feOffset dy="4"/>
<feGaussianBlur stdDeviation="1.95"/>
<feComposite in2="hardAlpha" operator="out"/>
<feColorMatrix type="matrix" values="0 0 0 0 0 0 0 0 0 0 0 0 0 0 0 0 0 0 0.2 0"/>
<feBlend mode="normal" in2="BackgroundImageFix" result="effect1_dropShadow_535_523"/>
<feBlend mode="normal" in="SourceGraphic" in2="effect1_dropShadow_535_523" result="shape"/>
</filter>
<clipPath id="clip0_535_523">
<rect width="15.697" height="16.9115" fill="white" transform="translate(33.1514 7.2478)"/>
</clipPath>
</defs>
</svg>
