<svg width="136" height="83" viewBox="0 0 136 83" fill="none" xmlns="http://www.w3.org/2000/svg">
<g filter="url(#filter0_d_535_541)">
<rect x="4" y="25" width="128" height="50" rx="2" fill="white"/>
<rect x="4.25" y="25.25" width="127.5" height="49.5" rx="1.75" stroke="white" stroke-width="0.5"/>
</g>
<rect x="52.3438" width="30.1132" height="30.1144" rx="3" fill="#CB3335"/>
<g clip-path="url(#clip0_535_541)">
<path fill-rule="evenodd" clip-rule="evenodd" d="M66.8824 2.41733C66.9641 2.41225 67.0496 2.4258 67.0729 2.44697C67.0962 2.46815 67.7348 2.80397 68.4916 3.19357C69.2487 3.58276 70.1918 4.06849 70.5877 4.27261C70.9837 4.47631 72.6894 5.35292 74.3777 6.22064C76.0665 7.08793 77.4805 7.82903 77.5207 7.86714C77.5885 7.93151 77.5936 8.28681 77.5961 13.2509C77.5982 17.5022 77.5876 18.5809 77.5444 18.6427C77.5148 18.685 75.118 19.9288 72.2181 21.4063C69.3182 22.8843 66.9078 24.0933 66.8612 24.0933C66.8146 24.0933 66.5669 23.9824 66.3107 23.8473C66.0545 23.7118 63.6551 22.4777 60.9788 21.1048C56.9686 19.0471 56.0988 18.5855 56.0332 18.4809C55.9718 18.3831 55.9574 18.2958 55.9701 18.0998C55.9794 17.96 56.02 15.6067 56.0603 12.8698C56.1009 10.1328 56.1513 7.84597 56.1725 7.78795C56.2047 7.69944 57.0723 7.25182 61.4726 5.05436C64.9886 3.29818 66.7833 2.42368 66.8824 2.41733ZM57.2184 7.93278C57.2235 7.94633 57.8799 8.30417 58.6777 8.72808C59.4755 9.15199 60.1759 9.52593 60.2339 9.55938C60.3356 9.61825 60.5274 9.52338 65.1144 7.14806C67.7403 5.78784 69.8746 4.66306 69.8572 4.64782C69.8399 4.63257 69.1729 4.28489 68.3751 3.87496C67.5773 3.46503 66.901 3.1309 66.8718 3.13217C66.8426 3.13344 64.6566 4.20866 62.0142 5.52146C59.3718 6.83426 57.2138 7.91923 57.2184 7.93278ZM64.1184 8.402C62.4487 9.26379 61.0817 9.97821 61.0817 9.99006C61.0813 10.0015 61.4857 10.2285 61.9807 10.494L62.8806 10.9764C63.3401 10.7413 65.4816 9.62841 67.9355 8.35161C70.3895 7.07523 72.3997 6.01143 72.4031 5.98814C72.4061 5.96485 72.0144 5.74083 71.532 5.49055C71.0501 5.24027 70.65 5.03573 70.6428 5.03658C70.636 5.03742 69.8479 5.44227 68.8922 5.93648C67.9364 6.43068 65.7881 7.54021 64.1184 8.402ZM66.3437 9.91384C64.848 10.6892 63.6234 11.3384 63.623 11.3558C63.6221 11.3732 64.3365 11.7687 65.2097 12.2345L66.7977 13.0815C74.2312 9.27649 76.4218 8.14749 76.462 8.11742C76.5251 8.07041 76.3215 7.95395 74.8838 7.21625C73.9755 6.75041 73.2187 6.36674 73.2018 6.36377C73.1848 6.36081 72.2469 6.84104 71.117 7.43095C69.9872 8.02044 67.8394 9.13801 66.3437 9.91384ZM56.723 13.2932C56.6696 16.7467 56.6616 18.1129 56.6946 18.1472C56.7196 18.173 57.2074 18.4331 57.7778 18.7253C58.3487 19.017 60.5494 20.1448 62.6689 21.231C64.7883 22.3168 66.5267 23.2002 66.5322 23.1934C66.5373 23.1871 66.5237 21.0375 66.5017 18.4174C66.4797 15.7969 66.4564 13.6502 66.4496 13.6464C66.4432 13.6426 65.7136 13.2496 64.8286 12.7736L63.2194 11.908C63.1779 12.1117 63.1542 12.6758 63.1394 13.2932C63.1161 14.2918 63.1046 14.4273 63.0352 14.5213C62.983 14.5919 62.9088 14.631 62.8129 14.6386C62.6968 14.6484 62.4313 14.5251 61.4429 14.0034C60.7688 13.6477 60.1734 13.3233 60.1196 13.2826L60.0222 13.2085L60.001 10.1832C58.1302 9.17782 57.4107 8.7916 57.1947 8.67642C56.9788 8.56081 56.8009 8.47103 56.7996 8.47653C56.7988 8.48204 56.7641 10.6494 56.723 13.2932ZM67.1648 13.6401C67.1458 13.6473 67.1458 15.802 67.1648 18.428C67.1843 21.054 67.2097 23.2036 67.2212 23.204C67.2326 23.2049 69.424 22.0928 72.091 20.7326L76.9397 18.2599C76.9562 10.8006 76.9469 8.63619 76.9291 8.63788C76.9118 8.64 74.7157 9.76308 72.0487 11.1343C69.3817 12.5056 67.1843 13.6329 67.1648 13.6401ZM60.6583 12.8486C61.9735 13.5376 62.378 13.7434 62.4063 13.7498C62.4436 13.7582 62.4656 13.5702 62.4889 13.051C62.5067 12.6601 62.5207 12.1591 62.5207 11.9381V11.5358C61.1423 10.7972 60.7231 10.5829 60.6998 10.5829C60.6727 10.5829 60.6574 10.9886 60.6578 11.7158L60.6583 12.8486Z" fill="white"/>
</g>
<path d="M13.832 41.7749V36.1349H16.152C16.5573 36.1349 16.9013 36.2016 17.184 36.3349C17.4667 36.4682 17.6827 36.6629 17.832 36.9189C17.9867 37.1696 18.064 37.4736 18.064 37.8309C18.064 38.1882 17.9867 38.4949 17.832 38.7509C17.6827 39.0069 17.464 39.2042 17.176 39.3429C16.8933 39.4816 16.552 39.5509 16.152 39.5509H14.544V41.7749H13.832ZM14.544 38.9429H16.048C16.4747 38.9429 16.7973 38.8522 17.016 38.6709C17.2347 38.4842 17.344 38.2069 17.344 37.8389C17.344 37.4656 17.2347 37.1909 17.016 37.0149C16.7973 36.8336 16.4747 36.7429 16.048 36.7429H14.544V38.9429ZM18.7242 36.8709V36.0789H19.5882V36.8709H18.7242ZM18.8042 41.7749V37.8229H19.5162V41.7749H18.8042ZM22.441 41.8469C21.9983 41.8469 21.6143 41.7669 21.289 41.6069C20.969 41.4416 20.7237 41.2069 20.553 40.9029C20.3823 40.5936 20.297 40.2256 20.297 39.7989C20.297 39.3989 20.377 39.0469 20.537 38.7429C20.697 38.4336 20.9237 38.1909 21.217 38.0149C21.5103 37.8389 21.8597 37.7509 22.265 37.7509C22.649 37.7509 22.9743 37.8336 23.241 37.9989C23.513 38.1642 23.7183 38.3962 23.857 38.6949C24.001 38.9936 24.073 39.3482 24.073 39.7589V39.9909H20.833V39.4949H23.609L23.457 39.6549C23.457 39.2176 23.353 38.8816 23.145 38.6469C22.9423 38.4122 22.649 38.2949 22.265 38.2949C22.0143 38.2949 21.7903 38.3536 21.593 38.4709C21.401 38.5829 21.2517 38.7429 21.145 38.9509C21.0383 39.1589 20.985 39.4122 20.985 39.7109V39.7909C20.985 40.1109 21.0437 40.3802 21.161 40.5989C21.2783 40.8176 21.4463 40.9829 21.665 41.0949C21.8837 41.2069 22.145 41.2629 22.449 41.2629C22.6677 41.2629 22.889 41.2336 23.113 41.1749C23.3423 41.1109 23.5557 40.9989 23.753 40.8389L23.993 41.3509C23.7903 41.5216 23.5477 41.6469 23.265 41.7269C22.9877 41.8069 22.713 41.8469 22.441 41.8469ZM26.6079 41.8469C26.2026 41.8469 25.8506 41.7616 25.5519 41.5909C25.2533 41.4202 25.0213 41.1829 24.8559 40.8789C24.6906 40.5696 24.6079 40.2069 24.6079 39.7909C24.6079 39.3749 24.6906 39.0149 24.8559 38.7109C25.0213 38.4016 25.2533 38.1642 25.5519 37.9989C25.8559 37.8336 26.2106 37.7509 26.6159 37.7509C26.8879 37.7509 27.1466 37.7962 27.3919 37.8869C27.6373 37.9776 27.8399 38.1002 27.9999 38.2549L27.7519 38.7829C27.5973 38.6442 27.4239 38.5402 27.2319 38.4709C27.0399 38.3962 26.8533 38.3589 26.6719 38.3589C26.2559 38.3589 25.9279 38.4842 25.6879 38.7349C25.4479 38.9856 25.3279 39.3402 25.3279 39.7989C25.3279 40.2522 25.4479 40.6069 25.6879 40.8629C25.9279 41.1136 26.2533 41.2389 26.6639 41.2389C26.8506 41.2389 27.0373 41.2042 27.2239 41.1349C27.4159 41.0602 27.5866 40.9562 27.7359 40.8229L27.9839 41.3509C27.8293 41.5056 27.6293 41.6282 27.3839 41.7189C27.1386 41.8042 26.8799 41.8469 26.6079 41.8469ZM30.3363 41.8469C29.8936 41.8469 29.5096 41.7669 29.1843 41.6069C28.8643 41.4416 28.619 41.2069 28.4483 40.9029C28.2776 40.5936 28.1923 40.2256 28.1923 39.7989C28.1923 39.3989 28.2723 39.0469 28.4323 38.7429C28.5923 38.4336 28.819 38.1909 29.1123 38.0149C29.4056 37.8389 29.755 37.7509 30.1603 37.7509C30.5443 37.7509 30.8696 37.8336 31.1363 37.9989C31.4083 38.1642 31.6136 38.3962 31.7523 38.6949C31.8963 38.9936 31.9683 39.3482 31.9683 39.7589V39.9909H28.7283V39.4949H31.5043L31.3523 39.6549C31.3523 39.2176 31.2483 38.8816 31.0403 38.6469C30.8376 38.4122 30.5443 38.2949 30.1603 38.2949C29.9096 38.2949 29.6856 38.3536 29.4883 38.4709C29.2963 38.5829 29.147 38.7429 29.0403 38.9509C28.9336 39.1589 28.8803 39.4122 28.8803 39.7109V39.7909C28.8803 40.1109 28.939 40.3802 29.0563 40.5989C29.1736 40.8176 29.3416 40.9829 29.5603 41.0949C29.779 41.2069 30.0403 41.2629 30.3443 41.2629C30.563 41.2629 30.7843 41.2336 31.0083 41.1749C31.2376 41.1109 31.451 40.9989 31.6483 40.8389L31.8883 41.3509C31.6856 41.5216 31.443 41.6469 31.1603 41.7269C30.883 41.8069 30.6083 41.8469 30.3363 41.8469ZM34.1993 41.8469C33.9806 41.8469 33.7646 41.8256 33.5513 41.7829C33.3433 41.7456 33.1486 41.6922 32.9673 41.6229C32.7913 41.5482 32.6393 41.4576 32.5113 41.3509L32.7433 40.8469C32.8766 40.9482 33.0233 41.0309 33.1833 41.0949C33.3486 41.1589 33.5166 41.2069 33.6873 41.2389C33.8633 41.2656 34.0313 41.2789 34.1913 41.2789C34.5219 41.2789 34.7753 41.2282 34.9513 41.1269C35.1326 41.0256 35.2233 40.8842 35.2233 40.7029C35.2233 40.5482 35.1699 40.4309 35.0633 40.3509C34.9619 40.2656 34.7913 40.2016 34.5513 40.1589L33.7273 40.0149C33.3593 39.9456 33.0819 39.8202 32.8953 39.6389C32.7139 39.4576 32.6233 39.2202 32.6233 38.9269C32.6233 38.6922 32.6873 38.4869 32.8153 38.3109C32.9486 38.1349 33.1379 37.9989 33.3833 37.9029C33.6286 37.8016 33.9219 37.7509 34.2633 37.7509C34.4499 37.7509 34.6393 37.7696 34.8313 37.8069C35.0286 37.8442 35.2099 37.9002 35.3753 37.9749C35.5459 38.0442 35.6846 38.1322 35.7913 38.2389L35.5513 38.7429C35.4446 38.6416 35.3166 38.5616 35.1673 38.5029C35.0233 38.4389 34.8713 38.3936 34.7113 38.3669C34.5566 38.3349 34.4046 38.3189 34.2553 38.3189C33.9459 38.3189 33.7059 38.3722 33.5353 38.4789C33.3646 38.5802 33.2793 38.7242 33.2793 38.9109C33.2793 39.0602 33.3273 39.1776 33.4233 39.2629C33.5246 39.3482 33.6873 39.4122 33.9113 39.4549L34.7113 39.5989C35.1059 39.6736 35.3993 39.7989 35.5913 39.9749C35.7833 40.1456 35.8793 40.3829 35.8793 40.6869C35.8793 40.9216 35.8099 41.1269 35.6713 41.3029C35.5326 41.4736 35.3379 41.6069 35.0873 41.7029C34.8366 41.7989 34.5406 41.8469 34.1993 41.8469Z" fill="#CE3439"/>
<path d="M52.1774 41.7749V41.1669H53.7214V36.7029L54.0974 36.7589L52.4574 37.8149L52.1374 37.2629L53.9054 36.1349H54.4254V41.1669H55.8494V41.7749H52.1774ZM58.6383 41.8469C58.2063 41.8469 57.8409 41.7376 57.5423 41.5189C57.2436 41.2949 57.0169 40.9696 56.8623 40.5429C56.7129 40.1109 56.6383 39.5802 56.6383 38.9509C56.6383 38.3216 56.7129 37.7936 56.8623 37.3669C57.0169 36.9402 57.2436 36.6176 57.5423 36.3989C57.8409 36.1749 58.2063 36.0629 58.6383 36.0629C59.0809 36.0629 59.4489 36.1722 59.7423 36.3909C60.0356 36.6096 60.2569 36.9322 60.4063 37.3589C60.5609 37.7856 60.6383 38.3136 60.6383 38.9429C60.6383 39.5722 60.5609 40.1029 60.4063 40.5349C60.2569 40.9669 60.0329 41.2949 59.7343 41.5189C59.4356 41.7376 59.0703 41.8469 58.6383 41.8469ZM58.6383 41.2229C59.0756 41.2229 59.4009 41.0389 59.6143 40.6709C59.8276 40.3029 59.9343 39.7269 59.9343 38.9429C59.9343 38.1642 59.8276 37.5936 59.6143 37.2309C59.4063 36.8682 59.0836 36.6869 58.6463 36.6869C58.2036 36.6869 57.8756 36.8709 57.6623 37.2389C57.4489 37.6016 57.3423 38.1722 57.3423 38.9509C57.3423 39.7242 57.4489 40.2976 57.6623 40.6709C57.8756 41.0389 58.2009 41.2229 58.6383 41.2229ZM63.4352 41.8469C63.0032 41.8469 62.6378 41.7376 62.3392 41.5189C62.0405 41.2949 61.8138 40.9696 61.6592 40.5429C61.5098 40.1109 61.4352 39.5802 61.4352 38.9509C61.4352 38.3216 61.5098 37.7936 61.6592 37.3669C61.8138 36.9402 62.0405 36.6176 62.3392 36.3989C62.6378 36.1749 63.0032 36.0629 63.4352 36.0629C63.8778 36.0629 64.2458 36.1722 64.5392 36.3909C64.8325 36.6096 65.0538 36.9322 65.2032 37.3589C65.3578 37.7856 65.4352 38.3136 65.4352 38.9429C65.4352 39.5722 65.3578 40.1029 65.2032 40.5349C65.0538 40.9669 64.8298 41.2949 64.5312 41.5189C64.2325 41.7376 63.8672 41.8469 63.4352 41.8469ZM63.4352 41.2229C63.8725 41.2229 64.1978 41.0389 64.4112 40.6709C64.6245 40.3029 64.7312 39.7269 64.7312 38.9429C64.7312 38.1642 64.6245 37.5936 64.4112 37.2309C64.2032 36.8682 63.8805 36.6869 63.4432 36.6869C63.0005 36.6869 62.6725 36.8709 62.4592 37.2389C62.2458 37.6016 62.1392 38.1722 62.1392 38.9509C62.1392 39.7242 62.2458 40.2976 62.4592 40.6709C62.6725 41.0389 62.9978 41.2229 63.4352 41.2229ZM68.232 41.8469C67.8 41.8469 67.4347 41.7376 67.136 41.5189C66.8374 41.2949 66.6107 40.9696 66.456 40.5429C66.3067 40.1109 66.232 39.5802 66.232 38.9509C66.232 38.3216 66.3067 37.7936 66.456 37.3669C66.6107 36.9402 66.8374 36.6176 67.136 36.3989C67.4347 36.1749 67.8 36.0629 68.232 36.0629C68.6747 36.0629 69.0427 36.1722 69.336 36.3909C69.6294 36.6096 69.8507 36.9322 70 37.3589C70.1547 37.7856 70.232 38.3136 70.232 38.9429C70.232 39.5722 70.1547 40.1029 70 40.5349C69.8507 40.9669 69.6267 41.2949 69.328 41.5189C69.0294 41.7376 68.664 41.8469 68.232 41.8469ZM68.232 41.2229C68.6694 41.2229 68.9947 41.0389 69.208 40.6709C69.4214 40.3029 69.528 39.7269 69.528 38.9429C69.528 38.1642 69.4214 37.5936 69.208 37.2309C69 36.8682 68.6774 36.6869 68.24 36.6869C67.7974 36.6869 67.4694 36.8709 67.256 37.2389C67.0427 37.6016 66.936 38.1722 66.936 38.9509C66.936 39.7242 67.0427 40.2976 67.256 40.6709C67.4694 41.0389 67.7947 41.2229 68.232 41.2229ZM73.6953 41.7749V36.1349H74.3273L77.7833 40.7269H77.7513V36.1349H78.4313V41.7749H77.7833L74.3433 37.1989H74.3753V41.7749H73.6953ZM81.6937 41.8469C81.2937 41.8469 80.9471 41.7616 80.6537 41.5909C80.3604 41.4202 80.1337 41.1829 79.9737 40.8789C79.8137 40.5696 79.7337 40.2069 79.7337 39.7909C79.7337 39.3802 79.8137 39.0229 79.9737 38.7189C80.1337 38.4096 80.3604 38.1722 80.6537 38.0069C80.9471 37.8362 81.2937 37.7509 81.6937 37.7509C82.0937 37.7509 82.4377 37.8362 82.7257 38.0069C83.0191 38.1722 83.2457 38.4096 83.4057 38.7189C83.5657 39.0229 83.6457 39.3802 83.6457 39.7909C83.6457 40.2069 83.5657 40.5696 83.4057 40.8789C83.2511 41.1829 83.0271 41.4202 82.7337 41.5909C82.4404 41.7616 82.0937 41.8469 81.6937 41.8469ZM81.6857 41.2469C82.0751 41.2469 82.3817 41.1162 82.6057 40.8549C82.8297 40.5936 82.9417 40.2389 82.9417 39.7909C82.9417 39.3429 82.8297 38.9909 82.6057 38.7349C82.3871 38.4789 82.0831 38.3509 81.6937 38.3509C81.3044 38.3509 80.9977 38.4789 80.7737 38.7349C80.5497 38.9909 80.4377 39.3429 80.4377 39.7909C80.4377 40.2389 80.5497 40.5936 80.7737 40.8549C81.0031 41.1162 81.3071 41.2469 81.6857 41.2469ZM86.2969 41.8469C86.0782 41.8469 85.8622 41.8256 85.6489 41.7829C85.4409 41.7456 85.2462 41.6922 85.0649 41.6229C84.8889 41.5482 84.7369 41.4576 84.6089 41.3509L84.8409 40.8469C84.9742 40.9482 85.1209 41.0309 85.2809 41.0949C85.4462 41.1589 85.6142 41.2069 85.7849 41.2389C85.9609 41.2656 86.1289 41.2789 86.2889 41.2789C86.6196 41.2789 86.8729 41.2282 87.0489 41.1269C87.2302 41.0256 87.3209 40.8842 87.3209 40.7029C87.3209 40.5482 87.2676 40.4309 87.1609 40.3509C87.0596 40.2656 86.8889 40.2016 86.6489 40.1589L85.8249 40.0149C85.4569 39.9456 85.1796 39.8202 84.9929 39.6389C84.8116 39.4576 84.7209 39.2202 84.7209 38.9269C84.7209 38.6922 84.7849 38.4869 84.9129 38.3109C85.0462 38.1349 85.2356 37.9989 85.4809 37.9029C85.7262 37.8016 86.0196 37.7509 86.3609 37.7509C86.5476 37.7509 86.7369 37.7696 86.9289 37.8069C87.1262 37.8442 87.3076 37.9002 87.4729 37.9749C87.6436 38.0442 87.7822 38.1322 87.8889 38.2389L87.6489 38.7429C87.5422 38.6416 87.4142 38.5616 87.2649 38.5029C87.1209 38.4389 86.9689 38.3936 86.8089 38.3669C86.6542 38.3349 86.5022 38.3189 86.3529 38.3189C86.0436 38.3189 85.8036 38.3722 85.6329 38.4789C85.4622 38.5802 85.3769 38.7242 85.3769 38.9109C85.3769 39.0602 85.4249 39.1776 85.5209 39.2629C85.6222 39.3482 85.7849 39.4122 86.0089 39.4549L86.8089 39.5989C87.2036 39.6736 87.4969 39.7989 87.6889 39.9749C87.8809 40.1456 87.9769 40.3829 87.9769 40.6869C87.9769 40.9216 87.9076 41.1269 87.7689 41.3029C87.6302 41.4736 87.4356 41.6069 87.1849 41.7029C86.9342 41.7989 86.6382 41.8469 86.2969 41.8469ZM88.8814 42.2789L88.3214 42.1269L90.3614 35.7589L90.9134 35.9109L88.8814 42.2789ZM93.9627 41.8469C93.424 41.8469 92.9547 41.7322 92.5547 41.5029C92.16 41.2682 91.856 40.9349 91.6427 40.5029C91.4293 40.0656 91.3227 39.5482 91.3227 38.9509C91.3227 38.3536 91.4293 37.8389 91.6427 37.4069C91.856 36.9749 92.16 36.6442 92.5547 36.4149C92.9493 36.1802 93.4187 36.0629 93.9627 36.0629C94.3573 36.0629 94.7173 36.1242 95.0427 36.2469C95.368 36.3642 95.648 36.5376 95.8827 36.7669L95.6027 37.3269C95.3573 37.1082 95.104 36.9509 94.8427 36.8549C94.5867 36.7589 94.2987 36.7109 93.9787 36.7109C93.3813 36.7109 92.912 36.9029 92.5707 37.2869C92.2347 37.6656 92.0667 38.2202 92.0667 38.9509C92.0667 39.6762 92.2347 40.2336 92.5707 40.6229C92.9067 41.0069 93.376 41.1989 93.9787 41.1989C94.2987 41.1989 94.5867 41.1509 94.8427 41.0549C95.104 40.9589 95.3573 40.8016 95.6027 40.5829L95.8827 41.1429C95.648 41.3722 95.368 41.5482 95.0427 41.6709C94.7173 41.7882 94.3573 41.8469 93.9627 41.8469ZM98.6143 41.8469C98.1396 41.8469 97.7796 41.7216 97.5343 41.4709C97.2943 41.2202 97.1743 40.8629 97.1743 40.3989V38.4069H96.3743V37.8229H97.1983V36.6469H97.8863V37.8229H99.3023V38.4069H97.8863V40.3349C97.8863 40.6389 97.9529 40.8656 98.0863 41.0149C98.2249 41.1589 98.4356 41.2309 98.7183 41.2309C98.8303 41.2309 98.9369 41.2202 99.0383 41.1989C99.1449 41.1776 99.2463 41.1456 99.3423 41.1029L99.4543 41.6629C99.3476 41.7216 99.2169 41.7669 99.0623 41.7989C98.9129 41.8309 98.7636 41.8469 98.6143 41.8469ZM100.286 41.7749V37.8229H100.95V38.6789C101.078 38.3856 101.27 38.1589 101.526 37.9989C101.782 37.8336 102.07 37.7509 102.39 37.7509C102.716 37.7509 102.988 37.8096 103.206 37.9269C103.425 38.0389 103.588 38.2149 103.694 38.4549C103.806 38.6896 103.862 38.9829 103.862 39.3349V41.7749H103.15V39.3749C103.15 39.1616 103.121 38.9802 103.062 38.8309C103.004 38.6816 102.905 38.5669 102.766 38.4869C102.633 38.4016 102.454 38.3589 102.23 38.3589C101.996 38.3589 101.782 38.4122 101.59 38.5189C101.404 38.6256 101.257 38.7696 101.15 38.9509C101.049 39.1322 100.998 39.3349 100.998 39.5589V41.7749H100.286Z" fill="black"/>
<path d="M15.72 54.8469C15.4107 54.8469 15.1173 54.8229 14.84 54.7749C14.5627 54.7269 14.3093 54.6549 14.08 54.5589C13.8507 54.4629 13.6507 54.3456 13.48 54.2069L13.744 53.6149C13.9253 53.7589 14.1173 53.8762 14.32 53.9669C14.528 54.0522 14.7467 54.1136 14.976 54.1509C15.2107 54.1882 15.4587 54.2069 15.72 54.2069C16.1627 54.2069 16.5013 54.1189 16.736 53.9429C16.976 53.7669 17.096 53.5269 17.096 53.2229C17.096 53.0629 17.056 52.9296 16.976 52.8229C16.9013 52.7162 16.7813 52.6282 16.616 52.5589C16.456 52.4896 16.248 52.4282 15.992 52.3749L15.072 52.1989C14.5547 52.0976 14.1813 51.9189 13.952 51.6629C13.7227 51.4069 13.608 51.0842 13.608 50.6949C13.608 50.3642 13.6987 50.0789 13.88 49.8389C14.0667 49.5936 14.3227 49.4042 14.648 49.2709C14.9787 49.1322 15.3547 49.0629 15.776 49.0629C16.0427 49.0629 16.2907 49.0896 16.52 49.1429C16.7547 49.1909 16.968 49.2656 17.16 49.3669C17.3573 49.4682 17.5333 49.5909 17.688 49.7349L17.424 50.3189C17.1947 50.0949 16.944 49.9376 16.672 49.8469C16.4 49.7509 16.0987 49.7029 15.768 49.7029C15.4907 49.7029 15.2427 49.7429 15.024 49.8229C14.8053 49.8976 14.632 50.0096 14.504 50.1589C14.3813 50.3029 14.32 50.4816 14.32 50.6949C14.32 50.9296 14.3947 51.1162 14.544 51.2549C14.6933 51.3882 14.9467 51.4922 15.304 51.5669L16.216 51.7429C16.76 51.8442 17.1627 52.0149 17.424 52.2549C17.6853 52.4949 17.816 52.8069 17.816 53.1909C17.816 53.5109 17.728 53.7962 17.552 54.0469C17.3813 54.2976 17.1387 54.4949 16.824 54.6389C16.5147 54.7776 16.1467 54.8469 15.72 54.8469ZM18.882 49.8709V49.0789H19.746V49.8709H18.882ZM18.962 54.7749V50.8229H19.674V54.7749H18.962ZM20.8628 54.7749V54.3189L23.3668 51.1909L23.4068 51.4149H20.9188V50.8229H24.0708V51.2789L21.5428 54.4309L21.5028 54.1829H24.1588V54.7749H20.8628ZM27.0691 54.8469C26.6265 54.8469 26.2425 54.7669 25.9171 54.6069C25.5971 54.4416 25.3518 54.2069 25.1811 53.9029C25.0105 53.5936 24.9251 53.2256 24.9251 52.7989C24.9251 52.3989 25.0051 52.0469 25.1651 51.7429C25.3251 51.4336 25.5518 51.1909 25.8451 51.0149C26.1385 50.8389 26.4878 50.7509 26.8931 50.7509C27.2771 50.7509 27.6025 50.8336 27.8691 50.9989C28.1411 51.1642 28.3465 51.3962 28.4851 51.6949C28.6291 51.9936 28.7011 52.3482 28.7011 52.7589V52.9909H25.4611V52.4949H28.2371L28.0851 52.6549C28.0851 52.2176 27.9811 51.8816 27.7731 51.6469C27.5705 51.4122 27.2771 51.2949 26.8931 51.2949C26.6425 51.2949 26.4185 51.3536 26.2211 51.4709C26.0291 51.5829 25.8798 51.7429 25.7731 51.9509C25.6665 52.1589 25.6131 52.4122 25.6131 52.7109V52.7909C25.6131 53.1109 25.6718 53.3802 25.7891 53.5989C25.9065 53.8176 26.0745 53.9829 26.2931 54.0949C26.5118 54.2069 26.7731 54.2629 27.0771 54.2629C27.2958 54.2629 27.5171 54.2336 27.7411 54.1749C27.9705 54.1109 28.1838 53.9989 28.3811 53.8389L28.6211 54.3509C28.4185 54.5216 28.1758 54.6469 27.8931 54.7269C27.6158 54.8069 27.3411 54.8469 27.0691 54.8469Z" fill="#CE3439"/>
<path d="M53.896 54.7749L56.656 49.4229L56.688 49.7669H53.512V49.1349H57.28V49.6709L54.672 54.7749H53.896ZM60.2609 54.8469C60.0155 54.8469 59.7782 54.8202 59.5489 54.7669C59.3249 54.7136 59.1142 54.6362 58.9169 54.5349C58.7195 54.4282 58.5435 54.3002 58.3889 54.1509L58.6689 53.5909C58.9142 53.8149 59.1649 53.9776 59.4209 54.0789C59.6822 54.1749 59.9622 54.2229 60.2609 54.2229C60.6555 54.2229 60.9622 54.1216 61.1809 53.9189C61.4049 53.7109 61.5169 53.4202 61.5169 53.0469C61.5169 52.6789 61.4129 52.3856 61.2049 52.1669C60.9969 51.9482 60.7089 51.8389 60.3409 51.8389C60.0955 51.8389 59.8715 51.8896 59.6689 51.9909C59.4715 52.0869 59.2875 52.2496 59.1169 52.4789H58.5569V49.1349H61.9329V49.7509H59.2049V51.8709H59.1729C59.3009 51.6789 59.4769 51.5242 59.7009 51.4069C59.9249 51.2842 60.1755 51.2229 60.4529 51.2229C60.8155 51.2229 61.1275 51.3002 61.3889 51.4549C61.6502 51.6042 61.8502 51.8122 61.9889 52.0789C62.1329 52.3456 62.2049 52.6576 62.2049 53.0149C62.2049 53.3936 62.1249 53.7216 61.9649 53.9989C61.8049 54.2709 61.5809 54.4816 61.2929 54.6309C61.0049 54.7749 60.6609 54.8469 60.2609 54.8469ZM65.0201 54.7749L67.1081 51.7509V52.0149L65.1321 49.1349H65.9561L67.5561 51.4869H67.5161L69.1161 49.1349H69.9401L67.9481 52.0149V51.7509L70.0441 54.7749H69.2121L67.5001 52.2709H67.5561L65.8441 54.7749H65.0201ZM75.5168 54.7749V53.6069H72.8848V53.0709L75.4848 49.1349H76.1968V53.0069H76.9808V53.6069H76.1968V54.7749H75.5168ZM75.5408 53.0069V50.0149H75.5728L73.5088 53.1429L73.4528 53.0069H75.5408ZM79.7296 54.8469C79.4843 54.8469 79.247 54.8202 79.0176 54.7669C78.7936 54.7136 78.583 54.6362 78.3856 54.5349C78.1883 54.4282 78.0123 54.3002 77.8576 54.1509L78.1376 53.5909C78.383 53.8149 78.6336 53.9776 78.8896 54.0789C79.151 54.1749 79.431 54.2229 79.7296 54.2229C80.1243 54.2229 80.431 54.1216 80.6496 53.9189C80.8736 53.7109 80.9856 53.4202 80.9856 53.0469C80.9856 52.6789 80.8816 52.3856 80.6736 52.1669C80.4656 51.9482 80.1776 51.8389 79.8096 51.8389C79.5643 51.8389 79.3403 51.8896 79.1376 51.9909C78.9403 52.0869 78.7563 52.2496 78.5856 52.4789H78.0256V49.1349H81.4016V49.7509H78.6736V51.8709H78.6416C78.7696 51.6789 78.9456 51.5242 79.1696 51.4069C79.3936 51.2842 79.6443 51.2229 79.9216 51.2229C80.2843 51.2229 80.5963 51.3002 80.8576 51.4549C81.119 51.6042 81.319 51.8122 81.4576 52.0789C81.6016 52.3456 81.6736 52.6576 81.6736 53.0149C81.6736 53.3936 81.5936 53.7216 81.4336 53.9989C81.2736 54.2709 81.0496 54.4816 80.7616 54.6309C80.4736 54.7749 80.1296 54.8469 79.7296 54.8469ZM84.4889 54.7749L86.5769 51.7509V52.0149L84.6009 49.1349H85.4249L87.0249 51.4869H86.9849L88.5849 49.1349H89.4089L87.4169 52.0149V51.7509L89.5129 54.7749H88.6809L86.9689 52.2709H87.0249L85.3129 54.7749H84.4889ZM92.6735 54.7749V54.1669H94.2175V49.7029L94.5935 49.7589L92.9535 50.8149L92.6335 50.2629L94.4015 49.1349H94.9215V54.1669H96.3455V54.7749H92.6735ZM97.3904 54.7749V54.2469L99.3744 52.1669C99.5664 51.9642 99.7157 51.7802 99.8224 51.6149C99.929 51.4496 100.006 51.2896 100.054 51.1349C100.102 50.9802 100.126 50.8229 100.126 50.6629C100.126 50.3482 100.025 50.1082 99.8224 49.9429C99.625 49.7722 99.3504 49.6869 98.9984 49.6869C98.7317 49.6869 98.4677 49.7402 98.2064 49.8469C97.9504 49.9482 97.705 50.1109 97.4704 50.3349L97.1984 49.7749C97.433 49.5509 97.713 49.3776 98.0384 49.2549C98.3637 49.1269 98.6997 49.0629 99.0464 49.0629C99.4144 49.0629 99.7317 49.1269 99.9984 49.2549C100.265 49.3776 100.468 49.5562 100.606 49.7909C100.75 50.0202 100.822 50.2976 100.822 50.6229C100.822 50.7882 100.804 50.9509 100.766 51.1109C100.729 51.2656 100.67 51.4202 100.59 51.5749C100.516 51.7296 100.417 51.8896 100.294 52.0549C100.172 52.2202 100.022 52.3936 99.8464 52.5749L98.2944 54.1909V54.1589H101.054V54.7749H97.3904ZM103.931 54.8469C103.499 54.8469 103.134 54.7376 102.835 54.5189C102.537 54.2949 102.31 53.9696 102.155 53.5429C102.006 53.1109 101.931 52.5802 101.931 51.9509C101.931 51.3216 102.006 50.7936 102.155 50.3669C102.31 49.9402 102.537 49.6176 102.835 49.3989C103.134 49.1749 103.499 49.0629 103.931 49.0629C104.374 49.0629 104.742 49.1722 105.035 49.3909C105.329 49.6096 105.55 49.9322 105.699 50.3589C105.854 50.7856 105.931 51.3136 105.931 51.9429C105.931 52.5722 105.854 53.1029 105.699 53.5349C105.55 53.9669 105.326 54.2949 105.027 54.5189C104.729 54.7376 104.363 54.8469 103.931 54.8469ZM103.931 54.2229C104.369 54.2229 104.694 54.0389 104.907 53.6709C105.121 53.3029 105.227 52.7269 105.227 51.9429C105.227 51.1642 105.121 50.5936 104.907 50.2309C104.699 49.8682 104.377 49.6869 103.939 49.6869C103.497 49.6869 103.169 49.8709 102.955 50.2389C102.742 50.6016 102.635 51.1722 102.635 51.9509C102.635 52.7242 102.742 53.2976 102.955 53.6709C103.169 54.0389 103.494 54.2229 103.931 54.2229Z" fill="black"/>
<path d="M15.168 67.7749L13.36 62.1349H14.112L15.584 66.9189H15.512L17.152 62.1349H17.736L19.36 66.9189H19.304L20.792 62.1349H21.512L19.696 67.7749H19.016L17.424 63.1189H17.456L15.832 67.7749H15.168ZM24.0223 67.8469C23.5796 67.8469 23.1956 67.7669 22.8703 67.6069C22.5503 67.4416 22.3049 67.2069 22.1343 66.9029C21.9636 66.5936 21.8783 66.2256 21.8783 65.7989C21.8783 65.3989 21.9583 65.0469 22.1183 64.7429C22.2783 64.4336 22.5049 64.1909 22.7983 64.0149C23.0916 63.8389 23.4409 63.7509 23.8463 63.7509C24.2303 63.7509 24.5556 63.8336 24.8223 63.9989C25.0943 64.1642 25.2996 64.3962 25.4383 64.6949C25.5823 64.9936 25.6543 65.3482 25.6543 65.7589V65.9909H22.4143V65.4949H25.1903L25.0383 65.6549C25.0383 65.2176 24.9343 64.8816 24.7263 64.6469C24.5236 64.4122 24.2303 64.2949 23.8463 64.2949C23.5956 64.2949 23.3716 64.3536 23.1743 64.4709C22.9823 64.5829 22.8329 64.7429 22.7263 64.9509C22.6196 65.1589 22.5663 65.4122 22.5663 65.7109V65.7909C22.5663 66.1109 22.6249 66.3802 22.7423 66.5989C22.8596 66.8176 23.0276 66.9829 23.2463 67.0949C23.4649 67.2069 23.7263 67.2629 24.0303 67.2629C24.2489 67.2629 24.4703 67.2336 24.6943 67.1749C24.9236 67.1109 25.1369 66.9989 25.3343 66.8389L25.5743 67.3509C25.3716 67.5216 25.1289 67.6469 24.8463 67.7269C24.5689 67.8069 24.2943 67.8469 24.0223 67.8469ZM26.7492 62.8709V62.0789H27.6132V62.8709H26.7492ZM26.8292 67.7749V63.8229H27.5412V67.7749H26.8292ZM30.674 69.2869C30.3593 69.2869 30.0473 69.2389 29.738 69.1429C29.4287 69.0522 29.1647 68.9269 28.946 68.7669L29.17 68.2149C29.3193 68.3109 29.4767 68.3936 29.642 68.4629C29.8073 68.5376 29.9753 68.5909 30.146 68.6229C30.322 68.6602 30.4953 68.6789 30.666 68.6789C31.0767 68.6789 31.3967 68.5749 31.626 68.3669C31.8607 68.1589 31.978 67.8629 31.978 67.4789V66.7509H31.962C31.866 67.0229 31.6927 67.2442 31.442 67.4149C31.1913 67.5802 30.9007 67.6629 30.57 67.6629C30.1967 67.6629 29.8713 67.5829 29.594 67.4229C29.3167 67.2576 29.1007 67.0282 28.946 66.7349C28.7967 66.4416 28.722 66.0976 28.722 65.7029C28.722 65.3136 28.7967 64.9722 28.946 64.6789C29.1007 64.3856 29.3167 64.1589 29.594 63.9989C29.8713 63.8336 30.1967 63.7509 30.57 63.7509C30.9007 63.7509 31.1913 63.8362 31.442 64.0069C31.698 64.1776 31.874 64.4042 31.97 64.6869H31.978V63.8229H32.642V67.4149C32.642 67.7989 32.562 68.1296 32.402 68.4069C32.2473 68.6896 32.0233 68.9056 31.73 69.0549C31.4367 69.2096 31.0847 69.2869 30.674 69.2869ZM30.69 67.0789C31.0793 67.0789 31.386 66.9536 31.61 66.7029C31.8393 66.4522 31.954 66.1189 31.954 65.7029C31.954 65.2869 31.8393 64.9562 31.61 64.7109C31.386 64.4602 31.0793 64.3349 30.69 64.3349C30.306 64.3349 29.9993 64.4602 29.77 64.7109C29.546 64.9562 29.434 65.2869 29.434 65.7029C29.434 66.1189 29.546 66.4522 29.77 66.7029C29.9993 66.9536 30.306 67.0789 30.69 67.0789ZM34.0636 67.7749V62.1349H34.7516V64.6629C34.8689 64.3802 35.0529 64.1589 35.3036 63.9989C35.5596 63.8336 35.8476 63.7509 36.1676 63.7509C36.4929 63.7509 36.7649 63.8096 36.9836 63.9269C37.2022 64.0389 37.3649 64.2149 37.4716 64.4549C37.5836 64.6896 37.6396 64.9829 37.6396 65.3349V67.7749H36.9276V65.3749C36.9276 65.1616 36.8956 64.9802 36.8316 64.8309C36.7729 64.6816 36.6769 64.5669 36.5436 64.4869C36.4102 64.4016 36.2316 64.3589 36.0076 64.3589C35.7729 64.3589 35.5622 64.4122 35.3756 64.5189C35.1889 64.6256 35.0422 64.7696 34.9356 64.9509C34.8289 65.1322 34.7756 65.3349 34.7756 65.5589V67.7749H34.0636ZM40.7119 67.8469C40.2373 67.8469 39.8773 67.7216 39.6319 67.4709C39.3919 67.2202 39.2719 66.8629 39.2719 66.3989V64.4069H38.4719V63.8229H39.2959V62.6469H39.9839V63.8229H41.3999V64.4069H39.9839V66.3349C39.9839 66.6389 40.0506 66.8656 40.1839 67.0149C40.3226 67.1589 40.5333 67.2309 40.8159 67.2309C40.9279 67.2309 41.0346 67.2202 41.1359 67.1989C41.2426 67.1776 41.3439 67.1456 41.4399 67.1029L41.5519 67.6629C41.4453 67.7216 41.3146 67.7669 41.1599 67.7989C41.0106 67.8309 40.8613 67.8469 40.7119 67.8469Z" fill="#CE3439"/>
<path d="M55.9157 67.7749V67.1669H57.4597V62.7029L57.8357 62.7589L56.1957 63.8149L55.8757 63.2629L57.6437 62.1349H58.1637V67.1669H59.5877V67.7749H55.9157ZM60.8726 67.7749L63.6326 62.4229L63.6646 62.7669H60.4886V62.1349H64.2566V62.6709L61.6486 67.7749H60.8726ZM66.6614 69.3109C66.2828 68.7349 66.0028 68.1482 65.8214 67.5509C65.6454 66.9482 65.5574 66.3216 65.5574 65.6709C65.5574 65.0202 65.6454 64.3962 65.8214 63.7989C66.0028 63.2016 66.2828 62.6122 66.6614 62.0309L67.1734 62.2149C66.9708 62.5936 66.8028 62.9749 66.6694 63.3589C66.5361 63.7429 66.4348 64.1269 66.3654 64.5109C66.3014 64.8896 66.2694 65.2762 66.2694 65.6709C66.2694 66.0602 66.3014 66.4469 66.3654 66.8309C66.4348 67.2149 66.5361 67.5962 66.6694 67.9749C66.8028 68.3589 66.9708 68.7429 67.1734 69.1269L66.6614 69.3109ZM68.2929 67.7749V62.1349H69.0049V64.6789H69.0369L71.7169 62.1349H72.6209L69.5089 65.0869L69.5569 64.6949L72.8129 67.7749H71.8609L69.0369 65.1269H69.0049V67.7749H68.2929ZM75.1428 69.2869C74.8281 69.2869 74.5161 69.2389 74.2068 69.1429C73.8974 69.0522 73.6334 68.9269 73.4148 68.7669L73.6388 68.2149C73.7881 68.3109 73.9454 68.3936 74.1108 68.4629C74.2761 68.5376 74.4441 68.5909 74.6148 68.6229C74.7908 68.6602 74.9641 68.6789 75.1348 68.6789C75.5454 68.6789 75.8654 68.5749 76.0948 68.3669C76.3294 68.1589 76.4468 67.8629 76.4468 67.4789V66.7509H76.4308C76.3348 67.0229 76.1614 67.2442 75.9108 67.4149C75.6601 67.5802 75.3694 67.6629 75.0388 67.6629C74.6654 67.6629 74.3401 67.5829 74.0628 67.4229C73.7854 67.2576 73.5694 67.0282 73.4148 66.7349C73.2654 66.4416 73.1908 66.0976 73.1908 65.7029C73.1908 65.3136 73.2654 64.9722 73.4148 64.6789C73.5694 64.3856 73.7854 64.1589 74.0628 63.9989C74.3401 63.8336 74.6654 63.7509 75.0388 63.7509C75.3694 63.7509 75.6601 63.8362 75.9108 64.0069C76.1668 64.1776 76.3428 64.4042 76.4388 64.6869H76.4468V63.8229H77.1108V67.4149C77.1108 67.7989 77.0308 68.1296 76.8708 68.4069C76.7161 68.6896 76.4921 68.9056 76.1988 69.0549C75.9054 69.2096 75.5534 69.2869 75.1428 69.2869ZM75.1588 67.0789C75.5481 67.0789 75.8548 66.9536 76.0788 66.7029C76.3081 66.4522 76.4228 66.1189 76.4228 65.7029C76.4228 65.2869 76.3081 64.9562 76.0788 64.7109C75.8548 64.4602 75.5481 64.3349 75.1588 64.3349C74.7748 64.3349 74.4681 64.4602 74.2388 64.7109C74.0148 64.9562 73.9028 65.2869 73.9028 65.7029C73.9028 66.1189 74.0148 66.4522 74.2388 66.7029C74.4681 66.9536 74.7748 67.0789 75.1588 67.0789ZM79.9883 67.8469C79.7696 67.8469 79.5536 67.8256 79.3403 67.7829C79.1323 67.7456 78.9376 67.6922 78.7563 67.6229C78.5803 67.5482 78.4283 67.4576 78.3003 67.3509L78.5323 66.8469C78.6656 66.9482 78.8123 67.0309 78.9723 67.0949C79.1376 67.1589 79.3056 67.2069 79.4763 67.2389C79.6523 67.2656 79.8203 67.2789 79.9803 67.2789C80.311 67.2789 80.5643 67.2282 80.7403 67.1269C80.9216 67.0256 81.0123 66.8842 81.0123 66.7029C81.0123 66.5482 80.959 66.4309 80.8523 66.3509C80.751 66.2656 80.5803 66.2016 80.3403 66.1589L79.5163 66.0149C79.1483 65.9456 78.871 65.8202 78.6843 65.6389C78.503 65.4576 78.4123 65.2202 78.4123 64.9269C78.4123 64.6922 78.4763 64.4869 78.6043 64.3109C78.7376 64.1349 78.927 63.9989 79.1723 63.9029C79.4176 63.8016 79.711 63.7509 80.0523 63.7509C80.239 63.7509 80.4283 63.7696 80.6203 63.8069C80.8176 63.8442 80.999 63.9002 81.1643 63.9749C81.335 64.0442 81.4736 64.1322 81.5803 64.2389L81.3403 64.7429C81.2336 64.6416 81.1056 64.5616 80.9563 64.5029C80.8123 64.4389 80.6603 64.3936 80.5003 64.3669C80.3456 64.3349 80.1936 64.3189 80.0443 64.3189C79.735 64.3189 79.495 64.3722 79.3243 64.4789C79.1536 64.5802 79.0683 64.7242 79.0683 64.9109C79.0683 65.0602 79.1163 65.1776 79.2123 65.2629C79.3136 65.3482 79.4763 65.4122 79.7003 65.4549L80.5003 65.5989C80.895 65.6736 81.1883 65.7989 81.3803 65.9749C81.5723 66.1456 81.6683 66.3829 81.6683 66.6869C81.6683 66.9216 81.599 67.1269 81.4603 67.3029C81.3216 67.4736 81.127 67.6069 80.8763 67.7029C80.6256 67.7989 80.3296 67.8469 79.9883 67.8469ZM82.9408 69.3109L82.4208 69.1269C82.6288 68.7376 82.7995 68.3509 82.9328 67.9669C83.0661 67.5882 83.1648 67.2096 83.2288 66.8309C83.2928 66.4469 83.3248 66.0602 83.3248 65.6709C83.3248 65.2816 83.2928 64.8976 83.2288 64.5189C83.1648 64.1349 83.0661 63.7509 82.9328 63.3669C82.7995 62.9829 82.6288 62.5989 82.4208 62.2149L82.9408 62.0309C83.3141 62.6069 83.5888 63.1962 83.7648 63.7989C83.9461 64.3962 84.0368 65.0202 84.0368 65.6709C84.0368 66.3162 83.9461 66.9402 83.7648 67.5429C83.5888 68.1402 83.3141 68.7296 82.9408 69.3109Z" fill="black"/>
<defs>
<filter id="filter0_d_535_541" x="0.0999999" y="25" width="135.8" height="57.9" filterUnits="userSpaceOnUse" color-interpolation-filters="sRGB">
<feFlood flood-opacity="0" result="BackgroundImageFix"/>
<feColorMatrix in="SourceAlpha" type="matrix" values="0 0 0 0 0 0 0 0 0 0 0 0 0 0 0 0 0 0 127 0" result="hardAlpha"/>
<feOffset dy="4"/>
<feGaussianBlur stdDeviation="1.95"/>
<feComposite in2="hardAlpha" operator="out"/>
<feColorMatrix type="matrix" values="0 0 0 0 0 0 0 0 0 0 0 0 0 0 0 0 0 0 0.2 0"/>
<feBlend mode="normal" in2="BackgroundImageFix" result="effect1_dropShadow_535_541"/>
<feBlend mode="normal" in="SourceGraphic" in2="effect1_dropShadow_535_541" result="shape"/>
</filter>
<clipPath id="clip0_535_541">
<rect width="21.6815" height="21.6824" fill="white" transform="translate(55.957 2.40918)"/>
</clipPath>
</defs>
</svg>
