<svg width="353" height="27" viewBox="0 0 353 27" fill="none" xmlns="http://www.w3.org/2000/svg">
<path d="M1.044 9V0.539999H2.028V9H1.044ZM3.98231 9V3.168H4.93031V4.464H4.79831C4.96631 4 5.23831 3.652 5.61431 3.42C5.99831 3.18 6.43831 3.06 6.93431 3.06C7.39831 3.06 7.78231 3.144 8.08631 3.312C8.39831 3.472 8.63031 3.724 8.78231 4.068C8.93431 4.412 9.01031 4.844 9.01031 5.364V9H8.03831V5.424C8.03831 5.064 7.99031 4.768 7.89431 4.536C7.80631 4.304 7.66231 4.132 7.46231 4.02C7.27031 3.908 7.01831 3.852 6.70631 3.852C6.35431 3.852 6.04631 3.928 5.78231 4.08C5.51831 4.232 5.31431 4.444 5.17031 4.716C5.02631 4.988 4.95431 5.308 4.95431 5.676V9H3.98231ZM13.0226 9.108C12.5026 9.108 12.0466 8.984 11.6546 8.736C11.2706 8.488 10.9706 8.14 10.7546 7.692C10.5466 7.236 10.4426 6.7 10.4426 6.084C10.4426 5.46 10.5466 4.924 10.7546 4.476C10.9706 4.02 11.2706 3.672 11.6546 3.432C12.0466 3.184 12.5026 3.06 13.0226 3.06C13.5506 3.06 14.0026 3.192 14.3786 3.456C14.7546 3.72 15.0066 4.076 15.1346 4.524H15.0026V0.539999H15.9746V9H15.0266V7.608H15.1466C15.0186 8.064 14.7626 8.428 14.3786 8.7C14.0026 8.972 13.5506 9.108 13.0226 9.108ZM13.2266 8.328C13.7786 8.328 14.2146 8.136 14.5346 7.752C14.8626 7.36 15.0266 6.804 15.0266 6.084C15.0266 5.356 14.8626 4.8 14.5346 4.416C14.2146 4.032 13.7786 3.84 13.2266 3.84C12.6826 3.84 12.2466 4.032 11.9186 4.416C11.5906 4.8 11.4266 5.356 11.4266 6.084C11.4266 6.804 11.5906 7.36 11.9186 7.752C12.2466 8.136 12.6826 8.328 13.2266 8.328ZM17.6787 1.716V0.624H18.8787V1.716H17.6787ZM17.7987 9V3.168H18.7707V9H17.7987ZM22.4238 9.108C22.0238 9.108 21.6638 9.032 21.3438 8.88C21.0318 8.72 20.7838 8.504 20.5998 8.232C20.4158 7.96 20.3238 7.656 20.3238 7.32C20.3238 6.888 20.4318 6.548 20.6478 6.3C20.8718 6.052 21.2358 5.876 21.7398 5.772C22.2518 5.668 22.9478 5.616 23.8278 5.616H24.3678V6.252H23.8398C23.3518 6.252 22.9438 6.268 22.6158 6.3C22.2878 6.332 22.0278 6.388 21.8358 6.468C21.6438 6.548 21.5078 6.652 21.4278 6.78C21.3478 6.908 21.3078 7.068 21.3078 7.26C21.3078 7.588 21.4198 7.856 21.6438 8.064C21.8758 8.272 22.1878 8.376 22.5798 8.376C22.8998 8.376 23.1798 8.3 23.4198 8.148C23.6678 7.996 23.8598 7.788 23.9958 7.524C24.1398 7.26 24.2118 6.956 24.2118 6.612V5.244C24.2118 4.748 24.1118 4.392 23.9118 4.176C23.7118 3.952 23.3838 3.84 22.9278 3.84C22.5758 3.84 22.2358 3.892 21.9078 3.996C21.5798 4.092 21.2438 4.252 20.8998 4.476L20.5638 3.768C20.7718 3.624 21.0078 3.5 21.2718 3.396C21.5358 3.284 21.8118 3.2 22.0998 3.144C22.3878 3.088 22.6638 3.06 22.9278 3.06C23.4318 3.06 23.8478 3.144 24.1758 3.312C24.5038 3.472 24.7478 3.72 24.9078 4.056C25.0678 4.384 25.1478 4.808 25.1478 5.328V9H24.2358V7.644H24.3438C24.2798 7.948 24.1558 8.208 23.9718 8.424C23.7958 8.64 23.5758 8.808 23.3118 8.928C23.0478 9.048 22.7518 9.108 22.4238 9.108ZM27.0764 3.144L26.6324 2.784C26.7764 2.64 26.8844 2.5 26.9564 2.364C27.0364 2.228 27.0884 2.096 27.1124 1.968C27.1444 1.84 27.1604 1.708 27.1604 1.572L27.4604 1.764H26.5844V0.539999H27.8084V1.404C27.8084 1.62 27.7844 1.828 27.7364 2.028C27.6964 2.22 27.6244 2.408 27.5204 2.592C27.4164 2.776 27.2684 2.96 27.0764 3.144ZM31.0753 9.108C30.7713 9.108 30.4753 9.076 30.1873 9.012C29.9073 8.956 29.6433 8.876 29.3953 8.772C29.1553 8.66 28.9473 8.528 28.7713 8.376L29.0833 7.692C29.2753 7.844 29.4833 7.972 29.7073 8.076C29.9313 8.172 30.1593 8.244 30.3913 8.292C30.6233 8.34 30.8593 8.364 31.0993 8.364C31.5553 8.364 31.8993 8.28 32.1313 8.112C32.3633 7.944 32.4793 7.716 32.4793 7.428C32.4793 7.204 32.4033 7.028 32.2513 6.9C32.0993 6.764 31.8593 6.66 31.5313 6.588L30.4393 6.348C29.9353 6.244 29.5593 6.064 29.3113 5.808C29.0713 5.552 28.9513 5.22 28.9513 4.812C28.9513 4.452 29.0433 4.144 29.2273 3.888C29.4193 3.624 29.6873 3.42 30.0313 3.276C30.3753 3.132 30.7753 3.06 31.2313 3.06C31.5033 3.06 31.7633 3.088 32.0113 3.144C32.2593 3.2 32.4913 3.284 32.7073 3.396C32.9313 3.5 33.1233 3.632 33.2833 3.792L32.9593 4.476C32.8073 4.332 32.6353 4.212 32.4433 4.116C32.2513 4.012 32.0513 3.936 31.8433 3.888C31.6433 3.832 31.4393 3.804 31.2313 3.804C30.7833 3.804 30.4433 3.892 30.2113 4.068C29.9793 4.244 29.8633 4.476 29.8633 4.764C29.8633 4.988 29.9353 5.172 30.0793 5.316C30.2233 5.46 30.4473 5.564 30.7513 5.628L31.8433 5.856C32.3633 5.968 32.7513 6.148 33.0073 6.396C33.2713 6.636 33.4033 6.964 33.4033 7.38C33.4033 7.732 33.3073 8.04 33.1153 8.304C32.9233 8.56 32.6513 8.76 32.2993 8.904C31.9553 9.04 31.5473 9.108 31.0753 9.108ZM38.0987 9V0.539999H43.3307V1.368H39.0827V4.32H43.0907V5.148H39.0827V9H38.0987ZM44.4209 1.716V0.624H45.6209V1.716H44.4209ZM44.5409 9V3.168H45.5129V9H44.5409ZM47.33 9V3.168H48.278V4.548H48.158C48.294 4.076 48.53 3.72 48.866 3.48C49.202 3.232 49.646 3.088 50.198 3.048L50.546 3.012L50.618 3.852L50.006 3.924C49.462 3.972 49.042 4.148 48.746 4.452C48.458 4.748 48.314 5.156 48.314 5.676V9H47.33ZM53.5402 9.108C53.2362 9.108 52.9402 9.076 52.6522 9.012C52.3722 8.956 52.1082 8.876 51.8602 8.772C51.6202 8.66 51.4122 8.528 51.2362 8.376L51.5482 7.692C51.7402 7.844 51.9482 7.972 52.1722 8.076C52.3962 8.172 52.6242 8.244 52.8562 8.292C53.0882 8.34 53.3242 8.364 53.5642 8.364C54.0202 8.364 54.3642 8.28 54.5962 8.112C54.8282 7.944 54.9442 7.716 54.9442 7.428C54.9442 7.204 54.8682 7.028 54.7162 6.9C54.5642 6.764 54.3242 6.66 53.9962 6.588L52.9042 6.348C52.4002 6.244 52.0242 6.064 51.7762 5.808C51.5362 5.552 51.4162 5.22 51.4162 4.812C51.4162 4.452 51.5082 4.144 51.6922 3.888C51.8842 3.624 52.1522 3.42 52.4962 3.276C52.8402 3.132 53.2402 3.06 53.6962 3.06C53.9682 3.06 54.2282 3.088 54.4762 3.144C54.7242 3.2 54.9562 3.284 55.1722 3.396C55.3962 3.5 55.5882 3.632 55.7482 3.792L55.4242 4.476C55.2722 4.332 55.1002 4.212 54.9082 4.116C54.7162 4.012 54.5162 3.936 54.3082 3.888C54.1082 3.832 53.9042 3.804 53.6962 3.804C53.2482 3.804 52.9082 3.892 52.6762 4.068C52.4442 4.244 52.3282 4.476 52.3282 4.764C52.3282 4.988 52.4002 5.172 52.5442 5.316C52.6882 5.46 52.9122 5.564 53.2162 5.628L54.3082 5.856C54.8282 5.968 55.2162 6.148 55.4722 6.396C55.7362 6.636 55.8682 6.964 55.8682 7.38C55.8682 7.732 55.7722 8.04 55.5802 8.304C55.3882 8.56 55.1162 8.76 54.7642 8.904C54.4202 9.04 54.0122 9.108 53.5402 9.108ZM59.6309 9.108C58.9429 9.108 58.4269 8.924 58.0829 8.556C57.7389 8.188 57.5669 7.664 57.5669 6.984V3.924H56.4269V3.168H57.5669V1.38H58.5389V3.168H60.3869V3.924H58.5389V6.888C58.5389 7.344 58.6349 7.692 58.8269 7.932C59.0189 8.164 59.3309 8.28 59.7629 8.28C59.8909 8.28 60.0189 8.264 60.1469 8.232C60.2749 8.2 60.3909 8.168 60.4949 8.136L60.6629 8.88C60.5589 8.936 60.4069 8.988 60.2069 9.036C60.0069 9.084 59.8149 9.108 59.6309 9.108ZM64.7363 9V8.256L67.6283 5.136C67.9003 4.84 68.1203 4.564 68.2883 4.308C68.4563 4.044 68.5803 3.788 68.6603 3.54C68.7403 3.292 68.7803 3.04 68.7803 2.784C68.7803 2.304 68.6323 1.94 68.3363 1.692C68.0483 1.436 67.6243 1.308 67.0643 1.308C66.6323 1.308 66.2283 1.388 65.8523 1.548C65.4843 1.7 65.1323 1.94 64.7963 2.268L64.4243 1.5C64.7363 1.18 65.1323 0.924 65.6123 0.732C66.1003 0.532 66.6123 0.431999 67.1483 0.431999C67.7163 0.431999 68.1963 0.52 68.5883 0.696C68.9803 0.872 69.2763 1.132 69.4763 1.476C69.6763 1.812 69.7763 2.224 69.7763 2.712C69.7763 2.968 69.7443 3.22 69.6803 3.468C69.6243 3.708 69.5323 3.952 69.4043 4.2C69.2843 4.44 69.1283 4.688 68.9363 4.944C68.7523 5.2 68.5283 5.464 68.2643 5.736L65.7203 8.436V8.16H70.1243V9H64.7363ZM74.6316 9.108C74.2716 9.108 73.9196 9.068 73.5756 8.988C73.2316 8.908 72.9076 8.792 72.6036 8.64C72.3076 8.488 72.0436 8.308 71.8116 8.1L72.1836 7.32C72.5676 7.632 72.9556 7.864 73.3476 8.016C73.7476 8.16 74.1716 8.232 74.6196 8.232C75.2116 8.232 75.6716 8.068 75.9996 7.74C76.3356 7.412 76.5036 6.98 76.5036 6.444C76.5036 5.892 76.3436 5.44 76.0236 5.088C75.7036 4.736 75.2636 4.56 74.7036 4.56C74.2956 4.56 73.9356 4.644 73.6236 4.812C73.3196 4.972 73.0436 5.224 72.7956 5.568H72.0756V0.539999H76.9836V1.38H73.0476V4.752H72.7836C72.9916 4.416 73.2796 4.16 73.6476 3.984C74.0156 3.8 74.4276 3.708 74.8836 3.708C75.4196 3.708 75.8796 3.82 76.2636 4.044C76.6556 4.268 76.9556 4.584 77.1636 4.992C77.3796 5.392 77.4876 5.86 77.4876 6.396C77.4876 6.924 77.3716 7.392 77.1396 7.8C76.9076 8.208 76.5796 8.528 76.1556 8.76C75.7316 8.992 75.2236 9.108 74.6316 9.108ZM81.6469 9.108C81.0069 9.108 80.4629 8.944 80.0149 8.616C79.5749 8.28 79.2429 7.788 79.0189 7.14C78.7949 6.492 78.6829 5.7 78.6829 4.764C78.6829 3.82 78.7949 3.028 79.0189 2.388C79.2429 1.74 79.5749 1.252 80.0149 0.924C80.4629 0.595999 81.0069 0.431999 81.6469 0.431999C82.2949 0.431999 82.8389 0.595999 83.2789 0.924C83.7189 1.252 84.0509 1.736 84.2749 2.376C84.4989 3.016 84.6109 3.808 84.6109 4.752C84.6109 5.696 84.4989 6.492 84.2749 7.14C84.0509 7.788 83.7189 8.28 83.2789 8.616C82.8389 8.944 82.2949 9.108 81.6469 9.108ZM81.6469 8.256C82.3189 8.256 82.8149 7.972 83.1349 7.404C83.4629 6.836 83.6269 5.952 83.6269 4.752C83.6269 3.552 83.4669 2.676 83.1469 2.124C82.8269 1.564 82.3269 1.284 81.6469 1.284C80.9829 1.284 80.4869 1.564 80.1589 2.124C79.8309 2.684 79.6669 3.56 79.6669 4.752C79.6669 5.952 79.8269 6.836 80.1469 7.404C80.4749 7.972 80.9749 8.256 81.6469 8.256ZM86.1782 9V3.168H87.1262V4.464H86.9942C87.0902 4.168 87.2302 3.916 87.4142 3.708C87.6062 3.492 87.8302 3.332 88.0862 3.228C88.3502 3.116 88.6382 3.06 88.9502 3.06C89.4462 3.06 89.8462 3.18 90.1502 3.42C90.4622 3.652 90.6702 4.016 90.7742 4.512H90.5942C90.7382 4.064 90.9942 3.712 91.3622 3.456C91.7382 3.192 92.1742 3.06 92.6702 3.06C93.1102 3.06 93.4702 3.144 93.7502 3.312C94.0382 3.48 94.2542 3.736 94.3982 4.08C94.5422 4.416 94.6142 4.844 94.6142 5.364V9H93.6422V5.412C93.6422 4.876 93.5502 4.484 93.3662 4.236C93.1822 3.98 92.8702 3.852 92.4302 3.852C92.1182 3.852 91.8422 3.928 91.6022 4.08C91.3702 4.232 91.1902 4.448 91.0622 4.728C90.9422 5 90.8822 5.324 90.8822 5.7V9H89.9102V5.412C89.9102 4.876 89.8142 4.484 89.6222 4.236C89.4382 3.98 89.1302 3.852 88.6982 3.852C88.3782 3.852 88.1022 3.928 87.8702 4.08C87.6382 4.232 87.4582 4.448 87.3302 4.728C87.2102 5 87.1502 5.324 87.1502 5.7V9H86.1782ZM98.2195 9.108C97.6275 9.108 97.1795 8.932 96.8755 8.58C96.5795 8.228 96.4315 7.724 96.4315 7.068V0.539999H97.4035V6.996C97.4035 7.276 97.4395 7.512 97.5115 7.704C97.5915 7.896 97.7075 8.04 97.8595 8.136C98.0115 8.232 98.1995 8.28 98.4235 8.28C98.5195 8.28 98.6115 8.276 98.6995 8.268C98.7955 8.252 98.8835 8.232 98.9635 8.208L98.9395 9.024C98.8115 9.048 98.6875 9.068 98.5675 9.084C98.4555 9.1 98.3395 9.108 98.2195 9.108ZM103.196 9V0.539999H104.18V8.136H108.488V9H103.196ZM112.149 9.108C111.533 9.108 111.001 8.988 110.553 8.748C110.113 8.5 109.769 8.152 109.521 7.704C109.281 7.256 109.161 6.72 109.161 6.096C109.161 5.488 109.281 4.96 109.521 4.512C109.761 4.056 110.089 3.7 110.505 3.444C110.929 3.188 111.417 3.06 111.969 3.06C112.497 3.06 112.949 3.176 113.325 3.408C113.701 3.64 113.989 3.968 114.189 4.392C114.397 4.816 114.501 5.324 114.501 5.916V6.288H109.905V5.652H113.853L113.661 5.808C113.661 5.168 113.517 4.672 113.229 4.32C112.949 3.96 112.537 3.78 111.993 3.78C111.585 3.78 111.237 3.876 110.949 4.068C110.669 4.252 110.457 4.512 110.313 4.848C110.169 5.176 110.097 5.56 110.097 6V6.072C110.097 6.56 110.173 6.972 110.325 7.308C110.485 7.644 110.721 7.9 111.033 8.076C111.345 8.244 111.717 8.328 112.149 8.328C112.493 8.328 112.825 8.276 113.145 8.172C113.473 8.06 113.781 7.88 114.069 7.632L114.405 8.316C114.141 8.556 113.805 8.748 113.397 8.892C112.989 9.036 112.573 9.108 112.149 9.108ZM117.744 9.108C117.344 9.108 116.984 9.032 116.664 8.88C116.352 8.72 116.104 8.504 115.92 8.232C115.736 7.96 115.644 7.656 115.644 7.32C115.644 6.888 115.752 6.548 115.968 6.3C116.192 6.052 116.556 5.876 117.06 5.772C117.572 5.668 118.268 5.616 119.148 5.616H119.688V6.252H119.16C118.672 6.252 118.264 6.268 117.936 6.3C117.608 6.332 117.348 6.388 117.156 6.468C116.964 6.548 116.828 6.652 116.748 6.78C116.668 6.908 116.628 7.068 116.628 7.26C116.628 7.588 116.74 7.856 116.964 8.064C117.196 8.272 117.508 8.376 117.9 8.376C118.22 8.376 118.5 8.3 118.74 8.148C118.988 7.996 119.18 7.788 119.316 7.524C119.46 7.26 119.532 6.956 119.532 6.612V5.244C119.532 4.748 119.432 4.392 119.232 4.176C119.032 3.952 118.704 3.84 118.248 3.84C117.896 3.84 117.556 3.892 117.228 3.996C116.9 4.092 116.564 4.252 116.22 4.476L115.884 3.768C116.092 3.624 116.328 3.5 116.592 3.396C116.856 3.284 117.132 3.2 117.42 3.144C117.708 3.088 117.984 3.06 118.248 3.06C118.752 3.06 119.168 3.144 119.496 3.312C119.824 3.472 120.068 3.72 120.228 4.056C120.388 4.384 120.468 4.808 120.468 5.328V9H119.556V7.644H119.664C119.6 7.948 119.476 8.208 119.292 8.424C119.116 8.64 118.896 8.808 118.632 8.928C118.368 9.048 118.072 9.108 117.744 9.108ZM122.271 9V0.539999H123.243V5.76H123.267L125.967 3.168H127.203L123.999 6.24V5.712L127.455 9H126.219L123.267 6.264H123.243V9H122.271ZM127.872 6.204V5.4H131.232V6.204H127.872ZM133.138 9V0.539999H136.486C137.094 0.539999 137.606 0.64 138.022 0.84C138.446 1.032 138.766 1.32 138.982 1.704C139.198 2.08 139.306 2.54 139.306 3.084C139.306 3.612 139.198 4.068 138.982 4.452C138.766 4.836 138.446 5.128 138.022 5.328C137.606 5.528 137.094 5.628 136.486 5.628H134.122V9H133.138ZM134.122 4.8H136.366C137.014 4.8 137.502 4.656 137.83 4.368C138.166 4.072 138.334 3.644 138.334 3.084C138.334 2.516 138.166 2.088 137.83 1.8C137.502 1.504 137.014 1.356 136.366 1.356H134.122V4.8ZM140.482 9V3.168H141.43V4.548H141.31C141.446 4.076 141.682 3.72 142.018 3.48C142.354 3.232 142.798 3.088 143.35 3.048L143.698 3.012L143.77 3.852L143.158 3.924C142.614 3.972 142.194 4.148 141.898 4.452C141.61 4.748 141.466 5.156 141.466 5.676V9H140.482ZM147.137 9.108C146.569 9.108 146.077 8.984 145.661 8.736C145.245 8.488 144.921 8.14 144.689 7.692C144.465 7.236 144.353 6.7 144.353 6.084C144.353 5.468 144.465 4.936 144.689 4.488C144.921 4.032 145.245 3.68 145.661 3.432C146.077 3.184 146.569 3.06 147.137 3.06C147.705 3.06 148.197 3.184 148.613 3.432C149.029 3.68 149.349 4.032 149.573 4.488C149.805 4.936 149.921 5.468 149.921 6.084C149.921 6.7 149.805 7.236 149.573 7.692C149.349 8.14 149.029 8.488 148.613 8.736C148.197 8.984 147.705 9.108 147.137 9.108ZM147.137 8.328C147.689 8.328 148.125 8.136 148.445 7.752C148.773 7.36 148.937 6.8 148.937 6.072C148.937 5.352 148.773 4.8 148.445 4.416C148.125 4.032 147.689 3.84 147.137 3.84C146.593 3.84 146.157 4.032 145.829 4.416C145.501 4.8 145.337 5.352 145.337 6.072C145.337 6.8 145.501 7.36 145.829 7.752C146.157 8.136 146.593 8.328 147.137 8.328ZM153.805 9.108C153.237 9.108 152.745 8.984 152.329 8.736C151.913 8.488 151.589 8.14 151.357 7.692C151.133 7.236 151.021 6.7 151.021 6.084C151.021 5.468 151.133 4.936 151.357 4.488C151.589 4.032 151.913 3.68 152.329 3.432C152.745 3.184 153.237 3.06 153.805 3.06C154.373 3.06 154.865 3.184 155.281 3.432C155.697 3.68 156.017 4.032 156.241 4.488C156.473 4.936 156.589 5.468 156.589 6.084C156.589 6.7 156.473 7.236 156.241 7.692C156.017 8.14 155.697 8.488 155.281 8.736C154.865 8.984 154.373 9.108 153.805 9.108ZM153.805 8.328C154.357 8.328 154.793 8.136 155.113 7.752C155.441 7.36 155.605 6.8 155.605 6.072C155.605 5.352 155.441 4.8 155.113 4.416C154.793 4.032 154.357 3.84 153.805 3.84C153.261 3.84 152.825 4.032 152.497 4.416C152.169 4.8 152.005 5.352 152.005 6.072C152.005 6.8 152.169 7.36 152.497 7.752C152.825 8.136 153.261 8.328 153.805 8.328ZM158.302 9V3.924H157.15V3.168H158.566L158.302 3.42V2.964C158.302 2.188 158.494 1.6 158.878 1.2C159.27 0.799999 159.87 0.575999 160.678 0.528L161.146 0.504L161.23 1.248L160.678 1.284C160.35 1.308 160.082 1.38 159.874 1.5C159.666 1.62 159.514 1.792 159.418 2.016C159.322 2.24 159.274 2.516 159.274 2.844V3.348L159.13 3.168H160.954V3.924H159.274V9H158.302ZM164.108 9.084L164.036 8.256L164.756 8.208C165.036 8.184 165.268 8.116 165.452 8.004C165.636 7.884 165.776 7.716 165.872 7.5C165.968 7.284 166.016 7.032 166.016 6.744V0.539999H167V6.756C167 7.212 166.92 7.608 166.76 7.944C166.6 8.272 166.364 8.528 166.052 8.712C165.74 8.896 165.352 9.004 164.888 9.036L164.108 9.084ZM171.023 9.108C170.551 9.108 170.159 9.024 169.847 8.856C169.543 8.68 169.311 8.42 169.151 8.076C168.999 7.732 168.923 7.304 168.923 6.792V3.168H169.895V6.78C169.895 7.124 169.939 7.412 170.027 7.644C170.123 7.868 170.271 8.036 170.471 8.148C170.671 8.252 170.919 8.304 171.215 8.304C171.551 8.304 171.843 8.228 172.091 8.076C172.339 7.924 172.535 7.712 172.679 7.44C172.823 7.168 172.895 6.848 172.895 6.48V3.168H173.867V9H172.919V7.656H173.075C172.915 8.128 172.651 8.488 172.283 8.736C171.923 8.984 171.503 9.108 171.023 9.108ZM175.565 1.716V0.624H176.765V1.716H175.565ZM175.685 9V3.168H176.657V9H175.685ZM180.947 9.108C180.363 9.108 179.859 8.98 179.435 8.724C179.011 8.468 178.683 8.112 178.451 7.656C178.227 7.192 178.115 6.656 178.115 6.048C178.115 5.432 178.227 4.9 178.451 4.452C178.683 4.004 179.011 3.66 179.435 3.42C179.859 3.18 180.363 3.06 180.947 3.06C181.307 3.06 181.663 3.124 182.015 3.252C182.367 3.38 182.659 3.56 182.891 3.792L182.555 4.5C182.323 4.276 182.067 4.112 181.787 4.008C181.515 3.904 181.255 3.852 181.007 3.852C180.399 3.852 179.931 4.044 179.603 4.428C179.275 4.804 179.111 5.348 179.111 6.06C179.111 6.756 179.275 7.308 179.603 7.716C179.931 8.116 180.399 8.316 181.007 8.316C181.255 8.316 181.515 8.264 181.787 8.16C182.067 8.056 182.323 7.888 182.555 7.656L182.891 8.364C182.659 8.596 182.363 8.78 182.003 8.916C181.651 9.044 181.299 9.108 180.947 9.108ZM186.54 9.108C185.924 9.108 185.392 8.988 184.944 8.748C184.504 8.5 184.16 8.152 183.912 7.704C183.672 7.256 183.552 6.72 183.552 6.096C183.552 5.488 183.672 4.96 183.912 4.512C184.152 4.056 184.48 3.7 184.896 3.444C185.32 3.188 185.808 3.06 186.36 3.06C186.888 3.06 187.34 3.176 187.716 3.408C188.092 3.64 188.38 3.968 188.58 4.392C188.788 4.816 188.892 5.324 188.892 5.916V6.288H184.296V5.652H188.244L188.052 5.808C188.052 5.168 187.908 4.672 187.62 4.32C187.34 3.96 186.928 3.78 186.384 3.78C185.976 3.78 185.628 3.876 185.34 4.068C185.06 4.252 184.848 4.512 184.704 4.848C184.56 5.176 184.488 5.56 184.488 6V6.072C184.488 6.56 184.564 6.972 184.716 7.308C184.876 7.644 185.112 7.9 185.424 8.076C185.736 8.244 186.108 8.328 186.54 8.328C186.884 8.328 187.216 8.276 187.536 8.172C187.864 8.06 188.172 7.88 188.46 7.632L188.796 8.316C188.532 8.556 188.196 8.748 187.788 8.892C187.38 9.036 186.964 9.108 186.54 9.108ZM197.377 9.108C196.473 9.108 195.709 8.936 195.085 8.592C194.469 8.248 194.001 7.752 193.681 7.104C193.361 6.456 193.201 5.68 193.201 4.776C193.201 3.88 193.361 3.108 193.681 2.46C194.001 1.812 194.461 1.312 195.061 0.96C195.661 0.608 196.385 0.431999 197.233 0.431999C197.633 0.431999 198.009 0.471999 198.361 0.551999C198.721 0.632 199.053 0.752 199.357 0.912C199.669 1.064 199.941 1.256 200.173 1.488L199.789 2.28C199.405 1.944 199.009 1.7 198.601 1.548C198.193 1.396 197.733 1.32 197.221 1.32C196.253 1.32 195.513 1.62 195.001 2.22C194.497 2.82 194.245 3.672 194.245 4.776C194.245 5.896 194.505 6.752 195.025 7.344C195.553 7.936 196.345 8.232 197.401 8.232C197.785 8.232 198.161 8.196 198.529 8.124C198.897 8.044 199.245 7.936 199.573 7.8L199.357 8.364V5.376H197.209V4.596H200.209V8.508C199.993 8.62 199.725 8.724 199.405 8.82C199.085 8.908 198.749 8.976 198.397 9.024C198.045 9.08 197.705 9.108 197.377 9.108ZM203.876 9.108C203.284 9.108 202.836 8.932 202.532 8.58C202.236 8.228 202.088 7.724 202.088 7.068V0.539999H203.06V6.996C203.06 7.276 203.096 7.512 203.168 7.704C203.248 7.896 203.364 8.04 203.516 8.136C203.668 8.232 203.856 8.28 204.08 8.28C204.176 8.28 204.268 8.276 204.356 8.268C204.452 8.252 204.54 8.232 204.62 8.208L204.596 9.024C204.468 9.048 204.344 9.068 204.224 9.084C204.112 9.1 203.996 9.108 203.876 9.108ZM207.475 9.108C207.075 9.108 206.715 9.032 206.395 8.88C206.083 8.72 205.835 8.504 205.651 8.232C205.467 7.96 205.375 7.656 205.375 7.32C205.375 6.888 205.483 6.548 205.699 6.3C205.923 6.052 206.287 5.876 206.791 5.772C207.303 5.668 207.999 5.616 208.879 5.616H209.419V6.252H208.891C208.403 6.252 207.995 6.268 207.667 6.3C207.339 6.332 207.079 6.388 206.887 6.468C206.695 6.548 206.559 6.652 206.479 6.78C206.399 6.908 206.359 7.068 206.359 7.26C206.359 7.588 206.471 7.856 206.695 8.064C206.927 8.272 207.239 8.376 207.631 8.376C207.951 8.376 208.231 8.3 208.471 8.148C208.719 7.996 208.911 7.788 209.047 7.524C209.191 7.26 209.263 6.956 209.263 6.612V5.244C209.263 4.748 209.163 4.392 208.963 4.176C208.763 3.952 208.435 3.84 207.979 3.84C207.627 3.84 207.287 3.892 206.959 3.996C206.631 4.092 206.295 4.252 205.951 4.476L205.615 3.768C205.823 3.624 206.059 3.5 206.323 3.396C206.587 3.284 206.863 3.2 207.151 3.144C207.439 3.088 207.715 3.06 207.979 3.06C208.483 3.06 208.899 3.144 209.227 3.312C209.555 3.472 209.799 3.72 209.959 4.056C210.119 4.384 210.199 4.808 210.199 5.328V9H209.287V7.644H209.395C209.331 7.948 209.207 8.208 209.023 8.424C208.847 8.64 208.627 8.808 208.363 8.928C208.099 9.048 207.803 9.108 207.475 9.108ZM213.97 9.108C213.666 9.108 213.37 9.076 213.082 9.012C212.802 8.956 212.538 8.876 212.29 8.772C212.05 8.66 211.842 8.528 211.666 8.376L211.978 7.692C212.17 7.844 212.378 7.972 212.602 8.076C212.826 8.172 213.054 8.244 213.286 8.292C213.518 8.34 213.754 8.364 213.994 8.364C214.45 8.364 214.794 8.28 215.026 8.112C215.258 7.944 215.374 7.716 215.374 7.428C215.374 7.204 215.298 7.028 215.146 6.9C214.994 6.764 214.754 6.66 214.426 6.588L213.334 6.348C212.83 6.244 212.454 6.064 212.206 5.808C211.966 5.552 211.846 5.22 211.846 4.812C211.846 4.452 211.938 4.144 212.122 3.888C212.314 3.624 212.582 3.42 212.926 3.276C213.27 3.132 213.67 3.06 214.126 3.06C214.398 3.06 214.658 3.088 214.906 3.144C215.154 3.2 215.386 3.284 215.602 3.396C215.826 3.5 216.018 3.632 216.178 3.792L215.854 4.476C215.702 4.332 215.53 4.212 215.338 4.116C215.146 4.012 214.946 3.936 214.738 3.888C214.538 3.832 214.334 3.804 214.126 3.804C213.678 3.804 213.338 3.892 213.106 4.068C212.874 4.244 212.758 4.476 212.758 4.764C212.758 4.988 212.83 5.172 212.974 5.316C213.118 5.46 213.342 5.564 213.646 5.628L214.738 5.856C215.258 5.968 215.646 6.148 215.902 6.396C216.166 6.636 216.298 6.964 216.298 7.38C216.298 7.732 216.202 8.04 216.01 8.304C215.818 8.56 215.546 8.76 215.194 8.904C214.85 9.04 214.442 9.108 213.97 9.108ZM219.747 9.108C219.443 9.108 219.147 9.076 218.859 9.012C218.579 8.956 218.315 8.876 218.067 8.772C217.827 8.66 217.619 8.528 217.443 8.376L217.755 7.692C217.947 7.844 218.155 7.972 218.379 8.076C218.603 8.172 218.831 8.244 219.063 8.292C219.295 8.34 219.531 8.364 219.771 8.364C220.227 8.364 220.571 8.28 220.803 8.112C221.035 7.944 221.151 7.716 221.151 7.428C221.151 7.204 221.075 7.028 220.923 6.9C220.771 6.764 220.531 6.66 220.203 6.588L219.111 6.348C218.607 6.244 218.231 6.064 217.983 5.808C217.743 5.552 217.623 5.22 217.623 4.812C217.623 4.452 217.715 4.144 217.899 3.888C218.091 3.624 218.359 3.42 218.703 3.276C219.047 3.132 219.447 3.06 219.903 3.06C220.175 3.06 220.435 3.088 220.683 3.144C220.931 3.2 221.163 3.284 221.379 3.396C221.603 3.5 221.795 3.632 221.955 3.792L221.631 4.476C221.479 4.332 221.307 4.212 221.115 4.116C220.923 4.012 220.723 3.936 220.515 3.888C220.315 3.832 220.111 3.804 219.903 3.804C219.455 3.804 219.115 3.892 218.883 4.068C218.651 4.244 218.535 4.476 218.535 4.764C218.535 4.988 218.607 5.172 218.751 5.316C218.895 5.46 219.119 5.564 219.423 5.628L220.515 5.856C221.035 5.968 221.423 6.148 221.679 6.396C221.943 6.636 222.075 6.964 222.075 7.38C222.075 7.732 221.979 8.04 221.787 8.304C221.595 8.56 221.323 8.76 220.971 8.904C220.627 9.04 220.219 9.108 219.747 9.108ZM229.051 9L226.087 0.539999H227.119L229.723 8.16H229.303L231.955 0.539999H232.747L235.363 8.16H234.991L237.607 0.539999H238.591L235.627 9H234.751L232.207 1.68H232.471L229.903 9H229.051ZM239.726 1.716V0.624H240.926V1.716H239.726ZM239.846 9V3.168H240.818V9H239.846ZM244.975 9.108C244.287 9.108 243.771 8.924 243.427 8.556C243.083 8.188 242.911 7.664 242.911 6.984V3.924H241.771V3.168H242.911V1.38H243.883V3.168H245.731V3.924H243.883V6.888C243.883 7.344 243.979 7.692 244.171 7.932C244.363 8.164 244.675 8.28 245.107 8.28C245.235 8.28 245.363 8.264 245.491 8.232C245.619 8.2 245.735 8.168 245.839 8.136L246.007 8.88C245.903 8.936 245.751 8.988 245.551 9.036C245.351 9.084 245.159 9.108 244.975 9.108ZM246.83 9V0.539999H247.802V4.464H247.646C247.814 4 248.086 3.652 248.462 3.42C248.846 3.18 249.286 3.06 249.782 3.06C250.246 3.06 250.63 3.144 250.934 3.312C251.246 3.48 251.478 3.736 251.63 4.08C251.782 4.416 251.858 4.844 251.858 5.364V9H250.886V5.424C250.886 5.064 250.838 4.768 250.742 4.536C250.654 4.304 250.51 4.132 250.31 4.02C250.118 3.908 249.866 3.852 249.554 3.852C249.202 3.852 248.894 3.928 248.63 4.08C248.366 4.232 248.162 4.444 248.018 4.716C247.874 4.988 247.802 5.308 247.802 5.676V9H246.83ZM259.6 9.108C259.16 9.108 258.744 9.068 258.352 8.988C257.968 8.908 257.612 8.796 257.284 8.652C256.964 8.5 256.672 8.316 256.408 8.1L256.756 7.308C257.028 7.508 257.304 7.68 257.584 7.824C257.872 7.96 258.18 8.064 258.508 8.136C258.844 8.2 259.208 8.232 259.6 8.232C260.32 8.232 260.852 8.1 261.196 7.836C261.548 7.564 261.724 7.208 261.724 6.768C261.724 6.536 261.668 6.336 261.556 6.168C261.452 6 261.276 5.856 261.028 5.736C260.788 5.616 260.472 5.516 260.08 5.436L258.832 5.184C258.08 5.024 257.516 4.764 257.14 4.404C256.772 4.036 256.588 3.548 256.588 2.94C256.588 2.436 256.716 1.996 256.972 1.62C257.236 1.244 257.6 0.951999 258.064 0.744C258.536 0.536 259.072 0.431999 259.672 0.431999C260.056 0.431999 260.42 0.471999 260.764 0.551999C261.108 0.632 261.424 0.752 261.712 0.912C262.008 1.064 262.268 1.252 262.492 1.476L262.144 2.244C261.784 1.916 261.404 1.68 261.004 1.536C260.604 1.384 260.156 1.308 259.66 1.308C259.236 1.308 258.868 1.372 258.556 1.5C258.252 1.628 258.012 1.816 257.836 2.064C257.668 2.304 257.584 2.584 257.584 2.904C257.584 3.288 257.7 3.592 257.932 3.816C258.172 4.04 258.56 4.204 259.096 4.308L260.344 4.572C261.152 4.74 261.748 4.996 262.132 5.34C262.524 5.676 262.72 6.136 262.72 6.72C262.72 7.184 262.592 7.6 262.336 7.968C262.088 8.328 261.728 8.608 261.256 8.808C260.792 9.008 260.24 9.108 259.6 9.108ZM266.743 9.108C266.127 9.108 265.595 8.988 265.147 8.748C264.707 8.5 264.363 8.152 264.115 7.704C263.875 7.256 263.755 6.72 263.755 6.096C263.755 5.488 263.875 4.96 264.115 4.512C264.355 4.056 264.683 3.7 265.099 3.444C265.523 3.188 266.011 3.06 266.563 3.06C267.091 3.06 267.543 3.176 267.919 3.408C268.295 3.64 268.583 3.968 268.783 4.392C268.991 4.816 269.095 5.324 269.095 5.916V6.288H264.499V5.652H268.447L268.255 5.808C268.255 5.168 268.111 4.672 267.823 4.32C267.543 3.96 267.131 3.78 266.587 3.78C266.179 3.78 265.831 3.876 265.543 4.068C265.263 4.252 265.051 4.512 264.907 4.848C264.763 5.176 264.691 5.56 264.691 6V6.072C264.691 6.56 264.767 6.972 264.919 7.308C265.079 7.644 265.315 7.9 265.627 8.076C265.939 8.244 266.311 8.328 266.743 8.328C267.087 8.328 267.419 8.276 267.739 8.172C268.067 8.06 268.375 7.88 268.663 7.632L268.999 8.316C268.735 8.556 268.399 8.748 267.991 8.892C267.583 9.036 267.167 9.108 266.743 9.108ZM272.338 9.108C271.938 9.108 271.578 9.032 271.258 8.88C270.946 8.72 270.698 8.504 270.514 8.232C270.33 7.96 270.238 7.656 270.238 7.32C270.238 6.888 270.346 6.548 270.562 6.3C270.786 6.052 271.15 5.876 271.654 5.772C272.166 5.668 272.862 5.616 273.742 5.616H274.282V6.252H273.754C273.266 6.252 272.858 6.268 272.53 6.3C272.202 6.332 271.942 6.388 271.75 6.468C271.558 6.548 271.422 6.652 271.342 6.78C271.262 6.908 271.222 7.068 271.222 7.26C271.222 7.588 271.334 7.856 271.558 8.064C271.79 8.272 272.102 8.376 272.494 8.376C272.814 8.376 273.094 8.3 273.334 8.148C273.582 7.996 273.774 7.788 273.91 7.524C274.054 7.26 274.126 6.956 274.126 6.612V5.244C274.126 4.748 274.026 4.392 273.826 4.176C273.626 3.952 273.298 3.84 272.842 3.84C272.49 3.84 272.15 3.892 271.822 3.996C271.494 4.092 271.158 4.252 270.814 4.476L270.478 3.768C270.686 3.624 270.922 3.5 271.186 3.396C271.45 3.284 271.726 3.2 272.014 3.144C272.302 3.088 272.578 3.06 272.842 3.06C273.346 3.06 273.762 3.144 274.09 3.312C274.418 3.472 274.662 3.72 274.822 4.056C274.982 4.384 275.062 4.808 275.062 5.328V9H274.15V7.644H274.258C274.194 7.948 274.07 8.208 273.886 8.424C273.71 8.64 273.49 8.808 273.226 8.928C272.962 9.048 272.666 9.108 272.338 9.108ZM278.653 9.108C278.061 9.108 277.613 8.932 277.309 8.58C277.013 8.228 276.865 7.724 276.865 7.068V0.539999H277.837V6.996C277.837 7.276 277.873 7.512 277.945 7.704C278.025 7.896 278.141 8.04 278.293 8.136C278.445 8.232 278.633 8.28 278.857 8.28C278.953 8.28 279.045 8.276 279.133 8.268C279.229 8.252 279.317 8.232 279.397 8.208L279.373 9.024C279.245 9.048 279.121 9.068 279.001 9.084C278.889 9.1 278.773 9.108 278.653 9.108ZM280.296 1.716V0.624H281.496V1.716H280.296ZM280.416 9V3.168H281.388V9H280.416ZM283.205 9V3.168H284.153V4.464H284.021C284.189 4 284.461 3.652 284.837 3.42C285.221 3.18 285.661 3.06 286.157 3.06C286.621 3.06 287.005 3.144 287.309 3.312C287.621 3.472 287.853 3.724 288.005 4.068C288.157 4.412 288.233 4.844 288.233 5.364V9H287.261V5.424C287.261 5.064 287.213 4.768 287.117 4.536C287.029 4.304 286.885 4.132 286.685 4.02C286.493 3.908 286.241 3.852 285.929 3.852C285.577 3.852 285.269 3.928 285.005 4.08C284.741 4.232 284.537 4.444 284.393 4.716C284.249 4.988 284.177 5.308 284.177 5.676V9H283.205ZM292.605 11.268C292.101 11.268 291.625 11.2 291.177 11.064C290.737 10.936 290.345 10.74 290.001 10.476L290.325 9.768C290.565 9.936 290.801 10.072 291.033 10.176C291.273 10.288 291.517 10.368 291.765 10.416C292.021 10.464 292.285 10.488 292.557 10.488C293.125 10.488 293.553 10.336 293.841 10.032C294.137 9.728 294.285 9.288 294.285 8.712V7.356H294.405C294.285 7.82 294.029 8.188 293.637 8.46C293.253 8.732 292.801 8.868 292.281 8.868C291.745 8.868 291.281 8.748 290.889 8.508C290.497 8.26 290.193 7.916 289.977 7.476C289.769 7.036 289.665 6.528 289.665 5.952C289.665 5.376 289.769 4.872 289.977 4.44C290.193 4 290.497 3.66 290.889 3.42C291.281 3.18 291.745 3.06 292.281 3.06C292.809 3.06 293.265 3.196 293.649 3.468C294.033 3.732 294.281 4.092 294.393 4.548H294.285V3.168H295.233V8.58C295.233 9.172 295.133 9.668 294.933 10.068C294.741 10.468 294.449 10.768 294.057 10.968C293.665 11.168 293.181 11.268 292.605 11.268ZM292.461 8.076C293.021 8.076 293.465 7.884 293.793 7.5C294.121 7.116 294.285 6.6 294.285 5.952C294.285 5.304 294.121 4.792 293.793 4.416C293.465 4.032 293.021 3.84 292.461 3.84C291.909 3.84 291.469 4.032 291.141 4.416C290.813 4.792 290.649 5.304 290.649 5.952C290.649 6.6 290.813 7.116 291.141 7.5C291.469 7.884 291.909 8.076 292.461 8.076ZM300.271 9V0.539999H301.255V8.136H305.563V9H300.271ZM306.534 1.716V0.624H307.734V1.716H306.534ZM306.654 9V3.168H307.626V9H306.654ZM311.663 9.108C311.143 9.108 310.687 8.984 310.295 8.736C309.911 8.488 309.611 8.14 309.395 7.692C309.187 7.236 309.083 6.7 309.083 6.084C309.083 5.46 309.187 4.924 309.395 4.476C309.611 4.02 309.911 3.672 310.295 3.432C310.687 3.184 311.143 3.06 311.663 3.06C312.191 3.06 312.643 3.192 313.019 3.456C313.395 3.72 313.647 4.076 313.775 4.524H313.643V0.539999H314.615V9H313.667V7.608H313.787C313.659 8.064 313.403 8.428 313.019 8.7C312.643 8.972 312.191 9.108 311.663 9.108ZM311.867 8.328C312.419 8.328 312.855 8.136 313.175 7.752C313.503 7.36 313.667 6.804 313.667 6.084C313.667 5.356 313.503 4.8 313.175 4.416C312.855 4.032 312.419 3.84 311.867 3.84C311.323 3.84 310.887 4.032 310.559 4.416C310.231 4.8 310.067 5.356 310.067 6.084C310.067 6.804 310.231 7.36 310.559 7.752C310.887 8.136 311.323 8.328 311.867 8.328ZM316.787 10.368L316.331 10.02C316.475 9.868 316.583 9.724 316.655 9.588C316.735 9.46 316.787 9.328 316.811 9.192C316.843 9.064 316.859 8.932 316.859 8.796L317.075 9H316.283V7.776H317.507V8.64C317.507 8.856 317.483 9.06 317.435 9.252C317.395 9.452 317.323 9.644 317.219 9.828C317.115 10.012 316.971 10.192 316.787 10.368ZM322.384 9V0.539999H327.616V1.368H323.368V4.32H327.376V5.148H323.368V9H322.384ZM331.027 9.108C330.459 9.108 329.967 8.984 329.551 8.736C329.135 8.488 328.811 8.14 328.579 7.692C328.355 7.236 328.243 6.7 328.243 6.084C328.243 5.468 328.355 4.936 328.579 4.488C328.811 4.032 329.135 3.68 329.551 3.432C329.967 3.184 330.459 3.06 331.027 3.06C331.595 3.06 332.087 3.184 332.503 3.432C332.919 3.68 333.239 4.032 333.463 4.488C333.695 4.936 333.811 5.468 333.811 6.084C333.811 6.7 333.695 7.236 333.463 7.692C333.239 8.14 332.919 8.488 332.503 8.736C332.087 8.984 331.595 9.108 331.027 9.108ZM331.027 8.328C331.579 8.328 332.015 8.136 332.335 7.752C332.663 7.36 332.827 6.8 332.827 6.072C332.827 5.352 332.663 4.8 332.335 4.416C332.015 4.032 331.579 3.84 331.027 3.84C330.483 3.84 330.047 4.032 329.719 4.416C329.391 4.8 329.227 5.352 329.227 6.072C329.227 6.8 329.391 7.36 329.719 7.752C330.047 8.136 330.483 8.328 331.027 8.328ZM337.695 9.108C337.127 9.108 336.635 8.984 336.219 8.736C335.803 8.488 335.479 8.14 335.247 7.692C335.023 7.236 334.911 6.7 334.911 6.084C334.911 5.468 335.023 4.936 335.247 4.488C335.479 4.032 335.803 3.68 336.219 3.432C336.635 3.184 337.127 3.06 337.695 3.06C338.263 3.06 338.755 3.184 339.171 3.432C339.587 3.68 339.907 4.032 340.131 4.488C340.363 4.936 340.479 5.468 340.479 6.084C340.479 6.7 340.363 7.236 340.131 7.692C339.907 8.14 339.587 8.488 339.171 8.736C338.755 8.984 338.263 9.108 337.695 9.108ZM337.695 8.328C338.247 8.328 338.683 8.136 339.003 7.752C339.331 7.36 339.495 6.8 339.495 6.072C339.495 5.352 339.331 4.8 339.003 4.416C338.683 4.032 338.247 3.84 337.695 3.84C337.151 3.84 336.715 4.032 336.387 4.416C336.059 4.8 335.895 5.352 335.895 6.072C335.895 6.8 336.059 7.36 336.387 7.752C336.715 8.136 337.151 8.328 337.695 8.328ZM344.159 9.108C343.639 9.108 343.183 8.984 342.791 8.736C342.407 8.488 342.107 8.14 341.891 7.692C341.683 7.236 341.579 6.7 341.579 6.084C341.579 5.46 341.683 4.924 341.891 4.476C342.107 4.02 342.407 3.672 342.791 3.432C343.183 3.184 343.639 3.06 344.159 3.06C344.687 3.06 345.139 3.192 345.515 3.456C345.891 3.72 346.143 4.076 346.271 4.524H346.139V0.539999H347.111V9H346.163V7.608H346.283C346.155 8.064 345.899 8.428 345.515 8.7C345.139 8.972 344.687 9.108 344.159 9.108ZM344.363 8.328C344.915 8.328 345.351 8.136 345.671 7.752C345.999 7.36 346.163 6.804 346.163 6.084C346.163 5.356 345.999 4.8 345.671 4.416C345.351 4.032 344.915 3.84 344.363 3.84C343.819 3.84 343.383 4.032 343.055 4.416C342.727 4.8 342.563 5.356 342.563 6.084C342.563 6.804 342.727 7.36 343.055 7.752C343.383 8.136 343.819 8.328 344.363 8.328ZM348.887 6.204V5.4H352.247V6.204H348.887ZM4.908 25.108C4.004 25.108 3.24 24.936 2.616 24.592C2 24.248 1.532 23.752 1.212 23.104C0.892 22.456 0.732 21.68 0.732 20.776C0.732 19.88 0.892 19.108 1.212 18.46C1.532 17.812 1.992 17.312 2.592 16.96C3.192 16.608 3.916 16.432 4.764 16.432C5.164 16.432 5.54 16.472 5.892 16.552C6.252 16.632 6.584 16.752 6.888 16.912C7.2 17.064 7.472 17.256 7.704 17.488L7.32 18.28C6.936 17.944 6.54 17.7 6.132 17.548C5.724 17.396 5.264 17.32 4.752 17.32C3.784 17.32 3.044 17.62 2.532 18.22C2.028 18.82 1.776 19.672 1.776 20.776C1.776 21.896 2.036 22.752 2.556 23.344C3.084 23.936 3.876 24.232 4.932 24.232C5.316 24.232 5.692 24.196 6.06 24.124C6.428 24.044 6.776 23.936 7.104 23.8L6.888 24.364V21.376H4.74V20.596H7.74V24.508C7.524 24.62 7.256 24.724 6.936 24.82C6.616 24.908 6.28 24.976 5.928 25.024C5.576 25.08 5.236 25.108 4.908 25.108ZM9.61903 25V19.168H10.567V20.548H10.447C10.583 20.076 10.819 19.72 11.155 19.48C11.491 19.232 11.935 19.088 12.487 19.048L12.835 19.012L12.907 19.852L12.295 19.924C11.751 19.972 11.331 20.148 11.035 20.452C10.747 20.748 10.603 21.156 10.603 21.676V25H9.61903ZM15.6972 25.108C15.2972 25.108 14.9372 25.032 14.6172 24.88C14.3052 24.72 14.0572 24.504 13.8732 24.232C13.6892 23.96 13.5972 23.656 13.5972 23.32C13.5972 22.888 13.7052 22.548 13.9212 22.3C14.1452 22.052 14.5092 21.876 15.0132 21.772C15.5252 21.668 16.2212 21.616 17.1012 21.616H17.6412V22.252H17.1132C16.6252 22.252 16.2172 22.268 15.8892 22.3C15.5612 22.332 15.3012 22.388 15.1092 22.468C14.9172 22.548 14.7812 22.652 14.7012 22.78C14.6212 22.908 14.5812 23.068 14.5812 23.26C14.5812 23.588 14.6932 23.856 14.9172 24.064C15.1492 24.272 15.4612 24.376 15.8532 24.376C16.1732 24.376 16.4532 24.3 16.6932 24.148C16.9412 23.996 17.1332 23.788 17.2692 23.524C17.4132 23.26 17.4852 22.956 17.4852 22.612V21.244C17.4852 20.748 17.3852 20.392 17.1852 20.176C16.9852 19.952 16.6572 19.84 16.2012 19.84C15.8492 19.84 15.5092 19.892 15.1812 19.996C14.8532 20.092 14.5172 20.252 14.1732 20.476L13.8372 19.768C14.0452 19.624 14.2812 19.5 14.5452 19.396C14.8092 19.284 15.0852 19.2 15.3732 19.144C15.6612 19.088 15.9372 19.06 16.2012 19.06C16.7052 19.06 17.1212 19.144 17.4492 19.312C17.7772 19.472 18.0212 19.72 18.1812 20.056C18.3412 20.384 18.4212 20.808 18.4212 21.328V25H17.5092V23.644H17.6172C17.5532 23.948 17.4292 24.208 17.2452 24.424C17.0692 24.64 16.8492 24.808 16.5852 24.928C16.3212 25.048 16.0252 25.108 15.6972 25.108ZM22.4445 25.108C21.9245 25.108 21.4685 24.984 21.0765 24.736C20.6925 24.488 20.3925 24.14 20.1765 23.692C19.9685 23.236 19.8645 22.7 19.8645 22.084C19.8645 21.46 19.9685 20.924 20.1765 20.476C20.3925 20.02 20.6925 19.672 21.0765 19.432C21.4685 19.184 21.9245 19.06 22.4445 19.06C22.9725 19.06 23.4245 19.192 23.8005 19.456C24.1765 19.72 24.4285 20.076 24.5565 20.524H24.4245V16.54H25.3965V25H24.4485V23.608H24.5685C24.4405 24.064 24.1845 24.428 23.8005 24.7C23.4245 24.972 22.9725 25.108 22.4445 25.108ZM22.6485 24.328C23.2005 24.328 23.6365 24.136 23.9565 23.752C24.2845 23.36 24.4485 22.804 24.4485 22.084C24.4485 21.356 24.2845 20.8 23.9565 20.416C23.6365 20.032 23.2005 19.84 22.6485 19.84C22.1045 19.84 21.6685 20.032 21.3405 20.416C21.0125 20.8 20.8485 21.356 20.8485 22.084C20.8485 22.804 21.0125 23.36 21.3405 23.752C21.6685 24.136 22.1045 24.328 22.6485 24.328ZM29.8486 25.108C29.2326 25.108 28.7006 24.988 28.2526 24.748C27.8126 24.5 27.4686 24.152 27.2206 23.704C26.9806 23.256 26.8606 22.72 26.8606 22.096C26.8606 21.488 26.9806 20.96 27.2206 20.512C27.4606 20.056 27.7886 19.7 28.2046 19.444C28.6286 19.188 29.1166 19.06 29.6686 19.06C30.1966 19.06 30.6486 19.176 31.0246 19.408C31.4006 19.64 31.6886 19.968 31.8886 20.392C32.0966 20.816 32.2006 21.324 32.2006 21.916V22.288H27.6046V21.652H31.5526L31.3606 21.808C31.3606 21.168 31.2166 20.672 30.9286 20.32C30.6486 19.96 30.2366 19.78 29.6926 19.78C29.2846 19.78 28.9366 19.876 28.6486 20.068C28.3686 20.252 28.1566 20.512 28.0126 20.848C27.8686 21.176 27.7966 21.56 27.7966 22V22.072C27.7966 22.56 27.8726 22.972 28.0246 23.308C28.1846 23.644 28.4206 23.9 28.7326 24.076C29.0446 24.244 29.4166 24.328 29.8486 24.328C30.1926 24.328 30.5246 24.276 30.8446 24.172C31.1726 24.06 31.4806 23.88 31.7686 23.632L32.1046 24.316C31.8406 24.556 31.5046 24.748 31.0966 24.892C30.6886 25.036 30.2726 25.108 29.8486 25.108ZM39.2213 25.108C38.6613 25.108 38.1773 25.02 37.7693 24.844C37.3613 24.66 37.0493 24.408 36.8333 24.088C36.6253 23.768 36.5213 23.396 36.5213 22.972C36.5213 22.612 36.5853 22.288 36.7133 22C36.8493 21.704 37.0493 21.428 37.3133 21.172C37.5773 20.908 37.9053 20.648 38.2973 20.392L38.6813 20.14L38.5493 20.344C38.1653 19.928 37.8933 19.568 37.7333 19.264C37.5813 18.952 37.5053 18.632 37.5053 18.304C37.5053 17.936 37.5893 17.612 37.7573 17.332C37.9253 17.044 38.1653 16.824 38.4773 16.672C38.7973 16.512 39.1653 16.432 39.5813 16.432C39.9573 16.432 40.2853 16.504 40.5653 16.648C40.8453 16.784 41.0653 16.98 41.2253 17.236C41.3933 17.492 41.4773 17.796 41.4773 18.148C41.4773 18.436 41.4213 18.708 41.3093 18.964C41.1973 19.212 41.0093 19.464 40.7453 19.72C40.4813 19.968 40.1133 20.232 39.6413 20.512L39.6653 20.26L41.9093 22.78H41.6933C41.8853 22.452 42.0373 22.048 42.1493 21.568C42.2693 21.08 42.3373 20.572 42.3533 20.044H43.1933C43.1773 20.708 43.0853 21.328 42.9173 21.904C42.7573 22.472 42.5373 22.976 42.2573 23.416L42.2453 23.128L43.9853 25H42.7973L41.7173 23.788H41.9693C41.6333 24.204 41.2293 24.528 40.7573 24.76C40.2853 24.992 39.7733 25.108 39.2213 25.108ZM39.2693 24.304C39.7253 24.304 40.1293 24.208 40.4813 24.016C40.8413 23.824 41.1533 23.544 41.4173 23.176L41.4053 23.476L38.8613 20.692L39.2453 20.728L38.8733 20.968C38.5293 21.192 38.2533 21.404 38.0453 21.604C37.8453 21.796 37.7013 21.996 37.6133 22.204C37.5253 22.412 37.4813 22.644 37.4813 22.9C37.4813 23.34 37.6333 23.684 37.9373 23.932C38.2413 24.18 38.6853 24.304 39.2693 24.304ZM39.5813 17.188C39.2373 17.188 38.9573 17.288 38.7413 17.488C38.5253 17.688 38.4173 17.952 38.4173 18.28C38.4173 18.456 38.4413 18.62 38.4893 18.772C38.5453 18.916 38.6413 19.08 38.7773 19.264C38.9133 19.44 39.1013 19.668 39.3413 19.948L39.0893 19.96C39.4733 19.712 39.7773 19.496 40.0013 19.312C40.2253 19.12 40.3853 18.936 40.4813 18.76C40.5773 18.584 40.6253 18.396 40.6253 18.196C40.6253 17.884 40.5293 17.64 40.3373 17.464C40.1453 17.28 39.8933 17.188 39.5813 17.188ZM48.2477 25V16.54H49.0757L52.5077 22.984H52.1477L55.5557 16.54H56.3837V25H55.4717V17.86H55.7597L52.6517 23.692H52.0037L48.8597 17.848H49.1477V25H48.2477ZM58.2373 17.716V16.624H59.4373V17.716H58.2373ZM58.3573 25V19.168H59.3293V25H58.3573ZM63.6184 25.108C63.0344 25.108 62.5304 24.98 62.1064 24.724C61.6824 24.468 61.3544 24.112 61.1224 23.656C60.8984 23.192 60.7864 22.656 60.7864 22.048C60.7864 21.432 60.8984 20.9 61.1224 20.452C61.3544 20.004 61.6824 19.66 62.1064 19.42C62.5304 19.18 63.0344 19.06 63.6184 19.06C63.9784 19.06 64.3344 19.124 64.6864 19.252C65.0384 19.38 65.3304 19.56 65.5624 19.792L65.2264 20.5C64.9944 20.276 64.7384 20.112 64.4584 20.008C64.1864 19.904 63.9264 19.852 63.6784 19.852C63.0704 19.852 62.6024 20.044 62.2744 20.428C61.9464 20.804 61.7824 21.348 61.7824 22.06C61.7824 22.756 61.9464 23.308 62.2744 23.716C62.6024 24.116 63.0704 24.316 63.6784 24.316C63.9264 24.316 64.1864 24.264 64.4584 24.16C64.7384 24.056 64.9944 23.888 65.2264 23.656L65.5624 24.364C65.3304 24.596 65.0344 24.78 64.6744 24.916C64.3224 25.044 63.9704 25.108 63.6184 25.108ZM66.7011 25V19.168H67.6491V20.548H67.5291C67.6651 20.076 67.9011 19.72 68.2371 19.48C68.5731 19.232 69.0171 19.088 69.5691 19.048L69.9171 19.012L69.9891 19.852L69.3771 19.924C68.8331 19.972 68.4131 20.148 68.1171 20.452C67.8291 20.748 67.6851 21.156 67.6851 21.676V25H66.7011ZM73.3555 25.108C72.7875 25.108 72.2955 24.984 71.8795 24.736C71.4635 24.488 71.1395 24.14 70.9075 23.692C70.6835 23.236 70.5715 22.7 70.5715 22.084C70.5715 21.468 70.6835 20.936 70.9075 20.488C71.1395 20.032 71.4635 19.68 71.8795 19.432C72.2955 19.184 72.7875 19.06 73.3555 19.06C73.9235 19.06 74.4155 19.184 74.8315 19.432C75.2475 19.68 75.5675 20.032 75.7915 20.488C76.0235 20.936 76.1395 21.468 76.1395 22.084C76.1395 22.7 76.0235 23.236 75.7915 23.692C75.5675 24.14 75.2475 24.488 74.8315 24.736C74.4155 24.984 73.9235 25.108 73.3555 25.108ZM73.3555 24.328C73.9075 24.328 74.3435 24.136 74.6635 23.752C74.9915 23.36 75.1555 22.8 75.1555 22.072C75.1555 21.352 74.9915 20.8 74.6635 20.416C74.3435 20.032 73.9075 19.84 73.3555 19.84C72.8115 19.84 72.3755 20.032 72.0475 20.416C71.7195 20.8 71.5555 21.352 71.5555 22.072C71.5555 22.8 71.7195 23.36 72.0475 23.752C72.3755 24.136 72.8115 24.328 73.3555 24.328ZM79.0655 25L76.8935 19.168H77.9135L79.7015 24.28H79.4135L81.2615 19.168H82.0895L83.9015 24.28H83.6255L85.4375 19.168H86.4095L84.2255 25H83.3015L81.3935 19.756H81.9095L80.0015 25H79.0655ZM89.3261 25.108C88.9261 25.108 88.5661 25.032 88.2461 24.88C87.9341 24.72 87.6861 24.504 87.5021 24.232C87.3181 23.96 87.2261 23.656 87.2261 23.32C87.2261 22.888 87.3341 22.548 87.5501 22.3C87.7741 22.052 88.1381 21.876 88.6421 21.772C89.1541 21.668 89.8501 21.616 90.7301 21.616H91.2701V22.252H90.7421C90.2541 22.252 89.8461 22.268 89.5181 22.3C89.1901 22.332 88.9301 22.388 88.7381 22.468C88.5461 22.548 88.4101 22.652 88.3301 22.78C88.2501 22.908 88.2101 23.068 88.2101 23.26C88.2101 23.588 88.3221 23.856 88.5461 24.064C88.7781 24.272 89.0901 24.376 89.4821 24.376C89.8021 24.376 90.0821 24.3 90.3221 24.148C90.5701 23.996 90.7621 23.788 90.8981 23.524C91.0421 23.26 91.1141 22.956 91.1141 22.612V21.244C91.1141 20.748 91.0141 20.392 90.8141 20.176C90.6141 19.952 90.2861 19.84 89.8301 19.84C89.4781 19.84 89.1381 19.892 88.8101 19.996C88.4821 20.092 88.1461 20.252 87.8021 20.476L87.4661 19.768C87.6741 19.624 87.9101 19.5 88.1741 19.396C88.4381 19.284 88.7141 19.2 89.0021 19.144C89.2901 19.088 89.5661 19.06 89.8301 19.06C90.3341 19.06 90.7501 19.144 91.0781 19.312C91.4061 19.472 91.6501 19.72 91.8101 20.056C91.9701 20.384 92.0501 20.808 92.0501 21.328V25H91.1381V23.644H91.2461C91.1821 23.948 91.0581 24.208 90.8741 24.424C90.6981 24.64 90.4781 24.808 90.2141 24.928C89.9501 25.048 89.6541 25.108 89.3261 25.108ZM95.5108 25L93.0028 19.168H94.0588L96.1468 24.28H95.8228L97.9468 19.168H98.9428L96.4228 25H95.5108ZM102.517 25.108C101.901 25.108 101.369 24.988 100.921 24.748C100.481 24.5 100.137 24.152 99.8886 23.704C99.6486 23.256 99.5286 22.72 99.5286 22.096C99.5286 21.488 99.6486 20.96 99.8886 20.512C100.129 20.056 100.457 19.7 100.873 19.444C101.297 19.188 101.785 19.06 102.337 19.06C102.865 19.06 103.317 19.176 103.693 19.408C104.069 19.64 104.357 19.968 104.557 20.392C104.765 20.816 104.869 21.324 104.869 21.916V22.288H100.273V21.652H104.221L104.029 21.808C104.029 21.168 103.885 20.672 103.597 20.32C103.317 19.96 102.905 19.78 102.361 19.78C101.953 19.78 101.605 19.876 101.317 20.068C101.037 20.252 100.825 20.512 100.681 20.848C100.537 21.176 100.465 21.56 100.465 22V22.072C100.465 22.56 100.541 22.972 100.693 23.308C100.853 23.644 101.089 23.9 101.401 24.076C101.713 24.244 102.085 24.328 102.517 24.328C102.861 24.328 103.193 24.276 103.513 24.172C103.841 24.06 104.149 23.88 104.437 23.632L104.773 24.316C104.509 24.556 104.173 24.748 103.765 24.892C103.357 25.036 102.941 25.108 102.517 25.108ZM106.356 22.204V21.4H109.716V22.204H106.356ZM114.124 25.108C113.684 25.108 113.268 25.068 112.876 24.988C112.492 24.908 112.136 24.796 111.808 24.652C111.488 24.5 111.196 24.316 110.932 24.1L111.28 23.308C111.552 23.508 111.828 23.68 112.108 23.824C112.396 23.96 112.704 24.064 113.032 24.136C113.368 24.2 113.732 24.232 114.124 24.232C114.844 24.232 115.376 24.1 115.72 23.836C116.072 23.564 116.248 23.208 116.248 22.768C116.248 22.536 116.192 22.336 116.08 22.168C115.976 22 115.8 21.856 115.552 21.736C115.312 21.616 114.996 21.516 114.604 21.436L113.356 21.184C112.604 21.024 112.04 20.764 111.664 20.404C111.296 20.036 111.112 19.548 111.112 18.94C111.112 18.436 111.24 17.996 111.496 17.62C111.76 17.244 112.124 16.952 112.588 16.744C113.06 16.536 113.596 16.432 114.196 16.432C114.58 16.432 114.944 16.472 115.288 16.552C115.632 16.632 115.948 16.752 116.236 16.912C116.532 17.064 116.792 17.252 117.016 17.476L116.668 18.244C116.308 17.916 115.928 17.68 115.528 17.536C115.128 17.384 114.68 17.308 114.184 17.308C113.76 17.308 113.392 17.372 113.08 17.5C112.776 17.628 112.536 17.816 112.36 18.064C112.192 18.304 112.108 18.584 112.108 18.904C112.108 19.288 112.224 19.592 112.456 19.816C112.696 20.04 113.084 20.204 113.62 20.308L114.868 20.572C115.676 20.74 116.272 20.996 116.656 21.34C117.048 21.676 117.244 22.136 117.244 22.72C117.244 23.184 117.116 23.6 116.86 23.968C116.612 24.328 116.252 24.608 115.78 24.808C115.316 25.008 114.764 25.108 114.124 25.108ZM120.475 25.108C120.075 25.108 119.715 25.032 119.395 24.88C119.083 24.72 118.835 24.504 118.651 24.232C118.467 23.96 118.375 23.656 118.375 23.32C118.375 22.888 118.483 22.548 118.699 22.3C118.923 22.052 119.287 21.876 119.791 21.772C120.303 21.668 120.999 21.616 121.879 21.616H122.419V22.252H121.891C121.403 22.252 120.995 22.268 120.667 22.3C120.339 22.332 120.079 22.388 119.887 22.468C119.695 22.548 119.559 22.652 119.479 22.78C119.399 22.908 119.359 23.068 119.359 23.26C119.359 23.588 119.471 23.856 119.695 24.064C119.927 24.272 120.239 24.376 120.631 24.376C120.951 24.376 121.231 24.3 121.471 24.148C121.719 23.996 121.911 23.788 122.047 23.524C122.191 23.26 122.263 22.956 122.263 22.612V21.244C122.263 20.748 122.163 20.392 121.963 20.176C121.763 19.952 121.435 19.84 120.979 19.84C120.627 19.84 120.287 19.892 119.959 19.996C119.631 20.092 119.295 20.252 118.951 20.476L118.615 19.768C118.823 19.624 119.059 19.5 119.323 19.396C119.587 19.284 119.863 19.2 120.151 19.144C120.439 19.088 120.715 19.06 120.979 19.06C121.483 19.06 121.899 19.144 122.227 19.312C122.555 19.472 122.799 19.72 122.959 20.056C123.119 20.384 123.199 20.808 123.199 21.328V25H122.287V23.644H122.395C122.331 23.948 122.207 24.208 122.023 24.424C121.847 24.64 121.627 24.808 121.363 24.928C121.099 25.048 120.803 25.108 120.475 25.108ZM125.314 25V19.924H124.162V19.168H125.578L125.314 19.42V18.964C125.314 18.188 125.506 17.6 125.89 17.2C126.282 16.8 126.882 16.576 127.69 16.528L128.158 16.504L128.242 17.248L127.69 17.284C127.362 17.308 127.094 17.38 126.886 17.5C126.678 17.62 126.526 17.792 126.43 18.016C126.334 18.24 126.286 18.516 126.286 18.844V19.348L126.142 19.168H127.966V19.924H126.286V25H125.314ZM131.462 25.108C130.846 25.108 130.314 24.988 129.866 24.748C129.426 24.5 129.082 24.152 128.834 23.704C128.594 23.256 128.474 22.72 128.474 22.096C128.474 21.488 128.594 20.96 128.834 20.512C129.074 20.056 129.402 19.7 129.818 19.444C130.242 19.188 130.73 19.06 131.282 19.06C131.81 19.06 132.262 19.176 132.638 19.408C133.014 19.64 133.302 19.968 133.502 20.392C133.71 20.816 133.814 21.324 133.814 21.916V22.288H129.218V21.652H133.166L132.974 21.808C132.974 21.168 132.83 20.672 132.542 20.32C132.262 19.96 131.85 19.78 131.306 19.78C130.898 19.78 130.55 19.876 130.262 20.068C129.982 20.252 129.77 20.512 129.626 20.848C129.482 21.176 129.41 21.56 129.41 22V22.072C129.41 22.56 129.486 22.972 129.638 23.308C129.798 23.644 130.034 23.9 130.346 24.076C130.658 24.244 131.03 24.328 131.462 24.328C131.806 24.328 132.138 24.276 132.458 24.172C132.786 24.06 133.094 23.88 133.382 23.632L133.718 24.316C133.454 24.556 133.118 24.748 132.71 24.892C132.302 25.036 131.886 25.108 131.462 25.108ZM135.569 26.368L135.113 26.02C135.257 25.868 135.365 25.724 135.437 25.588C135.517 25.46 135.569 25.328 135.593 25.192C135.625 25.064 135.641 24.932 135.641 24.796L135.857 25H135.065V23.776H136.289V24.64C136.289 24.856 136.265 25.06 136.217 25.252C136.177 25.452 136.105 25.644 136.001 25.828C135.897 26.012 135.753 26.192 135.569 26.368ZM141.165 25V16.54H144.513C145.121 16.54 145.633 16.64 146.049 16.84C146.473 17.032 146.793 17.32 147.009 17.704C147.225 18.08 147.333 18.54 147.333 19.084C147.333 19.612 147.225 20.068 147.009 20.452C146.793 20.836 146.473 21.128 146.049 21.328C145.633 21.528 145.121 21.628 144.513 21.628H142.149V25H141.165ZM142.149 20.8H144.393C145.041 20.8 145.529 20.656 145.857 20.368C146.193 20.072 146.361 19.644 146.361 19.084C146.361 18.516 146.193 18.088 145.857 17.8C145.529 17.504 145.041 17.356 144.393 17.356H142.149V20.8ZM150.997 25.108C150.381 25.108 149.849 24.988 149.401 24.748C148.961 24.5 148.617 24.152 148.369 23.704C148.129 23.256 148.009 22.72 148.009 22.096C148.009 21.488 148.129 20.96 148.369 20.512C148.609 20.056 148.937 19.7 149.353 19.444C149.777 19.188 150.265 19.06 150.817 19.06C151.345 19.06 151.797 19.176 152.173 19.408C152.549 19.64 152.837 19.968 153.037 20.392C153.245 20.816 153.349 21.324 153.349 21.916V22.288H148.753V21.652H152.701L152.509 21.808C152.509 21.168 152.365 20.672 152.077 20.32C151.797 19.96 151.385 19.78 150.841 19.78C150.433 19.78 150.085 19.876 149.797 20.068C149.517 20.252 149.305 20.512 149.161 20.848C149.017 21.176 148.945 21.56 148.945 22V22.072C148.945 22.56 149.021 22.972 149.173 23.308C149.333 23.644 149.569 23.9 149.881 24.076C150.193 24.244 150.565 24.328 150.997 24.328C151.341 24.328 151.673 24.276 151.993 24.172C152.321 24.06 152.629 23.88 152.917 23.632L153.253 24.316C152.989 24.556 152.653 24.748 152.245 24.892C151.837 25.036 151.421 25.108 150.997 25.108ZM154.756 25V19.168H155.704V20.548H155.584C155.72 20.076 155.956 19.72 156.292 19.48C156.628 19.232 157.072 19.088 157.624 19.048L157.972 19.012L158.044 19.852L157.432 19.924C156.888 19.972 156.468 20.148 156.172 20.452C155.884 20.748 155.74 21.156 155.74 21.676V25H154.756ZM159.685 25V19.924H158.533V19.168H159.949L159.685 19.42V18.964C159.685 18.188 159.877 17.6 160.261 17.2C160.653 16.8 161.253 16.576 162.061 16.528L162.529 16.504L162.613 17.248L162.061 17.284C161.733 17.308 161.465 17.38 161.257 17.5C161.049 17.62 160.897 17.792 160.801 18.016C160.705 18.24 160.657 18.516 160.657 18.844V19.348L160.513 19.168H162.337V19.924H160.657V25H159.685ZM165.833 25.108C165.217 25.108 164.685 24.988 164.237 24.748C163.797 24.5 163.453 24.152 163.205 23.704C162.965 23.256 162.845 22.72 162.845 22.096C162.845 21.488 162.965 20.96 163.205 20.512C163.445 20.056 163.773 19.7 164.189 19.444C164.613 19.188 165.101 19.06 165.653 19.06C166.181 19.06 166.633 19.176 167.009 19.408C167.385 19.64 167.673 19.968 167.873 20.392C168.081 20.816 168.185 21.324 168.185 21.916V22.288H163.589V21.652H167.537L167.345 21.808C167.345 21.168 167.201 20.672 166.913 20.32C166.633 19.96 166.221 19.78 165.677 19.78C165.269 19.78 164.921 19.876 164.633 20.068C164.353 20.252 164.141 20.512 163.997 20.848C163.853 21.176 163.781 21.56 163.781 22V22.072C163.781 22.56 163.857 22.972 164.009 23.308C164.169 23.644 164.405 23.9 164.717 24.076C165.029 24.244 165.401 24.328 165.833 24.328C166.177 24.328 166.509 24.276 166.829 24.172C167.157 24.06 167.465 23.88 167.753 23.632L168.089 24.316C167.825 24.556 167.489 24.748 167.081 24.892C166.673 25.036 166.257 25.108 165.833 25.108ZM172.064 25.108C171.48 25.108 170.976 24.98 170.552 24.724C170.128 24.468 169.8 24.112 169.568 23.656C169.344 23.192 169.232 22.656 169.232 22.048C169.232 21.432 169.344 20.9 169.568 20.452C169.8 20.004 170.128 19.66 170.552 19.42C170.976 19.18 171.48 19.06 172.064 19.06C172.424 19.06 172.78 19.124 173.132 19.252C173.484 19.38 173.776 19.56 174.008 19.792L173.672 20.5C173.44 20.276 173.184 20.112 172.904 20.008C172.632 19.904 172.372 19.852 172.124 19.852C171.516 19.852 171.048 20.044 170.72 20.428C170.392 20.804 170.228 21.348 170.228 22.06C170.228 22.756 170.392 23.308 170.72 23.716C171.048 24.116 171.516 24.316 172.124 24.316C172.372 24.316 172.632 24.264 172.904 24.16C173.184 24.056 173.44 23.888 173.672 23.656L174.008 24.364C173.776 24.596 173.48 24.78 173.12 24.916C172.768 25.044 172.416 25.108 172.064 25.108ZM177.486 25.108C176.798 25.108 176.282 24.924 175.938 24.556C175.594 24.188 175.422 23.664 175.422 22.984V19.924H174.282V19.168H175.422V17.38H176.394V19.168H178.242V19.924H176.394V22.888C176.394 23.344 176.49 23.692 176.682 23.932C176.874 24.164 177.186 24.28 177.618 24.28C177.746 24.28 177.874 24.264 178.002 24.232C178.13 24.2 178.246 24.168 178.35 24.136L178.518 24.88C178.414 24.936 178.262 24.988 178.062 25.036C177.862 25.084 177.67 25.108 177.486 25.108ZM182.556 25V16.54H187.788V17.368H183.54V20.32H187.548V21.148H183.54V25H182.556ZM191.199 25.108C190.631 25.108 190.139 24.984 189.723 24.736C189.307 24.488 188.983 24.14 188.751 23.692C188.527 23.236 188.415 22.7 188.415 22.084C188.415 21.468 188.527 20.936 188.751 20.488C188.983 20.032 189.307 19.68 189.723 19.432C190.139 19.184 190.631 19.06 191.199 19.06C191.767 19.06 192.259 19.184 192.675 19.432C193.091 19.68 193.411 20.032 193.635 20.488C193.867 20.936 193.983 21.468 193.983 22.084C193.983 22.7 193.867 23.236 193.635 23.692C193.411 24.14 193.091 24.488 192.675 24.736C192.259 24.984 191.767 25.108 191.199 25.108ZM191.199 24.328C191.751 24.328 192.187 24.136 192.507 23.752C192.835 23.36 192.999 22.8 192.999 22.072C192.999 21.352 192.835 20.8 192.507 20.416C192.187 20.032 191.751 19.84 191.199 19.84C190.655 19.84 190.219 20.032 189.891 20.416C189.563 20.8 189.399 21.352 189.399 22.072C189.399 22.8 189.563 23.36 189.891 23.752C190.219 24.136 190.655 24.328 191.199 24.328ZM195.443 25V19.168H196.391V20.548H196.271C196.407 20.076 196.643 19.72 196.979 19.48C197.315 19.232 197.759 19.088 198.311 19.048L198.659 19.012L198.731 19.852L198.119 19.924C197.575 19.972 197.155 20.148 196.859 20.452C196.571 20.748 196.427 21.156 196.427 21.676V25H195.443ZM201.866 25.084L201.794 24.256L202.514 24.208C202.794 24.184 203.026 24.116 203.21 24.004C203.394 23.884 203.534 23.716 203.63 23.5C203.726 23.284 203.774 23.032 203.774 22.744V16.54H204.758V22.756C204.758 23.212 204.678 23.608 204.518 23.944C204.358 24.272 204.122 24.528 203.81 24.712C203.498 24.896 203.11 25.004 202.646 25.036L201.866 25.084ZM208.781 25.108C208.309 25.108 207.917 25.024 207.605 24.856C207.301 24.68 207.069 24.42 206.909 24.076C206.757 23.732 206.681 23.304 206.681 22.792V19.168H207.653V22.78C207.653 23.124 207.697 23.412 207.785 23.644C207.881 23.868 208.029 24.036 208.229 24.148C208.429 24.252 208.677 24.304 208.973 24.304C209.309 24.304 209.601 24.228 209.849 24.076C210.097 23.924 210.293 23.712 210.437 23.44C210.581 23.168 210.653 22.848 210.653 22.48V19.168H211.625V25H210.677V23.656H210.833C210.673 24.128 210.409 24.488 210.041 24.736C209.681 24.984 209.261 25.108 208.781 25.108ZM213.323 17.716V16.624H214.523V17.716H213.323ZM213.443 25V19.168H214.415V25H213.443ZM218.704 25.108C218.12 25.108 217.616 24.98 217.192 24.724C216.768 24.468 216.44 24.112 216.208 23.656C215.984 23.192 215.872 22.656 215.872 22.048C215.872 21.432 215.984 20.9 216.208 20.452C216.44 20.004 216.768 19.66 217.192 19.42C217.616 19.18 218.12 19.06 218.704 19.06C219.064 19.06 219.42 19.124 219.772 19.252C220.124 19.38 220.416 19.56 220.648 19.792L220.312 20.5C220.08 20.276 219.824 20.112 219.544 20.008C219.272 19.904 219.012 19.852 218.764 19.852C218.156 19.852 217.688 20.044 217.36 20.428C217.032 20.804 216.868 21.348 216.868 22.06C216.868 22.756 217.032 23.308 217.36 23.716C217.688 24.116 218.156 24.316 218.764 24.316C219.012 24.316 219.272 24.264 219.544 24.16C219.824 24.056 220.08 23.888 220.312 23.656L220.648 24.364C220.416 24.596 220.12 24.78 219.76 24.916C219.408 25.044 219.056 25.108 218.704 25.108ZM224.298 25.108C223.682 25.108 223.15 24.988 222.702 24.748C222.262 24.5 221.918 24.152 221.67 23.704C221.43 23.256 221.31 22.72 221.31 22.096C221.31 21.488 221.43 20.96 221.67 20.512C221.91 20.056 222.238 19.7 222.654 19.444C223.078 19.188 223.566 19.06 224.118 19.06C224.646 19.06 225.098 19.176 225.474 19.408C225.85 19.64 226.138 19.968 226.338 20.392C226.546 20.816 226.65 21.324 226.65 21.916V22.288H222.054V21.652H226.002L225.81 21.808C225.81 21.168 225.666 20.672 225.378 20.32C225.098 19.96 224.686 19.78 224.142 19.78C223.734 19.78 223.386 19.876 223.098 20.068C222.818 20.252 222.606 20.512 222.462 20.848C222.318 21.176 222.246 21.56 222.246 22V22.072C222.246 22.56 222.322 22.972 222.474 23.308C222.634 23.644 222.87 23.9 223.182 24.076C223.494 24.244 223.866 24.328 224.298 24.328C224.642 24.328 224.974 24.276 225.294 24.172C225.622 24.06 225.93 23.88 226.218 23.632L226.554 24.316C226.29 24.556 225.954 24.748 225.546 24.892C225.138 25.036 224.722 25.108 224.298 25.108ZM230.025 25.108C229.721 25.108 229.425 25.076 229.137 25.012C228.857 24.956 228.593 24.876 228.345 24.772C228.105 24.66 227.897 24.528 227.721 24.376L228.033 23.692C228.225 23.844 228.433 23.972 228.657 24.076C228.881 24.172 229.109 24.244 229.341 24.292C229.573 24.34 229.809 24.364 230.049 24.364C230.505 24.364 230.849 24.28 231.081 24.112C231.313 23.944 231.429 23.716 231.429 23.428C231.429 23.204 231.353 23.028 231.201 22.9C231.049 22.764 230.809 22.66 230.481 22.588L229.389 22.348C228.885 22.244 228.509 22.064 228.261 21.808C228.021 21.552 227.901 21.22 227.901 20.812C227.901 20.452 227.993 20.144 228.177 19.888C228.369 19.624 228.637 19.42 228.981 19.276C229.325 19.132 229.725 19.06 230.181 19.06C230.453 19.06 230.713 19.088 230.961 19.144C231.209 19.2 231.441 19.284 231.657 19.396C231.881 19.5 232.073 19.632 232.233 19.792L231.909 20.476C231.757 20.332 231.585 20.212 231.393 20.116C231.201 20.012 231.001 19.936 230.793 19.888C230.593 19.832 230.389 19.804 230.181 19.804C229.733 19.804 229.393 19.892 229.161 20.068C228.929 20.244 228.813 20.476 228.813 20.764C228.813 20.988 228.885 21.172 229.029 21.316C229.173 21.46 229.397 21.564 229.701 21.628L230.793 21.856C231.313 21.968 231.701 22.148 231.957 22.396C232.221 22.636 232.353 22.964 232.353 23.38C232.353 23.732 232.257 24.04 232.065 24.304C231.873 24.56 231.601 24.76 231.249 24.904C230.905 25.04 230.497 25.108 230.025 25.108ZM236.232 25L239.964 16.54H240.804L244.536 25H243.516L242.472 22.588L242.952 22.84H237.792L238.284 22.588L237.252 25H236.232ZM240.372 17.692L238.44 22.24L238.152 22.012H242.592L242.328 22.24L240.396 17.692H240.372ZM245.658 25V19.168H246.606V20.464H246.474C246.642 20 246.914 19.652 247.29 19.42C247.674 19.18 248.114 19.06 248.61 19.06C249.074 19.06 249.458 19.144 249.762 19.312C250.074 19.472 250.306 19.724 250.458 20.068C250.61 20.412 250.686 20.844 250.686 21.364V25H249.714V21.424C249.714 21.064 249.666 20.768 249.57 20.536C249.482 20.304 249.338 20.132 249.138 20.02C248.946 19.908 248.694 19.852 248.382 19.852C248.03 19.852 247.722 19.928 247.458 20.08C247.194 20.232 246.99 20.444 246.846 20.716C246.702 20.988 246.63 21.308 246.63 21.676V25H245.658ZM254.698 25.108C254.178 25.108 253.722 24.984 253.33 24.736C252.946 24.488 252.646 24.14 252.43 23.692C252.222 23.236 252.118 22.7 252.118 22.084C252.118 21.46 252.222 20.924 252.43 20.476C252.646 20.02 252.946 19.672 253.33 19.432C253.722 19.184 254.178 19.06 254.698 19.06C255.226 19.06 255.678 19.192 256.054 19.456C256.43 19.72 256.682 20.076 256.81 20.524H256.678V16.54H257.65V25H256.702V23.608H256.822C256.694 24.064 256.438 24.428 256.054 24.7C255.678 24.972 255.226 25.108 254.698 25.108ZM254.902 24.328C255.454 24.328 255.89 24.136 256.21 23.752C256.538 23.36 256.702 22.804 256.702 22.084C256.702 21.356 256.538 20.8 256.21 20.416C255.89 20.032 255.454 19.84 254.902 19.84C254.358 19.84 253.922 20.032 253.594 20.416C253.266 20.8 253.102 21.356 253.102 22.084C253.102 22.804 253.266 23.36 253.594 23.752C253.922 24.136 254.358 24.328 254.902 24.328ZM266.349 25.108C265.517 25.108 264.805 24.932 264.213 24.58C263.621 24.228 263.165 23.728 262.845 23.08C262.533 22.432 262.377 21.66 262.377 20.764C262.377 19.868 262.533 19.1 262.845 18.46C263.165 17.812 263.621 17.312 264.213 16.96C264.805 16.608 265.517 16.432 266.349 16.432C266.933 16.432 267.473 16.524 267.969 16.708C268.465 16.892 268.881 17.16 269.217 17.512L268.833 18.316C268.465 17.972 268.081 17.724 267.681 17.572C267.289 17.412 266.853 17.332 266.373 17.332C265.421 17.332 264.693 17.632 264.189 18.232C263.685 18.832 263.433 19.676 263.433 20.764C263.433 21.852 263.685 22.7 264.189 23.308C264.693 23.908 265.421 24.208 266.373 24.208C266.853 24.208 267.289 24.132 267.681 23.98C268.081 23.82 268.465 23.568 268.833 23.224L269.217 24.028C268.881 24.372 268.465 24.64 267.969 24.832C267.473 25.016 266.933 25.108 266.349 25.108ZM272.633 25.108C272.065 25.108 271.573 24.984 271.157 24.736C270.741 24.488 270.417 24.14 270.185 23.692C269.961 23.236 269.849 22.7 269.849 22.084C269.849 21.468 269.961 20.936 270.185 20.488C270.417 20.032 270.741 19.68 271.157 19.432C271.573 19.184 272.065 19.06 272.633 19.06C273.201 19.06 273.693 19.184 274.109 19.432C274.525 19.68 274.845 20.032 275.069 20.488C275.301 20.936 275.417 21.468 275.417 22.084C275.417 22.7 275.301 23.236 275.069 23.692C274.845 24.14 274.525 24.488 274.109 24.736C273.693 24.984 273.201 25.108 272.633 25.108ZM272.633 24.328C273.185 24.328 273.621 24.136 273.941 23.752C274.269 23.36 274.433 22.8 274.433 22.072C274.433 21.352 274.269 20.8 273.941 20.416C273.621 20.032 273.185 19.84 272.633 19.84C272.089 19.84 271.653 20.032 271.325 20.416C270.997 20.8 270.833 21.352 270.833 22.072C270.833 22.8 270.997 23.36 271.325 23.752C271.653 24.136 272.089 24.328 272.633 24.328ZM278.665 25.108C278.073 25.108 277.625 24.932 277.321 24.58C277.025 24.228 276.877 23.724 276.877 23.068V16.54H277.849V22.996C277.849 23.276 277.885 23.512 277.957 23.704C278.037 23.896 278.153 24.04 278.305 24.136C278.457 24.232 278.645 24.28 278.869 24.28C278.965 24.28 279.057 24.276 279.145 24.268C279.241 24.252 279.329 24.232 279.409 24.208L279.385 25.024C279.257 25.048 279.133 25.068 279.013 25.084C278.901 25.1 278.785 25.108 278.665 25.108ZM282.589 25.108C282.069 25.108 281.613 24.984 281.221 24.736C280.837 24.488 280.537 24.14 280.321 23.692C280.113 23.236 280.009 22.7 280.009 22.084C280.009 21.46 280.113 20.924 280.321 20.476C280.537 20.02 280.837 19.672 281.221 19.432C281.613 19.184 282.069 19.06 282.589 19.06C283.117 19.06 283.569 19.192 283.945 19.456C284.321 19.72 284.573 20.076 284.701 20.524H284.569V16.54H285.541V25H284.593V23.608H284.713C284.585 24.064 284.329 24.428 283.945 24.7C283.569 24.972 283.117 25.108 282.589 25.108ZM282.793 24.328C283.345 24.328 283.781 24.136 284.101 23.752C284.429 23.36 284.593 22.804 284.593 22.084C284.593 21.356 284.429 20.8 284.101 20.416C283.781 20.032 283.345 19.84 282.793 19.84C282.249 19.84 281.813 20.032 281.485 20.416C281.157 20.8 280.993 21.356 280.993 22.084C280.993 22.804 281.157 23.36 281.485 23.752C281.813 24.136 282.249 24.328 282.793 24.328ZM290.579 25V16.54H293.435C294.355 16.54 295.131 16.704 295.763 17.032C296.403 17.352 296.887 17.828 297.215 18.46C297.551 19.084 297.719 19.852 297.719 20.764C297.719 21.676 297.551 22.448 297.215 23.08C296.887 23.712 296.403 24.192 295.763 24.52C295.131 24.84 294.355 25 293.435 25H290.579ZM291.563 24.16H293.363C294.475 24.16 295.303 23.876 295.847 23.308C296.399 22.74 296.675 21.892 296.675 20.764C296.675 19.636 296.399 18.792 295.847 18.232C295.295 17.664 294.467 17.38 293.363 17.38H291.563V24.16ZM299.353 25V19.168H300.301V20.548H300.181C300.317 20.076 300.553 19.72 300.889 19.48C301.225 19.232 301.669 19.088 302.221 19.048L302.569 19.012L302.641 19.852L302.029 19.924C301.485 19.972 301.065 20.148 300.769 20.452C300.481 20.748 300.337 21.156 300.337 21.676V25H299.353ZM303.534 17.716V16.624H304.734V17.716H303.534ZM303.654 25V19.168H304.626V25H303.654ZM306.443 25V19.168H307.391V20.464H307.259C307.427 20 307.699 19.652 308.075 19.42C308.459 19.18 308.899 19.06 309.395 19.06C309.859 19.06 310.243 19.144 310.547 19.312C310.859 19.472 311.091 19.724 311.243 20.068C311.395 20.412 311.471 20.844 311.471 21.364V25H310.499V21.424C310.499 21.064 310.451 20.768 310.355 20.536C310.267 20.304 310.123 20.132 309.923 20.02C309.731 19.908 309.479 19.852 309.167 19.852C308.815 19.852 308.507 19.928 308.243 20.08C307.979 20.232 307.775 20.444 307.631 20.716C307.487 20.988 307.415 21.308 307.415 21.676V25H306.443ZM313.264 25V16.54H314.236V21.76H314.26L316.96 19.168H318.196L314.992 22.24V21.712L318.448 25H317.212L314.26 22.264H314.236V25H313.264ZM321.126 25.108C320.822 25.108 320.526 25.076 320.238 25.012C319.958 24.956 319.694 24.876 319.446 24.772C319.206 24.66 318.998 24.528 318.822 24.376L319.134 23.692C319.326 23.844 319.534 23.972 319.758 24.076C319.982 24.172 320.21 24.244 320.442 24.292C320.674 24.34 320.91 24.364 321.15 24.364C321.606 24.364 321.95 24.28 322.182 24.112C322.414 23.944 322.53 23.716 322.53 23.428C322.53 23.204 322.454 23.028 322.302 22.9C322.15 22.764 321.91 22.66 321.582 22.588L320.49 22.348C319.986 22.244 319.61 22.064 319.362 21.808C319.122 21.552 319.002 21.22 319.002 20.812C319.002 20.452 319.094 20.144 319.278 19.888C319.47 19.624 319.738 19.42 320.082 19.276C320.426 19.132 320.826 19.06 321.282 19.06C321.554 19.06 321.814 19.088 322.062 19.144C322.31 19.2 322.542 19.284 322.758 19.396C322.982 19.5 323.174 19.632 323.334 19.792L323.01 20.476C322.858 20.332 322.686 20.212 322.494 20.116C322.302 20.012 322.102 19.936 321.894 19.888C321.694 19.832 321.49 19.804 321.282 19.804C320.834 19.804 320.494 19.892 320.262 20.068C320.03 20.244 319.914 20.476 319.914 20.764C319.914 20.988 319.986 21.172 320.13 21.316C320.274 21.46 320.498 21.564 320.802 21.628L321.894 21.856C322.414 21.968 322.802 22.148 323.058 22.396C323.322 22.636 323.454 22.964 323.454 23.38C323.454 23.732 323.358 24.04 323.166 24.304C322.974 24.56 322.702 24.76 322.35 24.904C322.006 25.04 321.598 25.108 321.126 25.108Z" fill="black"/>
</svg>
