<svg width="138" height="30" viewBox="0 0 138 30" fill="none" xmlns="http://www.w3.org/2000/svg">
<path d="M0.832 6V0.36H1.544V6H0.832ZM3.087 6V2.048H3.751V2.904C3.879 2.61067 4.071 2.384 4.327 2.224C4.583 2.05867 4.871 1.976 5.191 1.976C5.51633 1.976 5.78833 2.03467 6.007 2.152C6.22567 2.264 6.38833 2.44 6.495 2.68C6.607 2.91467 6.663 3.208 6.663 3.56V6H5.951V3.6C5.951 3.38667 5.92167 3.20533 5.863 3.056C5.80433 2.90667 5.70567 2.792 5.567 2.712C5.43367 2.62667 5.255 2.584 5.031 2.584C4.79633 2.584 4.583 2.63733 4.391 2.744C4.20433 2.85067 4.05767 2.99467 3.951 3.176C3.84967 3.35733 3.799 3.56 3.799 3.784V6H3.087ZM9.64738 6.072C9.28471 6.072 8.96738 5.98667 8.69538 5.816C8.42338 5.64533 8.21004 5.40533 8.05538 5.096C7.90604 4.78667 7.83138 4.42933 7.83138 4.024C7.83138 3.61333 7.90604 3.256 8.05538 2.952C8.20471 2.64267 8.41538 2.40267 8.68738 2.232C8.95938 2.06133 9.27671 1.976 9.63938 1.976C9.98071 1.976 10.2714 2.056 10.5114 2.216C10.7567 2.376 10.9327 2.59467 11.0394 2.872V0.36H11.7514V6H11.0954V5.128C10.978 5.42667 10.794 5.65867 10.5434 5.824C10.2927 5.98933 9.99404 6.072 9.64738 6.072ZM9.79938 5.488C10.1887 5.488 10.4927 5.35733 10.7114 5.096C10.9354 4.83467 11.0474 4.47733 11.0474 4.024C11.0474 3.57067 10.9354 3.21333 10.7114 2.952C10.4927 2.69067 10.1887 2.56 9.79938 2.56C9.41538 2.56 9.10871 2.69067 8.87938 2.952C8.65538 3.21333 8.54338 3.57067 8.54338 4.024C8.54338 4.47733 8.65538 4.83467 8.87938 5.096C9.10338 5.35733 9.41004 5.488 9.79938 5.488ZM13.0929 1.096V0.304H13.9569V1.096H13.0929ZM13.1729 6V2.048H13.8849V6H13.1729ZM16.6258 6.072C16.3431 6.072 16.0898 6.02133 15.8658 5.92C15.6418 5.81333 15.4658 5.66933 15.3378 5.488C15.2098 5.30667 15.1458 5.104 15.1458 4.88C15.1458 4.576 15.2311 4.33867 15.4018 4.168C15.5724 3.992 15.8338 3.86667 16.1858 3.792C16.5431 3.71733 16.9991 3.68 17.5538 3.68H18.1218V4.168H17.5858C17.2764 4.168 17.0124 4.17867 16.7938 4.2C16.5751 4.216 16.3964 4.25067 16.2578 4.304C16.1191 4.352 16.0178 4.41867 15.9538 4.504C15.8898 4.58933 15.8578 4.70133 15.8578 4.84C15.8578 5.05333 15.9404 5.21867 16.1058 5.336C16.2764 5.45333 16.4924 5.512 16.7538 5.512C16.9831 5.512 17.1911 5.46133 17.3778 5.36C17.5698 5.25333 17.7218 5.112 17.8338 4.936C17.9511 4.76 18.0098 4.56533 18.0098 4.352V3.448C18.0098 3.13333 17.9218 2.90667 17.7458 2.768C17.5698 2.624 17.3084 2.552 16.9618 2.552C16.7271 2.552 16.4924 2.584 16.2578 2.648C16.0284 2.712 15.7911 2.81867 15.5458 2.968L15.3138 2.44C15.4791 2.33867 15.6551 2.256 15.8418 2.192C16.0284 2.12267 16.2231 2.06933 16.4258 2.032C16.6284 1.99467 16.8311 1.976 17.0338 1.976C17.3751 1.976 17.6684 2.02933 17.9138 2.136C18.1644 2.24267 18.3564 2.408 18.4898 2.632C18.6284 2.856 18.6978 3.14933 18.6978 3.512V6H18.0738V5.136C17.9991 5.30133 17.8951 5.456 17.7618 5.6C17.6284 5.744 17.4658 5.85867 17.2738 5.944C17.0871 6.02933 16.8711 6.072 16.6258 6.072ZM20.234 2.368L19.882 2.088C19.978 1.99733 20.0527 1.896 20.106 1.784C20.1593 1.66667 20.1993 1.54933 20.226 1.432C20.2527 1.30933 20.2687 1.19467 20.274 1.088L20.426 1.216H19.826V0.36H20.746V0.992C20.746 1.152 20.7273 1.31467 20.69 1.48C20.658 1.64533 20.6047 1.80533 20.53 1.96C20.4553 2.10933 20.3567 2.24533 20.234 2.368ZM23.2461 6.072C23.0275 6.072 22.8115 6.05067 22.5981 6.008C22.3901 5.97067 22.1955 5.91733 22.0141 5.848C21.8381 5.77333 21.6861 5.68267 21.5581 5.576L21.7901 5.072C21.9235 5.17333 22.0701 5.256 22.2301 5.32C22.3955 5.384 22.5635 5.432 22.7341 5.464C22.9101 5.49067 23.0781 5.504 23.2381 5.504C23.5688 5.504 23.8221 5.45333 23.9981 5.352C24.1795 5.25067 24.2701 5.10933 24.2701 4.928C24.2701 4.77333 24.2168 4.656 24.1101 4.576C24.0088 4.49067 23.8381 4.42667 23.5981 4.384L22.7741 4.24C22.4061 4.17067 22.1288 4.04533 21.9421 3.864C21.7608 3.68267 21.6701 3.44533 21.6701 3.152C21.6701 2.91733 21.7341 2.712 21.8621 2.536C21.9955 2.36 22.1848 2.224 22.4301 2.128C22.6755 2.02667 22.9688 1.976 23.3101 1.976C23.4968 1.976 23.6861 1.99467 23.8781 2.032C24.0755 2.06933 24.2568 2.12533 24.4221 2.2C24.5928 2.26933 24.7315 2.35733 24.8381 2.464L24.5981 2.968C24.4915 2.86667 24.3635 2.78667 24.2141 2.728C24.0701 2.664 23.9181 2.61867 23.7581 2.592C23.6035 2.56 23.4515 2.544 23.3021 2.544C22.9928 2.544 22.7528 2.59733 22.5821 2.704C22.4115 2.80533 22.3261 2.94933 22.3261 3.136C22.3261 3.28533 22.3741 3.40267 22.4701 3.488C22.5715 3.57333 22.7341 3.63733 22.9581 3.68L23.7581 3.824C24.1528 3.89867 24.4461 4.024 24.6381 4.2C24.8301 4.37067 24.9261 4.608 24.9261 4.912C24.9261 5.14667 24.8568 5.352 24.7181 5.528C24.5795 5.69867 24.3848 5.832 24.1341 5.928C23.8835 6.024 23.5875 6.072 23.2461 6.072ZM28.457 6V0.36H32.105V0.984H29.169V2.864H31.945V3.48H29.169V6H28.457ZM33.0851 1.096V0.304H33.9491V1.096H33.0851ZM33.1651 6V2.048H33.8771V6H33.1651ZM35.2979 6V2.048H35.9459V2.96H35.9539C36.0499 2.66667 36.2179 2.43733 36.4579 2.272C36.6979 2.10133 36.9913 2.00533 37.3379 1.984L37.6979 1.968L37.7619 2.616L37.1859 2.664C36.8179 2.696 36.5299 2.81867 36.3219 3.032C36.1139 3.24 36.0099 3.50133 36.0099 3.816V6H35.2979ZM40.0586 6.072C39.84 6.072 39.624 6.05067 39.4106 6.008C39.2026 5.97067 39.008 5.91733 38.8266 5.848C38.6506 5.77333 38.4986 5.68267 38.3706 5.576L38.6026 5.072C38.736 5.17333 38.8826 5.256 39.0426 5.32C39.208 5.384 39.376 5.432 39.5466 5.464C39.7226 5.49067 39.8906 5.504 40.0506 5.504C40.3813 5.504 40.6346 5.45333 40.8106 5.352C40.992 5.25067 41.0826 5.10933 41.0826 4.928C41.0826 4.77333 41.0293 4.656 40.9226 4.576C40.8213 4.49067 40.6506 4.42667 40.4106 4.384L39.5866 4.24C39.2186 4.17067 38.9413 4.04533 38.7546 3.864C38.5733 3.68267 38.4826 3.44533 38.4826 3.152C38.4826 2.91733 38.5466 2.712 38.6746 2.536C38.808 2.36 38.9973 2.224 39.2426 2.128C39.488 2.02667 39.7813 1.976 40.1226 1.976C40.3093 1.976 40.4986 1.99467 40.6906 2.032C40.888 2.06933 41.0693 2.12533 41.2346 2.2C41.4053 2.26933 41.544 2.35733 41.6506 2.464L41.4106 2.968C41.304 2.86667 41.176 2.78667 41.0266 2.728C40.8826 2.664 40.7306 2.61867 40.5706 2.592C40.416 2.56 40.264 2.544 40.1146 2.544C39.8053 2.544 39.5653 2.59733 39.3946 2.704C39.224 2.80533 39.1386 2.94933 39.1386 3.136C39.1386 3.28533 39.1866 3.40267 39.2826 3.488C39.384 3.57333 39.5466 3.63733 39.7706 3.68L40.5706 3.824C40.9653 3.89867 41.2586 4.024 41.4506 4.2C41.6426 4.37067 41.7386 4.608 41.7386 4.912C41.7386 5.14667 41.6693 5.352 41.5306 5.528C41.392 5.69867 41.1973 5.832 40.9466 5.928C40.696 6.024 40.4 6.072 40.0586 6.072ZM44.5401 6.072C44.0654 6.072 43.7054 5.94667 43.4601 5.696C43.2201 5.44533 43.1001 5.088 43.1001 4.624V2.632H42.3001V2.048H43.1241V0.872H43.8121V2.048H45.2281V2.632H43.8121V4.56C43.8121 4.864 43.8787 5.09067 44.0121 5.24C44.1507 5.384 44.3614 5.456 44.6441 5.456C44.7561 5.456 44.8627 5.44533 44.9641 5.424C45.0707 5.40267 45.1721 5.37067 45.2681 5.328L45.3801 5.888C45.2734 5.94667 45.1427 5.992 44.9881 6.024C44.8387 6.056 44.6894 6.072 44.5401 6.072ZM50.1984 6.072C49.953 6.072 49.7157 6.04533 49.4864 5.992C49.2624 5.93867 49.0517 5.86133 48.8544 5.76C48.657 5.65333 48.481 5.52533 48.3264 5.376L48.6064 4.816C48.8517 5.04 49.1024 5.20267 49.3584 5.304C49.6197 5.4 49.8997 5.448 50.1984 5.448C50.593 5.448 50.8997 5.34667 51.1184 5.144C51.3424 4.936 51.4544 4.64533 51.4544 4.272C51.4544 3.904 51.3504 3.61067 51.1424 3.392C50.9344 3.17333 50.6464 3.064 50.2784 3.064C50.033 3.064 49.809 3.11467 49.6064 3.216C49.409 3.312 49.225 3.47467 49.0544 3.704H48.4944V0.36H51.8704V0.976H49.1424V3.096H49.1104C49.2384 2.904 49.4144 2.74933 49.6384 2.632C49.8624 2.50933 50.113 2.448 50.3904 2.448C50.753 2.448 51.065 2.52533 51.3264 2.68C51.5877 2.82933 51.7877 3.03733 51.9264 3.304C52.0704 3.57067 52.1424 3.88267 52.1424 4.24C52.1424 4.61867 52.0624 4.94667 51.9024 5.224C51.7424 5.496 51.5184 5.70667 51.2304 5.856C50.9424 6 50.5984 6.072 50.1984 6.072ZM54.9313 6.072C54.4993 6.072 54.1339 5.96267 53.8353 5.744C53.5366 5.52 53.3099 5.19467 53.1553 4.768C53.0059 4.336 52.9313 3.80533 52.9313 3.176C52.9313 2.54667 53.0059 2.01867 53.1553 1.592C53.3099 1.16533 53.5366 0.842666 53.8353 0.624C54.1339 0.4 54.4993 0.288 54.9313 0.288C55.3739 0.288 55.7419 0.397333 56.0353 0.616C56.3286 0.834666 56.5499 1.15733 56.6993 1.584C56.8539 2.01067 56.9313 2.53867 56.9313 3.168C56.9313 3.79733 56.8539 4.328 56.6993 4.76C56.5499 5.192 56.3259 5.52 56.0273 5.744C55.7286 5.96267 55.3633 6.072 54.9313 6.072ZM54.9313 5.448C55.3686 5.448 55.6939 5.264 55.9073 4.896C56.1206 4.528 56.2273 3.952 56.2273 3.168C56.2273 2.38933 56.1206 1.81867 55.9073 1.456C55.6993 1.09333 55.3766 0.912 54.9393 0.912C54.4966 0.912 54.1686 1.096 53.9553 1.464C53.7419 1.82667 53.6353 2.39733 53.6353 3.176C53.6353 3.94933 53.7419 4.52267 53.9553 4.896C54.1686 5.264 54.4939 5.448 54.9313 5.448ZM59.7281 6.072C59.2961 6.072 58.9308 5.96267 58.6321 5.744C58.3335 5.52 58.1068 5.19467 57.9521 4.768C57.8028 4.336 57.7281 3.80533 57.7281 3.176C57.7281 2.54667 57.8028 2.01867 57.9521 1.592C58.1068 1.16533 58.3335 0.842666 58.6321 0.624C58.9308 0.4 59.2961 0.288 59.7281 0.288C60.1708 0.288 60.5388 0.397333 60.8321 0.616C61.1255 0.834666 61.3468 1.15733 61.4961 1.584C61.6508 2.01067 61.7281 2.53867 61.7281 3.168C61.7281 3.79733 61.6508 4.328 61.4961 4.76C61.3468 5.192 61.1228 5.52 60.8241 5.744C60.5255 5.96267 60.1601 6.072 59.7281 6.072ZM59.7281 5.448C60.1655 5.448 60.4908 5.264 60.7041 4.896C60.9175 4.528 61.0241 3.952 61.0241 3.168C61.0241 2.38933 60.9175 1.81867 60.7041 1.456C60.4961 1.09333 60.1735 0.912 59.7361 0.912C59.2935 0.912 58.9655 1.096 58.7521 1.464C58.5388 1.82667 58.4321 2.39733 58.4321 3.176C58.4321 3.94933 58.5388 4.52267 58.7521 4.896C58.9655 5.264 59.2908 5.448 59.7281 5.448ZM62.853 6V2.048H63.509V2.912C63.5783 2.736 63.6743 2.57867 63.797 2.44C63.925 2.296 64.077 2.184 64.253 2.104C64.4343 2.01867 64.6317 1.976 64.845 1.976C65.1917 1.976 65.477 2.06133 65.701 2.232C65.925 2.40267 66.0637 2.62667 66.117 2.904H66.109C66.2157 2.64267 66.3837 2.424 66.613 2.248C66.8477 2.06667 67.141 1.976 67.493 1.976C67.7917 1.976 68.045 2.03467 68.253 2.152C68.461 2.264 68.6183 2.43733 68.725 2.672C68.8317 2.90667 68.885 3.20267 68.885 3.56V6H68.181V3.608C68.181 3.26667 68.1197 3.01067 67.997 2.84C67.8743 2.66933 67.6557 2.584 67.341 2.584C67.1063 2.584 66.9037 2.63733 66.733 2.744C66.5677 2.84533 66.4397 2.98933 66.349 3.176C66.2637 3.35733 66.221 3.56267 66.221 3.792V6H65.517V3.608C65.517 3.272 65.4477 3.01867 65.309 2.848C65.1703 2.672 64.9597 2.584 64.677 2.584C64.4477 2.584 64.2477 2.64267 64.077 2.76C63.9117 2.872 63.7837 3.01867 63.693 3.2C63.6023 3.38133 63.557 3.57333 63.557 3.776V6H62.853ZM71.5136 6.072C71.1296 6.072 70.8336 5.96 70.6256 5.736C70.4176 5.512 70.3136 5.19733 70.3136 4.792V0.36H71.0256V4.72C71.0256 4.88 71.0496 5.01867 71.0976 5.136C71.1456 5.248 71.2149 5.33333 71.3056 5.392C71.3962 5.45067 71.5056 5.48 71.6336 5.48C71.7136 5.48 71.7882 5.47733 71.8576 5.472C71.9322 5.46133 72.0069 5.44533 72.0816 5.424L72.0976 5.984C72.0069 6.016 71.9136 6.03733 71.8176 6.048C71.7269 6.064 71.6256 6.072 71.5136 6.072ZM76.6299 6V0.992H74.5979V0.36H79.3739V0.992H77.3419V6H76.6299ZM80.9617 6.072C80.679 6.072 80.4257 6.02133 80.2017 5.92C79.9777 5.81333 79.8017 5.66933 79.6737 5.488C79.5457 5.30667 79.4817 5.104 79.4817 4.88C79.4817 4.576 79.567 4.33867 79.7377 4.168C79.9084 3.992 80.1697 3.86667 80.5217 3.792C80.879 3.71733 81.335 3.68 81.8897 3.68H82.4577V4.168H81.9217C81.6124 4.168 81.3484 4.17867 81.1297 4.2C80.911 4.216 80.7324 4.25067 80.5937 4.304C80.455 4.352 80.3537 4.41867 80.2897 4.504C80.2257 4.58933 80.1937 4.70133 80.1937 4.84C80.1937 5.05333 80.2764 5.21867 80.4417 5.336C80.6124 5.45333 80.8284 5.512 81.0897 5.512C81.319 5.512 81.527 5.46133 81.7137 5.36C81.9057 5.25333 82.0577 5.112 82.1697 4.936C82.287 4.76 82.3457 4.56533 82.3457 4.352V3.448C82.3457 3.13333 82.2577 2.90667 82.0817 2.768C81.9057 2.624 81.6444 2.552 81.2977 2.552C81.063 2.552 80.8284 2.584 80.5937 2.648C80.3644 2.712 80.127 2.81867 79.8817 2.968L79.6497 2.44C79.815 2.33867 79.991 2.256 80.1777 2.192C80.3644 2.12267 80.559 2.06933 80.7617 2.032C80.9644 1.99467 81.167 1.976 81.3697 1.976C81.711 1.976 82.0044 2.02933 82.2497 2.136C82.5004 2.24267 82.6924 2.408 82.8257 2.632C82.9644 2.856 83.0337 3.14933 83.0337 3.512V6H82.4097V5.136C82.335 5.30133 82.231 5.456 82.0977 5.6C81.9644 5.744 81.8017 5.85867 81.6097 5.944C81.423 6.02933 81.207 6.072 80.9617 6.072ZM84.4624 6V2.048H85.1184V2.912C85.1877 2.736 85.2837 2.57867 85.4064 2.44C85.5344 2.296 85.6864 2.184 85.8624 2.104C86.0437 2.01867 86.241 1.976 86.4544 1.976C86.801 1.976 87.0864 2.06133 87.3104 2.232C87.5344 2.40267 87.673 2.62667 87.7264 2.904H87.7184C87.825 2.64267 87.993 2.424 88.2224 2.248C88.457 2.06667 88.7504 1.976 89.1024 1.976C89.401 1.976 89.6544 2.03467 89.8624 2.152C90.0704 2.264 90.2277 2.43733 90.3344 2.672C90.441 2.90667 90.4944 3.20267 90.4944 3.56V6H89.7904V3.608C89.7904 3.26667 89.729 3.01067 89.6064 2.84C89.4837 2.66933 89.265 2.584 88.9504 2.584C88.7157 2.584 88.513 2.63733 88.3424 2.744C88.177 2.84533 88.049 2.98933 87.9584 3.176C87.873 3.35733 87.8304 3.56267 87.8304 3.792V6H87.1264V3.608C87.1264 3.272 87.057 3.01867 86.9184 2.848C86.7797 2.672 86.569 2.584 86.2864 2.584C86.057 2.584 85.857 2.64267 85.6864 2.76C85.521 2.872 85.393 3.01867 85.3024 3.2C85.2117 3.38133 85.1664 3.57333 85.1664 3.776V6H84.4624ZM91.9229 7.44V2.04H92.5789V2.912C92.6963 2.61333 92.8803 2.384 93.1309 2.224C93.3869 2.05867 93.6856 1.976 94.0269 1.976C94.3949 1.976 94.7149 2.06133 94.9869 2.232C95.2589 2.40267 95.4696 2.64 95.6189 2.944C95.7683 3.248 95.8429 3.608 95.8429 4.024C95.8429 4.424 95.7683 4.77867 95.6189 5.088C95.4749 5.39733 95.2669 5.64 94.9949 5.816C94.7229 5.98667 94.4029 6.072 94.0349 6.072C93.6989 6.072 93.4083 5.992 93.1629 5.832C92.9229 5.66667 92.7469 5.448 92.6349 5.176V7.44H91.9229ZM93.8749 5.488C94.2643 5.488 94.5709 5.35733 94.7949 5.096C95.0189 4.82933 95.1309 4.46933 95.1309 4.016C95.1309 3.56267 95.0189 3.208 94.7949 2.952C94.5709 2.69067 94.2643 2.56 93.8749 2.56C93.4909 2.56 93.1869 2.69067 92.9629 2.952C92.7389 3.208 92.6269 3.56267 92.6269 4.016C92.6269 4.46933 92.7389 4.82933 92.9629 5.096C93.1869 5.35733 93.4909 5.488 93.8749 5.488ZM98.9285 6.072C98.4858 6.072 98.1018 5.992 97.7765 5.832C97.4565 5.66667 97.2112 5.432 97.0405 5.128C96.8698 4.81867 96.7845 4.45067 96.7845 4.024C96.7845 3.624 96.8645 3.272 97.0245 2.968C97.1845 2.65867 97.4112 2.416 97.7045 2.24C97.9978 2.064 98.3472 1.976 98.7525 1.976C99.1365 1.976 99.4618 2.05867 99.7285 2.224C100.001 2.38933 100.206 2.62133 100.345 2.92C100.489 3.21867 100.561 3.57333 100.561 3.984V4.216H97.3205V3.72H100.097L99.9445 3.88C99.9445 3.44267 99.8405 3.10667 99.6325 2.872C99.4298 2.63733 99.1365 2.52 98.7525 2.52C98.5018 2.52 98.2778 2.57867 98.0805 2.696C97.8885 2.808 97.7392 2.968 97.6325 3.176C97.5258 3.384 97.4725 3.63733 97.4725 3.936V4.016C97.4725 4.336 97.5312 4.60533 97.6485 4.824C97.7658 5.04267 97.9338 5.208 98.1525 5.32C98.3712 5.432 98.6325 5.488 98.9365 5.488C99.1552 5.488 99.3765 5.45867 99.6005 5.4C99.8298 5.336 100.043 5.224 100.241 5.064L100.481 5.576C100.278 5.74667 100.035 5.872 99.7525 5.952C99.4752 6.032 99.2005 6.072 98.9285 6.072ZM101.735 6V2.048H102.383V2.96H102.391C102.487 2.66667 102.655 2.43733 102.895 2.272C103.135 2.10133 103.429 2.00533 103.775 1.984L104.135 1.968L104.199 2.616L103.623 2.664C103.255 2.696 102.967 2.81867 102.759 3.032C102.551 3.24 102.447 3.50133 102.447 3.816V6H101.735ZM104.756 4.144V3.568H106.996V4.144H104.756ZM108.402 6V0.36H112.074V0.984H109.106V2.832H111.914V3.456H109.106V5.376H112.074V6H108.402ZM114.426 6L112.77 2.048H113.53L114.818 5.296H114.778L116.066 2.048H116.802L115.138 6H114.426ZM117.601 1.096V0.304H118.465V1.096H117.601ZM117.681 6V2.048H118.393V6H117.681ZM121.39 6.072C121.027 6.072 120.71 5.98667 120.438 5.816C120.166 5.64533 119.952 5.40533 119.798 5.096C119.648 4.78667 119.574 4.42933 119.574 4.024C119.574 3.61333 119.648 3.256 119.798 2.952C119.947 2.64267 120.158 2.40267 120.43 2.232C120.702 2.06133 121.019 1.976 121.382 1.976C121.723 1.976 122.014 2.056 122.254 2.216C122.499 2.376 122.675 2.59467 122.782 2.872V0.36H123.494V6H122.838V5.128C122.72 5.42667 122.536 5.65867 122.286 5.824C122.035 5.98933 121.736 6.072 121.39 6.072ZM121.542 5.488C121.931 5.488 122.235 5.35733 122.454 5.096C122.678 4.83467 122.79 4.47733 122.79 4.024C122.79 3.57067 122.678 3.21333 122.454 2.952C122.235 2.69067 121.931 2.56 121.542 2.56C121.158 2.56 120.851 2.69067 120.622 2.952C120.398 3.21333 120.286 3.57067 120.286 4.024C120.286 4.47733 120.398 4.83467 120.622 5.096C120.846 5.35733 121.152 5.488 121.542 5.488ZM126.819 6.072C126.376 6.072 125.992 5.992 125.667 5.832C125.347 5.66667 125.102 5.432 124.931 5.128C124.76 4.81867 124.675 4.45067 124.675 4.024C124.675 3.624 124.755 3.272 124.915 2.968C125.075 2.65867 125.302 2.416 125.595 2.24C125.888 2.064 126.238 1.976 126.643 1.976C127.027 1.976 127.352 2.05867 127.619 2.224C127.891 2.38933 128.096 2.62133 128.235 2.92C128.379 3.21867 128.451 3.57333 128.451 3.984V4.216H125.211V3.72H127.987L127.835 3.88C127.835 3.44267 127.731 3.10667 127.523 2.872C127.32 2.63733 127.027 2.52 126.643 2.52C126.392 2.52 126.168 2.57867 125.971 2.696C125.779 2.808 125.63 2.968 125.523 3.176C125.416 3.384 125.363 3.63733 125.363 3.936V4.016C125.363 4.336 125.422 4.60533 125.539 4.824C125.656 5.04267 125.824 5.208 126.043 5.32C126.262 5.432 126.523 5.488 126.827 5.488C127.046 5.488 127.267 5.45867 127.491 5.4C127.72 5.336 127.934 5.224 128.131 5.064L128.371 5.576C128.168 5.74667 127.926 5.872 127.643 5.952C127.366 6.032 127.091 6.072 126.819 6.072ZM129.626 6V2.048H130.29V2.904C130.418 2.61067 130.61 2.384 130.866 2.224C131.122 2.05867 131.41 1.976 131.73 1.976C132.055 1.976 132.327 2.03467 132.546 2.152C132.765 2.264 132.927 2.44 133.034 2.68C133.146 2.91467 133.202 3.208 133.202 3.56V6H132.49V3.6C132.49 3.38667 132.461 3.20533 132.402 3.056C132.343 2.90667 132.245 2.792 132.106 2.712C131.973 2.62667 131.794 2.584 131.57 2.584C131.335 2.584 131.122 2.63733 130.93 2.744C130.743 2.85067 130.597 2.99467 130.49 3.176C130.389 3.35733 130.338 3.56 130.338 3.784V6H129.626ZM136.274 6.072C135.8 6.072 135.44 5.94667 135.194 5.696C134.954 5.44533 134.834 5.088 134.834 4.624V2.632H134.034V2.048H134.858V0.872H135.546V2.048H136.962V2.632H135.546V4.56C135.546 4.864 135.613 5.09067 135.746 5.24C135.885 5.384 136.096 5.456 136.378 5.456C136.49 5.456 136.597 5.44533 136.698 5.424C136.805 5.40267 136.906 5.37067 137.002 5.328L137.114 5.888C137.008 5.94667 136.877 5.992 136.722 6.024C136.573 6.056 136.424 6.072 136.274 6.072ZM3.24 17.072C2.70133 17.072 2.232 16.9573 1.832 16.728C1.43733 16.4933 1.13333 16.16 0.92 15.728C0.706667 15.2907 0.6 14.7733 0.6 14.176C0.6 13.5787 0.706667 13.064 0.92 12.632C1.13333 12.2 1.43733 11.8693 1.832 11.64C2.22667 11.4053 2.696 11.288 3.24 11.288C3.63467 11.288 3.99467 11.3493 4.32 11.472C4.64533 11.5893 4.92533 11.7627 5.16 11.992L4.88 12.552C4.63467 12.3333 4.38133 12.176 4.12 12.08C3.864 11.984 3.576 11.936 3.256 11.936C2.65867 11.936 2.18933 12.128 1.848 12.512C1.512 12.8907 1.344 13.4453 1.344 14.176C1.344 14.9013 1.512 15.4587 1.848 15.848C2.184 16.232 2.65333 16.424 3.256 16.424C3.576 16.424 3.864 16.376 4.12 16.28C4.38133 16.184 4.63467 16.0267 4.88 15.808L5.16 16.368C4.92533 16.5973 4.64533 16.7733 4.32 16.896C3.99467 17.0133 3.63467 17.072 3.24 17.072ZM7.79138 17.072C7.39138 17.072 7.04471 16.9867 6.75138 16.816C6.45804 16.6453 6.23138 16.408 6.07138 16.104C5.91138 15.7947 5.83138 15.432 5.83138 15.016C5.83138 14.6053 5.91138 14.248 6.07138 13.944C6.23138 13.6347 6.45804 13.3973 6.75138 13.232C7.04471 13.0613 7.39138 12.976 7.79138 12.976C8.19138 12.976 8.53538 13.0613 8.82338 13.232C9.11671 13.3973 9.34338 13.6347 9.50338 13.944C9.66338 14.248 9.74338 14.6053 9.74338 15.016C9.74338 15.432 9.66338 15.7947 9.50338 16.104C9.34871 16.408 9.12471 16.6453 8.83138 16.816C8.53804 16.9867 8.19138 17.072 7.79138 17.072ZM7.78338 16.472C8.17271 16.472 8.47938 16.3413 8.70338 16.08C8.92738 15.8187 9.03938 15.464 9.03938 15.016C9.03938 14.568 8.92738 14.216 8.70338 13.96C8.48471 13.704 8.18071 13.576 7.79138 13.576C7.40204 13.576 7.09538 13.704 6.87138 13.96C6.64738 14.216 6.53537 14.568 6.53537 15.016C6.53537 15.464 6.64738 15.8187 6.87138 16.08C7.10071 16.3413 7.40471 16.472 7.78338 16.472ZM10.9386 17V13.048H11.6026V13.904C11.7306 13.6107 11.9226 13.384 12.1786 13.224C12.4346 13.0587 12.7226 12.976 13.0426 12.976C13.3679 12.976 13.6399 13.0347 13.8586 13.152C14.0772 13.264 14.2399 13.44 14.3466 13.68C14.4586 13.9147 14.5146 14.208 14.5146 14.56V17H13.8026V14.6C13.8026 14.3867 13.7732 14.2053 13.7146 14.056C13.6559 13.9067 13.5572 13.792 13.4186 13.712C13.2852 13.6267 13.1066 13.584 12.8826 13.584C12.6479 13.584 12.4346 13.6373 12.2426 13.744C12.0559 13.8507 11.9092 13.9947 11.8026 14.176C11.7012 14.3573 11.6506 14.56 11.6506 14.784V17H10.9386ZM17.5869 17.072C17.1123 17.072 16.7523 16.9467 16.5069 16.696C16.2669 16.4453 16.1469 16.088 16.1469 15.624V13.632H15.3469V13.048H16.1709V11.872H16.8589V13.048H18.2749V13.632H16.8589V15.56C16.8589 15.864 16.9256 16.0907 17.0589 16.24C17.1976 16.384 17.4083 16.456 17.6909 16.456C17.8029 16.456 17.9096 16.4453 18.0109 16.424C18.1176 16.4027 18.2189 16.3707 18.3149 16.328L18.4269 16.888C18.3203 16.9467 18.1896 16.992 18.0349 17.024C17.8856 17.056 17.7363 17.072 17.5869 17.072ZM20.5789 17.072C20.2962 17.072 20.0429 17.0213 19.8189 16.92C19.5949 16.8133 19.4189 16.6693 19.2909 16.488C19.1629 16.3067 19.0989 16.104 19.0989 15.88C19.0989 15.576 19.1842 15.3387 19.3549 15.168C19.5255 14.992 19.7869 14.8667 20.1389 14.792C20.4962 14.7173 20.9522 14.68 21.5069 14.68H22.0749V15.168H21.5389C21.2295 15.168 20.9655 15.1787 20.7469 15.2C20.5282 15.216 20.3495 15.2507 20.2109 15.304C20.0722 15.352 19.9709 15.4187 19.9069 15.504C19.8429 15.5893 19.8109 15.7013 19.8109 15.84C19.8109 16.0533 19.8935 16.2187 20.0589 16.336C20.2295 16.4533 20.4455 16.512 20.7069 16.512C20.9362 16.512 21.1442 16.4613 21.3309 16.36C21.5229 16.2533 21.6749 16.112 21.7869 15.936C21.9042 15.76 21.9629 15.5653 21.9629 15.352V14.448C21.9629 14.1333 21.8749 13.9067 21.6989 13.768C21.5229 13.624 21.2615 13.552 20.9149 13.552C20.6802 13.552 20.4455 13.584 20.2109 13.648C19.9815 13.712 19.7442 13.8187 19.4989 13.968L19.2669 13.44C19.4322 13.3387 19.6082 13.256 19.7949 13.192C19.9815 13.1227 20.1762 13.0693 20.3789 13.032C20.5815 12.9947 20.7842 12.976 20.9869 12.976C21.3282 12.976 21.6215 13.0293 21.8669 13.136C22.1175 13.2427 22.3095 13.408 22.4429 13.632C22.5815 13.856 22.6509 14.1493 22.6509 14.512V17H22.0269V16.136C21.9522 16.3013 21.8482 16.456 21.7149 16.6C21.5815 16.744 21.4189 16.8587 21.2269 16.944C21.0402 17.0293 20.8242 17.072 20.5789 17.072ZM23.9836 12.096V11.304H24.8476V12.096H23.9836ZM24.0636 17V13.048H24.7756V17H24.0636ZM26.1964 17V13.048H26.8604V13.904C26.9884 13.6107 27.1804 13.384 27.4364 13.224C27.6924 13.0587 27.9804 12.976 28.3004 12.976C28.6257 12.976 28.8977 13.0347 29.1164 13.152C29.335 13.264 29.4977 13.44 29.6044 13.68C29.7164 13.9147 29.7724 14.208 29.7724 14.56V17H29.0604V14.6C29.0604 14.3867 29.031 14.2053 28.9724 14.056C28.9137 13.9067 28.815 13.792 28.6764 13.712C28.543 13.6267 28.3644 13.584 28.1404 13.584C27.9057 13.584 27.6924 13.6373 27.5004 13.744C27.3137 13.8507 27.167 13.9947 27.0604 14.176C26.959 14.3573 26.9084 14.56 26.9084 14.784V17H26.1964ZM33.0848 17.072C32.6421 17.072 32.2581 16.992 31.9328 16.832C31.6128 16.6667 31.3674 16.432 31.1968 16.128C31.0261 15.8187 30.9408 15.4507 30.9408 15.024C30.9408 14.624 31.0208 14.272 31.1808 13.968C31.3408 13.6587 31.5674 13.416 31.8608 13.24C32.1541 13.064 32.5034 12.976 32.9088 12.976C33.2928 12.976 33.6181 13.0587 33.8848 13.224C34.1568 13.3893 34.3621 13.6213 34.5008 13.92C34.6448 14.2187 34.7168 14.5733 34.7168 14.984V15.216H31.4768V14.72H34.2528L34.1008 14.88C34.1008 14.4427 33.9968 14.1067 33.7888 13.872C33.5861 13.6373 33.2928 13.52 32.9088 13.52C32.6581 13.52 32.4341 13.5787 32.2368 13.696C32.0448 13.808 31.8954 13.968 31.7888 14.176C31.6821 14.384 31.6288 14.6373 31.6288 14.936V15.016C31.6288 15.336 31.6874 15.6053 31.8048 15.824C31.9221 16.0427 32.0901 16.208 32.3088 16.32C32.5274 16.432 32.7888 16.488 33.0928 16.488C33.3114 16.488 33.5328 16.4587 33.7568 16.4C33.9861 16.336 34.1994 16.224 34.3968 16.064L34.6368 16.576C34.4341 16.7467 34.1914 16.872 33.9088 16.952C33.6314 17.032 33.3568 17.072 33.0848 17.072ZM35.8917 17V13.048H36.5397V13.96H36.5477C36.6437 13.6667 36.8117 13.4373 37.0517 13.272C37.2917 13.1013 37.585 13.0053 37.9317 12.984L38.2917 12.968L38.3557 13.616L37.7797 13.664C37.4117 13.696 37.1237 13.8187 36.9157 14.032C36.7077 14.24 36.6037 14.5013 36.6037 14.816V17H35.8917ZM38.3359 15.088V14.6H46.3359V15.088H38.3359ZM47.1679 17V11.36H47.8799V13.904H47.9119L50.5919 11.36H51.4959L48.3839 14.312L48.4319 13.92L51.6879 17H50.7359L47.9119 14.352H47.8799V17H47.1679ZM54.2098 17.072C53.7671 17.072 53.3831 16.992 53.0578 16.832C52.7378 16.6667 52.4924 16.432 52.3218 16.128C52.1511 15.8187 52.0658 15.4507 52.0658 15.024C52.0658 14.624 52.1458 14.272 52.3058 13.968C52.4658 13.6587 52.6924 13.416 52.9858 13.24C53.2791 13.064 53.6284 12.976 54.0338 12.976C54.4178 12.976 54.7431 13.0587 55.0098 13.224C55.2818 13.3893 55.4871 13.6213 55.6258 13.92C55.7698 14.2187 55.8418 14.5733 55.8418 14.984V15.216H52.6018V14.72H55.3778L55.2258 14.88C55.2258 14.4427 55.1218 14.1067 54.9138 13.872C54.7111 13.6373 54.4178 13.52 54.0338 13.52C53.7831 13.52 53.5591 13.5787 53.3618 13.696C53.1698 13.808 53.0204 13.968 52.9138 14.176C52.8071 14.384 52.7538 14.6373 52.7538 14.936V15.016C52.7538 15.336 52.8124 15.6053 52.9298 15.824C53.0471 16.0427 53.2151 16.208 53.4338 16.32C53.6524 16.432 53.9138 16.488 54.2178 16.488C54.4364 16.488 54.6578 16.4587 54.8818 16.4C55.1111 16.336 55.3244 16.224 55.5218 16.064L55.7618 16.576C55.5591 16.7467 55.3164 16.872 55.0338 16.952C54.7564 17.032 54.4818 17.072 54.2098 17.072ZM58.9207 17.072C58.478 17.072 58.094 16.992 57.7687 16.832C57.4487 16.6667 57.2034 16.432 57.0327 16.128C56.862 15.8187 56.7767 15.4507 56.7767 15.024C56.7767 14.624 56.8567 14.272 57.0167 13.968C57.1767 13.6587 57.4034 13.416 57.6967 13.24C57.99 13.064 58.3394 12.976 58.7447 12.976C59.1287 12.976 59.454 13.0587 59.7207 13.224C59.9927 13.3893 60.198 13.6213 60.3367 13.92C60.4807 14.2187 60.5527 14.5733 60.5527 14.984V15.216H57.3127V14.72H60.0887L59.9367 14.88C59.9367 14.4427 59.8327 14.1067 59.6247 13.872C59.422 13.6373 59.1287 13.52 58.7447 13.52C58.494 13.52 58.27 13.5787 58.0727 13.696C57.8807 13.808 57.7314 13.968 57.6247 14.176C57.518 14.384 57.4647 14.6373 57.4647 14.936V15.016C57.4647 15.336 57.5234 15.6053 57.6407 15.824C57.758 16.0427 57.926 16.208 58.1447 16.32C58.3634 16.432 58.6247 16.488 58.9287 16.488C59.1474 16.488 59.3687 16.4587 59.5927 16.4C59.822 16.336 60.0354 16.224 60.2327 16.064L60.4727 16.576C60.27 16.7467 60.0274 16.872 59.7447 16.952C59.4674 17.032 59.1927 17.072 58.9207 17.072ZM61.7276 18.44V13.04H62.3836V13.912C62.501 13.6133 62.685 13.384 62.9356 13.224C63.1916 13.0587 63.4903 12.976 63.8316 12.976C64.1996 12.976 64.5196 13.0613 64.7916 13.232C65.0636 13.4027 65.2743 13.64 65.4236 13.944C65.573 14.248 65.6476 14.608 65.6476 15.024C65.6476 15.424 65.573 15.7787 65.4236 16.088C65.2796 16.3973 65.0716 16.64 64.7996 16.816C64.5276 16.9867 64.2076 17.072 63.8396 17.072C63.5036 17.072 63.213 16.992 62.9676 16.832C62.7276 16.6667 62.5516 16.448 62.4396 16.176V18.44H61.7276ZM63.6796 16.488C64.069 16.488 64.3756 16.3573 64.5996 16.096C64.8236 15.8293 64.9356 15.4693 64.9356 15.016C64.9356 14.5627 64.8236 14.208 64.5996 13.952C64.3756 13.6907 64.069 13.56 63.6796 13.56C63.2956 13.56 62.9916 13.6907 62.7676 13.952C62.5436 14.208 62.4316 14.5627 62.4316 15.016C62.4316 15.4693 62.5436 15.8293 62.7676 16.096C62.9916 16.3573 63.2956 16.488 63.6796 16.488ZM68.2852 17.072C68.0665 17.072 67.8505 17.0507 67.6372 17.008C67.4292 16.9707 67.2345 16.9173 67.0532 16.848C66.8772 16.7733 66.7252 16.6827 66.5972 16.576L66.8292 16.072C66.9625 16.1733 67.1092 16.256 67.2692 16.32C67.4345 16.384 67.6025 16.432 67.7732 16.464C67.9492 16.4907 68.1172 16.504 68.2772 16.504C68.6079 16.504 68.8612 16.4533 69.0372 16.352C69.2185 16.2507 69.3092 16.1093 69.3092 15.928C69.3092 15.7733 69.2559 15.656 69.1492 15.576C69.0479 15.4907 68.8772 15.4267 68.6372 15.384L67.8132 15.24C67.4452 15.1707 67.1679 15.0453 66.9812 14.864C66.7999 14.6827 66.7092 14.4453 66.7092 14.152C66.7092 13.9173 66.7732 13.712 66.9012 13.536C67.0345 13.36 67.2239 13.224 67.4692 13.128C67.7145 13.0267 68.0079 12.976 68.3492 12.976C68.5359 12.976 68.7252 12.9947 68.9172 13.032C69.1145 13.0693 69.2959 13.1253 69.4612 13.2C69.6319 13.2693 69.7705 13.3573 69.8772 13.464L69.6372 13.968C69.5305 13.8667 69.4025 13.7867 69.2532 13.728C69.1092 13.664 68.9572 13.6187 68.7972 13.592C68.6425 13.56 68.4905 13.544 68.3412 13.544C68.0319 13.544 67.7919 13.5973 67.6212 13.704C67.4505 13.8053 67.3652 13.9493 67.3652 14.136C67.3652 14.2853 67.4132 14.4027 67.5092 14.488C67.6105 14.5733 67.7732 14.6373 67.9972 14.68L68.7972 14.824C69.1919 14.8987 69.4852 15.024 69.6772 15.2C69.8692 15.3707 69.9652 15.608 69.9652 15.912C69.9652 16.1467 69.8959 16.352 69.7572 16.528C69.6185 16.6987 69.4239 16.832 69.1732 16.928C68.9225 17.024 68.6265 17.072 68.2852 17.072ZM73.5121 17V11.36H74.3041L76.3361 15.384H76.2881L78.3041 11.36H79.0961V17H78.4161V12.368H78.4481L76.5681 16.104H76.0481L74.1521 12.368H74.1921V17H73.5121ZM82.5613 17.072C82.1186 17.072 81.7346 16.992 81.4093 16.832C81.0893 16.6667 80.844 16.432 80.6733 16.128C80.5026 15.8187 80.4173 15.4507 80.4173 15.024C80.4173 14.624 80.4973 14.272 80.6573 13.968C80.8173 13.6587 81.044 13.416 81.3373 13.24C81.6306 13.064 81.98 12.976 82.3853 12.976C82.7693 12.976 83.0946 13.0587 83.3613 13.224C83.6333 13.3893 83.8386 13.6213 83.9773 13.92C84.1213 14.2187 84.1933 14.5733 84.1933 14.984V15.216H80.9533V14.72H83.7293L83.5773 14.88C83.5773 14.4427 83.4733 14.1067 83.2653 13.872C83.0626 13.6373 82.7693 13.52 82.3853 13.52C82.1346 13.52 81.9106 13.5787 81.7133 13.696C81.5213 13.808 81.372 13.968 81.2653 14.176C81.1586 14.384 81.1053 14.6373 81.1053 14.936V15.016C81.1053 15.336 81.164 15.6053 81.2813 15.824C81.3986 16.0427 81.5666 16.208 81.7853 16.32C82.004 16.432 82.2653 16.488 82.5693 16.488C82.788 16.488 83.0093 16.4587 83.2333 16.4C83.4626 16.336 83.676 16.224 83.8733 16.064L84.1133 16.576C83.9106 16.7467 83.668 16.872 83.3853 16.952C83.108 17.032 82.8333 17.072 82.5613 17.072ZM86.6883 17.072C86.4056 17.072 86.1523 17.0213 85.9283 16.92C85.7043 16.8133 85.5283 16.6693 85.4003 16.488C85.2723 16.3067 85.2083 16.104 85.2083 15.88C85.2083 15.576 85.2936 15.3387 85.4643 15.168C85.6349 14.992 85.8963 14.8667 86.2483 14.792C86.6056 14.7173 87.0616 14.68 87.6163 14.68H88.1843V15.168H87.6483C87.3389 15.168 87.0749 15.1787 86.8563 15.2C86.6376 15.216 86.4589 15.2507 86.3203 15.304C86.1816 15.352 86.0803 15.4187 86.0163 15.504C85.9523 15.5893 85.9203 15.7013 85.9203 15.84C85.9203 16.0533 86.0029 16.2187 86.1683 16.336C86.3389 16.4533 86.5549 16.512 86.8163 16.512C87.0456 16.512 87.2536 16.4613 87.4403 16.36C87.6323 16.2533 87.7843 16.112 87.8963 15.936C88.0136 15.76 88.0723 15.5653 88.0723 15.352V14.448C88.0723 14.1333 87.9843 13.9067 87.8083 13.768C87.6323 13.624 87.3709 13.552 87.0243 13.552C86.7896 13.552 86.5549 13.584 86.3203 13.648C86.0909 13.712 85.8536 13.8187 85.6083 13.968L85.3763 13.44C85.5416 13.3387 85.7176 13.256 85.9043 13.192C86.0909 13.1227 86.2856 13.0693 86.4883 13.032C86.6909 12.9947 86.8936 12.976 87.0963 12.976C87.4376 12.976 87.7309 13.0293 87.9763 13.136C88.2269 13.2427 88.4189 13.408 88.5523 13.632C88.6909 13.856 88.7603 14.1493 88.7603 14.512V17H88.1363V16.136C88.0616 16.3013 87.9576 16.456 87.8243 16.6C87.6909 16.744 87.5283 16.8587 87.3363 16.944C87.1496 17.0293 86.9336 17.072 86.6883 17.072ZM91.3729 17.072C90.9889 17.072 90.6929 16.96 90.4849 16.736C90.2769 16.512 90.1729 16.1973 90.1729 15.792V11.36H90.8849V15.72C90.8849 15.88 90.9089 16.0187 90.9569 16.136C91.0049 16.248 91.0743 16.3333 91.1649 16.392C91.2556 16.4507 91.3649 16.48 91.4929 16.48C91.5729 16.48 91.6476 16.4773 91.7169 16.472C91.7916 16.4613 91.8663 16.4453 91.9409 16.424L91.9569 16.984C91.8663 17.016 91.7729 17.0373 91.6769 17.048C91.5863 17.064 91.4849 17.072 91.3729 17.072ZM94.1758 17.072C93.9571 17.072 93.7411 17.0507 93.5278 17.008C93.3198 16.9707 93.1251 16.9173 92.9438 16.848C92.7678 16.7733 92.6158 16.6827 92.4878 16.576L92.7198 16.072C92.8531 16.1733 92.9998 16.256 93.1598 16.32C93.3251 16.384 93.4931 16.432 93.6638 16.464C93.8398 16.4907 94.0078 16.504 94.1678 16.504C94.4985 16.504 94.7518 16.4533 94.9278 16.352C95.1091 16.2507 95.1998 16.1093 95.1998 15.928C95.1998 15.7733 95.1465 15.656 95.0398 15.576C94.9385 15.4907 94.7678 15.4267 94.5278 15.384L93.7038 15.24C93.3358 15.1707 93.0585 15.0453 92.8718 14.864C92.6905 14.6827 92.5998 14.4453 92.5998 14.152C92.5998 13.9173 92.6638 13.712 92.7918 13.536C92.9251 13.36 93.1145 13.224 93.3598 13.128C93.6051 13.0267 93.8985 12.976 94.2398 12.976C94.4265 12.976 94.6158 12.9947 94.8078 13.032C95.0051 13.0693 95.1865 13.1253 95.3518 13.2C95.5225 13.2693 95.6611 13.3573 95.7678 13.464L95.5278 13.968C95.4211 13.8667 95.2931 13.7867 95.1438 13.728C94.9998 13.664 94.8478 13.6187 94.6878 13.592C94.5331 13.56 94.3811 13.544 94.2318 13.544C93.9225 13.544 93.6825 13.5973 93.5118 13.704C93.3411 13.8053 93.2558 13.9493 93.2558 14.136C93.2558 14.2853 93.3038 14.4027 93.3998 14.488C93.5011 14.5733 93.6638 14.6373 93.8878 14.68L94.6878 14.824C95.0825 14.8987 95.3758 15.024 95.5678 15.2C95.7598 15.3707 95.8558 15.608 95.8558 15.912C95.8558 16.1467 95.7865 16.352 95.6478 16.528C95.5091 16.6987 95.3145 16.832 95.0638 16.928C94.8131 17.024 94.5171 17.072 94.1758 17.072ZM99.3867 17V11.36H103.035V11.984H100.099V13.864H102.875V14.48H100.099V17H99.3867ZM104.017 17V13.048H104.665V13.96H104.673C104.769 13.6667 104.937 13.4373 105.177 13.272C105.417 13.1013 105.71 13.0053 106.057 12.984L106.417 12.968L106.481 13.616L105.905 13.664C105.537 13.696 105.249 13.8187 105.041 14.032C104.833 14.24 104.729 14.5013 104.729 14.816V17H104.017ZM109.218 17.072C108.775 17.072 108.391 16.992 108.066 16.832C107.746 16.6667 107.5 16.432 107.33 16.128C107.159 15.8187 107.074 15.4507 107.074 15.024C107.074 14.624 107.154 14.272 107.314 13.968C107.474 13.6587 107.7 13.416 107.994 13.24C108.287 13.064 108.636 12.976 109.042 12.976C109.426 12.976 109.751 13.0587 110.018 13.224C110.29 13.3893 110.495 13.6213 110.634 13.92C110.778 14.2187 110.85 14.5733 110.85 14.984V15.216H107.61V14.72H110.386L110.234 14.88C110.234 14.4427 110.13 14.1067 109.922 13.872C109.719 13.6373 109.426 13.52 109.042 13.52C108.791 13.52 108.567 13.5787 108.37 13.696C108.178 13.808 108.028 13.968 107.922 14.176C107.815 14.384 107.762 14.6373 107.762 14.936V15.016C107.762 15.336 107.82 15.6053 107.938 15.824C108.055 16.0427 108.223 16.208 108.442 16.32C108.66 16.432 108.922 16.488 109.226 16.488C109.444 16.488 109.666 16.4587 109.89 16.4C110.119 16.336 110.332 16.224 110.53 16.064L110.77 16.576C110.567 16.7467 110.324 16.872 110.042 16.952C109.764 17.032 109.49 17.072 109.218 17.072ZM113.481 17.072C113.262 17.072 113.046 17.0507 112.833 17.008C112.625 16.9707 112.43 16.9173 112.249 16.848C112.073 16.7733 111.921 16.6827 111.793 16.576L112.025 16.072C112.158 16.1733 112.305 16.256 112.465 16.32C112.63 16.384 112.798 16.432 112.969 16.464C113.145 16.4907 113.313 16.504 113.473 16.504C113.803 16.504 114.057 16.4533 114.233 16.352C114.414 16.2507 114.505 16.1093 114.505 15.928C114.505 15.7733 114.451 15.656 114.345 15.576C114.243 15.4907 114.073 15.4267 113.833 15.384L113.009 15.24C112.641 15.1707 112.363 15.0453 112.177 14.864C111.995 14.6827 111.905 14.4453 111.905 14.152C111.905 13.9173 111.969 13.712 112.097 13.536C112.23 13.36 112.419 13.224 112.665 13.128C112.91 13.0267 113.203 12.976 113.545 12.976C113.731 12.976 113.921 12.9947 114.113 13.032C114.31 13.0693 114.491 13.1253 114.657 13.2C114.827 13.2693 114.966 13.3573 115.073 13.464L114.833 13.968C114.726 13.8667 114.598 13.7867 114.449 13.728C114.305 13.664 114.153 13.6187 113.993 13.592C113.838 13.56 113.686 13.544 113.537 13.544C113.227 13.544 112.987 13.5973 112.817 13.704C112.646 13.8053 112.561 13.9493 112.561 14.136C112.561 14.2853 112.609 14.4027 112.705 14.488C112.806 14.5733 112.969 14.6373 113.193 14.68L113.993 14.824C114.387 14.8987 114.681 15.024 114.873 15.2C115.065 15.3707 115.161 15.608 115.161 15.912C115.161 16.1467 115.091 16.352 114.953 16.528C114.814 16.6987 114.619 16.832 114.369 16.928C114.118 17.024 113.822 17.072 113.481 17.072ZM116.337 17V11.36H117.025V13.888C117.142 13.6053 117.326 13.384 117.577 13.224C117.833 13.0587 118.121 12.976 118.441 12.976C118.766 12.976 119.038 13.0347 119.257 13.152C119.476 13.264 119.638 13.44 119.745 13.68C119.857 13.9147 119.913 14.208 119.913 14.56V17H119.201V14.6C119.201 14.3867 119.169 14.2053 119.105 14.056C119.046 13.9067 118.95 13.792 118.817 13.712C118.684 13.6267 118.505 13.584 118.281 13.584C118.046 13.584 117.836 13.6373 117.649 13.744C117.462 13.8507 117.316 13.9947 117.209 14.176C117.102 14.3573 117.049 14.56 117.049 14.784V17H116.337ZM121.593 18.152L121.233 17.872C121.329 17.7813 121.404 17.6773 121.457 17.56C121.516 17.448 121.559 17.3307 121.585 17.208C121.612 17.0907 121.628 16.9813 121.633 16.88L121.769 17H121.185V16.12H122.097V16.776C122.097 16.9413 122.081 17.1067 122.049 17.272C122.017 17.4373 121.964 17.5947 121.889 17.744C121.815 17.8933 121.716 18.0293 121.593 18.152ZM2.72 28.072C2.41067 28.072 2.11733 28.048 1.84 28C1.56267 27.952 1.30933 27.88 1.08 27.784C0.850667 27.688 0.650667 27.5707 0.48 27.432L0.744 26.84C0.925333 26.984 1.11733 27.1013 1.32 27.192C1.528 27.2773 1.74667 27.3387 1.976 27.376C2.21067 27.4133 2.45867 27.432 2.72 27.432C3.16267 27.432 3.50133 27.344 3.736 27.168C3.976 26.992 4.096 26.752 4.096 26.448C4.096 26.288 4.056 26.1547 3.976 26.048C3.90133 25.9413 3.78133 25.8533 3.616 25.784C3.456 25.7147 3.248 25.6533 2.992 25.6L2.072 25.424C1.55467 25.3227 1.18133 25.144 0.952 24.888C0.722667 24.632 0.608 24.3093 0.608 23.92C0.608 23.5893 0.698667 23.304 0.88 23.064C1.06667 22.8187 1.32267 22.6293 1.648 22.496C1.97867 22.3573 2.35467 22.288 2.776 22.288C3.04267 22.288 3.29067 22.3147 3.52 22.368C3.75467 22.416 3.968 22.4907 4.16 22.592C4.35733 22.6933 4.53333 22.816 4.688 22.96L4.424 23.544C4.19467 23.32 3.944 23.1627 3.672 23.072C3.4 22.976 3.09867 22.928 2.768 22.928C2.49067 22.928 2.24267 22.968 2.024 23.048C1.80533 23.1227 1.632 23.2347 1.504 23.384C1.38133 23.528 1.32 23.7067 1.32 23.92C1.32 24.1547 1.39467 24.3413 1.544 24.48C1.69333 24.6133 1.94667 24.7173 2.304 24.792L3.216 24.968C3.76 25.0693 4.16267 25.24 4.424 25.48C4.68533 25.72 4.816 26.032 4.816 26.416C4.816 26.736 4.728 27.0213 4.552 27.272C4.38133 27.5227 4.13867 27.72 3.824 27.864C3.51467 28.0027 3.14667 28.072 2.72 28.072ZM7.866 28.072C7.42333 28.072 7.03933 27.992 6.714 27.832C6.394 27.6667 6.14867 27.432 5.978 27.128C5.80733 26.8187 5.722 26.4507 5.722 26.024C5.722 25.624 5.802 25.272 5.962 24.968C6.122 24.6587 6.34867 24.416 6.642 24.24C6.93533 24.064 7.28467 23.976 7.69 23.976C8.074 23.976 8.39933 24.0587 8.666 24.224C8.938 24.3893 9.14333 24.6213 9.282 24.92C9.426 25.2187 9.498 25.5733 9.498 25.984V26.216H6.258V25.72H9.034L8.882 25.88C8.882 25.4427 8.778 25.1067 8.57 24.872C8.36733 24.6373 8.074 24.52 7.69 24.52C7.43933 24.52 7.21533 24.5787 7.018 24.696C6.826 24.808 6.67667 24.968 6.57 25.176C6.46333 25.384 6.41 25.6373 6.41 25.936V26.016C6.41 26.336 6.46867 26.6053 6.586 26.824C6.70333 27.0427 6.87133 27.208 7.09 27.32C7.30867 27.432 7.57 27.488 7.874 27.488C8.09267 27.488 8.314 27.4587 8.538 27.4C8.76733 27.336 8.98067 27.224 9.178 27.064L9.418 27.576C9.21533 27.7467 8.97267 27.872 8.69 27.952C8.41267 28.032 8.138 28.072 7.866 28.072ZM12.4329 28.072C12.0276 28.072 11.6756 27.9867 11.3769 27.816C11.0783 27.6453 10.8463 27.408 10.6809 27.104C10.5156 26.7947 10.4329 26.432 10.4329 26.016C10.4329 25.6 10.5156 25.24 10.6809 24.936C10.8463 24.6267 11.0783 24.3893 11.3769 24.224C11.6809 24.0587 12.0356 23.976 12.4409 23.976C12.7129 23.976 12.9716 24.0213 13.2169 24.112C13.4623 24.2027 13.6649 24.3253 13.8249 24.48L13.5769 25.008C13.4223 24.8693 13.2489 24.7653 13.0569 24.696C12.8649 24.6213 12.6783 24.584 12.4969 24.584C12.0809 24.584 11.7529 24.7093 11.5129 24.96C11.2729 25.2107 11.1529 25.5653 11.1529 26.024C11.1529 26.4773 11.2729 26.832 11.5129 27.088C11.7529 27.3387 12.0783 27.464 12.4889 27.464C12.6756 27.464 12.8623 27.4293 13.0489 27.36C13.2409 27.2853 13.4116 27.1813 13.5609 27.048L13.8089 27.576C13.6543 27.7307 13.4543 27.8533 13.2089 27.944C12.9636 28.0293 12.7049 28.072 12.4329 28.072ZM16.2154 28.072C15.8901 28.072 15.6154 28.0133 15.3914 27.896C15.1674 27.7787 14.9994 27.6027 14.8874 27.368C14.7754 27.1333 14.7194 26.84 14.7194 26.488V24.048H15.4314V26.456C15.4314 26.6587 15.4608 26.8373 15.5194 26.992C15.5834 27.1413 15.6821 27.2587 15.8154 27.344C15.9541 27.424 16.1354 27.464 16.3594 27.464C16.5834 27.464 16.7861 27.4107 16.9674 27.304C17.1488 27.192 17.2901 27.048 17.3914 26.872C17.4928 26.6907 17.5434 26.4907 17.5434 26.272V24.048H18.2554V28H17.5994V27.128C17.4661 27.4213 17.2848 27.6533 17.0554 27.824C16.8261 27.9893 16.5461 28.072 16.2154 28.072ZM19.6808 28V24.048H20.3288V24.96H20.3368C20.4328 24.6667 20.6008 24.4373 20.8408 24.272C21.0808 24.1013 21.3741 24.0053 21.7208 23.984L22.0808 23.968L22.1448 24.616L21.5688 24.664C21.2008 24.696 20.9128 24.8187 20.7048 25.032C20.4968 25.24 20.3928 25.5013 20.3928 25.816V28H19.6808ZM24.8816 28.072C24.439 28.072 24.055 27.992 23.7296 27.832C23.4096 27.6667 23.1643 27.432 22.9936 27.128C22.823 26.8187 22.7376 26.4507 22.7376 26.024C22.7376 25.624 22.8176 25.272 22.9776 24.968C23.1376 24.6587 23.3643 24.416 23.6576 24.24C23.951 24.064 24.3003 23.976 24.7056 23.976C25.0896 23.976 25.415 24.0587 25.6816 24.224C25.9536 24.3893 26.159 24.6213 26.2976 24.92C26.4416 25.2187 26.5136 25.5733 26.5136 25.984V26.216H23.2736V25.72H26.0496L25.8976 25.88C25.8976 25.4427 25.7936 25.1067 25.5856 24.872C25.383 24.6373 25.0896 24.52 24.7056 24.52C24.455 24.52 24.231 24.5787 24.0336 24.696C23.8416 24.808 23.6923 24.968 23.5856 25.176C23.479 25.384 23.4256 25.6373 23.4256 25.936V26.016C23.4256 26.336 23.4843 26.6053 23.6016 26.824C23.719 27.0427 23.887 27.208 24.1056 27.32C24.3243 27.432 24.5856 27.488 24.8896 27.488C25.1083 27.488 25.3296 27.4587 25.5536 27.4C25.783 27.336 25.9963 27.224 26.1936 27.064L26.4336 27.576C26.231 27.7467 25.9883 27.872 25.7056 27.952C25.4283 28.032 25.1536 28.072 24.8816 28.072ZM27.9606 29.152L27.6006 28.872C27.6966 28.7813 27.7712 28.6773 27.8246 28.56C27.8832 28.448 27.9259 28.3307 27.9526 28.208C27.9792 28.0907 27.9952 27.9813 28.0006 27.88L28.1366 28H27.5526V27.12H28.4646V27.776C28.4646 27.9413 28.4486 28.1067 28.4166 28.272C28.3846 28.4373 28.3312 28.5947 28.2566 28.744C28.1819 28.8933 28.0832 29.0293 27.9606 29.152ZM31.5294 28L34.0094 22.36H34.6494L37.1294 28H36.3854L35.6974 26.392L36.0494 26.616H32.6094L32.9534 26.392L32.2734 28H31.5294ZM34.3134 23.176L33.0494 26.16L32.8494 26.008H35.8094L35.6094 26.16L34.3454 23.176H34.3134ZM38.0948 28V24.048H38.7588V24.904C38.8868 24.6107 39.0788 24.384 39.3348 24.224C39.5908 24.0587 39.8788 23.976 40.1988 23.976C40.5241 23.976 40.7961 24.0347 41.0148 24.152C41.2335 24.264 41.3961 24.44 41.5028 24.68C41.6148 24.9147 41.6708 25.208 41.6708 25.56V28H40.9588V25.6C40.9588 25.3867 40.9295 25.2053 40.8708 25.056C40.8121 24.9067 40.7135 24.792 40.5748 24.712C40.4415 24.6267 40.2628 24.584 40.0388 24.584C39.8041 24.584 39.5908 24.6373 39.3988 24.744C39.2121 24.8507 39.0655 24.9947 38.9588 25.176C38.8575 25.3573 38.8068 25.56 38.8068 25.784V28H38.0948ZM44.6552 28.072C44.2925 28.072 43.9752 27.9867 43.7032 27.816C43.4312 27.6453 43.2179 27.4053 43.0632 27.096C42.9139 26.7867 42.8392 26.4293 42.8392 26.024C42.8392 25.6133 42.9139 25.256 43.0632 24.952C43.2125 24.6427 43.4232 24.4027 43.6952 24.232C43.9672 24.0613 44.2845 23.976 44.6472 23.976C44.9885 23.976 45.2792 24.056 45.5192 24.216C45.7645 24.376 45.9405 24.5947 46.0472 24.872V22.36H46.7592V28H46.1032V27.128C45.9859 27.4267 45.8019 27.6587 45.5512 27.824C45.3005 27.9893 45.0019 28.072 44.6552 28.072ZM44.8072 27.488C45.1965 27.488 45.5005 27.3573 45.7192 27.096C45.9432 26.8347 46.0552 26.4773 46.0552 26.024C46.0552 25.5707 45.9432 25.2133 45.7192 24.952C45.5005 24.6907 45.1965 24.56 44.8072 24.56C44.4232 24.56 44.1165 24.6907 43.8872 24.952C43.6632 25.2133 43.5512 25.5707 43.5512 26.024C43.5512 26.4773 43.6632 26.8347 43.8872 27.096C44.1112 27.3573 44.4179 27.488 44.8072 27.488ZM52.4231 28.072C52.1138 28.072 51.8205 28.048 51.5431 28C51.2658 27.952 51.0125 27.88 50.7831 27.784C50.5538 27.688 50.3538 27.5707 50.1831 27.432L50.4471 26.84C50.6285 26.984 50.8205 27.1013 51.0231 27.192C51.2311 27.2773 51.4498 27.3387 51.6791 27.376C51.9138 27.4133 52.1618 27.432 52.4231 27.432C52.8658 27.432 53.2045 27.344 53.4391 27.168C53.6791 26.992 53.7991 26.752 53.7991 26.448C53.7991 26.288 53.7591 26.1547 53.6791 26.048C53.6045 25.9413 53.4845 25.8533 53.3191 25.784C53.1591 25.7147 52.9511 25.6533 52.6951 25.6L51.7751 25.424C51.2578 25.3227 50.8845 25.144 50.6551 24.888C50.4258 24.632 50.3111 24.3093 50.3111 23.92C50.3111 23.5893 50.4018 23.304 50.5831 23.064C50.7698 22.8187 51.0258 22.6293 51.3511 22.496C51.6818 22.3573 52.0578 22.288 52.4791 22.288C52.7458 22.288 52.9938 22.3147 53.2231 22.368C53.4578 22.416 53.6711 22.4907 53.8631 22.592C54.0605 22.6933 54.2365 22.816 54.3911 22.96L54.1271 23.544C53.8978 23.32 53.6471 23.1627 53.3751 23.072C53.1031 22.976 52.8018 22.928 52.4711 22.928C52.1938 22.928 51.9458 22.968 51.7271 23.048C51.5085 23.1227 51.3351 23.2347 51.2071 23.384C51.0845 23.528 51.0231 23.7067 51.0231 23.92C51.0231 24.1547 51.0978 24.3413 51.2471 24.48C51.3965 24.6133 51.6498 24.7173 52.0071 24.792L52.9191 24.968C53.4631 25.0693 53.8658 25.24 54.1271 25.48C54.3885 25.72 54.5191 26.032 54.5191 26.416C54.5191 26.736 54.4311 27.0213 54.2551 27.272C54.0845 27.5227 53.8418 27.72 53.5271 27.864C53.2178 28.0027 52.8498 28.072 52.4231 28.072ZM55.6651 29.44V24.04H56.3211V24.912C56.4385 24.6133 56.6225 24.384 56.8731 24.224C57.1291 24.0587 57.4278 23.976 57.7691 23.976C58.1371 23.976 58.4571 24.0613 58.7291 24.232C59.0011 24.4027 59.2118 24.64 59.3611 24.944C59.5105 25.248 59.5851 25.608 59.5851 26.024C59.5851 26.424 59.5105 26.7787 59.3611 27.088C59.2171 27.3973 59.0091 27.64 58.7371 27.816C58.4651 27.9867 58.1451 28.072 57.7771 28.072C57.4411 28.072 57.1505 27.992 56.9051 27.832C56.6651 27.6667 56.4891 27.448 56.3771 27.176V29.44H55.6651ZM57.6171 27.488C58.0065 27.488 58.3131 27.3573 58.5371 27.096C58.7611 26.8293 58.8731 26.4693 58.8731 26.016C58.8731 25.5627 58.7611 25.208 58.5371 24.952C58.3131 24.6907 58.0065 24.56 57.6171 24.56C57.2331 24.56 56.9291 24.6907 56.7051 24.952C56.4811 25.208 56.3691 25.5627 56.3691 26.016C56.3691 26.4693 56.4811 26.8293 56.7051 27.096C56.9291 27.3573 57.2331 27.488 57.6171 27.488ZM60.6867 23.096V22.304H61.5507V23.096H60.6867ZM60.7667 28V24.048H61.4787V28H60.7667ZM64.0995 28.072C63.7155 28.072 63.4195 27.96 63.2115 27.736C63.0035 27.512 62.8995 27.1973 62.8995 26.792V22.36H63.6115V26.72C63.6115 26.88 63.6355 27.0187 63.6835 27.136C63.7315 27.248 63.8008 27.3333 63.8915 27.392C63.9822 27.4507 64.0915 27.48 64.2195 27.48C64.2995 27.48 64.3742 27.4773 64.4435 27.472C64.5182 27.4613 64.5928 27.4453 64.6675 27.424L64.6835 27.984C64.5928 28.016 64.4995 28.0373 64.4035 28.048C64.3128 28.064 64.2115 28.072 64.0995 28.072ZM66.6854 28.072C66.3014 28.072 66.0054 27.96 65.7974 27.736C65.5894 27.512 65.4854 27.1973 65.4854 26.792V22.36H66.1974V26.72C66.1974 26.88 66.2214 27.0187 66.2694 27.136C66.3174 27.248 66.3868 27.3333 66.4774 27.392C66.5681 27.4507 66.6774 27.48 66.8054 27.48C66.8854 27.48 66.9601 27.4773 67.0294 27.472C67.1041 27.4613 67.1788 27.4453 67.2534 27.424L67.2694 27.984C67.1788 28.016 67.0854 28.0373 66.9894 28.048C66.8988 28.064 66.7974 28.072 66.6854 28.072ZM67.8729 26.144V25.568H70.1129V26.144H67.8729ZM71.5195 28V22.36H75.1675V22.984H72.2315V24.864H75.0075V25.48H72.2315V28H71.5195ZM76.1495 28V24.048H76.7975V24.96H76.8055C76.9015 24.6667 77.0695 24.4373 77.3095 24.272C77.5495 24.1013 77.8428 24.0053 78.1895 23.984L78.5495 23.968L78.6135 24.616L78.0375 24.664C77.6695 24.696 77.3815 24.8187 77.1735 25.032C76.9655 25.24 76.8615 25.5013 76.8615 25.816V28H76.1495ZM81.3504 28.072C80.9077 28.072 80.5237 27.992 80.1984 27.832C79.8784 27.6667 79.633 27.432 79.4624 27.128C79.2917 26.8187 79.2064 26.4507 79.2064 26.024C79.2064 25.624 79.2864 25.272 79.4464 24.968C79.6064 24.6587 79.833 24.416 80.1264 24.24C80.4197 24.064 80.769 23.976 81.1744 23.976C81.5584 23.976 81.8837 24.0587 82.1504 24.224C82.4224 24.3893 82.6277 24.6213 82.7664 24.92C82.9104 25.2187 82.9824 25.5733 82.9824 25.984V26.216H79.7424V25.72H82.5184L82.3664 25.88C82.3664 25.4427 82.2624 25.1067 82.0544 24.872C81.8517 24.6373 81.5584 24.52 81.1744 24.52C80.9237 24.52 80.6997 24.5787 80.5024 24.696C80.3104 24.808 80.161 24.968 80.0544 25.176C79.9477 25.384 79.8944 25.6373 79.8944 25.936V26.016C79.8944 26.336 79.953 26.6053 80.0704 26.824C80.1877 27.0427 80.3557 27.208 80.5744 27.32C80.793 27.432 81.0544 27.488 81.3584 27.488C81.577 27.488 81.7984 27.4587 82.0224 27.4C82.2517 27.336 82.465 27.224 82.6624 27.064L82.9024 27.576C82.6997 27.7467 82.457 27.872 82.1744 27.952C81.897 28.032 81.6224 28.072 81.3504 28.072ZM86.0613 28.072C85.6186 28.072 85.2346 27.992 84.9093 27.832C84.5893 27.6667 84.344 27.432 84.1733 27.128C84.0026 26.8187 83.9173 26.4507 83.9173 26.024C83.9173 25.624 83.9973 25.272 84.1573 24.968C84.3173 24.6587 84.544 24.416 84.8373 24.24C85.1306 24.064 85.48 23.976 85.8853 23.976C86.2693 23.976 86.5946 24.0587 86.8613 24.224C87.1333 24.3893 87.3386 24.6213 87.4773 24.92C87.6213 25.2187 87.6933 25.5733 87.6933 25.984V26.216H84.4533V25.72H87.2293L87.0773 25.88C87.0773 25.4427 86.9733 25.1067 86.7653 24.872C86.5626 24.6373 86.2693 24.52 85.8853 24.52C85.6346 24.52 85.4106 24.5787 85.2133 24.696C85.0213 24.808 84.872 24.968 84.7653 25.176C84.6586 25.384 84.6053 25.6373 84.6053 25.936V26.016C84.6053 26.336 84.664 26.6053 84.7813 26.824C84.8986 27.0427 85.0666 27.208 85.2853 27.32C85.504 27.432 85.7653 27.488 86.0693 27.488C86.288 27.488 86.5093 27.4587 86.7333 27.4C86.9626 27.336 87.176 27.224 87.3733 27.064L87.6133 27.576C87.4106 27.7467 87.168 27.872 86.8853 27.952C86.608 28.032 86.3333 28.072 86.0613 28.072ZM88.7323 28V27.12H89.6443V28H88.7323Z" fill="black"/>
</svg>
