<svg width="148" height="30" viewBox="0 0 148 30" fill="none" xmlns="http://www.w3.org/2000/svg">
<rect x="14.1864" y="0.254237" width="133.56" height="29.4499" rx="1.77966" fill="white" stroke="#CE3439" stroke-width="0.508475"/>
<path d="M36.0254 18.7849L34.2174 13.1449H34.9694L36.4414 17.9289H36.3694L38.0094 13.1449H38.5934L40.2174 17.9289H40.1614L41.6494 13.1449H42.3694L40.5534 18.7849H39.8734L38.2814 14.1289H38.3134L36.6894 18.7849H36.0254ZM44.8797 18.8569C44.437 18.8569 44.053 18.7769 43.7277 18.6169C43.4077 18.4516 43.1623 18.2169 42.9917 17.9129C42.821 17.6036 42.7357 17.2356 42.7357 16.8089C42.7357 16.4089 42.8157 16.0569 42.9757 15.7529C43.1357 15.4436 43.3623 15.2009 43.6557 15.0249C43.949 14.8489 44.2983 14.7609 44.7037 14.7609C45.0877 14.7609 45.413 14.8436 45.6797 15.0089C45.9517 15.1742 46.157 15.4062 46.2957 15.7049C46.4397 16.0036 46.5117 16.3582 46.5117 16.7689V17.0009H43.2717V16.5049H46.0477L45.8957 16.6649C45.8957 16.2276 45.7917 15.8916 45.5837 15.6569C45.381 15.4222 45.0877 15.3049 44.7037 15.3049C44.453 15.3049 44.229 15.3636 44.0317 15.4809C43.8397 15.5929 43.6903 15.7529 43.5837 15.9609C43.477 16.1689 43.4237 16.4222 43.4237 16.7209V16.8009C43.4237 17.1209 43.4823 17.3902 43.5997 17.6089C43.717 17.8276 43.885 17.9929 44.1037 18.1049C44.3223 18.2169 44.5837 18.2729 44.8877 18.2729C45.1063 18.2729 45.3277 18.2436 45.5517 18.1849C45.781 18.1209 45.9943 18.0089 46.1917 17.8489L46.4317 18.3609C46.229 18.5316 45.9863 18.6569 45.7037 18.7369C45.4263 18.8169 45.1517 18.8569 44.8797 18.8569ZM47.6066 13.8809V13.0889H48.4706V13.8809H47.6066ZM47.6866 18.7849V14.8329H48.3986V18.7849H47.6866ZM51.5314 20.2969C51.2168 20.2969 50.9048 20.2489 50.5954 20.1529C50.2861 20.0622 50.0221 19.9369 49.8034 19.7769L50.0274 19.2249C50.1768 19.3209 50.3341 19.4036 50.4994 19.4729C50.6648 19.5476 50.8328 19.6009 51.0034 19.6329C51.1794 19.6702 51.3528 19.6889 51.5234 19.6889C51.9341 19.6889 52.2541 19.5849 52.4834 19.3769C52.7181 19.1689 52.8354 18.8729 52.8354 18.4889V17.7609H52.8194C52.7234 18.0329 52.5501 18.2542 52.2994 18.4249C52.0488 18.5902 51.7581 18.6729 51.4274 18.6729C51.0541 18.6729 50.7288 18.5929 50.4514 18.4329C50.1741 18.2676 49.9581 18.0382 49.8034 17.7449C49.6541 17.4516 49.5794 17.1076 49.5794 16.7129C49.5794 16.3236 49.6541 15.9822 49.8034 15.6889C49.9581 15.3956 50.1741 15.1689 50.4514 15.0089C50.7288 14.8436 51.0541 14.7609 51.4274 14.7609C51.7581 14.7609 52.0488 14.8462 52.2994 15.0169C52.5554 15.1876 52.7314 15.4142 52.8274 15.6969H52.8354V14.8329H53.4994V18.4249C53.4994 18.8089 53.4194 19.1396 53.2594 19.4169C53.1048 19.6996 52.8808 19.9156 52.5874 20.0649C52.2941 20.2196 51.9421 20.2969 51.5314 20.2969ZM51.5474 18.0889C51.9368 18.0889 52.2434 17.9636 52.4674 17.7129C52.6968 17.4622 52.8114 17.1289 52.8114 16.7129C52.8114 16.2969 52.6968 15.9662 52.4674 15.7209C52.2434 15.4702 51.9368 15.3449 51.5474 15.3449C51.1634 15.3449 50.8568 15.4702 50.6274 15.7209C50.4034 15.9662 50.2914 16.2969 50.2914 16.7129C50.2914 17.1289 50.4034 17.4622 50.6274 17.7129C50.8568 17.9636 51.1634 18.0889 51.5474 18.0889ZM54.921 18.7849V13.1449H55.609V15.6729C55.7263 15.3902 55.9103 15.1689 56.161 15.0089C56.417 14.8436 56.705 14.7609 57.025 14.7609C57.3503 14.7609 57.6223 14.8196 57.841 14.9369C58.0597 15.0489 58.2223 15.2249 58.329 15.4649C58.441 15.6996 58.497 15.9929 58.497 16.3449V18.7849H57.785V16.3849C57.785 16.1716 57.753 15.9902 57.689 15.8409C57.6303 15.6916 57.5343 15.5769 57.401 15.4969C57.2677 15.4116 57.089 15.3689 56.865 15.3689C56.6303 15.3689 56.4197 15.4222 56.233 15.5289C56.0463 15.6356 55.8997 15.7796 55.793 15.9609C55.6863 16.1422 55.633 16.3449 55.633 16.5689V18.7849H54.921ZM61.5694 18.8569C61.0947 18.8569 60.7347 18.7316 60.4894 18.4809C60.2494 18.2302 60.1294 17.8729 60.1294 17.4089V15.4169H59.3294V14.8329H60.1534V13.6569H60.8414V14.8329H62.2574V15.4169H60.8414V17.3449C60.8414 17.6489 60.908 17.8756 61.0414 18.0249C61.18 18.1689 61.3907 18.2409 61.6734 18.2409C61.7854 18.2409 61.892 18.2302 61.9934 18.2089C62.1 18.1876 62.2014 18.1556 62.2974 18.1129L62.4094 18.6729C62.3027 18.7316 62.172 18.7769 62.0174 18.8089C61.868 18.8409 61.7187 18.8569 61.5694 18.8569Z" fill="#CE3439"/>
<path d="M78.5212 18.7849V18.2569L80.5052 16.1769C80.6972 15.9742 80.8466 15.7902 80.9532 15.6249C81.0599 15.4596 81.1372 15.2996 81.1852 15.1449C81.2332 14.9902 81.2572 14.8329 81.2572 14.6729C81.2572 14.3582 81.1559 14.1182 80.9532 13.9529C80.7559 13.7822 80.4812 13.6969 80.1292 13.6969C79.8626 13.6969 79.5986 13.7502 79.3372 13.8569C79.0812 13.9582 78.8359 14.1209 78.6012 14.3449L78.3292 13.7849C78.5639 13.5609 78.8439 13.3876 79.1692 13.2649C79.4946 13.1369 79.8306 13.0729 80.1772 13.0729C80.5452 13.0729 80.8626 13.1369 81.1292 13.2649C81.3959 13.3876 81.5986 13.5662 81.7372 13.8009C81.8812 14.0302 81.9532 14.3076 81.9532 14.6329C81.9532 14.7982 81.9346 14.9609 81.8972 15.1209C81.8599 15.2756 81.8012 15.4302 81.7212 15.5849C81.6466 15.7396 81.5479 15.8996 81.4252 16.0649C81.3026 16.2302 81.1532 16.4036 80.9772 16.5849L79.4252 18.2009V18.1689H82.1852V18.7849H78.5212ZM83.3981 18.7849V18.1769H84.9421V13.7129L85.3181 13.7689L83.6781 14.8249L83.3581 14.2729L85.1261 13.1449H85.6461V18.1769H87.0701V18.7849H83.3981ZM88.035 18.7849V17.9049H88.947V18.7849H88.035ZM91.9855 18.8569C91.7402 18.8569 91.5028 18.8302 91.2735 18.7769C91.0495 18.7236 90.8388 18.6462 90.6415 18.5449C90.4442 18.4382 90.2682 18.3102 90.1135 18.1609L90.3935 17.6009C90.6388 17.8249 90.8895 17.9876 91.1455 18.0889C91.4068 18.1849 91.6868 18.2329 91.9855 18.2329C92.3802 18.2329 92.6868 18.1316 92.9055 17.9289C93.1295 17.7209 93.2415 17.4302 93.2415 17.0569C93.2415 16.6889 93.1375 16.3956 92.9295 16.1769C92.7215 15.9582 92.4335 15.8489 92.0655 15.8489C91.8202 15.8489 91.5962 15.8996 91.3935 16.0009C91.1962 16.0969 91.0122 16.2596 90.8415 16.4889H90.2815V13.1449H93.6575V13.7609H90.9295V15.8809H90.8975C91.0255 15.6889 91.2015 15.5342 91.4255 15.4169C91.6495 15.2942 91.9002 15.2329 92.1775 15.2329C92.5402 15.2329 92.8522 15.3102 93.1135 15.4649C93.3748 15.6142 93.5748 15.8222 93.7135 16.0889C93.8575 16.3556 93.9295 16.6676 93.9295 17.0249C93.9295 17.4036 93.8495 17.7316 93.6895 18.0089C93.5295 18.2809 93.3055 18.4916 93.0175 18.6409C92.7295 18.7849 92.3855 18.8569 91.9855 18.8569ZM98.4407 20.3209C98.0621 19.7449 97.7821 19.1582 97.6007 18.5609C97.4247 17.9582 97.3367 17.3316 97.3367 16.6809C97.3367 16.0302 97.4247 15.4062 97.6007 14.8089C97.7821 14.2116 98.0621 13.6222 98.4407 13.0409L98.9527 13.2249C98.7501 13.6036 98.5821 13.9849 98.4487 14.3689C98.3154 14.7529 98.2141 15.1369 98.1447 15.5209C98.0807 15.8996 98.0487 16.2862 98.0487 16.6809C98.0487 17.0702 98.0807 17.4569 98.1447 17.8409C98.2141 18.2249 98.3154 18.6062 98.4487 18.9849C98.5821 19.3689 98.7501 19.7529 98.9527 20.1369L98.4407 20.3209ZM102.562 18.8569C101.975 18.8569 101.474 18.7422 101.058 18.5129C100.642 18.2836 100.322 17.9556 100.098 17.5289C99.8793 17.0969 99.7699 16.5742 99.7699 15.9609C99.7699 15.3582 99.8766 14.8436 100.09 14.4169C100.309 13.9849 100.621 13.6542 101.026 13.4249C101.431 13.1902 101.917 13.0729 102.482 13.0729C102.759 13.0729 103.023 13.0996 103.274 13.1529C103.525 13.2062 103.757 13.2862 103.97 13.3929C104.183 13.4942 104.365 13.6222 104.514 13.7769L104.242 14.3289C103.991 14.1102 103.722 13.9556 103.434 13.8649C103.146 13.7689 102.826 13.7209 102.474 13.7209C101.855 13.7209 101.373 13.9129 101.026 14.2969C100.685 14.6756 100.514 15.2302 100.514 15.9609C100.514 16.7182 100.69 17.2862 101.042 17.6649C101.399 18.0382 101.917 18.2249 102.594 18.2249C102.893 18.2249 103.17 18.2009 103.426 18.1529C103.687 18.1049 103.925 18.0356 104.138 17.9449L103.93 18.3609V16.4009H102.522V15.7929H104.578V18.4569C104.429 18.5316 104.242 18.6009 104.018 18.6649C103.794 18.7236 103.557 18.7689 103.306 18.8009C103.055 18.8382 102.807 18.8569 102.562 18.8569ZM106.054 18.7849V14.8329H106.702V15.7449H106.71C106.806 15.4516 106.974 15.2222 107.214 15.0569C107.454 14.8862 107.747 14.7902 108.094 14.7689L108.454 14.7529L108.518 15.4009L107.942 15.4489C107.574 15.4809 107.286 15.6036 107.078 15.8169C106.87 16.0249 106.766 16.2862 106.766 16.6009V18.7849H106.054ZM109.414 18.7849V14.8329H110.07V15.6969C110.139 15.5209 110.235 15.3636 110.358 15.2249C110.486 15.0809 110.638 14.9689 110.814 14.8889C110.995 14.8036 111.192 14.7609 111.406 14.7609C111.752 14.7609 112.038 14.8462 112.262 15.0169C112.486 15.1876 112.624 15.4116 112.678 15.6889H112.67C112.776 15.4276 112.944 15.2089 113.174 15.0329C113.408 14.8516 113.702 14.7609 114.054 14.7609C114.352 14.7609 114.606 14.8196 114.814 14.9369C115.022 15.0489 115.179 15.2222 115.286 15.4569C115.392 15.6916 115.446 15.9876 115.446 16.3449V18.7849H114.742V16.3929C114.742 16.0516 114.68 15.7956 114.558 15.6249C114.435 15.4542 114.216 15.3689 113.902 15.3689C113.667 15.3689 113.464 15.4222 113.294 15.5289C113.128 15.6302 113 15.7742 112.91 15.9609C112.824 16.1422 112.782 16.3476 112.782 16.5769V18.7849H112.078V16.3929C112.078 16.0569 112.008 15.8036 111.87 15.6329C111.731 15.4569 111.52 15.3689 111.238 15.3689C111.008 15.3689 110.808 15.4276 110.638 15.5449C110.472 15.6569 110.344 15.8036 110.254 15.9849C110.163 16.1662 110.118 16.3582 110.118 16.5609V18.7849H109.414ZM116.97 20.3209L116.45 20.1369C116.658 19.7476 116.829 19.3609 116.962 18.9769C117.095 18.5982 117.194 18.2196 117.258 17.8409C117.322 17.4569 117.354 17.0702 117.354 16.6809C117.354 16.2916 117.322 15.9076 117.258 15.5289C117.194 15.1449 117.095 14.7609 116.962 14.3769C116.829 13.9929 116.658 13.6089 116.45 13.2249L116.97 13.0409C117.343 13.6169 117.618 14.2062 117.794 14.8089C117.975 15.4062 118.066 16.0302 118.066 16.6809C118.066 17.3262 117.975 17.9502 117.794 18.5529C117.618 19.1502 117.343 19.7396 116.97 20.3209Z" fill="black"/>
<rect width="32" height="30" rx="3.05085" fill="#CB3335"/>
<path d="M22.0683 16.0085L19.8437 11.5593H20.4577C20.5757 11.5593 20.6889 11.5125 20.7723 11.429C20.8557 11.3456 20.9026 11.2324 20.9026 11.1144C20.9026 10.9964 20.8557 10.8833 20.7723 10.7998C20.6889 10.7164 20.5757 10.6695 20.4577 10.6695H19.7547C19.2767 10.1489 18.7008 9.72762 18.0598 9.42987C17.4188 9.13213 16.7254 8.96373 16.0192 8.93433L16.0085 8.88983C16.0085 8.65384 15.9148 8.4275 15.7479 8.26063C15.581 8.09375 15.3547 8 15.1187 8C14.8827 8 14.6563 8.09375 14.4895 8.26063C14.3226 8.4275 14.2288 8.65384 14.2288 8.88983V8.93433C12.7907 8.99413 11.4336 9.61628 10.4497 10.6668L9.77967 10.6695C9.66167 10.6695 9.5485 10.7164 9.46507 10.7998C9.38163 10.8833 9.33475 10.9964 9.33475 11.1144C9.33475 11.2324 9.38163 11.3456 9.46507 11.429C9.5485 11.5125 9.66167 11.5593 9.77967 11.5593H10.3937L8.16907 16.0085H8C8 16.9873 9.19238 17.7882 10.6695 17.7882C12.1466 17.7882 13.339 16.9873 13.339 16.0085H13.1699L10.9009 11.4793C10.9571 11.4463 11.0054 11.4013 11.0423 11.3476C11.4359 10.8851 11.9227 10.5111 12.471 10.2501C13.0192 9.98912 13.6165 9.84698 14.2235 9.83306L14.2288 19.5679H13.339V20.4577H11.5593V21.3475H18.678V20.4577H16.8983V19.5679H16.0085V9.83306C16.6087 9.84441 17.1994 9.98483 17.7405 10.2448C18.2816 10.5047 18.7603 10.8781 19.1443 11.3395C19.1854 11.4093 19.2448 11.4665 19.316 11.5051L17.0674 16.0085H16.8983C16.8983 16.9873 18.0907 17.7882 19.5679 17.7882C21.045 17.7882 22.2374 16.9873 22.2374 16.0085H22.0683ZM12.4492 16.0085H8.88983L10.6695 12.5026L12.4492 16.0085ZM17.7882 16.0085L19.5679 12.5026L21.3475 16.0085H17.7882Z" fill="white"/>
</svg>
