<svg width="142" height="41" viewBox="0 0 142 41" fill="none" xmlns="http://www.w3.org/2000/svg">
<path d="M0.896 6L3.656 0.648L3.688 0.992H0.512V0.36H4.28V0.896L1.672 6H0.896ZM7.26088 6.072C7.01554 6.072 6.77821 6.04533 6.54888 5.992C6.32488 5.93867 6.11421 5.86133 5.91688 5.76C5.71954 5.65333 5.54354 5.52533 5.38888 5.376L5.66888 4.816C5.91421 5.04 6.16488 5.20267 6.42088 5.304C6.68221 5.4 6.96221 5.448 7.26088 5.448C7.65554 5.448 7.96221 5.34667 8.18088 5.144C8.40488 4.936 8.51688 4.64533 8.51688 4.272C8.51688 3.904 8.41288 3.61067 8.20488 3.392C7.99688 3.17333 7.70888 3.064 7.34088 3.064C7.09554 3.064 6.87154 3.11467 6.66888 3.216C6.47154 3.312 6.28754 3.47467 6.11688 3.704H5.55688V0.36H8.93288V0.976H6.20488V3.096H6.17288C6.30088 2.904 6.47688 2.74933 6.70088 2.632C6.92488 2.50933 7.17554 2.448 7.45288 2.448C7.81554 2.448 8.12754 2.52533 8.38888 2.68C8.65021 2.82933 8.85021 3.03733 8.98888 3.304C9.13288 3.57067 9.20487 3.88267 9.20487 4.24C9.20487 4.61867 9.12488 4.94667 8.96488 5.224C8.80488 5.496 8.58088 5.70667 8.29288 5.856C8.00488 6 7.66088 6.072 7.26088 6.072ZM11.9938 6.072C11.5618 6.072 11.1964 5.96267 10.8978 5.744C10.5991 5.52 10.3724 5.19467 10.2178 4.768C10.0684 4.336 9.99375 3.80533 9.99375 3.176C9.99375 2.54667 10.0684 2.01867 10.2178 1.592C10.3724 1.16533 10.5991 0.842666 10.8978 0.624C11.1964 0.4 11.5618 0.288 11.9938 0.288C12.4364 0.288 12.8044 0.397333 13.0978 0.616C13.3911 0.834666 13.6124 1.15733 13.7618 1.584C13.9164 2.01067 13.9938 2.53867 13.9938 3.168C13.9938 3.79733 13.9164 4.328 13.7618 4.76C13.6124 5.192 13.3884 5.52 13.0898 5.744C12.7911 5.96267 12.4258 6.072 11.9938 6.072ZM11.9938 5.448C12.4311 5.448 12.7564 5.264 12.9698 4.896C13.1831 4.528 13.2898 3.952 13.2898 3.168C13.2898 2.38933 13.1831 1.81867 12.9698 1.456C12.7618 1.09333 12.4391 0.912 12.0018 0.912C11.5591 0.912 11.2311 1.096 11.0178 1.464C10.8044 1.82667 10.6978 2.39733 10.6978 3.176C10.6978 3.94933 10.8044 4.52267 11.0178 4.896C11.2311 5.264 11.5564 5.448 11.9938 5.448ZM15.1186 6V2.048H15.7746V2.912C15.844 2.736 15.94 2.57867 16.0626 2.44C16.1906 2.296 16.3426 2.184 16.5186 2.104C16.7 2.01867 16.8973 1.976 17.1106 1.976C17.4573 1.976 17.7426 2.06133 17.9666 2.232C18.1906 2.40267 18.3293 2.62667 18.3826 2.904H18.3746C18.4813 2.64267 18.6493 2.424 18.8786 2.248C19.1133 2.06667 19.4066 1.976 19.7586 1.976C20.0573 1.976 20.3106 2.03467 20.5186 2.152C20.7266 2.264 20.884 2.43733 20.9906 2.672C21.0973 2.90667 21.1506 3.20267 21.1506 3.56V6H20.4466V3.608C20.4466 3.26667 20.3853 3.01067 20.2626 2.84C20.14 2.66933 19.9213 2.584 19.6066 2.584C19.372 2.584 19.1693 2.63733 18.9986 2.744C18.8333 2.84533 18.7053 2.98933 18.6146 3.176C18.5293 3.35733 18.4866 3.56267 18.4866 3.792V6H17.7826V3.608C17.7826 3.272 17.7133 3.01867 17.5746 2.848C17.436 2.672 17.2253 2.584 16.9426 2.584C16.7133 2.584 16.5133 2.64267 16.3426 2.76C16.1773 2.872 16.0493 3.01867 15.9586 3.2C15.868 3.38133 15.8226 3.57333 15.8226 3.776V6H15.1186ZM23.7792 6.072C23.3952 6.072 23.0992 5.96 22.8912 5.736C22.6832 5.512 22.5792 5.19733 22.5792 4.792V0.36H23.2912V4.72C23.2912 4.88 23.3152 5.01867 23.3632 5.136C23.4112 5.248 23.4805 5.33333 23.5712 5.392C23.6619 5.45067 23.7712 5.48 23.8992 5.48C23.9792 5.48 24.0539 5.47733 24.1232 5.472C24.1979 5.46133 24.2725 5.44533 24.3472 5.424L24.3632 5.984C24.2725 6.016 24.1792 6.03733 24.0832 6.048C23.9925 6.064 23.8912 6.072 23.7792 6.072ZM28.8955 6V0.992H26.8635V0.36H31.6395V0.992H29.6075V6H28.8955ZM33.2273 6.072C32.9446 6.072 32.6913 6.02133 32.4673 5.92C32.2433 5.81333 32.0673 5.66933 31.9393 5.488C31.8113 5.30667 31.7473 5.104 31.7473 4.88C31.7473 4.576 31.8326 4.33867 32.0033 4.168C32.174 3.992 32.4353 3.86667 32.7873 3.792C33.1446 3.71733 33.6006 3.68 34.1553 3.68H34.7233V4.168H34.1873C33.878 4.168 33.614 4.17867 33.3953 4.2C33.1766 4.216 32.998 4.25067 32.8593 4.304C32.7206 4.352 32.6193 4.41867 32.5553 4.504C32.4913 4.58933 32.4593 4.70133 32.4593 4.84C32.4593 5.05333 32.542 5.21867 32.7073 5.336C32.878 5.45333 33.094 5.512 33.3553 5.512C33.5846 5.512 33.7926 5.46133 33.9793 5.36C34.1713 5.25333 34.3233 5.112 34.4353 4.936C34.5526 4.76 34.6113 4.56533 34.6113 4.352V3.448C34.6113 3.13333 34.5233 2.90667 34.3473 2.768C34.1713 2.624 33.91 2.552 33.5633 2.552C33.3286 2.552 33.094 2.584 32.8593 2.648C32.63 2.712 32.3926 2.81867 32.1473 2.968L31.9153 2.44C32.0806 2.33867 32.2566 2.256 32.4433 2.192C32.63 2.12267 32.8246 2.06933 33.0273 2.032C33.23 1.99467 33.4326 1.976 33.6353 1.976C33.9766 1.976 34.27 2.02933 34.5153 2.136C34.766 2.24267 34.958 2.408 35.0913 2.632C35.23 2.856 35.2993 3.14933 35.2993 3.512V6H34.6753V5.136C34.6006 5.30133 34.4966 5.456 34.3633 5.6C34.23 5.744 34.0673 5.85867 33.8753 5.944C33.6886 6.02933 33.4726 6.072 33.2273 6.072ZM36.728 6V2.048H37.384V2.912C37.4533 2.736 37.5493 2.57867 37.672 2.44C37.8 2.296 37.952 2.184 38.128 2.104C38.3093 2.01867 38.5067 1.976 38.72 1.976C39.0667 1.976 39.352 2.06133 39.576 2.232C39.8 2.40267 39.9387 2.62667 39.992 2.904H39.984C40.0907 2.64267 40.2587 2.424 40.488 2.248C40.7227 2.06667 41.016 1.976 41.368 1.976C41.6667 1.976 41.92 2.03467 42.128 2.152C42.336 2.264 42.4933 2.43733 42.6 2.672C42.7067 2.90667 42.76 3.20267 42.76 3.56V6H42.056V3.608C42.056 3.26667 41.9947 3.01067 41.872 2.84C41.7493 2.66933 41.5307 2.584 41.216 2.584C40.9813 2.584 40.7787 2.63733 40.608 2.744C40.4427 2.84533 40.3147 2.98933 40.224 3.176C40.1387 3.35733 40.096 3.56267 40.096 3.792V6H39.392V3.608C39.392 3.272 39.3227 3.01867 39.184 2.848C39.0453 2.672 38.8347 2.584 38.552 2.584C38.3227 2.584 38.1227 2.64267 37.952 2.76C37.7867 2.872 37.6587 3.01867 37.568 3.2C37.4773 3.38133 37.432 3.57333 37.432 3.776V6H36.728ZM44.1886 7.44V2.04H44.8446V2.912C44.9619 2.61333 45.1459 2.384 45.3966 2.224C45.6526 2.05867 45.9512 1.976 46.2926 1.976C46.6606 1.976 46.9806 2.06133 47.2526 2.232C47.5246 2.40267 47.7352 2.64 47.8846 2.944C48.0339 3.248 48.1086 3.608 48.1086 4.024C48.1086 4.424 48.0339 4.77867 47.8846 5.088C47.7406 5.39733 47.5326 5.64 47.2606 5.816C46.9886 5.98667 46.6686 6.072 46.3006 6.072C45.9646 6.072 45.6739 5.992 45.4286 5.832C45.1886 5.66667 45.0126 5.448 44.9006 5.176V7.44H44.1886ZM46.1406 5.488C46.5299 5.488 46.8366 5.35733 47.0606 5.096C47.2846 4.82933 47.3966 4.46933 47.3966 4.016C47.3966 3.56267 47.2846 3.208 47.0606 2.952C46.8366 2.69067 46.5299 2.56 46.1406 2.56C45.7566 2.56 45.4526 2.69067 45.2286 2.952C45.0046 3.208 44.8926 3.56267 44.8926 4.016C44.8926 4.46933 45.0046 4.82933 45.2286 5.096C45.4526 5.35733 45.7566 5.488 46.1406 5.488ZM51.1941 6.072C50.7515 6.072 50.3675 5.992 50.0421 5.832C49.7221 5.66667 49.4768 5.432 49.3061 5.128C49.1355 4.81867 49.0501 4.45067 49.0501 4.024C49.0501 3.624 49.1301 3.272 49.2901 2.968C49.4501 2.65867 49.6768 2.416 49.9701 2.24C50.2635 2.064 50.6128 1.976 51.0181 1.976C51.4021 1.976 51.7275 2.05867 51.9941 2.224C52.2661 2.38933 52.4715 2.62133 52.6101 2.92C52.7541 3.21867 52.8261 3.57333 52.8261 3.984V4.216H49.5861V3.72H52.3621L52.2101 3.88C52.2101 3.44267 52.1061 3.10667 51.8981 2.872C51.6955 2.63733 51.4021 2.52 51.0181 2.52C50.7675 2.52 50.5435 2.57867 50.3461 2.696C50.1541 2.808 50.0048 2.968 49.8981 3.176C49.7915 3.384 49.7381 3.63733 49.7381 3.936V4.016C49.7381 4.336 49.7968 4.60533 49.9141 4.824C50.0315 5.04267 50.1995 5.208 50.4181 5.32C50.6368 5.432 50.8981 5.488 51.2021 5.488C51.4208 5.488 51.6421 5.45867 51.8661 5.4C52.0955 5.336 52.3088 5.224 52.5061 5.064L52.7461 5.576C52.5435 5.74667 52.3008 5.872 52.0181 5.952C51.7408 6.032 51.4661 6.072 51.1941 6.072ZM54.0011 6V2.048H54.6491V2.96H54.6571C54.7531 2.66667 54.9211 2.43733 55.1611 2.272C55.4011 2.10133 55.6944 2.00533 56.0411 1.984L56.4011 1.968L56.4651 2.616L55.8891 2.664C55.5211 2.696 55.2331 2.81867 55.0251 3.032C54.8171 3.24 54.7131 3.50133 54.7131 3.816V6H54.0011ZM57.0213 4.144V3.568H59.2613V4.144H57.0213ZM60.6679 6V0.36H64.3399V0.984H61.3719V2.832H64.1799V3.456H61.3719V5.376H64.3399V6H60.6679ZM66.6912 6L65.0352 2.048H65.7952L67.0832 5.296H67.0432L68.3312 2.048H69.0672L67.4032 6H66.6912ZM69.8664 1.096V0.304H70.7304V1.096H69.8664ZM69.9464 6V2.048H70.6584V6H69.9464ZM73.6552 6.072C73.2925 6.072 72.9752 5.98667 72.7032 5.816C72.4312 5.64533 72.2179 5.40533 72.0632 5.096C71.9139 4.78667 71.8392 4.42933 71.8392 4.024C71.8392 3.61333 71.9139 3.256 72.0632 2.952C72.2125 2.64267 72.4232 2.40267 72.6952 2.232C72.9672 2.06133 73.2845 1.976 73.6472 1.976C73.9885 1.976 74.2792 2.056 74.5192 2.216C74.7645 2.376 74.9405 2.59467 75.0472 2.872V0.36H75.7592V6H75.1032V5.128C74.9859 5.42667 74.8019 5.65867 74.5512 5.824C74.3005 5.98933 74.0019 6.072 73.6552 6.072ZM73.8072 5.488C74.1965 5.488 74.5005 5.35733 74.7192 5.096C74.9432 4.83467 75.0552 4.47733 75.0552 4.024C75.0552 3.57067 74.9432 3.21333 74.7192 2.952C74.5005 2.69067 74.1965 2.56 73.8072 2.56C73.4232 2.56 73.1165 2.69067 72.8872 2.952C72.6632 3.21333 72.5512 3.57067 72.5512 4.024C72.5512 4.47733 72.6632 4.83467 72.8872 5.096C73.1112 5.35733 73.4179 5.488 73.8072 5.488ZM79.0848 6.072C78.6421 6.072 78.2581 5.992 77.9328 5.832C77.6128 5.66667 77.3674 5.432 77.1968 5.128C77.0261 4.81867 76.9408 4.45067 76.9408 4.024C76.9408 3.624 77.0208 3.272 77.1808 2.968C77.3408 2.65867 77.5674 2.416 77.8608 2.24C78.1541 2.064 78.5034 1.976 78.9088 1.976C79.2928 1.976 79.6181 2.05867 79.8848 2.224C80.1568 2.38933 80.3621 2.62133 80.5008 2.92C80.6448 3.21867 80.7168 3.57333 80.7168 3.984V4.216H77.4768V3.72H80.2528L80.1008 3.88C80.1008 3.44267 79.9968 3.10667 79.7888 2.872C79.5861 2.63733 79.2928 2.52 78.9088 2.52C78.6581 2.52 78.4341 2.57867 78.2368 2.696C78.0448 2.808 77.8954 2.968 77.7888 3.176C77.6821 3.384 77.6288 3.63733 77.6288 3.936V4.016C77.6288 4.336 77.6874 4.60533 77.8048 4.824C77.9221 5.04267 78.0901 5.208 78.3088 5.32C78.5274 5.432 78.7888 5.488 79.0928 5.488C79.3114 5.488 79.5328 5.45867 79.7568 5.4C79.9861 5.336 80.1994 5.224 80.3968 5.064L80.6368 5.576C80.4341 5.74667 80.1914 5.872 79.9088 5.952C79.6314 6.032 79.3568 6.072 79.0848 6.072ZM81.8917 6V2.048H82.5557V2.904C82.6837 2.61067 82.8757 2.384 83.1317 2.224C83.3877 2.05867 83.6757 1.976 83.9957 1.976C84.321 1.976 84.593 2.03467 84.8117 2.152C85.0304 2.264 85.193 2.44 85.2997 2.68C85.4117 2.91467 85.4677 3.208 85.4677 3.56V6H84.7557V3.6C84.7557 3.38667 84.7264 3.20533 84.6677 3.056C84.609 2.90667 84.5104 2.792 84.3717 2.712C84.2384 2.62667 84.0597 2.584 83.8357 2.584C83.601 2.584 83.3877 2.63733 83.1957 2.744C83.009 2.85067 82.8624 2.99467 82.7557 3.176C82.6544 3.35733 82.6037 3.56 82.6037 3.784V6H81.8917ZM88.5401 6.072C88.0654 6.072 87.7054 5.94667 87.4601 5.696C87.2201 5.44533 87.1001 5.088 87.1001 4.624V2.632H86.3001V2.048H87.1241V0.872H87.8121V2.048H89.2281V2.632H87.8121V4.56C87.8121 4.864 87.8787 5.09067 88.0121 5.24C88.1507 5.384 88.3614 5.456 88.6441 5.456C88.7561 5.456 88.8627 5.44533 88.9641 5.424C89.0707 5.40267 89.1721 5.37067 89.2681 5.328L89.3801 5.888C89.2734 5.94667 89.1427 5.992 88.9881 6.024C88.8387 6.056 88.6894 6.072 88.5401 6.072ZM90.5934 7.152L90.2334 6.872C90.3294 6.78133 90.404 6.67733 90.4574 6.56C90.516 6.448 90.5587 6.33067 90.5854 6.208C90.612 6.09067 90.628 5.98133 90.6334 5.88L90.7694 6H90.1854V5.12H91.0974V5.776C91.0974 5.94133 91.0814 6.10667 91.0494 6.272C91.0174 6.43733 90.964 6.59467 90.8894 6.744C90.8147 6.89333 90.716 7.02933 90.5934 7.152ZM94.7383 6V0.36H96.7143C97.3169 0.36 97.8289 0.469333 98.2503 0.688C98.6716 0.906666 98.9916 1.22667 99.2103 1.648C99.4343 2.064 99.5463 2.57333 99.5463 3.176C99.5463 3.77867 99.4343 4.29067 99.2103 4.712C98.9916 5.13333 98.6716 5.45333 98.2503 5.672C97.8289 5.89067 97.3169 6 96.7143 6H94.7383ZM95.4503 5.376H96.6743C97.3729 5.376 97.9009 5.19467 98.2583 4.832C98.6209 4.46933 98.8023 3.91733 98.8023 3.176C98.8023 2.43467 98.6209 1.88533 98.2583 1.528C97.9009 1.16533 97.3729 0.984 96.6743 0.984H95.4503V5.376ZM102.764 6.072C102.322 6.072 101.938 5.992 101.612 5.832C101.292 5.66667 101.047 5.432 100.876 5.128C100.706 4.81867 100.62 4.45067 100.62 4.024C100.62 3.624 100.7 3.272 100.86 2.968C101.02 2.65867 101.247 2.416 101.54 2.24C101.834 2.064 102.183 1.976 102.588 1.976C102.972 1.976 103.298 2.05867 103.564 2.224C103.836 2.38933 104.042 2.62133 104.18 2.92C104.324 3.21867 104.396 3.57333 104.396 3.984V4.216H101.156V3.72H103.932L103.78 3.88C103.78 3.44267 103.676 3.10667 103.468 2.872C103.266 2.63733 102.972 2.52 102.588 2.52C102.338 2.52 102.114 2.57867 101.916 2.696C101.724 2.808 101.575 2.968 101.468 3.176C101.362 3.384 101.308 3.63733 101.308 3.936V4.016C101.308 4.336 101.367 4.60533 101.484 4.824C101.602 5.04267 101.77 5.208 101.988 5.32C102.207 5.432 102.468 5.488 102.772 5.488C102.991 5.488 103.212 5.45867 103.436 5.4C103.666 5.336 103.879 5.224 104.076 5.064L104.316 5.576C104.114 5.74667 103.871 5.872 103.588 5.952C103.311 6.032 103.036 6.072 102.764 6.072ZM107.027 6.072C106.809 6.072 106.593 6.05067 106.379 6.008C106.171 5.97067 105.977 5.91733 105.795 5.848C105.619 5.77333 105.467 5.68267 105.339 5.576L105.571 5.072C105.705 5.17333 105.851 5.256 106.011 5.32C106.177 5.384 106.345 5.432 106.515 5.464C106.691 5.49067 106.859 5.504 107.019 5.504C107.35 5.504 107.603 5.45333 107.779 5.352C107.961 5.25067 108.051 5.10933 108.051 4.928C108.051 4.77333 107.998 4.656 107.891 4.576C107.79 4.49067 107.619 4.42667 107.379 4.384L106.555 4.24C106.187 4.17067 105.91 4.04533 105.723 3.864C105.542 3.68267 105.451 3.44533 105.451 3.152C105.451 2.91733 105.515 2.712 105.643 2.536C105.777 2.36 105.966 2.224 106.211 2.128C106.457 2.02667 106.75 1.976 107.091 1.976C107.278 1.976 107.467 1.99467 107.659 2.032C107.857 2.06933 108.038 2.12533 108.203 2.2C108.374 2.26933 108.513 2.35733 108.619 2.464L108.379 2.968C108.273 2.86667 108.145 2.78667 107.995 2.728C107.851 2.664 107.699 2.61867 107.539 2.592C107.385 2.56 107.233 2.544 107.083 2.544C106.774 2.544 106.534 2.59733 106.363 2.704C106.193 2.80533 106.107 2.94933 106.107 3.136C106.107 3.28533 106.155 3.40267 106.251 3.488C106.353 3.57333 106.515 3.63733 106.739 3.68L107.539 3.824C107.934 3.89867 108.227 4.024 108.419 4.2C108.611 4.37067 108.707 4.608 108.707 4.912C108.707 5.14667 108.638 5.352 108.499 5.528C108.361 5.69867 108.166 5.832 107.915 5.928C107.665 6.024 107.369 6.072 107.027 6.072ZM109.804 1.096V0.304H110.668V1.096H109.804ZM109.884 6V2.048H110.596V6H109.884ZM113.729 7.512C113.414 7.512 113.102 7.464 112.793 7.368C112.483 7.27733 112.219 7.152 112.001 6.992L112.225 6.44C112.374 6.536 112.531 6.61867 112.697 6.688C112.862 6.76267 113.03 6.816 113.201 6.848C113.377 6.88533 113.55 6.904 113.721 6.904C114.131 6.904 114.451 6.8 114.681 6.592C114.915 6.384 115.033 6.088 115.033 5.704V4.976H115.017C114.921 5.248 114.747 5.46933 114.497 5.64C114.246 5.80533 113.955 5.888 113.625 5.888C113.251 5.888 112.926 5.808 112.649 5.648C112.371 5.48267 112.155 5.25333 112.001 4.96C111.851 4.66667 111.777 4.32267 111.777 3.928C111.777 3.53867 111.851 3.19733 112.001 2.904C112.155 2.61067 112.371 2.384 112.649 2.224C112.926 2.05867 113.251 1.976 113.625 1.976C113.955 1.976 114.246 2.06133 114.497 2.232C114.753 2.40267 114.929 2.62933 115.025 2.912H115.033V2.048H115.697V5.64C115.697 6.024 115.617 6.35467 115.457 6.632C115.302 6.91467 115.078 7.13067 114.785 7.28C114.491 7.43467 114.139 7.512 113.729 7.512ZM113.745 5.304C114.134 5.304 114.441 5.17867 114.665 4.928C114.894 4.67733 115.009 4.344 115.009 3.928C115.009 3.512 114.894 3.18133 114.665 2.936C114.441 2.68533 114.134 2.56 113.745 2.56C113.361 2.56 113.054 2.68533 112.825 2.936C112.601 3.18133 112.489 3.512 112.489 3.928C112.489 4.344 112.601 4.67733 112.825 4.928C113.054 5.17867 113.361 5.304 113.745 5.304ZM117.118 6V2.048H117.782V2.904C117.91 2.61067 118.102 2.384 118.358 2.224C118.614 2.05867 118.902 1.976 119.222 1.976C119.548 1.976 119.82 2.03467 120.038 2.152C120.257 2.264 120.42 2.44 120.526 2.68C120.638 2.91467 120.694 3.208 120.694 3.56V6H119.982V3.6C119.982 3.38667 119.953 3.20533 119.894 3.056C119.836 2.90667 119.737 2.792 119.598 2.712C119.465 2.62667 119.286 2.584 119.062 2.584C118.828 2.584 118.614 2.63733 118.422 2.744C118.236 2.85067 118.089 2.99467 117.982 3.176C117.881 3.35733 117.83 3.56 117.83 3.784V6H117.118ZM121.967 4.144V3.568H124.207V4.144H121.967ZM0.832 17V11.36H3.152C3.76 11.36 4.22933 11.4987 4.56 11.776C4.89067 12.0533 5.056 12.456 5.056 12.984C5.056 13.2827 4.99467 13.5413 4.872 13.76C4.75467 13.9787 4.58667 14.1547 4.368 14.288C4.14933 14.416 3.89333 14.4987 3.6 14.536L3.624 14.528L3.704 14.544C3.83733 14.5653 3.95733 14.6213 4.064 14.712C4.17067 14.8027 4.27467 14.944 4.376 15.136L5.368 17H4.584L3.64 15.232C3.56 15.0773 3.47467 14.96 3.384 14.88C3.29333 14.8 3.184 14.744 3.056 14.712C2.93333 14.68 2.784 14.664 2.608 14.664H1.544V17H0.832ZM1.544 14.072H3.104C3.53067 14.072 3.84267 13.984 4.04 13.808C4.23733 13.6267 4.336 13.3573 4.336 13C4.336 12.6427 4.232 12.3813 4.024 12.216C3.82133 12.0507 3.504 11.968 3.072 11.968H1.544V14.072ZM8.26444 17.072C7.82177 17.072 7.43777 16.992 7.11244 16.832C6.79244 16.6667 6.5471 16.432 6.37644 16.128C6.20577 15.8187 6.12044 15.4507 6.12044 15.024C6.12044 14.624 6.20044 14.272 6.36044 13.968C6.52044 13.6587 6.7471 13.416 7.04044 13.24C7.33377 13.064 7.6831 12.976 8.08844 12.976C8.47244 12.976 8.79777 13.0587 9.06444 13.224C9.33644 13.3893 9.54177 13.6213 9.68044 13.92C9.82444 14.2187 9.89644 14.5733 9.89644 14.984V15.216H6.65644V14.72H9.43244L9.28044 14.88C9.28044 14.4427 9.17644 14.1067 8.96844 13.872C8.76577 13.6373 8.47244 13.52 8.08844 13.52C7.83777 13.52 7.61377 13.5787 7.41644 13.696C7.22444 13.808 7.0751 13.968 6.96844 14.176C6.86177 14.384 6.80844 14.6373 6.80844 14.936V15.016C6.80844 15.336 6.8671 15.6053 6.98444 15.824C7.10177 16.0427 7.26977 16.208 7.48844 16.32C7.7071 16.432 7.96844 16.488 8.27244 16.488C8.4911 16.488 8.71244 16.4587 8.93644 16.4C9.16577 16.336 9.3791 16.224 9.57644 16.064L9.81644 16.576C9.61377 16.7467 9.3711 16.872 9.08844 16.952C8.8111 17.032 8.53644 17.072 8.26444 17.072ZM12.7834 18.512C12.4687 18.512 12.1567 18.464 11.8474 18.368C11.538 18.2773 11.274 18.152 11.0554 17.992L11.2794 17.44C11.4287 17.536 11.586 17.6187 11.7514 17.688C11.9167 17.7627 12.0847 17.816 12.2554 17.848C12.4314 17.8853 12.6047 17.904 12.7754 17.904C13.186 17.904 13.506 17.8 13.7354 17.592C13.97 17.384 14.0874 17.088 14.0874 16.704V15.976H14.0714C13.9754 16.248 13.802 16.4693 13.5514 16.64C13.3007 16.8053 13.01 16.888 12.6794 16.888C12.306 16.888 11.9807 16.808 11.7034 16.648C11.426 16.4827 11.21 16.2533 11.0554 15.96C10.906 15.6667 10.8314 15.3227 10.8314 14.928C10.8314 14.5387 10.906 14.1973 11.0554 13.904C11.21 13.6107 11.426 13.384 11.7034 13.224C11.9807 13.0587 12.306 12.976 12.6794 12.976C13.01 12.976 13.3007 13.0613 13.5514 13.232C13.8074 13.4027 13.9834 13.6293 14.0794 13.912H14.0874V13.048H14.7514V16.64C14.7514 17.024 14.6714 17.3547 14.5114 17.632C14.3567 17.9147 14.1327 18.1307 13.8394 18.28C13.546 18.4347 13.194 18.512 12.7834 18.512ZM12.7994 16.304C13.1887 16.304 13.4954 16.1787 13.7194 15.928C13.9487 15.6773 14.0634 15.344 14.0634 14.928C14.0634 14.512 13.9487 14.1813 13.7194 13.936C13.4954 13.6853 13.1887 13.56 12.7994 13.56C12.4154 13.56 12.1087 13.6853 11.8794 13.936C11.6554 14.1813 11.5434 14.512 11.5434 14.928C11.5434 15.344 11.6554 15.6773 11.8794 15.928C12.1087 16.1787 12.4154 16.304 12.7994 16.304ZM16.0929 12.096V11.304H16.9569V12.096H16.0929ZM16.1729 17V13.048H16.8849V17H16.1729ZM19.7618 17.072C19.5431 17.072 19.3271 17.0507 19.1138 17.008C18.9058 16.9707 18.7111 16.9173 18.5298 16.848C18.3538 16.7733 18.2018 16.6827 18.0738 16.576L18.3058 16.072C18.4391 16.1733 18.5858 16.256 18.7458 16.32C18.9111 16.384 19.0791 16.432 19.2498 16.464C19.4258 16.4907 19.5938 16.504 19.7538 16.504C20.0844 16.504 20.3378 16.4533 20.5138 16.352C20.6951 16.2507 20.7858 16.1093 20.7858 15.928C20.7858 15.7733 20.7324 15.656 20.6258 15.576C20.5244 15.4907 20.3538 15.4267 20.1138 15.384L19.2898 15.24C18.9218 15.1707 18.6444 15.0453 18.4578 14.864C18.2764 14.6827 18.1858 14.4453 18.1858 14.152C18.1858 13.9173 18.2498 13.712 18.3778 13.536C18.5111 13.36 18.7004 13.224 18.9458 13.128C19.1911 13.0267 19.4844 12.976 19.8258 12.976C20.0124 12.976 20.2018 12.9947 20.3938 13.032C20.5911 13.0693 20.7724 13.1253 20.9378 13.2C21.1084 13.2693 21.2471 13.3573 21.3538 13.464L21.1138 13.968C21.0071 13.8667 20.8791 13.7867 20.7298 13.728C20.5858 13.664 20.4338 13.6187 20.2738 13.592C20.1191 13.56 19.9671 13.544 19.8178 13.544C19.5084 13.544 19.2684 13.5973 19.0978 13.704C18.9271 13.8053 18.8418 13.9493 18.8418 14.136C18.8418 14.2853 18.8898 14.4027 18.9858 14.488C19.0871 14.5733 19.2498 14.6373 19.4738 14.68L20.2738 14.824C20.6684 14.8987 20.9618 15.024 21.1538 15.2C21.3458 15.3707 21.4418 15.608 21.4418 15.912C21.4418 16.1467 21.3724 16.352 21.2338 16.528C21.0951 16.6987 20.9004 16.832 20.6498 16.928C20.3991 17.024 20.1031 17.072 19.7618 17.072ZM24.2432 17.072C23.7685 17.072 23.4085 16.9467 23.1632 16.696C22.9232 16.4453 22.8032 16.088 22.8032 15.624V13.632H22.0032V13.048H22.8272V11.872H23.5152V13.048H24.9312V13.632H23.5152V15.56C23.5152 15.864 23.5819 16.0907 23.7152 16.24C23.8539 16.384 24.0645 16.456 24.3472 16.456C24.4592 16.456 24.5659 16.4453 24.6672 16.424C24.7739 16.4027 24.8752 16.3707 24.9712 16.328L25.0832 16.888C24.9765 16.9467 24.8459 16.992 24.6912 17.024C24.5419 17.056 24.3925 17.072 24.2432 17.072ZM27.7801 17.072C27.3374 17.072 26.9534 16.992 26.6281 16.832C26.3081 16.6667 26.0627 16.432 25.8921 16.128C25.7214 15.8187 25.6361 15.4507 25.6361 15.024C25.6361 14.624 25.7161 14.272 25.8761 13.968C26.0361 13.6587 26.2627 13.416 26.5561 13.24C26.8494 13.064 27.1987 12.976 27.6041 12.976C27.9881 12.976 28.3134 13.0587 28.5801 13.224C28.8521 13.3893 29.0574 13.6213 29.1961 13.92C29.3401 14.2187 29.4121 14.5733 29.4121 14.984V15.216H26.1721V14.72H28.9481L28.7961 14.88C28.7961 14.4427 28.6921 14.1067 28.4841 13.872C28.2814 13.6373 27.9881 13.52 27.6041 13.52C27.3534 13.52 27.1294 13.5787 26.9321 13.696C26.7401 13.808 26.5907 13.968 26.4841 14.176C26.3774 14.384 26.3241 14.6373 26.3241 14.936V15.016C26.3241 15.336 26.3827 15.6053 26.5001 15.824C26.6174 16.0427 26.7854 16.208 27.0041 16.32C27.2227 16.432 27.4841 16.488 27.7881 16.488C28.0067 16.488 28.2281 16.4587 28.4521 16.4C28.6814 16.336 28.8947 16.224 29.0921 16.064L29.3321 16.576C29.1294 16.7467 28.8867 16.872 28.6041 16.952C28.3267 17.032 28.0521 17.072 27.7801 17.072ZM30.587 17V13.048H31.235V13.96H31.243C31.339 13.6667 31.507 13.4373 31.747 13.272C31.987 13.1013 32.2803 13.0053 32.627 12.984L32.987 12.968L33.051 13.616L32.475 13.664C32.107 13.696 31.819 13.8187 31.611 14.032C31.403 14.24 31.299 14.5013 31.299 14.816V17H30.587ZM35.7879 17.072C35.3452 17.072 34.9612 16.992 34.6359 16.832C34.3159 16.6667 34.0705 16.432 33.8999 16.128C33.7292 15.8187 33.6439 15.4507 33.6439 15.024C33.6439 14.624 33.7239 14.272 33.8839 13.968C34.0439 13.6587 34.2705 13.416 34.5639 13.24C34.8572 13.064 35.2065 12.976 35.6119 12.976C35.9959 12.976 36.3212 13.0587 36.5879 13.224C36.8599 13.3893 37.0652 13.6213 37.2039 13.92C37.3479 14.2187 37.4199 14.5733 37.4199 14.984V15.216H34.1799V14.72H36.9559L36.8039 14.88C36.8039 14.4427 36.6999 14.1067 36.4919 13.872C36.2892 13.6373 35.9959 13.52 35.6119 13.52C35.3612 13.52 35.1372 13.5787 34.9399 13.696C34.7479 13.808 34.5985 13.968 34.4919 14.176C34.3852 14.384 34.3319 14.6373 34.3319 14.936V15.016C34.3319 15.336 34.3905 15.6053 34.5079 15.824C34.6252 16.0427 34.7932 16.208 35.0119 16.32C35.2305 16.432 35.4919 16.488 35.7959 16.488C36.0145 16.488 36.2359 16.4587 36.4599 16.4C36.6892 16.336 36.9025 16.224 37.0999 16.064L37.3399 16.576C37.1372 16.7467 36.8945 16.872 36.6119 16.952C36.3345 17.032 36.0599 17.072 35.7879 17.072ZM40.1708 17.072C39.8081 17.072 39.4908 16.9867 39.2188 16.816C38.9468 16.6453 38.7335 16.4053 38.5788 16.096C38.4295 15.7867 38.3548 15.4293 38.3548 15.024C38.3548 14.6133 38.4295 14.256 38.5788 13.952C38.7281 13.6427 38.9388 13.4027 39.2108 13.232C39.4828 13.0613 39.8001 12.976 40.1628 12.976C40.5041 12.976 40.7948 13.056 41.0348 13.216C41.2801 13.376 41.4561 13.5947 41.5628 13.872V11.36H42.2748V17H41.6188V16.128C41.5015 16.4267 41.3175 16.6587 41.0668 16.824C40.8161 16.9893 40.5175 17.072 40.1708 17.072ZM40.3228 16.488C40.7121 16.488 41.0161 16.3573 41.2348 16.096C41.4588 15.8347 41.5708 15.4773 41.5708 15.024C41.5708 14.5707 41.4588 14.2133 41.2348 13.952C41.0161 13.6907 40.7121 13.56 40.3228 13.56C39.9388 13.56 39.6321 13.6907 39.4028 13.952C39.1788 14.2133 39.0668 14.5707 39.0668 15.024C39.0668 15.4773 39.1788 15.8347 39.4028 16.096C39.6268 16.3573 39.9335 16.488 40.3228 16.488ZM48.4588 17.072C47.9201 17.072 47.4508 16.9573 47.0508 16.728C46.6561 16.4933 46.3521 16.16 46.1388 15.728C45.9254 15.2907 45.8188 14.7733 45.8188 14.176C45.8188 13.5787 45.9254 13.064 46.1388 12.632C46.3521 12.2 46.6561 11.8693 47.0508 11.64C47.4454 11.4053 47.9148 11.288 48.4588 11.288C48.8534 11.288 49.2134 11.3493 49.5388 11.472C49.8641 11.5893 50.1441 11.7627 50.3788 11.992L50.0988 12.552C49.8534 12.3333 49.6001 12.176 49.3388 12.08C49.0828 11.984 48.7948 11.936 48.4748 11.936C47.8774 11.936 47.4081 12.128 47.0668 12.512C46.7308 12.8907 46.5628 13.4453 46.5628 14.176C46.5628 14.9013 46.7308 15.4587 47.0668 15.848C47.4028 16.232 47.8721 16.424 48.4748 16.424C48.7948 16.424 49.0828 16.376 49.3388 16.28C49.6001 16.184 49.8534 16.0267 50.0988 15.808L50.3788 16.368C50.1441 16.5973 49.8641 16.7733 49.5388 16.896C49.2134 17.0133 48.8534 17.072 48.4588 17.072ZM53.0101 17.072C52.6101 17.072 52.2635 16.9867 51.9701 16.816C51.6768 16.6453 51.4501 16.408 51.2901 16.104C51.1301 15.7947 51.0501 15.432 51.0501 15.016C51.0501 14.6053 51.1301 14.248 51.2901 13.944C51.4501 13.6347 51.6768 13.3973 51.9701 13.232C52.2635 13.0613 52.6101 12.976 53.0101 12.976C53.4101 12.976 53.7541 13.0613 54.0421 13.232C54.3355 13.3973 54.5621 13.6347 54.7221 13.944C54.8821 14.248 54.9621 14.6053 54.9621 15.016C54.9621 15.432 54.8821 15.7947 54.7221 16.104C54.5675 16.408 54.3435 16.6453 54.0501 16.816C53.7568 16.9867 53.4101 17.072 53.0101 17.072ZM53.0021 16.472C53.3915 16.472 53.6981 16.3413 53.9221 16.08C54.1461 15.8187 54.2581 15.464 54.2581 15.016C54.2581 14.568 54.1461 14.216 53.9221 13.96C53.7035 13.704 53.3995 13.576 53.0101 13.576C52.6208 13.576 52.3141 13.704 52.0901 13.96C51.8661 14.216 51.7541 14.568 51.7541 15.016C51.7541 15.464 51.8661 15.8187 52.0901 16.08C52.3195 16.3413 52.6235 16.472 53.0021 16.472ZM56.1573 17V13.048H56.8213V13.904C56.9493 13.6107 57.1413 13.384 57.3973 13.224C57.6533 13.0587 57.9413 12.976 58.2613 12.976C58.5866 12.976 58.8586 13.0347 59.0773 13.152C59.296 13.264 59.4586 13.44 59.5653 13.68C59.6773 13.9147 59.7333 14.208 59.7333 14.56V17H59.0213V14.6C59.0213 14.3867 58.992 14.2053 58.9333 14.056C58.8746 13.9067 58.776 13.792 58.6373 13.712C58.504 13.6267 58.3253 13.584 58.1013 13.584C57.8666 13.584 57.6533 13.6373 57.4613 13.744C57.2746 13.8507 57.128 13.9947 57.0213 14.176C56.92 14.3573 56.8693 14.56 56.8693 14.784V17H56.1573ZM62.8057 17.072C62.331 17.072 61.971 16.9467 61.7257 16.696C61.4857 16.4453 61.3657 16.088 61.3657 15.624V13.632H60.5657V13.048H61.3897V11.872H62.0777V13.048H63.4937V13.632H62.0777V15.56C62.0777 15.864 62.1444 16.0907 62.2777 16.24C62.4164 16.384 62.627 16.456 62.9097 16.456C63.0217 16.456 63.1284 16.4453 63.2297 16.424C63.3364 16.4027 63.4377 16.3707 63.5337 16.328L63.6457 16.888C63.539 16.9467 63.4084 16.992 63.2537 17.024C63.1044 17.056 62.955 17.072 62.8057 17.072ZM65.7976 17.072C65.515 17.072 65.2616 17.0213 65.0376 16.92C64.8136 16.8133 64.6376 16.6693 64.5096 16.488C64.3816 16.3067 64.3176 16.104 64.3176 15.88C64.3176 15.576 64.403 15.3387 64.5736 15.168C64.7443 14.992 65.0056 14.8667 65.3576 14.792C65.715 14.7173 66.171 14.68 66.7256 14.68H67.2936V15.168H66.7576C66.4483 15.168 66.1843 15.1787 65.9656 15.2C65.747 15.216 65.5683 15.2507 65.4296 15.304C65.291 15.352 65.1896 15.4187 65.1256 15.504C65.0616 15.5893 65.0296 15.7013 65.0296 15.84C65.0296 16.0533 65.1123 16.2187 65.2776 16.336C65.4483 16.4533 65.6643 16.512 65.9256 16.512C66.155 16.512 66.363 16.4613 66.5496 16.36C66.7416 16.2533 66.8936 16.112 67.0056 15.936C67.123 15.76 67.1816 15.5653 67.1816 15.352V14.448C67.1816 14.1333 67.0936 13.9067 66.9176 13.768C66.7416 13.624 66.4803 13.552 66.1336 13.552C65.899 13.552 65.6643 13.584 65.4296 13.648C65.2003 13.712 64.963 13.8187 64.7176 13.968L64.4856 13.44C64.651 13.3387 64.827 13.256 65.0136 13.192C65.2003 13.1227 65.395 13.0693 65.5976 13.032C65.8003 12.9947 66.003 12.976 66.2056 12.976C66.547 12.976 66.8403 13.0293 67.0856 13.136C67.3363 13.2427 67.5283 13.408 67.6616 13.632C67.8003 13.856 67.8696 14.1493 67.8696 14.512V17H67.2456V16.136C67.171 16.3013 67.067 16.456 66.9336 16.6C66.8003 16.744 66.6376 16.8587 66.4456 16.944C66.259 17.0293 66.043 17.072 65.7976 17.072ZM69.2023 12.096V11.304H70.0663V12.096H69.2023ZM69.2823 17V13.048H69.9943V17H69.2823ZM71.4151 17V13.048H72.0791V13.904C72.2071 13.6107 72.3991 13.384 72.6551 13.224C72.9111 13.0587 73.1991 12.976 73.5191 12.976C73.8445 12.976 74.1165 13.0347 74.3351 13.152C74.5538 13.264 74.7165 13.44 74.8231 13.68C74.9351 13.9147 74.9911 14.208 74.9911 14.56V17H74.2791V14.6C74.2791 14.3867 74.2498 14.2053 74.1911 14.056C74.1325 13.9067 74.0338 13.792 73.8951 13.712C73.7618 13.6267 73.5831 13.584 73.3591 13.584C73.1245 13.584 72.9111 13.6373 72.7191 13.744C72.5325 13.8507 72.3858 13.9947 72.2791 14.176C72.1778 14.3573 72.1271 14.56 72.1271 14.784V17H71.4151ZM78.3035 17.072C77.8608 17.072 77.4768 16.992 77.1515 16.832C76.8315 16.6667 76.5862 16.432 76.4155 16.128C76.2448 15.8187 76.1595 15.4507 76.1595 15.024C76.1595 14.624 76.2395 14.272 76.3995 13.968C76.5595 13.6587 76.7862 13.416 77.0795 13.24C77.3728 13.064 77.7222 12.976 78.1275 12.976C78.5115 12.976 78.8368 13.0587 79.1035 13.224C79.3755 13.3893 79.5808 13.6213 79.7195 13.92C79.8635 14.2187 79.9355 14.5733 79.9355 14.984V15.216H76.6955V14.72H79.4715L79.3195 14.88C79.3195 14.4427 79.2155 14.1067 79.0075 13.872C78.8048 13.6373 78.5115 13.52 78.1275 13.52C77.8768 13.52 77.6528 13.5787 77.4555 13.696C77.2635 13.808 77.1142 13.968 77.0075 14.176C76.9008 14.384 76.8475 14.6373 76.8475 14.936V15.016C76.8475 15.336 76.9062 15.6053 77.0235 15.824C77.1408 16.0427 77.3088 16.208 77.5275 16.32C77.7462 16.432 78.0075 16.488 78.3115 16.488C78.5302 16.488 78.7515 16.4587 78.9755 16.4C79.2048 16.336 79.4182 16.224 79.6155 16.064L79.8555 16.576C79.6528 16.7467 79.4102 16.872 79.1275 16.952C78.8502 17.032 78.5755 17.072 78.3035 17.072ZM81.1104 17V13.048H81.7584V13.96H81.7664C81.8624 13.6667 82.0304 13.4373 82.2704 13.272C82.5104 13.1013 82.8038 13.0053 83.1504 12.984L83.5104 12.968L83.5744 13.616L82.9984 13.664C82.6304 13.696 82.3424 13.8187 82.1344 14.032C81.9264 14.24 81.8224 14.5013 81.8224 14.816V17H81.1104ZM84.5621 18.152L84.2021 17.872C84.2981 17.7813 84.3728 17.6773 84.4261 17.56C84.4848 17.448 84.5275 17.3307 84.5541 17.208C84.5808 17.0907 84.5968 16.9813 84.6021 16.88L84.7381 17H84.1541V16.12H85.0661V16.776C85.0661 16.9413 85.0501 17.1067 85.0181 17.272C84.9861 17.4373 84.9328 17.5947 84.8581 17.744C84.7835 17.8933 84.6848 18.0293 84.5621 18.152ZM88.707 17V11.36H91.027C91.4323 11.36 91.7763 11.4267 92.059 11.56C92.3417 11.6933 92.5577 11.888 92.707 12.144C92.8617 12.3947 92.939 12.6987 92.939 13.056C92.939 13.4133 92.8617 13.72 92.707 13.976C92.5577 14.232 92.339 14.4293 92.051 14.568C91.7683 14.7067 91.427 14.776 91.027 14.776H89.419V17H88.707ZM89.419 14.168H90.923C91.3497 14.168 91.6723 14.0773 91.891 13.896C92.1097 13.7093 92.219 13.432 92.219 13.064C92.219 12.6907 92.1097 12.416 91.891 12.24C91.6723 12.0587 91.3497 11.968 90.923 11.968H89.419V14.168ZM95.8113 17.072C95.3686 17.072 94.9846 16.992 94.6593 16.832C94.3393 16.6667 94.094 16.432 93.9233 16.128C93.7526 15.8187 93.6673 15.4507 93.6673 15.024C93.6673 14.624 93.7473 14.272 93.9073 13.968C94.0673 13.6587 94.294 13.416 94.5873 13.24C94.8806 13.064 95.23 12.976 95.6353 12.976C96.0193 12.976 96.3446 13.0587 96.6113 13.224C96.8833 13.3893 97.0886 13.6213 97.2273 13.92C97.3713 14.2187 97.4433 14.5733 97.4433 14.984V15.216H94.2033V14.72H96.9793L96.8273 14.88C96.8273 14.4427 96.7233 14.1067 96.5153 13.872C96.3126 13.6373 96.0193 13.52 95.6353 13.52C95.3846 13.52 95.1606 13.5787 94.9633 13.696C94.7713 13.808 94.622 13.968 94.5153 14.176C94.4086 14.384 94.3553 14.6373 94.3553 14.936V15.016C94.3553 15.336 94.414 15.6053 94.5313 15.824C94.6486 16.0427 94.8166 16.208 95.0353 16.32C95.254 16.432 95.5153 16.488 95.8193 16.488C96.038 16.488 96.2593 16.4587 96.4833 16.4C96.7126 16.336 96.926 16.224 97.1233 16.064L97.3633 16.576C97.1606 16.7467 96.918 16.872 96.6353 16.952C96.358 17.032 96.0833 17.072 95.8113 17.072ZM98.6183 17V13.048H99.2663V13.96H99.2743C99.3703 13.6667 99.5383 13.4373 99.7783 13.272C100.018 13.1013 100.312 13.0053 100.658 12.984L101.018 12.968L101.082 13.616L100.506 13.664C100.138 13.696 99.8503 13.8187 99.6423 14.032C99.4343 14.24 99.3303 14.5013 99.3303 14.816V17H98.6183ZM102.413 17V13.608H101.605V13.048H102.597L102.413 13.232V12.976C102.413 12.4587 102.557 12.0667 102.845 11.8C103.133 11.528 103.552 11.376 104.101 11.344L104.517 11.32L104.573 11.904L104.093 11.936C103.901 11.9467 103.733 11.984 103.589 12.048C103.445 12.1067 103.33 12.2027 103.245 12.336C103.165 12.4693 103.125 12.656 103.125 12.896V13.128L103.013 13.048H104.373V13.608H103.125V17H102.413ZM107.085 17.072C106.642 17.072 106.258 16.992 105.933 16.832C105.613 16.6667 105.367 16.432 105.197 16.128C105.026 15.8187 104.941 15.4507 104.941 15.024C104.941 14.624 105.021 14.272 105.181 13.968C105.341 13.6587 105.567 13.416 105.861 13.24C106.154 13.064 106.503 12.976 106.909 12.976C107.293 12.976 107.618 13.0587 107.885 13.224C108.157 13.3893 108.362 13.6213 108.501 13.92C108.645 14.2187 108.717 14.5733 108.717 14.984V15.216H105.477V14.72H108.253L108.101 14.88C108.101 14.4427 107.997 14.1067 107.789 13.872C107.586 13.6373 107.293 13.52 106.909 13.52C106.658 13.52 106.434 13.5787 106.237 13.696C106.045 13.808 105.895 13.968 105.789 14.176C105.682 14.384 105.629 14.6373 105.629 14.936V15.016C105.629 15.336 105.687 15.6053 105.805 15.824C105.922 16.0427 106.09 16.208 106.309 16.32C106.527 16.432 106.789 16.488 107.093 16.488C107.311 16.488 107.533 16.4587 107.757 16.4C107.986 16.336 108.199 16.224 108.397 16.064L108.637 16.576C108.434 16.7467 108.191 16.872 107.909 16.952C107.631 17.032 107.357 17.072 107.085 17.072ZM111.652 17.072C111.246 17.072 110.894 16.9867 110.596 16.816C110.297 16.6453 110.065 16.408 109.9 16.104C109.734 15.7947 109.652 15.432 109.652 15.016C109.652 14.6 109.734 14.24 109.9 13.936C110.065 13.6267 110.297 13.3893 110.596 13.224C110.9 13.0587 111.254 12.976 111.66 12.976C111.932 12.976 112.19 13.0213 112.436 13.112C112.681 13.2027 112.884 13.3253 113.044 13.48L112.796 14.008C112.641 13.8693 112.468 13.7653 112.276 13.696C112.084 13.6213 111.897 13.584 111.716 13.584C111.3 13.584 110.972 13.7093 110.732 13.96C110.492 14.2107 110.372 14.5653 110.372 15.024C110.372 15.4773 110.492 15.832 110.732 16.088C110.972 16.3387 111.297 16.464 111.708 16.464C111.894 16.464 112.081 16.4293 112.268 16.36C112.46 16.2853 112.63 16.1813 112.78 16.048L113.028 16.576C112.873 16.7307 112.673 16.8533 112.428 16.944C112.182 17.0293 111.924 17.072 111.652 17.072ZM115.618 17.072C115.144 17.072 114.784 16.9467 114.538 16.696C114.298 16.4453 114.178 16.088 114.178 15.624V13.632H113.378V13.048H114.202V11.872H114.89V13.048H116.306V13.632H114.89V15.56C114.89 15.864 114.957 16.0907 115.09 16.24C115.229 16.384 115.44 16.456 115.722 16.456C115.834 16.456 115.941 16.4453 116.042 16.424C116.149 16.4027 116.25 16.3707 116.346 16.328L116.458 16.888C116.352 16.9467 116.221 16.992 116.066 17.024C115.917 17.056 115.768 17.072 115.618 17.072ZM119.645 17V11.36H123.293V11.984H120.357V13.864H123.133V14.48H120.357V17H119.645ZM125.924 17.072C125.524 17.072 125.178 16.9867 124.884 16.816C124.591 16.6453 124.364 16.408 124.204 16.104C124.044 15.7947 123.964 15.432 123.964 15.016C123.964 14.6053 124.044 14.248 124.204 13.944C124.364 13.6347 124.591 13.3973 124.884 13.232C125.178 13.0613 125.524 12.976 125.924 12.976C126.324 12.976 126.668 13.0613 126.956 13.232C127.25 13.3973 127.476 13.6347 127.636 13.944C127.796 14.248 127.876 14.6053 127.876 15.016C127.876 15.432 127.796 15.7947 127.636 16.104C127.482 16.408 127.258 16.6453 126.964 16.816C126.671 16.9867 126.324 17.072 125.924 17.072ZM125.916 16.472C126.306 16.472 126.612 16.3413 126.836 16.08C127.06 15.8187 127.172 15.464 127.172 15.016C127.172 14.568 127.06 14.216 126.836 13.96C126.618 13.704 126.314 13.576 125.924 13.576C125.535 13.576 125.228 13.704 125.004 13.96C124.78 14.216 124.668 14.568 124.668 15.016C124.668 15.464 124.78 15.8187 125.004 16.08C125.234 16.3413 125.538 16.472 125.916 16.472ZM129.071 17V13.048H129.719V13.96H129.727C129.823 13.6667 129.991 13.4373 130.231 13.272C130.471 13.1013 130.765 13.0053 131.111 12.984L131.471 12.968L131.535 13.616L130.959 13.664C130.591 13.696 130.303 13.8187 130.095 14.032C129.887 14.24 129.783 14.5013 129.783 14.816V17H129.071ZM0.832 28V22.36H3.168C3.76 22.36 4.21867 22.488 4.544 22.744C4.86933 22.9947 5.032 23.3573 5.032 23.832C5.032 24.1787 4.94133 24.4613 4.76 24.68C4.57867 24.8987 4.34933 25.04 4.072 25.104V25.096C4.26933 25.128 4.45067 25.2 4.616 25.312C4.78133 25.424 4.91467 25.576 5.016 25.768C5.11733 25.9547 5.168 26.1813 5.168 26.448C5.168 26.7787 5.09333 27.0613 4.944 27.296C4.79467 27.5253 4.576 27.7013 4.288 27.824C4.00533 27.9413 3.66133 28 3.256 28H0.832ZM1.536 27.392H3.224C3.38933 27.392 3.53867 27.3813 3.672 27.36C3.80533 27.3333 3.92 27.2933 4.016 27.24C4.11733 27.1867 4.2 27.1227 4.264 27.048C4.328 26.968 4.376 26.8773 4.408 26.776C4.44 26.6747 4.456 26.56 4.456 26.432C4.456 26.2987 4.43733 26.1787 4.4 26.072C4.368 25.9653 4.31733 25.8747 4.248 25.8C4.184 25.72 4.10133 25.6533 4 25.6C3.904 25.5467 3.78933 25.5093 3.656 25.488C3.528 25.4613 3.384 25.448 3.224 25.448H1.536V27.392ZM1.536 24.848H3.096C3.50133 24.848 3.80533 24.768 4.008 24.608C4.216 24.4427 4.32 24.2 4.32 23.88C4.32 23.576 4.21867 23.3493 4.016 23.2C3.81867 23.0453 3.512 22.968 3.096 22.968H1.536V24.848ZM6.41325 23.096V22.304H7.27725V23.096H6.41325ZM6.49325 28V24.048H7.20525V28H6.49325ZM8.62606 28V24.048H9.27406V24.96H9.28206C9.37806 24.6667 9.54606 24.4373 9.78606 24.272C10.0261 24.1013 10.3194 24.0053 10.6661 23.984L11.0261 23.968L11.0901 24.616L10.5141 24.664C10.1461 24.696 9.85806 24.8187 9.65006 25.032C9.44206 25.24 9.33806 25.5013 9.33806 25.816V28H8.62606ZM11.8898 23.096V22.304H12.7538V23.096H11.8898ZM11.9698 28V24.048H12.6818V28H11.9698ZM14.5826 29.44L15.3346 27.744V28.248L13.5586 24.048H14.3186L15.6066 27.304H15.5666L16.8546 24.048H17.5986L15.3346 29.44H14.5826ZM19.7117 28.072C19.429 28.072 19.1757 28.0213 18.9517 27.92C18.7277 27.8133 18.5517 27.6693 18.4237 27.488C18.2957 27.3067 18.2317 27.104 18.2317 26.88C18.2317 26.576 18.317 26.3387 18.4877 26.168C18.6584 25.992 18.9197 25.8667 19.2717 25.792C19.629 25.7173 20.085 25.68 20.6397 25.68H21.2077V26.168H20.6717C20.3624 26.168 20.0984 26.1787 19.8797 26.2C19.661 26.216 19.4824 26.2507 19.3437 26.304C19.205 26.352 19.1037 26.4187 19.0397 26.504C18.9757 26.5893 18.9437 26.7013 18.9437 26.84C18.9437 27.0533 19.0264 27.2187 19.1917 27.336C19.3624 27.4533 19.5784 27.512 19.8397 27.512C20.069 27.512 20.277 27.4613 20.4637 27.36C20.6557 27.2533 20.8077 27.112 20.9197 26.936C21.037 26.76 21.0957 26.5653 21.0957 26.352V25.448C21.0957 25.1333 21.0077 24.9067 20.8317 24.768C20.6557 24.624 20.3944 24.552 20.0477 24.552C19.813 24.552 19.5784 24.584 19.3437 24.648C19.1144 24.712 18.877 24.8187 18.6317 24.968L18.3997 24.44C18.565 24.3387 18.741 24.256 18.9277 24.192C19.1144 24.1227 19.309 24.0693 19.5117 24.032C19.7144 23.9947 19.917 23.976 20.1197 23.976C20.461 23.976 20.7544 24.0293 20.9997 24.136C21.2504 24.2427 21.4424 24.408 21.5757 24.632C21.7144 24.856 21.7837 25.1493 21.7837 25.512V28H21.1597V27.136C21.085 27.3013 20.981 27.456 20.8477 27.6C20.7144 27.744 20.5517 27.8587 20.3597 27.944C20.173 28.0293 19.957 28.072 19.7117 28.072ZM23.1964 28V24.048H23.8604V24.904C23.9884 24.6107 24.1804 24.384 24.4364 24.224C24.6924 24.0587 24.9804 23.976 25.3004 23.976C25.6257 23.976 25.8977 24.0347 26.1164 24.152C26.335 24.264 26.4977 24.44 26.6044 24.68C26.7164 24.9147 26.7724 25.208 26.7724 25.56V28H26.0604V25.6C26.0604 25.3867 26.031 25.2053 25.9724 25.056C25.9137 24.9067 25.815 24.792 25.6764 24.712C25.543 24.6267 25.3644 24.584 25.1404 24.584C24.9057 24.584 24.6924 24.6373 24.5004 24.744C24.3137 24.8507 24.167 24.9947 24.0604 25.176C23.959 25.3573 23.9084 25.56 23.9084 25.784V28H23.1964ZM28.1008 23.096V22.304H28.9648V23.096H28.1008ZM28.1808 28V24.048H28.8928V28H28.1808ZM30.5856 29.152L30.2256 28.872C30.3216 28.7813 30.3962 28.6773 30.4496 28.56C30.5082 28.448 30.5509 28.3307 30.5776 28.208C30.6042 28.0907 30.6202 27.9813 30.6256 27.88L30.7616 28H30.1776V27.12H31.0896V27.776C31.0896 27.9413 31.0736 28.1067 31.0416 28.272C31.0096 28.4373 30.9562 28.5947 30.8816 28.744C30.8069 28.8933 30.7082 29.0293 30.5856 29.152ZM34.7304 28V22.36H35.3624L38.8184 26.952H38.7864V22.36H39.4664V28H38.8184L35.3784 23.424H35.4104V28H34.7304ZM42.7289 28.072C42.3289 28.072 41.9822 27.9867 41.6889 27.816C41.3955 27.6453 41.1689 27.408 41.0089 27.104C40.8489 26.7947 40.7689 26.432 40.7689 26.016C40.7689 25.6053 40.8489 25.248 41.0089 24.944C41.1689 24.6347 41.3955 24.3973 41.6889 24.232C41.9822 24.0613 42.3289 23.976 42.7289 23.976C43.1289 23.976 43.4729 24.0613 43.7609 24.232C44.0542 24.3973 44.2809 24.6347 44.4409 24.944C44.6009 25.248 44.6809 25.6053 44.6809 26.016C44.6809 26.432 44.6009 26.7947 44.4409 27.104C44.2862 27.408 44.0622 27.6453 43.7689 27.816C43.4755 27.9867 43.1289 28.072 42.7289 28.072ZM42.7209 27.472C43.1102 27.472 43.4169 27.3413 43.6409 27.08C43.8649 26.8187 43.9769 26.464 43.9769 26.016C43.9769 25.568 43.8649 25.216 43.6409 24.96C43.4222 24.704 43.1182 24.576 42.7289 24.576C42.3395 24.576 42.0329 24.704 41.8089 24.96C41.5849 25.216 41.4729 25.568 41.4729 26.016C41.4729 26.464 41.5849 26.8187 41.8089 27.08C42.0382 27.3413 42.3422 27.472 42.7209 27.472ZM47.5961 28.072C47.1961 28.072 46.8494 27.9867 46.5561 27.816C46.2627 27.6453 46.0361 27.408 45.8761 27.104C45.7161 26.7947 45.6361 26.432 45.6361 26.016C45.6361 25.6053 45.7161 25.248 45.8761 24.944C46.0361 24.6347 46.2627 24.3973 46.5561 24.232C46.8494 24.0613 47.1961 23.976 47.5961 23.976C47.9961 23.976 48.3401 24.0613 48.6281 24.232C48.9214 24.3973 49.1481 24.6347 49.3081 24.944C49.4681 25.248 49.5481 25.6053 49.5481 26.016C49.5481 26.432 49.4681 26.7947 49.3081 27.104C49.1534 27.408 48.9294 27.6453 48.6361 27.816C48.3427 27.9867 47.9961 28.072 47.5961 28.072ZM47.5881 27.472C47.9774 27.472 48.2841 27.3413 48.5081 27.08C48.7321 26.8187 48.8441 26.464 48.8441 26.016C48.8441 25.568 48.7321 25.216 48.5081 24.96C48.2894 24.704 47.9854 24.576 47.5961 24.576C47.2067 24.576 46.9001 24.704 46.6761 24.96C46.4521 25.216 46.3401 25.568 46.3401 26.016C46.3401 26.464 46.4521 26.8187 46.6761 27.08C46.9054 27.3413 47.2094 27.472 47.5881 27.472ZM52.3193 28.072C51.9566 28.072 51.6393 27.9867 51.3673 27.816C51.0953 27.6453 50.8819 27.4053 50.7273 27.096C50.5779 26.7867 50.5033 26.4293 50.5033 26.024C50.5033 25.6133 50.5779 25.256 50.7273 24.952C50.8766 24.6427 51.0873 24.4027 51.3593 24.232C51.6313 24.0613 51.9486 23.976 52.3113 23.976C52.6526 23.976 52.9433 24.056 53.1833 24.216C53.4286 24.376 53.6046 24.5947 53.7113 24.872V22.36H54.4233V28H53.7673V27.128C53.6499 27.4267 53.4659 27.6587 53.2153 27.824C52.9646 27.9893 52.6659 28.072 52.3193 28.072ZM52.4713 27.488C52.8606 27.488 53.1646 27.3573 53.3833 27.096C53.6073 26.8347 53.7193 26.4773 53.7193 26.024C53.7193 25.5707 53.6073 25.2133 53.3833 24.952C53.1646 24.6907 52.8606 24.56 52.4713 24.56C52.0873 24.56 51.7806 24.6907 51.5513 24.952C51.3273 25.2133 51.2153 25.5707 51.2153 26.024C51.2153 26.4773 51.3273 26.8347 51.5513 27.096C51.7753 27.3573 52.0819 27.488 52.4713 27.488ZM57.0448 28.072C56.6608 28.072 56.3648 27.96 56.1568 27.736C55.9488 27.512 55.8448 27.1973 55.8448 26.792V22.36H56.5568V26.72C56.5568 26.88 56.5808 27.0187 56.6288 27.136C56.6768 27.248 56.7461 27.3333 56.8368 27.392C56.9275 27.4507 57.0368 27.48 57.1648 27.48C57.2448 27.48 57.3195 27.4773 57.3888 27.472C57.4635 27.4613 57.5381 27.4453 57.6128 27.424L57.6288 27.984C57.5381 28.016 57.4448 28.0373 57.3488 28.048C57.2581 28.064 57.1568 28.072 57.0448 28.072ZM60.2957 28.072C59.853 28.072 59.469 27.992 59.1437 27.832C58.8237 27.6667 58.5784 27.432 58.4077 27.128C58.237 26.8187 58.1517 26.4507 58.1517 26.024C58.1517 25.624 58.2317 25.272 58.3917 24.968C58.5517 24.6587 58.7784 24.416 59.0717 24.24C59.365 24.064 59.7144 23.976 60.1197 23.976C60.5037 23.976 60.829 24.0587 61.0957 24.224C61.3677 24.3893 61.573 24.6213 61.7117 24.92C61.8557 25.2187 61.9277 25.5733 61.9277 25.984V26.216H58.6877V25.72H61.4637L61.3117 25.88C61.3117 25.4427 61.2077 25.1067 60.9997 24.872C60.797 24.6373 60.5037 24.52 60.1197 24.52C59.869 24.52 59.645 24.5787 59.4477 24.696C59.2557 24.808 59.1064 24.968 58.9997 25.176C58.893 25.384 58.8397 25.6373 58.8397 25.936V26.016C58.8397 26.336 58.8984 26.6053 59.0157 26.824C59.133 27.0427 59.301 27.208 59.5197 27.32C59.7384 27.432 59.9997 27.488 60.3037 27.488C60.5224 27.488 60.7437 27.4587 60.9677 27.4C61.197 27.336 61.4104 27.224 61.6077 27.064L61.8477 27.576C61.645 27.7467 61.4024 27.872 61.1197 27.952C60.8424 28.032 60.5677 28.072 60.2957 28.072ZM64.5586 28.072C64.34 28.072 64.124 28.0507 63.9106 28.008C63.7026 27.9707 63.508 27.9173 63.3266 27.848C63.1506 27.7733 62.9986 27.6827 62.8706 27.576L63.1026 27.072C63.236 27.1733 63.3826 27.256 63.5426 27.32C63.708 27.384 63.876 27.432 64.0466 27.464C64.2226 27.4907 64.3906 27.504 64.5506 27.504C64.8813 27.504 65.1346 27.4533 65.3106 27.352C65.492 27.2507 65.5826 27.1093 65.5826 26.928C65.5826 26.7733 65.5293 26.656 65.4226 26.576C65.3213 26.4907 65.1506 26.4267 64.9106 26.384L64.0866 26.24C63.7186 26.1707 63.4413 26.0453 63.2546 25.864C63.0733 25.6827 62.9826 25.4453 62.9826 25.152C62.9826 24.9173 63.0466 24.712 63.1746 24.536C63.308 24.36 63.4973 24.224 63.7426 24.128C63.988 24.0267 64.2813 23.976 64.6226 23.976C64.8093 23.976 64.9986 23.9947 65.1906 24.032C65.388 24.0693 65.5693 24.1253 65.7346 24.2C65.9053 24.2693 66.044 24.3573 66.1506 24.464L65.9106 24.968C65.804 24.8667 65.676 24.7867 65.5266 24.728C65.3826 24.664 65.2306 24.6187 65.0706 24.592C64.916 24.56 64.764 24.544 64.6146 24.544C64.3053 24.544 64.0653 24.5973 63.8946 24.704C63.724 24.8053 63.6386 24.9493 63.6386 25.136C63.6386 25.2853 63.6866 25.4027 63.7826 25.488C63.884 25.5733 64.0466 25.6373 64.2706 25.68L65.0706 25.824C65.4653 25.8987 65.7586 26.024 65.9506 26.2C66.1426 26.3707 66.2386 26.608 66.2386 26.912C66.2386 27.1467 66.1693 27.352 66.0306 27.528C65.892 27.6987 65.6973 27.832 65.4466 27.928C65.196 28.024 64.9 28.072 64.5586 28.072ZM67.6481 29.152L67.2881 28.872C67.3841 28.7813 67.4587 28.6773 67.5121 28.56C67.5707 28.448 67.6134 28.3307 67.6401 28.208C67.6667 28.0907 67.6827 27.9813 67.6881 27.88L67.8241 28H67.2401V27.12H68.1521V27.776C68.1521 27.9413 68.1361 28.1067 68.1041 28.272C68.0721 28.4373 68.0187 28.5947 67.9441 28.744C67.8694 28.8933 67.7707 29.0293 67.6481 29.152ZM71.7929 28V22.36H74.1129C74.5183 22.36 74.8623 22.4267 75.1449 22.56C75.4276 22.6933 75.6436 22.888 75.7929 23.144C75.9476 23.3947 76.0249 23.6987 76.0249 24.056C76.0249 24.4133 75.9476 24.72 75.7929 24.976C75.6436 25.232 75.4249 25.4293 75.1369 25.568C74.8543 25.7067 74.5129 25.776 74.1129 25.776H72.5049V28H71.7929ZM72.5049 25.168H74.0089C74.4356 25.168 74.7583 25.0773 74.9769 24.896C75.1956 24.7093 75.3049 24.432 75.3049 24.064C75.3049 23.6907 75.1956 23.416 74.9769 23.24C74.7583 23.0587 74.4356 22.968 74.0089 22.968H72.5049V25.168ZM78.2898 28.072C78.0071 28.072 77.7538 28.0213 77.5298 27.92C77.3058 27.8133 77.1298 27.6693 77.0018 27.488C76.8738 27.3067 76.8098 27.104 76.8098 26.88C76.8098 26.576 76.8951 26.3387 77.0658 26.168C77.2365 25.992 77.4978 25.8667 77.8498 25.792C78.2071 25.7173 78.6631 25.68 79.2178 25.68H79.7858V26.168H79.2498C78.9405 26.168 78.6765 26.1787 78.4578 26.2C78.2391 26.216 78.0605 26.2507 77.9218 26.304C77.7831 26.352 77.6818 26.4187 77.6178 26.504C77.5538 26.5893 77.5218 26.7013 77.5218 26.84C77.5218 27.0533 77.6045 27.2187 77.7698 27.336C77.9405 27.4533 78.1565 27.512 78.4178 27.512C78.6471 27.512 78.8551 27.4613 79.0418 27.36C79.2338 27.2533 79.3858 27.112 79.4978 26.936C79.6151 26.76 79.6738 26.5653 79.6738 26.352V25.448C79.6738 25.1333 79.5858 24.9067 79.4098 24.768C79.2338 24.624 78.9725 24.552 78.6258 24.552C78.3911 24.552 78.1565 24.584 77.9218 24.648C77.6925 24.712 77.4551 24.8187 77.2098 24.968L76.9778 24.44C77.1431 24.3387 77.3191 24.256 77.5058 24.192C77.6925 24.1227 77.8871 24.0693 78.0898 24.032C78.2925 23.9947 78.4951 23.976 78.6978 23.976C79.0391 23.976 79.3325 24.0293 79.5778 24.136C79.8285 24.2427 80.0205 24.408 80.1538 24.632C80.2925 24.856 80.3618 25.1493 80.3618 25.512V28H79.7378V27.136C79.6631 27.3013 79.5591 27.456 79.4258 27.6C79.2925 27.744 79.1298 27.8587 78.9378 27.944C78.7511 28.0293 78.5351 28.072 78.2898 28.072ZM83.2305 28.072C83.0118 28.072 82.7958 28.0507 82.5825 28.008C82.3745 27.9707 82.1798 27.9173 81.9985 27.848C81.8225 27.7733 81.6705 27.6827 81.5425 27.576L81.7745 27.072C81.9078 27.1733 82.0545 27.256 82.2145 27.32C82.3798 27.384 82.5478 27.432 82.7185 27.464C82.8945 27.4907 83.0625 27.504 83.2225 27.504C83.5532 27.504 83.8065 27.4533 83.9825 27.352C84.1638 27.2507 84.2545 27.1093 84.2545 26.928C84.2545 26.7733 84.2012 26.656 84.0945 26.576C83.9932 26.4907 83.8225 26.4267 83.5825 26.384L82.7585 26.24C82.3905 26.1707 82.1132 26.0453 81.9265 25.864C81.7452 25.6827 81.6545 25.4453 81.6545 25.152C81.6545 24.9173 81.7185 24.712 81.8465 24.536C81.9798 24.36 82.1692 24.224 82.4145 24.128C82.6598 24.0267 82.9532 23.976 83.2945 23.976C83.4812 23.976 83.6705 23.9947 83.8625 24.032C84.0598 24.0693 84.2412 24.1253 84.4065 24.2C84.5772 24.2693 84.7158 24.3573 84.8225 24.464L84.5825 24.968C84.4758 24.8667 84.3478 24.7867 84.1985 24.728C84.0545 24.664 83.9025 24.6187 83.7425 24.592C83.5878 24.56 83.4358 24.544 83.2865 24.544C82.9772 24.544 82.7372 24.5973 82.5665 24.704C82.3958 24.8053 82.3105 24.9493 82.3105 25.136C82.3105 25.2853 82.3585 25.4027 82.4545 25.488C82.5558 25.5733 82.7185 25.6373 82.9425 25.68L83.7425 25.824C84.1372 25.8987 84.4305 26.024 84.6225 26.2C84.8145 26.3707 84.9105 26.608 84.9105 26.912C84.9105 27.1467 84.8412 27.352 84.7025 27.528C84.5638 27.6987 84.3692 27.832 84.1185 27.928C83.8678 28.024 83.5718 28.072 83.2305 28.072ZM87.7119 28.072C87.2373 28.072 86.8773 27.9467 86.6319 27.696C86.3919 27.4453 86.2719 27.088 86.2719 26.624V24.632H85.4719V24.048H86.2959V22.872H86.9839V24.048H88.3999V24.632H86.9839V26.56C86.9839 26.864 87.0506 27.0907 87.1839 27.24C87.3226 27.384 87.5333 27.456 87.8159 27.456C87.9279 27.456 88.0346 27.4453 88.1359 27.424C88.2426 27.4027 88.3439 27.3707 88.4399 27.328L88.5519 27.888C88.4453 27.9467 88.3146 27.992 88.1599 28.024C88.0106 28.056 87.8613 28.072 87.7119 28.072ZM90.7039 28.072C90.4212 28.072 90.1679 28.0213 89.9439 27.92C89.7199 27.8133 89.5439 27.6693 89.4159 27.488C89.2879 27.3067 89.2239 27.104 89.2239 26.88C89.2239 26.576 89.3092 26.3387 89.4799 26.168C89.6505 25.992 89.9119 25.8667 90.2639 25.792C90.6212 25.7173 91.0772 25.68 91.6319 25.68H92.1999V26.168H91.6639C91.3545 26.168 91.0905 26.1787 90.8719 26.2C90.6532 26.216 90.4745 26.2507 90.3359 26.304C90.1972 26.352 90.0959 26.4187 90.0319 26.504C89.9679 26.5893 89.9359 26.7013 89.9359 26.84C89.9359 27.0533 90.0185 27.2187 90.1839 27.336C90.3545 27.4533 90.5705 27.512 90.8319 27.512C91.0612 27.512 91.2692 27.4613 91.4559 27.36C91.6479 27.2533 91.7999 27.112 91.9119 26.936C92.0292 26.76 92.0879 26.5653 92.0879 26.352V25.448C92.0879 25.1333 91.9999 24.9067 91.8239 24.768C91.6479 24.624 91.3865 24.552 91.0399 24.552C90.8052 24.552 90.5705 24.584 90.3359 24.648C90.1065 24.712 89.8692 24.8187 89.6239 24.968L89.3919 24.44C89.5572 24.3387 89.7332 24.256 89.9199 24.192C90.1065 24.1227 90.3012 24.0693 90.5039 24.032C90.7065 23.9947 90.9092 23.976 91.1119 23.976C91.4532 23.976 91.7465 24.0293 91.9919 24.136C92.2425 24.2427 92.4345 24.408 92.5679 24.632C92.7065 24.856 92.7759 25.1493 92.7759 25.512V28H92.1519V27.136C92.0772 27.3013 91.9732 27.456 91.8399 27.6C91.7065 27.744 91.5439 27.8587 91.3519 27.944C91.1652 28.0293 90.9492 28.072 90.7039 28.072ZM94.4606 29.152L94.1006 28.872C94.1966 28.7813 94.2712 28.6773 94.3246 28.56C94.3832 28.448 94.4259 28.3307 94.4526 28.208C94.4792 28.0907 94.4952 27.9813 94.5006 27.88L94.6366 28H94.0526V27.12H94.9646V27.776C94.9646 27.9413 94.9486 28.1067 94.9166 28.272C94.8846 28.4373 94.8312 28.5947 94.7566 28.744C94.6819 28.8933 94.5832 29.0293 94.4606 29.152ZM98.6214 28V22.36H99.4134L101.445 26.384H101.397L103.413 22.36H104.205V28H103.525V23.368H103.557L101.677 27.104H101.157L99.2614 23.368H99.3014V28H98.6214ZM107.087 28.072C106.804 28.072 106.551 28.0213 106.327 27.92C106.103 27.8133 105.927 27.6693 105.799 27.488C105.671 27.3067 105.607 27.104 105.607 26.88C105.607 26.576 105.692 26.3387 105.863 26.168C106.033 25.992 106.295 25.8667 106.647 25.792C107.004 25.7173 107.46 25.68 108.015 25.68H108.583V26.168H108.047C107.737 26.168 107.473 26.1787 107.255 26.2C107.036 26.216 106.857 26.2507 106.719 26.304C106.58 26.352 106.479 26.4187 106.415 26.504C106.351 26.5893 106.319 26.7013 106.319 26.84C106.319 27.0533 106.401 27.2187 106.567 27.336C106.737 27.4533 106.953 27.512 107.215 27.512C107.444 27.512 107.652 27.4613 107.839 27.36C108.031 27.2533 108.183 27.112 108.295 26.936C108.412 26.76 108.471 26.5653 108.471 26.352V25.448C108.471 25.1333 108.383 24.9067 108.207 24.768C108.031 24.624 107.769 24.552 107.423 24.552C107.188 24.552 106.953 24.584 106.719 24.648C106.489 24.712 106.252 24.8187 106.007 24.968L105.775 24.44C105.94 24.3387 106.116 24.256 106.303 24.192C106.489 24.1227 106.684 24.0693 106.887 24.032C107.089 23.9947 107.292 23.976 107.495 23.976C107.836 23.976 108.129 24.0293 108.375 24.136C108.625 24.2427 108.817 24.408 108.951 24.632C109.089 24.856 109.159 25.1493 109.159 25.512V28H108.535V27.136C108.46 27.3013 108.356 27.456 108.223 27.6C108.089 27.744 107.927 27.8587 107.735 27.944C107.548 28.0293 107.332 28.072 107.087 28.072ZM110.491 23.096V22.304H111.355V23.096H110.491ZM110.571 28V24.048H111.283V28H110.571ZM112.704 28V24.048H113.368V24.904C113.496 24.6107 113.688 24.384 113.944 24.224C114.2 24.0587 114.488 23.976 114.808 23.976C115.134 23.976 115.406 24.0347 115.624 24.152C115.843 24.264 116.006 24.44 116.112 24.68C116.224 24.9147 116.28 25.208 116.28 25.56V28H115.568V25.6C115.568 25.3867 115.539 25.2053 115.48 25.056C115.422 24.9067 115.323 24.792 115.184 24.712C115.051 24.6267 114.872 24.584 114.648 24.584C114.414 24.584 114.2 24.6373 114.008 24.744C113.822 24.8507 113.675 24.9947 113.568 25.176C113.467 25.3573 113.416 25.56 113.416 25.784V28H112.704ZM3.24 39.072C2.70133 39.072 2.232 38.9573 1.832 38.728C1.43733 38.4933 1.13333 38.16 0.92 37.728C0.706667 37.2907 0.6 36.7733 0.6 36.176C0.6 35.5787 0.706667 35.064 0.92 34.632C1.13333 34.2 1.43733 33.8693 1.832 33.64C2.22667 33.4053 2.696 33.288 3.24 33.288C3.63467 33.288 3.99467 33.3493 4.32 33.472C4.64533 33.5893 4.92533 33.7627 5.16 33.992L4.88 34.552C4.63467 34.3333 4.38133 34.176 4.12 34.08C3.864 33.984 3.576 33.936 3.256 33.936C2.65867 33.936 2.18933 34.128 1.848 34.512C1.512 34.8907 1.344 35.4453 1.344 36.176C1.344 36.9013 1.512 37.4587 1.848 37.848C2.184 38.232 2.65333 38.424 3.256 38.424C3.576 38.424 3.864 38.376 4.12 38.28C4.38133 38.184 4.63467 38.0267 4.88 37.808L5.16 38.368C4.92533 38.5973 4.64533 38.7733 4.32 38.896C3.99467 39.0133 3.63467 39.072 3.24 39.072ZM7.79138 39.072C7.39138 39.072 7.04471 38.9867 6.75138 38.816C6.45804 38.6453 6.23138 38.408 6.07138 38.104C5.91138 37.7947 5.83138 37.432 5.83138 37.016C5.83138 36.6053 5.91138 36.248 6.07138 35.944C6.23138 35.6347 6.45804 35.3973 6.75138 35.232C7.04471 35.0613 7.39138 34.976 7.79138 34.976C8.19138 34.976 8.53538 35.0613 8.82338 35.232C9.11671 35.3973 9.34338 35.6347 9.50338 35.944C9.66338 36.248 9.74338 36.6053 9.74338 37.016C9.74338 37.432 9.66338 37.7947 9.50338 38.104C9.34871 38.408 9.12471 38.6453 8.83138 38.816C8.53804 38.9867 8.19138 39.072 7.79138 39.072ZM7.78338 38.472C8.17271 38.472 8.47938 38.3413 8.70338 38.08C8.92738 37.8187 9.03938 37.464 9.03938 37.016C9.03938 36.568 8.92738 36.216 8.70338 35.96C8.48471 35.704 8.18071 35.576 7.79138 35.576C7.40204 35.576 7.09538 35.704 6.87138 35.96C6.64738 36.216 6.53537 36.568 6.53537 37.016C6.53537 37.464 6.64738 37.8187 6.87138 38.08C7.10071 38.3413 7.40471 38.472 7.78338 38.472ZM12.4186 39.072C12.0932 39.072 11.8186 39.0133 11.5946 38.896C11.3706 38.7787 11.2026 38.6027 11.0906 38.368C10.9786 38.1333 10.9226 37.84 10.9226 37.488V35.048H11.6346V37.456C11.6346 37.6587 11.6639 37.8373 11.7226 37.992C11.7866 38.1413 11.8852 38.2587 12.0186 38.344C12.1572 38.424 12.3386 38.464 12.5626 38.464C12.7866 38.464 12.9892 38.4107 13.1706 38.304C13.3519 38.192 13.4932 38.048 13.5946 37.872C13.6959 37.6907 13.7466 37.4907 13.7466 37.272V35.048H14.4586V39H13.8026V38.128C13.6692 38.4213 13.4879 38.6533 13.2586 38.824C13.0292 38.9893 12.7492 39.072 12.4186 39.072ZM15.8839 39V35.048H16.5319V35.96H16.5399C16.6359 35.6667 16.8039 35.4373 17.0439 35.272C17.2839 35.1013 17.5772 35.0053 17.9239 34.984L18.2839 34.968L18.3479 35.616L17.7719 35.664C17.4039 35.696 17.1159 35.8187 16.9079 36.032C16.6999 36.24 16.5959 36.5013 16.5959 36.816V39H15.8839ZM20.6446 39.072C20.4259 39.072 20.2099 39.0507 19.9966 39.008C19.7886 38.9707 19.5939 38.9173 19.4126 38.848C19.2366 38.7733 19.0846 38.6827 18.9566 38.576L19.1886 38.072C19.3219 38.1733 19.4686 38.256 19.6286 38.32C19.7939 38.384 19.9619 38.432 20.1326 38.464C20.3086 38.4907 20.4766 38.504 20.6366 38.504C20.9672 38.504 21.2206 38.4533 21.3966 38.352C21.5779 38.2507 21.6686 38.1093 21.6686 37.928C21.6686 37.7733 21.6152 37.656 21.5086 37.576C21.4072 37.4907 21.2366 37.4267 20.9966 37.384L20.1726 37.24C19.8046 37.1707 19.5272 37.0453 19.3406 36.864C19.1592 36.6827 19.0686 36.4453 19.0686 36.152C19.0686 35.9173 19.1326 35.712 19.2606 35.536C19.3939 35.36 19.5832 35.224 19.8286 35.128C20.0739 35.0267 20.3672 34.976 20.7086 34.976C20.8952 34.976 21.0846 34.9947 21.2766 35.032C21.4739 35.0693 21.6552 35.1253 21.8206 35.2C21.9912 35.2693 22.1299 35.3573 22.2366 35.464L21.9966 35.968C21.8899 35.8667 21.7619 35.7867 21.6126 35.728C21.4686 35.664 21.3166 35.6187 21.1566 35.592C21.0019 35.56 20.8499 35.544 20.7006 35.544C20.3912 35.544 20.1512 35.5973 19.9806 35.704C19.8099 35.8053 19.7246 35.9493 19.7246 36.136C19.7246 36.2853 19.7726 36.4027 19.8686 36.488C19.9699 36.5733 20.1326 36.6373 20.3566 36.68L21.1566 36.824C21.5512 36.8987 21.8446 37.024 22.0366 37.2C22.2286 37.3707 22.3246 37.608 22.3246 37.912C22.3246 38.1467 22.2552 38.352 22.1166 38.528C21.9779 38.6987 21.7832 38.832 21.5326 38.928C21.2819 39.024 20.9859 39.072 20.6446 39.072ZM25.4051 39.072C24.9624 39.072 24.5784 38.992 24.2531 38.832C23.9331 38.6667 23.6877 38.432 23.5171 38.128C23.3464 37.8187 23.2611 37.4507 23.2611 37.024C23.2611 36.624 23.3411 36.272 23.5011 35.968C23.6611 35.6587 23.8877 35.416 24.1811 35.24C24.4744 35.064 24.8237 34.976 25.2291 34.976C25.6131 34.976 25.9384 35.0587 26.2051 35.224C26.4771 35.3893 26.6824 35.6213 26.8211 35.92C26.9651 36.2187 27.0371 36.5733 27.0371 36.984V37.216H23.7971V36.72H26.5731L26.4211 36.88C26.4211 36.4427 26.3171 36.1067 26.1091 35.872C25.9064 35.6373 25.6131 35.52 25.2291 35.52C24.9784 35.52 24.7544 35.5787 24.5571 35.696C24.3651 35.808 24.2157 35.968 24.1091 36.176C24.0024 36.384 23.9491 36.6373 23.9491 36.936V37.016C23.9491 37.336 24.0077 37.6053 24.1251 37.824C24.2424 38.0427 24.4104 38.208 24.6291 38.32C24.8477 38.432 25.1091 38.488 25.4131 38.488C25.6317 38.488 25.8531 38.4587 26.0771 38.4C26.3064 38.336 26.5197 38.224 26.7171 38.064L26.9571 38.576C26.7544 38.7467 26.5117 38.872 26.2291 38.952C25.9517 39.032 25.6771 39.072 25.4051 39.072ZM29.668 39.072C29.4493 39.072 29.2333 39.0507 29.02 39.008C28.812 38.9707 28.6173 38.9173 28.436 38.848C28.26 38.7733 28.108 38.6827 27.98 38.576L28.212 38.072C28.3453 38.1733 28.492 38.256 28.652 38.32C28.8173 38.384 28.9853 38.432 29.156 38.464C29.332 38.4907 29.5 38.504 29.66 38.504C29.9907 38.504 30.244 38.4533 30.42 38.352C30.6013 38.2507 30.692 38.1093 30.692 37.928C30.692 37.7733 30.6387 37.656 30.532 37.576C30.4307 37.4907 30.26 37.4267 30.02 37.384L29.196 37.24C28.828 37.1707 28.5507 37.0453 28.364 36.864C28.1827 36.6827 28.092 36.4453 28.092 36.152C28.092 35.9173 28.156 35.712 28.284 35.536C28.4173 35.36 28.6067 35.224 28.852 35.128C29.0973 35.0267 29.3907 34.976 29.732 34.976C29.9187 34.976 30.108 34.9947 30.3 35.032C30.4973 35.0693 30.6787 35.1253 30.844 35.2C31.0147 35.2693 31.1533 35.3573 31.26 35.464L31.02 35.968C30.9133 35.8667 30.7853 35.7867 30.636 35.728C30.492 35.664 30.34 35.6187 30.18 35.592C30.0253 35.56 29.8733 35.544 29.724 35.544C29.4147 35.544 29.1747 35.5973 29.004 35.704C28.8333 35.8053 28.748 35.9493 28.748 36.136C28.748 36.2853 28.796 36.4027 28.892 36.488C28.9933 36.5733 29.156 36.6373 29.38 36.68L30.18 36.824C30.5747 36.8987 30.868 37.024 31.06 37.2C31.252 37.3707 31.348 37.608 31.348 37.912C31.348 38.1467 31.2787 38.352 31.14 38.528C31.0013 38.6987 30.8067 38.832 30.556 38.928C30.3053 39.024 30.0093 39.072 29.668 39.072ZM34.8789 39V33.36H35.5909V35.904H35.6229L38.3029 33.36H39.2069L36.0949 36.312L36.1429 35.92L39.3989 39H38.4469L35.6229 36.352H35.5909V39H34.8789ZM41.9207 39.072C41.478 39.072 41.094 38.992 40.7687 38.832C40.4487 38.6667 40.2034 38.432 40.0327 38.128C39.862 37.8187 39.7767 37.4507 39.7767 37.024C39.7767 36.624 39.8567 36.272 40.0167 35.968C40.1767 35.6587 40.4034 35.416 40.6967 35.24C40.99 35.064 41.3394 34.976 41.7447 34.976C42.1287 34.976 42.454 35.0587 42.7207 35.224C42.9927 35.3893 43.198 35.6213 43.3367 35.92C43.4807 36.2187 43.5527 36.5733 43.5527 36.984V37.216H40.3127V36.72H43.0887L42.9367 36.88C42.9367 36.4427 42.8327 36.1067 42.6247 35.872C42.422 35.6373 42.1287 35.52 41.7447 35.52C41.494 35.52 41.27 35.5787 41.0727 35.696C40.8807 35.808 40.7314 35.968 40.6247 36.176C40.518 36.384 40.4647 36.6373 40.4647 36.936V37.016C40.4647 37.336 40.5234 37.6053 40.6407 37.824C40.758 38.0427 40.926 38.208 41.1447 38.32C41.3634 38.432 41.6247 38.488 41.9287 38.488C42.1474 38.488 42.3687 38.4587 42.5927 38.4C42.822 38.336 43.0354 38.224 43.2327 38.064L43.4727 38.576C43.27 38.7467 43.0274 38.872 42.7447 38.952C42.4674 39.032 42.1927 39.072 41.9207 39.072ZM46.6316 39.072C46.189 39.072 45.805 38.992 45.4796 38.832C45.1596 38.6667 44.9143 38.432 44.7436 38.128C44.573 37.8187 44.4876 37.4507 44.4876 37.024C44.4876 36.624 44.5676 36.272 44.7276 35.968C44.8876 35.6587 45.1143 35.416 45.4076 35.24C45.701 35.064 46.0503 34.976 46.4556 34.976C46.8396 34.976 47.165 35.0587 47.4316 35.224C47.7036 35.3893 47.909 35.6213 48.0476 35.92C48.1916 36.2187 48.2636 36.5733 48.2636 36.984V37.216H45.0236V36.72H47.7996L47.6476 36.88C47.6476 36.4427 47.5436 36.1067 47.3356 35.872C47.133 35.6373 46.8396 35.52 46.4556 35.52C46.205 35.52 45.981 35.5787 45.7836 35.696C45.5916 35.808 45.4423 35.968 45.3356 36.176C45.229 36.384 45.1756 36.6373 45.1756 36.936V37.016C45.1756 37.336 45.2343 37.6053 45.3516 37.824C45.469 38.0427 45.637 38.208 45.8556 38.32C46.0743 38.432 46.3356 38.488 46.6396 38.488C46.8583 38.488 47.0796 38.4587 47.3036 38.4C47.533 38.336 47.7463 38.224 47.9436 38.064L48.1836 38.576C47.981 38.7467 47.7383 38.872 47.4556 38.952C47.1783 39.032 46.9036 39.072 46.6316 39.072ZM49.4386 40.44V35.04H50.0946V35.912C50.2119 35.6133 50.3959 35.384 50.6466 35.224C50.9026 35.0587 51.2012 34.976 51.5426 34.976C51.9106 34.976 52.2306 35.0613 52.5026 35.232C52.7746 35.4027 52.9852 35.64 53.1346 35.944C53.2839 36.248 53.3586 36.608 53.3586 37.024C53.3586 37.424 53.2839 37.7787 53.1346 38.088C52.9906 38.3973 52.7826 38.64 52.5106 38.816C52.2386 38.9867 51.9186 39.072 51.5506 39.072C51.2146 39.072 50.9239 38.992 50.6786 38.832C50.4386 38.6667 50.2626 38.448 50.1506 38.176V40.44H49.4386ZM51.3906 38.488C51.7799 38.488 52.0866 38.3573 52.3106 38.096C52.5346 37.8293 52.6466 37.4693 52.6466 37.016C52.6466 36.5627 52.5346 36.208 52.3106 35.952C52.0866 35.6907 51.7799 35.56 51.3906 35.56C51.0066 35.56 50.7026 35.6907 50.4786 35.952C50.2546 36.208 50.1426 36.5627 50.1426 37.016C50.1426 37.4693 50.2546 37.8293 50.4786 38.096C50.7026 38.3573 51.0066 38.488 51.3906 38.488ZM54.4601 34.096V33.304H55.3241V34.096H54.4601ZM54.5401 39V35.048H55.2521V39H54.5401ZM56.6729 39V35.048H57.3369V35.904C57.4649 35.6107 57.6569 35.384 57.9129 35.224C58.1689 35.0587 58.4569 34.976 58.7769 34.976C59.1023 34.976 59.3743 35.0347 59.5929 35.152C59.8116 35.264 59.9743 35.44 60.0809 35.68C60.1929 35.9147 60.2489 36.208 60.2489 36.56V39H59.5369V36.6C59.5369 36.3867 59.5076 36.2053 59.4489 36.056C59.3903 35.9067 59.2916 35.792 59.1529 35.712C59.0196 35.6267 58.8409 35.584 58.6169 35.584C58.3823 35.584 58.1689 35.6373 57.9769 35.744C57.7903 35.8507 57.6436 35.9947 57.5369 36.176C57.4356 36.3573 57.3849 36.56 57.3849 36.784V39H56.6729ZM63.3693 40.512C63.0546 40.512 62.7426 40.464 62.4333 40.368C62.124 40.2773 61.86 40.152 61.6413 39.992L61.8653 39.44C62.0146 39.536 62.172 39.6187 62.3373 39.688C62.5026 39.7627 62.6706 39.816 62.8413 39.848C63.0173 39.8853 63.1906 39.904 63.3613 39.904C63.772 39.904 64.092 39.8 64.3213 39.592C64.556 39.384 64.6733 39.088 64.6733 38.704V37.976H64.6573C64.5613 38.248 64.388 38.4693 64.1373 38.64C63.8866 38.8053 63.596 38.888 63.2653 38.888C62.892 38.888 62.5666 38.808 62.2893 38.648C62.012 38.4827 61.796 38.2533 61.6413 37.96C61.492 37.6667 61.4173 37.3227 61.4173 36.928C61.4173 36.5387 61.492 36.1973 61.6413 35.904C61.796 35.6107 62.012 35.384 62.2893 35.224C62.5666 35.0587 62.892 34.976 63.2653 34.976C63.596 34.976 63.8866 35.0613 64.1373 35.232C64.3933 35.4027 64.5693 35.6293 64.6653 35.912H64.6733V35.048H65.3373V38.64C65.3373 39.024 65.2573 39.3547 65.0973 39.632C64.9426 39.9147 64.7186 40.1307 64.4253 40.28C64.132 40.4347 63.78 40.512 63.3693 40.512ZM63.3853 38.304C63.7746 38.304 64.0813 38.1787 64.3053 37.928C64.5346 37.6773 64.6493 37.344 64.6493 36.928C64.6493 36.512 64.5346 36.1813 64.3053 35.936C64.0813 35.6853 63.7746 35.56 63.3853 35.56C63.0013 35.56 62.6946 35.6853 62.4653 35.936C62.2413 36.1813 62.1293 36.512 62.1293 36.928C62.1293 37.344 62.2413 37.6773 62.4653 37.928C62.6946 38.1787 63.0013 38.304 63.3853 38.304ZM71.3476 39V33.36H74.9956V33.984H72.0596V35.864H74.8356V36.48H72.0596V39H71.3476ZM75.9776 39V35.048H76.6256V35.96H76.6336C76.7296 35.6667 76.8976 35.4373 77.1376 35.272C77.3776 35.1013 77.671 35.0053 78.0176 34.984L78.3776 34.968L78.4416 35.616L77.8656 35.664C77.4976 35.696 77.2096 35.8187 77.0016 36.032C76.7936 36.24 76.6896 36.5013 76.6896 36.816V39H75.9776ZM81.1785 39.072C80.7358 39.072 80.3518 38.992 80.0265 38.832C79.7065 38.6667 79.4612 38.432 79.2905 38.128C79.1198 37.8187 79.0345 37.4507 79.0345 37.024C79.0345 36.624 79.1145 36.272 79.2745 35.968C79.4345 35.6587 79.6612 35.416 79.9545 35.24C80.2478 35.064 80.5972 34.976 81.0025 34.976C81.3865 34.976 81.7118 35.0587 81.9785 35.224C82.2505 35.3893 82.4558 35.6213 82.5945 35.92C82.7385 36.2187 82.8105 36.5733 82.8105 36.984V37.216H79.5705V36.72H82.3465L82.1945 36.88C82.1945 36.4427 82.0905 36.1067 81.8825 35.872C81.6798 35.6373 81.3865 35.52 81.0025 35.52C80.7518 35.52 80.5278 35.5787 80.3305 35.696C80.1385 35.808 79.9892 35.968 79.8825 36.176C79.7758 36.384 79.7225 36.6373 79.7225 36.936V37.016C79.7225 37.336 79.7812 37.6053 79.8985 37.824C80.0158 38.0427 80.1838 38.208 80.4025 38.32C80.6212 38.432 80.8825 38.488 81.1865 38.488C81.4052 38.488 81.6265 38.4587 81.8505 38.4C82.0798 38.336 82.2932 38.224 82.4905 38.064L82.7305 38.576C82.5278 38.7467 82.2852 38.872 82.0025 38.952C81.7252 39.032 81.4505 39.072 81.1785 39.072ZM85.4414 39.072C85.2228 39.072 85.0068 39.0507 84.7934 39.008C84.5854 38.9707 84.3908 38.9173 84.2094 38.848C84.0334 38.7733 83.8814 38.6827 83.7534 38.576L83.9854 38.072C84.1188 38.1733 84.2654 38.256 84.4254 38.32C84.5908 38.384 84.7588 38.432 84.9294 38.464C85.1054 38.4907 85.2734 38.504 85.4334 38.504C85.7641 38.504 86.0174 38.4533 86.1934 38.352C86.3748 38.2507 86.4654 38.1093 86.4654 37.928C86.4654 37.7733 86.4121 37.656 86.3054 37.576C86.2041 37.4907 86.0334 37.4267 85.7934 37.384L84.9694 37.24C84.6014 37.1707 84.3241 37.0453 84.1374 36.864C83.9561 36.6827 83.8654 36.4453 83.8654 36.152C83.8654 35.9173 83.9294 35.712 84.0574 35.536C84.1908 35.36 84.3801 35.224 84.6254 35.128C84.8708 35.0267 85.1641 34.976 85.5054 34.976C85.6921 34.976 85.8814 34.9947 86.0734 35.032C86.2708 35.0693 86.4521 35.1253 86.6174 35.2C86.7881 35.2693 86.9268 35.3573 87.0334 35.464L86.7934 35.968C86.6868 35.8667 86.5588 35.7867 86.4094 35.728C86.2654 35.664 86.1134 35.6187 85.9534 35.592C85.7988 35.56 85.6468 35.544 85.4974 35.544C85.1881 35.544 84.9481 35.5973 84.7774 35.704C84.6068 35.8053 84.5214 35.9493 84.5214 36.136C84.5214 36.2853 84.5694 36.4027 84.6654 36.488C84.7668 36.5733 84.9294 36.6373 85.1534 36.68L85.9534 36.824C86.3481 36.8987 86.6414 37.024 86.8334 37.2C87.0254 37.3707 87.1214 37.608 87.1214 37.912C87.1214 38.1467 87.0521 38.352 86.9134 38.528C86.7748 38.6987 86.5801 38.832 86.3294 38.928C86.0788 39.024 85.7828 39.072 85.4414 39.072ZM88.2979 39V33.36H88.9859V35.888C89.1033 35.6053 89.2873 35.384 89.5379 35.224C89.7939 35.0587 90.0819 34.976 90.4019 34.976C90.7273 34.976 90.9993 35.0347 91.2179 35.152C91.4366 35.264 91.5993 35.44 91.7059 35.68C91.8179 35.9147 91.8739 36.208 91.8739 36.56V39H91.1619V36.6C91.1619 36.3867 91.1299 36.2053 91.0659 36.056C91.0073 35.9067 90.9113 35.792 90.7779 35.712C90.6446 35.6267 90.4659 35.584 90.2419 35.584C90.0073 35.584 89.7966 35.6373 89.6099 35.744C89.4233 35.8507 89.2766 35.9947 89.1699 36.176C89.0633 36.3573 89.0099 36.56 89.0099 36.784V39H88.2979ZM95.0607 39L97.5407 33.36H98.1807L100.661 39H99.9167L99.2287 37.392L99.5807 37.616H96.1407L96.4847 37.392L95.8047 39H95.0607ZM97.8447 34.176L96.5807 37.16L96.3807 37.008H99.3407L99.1407 37.16L97.8767 34.176H97.8447ZM101.626 39V35.048H102.29V35.904C102.418 35.6107 102.61 35.384 102.866 35.224C103.122 35.0587 103.41 34.976 103.73 34.976C104.055 34.976 104.327 35.0347 104.546 35.152C104.765 35.264 104.927 35.44 105.034 35.68C105.146 35.9147 105.202 36.208 105.202 36.56V39H104.49V36.6C104.49 36.3867 104.461 36.2053 104.402 36.056C104.343 35.9067 104.245 35.792 104.106 35.712C103.973 35.6267 103.794 35.584 103.57 35.584C103.335 35.584 103.122 35.6373 102.93 35.744C102.743 35.8507 102.597 35.9947 102.49 36.176C102.389 36.3573 102.338 36.56 102.338 36.784V39H101.626ZM108.186 39.072C107.824 39.072 107.506 38.9867 107.234 38.816C106.962 38.6453 106.749 38.4053 106.594 38.096C106.445 37.7867 106.37 37.4293 106.37 37.024C106.37 36.6133 106.445 36.256 106.594 35.952C106.744 35.6427 106.954 35.4027 107.226 35.232C107.498 35.0613 107.816 34.976 108.178 34.976C108.52 34.976 108.81 35.056 109.05 35.216C109.296 35.376 109.472 35.5947 109.578 35.872V33.36H110.29V39H109.634V38.128C109.517 38.4267 109.333 38.6587 109.082 38.824C108.832 38.9893 108.533 39.072 108.186 39.072ZM108.338 38.488C108.728 38.488 109.032 38.3573 109.25 38.096C109.474 37.8347 109.586 37.4773 109.586 37.024C109.586 36.5707 109.474 36.2133 109.25 35.952C109.032 35.6907 108.728 35.56 108.338 35.56C107.954 35.56 107.648 35.6907 107.418 35.952C107.194 36.2133 107.082 36.5707 107.082 37.024C107.082 37.4773 107.194 37.8347 107.418 38.096C107.642 38.3573 107.949 38.488 108.338 38.488ZM115.954 39.072C115.645 39.072 115.352 39.048 115.074 39C114.797 38.952 114.544 38.88 114.314 38.784C114.085 38.688 113.885 38.5707 113.714 38.432L113.978 37.84C114.16 37.984 114.352 38.1013 114.554 38.192C114.762 38.2773 114.981 38.3387 115.21 38.376C115.445 38.4133 115.693 38.432 115.954 38.432C116.397 38.432 116.736 38.344 116.97 38.168C117.21 37.992 117.33 37.752 117.33 37.448C117.33 37.288 117.29 37.1547 117.21 37.048C117.136 36.9413 117.016 36.8533 116.85 36.784C116.69 36.7147 116.482 36.6533 116.226 36.6L115.306 36.424C114.789 36.3227 114.416 36.144 114.186 35.888C113.957 35.632 113.842 35.3093 113.842 34.92C113.842 34.5893 113.933 34.304 114.114 34.064C114.301 33.8187 114.557 33.6293 114.882 33.496C115.213 33.3573 115.589 33.288 116.01 33.288C116.277 33.288 116.525 33.3147 116.754 33.368C116.989 33.416 117.202 33.4907 117.394 33.592C117.592 33.6933 117.768 33.816 117.922 33.96L117.658 34.544C117.429 34.32 117.178 34.1627 116.906 34.072C116.634 33.976 116.333 33.928 116.002 33.928C115.725 33.928 115.477 33.968 115.258 34.048C115.04 34.1227 114.866 34.2347 114.738 34.384C114.616 34.528 114.554 34.7067 114.554 34.92C114.554 35.1547 114.629 35.3413 114.778 35.48C114.928 35.6133 115.181 35.7173 115.538 35.792L116.45 35.968C116.994 36.0693 117.397 36.24 117.658 36.48C117.92 36.72 118.05 37.032 118.05 37.416C118.05 37.736 117.962 38.0213 117.786 38.272C117.616 38.5227 117.373 38.72 117.058 38.864C116.749 39.0027 116.381 39.072 115.954 39.072ZM121.1 39.072C120.658 39.072 120.274 38.992 119.948 38.832C119.628 38.6667 119.383 38.432 119.212 38.128C119.042 37.8187 118.956 37.4507 118.956 37.024C118.956 36.624 119.036 36.272 119.196 35.968C119.356 35.6587 119.583 35.416 119.876 35.24C120.17 35.064 120.519 34.976 120.924 34.976C121.308 34.976 121.634 35.0587 121.9 35.224C122.172 35.3893 122.378 35.6213 122.516 35.92C122.66 36.2187 122.732 36.5733 122.732 36.984V37.216H119.492V36.72H122.268L122.116 36.88C122.116 36.4427 122.012 36.1067 121.804 35.872C121.602 35.6373 121.308 35.52 120.924 35.52C120.674 35.52 120.45 35.5787 120.252 35.696C120.06 35.808 119.911 35.968 119.804 36.176C119.698 36.384 119.644 36.6373 119.644 36.936V37.016C119.644 37.336 119.703 37.6053 119.82 37.824C119.938 38.0427 120.106 38.208 120.324 38.32C120.543 38.432 120.804 38.488 121.108 38.488C121.327 38.488 121.548 38.4587 121.772 38.4C122.002 38.336 122.215 38.224 122.412 38.064L122.652 38.576C122.45 38.7467 122.207 38.872 121.924 38.952C121.647 39.032 121.372 39.072 121.1 39.072ZM125.667 39.072C125.262 39.072 124.91 38.9867 124.611 38.816C124.313 38.6453 124.081 38.408 123.915 38.104C123.75 37.7947 123.667 37.432 123.667 37.016C123.667 36.6 123.75 36.24 123.915 35.936C124.081 35.6267 124.313 35.3893 124.611 35.224C124.915 35.0587 125.27 34.976 125.675 34.976C125.947 34.976 126.206 35.0213 126.451 35.112C126.697 35.2027 126.899 35.3253 127.059 35.48L126.811 36.008C126.657 35.8693 126.483 35.7653 126.291 35.696C126.099 35.6213 125.913 35.584 125.731 35.584C125.315 35.584 124.987 35.7093 124.747 35.96C124.507 36.2107 124.387 36.5653 124.387 37.024C124.387 37.4773 124.507 37.832 124.747 38.088C124.987 38.3387 125.313 38.464 125.723 38.464C125.91 38.464 126.097 38.4293 126.283 38.36C126.475 38.2853 126.646 38.1813 126.795 38.048L127.043 38.576C126.889 38.7307 126.689 38.8533 126.443 38.944C126.198 39.0293 125.939 39.072 125.667 39.072ZM129.45 39.072C129.124 39.072 128.85 39.0133 128.626 38.896C128.402 38.7787 128.234 38.6027 128.122 38.368C128.01 38.1333 127.954 37.84 127.954 37.488V35.048H128.666V37.456C128.666 37.6587 128.695 37.8373 128.754 37.992C128.818 38.1413 128.916 38.2587 129.05 38.344C129.188 38.424 129.37 38.464 129.594 38.464C129.818 38.464 130.02 38.4107 130.202 38.304C130.383 38.192 130.524 38.048 130.626 37.872C130.727 37.6907 130.778 37.4907 130.778 37.272V35.048H131.49V39H130.834V38.128C130.7 38.4213 130.519 38.6533 130.29 38.824C130.06 38.9893 129.78 39.072 129.45 39.072ZM132.915 39V35.048H133.563V35.96H133.571C133.667 35.6667 133.835 35.4373 134.075 35.272C134.315 35.1013 134.608 35.0053 134.955 34.984L135.315 34.968L135.379 35.616L134.803 35.664C134.435 35.696 134.147 35.8187 133.939 36.032C133.731 36.24 133.627 36.5013 133.627 36.816V39H132.915ZM138.116 39.072C137.673 39.072 137.289 38.992 136.964 38.832C136.644 38.6667 136.399 38.432 136.228 38.128C136.057 37.8187 135.972 37.4507 135.972 37.024C135.972 36.624 136.052 36.272 136.212 35.968C136.372 35.6587 136.599 35.416 136.892 35.24C137.185 35.064 137.535 34.976 137.94 34.976C138.324 34.976 138.649 35.0587 138.916 35.224C139.188 35.3893 139.393 35.6213 139.532 35.92C139.676 36.2187 139.748 36.5733 139.748 36.984V37.216H136.508V36.72H139.284L139.132 36.88C139.132 36.4427 139.028 36.1067 138.82 35.872C138.617 35.6373 138.324 35.52 137.94 35.52C137.689 35.52 137.465 35.5787 137.268 35.696C137.076 35.808 136.927 35.968 136.82 36.176C136.713 36.384 136.66 36.6373 136.66 36.936V37.016C136.66 37.336 136.719 37.6053 136.836 37.824C136.953 38.0427 137.121 38.208 137.34 38.32C137.559 38.432 137.82 38.488 138.124 38.488C138.343 38.488 138.564 38.4587 138.788 38.4C139.017 38.336 139.231 38.224 139.428 38.064L139.668 38.576C139.465 38.7467 139.223 38.872 138.94 38.952C138.663 39.032 138.388 39.072 138.116 39.072ZM140.787 39V38.12H141.699V39H140.787Z" fill="black"/>
</svg>
