<svg width="147" height="41" viewBox="0 0 147 41" fill="none" xmlns="http://www.w3.org/2000/svg">
<path d="M0.832 6V0.36H2.808C3.41067 0.36 3.92267 0.469333 4.344 0.688C4.76533 0.906666 5.08533 1.22667 5.304 1.648C5.528 2.064 5.64 2.57333 5.64 3.176C5.64 3.77867 5.528 4.29067 5.304 4.712C5.08533 5.13333 4.76533 5.45333 4.344 5.672C3.92267 5.89067 3.41067 6 2.808 6H0.832ZM1.544 5.376H2.768C3.46667 5.376 3.99467 5.19467 4.352 4.832C4.71467 4.46933 4.896 3.91733 4.896 3.176C4.896 2.43467 4.71467 1.88533 4.352 1.528C3.99467 1.16533 3.46667 0.984 2.768 0.984H1.544V5.376ZM8.85819 6.072C8.41552 6.072 8.03152 5.992 7.70619 5.832C7.38619 5.66667 7.14085 5.432 6.97019 5.128C6.79952 4.81867 6.71419 4.45067 6.71419 4.024C6.71419 3.624 6.79419 3.272 6.95419 2.968C7.11419 2.65867 7.34085 2.416 7.63419 2.24C7.92752 2.064 8.27685 1.976 8.68219 1.976C9.06619 1.976 9.39152 2.05867 9.65819 2.224C9.93019 2.38933 10.1355 2.62133 10.2742 2.92C10.4182 3.21867 10.4902 3.57333 10.4902 3.984V4.216H7.25019V3.72H10.0262L9.87419 3.88C9.87419 3.44267 9.77019 3.10667 9.56219 2.872C9.35952 2.63733 9.06619 2.52 8.68219 2.52C8.43152 2.52 8.20752 2.57867 8.01019 2.696C7.81819 2.808 7.66885 2.968 7.56219 3.176C7.45552 3.384 7.40219 3.63733 7.40219 3.936V4.016C7.40219 4.336 7.46085 4.60533 7.57819 4.824C7.69552 5.04267 7.86352 5.208 8.08219 5.32C8.30085 5.432 8.56219 5.488 8.86619 5.488C9.08485 5.488 9.30619 5.45867 9.53019 5.4C9.75952 5.336 9.97285 5.224 10.1702 5.064L10.4102 5.576C10.2075 5.74667 9.96485 5.872 9.68219 5.952C9.40485 6.032 9.13019 6.072 8.85819 6.072ZM13.1211 6.072C12.9025 6.072 12.6865 6.05067 12.4731 6.008C12.2651 5.97067 12.0705 5.91733 11.8891 5.848C11.7131 5.77333 11.5611 5.68267 11.4331 5.576L11.6651 5.072C11.7985 5.17333 11.9451 5.256 12.1051 5.32C12.2705 5.384 12.4385 5.432 12.6091 5.464C12.7851 5.49067 12.9531 5.504 13.1131 5.504C13.4438 5.504 13.6971 5.45333 13.8731 5.352C14.0545 5.25067 14.1451 5.10933 14.1451 4.928C14.1451 4.77333 14.0918 4.656 13.9851 4.576C13.8838 4.49067 13.7131 4.42667 13.4731 4.384L12.6491 4.24C12.2811 4.17067 12.0038 4.04533 11.8171 3.864C11.6358 3.68267 11.5451 3.44533 11.5451 3.152C11.5451 2.91733 11.6091 2.712 11.7371 2.536C11.8705 2.36 12.0598 2.224 12.3051 2.128C12.5505 2.02667 12.8438 1.976 13.1851 1.976C13.3718 1.976 13.5611 1.99467 13.7531 2.032C13.9505 2.06933 14.1318 2.12533 14.2971 2.2C14.4678 2.26933 14.6065 2.35733 14.7131 2.464L14.4731 2.968C14.3665 2.86667 14.2385 2.78667 14.0891 2.728C13.9451 2.664 13.7931 2.61867 13.6331 2.592C13.4785 2.56 13.3265 2.544 13.1771 2.544C12.8678 2.544 12.6278 2.59733 12.4571 2.704C12.2865 2.80533 12.2011 2.94933 12.2011 3.136C12.2011 3.28533 12.2491 3.40267 12.3451 3.488C12.4465 3.57333 12.6091 3.63733 12.8331 3.68L13.6331 3.824C14.0278 3.89867 14.3211 4.024 14.5131 4.2C14.7051 4.37067 14.8011 4.608 14.8011 4.912C14.8011 5.14667 14.7318 5.352 14.5931 5.528C14.4545 5.69867 14.2598 5.832 14.0091 5.928C13.7585 6.024 13.4625 6.072 13.1211 6.072ZM15.8976 1.096V0.304H16.7616V1.096H15.8976ZM15.9776 6V2.048H16.6896V6H15.9776ZM19.8224 7.512C19.5078 7.512 19.1958 7.464 18.8864 7.368C18.5771 7.27733 18.3131 7.152 18.0944 6.992L18.3184 6.44C18.4678 6.536 18.6251 6.61867 18.7904 6.688C18.9558 6.76267 19.1238 6.816 19.2944 6.848C19.4704 6.88533 19.6438 6.904 19.8144 6.904C20.2251 6.904 20.5451 6.8 20.7744 6.592C21.0091 6.384 21.1264 6.088 21.1264 5.704V4.976H21.1104C21.0144 5.248 20.8411 5.46933 20.5904 5.64C20.3398 5.80533 20.0491 5.888 19.7184 5.888C19.3451 5.888 19.0198 5.808 18.7424 5.648C18.4651 5.48267 18.2491 5.25333 18.0944 4.96C17.9451 4.66667 17.8704 4.32267 17.8704 3.928C17.8704 3.53867 17.9451 3.19733 18.0944 2.904C18.2491 2.61067 18.4651 2.384 18.7424 2.224C19.0198 2.05867 19.3451 1.976 19.7184 1.976C20.0491 1.976 20.3398 2.06133 20.5904 2.232C20.8464 2.40267 21.0224 2.62933 21.1184 2.912H21.1264V2.048H21.7904V5.64C21.7904 6.024 21.7104 6.35467 21.5504 6.632C21.3958 6.91467 21.1718 7.13067 20.8784 7.28C20.5851 7.43467 20.2331 7.512 19.8224 7.512ZM19.8384 5.304C20.2278 5.304 20.5344 5.17867 20.7584 4.928C20.9878 4.67733 21.1024 4.344 21.1024 3.928C21.1024 3.512 20.9878 3.18133 20.7584 2.936C20.5344 2.68533 20.2278 2.56 19.8384 2.56C19.4544 2.56 19.1478 2.68533 18.9184 2.936C18.6944 3.18133 18.5824 3.512 18.5824 3.928C18.5824 4.344 18.6944 4.67733 18.9184 4.928C19.1478 5.17867 19.4544 5.304 19.8384 5.304ZM23.212 6V2.048H23.876V2.904C24.004 2.61067 24.196 2.384 24.452 2.224C24.708 2.05867 24.996 1.976 25.316 1.976C25.6413 1.976 25.9133 2.03467 26.132 2.152C26.3507 2.264 26.5133 2.44 26.62 2.68C26.732 2.91467 26.788 3.208 26.788 3.56V6H26.076V3.6C26.076 3.38667 26.0467 3.20533 25.988 3.056C25.9293 2.90667 25.8307 2.792 25.692 2.712C25.5587 2.62667 25.38 2.584 25.156 2.584C24.9213 2.584 24.708 2.63733 24.516 2.744C24.3293 2.85067 24.1827 2.99467 24.076 3.176C23.9747 3.35733 23.924 3.56 23.924 3.784V6H23.212ZM28.0604 4.144V3.568H30.3004V4.144H28.0604ZM31.707 6V0.36H34.027C34.635 0.36 35.1043 0.498666 35.435 0.776C35.7657 1.05333 35.931 1.456 35.931 1.984C35.931 2.28267 35.8697 2.54133 35.747 2.76C35.6297 2.97867 35.4617 3.15467 35.243 3.288C35.0243 3.416 34.7683 3.49867 34.475 3.536L34.499 3.528L34.579 3.544C34.7123 3.56533 34.8323 3.62133 34.939 3.712C35.0457 3.80267 35.1497 3.944 35.251 4.136L36.243 6H35.459L34.515 4.232C34.435 4.07733 34.3497 3.96 34.259 3.88C34.1683 3.8 34.059 3.744 33.931 3.712C33.8083 3.68 33.659 3.664 33.483 3.664H32.419V6H31.707ZM32.419 3.072H33.979C34.4057 3.072 34.7177 2.984 34.915 2.808C35.1123 2.62667 35.211 2.35733 35.211 2C35.211 1.64267 35.107 1.38133 34.899 1.216C34.6963 1.05067 34.379 0.968 33.947 0.968H32.419V3.072ZM39.1394 6.072C38.6968 6.072 38.3128 5.992 37.9874 5.832C37.6674 5.66667 37.4221 5.432 37.2514 5.128C37.0808 4.81867 36.9954 4.45067 36.9954 4.024C36.9954 3.624 37.0754 3.272 37.2354 2.968C37.3954 2.65867 37.6221 2.416 37.9154 2.24C38.2088 2.064 38.5581 1.976 38.9634 1.976C39.3474 1.976 39.6728 2.05867 39.9394 2.224C40.2114 2.38933 40.4168 2.62133 40.5554 2.92C40.6994 3.21867 40.7714 3.57333 40.7714 3.984V4.216H37.5314V3.72H40.3074L40.1554 3.88C40.1554 3.44267 40.0514 3.10667 39.8434 2.872C39.6408 2.63733 39.3474 2.52 38.9634 2.52C38.7128 2.52 38.4888 2.57867 38.2914 2.696C38.0994 2.808 37.9501 2.968 37.8434 3.176C37.7368 3.384 37.6834 3.63733 37.6834 3.936V4.016C37.6834 4.336 37.7421 4.60533 37.8594 4.824C37.9768 5.04267 38.1448 5.208 38.3634 5.32C38.5821 5.432 38.8434 5.488 39.1474 5.488C39.3661 5.488 39.5874 5.45867 39.8114 5.4C40.0408 5.336 40.2541 5.224 40.4514 5.064L40.6914 5.576C40.4888 5.74667 40.2461 5.872 39.9634 5.952C39.6861 6.032 39.4114 6.072 39.1394 6.072ZM43.6584 7.512C43.3437 7.512 43.0317 7.464 42.7224 7.368C42.413 7.27733 42.149 7.152 41.9304 6.992L42.1544 6.44C42.3037 6.536 42.461 6.61867 42.6264 6.688C42.7917 6.76267 42.9597 6.816 43.1304 6.848C43.3064 6.88533 43.4797 6.904 43.6504 6.904C44.061 6.904 44.381 6.8 44.6104 6.592C44.845 6.384 44.9624 6.088 44.9624 5.704V4.976H44.9464C44.8504 5.248 44.677 5.46933 44.4264 5.64C44.1757 5.80533 43.885 5.888 43.5544 5.888C43.181 5.888 42.8557 5.808 42.5784 5.648C42.301 5.48267 42.085 5.25333 41.9304 4.96C41.781 4.66667 41.7064 4.32267 41.7064 3.928C41.7064 3.53867 41.781 3.19733 41.9304 2.904C42.085 2.61067 42.301 2.384 42.5784 2.224C42.8557 2.05867 43.181 1.976 43.5544 1.976C43.885 1.976 44.1757 2.06133 44.4264 2.232C44.6824 2.40267 44.8584 2.62933 44.9544 2.912H44.9624V2.048H45.6264V5.64C45.6264 6.024 45.5464 6.35467 45.3864 6.632C45.2317 6.91467 45.0077 7.13067 44.7144 7.28C44.421 7.43467 44.069 7.512 43.6584 7.512ZM43.6744 5.304C44.0637 5.304 44.3704 5.17867 44.5944 4.928C44.8237 4.67733 44.9384 4.344 44.9384 3.928C44.9384 3.512 44.8237 3.18133 44.5944 2.936C44.3704 2.68533 44.0637 2.56 43.6744 2.56C43.2904 2.56 42.9837 2.68533 42.7544 2.936C42.5304 3.18133 42.4184 3.512 42.4184 3.928C42.4184 4.344 42.5304 4.67733 42.7544 4.928C42.9837 5.17867 43.2904 5.304 43.6744 5.304ZM46.9679 1.096V0.304H47.8319V1.096H46.9679ZM47.0479 6V2.048H47.7599V6H47.0479ZM50.6368 6.072C50.4181 6.072 50.2021 6.05067 49.9888 6.008C49.7808 5.97067 49.5861 5.91733 49.4048 5.848C49.2288 5.77333 49.0768 5.68267 48.9488 5.576L49.1808 5.072C49.3141 5.17333 49.4608 5.256 49.6208 5.32C49.7861 5.384 49.9541 5.432 50.1248 5.464C50.3008 5.49067 50.4688 5.504 50.6288 5.504C50.9594 5.504 51.2128 5.45333 51.3888 5.352C51.5701 5.25067 51.6608 5.10933 51.6608 4.928C51.6608 4.77333 51.6074 4.656 51.5008 4.576C51.3994 4.49067 51.2288 4.42667 50.9888 4.384L50.1648 4.24C49.7968 4.17067 49.5194 4.04533 49.3328 3.864C49.1514 3.68267 49.0608 3.44533 49.0608 3.152C49.0608 2.91733 49.1248 2.712 49.2528 2.536C49.3861 2.36 49.5754 2.224 49.8208 2.128C50.0661 2.02667 50.3594 1.976 50.7008 1.976C50.8874 1.976 51.0768 1.99467 51.2688 2.032C51.4661 2.06933 51.6474 2.12533 51.8128 2.2C51.9834 2.26933 52.1221 2.35733 52.2288 2.464L51.9888 2.968C51.8821 2.86667 51.7541 2.78667 51.6048 2.728C51.4608 2.664 51.3088 2.61867 51.1488 2.592C50.9941 2.56 50.8421 2.544 50.6928 2.544C50.3834 2.544 50.1434 2.59733 49.9728 2.704C49.8021 2.80533 49.7168 2.94933 49.7168 3.136C49.7168 3.28533 49.7648 3.40267 49.8608 3.488C49.9621 3.57333 50.1248 3.63733 50.3488 3.68L51.1488 3.824C51.5434 3.89867 51.8368 4.024 52.0288 4.2C52.2208 4.37067 52.3168 4.608 52.3168 4.912C52.3168 5.14667 52.2474 5.352 52.1088 5.528C51.9701 5.69867 51.7754 5.832 51.5248 5.928C51.2741 6.024 50.9781 6.072 50.6368 6.072ZM55.1182 6.072C54.6435 6.072 54.2835 5.94667 54.0382 5.696C53.7982 5.44533 53.6782 5.088 53.6782 4.624V2.632H52.8782V2.048H53.7022V0.872H54.3902V2.048H55.8062V2.632H54.3902V4.56C54.3902 4.864 54.4569 5.09067 54.5902 5.24C54.7289 5.384 54.9395 5.456 55.2222 5.456C55.3342 5.456 55.4409 5.44533 55.5422 5.424C55.6489 5.40267 55.7502 5.37067 55.8462 5.328L55.9582 5.888C55.8515 5.94667 55.7209 5.992 55.5662 6.024C55.4169 6.056 55.2675 6.072 55.1182 6.072ZM58.6551 6.072C58.2124 6.072 57.8284 5.992 57.5031 5.832C57.1831 5.66667 56.9377 5.432 56.7671 5.128C56.5964 4.81867 56.5111 4.45067 56.5111 4.024C56.5111 3.624 56.5911 3.272 56.7511 2.968C56.9111 2.65867 57.1377 2.416 57.4311 2.24C57.7244 2.064 58.0737 1.976 58.4791 1.976C58.8631 1.976 59.1884 2.05867 59.4551 2.224C59.7271 2.38933 59.9324 2.62133 60.0711 2.92C60.2151 3.21867 60.2871 3.57333 60.2871 3.984V4.216H57.0471V3.72H59.8231L59.6711 3.88C59.6711 3.44267 59.5671 3.10667 59.3591 2.872C59.1564 2.63733 58.8631 2.52 58.4791 2.52C58.2284 2.52 58.0044 2.57867 57.8071 2.696C57.6151 2.808 57.4657 2.968 57.3591 3.176C57.2524 3.384 57.1991 3.63733 57.1991 3.936V4.016C57.1991 4.336 57.2577 4.60533 57.3751 4.824C57.4924 5.04267 57.6604 5.208 57.8791 5.32C58.0977 5.432 58.3591 5.488 58.6631 5.488C58.8817 5.488 59.1031 5.45867 59.3271 5.4C59.5564 5.336 59.7697 5.224 59.9671 5.064L60.2071 5.576C60.0044 5.74667 59.7617 5.872 59.4791 5.952C59.2017 6.032 58.9271 6.072 58.6551 6.072ZM61.462 6V2.048H62.11V2.96H62.118C62.214 2.66667 62.382 2.43733 62.622 2.272C62.862 2.10133 63.1553 2.00533 63.502 1.984L63.862 1.968L63.926 2.616L63.35 2.664C62.982 2.696 62.694 2.81867 62.486 3.032C62.278 3.24 62.174 3.50133 62.174 3.816V6H61.462ZM66.6629 6.072C66.2202 6.072 65.8362 5.992 65.5109 5.832C65.1909 5.66667 64.9455 5.432 64.7749 5.128C64.6042 4.81867 64.5189 4.45067 64.5189 4.024C64.5189 3.624 64.5989 3.272 64.7589 2.968C64.9189 2.65867 65.1455 2.416 65.4389 2.24C65.7322 2.064 66.0815 1.976 66.4869 1.976C66.8709 1.976 67.1962 2.05867 67.4629 2.224C67.7349 2.38933 67.9402 2.62133 68.0789 2.92C68.2229 3.21867 68.2949 3.57333 68.2949 3.984V4.216H65.0549V3.72H67.8309L67.6789 3.88C67.6789 3.44267 67.5749 3.10667 67.3669 2.872C67.1642 2.63733 66.8709 2.52 66.4869 2.52C66.2362 2.52 66.0122 2.57867 65.8149 2.696C65.6229 2.808 65.4735 2.968 65.3669 3.176C65.2602 3.384 65.2069 3.63733 65.2069 3.936V4.016C65.2069 4.336 65.2655 4.60533 65.3829 4.824C65.5002 5.04267 65.6682 5.208 65.8869 5.32C66.1055 5.432 66.3669 5.488 66.6709 5.488C66.8895 5.488 67.1109 5.45867 67.3349 5.4C67.5642 5.336 67.7775 5.224 67.9749 5.064L68.2149 5.576C68.0122 5.74667 67.7695 5.872 67.4869 5.952C67.2095 6.032 66.9349 6.072 66.6629 6.072ZM71.0458 6.072C70.6831 6.072 70.3658 5.98667 70.0938 5.816C69.8218 5.64533 69.6085 5.40533 69.4538 5.096C69.3045 4.78667 69.2298 4.42933 69.2298 4.024C69.2298 3.61333 69.3045 3.256 69.4538 2.952C69.6031 2.64267 69.8138 2.40267 70.0858 2.232C70.3578 2.06133 70.6751 1.976 71.0378 1.976C71.3791 1.976 71.6698 2.056 71.9098 2.216C72.1551 2.376 72.3311 2.59467 72.4378 2.872V0.36H73.1498V6H72.4938V5.128C72.3765 5.42667 72.1925 5.65867 71.9418 5.824C71.6911 5.98933 71.3925 6.072 71.0458 6.072ZM71.1978 5.488C71.5871 5.488 71.8911 5.35733 72.1098 5.096C72.3338 4.83467 72.4458 4.47733 72.4458 4.024C72.4458 3.57067 72.3338 3.21333 72.1098 2.952C71.8911 2.69067 71.5871 2.56 71.1978 2.56C70.8138 2.56 70.5071 2.69067 70.2778 2.952C70.0538 3.21333 69.9418 3.57067 69.9418 4.024C69.9418 4.47733 70.0538 4.83467 70.2778 5.096C70.5018 5.35733 70.8085 5.488 71.1978 5.488ZM76.8298 6V5.392H78.3738V0.928L78.7498 0.984L77.1098 2.04L76.7898 1.488L78.5578 0.36H79.0778V5.392H80.5017V6H76.8298ZM83.2906 6.072C82.8586 6.072 82.4933 5.96267 82.1946 5.744C81.896 5.52 81.6693 5.19467 81.5146 4.768C81.3653 4.336 81.2906 3.80533 81.2906 3.176C81.2906 2.54667 81.3653 2.01867 81.5146 1.592C81.6693 1.16533 81.896 0.842666 82.1946 0.624C82.4933 0.4 82.8586 0.288 83.2906 0.288C83.7333 0.288 84.1013 0.397333 84.3946 0.616C84.688 0.834666 84.9093 1.15733 85.0586 1.584C85.2133 2.01067 85.2906 2.53867 85.2906 3.168C85.2906 3.79733 85.2133 4.328 85.0586 4.76C84.9093 5.192 84.6853 5.52 84.3866 5.744C84.088 5.96267 83.7226 6.072 83.2906 6.072ZM83.2906 5.448C83.728 5.448 84.0533 5.264 84.2666 4.896C84.48 4.528 84.5866 3.952 84.5866 3.168C84.5866 2.38933 84.48 1.81867 84.2666 1.456C84.0586 1.09333 83.736 0.912 83.2986 0.912C82.856 0.912 82.528 1.096 82.3146 1.464C82.1013 1.82667 81.9946 2.39733 81.9946 3.176C81.9946 3.94933 82.1013 4.52267 82.3146 4.896C82.528 5.264 82.8533 5.448 83.2906 5.448ZM88.0875 6.072C87.6555 6.072 87.2902 5.96267 86.9915 5.744C86.6928 5.52 86.4662 5.19467 86.3115 4.768C86.1622 4.336 86.0875 3.80533 86.0875 3.176C86.0875 2.54667 86.1622 2.01867 86.3115 1.592C86.4662 1.16533 86.6928 0.842666 86.9915 0.624C87.2902 0.4 87.6555 0.288 88.0875 0.288C88.5302 0.288 88.8982 0.397333 89.1915 0.616C89.4848 0.834666 89.7062 1.15733 89.8555 1.584C90.0102 2.01067 90.0875 2.53867 90.0875 3.168C90.0875 3.79733 90.0102 4.328 89.8555 4.76C89.7062 5.192 89.4822 5.52 89.1835 5.744C88.8848 5.96267 88.5195 6.072 88.0875 6.072ZM88.0875 5.448C88.5248 5.448 88.8502 5.264 89.0635 4.896C89.2768 4.528 89.3835 3.952 89.3835 3.168C89.3835 2.38933 89.2768 1.81867 89.0635 1.456C88.8555 1.09333 88.5328 0.912 88.0955 0.912C87.6528 0.912 87.3248 1.096 87.1115 1.464C86.8982 1.82667 86.7915 2.39733 86.7915 3.176C86.7915 3.94933 86.8982 4.52267 87.1115 4.896C87.3248 5.264 87.6502 5.448 88.0875 5.448ZM92.8844 6.072C92.4524 6.072 92.087 5.96267 91.7884 5.744C91.4897 5.52 91.263 5.19467 91.1084 4.768C90.959 4.336 90.8844 3.80533 90.8844 3.176C90.8844 2.54667 90.959 2.01867 91.1084 1.592C91.263 1.16533 91.4897 0.842666 91.7884 0.624C92.087 0.4 92.4524 0.288 92.8844 0.288C93.327 0.288 93.695 0.397333 93.9884 0.616C94.2817 0.834666 94.503 1.15733 94.6524 1.584C94.807 2.01067 94.8844 2.53867 94.8844 3.168C94.8844 3.79733 94.807 4.328 94.6524 4.76C94.503 5.192 94.279 5.52 93.9804 5.744C93.6817 5.96267 93.3164 6.072 92.8844 6.072ZM92.8844 5.448C93.3217 5.448 93.647 5.264 93.8604 4.896C94.0737 4.528 94.1804 3.952 94.1804 3.168C94.1804 2.38933 94.0737 1.81867 93.8604 1.456C93.6524 1.09333 93.3297 0.912 92.8924 0.912C92.4497 0.912 92.1217 1.096 91.9084 1.464C91.695 1.82667 91.5884 2.39733 91.5884 3.176C91.5884 3.94933 91.695 4.52267 91.9084 4.896C92.1217 5.264 92.447 5.448 92.8844 5.448ZM96.0093 6V2.048H96.6653V2.912C96.7346 2.736 96.8306 2.57867 96.9533 2.44C97.0813 2.296 97.2333 2.184 97.4093 2.104C97.5906 2.01867 97.7879 1.976 98.0013 1.976C98.3479 1.976 98.6333 2.06133 98.8573 2.232C99.0813 2.40267 99.2199 2.62667 99.2733 2.904H99.2653C99.3719 2.64267 99.5399 2.424 99.7693 2.248C100.004 2.06667 100.297 1.976 100.649 1.976C100.948 1.976 101.201 2.03467 101.409 2.152C101.617 2.264 101.775 2.43733 101.881 2.672C101.988 2.90667 102.041 3.20267 102.041 3.56V6H101.337V3.608C101.337 3.26667 101.276 3.01067 101.153 2.84C101.031 2.66933 100.812 2.584 100.497 2.584C100.263 2.584 100.06 2.63733 99.8893 2.744C99.7239 2.84533 99.5959 2.98933 99.5052 3.176C99.4199 3.35733 99.3773 3.56267 99.3773 3.792V6H98.6733V3.608C98.6733 3.272 98.6039 3.01867 98.4653 2.848C98.3266 2.672 98.1159 2.584 97.8333 2.584C97.6039 2.584 97.4039 2.64267 97.2333 2.76C97.0679 2.872 96.9399 3.01867 96.8493 3.2C96.7586 3.38133 96.7133 3.57333 96.7133 3.776V6H96.0093ZM104.67 6.072C104.286 6.072 103.99 5.96 103.782 5.736C103.574 5.512 103.47 5.19733 103.47 4.792V0.36H104.182V4.72C104.182 4.88 104.206 5.01867 104.254 5.136C104.302 5.248 104.371 5.33333 104.462 5.392C104.552 5.45067 104.662 5.48 104.79 5.48C104.87 5.48 104.944 5.47733 105.014 5.472C105.088 5.46133 105.163 5.44533 105.238 5.424L105.254 5.984C105.163 6.016 105.07 6.03733 104.974 6.048C104.883 6.064 104.782 6.072 104.67 6.072ZM109.786 6V0.992H107.754V0.36H112.53V0.992H110.498V6H109.786ZM114.118 6.072C113.835 6.072 113.582 6.02133 113.358 5.92C113.134 5.81333 112.958 5.66933 112.83 5.488C112.702 5.30667 112.638 5.104 112.638 4.88C112.638 4.576 112.723 4.33867 112.894 4.168C113.065 3.992 113.326 3.86667 113.678 3.792C114.035 3.71733 114.491 3.68 115.046 3.68H115.614V4.168H115.078C114.769 4.168 114.505 4.17867 114.286 4.2C114.067 4.216 113.889 4.25067 113.75 4.304C113.611 4.352 113.51 4.41867 113.446 4.504C113.382 4.58933 113.35 4.70133 113.35 4.84C113.35 5.05333 113.433 5.21867 113.598 5.336C113.769 5.45333 113.985 5.512 114.246 5.512C114.475 5.512 114.683 5.46133 114.87 5.36C115.062 5.25333 115.214 5.112 115.326 4.936C115.443 4.76 115.502 4.56533 115.502 4.352V3.448C115.502 3.13333 115.414 2.90667 115.238 2.768C115.062 2.624 114.801 2.552 114.454 2.552C114.219 2.552 113.985 2.584 113.75 2.648C113.521 2.712 113.283 2.81867 113.038 2.968L112.806 2.44C112.971 2.33867 113.147 2.256 113.334 2.192C113.521 2.12267 113.715 2.06933 113.918 2.032C114.121 1.99467 114.323 1.976 114.526 1.976C114.867 1.976 115.161 2.02933 115.406 2.136C115.657 2.24267 115.849 2.408 115.982 2.632C116.121 2.856 116.19 3.14933 116.19 3.512V6H115.566V5.136C115.491 5.30133 115.387 5.456 115.254 5.6C115.121 5.744 114.958 5.85867 114.766 5.944C114.579 6.02933 114.363 6.072 114.118 6.072ZM117.619 6V2.048H118.275V2.912C118.344 2.736 118.44 2.57867 118.563 2.44C118.691 2.296 118.843 2.184 119.019 2.104C119.2 2.01867 119.397 1.976 119.611 1.976C119.957 1.976 120.243 2.06133 120.467 2.232C120.691 2.40267 120.829 2.62667 120.883 2.904H120.875C120.981 2.64267 121.149 2.424 121.379 2.248C121.613 2.06667 121.907 1.976 122.259 1.976C122.557 1.976 122.811 2.03467 123.019 2.152C123.227 2.264 123.384 2.43733 123.491 2.672C123.597 2.90667 123.651 3.20267 123.651 3.56V6H122.947V3.608C122.947 3.26667 122.885 3.01067 122.763 2.84C122.64 2.66933 122.421 2.584 122.107 2.584C121.872 2.584 121.669 2.63733 121.499 2.744C121.333 2.84533 121.205 2.98933 121.115 3.176C121.029 3.35733 120.987 3.56267 120.987 3.792V6H120.283V3.608C120.283 3.272 120.213 3.01867 120.075 2.848C119.936 2.672 119.725 2.584 119.443 2.584C119.213 2.584 119.013 2.64267 118.843 2.76C118.677 2.872 118.549 3.01867 118.459 3.2C118.368 3.38133 118.323 3.57333 118.323 3.776V6H117.619ZM125.079 7.44V2.04H125.735V2.912C125.853 2.61333 126.037 2.384 126.287 2.224C126.543 2.05867 126.842 1.976 127.183 1.976C127.551 1.976 127.871 2.06133 128.143 2.232C128.415 2.40267 128.626 2.64 128.775 2.944C128.925 3.248 128.999 3.608 128.999 4.024C128.999 4.424 128.925 4.77867 128.775 5.088C128.631 5.39733 128.423 5.64 128.151 5.816C127.879 5.98667 127.559 6.072 127.191 6.072C126.855 6.072 126.565 5.992 126.319 5.832C126.079 5.66667 125.903 5.448 125.791 5.176V7.44H125.079ZM127.031 5.488C127.421 5.488 127.727 5.35733 127.951 5.096C128.175 4.82933 128.287 4.46933 128.287 4.016C128.287 3.56267 128.175 3.208 127.951 2.952C127.727 2.69067 127.421 2.56 127.031 2.56C126.647 2.56 126.343 2.69067 126.119 2.952C125.895 3.208 125.783 3.56267 125.783 4.016C125.783 4.46933 125.895 4.82933 126.119 5.096C126.343 5.35733 126.647 5.488 127.031 5.488ZM132.085 6.072C131.642 6.072 131.258 5.992 130.933 5.832C130.613 5.66667 130.367 5.432 130.197 5.128C130.026 4.81867 129.941 4.45067 129.941 4.024C129.941 3.624 130.021 3.272 130.181 2.968C130.341 2.65867 130.567 2.416 130.861 2.24C131.154 2.064 131.503 1.976 131.909 1.976C132.293 1.976 132.618 2.05867 132.885 2.224C133.157 2.38933 133.362 2.62133 133.501 2.92C133.645 3.21867 133.717 3.57333 133.717 3.984V4.216H130.477V3.72H133.253L133.101 3.88C133.101 3.44267 132.997 3.10667 132.789 2.872C132.586 2.63733 132.293 2.52 131.909 2.52C131.658 2.52 131.434 2.57867 131.237 2.696C131.045 2.808 130.895 2.968 130.789 3.176C130.682 3.384 130.629 3.63733 130.629 3.936V4.016C130.629 4.336 130.687 4.60533 130.805 4.824C130.922 5.04267 131.09 5.208 131.309 5.32C131.527 5.432 131.789 5.488 132.093 5.488C132.311 5.488 132.533 5.45867 132.757 5.4C132.986 5.336 133.199 5.224 133.397 5.064L133.637 5.576C133.434 5.74667 133.191 5.872 132.909 5.952C132.631 6.032 132.357 6.072 132.085 6.072ZM134.892 6V2.048H135.54V2.96H135.548C135.644 2.66667 135.812 2.43733 136.052 2.272C136.292 2.10133 136.585 2.00533 136.932 1.984L137.292 1.968L137.356 2.616L136.78 2.664C136.412 2.696 136.124 2.81867 135.916 3.032C135.708 3.24 135.604 3.50133 135.604 3.816V6H134.892ZM137.912 4.144V3.568H140.152V4.144H137.912ZM0.832 17V11.36H4.504V11.984H1.536V13.832H4.344V14.456H1.536V16.376H4.504V17H0.832ZM6.85525 17L5.19925 13.048H5.95925L7.24725 16.296H7.20725L8.49525 13.048H9.23125L7.56725 17H6.85525ZM10.0304 12.096V11.304H10.8944V12.096H10.0304ZM10.1104 17V13.048H10.8224V17H10.1104ZM13.8193 17.072C13.4566 17.072 13.1393 16.9867 12.8673 16.816C12.5953 16.6453 12.3819 16.4053 12.2273 16.096C12.0779 15.7867 12.0033 15.4293 12.0033 15.024C12.0033 14.6133 12.0779 14.256 12.2273 13.952C12.3766 13.6427 12.5873 13.4027 12.8593 13.232C13.1313 13.0613 13.4486 12.976 13.8113 12.976C14.1526 12.976 14.4433 13.056 14.6833 13.216C14.9286 13.376 15.1046 13.5947 15.2113 13.872V11.36H15.9233V17H15.2673V16.128C15.1499 16.4267 14.9659 16.6587 14.7153 16.824C14.4646 16.9893 14.1659 17.072 13.8193 17.072ZM13.9713 16.488C14.3606 16.488 14.6646 16.3573 14.8833 16.096C15.1073 15.8347 15.2193 15.4773 15.2193 15.024C15.2193 14.5707 15.1073 14.2133 14.8833 13.952C14.6646 13.6907 14.3606 13.56 13.9713 13.56C13.5873 13.56 13.2806 13.6907 13.0513 13.952C12.8273 14.2133 12.7153 14.5707 12.7153 15.024C12.7153 15.4773 12.8273 15.8347 13.0513 16.096C13.2753 16.3573 13.5819 16.488 13.9713 16.488ZM19.2488 17.072C18.8061 17.072 18.4221 16.992 18.0968 16.832C17.7768 16.6667 17.5315 16.432 17.3608 16.128C17.1901 15.8187 17.1048 15.4507 17.1048 15.024C17.1048 14.624 17.1848 14.272 17.3448 13.968C17.5048 13.6587 17.7315 13.416 18.0248 13.24C18.3181 13.064 18.6675 12.976 19.0728 12.976C19.4568 12.976 19.7821 13.0587 20.0488 13.224C20.3208 13.3893 20.5261 13.6213 20.6648 13.92C20.8088 14.2187 20.8808 14.5733 20.8808 14.984V15.216H17.6408V14.72H20.4168L20.2648 14.88C20.2648 14.4427 20.1608 14.1067 19.9528 13.872C19.7501 13.6373 19.4568 13.52 19.0728 13.52C18.8221 13.52 18.5981 13.5787 18.4008 13.696C18.2088 13.808 18.0595 13.968 17.9528 14.176C17.8461 14.384 17.7928 14.6373 17.7928 14.936V15.016C17.7928 15.336 17.8515 15.6053 17.9688 15.824C18.0861 16.0427 18.2541 16.208 18.4728 16.32C18.6915 16.432 18.9528 16.488 19.2568 16.488C19.4755 16.488 19.6968 16.4587 19.9208 16.4C20.1501 16.336 20.3635 16.224 20.5608 16.064L20.8008 16.576C20.5981 16.7467 20.3555 16.872 20.0728 16.952C19.7955 17.032 19.5208 17.072 19.2488 17.072ZM22.0558 17V13.048H22.7198V13.904C22.8478 13.6107 23.0398 13.384 23.2958 13.224C23.5518 13.0587 23.8398 12.976 24.1598 12.976C24.4851 12.976 24.7571 13.0347 24.9758 13.152C25.1944 13.264 25.3571 13.44 25.4638 13.68C25.5758 13.9147 25.6318 14.208 25.6318 14.56V17H24.9198V14.6C24.9198 14.3867 24.8904 14.2053 24.8318 14.056C24.7731 13.9067 24.6744 13.792 24.5358 13.712C24.4024 13.6267 24.2238 13.584 23.9998 13.584C23.7651 13.584 23.5518 13.6373 23.3598 13.744C23.1731 13.8507 23.0264 13.9947 22.9198 14.176C22.8184 14.3573 22.7678 14.56 22.7678 14.784V17H22.0558ZM28.7041 17.072C28.2295 17.072 27.8695 16.9467 27.6241 16.696C27.3841 16.4453 27.2641 16.088 27.2641 15.624V13.632H26.4641V13.048H27.2881V11.872H27.9761V13.048H29.3921V13.632H27.9761V15.56C27.9761 15.864 28.0428 16.0907 28.1761 16.24C28.3148 16.384 28.5255 16.456 28.8081 16.456C28.9201 16.456 29.0268 16.4453 29.1281 16.424C29.2348 16.4027 29.3361 16.3707 29.4321 16.328L29.5441 16.888C29.4375 16.9467 29.3068 16.992 29.1521 17.024C29.0028 17.056 28.8535 17.072 28.7041 17.072ZM32.7304 17V11.36H35.0504C35.6584 11.36 36.1278 11.4987 36.4584 11.776C36.7891 12.0533 36.9544 12.456 36.9544 12.984C36.9544 13.2827 36.8931 13.5413 36.7704 13.76C36.6531 13.9787 36.4851 14.1547 36.2664 14.288C36.0478 14.416 35.7918 14.4987 35.4984 14.536L35.5224 14.528L35.6024 14.544C35.7358 14.5653 35.8558 14.6213 35.9624 14.712C36.0691 14.8027 36.1731 14.944 36.2744 15.136L37.2664 17H36.4824L35.5384 15.232C35.4584 15.0773 35.3731 14.96 35.2824 14.88C35.1918 14.8 35.0824 14.744 34.9544 14.712C34.8318 14.68 34.6824 14.664 34.5064 14.664H33.4424V17H32.7304ZM33.4424 14.072H35.0024C35.4291 14.072 35.7411 13.984 35.9384 13.808C36.1358 13.6267 36.2344 13.3573 36.2344 13C36.2344 12.6427 36.1304 12.3813 35.9224 12.216C35.7198 12.0507 35.4024 11.968 34.9704 11.968H33.4424V14.072ZM40.1629 17.072C39.7202 17.072 39.3362 16.992 39.0109 16.832C38.6909 16.6667 38.4455 16.432 38.2749 16.128C38.1042 15.8187 38.0189 15.4507 38.0189 15.024C38.0189 14.624 38.0989 14.272 38.2589 13.968C38.4189 13.6587 38.6455 13.416 38.9389 13.24C39.2322 13.064 39.5815 12.976 39.9869 12.976C40.3709 12.976 40.6962 13.0587 40.9629 13.224C41.2349 13.3893 41.4402 13.6213 41.5789 13.92C41.7229 14.2187 41.7949 14.5733 41.7949 14.984V15.216H38.5549V14.72H41.3309L41.1789 14.88C41.1789 14.4427 41.0749 14.1067 40.8669 13.872C40.6642 13.6373 40.3709 13.52 39.9869 13.52C39.7362 13.52 39.5122 13.5787 39.3149 13.696C39.1229 13.808 38.9735 13.968 38.8669 14.176C38.7602 14.384 38.7069 14.6373 38.7069 14.936V15.016C38.7069 15.336 38.7655 15.6053 38.8829 15.824C39.0002 16.0427 39.1682 16.208 39.3869 16.32C39.6055 16.432 39.8669 16.488 40.1709 16.488C40.3895 16.488 40.6109 16.4587 40.8349 16.4C41.0642 16.336 41.2775 16.224 41.4749 16.064L41.7149 16.576C41.5122 16.7467 41.2695 16.872 40.9869 16.952C40.7095 17.032 40.4349 17.072 40.1629 17.072ZM44.7298 17.072C44.3245 17.072 43.9725 16.9867 43.6738 16.816C43.3751 16.6453 43.1431 16.408 42.9778 16.104C42.8125 15.7947 42.7298 15.432 42.7298 15.016C42.7298 14.6 42.8125 14.24 42.9778 13.936C43.1431 13.6267 43.3751 13.3893 43.6738 13.224C43.9778 13.0587 44.3325 12.976 44.7378 12.976C45.0098 12.976 45.2685 13.0213 45.5138 13.112C45.7591 13.2027 45.9618 13.3253 46.1218 13.48L45.8738 14.008C45.7191 13.8693 45.5458 13.7653 45.3538 13.696C45.1618 13.6213 44.9751 13.584 44.7938 13.584C44.3778 13.584 44.0498 13.7093 43.8098 13.96C43.5698 14.2107 43.4498 14.5653 43.4498 15.024C43.4498 15.4773 43.5698 15.832 43.8098 16.088C44.0498 16.3387 44.3751 16.464 44.7858 16.464C44.9725 16.464 45.1591 16.4293 45.3458 16.36C45.5378 16.2853 45.7085 16.1813 45.8578 16.048L46.1058 16.576C45.9511 16.7307 45.7511 16.8533 45.5058 16.944C45.2605 17.0293 45.0018 17.072 44.7298 17.072ZM48.6963 17.072C48.2216 17.072 47.8616 16.9467 47.6163 16.696C47.3763 16.4453 47.2563 16.088 47.2563 15.624V13.632H46.4563V13.048H47.2803V11.872H47.9683V13.048H49.3843V13.632H47.9683V15.56C47.9683 15.864 48.035 16.0907 48.1683 16.24C48.307 16.384 48.5176 16.456 48.8003 16.456C48.9123 16.456 49.019 16.4453 49.1203 16.424C49.227 16.4027 49.3283 16.3707 49.4243 16.328L49.5363 16.888C49.4296 16.9467 49.299 16.992 49.1443 17.024C48.995 17.056 48.8456 17.072 48.6963 17.072ZM51.6883 17.072C51.4056 17.072 51.1523 17.0213 50.9283 16.92C50.7043 16.8133 50.5283 16.6693 50.4003 16.488C50.2723 16.3067 50.2083 16.104 50.2083 15.88C50.2083 15.576 50.2936 15.3387 50.4643 15.168C50.6349 14.992 50.8963 14.8667 51.2483 14.792C51.6056 14.7173 52.0616 14.68 52.6163 14.68H53.1843V15.168H52.6483C52.3389 15.168 52.0749 15.1787 51.8563 15.2C51.6376 15.216 51.4589 15.2507 51.3203 15.304C51.1816 15.352 51.0803 15.4187 51.0163 15.504C50.9523 15.5893 50.9203 15.7013 50.9203 15.84C50.9203 16.0533 51.0029 16.2187 51.1683 16.336C51.3389 16.4533 51.5549 16.512 51.8163 16.512C52.0456 16.512 52.2536 16.4613 52.4403 16.36C52.6323 16.2533 52.7843 16.112 52.8963 15.936C53.0136 15.76 53.0723 15.5653 53.0723 15.352V14.448C53.0723 14.1333 52.9843 13.9067 52.8083 13.768C52.6323 13.624 52.3709 13.552 52.0243 13.552C51.7896 13.552 51.5549 13.584 51.3203 13.648C51.0909 13.712 50.8536 13.8187 50.6083 13.968L50.3763 13.44C50.5416 13.3387 50.7176 13.256 50.9043 13.192C51.0909 13.1227 51.2856 13.0693 51.4883 13.032C51.6909 12.9947 51.8936 12.976 52.0963 12.976C52.4376 12.976 52.7309 13.0293 52.9763 13.136C53.2269 13.2427 53.4189 13.408 53.5523 13.632C53.6909 13.856 53.7603 14.1493 53.7603 14.512V17H53.1363V16.136C53.0616 16.3013 52.9576 16.456 52.8243 16.6C52.6909 16.744 52.5283 16.8587 52.3363 16.944C52.1496 17.0293 51.9336 17.072 51.6883 17.072ZM55.1729 17V13.048H55.8369V13.904C55.9649 13.6107 56.1569 13.384 56.4129 13.224C56.6689 13.0587 56.9569 12.976 57.2769 12.976C57.6023 12.976 57.8743 13.0347 58.0929 13.152C58.3116 13.264 58.4743 13.44 58.5809 13.68C58.6929 13.9147 58.7489 14.208 58.7489 14.56V17H58.0369V14.6C58.0369 14.3867 58.0076 14.2053 57.9489 14.056C57.8903 13.9067 57.7916 13.792 57.6529 13.712C57.5196 13.6267 57.3409 13.584 57.1169 13.584C56.8823 13.584 56.6689 13.6373 56.4769 13.744C56.2903 13.8507 56.1436 13.9947 56.0369 14.176C55.9356 14.3573 55.8849 14.56 55.8849 14.784V17H55.1729ZM61.8693 18.512C61.5546 18.512 61.2426 18.464 60.9333 18.368C60.624 18.2773 60.36 18.152 60.1413 17.992L60.3653 17.44C60.5146 17.536 60.672 17.6187 60.8373 17.688C61.0026 17.7627 61.1706 17.816 61.3413 17.848C61.5173 17.8853 61.6906 17.904 61.8613 17.904C62.272 17.904 62.592 17.8 62.8213 17.592C63.056 17.384 63.1733 17.088 63.1733 16.704V15.976H63.1573C63.0613 16.248 62.888 16.4693 62.6373 16.64C62.3866 16.8053 62.096 16.888 61.7653 16.888C61.392 16.888 61.0666 16.808 60.7893 16.648C60.512 16.4827 60.296 16.2533 60.1413 15.96C59.992 15.6667 59.9173 15.3227 59.9173 14.928C59.9173 14.5387 59.992 14.1973 60.1413 13.904C60.296 13.6107 60.512 13.384 60.7893 13.224C61.0666 13.0587 61.392 12.976 61.7653 12.976C62.096 12.976 62.3866 13.0613 62.6373 13.232C62.8933 13.4027 63.0693 13.6293 63.1653 13.912H63.1733V13.048H63.8373V16.64C63.8373 17.024 63.7573 17.3547 63.5973 17.632C63.4426 17.9147 63.2186 18.1307 62.9253 18.28C62.632 18.4347 62.28 18.512 61.8693 18.512ZM61.8853 16.304C62.2746 16.304 62.5813 16.1787 62.8053 15.928C63.0346 15.6773 63.1493 15.344 63.1493 14.928C63.1493 14.512 63.0346 14.1813 62.8053 13.936C62.5813 13.6853 62.2746 13.56 61.8853 13.56C61.5013 13.56 61.1946 13.6853 60.9653 13.936C60.7413 14.1813 60.6293 14.512 60.6293 14.928C60.6293 15.344 60.7413 15.6773 60.9653 15.928C61.1946 16.1787 61.5013 16.304 61.8853 16.304ZM66.7389 17.072C66.4135 17.072 66.1389 17.0133 65.9149 16.896C65.6909 16.7787 65.5229 16.6027 65.4109 16.368C65.2989 16.1333 65.2429 15.84 65.2429 15.488V13.048H65.9549V15.456C65.9549 15.6587 65.9842 15.8373 66.0429 15.992C66.1069 16.1413 66.2055 16.2587 66.3389 16.344C66.4775 16.424 66.6589 16.464 66.8829 16.464C67.1069 16.464 67.3095 16.4107 67.4909 16.304C67.6722 16.192 67.8135 16.048 67.9149 15.872C68.0162 15.6907 68.0669 15.4907 68.0669 15.272V13.048H68.7789V17H68.1229V16.128C67.9895 16.4213 67.8082 16.6533 67.5789 16.824C67.3495 16.9893 67.0695 17.072 66.7389 17.072ZM71.4042 17.072C71.0202 17.072 70.7242 16.96 70.5162 16.736C70.3082 16.512 70.2042 16.1973 70.2042 15.792V11.36H70.9162V15.72C70.9162 15.88 70.9402 16.0187 70.9882 16.136C71.0362 16.248 71.1055 16.3333 71.1962 16.392C71.2869 16.4507 71.3962 16.48 71.5242 16.48C71.6042 16.48 71.6789 16.4773 71.7482 16.472C71.8229 16.4613 71.8975 16.4453 71.9722 16.424L71.9882 16.984C71.8975 17.016 71.8042 17.0373 71.7082 17.048C71.6175 17.064 71.5162 17.072 71.4042 17.072ZM74.1101 17.072C73.8275 17.072 73.5741 17.0213 73.3501 16.92C73.1261 16.8133 72.9501 16.6693 72.8221 16.488C72.6941 16.3067 72.6301 16.104 72.6301 15.88C72.6301 15.576 72.7155 15.3387 72.8861 15.168C73.0568 14.992 73.3181 14.8667 73.6701 14.792C74.0275 14.7173 74.4835 14.68 75.0381 14.68H75.6061V15.168H75.0701C74.7608 15.168 74.4968 15.1787 74.2781 15.2C74.0595 15.216 73.8808 15.2507 73.7421 15.304C73.6035 15.352 73.5021 15.4187 73.4381 15.504C73.3741 15.5893 73.3421 15.7013 73.3421 15.84C73.3421 16.0533 73.4248 16.2187 73.5901 16.336C73.7608 16.4533 73.9768 16.512 74.2381 16.512C74.4675 16.512 74.6755 16.4613 74.8621 16.36C75.0541 16.2533 75.2061 16.112 75.3181 15.936C75.4355 15.76 75.4941 15.5653 75.4941 15.352V14.448C75.4941 14.1333 75.4061 13.9067 75.2301 13.768C75.0541 13.624 74.7928 13.552 74.4461 13.552C74.2115 13.552 73.9768 13.584 73.7421 13.648C73.5128 13.712 73.2755 13.8187 73.0301 13.968L72.7981 13.44C72.9635 13.3387 73.1395 13.256 73.3261 13.192C73.5128 13.1227 73.7075 13.0693 73.9101 13.032C74.1128 12.9947 74.3155 12.976 74.5181 12.976C74.8595 12.976 75.1528 13.0293 75.3981 13.136C75.6488 13.2427 75.8408 13.408 75.9741 13.632C76.1128 13.856 76.1821 14.1493 76.1821 14.512V17H75.5581V16.136C75.4835 16.3013 75.3795 16.456 75.2461 16.6C75.1128 16.744 74.9501 16.8587 74.7581 16.944C74.5715 17.0293 74.3555 17.072 74.1101 17.072ZM77.5948 17V13.048H78.2428V13.96H78.2508C78.3468 13.6667 78.5148 13.4373 78.7548 13.272C78.9948 13.1013 79.2881 13.0053 79.6348 12.984L79.9948 12.968L80.0588 13.616L79.4828 13.664C79.1148 13.696 78.8268 13.8187 78.6188 14.032C78.4108 14.24 78.3068 14.5013 78.3068 14.816V17H77.5948ZM85.7009 17.072C85.1623 17.072 84.6929 16.9573 84.2929 16.728C83.8983 16.4933 83.5943 16.16 83.3809 15.728C83.1676 15.2907 83.0609 14.7733 83.0609 14.176C83.0609 13.5787 83.1676 13.064 83.3809 12.632C83.5943 12.2 83.8983 11.8693 84.2929 11.64C84.6876 11.4053 85.1569 11.288 85.7009 11.288C86.0956 11.288 86.4556 11.3493 86.7809 11.472C87.1063 11.5893 87.3863 11.7627 87.6209 11.992L87.3409 12.552C87.0956 12.3333 86.8423 12.176 86.5809 12.08C86.3249 11.984 86.0369 11.936 85.7169 11.936C85.1196 11.936 84.6503 12.128 84.3089 12.512C83.9729 12.8907 83.8049 13.4453 83.8049 14.176C83.8049 14.9013 83.9729 15.4587 84.3089 15.848C84.6449 16.232 85.1143 16.424 85.7169 16.424C86.0369 16.424 86.3249 16.376 86.5809 16.28C86.8423 16.184 87.0956 16.0267 87.3409 15.808L87.6209 16.368C87.3863 16.5973 87.1063 16.7733 86.7809 16.896C86.4556 17.0133 86.0956 17.072 85.7009 17.072ZM90.2523 17.072C89.8523 17.072 89.5056 16.9867 89.2123 16.816C88.919 16.6453 88.6923 16.408 88.5323 16.104C88.3723 15.7947 88.2923 15.432 88.2923 15.016C88.2923 14.6053 88.3723 14.248 88.5323 13.944C88.6923 13.6347 88.919 13.3973 89.2123 13.232C89.5056 13.0613 89.8523 12.976 90.2523 12.976C90.6523 12.976 90.9963 13.0613 91.2843 13.232C91.5776 13.3973 91.8043 13.6347 91.9643 13.944C92.1243 14.248 92.2043 14.6053 92.2043 15.016C92.2043 15.432 92.1243 15.7947 91.9643 16.104C91.8096 16.408 91.5856 16.6453 91.2923 16.816C90.999 16.9867 90.6523 17.072 90.2523 17.072ZM90.2443 16.472C90.6336 16.472 90.9403 16.3413 91.1643 16.08C91.3883 15.8187 91.5003 15.464 91.5003 15.016C91.5003 14.568 91.3883 14.216 91.1643 13.96C90.9456 13.704 90.6416 13.576 90.2523 13.576C89.863 13.576 89.5563 13.704 89.3323 13.96C89.1083 14.216 88.9963 14.568 88.9963 15.016C88.9963 15.464 89.1083 15.8187 89.3323 16.08C89.5616 16.3413 89.8656 16.472 90.2443 16.472ZM93.3995 17V13.048H94.0635V13.904C94.1915 13.6107 94.3835 13.384 94.6395 13.224C94.8955 13.0587 95.1835 12.976 95.5035 12.976C95.8288 12.976 96.1008 13.0347 96.3195 13.152C96.5382 13.264 96.7008 13.44 96.8075 13.68C96.9195 13.9147 96.9755 14.208 96.9755 14.56V17H96.2635V14.6C96.2635 14.3867 96.2342 14.2053 96.1755 14.056C96.1168 13.9067 96.0182 13.792 95.8795 13.712C95.7462 13.6267 95.5675 13.584 95.3435 13.584C95.1088 13.584 94.8955 13.6373 94.7035 13.744C94.5168 13.8507 94.3702 13.9947 94.2635 14.176C94.1622 14.3573 94.1115 14.56 94.1115 14.784V17H93.3995ZM100.048 17.072C99.5732 17.072 99.2132 16.9467 98.9679 16.696C98.7279 16.4453 98.6079 16.088 98.6079 15.624V13.632H97.8079V13.048H98.6319V11.872H99.3199V13.048H100.736V13.632H99.3199V15.56C99.3199 15.864 99.3865 16.0907 99.5199 16.24C99.6585 16.384 99.8692 16.456 100.152 16.456C100.264 16.456 100.371 16.4453 100.472 16.424C100.579 16.4027 100.68 16.3707 100.776 16.328L100.888 16.888C100.781 16.9467 100.651 16.992 100.496 17.024C100.347 17.056 100.197 17.072 100.048 17.072ZM103.04 17.072C102.757 17.072 102.504 17.0213 102.28 16.92C102.056 16.8133 101.88 16.6693 101.752 16.488C101.624 16.3067 101.56 16.104 101.56 15.88C101.56 15.576 101.645 15.3387 101.816 15.168C101.986 14.992 102.248 14.8667 102.6 14.792C102.957 14.7173 103.413 14.68 103.968 14.68H104.536V15.168H104C103.69 15.168 103.426 15.1787 103.208 15.2C102.989 15.216 102.81 15.2507 102.672 15.304C102.533 15.352 102.432 15.4187 102.368 15.504C102.304 15.5893 102.272 15.7013 102.272 15.84C102.272 16.0533 102.354 16.2187 102.52 16.336C102.69 16.4533 102.906 16.512 103.168 16.512C103.397 16.512 103.605 16.4613 103.792 16.36C103.984 16.2533 104.136 16.112 104.248 15.936C104.365 15.76 104.424 15.5653 104.424 15.352V14.448C104.424 14.1333 104.336 13.9067 104.16 13.768C103.984 13.624 103.722 13.552 103.376 13.552C103.141 13.552 102.906 13.584 102.672 13.648C102.442 13.712 102.205 13.8187 101.96 13.968L101.728 13.44C101.893 13.3387 102.069 13.256 102.256 13.192C102.442 13.1227 102.637 13.0693 102.84 13.032C103.042 12.9947 103.245 12.976 103.448 12.976C103.789 12.976 104.082 13.0293 104.328 13.136C104.578 13.2427 104.77 13.408 104.904 13.632C105.042 13.856 105.112 14.1493 105.112 14.512V17H104.488V16.136C104.413 16.3013 104.309 16.456 104.176 16.6C104.042 16.744 103.88 16.8587 103.688 16.944C103.501 17.0293 103.285 17.072 103.04 17.072ZM106.445 12.096V11.304H107.309V12.096H106.445ZM106.525 17V13.048H107.237V17H106.525ZM108.657 17V13.048H109.321V13.904C109.449 13.6107 109.641 13.384 109.897 13.224C110.153 13.0587 110.441 12.976 110.761 12.976C111.087 12.976 111.359 13.0347 111.577 13.152C111.796 13.264 111.959 13.44 112.065 13.68C112.177 13.9147 112.233 14.208 112.233 14.56V17H111.521V14.6C111.521 14.3867 111.492 14.2053 111.433 14.056C111.375 13.9067 111.276 13.792 111.137 13.712C111.004 13.6267 110.825 13.584 110.601 13.584C110.367 13.584 110.153 13.6373 109.961 13.744C109.775 13.8507 109.628 13.9947 109.521 14.176C109.42 14.3573 109.369 14.56 109.369 14.784V17H108.657ZM115.546 17.072C115.103 17.072 114.719 16.992 114.394 16.832C114.074 16.6667 113.828 16.432 113.658 16.128C113.487 15.8187 113.402 15.4507 113.402 15.024C113.402 14.624 113.482 14.272 113.642 13.968C113.802 13.6587 114.028 13.416 114.322 13.24C114.615 13.064 114.964 12.976 115.37 12.976C115.754 12.976 116.079 13.0587 116.346 13.224C116.618 13.3893 116.823 13.6213 116.962 13.92C117.106 14.2187 117.178 14.5733 117.178 14.984V15.216H113.938V14.72H116.714L116.562 14.88C116.562 14.4427 116.458 14.1067 116.25 13.872C116.047 13.6373 115.754 13.52 115.37 13.52C115.119 13.52 114.895 13.5787 114.698 13.696C114.506 13.808 114.356 13.968 114.25 14.176C114.143 14.384 114.09 14.6373 114.09 14.936V15.016C114.09 15.336 114.148 15.6053 114.266 15.824C114.383 16.0427 114.551 16.208 114.77 16.32C114.988 16.432 115.25 16.488 115.554 16.488C115.772 16.488 115.994 16.4587 116.218 16.4C116.447 16.336 116.66 16.224 116.858 16.064L117.098 16.576C116.895 16.7467 116.652 16.872 116.37 16.952C116.092 17.032 115.818 17.072 115.546 17.072ZM118.353 17V13.048H119.001V13.96H119.009C119.105 13.6667 119.273 13.4373 119.513 13.272C119.753 13.1013 120.046 13.0053 120.393 12.984L120.753 12.968L120.817 13.616L120.241 13.664C119.873 13.696 119.585 13.8187 119.377 14.032C119.169 14.24 119.065 14.5013 119.065 14.816V17H118.353ZM121.804 18.152L121.444 17.872C121.54 17.7813 121.615 17.6773 121.668 17.56C121.727 17.448 121.77 17.3307 121.796 17.208C121.823 17.0907 121.839 16.9813 121.844 16.88L121.98 17H121.396V16.12H122.308V16.776C122.308 16.9413 122.292 17.1067 122.26 17.272C122.228 17.4373 122.175 17.5947 122.1 17.744C122.026 17.8933 121.927 18.0293 121.804 18.152ZM0.832 28V22.36H3.152C3.55733 22.36 3.90133 22.4267 4.184 22.56C4.46667 22.6933 4.68267 22.888 4.832 23.144C4.98667 23.3947 5.064 23.6987 5.064 24.056C5.064 24.4133 4.98667 24.72 4.832 24.976C4.68267 25.232 4.464 25.4293 4.176 25.568C3.89333 25.7067 3.552 25.776 3.152 25.776H1.544V28H0.832ZM1.544 25.168H3.048C3.47467 25.168 3.79733 25.0773 4.016 24.896C4.23467 24.7093 4.344 24.432 4.344 24.064C4.344 23.6907 4.23467 23.416 4.016 23.24C3.79733 23.0587 3.47467 22.968 3.048 22.968H1.544V25.168ZM7.93631 28.072C7.49365 28.072 7.10965 27.992 6.78431 27.832C6.46431 27.6667 6.21898 27.432 6.04831 27.128C5.87765 26.8187 5.79231 26.4507 5.79231 26.024C5.79231 25.624 5.87231 25.272 6.03231 24.968C6.19231 24.6587 6.41898 24.416 6.71231 24.24C7.00565 24.064 7.35498 23.976 7.76031 23.976C8.14431 23.976 8.46965 24.0587 8.73631 24.224C9.00831 24.3893 9.21365 24.6213 9.35231 24.92C9.49631 25.2187 9.56831 25.5733 9.56831 25.984V26.216H6.32831V25.72H9.10431L8.95231 25.88C8.95231 25.4427 8.84831 25.1067 8.64031 24.872C8.43765 24.6373 8.14431 24.52 7.76031 24.52C7.50965 24.52 7.28565 24.5787 7.08831 24.696C6.89631 24.808 6.74698 24.968 6.64031 25.176C6.53365 25.384 6.48031 25.6373 6.48031 25.936V26.016C6.48031 26.336 6.53898 26.6053 6.65631 26.824C6.77365 27.0427 6.94165 27.208 7.16031 27.32C7.37898 27.432 7.64031 27.488 7.94431 27.488C8.16298 27.488 8.38431 27.4587 8.60831 27.4C8.83765 27.336 9.05098 27.224 9.24831 27.064L9.48831 27.576C9.28565 27.7467 9.04298 27.872 8.76031 27.952C8.48298 28.032 8.20831 28.072 7.93631 28.072ZM10.7433 28V24.048H11.3913V24.96H11.3993C11.4953 24.6667 11.6633 24.4373 11.9033 24.272C12.1433 24.1013 12.4366 24.0053 12.7833 23.984L13.1433 23.968L13.2073 24.616L12.6313 24.664C12.2633 24.696 11.9753 24.8187 11.7673 25.032C11.5593 25.24 11.4553 25.5013 11.4553 25.816V28H10.7433ZM14.5379 28V24.608H13.7299V24.048H14.7219L14.5379 24.232V23.976C14.5379 23.4587 14.6819 23.0667 14.9699 22.8C15.2579 22.528 15.6766 22.376 16.2259 22.344L16.6419 22.32L16.6979 22.904L16.2179 22.936C16.0259 22.9467 15.8579 22.984 15.7139 23.048C15.5699 23.1067 15.4553 23.2027 15.3699 23.336C15.2899 23.4693 15.2499 23.656 15.2499 23.896V24.128L15.1379 24.048H16.4979V24.608H15.2499V28H14.5379ZM19.2098 28.072C18.7671 28.072 18.3831 27.992 18.0578 27.832C17.7378 27.6667 17.4924 27.432 17.3218 27.128C17.1511 26.8187 17.0658 26.4507 17.0658 26.024C17.0658 25.624 17.1458 25.272 17.3058 24.968C17.4658 24.6587 17.6924 24.416 17.9858 24.24C18.2791 24.064 18.6284 23.976 19.0338 23.976C19.4178 23.976 19.7431 24.0587 20.0098 24.224C20.2818 24.3893 20.4871 24.6213 20.6258 24.92C20.7698 25.2187 20.8418 25.5733 20.8418 25.984V26.216H17.6018V25.72H20.3778L20.2258 25.88C20.2258 25.4427 20.1218 25.1067 19.9138 24.872C19.7111 24.6373 19.4178 24.52 19.0338 24.52C18.7831 24.52 18.5591 24.5787 18.3618 24.696C18.1698 24.808 18.0204 24.968 17.9138 25.176C17.8071 25.384 17.7538 25.6373 17.7538 25.936V26.016C17.7538 26.336 17.8124 26.6053 17.9298 26.824C18.0471 27.0427 18.2151 27.208 18.4338 27.32C18.6524 27.432 18.9138 27.488 19.2178 27.488C19.4364 27.488 19.6578 27.4587 19.8818 27.4C20.1111 27.336 20.3244 27.224 20.5218 27.064L20.7618 27.576C20.5591 27.7467 20.3164 27.872 20.0338 27.952C19.7564 28.032 19.4818 28.072 19.2098 28.072ZM23.7767 28.072C23.3714 28.072 23.0194 27.9867 22.7207 27.816C22.422 27.6453 22.19 27.408 22.0247 27.104C21.8594 26.7947 21.7767 26.432 21.7767 26.016C21.7767 25.6 21.8594 25.24 22.0247 24.936C22.19 24.6267 22.422 24.3893 22.7207 24.224C23.0247 24.0587 23.3794 23.976 23.7847 23.976C24.0567 23.976 24.3154 24.0213 24.5607 24.112C24.806 24.2027 25.0087 24.3253 25.1687 24.48L24.9207 25.008C24.766 24.8693 24.5927 24.7653 24.4007 24.696C24.2087 24.6213 24.022 24.584 23.8407 24.584C23.4247 24.584 23.0967 24.7093 22.8567 24.96C22.6167 25.2107 22.4967 25.5653 22.4967 26.024C22.4967 26.4773 22.6167 26.832 22.8567 27.088C23.0967 27.3387 23.422 27.464 23.8327 27.464C24.0194 27.464 24.206 27.4293 24.3927 27.36C24.5847 27.2853 24.7554 27.1813 24.9047 27.048L25.1527 27.576C24.998 27.7307 24.798 27.8533 24.5527 27.944C24.3074 28.0293 24.0487 28.072 23.7767 28.072ZM27.7432 28.072C27.2685 28.072 26.9085 27.9467 26.6632 27.696C26.4232 27.4453 26.3032 27.088 26.3032 26.624V24.632H25.5032V24.048H26.3272V22.872H27.0152V24.048H28.4312V24.632H27.0152V26.56C27.0152 26.864 27.0819 27.0907 27.2152 27.24C27.3539 27.384 27.5645 27.456 27.8472 27.456C27.9592 27.456 28.0659 27.4453 28.1672 27.424C28.2739 27.4027 28.3752 27.3707 28.4712 27.328L28.5832 27.888C28.4765 27.9467 28.3459 27.992 28.1912 28.024C28.0419 28.056 27.8925 28.072 27.7432 28.072ZM31.7695 28V22.36H35.4175V22.984H32.4815V24.864H35.2575V25.48H32.4815V28H31.7695ZM38.0492 28.072C37.6492 28.072 37.3025 27.9867 37.0092 27.816C36.7159 27.6453 36.4892 27.408 36.3292 27.104C36.1692 26.7947 36.0892 26.432 36.0892 26.016C36.0892 25.6053 36.1692 25.248 36.3292 24.944C36.4892 24.6347 36.7159 24.3973 37.0092 24.232C37.3025 24.0613 37.6492 23.976 38.0492 23.976C38.4492 23.976 38.7932 24.0613 39.0812 24.232C39.3745 24.3973 39.6012 24.6347 39.7612 24.944C39.9212 25.248 40.0012 25.6053 40.0012 26.016C40.0012 26.432 39.9212 26.7947 39.7612 27.104C39.6065 27.408 39.3825 27.6453 39.0892 27.816C38.7959 27.9867 38.4492 28.072 38.0492 28.072ZM38.0412 27.472C38.4305 27.472 38.7372 27.3413 38.9612 27.08C39.1852 26.8187 39.2972 26.464 39.2972 26.016C39.2972 25.568 39.1852 25.216 38.9612 24.96C38.7425 24.704 38.4385 24.576 38.0492 24.576C37.6599 24.576 37.3532 24.704 37.1292 24.96C36.9052 25.216 36.7932 25.568 36.7932 26.016C36.7932 26.464 36.9052 26.8187 37.1292 27.08C37.3585 27.3413 37.6625 27.472 38.0412 27.472ZM41.1964 28V24.048H41.8444V24.96H41.8524C41.9484 24.6667 42.1164 24.4373 42.3564 24.272C42.5964 24.1013 42.8897 24.0053 43.2364 23.984L43.5964 23.968L43.6604 24.616L43.0844 24.664C42.7164 24.696 42.4284 24.8187 42.2204 25.032C42.0124 25.24 41.9084 25.5013 41.9084 25.816V28H41.1964ZM46.8945 28V22.36H47.6065V27.368H50.4705V28H46.8945ZM52.7508 28.072C52.4681 28.072 52.2148 28.0213 51.9908 27.92C51.7668 27.8133 51.5908 27.6693 51.4628 27.488C51.3348 27.3067 51.2708 27.104 51.2708 26.88C51.2708 26.576 51.3561 26.3387 51.5268 26.168C51.6974 25.992 51.9588 25.8667 52.3108 25.792C52.6681 25.7173 53.1241 25.68 53.6788 25.68H54.2468V26.168H53.7108C53.4014 26.168 53.1374 26.1787 52.9188 26.2C52.7001 26.216 52.5214 26.2507 52.3828 26.304C52.2441 26.352 52.1428 26.4187 52.0788 26.504C52.0148 26.5893 51.9828 26.7013 51.9828 26.84C51.9828 27.0533 52.0654 27.2187 52.2308 27.336C52.4014 27.4533 52.6174 27.512 52.8788 27.512C53.1081 27.512 53.3161 27.4613 53.5028 27.36C53.6948 27.2533 53.8468 27.112 53.9588 26.936C54.0761 26.76 54.1348 26.5653 54.1348 26.352V25.448C54.1348 25.1333 54.0468 24.9067 53.8708 24.768C53.6948 24.624 53.4334 24.552 53.0868 24.552C52.8521 24.552 52.6174 24.584 52.3828 24.648C52.1534 24.712 51.9161 24.8187 51.6708 24.968L51.4388 24.44C51.6041 24.3387 51.7801 24.256 51.9668 24.192C52.1534 24.1227 52.3481 24.0693 52.5508 24.032C52.7534 23.9947 52.9561 23.976 53.1588 23.976C53.5001 23.976 53.7934 24.0293 54.0388 24.136C54.2894 24.2427 54.4814 24.408 54.6148 24.632C54.7534 24.856 54.8228 25.1493 54.8228 25.512V28H54.1988V27.136C54.1241 27.3013 54.0201 27.456 53.8868 27.6C53.7534 27.744 53.5908 27.8587 53.3988 27.944C53.2121 28.0293 52.9961 28.072 52.7508 28.072ZM56.2354 28V24.048H56.8834V24.96H56.8914C56.9874 24.6667 57.1554 24.4373 57.3954 24.272C57.6354 24.1013 57.9288 24.0053 58.2754 23.984L58.6354 23.968L58.6994 24.616L58.1234 24.664C57.7554 24.696 57.4674 24.8187 57.2594 25.032C57.0514 25.24 56.9474 25.5013 56.9474 25.816V28H56.2354ZM61.2443 29.512C60.9296 29.512 60.6176 29.464 60.3083 29.368C59.999 29.2773 59.735 29.152 59.5163 28.992L59.7403 28.44C59.8896 28.536 60.047 28.6187 60.2123 28.688C60.3776 28.7627 60.5456 28.816 60.7163 28.848C60.8923 28.8853 61.0656 28.904 61.2363 28.904C61.647 28.904 61.967 28.8 62.1963 28.592C62.431 28.384 62.5483 28.088 62.5483 27.704V26.976H62.5323C62.4363 27.248 62.263 27.4693 62.0123 27.64C61.7616 27.8053 61.471 27.888 61.1403 27.888C60.767 27.888 60.4416 27.808 60.1643 27.648C59.887 27.4827 59.671 27.2533 59.5163 26.96C59.367 26.6667 59.2923 26.3227 59.2923 25.928C59.2923 25.5387 59.367 25.1973 59.5163 24.904C59.671 24.6107 59.887 24.384 60.1643 24.224C60.4416 24.0587 60.767 23.976 61.1403 23.976C61.471 23.976 61.7616 24.0613 62.0123 24.232C62.2683 24.4027 62.4443 24.6293 62.5403 24.912H62.5483V24.048H63.2123V27.64C63.2123 28.024 63.1323 28.3547 62.9723 28.632C62.8176 28.9147 62.5936 29.1307 62.3003 29.28C62.007 29.4347 61.655 29.512 61.2443 29.512ZM61.2603 27.304C61.6496 27.304 61.9563 27.1787 62.1803 26.928C62.4096 26.6773 62.5243 26.344 62.5243 25.928C62.5243 25.512 62.4096 25.1813 62.1803 24.936C61.9563 24.6853 61.6496 24.56 61.2603 24.56C60.8763 24.56 60.5696 24.6853 60.3403 24.936C60.1163 25.1813 60.0043 25.512 60.0043 25.928C60.0043 26.344 60.1163 26.6773 60.3403 26.928C60.5696 27.1787 60.8763 27.304 61.2603 27.304ZM66.5379 28.072C66.0952 28.072 65.7112 27.992 65.3859 27.832C65.0659 27.6667 64.8205 27.432 64.6499 27.128C64.4792 26.8187 64.3939 26.4507 64.3939 26.024C64.3939 25.624 64.4739 25.272 64.6339 24.968C64.7939 24.6587 65.0205 24.416 65.3139 24.24C65.6072 24.064 65.9565 23.976 66.3619 23.976C66.7459 23.976 67.0712 24.0587 67.3379 24.224C67.6099 24.3893 67.8152 24.6213 67.9539 24.92C68.0979 25.2187 68.1699 25.5733 68.1699 25.984V26.216H64.9299V25.72H67.7059L67.5539 25.88C67.5539 25.4427 67.4499 25.1067 67.2419 24.872C67.0392 24.6373 66.7459 24.52 66.3619 24.52C66.1112 24.52 65.8872 24.5787 65.6899 24.696C65.4979 24.808 65.3485 24.968 65.2419 25.176C65.1352 25.384 65.0819 25.6373 65.0819 25.936V26.016C65.0819 26.336 65.1405 26.6053 65.2579 26.824C65.3752 27.0427 65.5432 27.208 65.7619 27.32C65.9805 27.432 66.2419 27.488 66.5459 27.488C66.7645 27.488 66.9859 27.4587 67.2099 27.4C67.4392 27.336 67.6525 27.224 67.8499 27.064L68.0899 27.576C67.8872 27.7467 67.6445 27.872 67.3619 27.952C67.0845 28.032 66.8099 28.072 66.5379 28.072ZM71.6992 28V22.36H74.0192C74.4245 22.36 74.7685 22.4267 75.0512 22.56C75.3339 22.6933 75.5499 22.888 75.6992 23.144C75.8539 23.3947 75.9312 23.6987 75.9312 24.056C75.9312 24.4133 75.8539 24.72 75.6992 24.976C75.5499 25.232 75.3312 25.4293 75.0432 25.568C74.7605 25.7067 74.4192 25.776 74.0192 25.776H72.4112V28H71.6992ZM72.4112 25.168H73.9152C74.3419 25.168 74.6645 25.0773 74.8832 24.896C75.1019 24.7093 75.2112 24.432 75.2112 24.064C75.2112 23.6907 75.1019 23.416 74.8832 23.24C74.6645 23.0587 74.3419 22.968 73.9152 22.968H72.4112V25.168ZM78.6195 28.072C78.2195 28.072 77.8728 27.9867 77.5795 27.816C77.2862 27.6453 77.0595 27.408 76.8995 27.104C76.7395 26.7947 76.6595 26.432 76.6595 26.016C76.6595 25.6053 76.7395 25.248 76.8995 24.944C77.0595 24.6347 77.2862 24.3973 77.5795 24.232C77.8728 24.0613 78.2195 23.976 78.6195 23.976C79.0195 23.976 79.3635 24.0613 79.6515 24.232C79.9448 24.3973 80.1715 24.6347 80.3315 24.944C80.4915 25.248 80.5715 25.6053 80.5715 26.016C80.5715 26.432 80.4915 26.7947 80.3315 27.104C80.1768 27.408 79.9528 27.6453 79.6595 27.816C79.3662 27.9867 79.0195 28.072 78.6195 28.072ZM78.6115 27.472C79.0008 27.472 79.3075 27.3413 79.5315 27.08C79.7555 26.8187 79.8675 26.464 79.8675 26.016C79.8675 25.568 79.7555 25.216 79.5315 24.96C79.3128 24.704 79.0088 24.576 78.6195 24.576C78.2302 24.576 77.9235 24.704 77.6995 24.96C77.4755 25.216 77.3635 25.568 77.3635 26.016C77.3635 26.464 77.4755 26.8187 77.6995 27.08C77.9288 27.3413 78.2328 27.472 78.6115 27.472ZM81.7667 28V24.048H82.4147V24.96H82.4227C82.5187 24.6667 82.6867 24.4373 82.9267 24.272C83.1667 24.1013 83.46 24.0053 83.8067 23.984L84.1667 23.968L84.2307 24.616L83.6547 24.664C83.2867 24.696 82.9987 24.8187 82.7907 25.032C82.5827 25.24 82.4787 25.5013 82.4787 25.816V28H81.7667ZM86.9854 28.072C86.5107 28.072 86.1507 27.9467 85.9054 27.696C85.6654 27.4453 85.5454 27.088 85.5454 26.624V24.632H84.7454V24.048H85.5694V22.872H86.2574V24.048H87.6734V24.632H86.2574V26.56C86.2574 26.864 86.324 27.0907 86.4574 27.24C86.596 27.384 86.8067 27.456 87.0894 27.456C87.2014 27.456 87.308 27.4453 87.4094 27.424C87.516 27.4027 87.6174 27.3707 87.7134 27.328L87.8254 27.888C87.7187 27.9467 87.588 27.992 87.4334 28.024C87.284 28.056 87.1347 28.072 86.9854 28.072ZM88.5773 23.096V22.304H89.4413V23.096H88.5773ZM88.6573 28V24.048H89.3693V28H88.6573ZM92.5101 28.072C92.1101 28.072 91.7635 27.9867 91.4701 27.816C91.1768 27.6453 90.9501 27.408 90.7901 27.104C90.6301 26.7947 90.5501 26.432 90.5501 26.016C90.5501 25.6053 90.6301 25.248 90.7901 24.944C90.9501 24.6347 91.1768 24.3973 91.4701 24.232C91.7635 24.0613 92.1101 23.976 92.5101 23.976C92.9101 23.976 93.2541 24.0613 93.5421 24.232C93.8355 24.3973 94.0621 24.6347 94.2221 24.944C94.3821 25.248 94.4621 25.6053 94.4621 26.016C94.4621 26.432 94.3821 26.7947 94.2221 27.104C94.0675 27.408 93.8435 27.6453 93.5501 27.816C93.2568 27.9867 92.9101 28.072 92.5101 28.072ZM92.5021 27.472C92.8915 27.472 93.1981 27.3413 93.4221 27.08C93.6461 26.8187 93.7581 26.464 93.7581 26.016C93.7581 25.568 93.6461 25.216 93.4221 24.96C93.2035 24.704 92.8995 24.576 92.5101 24.576C92.1208 24.576 91.8141 24.704 91.5901 24.96C91.3661 25.216 91.2541 25.568 91.2541 26.016C91.2541 26.464 91.3661 26.8187 91.5901 27.08C91.8195 27.3413 92.1235 27.472 92.5021 27.472ZM95.6573 28V24.048H96.3213V24.904C96.4493 24.6107 96.6413 24.384 96.8973 24.224C97.1533 24.0587 97.4413 23.976 97.7613 23.976C98.0866 23.976 98.3586 24.0347 98.5773 24.152C98.796 24.264 98.9586 24.44 99.0653 24.68C99.1773 24.9147 99.2333 25.208 99.2333 25.56V28H98.5213V25.6C98.5213 25.3867 98.492 25.2053 98.4333 25.056C98.3746 24.9067 98.276 24.792 98.1373 24.712C98.004 24.6267 97.8253 24.584 97.6013 24.584C97.3666 24.584 97.1533 24.6373 96.9613 24.744C96.7746 24.8507 96.628 24.9947 96.5213 25.176C96.42 25.3573 96.3693 25.56 96.3693 25.784V28H95.6573ZM102.098 28.072C101.879 28.072 101.663 28.0507 101.45 28.008C101.242 27.9707 101.047 27.9173 100.866 27.848C100.69 27.7733 100.538 27.6827 100.41 27.576L100.642 27.072C100.775 27.1733 100.922 27.256 101.082 27.32C101.247 27.384 101.415 27.432 101.586 27.464C101.762 27.4907 101.93 27.504 102.09 27.504C102.42 27.504 102.674 27.4533 102.85 27.352C103.031 27.2507 103.122 27.1093 103.122 26.928C103.122 26.7733 103.068 26.656 102.962 26.576C102.86 26.4907 102.69 26.4267 102.45 26.384L101.626 26.24C101.258 26.1707 100.98 26.0453 100.794 25.864C100.612 25.6827 100.522 25.4453 100.522 25.152C100.522 24.9173 100.586 24.712 100.714 24.536C100.847 24.36 101.036 24.224 101.282 24.128C101.527 24.0267 101.82 23.976 102.162 23.976C102.348 23.976 102.538 23.9947 102.73 24.032C102.927 24.0693 103.108 24.1253 103.274 24.2C103.444 24.2693 103.583 24.3573 103.69 24.464L103.45 24.968C103.343 24.8667 103.215 24.7867 103.066 24.728C102.922 24.664 102.77 24.6187 102.61 24.592C102.455 24.56 102.303 24.544 102.154 24.544C101.844 24.544 101.604 24.5973 101.434 24.704C101.263 24.8053 101.178 24.9493 101.178 25.136C101.178 25.2853 101.226 25.4027 101.322 25.488C101.423 25.5733 101.586 25.6373 101.81 25.68L102.61 25.824C103.004 25.8987 103.298 26.024 103.49 26.2C103.682 26.3707 103.778 26.608 103.778 26.912C103.778 27.1467 103.708 27.352 103.57 27.528C103.431 27.6987 103.236 27.832 102.986 27.928C102.735 28.024 102.439 28.072 102.098 28.072ZM104.242 26.088V25.6H112.242V26.088H104.242ZM113.074 28V22.36H113.786V28H113.074ZM116.905 28.072C116.543 28.072 116.225 27.9867 115.953 27.816C115.681 27.6453 115.468 27.4053 115.313 27.096C115.164 26.7867 115.089 26.4293 115.089 26.024C115.089 25.6133 115.164 25.256 115.313 24.952C115.463 24.6427 115.673 24.4027 115.945 24.232C116.217 24.0613 116.535 23.976 116.897 23.976C117.239 23.976 117.529 24.056 117.769 24.216C118.015 24.376 118.191 24.5947 118.297 24.872V22.36H119.009V28H118.353V27.128C118.236 27.4267 118.052 27.6587 117.801 27.824C117.551 27.9893 117.252 28.072 116.905 28.072ZM117.057 27.488C117.447 27.488 117.751 27.3573 117.969 27.096C118.193 26.8347 118.305 26.4773 118.305 26.024C118.305 25.5707 118.193 25.2133 117.969 24.952C117.751 24.6907 117.447 24.56 117.057 24.56C116.673 24.56 116.367 24.6907 116.137 24.952C115.913 25.2133 115.801 25.5707 115.801 26.024C115.801 26.4773 115.913 26.8347 116.137 27.096C116.361 27.3573 116.668 27.488 117.057 27.488ZM122.335 28.072C121.892 28.072 121.508 27.992 121.183 27.832C120.863 27.6667 120.617 27.432 120.447 27.128C120.276 26.8187 120.191 26.4507 120.191 26.024C120.191 25.624 120.271 25.272 120.431 24.968C120.591 24.6587 120.817 24.416 121.111 24.24C121.404 24.064 121.753 23.976 122.159 23.976C122.543 23.976 122.868 24.0587 123.135 24.224C123.407 24.3893 123.612 24.6213 123.751 24.92C123.895 25.2187 123.967 25.5733 123.967 25.984V26.216H120.727V25.72H123.503L123.351 25.88C123.351 25.4427 123.247 25.1067 123.039 24.872C122.836 24.6373 122.543 24.52 122.159 24.52C121.908 24.52 121.684 24.5787 121.487 24.696C121.295 24.808 121.145 24.968 121.039 25.176C120.932 25.384 120.879 25.6373 120.879 25.936V26.016C120.879 26.336 120.937 26.6053 121.055 26.824C121.172 27.0427 121.34 27.208 121.559 27.32C121.777 27.432 122.039 27.488 122.343 27.488C122.561 27.488 122.783 27.4587 123.007 27.4C123.236 27.336 123.449 27.224 123.647 27.064L123.887 27.576C123.684 27.7467 123.441 27.872 123.159 27.952C122.881 28.032 122.607 28.072 122.335 28.072ZM126.462 28.072C126.179 28.072 125.926 28.0213 125.702 27.92C125.478 27.8133 125.302 27.6693 125.174 27.488C125.046 27.3067 124.982 27.104 124.982 26.88C124.982 26.576 125.067 26.3387 125.238 26.168C125.408 25.992 125.67 25.8667 126.022 25.792C126.379 25.7173 126.835 25.68 127.39 25.68H127.958V26.168H127.422C127.112 26.168 126.848 26.1787 126.63 26.2C126.411 26.216 126.232 26.2507 126.094 26.304C125.955 26.352 125.854 26.4187 125.79 26.504C125.726 26.5893 125.694 26.7013 125.694 26.84C125.694 27.0533 125.776 27.2187 125.942 27.336C126.112 27.4533 126.328 27.512 126.59 27.512C126.819 27.512 127.027 27.4613 127.214 27.36C127.406 27.2533 127.558 27.112 127.67 26.936C127.787 26.76 127.846 26.5653 127.846 26.352V25.448C127.846 25.1333 127.758 24.9067 127.582 24.768C127.406 24.624 127.144 24.552 126.798 24.552C126.563 24.552 126.328 24.584 126.094 24.648C125.864 24.712 125.627 24.8187 125.382 24.968L125.15 24.44C125.315 24.3387 125.491 24.256 125.678 24.192C125.864 24.1227 126.059 24.0693 126.262 24.032C126.464 23.9947 126.667 23.976 126.87 23.976C127.211 23.976 127.504 24.0293 127.75 24.136C128 24.2427 128.192 24.408 128.326 24.632C128.464 24.856 128.534 25.1493 128.534 25.512V28H127.91V27.136C127.835 27.3013 127.731 27.456 127.598 27.6C127.464 27.744 127.302 27.8587 127.11 27.944C126.923 28.0293 126.707 28.072 126.462 28.072ZM131.146 28.072C130.762 28.072 130.466 27.96 130.258 27.736C130.05 27.512 129.946 27.1973 129.946 26.792V22.36H130.658V26.72C130.658 26.88 130.682 27.0187 130.73 27.136C130.778 27.248 130.848 27.3333 130.938 27.392C131.029 27.4507 131.138 27.48 131.266 27.48C131.346 27.48 131.421 27.4773 131.49 27.472C131.565 27.4613 131.64 27.4453 131.714 27.424L131.73 27.984C131.64 28.016 131.546 28.0373 131.45 28.048C131.36 28.064 131.258 28.072 131.146 28.072ZM134.887 28V22.36H138.535V22.984H135.599V24.864H138.375V25.48H135.599V28H134.887ZM141.166 28.072C140.766 28.072 140.42 27.9867 140.126 27.816C139.833 27.6453 139.606 27.408 139.446 27.104C139.286 26.7947 139.206 26.432 139.206 26.016C139.206 25.6053 139.286 25.248 139.446 24.944C139.606 24.6347 139.833 24.3973 140.126 24.232C140.42 24.0613 140.766 23.976 141.166 23.976C141.566 23.976 141.91 24.0613 142.198 24.232C142.492 24.3973 142.718 24.6347 142.878 24.944C143.038 25.248 143.118 25.6053 143.118 26.016C143.118 26.432 143.038 26.7947 142.878 27.104C142.724 27.408 142.5 27.6453 142.206 27.816C141.913 27.9867 141.566 28.072 141.166 28.072ZM141.158 27.472C141.548 27.472 141.854 27.3413 142.078 27.08C142.302 26.8187 142.414 26.464 142.414 26.016C142.414 25.568 142.302 25.216 142.078 24.96C141.86 24.704 141.556 24.576 141.166 24.576C140.777 24.576 140.47 24.704 140.246 24.96C140.022 25.216 139.91 25.568 139.91 26.016C139.91 26.464 140.022 26.8187 140.246 27.08C140.476 27.3413 140.78 27.472 141.158 27.472ZM144.314 28V24.048H144.962V24.96H144.97C145.066 24.6667 145.234 24.4373 145.474 24.272C145.714 24.1013 146.007 24.0053 146.354 23.984L146.714 23.968L146.778 24.616L146.202 24.664C145.834 24.696 145.546 24.8187 145.338 25.032C145.13 25.24 145.026 25.5013 145.026 25.816V28H144.314ZM0.832 39V33.36H3.168C3.76 33.36 4.21867 33.488 4.544 33.744C4.86933 33.9947 5.032 34.3573 5.032 34.832C5.032 35.1787 4.94133 35.4613 4.76 35.68C4.57867 35.8987 4.34933 36.04 4.072 36.104V36.096C4.26933 36.128 4.45067 36.2 4.616 36.312C4.78133 36.424 4.91467 36.576 5.016 36.768C5.11733 36.9547 5.168 37.1813 5.168 37.448C5.168 37.7787 5.09333 38.0613 4.944 38.296C4.79467 38.5253 4.576 38.7013 4.288 38.824C4.00533 38.9413 3.66133 39 3.256 39H0.832ZM1.536 38.392H3.224C3.38933 38.392 3.53867 38.3813 3.672 38.36C3.80533 38.3333 3.92 38.2933 4.016 38.24C4.11733 38.1867 4.2 38.1227 4.264 38.048C4.328 37.968 4.376 37.8773 4.408 37.776C4.44 37.6747 4.456 37.56 4.456 37.432C4.456 37.2987 4.43733 37.1787 4.4 37.072C4.368 36.9653 4.31733 36.8747 4.248 36.8C4.184 36.72 4.10133 36.6533 4 36.6C3.904 36.5467 3.78933 36.5093 3.656 36.488C3.528 36.4613 3.384 36.448 3.224 36.448H1.536V38.392ZM1.536 35.848H3.096C3.50133 35.848 3.80533 35.768 4.008 35.608C4.216 35.4427 4.32 35.2 4.32 34.88C4.32 34.576 4.21867 34.3493 4.016 34.2C3.81867 34.0453 3.512 33.968 3.096 33.968H1.536V35.848ZM6.41325 34.096V33.304H7.27725V34.096H6.41325ZM6.49325 39V35.048H7.20525V39H6.49325ZM8.62606 39V35.048H9.27406V35.96H9.28206C9.37806 35.6667 9.54606 35.4373 9.78606 35.272C10.0261 35.1013 10.3194 35.0053 10.6661 34.984L11.0261 34.968L11.0901 35.616L10.5141 35.664C10.1461 35.696 9.85806 35.8187 9.65006 36.032C9.44206 36.24 9.33806 36.5013 9.33806 36.816V39H8.62606ZM12.692 40.44L13.444 38.744V39.248L11.668 35.048H12.428L13.716 38.304H13.676L14.964 35.048H15.708L13.444 40.44H12.692ZM17.8211 39.072C17.5384 39.072 17.2851 39.0213 17.0611 38.92C16.8371 38.8133 16.6611 38.6693 16.5331 38.488C16.4051 38.3067 16.3411 38.104 16.3411 37.88C16.3411 37.576 16.4264 37.3387 16.5971 37.168C16.7677 36.992 17.0291 36.8667 17.3811 36.792C17.7384 36.7173 18.1944 36.68 18.7491 36.68H19.3171V37.168H18.7811C18.4717 37.168 18.2077 37.1787 17.9891 37.2C17.7704 37.216 17.5917 37.2507 17.4531 37.304C17.3144 37.352 17.2131 37.4187 17.1491 37.504C17.0851 37.5893 17.0531 37.7013 17.0531 37.84C17.0531 38.0533 17.1357 38.2187 17.3011 38.336C17.4717 38.4533 17.6877 38.512 17.9491 38.512C18.1784 38.512 18.3864 38.4613 18.5731 38.36C18.7651 38.2533 18.9171 38.112 19.0291 37.936C19.1464 37.76 19.2051 37.5653 19.2051 37.352V36.448C19.2051 36.1333 19.1171 35.9067 18.9411 35.768C18.7651 35.624 18.5037 35.552 18.1571 35.552C17.9224 35.552 17.6877 35.584 17.4531 35.648C17.2237 35.712 16.9864 35.8187 16.7411 35.968L16.5091 35.44C16.6744 35.3387 16.8504 35.256 17.0371 35.192C17.2237 35.1227 17.4184 35.0693 17.6211 35.032C17.8237 34.9947 18.0264 34.976 18.2291 34.976C18.5704 34.976 18.8637 35.0293 19.1091 35.136C19.3597 35.2427 19.5517 35.408 19.6851 35.632C19.8237 35.856 19.8931 36.1493 19.8931 36.512V39H19.2691V38.136C19.1944 38.3013 19.0904 38.456 18.9571 38.6C18.8237 38.744 18.6611 38.8587 18.4691 38.944C18.2824 39.0293 18.0664 39.072 17.8211 39.072ZM21.3058 39V35.048H21.9698V35.904C22.0978 35.6107 22.2898 35.384 22.5458 35.224C22.8018 35.0587 23.0898 34.976 23.4098 34.976C23.7351 34.976 24.0071 35.0347 24.2258 35.152C24.4444 35.264 24.6071 35.44 24.7138 35.68C24.8258 35.9147 24.8818 36.208 24.8818 36.56V39H24.1698V36.6C24.1698 36.3867 24.1404 36.2053 24.0818 36.056C24.0231 35.9067 23.9244 35.792 23.7858 35.712C23.6524 35.6267 23.4738 35.584 23.2498 35.584C23.0151 35.584 22.8018 35.6373 22.6098 35.744C22.4231 35.8507 22.2764 35.9947 22.1698 36.176C22.0684 36.3573 22.0178 36.56 22.0178 36.784V39H21.3058ZM26.2101 34.096V33.304H27.0741V34.096H26.2101ZM26.2901 39V35.048H27.0021V39H26.2901ZM28.6949 40.152L28.3349 39.872C28.4309 39.7813 28.5056 39.6773 28.5589 39.56C28.6176 39.448 28.6603 39.3307 28.6869 39.208C28.7136 39.0907 28.7296 38.9813 28.7349 38.88L28.8709 39H28.2869V38.12H29.1989V38.776C29.1989 38.9413 29.1829 39.1067 29.1509 39.272C29.1189 39.4373 29.0656 39.5947 28.9909 39.744C28.9163 39.8933 28.8176 40.0293 28.6949 40.152ZM32.8398 39V33.36H35.1598C35.7678 33.36 36.2371 33.4987 36.5678 33.776C36.8985 34.0533 37.0638 34.456 37.0638 34.984C37.0638 35.2827 37.0025 35.5413 36.8798 35.76C36.7625 35.9787 36.5945 36.1547 36.3758 36.288C36.1571 36.416 35.9011 36.4987 35.6078 36.536L35.6318 36.528L35.7118 36.544C35.8451 36.5653 35.9651 36.6213 36.0718 36.712C36.1785 36.8027 36.2825 36.944 36.3838 37.136L37.3758 39H36.5918L35.6478 37.232C35.5678 37.0773 35.4825 36.96 35.3918 36.88C35.3011 36.8 35.1918 36.744 35.0638 36.712C34.9411 36.68 34.7918 36.664 34.6158 36.664H33.5518V39H32.8398ZM33.5518 36.072H35.1118C35.5385 36.072 35.8505 35.984 36.0478 35.808C36.2451 35.6267 36.3438 35.3573 36.3438 35C36.3438 34.6427 36.2398 34.3813 36.0318 34.216C35.8291 34.0507 35.5118 33.968 35.0798 33.968H33.5518V36.072ZM38.3742 34.096V33.304H39.2382V34.096H38.3742ZM38.4542 39V35.048H39.1662V39H38.4542ZM42.347 39.072C41.9417 39.072 41.5897 38.9867 41.291 38.816C40.9923 38.6453 40.7603 38.408 40.595 38.104C40.4297 37.7947 40.347 37.432 40.347 37.016C40.347 36.6 40.4297 36.24 40.595 35.936C40.7603 35.6267 40.9923 35.3893 41.291 35.224C41.595 35.0587 41.9497 34.976 42.355 34.976C42.627 34.976 42.8857 35.0213 43.131 35.112C43.3763 35.2027 43.579 35.3253 43.739 35.48L43.491 36.008C43.3363 35.8693 43.163 35.7653 42.971 35.696C42.779 35.6213 42.5923 35.584 42.411 35.584C41.995 35.584 41.667 35.7093 41.427 35.96C41.187 36.2107 41.067 36.5653 41.067 37.024C41.067 37.4773 41.187 37.832 41.427 38.088C41.667 38.3387 41.9923 38.464 42.403 38.464C42.5897 38.464 42.7763 38.4293 42.963 38.36C43.155 38.2853 43.3257 38.1813 43.475 38.048L43.723 38.576C43.5683 38.7307 43.3683 38.8533 43.123 38.944C42.8777 39.0293 42.619 39.072 42.347 39.072ZM46.4754 39.072C46.0327 39.072 45.6487 38.992 45.3234 38.832C45.0034 38.6667 44.758 38.432 44.5874 38.128C44.4167 37.8187 44.3314 37.4507 44.3314 37.024C44.3314 36.624 44.4114 36.272 44.5714 35.968C44.7314 35.6587 44.958 35.416 45.2514 35.24C45.5447 35.064 45.894 34.976 46.2994 34.976C46.6834 34.976 47.0087 35.0587 47.2754 35.224C47.5474 35.3893 47.7527 35.6213 47.8914 35.92C48.0354 36.2187 48.1074 36.5733 48.1074 36.984V37.216H44.8674V36.72H47.6434L47.4914 36.88C47.4914 36.4427 47.3874 36.1067 47.1794 35.872C46.9767 35.6373 46.6834 35.52 46.2994 35.52C46.0487 35.52 45.8247 35.5787 45.6274 35.696C45.4354 35.808 45.286 35.968 45.1794 36.176C45.0727 36.384 45.0194 36.6373 45.0194 36.936V37.016C45.0194 37.336 45.078 37.6053 45.1954 37.824C45.3127 38.0427 45.4807 38.208 45.6994 38.32C45.918 38.432 46.1794 38.488 46.4834 38.488C46.702 38.488 46.9234 38.4587 47.1474 38.4C47.3767 38.336 47.59 38.224 47.7874 38.064L48.0274 38.576C47.8247 38.7467 47.582 38.872 47.2994 38.952C47.022 39.032 46.7474 39.072 46.4754 39.072ZM54.0447 39.072C53.506 39.072 53.0367 38.9573 52.6367 38.728C52.242 38.4933 51.938 38.16 51.7247 37.728C51.5114 37.2907 51.4047 36.7733 51.4047 36.176C51.4047 35.5787 51.5114 35.064 51.7247 34.632C51.938 34.2 52.242 33.8693 52.6367 33.64C53.0314 33.4053 53.5007 33.288 54.0447 33.288C54.4394 33.288 54.7994 33.3493 55.1247 33.472C55.45 33.5893 55.73 33.7627 55.9647 33.992L55.6847 34.552C55.4394 34.3333 55.186 34.176 54.9247 34.08C54.6687 33.984 54.3807 33.936 54.0607 33.936C53.4634 33.936 52.994 34.128 52.6527 34.512C52.3167 34.8907 52.1487 35.4453 52.1487 36.176C52.1487 36.9013 52.3167 37.4587 52.6527 37.848C52.9887 38.232 53.458 38.424 54.0607 38.424C54.3807 38.424 54.6687 38.376 54.9247 38.28C55.186 38.184 55.4394 38.0267 55.6847 37.808L55.9647 38.368C55.73 38.5973 55.45 38.7733 55.1247 38.896C54.7994 39.0133 54.4394 39.072 54.0447 39.072ZM58.5961 39.072C58.1961 39.072 57.8494 38.9867 57.5561 38.816C57.2627 38.6453 57.0361 38.408 56.8761 38.104C56.7161 37.7947 56.6361 37.432 56.6361 37.016C56.6361 36.6053 56.7161 36.248 56.8761 35.944C57.0361 35.6347 57.2627 35.3973 57.5561 35.232C57.8494 35.0613 58.1961 34.976 58.5961 34.976C58.9961 34.976 59.3401 35.0613 59.6281 35.232C59.9214 35.3973 60.1481 35.6347 60.3081 35.944C60.4681 36.248 60.5481 36.6053 60.5481 37.016C60.5481 37.432 60.4681 37.7947 60.3081 38.104C60.1534 38.408 59.9294 38.6453 59.6361 38.816C59.3427 38.9867 58.9961 39.072 58.5961 39.072ZM58.5881 38.472C58.9774 38.472 59.2841 38.3413 59.5081 38.08C59.7321 37.8187 59.8441 37.464 59.8441 37.016C59.8441 36.568 59.7321 36.216 59.5081 35.96C59.2894 35.704 58.9854 35.576 58.5961 35.576C58.2067 35.576 57.9001 35.704 57.6761 35.96C57.4521 36.216 57.3401 36.568 57.3401 37.016C57.3401 37.464 57.4521 37.8187 57.6761 38.08C57.9054 38.3413 58.2094 38.472 58.5881 38.472ZM61.7593 39V35.048H62.4153V35.912C62.4846 35.736 62.5806 35.5787 62.7033 35.44C62.8313 35.296 62.9833 35.184 63.1593 35.104C63.3406 35.0187 63.5379 34.976 63.7513 34.976C64.0979 34.976 64.3833 35.0613 64.6073 35.232C64.8313 35.4027 64.9699 35.6267 65.0233 35.904H65.0153C65.1219 35.6427 65.2899 35.424 65.5193 35.248C65.7539 35.0667 66.0473 34.976 66.3993 34.976C66.6979 34.976 66.9513 35.0347 67.1593 35.152C67.3673 35.264 67.5246 35.4373 67.6313 35.672C67.7379 35.9067 67.7913 36.2027 67.7913 36.56V39H67.0873V36.608C67.0873 36.2667 67.0259 36.0107 66.9033 35.84C66.7806 35.6693 66.5619 35.584 66.2473 35.584C66.0126 35.584 65.8099 35.6373 65.6393 35.744C65.4739 35.8453 65.3459 35.9893 65.2552 36.176C65.1699 36.3573 65.1273 36.5627 65.1273 36.792V39H64.4233V36.608C64.4233 36.272 64.3539 36.0187 64.2153 35.848C64.0766 35.672 63.8659 35.584 63.5833 35.584C63.3539 35.584 63.1539 35.6427 62.9833 35.76C62.8179 35.872 62.6899 36.0187 62.5993 36.2C62.5086 36.3813 62.4633 36.5733 62.4633 36.776V39H61.7593ZM71.3238 39.072C70.9825 39.072 70.6838 38.9893 70.4278 38.824C70.1771 38.6587 69.9931 38.4267 69.8758 38.128V39H69.2198V33.36H69.9318V35.872C70.0438 35.5947 70.2198 35.376 70.4598 35.216C70.6998 35.056 70.9905 34.976 71.3318 34.976C71.6998 34.976 72.0171 35.0613 72.2838 35.232C72.5558 35.4027 72.7665 35.6427 72.9158 35.952C73.0651 36.256 73.1398 36.6133 73.1398 37.024C73.1398 37.4293 73.0651 37.7867 72.9158 38.096C72.7665 38.4053 72.5558 38.6453 72.2838 38.816C72.0118 38.9867 71.6918 39.072 71.3238 39.072ZM71.1718 38.488C71.5611 38.488 71.8678 38.3573 72.0918 38.096C72.3158 37.8347 72.4278 37.4773 72.4278 37.024C72.4278 36.5707 72.3158 36.2133 72.0918 35.952C71.8678 35.6907 71.5611 35.56 71.1718 35.56C70.7878 35.56 70.4838 35.6907 70.2598 35.952C70.0358 36.2133 69.9238 36.5707 69.9238 37.024C69.9238 37.4773 70.0358 37.8347 70.2598 38.096C70.4838 38.3573 70.7878 38.488 71.1718 38.488ZM76.0414 39.072C75.6414 39.072 75.2947 38.9867 75.0014 38.816C74.708 38.6453 74.4814 38.408 74.3214 38.104C74.1614 37.7947 74.0814 37.432 74.0814 37.016C74.0814 36.6053 74.1614 36.248 74.3214 35.944C74.4814 35.6347 74.708 35.3973 75.0014 35.232C75.2947 35.0613 75.6414 34.976 76.0414 34.976C76.4414 34.976 76.7854 35.0613 77.0734 35.232C77.3667 35.3973 77.5934 35.6347 77.7534 35.944C77.9134 36.248 77.9934 36.6053 77.9934 37.016C77.9934 37.432 77.9134 37.7947 77.7534 38.104C77.5987 38.408 77.3747 38.6453 77.0814 38.816C76.788 38.9867 76.4414 39.072 76.0414 39.072ZM76.0334 38.472C76.4227 38.472 76.7294 38.3413 76.9534 38.08C77.1774 37.8187 77.2894 37.464 77.2894 37.016C77.2894 36.568 77.1774 36.216 76.9534 35.96C76.7347 35.704 76.4307 35.576 76.0414 35.576C75.652 35.576 75.3454 35.704 75.1214 35.96C74.8974 36.216 74.7854 36.568 74.7854 37.016C74.7854 37.464 74.8974 37.8187 75.1214 38.08C75.3507 38.3413 75.6547 38.472 76.0334 38.472ZM80.6446 39.072C80.4259 39.072 80.2099 39.0507 79.9966 39.008C79.7886 38.9707 79.5939 38.9173 79.4126 38.848C79.2366 38.7733 79.0846 38.6827 78.9566 38.576L79.1886 38.072C79.3219 38.1733 79.4686 38.256 79.6286 38.32C79.7939 38.384 79.9619 38.432 80.1326 38.464C80.3086 38.4907 80.4766 38.504 80.6366 38.504C80.9672 38.504 81.2206 38.4533 81.3966 38.352C81.5779 38.2507 81.6686 38.1093 81.6686 37.928C81.6686 37.7733 81.6152 37.656 81.5086 37.576C81.4072 37.4907 81.2366 37.4267 80.9966 37.384L80.1726 37.24C79.8046 37.1707 79.5272 37.0453 79.3406 36.864C79.1592 36.6827 79.0686 36.4453 79.0686 36.152C79.0686 35.9173 79.1326 35.712 79.2606 35.536C79.3939 35.36 79.5832 35.224 79.8286 35.128C80.0739 35.0267 80.3672 34.976 80.7086 34.976C80.8952 34.976 81.0846 34.9947 81.2766 35.032C81.4739 35.0693 81.6552 35.1253 81.8206 35.2C81.9912 35.2693 82.1299 35.3573 82.2366 35.464L81.9966 35.968C81.8899 35.8667 81.7619 35.7867 81.6126 35.728C81.4686 35.664 81.3166 35.6187 81.1566 35.592C81.0019 35.56 80.8499 35.544 80.7006 35.544C80.3912 35.544 80.1512 35.5973 79.9806 35.704C79.8099 35.8053 79.7246 35.9493 79.7246 36.136C79.7246 36.2853 79.7726 36.4027 79.8686 36.488C79.9699 36.5733 80.1326 36.6373 80.3566 36.68L81.1566 36.824C81.5512 36.8987 81.8446 37.024 82.0366 37.2C82.2286 37.3707 82.3246 37.608 82.3246 37.912C82.3246 38.1467 82.2552 38.352 82.1166 38.528C81.9779 38.6987 81.7832 38.832 81.5326 38.928C81.2819 39.024 80.9859 39.072 80.6446 39.072ZM83.734 40.152L83.374 39.872C83.47 39.7813 83.5447 39.6773 83.598 39.56C83.6567 39.448 83.6993 39.3307 83.726 39.208C83.7527 39.0907 83.7687 38.9813 83.774 38.88L83.91 39H83.326V38.12H84.238V38.776C84.238 38.9413 84.222 39.1067 84.19 39.272C84.158 39.4373 84.1047 39.5947 84.03 39.744C83.9553 39.8933 83.8567 40.0293 83.734 40.152ZM89.7669 39.072C89.4575 39.072 89.1642 39.048 88.8869 39C88.6095 38.952 88.3562 38.88 88.1269 38.784C87.8975 38.688 87.6975 38.5707 87.5269 38.432L87.7909 37.84C87.9722 37.984 88.1642 38.1013 88.3669 38.192C88.5749 38.2773 88.7935 38.3387 89.0229 38.376C89.2575 38.4133 89.5055 38.432 89.7669 38.432C90.2095 38.432 90.5482 38.344 90.7829 38.168C91.0229 37.992 91.1429 37.752 91.1429 37.448C91.1429 37.288 91.1029 37.1547 91.0229 37.048C90.9482 36.9413 90.8282 36.8533 90.6629 36.784C90.5029 36.7147 90.2949 36.6533 90.0389 36.6L89.1189 36.424C88.6015 36.3227 88.2282 36.144 87.9989 35.888C87.7695 35.632 87.6549 35.3093 87.6549 34.92C87.6549 34.5893 87.7455 34.304 87.9269 34.064C88.1135 33.8187 88.3695 33.6293 88.6949 33.496C89.0255 33.3573 89.4015 33.288 89.8229 33.288C90.0895 33.288 90.3375 33.3147 90.5669 33.368C90.8015 33.416 91.0149 33.4907 91.2069 33.592C91.4042 33.6933 91.5802 33.816 91.7349 33.96L91.4709 34.544C91.2415 34.32 90.9909 34.1627 90.7189 34.072C90.4469 33.976 90.1455 33.928 89.8149 33.928C89.5375 33.928 89.2895 33.968 89.0709 34.048C88.8522 34.1227 88.6789 34.2347 88.5509 34.384C88.4282 34.528 88.3669 34.7067 88.3669 34.92C88.3669 35.1547 88.4415 35.3413 88.5909 35.48C88.7402 35.6133 88.9935 35.7173 89.3509 35.792L90.2629 35.968C90.8069 36.0693 91.2095 36.24 91.4709 36.48C91.7322 36.72 91.8629 37.032 91.8629 37.416C91.8629 37.736 91.7749 38.0213 91.5989 38.272C91.4282 38.5227 91.1855 38.72 90.8709 38.864C90.5615 39.0027 90.1935 39.072 89.7669 39.072ZM94.3289 39.072C94.0462 39.072 93.7929 39.0213 93.5689 38.92C93.3449 38.8133 93.1689 38.6693 93.0409 38.488C92.9129 38.3067 92.8489 38.104 92.8489 37.88C92.8489 37.576 92.9342 37.3387 93.1049 37.168C93.2755 36.992 93.5369 36.8667 93.8889 36.792C94.2462 36.7173 94.7022 36.68 95.2569 36.68H95.8249V37.168H95.2889C94.9795 37.168 94.7155 37.1787 94.4969 37.2C94.2782 37.216 94.0995 37.2507 93.9609 37.304C93.8222 37.352 93.7209 37.4187 93.6569 37.504C93.5929 37.5893 93.5609 37.7013 93.5609 37.84C93.5609 38.0533 93.6435 38.2187 93.8089 38.336C93.9795 38.4533 94.1955 38.512 94.4569 38.512C94.6862 38.512 94.8942 38.4613 95.0809 38.36C95.2729 38.2533 95.4249 38.112 95.5369 37.936C95.6542 37.76 95.7129 37.5653 95.7129 37.352V36.448C95.7129 36.1333 95.6249 35.9067 95.4489 35.768C95.2729 35.624 95.0115 35.552 94.6649 35.552C94.4302 35.552 94.1955 35.584 93.9609 35.648C93.7315 35.712 93.4942 35.8187 93.2489 35.968L93.0169 35.44C93.1822 35.3387 93.3582 35.256 93.5449 35.192C93.7315 35.1227 93.9262 35.0693 94.1289 35.032C94.3315 34.9947 94.5342 34.976 94.7369 34.976C95.0782 34.976 95.3715 35.0293 95.6169 35.136C95.8675 35.2427 96.0595 35.408 96.1929 35.632C96.3315 35.856 96.4009 36.1493 96.4009 36.512V39H95.7769V38.136C95.7022 38.3013 95.5982 38.456 95.4649 38.6C95.3315 38.744 95.1689 38.8587 94.9769 38.944C94.7902 39.0293 94.5742 39.072 94.3289 39.072ZM99.0136 39.072C98.6296 39.072 98.3336 38.96 98.1256 38.736C97.9176 38.512 97.8136 38.1973 97.8136 37.792V33.36H98.5256V37.72C98.5256 37.88 98.5496 38.0187 98.5976 38.136C98.6456 38.248 98.7149 38.3333 98.8056 38.392C98.8962 38.4507 99.0056 38.48 99.1336 38.48C99.2136 38.48 99.2882 38.4773 99.3576 38.472C99.4322 38.4613 99.5069 38.4453 99.5816 38.424L99.5976 38.984C99.5069 39.016 99.4136 39.0373 99.3176 39.048C99.2269 39.064 99.1256 39.072 99.0136 39.072ZM101.72 39.072C101.437 39.072 101.184 39.0213 100.96 38.92C100.736 38.8133 100.56 38.6693 100.432 38.488C100.304 38.3067 100.24 38.104 100.24 37.88C100.24 37.576 100.325 37.3387 100.496 37.168C100.666 36.992 100.928 36.8667 101.28 36.792C101.637 36.7173 102.093 36.68 102.648 36.68H103.216V37.168H102.68C102.37 37.168 102.106 37.1787 101.888 37.2C101.669 37.216 101.49 37.2507 101.352 37.304C101.213 37.352 101.112 37.4187 101.048 37.504C100.984 37.5893 100.952 37.7013 100.952 37.84C100.952 38.0533 101.034 38.2187 101.2 38.336C101.37 38.4533 101.586 38.512 101.848 38.512C102.077 38.512 102.285 38.4613 102.472 38.36C102.664 38.2533 102.816 38.112 102.928 37.936C103.045 37.76 103.104 37.5653 103.104 37.352V36.448C103.104 36.1333 103.016 35.9067 102.84 35.768C102.664 35.624 102.402 35.552 102.056 35.552C101.821 35.552 101.586 35.584 101.352 35.648C101.122 35.712 100.885 35.8187 100.64 35.968L100.408 35.44C100.573 35.3387 100.749 35.256 100.936 35.192C101.122 35.1227 101.317 35.0693 101.52 35.032C101.722 34.9947 101.925 34.976 102.128 34.976C102.469 34.976 102.762 35.0293 103.008 35.136C103.258 35.2427 103.45 35.408 103.584 35.632C103.722 35.856 103.792 36.1493 103.792 36.512V39H103.168V38.136C103.093 38.3013 102.989 38.456 102.856 38.6C102.722 38.744 102.56 38.8587 102.368 38.944C102.181 39.0293 101.965 39.072 101.72 39.072ZM106.78 39.072C106.418 39.072 106.1 38.9867 105.828 38.816C105.556 38.6453 105.343 38.4053 105.188 38.096C105.039 37.7867 104.964 37.4293 104.964 37.024C104.964 36.6133 105.039 36.256 105.188 35.952C105.338 35.6427 105.548 35.4027 105.82 35.232C106.092 35.0613 106.41 34.976 106.772 34.976C107.114 34.976 107.404 35.056 107.644 35.216C107.89 35.376 108.066 35.5947 108.172 35.872V33.36H108.884V39H108.228V38.128C108.111 38.4267 107.927 38.6587 107.676 38.824C107.426 38.9893 107.127 39.072 106.78 39.072ZM106.932 38.488C107.322 38.488 107.626 38.3573 107.844 38.096C108.068 37.8347 108.18 37.4773 108.18 37.024C108.18 36.5707 108.068 36.2133 107.844 35.952C107.626 35.6907 107.322 35.56 106.932 35.56C106.548 35.56 106.242 35.6907 106.012 35.952C105.788 36.2133 105.676 36.5707 105.676 37.024C105.676 37.4773 105.788 37.8347 106.012 38.096C106.236 38.3573 106.543 38.488 106.932 38.488ZM111.762 39.072C111.543 39.072 111.327 39.0507 111.114 39.008C110.906 38.9707 110.711 38.9173 110.53 38.848C110.354 38.7733 110.202 38.6827 110.074 38.576L110.306 38.072C110.439 38.1733 110.586 38.256 110.746 38.32C110.911 38.384 111.079 38.432 111.25 38.464C111.426 38.4907 111.594 38.504 111.754 38.504C112.084 38.504 112.338 38.4533 112.514 38.352C112.695 38.2507 112.786 38.1093 112.786 37.928C112.786 37.7733 112.732 37.656 112.626 37.576C112.524 37.4907 112.354 37.4267 112.114 37.384L111.29 37.24C110.922 37.1707 110.644 37.0453 110.458 36.864C110.276 36.6827 110.186 36.4453 110.186 36.152C110.186 35.9173 110.25 35.712 110.378 35.536C110.511 35.36 110.7 35.224 110.946 35.128C111.191 35.0267 111.484 34.976 111.826 34.976C112.012 34.976 112.202 34.9947 112.394 35.032C112.591 35.0693 112.772 35.1253 112.938 35.2C113.108 35.2693 113.247 35.3573 113.354 35.464L113.114 35.968C113.007 35.8667 112.879 35.7867 112.73 35.728C112.586 35.664 112.434 35.6187 112.274 35.592C112.119 35.56 111.967 35.544 111.818 35.544C111.508 35.544 111.268 35.5973 111.098 35.704C110.927 35.8053 110.842 35.9493 110.842 36.136C110.842 36.2853 110.89 36.4027 110.986 36.488C111.087 36.5733 111.25 36.6373 111.474 36.68L112.274 36.824C112.668 36.8987 112.962 37.024 113.154 37.2C113.346 37.3707 113.442 37.608 113.442 37.912C113.442 38.1467 113.372 38.352 113.234 38.528C113.095 38.6987 112.9 38.832 112.65 38.928C112.399 39.024 112.103 39.072 111.762 39.072ZM114.443 39V38.12H115.355V39H114.443Z" fill="black"/>
</svg>
