<svg width="148" height="42" viewBox="0 0 148 42" fill="none" xmlns="http://www.w3.org/2000/svg">
<rect x="14.1961" y="0.254237" width="133.549" height="41.4915" rx="1.77966" fill="white" stroke="#CE3439" stroke-width="0.508475"/>
<path d="M38.3681 10V4.36H40.6881C41.0935 4.36 41.4375 4.42667 41.7201 4.56C42.0028 4.69333 42.2188 4.888 42.3681 5.144C42.5228 5.39467 42.6001 5.69867 42.6001 6.056C42.6001 6.41333 42.5228 6.72 42.3681 6.976C42.2188 7.232 42.0001 7.42933 41.7121 7.568C41.4295 7.70667 41.0881 7.776 40.6881 7.776H39.0801V10H38.3681ZM39.0801 7.168H40.5841C41.0108 7.168 41.3335 7.07733 41.5521 6.896C41.7708 6.70933 41.8801 6.432 41.8801 6.064C41.8801 5.69067 41.7708 5.416 41.5521 5.24C41.3335 5.05867 41.0108 4.968 40.5841 4.968H39.0801V7.168ZM43.2603 5.096V4.304H44.1243V5.096H43.2603ZM43.3403 10V6.048H44.0523V10H43.3403ZM46.9771 10.072C46.5345 10.072 46.1505 9.992 45.8251 9.832C45.5051 9.66667 45.2598 9.432 45.0891 9.128C44.9185 8.81867 44.8331 8.45067 44.8331 8.024C44.8331 7.624 44.9131 7.272 45.0731 6.968C45.2331 6.65867 45.4598 6.416 45.7531 6.24C46.0465 6.064 46.3958 5.976 46.8011 5.976C47.1851 5.976 47.5105 6.05867 47.7771 6.224C48.0491 6.38933 48.2545 6.62133 48.3931 6.92C48.5371 7.21867 48.6091 7.57333 48.6091 7.984V8.216H45.3691V7.72H48.1451L47.9931 7.88C47.9931 7.44267 47.8891 7.10667 47.6811 6.872C47.4785 6.63733 47.1851 6.52 46.8011 6.52C46.5505 6.52 46.3265 6.57867 46.1291 6.696C45.9371 6.808 45.7878 6.968 45.6811 7.176C45.5745 7.384 45.5211 7.63733 45.5211 7.936V8.016C45.5211 8.336 45.5798 8.60533 45.6971 8.824C45.8145 9.04267 45.9825 9.208 46.2011 9.32C46.4198 9.432 46.6811 9.488 46.9851 9.488C47.2038 9.488 47.4251 9.45867 47.6491 9.4C47.8785 9.336 48.0918 9.224 48.2891 9.064L48.5291 9.576C48.3265 9.74667 48.0838 9.872 47.8011 9.952C47.5238 10.032 47.2491 10.072 46.9771 10.072ZM51.1441 10.072C50.7387 10.072 50.3867 9.98667 50.0881 9.816C49.7894 9.64533 49.5574 9.408 49.3921 9.104C49.2267 8.79467 49.1441 8.432 49.1441 8.016C49.1441 7.6 49.2267 7.24 49.3921 6.936C49.5574 6.62667 49.7894 6.38933 50.0881 6.224C50.3921 6.05867 50.7467 5.976 51.1521 5.976C51.4241 5.976 51.6827 6.02133 51.9281 6.112C52.1734 6.20267 52.3761 6.32533 52.5361 6.48L52.2881 7.008C52.1334 6.86933 51.9601 6.76533 51.7681 6.696C51.5761 6.62133 51.3894 6.584 51.2081 6.584C50.7921 6.584 50.4641 6.70933 50.2241 6.96C49.9841 7.21067 49.8641 7.56533 49.8641 8.024C49.8641 8.47733 49.9841 8.832 50.2241 9.088C50.4641 9.33867 50.7894 9.464 51.2001 9.464C51.3867 9.464 51.5734 9.42933 51.7601 9.36C51.9521 9.28533 52.1227 9.18133 52.2721 9.048L52.5201 9.576C52.3654 9.73067 52.1654 9.85333 51.9201 9.944C51.6747 10.0293 51.4161 10.072 51.1441 10.072ZM54.8724 10.072C54.4298 10.072 54.0458 9.992 53.7204 9.832C53.4004 9.66667 53.1551 9.432 52.9844 9.128C52.8138 8.81867 52.7284 8.45067 52.7284 8.024C52.7284 7.624 52.8084 7.272 52.9684 6.968C53.1284 6.65867 53.3551 6.416 53.6484 6.24C53.9418 6.064 54.2911 5.976 54.6964 5.976C55.0804 5.976 55.4058 6.05867 55.6724 6.224C55.9444 6.38933 56.1498 6.62133 56.2884 6.92C56.4324 7.21867 56.5044 7.57333 56.5044 7.984V8.216H53.2644V7.72H56.0404L55.8884 7.88C55.8884 7.44267 55.7844 7.10667 55.5764 6.872C55.3738 6.63733 55.0804 6.52 54.6964 6.52C54.4458 6.52 54.2218 6.57867 54.0244 6.696C53.8324 6.808 53.6831 6.968 53.5764 7.176C53.4698 7.384 53.4164 7.63733 53.4164 7.936V8.016C53.4164 8.336 53.4751 8.60533 53.5924 8.824C53.7098 9.04267 53.8778 9.208 54.0964 9.32C54.3151 9.432 54.5764 9.488 54.8804 9.488C55.0991 9.488 55.3204 9.45867 55.5444 9.4C55.7738 9.336 55.9871 9.224 56.1844 9.064L56.4244 9.576C56.2218 9.74667 55.9791 9.872 55.6964 9.952C55.4191 10.032 55.1444 10.072 54.8724 10.072ZM58.7354 10.072C58.5167 10.072 58.3007 10.0507 58.0874 10.008C57.8794 9.97067 57.6847 9.91733 57.5034 9.848C57.3274 9.77333 57.1754 9.68267 57.0474 9.576L57.2794 9.072C57.4127 9.17333 57.5594 9.256 57.7194 9.32C57.8847 9.384 58.0527 9.432 58.2234 9.464C58.3994 9.49067 58.5674 9.504 58.7274 9.504C59.058 9.504 59.3114 9.45333 59.4874 9.352C59.6687 9.25067 59.7594 9.10933 59.7594 8.928C59.7594 8.77333 59.706 8.656 59.5994 8.576C59.498 8.49067 59.3274 8.42667 59.0874 8.384L58.2634 8.24C57.8954 8.17067 57.618 8.04533 57.4314 7.864C57.25 7.68267 57.1594 7.44533 57.1594 7.152C57.1594 6.91733 57.2234 6.712 57.3514 6.536C57.4847 6.36 57.674 6.224 57.9194 6.128C58.1647 6.02667 58.458 5.976 58.7994 5.976C58.986 5.976 59.1754 5.99467 59.3674 6.032C59.5647 6.06933 59.746 6.12533 59.9114 6.2C60.082 6.26933 60.2207 6.35733 60.3274 6.464L60.0874 6.968C59.9807 6.86667 59.8527 6.78667 59.7034 6.728C59.5594 6.664 59.4074 6.61867 59.2474 6.592C59.0927 6.56 58.9407 6.544 58.7914 6.544C58.482 6.544 58.242 6.59733 58.0714 6.704C57.9007 6.80533 57.8154 6.94933 57.8154 7.136C57.8154 7.28533 57.8634 7.40267 57.9594 7.488C58.0607 7.57333 58.2234 7.63733 58.4474 7.68L59.2474 7.824C59.642 7.89867 59.9354 8.024 60.1274 8.2C60.3194 8.37067 60.4154 8.608 60.4154 8.912C60.4154 9.14667 60.346 9.352 60.2074 9.528C60.0687 9.69867 59.874 9.832 59.6234 9.928C59.3727 10.024 59.0767 10.072 58.7354 10.072Z" fill="#CE3439"/>
<path d="M81.468 10.072C81.0146 10.072 80.6306 9.96267 80.316 9.744C80.0013 9.52533 79.7613 9.21067 79.596 8.8C79.4306 8.384 79.348 7.88533 79.348 7.304C79.348 6.65333 79.4386 6.10667 79.62 5.664C79.8013 5.216 80.0626 4.87467 80.404 4.64C80.7453 4.40533 81.156 4.288 81.636 4.288C81.8493 4.288 82.052 4.31467 82.244 4.368C82.436 4.416 82.6173 4.49067 82.788 4.592C82.9586 4.69333 83.1186 4.81867 83.268 4.968L83.004 5.52C82.796 5.30133 82.5773 5.14667 82.348 5.056C82.1186 4.96 81.8813 4.912 81.636 4.912C81.3746 4.912 81.1426 4.96267 80.94 5.064C80.7373 5.16 80.5666 5.30667 80.428 5.504C80.2893 5.696 80.1826 5.936 80.108 6.224C80.0386 6.50667 80.004 6.83733 80.004 7.216V7.68H80.012C80.06 7.424 80.156 7.20533 80.3 7.024C80.444 6.83733 80.6226 6.696 80.836 6.6C81.0493 6.49867 81.284 6.448 81.54 6.448C81.8813 6.448 82.18 6.52533 82.436 6.68C82.6973 6.82933 82.9 7.04 83.044 7.312C83.1933 7.57867 83.268 7.888 83.268 8.24C83.268 8.592 83.1906 8.90667 83.036 9.184C82.8866 9.46133 82.676 9.68 82.404 9.84C82.132 9.99467 81.82 10.072 81.468 10.072ZM81.428 9.464C81.6626 9.464 81.868 9.41333 82.044 9.312C82.22 9.21067 82.356 9.06933 82.452 8.888C82.5533 8.70667 82.604 8.496 82.604 8.256C82.604 8.016 82.5533 7.808 82.452 7.632C82.356 7.45067 82.22 7.30933 82.044 7.208C81.868 7.10667 81.66 7.056 81.42 7.056C81.1853 7.056 80.9773 7.10667 80.796 7.208C80.62 7.30933 80.4786 7.45067 80.372 7.632C80.2706 7.808 80.22 8.016 80.22 8.256C80.22 8.496 80.2706 8.70667 80.372 8.888C80.4733 9.06933 80.6146 9.21067 80.796 9.312C80.9773 9.41333 81.188 9.464 81.428 9.464ZM86.0729 10.072C85.6409 10.072 85.2755 9.96267 84.9769 9.744C84.6782 9.52 84.4515 9.19467 84.2969 8.768C84.1475 8.336 84.0729 7.80533 84.0729 7.176C84.0729 6.54667 84.1475 6.01867 84.2969 5.592C84.4515 5.16533 84.6782 4.84267 84.9769 4.624C85.2755 4.4 85.6409 4.288 86.0729 4.288C86.5155 4.288 86.8835 4.39733 87.1769 4.616C87.4702 4.83467 87.6915 5.15733 87.8409 5.584C87.9955 6.01067 88.0729 6.53867 88.0729 7.168C88.0729 7.79733 87.9955 8.328 87.8409 8.76C87.6915 9.192 87.4675 9.52 87.1689 9.744C86.8702 9.96267 86.5049 10.072 86.0729 10.072ZM86.0729 9.448C86.5102 9.448 86.8355 9.264 87.0489 8.896C87.2622 8.528 87.3689 7.952 87.3689 7.168C87.3689 6.38933 87.2622 5.81867 87.0489 5.456C86.8409 5.09333 86.5182 4.912 86.0809 4.912C85.6382 4.912 85.3102 5.096 85.0969 5.464C84.8835 5.82667 84.7769 6.39733 84.7769 7.176C84.7769 7.94933 84.8835 8.52267 85.0969 8.896C85.3102 9.264 85.6355 9.448 86.0729 9.448ZM90.8697 10.072C90.4377 10.072 90.0724 9.96267 89.7737 9.744C89.4751 9.52 89.2484 9.19467 89.0937 8.768C88.9444 8.336 88.8697 7.80533 88.8697 7.176C88.8697 6.54667 88.9444 6.01867 89.0937 5.592C89.2484 5.16533 89.4751 4.84267 89.7737 4.624C90.0724 4.4 90.4377 4.288 90.8697 4.288C91.3124 4.288 91.6804 4.39733 91.9737 4.616C92.2671 4.83467 92.4884 5.15733 92.6377 5.584C92.7924 6.01067 92.8697 6.53867 92.8697 7.168C92.8697 7.79733 92.7924 8.328 92.6377 8.76C92.4884 9.192 92.2644 9.52 91.9657 9.744C91.6671 9.96267 91.3017 10.072 90.8697 10.072ZM90.8697 9.448C91.3071 9.448 91.6324 9.264 91.8457 8.896C92.0591 8.528 92.1657 7.952 92.1657 7.168C92.1657 6.38933 92.0591 5.81867 91.8457 5.456C91.6377 5.09333 91.3151 4.912 90.8777 4.912C90.4351 4.912 90.1071 5.096 89.8937 5.464C89.6804 5.82667 89.5737 6.39733 89.5737 7.176C89.5737 7.94933 89.6804 8.52267 89.8937 8.896C90.1071 9.264 90.4324 9.448 90.8697 9.448ZM96.333 10V4.36H96.965L100.421 8.952H100.389V4.36H101.069V10H100.421L96.981 5.424H97.013V10H96.333ZM104.331 10.072C103.931 10.072 103.585 9.98667 103.291 9.816C102.998 9.64533 102.771 9.408 102.611 9.104C102.451 8.79467 102.371 8.432 102.371 8.016C102.371 7.60533 102.451 7.248 102.611 6.944C102.771 6.63467 102.998 6.39733 103.291 6.232C103.585 6.06133 103.931 5.976 104.331 5.976C104.731 5.976 105.075 6.06133 105.363 6.232C105.657 6.39733 105.883 6.63467 106.043 6.944C106.203 7.248 106.283 7.60533 106.283 8.016C106.283 8.432 106.203 8.79467 106.043 9.104C105.889 9.408 105.665 9.64533 105.371 9.816C105.078 9.98667 104.731 10.072 104.331 10.072ZM104.323 9.472C104.713 9.472 105.019 9.34133 105.243 9.08C105.467 8.81867 105.579 8.464 105.579 8.016C105.579 7.568 105.467 7.216 105.243 6.96C105.025 6.704 104.721 6.576 104.331 6.576C103.942 6.576 103.635 6.704 103.411 6.96C103.187 7.216 103.075 7.568 103.075 8.016C103.075 8.464 103.187 8.81867 103.411 9.08C103.641 9.34133 103.945 9.472 104.323 9.472ZM108.935 10.072C108.716 10.072 108.5 10.0507 108.287 10.008C108.079 9.97067 107.884 9.91733 107.703 9.848C107.527 9.77333 107.375 9.68267 107.247 9.576L107.479 9.072C107.612 9.17333 107.759 9.256 107.919 9.32C108.084 9.384 108.252 9.432 108.423 9.464C108.599 9.49067 108.767 9.504 108.927 9.504C109.257 9.504 109.511 9.45333 109.687 9.352C109.868 9.25067 109.959 9.10933 109.959 8.928C109.959 8.77333 109.905 8.656 109.799 8.576C109.697 8.49067 109.527 8.42667 109.287 8.384L108.463 8.24C108.095 8.17067 107.817 8.04533 107.631 7.864C107.449 7.68267 107.359 7.44533 107.359 7.152C107.359 6.91733 107.423 6.712 107.551 6.536C107.684 6.36 107.873 6.224 108.119 6.128C108.364 6.02667 108.657 5.976 108.999 5.976C109.185 5.976 109.375 5.99467 109.567 6.032C109.764 6.06933 109.945 6.12533 110.111 6.2C110.281 6.26933 110.42 6.35733 110.527 6.464L110.287 6.968C110.18 6.86667 110.052 6.78667 109.903 6.728C109.759 6.664 109.607 6.61867 109.447 6.592C109.292 6.56 109.14 6.544 108.991 6.544C108.681 6.544 108.441 6.59733 108.271 6.704C108.1 6.80533 108.015 6.94933 108.015 7.136C108.015 7.28533 108.063 7.40267 108.159 7.488C108.26 7.57333 108.423 7.63733 108.647 7.68L109.447 7.824C109.841 7.89867 110.135 8.024 110.327 8.2C110.519 8.37067 110.615 8.608 110.615 8.912C110.615 9.14667 110.545 9.352 110.407 9.528C110.268 9.69867 110.073 9.832 109.823 9.928C109.572 10.024 109.276 10.072 108.935 10.072ZM111.519 10.504L110.959 10.352L112.999 3.984L113.551 4.136L111.519 10.504ZM116.6 10.072C116.062 10.072 115.592 9.95733 115.192 9.728C114.798 9.49333 114.494 9.16 114.28 8.728C114.067 8.29067 113.96 7.77333 113.96 7.176C113.96 6.57867 114.067 6.064 114.28 5.632C114.494 5.2 114.798 4.86933 115.192 4.64C115.587 4.40533 116.056 4.288 116.6 4.288C116.995 4.288 117.355 4.34933 117.68 4.472C118.006 4.58933 118.286 4.76267 118.52 4.992L118.24 5.552C117.995 5.33333 117.742 5.176 117.48 5.08C117.224 4.984 116.936 4.936 116.616 4.936C116.019 4.936 115.55 5.128 115.208 5.512C114.872 5.89067 114.704 6.44533 114.704 7.176C114.704 7.90133 114.872 8.45867 115.208 8.848C115.544 9.232 116.014 9.424 116.616 9.424C116.936 9.424 117.224 9.376 117.48 9.28C117.742 9.184 117.995 9.02667 118.24 8.808L118.52 9.368C118.286 9.59733 118.006 9.77333 117.68 9.896C117.355 10.0133 116.995 10.072 116.6 10.072ZM121.252 10.072C120.777 10.072 120.417 9.94667 120.172 9.696C119.932 9.44533 119.812 9.088 119.812 8.624V6.632H119.012V6.048H119.836V4.872H120.524V6.048H121.94V6.632H120.524V8.56C120.524 8.864 120.591 9.09067 120.724 9.24C120.863 9.384 121.073 9.456 121.356 9.456C121.468 9.456 121.575 9.44533 121.676 9.424C121.783 9.40267 121.884 9.37067 121.98 9.328L122.092 9.888C121.985 9.94667 121.855 9.992 121.7 10.024C121.551 10.056 121.401 10.072 121.252 10.072ZM122.924 10V6.048H123.588V6.904C123.716 6.61067 123.908 6.384 124.164 6.224C124.42 6.05867 124.708 5.976 125.028 5.976C125.353 5.976 125.625 6.03467 125.844 6.152C126.063 6.264 126.225 6.44 126.332 6.68C126.444 6.91467 126.5 7.208 126.5 7.56V10H125.788V7.6C125.788 7.38667 125.759 7.20533 125.7 7.056C125.641 6.90667 125.543 6.792 125.404 6.712C125.271 6.62667 125.092 6.584 124.868 6.584C124.633 6.584 124.42 6.63733 124.228 6.744C124.041 6.85067 123.895 6.99467 123.788 7.176C123.687 7.35733 123.636 7.56 123.636 7.784V10H122.924Z" fill="black"/>
<path d="M40.2561 22.072C39.9468 22.072 39.6535 22.048 39.3761 22C39.0988 21.952 38.8455 21.88 38.6161 21.784C38.3868 21.688 38.1868 21.5707 38.0161 21.432L38.2801 20.84C38.4615 20.984 38.6535 21.1013 38.8561 21.192C39.0641 21.2773 39.2828 21.3387 39.5121 21.376C39.7468 21.4133 39.9948 21.432 40.2561 21.432C40.6988 21.432 41.0375 21.344 41.2721 21.168C41.5121 20.992 41.6321 20.752 41.6321 20.448C41.6321 20.288 41.5921 20.1547 41.5121 20.048C41.4375 19.9413 41.3175 19.8533 41.1521 19.784C40.9921 19.7147 40.7841 19.6533 40.5281 19.6L39.6081 19.424C39.0908 19.3227 38.7175 19.144 38.4881 18.888C38.2588 18.632 38.1441 18.3093 38.1441 17.92C38.1441 17.5893 38.2348 17.304 38.4161 17.064C38.6028 16.8187 38.8588 16.6293 39.1841 16.496C39.5148 16.3573 39.8908 16.288 40.3121 16.288C40.5788 16.288 40.8268 16.3147 41.0561 16.368C41.2908 16.416 41.5041 16.4907 41.6961 16.592C41.8935 16.6933 42.0695 16.816 42.2241 16.96L41.9601 17.544C41.7308 17.32 41.4801 17.1627 41.2081 17.072C40.9361 16.976 40.6348 16.928 40.3041 16.928C40.0268 16.928 39.7788 16.968 39.5601 17.048C39.3415 17.1227 39.1681 17.2347 39.0401 17.384C38.9175 17.528 38.8561 17.7067 38.8561 17.92C38.8561 18.1547 38.9308 18.3413 39.0801 18.48C39.2295 18.6133 39.4828 18.7173 39.8401 18.792L40.7521 18.968C41.2961 19.0693 41.6988 19.24 41.9601 19.48C42.2215 19.72 42.3521 20.032 42.3521 20.416C42.3521 20.736 42.2641 21.0213 42.0881 21.272C41.9175 21.5227 41.6748 21.72 41.3601 21.864C41.0508 22.0027 40.6828 22.072 40.2561 22.072ZM43.4181 17.096V16.304H44.2821V17.096H43.4181ZM43.4981 22V18.048H44.2101V22H43.4981ZM45.3989 22V21.544L47.9029 18.416L47.9429 18.64H45.4549V18.048H48.6069V18.504L46.0789 21.656L46.0389 21.408H48.6949V22H45.3989ZM51.6053 22.072C51.1626 22.072 50.7786 21.992 50.4533 21.832C50.1333 21.6667 49.8879 21.432 49.7173 21.128C49.5466 20.8187 49.4613 20.4507 49.4613 20.024C49.4613 19.624 49.5413 19.272 49.7013 18.968C49.8613 18.6587 50.0879 18.416 50.3813 18.24C50.6746 18.064 51.0239 17.976 51.4293 17.976C51.8133 17.976 52.1386 18.0587 52.4053 18.224C52.6773 18.3893 52.8826 18.6213 53.0213 18.92C53.1653 19.2187 53.2373 19.5733 53.2373 19.984V20.216H49.9973V19.72H52.7733L52.6213 19.88C52.6213 19.4427 52.5173 19.1067 52.3093 18.872C52.1066 18.6373 51.8133 18.52 51.4293 18.52C51.1786 18.52 50.9546 18.5787 50.7573 18.696C50.5653 18.808 50.4159 18.968 50.3093 19.176C50.2026 19.384 50.1493 19.6373 50.1493 19.936V20.016C50.1493 20.336 50.2079 20.6053 50.3253 20.824C50.4426 21.0427 50.6106 21.208 50.8293 21.32C51.0479 21.432 51.3093 21.488 51.6133 21.488C51.8319 21.488 52.0533 21.4587 52.2773 21.4C52.5066 21.336 52.7199 21.224 52.9173 21.064L53.1573 21.576C52.9546 21.7467 52.7119 21.872 52.4293 21.952C52.1519 22.032 51.8773 22.072 51.6053 22.072Z" fill="#CE3439"/>
<path d="M81.0392 22.072C80.7939 22.072 80.5565 22.0453 80.3272 21.992C80.1032 21.9387 79.8925 21.8613 79.6952 21.76C79.4979 21.6533 79.3219 21.5253 79.1672 21.376L79.4472 20.816C79.6925 21.04 79.9432 21.2027 80.1992 21.304C80.4605 21.4 80.7405 21.448 81.0392 21.448C81.4339 21.448 81.7405 21.3467 81.9592 21.144C82.1832 20.936 82.2952 20.6453 82.2952 20.272C82.2952 19.904 82.1912 19.6107 81.9832 19.392C81.7752 19.1733 81.4872 19.064 81.1192 19.064C80.8739 19.064 80.6499 19.1147 80.4472 19.216C80.2499 19.312 80.0659 19.4747 79.8952 19.704H79.3352V16.36H82.7112V16.976H79.9832V19.096H79.9512C80.0792 18.904 80.2552 18.7493 80.4792 18.632C80.7032 18.5093 80.9539 18.448 81.2312 18.448C81.5939 18.448 81.9059 18.5253 82.1672 18.68C82.4285 18.8293 82.6285 19.0373 82.7672 19.304C82.9112 19.5707 82.9832 19.8827 82.9832 20.24C82.9832 20.6187 82.9032 20.9467 82.7432 21.224C82.5832 21.496 82.3592 21.7067 82.0712 21.856C81.7832 22 81.4392 22.072 81.0392 22.072ZM85.7721 22.072C85.1427 22.072 84.6467 21.936 84.2841 21.664C83.9214 21.3867 83.7401 21.0027 83.7401 20.512C83.7401 20.2613 83.7881 20.04 83.8841 19.848C83.9854 19.6507 84.1241 19.4907 84.3001 19.368C84.4814 19.24 84.6894 19.1547 84.9241 19.112V19.12C84.7214 19.072 84.5401 18.984 84.3801 18.856C84.2254 18.728 84.1027 18.5733 84.0121 18.392C83.9214 18.2107 83.8761 18.0107 83.8761 17.792C83.8761 17.3227 84.0467 16.9547 84.3881 16.688C84.7347 16.4213 85.1961 16.288 85.7721 16.288C86.3481 16.288 86.8067 16.4213 87.1481 16.688C87.4947 16.9547 87.6681 17.3227 87.6681 17.792C87.6681 18.0053 87.6227 18.2053 87.5321 18.392C87.4414 18.5733 87.3161 18.728 87.1561 18.856C87.0014 18.984 86.8201 19.072 86.6121 19.12V19.112C86.8414 19.1493 87.0441 19.232 87.2201 19.36C87.4014 19.488 87.5427 19.6507 87.6441 19.848C87.7507 20.04 87.8041 20.2613 87.8041 20.512C87.8041 21.0027 87.6227 21.3867 87.2601 21.664C86.9027 21.936 86.4067 22.072 85.7721 22.072ZM85.7721 21.472C86.2147 21.472 86.5507 21.3867 86.7801 21.216C87.0147 21.0453 87.1321 20.7947 87.1321 20.464C87.1321 20.1333 87.0147 19.88 86.7801 19.704C86.5507 19.528 86.2147 19.44 85.7721 19.44C85.3294 19.44 84.9907 19.528 84.7561 19.704C84.5267 19.88 84.4121 20.1333 84.4121 20.464C84.4121 20.7947 84.5267 21.0453 84.7561 21.216C84.9907 21.3867 85.3294 21.472 85.7721 21.472ZM85.7721 18.84C86.1561 18.84 86.4574 18.7547 86.6761 18.584C86.8947 18.408 87.0041 18.1653 87.0041 17.856C87.0041 17.552 86.8947 17.3147 86.6761 17.144C86.4574 16.968 86.1561 16.88 85.7721 16.88C85.3934 16.88 85.0947 16.968 84.8761 17.144C84.6574 17.3147 84.5481 17.552 84.5481 17.856C84.5481 18.1653 84.6574 18.408 84.8761 18.584C85.0947 18.7547 85.3934 18.84 85.7721 18.84ZM90.6329 22.072C90.3876 22.072 90.1503 22.0453 89.9209 21.992C89.6969 21.9387 89.4863 21.8613 89.2889 21.76C89.0916 21.6533 88.9156 21.5253 88.7609 21.376L89.0409 20.816C89.2863 21.04 89.5369 21.2027 89.7929 21.304C90.0543 21.4 90.3343 21.448 90.6329 21.448C91.0276 21.448 91.3343 21.3467 91.5529 21.144C91.7769 20.936 91.8889 20.6453 91.8889 20.272C91.8889 19.904 91.7849 19.6107 91.5769 19.392C91.3689 19.1733 91.0809 19.064 90.7129 19.064C90.4676 19.064 90.2436 19.1147 90.0409 19.216C89.8436 19.312 89.6596 19.4747 89.4889 19.704H88.9289V16.36H92.3049V16.976H89.5769V19.096H89.5449C89.6729 18.904 89.8489 18.7493 90.0729 18.632C90.2969 18.5093 90.5476 18.448 90.8249 18.448C91.1876 18.448 91.4996 18.5253 91.7609 18.68C92.0223 18.8293 92.2223 19.0373 92.3609 19.304C92.5049 19.5707 92.5769 19.8827 92.5769 20.24C92.5769 20.6187 92.4969 20.9467 92.3369 21.224C92.1769 21.496 91.9529 21.7067 91.6649 21.856C91.3769 22 91.0329 22.072 90.6329 22.072ZM95.3922 22L97.4802 18.976V19.24L95.5042 16.36H96.3282L97.9282 18.712H97.8882L99.4882 16.36H100.312L98.3202 19.24V18.976L100.416 22H99.5842L97.8722 19.496H97.9282L96.2162 22H95.3922ZM105.305 22.072C105.059 22.072 104.822 22.0453 104.593 21.992C104.369 21.9387 104.158 21.8613 103.961 21.76C103.763 21.6533 103.587 21.5253 103.433 21.376L103.713 20.816C103.958 21.04 104.209 21.2027 104.465 21.304C104.726 21.4 105.006 21.448 105.305 21.448C105.699 21.448 106.006 21.3467 106.225 21.144C106.449 20.936 106.561 20.6453 106.561 20.272C106.561 19.904 106.457 19.6107 106.249 19.392C106.041 19.1733 105.753 19.064 105.385 19.064C105.139 19.064 104.915 19.1147 104.713 19.216C104.515 19.312 104.331 19.4747 104.161 19.704H103.601V16.36H106.977V16.976H104.249V19.096H104.217C104.345 18.904 104.521 18.7493 104.745 18.632C104.969 18.5093 105.219 18.448 105.497 18.448C105.859 18.448 106.171 18.5253 106.433 18.68C106.694 18.8293 106.894 19.0373 107.033 19.304C107.177 19.5707 107.249 19.8827 107.249 20.24C107.249 20.6187 107.169 20.9467 107.009 21.224C106.849 21.496 106.625 21.7067 106.337 21.856C106.049 22 105.705 22.072 105.305 22.072ZM108.294 22V21.472L110.278 19.392C110.47 19.1893 110.619 19.0053 110.726 18.84C110.832 18.6747 110.91 18.5147 110.958 18.36C111.006 18.2053 111.03 18.048 111.03 17.888C111.03 17.5733 110.928 17.3333 110.726 17.168C110.528 16.9973 110.254 16.912 109.902 16.912C109.635 16.912 109.371 16.9653 109.11 17.072C108.854 17.1733 108.608 17.336 108.374 17.56L108.102 17C108.336 16.776 108.616 16.6027 108.942 16.48C109.267 16.352 109.603 16.288 109.95 16.288C110.318 16.288 110.635 16.352 110.902 16.48C111.168 16.6027 111.371 16.7813 111.51 17.016C111.654 17.2453 111.726 17.5227 111.726 17.848C111.726 18.0133 111.707 18.176 111.67 18.336C111.632 18.4907 111.574 18.6453 111.494 18.8C111.419 18.9547 111.32 19.1147 111.198 19.28C111.075 19.4453 110.926 19.6187 110.75 19.8L109.198 21.416V21.384H111.958V22H108.294ZM114.899 22.072C114.653 22.072 114.416 22.0453 114.187 21.992C113.963 21.9387 113.752 21.8613 113.555 21.76C113.357 21.6533 113.181 21.5253 113.027 21.376L113.307 20.816C113.552 21.04 113.803 21.2027 114.059 21.304C114.32 21.4 114.6 21.448 114.899 21.448C115.293 21.448 115.6 21.3467 115.819 21.144C116.043 20.936 116.155 20.6453 116.155 20.272C116.155 19.904 116.051 19.6107 115.843 19.392C115.635 19.1733 115.347 19.064 114.979 19.064C114.733 19.064 114.509 19.1147 114.307 19.216C114.109 19.312 113.925 19.4747 113.755 19.704H113.195V16.36H116.571V16.976H113.843V19.096H113.811C113.939 18.904 114.115 18.7493 114.339 18.632C114.563 18.5093 114.813 18.448 115.091 18.448C115.453 18.448 115.765 18.5253 116.027 18.68C116.288 18.8293 116.488 19.0373 116.627 19.304C116.771 19.5707 116.843 19.8827 116.843 20.24C116.843 20.6187 116.763 20.9467 116.603 21.224C116.443 21.496 116.219 21.7067 115.931 21.856C115.643 22 115.299 22.072 114.899 22.072ZM119.658 22L121.746 18.976V19.24L119.77 16.36H120.594L122.194 18.712H122.154L123.754 16.36H124.578L122.586 19.24V18.976L124.682 22H123.85L122.138 19.496H122.194L120.482 22H119.658ZM129.698 22.072C129.245 22.072 128.861 21.9627 128.546 21.744C128.232 21.5253 127.992 21.2107 127.826 20.8C127.661 20.384 127.578 19.8853 127.578 19.304C127.578 18.6533 127.669 18.1067 127.85 17.664C128.032 17.216 128.293 16.8747 128.634 16.64C128.976 16.4053 129.386 16.288 129.866 16.288C130.08 16.288 130.282 16.3147 130.474 16.368C130.666 16.416 130.848 16.4907 131.018 16.592C131.189 16.6933 131.349 16.8187 131.498 16.968L131.234 17.52C131.026 17.3013 130.808 17.1467 130.578 17.056C130.349 16.96 130.112 16.912 129.866 16.912C129.605 16.912 129.373 16.9627 129.17 17.064C128.968 17.16 128.797 17.3067 128.658 17.504C128.52 17.696 128.413 17.936 128.338 18.224C128.269 18.5067 128.234 18.8373 128.234 19.216V19.68H128.242C128.29 19.424 128.386 19.2053 128.53 19.024C128.674 18.8373 128.853 18.696 129.066 18.6C129.28 18.4987 129.514 18.448 129.77 18.448C130.112 18.448 130.41 18.5253 130.666 18.68C130.928 18.8293 131.13 19.04 131.274 19.312C131.424 19.5787 131.498 19.888 131.498 20.24C131.498 20.592 131.421 20.9067 131.266 21.184C131.117 21.4613 130.906 21.68 130.634 21.84C130.362 21.9947 130.05 22.072 129.698 22.072ZM129.658 21.464C129.893 21.464 130.098 21.4133 130.274 21.312C130.45 21.2107 130.586 21.0693 130.682 20.888C130.784 20.7067 130.834 20.496 130.834 20.256C130.834 20.016 130.784 19.808 130.682 19.632C130.586 19.4507 130.45 19.3093 130.274 19.208C130.098 19.1067 129.89 19.056 129.65 19.056C129.416 19.056 129.208 19.1067 129.026 19.208C128.85 19.3093 128.709 19.4507 128.602 19.632C128.501 19.808 128.45 20.016 128.45 20.256C128.45 20.496 128.501 20.7067 128.602 20.888C128.704 21.0693 128.845 21.2107 129.026 21.312C129.208 21.4133 129.418 21.464 129.658 21.464ZM134.223 22.072C133.989 22.072 133.757 22.048 133.527 22C133.298 21.952 133.079 21.8773 132.871 21.776C132.669 21.6747 132.482 21.5493 132.311 21.4L132.583 20.84C132.839 21.0587 133.106 21.216 133.383 21.312C133.661 21.4027 133.941 21.448 134.223 21.448C134.458 21.448 134.669 21.4133 134.855 21.344C135.047 21.2693 135.197 21.16 135.303 21.016C135.415 20.8667 135.471 20.6747 135.471 20.44C135.471 20.1147 135.362 19.8693 135.143 19.704C134.925 19.5333 134.607 19.448 134.191 19.448H133.343V18.832H134.087C134.327 18.832 134.541 18.7947 134.727 18.72C134.919 18.64 135.069 18.5227 135.175 18.368C135.282 18.2133 135.335 18.0213 135.335 17.792C135.335 17.4987 135.234 17.28 135.031 17.136C134.829 16.9867 134.567 16.912 134.247 16.912C133.965 16.912 133.687 16.96 133.415 17.056C133.149 17.152 132.903 17.3173 132.679 17.552L132.415 17C132.639 16.76 132.917 16.5813 133.247 16.464C133.578 16.3467 133.922 16.288 134.279 16.288C134.637 16.288 134.943 16.3467 135.199 16.464C135.461 16.576 135.663 16.7413 135.807 16.96C135.951 17.1733 136.023 17.432 136.023 17.736C136.023 18.056 135.933 18.3387 135.751 18.584C135.57 18.8293 135.325 19.0027 135.015 19.104V19.096C135.239 19.1387 135.437 19.2213 135.607 19.344C135.778 19.4613 135.914 19.616 136.015 19.808C136.117 19.9947 136.167 20.216 136.167 20.472C136.167 20.808 136.085 21.096 135.919 21.336C135.759 21.576 135.533 21.76 135.239 21.888C134.951 22.0107 134.613 22.072 134.223 22.072ZM139.164 22.072C138.919 22.072 138.682 22.0453 138.452 21.992C138.228 21.9387 138.018 21.8613 137.82 21.76C137.623 21.6533 137.447 21.5253 137.292 21.376L137.572 20.816C137.818 21.04 138.068 21.2027 138.324 21.304C138.586 21.4 138.866 21.448 139.164 21.448C139.559 21.448 139.866 21.3467 140.084 21.144C140.308 20.936 140.42 20.6453 140.42 20.272C140.42 19.904 140.316 19.6107 140.108 19.392C139.9 19.1733 139.612 19.064 139.244 19.064C138.999 19.064 138.775 19.1147 138.572 19.216C138.375 19.312 138.191 19.4747 138.02 19.704H137.46V16.36H140.836V16.976H138.108V19.096H138.076C138.204 18.904 138.38 18.7493 138.604 18.632C138.828 18.5093 139.079 18.448 139.356 18.448C139.719 18.448 140.031 18.5253 140.292 18.68C140.554 18.8293 140.754 19.0373 140.892 19.304C141.036 19.5707 141.108 19.8827 141.108 20.24C141.108 20.6187 141.028 20.9467 140.868 21.224C140.708 21.496 140.484 21.7067 140.196 21.856C139.908 22 139.564 22.072 139.164 22.072Z" fill="black"/>
<path d="M39.7041 35L37.8961 29.36H38.6481L40.1201 34.144H40.0481L41.6881 29.36H42.2721L43.8961 34.144H43.8401L45.3281 29.36H46.0481L44.2321 35H43.5521L41.9601 30.344H41.9921L40.3681 35H39.7041ZM48.5584 35.072C48.1157 35.072 47.7317 34.992 47.4064 34.832C47.0864 34.6667 46.841 34.432 46.6704 34.128C46.4997 33.8187 46.4144 33.4507 46.4144 33.024C46.4144 32.624 46.4944 32.272 46.6544 31.968C46.8144 31.6587 47.041 31.416 47.3344 31.24C47.6277 31.064 47.977 30.976 48.3824 30.976C48.7664 30.976 49.0917 31.0587 49.3584 31.224C49.6304 31.3893 49.8357 31.6213 49.9744 31.92C50.1184 32.2187 50.1904 32.5733 50.1904 32.984V33.216H46.9504V32.72H49.7264L49.5744 32.88C49.5744 32.4427 49.4704 32.1067 49.2624 31.872C49.0597 31.6373 48.7664 31.52 48.3824 31.52C48.1317 31.52 47.9077 31.5787 47.7104 31.696C47.5184 31.808 47.369 31.968 47.2624 32.176C47.1557 32.384 47.1024 32.6373 47.1024 32.936V33.016C47.1024 33.336 47.161 33.6053 47.2784 33.824C47.3957 34.0427 47.5637 34.208 47.7824 34.32C48.001 34.432 48.2624 34.488 48.5664 34.488C48.785 34.488 49.0064 34.4587 49.2304 34.4C49.4597 34.336 49.673 34.224 49.8704 34.064L50.1104 34.576C49.9077 34.7467 49.665 34.872 49.3824 34.952C49.105 35.032 48.8304 35.072 48.5584 35.072ZM51.2853 30.096V29.304H52.1493V30.096H51.2853ZM51.3653 35V31.048H52.0773V35H51.3653ZM55.2101 36.512C54.8955 36.512 54.5835 36.464 54.2741 36.368C53.9648 36.2773 53.7008 36.152 53.4821 35.992L53.7061 35.44C53.8555 35.536 54.0128 35.6187 54.1781 35.688C54.3435 35.7627 54.5115 35.816 54.6821 35.848C54.8581 35.8853 55.0315 35.904 55.2021 35.904C55.6128 35.904 55.9328 35.8 56.1621 35.592C56.3968 35.384 56.5141 35.088 56.5141 34.704V33.976H56.4981C56.4021 34.248 56.2288 34.4693 55.9781 34.64C55.7275 34.8053 55.4368 34.888 55.1061 34.888C54.7328 34.888 54.4075 34.808 54.1301 34.648C53.8528 34.4827 53.6368 34.2533 53.4821 33.96C53.3328 33.6667 53.2581 33.3227 53.2581 32.928C53.2581 32.5387 53.3328 32.1973 53.4821 31.904C53.6368 31.6107 53.8528 31.384 54.1301 31.224C54.4075 31.0587 54.7328 30.976 55.1061 30.976C55.4368 30.976 55.7275 31.0613 55.9781 31.232C56.2341 31.4027 56.4101 31.6293 56.5061 31.912H56.5141V31.048H57.1781V34.64C57.1781 35.024 57.0981 35.3547 56.9381 35.632C56.7835 35.9147 56.5595 36.1307 56.2661 36.28C55.9728 36.4347 55.6208 36.512 55.2101 36.512ZM55.2261 34.304C55.6155 34.304 55.9221 34.1787 56.1461 33.928C56.3755 33.6773 56.4901 33.344 56.4901 32.928C56.4901 32.512 56.3755 32.1813 56.1461 31.936C55.9221 31.6853 55.6155 31.56 55.2261 31.56C54.8421 31.56 54.5355 31.6853 54.3061 31.936C54.0821 32.1813 53.9701 32.512 53.9701 32.928C53.9701 33.344 54.0821 33.6773 54.3061 33.928C54.5355 34.1787 54.8421 34.304 55.2261 34.304ZM58.5997 35V29.36H59.2877V31.888C59.405 31.6053 59.589 31.384 59.8397 31.224C60.0957 31.0587 60.3837 30.976 60.7037 30.976C61.029 30.976 61.301 31.0347 61.5197 31.152C61.7384 31.264 61.901 31.44 62.0077 31.68C62.1197 31.9147 62.1757 32.208 62.1757 32.56V35H61.4637V32.6C61.4637 32.3867 61.4317 32.2053 61.3677 32.056C61.309 31.9067 61.213 31.792 61.0797 31.712C60.9464 31.6267 60.7677 31.584 60.5437 31.584C60.309 31.584 60.0984 31.6373 59.9117 31.744C59.725 31.8507 59.5784 31.9947 59.4717 32.176C59.365 32.3573 59.3117 32.56 59.3117 32.784V35H58.5997ZM65.2481 35.072C64.7734 35.072 64.4134 34.9467 64.1681 34.696C63.9281 34.4453 63.8081 34.088 63.8081 33.624V31.632H63.0081V31.048H63.8321V29.872H64.5201V31.048H65.9361V31.632H64.5201V33.56C64.5201 33.864 64.5867 34.0907 64.7201 34.24C64.8587 34.384 65.0694 34.456 65.3521 34.456C65.4641 34.456 65.5707 34.4453 65.6721 34.424C65.7787 34.4027 65.8801 34.3707 65.9761 34.328L66.0881 34.888C65.9814 34.9467 65.8507 34.992 65.6961 35.024C65.5467 35.056 65.3974 35.072 65.2481 35.072Z" fill="#CE3439"/>
<path d="M79.3718 35V34.472L81.3558 32.392C81.5478 32.1893 81.6972 32.0053 81.8038 31.84C81.9105 31.6747 81.9878 31.5147 82.0358 31.36C82.0838 31.2053 82.1078 31.048 82.1078 30.888C82.1078 30.5733 82.0065 30.3333 81.8038 30.168C81.6065 29.9973 81.3318 29.912 80.9798 29.912C80.7132 29.912 80.4492 29.9653 80.1878 30.072C79.9318 30.1733 79.6865 30.336 79.4518 30.56L79.1798 30C79.4145 29.776 79.6945 29.6027 80.0198 29.48C80.3452 29.352 80.6812 29.288 81.0278 29.288C81.3958 29.288 81.7132 29.352 81.9798 29.48C82.2465 29.6027 82.4492 29.7813 82.5878 30.016C82.7318 30.2453 82.8038 30.5227 82.8038 30.848C82.8038 31.0133 82.7852 31.176 82.7478 31.336C82.7105 31.4907 82.6518 31.6453 82.5718 31.8C82.4972 31.9547 82.3985 32.1147 82.2758 32.28C82.1532 32.4453 82.0038 32.6187 81.8278 32.8L80.2758 34.416V34.384H83.0358V35H79.3718ZM85.9767 35.072C85.7314 35.072 85.494 35.0453 85.2647 34.992C85.0407 34.9387 84.83 34.8613 84.6327 34.76C84.4354 34.6533 84.2594 34.5253 84.1047 34.376L84.3847 33.816C84.63 34.04 84.8807 34.2027 85.1367 34.304C85.398 34.4 85.678 34.448 85.9767 34.448C86.3714 34.448 86.678 34.3467 86.8967 34.144C87.1207 33.936 87.2327 33.6453 87.2327 33.272C87.2327 32.904 87.1287 32.6107 86.9207 32.392C86.7127 32.1733 86.4247 32.064 86.0567 32.064C85.8114 32.064 85.5874 32.1147 85.3847 32.216C85.1874 32.312 85.0034 32.4747 84.8327 32.704H84.2727V29.36H87.6487V29.976H84.9207V32.096H84.8887C85.0167 31.904 85.1927 31.7493 85.4167 31.632C85.6407 31.5093 85.8914 31.448 86.1687 31.448C86.5314 31.448 86.8434 31.5253 87.1047 31.68C87.366 31.8293 87.566 32.0373 87.7047 32.304C87.8487 32.5707 87.9207 32.8827 87.9207 33.24C87.9207 33.6187 87.8407 33.9467 87.6807 34.224C87.5207 34.496 87.2967 34.7067 87.0087 34.856C86.7207 35 86.3767 35.072 85.9767 35.072ZM90.1976 36.536C89.8189 35.96 89.5389 35.3733 89.3576 34.776C89.1816 34.1733 89.0936 33.5467 89.0936 32.896C89.0936 32.2453 89.1816 31.6213 89.3576 31.024C89.5389 30.4267 89.8189 29.8373 90.1976 29.256L90.7096 29.44C90.5069 29.8187 90.3389 30.2 90.2056 30.584C90.0722 30.968 89.9709 31.352 89.9016 31.736C89.8376 32.1147 89.8056 32.5013 89.8056 32.896C89.8056 33.2853 89.8376 33.672 89.9016 34.056C89.9709 34.44 90.0722 34.8213 90.2056 35.2C90.3389 35.584 90.5069 35.968 90.7096 36.352L90.1976 36.536ZM91.8291 35V29.36H92.5411V31.904H92.5731L95.2531 29.36H96.1571L93.0451 32.312L93.0931 31.92L96.3491 35H95.3971L92.5731 32.352H92.5411V35H91.8291ZM98.6789 36.512C98.3642 36.512 98.0522 36.464 97.7429 36.368C97.4335 36.2773 97.1695 36.152 96.9509 35.992L97.1749 35.44C97.3242 35.536 97.4815 35.6187 97.6469 35.688C97.8122 35.7627 97.9802 35.816 98.1509 35.848C98.3269 35.8853 98.5002 35.904 98.6709 35.904C99.0815 35.904 99.4015 35.8 99.6309 35.592C99.8655 35.384 99.9829 35.088 99.9829 34.704V33.976H99.9669C99.8709 34.248 99.6975 34.4693 99.4469 34.64C99.1962 34.8053 98.9055 34.888 98.5749 34.888C98.2015 34.888 97.8762 34.808 97.5989 34.648C97.3215 34.4827 97.1055 34.2533 96.9509 33.96C96.8015 33.6667 96.7269 33.3227 96.7269 32.928C96.7269 32.5387 96.8015 32.1973 96.9509 31.904C97.1055 31.6107 97.3215 31.384 97.5989 31.224C97.8762 31.0587 98.2015 30.976 98.5749 30.976C98.9055 30.976 99.1962 31.0613 99.4469 31.232C99.7029 31.4027 99.8789 31.6293 99.9749 31.912H99.9829V31.048H100.647V34.64C100.647 35.024 100.567 35.3547 100.407 35.632C100.252 35.9147 100.028 36.1307 99.7349 36.28C99.4415 36.4347 99.0895 36.512 98.6789 36.512ZM98.6949 34.304C99.0842 34.304 99.3909 34.1787 99.6149 33.928C99.8442 33.6773 99.9589 33.344 99.9589 32.928C99.9589 32.512 99.8442 32.1813 99.6149 31.936C99.3909 31.6853 99.0842 31.56 98.6949 31.56C98.3109 31.56 98.0042 31.6853 97.7749 31.936C97.5509 32.1813 97.4389 32.512 97.4389 32.928C97.4389 33.344 97.5509 33.6773 97.7749 33.928C98.0042 34.1787 98.3109 34.304 98.6949 34.304ZM103.524 35.072C103.306 35.072 103.09 35.0507 102.876 35.008C102.668 34.9707 102.474 34.9173 102.292 34.848C102.116 34.7733 101.964 34.6827 101.836 34.576L102.068 34.072C102.202 34.1733 102.348 34.256 102.508 34.32C102.674 34.384 102.842 34.432 103.012 34.464C103.188 34.4907 103.356 34.504 103.516 34.504C103.847 34.504 104.1 34.4533 104.276 34.352C104.458 34.2507 104.548 34.1093 104.548 33.928C104.548 33.7733 104.495 33.656 104.388 33.576C104.287 33.4907 104.116 33.4267 103.876 33.384L103.052 33.24C102.684 33.1707 102.407 33.0453 102.22 32.864C102.039 32.6827 101.948 32.4453 101.948 32.152C101.948 31.9173 102.012 31.712 102.14 31.536C102.274 31.36 102.463 31.224 102.708 31.128C102.954 31.0267 103.247 30.976 103.588 30.976C103.775 30.976 103.964 30.9947 104.156 31.032C104.354 31.0693 104.535 31.1253 104.7 31.2C104.871 31.2693 105.01 31.3573 105.116 31.464L104.876 31.968C104.77 31.8667 104.642 31.7867 104.492 31.728C104.348 31.664 104.196 31.6187 104.036 31.592C103.882 31.56 103.73 31.544 103.58 31.544C103.271 31.544 103.031 31.5973 102.86 31.704C102.69 31.8053 102.604 31.9493 102.604 32.136C102.604 32.2853 102.652 32.4027 102.748 32.488C102.85 32.5733 103.012 32.6373 103.236 32.68L104.036 32.824C104.431 32.8987 104.724 33.024 104.916 33.2C105.108 33.3707 105.204 33.608 105.204 33.912C105.204 34.1467 105.135 34.352 104.996 34.528C104.858 34.6987 104.663 34.832 104.412 34.928C104.162 35.024 103.866 35.072 103.524 35.072ZM106.477 36.536L105.957 36.352C106.165 35.9627 106.336 35.576 106.469 35.192C106.602 34.8133 106.701 34.4347 106.765 34.056C106.829 33.672 106.861 33.2853 106.861 32.896C106.861 32.5067 106.829 32.1227 106.765 31.744C106.701 31.36 106.602 30.976 106.469 30.592C106.336 30.208 106.165 29.824 105.957 29.44L106.477 29.256C106.85 29.832 107.125 30.4213 107.301 31.024C107.482 31.6213 107.573 32.2453 107.573 32.896C107.573 33.5413 107.482 34.1653 107.301 34.768C107.125 35.3653 106.85 35.9547 106.477 36.536Z" fill="black"/>
<rect width="32.1739" height="42" rx="3.48" fill="#CB3335"/>
<g clip-path="url(#clip0_535_248)">
<path fill-rule="evenodd" clip-rule="evenodd" d="M16.7122 11.0091C16.7971 11.0042 16.8859 11.0173 16.9101 11.0378C16.9343 11.0583 17.5976 11.3836 18.3837 11.7609C19.1702 12.1378 20.1498 12.6083 20.5611 12.806C20.9724 13.0033 22.7442 13.8523 24.498 14.6927C26.2522 15.5327 27.721 16.2505 27.7628 16.2874C27.8332 16.3497 27.8384 16.6939 27.8411 21.5017C27.8433 25.6193 27.8323 26.6639 27.7874 26.7238C27.7566 26.7648 25.2669 27.9695 22.2546 29.4005C19.2424 30.8319 16.7386 32.0029 16.6902 32.0029C16.6418 32.0029 16.3845 31.8955 16.1183 31.7646C15.8522 31.6334 13.3599 30.4382 10.5798 29.1085C6.41419 27.1155 5.51068 26.6684 5.4425 26.5671C5.37872 26.4724 5.36376 26.3879 5.37696 26.198C5.38664 26.0626 5.42887 23.7834 5.47066 21.1326C5.51288 18.4817 5.56523 16.2669 5.58722 16.2107C5.62065 16.125 6.52196 15.6914 11.0927 13.5631C14.745 11.8622 16.6092 11.0152 16.7122 11.0091ZM6.67372 16.351C6.679 16.3641 7.36081 16.7107 8.18954 17.1212C9.01827 17.5318 9.74583 17.894 9.80609 17.9264C9.91166 17.9834 10.1109 17.8915 14.8757 15.5909C17.6034 14.2735 19.8204 13.1842 19.8023 13.1694C19.7843 13.1546 19.0915 12.8179 18.2627 12.4208C17.434 12.0238 16.7315 11.7002 16.7012 11.7014C16.6708 11.7027 14.4002 12.7441 11.6553 14.0155C8.9105 15.287 6.66888 16.3378 6.67372 16.351ZM13.8411 16.8054C12.1067 17.6401 10.6867 18.332 10.6867 18.3435C10.6863 18.3546 11.1064 18.5744 11.6206 18.8316L12.5553 19.2988C13.0326 19.0711 15.2571 17.9932 17.8061 16.7566C20.3552 15.5204 22.4433 14.4901 22.4469 14.4675C22.4499 14.445 22.0431 14.228 21.542 13.9856C21.0415 13.7432 20.6258 13.5451 20.6183 13.5459C20.6113 13.5467 19.7926 13.9388 18.7998 14.4175C17.807 14.8961 15.5755 15.9708 13.8411 16.8054ZM16.1526 18.2697C14.599 19.0207 13.3269 19.6494 13.3264 19.6663C13.3256 19.6831 14.0676 20.0662 14.9747 20.5173L16.6242 21.3376C24.3458 17.6524 26.6213 16.5589 26.6631 16.5298C26.7286 16.4843 26.5171 16.3715 25.0237 15.657C24.0801 15.2058 23.2941 14.8342 23.2765 14.8313C23.2589 14.8285 22.2845 15.2936 21.111 15.8649C19.9374 16.4359 17.7063 17.5183 16.1526 18.2697ZM6.15906 21.5427C6.10364 24.8875 6.09528 26.2107 6.12959 26.2439C6.15554 26.269 6.66228 26.5208 7.2548 26.8038C7.84775 27.0864 10.1338 28.1786 12.3354 29.2307C14.537 30.2823 16.3427 31.1379 16.3484 31.1314C16.3537 31.1252 16.3396 29.0433 16.3167 26.5056C16.2938 23.9676 16.2697 21.8885 16.2626 21.8848C16.256 21.8811 15.4981 21.5005 14.5788 21.0395L12.9072 20.2011C12.8641 20.3984 12.8395 20.9447 12.8241 21.5427C12.7999 22.5099 12.788 22.6411 12.7159 22.7322C12.6616 22.8005 12.5847 22.8384 12.4849 22.8458C12.3644 22.8552 12.0886 22.7359 11.0619 22.2306C10.3617 21.886 9.74319 21.5718 9.68732 21.5325L9.58615 21.4607L9.56416 18.5305C7.62078 17.5568 6.87343 17.1828 6.64909 17.0712C6.42475 16.9592 6.24 16.8723 6.23868 16.8776C6.2378 16.8829 6.20173 18.9821 6.15906 21.5427ZM17.0056 21.8786C16.9858 21.8856 16.9858 23.9725 17.0056 26.5159C17.0258 29.0592 17.0522 31.1412 17.0641 31.1416C17.076 31.1424 19.3523 30.0654 22.1227 28.7479L27.1593 26.353C27.1764 19.1285 27.1667 17.0322 27.1483 17.0339C27.1302 17.0359 24.849 18.1237 22.0787 19.4517C19.3083 20.7798 17.0258 21.8717 17.0056 21.8786ZM10.2468 21.1121C11.6131 21.7794 12.0332 21.9787 12.0627 21.9849C12.1014 21.9931 12.1242 21.811 12.1484 21.3081C12.1669 20.9295 12.1814 20.4443 12.1814 20.2302V19.8406C10.7496 19.1253 10.3141 18.9177 10.29 18.9177C10.2618 18.9177 10.246 19.3107 10.2464 20.0149L10.2468 21.1121Z" fill="white"/>
</g>
<defs>
<clipPath id="clip0_535_248">
<rect width="22.5217" height="21" fill="white" transform="translate(5.3623 11)"/>
</clipPath>
</defs>
</svg>
