<svg width="150" height="41" viewBox="0 0 150 41" fill="none" xmlns="http://www.w3.org/2000/svg">
<path d="M2.464 6.072C2.21867 6.072 1.98133 6.04533 1.752 5.992C1.528 5.93867 1.31733 5.86133 1.12 5.76C0.922667 5.65333 0.746667 5.52533 0.592 5.376L0.872 4.816C1.11733 5.04 1.368 5.20267 1.624 5.304C1.88533 5.4 2.16533 5.448 2.464 5.448C2.85867 5.448 3.16533 5.34667 3.384 5.144C3.608 4.936 3.72 4.64533 3.72 4.272C3.72 3.904 3.616 3.61067 3.408 3.392C3.2 3.17333 2.912 3.064 2.544 3.064C2.29867 3.064 2.07467 3.11467 1.872 3.216C1.67467 3.312 1.49067 3.47467 1.32 3.704H0.76V0.36H4.136V0.976H1.408V3.096H1.376C1.504 2.904 1.68 2.74933 1.904 2.632C2.128 2.50933 2.37867 2.448 2.656 2.448C3.01867 2.448 3.33067 2.52533 3.592 2.68C3.85333 2.82933 4.05333 3.03733 4.192 3.304C4.336 3.57067 4.408 3.88267 4.408 4.24C4.408 4.61867 4.328 4.94667 4.168 5.224C4.008 5.496 3.784 5.70667 3.496 5.856C3.208 6 2.864 6.072 2.464 6.072ZM7.19688 6.072C6.76488 6.072 6.39954 5.96267 6.10088 5.744C5.80221 5.52 5.57554 5.19467 5.42088 4.768C5.27154 4.336 5.19688 3.80533 5.19688 3.176C5.19688 2.54667 5.27154 2.01867 5.42088 1.592C5.57554 1.16533 5.80221 0.842666 6.10088 0.624C6.39954 0.4 6.76488 0.288 7.19688 0.288C7.63954 0.288 8.00754 0.397333 8.30088 0.616C8.59421 0.834666 8.81554 1.15733 8.96488 1.584C9.11954 2.01067 9.19688 2.53867 9.19688 3.168C9.19688 3.79733 9.11954 4.328 8.96488 4.76C8.81554 5.192 8.59154 5.52 8.29288 5.744C7.99421 5.96267 7.62888 6.072 7.19688 6.072ZM7.19688 5.448C7.63421 5.448 7.95954 5.264 8.17288 4.896C8.38621 4.528 8.49288 3.952 8.49288 3.168C8.49288 2.38933 8.38621 1.81867 8.17288 1.456C7.96488 1.09333 7.64221 0.912 7.20488 0.912C6.76221 0.912 6.43421 1.096 6.22088 1.464C6.00754 1.82667 5.90088 2.39733 5.90088 3.176C5.90088 3.94933 6.00754 4.52267 6.22088 4.896C6.43421 5.264 6.75954 5.448 7.19688 5.448ZM11.9938 6.072C11.5618 6.072 11.1964 5.96267 10.8978 5.744C10.5991 5.52 10.3724 5.19467 10.2178 4.768C10.0684 4.336 9.99375 3.80533 9.99375 3.176C9.99375 2.54667 10.0684 2.01867 10.2178 1.592C10.3724 1.16533 10.5991 0.842666 10.8978 0.624C11.1964 0.4 11.5618 0.288 11.9938 0.288C12.4364 0.288 12.8044 0.397333 13.0978 0.616C13.3911 0.834666 13.6124 1.15733 13.7618 1.584C13.9164 2.01067 13.9938 2.53867 13.9938 3.168C13.9938 3.79733 13.9164 4.328 13.7618 4.76C13.6124 5.192 13.3884 5.52 13.0898 5.744C12.7911 5.96267 12.4258 6.072 11.9938 6.072ZM11.9938 5.448C12.4311 5.448 12.7564 5.264 12.9698 4.896C13.1831 4.528 13.2898 3.952 13.2898 3.168C13.2898 2.38933 13.1831 1.81867 12.9698 1.456C12.7618 1.09333 12.4391 0.912 12.0018 0.912C11.5591 0.912 11.2311 1.096 11.0178 1.464C10.8044 1.82667 10.6978 2.39733 10.6978 3.176C10.6978 3.94933 10.8044 4.52267 11.0178 4.896C11.2311 5.264 11.5564 5.448 11.9938 5.448ZM15.1186 6V2.048H15.7746V2.912C15.844 2.736 15.94 2.57867 16.0626 2.44C16.1906 2.296 16.3426 2.184 16.5186 2.104C16.7 2.01867 16.8973 1.976 17.1106 1.976C17.4573 1.976 17.7426 2.06133 17.9666 2.232C18.1906 2.40267 18.3293 2.62667 18.3826 2.904H18.3746C18.4813 2.64267 18.6493 2.424 18.8786 2.248C19.1133 2.06667 19.4066 1.976 19.7586 1.976C20.0573 1.976 20.3106 2.03467 20.5186 2.152C20.7266 2.264 20.884 2.43733 20.9906 2.672C21.0973 2.90667 21.1506 3.20267 21.1506 3.56V6H20.4466V3.608C20.4466 3.26667 20.3853 3.01067 20.2626 2.84C20.14 2.66933 19.9213 2.584 19.6066 2.584C19.372 2.584 19.1693 2.63733 18.9986 2.744C18.8333 2.84533 18.7053 2.98933 18.6146 3.176C18.5293 3.35733 18.4866 3.56267 18.4866 3.792V6H17.7826V3.608C17.7826 3.272 17.7133 3.01867 17.5746 2.848C17.436 2.672 17.2253 2.584 16.9426 2.584C16.7133 2.584 16.5133 2.64267 16.3426 2.76C16.1773 2.872 16.0493 3.01867 15.9586 3.2C15.868 3.38133 15.8226 3.57333 15.8226 3.776V6H15.1186ZM23.7792 6.072C23.3952 6.072 23.0992 5.96 22.8912 5.736C22.6832 5.512 22.5792 5.19733 22.5792 4.792V0.36H23.2912V4.72C23.2912 4.88 23.3152 5.01867 23.3632 5.136C23.4112 5.248 23.4805 5.33333 23.5712 5.392C23.6619 5.45067 23.7712 5.48 23.8992 5.48C23.9792 5.48 24.0539 5.47733 24.1232 5.472C24.1979 5.46133 24.2725 5.44533 24.3472 5.424L24.3632 5.984C24.2725 6.016 24.1792 6.03733 24.0832 6.048C23.9925 6.064 23.8912 6.072 23.7792 6.072ZM28.8955 6V0.992H26.8635V0.36H31.6395V0.992H29.6075V6H28.8955ZM33.2273 6.072C32.9446 6.072 32.6913 6.02133 32.4673 5.92C32.2433 5.81333 32.0673 5.66933 31.9393 5.488C31.8113 5.30667 31.7473 5.104 31.7473 4.88C31.7473 4.576 31.8326 4.33867 32.0033 4.168C32.174 3.992 32.4353 3.86667 32.7873 3.792C33.1446 3.71733 33.6006 3.68 34.1553 3.68H34.7233V4.168H34.1873C33.878 4.168 33.614 4.17867 33.3953 4.2C33.1766 4.216 32.998 4.25067 32.8593 4.304C32.7206 4.352 32.6193 4.41867 32.5553 4.504C32.4913 4.58933 32.4593 4.70133 32.4593 4.84C32.4593 5.05333 32.542 5.21867 32.7073 5.336C32.878 5.45333 33.094 5.512 33.3553 5.512C33.5846 5.512 33.7926 5.46133 33.9793 5.36C34.1713 5.25333 34.3233 5.112 34.4353 4.936C34.5526 4.76 34.6113 4.56533 34.6113 4.352V3.448C34.6113 3.13333 34.5233 2.90667 34.3473 2.768C34.1713 2.624 33.91 2.552 33.5633 2.552C33.3286 2.552 33.094 2.584 32.8593 2.648C32.63 2.712 32.3926 2.81867 32.1473 2.968L31.9153 2.44C32.0806 2.33867 32.2566 2.256 32.4433 2.192C32.63 2.12267 32.8246 2.06933 33.0273 2.032C33.23 1.99467 33.4326 1.976 33.6353 1.976C33.9766 1.976 34.27 2.02933 34.5153 2.136C34.766 2.24267 34.958 2.408 35.0913 2.632C35.23 2.856 35.2993 3.14933 35.2993 3.512V6H34.6753V5.136C34.6006 5.30133 34.4966 5.456 34.3633 5.6C34.23 5.744 34.0673 5.85867 33.8753 5.944C33.6886 6.02933 33.4726 6.072 33.2273 6.072ZM36.728 6V2.048H37.384V2.912C37.4533 2.736 37.5493 2.57867 37.672 2.44C37.8 2.296 37.952 2.184 38.128 2.104C38.3093 2.01867 38.5067 1.976 38.72 1.976C39.0667 1.976 39.352 2.06133 39.576 2.232C39.8 2.40267 39.9387 2.62667 39.992 2.904H39.984C40.0907 2.64267 40.2587 2.424 40.488 2.248C40.7227 2.06667 41.016 1.976 41.368 1.976C41.6667 1.976 41.92 2.03467 42.128 2.152C42.336 2.264 42.4933 2.43733 42.6 2.672C42.7067 2.90667 42.76 3.20267 42.76 3.56V6H42.056V3.608C42.056 3.26667 41.9947 3.01067 41.872 2.84C41.7493 2.66933 41.5307 2.584 41.216 2.584C40.9813 2.584 40.7787 2.63733 40.608 2.744C40.4427 2.84533 40.3147 2.98933 40.224 3.176C40.1387 3.35733 40.096 3.56267 40.096 3.792V6H39.392V3.608C39.392 3.272 39.3227 3.01867 39.184 2.848C39.0453 2.672 38.8347 2.584 38.552 2.584C38.3227 2.584 38.1227 2.64267 37.952 2.76C37.7867 2.872 37.6587 3.01867 37.568 3.2C37.4773 3.38133 37.432 3.57333 37.432 3.776V6H36.728ZM44.1886 7.44V2.04H44.8446V2.912C44.9619 2.61333 45.1459 2.384 45.3966 2.224C45.6526 2.05867 45.9512 1.976 46.2926 1.976C46.6606 1.976 46.9806 2.06133 47.2526 2.232C47.5246 2.40267 47.7352 2.64 47.8846 2.944C48.0339 3.248 48.1086 3.608 48.1086 4.024C48.1086 4.424 48.0339 4.77867 47.8846 5.088C47.7406 5.39733 47.5326 5.64 47.2606 5.816C46.9886 5.98667 46.6686 6.072 46.3006 6.072C45.9646 6.072 45.6739 5.992 45.4286 5.832C45.1886 5.66667 45.0126 5.448 44.9006 5.176V7.44H44.1886ZM46.1406 5.488C46.5299 5.488 46.8366 5.35733 47.0606 5.096C47.2846 4.82933 47.3966 4.46933 47.3966 4.016C47.3966 3.56267 47.2846 3.208 47.0606 2.952C46.8366 2.69067 46.5299 2.56 46.1406 2.56C45.7566 2.56 45.4526 2.69067 45.2286 2.952C45.0046 3.208 44.8926 3.56267 44.8926 4.016C44.8926 4.46933 45.0046 4.82933 45.2286 5.096C45.4526 5.35733 45.7566 5.488 46.1406 5.488ZM51.1941 6.072C50.7515 6.072 50.3675 5.992 50.0421 5.832C49.7221 5.66667 49.4768 5.432 49.3061 5.128C49.1355 4.81867 49.0501 4.45067 49.0501 4.024C49.0501 3.624 49.1301 3.272 49.2901 2.968C49.4501 2.65867 49.6768 2.416 49.9701 2.24C50.2635 2.064 50.6128 1.976 51.0181 1.976C51.4021 1.976 51.7275 2.05867 51.9941 2.224C52.2661 2.38933 52.4715 2.62133 52.6101 2.92C52.7541 3.21867 52.8261 3.57333 52.8261 3.984V4.216H49.5861V3.72H52.3621L52.2101 3.88C52.2101 3.44267 52.1061 3.10667 51.8981 2.872C51.6955 2.63733 51.4021 2.52 51.0181 2.52C50.7675 2.52 50.5435 2.57867 50.3461 2.696C50.1541 2.808 50.0048 2.968 49.8981 3.176C49.7915 3.384 49.7381 3.63733 49.7381 3.936V4.016C49.7381 4.336 49.7968 4.60533 49.9141 4.824C50.0315 5.04267 50.1995 5.208 50.4181 5.32C50.6368 5.432 50.8981 5.488 51.2021 5.488C51.4208 5.488 51.6421 5.45867 51.8661 5.4C52.0955 5.336 52.3088 5.224 52.5061 5.064L52.7461 5.576C52.5435 5.74667 52.3008 5.872 52.0181 5.952C51.7408 6.032 51.4661 6.072 51.1941 6.072ZM54.0011 6V2.048H54.6491V2.96H54.6571C54.7531 2.66667 54.9211 2.43733 55.1611 2.272C55.4011 2.10133 55.6944 2.00533 56.0411 1.984L56.4011 1.968L56.4651 2.616L55.8891 2.664C55.5211 2.696 55.2331 2.81867 55.0251 3.032C54.8171 3.24 54.7131 3.50133 54.7131 3.816V6H54.0011ZM57.0213 4.144V3.568H59.2613V4.144H57.0213ZM60.6679 6V0.36H64.3399V0.984H61.3719V2.832H64.1799V3.456H61.3719V5.376H64.3399V6H60.6679ZM66.6912 6L65.0352 2.048H65.7952L67.0832 5.296H67.0432L68.3312 2.048H69.0672L67.4032 6H66.6912ZM69.8664 1.096V0.304H70.7304V1.096H69.8664ZM69.9464 6V2.048H70.6584V6H69.9464ZM73.6552 6.072C73.2925 6.072 72.9752 5.98667 72.7032 5.816C72.4312 5.64533 72.2179 5.40533 72.0632 5.096C71.9139 4.78667 71.8392 4.42933 71.8392 4.024C71.8392 3.61333 71.9139 3.256 72.0632 2.952C72.2125 2.64267 72.4232 2.40267 72.6952 2.232C72.9672 2.06133 73.2845 1.976 73.6472 1.976C73.9885 1.976 74.2792 2.056 74.5192 2.216C74.7645 2.376 74.9405 2.59467 75.0472 2.872V0.36H75.7592V6H75.1032V5.128C74.9859 5.42667 74.8019 5.65867 74.5512 5.824C74.3005 5.98933 74.0019 6.072 73.6552 6.072ZM73.8072 5.488C74.1965 5.488 74.5005 5.35733 74.7192 5.096C74.9432 4.83467 75.0552 4.47733 75.0552 4.024C75.0552 3.57067 74.9432 3.21333 74.7192 2.952C74.5005 2.69067 74.1965 2.56 73.8072 2.56C73.4232 2.56 73.1165 2.69067 72.8872 2.952C72.6632 3.21333 72.5512 3.57067 72.5512 4.024C72.5512 4.47733 72.6632 4.83467 72.8872 5.096C73.1112 5.35733 73.4179 5.488 73.8072 5.488ZM79.0848 6.072C78.6421 6.072 78.2581 5.992 77.9328 5.832C77.6128 5.66667 77.3674 5.432 77.1968 5.128C77.0261 4.81867 76.9408 4.45067 76.9408 4.024C76.9408 3.624 77.0208 3.272 77.1808 2.968C77.3408 2.65867 77.5674 2.416 77.8608 2.24C78.1541 2.064 78.5034 1.976 78.9088 1.976C79.2928 1.976 79.6181 2.05867 79.8848 2.224C80.1568 2.38933 80.3621 2.62133 80.5008 2.92C80.6448 3.21867 80.7168 3.57333 80.7168 3.984V4.216H77.4768V3.72H80.2528L80.1008 3.88C80.1008 3.44267 79.9968 3.10667 79.7888 2.872C79.5861 2.63733 79.2928 2.52 78.9088 2.52C78.6581 2.52 78.4341 2.57867 78.2368 2.696C78.0448 2.808 77.8954 2.968 77.7888 3.176C77.6821 3.384 77.6288 3.63733 77.6288 3.936V4.016C77.6288 4.336 77.6874 4.60533 77.8048 4.824C77.9221 5.04267 78.0901 5.208 78.3088 5.32C78.5274 5.432 78.7888 5.488 79.0928 5.488C79.3114 5.488 79.5328 5.45867 79.7568 5.4C79.9861 5.336 80.1994 5.224 80.3968 5.064L80.6368 5.576C80.4341 5.74667 80.1914 5.872 79.9088 5.952C79.6314 6.032 79.3568 6.072 79.0848 6.072ZM81.8917 6V2.048H82.5557V2.904C82.6837 2.61067 82.8757 2.384 83.1317 2.224C83.3877 2.05867 83.6757 1.976 83.9957 1.976C84.321 1.976 84.593 2.03467 84.8117 2.152C85.0304 2.264 85.193 2.44 85.2997 2.68C85.4117 2.91467 85.4677 3.208 85.4677 3.56V6H84.7557V3.6C84.7557 3.38667 84.7264 3.20533 84.6677 3.056C84.609 2.90667 84.5104 2.792 84.3717 2.712C84.2384 2.62667 84.0597 2.584 83.8357 2.584C83.601 2.584 83.3877 2.63733 83.1957 2.744C83.009 2.85067 82.8624 2.99467 82.7557 3.176C82.6544 3.35733 82.6037 3.56 82.6037 3.784V6H81.8917ZM88.5401 6.072C88.0654 6.072 87.7054 5.94667 87.4601 5.696C87.2201 5.44533 87.1001 5.088 87.1001 4.624V2.632H86.3001V2.048H87.1241V0.872H87.8121V2.048H89.2281V2.632H87.8121V4.56C87.8121 4.864 87.8787 5.09067 88.0121 5.24C88.1507 5.384 88.3614 5.456 88.6441 5.456C88.7561 5.456 88.8627 5.44533 88.9641 5.424C89.0707 5.40267 89.1721 5.37067 89.2681 5.328L89.3801 5.888C89.2734 5.94667 89.1427 5.992 88.9881 6.024C88.8387 6.056 88.6894 6.072 88.5401 6.072ZM92.5664 6V0.36H94.8864C95.4944 0.36 95.9637 0.498666 96.2944 0.776C96.625 1.05333 96.7904 1.456 96.7904 1.984C96.7904 2.28267 96.729 2.54133 96.6064 2.76C96.489 2.97867 96.321 3.15467 96.1024 3.288C95.8837 3.416 95.6277 3.49867 95.3344 3.536L95.3584 3.528L95.4384 3.544C95.5717 3.56533 95.6917 3.62133 95.7984 3.712C95.905 3.80267 96.009 3.944 96.1104 4.136L97.1024 6H96.3184L95.3744 4.232C95.2944 4.07733 95.209 3.96 95.1184 3.88C95.0277 3.8 94.9184 3.744 94.7904 3.712C94.6677 3.68 94.5184 3.664 94.3424 3.664H93.2784V6H92.5664ZM93.2784 3.072H94.8384C95.265 3.072 95.577 2.984 95.7744 2.808C95.9717 2.62667 96.0704 2.35733 96.0704 2C96.0704 1.64267 95.9664 1.38133 95.7584 1.216C95.5557 1.05067 95.2384 0.968 94.8064 0.968H93.2784V3.072ZM99.9988 6.072C99.5561 6.072 99.1721 5.992 98.8468 5.832C98.5268 5.66667 98.2815 5.432 98.1108 5.128C97.9401 4.81867 97.8548 4.45067 97.8548 4.024C97.8548 3.624 97.9348 3.272 98.0948 2.968C98.2548 2.65867 98.4815 2.416 98.7748 2.24C99.0681 2.064 99.4175 1.976 99.8228 1.976C100.207 1.976 100.532 2.05867 100.799 2.224C101.071 2.38933 101.276 2.62133 101.415 2.92C101.559 3.21867 101.631 3.57333 101.631 3.984V4.216H98.3908V3.72H101.167L101.015 3.88C101.015 3.44267 100.911 3.10667 100.703 2.872C100.5 2.63733 100.207 2.52 99.8228 2.52C99.5721 2.52 99.3481 2.57867 99.1508 2.696C98.9588 2.808 98.8095 2.968 98.7028 3.176C98.5961 3.384 98.5428 3.63733 98.5428 3.936V4.016C98.5428 4.336 98.6015 4.60533 98.7188 4.824C98.8361 5.04267 99.0041 5.208 99.2228 5.32C99.4415 5.432 99.7028 5.488 100.007 5.488C100.225 5.488 100.447 5.45867 100.671 5.4C100.9 5.336 101.113 5.224 101.311 5.064L101.551 5.576C101.348 5.74667 101.105 5.872 100.823 5.952C100.545 6.032 100.271 6.072 99.9988 6.072ZM104.566 6.072C104.16 6.072 103.808 5.98667 103.51 5.816C103.211 5.64533 102.979 5.408 102.814 5.104C102.648 4.79467 102.566 4.432 102.566 4.016C102.566 3.6 102.648 3.24 102.814 2.936C102.979 2.62667 103.211 2.38933 103.51 2.224C103.814 2.05867 104.168 1.976 104.574 1.976C104.846 1.976 105.104 2.02133 105.35 2.112C105.595 2.20267 105.798 2.32533 105.958 2.48L105.71 3.008C105.555 2.86933 105.382 2.76533 105.19 2.696C104.998 2.62133 104.811 2.584 104.63 2.584C104.214 2.584 103.886 2.70933 103.646 2.96C103.406 3.21067 103.286 3.56533 103.286 4.024C103.286 4.47733 103.406 4.832 103.646 5.088C103.886 5.33867 104.211 5.464 104.622 5.464C104.808 5.464 104.995 5.42933 105.182 5.36C105.374 5.28533 105.544 5.18133 105.694 5.048L105.942 5.576C105.787 5.73067 105.587 5.85333 105.342 5.944C105.096 6.02933 104.838 6.072 104.566 6.072ZM108.532 6.072C108.058 6.072 107.698 5.94667 107.452 5.696C107.212 5.44533 107.092 5.088 107.092 4.624V2.632H106.292V2.048H107.116V0.872H107.804V2.048H109.22V2.632H107.804V4.56C107.804 4.864 107.871 5.09067 108.004 5.24C108.143 5.384 108.354 5.456 108.636 5.456C108.748 5.456 108.855 5.44533 108.956 5.424C109.063 5.40267 109.164 5.37067 109.26 5.328L109.372 5.888C109.266 5.94667 109.135 5.992 108.98 6.024C108.831 6.056 108.682 6.072 108.532 6.072ZM111.524 6.072C111.242 6.072 110.988 6.02133 110.764 5.92C110.54 5.81333 110.364 5.66933 110.236 5.488C110.108 5.30667 110.044 5.104 110.044 4.88C110.044 4.576 110.13 4.33867 110.3 4.168C110.471 3.992 110.732 3.86667 111.084 3.792C111.442 3.71733 111.898 3.68 112.452 3.68H113.02V4.168H112.484C112.175 4.168 111.911 4.17867 111.692 4.2C111.474 4.216 111.295 4.25067 111.156 4.304C111.018 4.352 110.916 4.41867 110.852 4.504C110.788 4.58933 110.756 4.70133 110.756 4.84C110.756 5.05333 110.839 5.21867 111.004 5.336C111.175 5.45333 111.391 5.512 111.652 5.512C111.882 5.512 112.09 5.46133 112.276 5.36C112.468 5.25333 112.62 5.112 112.732 4.936C112.85 4.76 112.908 4.56533 112.908 4.352V3.448C112.908 3.13333 112.82 2.90667 112.644 2.768C112.468 2.624 112.207 2.552 111.86 2.552C111.626 2.552 111.391 2.584 111.156 2.648C110.927 2.712 110.69 2.81867 110.444 2.968L110.212 2.44C110.378 2.33867 110.554 2.256 110.74 2.192C110.927 2.12267 111.122 2.06933 111.324 2.032C111.527 1.99467 111.73 1.976 111.932 1.976C112.274 1.976 112.567 2.02933 112.812 2.136C113.063 2.24267 113.255 2.408 113.388 2.632C113.527 2.856 113.596 3.14933 113.596 3.512V6H112.972V5.136C112.898 5.30133 112.794 5.456 112.66 5.6C112.527 5.744 112.364 5.85867 112.172 5.944C111.986 6.02933 111.77 6.072 111.524 6.072ZM115.009 6V2.048H115.673V2.904C115.801 2.61067 115.993 2.384 116.249 2.224C116.505 2.05867 116.793 1.976 117.113 1.976C117.438 1.976 117.71 2.03467 117.929 2.152C118.148 2.264 118.31 2.44 118.417 2.68C118.529 2.91467 118.585 3.208 118.585 3.56V6H117.873V3.6C117.873 3.38667 117.844 3.20533 117.785 3.056C117.726 2.90667 117.628 2.792 117.489 2.712C117.356 2.62667 117.177 2.584 116.953 2.584C116.718 2.584 116.505 2.63733 116.313 2.744C116.126 2.85067 115.98 2.99467 115.873 3.176C115.772 3.35733 115.721 3.56 115.721 3.784V6H115.009ZM121.705 7.512C121.391 7.512 121.079 7.464 120.769 7.368C120.46 7.27733 120.196 7.152 119.977 6.992L120.201 6.44C120.351 6.536 120.508 6.61867 120.673 6.688C120.839 6.76267 121.007 6.816 121.177 6.848C121.353 6.88533 121.527 6.904 121.697 6.904C122.108 6.904 122.428 6.8 122.657 6.592C122.892 6.384 123.009 6.088 123.009 5.704V4.976H122.993C122.897 5.248 122.724 5.46933 122.473 5.64C122.223 5.80533 121.932 5.888 121.601 5.888C121.228 5.888 120.903 5.808 120.625 5.648C120.348 5.48267 120.132 5.25333 119.977 4.96C119.828 4.66667 119.753 4.32267 119.753 3.928C119.753 3.53867 119.828 3.19733 119.977 2.904C120.132 2.61067 120.348 2.384 120.625 2.224C120.903 2.05867 121.228 1.976 121.601 1.976C121.932 1.976 122.223 2.06133 122.473 2.232C122.729 2.40267 122.905 2.62933 123.001 2.912H123.009V2.048H123.673V5.64C123.673 6.024 123.593 6.35467 123.433 6.632C123.279 6.91467 123.055 7.13067 122.761 7.28C122.468 7.43467 122.116 7.512 121.705 7.512ZM121.721 5.304C122.111 5.304 122.417 5.17867 122.641 4.928C122.871 4.67733 122.985 4.344 122.985 3.928C122.985 3.512 122.871 3.18133 122.641 2.936C122.417 2.68533 122.111 2.56 121.721 2.56C121.337 2.56 121.031 2.68533 120.801 2.936C120.577 3.18133 120.465 3.512 120.465 3.928C120.465 4.344 120.577 4.67733 120.801 4.928C121.031 5.17867 121.337 5.304 121.721 5.304ZM126.575 6.072C126.249 6.072 125.975 6.01333 125.751 5.896C125.527 5.77867 125.359 5.60267 125.247 5.368C125.135 5.13333 125.079 4.84 125.079 4.488V2.048H125.791V4.456C125.791 4.65867 125.82 4.83733 125.879 4.992C125.943 5.14133 126.041 5.25867 126.175 5.344C126.313 5.424 126.495 5.464 126.719 5.464C126.943 5.464 127.145 5.41067 127.327 5.304C127.508 5.192 127.649 5.048 127.751 4.872C127.852 4.69067 127.903 4.49067 127.903 4.272V2.048H128.615V6H127.959V5.128C127.825 5.42133 127.644 5.65333 127.415 5.824C127.185 5.98933 126.905 6.072 126.575 6.072ZM131.24 6.072C130.856 6.072 130.56 5.96 130.352 5.736C130.144 5.512 130.04 5.19733 130.04 4.792V0.36H130.752V4.72C130.752 4.88 130.776 5.01867 130.824 5.136C130.872 5.248 130.941 5.33333 131.032 5.392C131.123 5.45067 131.232 5.48 131.36 5.48C131.44 5.48 131.515 5.47733 131.584 5.472C131.659 5.46133 131.733 5.44533 131.808 5.424L131.824 5.984C131.733 6.016 131.64 6.03733 131.544 6.048C131.453 6.064 131.352 6.072 131.24 6.072ZM133.946 6.072C133.663 6.072 133.41 6.02133 133.186 5.92C132.962 5.81333 132.786 5.66933 132.658 5.488C132.53 5.30667 132.466 5.104 132.466 4.88C132.466 4.576 132.551 4.33867 132.722 4.168C132.893 3.992 133.154 3.86667 133.506 3.792C133.863 3.71733 134.319 3.68 134.874 3.68H135.442V4.168H134.906C134.597 4.168 134.333 4.17867 134.114 4.2C133.895 4.216 133.717 4.25067 133.578 4.304C133.439 4.352 133.338 4.41867 133.274 4.504C133.21 4.58933 133.178 4.70133 133.178 4.84C133.178 5.05333 133.261 5.21867 133.426 5.336C133.597 5.45333 133.813 5.512 134.074 5.512C134.303 5.512 134.511 5.46133 134.698 5.36C134.89 5.25333 135.042 5.112 135.154 4.936C135.271 4.76 135.33 4.56533 135.33 4.352V3.448C135.33 3.13333 135.242 2.90667 135.066 2.768C134.89 2.624 134.629 2.552 134.282 2.552C134.047 2.552 133.813 2.584 133.578 2.648C133.349 2.712 133.111 2.81867 132.866 2.968L132.634 2.44C132.799 2.33867 132.975 2.256 133.162 2.192C133.349 2.12267 133.543 2.06933 133.746 2.032C133.949 1.99467 134.151 1.976 134.354 1.976C134.695 1.976 134.989 2.02933 135.234 2.136C135.485 2.24267 135.677 2.408 135.81 2.632C135.949 2.856 136.018 3.14933 136.018 3.512V6H135.394V5.136C135.319 5.30133 135.215 5.456 135.082 5.6C134.949 5.744 134.786 5.85867 134.594 5.944C134.407 6.02933 134.191 6.072 133.946 6.072ZM137.431 6V2.048H138.079V2.96H138.087C138.183 2.66667 138.351 2.43733 138.591 2.272C138.831 2.10133 139.124 2.00533 139.471 1.984L139.831 1.968L139.895 2.616L139.319 2.664C138.951 2.696 138.663 2.81867 138.455 3.032C138.247 3.24 138.143 3.50133 138.143 3.816V6H137.431ZM3.24 17.072C2.70133 17.072 2.232 16.9573 1.832 16.728C1.43733 16.4933 1.13333 16.16 0.92 15.728C0.706667 15.2907 0.6 14.7733 0.6 14.176C0.6 13.5787 0.706667 13.064 0.92 12.632C1.13333 12.2 1.43733 11.8693 1.832 11.64C2.22667 11.4053 2.696 11.288 3.24 11.288C3.63467 11.288 3.99467 11.3493 4.32 11.472C4.64533 11.5893 4.92533 11.7627 5.16 11.992L4.88 12.552C4.63467 12.3333 4.38133 12.176 4.12 12.08C3.864 11.984 3.576 11.936 3.256 11.936C2.65867 11.936 2.18933 12.128 1.848 12.512C1.512 12.8907 1.344 13.4453 1.344 14.176C1.344 14.9013 1.512 15.4587 1.848 15.848C2.184 16.232 2.65333 16.424 3.256 16.424C3.576 16.424 3.864 16.376 4.12 16.28C4.38133 16.184 4.63467 16.0267 4.88 15.808L5.16 16.368C4.92533 16.5973 4.64533 16.7733 4.32 16.896C3.99467 17.0133 3.63467 17.072 3.24 17.072ZM7.79138 17.072C7.39138 17.072 7.04471 16.9867 6.75138 16.816C6.45804 16.6453 6.23138 16.408 6.07138 16.104C5.91138 15.7947 5.83138 15.432 5.83138 15.016C5.83138 14.6053 5.91138 14.248 6.07138 13.944C6.23138 13.6347 6.45804 13.3973 6.75138 13.232C7.04471 13.0613 7.39138 12.976 7.79138 12.976C8.19138 12.976 8.53538 13.0613 8.82338 13.232C9.11671 13.3973 9.34338 13.6347 9.50338 13.944C9.66338 14.248 9.74338 14.6053 9.74338 15.016C9.74338 15.432 9.66338 15.7947 9.50338 16.104C9.34871 16.408 9.12471 16.6453 8.83138 16.816C8.53804 16.9867 8.19138 17.072 7.79138 17.072ZM7.78338 16.472C8.17271 16.472 8.47938 16.3413 8.70338 16.08C8.92738 15.8187 9.03938 15.464 9.03938 15.016C9.03938 14.568 8.92738 14.216 8.70338 13.96C8.48471 13.704 8.18071 13.576 7.79138 13.576C7.40204 13.576 7.09538 13.704 6.87138 13.96C6.64738 14.216 6.53537 14.568 6.53537 15.016C6.53537 15.464 6.64738 15.8187 6.87138 16.08C7.10071 16.3413 7.40471 16.472 7.78338 16.472ZM10.9386 17V13.048H11.6026V13.904C11.7306 13.6107 11.9226 13.384 12.1786 13.224C12.4346 13.0587 12.7226 12.976 13.0426 12.976C13.3679 12.976 13.6399 13.0347 13.8586 13.152C14.0772 13.264 14.2399 13.44 14.3466 13.68C14.4586 13.9147 14.5146 14.208 14.5146 14.56V17H13.8026V14.6C13.8026 14.3867 13.7732 14.2053 13.7146 14.056C13.6559 13.9067 13.5572 13.792 13.4186 13.712C13.2852 13.6267 13.1066 13.584 12.8826 13.584C12.6479 13.584 12.4346 13.6373 12.2426 13.744C12.0559 13.8507 11.9092 13.9947 11.8026 14.176C11.7012 14.3573 11.6506 14.56 11.6506 14.784V17H10.9386ZM17.5869 17.072C17.1123 17.072 16.7523 16.9467 16.5069 16.696C16.2669 16.4453 16.1469 16.088 16.1469 15.624V13.632H15.3469V13.048H16.1709V11.872H16.8589V13.048H18.2749V13.632H16.8589V15.56C16.8589 15.864 16.9256 16.0907 17.0589 16.24C17.1976 16.384 17.4083 16.456 17.6909 16.456C17.8029 16.456 17.9096 16.4453 18.0109 16.424C18.1176 16.4027 18.2189 16.3707 18.3149 16.328L18.4269 16.888C18.3203 16.9467 18.1896 16.992 18.0349 17.024C17.8856 17.056 17.7363 17.072 17.5869 17.072ZM20.5789 17.072C20.2962 17.072 20.0429 17.0213 19.8189 16.92C19.5949 16.8133 19.4189 16.6693 19.2909 16.488C19.1629 16.3067 19.0989 16.104 19.0989 15.88C19.0989 15.576 19.1842 15.3387 19.3549 15.168C19.5255 14.992 19.7869 14.8667 20.1389 14.792C20.4962 14.7173 20.9522 14.68 21.5069 14.68H22.0749V15.168H21.5389C21.2295 15.168 20.9655 15.1787 20.7469 15.2C20.5282 15.216 20.3495 15.2507 20.2109 15.304C20.0722 15.352 19.9709 15.4187 19.9069 15.504C19.8429 15.5893 19.8109 15.7013 19.8109 15.84C19.8109 16.0533 19.8935 16.2187 20.0589 16.336C20.2295 16.4533 20.4455 16.512 20.7069 16.512C20.9362 16.512 21.1442 16.4613 21.3309 16.36C21.5229 16.2533 21.6749 16.112 21.7869 15.936C21.9042 15.76 21.9629 15.5653 21.9629 15.352V14.448C21.9629 14.1333 21.8749 13.9067 21.6989 13.768C21.5229 13.624 21.2615 13.552 20.9149 13.552C20.6802 13.552 20.4455 13.584 20.2109 13.648C19.9815 13.712 19.7442 13.8187 19.4989 13.968L19.2669 13.44C19.4322 13.3387 19.6082 13.256 19.7949 13.192C19.9815 13.1227 20.1762 13.0693 20.3789 13.032C20.5815 12.9947 20.7842 12.976 20.9869 12.976C21.3282 12.976 21.6215 13.0293 21.8669 13.136C22.1175 13.2427 22.3095 13.408 22.4429 13.632C22.5815 13.856 22.6509 14.1493 22.6509 14.512V17H22.0269V16.136C21.9522 16.3013 21.8482 16.456 21.7149 16.6C21.5815 16.744 21.4189 16.8587 21.2269 16.944C21.0402 17.0293 20.8242 17.072 20.5789 17.072ZM23.9836 12.096V11.304H24.8476V12.096H23.9836ZM24.0636 17V13.048H24.7756V17H24.0636ZM26.1964 17V13.048H26.8604V13.904C26.9884 13.6107 27.1804 13.384 27.4364 13.224C27.6924 13.0587 27.9804 12.976 28.3004 12.976C28.6257 12.976 28.8977 13.0347 29.1164 13.152C29.335 13.264 29.4977 13.44 29.6044 13.68C29.7164 13.9147 29.7724 14.208 29.7724 14.56V17H29.0604V14.6C29.0604 14.3867 29.031 14.2053 28.9724 14.056C28.9137 13.9067 28.815 13.792 28.6764 13.712C28.543 13.6267 28.3644 13.584 28.1404 13.584C27.9057 13.584 27.6924 13.6373 27.5004 13.744C27.3137 13.8507 27.167 13.9947 27.0604 14.176C26.959 14.3573 26.9084 14.56 26.9084 14.784V17H26.1964ZM33.0848 17.072C32.6421 17.072 32.2581 16.992 31.9328 16.832C31.6128 16.6667 31.3674 16.432 31.1968 16.128C31.0261 15.8187 30.9408 15.4507 30.9408 15.024C30.9408 14.624 31.0208 14.272 31.1808 13.968C31.3408 13.6587 31.5674 13.416 31.8608 13.24C32.1541 13.064 32.5034 12.976 32.9088 12.976C33.2928 12.976 33.6181 13.0587 33.8848 13.224C34.1568 13.3893 34.3621 13.6213 34.5008 13.92C34.6448 14.2187 34.7168 14.5733 34.7168 14.984V15.216H31.4768V14.72H34.2528L34.1008 14.88C34.1008 14.4427 33.9968 14.1067 33.7888 13.872C33.5861 13.6373 33.2928 13.52 32.9088 13.52C32.6581 13.52 32.4341 13.5787 32.2368 13.696C32.0448 13.808 31.8954 13.968 31.7888 14.176C31.6821 14.384 31.6288 14.6373 31.6288 14.936V15.016C31.6288 15.336 31.6874 15.6053 31.8048 15.824C31.9221 16.0427 32.0901 16.208 32.3088 16.32C32.5274 16.432 32.7888 16.488 33.0928 16.488C33.3114 16.488 33.5328 16.4587 33.7568 16.4C33.9861 16.336 34.1994 16.224 34.3968 16.064L34.6368 16.576C34.4341 16.7467 34.1914 16.872 33.9088 16.952C33.6314 17.032 33.3568 17.072 33.0848 17.072ZM35.8917 17V13.048H36.5397V13.96H36.5477C36.6437 13.6667 36.8117 13.4373 37.0517 13.272C37.2917 13.1013 37.585 13.0053 37.9317 12.984L38.2917 12.968L38.3557 13.616L37.7797 13.664C37.4117 13.696 37.1237 13.8187 36.9157 14.032C36.7077 14.24 36.6037 14.5013 36.6037 14.816V17H35.8917ZM39.3434 18.152L38.9834 17.872C39.0794 17.7813 39.154 17.6773 39.2074 17.56C39.266 17.448 39.3087 17.3307 39.3354 17.208C39.362 17.0907 39.378 16.9813 39.3834 16.88L39.5194 17H38.9354V16.12H39.8474V16.776C39.8474 16.9413 39.8314 17.1067 39.7994 17.272C39.7674 17.4373 39.714 17.5947 39.6394 17.744C39.5647 17.8933 39.466 18.0293 39.3434 18.152ZM43.4883 17V11.36H45.4643C46.0669 11.36 46.5789 11.4693 47.0003 11.688C47.4216 11.9067 47.7416 12.2267 47.9603 12.648C48.1843 13.064 48.2963 13.5733 48.2963 14.176C48.2963 14.7787 48.1843 15.2907 47.9603 15.712C47.7416 16.1333 47.4216 16.4533 47.0003 16.672C46.5789 16.8907 46.0669 17 45.4643 17H43.4883ZM44.2003 16.376H45.4243C46.1229 16.376 46.6509 16.1947 47.0083 15.832C47.3709 15.4693 47.5523 14.9173 47.5523 14.176C47.5523 13.4347 47.3709 12.8853 47.0083 12.528C46.6509 12.1653 46.1229 11.984 45.4243 11.984H44.2003V16.376ZM51.5144 17.072C51.0718 17.072 50.6878 16.992 50.3624 16.832C50.0424 16.6667 49.7971 16.432 49.6264 16.128C49.4558 15.8187 49.3704 15.4507 49.3704 15.024C49.3704 14.624 49.4504 14.272 49.6104 13.968C49.7704 13.6587 49.9971 13.416 50.2904 13.24C50.5838 13.064 50.9331 12.976 51.3384 12.976C51.7224 12.976 52.0478 13.0587 52.3144 13.224C52.5864 13.3893 52.7918 13.6213 52.9304 13.92C53.0744 14.2187 53.1464 14.5733 53.1464 14.984V15.216H49.9064V14.72H52.6824L52.5304 14.88C52.5304 14.4427 52.4264 14.1067 52.2184 13.872C52.0158 13.6373 51.7224 13.52 51.3384 13.52C51.0878 13.52 50.8638 13.5787 50.6664 13.696C50.4744 13.808 50.3251 13.968 50.2184 14.176C50.1118 14.384 50.0584 14.6373 50.0584 14.936V15.016C50.0584 15.336 50.1171 15.6053 50.2344 15.824C50.3518 16.0427 50.5198 16.208 50.7384 16.32C50.9571 16.432 51.2184 16.488 51.5224 16.488C51.7411 16.488 51.9624 16.4587 52.1864 16.4C52.4158 16.336 52.6291 16.224 52.8264 16.064L53.0664 16.576C52.8638 16.7467 52.6211 16.872 52.3384 16.952C52.0611 17.032 51.7864 17.072 51.5144 17.072ZM55.7774 17.072C55.5587 17.072 55.3427 17.0507 55.1294 17.008C54.9214 16.9707 54.7267 16.9173 54.5454 16.848C54.3694 16.7733 54.2174 16.6827 54.0894 16.576L54.3214 16.072C54.4547 16.1733 54.6014 16.256 54.7614 16.32C54.9267 16.384 55.0947 16.432 55.2654 16.464C55.4414 16.4907 55.6094 16.504 55.7694 16.504C56.1 16.504 56.3534 16.4533 56.5294 16.352C56.7107 16.2507 56.8014 16.1093 56.8014 15.928C56.8014 15.7733 56.748 15.656 56.6414 15.576C56.54 15.4907 56.3694 15.4267 56.1294 15.384L55.3054 15.24C54.9374 15.1707 54.66 15.0453 54.4734 14.864C54.292 14.6827 54.2014 14.4453 54.2014 14.152C54.2014 13.9173 54.2654 13.712 54.3934 13.536C54.5267 13.36 54.716 13.224 54.9614 13.128C55.2067 13.0267 55.5 12.976 55.8414 12.976C56.028 12.976 56.2174 12.9947 56.4094 13.032C56.6067 13.0693 56.788 13.1253 56.9534 13.2C57.124 13.2693 57.2627 13.3573 57.3694 13.464L57.1294 13.968C57.0227 13.8667 56.8947 13.7867 56.7454 13.728C56.6014 13.664 56.4494 13.6187 56.2894 13.592C56.1347 13.56 55.9827 13.544 55.8334 13.544C55.524 13.544 55.284 13.5973 55.1134 13.704C54.9427 13.8053 54.8574 13.9493 54.8574 14.136C54.8574 14.2853 54.9054 14.4027 55.0014 14.488C55.1027 14.5733 55.2654 14.6373 55.4894 14.68L56.2894 14.824C56.684 14.8987 56.9774 15.024 57.1694 15.2C57.3614 15.3707 57.4574 15.608 57.4574 15.912C57.4574 16.1467 57.388 16.352 57.2494 16.528C57.1107 16.6987 56.916 16.832 56.6654 16.928C56.4147 17.024 56.1187 17.072 55.7774 17.072ZM58.5539 12.096V11.304H59.4179V12.096H58.5539ZM58.6339 17V13.048H59.3459V17H58.6339ZM62.4787 18.512C62.164 18.512 61.852 18.464 61.5427 18.368C61.2334 18.2773 60.9694 18.152 60.7507 17.992L60.9747 17.44C61.124 17.536 61.2814 17.6187 61.4467 17.688C61.612 17.7627 61.78 17.816 61.9507 17.848C62.1267 17.8853 62.3 17.904 62.4707 17.904C62.8814 17.904 63.2014 17.8 63.4307 17.592C63.6654 17.384 63.7827 17.088 63.7827 16.704V15.976H63.7667C63.6707 16.248 63.4974 16.4693 63.2467 16.64C62.996 16.8053 62.7054 16.888 62.3747 16.888C62.0014 16.888 61.676 16.808 61.3987 16.648C61.1214 16.4827 60.9054 16.2533 60.7507 15.96C60.6014 15.6667 60.5267 15.3227 60.5267 14.928C60.5267 14.5387 60.6014 14.1973 60.7507 13.904C60.9054 13.6107 61.1214 13.384 61.3987 13.224C61.676 13.0587 62.0014 12.976 62.3747 12.976C62.7054 12.976 62.996 13.0613 63.2467 13.232C63.5027 13.4027 63.6787 13.6293 63.7747 13.912H63.7827V13.048H64.4467V16.64C64.4467 17.024 64.3667 17.3547 64.2067 17.632C64.052 17.9147 63.828 18.1307 63.5347 18.28C63.2414 18.4347 62.8894 18.512 62.4787 18.512ZM62.4947 16.304C62.884 16.304 63.1907 16.1787 63.4147 15.928C63.644 15.6773 63.7587 15.344 63.7587 14.928C63.7587 14.512 63.644 14.1813 63.4147 13.936C63.1907 13.6853 62.884 13.56 62.4947 13.56C62.1107 13.56 61.804 13.6853 61.5747 13.936C61.3507 14.1813 61.2387 14.512 61.2387 14.928C61.2387 15.344 61.3507 15.6773 61.5747 15.928C61.804 16.1787 62.1107 16.304 62.4947 16.304ZM65.8683 17V13.048H66.5323V13.904C66.6603 13.6107 66.8523 13.384 67.1083 13.224C67.3643 13.0587 67.6523 12.976 67.9723 12.976C68.2976 12.976 68.5696 13.0347 68.7883 13.152C69.0069 13.264 69.1696 13.44 69.2763 13.68C69.3883 13.9147 69.4443 14.208 69.4443 14.56V17H68.7323V14.6C68.7323 14.3867 68.7029 14.2053 68.6443 14.056C68.5856 13.9067 68.4869 13.792 68.3483 13.712C68.2149 13.6267 68.0363 13.584 67.8123 13.584C67.5776 13.584 67.3643 13.6373 67.1723 13.744C66.9856 13.8507 66.8389 13.9947 66.7323 14.176C66.6309 14.3573 66.5803 14.56 66.5803 14.784V17H65.8683ZM70.7166 15.144V14.568H72.9566V15.144H70.7166ZM74.3633 17V11.36H76.6833C77.2913 11.36 77.7606 11.4987 78.0913 11.776C78.4219 12.0533 78.5873 12.456 78.5873 12.984C78.5873 13.2827 78.5259 13.5413 78.4033 13.76C78.2859 13.9787 78.1179 14.1547 77.8993 14.288C77.6806 14.416 77.4246 14.4987 77.1313 14.536L77.1553 14.528L77.2353 14.544C77.3686 14.5653 77.4886 14.6213 77.5953 14.712C77.7019 14.8027 77.8059 14.944 77.9073 15.136L78.8993 17H78.1153L77.1713 15.232C77.0913 15.0773 77.0059 14.96 76.9153 14.88C76.8246 14.8 76.7153 14.744 76.5873 14.712C76.4646 14.68 76.3153 14.664 76.1393 14.664H75.0753V17H74.3633ZM75.0753 14.072H76.6353C77.0619 14.072 77.3739 13.984 77.5712 13.808C77.7686 13.6267 77.8673 13.3573 77.8673 13C77.8673 12.6427 77.7633 12.3813 77.5553 12.216C77.3526 12.0507 77.0353 11.968 76.6033 11.968H75.0753V14.072ZM81.7957 17.072C81.353 17.072 80.969 16.992 80.6437 16.832C80.3237 16.6667 80.0784 16.432 79.9077 16.128C79.737 15.8187 79.6517 15.4507 79.6517 15.024C79.6517 14.624 79.7317 14.272 79.8917 13.968C80.0517 13.6587 80.2784 13.416 80.5717 13.24C80.865 13.064 81.2144 12.976 81.6197 12.976C82.0037 12.976 82.329 13.0587 82.5957 13.224C82.8677 13.3893 83.073 13.6213 83.2117 13.92C83.3557 14.2187 83.4277 14.5733 83.4277 14.984V15.216H80.1877V14.72H82.9637L82.8117 14.88C82.8117 14.4427 82.7077 14.1067 82.4997 13.872C82.297 13.6373 82.0037 13.52 81.6197 13.52C81.369 13.52 81.145 13.5787 80.9477 13.696C80.7557 13.808 80.6064 13.968 80.4997 14.176C80.393 14.384 80.3397 14.6373 80.3397 14.936V15.016C80.3397 15.336 80.3984 15.6053 80.5157 15.824C80.633 16.0427 80.801 16.208 81.0197 16.32C81.2384 16.432 81.4997 16.488 81.8037 16.488C82.0224 16.488 82.2437 16.4587 82.4677 16.4C82.697 16.336 82.9104 16.224 83.1077 16.064L83.3477 16.576C83.145 16.7467 82.9024 16.872 82.6197 16.952C82.3424 17.032 82.0677 17.072 81.7957 17.072ZM86.3146 18.512C86 18.512 85.688 18.464 85.3786 18.368C85.0693 18.2773 84.8053 18.152 84.5866 17.992L84.8106 17.44C84.96 17.536 85.1173 17.6187 85.2826 17.688C85.448 17.7627 85.616 17.816 85.7866 17.848C85.9626 17.8853 86.136 17.904 86.3066 17.904C86.7173 17.904 87.0373 17.8 87.2666 17.592C87.5013 17.384 87.6186 17.088 87.6186 16.704V15.976H87.6026C87.5066 16.248 87.3333 16.4693 87.0826 16.64C86.832 16.8053 86.5413 16.888 86.2106 16.888C85.8373 16.888 85.512 16.808 85.2346 16.648C84.9573 16.4827 84.7413 16.2533 84.5866 15.96C84.4373 15.6667 84.3626 15.3227 84.3626 14.928C84.3626 14.5387 84.4373 14.1973 84.5866 13.904C84.7413 13.6107 84.9573 13.384 85.2346 13.224C85.512 13.0587 85.8373 12.976 86.2106 12.976C86.5413 12.976 86.832 13.0613 87.0826 13.232C87.3386 13.4027 87.5146 13.6293 87.6106 13.912H87.6186V13.048H88.2826V16.64C88.2826 17.024 88.2026 17.3547 88.0426 17.632C87.888 17.9147 87.664 18.1307 87.3706 18.28C87.0773 18.4347 86.7253 18.512 86.3146 18.512ZM86.3306 16.304C86.72 16.304 87.0266 16.1787 87.2506 15.928C87.48 15.6773 87.5946 15.344 87.5946 14.928C87.5946 14.512 87.48 14.1813 87.2506 13.936C87.0266 13.6853 86.72 13.56 86.3306 13.56C85.9466 13.56 85.64 13.6853 85.4106 13.936C85.1866 14.1813 85.0746 14.512 85.0746 14.928C85.0746 15.344 85.1866 15.6773 85.4106 15.928C85.64 16.1787 85.9466 16.304 86.3306 16.304ZM89.6242 12.096V11.304H90.4882V12.096H89.6242ZM89.7042 17V13.048H90.4162V17H89.7042ZM93.293 17.072C93.0743 17.072 92.8583 17.0507 92.645 17.008C92.437 16.9707 92.2423 16.9173 92.061 16.848C91.885 16.7733 91.733 16.6827 91.605 16.576L91.837 16.072C91.9703 16.1733 92.117 16.256 92.277 16.32C92.4423 16.384 92.6103 16.432 92.781 16.464C92.957 16.4907 93.125 16.504 93.285 16.504C93.6157 16.504 93.869 16.4533 94.045 16.352C94.2263 16.2507 94.317 16.1093 94.317 15.928C94.317 15.7733 94.2637 15.656 94.157 15.576C94.0557 15.4907 93.885 15.4267 93.645 15.384L92.821 15.24C92.453 15.1707 92.1757 15.0453 91.989 14.864C91.8077 14.6827 91.717 14.4453 91.717 14.152C91.717 13.9173 91.781 13.712 91.909 13.536C92.0423 13.36 92.2317 13.224 92.477 13.128C92.7223 13.0267 93.0157 12.976 93.357 12.976C93.5437 12.976 93.733 12.9947 93.925 13.032C94.1223 13.0693 94.3037 13.1253 94.469 13.2C94.6397 13.2693 94.7783 13.3573 94.885 13.464L94.645 13.968C94.5383 13.8667 94.4103 13.7867 94.261 13.728C94.117 13.664 93.965 13.6187 93.805 13.592C93.6503 13.56 93.4983 13.544 93.349 13.544C93.0397 13.544 92.7997 13.5973 92.629 13.704C92.4583 13.8053 92.373 13.9493 92.373 14.136C92.373 14.2853 92.421 14.4027 92.517 14.488C92.6183 14.5733 92.781 14.6373 93.005 14.68L93.805 14.824C94.1997 14.8987 94.493 15.024 94.685 15.2C94.877 15.3707 94.973 15.608 94.973 15.912C94.973 16.1467 94.9037 16.352 94.765 16.528C94.6263 16.6987 94.4317 16.832 94.181 16.928C93.9303 17.024 93.6343 17.072 93.293 17.072ZM97.7744 17.072C97.2998 17.072 96.9398 16.9467 96.6944 16.696C96.4544 16.4453 96.3344 16.088 96.3344 15.624V13.632H95.5344V13.048H96.3584V11.872H97.0464V13.048H98.4624V13.632H97.0464V15.56C97.0464 15.864 97.1131 16.0907 97.2464 16.24C97.3851 16.384 97.5958 16.456 97.8784 16.456C97.9904 16.456 98.0971 16.4453 98.1984 16.424C98.3051 16.4027 98.4064 16.3707 98.5024 16.328L98.6144 16.888C98.5078 16.9467 98.3771 16.992 98.2224 17.024C98.0731 17.056 97.9238 17.072 97.7744 17.072ZM101.311 17.072C100.869 17.072 100.485 16.992 100.159 16.832C99.8393 16.6667 99.594 16.432 99.4233 16.128C99.2526 15.8187 99.1673 15.4507 99.1673 15.024C99.1673 14.624 99.2473 14.272 99.4073 13.968C99.5673 13.6587 99.794 13.416 100.087 13.24C100.381 13.064 100.73 12.976 101.135 12.976C101.519 12.976 101.845 13.0587 102.111 13.224C102.383 13.3893 102.589 13.6213 102.727 13.92C102.871 14.2187 102.943 14.5733 102.943 14.984V15.216H99.7033V14.72H102.479L102.327 14.88C102.327 14.4427 102.223 14.1067 102.015 13.872C101.813 13.6373 101.519 13.52 101.135 13.52C100.885 13.52 100.661 13.5787 100.463 13.696C100.271 13.808 100.122 13.968 100.015 14.176C99.9086 14.384 99.8553 14.6373 99.8553 14.936V15.016C99.8553 15.336 99.914 15.6053 100.031 15.824C100.149 16.0427 100.317 16.208 100.535 16.32C100.754 16.432 101.015 16.488 101.319 16.488C101.538 16.488 101.759 16.4587 101.983 16.4C102.213 16.336 102.426 16.224 102.623 16.064L102.863 16.576C102.661 16.7467 102.418 16.872 102.135 16.952C101.858 17.032 101.583 17.072 101.311 17.072ZM104.118 17V13.048H104.766V13.96H104.774C104.87 13.6667 105.038 13.4373 105.278 13.272C105.518 13.1013 105.812 13.0053 106.158 12.984L106.518 12.968L106.582 13.616L106.006 13.664C105.638 13.696 105.35 13.8187 105.142 14.032C104.934 14.24 104.83 14.5013 104.83 14.816V17H104.118ZM109.319 17.072C108.876 17.072 108.492 16.992 108.167 16.832C107.847 16.6667 107.602 16.432 107.431 16.128C107.26 15.8187 107.175 15.4507 107.175 15.024C107.175 14.624 107.255 14.272 107.415 13.968C107.575 13.6587 107.802 13.416 108.095 13.24C108.388 13.064 108.738 12.976 109.143 12.976C109.527 12.976 109.852 13.0587 110.119 13.224C110.391 13.3893 110.596 13.6213 110.735 13.92C110.879 14.2187 110.951 14.5733 110.951 14.984V15.216H107.711V14.72H110.487L110.335 14.88C110.335 14.4427 110.231 14.1067 110.023 13.872C109.82 13.6373 109.527 13.52 109.143 13.52C108.892 13.52 108.668 13.5787 108.471 13.696C108.279 13.808 108.13 13.968 108.023 14.176C107.916 14.384 107.863 14.6373 107.863 14.936V15.016C107.863 15.336 107.922 15.6053 108.039 15.824C108.156 16.0427 108.324 16.208 108.543 16.32C108.762 16.432 109.023 16.488 109.327 16.488C109.546 16.488 109.767 16.4587 109.991 16.4C110.22 16.336 110.434 16.224 110.631 16.064L110.871 16.576C110.668 16.7467 110.426 16.872 110.143 16.952C109.866 17.032 109.591 17.072 109.319 17.072ZM113.702 17.072C113.339 17.072 113.022 16.9867 112.75 16.816C112.478 16.6453 112.265 16.4053 112.11 16.096C111.961 15.7867 111.886 15.4293 111.886 15.024C111.886 14.6133 111.961 14.256 112.11 13.952C112.259 13.6427 112.47 13.4027 112.742 13.232C113.014 13.0613 113.331 12.976 113.694 12.976C114.035 12.976 114.326 13.056 114.566 13.216C114.811 13.376 114.987 13.5947 115.094 13.872V11.36H115.806V17H115.15V16.128C115.033 16.4267 114.849 16.6587 114.598 16.824C114.347 16.9893 114.049 17.072 113.702 17.072ZM113.854 16.488C114.243 16.488 114.547 16.3573 114.766 16.096C114.99 15.8347 115.102 15.4773 115.102 15.024C115.102 14.5707 114.99 14.2133 114.766 13.952C114.547 13.6907 114.243 13.56 113.854 13.56C113.47 13.56 113.163 13.6907 112.934 13.952C112.71 14.2133 112.598 14.5707 112.598 15.024C112.598 15.4773 112.71 15.8347 112.934 16.096C113.158 16.3573 113.465 16.488 113.854 16.488ZM117.5 18.152L117.14 17.872C117.236 17.7813 117.31 17.6773 117.364 17.56C117.422 17.448 117.465 17.3307 117.492 17.208C117.518 17.0907 117.534 16.9813 117.54 16.88L117.676 17H117.092V16.12H118.004V16.776C118.004 16.9413 117.988 17.1067 117.956 17.272C117.924 17.4373 117.87 17.5947 117.796 17.744C117.721 17.8933 117.622 18.0293 117.5 18.152ZM121.645 17V11.36H123.965C124.37 11.36 124.714 11.4267 124.997 11.56C125.279 11.6933 125.495 11.888 125.645 12.144C125.799 12.3947 125.877 12.6987 125.877 13.056C125.877 13.4133 125.799 13.72 125.645 13.976C125.495 14.232 125.277 14.4293 124.989 14.568C124.706 14.7067 124.365 14.776 123.965 14.776H122.357V17H121.645ZM122.357 14.168H123.861C124.287 14.168 124.61 14.0773 124.829 13.896C125.047 13.7093 125.157 13.432 125.157 13.064C125.157 12.6907 125.047 12.416 124.829 12.24C124.61 12.0587 124.287 11.968 123.861 11.968H122.357V14.168ZM128.749 17.072C128.306 17.072 127.922 16.992 127.597 16.832C127.277 16.6667 127.031 16.432 126.861 16.128C126.69 15.8187 126.605 15.4507 126.605 15.024C126.605 14.624 126.685 14.272 126.845 13.968C127.005 13.6587 127.231 13.416 127.525 13.24C127.818 13.064 128.167 12.976 128.573 12.976C128.957 12.976 129.282 13.0587 129.549 13.224C129.821 13.3893 130.026 13.6213 130.165 13.92C130.309 14.2187 130.381 14.5733 130.381 14.984V15.216H127.141V14.72H129.917L129.765 14.88C129.765 14.4427 129.661 14.1067 129.453 13.872C129.25 13.6373 128.957 13.52 128.573 13.52C128.322 13.52 128.098 13.5787 127.901 13.696C127.709 13.808 127.559 13.968 127.453 14.176C127.346 14.384 127.293 14.6373 127.293 14.936V15.016C127.293 15.336 127.351 15.6053 127.469 15.824C127.586 16.0427 127.754 16.208 127.973 16.32C128.191 16.432 128.453 16.488 128.757 16.488C128.975 16.488 129.197 16.4587 129.421 16.4C129.65 16.336 129.863 16.224 130.061 16.064L130.301 16.576C130.098 16.7467 129.855 16.872 129.573 16.952C129.295 17.032 129.021 17.072 128.749 17.072ZM131.556 17V13.048H132.204V13.96H132.212C132.308 13.6667 132.476 13.4373 132.716 13.272C132.956 13.1013 133.249 13.0053 133.596 12.984L133.956 12.968L134.02 13.616L133.444 13.664C133.076 13.696 132.788 13.8187 132.58 14.032C132.372 14.24 132.268 14.5013 132.268 14.816V17H131.556ZM135.35 17V13.608H134.542V13.048H135.534L135.35 13.232V12.976C135.35 12.4587 135.494 12.0667 135.782 11.8C136.07 11.528 136.489 11.376 137.038 11.344L137.454 11.32L137.51 11.904L137.03 11.936C136.838 11.9467 136.67 11.984 136.526 12.048C136.382 12.1067 136.268 12.2027 136.182 12.336C136.102 12.4693 136.062 12.656 136.062 12.896V13.128L135.95 13.048H137.31V13.608H136.062V17H135.35ZM140.022 17.072C139.58 17.072 139.196 16.992 138.87 16.832C138.55 16.6667 138.305 16.432 138.134 16.128C137.964 15.8187 137.878 15.4507 137.878 15.024C137.878 14.624 137.958 14.272 138.118 13.968C138.278 13.6587 138.505 13.416 138.798 13.24C139.092 13.064 139.441 12.976 139.846 12.976C140.23 12.976 140.556 13.0587 140.822 13.224C141.094 13.3893 141.3 13.6213 141.438 13.92C141.582 14.2187 141.654 14.5733 141.654 14.984V15.216H138.414V14.72H141.19L141.038 14.88C141.038 14.4427 140.934 14.1067 140.726 13.872C140.524 13.6373 140.23 13.52 139.846 13.52C139.596 13.52 139.372 13.5787 139.174 13.696C138.982 13.808 138.833 13.968 138.726 14.176C138.62 14.384 138.566 14.6373 138.566 14.936V15.016C138.566 15.336 138.625 15.6053 138.742 15.824C138.86 16.0427 139.028 16.208 139.246 16.32C139.465 16.432 139.726 16.488 140.03 16.488C140.249 16.488 140.47 16.4587 140.694 16.4C140.924 16.336 141.137 16.224 141.334 16.064L141.574 16.576C141.372 16.7467 141.129 16.872 140.846 16.952C140.569 17.032 140.294 17.072 140.022 17.072ZM144.589 17.072C144.184 17.072 143.832 16.9867 143.533 16.816C143.235 16.6453 143.003 16.408 142.837 16.104C142.672 15.7947 142.589 15.432 142.589 15.016C142.589 14.6 142.672 14.24 142.837 13.936C143.003 13.6267 143.235 13.3893 143.533 13.224C143.837 13.0587 144.192 12.976 144.597 12.976C144.869 12.976 145.128 13.0213 145.373 13.112C145.619 13.2027 145.821 13.3253 145.981 13.48L145.733 14.008C145.579 13.8693 145.405 13.7653 145.213 13.696C145.021 13.6213 144.835 13.584 144.653 13.584C144.237 13.584 143.909 13.7093 143.669 13.96C143.429 14.2107 143.309 14.5653 143.309 15.024C143.309 15.4773 143.429 15.832 143.669 16.088C143.909 16.3387 144.235 16.464 144.645 16.464C144.832 16.464 145.019 16.4293 145.205 16.36C145.397 16.2853 145.568 16.1813 145.717 16.048L145.965 16.576C145.811 16.7307 145.611 16.8533 145.365 16.944C145.12 17.0293 144.861 17.072 144.589 17.072ZM148.556 17.072C148.081 17.072 147.721 16.9467 147.476 16.696C147.236 16.4453 147.116 16.088 147.116 15.624V13.632H146.316V13.048H147.14V11.872H147.828V13.048H149.244V13.632H147.828V15.56C147.828 15.864 147.894 16.0907 148.028 16.24C148.166 16.384 148.377 16.456 148.66 16.456C148.772 16.456 148.878 16.4453 148.98 16.424C149.086 16.4027 149.188 16.3707 149.284 16.328L149.396 16.888C149.289 16.9467 149.158 16.992 149.004 17.024C148.854 17.056 148.705 17.072 148.556 17.072ZM0.832 28V22.36H4.48V22.984H1.544V24.864H4.32V25.48H1.544V28H0.832ZM7.11169 28.072C6.71169 28.072 6.36502 27.9867 6.07169 27.816C5.77835 27.6453 5.55169 27.408 5.39169 27.104C5.23169 26.7947 5.15169 26.432 5.15169 26.016C5.15169 25.6053 5.23169 25.248 5.39169 24.944C5.55169 24.6347 5.77835 24.3973 6.07169 24.232C6.36502 24.0613 6.71169 23.976 7.11169 23.976C7.51169 23.976 7.85569 24.0613 8.14369 24.232C8.43702 24.3973 8.66369 24.6347 8.82369 24.944C8.98369 25.248 9.06369 25.6053 9.06369 26.016C9.06369 26.432 8.98369 26.7947 8.82369 27.104C8.66902 27.408 8.44502 27.6453 8.15169 27.816C7.85835 27.9867 7.51169 28.072 7.11169 28.072ZM7.10369 27.472C7.49302 27.472 7.79969 27.3413 8.02369 27.08C8.24769 26.8187 8.35969 26.464 8.35969 26.016C8.35969 25.568 8.24769 25.216 8.02369 24.96C7.80502 24.704 7.50102 24.576 7.11169 24.576C6.72235 24.576 6.41569 24.704 6.19169 24.96C5.96769 25.216 5.85569 25.568 5.85569 26.016C5.85569 26.464 5.96769 26.8187 6.19169 27.08C6.42102 27.3413 6.72502 27.472 7.10369 27.472ZM10.2589 28V24.048H10.9069V24.96H10.9149C11.0109 24.6667 11.1789 24.4373 11.4189 24.272C11.6589 24.1013 11.9522 24.0053 12.2989 23.984L12.6589 23.968L12.7229 24.616L12.1469 24.664C11.7789 24.696 11.4909 24.8187 11.2829 25.032C11.0749 25.24 10.9709 25.5013 10.9709 25.816V28H10.2589ZM15.973 28V22.36H16.765L18.797 26.384H18.749L20.765 22.36H21.557V28H20.877V23.368H20.909L19.029 27.104H18.509L16.613 23.368H16.653V28H15.973ZM25.0223 28.072C24.5796 28.072 24.1956 27.992 23.8703 27.832C23.5503 27.6667 23.3049 27.432 23.1343 27.128C22.9636 26.8187 22.8783 26.4507 22.8783 26.024C22.8783 25.624 22.9583 25.272 23.1183 24.968C23.2783 24.6587 23.5049 24.416 23.7983 24.24C24.0916 24.064 24.4409 23.976 24.8463 23.976C25.2303 23.976 25.5556 24.0587 25.8223 24.224C26.0943 24.3893 26.2996 24.6213 26.4383 24.92C26.5823 25.2187 26.6543 25.5733 26.6543 25.984V26.216H23.4143V25.72H26.1903L26.0383 25.88C26.0383 25.4427 25.9343 25.1067 25.7263 24.872C25.5236 24.6373 25.2303 24.52 24.8463 24.52C24.5956 24.52 24.3716 24.5787 24.1743 24.696C23.9823 24.808 23.8329 24.968 23.7263 25.176C23.6196 25.384 23.5663 25.6373 23.5663 25.936V26.016C23.5663 26.336 23.6249 26.6053 23.7423 26.824C23.8596 27.0427 24.0276 27.208 24.2463 27.32C24.4649 27.432 24.7263 27.488 25.0303 27.488C25.2489 27.488 25.4703 27.4587 25.6943 27.4C25.9236 27.336 26.1369 27.224 26.3343 27.064L26.5743 27.576C26.3716 27.7467 26.1289 27.872 25.8463 27.952C25.5689 28.032 25.2943 28.072 25.0223 28.072ZM29.1492 28.072C28.8665 28.072 28.6132 28.0213 28.3892 27.92C28.1652 27.8133 27.9892 27.6693 27.8612 27.488C27.7332 27.3067 27.6692 27.104 27.6692 26.88C27.6692 26.576 27.7545 26.3387 27.9252 26.168C28.0959 25.992 28.3572 25.8667 28.7092 25.792C29.0665 25.7173 29.5225 25.68 30.0772 25.68H30.6452V26.168H30.1092C29.7999 26.168 29.5359 26.1787 29.3172 26.2C29.0985 26.216 28.9199 26.2507 28.7812 26.304C28.6425 26.352 28.5412 26.4187 28.4772 26.504C28.4132 26.5893 28.3812 26.7013 28.3812 26.84C28.3812 27.0533 28.4639 27.2187 28.6292 27.336C28.7999 27.4533 29.0159 27.512 29.2772 27.512C29.5065 27.512 29.7145 27.4613 29.9012 27.36C30.0932 27.2533 30.2452 27.112 30.3572 26.936C30.4745 26.76 30.5332 26.5653 30.5332 26.352V25.448C30.5332 25.1333 30.4452 24.9067 30.2692 24.768C30.0932 24.624 29.8319 24.552 29.4852 24.552C29.2505 24.552 29.0159 24.584 28.7812 24.648C28.5519 24.712 28.3145 24.8187 28.0692 24.968L27.8372 24.44C28.0025 24.3387 28.1785 24.256 28.3652 24.192C28.5519 24.1227 28.7465 24.0693 28.9492 24.032C29.1519 23.9947 29.3545 23.976 29.5572 23.976C29.8985 23.976 30.1919 24.0293 30.4372 24.136C30.6879 24.2427 30.8799 24.408 31.0132 24.632C31.1519 24.856 31.2212 25.1493 31.2212 25.512V28H30.5972V27.136C30.5225 27.3013 30.4185 27.456 30.2852 27.6C30.1519 27.744 29.9892 27.8587 29.7972 27.944C29.6105 28.0293 29.3945 28.072 29.1492 28.072ZM33.8339 28.072C33.4499 28.072 33.1539 27.96 32.9459 27.736C32.7379 27.512 32.6339 27.1973 32.6339 26.792V22.36H33.3459V26.72C33.3459 26.88 33.3699 27.0187 33.4179 27.136C33.4659 27.248 33.5352 27.3333 33.6259 27.392C33.7165 27.4507 33.8259 27.48 33.9539 27.48C34.0339 27.48 34.1085 27.4773 34.1779 27.472C34.2525 27.4613 34.3272 27.4453 34.4019 27.424L34.4179 27.984C34.3272 28.016 34.2339 28.0373 34.1379 28.048C34.0472 28.064 33.9459 28.072 33.8339 28.072ZM36.6368 28.072C36.4181 28.072 36.2021 28.0507 35.9888 28.008C35.7808 27.9707 35.5861 27.9173 35.4048 27.848C35.2288 27.7733 35.0768 27.6827 34.9488 27.576L35.1808 27.072C35.3141 27.1733 35.4608 27.256 35.6208 27.32C35.7861 27.384 35.9541 27.432 36.1248 27.464C36.3008 27.4907 36.4688 27.504 36.6288 27.504C36.9594 27.504 37.2128 27.4533 37.3888 27.352C37.5701 27.2507 37.6608 27.1093 37.6608 26.928C37.6608 26.7733 37.6074 26.656 37.5008 26.576C37.3994 26.4907 37.2288 26.4267 36.9888 26.384L36.1648 26.24C35.7968 26.1707 35.5194 26.0453 35.3328 25.864C35.1514 25.6827 35.0608 25.4453 35.0608 25.152C35.0608 24.9173 35.1248 24.712 35.2528 24.536C35.3861 24.36 35.5754 24.224 35.8208 24.128C36.0661 24.0267 36.3594 23.976 36.7008 23.976C36.8874 23.976 37.0768 23.9947 37.2688 24.032C37.4661 24.0693 37.6474 24.1253 37.8128 24.2C37.9834 24.2693 38.1221 24.3573 38.2288 24.464L37.9888 24.968C37.8821 24.8667 37.7541 24.7867 37.6048 24.728C37.4608 24.664 37.3088 24.6187 37.1488 24.592C36.9941 24.56 36.8421 24.544 36.6928 24.544C36.3834 24.544 36.1434 24.5973 35.9728 24.704C35.8021 24.8053 35.7168 24.9493 35.7168 25.136C35.7168 25.2853 35.7648 25.4027 35.8608 25.488C35.9621 25.5733 36.1248 25.6373 36.3488 25.68L37.1488 25.824C37.5434 25.8987 37.8368 26.024 38.0288 26.2C38.2208 26.3707 38.3168 26.608 38.3168 26.912C38.3168 27.1467 38.2474 27.352 38.1088 27.528C37.9701 27.6987 37.7754 27.832 37.5248 27.928C37.2741 28.024 36.9781 28.072 36.6368 28.072ZM39.7262 29.152L39.3662 28.872C39.4622 28.7813 39.5369 28.6773 39.5902 28.56C39.6489 28.448 39.6915 28.3307 39.7182 28.208C39.7449 28.0907 39.7609 27.9813 39.7662 27.88L39.9022 28H39.3182V27.12H40.2302V27.776C40.2302 27.9413 40.2142 28.1067 40.1822 28.272C40.1502 28.4373 40.0969 28.5947 40.0222 28.744C39.9475 28.8933 39.8489 29.0293 39.7262 29.152ZM45.7591 28.072C45.4497 28.072 45.1564 28.048 44.8791 28C44.6017 27.952 44.3484 27.88 44.1191 27.784C43.8897 27.688 43.6897 27.5707 43.5191 27.432L43.7831 26.84C43.9644 26.984 44.1564 27.1013 44.3591 27.192C44.5671 27.2773 44.7857 27.3387 45.0151 27.376C45.2497 27.4133 45.4977 27.432 45.7591 27.432C46.2017 27.432 46.5404 27.344 46.7751 27.168C47.0151 26.992 47.1351 26.752 47.1351 26.448C47.1351 26.288 47.0951 26.1547 47.0151 26.048C46.9404 25.9413 46.8204 25.8533 46.6551 25.784C46.4951 25.7147 46.2871 25.6533 46.0311 25.6L45.1111 25.424C44.5937 25.3227 44.2204 25.144 43.9911 24.888C43.7617 24.632 43.6471 24.3093 43.6471 23.92C43.6471 23.5893 43.7377 23.304 43.9191 23.064C44.1057 22.8187 44.3617 22.6293 44.6871 22.496C45.0177 22.3573 45.3937 22.288 45.8151 22.288C46.0817 22.288 46.3297 22.3147 46.5591 22.368C46.7937 22.416 47.0071 22.4907 47.1991 22.592C47.3964 22.6933 47.5724 22.816 47.7271 22.96L47.4631 23.544C47.2337 23.32 46.9831 23.1627 46.7111 23.072C46.4391 22.976 46.1377 22.928 45.8071 22.928C45.5297 22.928 45.2817 22.968 45.0631 23.048C44.8444 23.1227 44.6711 23.2347 44.5431 23.384C44.4204 23.528 44.3591 23.7067 44.3591 23.92C44.3591 24.1547 44.4337 24.3413 44.5831 24.48C44.7324 24.6133 44.9857 24.7173 45.3431 24.792L46.2551 24.968C46.7991 25.0693 47.2017 25.24 47.4631 25.48C47.7244 25.72 47.8551 26.032 47.8551 26.416C47.8551 26.736 47.7671 27.0213 47.5911 27.272C47.4204 27.5227 47.1777 27.72 46.8631 27.864C46.5537 28.0027 46.1857 28.072 45.7591 28.072ZM49.0011 28V24.048H49.6651V24.904C49.7931 24.6107 49.9851 24.384 50.2411 24.224C50.4971 24.0587 50.7851 23.976 51.1051 23.976C51.4304 23.976 51.7024 24.0347 51.9211 24.152C52.1397 24.264 52.3024 24.44 52.4091 24.68C52.5211 24.9147 52.5771 25.208 52.5771 25.56V28H51.8651V25.6C51.8651 25.3867 51.8357 25.2053 51.7771 25.056C51.7184 24.9067 51.6197 24.792 51.4811 24.712C51.3477 24.6267 51.1691 24.584 50.9451 24.584C50.7104 24.584 50.4971 24.6373 50.3051 24.744C50.1184 24.8507 49.9717 24.9947 49.8651 25.176C49.7637 25.3573 49.7131 25.56 49.7131 25.784V28H49.0011ZM55.3054 28.072C55.0228 28.072 54.7694 28.0213 54.5454 27.92C54.3214 27.8133 54.1454 27.6693 54.0174 27.488C53.8894 27.3067 53.8254 27.104 53.8254 26.88C53.8254 26.576 53.9108 26.3387 54.0814 26.168C54.2521 25.992 54.5134 25.8667 54.8654 25.792C55.2228 25.7173 55.6788 25.68 56.2334 25.68H56.8014V26.168H56.2654C55.9561 26.168 55.6921 26.1787 55.4734 26.2C55.2548 26.216 55.0761 26.2507 54.9374 26.304C54.7988 26.352 54.6974 26.4187 54.6334 26.504C54.5694 26.5893 54.5374 26.7013 54.5374 26.84C54.5374 27.0533 54.6201 27.2187 54.7854 27.336C54.9561 27.4533 55.1721 27.512 55.4334 27.512C55.6628 27.512 55.8708 27.4613 56.0574 27.36C56.2494 27.2533 56.4014 27.112 56.5134 26.936C56.6308 26.76 56.6894 26.5653 56.6894 26.352V25.448C56.6894 25.1333 56.6014 24.9067 56.4254 24.768C56.2494 24.624 55.9881 24.552 55.6414 24.552C55.4068 24.552 55.1721 24.584 54.9374 24.648C54.7081 24.712 54.4708 24.8187 54.2254 24.968L53.9934 24.44C54.1588 24.3387 54.3348 24.256 54.5214 24.192C54.7081 24.1227 54.9028 24.0693 55.1054 24.032C55.3081 23.9947 55.5108 23.976 55.7134 23.976C56.0548 23.976 56.3481 24.0293 56.5934 24.136C56.8441 24.2427 57.0361 24.408 57.1694 24.632C57.3081 24.856 57.3774 25.1493 57.3774 25.512V28H56.7534V27.136C56.6788 27.3013 56.5748 27.456 56.4414 27.6C56.3081 27.744 56.1454 27.8587 55.9534 27.944C55.7668 28.0293 55.5508 28.072 55.3054 28.072ZM60.5501 28.072C60.1448 28.072 59.7928 27.9867 59.4941 27.816C59.1955 27.6453 58.9635 27.408 58.7981 27.104C58.6328 26.7947 58.5501 26.432 58.5501 26.016C58.5501 25.6 58.6328 25.24 58.7981 24.936C58.9635 24.6267 59.1955 24.3893 59.4941 24.224C59.7981 24.0587 60.1528 23.976 60.5581 23.976C60.8301 23.976 61.0888 24.0213 61.3341 24.112C61.5795 24.2027 61.7821 24.3253 61.9421 24.48L61.6941 25.008C61.5395 24.8693 61.3661 24.7653 61.1741 24.696C60.9821 24.6213 60.7955 24.584 60.6141 24.584C60.1981 24.584 59.8701 24.7093 59.6301 24.96C59.3901 25.2107 59.2701 25.5653 59.2701 26.024C59.2701 26.4773 59.3901 26.832 59.6301 27.088C59.8701 27.3387 60.1955 27.464 60.6061 27.464C60.7928 27.464 60.9795 27.4293 61.1661 27.36C61.3581 27.2853 61.5288 27.1813 61.6781 27.048L61.9261 27.576C61.7715 27.7307 61.5715 27.8533 61.3261 27.944C61.0808 28.0293 60.8221 28.072 60.5501 28.072ZM62.8526 28V22.36H63.5646V25.808H63.5966L65.3726 24.048H66.2526L64.1326 26.12L64.1486 25.808L66.4526 28H65.5486L63.5966 26.168H63.5646V28H62.8526ZM68.543 28.072C68.3243 28.072 68.1083 28.0507 67.895 28.008C67.687 27.9707 67.4923 27.9173 67.311 27.848C67.135 27.7733 66.983 27.6827 66.855 27.576L67.087 27.072C67.2203 27.1733 67.367 27.256 67.527 27.32C67.6923 27.384 67.8603 27.432 68.031 27.464C68.207 27.4907 68.375 27.504 68.535 27.504C68.8657 27.504 69.119 27.4533 69.295 27.352C69.4763 27.2507 69.567 27.1093 69.567 26.928C69.567 26.7733 69.5137 26.656 69.407 26.576C69.3057 26.4907 69.135 26.4267 68.895 26.384L68.071 26.24C67.703 26.1707 67.4257 26.0453 67.239 25.864C67.0577 25.6827 66.967 25.4453 66.967 25.152C66.967 24.9173 67.031 24.712 67.159 24.536C67.2923 24.36 67.4817 24.224 67.727 24.128C67.9723 24.0267 68.2657 23.976 68.607 23.976C68.7937 23.976 68.983 23.9947 69.175 24.032C69.3723 24.0693 69.5537 24.1253 69.719 24.2C69.8897 24.2693 70.0283 24.3573 70.135 24.464L69.895 24.968C69.7883 24.8667 69.6603 24.7867 69.511 24.728C69.367 24.664 69.215 24.6187 69.055 24.592C68.9003 24.56 68.7483 24.544 68.599 24.544C68.2897 24.544 68.0497 24.5973 67.879 24.704C67.7083 24.8053 67.623 24.9493 67.623 25.136C67.623 25.2853 67.671 25.4027 67.767 25.488C67.8683 25.5733 68.031 25.6373 68.255 25.68L69.055 25.824C69.4497 25.8987 69.743 26.024 69.935 26.2C70.127 26.3707 70.223 26.608 70.223 26.912C70.223 27.1467 70.1537 27.352 70.015 27.528C69.8763 27.6987 69.6817 27.832 69.431 27.928C69.1803 28.024 68.8843 28.072 68.543 28.072ZM71.6324 29.152L71.2724 28.872C71.3684 28.7813 71.4431 28.6773 71.4964 28.56C71.5551 28.448 71.5978 28.3307 71.6244 28.208C71.6511 28.0907 71.6671 27.9813 71.6724 27.88L71.8084 28H71.2244V27.12H72.1364V27.776C72.1364 27.9413 72.1204 28.1067 72.0884 28.272C72.0564 28.4373 72.0031 28.5947 71.9284 28.744C71.8538 28.8933 71.7551 29.0293 71.6324 29.152ZM77.6653 28.072C77.356 28.072 77.0626 28.048 76.7853 28C76.508 27.952 76.2546 27.88 76.0253 27.784C75.796 27.688 75.596 27.5707 75.4253 27.432L75.6893 26.84C75.8706 26.984 76.0626 27.1013 76.2653 27.192C76.4733 27.2773 76.692 27.3387 76.9213 27.376C77.156 27.4133 77.404 27.432 77.6653 27.432C78.108 27.432 78.4466 27.344 78.6813 27.168C78.9213 26.992 79.0413 26.752 79.0413 26.448C79.0413 26.288 79.0013 26.1547 78.9213 26.048C78.8466 25.9413 78.7266 25.8533 78.5613 25.784C78.4013 25.7147 78.1933 25.6533 77.9373 25.6L77.0173 25.424C76.5 25.3227 76.1266 25.144 75.8973 24.888C75.668 24.632 75.5533 24.3093 75.5533 23.92C75.5533 23.5893 75.644 23.304 75.8253 23.064C76.012 22.8187 76.268 22.6293 76.5933 22.496C76.924 22.3573 77.3 22.288 77.7213 22.288C77.988 22.288 78.236 22.3147 78.4653 22.368C78.7 22.416 78.9133 22.4907 79.1053 22.592C79.3026 22.6933 79.4786 22.816 79.6333 22.96L79.3693 23.544C79.14 23.32 78.8893 23.1627 78.6173 23.072C78.3453 22.976 78.044 22.928 77.7133 22.928C77.436 22.928 77.188 22.968 76.9693 23.048C76.7506 23.1227 76.5773 23.2347 76.4493 23.384C76.3266 23.528 76.2653 23.7067 76.2653 23.92C76.2653 24.1547 76.34 24.3413 76.4893 24.48C76.6386 24.6133 76.892 24.7173 77.2493 24.792L78.1613 24.968C78.7053 25.0693 79.108 25.24 79.3693 25.48C79.6306 25.72 79.7613 26.032 79.7613 26.416C79.7613 26.736 79.6733 27.0213 79.4973 27.272C79.3266 27.5227 79.084 27.72 78.7693 27.864C78.46 28.0027 78.092 28.072 77.6653 28.072ZM82.2273 28.072C81.9446 28.072 81.6913 28.0213 81.4673 27.92C81.2433 27.8133 81.0673 27.6693 80.9393 27.488C80.8113 27.3067 80.7473 27.104 80.7473 26.88C80.7473 26.576 80.8326 26.3387 81.0033 26.168C81.174 25.992 81.4353 25.8667 81.7873 25.792C82.1446 25.7173 82.6006 25.68 83.1553 25.68H83.7233V26.168H83.1873C82.878 26.168 82.614 26.1787 82.3953 26.2C82.1766 26.216 81.998 26.2507 81.8593 26.304C81.7206 26.352 81.6193 26.4187 81.5553 26.504C81.4913 26.5893 81.4593 26.7013 81.4593 26.84C81.4593 27.0533 81.542 27.2187 81.7073 27.336C81.878 27.4533 82.094 27.512 82.3553 27.512C82.5846 27.512 82.7926 27.4613 82.9793 27.36C83.1713 27.2533 83.3233 27.112 83.4353 26.936C83.5526 26.76 83.6113 26.5653 83.6113 26.352V25.448C83.6113 25.1333 83.5233 24.9067 83.3473 24.768C83.1713 24.624 82.91 24.552 82.5633 24.552C82.3286 24.552 82.094 24.584 81.8593 24.648C81.63 24.712 81.3926 24.8187 81.1473 24.968L80.9153 24.44C81.0806 24.3387 81.2566 24.256 81.4433 24.192C81.63 24.1227 81.8246 24.0693 82.0273 24.032C82.23 23.9947 82.4326 23.976 82.6353 23.976C82.9766 23.976 83.27 24.0293 83.5153 24.136C83.766 24.2427 83.958 24.408 84.0913 24.632C84.23 24.856 84.2993 25.1493 84.2993 25.512V28H83.6753V27.136C83.6006 27.3013 83.4966 27.456 83.3633 27.6C83.23 27.744 83.0673 27.8587 82.8753 27.944C82.6886 28.0293 82.4726 28.072 82.2273 28.072ZM86.912 28.072C86.528 28.072 86.232 27.96 86.024 27.736C85.816 27.512 85.712 27.1973 85.712 26.792V22.36H86.424V26.72C86.424 26.88 86.448 27.0187 86.496 27.136C86.544 27.248 86.6133 27.3333 86.704 27.392C86.7947 27.4507 86.904 27.48 87.032 27.48C87.112 27.48 87.1867 27.4773 87.256 27.472C87.3307 27.4613 87.4053 27.4453 87.48 27.424L87.496 27.984C87.4053 28.016 87.312 28.0373 87.216 28.048C87.1253 28.064 87.024 28.072 86.912 28.072ZM89.6179 28.072C89.3353 28.072 89.0819 28.0213 88.8579 27.92C88.6339 27.8133 88.4579 27.6693 88.3299 27.488C88.2019 27.3067 88.1379 27.104 88.1379 26.88C88.1379 26.576 88.2233 26.3387 88.3939 26.168C88.5646 25.992 88.8259 25.8667 89.1779 25.792C89.5353 25.7173 89.9913 25.68 90.5459 25.68H91.1139V26.168H90.5779C90.2686 26.168 90.0046 26.1787 89.7859 26.2C89.5673 26.216 89.3886 26.2507 89.2499 26.304C89.1113 26.352 89.0099 26.4187 88.9459 26.504C88.8819 26.5893 88.8499 26.7013 88.8499 26.84C88.8499 27.0533 88.9326 27.2187 89.0979 27.336C89.2686 27.4533 89.4846 27.512 89.7459 27.512C89.9753 27.512 90.1833 27.4613 90.3699 27.36C90.5619 27.2533 90.7139 27.112 90.8259 26.936C90.9433 26.76 91.0019 26.5653 91.0019 26.352V25.448C91.0019 25.1333 90.9139 24.9067 90.7379 24.768C90.5619 24.624 90.3006 24.552 89.9539 24.552C89.7193 24.552 89.4846 24.584 89.2499 24.648C89.0206 24.712 88.7833 24.8187 88.5379 24.968L88.3059 24.44C88.4713 24.3387 88.6473 24.256 88.8339 24.192C89.0206 24.1227 89.2153 24.0693 89.4179 24.032C89.6206 23.9947 89.8233 23.976 90.0259 23.976C90.3673 23.976 90.6606 24.0293 90.9059 24.136C91.1566 24.2427 91.3486 24.408 91.4819 24.632C91.6206 24.856 91.6899 25.1493 91.6899 25.512V28H91.0659V27.136C90.9913 27.3013 90.8873 27.456 90.7539 27.6C90.6206 27.744 90.4579 27.8587 90.2659 27.944C90.0793 28.0293 89.8633 28.072 89.6179 28.072ZM94.6786 28.072C94.316 28.072 93.9986 27.9867 93.7266 27.816C93.4546 27.6453 93.2413 27.4053 93.0866 27.096C92.9373 26.7867 92.8626 26.4293 92.8626 26.024C92.8626 25.6133 92.9373 25.256 93.0866 24.952C93.236 24.6427 93.4466 24.4027 93.7186 24.232C93.9906 24.0613 94.308 23.976 94.6706 23.976C95.012 23.976 95.3026 24.056 95.5426 24.216C95.788 24.376 95.964 24.5947 96.0706 24.872V22.36H96.7826V28H96.1266V27.128C96.0093 27.4267 95.8253 27.6587 95.5746 27.824C95.324 27.9893 95.0253 28.072 94.6786 28.072ZM94.8306 27.488C95.22 27.488 95.524 27.3573 95.7426 27.096C95.9666 26.8347 96.0786 26.4773 96.0786 26.024C96.0786 25.5707 95.9666 25.2133 95.7426 24.952C95.524 24.6907 95.22 24.56 94.8306 24.56C94.4466 24.56 94.14 24.6907 93.9106 24.952C93.6866 25.2133 93.5746 25.5707 93.5746 26.024C93.5746 26.4773 93.6866 26.8347 93.9106 27.096C94.1346 27.3573 94.4413 27.488 94.8306 27.488ZM99.6602 28.072C99.4415 28.072 99.2255 28.0507 99.0122 28.008C98.8042 27.9707 98.6095 27.9173 98.4282 27.848C98.2522 27.7733 98.1002 27.6827 97.9722 27.576L98.2042 27.072C98.3375 27.1733 98.4842 27.256 98.6442 27.32C98.8095 27.384 98.9775 27.432 99.1482 27.464C99.3242 27.4907 99.4922 27.504 99.6522 27.504C99.9829 27.504 100.236 27.4533 100.412 27.352C100.594 27.2507 100.684 27.1093 100.684 26.928C100.684 26.7733 100.631 26.656 100.524 26.576C100.423 26.4907 100.252 26.4267 100.012 26.384L99.1882 26.24C98.8202 26.1707 98.5429 26.0453 98.3562 25.864C98.1749 25.6827 98.0842 25.4453 98.0842 25.152C98.0842 24.9173 98.1482 24.712 98.2762 24.536C98.4095 24.36 98.5989 24.224 98.8442 24.128C99.0895 24.0267 99.3829 23.976 99.7242 23.976C99.9109 23.976 100.1 23.9947 100.292 24.032C100.49 24.0693 100.671 24.1253 100.836 24.2C101.007 24.2693 101.146 24.3573 101.252 24.464L101.012 24.968C100.906 24.8667 100.778 24.7867 100.628 24.728C100.484 24.664 100.332 24.6187 100.172 24.592C100.018 24.56 99.8655 24.544 99.7162 24.544C99.4069 24.544 99.1669 24.5973 98.9962 24.704C98.8255 24.8053 98.7402 24.9493 98.7402 25.136C98.7402 25.2853 98.7882 25.4027 98.8842 25.488C98.9855 25.5733 99.1482 25.6373 99.3722 25.68L100.172 25.824C100.567 25.8987 100.86 26.024 101.052 26.2C101.244 26.3707 101.34 26.608 101.34 26.912C101.34 27.1467 101.271 27.352 101.132 27.528C100.994 27.6987 100.799 27.832 100.548 27.928C100.298 28.024 100.002 28.072 99.6602 28.072ZM102.75 29.152L102.39 28.872C102.486 28.7813 102.56 28.6773 102.614 28.56C102.672 28.448 102.715 28.3307 102.742 28.208C102.768 28.0907 102.784 27.9813 102.79 27.88L102.926 28H102.342V27.12H103.254V27.776C103.254 27.9413 103.238 28.1067 103.206 28.272C103.174 28.4373 103.12 28.5947 103.046 28.744C102.971 28.8933 102.872 29.0293 102.75 29.152ZM109.455 28.072C108.868 28.072 108.367 27.9573 107.951 27.728C107.535 27.4987 107.215 27.1707 106.991 26.744C106.772 26.312 106.663 25.7893 106.663 25.176C106.663 24.5733 106.769 24.0587 106.983 23.632C107.201 23.2 107.513 22.8693 107.919 22.64C108.324 22.4053 108.809 22.288 109.375 22.288C109.652 22.288 109.916 22.3147 110.167 22.368C110.417 22.4213 110.649 22.5013 110.863 22.608C111.076 22.7093 111.257 22.8373 111.407 22.992L111.135 23.544C110.884 23.3253 110.615 23.1707 110.327 23.08C110.039 22.984 109.719 22.936 109.367 22.936C108.748 22.936 108.265 23.128 107.919 23.512C107.577 23.8907 107.407 24.4453 107.407 25.176C107.407 25.9333 107.583 26.5013 107.935 26.88C108.292 27.2533 108.809 27.44 109.487 27.44C109.785 27.44 110.063 27.416 110.319 27.368C110.58 27.32 110.817 27.2507 111.031 27.16L110.823 27.576V25.616H109.415V25.008H111.471V27.672C111.321 27.7467 111.135 27.816 110.911 27.88C110.687 27.9387 110.449 27.984 110.199 28.016C109.948 28.0533 109.7 28.072 109.455 28.072ZM112.946 28V24.048H113.594V24.96H113.602C113.698 24.6667 113.866 24.4373 114.106 24.272C114.346 24.1013 114.64 24.0053 114.986 23.984L115.346 23.968L115.41 24.616L114.834 24.664C114.466 24.696 114.178 24.8187 113.97 25.032C113.762 25.24 113.658 25.5013 113.658 25.816V28H112.946ZM117.571 28.072C117.288 28.072 117.035 28.0213 116.811 27.92C116.587 27.8133 116.411 27.6693 116.283 27.488C116.155 27.3067 116.091 27.104 116.091 26.88C116.091 26.576 116.176 26.3387 116.347 26.168C116.518 25.992 116.779 25.8667 117.131 25.792C117.488 25.7173 117.944 25.68 118.499 25.68H119.067V26.168H118.531C118.222 26.168 117.958 26.1787 117.739 26.2C117.52 26.216 117.342 26.2507 117.203 26.304C117.064 26.352 116.963 26.4187 116.899 26.504C116.835 26.5893 116.803 26.7013 116.803 26.84C116.803 27.0533 116.886 27.2187 117.051 27.336C117.222 27.4533 117.438 27.512 117.699 27.512C117.928 27.512 118.136 27.4613 118.323 27.36C118.515 27.2533 118.667 27.112 118.779 26.936C118.896 26.76 118.955 26.5653 118.955 26.352V25.448C118.955 25.1333 118.867 24.9067 118.691 24.768C118.515 24.624 118.254 24.552 117.907 24.552C117.672 24.552 117.438 24.584 117.203 24.648C116.974 24.712 116.736 24.8187 116.491 24.968L116.259 24.44C116.424 24.3387 116.6 24.256 116.787 24.192C116.974 24.1227 117.168 24.0693 117.371 24.032C117.574 23.9947 117.776 23.976 117.979 23.976C118.32 23.976 118.614 24.0293 118.859 24.136C119.11 24.2427 119.302 24.408 119.435 24.632C119.574 24.856 119.643 25.1493 119.643 25.512V28H119.019V27.136C118.944 27.3013 118.84 27.456 118.707 27.6C118.574 27.744 118.411 27.8587 118.219 27.944C118.032 28.0293 117.816 28.072 117.571 28.072ZM122.129 28L120.473 24.048H121.233L122.521 27.296H122.481L123.769 24.048H124.505L122.841 28H122.129ZM125.304 23.096V22.304H126.168V23.096H125.304ZM125.384 28V24.048H126.096V28H125.384ZM129.421 28.072C128.978 28.072 128.594 27.992 128.269 27.832C127.949 27.6667 127.703 27.432 127.533 27.128C127.362 26.8187 127.277 26.4507 127.277 26.024C127.277 25.624 127.357 25.272 127.517 24.968C127.677 24.6587 127.903 24.416 128.197 24.24C128.49 24.064 128.839 23.976 129.245 23.976C129.629 23.976 129.954 24.0587 130.221 24.224C130.493 24.3893 130.698 24.6213 130.837 24.92C130.981 25.2187 131.053 25.5733 131.053 25.984V26.216H127.813V25.72H130.589L130.437 25.88C130.437 25.4427 130.333 25.1067 130.125 24.872C129.922 24.6373 129.629 24.52 129.245 24.52C128.994 24.52 128.77 24.5787 128.573 24.696C128.381 24.808 128.231 24.968 128.125 25.176C128.018 25.384 127.965 25.6373 127.965 25.936V26.016C127.965 26.336 128.023 26.6053 128.141 26.824C128.258 27.0427 128.426 27.208 128.645 27.32C128.863 27.432 129.125 27.488 129.429 27.488C129.647 27.488 129.869 27.4587 130.093 27.4C130.322 27.336 130.535 27.224 130.733 27.064L130.973 27.576C130.77 27.7467 130.527 27.872 130.245 27.952C129.967 28.032 129.693 28.072 129.421 28.072ZM133.684 28.072C133.465 28.072 133.249 28.0507 133.036 28.008C132.828 27.9707 132.633 27.9173 132.452 27.848C132.276 27.7733 132.124 27.6827 131.996 27.576L132.228 27.072C132.361 27.1733 132.508 27.256 132.668 27.32C132.833 27.384 133.001 27.432 133.172 27.464C133.348 27.4907 133.516 27.504 133.676 27.504C134.006 27.504 134.26 27.4533 134.436 27.352C134.617 27.2507 134.708 27.1093 134.708 26.928C134.708 26.7733 134.654 26.656 134.548 26.576C134.446 26.4907 134.276 26.4267 134.036 26.384L133.212 26.24C132.844 26.1707 132.566 26.0453 132.38 25.864C132.198 25.6827 132.108 25.4453 132.108 25.152C132.108 24.9173 132.172 24.712 132.3 24.536C132.433 24.36 132.622 24.224 132.868 24.128C133.113 24.0267 133.406 23.976 133.748 23.976C133.934 23.976 134.124 23.9947 134.316 24.032C134.513 24.0693 134.694 24.1253 134.86 24.2C135.03 24.2693 135.169 24.3573 135.276 24.464L135.036 24.968C134.929 24.8667 134.801 24.7867 134.652 24.728C134.508 24.664 134.356 24.6187 134.196 24.592C134.041 24.56 133.889 24.544 133.74 24.544C133.43 24.544 133.19 24.5973 133.02 24.704C132.849 24.8053 132.764 24.9493 132.764 25.136C132.764 25.2853 132.812 25.4027 132.908 25.488C133.009 25.5733 133.172 25.6373 133.396 25.68L134.196 25.824C134.59 25.8987 134.884 26.024 135.076 26.2C135.268 26.3707 135.364 26.608 135.364 26.912C135.364 27.1467 135.294 27.352 135.156 27.528C135.017 27.6987 134.822 27.832 134.572 27.928C134.321 28.024 134.025 28.072 133.684 28.072ZM136.773 29.152L136.413 28.872C136.509 28.7813 136.584 28.6773 136.637 28.56C136.696 28.448 136.738 28.3307 136.765 28.208C136.792 28.0907 136.808 27.9813 136.813 27.88L136.949 28H136.365V27.12H137.277V27.776C137.277 27.9413 137.261 28.1067 137.229 28.272C137.197 28.4373 137.144 28.5947 137.069 28.744C136.994 28.8933 136.896 29.0293 136.773 29.152ZM0.832 39V33.36H1.544V35.904H1.576L4.256 33.36H5.16L2.048 36.312L2.096 35.92L5.352 39H4.4L1.576 36.352H1.544V39H0.832ZM7.87381 39.072C7.43115 39.072 7.04715 38.992 6.72181 38.832C6.40181 38.6667 6.15648 38.432 5.98581 38.128C5.81515 37.8187 5.72981 37.4507 5.72981 37.024C5.72981 36.624 5.80981 36.272 5.96981 35.968C6.12981 35.6587 6.35648 35.416 6.64981 35.24C6.94315 35.064 7.29248 34.976 7.69781 34.976C8.08181 34.976 8.40715 35.0587 8.67381 35.224C8.94581 35.3893 9.15115 35.6213 9.28981 35.92C9.43381 36.2187 9.50581 36.5733 9.50581 36.984V37.216H6.26581V36.72H9.04181L8.88981 36.88C8.88981 36.4427 8.78581 36.1067 8.57781 35.872C8.37515 35.6373 8.08181 35.52 7.69781 35.52C7.44715 35.52 7.22315 35.5787 7.02581 35.696C6.83381 35.808 6.68448 35.968 6.57781 36.176C6.47115 36.384 6.41781 36.6373 6.41781 36.936V37.016C6.41781 37.336 6.47648 37.6053 6.59381 37.824C6.71115 38.0427 6.87915 38.208 7.09781 38.32C7.31648 38.432 7.57781 38.488 7.88181 38.488C8.10048 38.488 8.32181 38.4587 8.54581 38.4C8.77515 38.336 8.98848 38.224 9.18581 38.064L9.42581 38.576C9.22315 38.7467 8.98048 38.872 8.69781 38.952C8.42048 39.032 8.14581 39.072 7.87381 39.072ZM12.5848 39.072C12.1421 39.072 11.7581 38.992 11.4328 38.832C11.1128 38.6667 10.8674 38.432 10.6968 38.128C10.5261 37.8187 10.4408 37.4507 10.4408 37.024C10.4408 36.624 10.5208 36.272 10.6808 35.968C10.8408 35.6587 11.0674 35.416 11.3608 35.24C11.6541 35.064 12.0034 34.976 12.4088 34.976C12.7928 34.976 13.1181 35.0587 13.3848 35.224C13.6568 35.3893 13.8621 35.6213 14.0008 35.92C14.1448 36.2187 14.2168 36.5733 14.2168 36.984V37.216H10.9768V36.72H13.7528L13.6008 36.88C13.6008 36.4427 13.4968 36.1067 13.2888 35.872C13.0861 35.6373 12.7928 35.52 12.4088 35.52C12.1581 35.52 11.9341 35.5787 11.7368 35.696C11.5448 35.808 11.3954 35.968 11.2888 36.176C11.1821 36.384 11.1288 36.6373 11.1288 36.936V37.016C11.1288 37.336 11.1874 37.6053 11.3048 37.824C11.4221 38.0427 11.5901 38.208 11.8088 38.32C12.0274 38.432 12.2888 38.488 12.5928 38.488C12.8114 38.488 13.0328 38.4587 13.2568 38.4C13.4861 38.336 13.6994 38.224 13.8968 38.064L14.1368 38.576C13.9341 38.7467 13.6914 38.872 13.4088 38.952C13.1314 39.032 12.8568 39.072 12.5848 39.072ZM15.3917 40.44V35.04H16.0477V35.912C16.165 35.6133 16.349 35.384 16.5997 35.224C16.8557 35.0587 17.1544 34.976 17.4957 34.976C17.8637 34.976 18.1837 35.0613 18.4557 35.232C18.7277 35.4027 18.9384 35.64 19.0877 35.944C19.237 36.248 19.3117 36.608 19.3117 37.024C19.3117 37.424 19.237 37.7787 19.0877 38.088C18.9437 38.3973 18.7357 38.64 18.4637 38.816C18.1917 38.9867 17.8717 39.072 17.5037 39.072C17.1677 39.072 16.877 38.992 16.6317 38.832C16.3917 38.6667 16.2157 38.448 16.1037 38.176V40.44H15.3917ZM17.3437 38.488C17.733 38.488 18.0397 38.3573 18.2637 38.096C18.4877 37.8293 18.5997 37.4693 18.5997 37.016C18.5997 36.5627 18.4877 36.208 18.2637 35.952C18.0397 35.6907 17.733 35.56 17.3437 35.56C16.9597 35.56 16.6557 35.6907 16.4317 35.952C16.2077 36.208 16.0957 36.5627 16.0957 37.016C16.0957 37.4693 16.2077 37.8293 16.4317 38.096C16.6557 38.3573 16.9597 38.488 17.3437 38.488ZM20.4133 34.096V33.304H21.2773V34.096H20.4133ZM20.4933 39V35.048H21.2053V39H20.4933ZM22.6261 39V35.048H23.2901V35.904C23.4181 35.6107 23.6101 35.384 23.8661 35.224C24.1221 35.0587 24.4101 34.976 24.7301 34.976C25.0554 34.976 25.3274 35.0347 25.5461 35.152C25.7647 35.264 25.9274 35.44 26.0341 35.68C26.1461 35.9147 26.2021 36.208 26.2021 36.56V39H25.4901V36.6C25.4901 36.3867 25.4607 36.2053 25.4021 36.056C25.3434 35.9067 25.2447 35.792 25.1061 35.712C24.9727 35.6267 24.7941 35.584 24.5701 35.584C24.3354 35.584 24.1221 35.6373 23.9301 35.744C23.7434 35.8507 23.5967 35.9947 23.4901 36.176C23.3887 36.3573 23.3381 36.56 23.3381 36.784V39H22.6261ZM29.3224 40.512C29.0078 40.512 28.6958 40.464 28.3864 40.368C28.0771 40.2773 27.8131 40.152 27.5944 39.992L27.8184 39.44C27.9678 39.536 28.1251 39.6187 28.2904 39.688C28.4558 39.7627 28.6238 39.816 28.7944 39.848C28.9704 39.8853 29.1438 39.904 29.3144 39.904C29.7251 39.904 30.0451 39.8 30.2744 39.592C30.5091 39.384 30.6264 39.088 30.6264 38.704V37.976H30.6104C30.5144 38.248 30.3411 38.4693 30.0904 38.64C29.8398 38.8053 29.5491 38.888 29.2184 38.888C28.8451 38.888 28.5198 38.808 28.2424 38.648C27.9651 38.4827 27.7491 38.2533 27.5944 37.96C27.4451 37.6667 27.3704 37.3227 27.3704 36.928C27.3704 36.5387 27.4451 36.1973 27.5944 35.904C27.7491 35.6107 27.9651 35.384 28.2424 35.224C28.5198 35.0587 28.8451 34.976 29.2184 34.976C29.5491 34.976 29.8398 35.0613 30.0904 35.232C30.3464 35.4027 30.5224 35.6293 30.6184 35.912H30.6264V35.048H31.2904V38.64C31.2904 39.024 31.2104 39.3547 31.0504 39.632C30.8958 39.9147 30.6718 40.1307 30.3784 40.28C30.0851 40.4347 29.7331 40.512 29.3224 40.512ZM29.3384 38.304C29.7278 38.304 30.0344 38.1787 30.2584 37.928C30.4878 37.6773 30.6024 37.344 30.6024 36.928C30.6024 36.512 30.4878 36.1813 30.2584 35.936C30.0344 35.6853 29.7278 35.56 29.3384 35.56C28.9544 35.56 28.6478 35.6853 28.4184 35.936C28.1944 36.1813 28.0824 36.512 28.0824 36.928C28.0824 37.344 28.1944 37.6773 28.4184 37.928C28.6478 38.1787 28.9544 38.304 29.3384 38.304ZM35.0664 39V33.36H38.7144V33.984H35.7784V35.864H38.5544V36.48H35.7784V39H35.0664ZM41.3461 39.072C40.9461 39.072 40.5994 38.9867 40.3061 38.816C40.0127 38.6453 39.7861 38.408 39.6261 38.104C39.4661 37.7947 39.3861 37.432 39.3861 37.016C39.3861 36.6053 39.4661 36.248 39.6261 35.944C39.7861 35.6347 40.0127 35.3973 40.3061 35.232C40.5994 35.0613 40.9461 34.976 41.3461 34.976C41.7461 34.976 42.0901 35.0613 42.3781 35.232C42.6714 35.3973 42.8981 35.6347 43.0581 35.944C43.2181 36.248 43.2981 36.6053 43.2981 37.016C43.2981 37.432 43.2181 37.7947 43.0581 38.104C42.9034 38.408 42.6794 38.6453 42.3861 38.816C42.0927 38.9867 41.7461 39.072 41.3461 39.072ZM41.3381 38.472C41.7274 38.472 42.0341 38.3413 42.2581 38.08C42.4821 37.8187 42.5941 37.464 42.5941 37.016C42.5941 36.568 42.4821 36.216 42.2581 35.96C42.0394 35.704 41.7354 35.576 41.3461 35.576C40.9567 35.576 40.6501 35.704 40.4261 35.96C40.2021 36.216 40.0901 36.568 40.0901 37.016C40.0901 37.464 40.2021 37.8187 40.4261 38.08C40.6554 38.3413 40.9594 38.472 41.3381 38.472ZM46.2133 39.072C45.8133 39.072 45.4666 38.9867 45.1733 38.816C44.8799 38.6453 44.6533 38.408 44.4933 38.104C44.3333 37.7947 44.2533 37.432 44.2533 37.016C44.2533 36.6053 44.3333 36.248 44.4933 35.944C44.6533 35.6347 44.8799 35.3973 45.1733 35.232C45.4666 35.0613 45.8133 34.976 46.2133 34.976C46.6133 34.976 46.9573 35.0613 47.2453 35.232C47.5386 35.3973 47.7653 35.6347 47.9253 35.944C48.0853 36.248 48.1653 36.6053 48.1653 37.016C48.1653 37.432 48.0853 37.7947 47.9253 38.104C47.7706 38.408 47.5466 38.6453 47.2533 38.816C46.9599 38.9867 46.6133 39.072 46.2133 39.072ZM46.2053 38.472C46.5946 38.472 46.9013 38.3413 47.1253 38.08C47.3493 37.8187 47.4613 37.464 47.4613 37.016C47.4613 36.568 47.3493 36.216 47.1253 35.96C46.9066 35.704 46.6026 35.576 46.2133 35.576C45.8239 35.576 45.5173 35.704 45.2933 35.96C45.0693 36.216 44.9572 36.568 44.9572 37.016C44.9572 37.464 45.0693 37.8187 45.2933 38.08C45.5226 38.3413 45.8266 38.472 46.2053 38.472ZM50.9364 39.072C50.5738 39.072 50.2564 38.9867 49.9844 38.816C49.7124 38.6453 49.4991 38.4053 49.3444 38.096C49.1951 37.7867 49.1204 37.4293 49.1204 37.024C49.1204 36.6133 49.1951 36.256 49.3444 35.952C49.4938 35.6427 49.7044 35.4027 49.9764 35.232C50.2484 35.0613 50.5658 34.976 50.9284 34.976C51.2698 34.976 51.5604 35.056 51.8004 35.216C52.0458 35.376 52.2218 35.5947 52.3284 35.872V33.36H53.0404V39H52.3844V38.128C52.2671 38.4267 52.0831 38.6587 51.8324 38.824C51.5818 38.9893 51.2831 39.072 50.9364 39.072ZM51.0884 38.488C51.4778 38.488 51.7818 38.3573 52.0004 38.096C52.2244 37.8347 52.3364 37.4773 52.3364 37.024C52.3364 36.5707 52.2244 36.2133 52.0004 35.952C51.7818 35.6907 51.4778 35.56 51.0884 35.56C50.7044 35.56 50.3978 35.6907 50.1684 35.952C49.9444 36.2133 49.8324 36.5707 49.8324 37.024C49.8324 37.4773 49.9444 37.8347 50.1684 38.096C50.3924 38.3573 50.6991 38.488 51.0884 38.488ZM56.8164 39V33.36H60.4644V33.984H57.5284V35.864H60.3044V36.48H57.5284V39H56.8164ZM61.4464 39V35.048H62.0944V35.96H62.1024C62.1984 35.6667 62.3664 35.4373 62.6064 35.272C62.8464 35.1013 63.1397 35.0053 63.4864 34.984L63.8464 34.968L63.9104 35.616L63.3344 35.664C62.9664 35.696 62.6784 35.8187 62.4704 36.032C62.2624 36.24 62.1584 36.5013 62.1584 36.816V39H61.4464ZM66.6473 39.072C66.2046 39.072 65.8206 38.992 65.4953 38.832C65.1753 38.6667 64.9299 38.432 64.7593 38.128C64.5886 37.8187 64.5033 37.4507 64.5033 37.024C64.5033 36.624 64.5833 36.272 64.7433 35.968C64.9033 35.6587 65.1299 35.416 65.4233 35.24C65.7166 35.064 66.0659 34.976 66.4713 34.976C66.8553 34.976 67.1806 35.0587 67.4473 35.224C67.7193 35.3893 67.9246 35.6213 68.0633 35.92C68.2073 36.2187 68.2793 36.5733 68.2793 36.984V37.216H65.0393V36.72H67.8153L67.6633 36.88C67.6633 36.4427 67.5593 36.1067 67.3513 35.872C67.1486 35.6373 66.8553 35.52 66.4713 35.52C66.2206 35.52 65.9966 35.5787 65.7993 35.696C65.6073 35.808 65.4579 35.968 65.3513 36.176C65.2446 36.384 65.1913 36.6373 65.1913 36.936V37.016C65.1913 37.336 65.2499 37.6053 65.3673 37.824C65.4846 38.0427 65.6526 38.208 65.8713 38.32C66.0899 38.432 66.3513 38.488 66.6553 38.488C66.8739 38.488 67.0953 38.4587 67.3193 38.4C67.5486 38.336 67.7619 38.224 67.9593 38.064L68.1993 38.576C67.9966 38.7467 67.7539 38.872 67.4713 38.952C67.1939 39.032 66.9193 39.072 66.6473 39.072ZM70.9102 39.072C70.6915 39.072 70.4755 39.0507 70.2622 39.008C70.0542 38.9707 69.8595 38.9173 69.6782 38.848C69.5022 38.7733 69.3502 38.6827 69.2222 38.576L69.4542 38.072C69.5875 38.1733 69.7342 38.256 69.8942 38.32C70.0595 38.384 70.2275 38.432 70.3982 38.464C70.5742 38.4907 70.7422 38.504 70.9022 38.504C71.2329 38.504 71.4862 38.4533 71.6622 38.352C71.8435 38.2507 71.9342 38.1093 71.9342 37.928C71.9342 37.7733 71.8809 37.656 71.7742 37.576C71.6729 37.4907 71.5022 37.4267 71.2622 37.384L70.4382 37.24C70.0702 37.1707 69.7929 37.0453 69.6062 36.864C69.4249 36.6827 69.3342 36.4453 69.3342 36.152C69.3342 35.9173 69.3982 35.712 69.5262 35.536C69.6595 35.36 69.8489 35.224 70.0942 35.128C70.3395 35.0267 70.6329 34.976 70.9742 34.976C71.1609 34.976 71.3502 34.9947 71.5422 35.032C71.7395 35.0693 71.9209 35.1253 72.0862 35.2C72.2569 35.2693 72.3955 35.3573 72.5022 35.464L72.2622 35.968C72.1555 35.8667 72.0275 35.7867 71.8782 35.728C71.7342 35.664 71.5822 35.6187 71.4222 35.592C71.2675 35.56 71.1155 35.544 70.9662 35.544C70.6569 35.544 70.4169 35.5973 70.2462 35.704C70.0755 35.8053 69.9902 35.9493 69.9902 36.136C69.9902 36.2853 70.0382 36.4027 70.1342 36.488C70.2355 36.5733 70.3982 36.6373 70.6222 36.68L71.4222 36.824C71.8169 36.8987 72.1102 37.024 72.3022 37.2C72.4942 37.3707 72.5902 37.608 72.5902 37.912C72.5902 38.1467 72.5209 38.352 72.3822 38.528C72.2435 38.6987 72.0489 38.832 71.7982 38.928C71.5475 39.024 71.2515 39.072 70.9102 39.072ZM73.7667 39V33.36H74.4547V35.888C74.572 35.6053 74.756 35.384 75.0067 35.224C75.2627 35.0587 75.5507 34.976 75.8707 34.976C76.196 34.976 76.468 35.0347 76.6867 35.152C76.9054 35.264 77.068 35.44 77.1747 35.68C77.2867 35.9147 77.3427 36.208 77.3427 36.56V39H76.6307V36.6C76.6307 36.3867 76.5987 36.2053 76.5347 36.056C76.476 35.9067 76.38 35.792 76.2467 35.712C76.1134 35.6267 75.9347 35.584 75.7107 35.584C75.476 35.584 75.2654 35.6373 75.0787 35.744C74.892 35.8507 74.7454 35.9947 74.6387 36.176C74.532 36.3573 74.4787 36.56 74.4787 36.784V39H73.7667ZM78.6151 39V38.12H79.5271V39H78.6151Z" fill="black"/>
</svg>
