<svg width="138" height="40" viewBox="0 0 138 40" fill="none" xmlns="http://www.w3.org/2000/svg">
<path d="M0.832 6V0.36H1.544V6H0.832ZM3.087 6V2.048H3.751V2.904C3.879 2.61067 4.071 2.384 4.327 2.224C4.583 2.05867 4.871 1.976 5.191 1.976C5.51633 1.976 5.78833 2.03467 6.007 2.152C6.22567 2.264 6.38833 2.44 6.495 2.68C6.607 2.91467 6.663 3.208 6.663 3.56V6H5.951V3.6C5.951 3.38667 5.92167 3.20533 5.863 3.056C5.80433 2.90667 5.70567 2.792 5.567 2.712C5.43367 2.62667 5.255 2.584 5.031 2.584C4.79633 2.584 4.583 2.63733 4.391 2.744C4.20433 2.85067 4.05767 2.99467 3.951 3.176C3.84967 3.35733 3.799 3.56 3.799 3.784V6H3.087ZM9.64738 6.072C9.28471 6.072 8.96738 5.98667 8.69538 5.816C8.42338 5.64533 8.21004 5.40533 8.05538 5.096C7.90604 4.78667 7.83138 4.42933 7.83138 4.024C7.83138 3.61333 7.90604 3.256 8.05538 2.952C8.20471 2.64267 8.41538 2.40267 8.68738 2.232C8.95938 2.06133 9.27671 1.976 9.63938 1.976C9.98071 1.976 10.2714 2.056 10.5114 2.216C10.7567 2.376 10.9327 2.59467 11.0394 2.872V0.36H11.7514V6H11.0954V5.128C10.978 5.42667 10.794 5.65867 10.5434 5.824C10.2927 5.98933 9.99404 6.072 9.64738 6.072ZM9.79938 5.488C10.1887 5.488 10.4927 5.35733 10.7114 5.096C10.9354 4.83467 11.0474 4.47733 11.0474 4.024C11.0474 3.57067 10.9354 3.21333 10.7114 2.952C10.4927 2.69067 10.1887 2.56 9.79938 2.56C9.41538 2.56 9.10871 2.69067 8.87938 2.952C8.65538 3.21333 8.54338 3.57067 8.54338 4.024C8.54338 4.47733 8.65538 4.83467 8.87938 5.096C9.10338 5.35733 9.41004 5.488 9.79938 5.488ZM13.0929 1.096V0.304H13.9569V1.096H13.0929ZM13.1729 6V2.048H13.8849V6H13.1729ZM16.6258 6.072C16.3431 6.072 16.0898 6.02133 15.8658 5.92C15.6418 5.81333 15.4658 5.66933 15.3378 5.488C15.2098 5.30667 15.1458 5.104 15.1458 4.88C15.1458 4.576 15.2311 4.33867 15.4018 4.168C15.5724 3.992 15.8338 3.86667 16.1858 3.792C16.5431 3.71733 16.9991 3.68 17.5538 3.68H18.1218V4.168H17.5858C17.2764 4.168 17.0124 4.17867 16.7938 4.2C16.5751 4.216 16.3964 4.25067 16.2578 4.304C16.1191 4.352 16.0178 4.41867 15.9538 4.504C15.8898 4.58933 15.8578 4.70133 15.8578 4.84C15.8578 5.05333 15.9404 5.21867 16.1058 5.336C16.2764 5.45333 16.4924 5.512 16.7538 5.512C16.9831 5.512 17.1911 5.46133 17.3778 5.36C17.5698 5.25333 17.7218 5.112 17.8338 4.936C17.9511 4.76 18.0098 4.56533 18.0098 4.352V3.448C18.0098 3.13333 17.9218 2.90667 17.7458 2.768C17.5698 2.624 17.3084 2.552 16.9618 2.552C16.7271 2.552 16.4924 2.584 16.2578 2.648C16.0284 2.712 15.7911 2.81867 15.5458 2.968L15.3138 2.44C15.4791 2.33867 15.6551 2.256 15.8418 2.192C16.0284 2.12267 16.2231 2.06933 16.4258 2.032C16.6284 1.99467 16.8311 1.976 17.0338 1.976C17.3751 1.976 17.6684 2.02933 17.9138 2.136C18.1644 2.24267 18.3564 2.408 18.4898 2.632C18.6284 2.856 18.6978 3.14933 18.6978 3.512V6H18.0738V5.136C17.9991 5.30133 17.8951 5.456 17.7618 5.6C17.6284 5.744 17.4658 5.85867 17.2738 5.944C17.0871 6.02933 16.8711 6.072 16.6258 6.072ZM20.234 2.368L19.882 2.088C19.978 1.99733 20.0527 1.896 20.106 1.784C20.1593 1.66667 20.1993 1.54933 20.226 1.432C20.2527 1.30933 20.2687 1.19467 20.274 1.088L20.426 1.216H19.826V0.36H20.746V0.992C20.746 1.152 20.7273 1.31467 20.69 1.48C20.658 1.64533 20.6047 1.80533 20.53 1.96C20.4553 2.10933 20.3567 2.24533 20.234 2.368ZM23.2461 6.072C23.0275 6.072 22.8115 6.05067 22.5981 6.008C22.3901 5.97067 22.1955 5.91733 22.0141 5.848C21.8381 5.77333 21.6861 5.68267 21.5581 5.576L21.7901 5.072C21.9235 5.17333 22.0701 5.256 22.2301 5.32C22.3955 5.384 22.5635 5.432 22.7341 5.464C22.9101 5.49067 23.0781 5.504 23.2381 5.504C23.5688 5.504 23.8221 5.45333 23.9981 5.352C24.1795 5.25067 24.2701 5.10933 24.2701 4.928C24.2701 4.77333 24.2168 4.656 24.1101 4.576C24.0088 4.49067 23.8381 4.42667 23.5981 4.384L22.7741 4.24C22.4061 4.17067 22.1288 4.04533 21.9421 3.864C21.7608 3.68267 21.6701 3.44533 21.6701 3.152C21.6701 2.91733 21.7341 2.712 21.8621 2.536C21.9955 2.36 22.1848 2.224 22.4301 2.128C22.6755 2.02667 22.9688 1.976 23.3101 1.976C23.4968 1.976 23.6861 1.99467 23.8781 2.032C24.0755 2.06933 24.2568 2.12533 24.4221 2.2C24.5928 2.26933 24.7315 2.35733 24.8381 2.464L24.5981 2.968C24.4915 2.86667 24.3635 2.78667 24.2141 2.728C24.0701 2.664 23.9181 2.61867 23.7581 2.592C23.6035 2.56 23.4515 2.544 23.3021 2.544C22.9928 2.544 22.7528 2.59733 22.5821 2.704C22.4115 2.80533 22.3261 2.94933 22.3261 3.136C22.3261 3.28533 22.3741 3.40267 22.4701 3.488C22.5715 3.57333 22.7341 3.63733 22.9581 3.68L23.7581 3.824C24.1528 3.89867 24.4461 4.024 24.6381 4.2C24.8301 4.37067 24.9261 4.608 24.9261 4.912C24.9261 5.14667 24.8568 5.352 24.7181 5.528C24.5795 5.69867 24.3848 5.832 24.1341 5.928C23.8835 6.024 23.5875 6.072 23.2461 6.072ZM28.457 6V0.36H32.105V0.984H29.169V2.864H31.945V3.48H29.169V6H28.457ZM33.0851 1.096V0.304H33.9491V1.096H33.0851ZM33.1651 6V2.048H33.8771V6H33.1651ZM35.2979 6V2.048H35.9459V2.96H35.9539C36.0499 2.66667 36.2179 2.43733 36.4579 2.272C36.6979 2.10133 36.9913 2.00533 37.3379 1.984L37.6979 1.968L37.7619 2.616L37.1859 2.664C36.8179 2.696 36.5299 2.81867 36.3219 3.032C36.1139 3.24 36.0099 3.50133 36.0099 3.816V6H35.2979ZM40.0586 6.072C39.84 6.072 39.624 6.05067 39.4106 6.008C39.2026 5.97067 39.008 5.91733 38.8266 5.848C38.6506 5.77333 38.4986 5.68267 38.3706 5.576L38.6026 5.072C38.736 5.17333 38.8826 5.256 39.0426 5.32C39.208 5.384 39.376 5.432 39.5466 5.464C39.7226 5.49067 39.8906 5.504 40.0506 5.504C40.3813 5.504 40.6346 5.45333 40.8106 5.352C40.992 5.25067 41.0826 5.10933 41.0826 4.928C41.0826 4.77333 41.0293 4.656 40.9226 4.576C40.8213 4.49067 40.6506 4.42667 40.4106 4.384L39.5866 4.24C39.2186 4.17067 38.9413 4.04533 38.7546 3.864C38.5733 3.68267 38.4826 3.44533 38.4826 3.152C38.4826 2.91733 38.5466 2.712 38.6746 2.536C38.808 2.36 38.9973 2.224 39.2426 2.128C39.488 2.02667 39.7813 1.976 40.1226 1.976C40.3093 1.976 40.4986 1.99467 40.6906 2.032C40.888 2.06933 41.0693 2.12533 41.2346 2.2C41.4053 2.26933 41.544 2.35733 41.6506 2.464L41.4106 2.968C41.304 2.86667 41.176 2.78667 41.0266 2.728C40.8826 2.664 40.7306 2.61867 40.5706 2.592C40.416 2.56 40.264 2.544 40.1146 2.544C39.8053 2.544 39.5653 2.59733 39.3946 2.704C39.224 2.80533 39.1386 2.94933 39.1386 3.136C39.1386 3.28533 39.1866 3.40267 39.2826 3.488C39.384 3.57333 39.5466 3.63733 39.7706 3.68L40.5706 3.824C40.9653 3.89867 41.2586 4.024 41.4506 4.2C41.6426 4.37067 41.7386 4.608 41.7386 4.912C41.7386 5.14667 41.6693 5.352 41.5306 5.528C41.392 5.69867 41.1973 5.832 40.9466 5.928C40.696 6.024 40.4 6.072 40.0586 6.072ZM44.5401 6.072C44.0654 6.072 43.7054 5.94667 43.4601 5.696C43.2201 5.44533 43.1001 5.088 43.1001 4.624V2.632H42.3001V2.048H43.1241V0.872H43.8121V2.048H45.2281V2.632H43.8121V4.56C43.8121 4.864 43.8787 5.09067 44.0121 5.24C44.1507 5.384 44.3614 5.456 44.6441 5.456C44.7561 5.456 44.8627 5.44533 44.9641 5.424C45.0707 5.40267 45.1721 5.37067 45.2681 5.328L45.3801 5.888C45.2734 5.94667 45.1427 5.992 44.9881 6.024C44.8387 6.056 44.6894 6.072 44.5401 6.072ZM48.6304 6L51.3904 0.648L51.4224 0.992H48.2464V0.36H52.0144V0.896L49.4064 6H48.6304ZM54.9953 6.072C54.7499 6.072 54.5126 6.04533 54.2833 5.992C54.0593 5.93867 53.8486 5.86133 53.6513 5.76C53.4539 5.65333 53.2779 5.52533 53.1233 5.376L53.4033 4.816C53.6486 5.04 53.8993 5.20267 54.1553 5.304C54.4166 5.4 54.6966 5.448 54.9953 5.448C55.3899 5.448 55.6966 5.34667 55.9153 5.144C56.1393 4.936 56.2513 4.64533 56.2513 4.272C56.2513 3.904 56.1473 3.61067 55.9393 3.392C55.7313 3.17333 55.4433 3.064 55.0753 3.064C54.8299 3.064 54.6059 3.11467 54.4033 3.216C54.2059 3.312 54.0219 3.47467 53.8513 3.704H53.2913V0.36H56.6673V0.976H53.9393V3.096H53.9073C54.0353 2.904 54.2113 2.74933 54.4353 2.632C54.6593 2.50933 54.9099 2.448 55.1873 2.448C55.5499 2.448 55.8619 2.52533 56.1233 2.68C56.3846 2.82933 56.5846 3.03733 56.7233 3.304C56.8673 3.57067 56.9392 3.88267 56.9392 4.24C56.9392 4.61867 56.8593 4.94667 56.6993 5.224C56.5393 5.496 56.3153 5.70667 56.0273 5.856C55.7393 6 55.3953 6.072 54.9953 6.072ZM59.7281 6.072C59.2961 6.072 58.9308 5.96267 58.6321 5.744C58.3335 5.52 58.1068 5.19467 57.9521 4.768C57.8028 4.336 57.7281 3.80533 57.7281 3.176C57.7281 2.54667 57.8028 2.01867 57.9521 1.592C58.1068 1.16533 58.3335 0.842666 58.6321 0.624C58.9308 0.4 59.2961 0.288 59.7281 0.288C60.1708 0.288 60.5388 0.397333 60.8321 0.616C61.1255 0.834666 61.3468 1.15733 61.4961 1.584C61.6508 2.01067 61.7281 2.53867 61.7281 3.168C61.7281 3.79733 61.6508 4.328 61.4961 4.76C61.3468 5.192 61.1228 5.52 60.8241 5.744C60.5255 5.96267 60.1601 6.072 59.7281 6.072ZM59.7281 5.448C60.1655 5.448 60.4908 5.264 60.7041 4.896C60.9175 4.528 61.0241 3.952 61.0241 3.168C61.0241 2.38933 60.9175 1.81867 60.7041 1.456C60.4961 1.09333 60.1735 0.912 59.7361 0.912C59.2935 0.912 58.9655 1.096 58.7521 1.464C58.5388 1.82667 58.4321 2.39733 58.4321 3.176C58.4321 3.94933 58.5388 4.52267 58.7521 4.896C58.9655 5.264 59.2908 5.448 59.7281 5.448ZM62.853 6V2.048H63.509V2.912C63.5783 2.736 63.6743 2.57867 63.797 2.44C63.925 2.296 64.077 2.184 64.253 2.104C64.4343 2.01867 64.6317 1.976 64.845 1.976C65.1917 1.976 65.477 2.06133 65.701 2.232C65.925 2.40267 66.0637 2.62667 66.117 2.904H66.109C66.2157 2.64267 66.3837 2.424 66.613 2.248C66.8477 2.06667 67.141 1.976 67.493 1.976C67.7917 1.976 68.045 2.03467 68.253 2.152C68.461 2.264 68.6183 2.43733 68.725 2.672C68.8317 2.90667 68.885 3.20267 68.885 3.56V6H68.181V3.608C68.181 3.26667 68.1197 3.01067 67.997 2.84C67.8743 2.66933 67.6557 2.584 67.341 2.584C67.1063 2.584 66.9037 2.63733 66.733 2.744C66.5677 2.84533 66.4397 2.98933 66.349 3.176C66.2637 3.35733 66.221 3.56267 66.221 3.792V6H65.517V3.608C65.517 3.272 65.4477 3.01867 65.309 2.848C65.1703 2.672 64.9597 2.584 64.677 2.584C64.4477 2.584 64.2477 2.64267 64.077 2.76C63.9117 2.872 63.7837 3.01867 63.693 3.2C63.6023 3.38133 63.557 3.57333 63.557 3.776V6H62.853ZM71.5136 6.072C71.1296 6.072 70.8336 5.96 70.6256 5.736C70.4176 5.512 70.3136 5.19733 70.3136 4.792V0.36H71.0256V4.72C71.0256 4.88 71.0496 5.01867 71.0976 5.136C71.1456 5.248 71.2149 5.33333 71.3056 5.392C71.3962 5.45067 71.5056 5.48 71.6336 5.48C71.7136 5.48 71.7882 5.47733 71.8576 5.472C71.9322 5.46133 72.0069 5.44533 72.0816 5.424L72.0976 5.984C72.0069 6.016 71.9136 6.03733 71.8176 6.048C71.7269 6.064 71.6256 6.072 71.5136 6.072ZM76.6299 6V0.992H74.5979V0.36H79.3739V0.992H77.3419V6H76.6299ZM80.9617 6.072C80.679 6.072 80.4257 6.02133 80.2017 5.92C79.9777 5.81333 79.8017 5.66933 79.6737 5.488C79.5457 5.30667 79.4817 5.104 79.4817 4.88C79.4817 4.576 79.567 4.33867 79.7377 4.168C79.9084 3.992 80.1697 3.86667 80.5217 3.792C80.879 3.71733 81.335 3.68 81.8897 3.68H82.4577V4.168H81.9217C81.6124 4.168 81.3484 4.17867 81.1297 4.2C80.911 4.216 80.7324 4.25067 80.5937 4.304C80.455 4.352 80.3537 4.41867 80.2897 4.504C80.2257 4.58933 80.1937 4.70133 80.1937 4.84C80.1937 5.05333 80.2764 5.21867 80.4417 5.336C80.6124 5.45333 80.8284 5.512 81.0897 5.512C81.319 5.512 81.527 5.46133 81.7137 5.36C81.9057 5.25333 82.0577 5.112 82.1697 4.936C82.287 4.76 82.3457 4.56533 82.3457 4.352V3.448C82.3457 3.13333 82.2577 2.90667 82.0817 2.768C81.9057 2.624 81.6444 2.552 81.2977 2.552C81.063 2.552 80.8284 2.584 80.5937 2.648C80.3644 2.712 80.127 2.81867 79.8817 2.968L79.6497 2.44C79.815 2.33867 79.991 2.256 80.1777 2.192C80.3644 2.12267 80.559 2.06933 80.7617 2.032C80.9644 1.99467 81.167 1.976 81.3697 1.976C81.711 1.976 82.0044 2.02933 82.2497 2.136C82.5004 2.24267 82.6924 2.408 82.8257 2.632C82.9644 2.856 83.0337 3.14933 83.0337 3.512V6H82.4097V5.136C82.335 5.30133 82.231 5.456 82.0977 5.6C81.9644 5.744 81.8017 5.85867 81.6097 5.944C81.423 6.02933 81.207 6.072 80.9617 6.072ZM84.4624 6V2.048H85.1184V2.912C85.1877 2.736 85.2837 2.57867 85.4064 2.44C85.5344 2.296 85.6864 2.184 85.8624 2.104C86.0437 2.01867 86.241 1.976 86.4544 1.976C86.801 1.976 87.0864 2.06133 87.3104 2.232C87.5344 2.40267 87.673 2.62667 87.7264 2.904H87.7184C87.825 2.64267 87.993 2.424 88.2224 2.248C88.457 2.06667 88.7504 1.976 89.1024 1.976C89.401 1.976 89.6544 2.03467 89.8624 2.152C90.0704 2.264 90.2277 2.43733 90.3344 2.672C90.441 2.90667 90.4944 3.20267 90.4944 3.56V6H89.7904V3.608C89.7904 3.26667 89.729 3.01067 89.6064 2.84C89.4837 2.66933 89.265 2.584 88.9504 2.584C88.7157 2.584 88.513 2.63733 88.3424 2.744C88.177 2.84533 88.049 2.98933 87.9584 3.176C87.873 3.35733 87.8304 3.56267 87.8304 3.792V6H87.1264V3.608C87.1264 3.272 87.057 3.01867 86.9184 2.848C86.7797 2.672 86.569 2.584 86.2864 2.584C86.057 2.584 85.857 2.64267 85.6864 2.76C85.521 2.872 85.393 3.01867 85.3024 3.2C85.2117 3.38133 85.1664 3.57333 85.1664 3.776V6H84.4624ZM91.9229 7.44V2.04H92.5789V2.912C92.6963 2.61333 92.8803 2.384 93.1309 2.224C93.3869 2.05867 93.6856 1.976 94.0269 1.976C94.3949 1.976 94.7149 2.06133 94.9869 2.232C95.2589 2.40267 95.4696 2.64 95.6189 2.944C95.7683 3.248 95.8429 3.608 95.8429 4.024C95.8429 4.424 95.7683 4.77867 95.6189 5.088C95.4749 5.39733 95.2669 5.64 94.9949 5.816C94.7229 5.98667 94.4029 6.072 94.0349 6.072C93.6989 6.072 93.4083 5.992 93.1629 5.832C92.9229 5.66667 92.7469 5.448 92.6349 5.176V7.44H91.9229ZM93.8749 5.488C94.2643 5.488 94.5709 5.35733 94.7949 5.096C95.0189 4.82933 95.1309 4.46933 95.1309 4.016C95.1309 3.56267 95.0189 3.208 94.7949 2.952C94.5709 2.69067 94.2643 2.56 93.8749 2.56C93.4909 2.56 93.1869 2.69067 92.9629 2.952C92.7389 3.208 92.6269 3.56267 92.6269 4.016C92.6269 4.46933 92.7389 4.82933 92.9629 5.096C93.1869 5.35733 93.4909 5.488 93.8749 5.488ZM98.9285 6.072C98.4858 6.072 98.1018 5.992 97.7765 5.832C97.4565 5.66667 97.2112 5.432 97.0405 5.128C96.8698 4.81867 96.7845 4.45067 96.7845 4.024C96.7845 3.624 96.8645 3.272 97.0245 2.968C97.1845 2.65867 97.4112 2.416 97.7045 2.24C97.9978 2.064 98.3472 1.976 98.7525 1.976C99.1365 1.976 99.4618 2.05867 99.7285 2.224C100.001 2.38933 100.206 2.62133 100.345 2.92C100.489 3.21867 100.561 3.57333 100.561 3.984V4.216H97.3205V3.72H100.097L99.9445 3.88C99.9445 3.44267 99.8405 3.10667 99.6325 2.872C99.4298 2.63733 99.1365 2.52 98.7525 2.52C98.5018 2.52 98.2778 2.57867 98.0805 2.696C97.8885 2.808 97.7392 2.968 97.6325 3.176C97.5258 3.384 97.4725 3.63733 97.4725 3.936V4.016C97.4725 4.336 97.5312 4.60533 97.6485 4.824C97.7658 5.04267 97.9338 5.208 98.1525 5.32C98.3712 5.432 98.6325 5.488 98.9365 5.488C99.1552 5.488 99.3765 5.45867 99.6005 5.4C99.8298 5.336 100.043 5.224 100.241 5.064L100.481 5.576C100.278 5.74667 100.035 5.872 99.7525 5.952C99.4752 6.032 99.2005 6.072 98.9285 6.072ZM101.735 6V2.048H102.383V2.96H102.391C102.487 2.66667 102.655 2.43733 102.895 2.272C103.135 2.10133 103.429 2.00533 103.775 1.984L104.135 1.968L104.199 2.616L103.623 2.664C103.255 2.696 102.967 2.81867 102.759 3.032C102.551 3.24 102.447 3.50133 102.447 3.816V6H101.735ZM104.756 4.144V3.568H106.996V4.144H104.756ZM108.402 6V0.36H112.074V0.984H109.106V2.832H111.914V3.456H109.106V5.376H112.074V6H108.402ZM114.426 6L112.77 2.048H113.53L114.818 5.296H114.778L116.066 2.048H116.802L115.138 6H114.426ZM117.601 1.096V0.304H118.465V1.096H117.601ZM117.681 6V2.048H118.393V6H117.681ZM121.39 6.072C121.027 6.072 120.71 5.98667 120.438 5.816C120.166 5.64533 119.952 5.40533 119.798 5.096C119.648 4.78667 119.574 4.42933 119.574 4.024C119.574 3.61333 119.648 3.256 119.798 2.952C119.947 2.64267 120.158 2.40267 120.43 2.232C120.702 2.06133 121.019 1.976 121.382 1.976C121.723 1.976 122.014 2.056 122.254 2.216C122.499 2.376 122.675 2.59467 122.782 2.872V0.36H123.494V6H122.838V5.128C122.72 5.42667 122.536 5.65867 122.286 5.824C122.035 5.98933 121.736 6.072 121.39 6.072ZM121.542 5.488C121.931 5.488 122.235 5.35733 122.454 5.096C122.678 4.83467 122.79 4.47733 122.79 4.024C122.79 3.57067 122.678 3.21333 122.454 2.952C122.235 2.69067 121.931 2.56 121.542 2.56C121.158 2.56 120.851 2.69067 120.622 2.952C120.398 3.21333 120.286 3.57067 120.286 4.024C120.286 4.47733 120.398 4.83467 120.622 5.096C120.846 5.35733 121.152 5.488 121.542 5.488ZM126.819 6.072C126.376 6.072 125.992 5.992 125.667 5.832C125.347 5.66667 125.102 5.432 124.931 5.128C124.76 4.81867 124.675 4.45067 124.675 4.024C124.675 3.624 124.755 3.272 124.915 2.968C125.075 2.65867 125.302 2.416 125.595 2.24C125.888 2.064 126.238 1.976 126.643 1.976C127.027 1.976 127.352 2.05867 127.619 2.224C127.891 2.38933 128.096 2.62133 128.235 2.92C128.379 3.21867 128.451 3.57333 128.451 3.984V4.216H125.211V3.72H127.987L127.835 3.88C127.835 3.44267 127.731 3.10667 127.523 2.872C127.32 2.63733 127.027 2.52 126.643 2.52C126.392 2.52 126.168 2.57867 125.971 2.696C125.779 2.808 125.63 2.968 125.523 3.176C125.416 3.384 125.363 3.63733 125.363 3.936V4.016C125.363 4.336 125.422 4.60533 125.539 4.824C125.656 5.04267 125.824 5.208 126.043 5.32C126.262 5.432 126.523 5.488 126.827 5.488C127.046 5.488 127.267 5.45867 127.491 5.4C127.72 5.336 127.934 5.224 128.131 5.064L128.371 5.576C128.168 5.74667 127.926 5.872 127.643 5.952C127.366 6.032 127.091 6.072 126.819 6.072ZM129.626 6V2.048H130.29V2.904C130.418 2.61067 130.61 2.384 130.866 2.224C131.122 2.05867 131.41 1.976 131.73 1.976C132.055 1.976 132.327 2.03467 132.546 2.152C132.765 2.264 132.927 2.44 133.034 2.68C133.146 2.91467 133.202 3.208 133.202 3.56V6H132.49V3.6C132.49 3.38667 132.461 3.20533 132.402 3.056C132.343 2.90667 132.245 2.792 132.106 2.712C131.973 2.62667 131.794 2.584 131.57 2.584C131.335 2.584 131.122 2.63733 130.93 2.744C130.743 2.85067 130.597 2.99467 130.49 3.176C130.389 3.35733 130.338 3.56 130.338 3.784V6H129.626ZM136.274 6.072C135.8 6.072 135.44 5.94667 135.194 5.696C134.954 5.44533 134.834 5.088 134.834 4.624V2.632H134.034V2.048H134.858V0.872H135.546V2.048H136.962V2.632H135.546V4.56C135.546 4.864 135.613 5.09067 135.746 5.24C135.885 5.384 136.096 5.456 136.378 5.456C136.49 5.456 136.597 5.44533 136.698 5.424C136.805 5.40267 136.906 5.37067 137.002 5.328L137.114 5.888C137.008 5.94667 136.877 5.992 136.722 6.024C136.573 6.056 136.424 6.072 136.274 6.072ZM3.24 17.072C2.70133 17.072 2.232 16.9573 1.832 16.728C1.43733 16.4933 1.13333 16.16 0.92 15.728C0.706667 15.2907 0.6 14.7733 0.6 14.176C0.6 13.5787 0.706667 13.064 0.92 12.632C1.13333 12.2 1.43733 11.8693 1.832 11.64C2.22667 11.4053 2.696 11.288 3.24 11.288C3.63467 11.288 3.99467 11.3493 4.32 11.472C4.64533 11.5893 4.92533 11.7627 5.16 11.992L4.88 12.552C4.63467 12.3333 4.38133 12.176 4.12 12.08C3.864 11.984 3.576 11.936 3.256 11.936C2.65867 11.936 2.18933 12.128 1.848 12.512C1.512 12.8907 1.344 13.4453 1.344 14.176C1.344 14.9013 1.512 15.4587 1.848 15.848C2.184 16.232 2.65333 16.424 3.256 16.424C3.576 16.424 3.864 16.376 4.12 16.28C4.38133 16.184 4.63467 16.0267 4.88 15.808L5.16 16.368C4.92533 16.5973 4.64533 16.7733 4.32 16.896C3.99467 17.0133 3.63467 17.072 3.24 17.072ZM7.79138 17.072C7.39138 17.072 7.04471 16.9867 6.75138 16.816C6.45804 16.6453 6.23138 16.408 6.07138 16.104C5.91138 15.7947 5.83138 15.432 5.83138 15.016C5.83138 14.6053 5.91138 14.248 6.07138 13.944C6.23138 13.6347 6.45804 13.3973 6.75138 13.232C7.04471 13.0613 7.39138 12.976 7.79138 12.976C8.19138 12.976 8.53538 13.0613 8.82338 13.232C9.11671 13.3973 9.34338 13.6347 9.50338 13.944C9.66338 14.248 9.74338 14.6053 9.74338 15.016C9.74338 15.432 9.66338 15.7947 9.50338 16.104C9.34871 16.408 9.12471 16.6453 8.83138 16.816C8.53804 16.9867 8.19138 17.072 7.79138 17.072ZM7.78338 16.472C8.17271 16.472 8.47938 16.3413 8.70338 16.08C8.92738 15.8187 9.03938 15.464 9.03938 15.016C9.03938 14.568 8.92738 14.216 8.70338 13.96C8.48471 13.704 8.18071 13.576 7.79138 13.576C7.40204 13.576 7.09538 13.704 6.87138 13.96C6.64738 14.216 6.53537 14.568 6.53537 15.016C6.53537 15.464 6.64738 15.8187 6.87138 16.08C7.10071 16.3413 7.40471 16.472 7.78338 16.472ZM10.9386 17V13.048H11.6026V13.904C11.7306 13.6107 11.9226 13.384 12.1786 13.224C12.4346 13.0587 12.7226 12.976 13.0426 12.976C13.3679 12.976 13.6399 13.0347 13.8586 13.152C14.0772 13.264 14.2399 13.44 14.3466 13.68C14.4586 13.9147 14.5146 14.208 14.5146 14.56V17H13.8026V14.6C13.8026 14.3867 13.7732 14.2053 13.7146 14.056C13.6559 13.9067 13.5572 13.792 13.4186 13.712C13.2852 13.6267 13.1066 13.584 12.8826 13.584C12.6479 13.584 12.4346 13.6373 12.2426 13.744C12.0559 13.8507 11.9092 13.9947 11.8026 14.176C11.7012 14.3573 11.6506 14.56 11.6506 14.784V17H10.9386ZM17.5869 17.072C17.1123 17.072 16.7523 16.9467 16.5069 16.696C16.2669 16.4453 16.1469 16.088 16.1469 15.624V13.632H15.3469V13.048H16.1709V11.872H16.8589V13.048H18.2749V13.632H16.8589V15.56C16.8589 15.864 16.9256 16.0907 17.0589 16.24C17.1976 16.384 17.4083 16.456 17.6909 16.456C17.8029 16.456 17.9096 16.4453 18.0109 16.424C18.1176 16.4027 18.2189 16.3707 18.3149 16.328L18.4269 16.888C18.3203 16.9467 18.1896 16.992 18.0349 17.024C17.8856 17.056 17.7363 17.072 17.5869 17.072ZM20.5789 17.072C20.2962 17.072 20.0429 17.0213 19.8189 16.92C19.5949 16.8133 19.4189 16.6693 19.2909 16.488C19.1629 16.3067 19.0989 16.104 19.0989 15.88C19.0989 15.576 19.1842 15.3387 19.3549 15.168C19.5255 14.992 19.7869 14.8667 20.1389 14.792C20.4962 14.7173 20.9522 14.68 21.5069 14.68H22.0749V15.168H21.5389C21.2295 15.168 20.9655 15.1787 20.7469 15.2C20.5282 15.216 20.3495 15.2507 20.2109 15.304C20.0722 15.352 19.9709 15.4187 19.9069 15.504C19.8429 15.5893 19.8109 15.7013 19.8109 15.84C19.8109 16.0533 19.8935 16.2187 20.0589 16.336C20.2295 16.4533 20.4455 16.512 20.7069 16.512C20.9362 16.512 21.1442 16.4613 21.3309 16.36C21.5229 16.2533 21.6749 16.112 21.7869 15.936C21.9042 15.76 21.9629 15.5653 21.9629 15.352V14.448C21.9629 14.1333 21.8749 13.9067 21.6989 13.768C21.5229 13.624 21.2615 13.552 20.9149 13.552C20.6802 13.552 20.4455 13.584 20.2109 13.648C19.9815 13.712 19.7442 13.8187 19.4989 13.968L19.2669 13.44C19.4322 13.3387 19.6082 13.256 19.7949 13.192C19.9815 13.1227 20.1762 13.0693 20.3789 13.032C20.5815 12.9947 20.7842 12.976 20.9869 12.976C21.3282 12.976 21.6215 13.0293 21.8669 13.136C22.1175 13.2427 22.3095 13.408 22.4429 13.632C22.5815 13.856 22.6509 14.1493 22.6509 14.512V17H22.0269V16.136C21.9522 16.3013 21.8482 16.456 21.7149 16.6C21.5815 16.744 21.4189 16.8587 21.2269 16.944C21.0402 17.0293 20.8242 17.072 20.5789 17.072ZM23.9836 12.096V11.304H24.8476V12.096H23.9836ZM24.0636 17V13.048H24.7756V17H24.0636ZM26.1964 17V13.048H26.8604V13.904C26.9884 13.6107 27.1804 13.384 27.4364 13.224C27.6924 13.0587 27.9804 12.976 28.3004 12.976C28.6257 12.976 28.8977 13.0347 29.1164 13.152C29.335 13.264 29.4977 13.44 29.6044 13.68C29.7164 13.9147 29.7724 14.208 29.7724 14.56V17H29.0604V14.6C29.0604 14.3867 29.031 14.2053 28.9724 14.056C28.9137 13.9067 28.815 13.792 28.6764 13.712C28.543 13.6267 28.3644 13.584 28.1404 13.584C27.9057 13.584 27.6924 13.6373 27.5004 13.744C27.3137 13.8507 27.167 13.9947 27.0604 14.176C26.959 14.3573 26.9084 14.56 26.9084 14.784V17H26.1964ZM33.0848 17.072C32.6421 17.072 32.2581 16.992 31.9328 16.832C31.6128 16.6667 31.3674 16.432 31.1968 16.128C31.0261 15.8187 30.9408 15.4507 30.9408 15.024C30.9408 14.624 31.0208 14.272 31.1808 13.968C31.3408 13.6587 31.5674 13.416 31.8608 13.24C32.1541 13.064 32.5034 12.976 32.9088 12.976C33.2928 12.976 33.6181 13.0587 33.8848 13.224C34.1568 13.3893 34.3621 13.6213 34.5008 13.92C34.6448 14.2187 34.7168 14.5733 34.7168 14.984V15.216H31.4768V14.72H34.2528L34.1008 14.88C34.1008 14.4427 33.9968 14.1067 33.7888 13.872C33.5861 13.6373 33.2928 13.52 32.9088 13.52C32.6581 13.52 32.4341 13.5787 32.2368 13.696C32.0448 13.808 31.8954 13.968 31.7888 14.176C31.6821 14.384 31.6288 14.6373 31.6288 14.936V15.016C31.6288 15.336 31.6874 15.6053 31.8048 15.824C31.9221 16.0427 32.0901 16.208 32.3088 16.32C32.5274 16.432 32.7888 16.488 33.0928 16.488C33.3114 16.488 33.5328 16.4587 33.7568 16.4C33.9861 16.336 34.1994 16.224 34.3968 16.064L34.6368 16.576C34.4341 16.7467 34.1914 16.872 33.9088 16.952C33.6314 17.032 33.3568 17.072 33.0848 17.072ZM35.8917 17V13.048H36.5397V13.96H36.5477C36.6437 13.6667 36.8117 13.4373 37.0517 13.272C37.2917 13.1013 37.585 13.0053 37.9317 12.984L38.2917 12.968L38.3557 13.616L37.7797 13.664C37.4117 13.696 37.1237 13.8187 36.9157 14.032C36.7077 14.24 36.6037 14.5013 36.6037 14.816V17H35.8917ZM38.3359 15.088V14.6H46.3359V15.088H38.3359ZM47.1679 17V11.36H47.8799V13.904H47.9119L50.5919 11.36H51.4959L48.3839 14.312L48.4319 13.92L51.6879 17H50.7359L47.9119 14.352H47.8799V17H47.1679ZM54.2098 17.072C53.7671 17.072 53.3831 16.992 53.0578 16.832C52.7378 16.6667 52.4924 16.432 52.3218 16.128C52.1511 15.8187 52.0658 15.4507 52.0658 15.024C52.0658 14.624 52.1458 14.272 52.3058 13.968C52.4658 13.6587 52.6924 13.416 52.9858 13.24C53.2791 13.064 53.6284 12.976 54.0338 12.976C54.4178 12.976 54.7431 13.0587 55.0098 13.224C55.2818 13.3893 55.4871 13.6213 55.6258 13.92C55.7698 14.2187 55.8418 14.5733 55.8418 14.984V15.216H52.6018V14.72H55.3778L55.2258 14.88C55.2258 14.4427 55.1218 14.1067 54.9138 13.872C54.7111 13.6373 54.4178 13.52 54.0338 13.52C53.7831 13.52 53.5591 13.5787 53.3618 13.696C53.1698 13.808 53.0204 13.968 52.9138 14.176C52.8071 14.384 52.7538 14.6373 52.7538 14.936V15.016C52.7538 15.336 52.8124 15.6053 52.9298 15.824C53.0471 16.0427 53.2151 16.208 53.4338 16.32C53.6524 16.432 53.9138 16.488 54.2178 16.488C54.4364 16.488 54.6578 16.4587 54.8818 16.4C55.1111 16.336 55.3244 16.224 55.5218 16.064L55.7618 16.576C55.5591 16.7467 55.3164 16.872 55.0338 16.952C54.7564 17.032 54.4818 17.072 54.2098 17.072ZM58.9207 17.072C58.478 17.072 58.094 16.992 57.7687 16.832C57.4487 16.6667 57.2034 16.432 57.0327 16.128C56.862 15.8187 56.7767 15.4507 56.7767 15.024C56.7767 14.624 56.8567 14.272 57.0167 13.968C57.1767 13.6587 57.4034 13.416 57.6967 13.24C57.99 13.064 58.3394 12.976 58.7447 12.976C59.1287 12.976 59.454 13.0587 59.7207 13.224C59.9927 13.3893 60.198 13.6213 60.3367 13.92C60.4807 14.2187 60.5527 14.5733 60.5527 14.984V15.216H57.3127V14.72H60.0887L59.9367 14.88C59.9367 14.4427 59.8327 14.1067 59.6247 13.872C59.422 13.6373 59.1287 13.52 58.7447 13.52C58.494 13.52 58.27 13.5787 58.0727 13.696C57.8807 13.808 57.7314 13.968 57.6247 14.176C57.518 14.384 57.4647 14.6373 57.4647 14.936V15.016C57.4647 15.336 57.5234 15.6053 57.6407 15.824C57.758 16.0427 57.926 16.208 58.1447 16.32C58.3634 16.432 58.6247 16.488 58.9287 16.488C59.1474 16.488 59.3687 16.4587 59.5927 16.4C59.822 16.336 60.0354 16.224 60.2327 16.064L60.4727 16.576C60.27 16.7467 60.0274 16.872 59.7447 16.952C59.4674 17.032 59.1927 17.072 58.9207 17.072ZM61.7276 18.44V13.04H62.3836V13.912C62.501 13.6133 62.685 13.384 62.9356 13.224C63.1916 13.0587 63.4903 12.976 63.8316 12.976C64.1996 12.976 64.5196 13.0613 64.7916 13.232C65.0636 13.4027 65.2743 13.64 65.4236 13.944C65.573 14.248 65.6476 14.608 65.6476 15.024C65.6476 15.424 65.573 15.7787 65.4236 16.088C65.2796 16.3973 65.0716 16.64 64.7996 16.816C64.5276 16.9867 64.2076 17.072 63.8396 17.072C63.5036 17.072 63.213 16.992 62.9676 16.832C62.7276 16.6667 62.5516 16.448 62.4396 16.176V18.44H61.7276ZM63.6796 16.488C64.069 16.488 64.3756 16.3573 64.5996 16.096C64.8236 15.8293 64.9356 15.4693 64.9356 15.016C64.9356 14.5627 64.8236 14.208 64.5996 13.952C64.3756 13.6907 64.069 13.56 63.6796 13.56C63.2956 13.56 62.9916 13.6907 62.7676 13.952C62.5436 14.208 62.4316 14.5627 62.4316 15.016C62.4316 15.4693 62.5436 15.8293 62.7676 16.096C62.9916 16.3573 63.2956 16.488 63.6796 16.488ZM68.2852 17.072C68.0665 17.072 67.8505 17.0507 67.6372 17.008C67.4292 16.9707 67.2345 16.9173 67.0532 16.848C66.8772 16.7733 66.7252 16.6827 66.5972 16.576L66.8292 16.072C66.9625 16.1733 67.1092 16.256 67.2692 16.32C67.4345 16.384 67.6025 16.432 67.7732 16.464C67.9492 16.4907 68.1172 16.504 68.2772 16.504C68.6079 16.504 68.8612 16.4533 69.0372 16.352C69.2185 16.2507 69.3092 16.1093 69.3092 15.928C69.3092 15.7733 69.2559 15.656 69.1492 15.576C69.0479 15.4907 68.8772 15.4267 68.6372 15.384L67.8132 15.24C67.4452 15.1707 67.1679 15.0453 66.9812 14.864C66.7999 14.6827 66.7092 14.4453 66.7092 14.152C66.7092 13.9173 66.7732 13.712 66.9012 13.536C67.0345 13.36 67.2239 13.224 67.4692 13.128C67.7145 13.0267 68.0079 12.976 68.3492 12.976C68.5359 12.976 68.7252 12.9947 68.9172 13.032C69.1145 13.0693 69.2959 13.1253 69.4612 13.2C69.6319 13.2693 69.7705 13.3573 69.8772 13.464L69.6372 13.968C69.5305 13.8667 69.4025 13.7867 69.2532 13.728C69.1092 13.664 68.9572 13.6187 68.7972 13.592C68.6425 13.56 68.4905 13.544 68.3412 13.544C68.0319 13.544 67.7919 13.5973 67.6212 13.704C67.4505 13.8053 67.3652 13.9493 67.3652 14.136C67.3652 14.2853 67.4132 14.4027 67.5092 14.488C67.6105 14.5733 67.7732 14.6373 67.9972 14.68L68.7972 14.824C69.1919 14.8987 69.4852 15.024 69.6772 15.2C69.8692 15.3707 69.9652 15.608 69.9652 15.912C69.9652 16.1467 69.8959 16.352 69.7572 16.528C69.6185 16.6987 69.4239 16.832 69.1732 16.928C68.9225 17.024 68.6265 17.072 68.2852 17.072ZM73.4961 17V11.36H75.8161C76.4241 11.36 76.8934 11.4987 77.2241 11.776C77.5547 12.0533 77.7201 12.456 77.7201 12.984C77.7201 13.2827 77.6587 13.5413 77.5361 13.76C77.4187 13.9787 77.2507 14.1547 77.0321 14.288C76.8134 14.416 76.5574 14.4987 76.2641 14.536L76.2881 14.528L76.3681 14.544C76.5014 14.5653 76.6214 14.6213 76.7281 14.712C76.8347 14.8027 76.9387 14.944 77.0401 15.136L78.0321 17H77.2481L76.3041 15.232C76.2241 15.0773 76.1387 14.96 76.0481 14.88C75.9574 14.8 75.8481 14.744 75.7201 14.712C75.5974 14.68 75.4481 14.664 75.2721 14.664H74.2081V17H73.4961ZM74.2081 14.072H75.7681C76.1947 14.072 76.5067 13.984 76.7041 13.808C76.9014 13.6267 77.0001 13.3573 77.0001 13C77.0001 12.6427 76.8961 12.3813 76.6881 12.216C76.4854 12.0507 76.1681 11.968 75.7361 11.968H74.2081V14.072ZM79.0304 12.096V11.304H79.8944V12.096H79.0304ZM79.1104 17V13.048H79.8224V17H79.1104ZM83.0033 17.072C82.5979 17.072 82.2459 16.9867 81.9473 16.816C81.6486 16.6453 81.4166 16.408 81.2513 16.104C81.0859 15.7947 81.0033 15.432 81.0033 15.016C81.0033 14.6 81.0859 14.24 81.2513 13.936C81.4166 13.6267 81.6486 13.3893 81.9473 13.224C82.2513 13.0587 82.6059 12.976 83.0113 12.976C83.2833 12.976 83.5419 13.0213 83.7873 13.112C84.0326 13.2027 84.2353 13.3253 84.3953 13.48L84.1473 14.008C83.9926 13.8693 83.8193 13.7653 83.6273 13.696C83.4353 13.6213 83.2486 13.584 83.0673 13.584C82.6513 13.584 82.3233 13.7093 82.0833 13.96C81.8433 14.2107 81.7233 14.5653 81.7233 15.024C81.7233 15.4773 81.8433 15.832 82.0833 16.088C82.3233 16.3387 82.6486 16.464 83.0593 16.464C83.2459 16.464 83.4326 16.4293 83.6193 16.36C83.8113 16.2853 83.9819 16.1813 84.1313 16.048L84.3793 16.576C84.2246 16.7307 84.0246 16.8533 83.7793 16.944C83.5339 17.0293 83.2753 17.072 83.0033 17.072ZM87.1316 17.072C86.689 17.072 86.305 16.992 85.9796 16.832C85.6596 16.6667 85.4143 16.432 85.2436 16.128C85.073 15.8187 84.9876 15.4507 84.9876 15.024C84.9876 14.624 85.0676 14.272 85.2276 13.968C85.3876 13.6587 85.6143 13.416 85.9076 13.24C86.201 13.064 86.5503 12.976 86.9556 12.976C87.3396 12.976 87.665 13.0587 87.9316 13.224C88.2036 13.3893 88.409 13.6213 88.5476 13.92C88.6916 14.2187 88.7636 14.5733 88.7636 14.984V15.216H85.5236V14.72H88.2996L88.1476 14.88C88.1476 14.4427 88.0436 14.1067 87.8356 13.872C87.633 13.6373 87.3396 13.52 86.9556 13.52C86.705 13.52 86.481 13.5787 86.2836 13.696C86.0916 13.808 85.9423 13.968 85.8356 14.176C85.729 14.384 85.6756 14.6373 85.6756 14.936V15.016C85.6756 15.336 85.7343 15.6053 85.8516 15.824C85.969 16.0427 86.137 16.208 86.3556 16.32C86.5743 16.432 86.8356 16.488 87.1396 16.488C87.3583 16.488 87.5796 16.4587 87.8036 16.4C88.033 16.336 88.2463 16.224 88.4436 16.064L88.6836 16.576C88.481 16.7467 88.2383 16.872 87.9556 16.952C87.6783 17.032 87.4036 17.072 87.1316 17.072ZM90.2106 18.152L89.8506 17.872C89.9466 17.7813 90.0212 17.6773 90.0746 17.56C90.1332 17.448 90.1759 17.3307 90.2026 17.208C90.2292 17.0907 90.2452 16.9813 90.2506 16.88L90.3866 17H89.8026V16.12H90.7146V16.776C90.7146 16.9413 90.6986 17.1067 90.6666 17.272C90.6346 17.4373 90.5812 17.5947 90.5066 17.744C90.4319 17.8933 90.3332 18.0293 90.2106 18.152ZM94.3554 17V11.36H94.9874L98.4434 15.952H98.4114V11.36H99.0914V17H98.4434L95.0034 12.424H95.0354V17H94.3554ZM102.354 17.072C101.954 17.072 101.607 16.9867 101.314 16.816C101.021 16.6453 100.794 16.408 100.634 16.104C100.474 15.7947 100.394 15.432 100.394 15.016C100.394 14.6053 100.474 14.248 100.634 13.944C100.794 13.6347 101.021 13.3973 101.314 13.232C101.607 13.0613 101.954 12.976 102.354 12.976C102.754 12.976 103.098 13.0613 103.386 13.232C103.679 13.3973 103.906 13.6347 104.066 13.944C104.226 14.248 104.306 14.6053 104.306 15.016C104.306 15.432 104.226 15.7947 104.066 16.104C103.911 16.408 103.687 16.6453 103.394 16.816C103.101 16.9867 102.754 17.072 102.354 17.072ZM102.346 16.472C102.735 16.472 103.042 16.3413 103.266 16.08C103.49 15.8187 103.602 15.464 103.602 15.016C103.602 14.568 103.49 14.216 103.266 13.96C103.047 13.704 102.743 13.576 102.354 13.576C101.965 13.576 101.658 13.704 101.434 13.96C101.21 14.216 101.098 14.568 101.098 15.016C101.098 15.464 101.21 15.8187 101.434 16.08C101.663 16.3413 101.967 16.472 102.346 16.472ZM107.221 17.072C106.821 17.072 106.474 16.9867 106.181 16.816C105.888 16.6453 105.661 16.408 105.501 16.104C105.341 15.7947 105.261 15.432 105.261 15.016C105.261 14.6053 105.341 14.248 105.501 13.944C105.661 13.6347 105.888 13.3973 106.181 13.232C106.474 13.0613 106.821 12.976 107.221 12.976C107.621 12.976 107.965 13.0613 108.253 13.232C108.546 13.3973 108.773 13.6347 108.933 13.944C109.093 14.248 109.173 14.6053 109.173 15.016C109.173 15.432 109.093 15.7947 108.933 16.104C108.778 16.408 108.554 16.6453 108.261 16.816C107.968 16.9867 107.621 17.072 107.221 17.072ZM107.213 16.472C107.602 16.472 107.909 16.3413 108.133 16.08C108.357 15.8187 108.469 15.464 108.469 15.016C108.469 14.568 108.357 14.216 108.133 13.96C107.914 13.704 107.61 13.576 107.221 13.576C106.832 13.576 106.525 13.704 106.301 13.96C106.077 14.216 105.965 14.568 105.965 15.016C105.965 15.464 106.077 15.8187 106.301 16.08C106.53 16.3413 106.834 16.472 107.213 16.472ZM111.944 17.072C111.582 17.072 111.264 16.9867 110.992 16.816C110.72 16.6453 110.507 16.4053 110.352 16.096C110.203 15.7867 110.128 15.4293 110.128 15.024C110.128 14.6133 110.203 14.256 110.352 13.952C110.502 13.6427 110.712 13.4027 110.984 13.232C111.256 13.0613 111.574 12.976 111.936 12.976C112.278 12.976 112.568 13.056 112.808 13.216C113.054 13.376 113.23 13.5947 113.336 13.872V11.36H114.048V17H113.392V16.128C113.275 16.4267 113.091 16.6587 112.84 16.824C112.59 16.9893 112.291 17.072 111.944 17.072ZM112.096 16.488C112.486 16.488 112.79 16.3573 113.008 16.096C113.232 15.8347 113.344 15.4773 113.344 15.024C113.344 14.5707 113.232 14.2133 113.008 13.952C112.79 13.6907 112.486 13.56 112.096 13.56C111.712 13.56 111.406 13.6907 111.176 13.952C110.952 14.2133 110.84 14.5707 110.84 15.024C110.84 15.4773 110.952 15.8347 111.176 16.096C111.4 16.3573 111.707 16.488 112.096 16.488ZM116.67 17.072C116.286 17.072 115.99 16.96 115.782 16.736C115.574 16.512 115.47 16.1973 115.47 15.792V11.36H116.182V15.72C116.182 15.88 116.206 16.0187 116.254 16.136C116.302 16.248 116.371 16.3333 116.462 16.392C116.552 16.4507 116.662 16.48 116.79 16.48C116.87 16.48 116.944 16.4773 117.014 16.472C117.088 16.4613 117.163 16.4453 117.238 16.424L117.254 16.984C117.163 17.016 117.07 17.0373 116.974 17.048C116.883 17.064 116.782 17.072 116.67 17.072ZM119.921 17.072C119.478 17.072 119.094 16.992 118.769 16.832C118.449 16.6667 118.203 16.432 118.033 16.128C117.862 15.8187 117.777 15.4507 117.777 15.024C117.777 14.624 117.857 14.272 118.017 13.968C118.177 13.6587 118.403 13.416 118.697 13.24C118.99 13.064 119.339 12.976 119.745 12.976C120.129 12.976 120.454 13.0587 120.721 13.224C120.993 13.3893 121.198 13.6213 121.337 13.92C121.481 14.2187 121.553 14.5733 121.553 14.984V15.216H118.313V14.72H121.089L120.937 14.88C120.937 14.4427 120.833 14.1067 120.625 13.872C120.422 13.6373 120.129 13.52 119.745 13.52C119.494 13.52 119.27 13.5787 119.073 13.696C118.881 13.808 118.731 13.968 118.625 14.176C118.518 14.384 118.465 14.6373 118.465 14.936V15.016C118.465 15.336 118.523 15.6053 118.641 15.824C118.758 16.0427 118.926 16.208 119.145 16.32C119.363 16.432 119.625 16.488 119.929 16.488C120.147 16.488 120.369 16.4587 120.593 16.4C120.822 16.336 121.035 16.224 121.233 16.064L121.473 16.576C121.27 16.7467 121.027 16.872 120.745 16.952C120.467 17.032 120.193 17.072 119.921 17.072ZM124.184 17.072C123.965 17.072 123.749 17.0507 123.536 17.008C123.328 16.9707 123.133 16.9173 122.952 16.848C122.776 16.7733 122.624 16.6827 122.496 16.576L122.728 16.072C122.861 16.1733 123.008 16.256 123.168 16.32C123.333 16.384 123.501 16.432 123.672 16.464C123.848 16.4907 124.016 16.504 124.176 16.504C124.506 16.504 124.76 16.4533 124.936 16.352C125.117 16.2507 125.208 16.1093 125.208 15.928C125.208 15.7733 125.154 15.656 125.048 15.576C124.946 15.4907 124.776 15.4267 124.536 15.384L123.712 15.24C123.344 15.1707 123.066 15.0453 122.88 14.864C122.698 14.6827 122.608 14.4453 122.608 14.152C122.608 13.9173 122.672 13.712 122.8 13.536C122.933 13.36 123.122 13.224 123.368 13.128C123.613 13.0267 123.906 12.976 124.248 12.976C124.434 12.976 124.624 12.9947 124.816 13.032C125.013 13.0693 125.194 13.1253 125.36 13.2C125.53 13.2693 125.669 13.3573 125.776 13.464L125.536 13.968C125.429 13.8667 125.301 13.7867 125.152 13.728C125.008 13.664 124.856 13.6187 124.696 13.592C124.541 13.56 124.389 13.544 124.24 13.544C123.93 13.544 123.69 13.5973 123.52 13.704C123.349 13.8053 123.264 13.9493 123.264 14.136C123.264 14.2853 123.312 14.4027 123.408 14.488C123.509 14.5733 123.672 14.6373 123.896 14.68L124.696 14.824C125.09 14.8987 125.384 15.024 125.576 15.2C125.768 15.3707 125.864 15.608 125.864 15.912C125.864 16.1467 125.794 16.352 125.656 16.528C125.517 16.6987 125.322 16.832 125.072 16.928C124.821 17.024 124.525 17.072 124.184 17.072ZM127.273 18.152L126.913 17.872C127.009 17.7813 127.084 17.6773 127.137 17.56C127.196 17.448 127.238 17.3307 127.265 17.208C127.292 17.0907 127.308 16.9813 127.313 16.88L127.449 17H126.865V16.12H127.777V16.776C127.777 16.9413 127.761 17.1067 127.729 17.272C127.697 17.4373 127.644 17.5947 127.569 17.744C127.494 17.8933 127.396 18.0293 127.273 18.152ZM0.832 28V22.36H3.152C3.55733 22.36 3.90133 22.4267 4.184 22.56C4.46667 22.6933 4.68267 22.888 4.832 23.144C4.98667 23.3947 5.064 23.6987 5.064 24.056C5.064 24.4133 4.98667 24.72 4.832 24.976C4.68267 25.232 4.464 25.4293 4.176 25.568C3.89333 25.7067 3.552 25.776 3.152 25.776H1.544V28H0.832ZM1.544 25.168H3.048C3.47467 25.168 3.79733 25.0773 4.016 24.896C4.23467 24.7093 4.344 24.432 4.344 24.064C4.344 23.6907 4.23467 23.416 4.016 23.24C3.79733 23.0587 3.47467 22.968 3.048 22.968H1.544V25.168ZM7.32888 28.072C7.04621 28.072 6.79288 28.0213 6.56888 27.92C6.34488 27.8133 6.16888 27.6693 6.04088 27.488C5.91288 27.3067 5.84888 27.104 5.84888 26.88C5.84888 26.576 5.93421 26.3387 6.10488 26.168C6.27554 25.992 6.53688 25.8667 6.88888 25.792C7.24621 25.7173 7.70221 25.68 8.25688 25.68H8.82488V26.168H8.28888C7.97954 26.168 7.71554 26.1787 7.49688 26.2C7.27821 26.216 7.09954 26.2507 6.96088 26.304C6.82221 26.352 6.72088 26.4187 6.65688 26.504C6.59288 26.5893 6.56088 26.7013 6.56088 26.84C6.56088 27.0533 6.64354 27.2187 6.80888 27.336C6.97954 27.4533 7.19554 27.512 7.45688 27.512C7.68621 27.512 7.89421 27.4613 8.08088 27.36C8.27288 27.2533 8.42488 27.112 8.53688 26.936C8.65421 26.76 8.71288 26.5653 8.71288 26.352V25.448C8.71288 25.1333 8.62488 24.9067 8.44888 24.768C8.27288 24.624 8.01154 24.552 7.66488 24.552C7.43021 24.552 7.19554 24.584 6.96088 24.648C6.73154 24.712 6.49421 24.8187 6.24888 24.968L6.01688 24.44C6.18221 24.3387 6.35821 24.256 6.54488 24.192C6.73154 24.1227 6.92621 24.0693 7.12888 24.032C7.33154 23.9947 7.53421 23.976 7.73688 23.976C8.07821 23.976 8.37154 24.0293 8.61688 24.136C8.86754 24.2427 9.05954 24.408 9.19288 24.632C9.33154 24.856 9.40088 25.1493 9.40088 25.512V28H8.77688V27.136C8.70221 27.3013 8.59821 27.456 8.46488 27.6C8.33154 27.744 8.16888 27.8587 7.97688 27.944C7.79021 28.0293 7.57421 28.072 7.32888 28.072ZM12.2696 28.072C12.0509 28.072 11.8349 28.0507 11.6216 28.008C11.4136 27.9707 11.2189 27.9173 11.0376 27.848C10.8616 27.7733 10.7096 27.6827 10.5816 27.576L10.8136 27.072C10.9469 27.1733 11.0936 27.256 11.2536 27.32C11.4189 27.384 11.5869 27.432 11.7576 27.464C11.9336 27.4907 12.1016 27.504 12.2616 27.504C12.5922 27.504 12.8456 27.4533 13.0216 27.352C13.2029 27.2507 13.2936 27.1093 13.2936 26.928C13.2936 26.7733 13.2402 26.656 13.1336 26.576C13.0322 26.4907 12.8616 26.4267 12.6216 26.384L11.7976 26.24C11.4296 26.1707 11.1522 26.0453 10.9656 25.864C10.7842 25.6827 10.6936 25.4453 10.6936 25.152C10.6936 24.9173 10.7576 24.712 10.8856 24.536C11.0189 24.36 11.2082 24.224 11.4536 24.128C11.6989 24.0267 11.9922 23.976 12.3336 23.976C12.5202 23.976 12.7096 23.9947 12.9016 24.032C13.0989 24.0693 13.2802 24.1253 13.4456 24.2C13.6162 24.2693 13.7549 24.3573 13.8616 24.464L13.6216 24.968C13.5149 24.8667 13.3869 24.7867 13.2376 24.728C13.0936 24.664 12.9416 24.6187 12.7816 24.592C12.6269 24.56 12.4749 24.544 12.3256 24.544C12.0162 24.544 11.7762 24.5973 11.6056 24.704C11.4349 24.8053 11.3496 24.9493 11.3496 25.136C11.3496 25.2853 11.3976 25.4027 11.4936 25.488C11.5949 25.5733 11.7576 25.6373 11.9816 25.68L12.7816 25.824C13.1762 25.8987 13.4696 26.024 13.6616 26.2C13.8536 26.3707 13.9496 26.608 13.9496 26.912C13.9496 27.1467 13.8802 27.352 13.7416 27.528C13.6029 27.6987 13.4082 27.832 13.1576 27.928C12.9069 28.024 12.6109 28.072 12.2696 28.072ZM16.751 28.072C16.2763 28.072 15.9163 27.9467 15.671 27.696C15.431 27.4453 15.311 27.088 15.311 26.624V24.632H14.511V24.048H15.335V22.872H16.023V24.048H17.439V24.632H16.023V26.56C16.023 26.864 16.0897 27.0907 16.223 27.24C16.3617 27.384 16.5723 27.456 16.855 27.456C16.967 27.456 17.0737 27.4453 17.175 27.424C17.2817 27.4027 17.383 27.3707 17.479 27.328L17.591 27.888C17.4843 27.9467 17.3537 27.992 17.199 28.024C17.0497 28.056 16.9003 28.072 16.751 28.072ZM19.7429 28.072C19.4603 28.072 19.2069 28.0213 18.9829 27.92C18.7589 27.8133 18.5829 27.6693 18.4549 27.488C18.3269 27.3067 18.2629 27.104 18.2629 26.88C18.2629 26.576 18.3483 26.3387 18.5189 26.168C18.6896 25.992 18.9509 25.8667 19.3029 25.792C19.6603 25.7173 20.1163 25.68 20.6709 25.68H21.2389V26.168H20.7029C20.3936 26.168 20.1296 26.1787 19.9109 26.2C19.6923 26.216 19.5136 26.2507 19.3749 26.304C19.2363 26.352 19.1349 26.4187 19.0709 26.504C19.0069 26.5893 18.9749 26.7013 18.9749 26.84C18.9749 27.0533 19.0576 27.2187 19.2229 27.336C19.3936 27.4533 19.6096 27.512 19.8709 27.512C20.1003 27.512 20.3083 27.4613 20.4949 27.36C20.6869 27.2533 20.8389 27.112 20.9509 26.936C21.0683 26.76 21.1269 26.5653 21.1269 26.352V25.448C21.1269 25.1333 21.0389 24.9067 20.8629 24.768C20.6869 24.624 20.4256 24.552 20.0789 24.552C19.8443 24.552 19.6096 24.584 19.3749 24.648C19.1456 24.712 18.9083 24.8187 18.6629 24.968L18.4309 24.44C18.5963 24.3387 18.7723 24.256 18.9589 24.192C19.1456 24.1227 19.3403 24.0693 19.5429 24.032C19.7456 23.9947 19.9483 23.976 20.1509 23.976C20.4923 23.976 20.7856 24.0293 21.0309 24.136C21.2816 24.2427 21.4736 24.408 21.6069 24.632C21.7456 24.856 21.8149 25.1493 21.8149 25.512V28H21.1909V27.136C21.1163 27.3013 21.0123 27.456 20.8789 27.6C20.7456 27.744 20.5829 27.8587 20.3909 27.944C20.2043 28.0293 19.9883 28.072 19.7429 28.072ZM23.4996 29.152L23.1396 28.872C23.2356 28.7813 23.3103 28.6773 23.3636 28.56C23.4223 28.448 23.465 28.3307 23.4916 28.208C23.5183 28.0907 23.5343 27.9813 23.5396 27.88L23.6756 28H23.0916V27.12H24.0036V27.776C24.0036 27.9413 23.9876 28.1067 23.9556 28.272C23.9236 28.4373 23.8703 28.5947 23.7956 28.744C23.721 28.8933 23.6223 29.0293 23.4996 29.152ZM27.0685 28L29.5485 22.36H30.1885L32.6685 28H31.9245L31.2365 26.392L31.5885 26.616H28.1485L28.4925 26.392L27.8125 28H27.0685ZM29.8525 23.176L28.5885 26.16L28.3885 26.008H31.3485L31.1485 26.16L29.8845 23.176H29.8525ZM33.6339 28V24.048H34.2979V24.904C34.4259 24.6107 34.6179 24.384 34.8739 24.224C35.1299 24.0587 35.4179 23.976 35.7379 23.976C36.0632 23.976 36.3352 24.0347 36.5539 24.152C36.7725 24.264 36.9352 24.44 37.0419 24.68C37.1539 24.9147 37.2099 25.208 37.2099 25.56V28H36.4979V25.6C36.4979 25.3867 36.4685 25.2053 36.4099 25.056C36.3512 24.9067 36.2525 24.792 36.1139 24.712C35.9805 24.6267 35.8019 24.584 35.5779 24.584C35.3432 24.584 35.1299 24.6373 34.9379 24.744C34.7512 24.8507 34.6045 24.9947 34.4979 25.176C34.3965 25.3573 34.3459 25.56 34.3459 25.784V28H33.6339ZM40.1943 28.072C39.8316 28.072 39.5143 27.9867 39.2423 27.816C38.9703 27.6453 38.7569 27.4053 38.6023 27.096C38.4529 26.7867 38.3783 26.4293 38.3783 26.024C38.3783 25.6133 38.4529 25.256 38.6023 24.952C38.7516 24.6427 38.9623 24.4027 39.2343 24.232C39.5063 24.0613 39.8236 23.976 40.1863 23.976C40.5276 23.976 40.8183 24.056 41.0583 24.216C41.3036 24.376 41.4796 24.5947 41.5863 24.872V22.36H42.2983V28H41.6423V27.128C41.5249 27.4267 41.3409 27.6587 41.0903 27.824C40.8396 27.9893 40.5409 28.072 40.1943 28.072ZM40.3463 27.488C40.7356 27.488 41.0396 27.3573 41.2583 27.096C41.4823 26.8347 41.5943 26.4773 41.5943 26.024C41.5943 25.5707 41.4823 25.2133 41.2583 24.952C41.0396 24.6907 40.7356 24.56 40.3463 24.56C39.9623 24.56 39.6556 24.6907 39.4263 24.952C39.2023 25.2133 39.0903 25.5707 39.0903 26.024C39.0903 26.4773 39.2023 26.8347 39.4263 27.096C39.6503 27.3573 39.9569 27.488 40.3463 27.488ZM46.0902 28V22.36H46.8822L48.9142 26.384H48.8662L50.8822 22.36H51.6742V28H50.9942V23.368H51.0262L49.1462 27.104H48.6262L46.7302 23.368H46.7702V28H46.0902ZM55.1394 28.072C54.6968 28.072 54.3128 27.992 53.9874 27.832C53.6674 27.6667 53.4221 27.432 53.2514 27.128C53.0808 26.8187 52.9954 26.4507 52.9954 26.024C52.9954 25.624 53.0754 25.272 53.2354 24.968C53.3954 24.6587 53.6221 24.416 53.9154 24.24C54.2088 24.064 54.5581 23.976 54.9634 23.976C55.3474 23.976 55.6728 24.0587 55.9394 24.224C56.2114 24.3893 56.4168 24.6213 56.5554 24.92C56.6994 25.2187 56.7714 25.5733 56.7714 25.984V26.216H53.5314V25.72H56.3074L56.1554 25.88C56.1554 25.4427 56.0514 25.1067 55.8434 24.872C55.6408 24.6373 55.3474 24.52 54.9634 24.52C54.7128 24.52 54.4888 24.5787 54.2914 24.696C54.0994 24.808 53.9501 24.968 53.8434 25.176C53.7368 25.384 53.6834 25.6373 53.6834 25.936V26.016C53.6834 26.336 53.7421 26.6053 53.8594 26.824C53.9768 27.0427 54.1448 27.208 54.3634 27.32C54.5821 27.432 54.8434 27.488 55.1474 27.488C55.3661 27.488 55.5874 27.4587 55.8114 27.4C56.0408 27.336 56.2541 27.224 56.4514 27.064L56.6914 27.576C56.4888 27.7467 56.2461 27.872 55.9634 27.952C55.6861 28.032 55.4114 28.072 55.1394 28.072ZM59.2664 28.072C58.9837 28.072 58.7304 28.0213 58.5064 27.92C58.2824 27.8133 58.1064 27.6693 57.9784 27.488C57.8504 27.3067 57.7864 27.104 57.7864 26.88C57.7864 26.576 57.8717 26.3387 58.0424 26.168C58.213 25.992 58.4744 25.8667 58.8264 25.792C59.1837 25.7173 59.6397 25.68 60.1944 25.68H60.7624V26.168H60.2264C59.917 26.168 59.653 26.1787 59.4344 26.2C59.2157 26.216 59.037 26.2507 58.8984 26.304C58.7597 26.352 58.6584 26.4187 58.5944 26.504C58.5304 26.5893 58.4984 26.7013 58.4984 26.84C58.4984 27.0533 58.581 27.2187 58.7464 27.336C58.917 27.4533 59.133 27.512 59.3944 27.512C59.6237 27.512 59.8317 27.4613 60.0184 27.36C60.2104 27.2533 60.3624 27.112 60.4744 26.936C60.5917 26.76 60.6504 26.5653 60.6504 26.352V25.448C60.6504 25.1333 60.5624 24.9067 60.3864 24.768C60.2104 24.624 59.949 24.552 59.6024 24.552C59.3677 24.552 59.133 24.584 58.8984 24.648C58.669 24.712 58.4317 24.8187 58.1864 24.968L57.9544 24.44C58.1197 24.3387 58.2957 24.256 58.4824 24.192C58.669 24.1227 58.8637 24.0693 59.0664 24.032C59.269 23.9947 59.4717 23.976 59.6744 23.976C60.0157 23.976 60.309 24.0293 60.5544 24.136C60.805 24.2427 60.997 24.408 61.1304 24.632C61.269 24.856 61.3384 25.1493 61.3384 25.512V28H60.7144V27.136C60.6397 27.3013 60.5357 27.456 60.4024 27.6C60.269 27.744 60.1064 27.8587 59.9144 27.944C59.7277 28.0293 59.5117 28.072 59.2664 28.072ZM63.9511 28.072C63.5671 28.072 63.2711 27.96 63.0631 27.736C62.8551 27.512 62.7511 27.1973 62.7511 26.792V22.36H63.4631V26.72C63.4631 26.88 63.4871 27.0187 63.5351 27.136C63.5831 27.248 63.6524 27.3333 63.7431 27.392C63.8337 27.4507 63.9431 27.48 64.0711 27.48C64.1511 27.48 64.2257 27.4773 64.2951 27.472C64.3697 27.4613 64.4444 27.4453 64.5191 27.424L64.5351 27.984C64.4444 28.016 64.3511 28.0373 64.2551 28.048C64.1644 28.064 64.0631 28.072 63.9511 28.072ZM66.7539 28.072C66.5353 28.072 66.3193 28.0507 66.1059 28.008C65.8979 27.9707 65.7033 27.9173 65.5219 27.848C65.3459 27.7733 65.1939 27.6827 65.0659 27.576L65.2979 27.072C65.4313 27.1733 65.5779 27.256 65.7379 27.32C65.9033 27.384 66.0713 27.432 66.2419 27.464C66.4179 27.4907 66.5859 27.504 66.7459 27.504C67.0766 27.504 67.3299 27.4533 67.5059 27.352C67.6873 27.2507 67.7779 27.1093 67.7779 26.928C67.7779 26.7733 67.7246 26.656 67.6179 26.576C67.5166 26.4907 67.3459 26.4267 67.1059 26.384L66.2819 26.24C65.9139 26.1707 65.6366 26.0453 65.4499 25.864C65.2686 25.6827 65.1779 25.4453 65.1779 25.152C65.1779 24.9173 65.2419 24.712 65.3699 24.536C65.5033 24.36 65.6926 24.224 65.9379 24.128C66.1833 24.0267 66.4766 23.976 66.8179 23.976C67.0046 23.976 67.1939 23.9947 67.3859 24.032C67.5833 24.0693 67.7646 24.1253 67.9299 24.2C68.1006 24.2693 68.2393 24.3573 68.3459 24.464L68.1059 24.968C67.9993 24.8667 67.8713 24.7867 67.7219 24.728C67.5779 24.664 67.4259 24.6187 67.2659 24.592C67.1113 24.56 66.9593 24.544 66.8099 24.544C66.5006 24.544 66.2606 24.5973 66.0899 24.704C65.9193 24.8053 65.8339 24.9493 65.8339 25.136C65.8339 25.2853 65.8819 25.4027 65.9779 25.488C66.0793 25.5733 66.2419 25.6373 66.4659 25.68L67.2659 25.824C67.6606 25.8987 67.9539 26.024 68.1459 26.2C68.3379 26.3707 68.4339 26.608 68.4339 26.912C68.4339 27.1467 68.3646 27.352 68.2259 27.528C68.0873 27.6987 67.8926 27.832 67.6419 27.928C67.3913 28.024 67.0953 28.072 66.7539 28.072ZM71.9648 28V22.36H75.6128V22.984H72.6768V24.864H75.4528V25.48H72.6768V28H71.9648ZM76.5948 28V24.048H77.2428V24.96H77.2508C77.3468 24.6667 77.5148 24.4373 77.7548 24.272C77.9948 24.1013 78.2881 24.0053 78.6348 23.984L78.9948 23.968L79.0588 24.616L78.4828 24.664C78.1148 24.696 77.8268 24.8187 77.6188 25.032C77.4108 25.24 77.3068 25.5013 77.3068 25.816V28H76.5948ZM81.7957 28.072C81.353 28.072 80.969 27.992 80.6437 27.832C80.3237 27.6667 80.0784 27.432 79.9077 27.128C79.737 26.8187 79.6517 26.4507 79.6517 26.024C79.6517 25.624 79.7317 25.272 79.8917 24.968C80.0517 24.6587 80.2784 24.416 80.5717 24.24C80.865 24.064 81.2144 23.976 81.6197 23.976C82.0037 23.976 82.329 24.0587 82.5957 24.224C82.8677 24.3893 83.073 24.6213 83.2117 24.92C83.3557 25.2187 83.4277 25.5733 83.4277 25.984V26.216H80.1877V25.72H82.9637L82.8117 25.88C82.8117 25.4427 82.7077 25.1067 82.4997 24.872C82.297 24.6373 82.0037 24.52 81.6197 24.52C81.369 24.52 81.145 24.5787 80.9477 24.696C80.7557 24.808 80.6064 24.968 80.4997 25.176C80.393 25.384 80.3397 25.6373 80.3397 25.936V26.016C80.3397 26.336 80.3984 26.6053 80.5157 26.824C80.633 27.0427 80.801 27.208 81.0197 27.32C81.2384 27.432 81.4997 27.488 81.8037 27.488C82.0224 27.488 82.2437 27.4587 82.4677 27.4C82.697 27.336 82.9104 27.224 83.1077 27.064L83.3477 27.576C83.145 27.7467 82.9024 27.872 82.6197 27.952C82.3424 28.032 82.0677 28.072 81.7957 28.072ZM86.0586 28.072C85.84 28.072 85.624 28.0507 85.4106 28.008C85.2026 27.9707 85.008 27.9173 84.8266 27.848C84.6506 27.7733 84.4986 27.6827 84.3706 27.576L84.6026 27.072C84.736 27.1733 84.8826 27.256 85.0426 27.32C85.208 27.384 85.376 27.432 85.5466 27.464C85.7226 27.4907 85.8906 27.504 86.0506 27.504C86.3813 27.504 86.6346 27.4533 86.8106 27.352C86.992 27.2507 87.0826 27.1093 87.0826 26.928C87.0826 26.7733 87.0293 26.656 86.9226 26.576C86.8213 26.4907 86.6506 26.4267 86.4106 26.384L85.5866 26.24C85.2186 26.1707 84.9413 26.0453 84.7546 25.864C84.5733 25.6827 84.4826 25.4453 84.4826 25.152C84.4826 24.9173 84.5466 24.712 84.6746 24.536C84.808 24.36 84.9973 24.224 85.2426 24.128C85.488 24.0267 85.7813 23.976 86.1226 23.976C86.3093 23.976 86.4986 23.9947 86.6906 24.032C86.888 24.0693 87.0693 24.1253 87.2346 24.2C87.4053 24.2693 87.544 24.3573 87.6506 24.464L87.4106 24.968C87.304 24.8667 87.176 24.7867 87.0266 24.728C86.8826 24.664 86.7306 24.6187 86.5706 24.592C86.416 24.56 86.264 24.544 86.1146 24.544C85.8053 24.544 85.5653 24.5973 85.3946 24.704C85.224 24.8053 85.1386 24.9493 85.1386 25.136C85.1386 25.2853 85.1866 25.4027 85.2826 25.488C85.384 25.5733 85.5466 25.6373 85.7706 25.68L86.5706 25.824C86.9653 25.8987 87.2586 26.024 87.4506 26.2C87.6426 26.3707 87.7386 26.608 87.7386 26.912C87.7386 27.1467 87.6693 27.352 87.5306 27.528C87.392 27.6987 87.1973 27.832 86.9466 27.928C86.696 28.024 86.4 28.072 86.0586 28.072ZM88.9151 28V22.36H89.6031V24.888C89.7205 24.6053 89.9045 24.384 90.1551 24.224C90.4111 24.0587 90.6991 23.976 91.0191 23.976C91.3445 23.976 91.6165 24.0347 91.8351 24.152C92.0538 24.264 92.2165 24.44 92.3231 24.68C92.4351 24.9147 92.4911 25.208 92.4911 25.56V28H91.7791V25.6C91.7791 25.3867 91.7471 25.2053 91.6831 25.056C91.6245 24.9067 91.5285 24.792 91.3951 24.712C91.2618 24.6267 91.0831 24.584 90.8591 24.584C90.6245 24.584 90.4138 24.6373 90.2271 24.744C90.0405 24.8507 89.8938 24.9947 89.7871 25.176C89.6805 25.3573 89.6271 25.56 89.6271 25.784V28H88.9151ZM95.6779 28L98.1579 22.36H98.7979L101.278 28H100.534L99.8459 26.392L100.198 26.616H96.7579L97.1019 26.392L96.4219 28H95.6779ZM98.4619 23.176L97.1979 26.16L96.9979 26.008H99.9579L99.7579 26.16L98.4939 23.176H98.4619ZM102.243 28V24.048H102.907V24.904C103.035 24.6107 103.227 24.384 103.483 24.224C103.739 24.0587 104.027 23.976 104.347 23.976C104.673 23.976 104.945 24.0347 105.163 24.152C105.382 24.264 105.545 24.44 105.651 24.68C105.763 24.9147 105.819 25.208 105.819 25.56V28H105.107V25.6C105.107 25.3867 105.078 25.2053 105.019 25.056C104.961 24.9067 104.862 24.792 104.723 24.712C104.59 24.6267 104.411 24.584 104.187 24.584C103.953 24.584 103.739 24.6373 103.547 24.744C103.361 24.8507 103.214 24.9947 103.107 25.176C103.006 25.3573 102.955 25.56 102.955 25.784V28H102.243ZM108.804 28.072C108.441 28.072 108.124 27.9867 107.852 27.816C107.58 27.6453 107.366 27.4053 107.212 27.096C107.062 26.7867 106.988 26.4293 106.988 26.024C106.988 25.6133 107.062 25.256 107.212 24.952C107.361 24.6427 107.572 24.4027 107.844 24.232C108.116 24.0613 108.433 23.976 108.796 23.976C109.137 23.976 109.428 24.056 109.668 24.216C109.913 24.376 110.089 24.5947 110.196 24.872V22.36H110.908V28H110.252V27.128C110.134 27.4267 109.95 27.6587 109.7 27.824C109.449 27.9893 109.15 28.072 108.804 28.072ZM108.956 27.488C109.345 27.488 109.649 27.3573 109.868 27.096C110.092 26.8347 110.204 26.4773 110.204 26.024C110.204 25.5707 110.092 25.2133 109.868 24.952C109.649 24.6907 109.345 24.56 108.956 24.56C108.572 24.56 108.265 24.6907 108.036 24.952C107.812 25.2133 107.7 25.5707 107.7 26.024C107.7 26.4773 107.812 26.8347 108.036 27.096C108.26 27.3573 108.566 27.488 108.956 27.488ZM114.684 28V22.36H115.396V27.368H118.26V28H114.684ZM121.085 28.072C120.642 28.072 120.258 27.992 119.933 27.832C119.613 27.6667 119.367 27.432 119.197 27.128C119.026 26.8187 118.941 26.4507 118.941 26.024C118.941 25.624 119.021 25.272 119.181 24.968C119.341 24.6587 119.567 24.416 119.861 24.24C120.154 24.064 120.503 23.976 120.909 23.976C121.293 23.976 121.618 24.0587 121.885 24.224C122.157 24.3893 122.362 24.6213 122.501 24.92C122.645 25.2187 122.717 25.5733 122.717 25.984V26.216H119.477V25.72H122.253L122.101 25.88C122.101 25.4427 121.997 25.1067 121.789 24.872C121.586 24.6373 121.293 24.52 120.909 24.52C120.658 24.52 120.434 24.5787 120.237 24.696C120.045 24.808 119.895 24.968 119.789 25.176C119.682 25.384 119.629 25.6373 119.629 25.936V26.016C119.629 26.336 119.687 26.6053 119.805 26.824C119.922 27.0427 120.09 27.208 120.309 27.32C120.527 27.432 120.789 27.488 121.093 27.488C121.311 27.488 121.533 27.4587 121.757 27.4C121.986 27.336 122.199 27.224 122.397 27.064L122.637 27.576C122.434 27.7467 122.191 27.872 121.909 27.952C121.631 28.032 121.357 28.072 121.085 28.072ZM125.212 28.072C124.929 28.072 124.676 28.0213 124.452 27.92C124.228 27.8133 124.052 27.6693 123.924 27.488C123.796 27.3067 123.732 27.104 123.732 26.88C123.732 26.576 123.817 26.3387 123.988 26.168C124.158 25.992 124.42 25.8667 124.772 25.792C125.129 25.7173 125.585 25.68 126.14 25.68H126.708V26.168H126.172C125.862 26.168 125.598 26.1787 125.38 26.2C125.161 26.216 124.982 26.2507 124.844 26.304C124.705 26.352 124.604 26.4187 124.54 26.504C124.476 26.5893 124.444 26.7013 124.444 26.84C124.444 27.0533 124.526 27.2187 124.692 27.336C124.862 27.4533 125.078 27.512 125.34 27.512C125.569 27.512 125.777 27.4613 125.964 27.36C126.156 27.2533 126.308 27.112 126.42 26.936C126.537 26.76 126.596 26.5653 126.596 26.352V25.448C126.596 25.1333 126.508 24.9067 126.332 24.768C126.156 24.624 125.894 24.552 125.548 24.552C125.313 24.552 125.078 24.584 124.844 24.648C124.614 24.712 124.377 24.8187 124.132 24.968L123.9 24.44C124.065 24.3387 124.241 24.256 124.428 24.192C124.614 24.1227 124.809 24.0693 125.012 24.032C125.214 23.9947 125.417 23.976 125.62 23.976C125.961 23.976 126.254 24.0293 126.5 24.136C126.75 24.2427 126.942 24.408 127.076 24.632C127.214 24.856 127.284 25.1493 127.284 25.512V28H126.66V27.136C126.585 27.3013 126.481 27.456 126.348 27.6C126.214 27.744 126.052 27.8587 125.86 27.944C125.673 28.0293 125.457 28.072 125.212 28.072ZM128.696 28V22.36H129.408V25.808H129.44L131.216 24.048H132.096L129.976 26.12L129.992 25.808L132.296 28H131.392L129.44 26.168H129.408V28H128.696ZM132.631 26.144V25.568H134.871V26.144H132.631ZM0.832 39V33.36H3.152C3.55733 33.36 3.90133 33.4267 4.184 33.56C4.46667 33.6933 4.68267 33.888 4.832 34.144C4.98667 34.3947 5.064 34.6987 5.064 35.056C5.064 35.4133 4.98667 35.72 4.832 35.976C4.68267 36.232 4.464 36.4293 4.176 36.568C3.89333 36.7067 3.552 36.776 3.152 36.776H1.544V39H0.832ZM1.544 36.168H3.048C3.47467 36.168 3.79733 36.0773 4.016 35.896C4.23467 35.7093 4.344 35.432 4.344 35.064C4.344 34.6907 4.23467 34.416 4.016 34.24C3.79733 34.0587 3.47467 33.968 3.048 33.968H1.544V36.168ZM6.12606 39V35.048H6.77406V35.96H6.78206C6.87806 35.6667 7.04606 35.4373 7.28606 35.272C7.52606 35.1013 7.8194 35.0053 8.16606 34.984L8.52606 34.968L8.59006 35.616L8.01406 35.664C7.64606 35.696 7.35806 35.8187 7.15006 36.032C6.94206 36.24 6.83806 36.5013 6.83806 36.816V39H6.12606ZM11.1429 39.072C10.7429 39.072 10.3963 38.9867 10.1029 38.816C9.8096 38.6453 9.58294 38.408 9.42294 38.104C9.26294 37.7947 9.18294 37.432 9.18294 37.016C9.18294 36.6053 9.26294 36.248 9.42294 35.944C9.58294 35.6347 9.8096 35.3973 10.1029 35.232C10.3963 35.0613 10.7429 34.976 11.1429 34.976C11.5429 34.976 11.8869 35.0613 12.1749 35.232C12.4683 35.3973 12.6949 35.6347 12.8549 35.944C13.0149 36.248 13.0949 36.6053 13.0949 37.016C13.0949 37.432 13.0149 37.7947 12.8549 38.104C12.7003 38.408 12.4763 38.6453 12.1829 38.816C11.8896 38.9867 11.5429 39.072 11.1429 39.072ZM11.1349 38.472C11.5243 38.472 11.8309 38.3413 12.0549 38.08C12.2789 37.8187 12.3909 37.464 12.3909 37.016C12.3909 36.568 12.2789 36.216 12.0549 35.96C11.8363 35.704 11.5323 35.576 11.1429 35.576C10.7536 35.576 10.4469 35.704 10.2229 35.96C9.99894 36.216 9.88694 36.568 9.88694 37.016C9.88694 37.464 9.99894 37.8187 10.2229 38.08C10.4523 38.3413 10.7563 38.472 11.1349 38.472ZM16.0101 39.072C15.6101 39.072 15.2635 38.9867 14.9701 38.816C14.6768 38.6453 14.4501 38.408 14.2901 38.104C14.1301 37.7947 14.0501 37.432 14.0501 37.016C14.0501 36.6053 14.1301 36.248 14.2901 35.944C14.4501 35.6347 14.6768 35.3973 14.9701 35.232C15.2635 35.0613 15.6101 34.976 16.0101 34.976C16.4101 34.976 16.7541 35.0613 17.0421 35.232C17.3355 35.3973 17.5621 35.6347 17.7221 35.944C17.8821 36.248 17.9621 36.6053 17.9621 37.016C17.9621 37.432 17.8821 37.7947 17.7221 38.104C17.5675 38.408 17.3435 38.6453 17.0501 38.816C16.7568 38.9867 16.4101 39.072 16.0101 39.072ZM16.0021 38.472C16.3915 38.472 16.6981 38.3413 16.9221 38.08C17.1461 37.8187 17.2581 37.464 17.2581 37.016C17.2581 36.568 17.1461 36.216 16.9221 35.96C16.7035 35.704 16.3995 35.576 16.0101 35.576C15.6208 35.576 15.3141 35.704 15.0901 35.96C14.8661 36.216 14.7541 36.568 14.7541 37.016C14.7541 37.464 14.8661 37.8187 15.0901 38.08C15.3195 38.3413 15.6235 38.472 16.0021 38.472ZM19.3583 39V35.608H18.5503V35.048H19.5423L19.3583 35.232V34.976C19.3583 34.4587 19.5023 34.0667 19.7903 33.8C20.0783 33.528 20.4969 33.376 21.0463 33.344L21.4623 33.32L21.5183 33.904L21.0383 33.936C20.8463 33.9467 20.6783 33.984 20.5343 34.048C20.3903 34.1067 20.2756 34.2027 20.1903 34.336C20.1103 34.4693 20.0703 34.656 20.0703 34.896V35.128L19.9583 35.048H21.3183V35.608H20.0703V39H19.3583ZM21.9276 39V38.12H22.8396V39H21.9276Z" fill="black"/>
</svg>
