<svg width="142" height="30" viewBox="0 0 142 30" fill="none" xmlns="http://www.w3.org/2000/svg">
<path d="M0.832 6V0.36H1.544V6H0.832ZM3.087 6V2.048H3.751V2.904C3.879 2.61067 4.071 2.384 4.327 2.224C4.583 2.05867 4.871 1.976 5.191 1.976C5.51633 1.976 5.78833 2.03467 6.007 2.152C6.22567 2.264 6.38833 2.44 6.495 2.68C6.607 2.91467 6.663 3.208 6.663 3.56V6H5.951V3.6C5.951 3.38667 5.92167 3.20533 5.863 3.056C5.80433 2.90667 5.70567 2.792 5.567 2.712C5.43367 2.62667 5.255 2.584 5.031 2.584C4.79633 2.584 4.583 2.63733 4.391 2.744C4.20433 2.85067 4.05767 2.99467 3.951 3.176C3.84967 3.35733 3.799 3.56 3.799 3.784V6H3.087ZM9.64738 6.072C9.28471 6.072 8.96738 5.98667 8.69538 5.816C8.42338 5.64533 8.21004 5.40533 8.05538 5.096C7.90604 4.78667 7.83138 4.42933 7.83138 4.024C7.83138 3.61333 7.90604 3.256 8.05538 2.952C8.20471 2.64267 8.41538 2.40267 8.68738 2.232C8.95938 2.06133 9.27671 1.976 9.63938 1.976C9.98071 1.976 10.2714 2.056 10.5114 2.216C10.7567 2.376 10.9327 2.59467 11.0394 2.872V0.36H11.7514V6H11.0954V5.128C10.978 5.42667 10.794 5.65867 10.5434 5.824C10.2927 5.98933 9.99404 6.072 9.64738 6.072ZM9.79938 5.488C10.1887 5.488 10.4927 5.35733 10.7114 5.096C10.9354 4.83467 11.0474 4.47733 11.0474 4.024C11.0474 3.57067 10.9354 3.21333 10.7114 2.952C10.4927 2.69067 10.1887 2.56 9.79938 2.56C9.41538 2.56 9.10871 2.69067 8.87938 2.952C8.65538 3.21333 8.54338 3.57067 8.54338 4.024C8.54338 4.47733 8.65538 4.83467 8.87938 5.096C9.10338 5.35733 9.41004 5.488 9.79938 5.488ZM13.0929 1.096V0.304H13.9569V1.096H13.0929ZM13.1729 6V2.048H13.8849V6H13.1729ZM16.6258 6.072C16.3431 6.072 16.0898 6.02133 15.8658 5.92C15.6418 5.81333 15.4658 5.66933 15.3378 5.488C15.2098 5.30667 15.1458 5.104 15.1458 4.88C15.1458 4.576 15.2311 4.33867 15.4018 4.168C15.5724 3.992 15.8338 3.86667 16.1858 3.792C16.5431 3.71733 16.9991 3.68 17.5538 3.68H18.1218V4.168H17.5858C17.2764 4.168 17.0124 4.17867 16.7938 4.2C16.5751 4.216 16.3964 4.25067 16.2578 4.304C16.1191 4.352 16.0178 4.41867 15.9538 4.504C15.8898 4.58933 15.8578 4.70133 15.8578 4.84C15.8578 5.05333 15.9404 5.21867 16.1058 5.336C16.2764 5.45333 16.4924 5.512 16.7538 5.512C16.9831 5.512 17.1911 5.46133 17.3778 5.36C17.5698 5.25333 17.7218 5.112 17.8338 4.936C17.9511 4.76 18.0098 4.56533 18.0098 4.352V3.448C18.0098 3.13333 17.9218 2.90667 17.7458 2.768C17.5698 2.624 17.3084 2.552 16.9618 2.552C16.7271 2.552 16.4924 2.584 16.2578 2.648C16.0284 2.712 15.7911 2.81867 15.5458 2.968L15.3138 2.44C15.4791 2.33867 15.6551 2.256 15.8418 2.192C16.0284 2.12267 16.2231 2.06933 16.4258 2.032C16.6284 1.99467 16.8311 1.976 17.0338 1.976C17.3751 1.976 17.6684 2.02933 17.9138 2.136C18.1644 2.24267 18.3564 2.408 18.4898 2.632C18.6284 2.856 18.6978 3.14933 18.6978 3.512V6H18.0738V5.136C17.9991 5.30133 17.8951 5.456 17.7618 5.6C17.6284 5.744 17.4658 5.85867 17.2738 5.944C17.0871 6.02933 16.8711 6.072 16.6258 6.072ZM20.234 2.368L19.882 2.088C19.978 1.99733 20.0527 1.896 20.106 1.784C20.1593 1.66667 20.1993 1.54933 20.226 1.432C20.2527 1.30933 20.2687 1.19467 20.274 1.088L20.426 1.216H19.826V0.36H20.746V0.992C20.746 1.152 20.7273 1.31467 20.69 1.48C20.658 1.64533 20.6047 1.80533 20.53 1.96C20.4553 2.10933 20.3567 2.24533 20.234 2.368ZM23.2461 6.072C23.0275 6.072 22.8115 6.05067 22.5981 6.008C22.3901 5.97067 22.1955 5.91733 22.0141 5.848C21.8381 5.77333 21.6861 5.68267 21.5581 5.576L21.7901 5.072C21.9235 5.17333 22.0701 5.256 22.2301 5.32C22.3955 5.384 22.5635 5.432 22.7341 5.464C22.9101 5.49067 23.0781 5.504 23.2381 5.504C23.5688 5.504 23.8221 5.45333 23.9981 5.352C24.1795 5.25067 24.2701 5.10933 24.2701 4.928C24.2701 4.77333 24.2168 4.656 24.1101 4.576C24.0088 4.49067 23.8381 4.42667 23.5981 4.384L22.7741 4.24C22.4061 4.17067 22.1288 4.04533 21.9421 3.864C21.7608 3.68267 21.6701 3.44533 21.6701 3.152C21.6701 2.91733 21.7341 2.712 21.8621 2.536C21.9955 2.36 22.1848 2.224 22.4301 2.128C22.6755 2.02667 22.9688 1.976 23.3101 1.976C23.4968 1.976 23.6861 1.99467 23.8781 2.032C24.0755 2.06933 24.2568 2.12533 24.4221 2.2C24.5928 2.26933 24.7315 2.35733 24.8381 2.464L24.5981 2.968C24.4915 2.86667 24.3635 2.78667 24.2141 2.728C24.0701 2.664 23.9181 2.61867 23.7581 2.592C23.6035 2.56 23.4515 2.544 23.3021 2.544C22.9928 2.544 22.7528 2.59733 22.5821 2.704C22.4115 2.80533 22.3261 2.94933 22.3261 3.136C22.3261 3.28533 22.3741 3.40267 22.4701 3.488C22.5715 3.57333 22.7341 3.63733 22.9581 3.68L23.7581 3.824C24.1528 3.89867 24.4461 4.024 24.6381 4.2C24.8301 4.37067 24.9261 4.608 24.9261 4.912C24.9261 5.14667 24.8568 5.352 24.7181 5.528C24.5795 5.69867 24.3848 5.832 24.1341 5.928C23.8835 6.024 23.5875 6.072 23.2461 6.072ZM28.457 6V0.36H32.105V0.984H29.169V2.864H31.945V3.48H29.169V6H28.457ZM33.0851 1.096V0.304H33.9491V1.096H33.0851ZM33.1651 6V2.048H33.8771V6H33.1651ZM35.2979 6V2.048H35.9459V2.96H35.9539C36.0499 2.66667 36.2179 2.43733 36.4579 2.272C36.6979 2.10133 36.9913 2.00533 37.3379 1.984L37.6979 1.968L37.7619 2.616L37.1859 2.664C36.8179 2.696 36.5299 2.81867 36.3219 3.032C36.1139 3.24 36.0099 3.50133 36.0099 3.816V6H35.2979ZM40.0586 6.072C39.84 6.072 39.624 6.05067 39.4106 6.008C39.2026 5.97067 39.008 5.91733 38.8266 5.848C38.6506 5.77333 38.4986 5.68267 38.3706 5.576L38.6026 5.072C38.736 5.17333 38.8826 5.256 39.0426 5.32C39.208 5.384 39.376 5.432 39.5466 5.464C39.7226 5.49067 39.8906 5.504 40.0506 5.504C40.3813 5.504 40.6346 5.45333 40.8106 5.352C40.992 5.25067 41.0826 5.10933 41.0826 4.928C41.0826 4.77333 41.0293 4.656 40.9226 4.576C40.8213 4.49067 40.6506 4.42667 40.4106 4.384L39.5866 4.24C39.2186 4.17067 38.9413 4.04533 38.7546 3.864C38.5733 3.68267 38.4826 3.44533 38.4826 3.152C38.4826 2.91733 38.5466 2.712 38.6746 2.536C38.808 2.36 38.9973 2.224 39.2426 2.128C39.488 2.02667 39.7813 1.976 40.1226 1.976C40.3093 1.976 40.4986 1.99467 40.6906 2.032C40.888 2.06933 41.0693 2.12533 41.2346 2.2C41.4053 2.26933 41.544 2.35733 41.6506 2.464L41.4106 2.968C41.304 2.86667 41.176 2.78667 41.0266 2.728C40.8826 2.664 40.7306 2.61867 40.5706 2.592C40.416 2.56 40.264 2.544 40.1146 2.544C39.8053 2.544 39.5653 2.59733 39.3946 2.704C39.224 2.80533 39.1386 2.94933 39.1386 3.136C39.1386 3.28533 39.1866 3.40267 39.2826 3.488C39.384 3.57333 39.5466 3.63733 39.7706 3.68L40.5706 3.824C40.9653 3.89867 41.2586 4.024 41.4506 4.2C41.6426 4.37067 41.7386 4.608 41.7386 4.912C41.7386 5.14667 41.6693 5.352 41.5306 5.528C41.392 5.69867 41.1973 5.832 40.9466 5.928C40.696 6.024 40.4 6.072 40.0586 6.072ZM44.5401 6.072C44.0654 6.072 43.7054 5.94667 43.4601 5.696C43.2201 5.44533 43.1001 5.088 43.1001 4.624V2.632H42.3001V2.048H43.1241V0.872H43.8121V2.048H45.2281V2.632H43.8121V4.56C43.8121 4.864 43.8787 5.09067 44.0121 5.24C44.1507 5.384 44.3614 5.456 44.6441 5.456C44.7561 5.456 44.8627 5.44533 44.9641 5.424C45.0707 5.40267 45.1721 5.37067 45.2681 5.328L45.3801 5.888C45.2734 5.94667 45.1427 5.992 44.9881 6.024C44.8387 6.056 44.6894 6.072 44.5401 6.072ZM48.4704 6V5.392H50.0144V0.928L50.3904 0.984L48.7504 2.04L48.4304 1.488L50.1984 0.36H50.7184V5.392H52.1424V6H48.4704ZM54.9313 6.072C54.4993 6.072 54.1339 5.96267 53.8353 5.744C53.5366 5.52 53.3099 5.19467 53.1553 4.768C53.0059 4.336 52.9313 3.80533 52.9313 3.176C52.9313 2.54667 53.0059 2.01867 53.1553 1.592C53.3099 1.16533 53.5366 0.842666 53.8353 0.624C54.1339 0.4 54.4993 0.288 54.9313 0.288C55.3739 0.288 55.7419 0.397333 56.0353 0.616C56.3286 0.834666 56.5499 1.15733 56.6993 1.584C56.8539 2.01067 56.9313 2.53867 56.9313 3.168C56.9313 3.79733 56.8539 4.328 56.6993 4.76C56.5499 5.192 56.3259 5.52 56.0273 5.744C55.7286 5.96267 55.3633 6.072 54.9313 6.072ZM54.9313 5.448C55.3686 5.448 55.6939 5.264 55.9073 4.896C56.1206 4.528 56.2273 3.952 56.2273 3.168C56.2273 2.38933 56.1206 1.81867 55.9073 1.456C55.6993 1.09333 55.3766 0.912 54.9393 0.912C54.4966 0.912 54.1686 1.096 53.9553 1.464C53.7419 1.82667 53.6353 2.39733 53.6353 3.176C53.6353 3.94933 53.7419 4.52267 53.9553 4.896C54.1686 5.264 54.4939 5.448 54.9313 5.448ZM59.7281 6.072C59.2961 6.072 58.9308 5.96267 58.6321 5.744C58.3335 5.52 58.1068 5.19467 57.9521 4.768C57.8028 4.336 57.7281 3.80533 57.7281 3.176C57.7281 2.54667 57.8028 2.01867 57.9521 1.592C58.1068 1.16533 58.3335 0.842666 58.6321 0.624C58.9308 0.4 59.2961 0.288 59.7281 0.288C60.1708 0.288 60.5388 0.397333 60.8321 0.616C61.1255 0.834666 61.3468 1.15733 61.4961 1.584C61.6508 2.01067 61.7281 2.53867 61.7281 3.168C61.7281 3.79733 61.6508 4.328 61.4961 4.76C61.3468 5.192 61.1228 5.52 60.8241 5.744C60.5255 5.96267 60.1601 6.072 59.7281 6.072ZM59.7281 5.448C60.1655 5.448 60.4908 5.264 60.7041 4.896C60.9175 4.528 61.0241 3.952 61.0241 3.168C61.0241 2.38933 60.9175 1.81867 60.7041 1.456C60.4961 1.09333 60.1735 0.912 59.7361 0.912C59.2935 0.912 58.9655 1.096 58.7521 1.464C58.5388 1.82667 58.4321 2.39733 58.4321 3.176C58.4321 3.94933 58.5388 4.52267 58.7521 4.896C58.9655 5.264 59.2908 5.448 59.7281 5.448ZM64.525 6.072C64.093 6.072 63.7277 5.96267 63.429 5.744C63.1303 5.52 62.9037 5.19467 62.749 4.768C62.5997 4.336 62.525 3.80533 62.525 3.176C62.525 2.54667 62.5997 2.01867 62.749 1.592C62.9037 1.16533 63.1303 0.842666 63.429 0.624C63.7277 0.4 64.093 0.288 64.525 0.288C64.9677 0.288 65.3357 0.397333 65.629 0.616C65.9223 0.834666 66.1437 1.15733 66.293 1.584C66.4477 2.01067 66.525 2.53867 66.525 3.168C66.525 3.79733 66.4477 4.328 66.293 4.76C66.1437 5.192 65.9197 5.52 65.621 5.744C65.3223 5.96267 64.957 6.072 64.525 6.072ZM64.525 5.448C64.9623 5.448 65.2877 5.264 65.501 4.896C65.7143 4.528 65.821 3.952 65.821 3.168C65.821 2.38933 65.7143 1.81867 65.501 1.456C65.293 1.09333 64.9703 0.912 64.533 0.912C64.0903 0.912 63.7623 1.096 63.549 1.464C63.3357 1.82667 63.229 2.39733 63.229 3.176C63.229 3.94933 63.3357 4.52267 63.549 4.896C63.7623 5.264 64.0877 5.448 64.525 5.448ZM67.6499 6V2.048H68.3059V2.912C68.3752 2.736 68.4712 2.57867 68.5939 2.44C68.7219 2.296 68.8739 2.184 69.0499 2.104C69.2312 2.01867 69.4285 1.976 69.6419 1.976C69.9885 1.976 70.2739 2.06133 70.4979 2.232C70.7219 2.40267 70.8605 2.62667 70.9139 2.904H70.9059C71.0125 2.64267 71.1805 2.424 71.4099 2.248C71.6445 2.06667 71.9379 1.976 72.2899 1.976C72.5885 1.976 72.8419 2.03467 73.0499 2.152C73.2579 2.264 73.4152 2.43733 73.5219 2.672C73.6285 2.90667 73.6819 3.20267 73.6819 3.56V6H72.9779V3.608C72.9779 3.26667 72.9165 3.01067 72.7939 2.84C72.6712 2.66933 72.4525 2.584 72.1379 2.584C71.9032 2.584 71.7005 2.63733 71.5299 2.744C71.3645 2.84533 71.2365 2.98933 71.1459 3.176C71.0605 3.35733 71.0179 3.56267 71.0179 3.792V6H70.3139V3.608C70.3139 3.272 70.2445 3.01867 70.1059 2.848C69.9672 2.672 69.7565 2.584 69.4739 2.584C69.2445 2.584 69.0445 2.64267 68.8739 2.76C68.7085 2.872 68.5805 3.01867 68.4899 3.2C68.3992 3.38133 68.3539 3.57333 68.3539 3.776V6H67.6499ZM76.3104 6.072C75.9264 6.072 75.6304 5.96 75.4224 5.736C75.2144 5.512 75.1104 5.19733 75.1104 4.792V0.36H75.8224V4.72C75.8224 4.88 75.8464 5.01867 75.8944 5.136C75.9424 5.248 76.0118 5.33333 76.1024 5.392C76.1931 5.45067 76.3024 5.48 76.4304 5.48C76.5104 5.48 76.5851 5.47733 76.6544 5.472C76.7291 5.46133 76.8038 5.44533 76.8784 5.424L76.8944 5.984C76.8038 6.016 76.7104 6.03733 76.6144 6.048C76.5238 6.064 76.4224 6.072 76.3104 6.072ZM81.4268 6V0.992H79.3948V0.36H84.1708V0.992H82.1388V6H81.4268ZM85.7586 6.072C85.4759 6.072 85.2226 6.02133 84.9986 5.92C84.7746 5.81333 84.5986 5.66933 84.4706 5.488C84.3426 5.30667 84.2786 5.104 84.2786 4.88C84.2786 4.576 84.3639 4.33867 84.5346 4.168C84.7052 3.992 84.9666 3.86667 85.3186 3.792C85.6759 3.71733 86.1319 3.68 86.6866 3.68H87.2546V4.168H86.7186C86.4092 4.168 86.1452 4.17867 85.9266 4.2C85.7079 4.216 85.5292 4.25067 85.3906 4.304C85.2519 4.352 85.1506 4.41867 85.0866 4.504C85.0226 4.58933 84.9906 4.70133 84.9906 4.84C84.9906 5.05333 85.0732 5.21867 85.2386 5.336C85.4092 5.45333 85.6252 5.512 85.8866 5.512C86.1159 5.512 86.3239 5.46133 86.5106 5.36C86.7026 5.25333 86.8546 5.112 86.9666 4.936C87.0839 4.76 87.1426 4.56533 87.1426 4.352V3.448C87.1426 3.13333 87.0546 2.90667 86.8786 2.768C86.7026 2.624 86.4412 2.552 86.0946 2.552C85.8599 2.552 85.6252 2.584 85.3906 2.648C85.1612 2.712 84.9239 2.81867 84.6786 2.968L84.4466 2.44C84.6119 2.33867 84.7879 2.256 84.9746 2.192C85.1612 2.12267 85.3559 2.06933 85.5586 2.032C85.7612 1.99467 85.9639 1.976 86.1666 1.976C86.5079 1.976 86.8012 2.02933 87.0466 2.136C87.2972 2.24267 87.4892 2.408 87.6226 2.632C87.7612 2.856 87.8306 3.14933 87.8306 3.512V6H87.2066V5.136C87.1319 5.30133 87.0279 5.456 86.8946 5.6C86.7612 5.744 86.5986 5.85867 86.4066 5.944C86.2199 6.02933 86.0039 6.072 85.7586 6.072ZM89.2593 6V2.048H89.9153V2.912C89.9846 2.736 90.0806 2.57867 90.2033 2.44C90.3313 2.296 90.4833 2.184 90.6593 2.104C90.8406 2.01867 91.0379 1.976 91.2513 1.976C91.5979 1.976 91.8833 2.06133 92.1073 2.232C92.3313 2.40267 92.4699 2.62667 92.5233 2.904H92.5153C92.6219 2.64267 92.7899 2.424 93.0193 2.248C93.2539 2.06667 93.5473 1.976 93.8993 1.976C94.1979 1.976 94.4513 2.03467 94.6593 2.152C94.8673 2.264 95.0246 2.43733 95.1313 2.672C95.2379 2.90667 95.2913 3.20267 95.2913 3.56V6H94.5873V3.608C94.5873 3.26667 94.5259 3.01067 94.4033 2.84C94.2806 2.66933 94.0619 2.584 93.7473 2.584C93.5126 2.584 93.3099 2.63733 93.1393 2.744C92.9739 2.84533 92.8459 2.98933 92.7552 3.176C92.6699 3.35733 92.6273 3.56267 92.6273 3.792V6H91.9233V3.608C91.9233 3.272 91.8539 3.01867 91.7153 2.848C91.5766 2.672 91.3659 2.584 91.0833 2.584C90.8539 2.584 90.6539 2.64267 90.4833 2.76C90.3179 2.872 90.1899 3.01867 90.0993 3.2C90.0086 3.38133 89.9633 3.57333 89.9633 3.776V6H89.2593ZM96.7198 7.44V2.04H97.3758V2.912C97.4931 2.61333 97.6771 2.384 97.9278 2.224C98.1838 2.05867 98.4825 1.976 98.8238 1.976C99.1918 1.976 99.5118 2.06133 99.7838 2.232C100.056 2.40267 100.266 2.64 100.416 2.944C100.565 3.248 100.64 3.608 100.64 4.024C100.64 4.424 100.565 4.77867 100.416 5.088C100.272 5.39733 100.064 5.64 99.7918 5.816C99.5198 5.98667 99.1998 6.072 98.8318 6.072C98.4958 6.072 98.2051 5.992 97.9598 5.832C97.7198 5.66667 97.5438 5.448 97.4318 5.176V7.44H96.7198ZM98.6718 5.488C99.0611 5.488 99.3678 5.35733 99.5918 5.096C99.8158 4.82933 99.9278 4.46933 99.9278 4.016C99.9278 3.56267 99.8158 3.208 99.5918 2.952C99.3678 2.69067 99.0611 2.56 98.6718 2.56C98.2878 2.56 97.9838 2.69067 97.7598 2.952C97.5358 3.208 97.4238 3.56267 97.4238 4.016C97.4238 4.46933 97.5358 4.82933 97.7598 5.096C97.9838 5.35733 98.2878 5.488 98.6718 5.488ZM103.725 6.072C103.283 6.072 102.899 5.992 102.573 5.832C102.253 5.66667 102.008 5.432 101.837 5.128C101.667 4.81867 101.581 4.45067 101.581 4.024C101.581 3.624 101.661 3.272 101.821 2.968C101.981 2.65867 102.208 2.416 102.501 2.24C102.795 2.064 103.144 1.976 103.549 1.976C103.933 1.976 104.259 2.05867 104.525 2.224C104.797 2.38933 105.003 2.62133 105.141 2.92C105.285 3.21867 105.357 3.57333 105.357 3.984V4.216H102.117V3.72H104.893L104.741 3.88C104.741 3.44267 104.637 3.10667 104.429 2.872C104.227 2.63733 103.933 2.52 103.549 2.52C103.299 2.52 103.075 2.57867 102.877 2.696C102.685 2.808 102.536 2.968 102.429 3.176C102.323 3.384 102.269 3.63733 102.269 3.936V4.016C102.269 4.336 102.328 4.60533 102.445 4.824C102.563 5.04267 102.731 5.208 102.949 5.32C103.168 5.432 103.429 5.488 103.733 5.488C103.952 5.488 104.173 5.45867 104.397 5.4C104.627 5.336 104.84 5.224 105.037 5.064L105.277 5.576C105.075 5.74667 104.832 5.872 104.549 5.952C104.272 6.032 103.997 6.072 103.725 6.072ZM106.532 6V2.048H107.18V2.96H107.188C107.284 2.66667 107.452 2.43733 107.692 2.272C107.932 2.10133 108.226 2.00533 108.572 1.984L108.932 1.968L108.996 2.616L108.42 2.664C108.052 2.696 107.764 2.81867 107.556 3.032C107.348 3.24 107.244 3.50133 107.244 3.816V6H106.532ZM109.553 4.144V3.568H111.793V4.144H109.553ZM113.199 6V0.36H116.871V0.984H113.903V2.832H116.711V3.456H113.903V5.376H116.871V6H113.199ZM119.222 6L117.566 2.048H118.326L119.614 5.296H119.574L120.862 2.048H121.598L119.934 6H119.222ZM122.398 1.096V0.304H123.262V1.096H122.398ZM122.478 6V2.048H123.19V6H122.478ZM126.186 6.072C125.824 6.072 125.506 5.98667 125.234 5.816C124.962 5.64533 124.749 5.40533 124.594 5.096C124.445 4.78667 124.37 4.42933 124.37 4.024C124.37 3.61333 124.445 3.256 124.594 2.952C124.744 2.64267 124.954 2.40267 125.226 2.232C125.498 2.06133 125.816 1.976 126.178 1.976C126.52 1.976 126.81 2.056 127.05 2.216C127.296 2.376 127.472 2.59467 127.578 2.872V0.36H128.29V6H127.634V5.128C127.517 5.42667 127.333 5.65867 127.082 5.824C126.832 5.98933 126.533 6.072 126.186 6.072ZM126.338 5.488C126.728 5.488 127.032 5.35733 127.25 5.096C127.474 4.83467 127.586 4.47733 127.586 4.024C127.586 3.57067 127.474 3.21333 127.25 2.952C127.032 2.69067 126.728 2.56 126.338 2.56C125.954 2.56 125.648 2.69067 125.418 2.952C125.194 3.21333 125.082 3.57067 125.082 4.024C125.082 4.47733 125.194 4.83467 125.418 5.096C125.642 5.35733 125.949 5.488 126.338 5.488ZM131.616 6.072C131.173 6.072 130.789 5.992 130.464 5.832C130.144 5.66667 129.899 5.432 129.728 5.128C129.557 4.81867 129.472 4.45067 129.472 4.024C129.472 3.624 129.552 3.272 129.712 2.968C129.872 2.65867 130.099 2.416 130.392 2.24C130.685 2.064 131.035 1.976 131.44 1.976C131.824 1.976 132.149 2.05867 132.416 2.224C132.688 2.38933 132.893 2.62133 133.032 2.92C133.176 3.21867 133.248 3.57333 133.248 3.984V4.216H130.008V3.72H132.784L132.632 3.88C132.632 3.44267 132.528 3.10667 132.32 2.872C132.117 2.63733 131.824 2.52 131.44 2.52C131.189 2.52 130.965 2.57867 130.768 2.696C130.576 2.808 130.427 2.968 130.32 3.176C130.213 3.384 130.16 3.63733 130.16 3.936V4.016C130.16 4.336 130.219 4.60533 130.336 4.824C130.453 5.04267 130.621 5.208 130.84 5.32C131.059 5.432 131.32 5.488 131.624 5.488C131.843 5.488 132.064 5.45867 132.288 5.4C132.517 5.336 132.731 5.224 132.928 5.064L133.168 5.576C132.965 5.74667 132.723 5.872 132.44 5.952C132.163 6.032 131.888 6.072 131.616 6.072ZM134.423 6V2.048H135.087V2.904C135.215 2.61067 135.407 2.384 135.663 2.224C135.919 2.05867 136.207 1.976 136.527 1.976C136.852 1.976 137.124 2.03467 137.343 2.152C137.562 2.264 137.724 2.44 137.831 2.68C137.943 2.91467 137.999 3.208 137.999 3.56V6H137.287V3.6C137.287 3.38667 137.258 3.20533 137.199 3.056C137.14 2.90667 137.042 2.792 136.903 2.712C136.77 2.62667 136.591 2.584 136.367 2.584C136.132 2.584 135.919 2.63733 135.727 2.744C135.54 2.85067 135.394 2.99467 135.287 3.176C135.186 3.35733 135.135 3.56 135.135 3.784V6H134.423ZM141.071 6.072C140.597 6.072 140.237 5.94667 139.991 5.696C139.751 5.44533 139.631 5.088 139.631 4.624V2.632H138.831V2.048H139.655V0.872H140.343V2.048H141.759V2.632H140.343V4.56C140.343 4.864 140.41 5.09067 140.543 5.24C140.682 5.384 140.893 5.456 141.175 5.456C141.287 5.456 141.394 5.44533 141.495 5.424C141.602 5.40267 141.703 5.37067 141.799 5.328L141.911 5.888C141.805 5.94667 141.674 5.992 141.519 6.024C141.37 6.056 141.221 6.072 141.071 6.072ZM3.24 17.072C2.70133 17.072 2.232 16.9573 1.832 16.728C1.43733 16.4933 1.13333 16.16 0.92 15.728C0.706667 15.2907 0.6 14.7733 0.6 14.176C0.6 13.5787 0.706667 13.064 0.92 12.632C1.13333 12.2 1.43733 11.8693 1.832 11.64C2.22667 11.4053 2.696 11.288 3.24 11.288C3.63467 11.288 3.99467 11.3493 4.32 11.472C4.64533 11.5893 4.92533 11.7627 5.16 11.992L4.88 12.552C4.63467 12.3333 4.38133 12.176 4.12 12.08C3.864 11.984 3.576 11.936 3.256 11.936C2.65867 11.936 2.18933 12.128 1.848 12.512C1.512 12.8907 1.344 13.4453 1.344 14.176C1.344 14.9013 1.512 15.4587 1.848 15.848C2.184 16.232 2.65333 16.424 3.256 16.424C3.576 16.424 3.864 16.376 4.12 16.28C4.38133 16.184 4.63467 16.0267 4.88 15.808L5.16 16.368C4.92533 16.5973 4.64533 16.7733 4.32 16.896C3.99467 17.0133 3.63467 17.072 3.24 17.072ZM7.79138 17.072C7.39138 17.072 7.04471 16.9867 6.75138 16.816C6.45804 16.6453 6.23138 16.408 6.07138 16.104C5.91138 15.7947 5.83138 15.432 5.83138 15.016C5.83138 14.6053 5.91138 14.248 6.07138 13.944C6.23138 13.6347 6.45804 13.3973 6.75138 13.232C7.04471 13.0613 7.39138 12.976 7.79138 12.976C8.19138 12.976 8.53538 13.0613 8.82338 13.232C9.11671 13.3973 9.34338 13.6347 9.50338 13.944C9.66338 14.248 9.74338 14.6053 9.74338 15.016C9.74338 15.432 9.66338 15.7947 9.50338 16.104C9.34871 16.408 9.12471 16.6453 8.83138 16.816C8.53804 16.9867 8.19138 17.072 7.79138 17.072ZM7.78338 16.472C8.17271 16.472 8.47938 16.3413 8.70338 16.08C8.92738 15.8187 9.03938 15.464 9.03938 15.016C9.03938 14.568 8.92738 14.216 8.70338 13.96C8.48471 13.704 8.18071 13.576 7.79138 13.576C7.40204 13.576 7.09538 13.704 6.87138 13.96C6.64738 14.216 6.53537 14.568 6.53537 15.016C6.53537 15.464 6.64738 15.8187 6.87138 16.08C7.10071 16.3413 7.40471 16.472 7.78338 16.472ZM10.9386 17V13.048H11.6026V13.904C11.7306 13.6107 11.9226 13.384 12.1786 13.224C12.4346 13.0587 12.7226 12.976 13.0426 12.976C13.3679 12.976 13.6399 13.0347 13.8586 13.152C14.0772 13.264 14.2399 13.44 14.3466 13.68C14.4586 13.9147 14.5146 14.208 14.5146 14.56V17H13.8026V14.6C13.8026 14.3867 13.7732 14.2053 13.7146 14.056C13.6559 13.9067 13.5572 13.792 13.4186 13.712C13.2852 13.6267 13.1066 13.584 12.8826 13.584C12.6479 13.584 12.4346 13.6373 12.2426 13.744C12.0559 13.8507 11.9092 13.9947 11.8026 14.176C11.7012 14.3573 11.6506 14.56 11.6506 14.784V17H10.9386ZM17.5869 17.072C17.1123 17.072 16.7523 16.9467 16.5069 16.696C16.2669 16.4453 16.1469 16.088 16.1469 15.624V13.632H15.3469V13.048H16.1709V11.872H16.8589V13.048H18.2749V13.632H16.8589V15.56C16.8589 15.864 16.9256 16.0907 17.0589 16.24C17.1976 16.384 17.4083 16.456 17.6909 16.456C17.8029 16.456 17.9096 16.4453 18.0109 16.424C18.1176 16.4027 18.2189 16.3707 18.3149 16.328L18.4269 16.888C18.3203 16.9467 18.1896 16.992 18.0349 17.024C17.8856 17.056 17.7363 17.072 17.5869 17.072ZM20.5789 17.072C20.2962 17.072 20.0429 17.0213 19.8189 16.92C19.5949 16.8133 19.4189 16.6693 19.2909 16.488C19.1629 16.3067 19.0989 16.104 19.0989 15.88C19.0989 15.576 19.1842 15.3387 19.3549 15.168C19.5255 14.992 19.7869 14.8667 20.1389 14.792C20.4962 14.7173 20.9522 14.68 21.5069 14.68H22.0749V15.168H21.5389C21.2295 15.168 20.9655 15.1787 20.7469 15.2C20.5282 15.216 20.3495 15.2507 20.2109 15.304C20.0722 15.352 19.9709 15.4187 19.9069 15.504C19.8429 15.5893 19.8109 15.7013 19.8109 15.84C19.8109 16.0533 19.8935 16.2187 20.0589 16.336C20.2295 16.4533 20.4455 16.512 20.7069 16.512C20.9362 16.512 21.1442 16.4613 21.3309 16.36C21.5229 16.2533 21.6749 16.112 21.7869 15.936C21.9042 15.76 21.9629 15.5653 21.9629 15.352V14.448C21.9629 14.1333 21.8749 13.9067 21.6989 13.768C21.5229 13.624 21.2615 13.552 20.9149 13.552C20.6802 13.552 20.4455 13.584 20.2109 13.648C19.9815 13.712 19.7442 13.8187 19.4989 13.968L19.2669 13.44C19.4322 13.3387 19.6082 13.256 19.7949 13.192C19.9815 13.1227 20.1762 13.0693 20.3789 13.032C20.5815 12.9947 20.7842 12.976 20.9869 12.976C21.3282 12.976 21.6215 13.0293 21.8669 13.136C22.1175 13.2427 22.3095 13.408 22.4429 13.632C22.5815 13.856 22.6509 14.1493 22.6509 14.512V17H22.0269V16.136C21.9522 16.3013 21.8482 16.456 21.7149 16.6C21.5815 16.744 21.4189 16.8587 21.2269 16.944C21.0402 17.0293 20.8242 17.072 20.5789 17.072ZM23.9836 12.096V11.304H24.8476V12.096H23.9836ZM24.0636 17V13.048H24.7756V17H24.0636ZM26.1964 17V13.048H26.8604V13.904C26.9884 13.6107 27.1804 13.384 27.4364 13.224C27.6924 13.0587 27.9804 12.976 28.3004 12.976C28.6257 12.976 28.8977 13.0347 29.1164 13.152C29.335 13.264 29.4977 13.44 29.6044 13.68C29.7164 13.9147 29.7724 14.208 29.7724 14.56V17H29.0604V14.6C29.0604 14.3867 29.031 14.2053 28.9724 14.056C28.9137 13.9067 28.815 13.792 28.6764 13.712C28.543 13.6267 28.3644 13.584 28.1404 13.584C27.9057 13.584 27.6924 13.6373 27.5004 13.744C27.3137 13.8507 27.167 13.9947 27.0604 14.176C26.959 14.3573 26.9084 14.56 26.9084 14.784V17H26.1964ZM33.0848 17.072C32.6421 17.072 32.2581 16.992 31.9328 16.832C31.6128 16.6667 31.3674 16.432 31.1968 16.128C31.0261 15.8187 30.9408 15.4507 30.9408 15.024C30.9408 14.624 31.0208 14.272 31.1808 13.968C31.3408 13.6587 31.5674 13.416 31.8608 13.24C32.1541 13.064 32.5034 12.976 32.9088 12.976C33.2928 12.976 33.6181 13.0587 33.8848 13.224C34.1568 13.3893 34.3621 13.6213 34.5008 13.92C34.6448 14.2187 34.7168 14.5733 34.7168 14.984V15.216H31.4768V14.72H34.2528L34.1008 14.88C34.1008 14.4427 33.9968 14.1067 33.7888 13.872C33.5861 13.6373 33.2928 13.52 32.9088 13.52C32.6581 13.52 32.4341 13.5787 32.2368 13.696C32.0448 13.808 31.8954 13.968 31.7888 14.176C31.6821 14.384 31.6288 14.6373 31.6288 14.936V15.016C31.6288 15.336 31.6874 15.6053 31.8048 15.824C31.9221 16.0427 32.0901 16.208 32.3088 16.32C32.5274 16.432 32.7888 16.488 33.0928 16.488C33.3114 16.488 33.5328 16.4587 33.7568 16.4C33.9861 16.336 34.1994 16.224 34.3968 16.064L34.6368 16.576C34.4341 16.7467 34.1914 16.872 33.9088 16.952C33.6314 17.032 33.3568 17.072 33.0848 17.072ZM35.8917 17V13.048H36.5397V13.96H36.5477C36.6437 13.6667 36.8117 13.4373 37.0517 13.272C37.2917 13.1013 37.585 13.0053 37.9317 12.984L38.2917 12.968L38.3557 13.616L37.7797 13.664C37.4117 13.696 37.1237 13.8187 36.9157 14.032C36.7077 14.24 36.6037 14.5013 36.6037 14.816V17H35.8917ZM38.3359 15.088V14.6H46.3359V15.088H38.3359ZM47.1679 17V11.36H47.8799V17H47.1679ZM50.9989 17.072C50.6363 17.072 50.3189 16.9867 50.0469 16.816C49.7749 16.6453 49.5616 16.4053 49.4069 16.096C49.2576 15.7867 49.1829 15.4293 49.1829 15.024C49.1829 14.6133 49.2576 14.256 49.4069 13.952C49.5563 13.6427 49.7669 13.4027 50.0389 13.232C50.3109 13.0613 50.6283 12.976 50.9909 12.976C51.3323 12.976 51.6229 13.056 51.8629 13.216C52.1083 13.376 52.2843 13.5947 52.3909 13.872V11.36H53.1029V17H52.4469V16.128C52.3296 16.4267 52.1456 16.6587 51.8949 16.824C51.6443 16.9893 51.3456 17.072 50.9989 17.072ZM51.1509 16.488C51.5403 16.488 51.8443 16.3573 52.0629 16.096C52.2869 15.8347 52.3989 15.4773 52.3989 15.024C52.3989 14.5707 52.2869 14.2133 52.0629 13.952C51.8443 13.6907 51.5403 13.56 51.1509 13.56C50.7669 13.56 50.4603 13.6907 50.2309 13.952C50.0069 14.2133 49.8949 14.5707 49.8949 15.024C49.8949 15.4773 50.0069 15.8347 50.2309 16.096C50.4549 16.3573 50.7616 16.488 51.1509 16.488ZM56.4285 17.072C55.9858 17.072 55.6018 16.992 55.2765 16.832C54.9565 16.6667 54.7112 16.432 54.5405 16.128C54.3698 15.8187 54.2845 15.4507 54.2845 15.024C54.2845 14.624 54.3645 14.272 54.5245 13.968C54.6845 13.6587 54.9112 13.416 55.2045 13.24C55.4978 13.064 55.8472 12.976 56.2525 12.976C56.6365 12.976 56.9618 13.0587 57.2285 13.224C57.5005 13.3893 57.7058 13.6213 57.8445 13.92C57.9885 14.2187 58.0605 14.5733 58.0605 14.984V15.216H54.8205V14.72H57.5965L57.4445 14.88C57.4445 14.4427 57.3405 14.1067 57.1325 13.872C56.9298 13.6373 56.6365 13.52 56.2525 13.52C56.0018 13.52 55.7778 13.5787 55.5805 13.696C55.3885 13.808 55.2392 13.968 55.1325 14.176C55.0258 14.384 54.9725 14.6373 54.9725 14.936V15.016C54.9725 15.336 55.0312 15.6053 55.1485 15.824C55.2658 16.0427 55.4338 16.208 55.6525 16.32C55.8712 16.432 56.1325 16.488 56.4365 16.488C56.6552 16.488 56.8765 16.4587 57.1005 16.4C57.3298 16.336 57.5432 16.224 57.7405 16.064L57.9805 16.576C57.7778 16.7467 57.5352 16.872 57.2525 16.952C56.9752 17.032 56.7005 17.072 56.4285 17.072ZM60.5554 17.072C60.2728 17.072 60.0194 17.0213 59.7954 16.92C59.5714 16.8133 59.3954 16.6693 59.2674 16.488C59.1394 16.3067 59.0754 16.104 59.0754 15.88C59.0754 15.576 59.1608 15.3387 59.3314 15.168C59.5021 14.992 59.7634 14.8667 60.1154 14.792C60.4728 14.7173 60.9288 14.68 61.4834 14.68H62.0514V15.168H61.5154C61.2061 15.168 60.9421 15.1787 60.7234 15.2C60.5048 15.216 60.3261 15.2507 60.1874 15.304C60.0488 15.352 59.9474 15.4187 59.8834 15.504C59.8194 15.5893 59.7874 15.7013 59.7874 15.84C59.7874 16.0533 59.8701 16.2187 60.0354 16.336C60.2061 16.4533 60.4221 16.512 60.6834 16.512C60.9128 16.512 61.1208 16.4613 61.3074 16.36C61.4994 16.2533 61.6514 16.112 61.7634 15.936C61.8808 15.76 61.9394 15.5653 61.9394 15.352V14.448C61.9394 14.1333 61.8514 13.9067 61.6754 13.768C61.4994 13.624 61.2381 13.552 60.8914 13.552C60.6568 13.552 60.4221 13.584 60.1874 13.648C59.9581 13.712 59.7208 13.8187 59.4754 13.968L59.2434 13.44C59.4088 13.3387 59.5848 13.256 59.7714 13.192C59.9581 13.1227 60.1528 13.0693 60.3554 13.032C60.5581 12.9947 60.7608 12.976 60.9634 12.976C61.3048 12.976 61.5981 13.0293 61.8434 13.136C62.0941 13.2427 62.2861 13.408 62.4194 13.632C62.5581 13.856 62.6274 14.1493 62.6274 14.512V17H62.0034V16.136C61.9288 16.3013 61.8248 16.456 61.6914 16.6C61.5581 16.744 61.3954 16.8587 61.2034 16.944C61.0168 17.0293 60.8008 17.072 60.5554 17.072ZM65.2401 17.072C64.8561 17.072 64.5601 16.96 64.3521 16.736C64.1441 16.512 64.0401 16.1973 64.0401 15.792V11.36H64.7521V15.72C64.7521 15.88 64.7761 16.0187 64.8241 16.136C64.8721 16.248 64.9415 16.3333 65.0321 16.392C65.1228 16.4507 65.2321 16.48 65.3601 16.48C65.4401 16.48 65.5148 16.4773 65.5841 16.472C65.6588 16.4613 65.7335 16.4453 65.8081 16.424L65.8241 16.984C65.7335 17.016 65.6401 17.0373 65.5441 17.048C65.4535 17.064 65.3521 17.072 65.2401 17.072ZM68.9804 17V11.36H72.6284V11.984H69.6924V13.864H72.4684V14.48H69.6924V17H68.9804ZM75.2601 17.072C74.8601 17.072 74.5135 16.9867 74.2201 16.816C73.9268 16.6453 73.7001 16.408 73.5401 16.104C73.3801 15.7947 73.3001 15.432 73.3001 15.016C73.3001 14.6053 73.3801 14.248 73.5401 13.944C73.7001 13.6347 73.9268 13.3973 74.2201 13.232C74.5135 13.0613 74.8601 12.976 75.2601 12.976C75.6601 12.976 76.0041 13.0613 76.2921 13.232C76.5855 13.3973 76.8121 13.6347 76.9721 13.944C77.1321 14.248 77.2121 14.6053 77.2121 15.016C77.2121 15.432 77.1321 15.7947 76.9721 16.104C76.8175 16.408 76.5935 16.6453 76.3001 16.816C76.0068 16.9867 75.6601 17.072 75.2601 17.072ZM75.2521 16.472C75.6415 16.472 75.9481 16.3413 76.1721 16.08C76.3961 15.8187 76.5081 15.464 76.5081 15.016C76.5081 14.568 76.3961 14.216 76.1721 13.96C75.9535 13.704 75.6495 13.576 75.2601 13.576C74.8708 13.576 74.5641 13.704 74.3401 13.96C74.1161 14.216 74.0041 14.568 74.0041 15.016C74.0041 15.464 74.1161 15.8187 74.3401 16.08C74.5695 16.3413 74.8735 16.472 75.2521 16.472ZM78.4073 17V13.048H79.0553V13.96H79.0633C79.1593 13.6667 79.3273 13.4373 79.5673 13.272C79.8073 13.1013 80.1006 13.0053 80.4473 12.984L80.8073 12.968L80.8713 13.616L80.2953 13.664C79.9273 13.696 79.6393 13.8187 79.4313 14.032C79.2233 14.24 79.1193 14.5013 79.1193 14.816V17H78.4073ZM84.1214 17V11.36H84.9134L86.9454 15.384H86.8974L88.9134 11.36H89.7054V17H89.0254V12.368H89.0574L87.1774 16.104H86.6574L84.7614 12.368H84.8014V17H84.1214ZM93.1707 17.072C92.728 17.072 92.344 16.992 92.0187 16.832C91.6987 16.6667 91.4534 16.432 91.2827 16.128C91.112 15.8187 91.0267 15.4507 91.0267 15.024C91.0267 14.624 91.1067 14.272 91.2667 13.968C91.4267 13.6587 91.6534 13.416 91.9467 13.24C92.24 13.064 92.5894 12.976 92.9947 12.976C93.3787 12.976 93.704 13.0587 93.9707 13.224C94.2427 13.3893 94.448 13.6213 94.5867 13.92C94.7307 14.2187 94.8027 14.5733 94.8027 14.984V15.216H91.5627V14.72H94.3387L94.1867 14.88C94.1867 14.4427 94.0827 14.1067 93.8747 13.872C93.672 13.6373 93.3787 13.52 92.9947 13.52C92.744 13.52 92.52 13.5787 92.3227 13.696C92.1307 13.808 91.9814 13.968 91.8747 14.176C91.768 14.384 91.7147 14.6373 91.7147 14.936V15.016C91.7147 15.336 91.7734 15.6053 91.8907 15.824C92.008 16.0427 92.176 16.208 92.3947 16.32C92.6134 16.432 92.8747 16.488 93.1787 16.488C93.3974 16.488 93.6187 16.4587 93.8427 16.4C94.072 16.336 94.2854 16.224 94.4827 16.064L94.7227 16.576C94.52 16.7467 94.2774 16.872 93.9947 16.952C93.7174 17.032 93.4427 17.072 93.1707 17.072ZM97.2976 17.072C97.015 17.072 96.7616 17.0213 96.5376 16.92C96.3136 16.8133 96.1376 16.6693 96.0096 16.488C95.8816 16.3067 95.8176 16.104 95.8176 15.88C95.8176 15.576 95.903 15.3387 96.0736 15.168C96.2443 14.992 96.5056 14.8667 96.8576 14.792C97.215 14.7173 97.671 14.68 98.2256 14.68H98.7936V15.168H98.2576C97.9483 15.168 97.6843 15.1787 97.4656 15.2C97.247 15.216 97.0683 15.2507 96.9296 15.304C96.791 15.352 96.6896 15.4187 96.6256 15.504C96.5616 15.5893 96.5296 15.7013 96.5296 15.84C96.5296 16.0533 96.6123 16.2187 96.7776 16.336C96.9483 16.4533 97.1643 16.512 97.4256 16.512C97.655 16.512 97.863 16.4613 98.0496 16.36C98.2416 16.2533 98.3936 16.112 98.5056 15.936C98.623 15.76 98.6816 15.5653 98.6816 15.352V14.448C98.6816 14.1333 98.5936 13.9067 98.4176 13.768C98.2416 13.624 97.9803 13.552 97.6336 13.552C97.399 13.552 97.1643 13.584 96.9296 13.648C96.7003 13.712 96.463 13.8187 96.2176 13.968L95.9856 13.44C96.151 13.3387 96.327 13.256 96.5136 13.192C96.7003 13.1227 96.895 13.0693 97.0976 13.032C97.3003 12.9947 97.503 12.976 97.7056 12.976C98.047 12.976 98.3403 13.0293 98.5856 13.136C98.8363 13.2427 99.0283 13.408 99.1616 13.632C99.3003 13.856 99.3696 14.1493 99.3696 14.512V17H98.7456V16.136C98.671 16.3013 98.567 16.456 98.4336 16.6C98.3003 16.744 98.1376 16.8587 97.9456 16.944C97.759 17.0293 97.543 17.072 97.2976 17.072ZM101.982 17.072C101.598 17.072 101.302 16.96 101.094 16.736C100.886 16.512 100.782 16.1973 100.782 15.792V11.36H101.494V15.72C101.494 15.88 101.518 16.0187 101.566 16.136C101.614 16.248 101.684 16.3333 101.774 16.392C101.865 16.4507 101.974 16.48 102.102 16.48C102.182 16.48 102.257 16.4773 102.326 16.472C102.401 16.4613 102.476 16.4453 102.55 16.424L102.566 16.984C102.476 17.016 102.382 17.0373 102.286 17.048C102.196 17.064 102.094 17.072 101.982 17.072ZM104.785 17.072C104.567 17.072 104.351 17.0507 104.137 17.008C103.929 16.9707 103.735 16.9173 103.553 16.848C103.377 16.7733 103.225 16.6827 103.097 16.576L103.329 16.072C103.463 16.1733 103.609 16.256 103.769 16.32C103.935 16.384 104.103 16.432 104.273 16.464C104.449 16.4907 104.617 16.504 104.777 16.504C105.108 16.504 105.361 16.4533 105.537 16.352C105.719 16.2507 105.809 16.1093 105.809 15.928C105.809 15.7733 105.756 15.656 105.649 15.576C105.548 15.4907 105.377 15.4267 105.137 15.384L104.313 15.24C103.945 15.1707 103.668 15.0453 103.481 14.864C103.3 14.6827 103.209 14.4453 103.209 14.152C103.209 13.9173 103.273 13.712 103.401 13.536C103.535 13.36 103.724 13.224 103.969 13.128C104.215 13.0267 104.508 12.976 104.849 12.976C105.036 12.976 105.225 12.9947 105.417 13.032C105.615 13.0693 105.796 13.1253 105.961 13.2C106.132 13.2693 106.271 13.3573 106.377 13.464L106.137 13.968C106.031 13.8667 105.903 13.7867 105.753 13.728C105.609 13.664 105.457 13.6187 105.297 13.592C105.143 13.56 104.991 13.544 104.841 13.544C104.532 13.544 104.292 13.5973 104.121 13.704C103.951 13.8053 103.865 13.9493 103.865 14.136C103.865 14.2853 103.913 14.4027 104.009 14.488C104.111 14.5733 104.273 14.6373 104.497 14.68L105.297 14.824C105.692 14.8987 105.985 15.024 106.177 15.2C106.369 15.3707 106.465 15.608 106.465 15.912C106.465 16.1467 106.396 16.352 106.257 16.528C106.119 16.6987 105.924 16.832 105.673 16.928C105.423 17.024 105.127 17.072 104.785 17.072ZM107.875 18.152L107.515 17.872C107.611 17.7813 107.685 17.6773 107.739 17.56C107.797 17.448 107.84 17.3307 107.867 17.208C107.893 17.0907 107.909 16.9813 107.915 16.88L108.051 17H107.467V16.12H108.379V16.776C108.379 16.9413 108.363 17.1067 108.331 17.272C108.299 17.4373 108.245 17.5947 108.171 17.744C108.096 17.8933 107.997 18.0293 107.875 18.152ZM112.02 17V11.36H114.356C114.948 11.36 115.406 11.488 115.732 11.744C116.057 11.9947 116.22 12.3573 116.22 12.832C116.22 13.1787 116.129 13.4613 115.948 13.68C115.766 13.8987 115.537 14.04 115.26 14.104V14.096C115.457 14.128 115.638 14.2 115.804 14.312C115.969 14.424 116.102 14.576 116.204 14.768C116.305 14.9547 116.356 15.1813 116.356 15.448C116.356 15.7787 116.281 16.0613 116.132 16.296C115.982 16.5253 115.764 16.7013 115.476 16.824C115.193 16.9413 114.849 17 114.444 17H112.02ZM112.724 16.392H114.412C114.577 16.392 114.726 16.3813 114.86 16.36C114.993 16.3333 115.108 16.2933 115.204 16.24C115.305 16.1867 115.388 16.1227 115.452 16.048C115.516 15.968 115.564 15.8773 115.595 15.776C115.628 15.6747 115.644 15.56 115.644 15.432C115.644 15.2987 115.625 15.1787 115.588 15.072C115.556 14.9653 115.505 14.8747 115.436 14.8C115.372 14.72 115.289 14.6533 115.188 14.6C115.092 14.5467 114.977 14.5093 114.844 14.488C114.716 14.4613 114.572 14.448 114.412 14.448H112.724V16.392ZM112.724 13.848H114.284C114.689 13.848 114.993 13.768 115.196 13.608C115.404 13.4427 115.508 13.2 115.508 12.88C115.508 12.576 115.406 12.3493 115.204 12.2C115.006 12.0453 114.7 11.968 114.284 11.968H112.724V13.848ZM117.601 12.096V11.304H118.465V12.096H117.601ZM117.681 17V13.048H118.393V17H117.681ZM119.814 17V13.048H120.462V13.96H120.47C120.566 13.6667 120.734 13.4373 120.974 13.272C121.214 13.1013 121.507 13.0053 121.854 12.984L122.214 12.968L122.278 13.616L121.702 13.664C121.334 13.696 121.046 13.8187 120.838 14.032C120.63 14.24 120.526 14.5013 120.526 14.816V17H119.814ZM123.88 18.44L124.632 16.744V17.248L122.856 13.048H123.616L124.904 16.304H124.864L126.152 13.048H126.896L124.632 18.44H123.88ZM129.009 17.072C128.726 17.072 128.473 17.0213 128.249 16.92C128.025 16.8133 127.849 16.6693 127.721 16.488C127.593 16.3067 127.529 16.104 127.529 15.88C127.529 15.576 127.614 15.3387 127.785 15.168C127.955 14.992 128.217 14.8667 128.569 14.792C128.926 14.7173 129.382 14.68 129.937 14.68H130.505V15.168H129.969C129.659 15.168 129.395 15.1787 129.177 15.2C128.958 15.216 128.779 15.2507 128.641 15.304C128.502 15.352 128.401 15.4187 128.337 15.504C128.273 15.5893 128.241 15.7013 128.241 15.84C128.241 16.0533 128.323 16.2187 128.489 16.336C128.659 16.4533 128.875 16.512 129.137 16.512C129.366 16.512 129.574 16.4613 129.761 16.36C129.953 16.2533 130.105 16.112 130.217 15.936C130.334 15.76 130.393 15.5653 130.393 15.352V14.448C130.393 14.1333 130.305 13.9067 130.129 13.768C129.953 13.624 129.691 13.552 129.345 13.552C129.11 13.552 128.875 13.584 128.641 13.648C128.411 13.712 128.174 13.8187 127.929 13.968L127.697 13.44C127.862 13.3387 128.038 13.256 128.225 13.192C128.411 13.1227 128.606 13.0693 128.809 13.032C129.011 12.9947 129.214 12.976 129.417 12.976C129.758 12.976 130.051 13.0293 130.297 13.136C130.547 13.2427 130.739 13.408 130.873 13.632C131.011 13.856 131.081 14.1493 131.081 14.512V17H130.457V16.136C130.382 16.3013 130.278 16.456 130.145 16.6C130.011 16.744 129.849 16.8587 129.657 16.944C129.47 17.0293 129.254 17.072 129.009 17.072ZM132.493 17V13.048H133.157V13.904C133.285 13.6107 133.477 13.384 133.733 13.224C133.989 13.0587 134.277 12.976 134.597 12.976C134.923 12.976 135.195 13.0347 135.413 13.152C135.632 13.264 135.795 13.44 135.901 13.68C136.013 13.9147 136.069 14.208 136.069 14.56V17H135.357V14.6C135.357 14.3867 135.328 14.2053 135.269 14.056C135.211 13.9067 135.112 13.792 134.973 13.712C134.84 13.6267 134.661 13.584 134.437 13.584C134.203 13.584 133.989 13.6373 133.797 13.744C133.611 13.8507 133.464 13.9947 133.357 14.176C133.256 14.3573 133.205 14.56 133.205 14.784V17H132.493ZM137.398 12.096V11.304H138.262V12.096H137.398ZM137.478 17V13.048H138.19V17H137.478ZM139.882 18.152L139.522 17.872C139.618 17.7813 139.693 17.6773 139.746 17.56C139.805 17.448 139.848 17.3307 139.874 17.208C139.901 17.0907 139.917 16.9813 139.922 16.88L140.058 17H139.474V16.12H140.386V16.776C140.386 16.9413 140.37 17.1067 140.338 17.272C140.306 17.4373 140.253 17.5947 140.178 17.744C140.104 17.8933 140.005 18.0293 139.882 18.152ZM2.72 28.072C2.41067 28.072 2.11733 28.048 1.84 28C1.56267 27.952 1.30933 27.88 1.08 27.784C0.850667 27.688 0.650667 27.5707 0.48 27.432L0.744 26.84C0.925333 26.984 1.11733 27.1013 1.32 27.192C1.528 27.2773 1.74667 27.3387 1.976 27.376C2.21067 27.4133 2.45867 27.432 2.72 27.432C3.16267 27.432 3.50133 27.344 3.736 27.168C3.976 26.992 4.096 26.752 4.096 26.448C4.096 26.288 4.056 26.1547 3.976 26.048C3.90133 25.9413 3.78133 25.8533 3.616 25.784C3.456 25.7147 3.248 25.6533 2.992 25.6L2.072 25.424C1.55467 25.3227 1.18133 25.144 0.952 24.888C0.722667 24.632 0.608 24.3093 0.608 23.92C0.608 23.5893 0.698667 23.304 0.88 23.064C1.06667 22.8187 1.32267 22.6293 1.648 22.496C1.97867 22.3573 2.35467 22.288 2.776 22.288C3.04267 22.288 3.29067 22.3147 3.52 22.368C3.75467 22.416 3.968 22.4907 4.16 22.592C4.35733 22.6933 4.53333 22.816 4.688 22.96L4.424 23.544C4.19467 23.32 3.944 23.1627 3.672 23.072C3.4 22.976 3.09867 22.928 2.768 22.928C2.49067 22.928 2.24267 22.968 2.024 23.048C1.80533 23.1227 1.632 23.2347 1.504 23.384C1.38133 23.528 1.32 23.7067 1.32 23.92C1.32 24.1547 1.39467 24.3413 1.544 24.48C1.69333 24.6133 1.94667 24.7173 2.304 24.792L3.216 24.968C3.76 25.0693 4.16267 25.24 4.424 25.48C4.68533 25.72 4.816 26.032 4.816 26.416C4.816 26.736 4.728 27.0213 4.552 27.272C4.38133 27.5227 4.13867 27.72 3.824 27.864C3.51467 28.0027 3.14667 28.072 2.72 28.072ZM7.282 28.072C6.99933 28.072 6.746 28.0213 6.522 27.92C6.298 27.8133 6.122 27.6693 5.994 27.488C5.866 27.3067 5.802 27.104 5.802 26.88C5.802 26.576 5.88733 26.3387 6.058 26.168C6.22867 25.992 6.49 25.8667 6.842 25.792C7.19933 25.7173 7.65533 25.68 8.21 25.68H8.778V26.168H8.242C7.93267 26.168 7.66867 26.1787 7.45 26.2C7.23133 26.216 7.05267 26.2507 6.914 26.304C6.77533 26.352 6.674 26.4187 6.61 26.504C6.546 26.5893 6.514 26.7013 6.514 26.84C6.514 27.0533 6.59667 27.2187 6.762 27.336C6.93267 27.4533 7.14867 27.512 7.41 27.512C7.63933 27.512 7.84733 27.4613 8.034 27.36C8.226 27.2533 8.378 27.112 8.49 26.936C8.60733 26.76 8.666 26.5653 8.666 26.352V25.448C8.666 25.1333 8.578 24.9067 8.402 24.768C8.226 24.624 7.96467 24.552 7.618 24.552C7.38333 24.552 7.14867 24.584 6.914 24.648C6.68467 24.712 6.44733 24.8187 6.202 24.968L5.97 24.44C6.13533 24.3387 6.31133 24.256 6.498 24.192C6.68467 24.1227 6.87933 24.0693 7.082 24.032C7.28467 23.9947 7.48733 23.976 7.69 23.976C8.03133 23.976 8.32467 24.0293 8.57 24.136C8.82067 24.2427 9.01267 24.408 9.146 24.632C9.28467 24.856 9.354 25.1493 9.354 25.512V28H8.73V27.136C8.65533 27.3013 8.55133 27.456 8.418 27.6C8.28467 27.744 8.122 27.8587 7.93 27.944C7.74333 28.0293 7.52733 28.072 7.282 28.072ZM11.9667 28.072C11.5827 28.072 11.2867 27.96 11.0787 27.736C10.8707 27.512 10.7667 27.1973 10.7667 26.792V22.36H11.4787V26.72C11.4787 26.88 11.5027 27.0187 11.5507 27.136C11.5987 27.248 11.668 27.3333 11.7587 27.392C11.8494 27.4507 11.9587 27.48 12.0867 27.48C12.1667 27.48 12.2414 27.4773 12.3107 27.472C12.3854 27.4613 12.46 27.4453 12.5347 27.424L12.5507 27.984C12.46 28.016 12.3667 28.0373 12.2707 28.048C12.18 28.064 12.0787 28.072 11.9667 28.072ZM14.6726 28.072C14.39 28.072 14.1366 28.0213 13.9126 27.92C13.6886 27.8133 13.5126 27.6693 13.3846 27.488C13.2566 27.3067 13.1926 27.104 13.1926 26.88C13.1926 26.576 13.278 26.3387 13.4486 26.168C13.6193 25.992 13.8806 25.8667 14.2326 25.792C14.59 25.7173 15.046 25.68 15.6006 25.68H16.1686V26.168H15.6326C15.3233 26.168 15.0593 26.1787 14.8406 26.2C14.622 26.216 14.4433 26.2507 14.3046 26.304C14.166 26.352 14.0646 26.4187 14.0006 26.504C13.9366 26.5893 13.9046 26.7013 13.9046 26.84C13.9046 27.0533 13.9873 27.2187 14.1526 27.336C14.3233 27.4533 14.5393 27.512 14.8006 27.512C15.03 27.512 15.238 27.4613 15.4246 27.36C15.6166 27.2533 15.7686 27.112 15.8806 26.936C15.998 26.76 16.0566 26.5653 16.0566 26.352V25.448C16.0566 25.1333 15.9686 24.9067 15.7926 24.768C15.6166 24.624 15.3553 24.552 15.0086 24.552C14.774 24.552 14.5393 24.584 14.3046 24.648C14.0753 24.712 13.838 24.8187 13.5926 24.968L13.3606 24.44C13.526 24.3387 13.702 24.256 13.8886 24.192C14.0753 24.1227 14.27 24.0693 14.4726 24.032C14.6753 23.9947 14.878 23.976 15.0806 23.976C15.422 23.976 15.7153 24.0293 15.9606 24.136C16.2113 24.2427 16.4033 24.408 16.5366 24.632C16.6753 24.856 16.7446 25.1493 16.7446 25.512V28H16.1206V27.136C16.046 27.3013 15.942 27.456 15.8086 27.6C15.6753 27.744 15.5126 27.8587 15.3206 27.944C15.134 28.0293 14.918 28.072 14.6726 28.072ZM19.7333 28.072C19.3706 28.072 19.0533 27.9867 18.7813 27.816C18.5093 27.6453 18.296 27.4053 18.1413 27.096C17.992 26.7867 17.9173 26.4293 17.9173 26.024C17.9173 25.6133 17.992 25.256 18.1413 24.952C18.2906 24.6427 18.5013 24.4027 18.7733 24.232C19.0453 24.0613 19.3626 23.976 19.7253 23.976C20.0666 23.976 20.3573 24.056 20.5973 24.216C20.8426 24.376 21.0186 24.5947 21.1253 24.872V22.36H21.8373V28H21.1813V27.128C21.064 27.4267 20.88 27.6587 20.6293 27.824C20.3786 27.9893 20.08 28.072 19.7333 28.072ZM19.8853 27.488C20.2746 27.488 20.5786 27.3573 20.7973 27.096C21.0213 26.8347 21.1333 26.4773 21.1333 26.024C21.1333 25.5707 21.0213 25.2133 20.7973 24.952C20.5786 24.6907 20.2746 24.56 19.8853 24.56C19.5013 24.56 19.1946 24.6907 18.9653 24.952C18.7413 25.2133 18.6293 25.5707 18.6293 26.024C18.6293 26.4773 18.7413 26.8347 18.9653 27.096C19.1893 27.3573 19.496 27.488 19.8853 27.488ZM24.7149 28.072C24.4962 28.072 24.2802 28.0507 24.0669 28.008C23.8589 27.9707 23.6642 27.9173 23.4829 27.848C23.3069 27.7733 23.1549 27.6827 23.0269 27.576L23.2589 27.072C23.3922 27.1733 23.5389 27.256 23.6989 27.32C23.8642 27.384 24.0322 27.432 24.2029 27.464C24.3789 27.4907 24.5469 27.504 24.7069 27.504C25.0375 27.504 25.2909 27.4533 25.4669 27.352C25.6482 27.2507 25.7389 27.1093 25.7389 26.928C25.7389 26.7733 25.6855 26.656 25.5789 26.576C25.4775 26.4907 25.3069 26.4267 25.0669 26.384L24.2429 26.24C23.8749 26.1707 23.5975 26.0453 23.4109 25.864C23.2295 25.6827 23.1389 25.4453 23.1389 25.152C23.1389 24.9173 23.2029 24.712 23.3309 24.536C23.4642 24.36 23.6535 24.224 23.8989 24.128C24.1442 24.0267 24.4375 23.976 24.7789 23.976C24.9655 23.976 25.1549 23.9947 25.3469 24.032C25.5442 24.0693 25.7255 24.1253 25.8909 24.2C26.0615 24.2693 26.2002 24.3573 26.3069 24.464L26.0669 24.968C25.9602 24.8667 25.8322 24.7867 25.6829 24.728C25.5389 24.664 25.3869 24.6187 25.2269 24.592C25.0722 24.56 24.9202 24.544 24.7709 24.544C24.4615 24.544 24.2215 24.5973 24.0509 24.704C23.8802 24.8053 23.7949 24.9493 23.7949 25.136C23.7949 25.2853 23.8429 25.4027 23.9389 25.488C24.0402 25.5733 24.2029 25.6373 24.4269 25.68L25.2269 25.824C25.6215 25.8987 25.9149 26.024 26.1069 26.2C26.2989 26.3707 26.3949 26.608 26.3949 26.912C26.3949 27.1467 26.3255 27.352 26.1869 27.528C26.0482 27.6987 25.8535 27.832 25.6029 27.928C25.3522 28.024 25.0562 28.072 24.7149 28.072ZM27.8043 29.152L27.4443 28.872C27.5403 28.7813 27.615 28.6773 27.6683 28.56C27.727 28.448 27.7696 28.3307 27.7963 28.208C27.823 28.0907 27.839 27.9813 27.8443 27.88L27.9803 28H27.3963V27.12H28.3083V27.776C28.3083 27.9413 28.2923 28.1067 28.2603 28.272C28.2283 28.4373 28.175 28.5947 28.1003 28.744C28.0256 28.8933 27.927 29.0293 27.8043 29.152ZM31.3732 28L33.8532 22.36H34.4932L36.9732 28H36.2292L35.5412 26.392L35.8932 26.616H32.4532L32.7972 26.392L32.1172 28H31.3732ZM34.1572 23.176L32.8932 26.16L32.6932 26.008H35.6532L35.4532 26.16L34.1892 23.176H34.1572ZM37.9386 28V24.048H38.6026V24.904C38.7306 24.6107 38.9226 24.384 39.1786 24.224C39.4346 24.0587 39.7226 23.976 40.0426 23.976C40.3679 23.976 40.6399 24.0347 40.8586 24.152C41.0772 24.264 41.2399 24.44 41.3466 24.68C41.4586 24.9147 41.5146 25.208 41.5146 25.56V28H40.8026V25.6C40.8026 25.3867 40.7732 25.2053 40.7146 25.056C40.6559 24.9067 40.5572 24.792 40.4186 24.712C40.2852 24.6267 40.1066 24.584 39.8826 24.584C39.6479 24.584 39.4346 24.6373 39.2426 24.744C39.0559 24.8507 38.9092 24.9947 38.8026 25.176C38.7012 25.3573 38.6506 25.56 38.6506 25.784V28H37.9386ZM44.4989 28.072C44.1363 28.072 43.8189 27.9867 43.5469 27.816C43.2749 27.6453 43.0616 27.4053 42.9069 27.096C42.7576 26.7867 42.6829 26.4293 42.6829 26.024C42.6829 25.6133 42.7576 25.256 42.9069 24.952C43.0563 24.6427 43.2669 24.4027 43.5389 24.232C43.8109 24.0613 44.1283 23.976 44.4909 23.976C44.8323 23.976 45.1229 24.056 45.3629 24.216C45.6083 24.376 45.7843 24.5947 45.8909 24.872V22.36H46.6029V28H45.9469V27.128C45.8296 27.4267 45.6456 27.6587 45.3949 27.824C45.1443 27.9893 44.8456 28.072 44.4989 28.072ZM44.6509 27.488C45.0403 27.488 45.3443 27.3573 45.5629 27.096C45.7869 26.8347 45.8989 26.4773 45.8989 26.024C45.8989 25.5707 45.7869 25.2133 45.5629 24.952C45.3443 24.6907 45.0403 24.56 44.6509 24.56C44.2669 24.56 43.9603 24.6907 43.7309 24.952C43.5069 25.2133 43.3949 25.5707 43.3949 26.024C43.3949 26.4773 43.5069 26.8347 43.7309 27.096C43.9549 27.3573 44.2616 27.488 44.6509 27.488ZM50.3949 28V22.36H51.1869L53.2189 26.384H53.1709L55.1869 22.36H55.9789V28H55.2989V23.368H55.3309L53.4509 27.104H52.9309L51.0349 23.368H51.0749V28H50.3949ZM59.4441 28.072C59.0015 28.072 58.6175 27.992 58.2921 27.832C57.9721 27.6667 57.7268 27.432 57.5561 27.128C57.3855 26.8187 57.3001 26.4507 57.3001 26.024C57.3001 25.624 57.3801 25.272 57.5401 24.968C57.7001 24.6587 57.9268 24.416 58.2201 24.24C58.5135 24.064 58.8628 23.976 59.2681 23.976C59.6521 23.976 59.9775 24.0587 60.2441 24.224C60.5161 24.3893 60.7215 24.6213 60.8601 24.92C61.0041 25.2187 61.0761 25.5733 61.0761 25.984V26.216H57.8361V25.72H60.6121L60.4601 25.88C60.4601 25.4427 60.3561 25.1067 60.1481 24.872C59.9455 24.6373 59.6521 24.52 59.2681 24.52C59.0175 24.52 58.7935 24.5787 58.5961 24.696C58.4041 24.808 58.2548 24.968 58.1481 25.176C58.0415 25.384 57.9881 25.6373 57.9881 25.936V26.016C57.9881 26.336 58.0468 26.6053 58.1641 26.824C58.2815 27.0427 58.4495 27.208 58.6681 27.32C58.8868 27.432 59.1481 27.488 59.4521 27.488C59.6708 27.488 59.8921 27.4587 60.1161 27.4C60.3455 27.336 60.5588 27.224 60.7561 27.064L60.9961 27.576C60.7935 27.7467 60.5508 27.872 60.2681 27.952C59.9908 28.032 59.7161 28.072 59.4441 28.072ZM63.5711 28.072C63.2884 28.072 63.0351 28.0213 62.8111 27.92C62.5871 27.8133 62.4111 27.6693 62.2831 27.488C62.1551 27.3067 62.0911 27.104 62.0911 26.88C62.0911 26.576 62.1764 26.3387 62.3471 26.168C62.5177 25.992 62.7791 25.8667 63.1311 25.792C63.4884 25.7173 63.9444 25.68 64.4991 25.68H65.0671V26.168H64.5311C64.2217 26.168 63.9577 26.1787 63.7391 26.2C63.5204 26.216 63.3417 26.2507 63.2031 26.304C63.0644 26.352 62.9631 26.4187 62.8991 26.504C62.8351 26.5893 62.8031 26.7013 62.8031 26.84C62.8031 27.0533 62.8857 27.2187 63.0511 27.336C63.2217 27.4533 63.4377 27.512 63.6991 27.512C63.9284 27.512 64.1364 27.4613 64.3231 27.36C64.5151 27.2533 64.6671 27.112 64.7791 26.936C64.8964 26.76 64.9551 26.5653 64.9551 26.352V25.448C64.9551 25.1333 64.8671 24.9067 64.6911 24.768C64.5151 24.624 64.2537 24.552 63.9071 24.552C63.6724 24.552 63.4377 24.584 63.2031 24.648C62.9737 24.712 62.7364 24.8187 62.4911 24.968L62.2591 24.44C62.4244 24.3387 62.6004 24.256 62.7871 24.192C62.9737 24.1227 63.1684 24.0693 63.3711 24.032C63.5737 23.9947 63.7764 23.976 63.9791 23.976C64.3204 23.976 64.6137 24.0293 64.8591 24.136C65.1097 24.2427 65.3017 24.408 65.4351 24.632C65.5737 24.856 65.6431 25.1493 65.6431 25.512V28H65.0191V27.136C64.9444 27.3013 64.8404 27.456 64.7071 27.6C64.5737 27.744 64.4111 27.8587 64.2191 27.944C64.0324 28.0293 63.8164 28.072 63.5711 28.072ZM68.2558 28.072C67.8718 28.072 67.5758 27.96 67.3678 27.736C67.1598 27.512 67.0558 27.1973 67.0558 26.792V22.36H67.7678V26.72C67.7678 26.88 67.7918 27.0187 67.8398 27.136C67.8878 27.248 67.9571 27.3333 68.0478 27.392C68.1384 27.4507 68.2478 27.48 68.3758 27.48C68.4558 27.48 68.5304 27.4773 68.5998 27.472C68.6744 27.4613 68.7491 27.4453 68.8238 27.424L68.8398 27.984C68.7491 28.016 68.6558 28.0373 68.5598 28.048C68.4691 28.064 68.3678 28.072 68.2558 28.072ZM71.9961 28V22.36H74.3161C74.7214 22.36 75.0654 22.4267 75.3481 22.56C75.6307 22.6933 75.8467 22.888 75.9961 23.144C76.1507 23.3947 76.2281 23.6987 76.2281 24.056C76.2281 24.4133 76.1507 24.72 75.9961 24.976C75.8467 25.232 75.6281 25.4293 75.3401 25.568C75.0574 25.7067 74.7161 25.776 74.3161 25.776H72.7081V28H71.9961ZM72.7081 25.168H74.2121C74.6387 25.168 74.9614 25.0773 75.1801 24.896C75.3987 24.7093 75.5081 24.432 75.5081 24.064C75.5081 23.6907 75.3987 23.416 75.1801 23.24C74.9614 23.0587 74.6387 22.968 74.2121 22.968H72.7081V25.168ZM77.2901 28V24.048H77.9381V24.96H77.9461C78.0421 24.6667 78.2101 24.4373 78.4501 24.272C78.6901 24.1013 78.9835 24.0053 79.3301 23.984L79.6901 23.968L79.7541 24.616L79.1781 24.664C78.8101 24.696 78.5221 24.8187 78.3141 25.032C78.1061 25.24 78.0021 25.5013 78.0021 25.816V28H77.2901ZM82.491 28.072C82.0483 28.072 81.6643 27.992 81.339 27.832C81.019 27.6667 80.7737 27.432 80.603 27.128C80.4323 26.8187 80.347 26.4507 80.347 26.024C80.347 25.624 80.427 25.272 80.587 24.968C80.747 24.6587 80.9737 24.416 81.267 24.24C81.5603 24.064 81.9097 23.976 82.315 23.976C82.699 23.976 83.0243 24.0587 83.291 24.224C83.563 24.3893 83.7683 24.6213 83.907 24.92C84.051 25.2187 84.123 25.5733 84.123 25.984V26.216H80.883V25.72H83.659L83.507 25.88C83.507 25.4427 83.403 25.1067 83.195 24.872C82.9923 24.6373 82.699 24.52 82.315 24.52C82.0643 24.52 81.8403 24.5787 81.643 24.696C81.451 24.808 81.3017 24.968 81.195 25.176C81.0883 25.384 81.035 25.6373 81.035 25.936V26.016C81.035 26.336 81.0937 26.6053 81.211 26.824C81.3283 27.0427 81.4963 27.208 81.715 27.32C81.9337 27.432 82.195 27.488 82.499 27.488C82.7177 27.488 82.939 27.4587 83.163 27.4C83.3923 27.336 83.6057 27.224 83.803 27.064L84.043 27.576C83.8403 27.7467 83.5977 27.872 83.315 27.952C83.0377 28.032 82.763 28.072 82.491 28.072ZM85.2979 29.44V24.04H85.9539V24.912C86.0713 24.6133 86.2553 24.384 86.5059 24.224C86.7619 24.0587 87.0606 23.976 87.4019 23.976C87.7699 23.976 88.0899 24.0613 88.3619 24.232C88.6339 24.4027 88.8446 24.64 88.9939 24.944C89.1433 25.248 89.2179 25.608 89.2179 26.024C89.2179 26.424 89.1433 26.7787 88.9939 27.088C88.8499 27.3973 88.6419 27.64 88.3699 27.816C88.0979 27.9867 87.7779 28.072 87.4099 28.072C87.0739 28.072 86.7833 27.992 86.5379 27.832C86.2979 27.6667 86.1219 27.448 86.0099 27.176V29.44H85.2979ZM87.2499 27.488C87.6393 27.488 87.9459 27.3573 88.1699 27.096C88.3939 26.8293 88.5059 26.4693 88.5059 26.016C88.5059 25.5627 88.3939 25.208 88.1699 24.952C87.9459 24.6907 87.6393 24.56 87.2499 24.56C86.8659 24.56 86.5619 24.6907 86.3379 24.952C86.1139 25.208 86.0019 25.5627 86.0019 26.016C86.0019 26.4693 86.1139 26.8293 86.3379 27.096C86.5619 27.3573 86.8659 27.488 87.2499 27.488ZM90.0838 28V27.12H90.9958V28H90.0838Z" fill="black"/>
</svg>
