<svg width="174" height="29" viewBox="0 0 174 29" fill="none" xmlns="http://www.w3.org/2000/svg">
<rect y="1" width="24" height="24" rx="12" fill="#F9DDD9"/>
<path d="M12 19.9979C12 19.9979 17.9991 17.9982 17.9991 12.999" stroke="#CE3439" stroke-linecap="round" stroke-linejoin="round"/>
<path d="M17.9991 12.9989V6.99984C17.9991 6.99984 15.9994 6 12 6" stroke="#CE3439" stroke-linecap="round" stroke-linejoin="round"/>
<path d="M12 19.9979C12 19.9979 6.00098 17.9982 6.00098 12.999" stroke="#CE3439" stroke-linecap="round" stroke-linejoin="round"/>
<path d="M6.00098 12.9989V6.99984C6.00098 6.99984 8.00067 6 12 6" stroke="#CE3439" stroke-linecap="round" stroke-linejoin="round"/>
<path d="M15.9999 8.99951C12.0005 11.999 11.0007 15.9984 11.0007 15.9984C11.0007 15.9984 10.0008 14.805 9.00098 13.9987" stroke="#CE3439" stroke-linecap="round" stroke-linejoin="round"/>
<path d="M36.736 9.072C36.432 9.072 36.1387 9.048 35.856 9C35.5733 8.95733 35.3147 8.89067 35.08 8.8C34.8507 8.70933 34.648 8.59733 34.472 8.464L34.768 7.744C34.9547 7.87733 35.1493 7.98667 35.352 8.072C35.56 8.152 35.7787 8.21067 36.008 8.248C36.2427 8.28533 36.4853 8.304 36.736 8.304C37.1573 8.304 37.4773 8.22667 37.696 8.072C37.92 7.91733 38.032 7.70133 38.032 7.424C38.032 7.27467 37.9947 7.15467 37.92 7.064C37.8507 6.968 37.7413 6.89067 37.592 6.832C37.4427 6.768 37.248 6.712 37.008 6.664L36.088 6.488C35.5653 6.38667 35.184 6.20533 34.944 5.944C34.7093 5.68267 34.592 5.34933 34.592 4.944C34.592 4.608 34.688 4.31733 34.88 4.072C35.072 3.82133 35.336 3.62933 35.672 3.496C36.008 3.35733 36.392 3.288 36.824 3.288C37.0907 3.288 37.344 3.312 37.584 3.36C37.824 3.408 38.0427 3.48 38.24 3.576C38.4427 3.672 38.6187 3.78933 38.768 3.928L38.464 4.632C38.24 4.424 37.9893 4.27733 37.712 4.192C37.44 4.10133 37.1413 4.056 36.816 4.056C36.5547 4.056 36.3227 4.09067 36.12 4.16C35.9173 4.22933 35.7573 4.33067 35.64 4.464C35.528 4.592 35.472 4.752 35.472 4.944C35.472 5.15733 35.5413 5.32533 35.68 5.448C35.8187 5.56533 36.0587 5.65867 36.4 5.728L37.312 5.896C37.856 5.99733 38.2587 6.17067 38.52 6.416C38.7813 6.66133 38.912 6.984 38.912 7.384C38.912 7.71467 38.8213 8.008 38.64 8.264C38.464 8.51467 38.2133 8.712 37.888 8.856C37.5627 9 37.1787 9.072 36.736 9.072ZM41.9763 9.072C41.5123 9.072 41.115 8.992 40.7843 8.832C40.4536 8.66667 40.2003 8.42933 40.0243 8.12C39.8483 7.81067 39.7603 7.44267 39.7603 7.016C39.7603 6.616 39.8403 6.26133 40.0003 5.952C40.1656 5.64267 40.4003 5.4 40.7043 5.224C41.0083 5.04267 41.3656 4.952 41.7763 4.952C42.1656 4.952 42.499 5.03467 42.7763 5.2C43.0536 5.36533 43.267 5.6 43.4163 5.904C43.5656 6.208 43.6403 6.57067 43.6403 6.992V7.264H40.4403V6.696H43.0403L42.8963 6.84C42.8963 6.43467 42.8003 6.128 42.6083 5.92C42.4163 5.70667 42.1443 5.6 41.7923 5.6C41.5523 5.6 41.3416 5.65333 41.1603 5.76C40.9843 5.86133 40.8456 6.01067 40.7443 6.208C40.643 6.4 40.5923 6.63467 40.5923 6.912V7C40.5923 7.30933 40.6456 7.56533 40.7523 7.768C40.8643 7.97067 41.0243 8.12267 41.2323 8.224C41.4456 8.32533 41.7016 8.376 42.0003 8.376C42.219 8.376 42.4376 8.34933 42.6563 8.296C42.8803 8.23733 43.0883 8.13333 43.2803 7.984L43.5523 8.592C43.3443 8.75733 43.099 8.88 42.8163 8.96C42.5336 9.03467 42.2536 9.072 41.9763 9.072ZM46.5505 9.072C46.1398 9.072 45.7798 8.98933 45.4705 8.824C45.1665 8.65333 44.9292 8.41333 44.7585 8.104C44.5878 7.79467 44.5025 7.42933 44.5025 7.008C44.5025 6.58667 44.5878 6.224 44.7585 5.92C44.9292 5.61067 45.1665 5.37333 45.4705 5.208C45.7798 5.03733 46.1425 4.952 46.5585 4.952C46.8358 4.952 47.0998 4.99733 47.3505 5.088C47.6065 5.17867 47.8145 5.29867 47.9745 5.448L47.6945 6.088C47.5452 5.96 47.3772 5.864 47.1905 5.8C47.0038 5.73067 46.8225 5.696 46.6465 5.696C46.2518 5.696 45.9425 5.81067 45.7185 6.04C45.4998 6.264 45.3905 6.58933 45.3905 7.016C45.3905 7.43733 45.4998 7.76267 45.7185 7.992C45.9425 8.22133 46.2492 8.336 46.6385 8.336C46.8198 8.336 47.0012 8.304 47.1825 8.24C47.3692 8.17067 47.5345 8.07467 47.6785 7.952L47.9585 8.592C47.8038 8.74133 47.6012 8.85867 47.3505 8.944C47.0998 9.02933 46.8332 9.072 46.5505 9.072ZM50.3243 9.072C49.9936 9.072 49.7163 9.01333 49.4923 8.896C49.2683 8.77333 49.0976 8.592 48.9803 8.352C48.8683 8.112 48.8123 7.81067 48.8123 7.448V5.032H49.6923V7.416C49.6923 7.60267 49.7189 7.768 49.7723 7.912C49.8309 8.05067 49.9216 8.15733 50.0443 8.232C50.1723 8.30667 50.3376 8.344 50.5403 8.344C50.7429 8.344 50.9269 8.296 51.0923 8.2C51.2576 8.09867 51.3883 7.96533 51.4843 7.8C51.5803 7.62933 51.6283 7.44533 51.6283 7.248V5.032H52.5003V9H51.6923V8.152H51.7003C51.5669 8.44 51.3829 8.66667 51.1483 8.832C50.9189 8.992 50.6443 9.072 50.3243 9.072ZM53.8439 9V5.032H54.6279V5.976H54.6359C54.7319 5.67733 54.8945 5.44267 55.1239 5.272C55.3585 5.096 55.6465 4.99733 55.9879 4.976L56.3879 4.944L56.4679 5.744L55.8279 5.8C55.4759 5.82667 55.2039 5.94133 55.0119 6.144C54.8199 6.34133 54.7239 6.58933 54.7239 6.888V9H53.8439ZM59.2263 9.072C58.7623 9.072 58.365 8.992 58.0343 8.832C57.7036 8.66667 57.4503 8.42933 57.2743 8.12C57.0983 7.81067 57.0103 7.44267 57.0103 7.016C57.0103 6.616 57.0903 6.26133 57.2503 5.952C57.4156 5.64267 57.6503 5.4 57.9543 5.224C58.2583 5.04267 58.6156 4.952 59.0263 4.952C59.4156 4.952 59.749 5.03467 60.0263 5.2C60.3036 5.36533 60.517 5.6 60.6663 5.904C60.8156 6.208 60.8903 6.57067 60.8903 6.992V7.264H57.6903V6.696H60.2903L60.1463 6.84C60.1463 6.43467 60.0503 6.128 59.8583 5.92C59.6663 5.70667 59.3943 5.6 59.0423 5.6C58.8023 5.6 58.5916 5.65333 58.4103 5.76C58.2343 5.86133 58.0956 6.01067 57.9943 6.208C57.893 6.4 57.8423 6.63467 57.8423 6.912V7C57.8423 7.30933 57.8956 7.56533 58.0023 7.768C58.1143 7.97067 58.2743 8.12267 58.4823 8.224C58.6956 8.32533 58.9516 8.376 59.2503 8.376C59.469 8.376 59.6876 8.34933 59.9063 8.296C60.1303 8.23733 60.3383 8.13333 60.5303 7.984L60.8023 8.592C60.5943 8.75733 60.349 8.88 60.0663 8.96C59.7836 9.03467 59.5036 9.072 59.2263 9.072ZM64.1616 7.2V6.496H66.4656V7.2H64.1616ZM71.4803 9V4.128H69.4963V3.36H74.3443V4.128H72.3603V9H71.4803ZM75.9303 9.072C75.6423 9.072 75.3836 9.01867 75.1543 8.912C74.9303 8.80533 74.7516 8.66133 74.6183 8.48C74.4903 8.29333 74.4263 8.08267 74.4263 7.848C74.4263 7.55467 74.5116 7.32 74.6823 7.144C74.8529 6.96267 75.1143 6.832 75.4663 6.752C75.8236 6.672 76.2796 6.632 76.8343 6.632H77.3943V7.192H76.8743C76.5969 7.192 76.3569 7.20267 76.1543 7.224C75.9569 7.24 75.7943 7.272 75.6663 7.32C75.5383 7.36267 75.4423 7.424 75.3783 7.504C75.3196 7.57867 75.2903 7.67733 75.2903 7.8C75.2903 8.00267 75.3649 8.15733 75.5143 8.264C75.6689 8.37067 75.8689 8.424 76.1143 8.424C76.3276 8.424 76.5196 8.376 76.6903 8.28C76.8663 8.17867 77.0049 8.048 77.1063 7.888C77.2129 7.72267 77.2663 7.54133 77.2663 7.344V6.456C77.2663 6.16267 77.1809 5.95467 77.0103 5.832C76.8449 5.704 76.5969 5.64 76.2663 5.64C76.0369 5.64 75.8049 5.672 75.5703 5.736C75.3409 5.8 75.1009 5.904 74.8503 6.048L74.5943 5.424C74.7596 5.32267 74.9383 5.23733 75.1303 5.168C75.3276 5.09867 75.5329 5.04533 75.7463 5.008C75.9596 4.97067 76.1703 4.952 76.3783 4.952C76.7356 4.952 77.0449 5.008 77.3063 5.12C77.5676 5.232 77.7676 5.40533 77.9062 5.64C78.0449 5.86933 78.1143 6.17067 78.1143 6.544V9H77.3623V8.152H77.3543C77.2796 8.32267 77.1756 8.48 77.0423 8.624C76.9143 8.76267 76.7569 8.872 76.5703 8.952C76.3836 9.032 76.1703 9.072 75.9303 9.072ZM79.4614 9V5.032H80.2534V5.872H80.2614C80.3308 5.696 80.4294 5.54133 80.5574 5.408C80.6908 5.26933 80.8454 5.16 81.0214 5.08C81.2028 4.99467 81.4001 4.952 81.6134 4.952C81.9494 4.952 82.2268 5.03733 82.4454 5.208C82.6694 5.37333 82.8134 5.592 82.8774 5.864H82.8694C82.9708 5.608 83.1388 5.392 83.3734 5.216C83.6081 5.04 83.9014 4.952 84.2534 4.952C84.5574 4.952 84.8134 5.01333 85.0214 5.136C85.2294 5.25333 85.3868 5.43467 85.4934 5.68C85.6001 5.92 85.6534 6.22667 85.6534 6.6V9H84.7894V6.64C84.7894 6.32 84.7334 6.08267 84.6214 5.928C84.5094 5.768 84.3094 5.688 84.0214 5.688C83.8028 5.688 83.6161 5.736 83.4614 5.832C83.3068 5.928 83.1868 6.06133 83.1014 6.232C83.0214 6.39733 82.9814 6.58933 82.9814 6.808V9H82.1254V6.64C82.1254 6.32533 82.0614 6.088 81.9334 5.928C81.8108 5.768 81.6188 5.688 81.3574 5.688C81.1441 5.688 80.9601 5.74133 80.8054 5.848C80.6508 5.94933 80.5308 6.08533 80.4454 6.256C80.3654 6.42133 80.3254 6.6 80.3254 6.792V9H79.4614ZM87.0001 10.44V5.024H87.8001V5.872C87.9228 5.57867 88.1095 5.352 88.3601 5.192C88.6108 5.032 88.9041 4.952 89.2401 4.952C89.6081 4.952 89.9281 5.04 90.2001 5.216C90.4721 5.38667 90.6801 5.62667 90.8241 5.936C90.9735 6.24 91.0481 6.6 91.0481 7.016C91.0481 7.416 90.9761 7.77333 90.8321 8.088C90.6881 8.39733 90.4801 8.64 90.2081 8.816C89.9361 8.98667 89.6135 9.072 89.2401 9.072C88.9148 9.072 88.6321 8.99467 88.3921 8.84C88.1575 8.68533 87.9841 8.48 87.8721 8.224V10.44H87.0001ZM89.0241 8.384C89.3815 8.384 89.6615 8.26133 89.8641 8.016C90.0721 7.77067 90.1761 7.43467 90.1761 7.008C90.1761 6.58133 90.0721 6.248 89.8641 6.008C89.6615 5.768 89.3815 5.648 89.0241 5.648C88.6615 5.648 88.3761 5.768 88.1681 6.008C87.9655 6.248 87.8641 6.58133 87.8641 7.008C87.8641 7.43467 87.9681 7.77067 88.1761 8.016C88.3841 8.26133 88.6668 8.384 89.0241 8.384ZM94.156 9.072C93.692 9.072 93.2947 8.992 92.964 8.832C92.6333 8.66667 92.38 8.42933 92.204 8.12C92.028 7.81067 91.94 7.44267 91.94 7.016C91.94 6.616 92.02 6.26133 92.18 5.952C92.3453 5.64267 92.58 5.4 92.884 5.224C93.188 5.04267 93.5453 4.952 93.956 4.952C94.3453 4.952 94.6787 5.03467 94.956 5.2C95.2333 5.36533 95.4467 5.6 95.596 5.904C95.7453 6.208 95.82 6.57067 95.82 6.992V7.264H92.62V6.696H95.22L95.076 6.84C95.076 6.43467 94.98 6.128 94.788 5.92C94.596 5.70667 94.324 5.6 93.972 5.6C93.732 5.6 93.5213 5.65333 93.34 5.76C93.164 5.86133 93.0253 6.01067 92.924 6.208C92.8227 6.4 92.772 6.63467 92.772 6.912V7C92.772 7.30933 92.8253 7.56533 92.932 7.768C93.044 7.97067 93.204 8.12267 93.412 8.224C93.6253 8.32533 93.8813 8.376 94.18 8.376C94.3987 8.376 94.6173 8.34933 94.836 8.296C95.06 8.23733 95.268 8.13333 95.46 7.984L95.732 8.592C95.524 8.75733 95.2787 8.88 94.996 8.96C94.7133 9.03467 94.4333 9.072 94.156 9.072ZM96.9142 9V5.032H97.6982V5.976H97.7062C97.8022 5.67733 97.9649 5.44267 98.1942 5.272C98.4289 5.096 98.7169 4.99733 99.0582 4.976L99.4582 4.944L99.5382 5.744L98.8982 5.8C98.5462 5.82667 98.2742 5.94133 98.0822 6.144C97.8902 6.34133 97.7942 6.58933 97.7942 6.888V9H96.9142ZM102.776 9V3.36H106.544V4.104H103.648V5.768H106.376V6.512H103.648V8.256H106.544V9H102.776ZM108.823 9L107.159 5.032H108.095L109.287 8.136H109.247L110.455 5.032H111.359L109.687 9H108.823ZM112.037 4.152V3.232H113.069V4.152H112.037ZM112.125 9V5.032H112.997V9H112.125ZM115.936 9.072C115.563 9.072 115.24 8.98667 114.968 8.816C114.696 8.64533 114.485 8.40533 114.336 8.096C114.187 7.78133 114.112 7.42133 114.112 7.016C114.112 6.60533 114.187 6.248 114.336 5.944C114.485 5.63467 114.693 5.392 114.96 5.216C115.232 5.04 115.552 4.952 115.92 4.952C116.251 4.952 116.533 5.02933 116.768 5.184C117.008 5.33867 117.181 5.54667 117.288 5.808V3.36H118.168V9H117.368V8.16H117.36C117.243 8.448 117.059 8.672 116.808 8.832C116.563 8.992 116.272 9.072 115.936 9.072ZM116.144 8.384C116.507 8.384 116.789 8.264 116.992 8.024C117.2 7.77867 117.304 7.44267 117.304 7.016C117.304 6.58933 117.2 6.256 116.992 6.016C116.789 5.77067 116.509 5.648 116.152 5.648C115.789 5.648 115.504 5.77067 115.296 6.016C115.093 6.256 114.992 6.58933 114.992 7.016C114.992 7.44267 115.093 7.77867 115.296 8.024C115.504 8.264 115.787 8.384 116.144 8.384ZM121.5 9.072C121.036 9.072 120.638 8.992 120.308 8.832C119.977 8.66667 119.724 8.42933 119.548 8.12C119.372 7.81067 119.284 7.44267 119.284 7.016C119.284 6.616 119.364 6.26133 119.524 5.952C119.689 5.64267 119.924 5.4 120.228 5.224C120.532 5.04267 120.889 4.952 121.3 4.952C121.689 4.952 122.022 5.03467 122.3 5.2C122.577 5.36533 122.79 5.6 122.94 5.904C123.089 6.208 123.164 6.57067 123.164 6.992V7.264H119.964V6.696H122.564L122.42 6.84C122.42 6.43467 122.324 6.128 122.132 5.92C121.94 5.70667 121.668 5.6 121.316 5.6C121.076 5.6 120.865 5.65333 120.684 5.76C120.508 5.86133 120.369 6.01067 120.268 6.208C120.166 6.4 120.116 6.63467 120.116 6.912V7C120.116 7.30933 120.169 7.56533 120.276 7.768C120.388 7.97067 120.548 8.12267 120.756 8.224C120.969 8.32533 121.225 8.376 121.524 8.376C121.742 8.376 121.961 8.34933 122.18 8.296C122.404 8.23733 122.612 8.13333 122.804 7.984L123.076 8.592C122.868 8.75733 122.622 8.88 122.34 8.96C122.057 9.03467 121.777 9.072 121.5 9.072ZM124.258 9V5.032H125.066V5.864H125.074C125.202 5.576 125.391 5.352 125.642 5.192C125.898 5.032 126.186 4.952 126.506 4.952C126.831 4.952 127.103 5.01333 127.322 5.136C127.546 5.25333 127.711 5.43467 127.818 5.68C127.93 5.92 127.986 6.22667 127.986 6.6V9H127.106V6.64C127.106 6.43733 127.077 6.26667 127.018 6.128C126.965 5.984 126.877 5.87467 126.754 5.8C126.631 5.72533 126.469 5.688 126.266 5.688C126.047 5.688 125.853 5.73867 125.682 5.84C125.511 5.936 125.375 6.06933 125.274 6.24C125.178 6.40533 125.13 6.592 125.13 6.8V9H124.258ZM131.081 9.072C130.569 9.072 130.185 8.94133 129.929 8.68C129.678 8.41867 129.553 8.04267 129.553 7.552V5.744H128.761V5.032H129.585V3.88H130.425V5.032H131.825V5.744H130.425V7.496C130.425 7.77867 130.489 7.98933 130.617 8.128C130.75 8.26133 130.95 8.328 131.217 8.328C131.323 8.328 131.427 8.31733 131.529 8.296C131.635 8.27467 131.737 8.248 131.833 8.216L131.961 8.888C131.843 8.952 131.707 8.99733 131.553 9.024C131.398 9.056 131.241 9.072 131.081 9.072ZM137.647 9.08C137.098 9.08 136.618 8.96267 136.207 8.728C135.802 8.49333 135.487 8.16 135.263 7.728C135.045 7.296 134.935 6.77867 134.935 6.176C134.935 5.57333 135.045 5.05867 135.263 4.632C135.487 4.2 135.802 3.86933 136.207 3.64C136.613 3.40533 137.093 3.288 137.647 3.288C138.042 3.288 138.402 3.344 138.727 3.456C139.058 3.568 139.335 3.73867 139.559 3.968L139.255 4.656C139.01 4.448 138.759 4.29867 138.503 4.208C138.253 4.11733 137.975 4.072 137.671 4.072C137.106 4.072 136.661 4.25067 136.335 4.608C136.015 4.96533 135.855 5.488 135.855 6.176C135.855 6.864 136.015 7.38933 136.335 7.752C136.655 8.10933 137.101 8.288 137.671 8.288C137.975 8.288 138.253 8.24267 138.503 8.152C138.759 8.06133 139.01 7.912 139.255 7.704L139.559 8.392C139.335 8.616 139.058 8.78667 138.727 8.904C138.402 9.02133 138.042 9.08 137.647 9.08ZM142.206 9.072C141.796 9.072 141.438 8.98667 141.134 8.816C140.83 8.64533 140.596 8.40533 140.43 8.096C140.265 7.78667 140.182 7.424 140.182 7.008C140.182 6.592 140.265 6.232 140.43 5.928C140.596 5.61867 140.83 5.37867 141.134 5.208C141.438 5.03733 141.796 4.952 142.206 4.952C142.622 4.952 142.98 5.03733 143.278 5.208C143.577 5.37867 143.809 5.61867 143.974 5.928C144.14 6.23733 144.222 6.59733 144.222 7.008C144.222 7.424 144.14 7.78667 143.974 8.096C143.814 8.40533 143.582 8.64533 143.278 8.816C142.98 8.98667 142.622 9.072 142.206 9.072ZM142.206 8.352C142.564 8.352 142.844 8.232 143.046 7.992C143.254 7.752 143.358 7.424 143.358 7.008C143.358 6.592 143.254 6.26667 143.046 6.032C142.844 5.79733 142.564 5.68 142.206 5.68C141.844 5.68 141.558 5.79733 141.35 6.032C141.148 6.26667 141.046 6.592 141.046 7.008C141.046 7.424 141.15 7.752 141.358 7.992C141.566 8.232 141.849 8.352 142.206 8.352ZM145.336 9V5.032H146.144V5.864H146.152C146.28 5.576 146.469 5.352 146.72 5.192C146.976 5.032 147.264 4.952 147.584 4.952C147.909 4.952 148.181 5.01333 148.4 5.136C148.624 5.25333 148.789 5.43467 148.896 5.68C149.008 5.92 149.064 6.22667 149.064 6.6V9H148.184V6.64C148.184 6.43733 148.155 6.26667 148.096 6.128C148.043 5.984 147.955 5.87467 147.832 5.8C147.709 5.72533 147.547 5.688 147.344 5.688C147.125 5.688 146.931 5.73867 146.76 5.84C146.589 5.936 146.453 6.06933 146.352 6.24C146.256 6.40533 146.208 6.592 146.208 6.8V9H145.336ZM152.159 9.072C151.647 9.072 151.263 8.94133 151.007 8.68C150.756 8.41867 150.631 8.04267 150.631 7.552V5.744H149.839V5.032H150.663V3.88H151.503V5.032H152.903V5.744H151.503V7.496C151.503 7.77867 151.567 7.98933 151.695 8.128C151.828 8.26133 152.028 8.328 152.295 8.328C152.401 8.328 152.505 8.31733 152.607 8.296C152.713 8.27467 152.815 8.248 152.911 8.216L153.039 8.888C152.921 8.952 152.785 8.99733 152.631 9.024C152.476 9.056 152.319 9.072 152.159 9.072ZM155.18 9.072C154.892 9.072 154.634 9.01867 154.404 8.912C154.18 8.80533 154.002 8.66133 153.868 8.48C153.74 8.29333 153.676 8.08267 153.676 7.848C153.676 7.55467 153.762 7.32 153.932 7.144C154.103 6.96267 154.364 6.832 154.716 6.752C155.074 6.672 155.53 6.632 156.084 6.632H156.644V7.192H156.124C155.847 7.192 155.607 7.20267 155.404 7.224C155.207 7.24 155.044 7.272 154.916 7.32C154.788 7.36267 154.692 7.424 154.628 7.504C154.57 7.57867 154.54 7.67733 154.54 7.8C154.54 8.00267 154.615 8.15733 154.764 8.264C154.919 8.37067 155.119 8.424 155.364 8.424C155.578 8.424 155.77 8.376 155.94 8.28C156.116 8.17867 156.255 8.048 156.356 7.888C156.463 7.72267 156.516 7.54133 156.516 7.344V6.456C156.516 6.16267 156.431 5.95467 156.26 5.832C156.095 5.704 155.847 5.64 155.516 5.64C155.287 5.64 155.055 5.672 154.82 5.736C154.591 5.8 154.351 5.904 154.1 6.048L153.844 5.424C154.01 5.32267 154.188 5.23733 154.38 5.168C154.578 5.09867 154.783 5.04533 154.996 5.008C155.21 4.97067 155.42 4.952 155.628 4.952C155.986 4.952 156.295 5.008 156.556 5.12C156.818 5.232 157.018 5.40533 157.156 5.64C157.295 5.86933 157.364 6.17067 157.364 6.544V9H156.612V8.152H156.604C156.53 8.32267 156.426 8.48 156.292 8.624C156.164 8.76267 156.007 8.872 155.82 8.952C155.634 9.032 155.42 9.072 155.18 9.072ZM158.607 4.152V3.232H159.639V4.152H158.607ZM158.695 9V5.032H159.567V9H158.695ZM160.914 9V5.032H161.722V5.864H161.73C161.858 5.576 162.048 5.352 162.298 5.192C162.554 5.032 162.842 4.952 163.162 4.952C163.488 4.952 163.76 5.01333 163.978 5.136C164.202 5.25333 164.368 5.43467 164.474 5.68C164.586 5.92 164.642 6.22667 164.642 6.6V9H163.762V6.64C163.762 6.43733 163.733 6.26667 163.674 6.128C163.621 5.984 163.533 5.87467 163.41 5.8C163.288 5.72533 163.125 5.688 162.922 5.688C162.704 5.688 162.509 5.73867 162.338 5.84C162.168 5.936 162.032 6.06933 161.93 6.24C161.834 6.40533 161.786 6.592 161.786 6.8V9H160.914ZM167.953 9.072C167.489 9.072 167.092 8.992 166.761 8.832C166.43 8.66667 166.177 8.42933 166.001 8.12C165.825 7.81067 165.737 7.44267 165.737 7.016C165.737 6.616 165.817 6.26133 165.977 5.952C166.142 5.64267 166.377 5.4 166.681 5.224C166.985 5.04267 167.342 4.952 167.753 4.952C168.142 4.952 168.476 5.03467 168.753 5.2C169.03 5.36533 169.244 5.6 169.393 5.904C169.542 6.208 169.617 6.57067 169.617 6.992V7.264H166.417V6.696H169.017L168.873 6.84C168.873 6.43467 168.777 6.128 168.585 5.92C168.393 5.70667 168.121 5.6 167.769 5.6C167.529 5.6 167.318 5.65333 167.137 5.76C166.961 5.86133 166.822 6.01067 166.721 6.208C166.62 6.4 166.569 6.63467 166.569 6.912V7C166.569 7.30933 166.622 7.56533 166.729 7.768C166.841 7.97067 167.001 8.12267 167.209 8.224C167.422 8.32533 167.678 8.376 167.977 8.376C168.196 8.376 168.414 8.34933 168.633 8.296C168.857 8.23733 169.065 8.13333 169.257 7.984L169.529 8.592C169.321 8.75733 169.076 8.88 168.793 8.96C168.51 9.03467 168.23 9.072 167.953 9.072ZM170.711 9V5.032H171.495V5.976H171.503C171.599 5.67733 171.762 5.44267 171.991 5.272C172.226 5.096 172.514 4.99733 172.855 4.976L173.255 4.944L173.335 5.744L172.695 5.8C172.343 5.82667 172.071 5.94133 171.879 6.144C171.687 6.34133 171.591 6.58933 171.591 6.888V9H170.711Z" fill="black"/>
<path d="M34.832 24V18.36H37.152C37.5573 18.36 37.9013 18.4267 38.184 18.56C38.4667 18.6933 38.6827 18.888 38.832 19.144C38.9867 19.3947 39.064 19.6987 39.064 20.056C39.064 20.4133 38.9867 20.72 38.832 20.976C38.6827 21.232 38.464 21.4293 38.176 21.568C37.8933 21.7067 37.552 21.776 37.152 21.776H35.544V24H34.832ZM35.544 21.168H37.048C37.4747 21.168 37.7973 21.0773 38.016 20.896C38.2347 20.7093 38.344 20.432 38.344 20.064C38.344 19.6907 38.2347 19.416 38.016 19.24C37.7973 19.0587 37.4747 18.968 37.048 18.968H35.544V21.168ZM40.1261 24V20.048H40.7741V20.96H40.7821C40.8781 20.6667 41.0461 20.4373 41.2861 20.272C41.5261 20.1013 41.8194 20.0053 42.1661 19.984L42.5261 19.968L42.5901 20.616L42.0141 20.664C41.6461 20.696 41.3581 20.8187 41.1501 21.032C40.9421 21.24 40.8381 21.5013 40.8381 21.816V24H40.1261ZM45.1429 24.072C44.7429 24.072 44.3963 23.9867 44.1029 23.816C43.8096 23.6453 43.5829 23.408 43.4229 23.104C43.2629 22.7947 43.1829 22.432 43.1829 22.016C43.1829 21.6053 43.2629 21.248 43.4229 20.944C43.5829 20.6347 43.8096 20.3973 44.1029 20.232C44.3963 20.0613 44.7429 19.976 45.1429 19.976C45.5429 19.976 45.8869 20.0613 46.1749 20.232C46.4683 20.3973 46.6949 20.6347 46.8549 20.944C47.0149 21.248 47.0949 21.6053 47.0949 22.016C47.0949 22.432 47.0149 22.7947 46.8549 23.104C46.7003 23.408 46.4763 23.6453 46.1829 23.816C45.8896 23.9867 45.5429 24.072 45.1429 24.072ZM45.1349 23.472C45.5243 23.472 45.8309 23.3413 46.0549 23.08C46.2789 22.8187 46.3909 22.464 46.3909 22.016C46.3909 21.568 46.2789 21.216 46.0549 20.96C45.8363 20.704 45.5323 20.576 45.1429 20.576C44.7536 20.576 44.4469 20.704 44.2229 20.96C43.9989 21.216 43.8869 21.568 43.8869 22.016C43.8869 22.464 43.9989 22.8187 44.2229 23.08C44.4523 23.3413 44.7563 23.472 45.1349 23.472ZM49.9151 24.072C49.4404 24.072 49.0804 23.9467 48.8351 23.696C48.5951 23.4453 48.4751 23.088 48.4751 22.624V20.632H47.6751V20.048H48.4991V18.872H49.1871V20.048H50.6031V20.632H49.1871V22.56C49.1871 22.864 49.2537 23.0907 49.3871 23.24C49.5257 23.384 49.7364 23.456 50.0191 23.456C50.1311 23.456 50.2377 23.4453 50.3391 23.424C50.4457 23.4027 50.5471 23.3707 50.6431 23.328L50.7551 23.888C50.6484 23.9467 50.5177 23.992 50.3631 24.024C50.2137 24.056 50.0644 24.072 49.9151 24.072ZM53.4519 24.072C53.0093 24.072 52.6253 23.992 52.2999 23.832C51.9799 23.6667 51.7346 23.432 51.5639 23.128C51.3933 22.8187 51.3079 22.4507 51.3079 22.024C51.3079 21.624 51.3879 21.272 51.5479 20.968C51.7079 20.6587 51.9346 20.416 52.2279 20.24C52.5213 20.064 52.8706 19.976 53.2759 19.976C53.6599 19.976 53.9853 20.0587 54.2519 20.224C54.5239 20.3893 54.7293 20.6213 54.8679 20.92C55.0119 21.2187 55.0839 21.5733 55.0839 21.984V22.216H51.8439V21.72H54.6199L54.4679 21.88C54.4679 21.4427 54.3639 21.1067 54.1559 20.872C53.9533 20.6373 53.6599 20.52 53.2759 20.52C53.0253 20.52 52.8013 20.5787 52.6039 20.696C52.4119 20.808 52.2626 20.968 52.1559 21.176C52.0493 21.384 51.9959 21.6373 51.9959 21.936V22.016C51.9959 22.336 52.0546 22.6053 52.1719 22.824C52.2893 23.0427 52.4573 23.208 52.6759 23.32C52.8946 23.432 53.1559 23.488 53.4599 23.488C53.6786 23.488 53.8999 23.4587 54.1239 23.4C54.3533 23.336 54.5666 23.224 54.7639 23.064L55.0039 23.576C54.8013 23.7467 54.5586 23.872 54.2759 23.952C53.9986 24.032 53.7239 24.072 53.4519 24.072ZM58.0189 24.072C57.6135 24.072 57.2615 23.9867 56.9629 23.816C56.6642 23.6453 56.4322 23.408 56.2669 23.104C56.1015 22.7947 56.0189 22.432 56.0189 22.016C56.0189 21.6 56.1015 21.24 56.2669 20.936C56.4322 20.6267 56.6642 20.3893 56.9629 20.224C57.2669 20.0587 57.6215 19.976 58.0269 19.976C58.2989 19.976 58.5575 20.0213 58.8029 20.112C59.0482 20.2027 59.2509 20.3253 59.4109 20.48L59.1629 21.008C59.0082 20.8693 58.8349 20.7653 58.6429 20.696C58.4509 20.6213 58.2642 20.584 58.0829 20.584C57.6669 20.584 57.3389 20.7093 57.0989 20.96C56.8589 21.2107 56.7389 21.5653 56.7389 22.024C56.7389 22.4773 56.8589 22.832 57.0989 23.088C57.3389 23.3387 57.6642 23.464 58.0749 23.464C58.2615 23.464 58.4482 23.4293 58.6349 23.36C58.8269 23.2853 58.9975 23.1813 59.1469 23.048L59.3949 23.576C59.2402 23.7307 59.0402 23.8533 58.7949 23.944C58.5495 24.0293 58.2909 24.072 58.0189 24.072ZM61.9854 24.072C61.5107 24.072 61.1507 23.9467 60.9054 23.696C60.6654 23.4453 60.5454 23.088 60.5454 22.624V20.632H59.7454V20.048H60.5694V18.872H61.2574V20.048H62.6734V20.632H61.2574V22.56C61.2574 22.864 61.324 23.0907 61.4574 23.24C61.596 23.384 61.8067 23.456 62.0894 23.456C62.2014 23.456 62.308 23.4453 62.4094 23.424C62.516 23.4027 62.6174 23.3707 62.7134 23.328L62.8254 23.888C62.7187 23.9467 62.588 23.992 62.4334 24.024C62.284 24.056 62.1347 24.072 61.9854 24.072ZM65.1133 24.072C64.8946 24.072 64.6786 24.0507 64.4653 24.008C64.2573 23.9707 64.0626 23.9173 63.8813 23.848C63.7053 23.7733 63.5533 23.6827 63.4253 23.576L63.6573 23.072C63.7906 23.1733 63.9373 23.256 64.0973 23.32C64.2626 23.384 64.4306 23.432 64.6013 23.464C64.7773 23.4907 64.9453 23.504 65.1053 23.504C65.436 23.504 65.6893 23.4533 65.8653 23.352C66.0466 23.2507 66.1373 23.1093 66.1373 22.928C66.1373 22.7733 66.084 22.656 65.9773 22.576C65.876 22.4907 65.7053 22.4267 65.4653 22.384L64.6413 22.24C64.2733 22.1707 63.996 22.0453 63.8093 21.864C63.628 21.6827 63.5373 21.4453 63.5373 21.152C63.5373 20.9173 63.6013 20.712 63.7293 20.536C63.8626 20.36 64.052 20.224 64.2973 20.128C64.5426 20.0267 64.836 19.976 65.1773 19.976C65.364 19.976 65.5533 19.9947 65.7453 20.032C65.9426 20.0693 66.124 20.1253 66.2893 20.2C66.46 20.2693 66.5986 20.3573 66.7053 20.464L66.4653 20.968C66.3586 20.8667 66.2306 20.7867 66.0813 20.728C65.9373 20.664 65.7853 20.6187 65.6253 20.592C65.4706 20.56 65.3186 20.544 65.1693 20.544C64.86 20.544 64.62 20.5973 64.4493 20.704C64.2786 20.8053 64.1933 20.9493 64.1933 21.136C64.1933 21.2853 64.2413 21.4027 64.3373 21.488C64.4386 21.5733 64.6013 21.6373 64.8253 21.68L65.6253 21.824C66.02 21.8987 66.3133 22.024 66.5053 22.2C66.6973 22.3707 66.7933 22.608 66.7933 22.912C66.7933 23.1467 66.724 23.352 66.5853 23.528C66.4466 23.6987 66.252 23.832 66.0013 23.928C65.7506 24.024 65.4546 24.072 65.1133 24.072ZM70.3242 24V18.36H71.0362V24H70.3242ZM72.5792 24V20.048H73.2432V20.904C73.3712 20.6107 73.5632 20.384 73.8192 20.224C74.0752 20.0587 74.3632 19.976 74.6832 19.976C75.0085 19.976 75.2805 20.0347 75.4992 20.152C75.7179 20.264 75.8805 20.44 75.9872 20.68C76.0992 20.9147 76.1552 21.208 76.1552 21.56V24H75.4432V21.6C75.4432 21.3867 75.4139 21.2053 75.3552 21.056C75.2965 20.9067 75.1979 20.792 75.0592 20.712C74.9259 20.6267 74.7472 20.584 74.5232 20.584C74.2885 20.584 74.0752 20.6373 73.8832 20.744C73.6965 20.8507 73.5499 20.9947 73.4432 21.176C73.3419 21.3573 73.2912 21.56 73.2912 21.784V24H72.5792ZM79.2276 24.072C78.7529 24.072 78.3929 23.9467 78.1476 23.696C77.9076 23.4453 77.7876 23.088 77.7876 22.624V20.632H76.9876V20.048H77.8116V18.872H78.4996V20.048H79.9156V20.632H78.4996V22.56C78.4996 22.864 78.5662 23.0907 78.6996 23.24C78.8382 23.384 79.0489 23.456 79.3316 23.456C79.4436 23.456 79.5502 23.4453 79.6516 23.424C79.7582 23.4027 79.8596 23.3707 79.9556 23.328L80.0676 23.888C79.9609 23.9467 79.8302 23.992 79.6756 24.024C79.5262 24.056 79.3769 24.072 79.2276 24.072ZM82.7644 24.072C82.3218 24.072 81.9378 23.992 81.6124 23.832C81.2924 23.6667 81.0471 23.432 80.8764 23.128C80.7058 22.8187 80.6204 22.4507 80.6204 22.024C80.6204 21.624 80.7004 21.272 80.8604 20.968C81.0204 20.6587 81.2471 20.416 81.5404 20.24C81.8338 20.064 82.1831 19.976 82.5884 19.976C82.9724 19.976 83.2978 20.0587 83.5644 20.224C83.8364 20.3893 84.0418 20.6213 84.1804 20.92C84.3244 21.2187 84.3964 21.5733 84.3964 21.984V22.216H81.1564V21.72H83.9324L83.7804 21.88C83.7804 21.4427 83.6764 21.1067 83.4684 20.872C83.2658 20.6373 82.9724 20.52 82.5884 20.52C82.3378 20.52 82.1138 20.5787 81.9164 20.696C81.7244 20.808 81.5751 20.968 81.4684 21.176C81.3618 21.384 81.3084 21.6373 81.3084 21.936V22.016C81.3084 22.336 81.3671 22.6053 81.4844 22.824C81.6018 23.0427 81.7698 23.208 81.9884 23.32C82.2071 23.432 82.4684 23.488 82.7724 23.488C82.9911 23.488 83.2124 23.4587 83.4364 23.4C83.6658 23.336 83.8791 23.224 84.0764 23.064L84.3164 23.576C84.1138 23.7467 83.8711 23.872 83.5884 23.952C83.3111 24.032 83.0364 24.072 82.7644 24.072ZM87.2834 25.512C86.9687 25.512 86.6567 25.464 86.3474 25.368C86.038 25.2773 85.774 25.152 85.5554 24.992L85.7794 24.44C85.9287 24.536 86.086 24.6187 86.2514 24.688C86.4167 24.7627 86.5847 24.816 86.7554 24.848C86.9314 24.8853 87.1047 24.904 87.2754 24.904C87.686 24.904 88.006 24.8 88.2354 24.592C88.47 24.384 88.5874 24.088 88.5874 23.704V22.976H88.5714C88.4754 23.248 88.302 23.4693 88.0514 23.64C87.8007 23.8053 87.51 23.888 87.1794 23.888C86.806 23.888 86.4807 23.808 86.2034 23.648C85.926 23.4827 85.71 23.2533 85.5554 22.96C85.406 22.6667 85.3314 22.3227 85.3314 21.928C85.3314 21.5387 85.406 21.1973 85.5554 20.904C85.71 20.6107 85.926 20.384 86.2034 20.224C86.4807 20.0587 86.806 19.976 87.1794 19.976C87.51 19.976 87.8007 20.0613 88.0514 20.232C88.3074 20.4027 88.4834 20.6293 88.5794 20.912H88.5874V20.048H89.2514V23.64C89.2514 24.024 89.1714 24.3547 89.0114 24.632C88.8567 24.9147 88.6327 25.1307 88.3394 25.28C88.046 25.4347 87.694 25.512 87.2834 25.512ZM87.2994 23.304C87.6887 23.304 87.9954 23.1787 88.2194 22.928C88.4487 22.6773 88.5634 22.344 88.5634 21.928C88.5634 21.512 88.4487 21.1813 88.2194 20.936C87.9954 20.6853 87.6887 20.56 87.2994 20.56C86.9154 20.56 86.6087 20.6853 86.3794 20.936C86.1554 21.1813 86.0434 21.512 86.0434 21.928C86.0434 22.344 86.1554 22.6773 86.3794 22.928C86.6087 23.1787 86.9154 23.304 87.2994 23.304ZM90.6729 24V20.048H91.3209V20.96H91.3289C91.4249 20.6667 91.5929 20.4373 91.8329 20.272C92.0729 20.1013 92.3663 20.0053 92.7129 19.984L93.0729 19.968L93.1369 20.616L92.5609 20.664C92.1929 20.696 91.9049 20.8187 91.6969 21.032C91.4889 21.24 91.3849 21.5013 91.3849 21.816V24H90.6729ZM93.9367 19.096V18.304H94.8007V19.096H93.9367ZM94.0167 24V20.048H94.7287V24H94.0167ZM97.8135 24.072C97.3388 24.072 96.9788 23.9467 96.7335 23.696C96.4935 23.4453 96.3735 23.088 96.3735 22.624V20.632H95.5735V20.048H96.3975V18.872H97.0855V20.048H98.5015V20.632H97.0855V22.56C97.0855 22.864 97.1522 23.0907 97.2855 23.24C97.4242 23.384 97.6348 23.456 97.9175 23.456C98.0295 23.456 98.1362 23.4453 98.2375 23.424C98.3442 23.4027 98.4455 23.3707 98.5415 23.328L98.6535 23.888C98.5468 23.9467 98.4162 23.992 98.2615 24.024C98.1122 24.056 97.9628 24.072 97.8135 24.072ZM100.012 25.44L100.764 23.744V24.248L98.9883 20.048H99.7483L101.036 23.304H100.996L102.284 20.048H103.028L100.764 25.44H100.012Z" fill="#A0A09E"/>
</svg>
