<svg width="96" height="26" viewBox="0 0 96 26" fill="none" xmlns="http://www.w3.org/2000/svg">
<rect width="24" height="24" rx="12" fill="#F9DDD9"/>
<path d="M7.84457 16.7879C9.69943 18.6427 12.1103 19.1985 13.2954 19.3125C13.6437 19.3525 13.838 19.1382 13.8646 18.9173C13.8914 18.683 13.744 18.4285 13.4094 18.3816C12.338 18.2342 10.1214 17.7522 8.51429 16.125C5.88915 13.4933 5.39372 9.5156 7.53657 7.37275C9.27772 5.63846 12.1771 5.85932 14.3134 7.01103L15.0097 6.33475C12.4114 4.77446 8.916 4.64732 6.86686 6.70303C4.42943 9.14732 4.75086 13.6942 7.84457 16.7879ZM17.6617 7.29903L18.1971 6.76332C18.4514 6.50903 18.4651 6.13389 18.204 5.89275L18.0297 5.73217C17.8023 5.51789 17.4471 5.52446 17.1994 5.75875L16.6706 6.30132L17.6617 7.29903ZM11.1594 13.7876L17.1726 7.78103L16.1749 6.79017L10.1683 12.7902L9.61258 14.069C9.55886 14.2096 9.69943 14.3505 9.84686 14.3033L11.1594 13.7876ZM10.2823 14.7856C12.4717 16.9753 15.994 17.8393 17.9629 15.877C19.57 14.2633 19.3623 11.397 17.6414 8.93303L16.9586 9.61589C18.3243 11.6382 18.5923 13.9085 17.2931 15.2073C15.7131 16.7879 13.1011 16.0379 11.3066 14.3436L10.2823 14.7856Z" fill="#CE3439"/>
<path d="M34.792 9V3.36H37.216C37.8187 3.36 38.2853 3.488 38.616 3.744C38.952 3.99467 39.12 4.35733 39.12 4.832C39.12 5.17333 39.0293 5.45333 38.848 5.672C38.672 5.88533 38.448 6.02667 38.176 6.096V6.088C38.3733 6.12533 38.5547 6.2 38.72 6.312C38.8853 6.424 39.016 6.57333 39.112 6.76C39.208 6.94133 39.256 7.16533 39.256 7.432C39.256 7.768 39.1787 8.05333 39.024 8.288C38.8747 8.51733 38.6533 8.69333 38.36 8.816C38.0667 8.93867 37.7147 9 37.304 9H34.792ZM35.664 8.272H37.256C37.4053 8.272 37.5413 8.26133 37.664 8.24C37.7867 8.21333 37.8907 8.176 37.976 8.128C38.0667 8.08 38.1413 8.02133 38.2 7.952C38.2587 7.88267 38.304 7.80267 38.336 7.712C38.368 7.616 38.384 7.512 38.384 7.4C38.384 7.272 38.368 7.16 38.336 7.064C38.304 6.968 38.256 6.88533 38.192 6.816C38.1333 6.74667 38.0587 6.69067 37.968 6.648C37.8773 6.6 37.7707 6.56533 37.648 6.544C37.5307 6.52267 37.4 6.512 37.256 6.512H35.664V8.272ZM35.664 5.784H37.12C37.4987 5.784 37.7787 5.712 37.96 5.568C38.1467 5.424 38.24 5.20533 38.24 4.912C38.24 4.64 38.1493 4.43467 37.968 4.296C37.7867 4.15733 37.504 4.088 37.12 4.088H35.664V5.784ZM40.5001 9V5.032H41.2841V5.976H41.2921C41.3881 5.67733 41.5508 5.44267 41.7801 5.272C42.0148 5.096 42.3028 4.99733 42.6441 4.976L43.0441 4.944L43.1241 5.744L42.4841 5.8C42.1321 5.82667 41.8601 5.94133 41.6681 6.144C41.4761 6.34133 41.3801 6.58933 41.3801 6.888V9H40.5001ZM45.2662 9.072C44.9782 9.072 44.7195 9.01867 44.4902 8.912C44.2662 8.80533 44.0875 8.66133 43.9542 8.48C43.8262 8.29333 43.7622 8.08267 43.7622 7.848C43.7622 7.55467 43.8475 7.32 44.0182 7.144C44.1889 6.96267 44.4502 6.832 44.8022 6.752C45.1595 6.672 45.6155 6.632 46.1702 6.632H46.7302V7.192H46.2102C45.9329 7.192 45.6929 7.20267 45.4902 7.224C45.2929 7.24 45.1302 7.272 45.0022 7.32C44.8742 7.36267 44.7782 7.424 44.7142 7.504C44.6555 7.57867 44.6262 7.67733 44.6262 7.8C44.6262 8.00267 44.7009 8.15733 44.8502 8.264C45.0049 8.37067 45.2049 8.424 45.4502 8.424C45.6635 8.424 45.8555 8.376 46.0262 8.28C46.2022 8.17867 46.3409 8.048 46.4422 7.888C46.5489 7.72267 46.6022 7.54133 46.6022 7.344V6.456C46.6022 6.16267 46.5169 5.95467 46.3462 5.832C46.1809 5.704 45.9329 5.64 45.6022 5.64C45.3729 5.64 45.1409 5.672 44.9062 5.736C44.6769 5.8 44.4369 5.904 44.1862 6.048L43.9302 5.424C44.0955 5.32267 44.2742 5.23733 44.4662 5.168C44.6635 5.09867 44.8689 5.04533 45.0822 5.008C45.2955 4.97067 45.5062 4.952 45.7142 4.952C46.0715 4.952 46.3809 5.008 46.6422 5.12C46.9035 5.232 47.1035 5.40533 47.2422 5.64C47.3809 5.86933 47.4502 6.17067 47.4502 6.544V9H46.6982V8.152H46.6902C46.6155 8.32267 46.5115 8.48 46.3782 8.624C46.2502 8.76267 46.0929 8.872 45.9062 8.952C45.7195 9.032 45.5062 9.072 45.2662 9.072ZM48.7814 9V5.032H49.5894V5.864H49.5974C49.7254 5.576 49.9147 5.352 50.1654 5.192C50.4214 5.032 50.7094 4.952 51.0294 4.952C51.3547 4.952 51.6267 5.01333 51.8454 5.136C52.0694 5.25333 52.2347 5.43467 52.3414 5.68C52.4534 5.92 52.5094 6.22667 52.5094 6.6V9H51.6294V6.64C51.6294 6.43733 51.6 6.26667 51.5414 6.128C51.488 5.984 51.4 5.87467 51.2774 5.8C51.1547 5.72533 50.992 5.688 50.7894 5.688C50.5707 5.688 50.376 5.73867 50.2054 5.84C50.0347 5.936 49.8987 6.06933 49.7974 6.24C49.7014 6.40533 49.6534 6.592 49.6534 6.8V9H48.7814ZM55.4281 9.072C55.0547 9.072 54.7321 8.98667 54.4601 8.816C54.1881 8.64533 53.9774 8.40533 53.8281 8.096C53.6787 7.78133 53.6041 7.42133 53.6041 7.016C53.6041 6.60533 53.6787 6.248 53.8281 5.944C53.9774 5.63467 54.1854 5.392 54.4521 5.216C54.7241 5.04 55.0441 4.952 55.4121 4.952C55.7427 4.952 56.0254 5.02933 56.2601 5.184C56.5001 5.33867 56.6734 5.54667 56.7801 5.808V3.36H57.6601V9H56.8601V8.16H56.8521C56.7347 8.448 56.5507 8.672 56.3001 8.832C56.0547 8.992 55.7641 9.072 55.4281 9.072ZM55.6361 8.384C55.9987 8.384 56.2814 8.264 56.4841 8.024C56.6921 7.77867 56.7961 7.44267 56.7961 7.016C56.7961 6.58933 56.6921 6.256 56.4841 6.016C56.2814 5.77067 56.0014 5.648 55.6441 5.648C55.2814 5.648 54.9961 5.77067 54.7881 6.016C54.5854 6.256 54.4841 6.58933 54.4841 7.016C54.4841 7.44267 54.5854 7.77867 54.7881 8.024C54.9961 8.264 55.2787 8.384 55.6361 8.384ZM58.9199 4.152V3.232H59.9519V4.152H58.9199ZM59.0079 9V5.032H59.8799V9H59.0079ZM61.2267 9V5.032H62.0347V5.864H62.0427C62.1707 5.576 62.36 5.352 62.6107 5.192C62.8667 5.032 63.1547 4.952 63.4747 4.952C63.8 4.952 64.072 5.01333 64.2907 5.136C64.5147 5.25333 64.68 5.43467 64.7867 5.68C64.8987 5.92 64.9547 6.22667 64.9547 6.6V9H64.0747V6.64C64.0747 6.43733 64.0454 6.26667 63.9867 6.128C63.9334 5.984 63.8454 5.87467 63.7227 5.8C63.6 5.72533 63.4374 5.688 63.2347 5.688C63.016 5.688 62.8214 5.73867 62.6507 5.84C62.48 5.936 62.344 6.06933 62.2427 6.24C62.1467 6.40533 62.0987 6.592 62.0987 6.8V9H61.2267ZM68.0414 10.512C67.7214 10.512 67.404 10.4667 67.0894 10.376C66.7747 10.2907 66.5054 10.168 66.2814 10.008L66.5374 9.344C66.6814 9.43467 66.836 9.51467 67.0014 9.584C67.1667 9.65333 67.3347 9.704 67.5054 9.736C67.6814 9.77333 67.8494 9.792 68.0094 9.792C68.42 9.792 68.7347 9.69333 68.9534 9.496C69.1774 9.304 69.2894 9.024 69.2894 8.656V8H69.2734C69.172 8.256 68.9987 8.46667 68.7534 8.632C68.508 8.792 68.2227 8.872 67.8974 8.872C67.5294 8.872 67.2067 8.792 66.9294 8.632C66.652 8.46667 66.436 8.23733 66.2814 7.944C66.1267 7.65067 66.0494 7.30667 66.0494 6.912C66.0494 6.52267 66.1267 6.18133 66.2814 5.888C66.436 5.58933 66.652 5.36 66.9294 5.2C67.2067 5.03467 67.5294 4.952 67.8974 4.952C68.228 4.952 68.516 5.03467 68.7614 5.2C69.0067 5.36533 69.18 5.58667 69.2814 5.864H69.2894V5.032H70.1134V8.584C70.1134 8.984 70.0307 9.328 69.8654 9.616C69.7 9.904 69.4627 10.1253 69.1534 10.28C68.844 10.4347 68.4734 10.512 68.0414 10.512ZM68.0894 8.176C68.4467 8.176 68.7294 8.06133 68.9374 7.832C69.1454 7.60267 69.2494 7.296 69.2494 6.912C69.2494 6.52267 69.1454 6.216 68.9374 5.992C68.7294 5.76267 68.4467 5.648 68.0894 5.648C67.732 5.648 67.4467 5.76267 67.2334 5.992C67.0254 6.216 66.9214 6.52267 66.9214 6.912C66.9214 7.296 67.0254 7.60267 67.2334 7.832C67.4467 8.06133 67.732 8.176 68.0894 8.176ZM75.5103 9L73.0543 3.36H74.0063L75.9343 7.976H75.8623L77.7903 3.36H78.7343L76.2703 9H75.5103ZM80.274 9.072C79.986 9.072 79.7273 9.01867 79.498 8.912C79.274 8.80533 79.0953 8.66133 78.962 8.48C78.834 8.29333 78.77 8.08267 78.77 7.848C78.77 7.55467 78.8553 7.32 79.026 7.144C79.1967 6.96267 79.458 6.832 79.81 6.752C80.1673 6.672 80.6233 6.632 81.178 6.632H81.738V7.192H81.218C80.9407 7.192 80.7007 7.20267 80.498 7.224C80.3007 7.24 80.138 7.272 80.01 7.32C79.882 7.36267 79.786 7.424 79.722 7.504C79.6633 7.57867 79.634 7.67733 79.634 7.8C79.634 8.00267 79.7087 8.15733 79.858 8.264C80.0127 8.37067 80.2127 8.424 80.458 8.424C80.6713 8.424 80.8633 8.376 81.034 8.28C81.21 8.17867 81.3487 8.048 81.45 7.888C81.5567 7.72267 81.61 7.54133 81.61 7.344V6.456C81.61 6.16267 81.5247 5.95467 81.354 5.832C81.1887 5.704 80.9407 5.64 80.61 5.64C80.3807 5.64 80.1487 5.672 79.914 5.736C79.6847 5.8 79.4447 5.904 79.194 6.048L78.938 5.424C79.1033 5.32267 79.282 5.23733 79.474 5.168C79.6713 5.09867 79.8767 5.04533 80.09 5.008C80.3033 4.97067 80.514 4.952 80.722 4.952C81.0793 4.952 81.3887 5.008 81.65 5.12C81.9113 5.232 82.1113 5.40533 82.25 5.64C82.3887 5.86933 82.458 6.17067 82.458 6.544V9H81.706V8.152H81.698C81.6233 8.32267 81.5193 8.48 81.386 8.624C81.258 8.76267 81.1007 8.872 80.914 8.952C80.7273 9.032 80.514 9.072 80.274 9.072ZM85.0692 9.072C84.6532 9.072 84.3359 8.95733 84.1172 8.728C83.8985 8.49333 83.7892 8.16267 83.7892 7.736V3.36H84.6612V7.656C84.6612 7.81067 84.6825 7.94133 84.7252 8.048C84.7732 8.15467 84.8399 8.23467 84.9252 8.288C85.0105 8.34133 85.1145 8.368 85.2372 8.368C85.3172 8.368 85.3919 8.36533 85.4612 8.36C85.5305 8.34933 85.6025 8.33333 85.6772 8.312L85.7092 8.976C85.6079 9.01333 85.5065 9.03733 85.4052 9.048C85.3092 9.064 85.1972 9.072 85.0692 9.072ZM87.9649 9.072C87.6342 9.072 87.3569 9.01333 87.1329 8.896C86.9089 8.77333 86.7382 8.592 86.6209 8.352C86.5089 8.112 86.4529 7.81067 86.4529 7.448V5.032H87.3329V7.416C87.3329 7.60267 87.3595 7.768 87.4129 7.912C87.4715 8.05067 87.5622 8.15733 87.6849 8.232C87.8129 8.30667 87.9782 8.344 88.1809 8.344C88.3835 8.344 88.5675 8.296 88.7329 8.2C88.8982 8.09867 89.0289 7.96533 89.1249 7.8C89.2209 7.62933 89.2689 7.44533 89.2689 7.248V5.032H90.1409V9H89.3329V8.152H89.3409C89.2075 8.44 89.0235 8.66667 88.7889 8.832C88.5595 8.992 88.2849 9.072 87.9649 9.072ZM93.4685 9.072C93.0045 9.072 92.6072 8.992 92.2765 8.832C91.9458 8.66667 91.6925 8.42933 91.5165 8.12C91.3405 7.81067 91.2525 7.44267 91.2525 7.016C91.2525 6.616 91.3325 6.26133 91.4925 5.952C91.6578 5.64267 91.8925 5.4 92.1965 5.224C92.5005 5.04267 92.8578 4.952 93.2685 4.952C93.6578 4.952 93.9912 5.03467 94.2685 5.2C94.5458 5.36533 94.7592 5.6 94.9085 5.904C95.0578 6.208 95.1325 6.57067 95.1325 6.992V7.264H91.9325V6.696H94.5325L94.3885 6.84C94.3885 6.43467 94.2925 6.128 94.1005 5.92C93.9085 5.70667 93.6365 5.6 93.2845 5.6C93.0445 5.6 92.8338 5.65333 92.6525 5.76C92.4765 5.86133 92.3378 6.01067 92.2365 6.208C92.1352 6.4 92.0845 6.63467 92.0845 6.912V7C92.0845 7.30933 92.1378 7.56533 92.2445 7.768C92.3565 7.97067 92.5165 8.12267 92.7245 8.224C92.9378 8.32533 93.1938 8.376 93.4925 8.376C93.7112 8.376 93.9298 8.34933 94.1485 8.296C94.3725 8.23733 94.5805 8.13333 94.7725 7.984L95.0445 8.592C94.8365 8.75733 94.5912 8.88 94.3085 8.96C94.0258 9.03467 93.7458 9.072 93.4685 9.072Z" fill="black"/>
<path d="M34.832 22V16.36H37.168C37.76 16.36 38.2187 16.488 38.544 16.744C38.8693 16.9947 39.032 17.3573 39.032 17.832C39.032 18.1787 38.9413 18.4613 38.76 18.68C38.5787 18.8987 38.3493 19.04 38.072 19.104V19.096C38.2693 19.128 38.4507 19.2 38.616 19.312C38.7813 19.424 38.9147 19.576 39.016 19.768C39.1173 19.9547 39.168 20.1813 39.168 20.448C39.168 20.7787 39.0933 21.0613 38.944 21.296C38.7947 21.5253 38.576 21.7013 38.288 21.824C38.0053 21.9413 37.6613 22 37.256 22H34.832ZM35.536 21.392H37.224C37.3893 21.392 37.5387 21.3813 37.672 21.36C37.8053 21.3333 37.92 21.2933 38.016 21.24C38.1173 21.1867 38.2 21.1227 38.264 21.048C38.328 20.968 38.376 20.8773 38.408 20.776C38.44 20.6747 38.456 20.56 38.456 20.432C38.456 20.2987 38.4373 20.1787 38.4 20.072C38.368 19.9653 38.3173 19.8747 38.248 19.8C38.184 19.72 38.1013 19.6533 38 19.6C37.904 19.5467 37.7893 19.5093 37.656 19.488C37.528 19.4613 37.384 19.448 37.224 19.448H35.536V21.392ZM35.536 18.848H37.096C37.5013 18.848 37.8053 18.768 38.008 18.608C38.216 18.4427 38.32 18.2 38.32 17.88C38.32 17.576 38.2187 17.3493 38.016 17.2C37.8187 17.0453 37.512 16.968 37.096 16.968H35.536V18.848ZM42.2133 22.072C41.8133 22.072 41.4666 21.9867 41.1733 21.816C40.8799 21.6453 40.6533 21.408 40.4933 21.104C40.3333 20.7947 40.2533 20.432 40.2533 20.016C40.2533 19.6053 40.3333 19.248 40.4933 18.944C40.6533 18.6347 40.8799 18.3973 41.1733 18.232C41.4666 18.0613 41.8133 17.976 42.2133 17.976C42.6133 17.976 42.9573 18.0613 43.2453 18.232C43.5386 18.3973 43.7653 18.6347 43.9253 18.944C44.0853 19.248 44.1653 19.6053 44.1653 20.016C44.1653 20.432 44.0853 20.7947 43.9253 21.104C43.7706 21.408 43.5466 21.6453 43.2533 21.816C42.9599 21.9867 42.6133 22.072 42.2133 22.072ZM42.2053 21.472C42.5946 21.472 42.9013 21.3413 43.1253 21.08C43.3493 20.8187 43.4613 20.464 43.4613 20.016C43.4613 19.568 43.3493 19.216 43.1253 18.96C42.9066 18.704 42.6026 18.576 42.2133 18.576C41.8239 18.576 41.5173 18.704 41.2933 18.96C41.0693 19.216 40.9572 19.568 40.9572 20.016C40.9572 20.464 41.0693 20.8187 41.2933 21.08C41.5226 21.3413 41.8266 21.472 42.2053 21.472ZM47.0804 22.072C46.6804 22.072 46.3338 21.9867 46.0404 21.816C45.7471 21.6453 45.5204 21.408 45.3604 21.104C45.2004 20.7947 45.1204 20.432 45.1204 20.016C45.1204 19.6053 45.2004 19.248 45.3604 18.944C45.5204 18.6347 45.7471 18.3973 46.0404 18.232C46.3338 18.0613 46.6804 17.976 47.0804 17.976C47.4804 17.976 47.8244 18.0613 48.1124 18.232C48.4058 18.3973 48.6324 18.6347 48.7924 18.944C48.9524 19.248 49.0324 19.6053 49.0324 20.016C49.0324 20.432 48.9524 20.7947 48.7924 21.104C48.6378 21.408 48.4138 21.6453 48.1204 21.816C47.8271 21.9867 47.4804 22.072 47.0804 22.072ZM47.0724 21.472C47.4618 21.472 47.7684 21.3413 47.9924 21.08C48.2164 20.8187 48.3284 20.464 48.3284 20.016C48.3284 19.568 48.2164 19.216 47.9924 18.96C47.7738 18.704 47.4698 18.576 47.0804 18.576C46.6911 18.576 46.3844 18.704 46.1604 18.96C45.9364 19.216 45.8244 19.568 45.8244 20.016C45.8244 20.464 45.9364 20.8187 46.1604 21.08C46.3898 21.3413 46.6938 21.472 47.0724 21.472ZM51.6836 22.072C51.465 22.072 51.249 22.0507 51.0356 22.008C50.8276 21.9707 50.633 21.9173 50.4516 21.848C50.2756 21.7733 50.1236 21.6827 49.9956 21.576L50.2276 21.072C50.361 21.1733 50.5076 21.256 50.6676 21.32C50.833 21.384 51.001 21.432 51.1716 21.464C51.3476 21.4907 51.5156 21.504 51.6756 21.504C52.0063 21.504 52.2596 21.4533 52.4356 21.352C52.617 21.2507 52.7076 21.1093 52.7076 20.928C52.7076 20.7733 52.6543 20.656 52.5476 20.576C52.4463 20.4907 52.2756 20.4267 52.0356 20.384L51.2116 20.24C50.8436 20.1707 50.5663 20.0453 50.3796 19.864C50.1983 19.6827 50.1076 19.4453 50.1076 19.152C50.1076 18.9173 50.1716 18.712 50.2996 18.536C50.433 18.36 50.6223 18.224 50.8676 18.128C51.113 18.0267 51.4063 17.976 51.7476 17.976C51.9343 17.976 52.1236 17.9947 52.3156 18.032C52.513 18.0693 52.6943 18.1253 52.8596 18.2C53.0303 18.2693 53.169 18.3573 53.2756 18.464L53.0356 18.968C52.929 18.8667 52.801 18.7867 52.6516 18.728C52.5076 18.664 52.3556 18.6187 52.1956 18.592C52.041 18.56 51.889 18.544 51.7396 18.544C51.4303 18.544 51.1903 18.5973 51.0196 18.704C50.849 18.8053 50.7636 18.9493 50.7636 19.136C50.7636 19.2853 50.8116 19.4027 50.9076 19.488C51.009 19.5733 51.1716 19.6373 51.3956 19.68L52.1956 19.824C52.5903 19.8987 52.8836 20.024 53.0756 20.2C53.2676 20.3707 53.3636 20.608 53.3636 20.912C53.3636 21.1467 53.2943 21.352 53.1556 21.528C53.017 21.6987 52.8223 21.832 52.5716 21.928C52.321 22.024 52.025 22.072 51.6836 22.072ZM56.1651 22.072C55.6904 22.072 55.3304 21.9467 55.0851 21.696C54.8451 21.4453 54.7251 21.088 54.7251 20.624V18.632H53.9251V18.048H54.7491V16.872H55.4371V18.048H56.8531V18.632H55.4371V20.56C55.4371 20.864 55.5037 21.0907 55.6371 21.24C55.7757 21.384 55.9864 21.456 56.2691 21.456C56.3811 21.456 56.4877 21.4453 56.5891 21.424C56.6957 21.4027 56.7971 21.3707 56.8931 21.328L57.0051 21.888C56.8984 21.9467 56.7677 21.992 56.6131 22.024C56.4637 22.056 56.3144 22.072 56.1651 22.072ZM59.293 22.072C59.0743 22.072 58.8583 22.0507 58.645 22.008C58.437 21.9707 58.2423 21.9173 58.061 21.848C57.885 21.7733 57.733 21.6827 57.605 21.576L57.837 21.072C57.9703 21.1733 58.117 21.256 58.277 21.32C58.4423 21.384 58.6103 21.432 58.781 21.464C58.957 21.4907 59.125 21.504 59.285 21.504C59.6157 21.504 59.869 21.4533 60.045 21.352C60.2263 21.2507 60.317 21.1093 60.317 20.928C60.317 20.7733 60.2637 20.656 60.157 20.576C60.0557 20.4907 59.885 20.4267 59.645 20.384L58.821 20.24C58.453 20.1707 58.1757 20.0453 57.989 19.864C57.8077 19.6827 57.717 19.4453 57.717 19.152C57.717 18.9173 57.781 18.712 57.909 18.536C58.0423 18.36 58.2317 18.224 58.477 18.128C58.7223 18.0267 59.0157 17.976 59.357 17.976C59.5437 17.976 59.733 17.9947 59.925 18.032C60.1223 18.0693 60.3037 18.1253 60.469 18.2C60.6397 18.2693 60.7783 18.3573 60.885 18.464L60.645 18.968C60.5383 18.8667 60.4103 18.7867 60.261 18.728C60.117 18.664 59.965 18.6187 59.805 18.592C59.6503 18.56 59.4983 18.544 59.349 18.544C59.0397 18.544 58.7997 18.5973 58.629 18.704C58.4583 18.8053 58.373 18.9493 58.373 19.136C58.373 19.2853 58.421 19.4027 58.517 19.488C58.6183 19.5733 58.781 19.6373 59.005 19.68L59.805 19.824C60.1997 19.8987 60.493 20.024 60.685 20.2C60.877 20.3707 60.973 20.608 60.973 20.912C60.973 21.1467 60.9037 21.352 60.765 21.528C60.6263 21.6987 60.4317 21.832 60.181 21.928C59.9303 22.024 59.6343 22.072 59.293 22.072ZM64.5039 22V16.36H65.2159V22H64.5039ZM68.3349 22.072C67.9722 22.072 67.6549 21.9867 67.3829 21.816C67.1109 21.6453 66.8975 21.4053 66.7429 21.096C66.5935 20.7867 66.5189 20.4293 66.5189 20.024C66.5189 19.6133 66.5935 19.256 66.7429 18.952C66.8922 18.6427 67.1029 18.4027 67.3749 18.232C67.6469 18.0613 67.9642 17.976 68.3269 17.976C68.6682 17.976 68.9589 18.056 69.1989 18.216C69.4442 18.376 69.6202 18.5947 69.7269 18.872V16.36H70.4389V22H69.7829V21.128C69.6655 21.4267 69.4815 21.6587 69.2309 21.824C68.9802 21.9893 68.6815 22.072 68.3349 22.072ZM68.4869 21.488C68.8762 21.488 69.1802 21.3573 69.3989 21.096C69.6229 20.8347 69.7349 20.4773 69.7349 20.024C69.7349 19.5707 69.6229 19.2133 69.3989 18.952C69.1802 18.6907 68.8762 18.56 68.4869 18.56C68.1029 18.56 67.7962 18.6907 67.5669 18.952C67.3429 19.2133 67.2309 19.5707 67.2309 20.024C67.2309 20.4773 67.3429 20.8347 67.5669 21.096C67.7909 21.3573 68.0975 21.488 68.4869 21.488ZM73.7644 22.072C73.3218 22.072 72.9378 21.992 72.6124 21.832C72.2924 21.6667 72.0471 21.432 71.8764 21.128C71.7058 20.8187 71.6204 20.4507 71.6204 20.024C71.6204 19.624 71.7004 19.272 71.8604 18.968C72.0204 18.6587 72.2471 18.416 72.5404 18.24C72.8338 18.064 73.1831 17.976 73.5884 17.976C73.9724 17.976 74.2978 18.0587 74.5644 18.224C74.8364 18.3893 75.0418 18.6213 75.1804 18.92C75.3244 19.2187 75.3964 19.5733 75.3964 19.984V20.216H72.1564V19.72H74.9324L74.7804 19.88C74.7804 19.4427 74.6764 19.1067 74.4684 18.872C74.2658 18.6373 73.9724 18.52 73.5884 18.52C73.3378 18.52 73.1138 18.5787 72.9164 18.696C72.7244 18.808 72.5751 18.968 72.4684 19.176C72.3618 19.384 72.3084 19.6373 72.3084 19.936V20.016C72.3084 20.336 72.3671 20.6053 72.4844 20.824C72.6018 21.0427 72.7698 21.208 72.9884 21.32C73.2071 21.432 73.4684 21.488 73.7724 21.488C73.9911 21.488 74.2124 21.4587 74.4364 21.4C74.6658 21.336 74.8791 21.224 75.0764 21.064L75.3164 21.576C75.1138 21.7467 74.8711 21.872 74.5884 21.952C74.3111 22.032 74.0364 22.072 73.7644 22.072ZM76.5714 22V18.048H77.2354V18.904C77.3634 18.6107 77.5554 18.384 77.8114 18.224C78.0674 18.0587 78.3554 17.976 78.6754 17.976C79.0007 17.976 79.2727 18.0347 79.4914 18.152C79.71 18.264 79.8727 18.44 79.9794 18.68C80.0914 18.9147 80.1474 19.208 80.1474 19.56V22H79.4354V19.6C79.4354 19.3867 79.406 19.2053 79.3474 19.056C79.2887 18.9067 79.19 18.792 79.0514 18.712C78.918 18.6267 78.7394 18.584 78.5154 18.584C78.2807 18.584 78.0674 18.6373 77.8754 18.744C77.6887 18.8507 77.542 18.9947 77.4354 19.176C77.334 19.3573 77.2834 19.56 77.2834 19.784V22H76.5714ZM83.2198 22.072C82.7451 22.072 82.3851 21.9467 82.1398 21.696C81.8998 21.4453 81.7798 21.088 81.7798 20.624V18.632H80.9798V18.048H81.8038V16.872H82.4918V18.048H83.9078V18.632H82.4918V20.56C82.4918 20.864 82.5584 21.0907 82.6918 21.24C82.8304 21.384 83.0411 21.456 83.3238 21.456C83.4358 21.456 83.5424 21.4453 83.6438 21.424C83.7504 21.4027 83.8518 21.3707 83.9478 21.328L84.0598 21.888C83.9531 21.9467 83.8224 21.992 83.6678 22.024C83.5184 22.056 83.3691 22.072 83.2198 22.072ZM84.8117 17.096V16.304H85.6757V17.096H84.8117ZM84.8917 22V18.048H85.6037V22H84.8917ZM88.6885 22.072C88.2138 22.072 87.8538 21.9467 87.6085 21.696C87.3685 21.4453 87.2485 21.088 87.2485 20.624V18.632H86.4485V18.048H87.2725V16.872H87.9605V18.048H89.3765V18.632H87.9605V20.56C87.9605 20.864 88.0272 21.0907 88.1605 21.24C88.2992 21.384 88.5098 21.456 88.7925 21.456C88.9045 21.456 89.0112 21.4453 89.1125 21.424C89.2192 21.4027 89.3205 21.3707 89.4165 21.328L89.5285 21.888C89.4218 21.9467 89.2912 21.992 89.1365 22.024C88.9872 22.056 88.8378 22.072 88.6885 22.072ZM90.8873 23.44L91.6393 21.744V22.248L89.8633 18.048H90.6233L91.9113 21.304H91.8713L93.1593 18.048H93.9033L91.6393 23.44H90.8873Z" fill="#A0A09E"/>
</svg>
