<svg width="113" height="26" viewBox="0 0 113 26" fill="none" xmlns="http://www.w3.org/2000/svg">
<rect y="1" width="24" height="24" rx="12" fill="#F9DDD9"/>
<path d="M17.4414 15.8719C17.2352 15.6812 16.932 15.6344 16.6727 15.5906C16.3133 15.5312 16.1758 15.4656 15.9664 15.2781C15.5195 14.8812 15.5195 14.3063 15.9664 13.9094L16.9133 13.0688C18.3633 11.7875 18.3633 9.6875 16.9133 8.40625C15.8445 7.46562 14.4102 7 12.9195 7C11.1789 7 9.36016 7.63437 7.95703 8.87812C5.34766 11.1844 5.34766 14.9625 7.95703 17.2688C9.25391 18.4156 11.0039 18.9875 12.7352 19H12.7883C14.5195 19 16.2258 18.4406 17.4383 17.3625C17.8883 16.9656 17.813 16.2187 17.4414 15.8719Z" stroke="#CE3439" stroke-miterlimit="10"/>
<path d="M8.5 12.5C9.05228 12.5 9.5 12.0523 9.5 11.5C9.5 10.9477 9.05228 10.5 8.5 10.5C7.94772 10.5 7.5 10.9477 7.5 11.5C7.5 12.0523 7.94772 12.5 8.5 12.5Z" fill="#CE3439"/>
<path d="M8.75 15.7188C9.30228 15.7188 9.75 15.271 9.75 14.7188C9.75 14.1665 9.30228 13.7188 8.75 13.7188C8.19772 13.7188 7.75 14.1665 7.75 14.7188C7.75 15.271 8.19772 15.7188 8.75 15.7188Z" fill="#CE3439"/>
<path d="M11 10.5C11.5523 10.5 12 10.0523 12 9.5C12 8.94772 11.5523 8.5 11 8.5C10.4477 8.5 10 8.94772 10 9.5C10 10.0523 10.4477 10.5 11 10.5Z" fill="#CE3439"/>
<path d="M12 17.9688C12.8284 17.9688 13.5 17.2972 13.5 16.4688C13.5 15.6403 12.8284 14.9688 12 14.9688C11.1716 14.9688 10.5 15.6403 10.5 16.4688C10.5 17.2972 11.1716 17.9688 12 17.9688Z" fill="#CE3439"/>
<path d="M14.25 10.5C14.8023 10.5 15.25 10.0523 15.25 9.5C15.25 8.94772 14.8023 8.5 14.25 8.5C13.6977 8.5 13.25 8.94772 13.25 9.5C13.25 10.0523 13.6977 10.5 14.25 10.5Z" fill="#CE3439"/>
<path d="M34.808 9V3.36H35.768L37.712 7.2H37.656L39.592 3.36H40.536V9H39.696V4.64H39.728L37.984 8.096H37.368L35.608 4.64H35.648V9H34.808ZM43.5118 9.072C43.1811 9.072 42.9038 9.01333 42.6798 8.896C42.4558 8.77333 42.2851 8.592 42.1678 8.352C42.0558 8.112 41.9998 7.81067 41.9998 7.448V5.032H42.8798V7.416C42.8798 7.60267 42.9064 7.768 42.9598 7.912C43.0184 8.05067 43.1091 8.15733 43.2318 8.232C43.3598 8.30667 43.5251 8.344 43.7278 8.344C43.9304 8.344 44.1144 8.296 44.2798 8.2C44.4451 8.09867 44.5758 7.96533 44.6718 7.8C44.7678 7.62933 44.8158 7.44533 44.8158 7.248V5.032H45.6878V9H44.8798V8.152H44.8878C44.7544 8.44 44.5704 8.66667 44.3358 8.832C44.1064 8.992 43.8318 9.072 43.5118 9.072ZM48.3114 9.072C47.8954 9.072 47.578 8.95733 47.3594 8.728C47.1407 8.49333 47.0314 8.16267 47.0314 7.736V3.36H47.9034V7.656C47.9034 7.81067 47.9247 7.94133 47.9674 8.048C48.0154 8.15467 48.082 8.23467 48.1674 8.288C48.2527 8.34133 48.3567 8.368 48.4794 8.368C48.5594 8.368 48.634 8.36533 48.7034 8.36C48.7727 8.34933 48.8447 8.33333 48.9194 8.312L48.9514 8.976C48.85 9.01333 48.7487 9.03733 48.6474 9.048C48.5514 9.064 48.4394 9.072 48.3114 9.072ZM51.3931 9.072C50.8811 9.072 50.4971 8.94133 50.2411 8.68C49.9905 8.41867 49.8651 8.04267 49.8651 7.552V5.744H49.0731V5.032H49.8971V3.88H50.7371V5.032H52.1371V5.744H50.7371V7.496C50.7371 7.77867 50.8011 7.98933 50.9291 8.128C51.0625 8.26133 51.2625 8.328 51.5291 8.328C51.6358 8.328 51.7398 8.31733 51.8411 8.296C51.9478 8.27467 52.0491 8.248 52.1451 8.216L52.2731 8.888C52.1558 8.952 52.0198 8.99733 51.8651 9.024C51.7105 9.056 51.5531 9.072 51.3931 9.072ZM52.9746 4.152V3.232H54.0066V4.152H52.9746ZM53.0626 9V5.032H53.9346V9H53.0626ZM60.1784 9.08C59.6291 9.08 59.1491 8.96267 58.7384 8.728C58.3331 8.49333 58.0184 8.16 57.7944 7.728C57.5758 7.296 57.4664 6.77867 57.4664 6.176C57.4664 5.57333 57.5758 5.05867 57.7944 4.632C58.0184 4.2 58.3331 3.86933 58.7384 3.64C59.1438 3.40533 59.6238 3.288 60.1784 3.288C60.5731 3.288 60.9331 3.344 61.2584 3.456C61.5891 3.568 61.8664 3.73867 62.0904 3.968L61.7864 4.656C61.5411 4.448 61.2904 4.29867 61.0344 4.208C60.7838 4.11733 60.5064 4.072 60.2024 4.072C59.6371 4.072 59.1918 4.25067 58.8664 4.608C58.5464 4.96533 58.3864 5.488 58.3864 6.176C58.3864 6.864 58.5464 7.38933 58.8664 7.752C59.1864 8.10933 59.6318 8.288 60.2024 8.288C60.5064 8.288 60.7838 8.24267 61.0344 8.152C61.2904 8.06133 61.5411 7.912 61.7864 7.704L62.0904 8.392C61.8664 8.616 61.5891 8.78667 61.2584 8.904C60.9331 9.02133 60.5731 9.08 60.1784 9.08ZM64.7374 9.072C64.3268 9.072 63.9694 8.98667 63.6654 8.816C63.3614 8.64533 63.1268 8.40533 62.9614 8.096C62.7961 7.78667 62.7134 7.424 62.7134 7.008C62.7134 6.592 62.7961 6.232 62.9614 5.928C63.1268 5.61867 63.3614 5.37867 63.6654 5.208C63.9694 5.03733 64.3268 4.952 64.7374 4.952C65.1534 4.952 65.5108 5.03733 65.8094 5.208C66.1081 5.37867 66.3401 5.61867 66.5054 5.928C66.6708 6.23733 66.7534 6.59733 66.7534 7.008C66.7534 7.424 66.6708 7.78667 66.5054 8.096C66.3454 8.40533 66.1134 8.64533 65.8094 8.816C65.5108 8.98667 65.1534 9.072 64.7374 9.072ZM64.7374 8.352C65.0948 8.352 65.3748 8.232 65.5774 7.992C65.7854 7.752 65.8894 7.424 65.8894 7.008C65.8894 6.592 65.7854 6.26667 65.5774 6.032C65.3748 5.79733 65.0948 5.68 64.7374 5.68C64.3748 5.68 64.0894 5.79733 63.8814 6.032C63.6788 6.26667 63.5774 6.592 63.5774 7.008C63.5774 7.424 63.6814 7.752 63.8894 7.992C64.0974 8.232 64.3801 8.352 64.7374 8.352ZM69.1473 9.072C68.7313 9.072 68.414 8.95733 68.1953 8.728C67.9766 8.49333 67.8673 8.16267 67.8673 7.736V3.36H68.7393V7.656C68.7393 7.81067 68.7606 7.94133 68.8033 8.048C68.8513 8.15467 68.918 8.23467 69.0033 8.288C69.0886 8.34133 69.1926 8.368 69.3153 8.368C69.3953 8.368 69.47 8.36533 69.5393 8.36C69.6086 8.34933 69.6806 8.33333 69.7553 8.312L69.7873 8.976C69.686 9.01333 69.5846 9.03733 69.4833 9.048C69.3873 9.064 69.2753 9.072 69.1473 9.072ZM72.2999 9.072C71.8893 9.072 71.5319 8.98667 71.2279 8.816C70.9239 8.64533 70.6893 8.40533 70.5239 8.096C70.3586 7.78667 70.2759 7.424 70.2759 7.008C70.2759 6.592 70.3586 6.232 70.5239 5.928C70.6893 5.61867 70.9239 5.37867 71.2279 5.208C71.5319 5.03733 71.8893 4.952 72.2999 4.952C72.7159 4.952 73.0733 5.03733 73.3719 5.208C73.6706 5.37867 73.9026 5.61867 74.0679 5.928C74.2333 6.23733 74.3159 6.59733 74.3159 7.008C74.3159 7.424 74.2333 7.78667 74.0679 8.096C73.9079 8.40533 73.6759 8.64533 73.3719 8.816C73.0733 8.98667 72.7159 9.072 72.2999 9.072ZM72.2999 8.352C72.6573 8.352 72.9373 8.232 73.1399 7.992C73.3479 7.752 73.4519 7.424 73.4519 7.008C73.4519 6.592 73.3479 6.26667 73.1399 6.032C72.9373 5.79733 72.6573 5.68 72.2999 5.68C71.9373 5.68 71.6519 5.79733 71.4439 6.032C71.2413 6.26667 71.1399 6.592 71.1399 7.008C71.1399 7.424 71.2439 7.752 71.4519 7.992C71.6599 8.232 71.9426 8.352 72.2999 8.352ZM75.4298 9V5.032H76.2138V5.976H76.2218C76.3178 5.67733 76.4805 5.44267 76.7098 5.272C76.9445 5.096 77.2325 4.99733 77.5738 4.976L77.9738 4.944L78.0538 5.744L77.4138 5.8C77.0618 5.82667 76.7898 5.94133 76.5978 6.144C76.4058 6.34133 76.3098 6.58933 76.3098 6.888V9H75.4298ZM81.292 9V3.36H83.716C84.1213 3.36 84.468 3.42933 84.756 3.568C85.0493 3.70133 85.2707 3.89867 85.42 4.16C85.5747 4.416 85.652 4.728 85.652 5.096C85.652 5.45333 85.5747 5.76267 85.42 6.024C85.2653 6.28533 85.044 6.488 84.756 6.632C84.468 6.776 84.1213 6.848 83.716 6.848H82.172V9H81.292ZM82.172 6.112H83.58C83.9693 6.112 84.2653 6.02933 84.468 5.864C84.6707 5.69333 84.772 5.43733 84.772 5.096C84.772 4.75467 84.6707 4.504 84.468 4.344C84.2707 4.17867 83.9747 4.096 83.58 4.096H82.172V6.112ZM86.6564 9V5.032H87.4404V5.976H87.4484C87.5444 5.67733 87.707 5.44267 87.9364 5.272C88.171 5.096 88.459 4.99733 88.8004 4.976L89.2004 4.944L89.2804 5.744L88.6404 5.8C88.2884 5.82667 88.0164 5.94133 87.8244 6.144C87.6324 6.34133 87.5364 6.58933 87.5364 6.888V9H86.6564ZM90.0215 4.152V3.232H91.0535V4.152H90.0215ZM90.1095 9V5.032H90.9815V9H90.1095ZM92.3283 9V5.032H93.1363V5.864H93.1443C93.2723 5.576 93.4616 5.352 93.7122 5.192C93.9683 5.032 94.2563 4.952 94.5763 4.952C94.9016 4.952 95.1736 5.01333 95.3923 5.136C95.6163 5.25333 95.7816 5.43467 95.8883 5.68C96.0003 5.92 96.0563 6.22667 96.0563 6.6V9H95.1763V6.64C95.1763 6.43733 95.1469 6.26667 95.0883 6.128C95.0349 5.984 94.9469 5.87467 94.8243 5.8C94.7016 5.72533 94.5389 5.688 94.3363 5.688C94.1176 5.688 93.9229 5.73867 93.7523 5.84C93.5816 5.936 93.4456 6.06933 93.3443 6.24C93.2483 6.40533 93.2003 6.592 93.2003 6.8V9H92.3283ZM99.1509 9.072C98.6389 9.072 98.2549 8.94133 97.9989 8.68C97.7483 8.41867 97.6229 8.04267 97.6229 7.552V5.744H96.8309V5.032H97.6549V3.88H98.4949V5.032H99.8949V5.744H98.4949V7.496C98.4949 7.77867 98.5589 7.98933 98.6869 8.128C98.8203 8.26133 99.0203 8.328 99.2869 8.328C99.3936 8.328 99.4976 8.31733 99.5989 8.296C99.7056 8.27467 99.8069 8.248 99.9029 8.216L100.031 8.888C99.9136 8.952 99.7776 8.99733 99.6229 9.024C99.4683 9.056 99.3109 9.072 99.1509 9.072ZM100.732 4.152V3.232H101.764V4.152H100.732ZM100.82 9V5.032H101.692V9H100.82ZM103.039 9V5.032H103.847V5.864H103.855C103.983 5.576 104.173 5.352 104.423 5.192C104.679 5.032 104.967 4.952 105.287 4.952C105.613 4.952 105.885 5.01333 106.103 5.136C106.327 5.25333 106.493 5.43467 106.599 5.68C106.711 5.92 106.767 6.22667 106.767 6.6V9H105.887V6.64C105.887 6.43733 105.858 6.26667 105.799 6.128C105.746 5.984 105.658 5.87467 105.535 5.8C105.413 5.72533 105.25 5.688 105.047 5.688C104.829 5.688 104.634 5.73867 104.463 5.84C104.293 5.936 104.157 6.06933 104.055 6.24C103.959 6.40533 103.911 6.592 103.911 6.8V9H103.039ZM109.854 10.512C109.534 10.512 109.217 10.4667 108.902 10.376C108.587 10.2907 108.318 10.168 108.094 10.008L108.35 9.344C108.494 9.43467 108.649 9.51467 108.814 9.584C108.979 9.65333 109.147 9.704 109.318 9.736C109.494 9.77333 109.662 9.792 109.822 9.792C110.233 9.792 110.547 9.69333 110.766 9.496C110.99 9.304 111.102 9.024 111.102 8.656V8H111.086C110.985 8.256 110.811 8.46667 110.566 8.632C110.321 8.792 110.035 8.872 109.71 8.872C109.342 8.872 109.019 8.792 108.742 8.632C108.465 8.46667 108.249 8.23733 108.094 7.944C107.939 7.65067 107.862 7.30667 107.862 6.912C107.862 6.52267 107.939 6.18133 108.094 5.888C108.249 5.58933 108.465 5.36 108.742 5.2C109.019 5.03467 109.342 4.952 109.71 4.952C110.041 4.952 110.329 5.03467 110.574 5.2C110.819 5.36533 110.993 5.58667 111.094 5.864H111.102V5.032H111.926V8.584C111.926 8.984 111.843 9.328 111.678 9.616C111.513 9.904 111.275 10.1253 110.966 10.28C110.657 10.4347 110.286 10.512 109.854 10.512ZM109.902 8.176C110.259 8.176 110.542 8.06133 110.75 7.832C110.958 7.60267 111.062 7.296 111.062 6.912C111.062 6.52267 110.958 6.216 110.75 5.992C110.542 5.76267 110.259 5.648 109.902 5.648C109.545 5.648 109.259 5.76267 109.046 5.992C108.838 6.216 108.734 6.52267 108.734 6.912C108.734 7.296 108.838 7.60267 109.046 7.832C109.259 8.06133 109.545 8.176 109.902 8.176Z" fill="black"/>
<path d="M36.456 22L34.016 16.36H34.792L36.808 21.168H36.752L38.768 16.36H39.528L37.088 22H36.456ZM40.1867 17.096V16.304H41.0507V17.096H40.1867ZM40.2667 22V18.048H40.9787V22H40.2667ZM44.5035 22.072C44.1622 22.072 43.8635 21.9893 43.6075 21.824C43.3568 21.6587 43.1728 21.4267 43.0555 21.128V22H42.3995V16.36H43.1115V18.872C43.2235 18.5947 43.3995 18.376 43.6395 18.216C43.8795 18.056 44.1702 17.976 44.5115 17.976C44.8795 17.976 45.1968 18.0613 45.4635 18.232C45.7355 18.4027 45.9462 18.6427 46.0955 18.952C46.2448 19.256 46.3195 19.6133 46.3195 20.024C46.3195 20.4293 46.2448 20.7867 46.0955 21.096C45.9462 21.4053 45.7355 21.6453 45.4635 21.816C45.1915 21.9867 44.8715 22.072 44.5035 22.072ZM44.3515 21.488C44.7408 21.488 45.0475 21.3573 45.2715 21.096C45.4955 20.8347 45.6075 20.4773 45.6075 20.024C45.6075 19.5707 45.4955 19.2133 45.2715 18.952C45.0475 18.6907 44.7408 18.56 44.3515 18.56C43.9675 18.56 43.6635 18.6907 43.4395 18.952C43.2155 19.2133 43.1035 19.5707 43.1035 20.024C43.1035 20.4773 43.2155 20.8347 43.4395 21.096C43.6635 21.3573 43.9675 21.488 44.3515 21.488ZM47.5011 22V18.048H48.1491V18.96H48.1571C48.2531 18.6667 48.4211 18.4373 48.6611 18.272C48.9011 18.1013 49.1944 18.0053 49.5411 17.984L49.9011 17.968L49.9651 18.616L49.3891 18.664C49.0211 18.696 48.7331 18.8187 48.5251 19.032C48.3171 19.24 48.2131 19.5013 48.2131 19.816V22H47.5011ZM52.1258 22.072C51.8431 22.072 51.5898 22.0213 51.3658 21.92C51.1418 21.8133 50.9658 21.6693 50.8378 21.488C50.7098 21.3067 50.6458 21.104 50.6458 20.88C50.6458 20.576 50.7311 20.3387 50.9018 20.168C51.0724 19.992 51.3338 19.8667 51.6858 19.792C52.0431 19.7173 52.4991 19.68 53.0538 19.68H53.6218V20.168H53.0858C52.7764 20.168 52.5124 20.1787 52.2938 20.2C52.0751 20.216 51.8964 20.2507 51.7578 20.304C51.6191 20.352 51.5178 20.4187 51.4538 20.504C51.3898 20.5893 51.3578 20.7013 51.3578 20.84C51.3578 21.0533 51.4404 21.2187 51.6058 21.336C51.7764 21.4533 51.9924 21.512 52.2538 21.512C52.4831 21.512 52.6911 21.4613 52.8778 21.36C53.0698 21.2533 53.2218 21.112 53.3338 20.936C53.4511 20.76 53.5098 20.5653 53.5098 20.352V19.448C53.5098 19.1333 53.4218 18.9067 53.2458 18.768C53.0698 18.624 52.8084 18.552 52.4618 18.552C52.2271 18.552 51.9924 18.584 51.7578 18.648C51.5284 18.712 51.2911 18.8187 51.0458 18.968L50.8138 18.44C50.9791 18.3387 51.1551 18.256 51.3418 18.192C51.5284 18.1227 51.7231 18.0693 51.9258 18.032C52.1284 17.9947 52.3311 17.976 52.5338 17.976C52.8751 17.976 53.1684 18.0293 53.4138 18.136C53.6644 18.2427 53.8564 18.408 53.9898 18.632C54.1284 18.856 54.1978 19.1493 54.1978 19.512V22H53.5738V21.136C53.4991 21.3013 53.3951 21.456 53.2618 21.6C53.1284 21.744 52.9658 21.8587 52.7738 21.944C52.5871 22.0293 52.3711 22.072 52.1258 22.072ZM55.6104 22V18.048H56.2744V18.904C56.4024 18.6107 56.5944 18.384 56.8504 18.224C57.1064 18.0587 57.3944 17.976 57.7144 17.976C58.0398 17.976 58.3118 18.0347 58.5304 18.152C58.7491 18.264 58.9118 18.44 59.0184 18.68C59.1304 18.9147 59.1864 19.208 59.1864 19.56V22H58.4744V19.6C58.4744 19.3867 58.4451 19.2053 58.3864 19.056C58.3278 18.9067 58.2291 18.792 58.0904 18.712C57.9571 18.6267 57.7784 18.584 57.5544 18.584C57.3198 18.584 57.1064 18.6373 56.9144 18.744C56.7278 18.8507 56.5811 18.9947 56.4744 19.176C56.3731 19.3573 56.3224 19.56 56.3224 19.784V22H55.6104ZM62.2588 22.072C61.7841 22.072 61.4241 21.9467 61.1788 21.696C60.9388 21.4453 60.8188 21.088 60.8188 20.624V18.632H60.0188V18.048H60.8428V16.872H61.5308V18.048H62.9468V18.632H61.5308V20.56C61.5308 20.864 61.5975 21.0907 61.7308 21.24C61.8695 21.384 62.0801 21.456 62.3628 21.456C62.4748 21.456 62.5815 21.4453 62.6828 21.424C62.7895 21.4027 62.8908 21.3707 62.9868 21.328L63.0988 21.888C62.9921 21.9467 62.8615 21.992 62.7068 22.024C62.5575 22.056 62.4081 22.072 62.2588 22.072ZM66.2851 22V16.36H66.9971V21.368H69.8611V22H66.2851ZM72.5023 22.072C72.1023 22.072 71.7556 21.9867 71.4623 21.816C71.169 21.6453 70.9423 21.408 70.7823 21.104C70.6223 20.7947 70.5423 20.432 70.5423 20.016C70.5423 19.6053 70.6223 19.248 70.7823 18.944C70.9423 18.6347 71.169 18.3973 71.4623 18.232C71.7556 18.0613 72.1023 17.976 72.5023 17.976C72.9023 17.976 73.2463 18.0613 73.5343 18.232C73.8276 18.3973 74.0543 18.6347 74.2143 18.944C74.3743 19.248 74.4543 19.6053 74.4543 20.016C74.4543 20.432 74.3743 20.7947 74.2143 21.104C74.0596 21.408 73.8356 21.6453 73.5423 21.816C73.249 21.9867 72.9023 22.072 72.5023 22.072ZM72.4943 21.472C72.8836 21.472 73.1903 21.3413 73.4143 21.08C73.6383 20.8187 73.7503 20.464 73.7503 20.016C73.7503 19.568 73.6383 19.216 73.4143 18.96C73.1956 18.704 72.8916 18.576 72.5023 18.576C72.113 18.576 71.8063 18.704 71.5823 18.96C71.3583 19.216 71.2463 19.568 71.2463 20.016C71.2463 20.464 71.3583 20.8187 71.5823 21.08C71.8116 21.3413 72.1156 21.472 72.4943 21.472ZM77.3695 22.072C76.9695 22.072 76.6228 21.9867 76.3295 21.816C76.0362 21.6453 75.8095 21.408 75.6495 21.104C75.4895 20.7947 75.4095 20.432 75.4095 20.016C75.4095 19.6053 75.4895 19.248 75.6495 18.944C75.8095 18.6347 76.0362 18.3973 76.3295 18.232C76.6228 18.0613 76.9695 17.976 77.3695 17.976C77.7695 17.976 78.1135 18.0613 78.4015 18.232C78.6948 18.3973 78.9215 18.6347 79.0815 18.944C79.2415 19.248 79.3215 19.6053 79.3215 20.016C79.3215 20.432 79.2415 20.7947 79.0815 21.104C78.9268 21.408 78.7028 21.6453 78.4095 21.816C78.1162 21.9867 77.7695 22.072 77.3695 22.072ZM77.3615 21.472C77.7508 21.472 78.0575 21.3413 78.2815 21.08C78.5055 20.8187 78.6175 20.464 78.6175 20.016C78.6175 19.568 78.5055 19.216 78.2815 18.96C78.0628 18.704 77.7588 18.576 77.3695 18.576C76.9802 18.576 76.6735 18.704 76.4495 18.96C76.2255 19.216 76.1135 19.568 76.1135 20.016C76.1135 20.464 76.2255 20.8187 76.4495 21.08C76.6788 21.3413 76.9828 21.472 77.3615 21.472ZM80.5167 22V16.36H81.2287V19.808H81.2607L83.0367 18.048H83.9167L81.7967 20.12L81.8127 19.808L84.1167 22H83.2127L81.2607 20.168H81.2287V22H80.5167Z" fill="#A0A09E"/>
</svg>
