<svg width="122" height="27" viewBox="0 0 122 27" fill="none" xmlns="http://www.w3.org/2000/svg">
<rect width="24" height="24" rx="12" fill="#F9DDD9"/>
<path fill-rule="evenodd" clip-rule="evenodd" d="M5.97635 5.25H9.48056C12.9181 5.25 12.9863 5.25197 13.0838 5.34848C13.1798 5.44352 13.1833 5.51246 13.1833 7.46591C13.1833 9.12045 13.1688 9.55379 13.1042 9.86648C13.0604 10.0762 12.9698 10.3811 12.9022 10.5436C12.8345 10.7061 12.6823 10.9833 12.5639 11.1591C12.4455 11.3354 12.1933 11.6234 12.0037 11.7992C11.8142 11.9755 11.5262 12.1966 11.364 12.2912C11.2018 12.3857 10.9347 12.5108 10.472 12.6748V16.5428L11.4809 17.0884C12.0356 17.3888 12.5112 17.668 12.537 17.7083C12.5634 17.7492 12.5853 17.8319 12.5853 17.893C12.5858 17.9541 12.5316 18.0594 12.342 18.25L9.51688 18.2495C7.37376 18.2485 6.66237 18.2337 6.57083 18.188C6.50467 18.1545 6.43154 18.0658 6.40915 17.9915C6.3803 17.8969 6.39075 17.8186 6.44248 17.733C6.49074 17.6532 6.86633 17.4242 8.50501 16.5511L8.507 12.6856L8.39507 12.6511C8.33338 12.6324 8.11549 12.5354 7.91003 12.4364C7.70507 12.337 7.39714 12.1528 7.22601 12.0272C7.05488 11.9017 6.79121 11.6495 6.63998 11.4669C6.48875 11.2842 6.27782 10.9572 6.17186 10.7405C6.0659 10.5239 5.93954 10.2028 5.89128 10.0265C5.81616 9.75322 5.79975 9.40212 5.75 5.51886L5.97635 5.25ZM6.49422 9.6572C6.70465 10.2486 6.8529 10.5588 6.95936 10.7282C7.06582 10.8976 7.28421 11.1552 7.4444 11.3009C7.60458 11.4472 7.84785 11.6298 7.98465 11.7077C8.12146 11.7855 8.41248 11.9061 8.63137 11.975C8.85026 12.0445 9.06915 12.1385 9.1179 12.1838C9.20048 12.2611 9.20645 12.4231 9.20496 14.5691L9.20347 16.8712C9.02388 17.0431 8.81146 17.176 8.61495 17.2775C8.41845 17.3789 8.25827 17.4843 8.25827 17.5114C8.25827 17.5429 8.69753 17.5606 9.47708 17.5606C10.1472 17.5606 10.7063 17.5439 10.7188 17.5237C10.7317 17.5035 10.5417 17.3759 10.2974 17.2405C10.0442 17.1007 9.83028 16.9466 9.80143 16.8835C9.76909 16.8131 9.75069 15.9548 9.75069 14.5322V12.2917C9.93973 12.1006 10.0293 12.0455 10.0716 12.0455C10.1138 12.0455 10.2885 11.9992 10.4596 11.9425C10.6302 11.8859 10.8934 11.7658 11.0441 11.6756C11.1944 11.585 11.4406 11.3881 11.5913 11.2374C11.7416 11.0872 11.949 10.8247 12.052 10.6553C12.155 10.4855 12.2883 10.2136 12.348 10.0511C12.453 9.76701 12.4569 9.68329 12.4594 7.84754L12.4624 5.93939H6.4599L6.49422 9.6572ZM14.4797 5.25C14.5603 5.25 14.6707 5.29432 14.7254 5.34848C14.82 5.44205 14.8249 5.51246 14.8249 8.00758H15.2727L15.2707 6.7642C15.2692 5.58928 15.2746 5.51345 15.3702 5.38542C15.4418 5.28989 15.5159 5.25 15.6209 5.25C15.7035 5.25 15.8144 5.29383 15.8696 5.34848C15.9641 5.44205 15.9691 5.51246 15.9691 8.00758H16.4168L16.4149 6.7642C16.4134 5.58928 16.4188 5.51345 16.5143 5.38542C16.586 5.28989 16.6601 5.25 16.7651 5.25C16.8477 5.25 16.9586 5.29383 17.0138 5.34848C17.1083 5.44205 17.1133 5.51246 17.1133 8.00758H17.561L17.559 6.7642C17.5576 5.58928 17.563 5.51345 17.6585 5.38542C17.7302 5.28989 17.8043 5.25 17.9093 5.25C17.9918 5.25 18.1028 5.29383 18.158 5.34848C18.254 5.44352 18.257 5.50409 18.2451 7.13352C18.2331 8.76 18.2286 8.82795 18.1227 9.04167C18.0625 9.1633 17.9262 9.36273 17.8202 9.48485C17.7138 9.60648 17.5003 9.77292 17.0636 10.0019V13.7812C17.0636 16.8166 17.0506 17.5921 16.9974 17.7206C16.9606 17.8088 16.8656 17.9368 16.786 18.0058C16.7059 18.0747 16.5512 18.1604 16.4417 18.1958C16.3223 18.2347 16.1731 18.247 16.0686 18.2264C15.9726 18.2077 15.8273 18.153 15.7453 18.1042C15.6632 18.056 15.5398 17.9304 15.3473 17.6345L15.3224 9.97727L15.111 9.88076C14.9946 9.82758 14.801 9.6892 14.6812 9.57299C14.5608 9.45678 14.3931 9.21746 14.1533 8.72159L14.1066 5.51837L14.2205 5.38394C14.2966 5.29383 14.3817 5.25 14.4797 5.25ZM15.0483 8.95549C15.1169 9.05693 15.2572 9.18151 15.3597 9.23174C15.4622 9.28246 15.6303 9.34894 15.7328 9.37947C15.8353 9.41049 15.9418 9.47992 15.9691 9.53409C16.001 9.59712 16.0189 11.0276 16.0189 13.5227C16.0189 16.915 16.0283 17.4222 16.0935 17.4867C16.1343 17.5271 16.186 17.5606 16.2079 17.5606C16.2298 17.5606 16.2751 17.533 16.3079 17.4991C16.3547 17.4518 16.3681 16.5388 16.3661 13.5473C16.3636 9.81773 16.3676 9.65227 16.4566 9.53409C16.5124 9.46072 16.6437 9.38587 16.782 9.34943C16.9093 9.31545 17.0949 9.21598 17.1939 9.12784C17.2934 9.0397 17.4053 8.90674 17.4426 8.83239L17.5113 8.69697C15.5065 8.69697 14.9244 8.71371 14.9239 8.7339C14.9239 8.75409 14.9801 8.85405 15.0483 8.95549Z" fill="#CE3439"/>
<path d="M34.792 10V4.36H38.528V5.104H35.672V6.816H38.368V7.56H35.672V10H34.792ZM41.1906 10.072C40.7799 10.072 40.4226 9.98667 40.1186 9.816C39.8146 9.64533 39.5799 9.40533 39.4146 9.096C39.2492 8.78667 39.1666 8.424 39.1666 8.008C39.1666 7.592 39.2492 7.232 39.4146 6.928C39.5799 6.61867 39.8146 6.37867 40.1186 6.208C40.4226 6.03733 40.7799 5.952 41.1906 5.952C41.6066 5.952 41.9639 6.03733 42.2626 6.208C42.5612 6.37867 42.7932 6.61867 42.9586 6.928C43.1239 7.23733 43.2066 7.59733 43.2066 8.008C43.2066 8.424 43.1239 8.78667 42.9586 9.096C42.7986 9.40533 42.5666 9.64533 42.2626 9.816C41.9639 9.98667 41.6066 10.072 41.1906 10.072ZM41.1906 9.352C41.5479 9.352 41.8279 9.232 42.0306 8.992C42.2386 8.752 42.3426 8.424 42.3426 8.008C42.3426 7.592 42.2386 7.26667 42.0306 7.032C41.8279 6.79733 41.5479 6.68 41.1906 6.68C40.8279 6.68 40.5426 6.79733 40.3346 7.032C40.1319 7.26667 40.0306 7.592 40.0306 8.008C40.0306 8.424 40.1346 8.752 40.3426 8.992C40.5506 9.232 40.8332 9.352 41.1906 9.352ZM46.1124 10.072C45.7018 10.072 45.3444 9.98667 45.0404 9.816C44.7364 9.64533 44.5018 9.40533 44.3364 9.096C44.1711 8.78667 44.0884 8.424 44.0884 8.008C44.0884 7.592 44.1711 7.232 44.3364 6.928C44.5018 6.61867 44.7364 6.37867 45.0404 6.208C45.3444 6.03733 45.7018 5.952 46.1124 5.952C46.5284 5.952 46.8858 6.03733 47.1844 6.208C47.4831 6.37867 47.7151 6.61867 47.8804 6.928C48.0458 7.23733 48.1284 7.59733 48.1284 8.008C48.1284 8.424 48.0458 8.78667 47.8804 9.096C47.7204 9.40533 47.4884 9.64533 47.1844 9.816C46.8858 9.98667 46.5284 10.072 46.1124 10.072ZM46.1124 9.352C46.4698 9.352 46.7498 9.232 46.9524 8.992C47.1604 8.752 47.2644 8.424 47.2644 8.008C47.2644 7.592 47.1604 7.26667 46.9524 7.032C46.7498 6.79733 46.4698 6.68 46.1124 6.68C45.7498 6.68 45.4644 6.79733 45.2564 7.032C45.0538 7.26667 44.9524 7.592 44.9524 8.008C44.9524 8.424 45.0564 8.752 45.2644 8.992C45.4724 9.232 45.7551 9.352 46.1124 9.352ZM50.8343 10.072C50.461 10.072 50.1383 9.98667 49.8663 9.816C49.5943 9.64533 49.3836 9.40533 49.2343 9.096C49.085 8.78133 49.0103 8.42133 49.0103 8.016C49.0103 7.60533 49.085 7.248 49.2343 6.944C49.3836 6.63467 49.5916 6.392 49.8583 6.216C50.1303 6.04 50.4503 5.952 50.8183 5.952C51.149 5.952 51.4316 6.02933 51.6663 6.184C51.9063 6.33867 52.0796 6.54667 52.1863 6.808V4.36H53.0663V10H52.2663V9.16H52.2583C52.141 9.448 51.957 9.672 51.7063 9.832C51.461 9.992 51.1703 10.072 50.8343 10.072ZM51.0423 9.384C51.405 9.384 51.6876 9.264 51.8903 9.024C52.0983 8.77867 52.2023 8.44267 52.2023 8.016C52.2023 7.58933 52.0983 7.256 51.8903 7.016C51.6876 6.77067 51.4076 6.648 51.0503 6.648C50.6876 6.648 50.4023 6.77067 50.1943 7.016C49.9916 7.256 49.8903 7.58933 49.8903 8.016C49.8903 8.44267 49.9916 8.77867 50.1943 9.024C50.4023 9.264 50.685 9.384 51.0423 9.384ZM54.3022 8.2V7.496H56.6062V8.2H54.3022ZM60.5799 10.072C59.9879 10.072 59.4785 9.95733 59.0519 9.728C58.6305 9.49867 58.3052 9.168 58.0759 8.736C57.8519 8.304 57.7399 7.784 57.7399 7.176C57.7399 6.57333 57.8519 6.056 58.0759 5.624C58.2999 5.192 58.6199 4.86133 59.0359 4.632C59.4519 4.40267 59.9479 4.288 60.5239 4.288C60.8012 4.288 61.0652 4.31467 61.3159 4.368C61.5719 4.416 61.8065 4.49067 62.0199 4.592C62.2385 4.688 62.4225 4.81067 62.5719 4.96L62.2599 5.64C62.0092 5.432 61.7425 5.28533 61.4599 5.2C61.1772 5.10933 60.8679 5.064 60.5319 5.064C59.9399 5.064 59.4785 5.24267 59.1479 5.6C58.8172 5.95733 58.6519 6.48267 58.6519 7.176C58.6519 7.89067 58.8199 8.42667 59.1559 8.784C59.4919 9.136 59.9825 9.312 60.6279 9.312C60.9105 9.312 61.1745 9.29067 61.4199 9.248C61.6652 9.20533 61.8892 9.14133 62.0919 9.056L61.8599 9.504V7.656H60.5239V6.936H62.6439V9.672C62.4839 9.752 62.2892 9.82133 62.0599 9.88C61.8359 9.93867 61.5959 9.984 61.3399 10.016C61.0839 10.0533 60.8305 10.072 60.5799 10.072ZM64.0392 10V6.032H64.8232V6.976H64.8312C64.9272 6.67733 65.0899 6.44267 65.3192 6.272C65.5539 6.096 65.8419 5.99733 66.1832 5.976L66.5832 5.944L66.6632 6.744L66.0232 6.8C65.6712 6.82667 65.3992 6.94133 65.2072 7.144C65.0152 7.34133 64.9192 7.58933 64.9192 7.888V10H64.0392ZM68.8053 10.072C68.5173 10.072 68.2586 10.0187 68.0293 9.912C67.8053 9.80533 67.6266 9.66133 67.4933 9.48C67.3653 9.29333 67.3013 9.08267 67.3013 8.848C67.3013 8.55467 67.3866 8.32 67.5573 8.144C67.7279 7.96267 67.9893 7.832 68.3413 7.752C68.6986 7.672 69.1546 7.632 69.7093 7.632H70.2693V8.192H69.7493C69.4719 8.192 69.2319 8.20267 69.0293 8.224C68.8319 8.24 68.6693 8.272 68.5413 8.32C68.4133 8.36267 68.3173 8.424 68.2533 8.504C68.1946 8.57867 68.1653 8.67733 68.1653 8.8C68.1653 9.00267 68.2399 9.15733 68.3893 9.264C68.5439 9.37067 68.7439 9.424 68.9893 9.424C69.2026 9.424 69.3946 9.376 69.5653 9.28C69.7413 9.17867 69.8799 9.048 69.9813 8.888C70.0879 8.72267 70.1413 8.54133 70.1413 8.344V7.456C70.1413 7.16267 70.0559 6.95467 69.8853 6.832C69.7199 6.704 69.4719 6.64 69.1413 6.64C68.9119 6.64 68.6799 6.672 68.4453 6.736C68.2159 6.8 67.9759 6.904 67.7253 7.048L67.4693 6.424C67.6346 6.32267 67.8133 6.23733 68.0053 6.168C68.2026 6.09867 68.4079 6.04533 68.6213 6.008C68.8346 5.97067 69.0453 5.952 69.2533 5.952C69.6106 5.952 69.9199 6.008 70.1813 6.12C70.4426 6.232 70.6426 6.40533 70.7812 6.64C70.9199 6.86933 70.9893 7.17067 70.9893 7.544V10H70.2373V9.152H70.2293C70.1546 9.32267 70.0506 9.48 69.9173 9.624C69.7893 9.76267 69.6319 9.872 69.4453 9.952C69.2586 10.032 69.0453 10.072 68.8053 10.072ZM73.9124 10.072C73.5391 10.072 73.2164 9.98667 72.9444 9.816C72.6724 9.64533 72.4618 9.40533 72.3124 9.096C72.1631 8.78133 72.0884 8.42133 72.0884 8.016C72.0884 7.60533 72.1631 7.248 72.3124 6.944C72.4618 6.63467 72.6698 6.392 72.9364 6.216C73.2084 6.04 73.5284 5.952 73.8964 5.952C74.2271 5.952 74.5098 6.02933 74.7444 6.184C74.9844 6.33867 75.1578 6.54667 75.2644 6.808V4.36H76.1444V10H75.3444V9.16H75.3364C75.2191 9.448 75.0351 9.672 74.7844 9.832C74.5391 9.992 74.2484 10.072 73.9124 10.072ZM74.1204 9.384C74.4831 9.384 74.7658 9.264 74.9684 9.024C75.1764 8.77867 75.2804 8.44267 75.2804 8.016C75.2804 7.58933 75.1764 7.256 74.9684 7.016C74.7658 6.77067 74.4858 6.648 74.1284 6.648C73.7658 6.648 73.4804 6.77067 73.2724 7.016C73.0698 7.256 72.9684 7.58933 72.9684 8.016C72.9684 8.44267 73.0698 8.77867 73.2724 9.024C73.4804 9.264 73.7631 9.384 74.1204 9.384ZM79.4763 10.072C79.0123 10.072 78.615 9.992 78.2843 9.832C77.9536 9.66667 77.7003 9.42933 77.5243 9.12C77.3483 8.81067 77.2603 8.44267 77.2603 8.016C77.2603 7.616 77.3403 7.26133 77.5003 6.952C77.6656 6.64267 77.9003 6.4 78.2043 6.224C78.5083 6.04267 78.8656 5.952 79.2763 5.952C79.6656 5.952 79.999 6.03467 80.2763 6.2C80.5536 6.36533 80.767 6.6 80.9163 6.904C81.0656 7.208 81.1403 7.57067 81.1403 7.992V8.264H77.9403V7.696H80.5403L80.3963 7.84C80.3963 7.43467 80.3003 7.128 80.1083 6.92C79.9163 6.70667 79.6443 6.6 79.2923 6.6C79.0523 6.6 78.8416 6.65333 78.6603 6.76C78.4843 6.86133 78.3456 7.01067 78.2443 7.208C78.143 7.4 78.0923 7.63467 78.0923 7.912V8C78.0923 8.30933 78.1456 8.56533 78.2523 8.768C78.3643 8.97067 78.5243 9.12267 78.7323 9.224C78.9456 9.32533 79.2016 9.376 79.5003 9.376C79.719 9.376 79.9376 9.34933 80.1563 9.296C80.3803 9.23733 80.5883 9.13333 80.7803 8.984L81.0523 9.592C80.8443 9.75733 80.599 9.88 80.3163 9.96C80.0336 10.0347 79.7536 10.072 79.4763 10.072ZM84.6596 10V4.36H85.6196L87.5636 8.2H87.5076L89.4436 4.36H90.3876V10H89.5476V5.64H89.5796L87.8356 9.096H87.2196L85.4596 5.64H85.4996V10H84.6596ZM93.2193 10.072C92.9313 10.072 92.6726 10.0187 92.4433 9.912C92.2193 9.80533 92.0406 9.66133 91.9073 9.48C91.7793 9.29333 91.7153 9.08267 91.7153 8.848C91.7153 8.55467 91.8006 8.32 91.9713 8.144C92.142 7.96267 92.4033 7.832 92.7553 7.752C93.1126 7.672 93.5686 7.632 94.1233 7.632H94.6833V8.192H94.1633C93.886 8.192 93.646 8.20267 93.4433 8.224C93.246 8.24 93.0833 8.272 92.9553 8.32C92.8273 8.36267 92.7313 8.424 92.6673 8.504C92.6086 8.57867 92.5793 8.67733 92.5793 8.8C92.5793 9.00267 92.654 9.15733 92.8033 9.264C92.958 9.37067 93.158 9.424 93.4033 9.424C93.6166 9.424 93.8086 9.376 93.9793 9.28C94.1553 9.17867 94.294 9.048 94.3953 8.888C94.502 8.72267 94.5553 8.54133 94.5553 8.344V7.456C94.5553 7.16267 94.47 6.95467 94.2993 6.832C94.134 6.704 93.886 6.64 93.5553 6.64C93.326 6.64 93.094 6.672 92.8593 6.736C92.63 6.8 92.39 6.904 92.1393 7.048L91.8833 6.424C92.0486 6.32267 92.2273 6.23733 92.4193 6.168C92.6166 6.09867 92.822 6.04533 93.0353 6.008C93.2486 5.97067 93.4593 5.952 93.6673 5.952C94.0246 5.952 94.334 6.008 94.5953 6.12C94.8566 6.232 95.0566 6.40533 95.1953 6.64C95.334 6.86933 95.4033 7.17067 95.4033 7.544V10H94.6513V9.152H94.6433C94.5686 9.32267 94.4646 9.48 94.3313 9.624C94.2033 9.76267 94.046 9.872 93.8593 9.952C93.6726 10.032 93.4593 10.072 93.2193 10.072ZM98.5025 10.072C97.9905 10.072 97.6065 9.94133 97.3505 9.68C97.0998 9.41867 96.9745 9.04267 96.9745 8.552V6.744H96.1825V6.032H97.0065V4.88H97.8465V6.032H99.2465V6.744H97.8465V8.496C97.8465 8.77867 97.9105 8.98933 98.0385 9.128C98.1718 9.26133 98.3718 9.328 98.6385 9.328C98.7452 9.328 98.8492 9.31733 98.9505 9.296C99.0572 9.27467 99.1585 9.248 99.2545 9.216L99.3825 9.888C99.2652 9.952 99.1292 9.99733 98.9745 10.024C98.8198 10.056 98.6625 10.072 98.5025 10.072ZM102.117 10.072C101.653 10.072 101.256 9.992 100.925 9.832C100.594 9.66667 100.341 9.42933 100.165 9.12C99.9889 8.81067 99.9009 8.44267 99.9009 8.016C99.9009 7.616 99.9809 7.26133 100.141 6.952C100.306 6.64267 100.541 6.4 100.845 6.224C101.149 6.04267 101.506 5.952 101.917 5.952C102.306 5.952 102.64 6.03467 102.917 6.2C103.194 6.36533 103.408 6.6 103.557 6.904C103.706 7.208 103.781 7.57067 103.781 7.992V8.264H100.581V7.696H103.181L103.037 7.84C103.037 7.43467 102.941 7.128 102.749 6.92C102.557 6.70667 102.285 6.6 101.933 6.6C101.693 6.6 101.482 6.65333 101.301 6.76C101.125 6.86133 100.986 7.01067 100.885 7.208C100.784 7.4 100.733 7.63467 100.733 7.912V8C100.733 8.30933 100.786 8.56533 100.893 8.768C101.005 8.97067 101.165 9.12267 101.373 9.224C101.586 9.32533 101.842 9.376 102.141 9.376C102.36 9.376 102.578 9.34933 102.797 9.296C103.021 9.23733 103.229 9.13333 103.421 8.984L103.693 9.592C103.485 9.75733 103.24 9.88 102.957 9.96C102.674 10.0347 102.394 10.072 102.117 10.072ZM104.875 10V6.032H105.659V6.976H105.667C105.763 6.67733 105.926 6.44267 106.155 6.272C106.39 6.096 106.678 5.99733 107.019 5.976L107.419 5.944L107.499 6.744L106.859 6.8C106.507 6.82667 106.235 6.94133 106.043 7.144C105.851 7.34133 105.755 7.58933 105.755 7.888V10H104.875ZM108.24 5.152V4.232H109.272V5.152H108.24ZM108.328 10V6.032H109.2V10H108.328ZM111.899 10.072C111.611 10.072 111.352 10.0187 111.123 9.912C110.899 9.80533 110.72 9.66133 110.587 9.48C110.459 9.29333 110.395 9.08267 110.395 8.848C110.395 8.55467 110.48 8.32 110.651 8.144C110.822 7.96267 111.083 7.832 111.435 7.752C111.792 7.672 112.248 7.632 112.803 7.632H113.363V8.192H112.843C112.566 8.192 112.326 8.20267 112.123 8.224C111.926 8.24 111.763 8.272 111.635 8.32C111.507 8.36267 111.411 8.424 111.347 8.504C111.288 8.57867 111.259 8.67733 111.259 8.8C111.259 9.00267 111.334 9.15733 111.483 9.264C111.638 9.37067 111.838 9.424 112.083 9.424C112.296 9.424 112.488 9.376 112.659 9.28C112.835 9.17867 112.974 9.048 113.075 8.888C113.182 8.72267 113.235 8.54133 113.235 8.344V7.456C113.235 7.16267 113.15 6.95467 112.979 6.832C112.814 6.704 112.566 6.64 112.235 6.64C112.006 6.64 111.774 6.672 111.539 6.736C111.31 6.8 111.07 6.904 110.819 7.048L110.563 6.424C110.728 6.32267 110.907 6.23733 111.099 6.168C111.296 6.09867 111.502 6.04533 111.715 6.008C111.928 5.97067 112.139 5.952 112.347 5.952C112.704 5.952 113.014 6.008 113.275 6.12C113.536 6.232 113.736 6.40533 113.875 6.64C114.014 6.86933 114.083 7.17067 114.083 7.544V10H113.331V9.152H113.323C113.248 9.32267 113.144 9.48 113.011 9.624C112.883 9.76267 112.726 9.872 112.539 9.952C112.352 10.032 112.139 10.072 111.899 10.072ZM116.694 10.072C116.278 10.072 115.961 9.95733 115.742 9.728C115.524 9.49333 115.414 9.16267 115.414 8.736V4.36H116.286V8.656C116.286 8.81067 116.308 8.94133 116.35 9.048C116.398 9.15467 116.465 9.23467 116.55 9.288C116.636 9.34133 116.74 9.368 116.862 9.368C116.942 9.368 117.017 9.36533 117.086 9.36C117.156 9.34933 117.228 9.33333 117.302 9.312L117.334 9.976C117.233 10.0133 117.132 10.0373 117.03 10.048C116.934 10.064 116.822 10.072 116.694 10.072ZM119.559 10.072C119.329 10.072 119.105 10.0533 118.887 10.016C118.673 9.97867 118.476 9.928 118.295 9.864C118.113 9.79467 117.959 9.70667 117.831 9.6L118.079 8.984C118.217 9.08533 118.369 9.168 118.535 9.232C118.7 9.29067 118.868 9.33333 119.039 9.36C119.209 9.38667 119.377 9.4 119.543 9.4C119.852 9.4 120.089 9.35733 120.255 9.272C120.425 9.18667 120.511 9.06133 120.511 8.896C120.511 8.75733 120.463 8.65333 120.367 8.584C120.271 8.50933 120.113 8.45333 119.895 8.416L119.047 8.28C118.673 8.216 118.393 8.088 118.207 7.896C118.02 7.704 117.927 7.464 117.927 7.176C117.927 6.93067 117.993 6.71733 118.127 6.536C118.26 6.35467 118.455 6.21333 118.711 6.112C118.967 6.00533 119.276 5.952 119.639 5.952C119.836 5.952 120.033 5.97067 120.231 6.008C120.428 6.04533 120.609 6.09867 120.775 6.168C120.945 6.23733 121.087 6.32267 121.199 6.424L120.935 7.032C120.823 6.936 120.695 6.85867 120.551 6.8C120.407 6.74133 120.255 6.69867 120.095 6.672C119.94 6.64533 119.788 6.632 119.639 6.632C119.34 6.632 119.111 6.67733 118.951 6.768C118.796 6.85867 118.719 6.984 118.719 7.144C118.719 7.28267 118.764 7.38933 118.855 7.464C118.945 7.53333 119.089 7.58667 119.287 7.624L120.111 7.768C120.516 7.83733 120.815 7.96267 121.007 8.144C121.199 8.32533 121.295 8.568 121.295 8.872C121.295 9.11733 121.223 9.33067 121.079 9.512C120.94 9.69333 120.74 9.832 120.479 9.928C120.217 10.024 119.911 10.072 119.559 10.072Z" fill="black"/>
<path d="M36.72 23.072C36.4107 23.072 36.1173 23.048 35.84 23C35.5627 22.952 35.3093 22.88 35.08 22.784C34.8507 22.688 34.6507 22.5707 34.48 22.432L34.744 21.84C34.9253 21.984 35.1173 22.1013 35.32 22.192C35.528 22.2773 35.7467 22.3387 35.976 22.376C36.2107 22.4133 36.4587 22.432 36.72 22.432C37.1627 22.432 37.5013 22.344 37.736 22.168C37.976 21.992 38.096 21.752 38.096 21.448C38.096 21.288 38.056 21.1547 37.976 21.048C37.9013 20.9413 37.7813 20.8533 37.616 20.784C37.456 20.7147 37.248 20.6533 36.992 20.6L36.072 20.424C35.5547 20.3227 35.1813 20.144 34.952 19.888C34.7227 19.632 34.608 19.3093 34.608 18.92C34.608 18.5893 34.6987 18.304 34.88 18.064C35.0667 17.8187 35.3227 17.6293 35.648 17.496C35.9787 17.3573 36.3547 17.288 36.776 17.288C37.0427 17.288 37.2907 17.3147 37.52 17.368C37.7547 17.416 37.968 17.4907 38.16 17.592C38.3573 17.6933 38.5333 17.816 38.688 17.96L38.424 18.544C38.1947 18.32 37.944 18.1627 37.672 18.072C37.4 17.976 37.0987 17.928 36.768 17.928C36.4907 17.928 36.2427 17.968 36.024 18.048C35.8053 18.1227 35.632 18.2347 35.504 18.384C35.3813 18.528 35.32 18.7067 35.32 18.92C35.32 19.1547 35.3947 19.3413 35.544 19.48C35.6933 19.6133 35.9467 19.7173 36.304 19.792L37.216 19.968C37.76 20.0693 38.1627 20.24 38.424 20.48C38.6853 20.72 38.816 21.032 38.816 21.416C38.816 21.736 38.728 22.0213 38.552 22.272C38.3813 22.5227 38.1387 22.72 37.824 22.864C37.5147 23.0027 37.1467 23.072 36.72 23.072ZM41.282 23.072C40.9993 23.072 40.746 23.0213 40.522 22.92C40.298 22.8133 40.122 22.6693 39.994 22.488C39.866 22.3067 39.802 22.104 39.802 21.88C39.802 21.576 39.8873 21.3387 40.058 21.168C40.2287 20.992 40.49 20.8667 40.842 20.792C41.1993 20.7173 41.6553 20.68 42.21 20.68H42.778V21.168H42.242C41.9327 21.168 41.6687 21.1787 41.45 21.2C41.2313 21.216 41.0527 21.2507 40.914 21.304C40.7753 21.352 40.674 21.4187 40.61 21.504C40.546 21.5893 40.514 21.7013 40.514 21.84C40.514 22.0533 40.5967 22.2187 40.762 22.336C40.9327 22.4533 41.1487 22.512 41.41 22.512C41.6393 22.512 41.8473 22.4613 42.034 22.36C42.226 22.2533 42.378 22.112 42.49 21.936C42.6073 21.76 42.666 21.5653 42.666 21.352V20.448C42.666 20.1333 42.578 19.9067 42.402 19.768C42.226 19.624 41.9647 19.552 41.618 19.552C41.3833 19.552 41.1487 19.584 40.914 19.648C40.6847 19.712 40.4473 19.8187 40.202 19.968L39.97 19.44C40.1353 19.3387 40.3113 19.256 40.498 19.192C40.6847 19.1227 40.8793 19.0693 41.082 19.032C41.2847 18.9947 41.4873 18.976 41.69 18.976C42.0313 18.976 42.3247 19.0293 42.57 19.136C42.8207 19.2427 43.0127 19.408 43.146 19.632C43.2847 19.856 43.354 20.1493 43.354 20.512V23H42.73V22.136C42.6553 22.3013 42.5513 22.456 42.418 22.6C42.2847 22.744 42.122 22.8587 41.93 22.944C41.7433 23.0293 41.5273 23.072 41.282 23.072ZM45.0067 23V19.608H44.1987V19.048H45.1907L45.0067 19.232V18.976C45.0067 18.4587 45.1507 18.0667 45.4387 17.8C45.7267 17.528 46.1454 17.376 46.6947 17.344L47.1107 17.32L47.1667 17.904L46.6867 17.936C46.4947 17.9467 46.3267 17.984 46.1827 18.048C46.0387 18.1067 45.924 18.2027 45.8387 18.336C45.7587 18.4693 45.7187 18.656 45.7187 18.896V19.128L45.6067 19.048H46.9667V19.608H45.7187V23H45.0067ZM49.6785 23.072C49.2358 23.072 48.8518 22.992 48.5265 22.832C48.2065 22.6667 47.9612 22.432 47.7905 22.128C47.6198 21.8187 47.5345 21.4507 47.5345 21.024C47.5345 20.624 47.6145 20.272 47.7745 19.968C47.9345 19.6587 48.1612 19.416 48.4545 19.24C48.7478 19.064 49.0972 18.976 49.5025 18.976C49.8865 18.976 50.2118 19.0587 50.4785 19.224C50.7505 19.3893 50.9558 19.6213 51.0945 19.92C51.2385 20.2187 51.3105 20.5733 51.3105 20.984V21.216H48.0705V20.72H50.8465L50.6945 20.88C50.6945 20.4427 50.5905 20.1067 50.3825 19.872C50.1798 19.6373 49.8865 19.52 49.5025 19.52C49.2518 19.52 49.0278 19.5787 48.8305 19.696C48.6385 19.808 48.4892 19.968 48.3825 20.176C48.2758 20.384 48.2225 20.6373 48.2225 20.936V21.016C48.2225 21.336 48.2812 21.6053 48.3985 21.824C48.5158 22.0427 48.6838 22.208 48.9025 22.32C49.1212 22.432 49.3825 22.488 49.6865 22.488C49.9052 22.488 50.1265 22.4587 50.3505 22.4C50.5798 22.336 50.7932 22.224 50.9905 22.064L51.2305 22.576C51.0278 22.7467 50.7852 22.872 50.5025 22.952C50.2252 23.032 49.9505 23.072 49.6785 23.072ZM54.8398 23V17.36H58.4878V17.984H55.5518V19.864H58.3278V20.48H55.5518V23H54.8398ZM61.1195 23.072C60.7195 23.072 60.3728 22.9867 60.0795 22.816C59.7862 22.6453 59.5595 22.408 59.3995 22.104C59.2395 21.7947 59.1595 21.432 59.1595 21.016C59.1595 20.6053 59.2395 20.248 59.3995 19.944C59.5595 19.6347 59.7862 19.3973 60.0795 19.232C60.3728 19.0613 60.7195 18.976 61.1195 18.976C61.5195 18.976 61.8635 19.0613 62.1515 19.232C62.4448 19.3973 62.6715 19.6347 62.8315 19.944C62.9915 20.248 63.0715 20.6053 63.0715 21.016C63.0715 21.432 62.9915 21.7947 62.8315 22.104C62.6768 22.408 62.4528 22.6453 62.1595 22.816C61.8662 22.9867 61.5195 23.072 61.1195 23.072ZM61.1115 22.472C61.5008 22.472 61.8075 22.3413 62.0315 22.08C62.2555 21.8187 62.3675 21.464 62.3675 21.016C62.3675 20.568 62.2555 20.216 62.0315 19.96C61.8128 19.704 61.5088 19.576 61.1195 19.576C60.7302 19.576 60.4235 19.704 60.1995 19.96C59.9755 20.216 59.8635 20.568 59.8635 21.016C59.8635 21.464 59.9755 21.8187 60.1995 22.08C60.4288 22.3413 60.7328 22.472 61.1115 22.472ZM64.2667 23V19.048H64.9147V19.96H64.9227C65.0187 19.6667 65.1867 19.4373 65.4267 19.272C65.6667 19.1013 65.96 19.0053 66.3067 18.984L66.6667 18.968L66.7307 19.616L66.1547 19.664C65.7867 19.696 65.4987 19.8187 65.2907 20.032C65.0827 20.24 64.9787 20.5013 64.9787 20.816V23H64.2667ZM69.9648 23V17.36H73.6128V17.984H70.6768V19.864H73.4528V20.48H70.6768V23H69.9648ZM76.2445 23.072C75.8445 23.072 75.4978 22.9867 75.2045 22.816C74.9112 22.6453 74.6845 22.408 74.5245 22.104C74.3645 21.7947 74.2845 21.432 74.2845 21.016C74.2845 20.6053 74.3645 20.248 74.5245 19.944C74.6845 19.6347 74.9112 19.3973 75.2045 19.232C75.4978 19.0613 75.8445 18.976 76.2445 18.976C76.6445 18.976 76.9885 19.0613 77.2765 19.232C77.5698 19.3973 77.7965 19.6347 77.9565 19.944C78.1165 20.248 78.1965 20.6053 78.1965 21.016C78.1965 21.432 78.1165 21.7947 77.9565 22.104C77.8018 22.408 77.5778 22.6453 77.2845 22.816C76.9912 22.9867 76.6445 23.072 76.2445 23.072ZM76.2365 22.472C76.6258 22.472 76.9325 22.3413 77.1565 22.08C77.3805 21.8187 77.4925 21.464 77.4925 21.016C77.4925 20.568 77.3805 20.216 77.1565 19.96C76.9378 19.704 76.6338 19.576 76.2445 19.576C75.8552 19.576 75.5485 19.704 75.3245 19.96C75.1005 20.216 74.9885 20.568 74.9885 21.016C74.9885 21.464 75.1005 21.8187 75.3245 22.08C75.5538 22.3413 75.8578 22.472 76.2365 22.472ZM81.1117 23.072C80.7117 23.072 80.365 22.9867 80.0717 22.816C79.7784 22.6453 79.5517 22.408 79.3917 22.104C79.2317 21.7947 79.1517 21.432 79.1517 21.016C79.1517 20.6053 79.2317 20.248 79.3917 19.944C79.5517 19.6347 79.7784 19.3973 80.0717 19.232C80.365 19.0613 80.7117 18.976 81.1117 18.976C81.5117 18.976 81.8557 19.0613 82.1437 19.232C82.437 19.3973 82.6637 19.6347 82.8237 19.944C82.9837 20.248 83.0637 20.6053 83.0637 21.016C83.0637 21.432 82.9837 21.7947 82.8237 22.104C82.669 22.408 82.445 22.6453 82.1517 22.816C81.8584 22.9867 81.5117 23.072 81.1117 23.072ZM81.1037 22.472C81.493 22.472 81.7997 22.3413 82.0237 22.08C82.2477 21.8187 82.3597 21.464 82.3597 21.016C82.3597 20.568 82.2477 20.216 82.0237 19.96C81.805 19.704 81.501 19.576 81.1117 19.576C80.7224 19.576 80.4157 19.704 80.1917 19.96C79.9677 20.216 79.8557 20.568 79.8557 21.016C79.8557 21.464 79.9677 21.8187 80.1917 22.08C80.421 22.3413 80.725 22.472 81.1037 22.472ZM85.8349 23.072C85.4722 23.072 85.1549 22.9867 84.8829 22.816C84.6109 22.6453 84.3975 22.4053 84.2429 22.096C84.0935 21.7867 84.0189 21.4293 84.0189 21.024C84.0189 20.6133 84.0935 20.256 84.2429 19.952C84.3922 19.6427 84.6029 19.4027 84.8749 19.232C85.1469 19.0613 85.4642 18.976 85.8269 18.976C86.1682 18.976 86.4589 19.056 86.6989 19.216C86.9442 19.376 87.1202 19.5947 87.2269 19.872V17.36H87.9389V23H87.2829V22.128C87.1655 22.4267 86.9815 22.6587 86.7309 22.824C86.4802 22.9893 86.1815 23.072 85.8349 23.072ZM85.9869 22.488C86.3762 22.488 86.6802 22.3573 86.8989 22.096C87.1229 21.8347 87.2349 21.4773 87.2349 21.024C87.2349 20.5707 87.1229 20.2133 86.8989 19.952C86.6802 19.6907 86.3762 19.56 85.9869 19.56C85.6029 19.56 85.2962 19.6907 85.0669 19.952C84.8429 20.2133 84.7309 20.5707 84.7309 21.024C84.7309 21.4773 84.8429 21.8347 85.0669 22.096C85.2909 22.3573 85.5975 22.488 85.9869 22.488Z" fill="#A0A09E"/>
</svg>
