<svg width="139" height="26" viewBox="0 0 139 26" fill="none" xmlns="http://www.w3.org/2000/svg">
<rect width="24" height="24" rx="12" fill="#F9DDD9"/>
<path d="M7.07733 16.6666C6.77867 16.6666 6.52444 16.5617 6.31467 16.3519C6.10489 16.1421 6 15.8881 6 15.5899V8.40992C6 8.11214 6.10489 7.85814 6.31467 7.64792C6.52444 7.43814 6.77867 7.33325 7.07733 7.33325H16.9233C17.2211 7.33325 17.4751 7.43814 17.6853 7.64792C17.8951 7.8577 18 8.11192 18 8.41059V15.5899C18 15.8877 17.8951 16.1417 17.6853 16.3519C17.4756 16.5617 17.2216 16.6666 16.9233 16.6666H7.07733ZM7.07733 15.9999H16.9233C17.0429 15.9999 17.1411 15.9615 17.218 15.8846C17.2949 15.8077 17.3333 15.7095 17.3333 15.5899V8.40992C17.3333 8.29036 17.2949 8.19214 17.218 8.11525C17.1411 8.03836 17.0429 7.99992 16.9233 7.99992H7.07667C6.95711 7.99992 6.85889 8.03836 6.782 8.11525C6.70511 8.19214 6.66667 8.29059 6.66667 8.41059V15.5899C6.66667 15.7095 6.70511 15.8077 6.782 15.8846C6.85889 15.9615 6.95733 15.9999 7.07733 15.9999ZM7.92333 14.7439H13.41V9.25659H7.92333V14.7439ZM15.7433 14.7439C15.8811 14.7439 16.0011 14.6928 16.1033 14.5906C16.2056 14.4884 16.2567 14.3684 16.2567 14.2306C16.2567 14.0928 16.2056 13.9728 16.1033 13.8706C16.0011 13.7684 15.8811 13.7175 15.7433 13.7179C15.6056 13.7184 15.4858 13.7695 15.384 13.8713C15.2822 13.973 15.2311 14.093 15.2307 14.2313C15.2307 14.3686 15.2818 14.4884 15.384 14.5906C15.4862 14.6928 15.6056 14.7439 15.7433 14.7439ZM8.59 14.0773V9.92325H12.7433V14.0766L8.59 14.0773ZM15.7433 12.5126C15.8811 12.5126 16.0011 12.4615 16.1033 12.3593C16.2056 12.257 16.2567 12.1373 16.2567 11.9999C16.2567 11.8626 16.2056 11.7426 16.1033 11.6399C16.0011 11.5373 15.8811 11.4861 15.7433 11.4866C15.6056 11.487 15.4858 11.5381 15.384 11.6399C15.2822 11.7417 15.2311 11.8617 15.2307 11.9999C15.2302 12.1381 15.2813 12.2581 15.384 12.3599C15.4867 12.4617 15.6067 12.5128 15.744 12.5133M15.744 10.2819C15.8813 10.2819 16.0011 10.2308 16.1033 10.1286C16.2056 10.0264 16.2567 9.90636 16.2567 9.76858C16.2567 9.63081 16.2056 9.51125 16.1033 9.40992C16.0011 9.30859 15.8811 9.25747 15.7433 9.25659C15.6056 9.2557 15.4858 9.30681 15.384 9.40992C15.2822 9.51303 15.2311 9.63281 15.2307 9.76925C15.2307 9.90703 15.2818 10.027 15.384 10.1293C15.4862 10.2315 15.6062 10.2824 15.744 10.2819Z" fill="#CE3439"/>
<path d="M32.808 9V3.36H33.768L35.712 7.2H35.656L37.592 3.36H38.536V9H37.696V4.64H37.728L35.984 8.096H35.368L33.608 4.64H33.648V9H32.808ZM39.9278 4.152V3.232H40.9598V4.152H39.9278ZM40.0158 9V5.032H40.8878V9H40.0158ZM44.0505 9.072C43.6398 9.072 43.2798 8.98933 42.9705 8.824C42.6665 8.65333 42.4292 8.41333 42.2585 8.104C42.0878 7.79467 42.0025 7.42933 42.0025 7.008C42.0025 6.58667 42.0878 6.224 42.2585 5.92C42.4292 5.61067 42.6665 5.37333 42.9705 5.208C43.2798 5.03733 43.6425 4.952 44.0585 4.952C44.3358 4.952 44.5998 4.99733 44.8505 5.088C45.1065 5.17867 45.3145 5.29867 45.4745 5.448L45.1945 6.088C45.0452 5.96 44.8772 5.864 44.6905 5.8C44.5038 5.73067 44.3225 5.696 44.1465 5.696C43.7518 5.696 43.4425 5.81067 43.2185 6.04C42.9998 6.264 42.8905 6.58933 42.8905 7.016C42.8905 7.43733 42.9998 7.76267 43.2185 7.992C43.4425 8.22133 43.7492 8.336 44.1385 8.336C44.3198 8.336 44.5012 8.304 44.6825 8.24C44.8692 8.17067 45.0345 8.07467 45.1785 7.952L45.4585 8.592C45.3038 8.74133 45.1012 8.85867 44.8505 8.944C44.5998 9.02933 44.3332 9.072 44.0505 9.072ZM46.3283 9V5.032H47.1123V5.976H47.1203C47.2163 5.67733 47.3789 5.44267 47.6083 5.272C47.8429 5.096 48.1309 4.99733 48.4723 4.976L48.8723 4.944L48.9523 5.744L48.3123 5.8C47.9603 5.82667 47.6883 5.94133 47.4963 6.144C47.3043 6.34133 47.2083 6.58933 47.2083 6.888V9H46.3283ZM51.5187 9.072C51.108 9.072 50.7507 8.98667 50.4467 8.816C50.1427 8.64533 49.908 8.40533 49.7427 8.096C49.5774 7.78667 49.4947 7.424 49.4947 7.008C49.4947 6.592 49.5774 6.232 49.7427 5.928C49.908 5.61867 50.1427 5.37867 50.4467 5.208C50.7507 5.03733 51.108 4.952 51.5187 4.952C51.9347 4.952 52.292 5.03733 52.5907 5.208C52.8894 5.37867 53.1214 5.61867 53.2867 5.928C53.452 6.23733 53.5347 6.59733 53.5347 7.008C53.5347 7.424 53.452 7.78667 53.2867 8.096C53.1267 8.40533 52.8947 8.64533 52.5907 8.816C52.292 8.98667 51.9347 9.072 51.5187 9.072ZM51.5187 8.352C51.876 8.352 52.156 8.232 52.3587 7.992C52.5667 7.752 52.6707 7.424 52.6707 7.008C52.6707 6.592 52.5667 6.26667 52.3587 6.032C52.156 5.79733 51.876 5.68 51.5187 5.68C51.156 5.68 50.8707 5.79733 50.6627 6.032C50.46 6.26667 50.3587 6.592 50.3587 7.008C50.3587 7.424 50.4627 7.752 50.6707 7.992C50.8787 8.232 51.1614 8.352 51.5187 8.352ZM55.4823 9L54.0823 5.032H54.9622L55.9463 8.088H55.9143L57.0263 5.032H57.7223L58.8183 8.088H58.7863L59.7863 5.032H60.6423L59.2423 9H58.4663L57.3143 5.888H57.4183L56.2582 9H55.4823ZM62.774 9.072C62.486 9.072 62.2273 9.01867 61.998 8.912C61.774 8.80533 61.5953 8.66133 61.462 8.48C61.334 8.29333 61.27 8.08267 61.27 7.848C61.27 7.55467 61.3553 7.32 61.526 7.144C61.6967 6.96267 61.958 6.832 62.31 6.752C62.6673 6.672 63.1233 6.632 63.678 6.632H64.238V7.192H63.718C63.4407 7.192 63.2007 7.20267 62.998 7.224C62.8007 7.24 62.638 7.272 62.51 7.32C62.382 7.36267 62.286 7.424 62.222 7.504C62.1633 7.57867 62.134 7.67733 62.134 7.8C62.134 8.00267 62.2087 8.15733 62.358 8.264C62.5127 8.37067 62.7127 8.424 62.958 8.424C63.1713 8.424 63.3633 8.376 63.534 8.28C63.71 8.17867 63.8487 8.048 63.95 7.888C64.0567 7.72267 64.11 7.54133 64.11 7.344V6.456C64.11 6.16267 64.0247 5.95467 63.854 5.832C63.6887 5.704 63.4407 5.64 63.11 5.64C62.8807 5.64 62.6487 5.672 62.414 5.736C62.1847 5.8 61.9447 5.904 61.694 6.048L61.438 5.424C61.6033 5.32267 61.782 5.23733 61.974 5.168C62.1713 5.09867 62.3767 5.04533 62.59 5.008C62.8033 4.97067 63.014 4.952 63.222 4.952C63.5793 4.952 63.8887 5.008 64.15 5.12C64.4113 5.232 64.6113 5.40533 64.75 5.64C64.8887 5.86933 64.958 6.17067 64.958 6.544V9H64.206V8.152H64.198C64.1233 8.32267 64.0193 8.48 63.886 8.624C63.758 8.76267 63.6007 8.872 63.414 8.952C63.2273 9.032 63.014 9.072 62.774 9.072ZM67.3461 9L65.6821 5.032H66.6181L67.8101 8.136H67.7701L68.9781 5.032H69.8821L68.2101 9H67.3461ZM72.5623 9.072C72.0983 9.072 71.7009 8.992 71.3703 8.832C71.0396 8.66667 70.7863 8.42933 70.6103 8.12C70.4343 7.81067 70.3463 7.44267 70.3463 7.016C70.3463 6.616 70.4263 6.26133 70.5863 5.952C70.7516 5.64267 70.9863 5.4 71.2903 5.224C71.5943 5.04267 71.9516 4.952 72.3623 4.952C72.7516 4.952 73.0849 5.03467 73.3623 5.2C73.6396 5.36533 73.8529 5.6 74.0023 5.904C74.1516 6.208 74.2263 6.57067 74.2263 6.992V7.264H71.0263V6.696H73.6263L73.4823 6.84C73.4823 6.43467 73.3863 6.128 73.1943 5.92C73.0023 5.70667 72.7303 5.6 72.3783 5.6C72.1383 5.6 71.9276 5.65333 71.7463 5.76C71.5703 5.86133 71.4316 6.01067 71.3303 6.208C71.2289 6.4 71.1783 6.63467 71.1783 6.912V7C71.1783 7.30933 71.2316 7.56533 71.3383 7.768C71.4503 7.97067 71.6103 8.12267 71.8183 8.224C72.0316 8.32533 72.2876 8.376 72.5863 8.376C72.8049 8.376 73.0236 8.34933 73.2423 8.296C73.4663 8.23733 73.6743 8.13333 73.8663 7.984L74.1383 8.592C73.9303 8.75733 73.6849 8.88 73.4023 8.96C73.1196 9.03467 72.8396 9.072 72.5623 9.072ZM81.5946 9.072C81.1999 9.072 80.8612 9.01333 80.5786 8.896C80.2959 8.77867 80.0772 8.61333 79.9226 8.4C79.7732 8.18133 79.6986 7.92533 79.6986 7.632C79.6986 7.376 79.7466 7.152 79.8426 6.96C79.9386 6.768 80.0719 6.592 80.2426 6.432C80.4132 6.272 80.6106 6.12 80.8346 5.976L81.1306 5.776L81.0346 5.944C80.7732 5.68267 80.5839 5.45067 80.4666 5.248C80.3546 5.04 80.2986 4.81867 80.2986 4.584C80.2986 4.328 80.3626 4.104 80.4906 3.912C80.6239 3.71467 80.8079 3.56267 81.0426 3.456C81.2772 3.344 81.5492 3.288 81.8586 3.288C82.1466 3.288 82.3972 3.336 82.6106 3.432C82.8239 3.528 82.9892 3.664 83.1066 3.84C83.2239 4.01067 83.2826 4.216 83.2826 4.456C83.2826 4.65333 83.2346 4.84 83.1386 5.016C83.0426 5.18667 82.9012 5.35467 82.7146 5.52C82.5279 5.68 82.2932 5.84533 82.0106 6.016L81.9546 5.856L83.4026 7.4L83.2906 7.416C83.4026 7.21867 83.4986 6.968 83.5786 6.664C83.6639 6.35467 83.7146 6.03467 83.7306 5.704H84.4746C84.4639 6.14133 84.3946 6.54933 84.2666 6.928C84.1386 7.30667 83.9759 7.632 83.7786 7.904L83.7146 7.704L84.9946 9H83.9786L83.2826 8.272H83.4586C83.2346 8.528 82.9599 8.72533 82.6346 8.864C82.3146 9.00267 81.9679 9.072 81.5946 9.072ZM81.6506 8.4C81.9332 8.4 82.1892 8.34933 82.4186 8.248C82.6532 8.14667 82.8506 7.98933 83.0106 7.776V8.008L81.2826 6.216H81.6266L81.3706 6.376C81.1892 6.49333 81.0372 6.61067 80.9146 6.728C80.7919 6.84 80.6986 6.96267 80.6346 7.096C80.5759 7.224 80.5466 7.37333 80.5466 7.544C80.5466 7.82133 80.6426 8.03467 80.8346 8.184C81.0319 8.328 81.3039 8.4 81.6506 8.4ZM81.8586 3.904C81.6346 3.904 81.4506 3.968 81.3066 4.096C81.1626 4.21867 81.0906 4.38133 81.0906 4.584C81.0906 4.696 81.1092 4.80267 81.1466 4.904C81.1892 5 81.2586 5.10667 81.3546 5.224C81.4506 5.34133 81.5732 5.48 81.7226 5.64L81.5546 5.608C81.7839 5.464 81.9706 5.336 82.1146 5.224C82.2639 5.10667 82.3732 4.992 82.4426 4.88C82.5119 4.76267 82.5466 4.64533 82.5466 4.528C82.5466 4.33067 82.4799 4.17867 82.3466 4.072C82.2186 3.96 82.0559 3.904 81.8586 3.904ZM88.0811 9V3.36H91.8171V4.104H88.9611V5.816H91.6571V6.56H88.9611V9H88.0811ZM92.7579 9V5.032H93.5419V5.976H93.5499C93.6459 5.67733 93.8086 5.44267 94.0379 5.272C94.2726 5.096 94.5606 4.99733 94.9019 4.976L95.3019 4.944L95.3819 5.744L94.7419 5.8C94.3899 5.82667 94.1179 5.94133 93.9259 6.144C93.7339 6.34133 93.6379 6.58933 93.6379 6.888V9H92.7579ZM98.1404 9.072C97.6764 9.072 97.279 8.992 96.9484 8.832C96.6177 8.66667 96.3644 8.42933 96.1884 8.12C96.0124 7.81067 95.9244 7.44267 95.9244 7.016C95.9244 6.616 96.0044 6.26133 96.1644 5.952C96.3297 5.64267 96.5644 5.4 96.8684 5.224C97.1724 5.04267 97.5297 4.952 97.9404 4.952C98.3297 4.952 98.663 5.03467 98.9404 5.2C99.2177 5.36533 99.431 5.6 99.5804 5.904C99.7297 6.208 99.8044 6.57067 99.8044 6.992V7.264H96.6044V6.696H99.2044L99.0604 6.84C99.0604 6.43467 98.9644 6.128 98.7724 5.92C98.5804 5.70667 98.3084 5.6 97.9564 5.6C97.7164 5.6 97.5057 5.65333 97.3244 5.76C97.1484 5.86133 97.0097 6.01067 96.9084 6.208C96.807 6.4 96.7564 6.63467 96.7564 6.912V7C96.7564 7.30933 96.8097 7.56533 96.9164 7.768C97.0284 7.97067 97.1884 8.12267 97.3964 8.224C97.6097 8.32533 97.8657 8.376 98.1644 8.376C98.383 8.376 98.6017 8.34933 98.8204 8.296C99.0444 8.23733 99.2524 8.13333 99.4444 7.984L99.7164 8.592C99.5084 8.75733 99.263 8.88 98.9804 8.96C98.6977 9.03467 98.4177 9.072 98.1404 9.072ZM102.883 9.072C102.419 9.072 102.021 8.992 101.691 8.832C101.36 8.66667 101.107 8.42933 100.931 8.12C100.755 7.81067 100.667 7.44267 100.667 7.016C100.667 6.616 100.747 6.26133 100.907 5.952C101.072 5.64267 101.307 5.4 101.611 5.224C101.915 5.04267 102.272 4.952 102.683 4.952C103.072 4.952 103.405 5.03467 103.683 5.2C103.96 5.36533 104.173 5.6 104.323 5.904C104.472 6.208 104.547 6.57067 104.547 6.992V7.264H101.347V6.696H103.947L103.803 6.84C103.803 6.43467 103.707 6.128 103.515 5.92C103.323 5.70667 103.051 5.6 102.699 5.6C102.459 5.6 102.248 5.65333 102.067 5.76C101.891 5.86133 101.752 6.01067 101.651 6.208C101.549 6.4 101.499 6.63467 101.499 6.912V7C101.499 7.30933 101.552 7.56533 101.659 7.768C101.771 7.97067 101.931 8.12267 102.139 8.224C102.352 8.32533 102.608 8.376 102.907 8.376C103.125 8.376 103.344 8.34933 103.563 8.296C103.787 8.23733 103.995 8.13333 104.187 7.984L104.459 8.592C104.251 8.75733 104.005 8.88 103.723 8.96C103.44 9.03467 103.16 9.072 102.883 9.072ZM105.394 9V8.432L107.826 5.48L107.858 5.744H105.442V5.032H108.674V5.592L106.226 8.568L106.194 8.288H108.762V9H105.394ZM111.695 9.072C111.231 9.072 110.834 8.992 110.503 8.832C110.172 8.66667 109.919 8.42933 109.743 8.12C109.567 7.81067 109.479 7.44267 109.479 7.016C109.479 6.616 109.559 6.26133 109.719 5.952C109.884 5.64267 110.119 5.4 110.423 5.224C110.727 5.04267 111.084 4.952 111.495 4.952C111.884 4.952 112.218 5.03467 112.495 5.2C112.772 5.36533 112.986 5.6 113.135 5.904C113.284 6.208 113.359 6.57067 113.359 6.992V7.264H110.159V6.696H112.759L112.615 6.84C112.615 6.43467 112.519 6.128 112.327 5.92C112.135 5.70667 111.863 5.6 111.511 5.6C111.271 5.6 111.06 5.65333 110.879 5.76C110.703 5.86133 110.564 6.01067 110.463 6.208C110.362 6.4 110.311 6.63467 110.311 6.912V7C110.311 7.30933 110.364 7.56533 110.471 7.768C110.583 7.97067 110.743 8.12267 110.951 8.224C111.164 8.32533 111.42 8.376 111.719 8.376C111.938 8.376 112.156 8.34933 112.375 8.296C112.599 8.23733 112.807 8.13333 112.999 7.984L113.271 8.592C113.063 8.75733 112.818 8.88 112.535 8.96C112.252 9.03467 111.972 9.072 111.695 9.072ZM114.453 9V5.032H115.237V5.976H115.245C115.341 5.67733 115.504 5.44267 115.733 5.272C115.968 5.096 116.256 4.99733 116.597 4.976L116.997 4.944L117.077 5.744L116.437 5.8C116.085 5.82667 115.813 5.94133 115.621 6.144C115.429 6.34133 115.333 6.58933 115.333 6.888V9H114.453ZM117.623 7.2V6.496H119.927V7.2H117.623ZM123.072 9.072C122.768 9.072 122.475 9.048 122.192 9C121.909 8.95733 121.651 8.89067 121.416 8.8C121.187 8.70933 120.984 8.59733 120.808 8.464L121.104 7.744C121.291 7.87733 121.485 7.98667 121.688 8.072C121.896 8.152 122.115 8.21067 122.344 8.248C122.579 8.28533 122.821 8.304 123.072 8.304C123.493 8.304 123.813 8.22667 124.032 8.072C124.256 7.91733 124.368 7.70133 124.368 7.424C124.368 7.27467 124.331 7.15467 124.256 7.064C124.187 6.968 124.077 6.89067 123.928 6.832C123.779 6.768 123.584 6.712 123.344 6.664L122.424 6.488C121.901 6.38667 121.52 6.20533 121.28 5.944C121.045 5.68267 120.928 5.34933 120.928 4.944C120.928 4.608 121.024 4.31733 121.216 4.072C121.408 3.82133 121.672 3.62933 122.008 3.496C122.344 3.35733 122.728 3.288 123.16 3.288C123.427 3.288 123.68 3.312 123.92 3.36C124.16 3.408 124.379 3.48 124.576 3.576C124.779 3.672 124.955 3.78933 125.104 3.928L124.8 4.632C124.576 4.424 124.325 4.27733 124.048 4.192C123.776 4.10133 123.477 4.056 123.152 4.056C122.891 4.056 122.659 4.09067 122.456 4.16C122.253 4.22933 122.093 4.33067 121.976 4.464C121.864 4.592 121.808 4.752 121.808 4.944C121.808 5.15733 121.877 5.32533 122.016 5.448C122.155 5.56533 122.395 5.65867 122.736 5.728L123.648 5.896C124.192 5.99733 124.595 6.17067 124.856 6.416C125.117 6.66133 125.248 6.984 125.248 7.384C125.248 7.71467 125.157 8.008 124.976 8.264C124.8 8.51467 124.549 8.712 124.224 8.856C123.899 9 123.515 9.072 123.072 9.072ZM127.68 9.072C127.392 9.072 127.134 9.01867 126.904 8.912C126.68 8.80533 126.502 8.66133 126.368 8.48C126.24 8.29333 126.176 8.08267 126.176 7.848C126.176 7.55467 126.262 7.32 126.432 7.144C126.603 6.96267 126.864 6.832 127.216 6.752C127.574 6.672 128.03 6.632 128.584 6.632H129.144V7.192H128.624C128.347 7.192 128.107 7.20267 127.904 7.224C127.707 7.24 127.544 7.272 127.416 7.32C127.288 7.36267 127.192 7.424 127.128 7.504C127.07 7.57867 127.04 7.67733 127.04 7.8C127.04 8.00267 127.115 8.15733 127.264 8.264C127.419 8.37067 127.619 8.424 127.864 8.424C128.078 8.424 128.27 8.376 128.44 8.28C128.616 8.17867 128.755 8.048 128.856 7.888C128.963 7.72267 129.016 7.54133 129.016 7.344V6.456C129.016 6.16267 128.931 5.95467 128.76 5.832C128.595 5.704 128.347 5.64 128.016 5.64C127.787 5.64 127.555 5.672 127.32 5.736C127.091 5.8 126.851 5.904 126.6 6.048L126.344 5.424C126.51 5.32267 126.688 5.23733 126.88 5.168C127.078 5.09867 127.283 5.04533 127.496 5.008C127.71 4.97067 127.92 4.952 128.128 4.952C128.486 4.952 128.795 5.008 129.056 5.12C129.318 5.232 129.518 5.40533 129.656 5.64C129.795 5.86933 129.864 6.17067 129.864 6.544V9H129.112V8.152H129.104C129.03 8.32267 128.926 8.48 128.792 8.624C128.664 8.76267 128.507 8.872 128.32 8.952C128.134 9.032 127.92 9.072 127.68 9.072ZM131.443 9V5.704H130.651V5.032H131.683L131.443 5.264V5.016C131.443 4.47733 131.593 4.06933 131.891 3.792C132.195 3.51467 132.641 3.36267 133.227 3.336L133.667 3.312L133.731 4.016L133.219 4.048C133.038 4.05333 132.881 4.08533 132.747 4.144C132.614 4.19733 132.51 4.28267 132.435 4.4C132.361 4.51733 132.323 4.68267 132.323 4.896V5.104L132.195 5.032H133.539V5.704H132.323V9H131.443ZM136.281 9.072C135.817 9.072 135.42 8.992 135.089 8.832C134.758 8.66667 134.505 8.42933 134.329 8.12C134.153 7.81067 134.065 7.44267 134.065 7.016C134.065 6.616 134.145 6.26133 134.305 5.952C134.47 5.64267 134.705 5.4 135.009 5.224C135.313 5.04267 135.67 4.952 136.081 4.952C136.47 4.952 136.804 5.03467 137.081 5.2C137.358 5.36533 137.572 5.6 137.721 5.904C137.87 6.208 137.945 6.57067 137.945 6.992V7.264H134.745V6.696H137.345L137.201 6.84C137.201 6.43467 137.105 6.128 136.913 5.92C136.721 5.70667 136.449 5.6 136.097 5.6C135.857 5.6 135.646 5.65333 135.465 5.76C135.289 5.86133 135.15 6.01067 135.049 6.208C134.948 6.4 134.897 6.63467 134.897 6.912V7C134.897 7.30933 134.95 7.56533 135.057 7.768C135.169 7.97067 135.329 8.12267 135.537 8.224C135.75 8.32533 136.006 8.376 136.305 8.376C136.524 8.376 136.742 8.34933 136.961 8.296C137.185 8.23733 137.393 8.13333 137.585 7.984L137.857 8.592C137.649 8.75733 137.404 8.88 137.121 8.96C136.838 9.03467 136.558 9.072 136.281 9.072Z" fill="black"/>
<path d="M32.832 22V16.36H33.544V18.824H36.848V16.36H37.56V22H36.848V19.456H33.544V22H32.832ZM41.0066 22.072C40.564 22.072 40.18 21.992 39.8546 21.832C39.5346 21.6667 39.2893 21.432 39.1186 21.128C38.948 20.8187 38.8626 20.4507 38.8626 20.024C38.8626 19.624 38.9426 19.272 39.1026 18.968C39.2626 18.6587 39.4893 18.416 39.7826 18.24C40.076 18.064 40.4253 17.976 40.8306 17.976C41.2146 17.976 41.54 18.0587 41.8066 18.224C42.0786 18.3893 42.284 18.6213 42.4226 18.92C42.5666 19.2187 42.6386 19.5733 42.6386 19.984V20.216H39.3986V19.72H42.1746L42.0226 19.88C42.0226 19.4427 41.9186 19.1067 41.7106 18.872C41.508 18.6373 41.2146 18.52 40.8306 18.52C40.58 18.52 40.356 18.5787 40.1586 18.696C39.9666 18.808 39.8173 18.968 39.7106 19.176C39.604 19.384 39.5506 19.6373 39.5506 19.936V20.016C39.5506 20.336 39.6093 20.6053 39.7266 20.824C39.844 21.0427 40.012 21.208 40.2306 21.32C40.4493 21.432 40.7106 21.488 41.0146 21.488C41.2333 21.488 41.4546 21.4587 41.6786 21.4C41.908 21.336 42.1213 21.224 42.3186 21.064L42.5586 21.576C42.356 21.7467 42.1133 21.872 41.8306 21.952C41.5533 22.032 41.2786 22.072 41.0066 22.072ZM45.1336 22.072C44.8509 22.072 44.5976 22.0213 44.3736 21.92C44.1496 21.8133 43.9736 21.6693 43.8456 21.488C43.7176 21.3067 43.6536 21.104 43.6536 20.88C43.6536 20.576 43.7389 20.3387 43.9096 20.168C44.0802 19.992 44.3416 19.8667 44.6936 19.792C45.0509 19.7173 45.5069 19.68 46.0616 19.68H46.6296V20.168H46.0936C45.7842 20.168 45.5202 20.1787 45.3016 20.2C45.0829 20.216 44.9042 20.2507 44.7656 20.304C44.6269 20.352 44.5256 20.4187 44.4616 20.504C44.3976 20.5893 44.3656 20.7013 44.3656 20.84C44.3656 21.0533 44.4482 21.2187 44.6136 21.336C44.7842 21.4533 45.0002 21.512 45.2616 21.512C45.4909 21.512 45.6989 21.4613 45.8856 21.36C46.0776 21.2533 46.2296 21.112 46.3416 20.936C46.4589 20.76 46.5176 20.5653 46.5176 20.352V19.448C46.5176 19.1333 46.4296 18.9067 46.2536 18.768C46.0776 18.624 45.8162 18.552 45.4696 18.552C45.2349 18.552 45.0002 18.584 44.7656 18.648C44.5362 18.712 44.2989 18.8187 44.0536 18.968L43.8216 18.44C43.9869 18.3387 44.1629 18.256 44.3496 18.192C44.5362 18.1227 44.7309 18.0693 44.9336 18.032C45.1362 17.9947 45.3389 17.976 45.5416 17.976C45.8829 17.976 46.1762 18.0293 46.4216 18.136C46.6722 18.2427 46.8642 18.408 46.9976 18.632C47.1362 18.856 47.2056 19.1493 47.2056 19.512V22H46.5816V21.136C46.5069 21.3013 46.4029 21.456 46.2696 21.6C46.1362 21.744 45.9736 21.8587 45.7816 21.944C45.5949 22.0293 45.3789 22.072 45.1336 22.072ZM50.2823 22.072C49.8076 22.072 49.4476 21.9467 49.2023 21.696C48.9623 21.4453 48.8423 21.088 48.8423 20.624V18.632H48.0423V18.048H48.8663V16.872H49.5543V18.048H50.9703V18.632H49.5543V20.56C49.5543 20.864 49.6209 21.0907 49.7543 21.24C49.8929 21.384 50.1036 21.456 50.3863 21.456C50.4983 21.456 50.6049 21.4453 50.7063 21.424C50.8129 21.4027 50.9143 21.3707 51.0103 21.328L51.1223 21.888C51.0156 21.9467 50.8849 21.992 50.7303 22.024C50.5809 22.056 50.4316 22.072 50.2823 22.072ZM55.7966 22.072C55.4179 22.072 55.0899 22.0133 54.8126 21.896C54.5406 21.7787 54.3299 21.616 54.1806 21.408C54.0366 21.1947 53.9646 20.944 53.9646 20.656C53.9646 20.4 54.0126 20.176 54.1086 19.984C54.2046 19.792 54.3406 19.6133 54.5166 19.448C54.6926 19.2827 54.8979 19.1227 55.1326 18.968L55.4126 18.784L55.3166 18.92C55.0499 18.6427 54.8606 18.4027 54.7486 18.2C54.6366 17.992 54.5806 17.7733 54.5806 17.544C54.5806 17.2987 54.6419 17.0827 54.7646 16.896C54.8872 16.704 55.0606 16.5547 55.2846 16.448C55.5086 16.3413 55.7672 16.288 56.0606 16.288C56.3272 16.288 56.5592 16.336 56.7566 16.432C56.9592 16.5227 57.1166 16.6533 57.2286 16.824C57.3459 16.9893 57.4046 17.1867 57.4046 17.416C57.4046 17.608 57.3592 17.7893 57.2686 17.96C57.1779 18.1307 57.0392 18.2987 56.8526 18.464C56.6659 18.6293 56.4232 18.8053 56.1246 18.992L56.0766 18.856L57.5966 20.512L57.4926 20.52C57.6099 20.3173 57.7112 20.056 57.7966 19.736C57.8819 19.4107 57.9299 19.0747 57.9406 18.728H58.5646C58.5486 19.1707 58.4792 19.584 58.3566 19.968C58.2339 20.3467 58.0792 20.672 57.8926 20.944L57.8446 20.76L59.0366 22H58.2046L57.4926 21.232H57.6526C57.4339 21.504 57.1619 21.712 56.8366 21.856C56.5166 22 56.1699 22.072 55.7966 22.072ZM55.8366 21.504C56.1406 21.504 56.4152 21.448 56.6606 21.336C56.9059 21.2187 57.1112 21.0453 57.2766 20.816V21.024L55.5326 19.16H55.8126L55.5566 19.32C55.3592 19.4587 55.1939 19.5893 55.0606 19.712C54.9272 19.8347 54.8286 19.968 54.7646 20.112C54.7006 20.2507 54.6686 20.4133 54.6686 20.6C54.6686 20.888 54.7699 21.112 54.9726 21.272C55.1752 21.4267 55.4632 21.504 55.8366 21.504ZM56.0606 16.824C55.8259 16.824 55.6286 16.8907 55.4686 17.024C55.3139 17.152 55.2366 17.3253 55.2366 17.544C55.2366 17.656 55.2552 17.7653 55.2926 17.872C55.3352 17.9733 55.4046 18.0853 55.5006 18.208C55.5966 18.3307 55.7246 18.4827 55.8846 18.664L55.7406 18.64C55.9859 18.4853 56.1859 18.3467 56.3406 18.224C56.4952 18.096 56.6099 17.9733 56.6846 17.856C56.7592 17.7333 56.7966 17.608 56.7966 17.48C56.7966 17.272 56.7246 17.112 56.5806 17C56.4419 16.8827 56.2686 16.824 56.0606 16.824ZM64.0794 22.072C63.77 22.072 63.4767 22.048 63.1994 22C62.922 21.952 62.6687 21.88 62.4394 21.784C62.21 21.688 62.01 21.5707 61.8394 21.432L62.1034 20.84C62.2847 20.984 62.4767 21.1013 62.6794 21.192C62.8874 21.2773 63.106 21.3387 63.3354 21.376C63.57 21.4133 63.818 21.432 64.0794 21.432C64.522 21.432 64.8607 21.344 65.0954 21.168C65.3354 20.992 65.4554 20.752 65.4554 20.448C65.4554 20.288 65.4154 20.1547 65.3354 20.048C65.2607 19.9413 65.1407 19.8533 64.9754 19.784C64.8154 19.7147 64.6074 19.6533 64.3514 19.6L63.4314 19.424C62.914 19.3227 62.5407 19.144 62.3114 18.888C62.082 18.632 61.9674 18.3093 61.9674 17.92C61.9674 17.5893 62.058 17.304 62.2394 17.064C62.426 16.8187 62.682 16.6293 63.0074 16.496C63.338 16.3573 63.714 16.288 64.1354 16.288C64.402 16.288 64.65 16.3147 64.8794 16.368C65.114 16.416 65.3274 16.4907 65.5194 16.592C65.7167 16.6933 65.8927 16.816 66.0474 16.96L65.7834 17.544C65.554 17.32 65.3034 17.1627 65.0314 17.072C64.7594 16.976 64.458 16.928 64.1274 16.928C63.85 16.928 63.602 16.968 63.3834 17.048C63.1647 17.1227 62.9914 17.2347 62.8634 17.384C62.7407 17.528 62.6794 17.7067 62.6794 17.92C62.6794 18.1547 62.754 18.3413 62.9034 18.48C63.0527 18.6133 63.306 18.7173 63.6634 18.792L64.5754 18.968C65.1194 19.0693 65.522 19.24 65.7834 19.48C66.0447 19.72 66.1754 20.032 66.1754 20.416C66.1754 20.736 66.0874 21.0213 65.9114 21.272C65.7407 21.5227 65.498 21.72 65.1834 21.864C64.874 22.0027 64.506 22.072 64.0794 22.072ZM68.9698 22.072C68.4951 22.072 68.1351 21.9467 67.8898 21.696C67.6498 21.4453 67.5298 21.088 67.5298 20.624V18.632H66.7298V18.048H67.5538V16.872H68.2418V18.048H69.6578V18.632H68.2418V20.56C68.2418 20.864 68.3084 21.0907 68.4418 21.24C68.5804 21.384 68.7911 21.456 69.0738 21.456C69.1858 21.456 69.2924 21.4453 69.3938 21.424C69.5004 21.4027 69.6018 21.3707 69.6978 21.328L69.8098 21.888C69.7031 21.9467 69.5724 21.992 69.4178 22.024C69.2684 22.056 69.1191 22.072 68.9698 22.072ZM72.3226 22.072C71.9226 22.072 71.576 21.9867 71.2826 21.816C70.9893 21.6453 70.7626 21.408 70.6026 21.104C70.4426 20.7947 70.3626 20.432 70.3626 20.016C70.3626 19.6053 70.4426 19.248 70.6026 18.944C70.7626 18.6347 70.9893 18.3973 71.2826 18.232C71.576 18.0613 71.9226 17.976 72.3226 17.976C72.7226 17.976 73.0666 18.0613 73.3546 18.232C73.648 18.3973 73.8746 18.6347 74.0346 18.944C74.1946 19.248 74.2746 19.6053 74.2746 20.016C74.2746 20.432 74.1946 20.7947 74.0346 21.104C73.88 21.408 73.656 21.6453 73.3626 21.816C73.0693 21.9867 72.7226 22.072 72.3226 22.072ZM72.3146 21.472C72.704 21.472 73.0106 21.3413 73.2346 21.08C73.4586 20.8187 73.5706 20.464 73.5706 20.016C73.5706 19.568 73.4586 19.216 73.2346 18.96C73.016 18.704 72.712 18.576 72.3226 18.576C71.9333 18.576 71.6266 18.704 71.4026 18.96C71.1786 19.216 71.0666 19.568 71.0666 20.016C71.0666 20.464 71.1786 20.8187 71.4026 21.08C71.632 21.3413 71.936 21.472 72.3146 21.472ZM75.4698 22V18.048H76.1178V18.96H76.1258C76.2218 18.6667 76.3898 18.4373 76.6298 18.272C76.8698 18.1013 77.1631 18.0053 77.5098 17.984L77.8698 17.968L77.9338 18.616L77.3578 18.664C76.9898 18.696 76.7018 18.8187 76.4938 19.032C76.2858 19.24 76.1818 19.5013 76.1818 19.816V22H75.4698ZM80.6707 22.072C80.228 22.072 79.844 21.992 79.5187 21.832C79.1987 21.6667 78.9534 21.432 78.7827 21.128C78.612 20.8187 78.5267 20.4507 78.5267 20.024C78.5267 19.624 78.6067 19.272 78.7667 18.968C78.9267 18.6587 79.1534 18.416 79.4467 18.24C79.74 18.064 80.0894 17.976 80.4947 17.976C80.8787 17.976 81.204 18.0587 81.4707 18.224C81.7427 18.3893 81.948 18.6213 82.0867 18.92C82.2307 19.2187 82.3027 19.5733 82.3027 19.984V20.216H79.0627V19.72H81.8387L81.6867 19.88C81.6867 19.4427 81.5827 19.1067 81.3747 18.872C81.172 18.6373 80.8787 18.52 80.4947 18.52C80.244 18.52 80.02 18.5787 79.8227 18.696C79.6307 18.808 79.4814 18.968 79.3747 19.176C79.268 19.384 79.2147 19.6373 79.2147 19.936V20.016C79.2147 20.336 79.2734 20.6053 79.3907 20.824C79.508 21.0427 79.676 21.208 79.8947 21.32C80.1134 21.432 80.3747 21.488 80.6787 21.488C80.8974 21.488 81.1187 21.4587 81.3427 21.4C81.572 21.336 81.7854 21.224 81.9827 21.064L82.2227 21.576C82.02 21.7467 81.7774 21.872 81.4947 21.952C81.2174 22.032 80.9427 22.072 80.6707 22.072Z" fill="#A0A09E"/>
</svg>
