<svg width="174" height="26" viewBox="0 0 174 26" fill="none" xmlns="http://www.w3.org/2000/svg">
<rect y="1" width="24" height="24" rx="12" fill="#F9DDD9"/>
<path d="M14.7831 8.06629C14.0176 7.18208 13.1562 6.38554 12.215 5.69129C12.152 5.64719 12.0769 5.62354 12 5.62354C11.9231 5.62354 11.848 5.64719 11.785 5.69129C10.8438 6.38554 9.98245 7.18208 9.21688 8.06629C7.52125 10.0163 6.625 12.0682 6.625 14C6.625 15.4256 7.19129 16.7927 8.1993 17.8007C9.20731 18.8087 10.5745 19.375 12 19.375C13.4255 19.375 14.7927 18.8087 15.8007 17.8007C16.8087 16.7927 17.375 15.4256 17.375 14C17.375 12.0682 16.4788 10.0163 14.7831 8.06629ZM12 18.625C10.7738 18.6236 9.59831 18.1358 8.73128 17.2688C7.86424 16.4017 7.37649 15.2262 7.375 14C7.375 10.2738 11.0625 7.19191 12 6.46816C12.9375 7.19191 16.625 10.2738 16.625 14C16.6235 15.2262 16.1358 16.4017 15.2687 17.2688C14.4017 18.1358 13.2262 18.6236 12 18.625ZM15.37 14.5625C15.245 15.2613 14.9088 15.905 14.4069 16.4069C13.9049 16.9089 13.2613 17.245 12.5625 17.37C12.5418 17.3732 12.5209 17.3749 12.5 17.375C12.4057 17.3754 12.3148 17.3403 12.2452 17.2766C12.1757 17.2129 12.1327 17.1253 12.1248 17.0314C12.1169 16.9374 12.1447 16.844 12.2027 16.7696C12.2606 16.6952 12.3445 16.6454 12.4375 16.63C13.5237 16.4475 14.4456 15.525 14.63 14.4375C14.6466 14.3394 14.7015 14.2519 14.7826 14.1942C14.8227 14.1657 14.8681 14.1453 14.9161 14.1343C14.9642 14.1233 15.0139 14.1218 15.0625 14.13C15.1111 14.1382 15.1576 14.1559 15.1993 14.1821C15.2411 14.2083 15.2773 14.2424 15.3058 14.2826C15.3344 14.3228 15.3547 14.3682 15.3658 14.4162C15.3768 14.4642 15.3782 14.514 15.37 14.5625Z" fill="#CE3439"/>
<path d="M34.792 9V3.36H36.864C37.4773 3.36 37.9973 3.46933 38.424 3.688C38.8507 3.90667 39.176 4.22667 39.4 4.648C39.624 5.064 39.736 5.57333 39.736 6.176C39.736 6.77867 39.624 7.29067 39.4 7.712C39.176 8.13333 38.848 8.45333 38.416 8.672C37.9893 8.89067 37.472 9 36.864 9H34.792ZM35.672 8.248H36.816C37.472 8.248 37.9707 8.07733 38.312 7.736C38.6533 7.38933 38.824 6.86933 38.824 6.176C38.824 5.48267 38.6533 4.96533 38.312 4.624C37.9707 4.28267 37.472 4.112 36.816 4.112H35.672V8.248ZM42.9685 9.072C42.5045 9.072 42.1072 8.992 41.7765 8.832C41.4458 8.66667 41.1925 8.42933 41.0165 8.12C40.8405 7.81067 40.7525 7.44267 40.7525 7.016C40.7525 6.616 40.8325 6.26133 40.9925 5.952C41.1578 5.64267 41.3925 5.4 41.6965 5.224C42.0005 5.04267 42.3578 4.952 42.7685 4.952C43.1578 4.952 43.4912 5.03467 43.7685 5.2C44.0458 5.36533 44.2592 5.6 44.4085 5.904C44.5578 6.208 44.6325 6.57067 44.6325 6.992V7.264H41.4325V6.696H44.0325L43.8885 6.84C43.8885 6.43467 43.7925 6.128 43.6005 5.92C43.4085 5.70667 43.1365 5.6 42.7845 5.6C42.5445 5.6 42.3338 5.65333 42.1525 5.76C41.9765 5.86133 41.8378 6.01067 41.7365 6.208C41.6352 6.4 41.5845 6.63467 41.5845 6.912V7C41.5845 7.30933 41.6378 7.56533 41.7445 7.768C41.8565 7.97067 42.0165 8.12267 42.2245 8.224C42.4378 8.32533 42.6938 8.376 42.9925 8.376C43.2112 8.376 43.4298 8.34933 43.6485 8.296C43.8725 8.23733 44.0805 8.13333 44.2725 7.984L44.5445 8.592C44.3365 8.75733 44.0912 8.88 43.8085 8.96C43.5258 9.03467 43.2458 9.072 42.9685 9.072ZM47.2307 9.072C47.0014 9.072 46.7774 9.05333 46.5587 9.016C46.3454 8.97867 46.148 8.928 45.9667 8.864C45.7854 8.79467 45.6307 8.70667 45.5027 8.6L45.7507 7.984C45.8894 8.08533 46.0414 8.168 46.2067 8.232C46.372 8.29067 46.54 8.33333 46.7107 8.36C46.8814 8.38667 47.0494 8.4 47.2147 8.4C47.524 8.4 47.7614 8.35733 47.9267 8.272C48.0974 8.18667 48.1827 8.06133 48.1827 7.896C48.1827 7.75733 48.1347 7.65333 48.0387 7.584C47.9427 7.50933 47.7854 7.45333 47.5667 7.416L46.7187 7.28C46.3454 7.216 46.0654 7.088 45.8787 6.896C45.692 6.704 45.5987 6.464 45.5987 6.176C45.5987 5.93067 45.6654 5.71733 45.7987 5.536C45.932 5.35467 46.1267 5.21333 46.3827 5.112C46.6387 5.00533 46.948 4.952 47.3107 4.952C47.508 4.952 47.7054 4.97067 47.9027 5.008C48.1 5.04533 48.2814 5.09867 48.4467 5.168C48.6174 5.23733 48.7587 5.32267 48.8707 5.424L48.6067 6.032C48.4947 5.936 48.3667 5.85867 48.2227 5.8C48.0787 5.74133 47.9267 5.69867 47.7667 5.672C47.612 5.64533 47.46 5.632 47.3107 5.632C47.012 5.632 46.7827 5.67733 46.6227 5.768C46.468 5.85867 46.3907 5.984 46.3907 6.144C46.3907 6.28267 46.436 6.38933 46.5267 6.464C46.6174 6.53333 46.7614 6.58667 46.9587 6.624L47.7827 6.768C48.188 6.83733 48.4867 6.96267 48.6787 7.144C48.8707 7.32533 48.9667 7.568 48.9667 7.872C48.9667 8.11733 48.8947 8.33067 48.7507 8.512C48.612 8.69333 48.412 8.832 48.1507 8.928C47.8894 9.024 47.5827 9.072 47.2307 9.072ZM49.959 4.152V3.232H50.991V4.152H49.959ZM50.047 9V5.032H50.919V9H50.047ZM54.0258 10.512C53.7058 10.512 53.3884 10.4667 53.0738 10.376C52.7591 10.2907 52.4898 10.168 52.2658 10.008L52.5218 9.344C52.6658 9.43467 52.8204 9.51467 52.9858 9.584C53.1511 9.65333 53.3191 9.704 53.4898 9.736C53.6658 9.77333 53.8338 9.792 53.9938 9.792C54.4044 9.792 54.7191 9.69333 54.9378 9.496C55.1618 9.304 55.2738 9.024 55.2738 8.656V8H55.2578C55.1564 8.256 54.9831 8.46667 54.7378 8.632C54.4924 8.792 54.2071 8.872 53.8818 8.872C53.5138 8.872 53.1911 8.792 52.9138 8.632C52.6364 8.46667 52.4204 8.23733 52.2658 7.944C52.1111 7.65067 52.0338 7.30667 52.0338 6.912C52.0338 6.52267 52.1111 6.18133 52.2658 5.888C52.4204 5.58933 52.6364 5.36 52.9138 5.2C53.1911 5.03467 53.5138 4.952 53.8818 4.952C54.2124 4.952 54.5004 5.03467 54.7458 5.2C54.9911 5.36533 55.1644 5.58667 55.2658 5.864H55.2738V5.032H56.0978V8.584C56.0978 8.984 56.0151 9.328 55.8498 9.616C55.6844 9.904 55.4471 10.1253 55.1378 10.28C54.8284 10.4347 54.4578 10.512 54.0258 10.512ZM54.0738 8.176C54.4311 8.176 54.7138 8.06133 54.9218 7.832C55.1298 7.60267 55.2338 7.296 55.2338 6.912C55.2338 6.52267 55.1298 6.216 54.9218 5.992C54.7138 5.76267 54.4311 5.648 54.0738 5.648C53.7164 5.648 53.4311 5.76267 53.2178 5.992C53.0098 6.216 52.9058 6.52267 52.9058 6.912C52.9058 7.296 53.0098 7.60267 53.2178 7.832C53.4311 8.06133 53.7164 8.176 54.0738 8.176ZM57.4376 9V5.032H58.2456V5.864H58.2536C58.3816 5.576 58.571 5.352 58.8216 5.192C59.0776 5.032 59.3656 4.952 59.6856 4.952C60.011 4.952 60.283 5.01333 60.5016 5.136C60.7256 5.25333 60.891 5.43467 60.9976 5.68C61.1096 5.92 61.1656 6.22667 61.1656 6.6V9H60.2856V6.64C60.2856 6.43733 60.2563 6.26667 60.1976 6.128C60.1443 5.984 60.0563 5.87467 59.9336 5.8C59.811 5.72533 59.6483 5.688 59.4456 5.688C59.227 5.688 59.0323 5.73867 58.8616 5.84C58.691 5.936 58.555 6.06933 58.4536 6.24C58.3576 6.40533 58.3096 6.592 58.3096 6.8V9H57.4376ZM64.9014 9V3.36H67.3094C67.9334 3.36 68.4134 3.50133 68.7494 3.784C69.0854 4.06667 69.2534 4.47467 69.2534 5.008C69.2534 5.312 69.192 5.57333 69.0694 5.792C68.952 6.01067 68.784 6.18667 68.5654 6.32C68.3467 6.448 68.0934 6.53067 67.8054 6.568L67.8294 6.56L67.9254 6.576C68.0587 6.60267 68.1787 6.66133 68.2854 6.752C68.392 6.83733 68.496 6.976 68.5974 7.168L69.5734 9H68.6054L67.6774 7.248C67.608 7.10933 67.528 7.00267 67.4374 6.928C67.352 6.85333 67.2507 6.80267 67.1334 6.776C67.0214 6.744 66.8854 6.728 66.7254 6.728H65.7814V9H64.9014ZM65.7814 6.024H67.2294C67.624 6.024 67.9147 5.944 68.1014 5.784C68.288 5.61867 68.3814 5.37067 68.3814 5.04C68.3814 4.71467 68.2854 4.47733 68.0934 4.328C67.9014 4.17333 67.6054 4.096 67.2054 4.096H65.7814V6.024ZM72.4607 9.072C71.9967 9.072 71.5994 8.992 71.2687 8.832C70.938 8.66667 70.6847 8.42933 70.5087 8.12C70.3327 7.81067 70.2447 7.44267 70.2447 7.016C70.2447 6.616 70.3247 6.26133 70.4847 5.952C70.65 5.64267 70.8847 5.4 71.1887 5.224C71.4927 5.04267 71.85 4.952 72.2607 4.952C72.65 4.952 72.9834 5.03467 73.2607 5.2C73.538 5.36533 73.7514 5.6 73.9007 5.904C74.05 6.208 74.1247 6.57067 74.1247 6.992V7.264H70.9247V6.696H73.5247L73.3807 6.84C73.3807 6.43467 73.2847 6.128 73.0927 5.92C72.9007 5.70667 72.6287 5.6 72.2767 5.6C72.0367 5.6 71.826 5.65333 71.6447 5.76C71.4687 5.86133 71.33 6.01067 71.2287 6.208C71.1274 6.4 71.0767 6.63467 71.0767 6.912V7C71.0767 7.30933 71.13 7.56533 71.2367 7.768C71.3487 7.97067 71.5087 8.12267 71.7167 8.224C71.93 8.32533 72.186 8.376 72.4847 8.376C72.7034 8.376 72.922 8.34933 73.1407 8.296C73.3647 8.23733 73.5727 8.13333 73.7647 7.984L74.0367 8.592C73.8287 8.75733 73.5834 8.88 73.3007 8.96C73.018 9.03467 72.738 9.072 72.4607 9.072ZM76.9789 10.512C76.6589 10.512 76.3415 10.4667 76.0269 10.376C75.7122 10.2907 75.4429 10.168 75.2189 10.008L75.4749 9.344C75.6189 9.43467 75.7735 9.51467 75.9389 9.584C76.1042 9.65333 76.2722 9.704 76.4429 9.736C76.6189 9.77333 76.7869 9.792 76.9469 9.792C77.3575 9.792 77.6722 9.69333 77.8909 9.496C78.1149 9.304 78.2269 9.024 78.2269 8.656V8H78.2109C78.1095 8.256 77.9362 8.46667 77.6909 8.632C77.4455 8.792 77.1602 8.872 76.8349 8.872C76.4669 8.872 76.1442 8.792 75.8669 8.632C75.5895 8.46667 75.3735 8.23733 75.2189 7.944C75.0642 7.65067 74.9869 7.30667 74.9869 6.912C74.9869 6.52267 75.0642 6.18133 75.2189 5.888C75.3735 5.58933 75.5895 5.36 75.8669 5.2C76.1442 5.03467 76.4669 4.952 76.8349 4.952C77.1655 4.952 77.4535 5.03467 77.6989 5.2C77.9442 5.36533 78.1175 5.58667 78.2189 5.864H78.2269V5.032H79.0509V8.584C79.0509 8.984 78.9682 9.328 78.8029 9.616C78.6375 9.904 78.4002 10.1253 78.0909 10.28C77.7815 10.4347 77.4109 10.512 76.9789 10.512ZM77.0269 8.176C77.3842 8.176 77.6669 8.06133 77.8749 7.832C78.0829 7.60267 78.1869 7.296 78.1869 6.912C78.1869 6.52267 78.0829 6.216 77.8749 5.992C77.6669 5.76267 77.3842 5.648 77.0269 5.648C76.6695 5.648 76.3842 5.76267 76.1709 5.992C75.9629 6.216 75.8589 6.52267 75.8589 6.912C75.8589 7.296 75.9629 7.60267 76.1709 7.832C76.3842 8.06133 76.6695 8.176 77.0269 8.176ZM80.3028 4.152V3.232H81.3348V4.152H80.3028ZM80.3908 9V5.032H81.2628V9H80.3908ZM84.1135 9.072C83.8842 9.072 83.6602 9.05333 83.4415 9.016C83.2282 8.97867 83.0308 8.928 82.8495 8.864C82.6682 8.79467 82.5135 8.70667 82.3855 8.6L82.6335 7.984C82.7722 8.08533 82.9242 8.168 83.0895 8.232C83.2548 8.29067 83.4228 8.33333 83.5935 8.36C83.7642 8.38667 83.9322 8.4 84.0975 8.4C84.4068 8.4 84.6442 8.35733 84.8095 8.272C84.9802 8.18667 85.0655 8.06133 85.0655 7.896C85.0655 7.75733 85.0175 7.65333 84.9215 7.584C84.8255 7.50933 84.6682 7.45333 84.4495 7.416L83.6015 7.28C83.2282 7.216 82.9482 7.088 82.7615 6.896C82.5748 6.704 82.4815 6.464 82.4815 6.176C82.4815 5.93067 82.5482 5.71733 82.6815 5.536C82.8148 5.35467 83.0095 5.21333 83.2655 5.112C83.5215 5.00533 83.8308 4.952 84.1935 4.952C84.3908 4.952 84.5882 4.97067 84.7855 5.008C84.9828 5.04533 85.1642 5.09867 85.3295 5.168C85.5002 5.23733 85.6415 5.32267 85.7535 5.424L85.4895 6.032C85.3775 5.936 85.2495 5.85867 85.1055 5.8C84.9615 5.74133 84.8095 5.69867 84.6495 5.672C84.4948 5.64533 84.3428 5.632 84.1935 5.632C83.8948 5.632 83.6655 5.67733 83.5055 5.768C83.3508 5.85867 83.2735 5.984 83.2735 6.144C83.2735 6.28267 83.3188 6.38933 83.4095 6.464C83.5002 6.53333 83.6442 6.58667 83.8415 6.624L84.6655 6.768C85.0708 6.83733 85.3695 6.96267 85.5615 7.144C85.7535 7.32533 85.8495 7.568 85.8495 7.872C85.8495 8.11733 85.7775 8.33067 85.6335 8.512C85.4948 8.69333 85.2948 8.832 85.0335 8.928C84.7722 9.024 84.4655 9.072 84.1135 9.072ZM88.6588 9.072C88.1468 9.072 87.7628 8.94133 87.5068 8.68C87.2561 8.41867 87.1308 8.04267 87.1308 7.552V5.744H86.3388V5.032H87.1628V3.88H88.0028V5.032H89.4028V5.744H88.0028V7.496C88.0028 7.77867 88.0668 7.98933 88.1948 8.128C88.3281 8.26133 88.5281 8.328 88.7948 8.328C88.9014 8.328 89.0054 8.31733 89.1068 8.296C89.2134 8.27467 89.3148 8.248 89.4108 8.216L89.5388 8.888C89.4214 8.952 89.2854 8.99733 89.1308 9.024C88.9761 9.056 88.8188 9.072 88.6588 9.072ZM92.2732 9.072C91.8092 9.072 91.4119 8.992 91.0812 8.832C90.7505 8.66667 90.4972 8.42933 90.3212 8.12C90.1452 7.81067 90.0572 7.44267 90.0572 7.016C90.0572 6.616 90.1372 6.26133 90.2972 5.952C90.4625 5.64267 90.6972 5.4 91.0012 5.224C91.3052 5.04267 91.6625 4.952 92.0732 4.952C92.4625 4.952 92.7959 5.03467 93.0732 5.2C93.3505 5.36533 93.5639 5.6 93.7132 5.904C93.8625 6.208 93.9372 6.57067 93.9372 6.992V7.264H90.7372V6.696H93.3372L93.1932 6.84C93.1932 6.43467 93.0972 6.128 92.9052 5.92C92.7132 5.70667 92.4412 5.6 92.0892 5.6C91.8492 5.6 91.6385 5.65333 91.4572 5.76C91.2812 5.86133 91.1425 6.01067 91.0412 6.208C90.9399 6.4 90.8892 6.63467 90.8892 6.912V7C90.8892 7.30933 90.9425 7.56533 91.0492 7.768C91.1612 7.97067 91.3212 8.12267 91.5292 8.224C91.7425 8.32533 91.9985 8.376 92.2972 8.376C92.5159 8.376 92.7345 8.34933 92.9532 8.296C93.1772 8.23733 93.3852 8.13333 93.5772 7.984L93.8492 8.592C93.6412 8.75733 93.3959 8.88 93.1132 8.96C92.8305 9.03467 92.5505 9.072 92.2732 9.072ZM95.0314 9V5.032H95.8154V5.976H95.8234C95.9194 5.67733 96.082 5.44267 96.3114 5.272C96.546 5.096 96.834 4.99733 97.1754 4.976L97.5754 4.944L97.6554 5.744L97.0154 5.8C96.6634 5.82667 96.3914 5.94133 96.1994 6.144C96.0074 6.34133 95.9114 6.58933 95.9114 6.888V9H95.0314ZM100.414 9.072C99.9498 9.072 99.5525 8.992 99.2218 8.832C98.8911 8.66667 98.6378 8.42933 98.4618 8.12C98.2858 7.81067 98.1978 7.44267 98.1978 7.016C98.1978 6.616 98.2778 6.26133 98.4378 5.952C98.6031 5.64267 98.8378 5.4 99.1418 5.224C99.4458 5.04267 99.8031 4.952 100.214 4.952C100.603 4.952 100.936 5.03467 101.214 5.2C101.491 5.36533 101.704 5.6 101.854 5.904C102.003 6.208 102.078 6.57067 102.078 6.992V7.264H98.8778V6.696H101.478L101.334 6.84C101.334 6.43467 101.238 6.128 101.046 5.92C100.854 5.70667 100.582 5.6 100.23 5.6C99.9898 5.6 99.7791 5.65333 99.5978 5.76C99.4218 5.86133 99.2831 6.01067 99.1818 6.208C99.0805 6.4 99.0298 6.63467 99.0298 6.912V7C99.0298 7.30933 99.0831 7.56533 99.1898 7.768C99.3018 7.97067 99.4618 8.12267 99.6698 8.224C99.8831 8.32533 100.139 8.376 100.438 8.376C100.656 8.376 100.875 8.34933 101.094 8.296C101.318 8.23733 101.526 8.13333 101.718 7.984L101.99 8.592C101.782 8.75733 101.536 8.88 101.254 8.96C100.971 9.03467 100.691 9.072 100.414 9.072ZM104.764 9.072C104.391 9.072 104.068 8.98667 103.796 8.816C103.524 8.64533 103.313 8.40533 103.164 8.096C103.015 7.78133 102.94 7.42133 102.94 7.016C102.94 6.60533 103.015 6.248 103.164 5.944C103.313 5.63467 103.521 5.392 103.788 5.216C104.06 5.04 104.38 4.952 104.748 4.952C105.079 4.952 105.361 5.02933 105.596 5.184C105.836 5.33867 106.009 5.54667 106.116 5.808V3.36H106.996V9H106.196V8.16H106.188C106.071 8.448 105.887 8.672 105.636 8.832C105.391 8.992 105.1 9.072 104.764 9.072ZM104.972 8.384C105.335 8.384 105.617 8.264 105.82 8.024C106.028 7.77867 106.132 7.44267 106.132 7.016C106.132 6.58933 106.028 6.256 105.82 6.016C105.617 5.77067 105.337 5.648 104.98 5.648C104.617 5.648 104.332 5.77067 104.124 6.016C103.921 6.256 103.82 6.58933 103.82 7.016C103.82 7.44267 103.921 7.77867 104.124 8.024C104.332 8.264 104.615 8.384 104.972 8.384ZM110.521 7.2V6.496H112.825V7.2H110.521ZM118.728 9.072C117.976 9.072 117.4 8.88 117 8.496C116.6 8.10667 116.4 7.53333 116.4 6.776V3.36H117.288V6.76C117.288 7.27733 117.41 7.65867 117.656 7.904C117.901 8.144 118.258 8.264 118.728 8.264C119.202 8.264 119.56 8.144 119.8 7.904C120.04 7.65867 120.16 7.27733 120.16 6.76V3.36H121.048V6.776C121.048 7.528 120.848 8.09867 120.448 8.488C120.053 8.87733 119.48 9.072 118.728 9.072ZM122.445 9V5.032H123.253V5.864H123.261C123.389 5.576 123.579 5.352 123.829 5.192C124.085 5.032 124.373 4.952 124.693 4.952C125.019 4.952 125.291 5.01333 125.509 5.136C125.733 5.25333 125.899 5.43467 126.005 5.68C126.117 5.92 126.173 6.22667 126.173 6.6V9H125.293V6.64C125.293 6.43733 125.264 6.26667 125.205 6.128C125.152 5.984 125.064 5.87467 124.941 5.8C124.819 5.72533 124.656 5.688 124.453 5.688C124.235 5.688 124.04 5.73867 123.869 5.84C123.699 5.936 123.563 6.06933 123.461 6.24C123.365 6.40533 123.317 6.592 123.317 6.8V9H122.445ZM127.412 4.152V3.232H128.444V4.152H127.412ZM127.5 9V5.032H128.372V9H127.5ZM132.663 10.44V8.224C132.556 8.48533 132.383 8.69333 132.143 8.848C131.908 8.99733 131.626 9.072 131.295 9.072C130.927 9.072 130.607 8.98667 130.335 8.816C130.068 8.64 129.86 8.39733 129.711 8.088C129.562 7.77867 129.487 7.42133 129.487 7.016C129.487 6.60533 129.562 6.24533 129.711 5.936C129.86 5.62667 130.071 5.38667 130.343 5.216C130.615 5.04 130.938 4.952 131.311 4.952C131.647 4.952 131.938 5.032 132.183 5.192C132.434 5.352 132.618 5.57867 132.735 5.872H132.743V5.024H133.543V10.44H132.663ZM131.527 8.384C131.884 8.384 132.164 8.26133 132.367 8.016C132.575 7.77067 132.679 7.43467 132.679 7.008C132.679 6.58133 132.575 6.25067 132.367 6.016C132.164 5.776 131.882 5.656 131.519 5.656C131.162 5.656 130.879 5.776 130.671 6.016C130.468 6.25067 130.367 6.58133 130.367 7.008C130.367 7.43467 130.468 7.77067 130.671 8.016C130.879 8.26133 131.164 8.384 131.527 8.384ZM136.387 9.072C136.056 9.072 135.779 9.01333 135.555 8.896C135.331 8.77333 135.16 8.592 135.043 8.352C134.931 8.112 134.875 7.81067 134.875 7.448V5.032H135.755V7.416C135.755 7.60267 135.781 7.768 135.835 7.912C135.893 8.05067 135.984 8.15733 136.107 8.232C136.235 8.30667 136.4 8.344 136.603 8.344C136.805 8.344 136.989 8.296 137.155 8.2C137.32 8.09867 137.451 7.96533 137.547 7.8C137.643 7.62933 137.691 7.44533 137.691 7.248V5.032H138.563V9H137.755V8.152H137.763C137.629 8.44 137.445 8.66667 137.211 8.832C136.981 8.992 136.707 9.072 136.387 9.072ZM141.89 9.072C141.426 9.072 141.029 8.992 140.698 8.832C140.368 8.66667 140.114 8.42933 139.938 8.12C139.762 7.81067 139.674 7.44267 139.674 7.016C139.674 6.616 139.754 6.26133 139.914 5.952C140.08 5.64267 140.314 5.4 140.618 5.224C140.922 5.04267 141.28 4.952 141.69 4.952C142.08 4.952 142.413 5.03467 142.69 5.2C142.968 5.36533 143.181 5.6 143.33 5.904C143.48 6.208 143.554 6.57067 143.554 6.992V7.264H140.354V6.696H142.954L142.81 6.84C142.81 6.43467 142.714 6.128 142.522 5.92C142.33 5.70667 142.058 5.6 141.706 5.6C141.466 5.6 141.256 5.65333 141.074 5.76C140.898 5.86133 140.76 6.01067 140.658 6.208C140.557 6.4 140.506 6.63467 140.506 6.912V7C140.506 7.30933 140.56 7.56533 140.666 7.768C140.778 7.97067 140.938 8.12267 141.146 8.224C141.36 8.32533 141.616 8.376 141.914 8.376C142.133 8.376 142.352 8.34933 142.57 8.296C142.794 8.23733 143.002 8.13333 143.194 7.984L143.466 8.592C143.258 8.75733 143.013 8.88 142.73 8.96C142.448 9.03467 142.168 9.072 141.89 9.072ZM147.058 9V3.36H149.13C149.743 3.36 150.263 3.46933 150.69 3.688C151.116 3.90667 151.442 4.22667 151.666 4.648C151.89 5.064 152.002 5.57333 152.002 6.176C152.002 6.77867 151.89 7.29067 151.666 7.712C151.442 8.13333 151.114 8.45333 150.682 8.672C150.255 8.89067 149.738 9 149.13 9H147.058ZM147.938 8.248H149.082C149.738 8.248 150.236 8.07733 150.578 7.736C150.919 7.38933 151.09 6.86933 151.09 6.176C151.09 5.48267 150.919 4.96533 150.578 4.624C150.236 4.28267 149.738 4.112 149.082 4.112H147.938V8.248ZM155.234 9.072C154.77 9.072 154.373 8.992 154.042 8.832C153.711 8.66667 153.458 8.42933 153.282 8.12C153.106 7.81067 153.018 7.44267 153.018 7.016C153.018 6.616 153.098 6.26133 153.258 5.952C153.423 5.64267 153.658 5.4 153.962 5.224C154.266 5.04267 154.623 4.952 155.034 4.952C155.423 4.952 155.757 5.03467 156.034 5.2C156.311 5.36533 156.525 5.6 156.674 5.904C156.823 6.208 156.898 6.57067 156.898 6.992V7.264H153.698V6.696H156.298L156.154 6.84C156.154 6.43467 156.058 6.128 155.866 5.92C155.674 5.70667 155.402 5.6 155.05 5.6C154.81 5.6 154.599 5.65333 154.418 5.76C154.242 5.86133 154.103 6.01067 154.002 6.208C153.901 6.4 153.85 6.63467 153.85 6.912V7C153.85 7.30933 153.903 7.56533 154.01 7.768C154.122 7.97067 154.282 8.12267 154.49 8.224C154.703 8.32533 154.959 8.376 155.258 8.376C155.477 8.376 155.695 8.34933 155.914 8.296C156.138 8.23733 156.346 8.13333 156.538 7.984L156.81 8.592C156.602 8.75733 156.357 8.88 156.074 8.96C155.791 9.03467 155.511 9.072 155.234 9.072ZM159.496 9.072C159.267 9.072 159.043 9.05333 158.824 9.016C158.611 8.97867 158.414 8.928 158.232 8.864C158.051 8.79467 157.896 8.70667 157.768 8.6L158.016 7.984C158.155 8.08533 158.307 8.168 158.472 8.232C158.638 8.29067 158.806 8.33333 158.976 8.36C159.147 8.38667 159.315 8.4 159.48 8.4C159.79 8.4 160.027 8.35733 160.192 8.272C160.363 8.18667 160.448 8.06133 160.448 7.896C160.448 7.75733 160.4 7.65333 160.304 7.584C160.208 7.50933 160.051 7.45333 159.832 7.416L158.984 7.28C158.611 7.216 158.331 7.088 158.144 6.896C157.958 6.704 157.864 6.464 157.864 6.176C157.864 5.93067 157.931 5.71733 158.064 5.536C158.198 5.35467 158.392 5.21333 158.648 5.112C158.904 5.00533 159.214 4.952 159.576 4.952C159.774 4.952 159.971 4.97067 160.168 5.008C160.366 5.04533 160.547 5.09867 160.712 5.168C160.883 5.23733 161.024 5.32267 161.136 5.424L160.872 6.032C160.76 5.936 160.632 5.85867 160.488 5.8C160.344 5.74133 160.192 5.69867 160.032 5.672C159.878 5.64533 159.726 5.632 159.576 5.632C159.278 5.632 159.048 5.67733 158.888 5.768C158.734 5.85867 158.656 5.984 158.656 6.144C158.656 6.28267 158.702 6.38933 158.792 6.464C158.883 6.53333 159.027 6.58667 159.224 6.624L160.048 6.768C160.454 6.83733 160.752 6.96267 160.944 7.144C161.136 7.32533 161.232 7.568 161.232 7.872C161.232 8.11733 161.16 8.33067 161.016 8.512C160.878 8.69333 160.678 8.832 160.416 8.928C160.155 9.024 159.848 9.072 159.496 9.072ZM162.225 4.152V3.232H163.257V4.152H162.225ZM162.313 9V5.032H163.185V9H162.313ZM166.291 10.512C165.971 10.512 165.654 10.4667 165.339 10.376C165.025 10.2907 164.755 10.168 164.531 10.008L164.787 9.344C164.931 9.43467 165.086 9.51467 165.251 9.584C165.417 9.65333 165.585 9.704 165.755 9.736C165.931 9.77333 166.099 9.792 166.259 9.792C166.67 9.792 166.985 9.69333 167.203 9.496C167.427 9.304 167.539 9.024 167.539 8.656V8H167.523C167.422 8.256 167.249 8.46667 167.003 8.632C166.758 8.792 166.473 8.872 166.147 8.872C165.779 8.872 165.457 8.792 165.179 8.632C164.902 8.46667 164.686 8.23733 164.531 7.944C164.377 7.65067 164.299 7.30667 164.299 6.912C164.299 6.52267 164.377 6.18133 164.531 5.888C164.686 5.58933 164.902 5.36 165.179 5.2C165.457 5.03467 165.779 4.952 166.147 4.952C166.478 4.952 166.766 5.03467 167.011 5.2C167.257 5.36533 167.43 5.58667 167.531 5.864H167.539V5.032H168.363V8.584C168.363 8.984 168.281 9.328 168.115 9.616C167.95 9.904 167.713 10.1253 167.403 10.28C167.094 10.4347 166.723 10.512 166.291 10.512ZM166.339 8.176C166.697 8.176 166.979 8.06133 167.187 7.832C167.395 7.60267 167.499 7.296 167.499 6.912C167.499 6.52267 167.395 6.216 167.187 5.992C166.979 5.76267 166.697 5.648 166.339 5.648C165.982 5.648 165.697 5.76267 165.483 5.992C165.275 6.216 165.171 6.52267 165.171 6.912C165.171 7.296 165.275 7.60267 165.483 7.832C165.697 8.06133 165.982 8.176 166.339 8.176ZM169.703 9V5.032H170.511V5.864H170.519C170.647 5.576 170.837 5.352 171.087 5.192C171.343 5.032 171.631 4.952 171.951 4.952C172.277 4.952 172.549 5.01333 172.767 5.136C172.991 5.25333 173.157 5.43467 173.263 5.68C173.375 5.92 173.431 6.22667 173.431 6.6V9H172.551V6.64C172.551 6.43733 172.522 6.26667 172.463 6.128C172.41 5.984 172.322 5.87467 172.199 5.8C172.077 5.72533 171.914 5.688 171.711 5.688C171.493 5.688 171.298 5.73867 171.127 5.84C170.957 5.936 170.821 6.06933 170.719 6.24C170.623 6.40533 170.575 6.592 170.575 6.8V9H169.703Z" fill="black"/>
<path d="M34.832 22V16.36H35.464L38.92 20.952H38.888V16.36H39.568V22H38.92L35.48 17.424H35.512V22H34.832ZM42.8304 22.072C42.4304 22.072 42.0838 21.9867 41.7904 21.816C41.4971 21.6453 41.2704 21.408 41.1104 21.104C40.9504 20.7947 40.8704 20.432 40.8704 20.016C40.8704 19.6053 40.9504 19.248 41.1104 18.944C41.2704 18.6347 41.4971 18.3973 41.7904 18.232C42.0838 18.0613 42.4304 17.976 42.8304 17.976C43.2304 17.976 43.5744 18.0613 43.8624 18.232C44.1558 18.3973 44.3824 18.6347 44.5424 18.944C44.7024 19.248 44.7824 19.6053 44.7824 20.016C44.7824 20.432 44.7024 20.7947 44.5424 21.104C44.3878 21.408 44.1638 21.6453 43.8704 21.816C43.5771 21.9867 43.2304 22.072 42.8304 22.072ZM42.8224 21.472C43.2118 21.472 43.5184 21.3413 43.7424 21.08C43.9664 20.8187 44.0784 20.464 44.0784 20.016C44.0784 19.568 43.9664 19.216 43.7424 18.96C43.5238 18.704 43.2198 18.576 42.8304 18.576C42.4411 18.576 42.1344 18.704 41.9104 18.96C41.6864 19.216 41.5744 19.568 41.5744 20.016C41.5744 20.464 41.6864 20.8187 41.9104 21.08C42.1398 21.3413 42.4438 21.472 42.8224 21.472ZM50.22 22.072C49.9107 22.072 49.6173 22.048 49.34 22C49.0627 21.952 48.8093 21.88 48.58 21.784C48.3507 21.688 48.1507 21.5707 47.98 21.432L48.244 20.84C48.4253 20.984 48.6173 21.1013 48.82 21.192C49.028 21.2773 49.2467 21.3387 49.476 21.376C49.7107 21.4133 49.9587 21.432 50.22 21.432C50.6627 21.432 51.0013 21.344 51.236 21.168C51.476 20.992 51.596 20.752 51.596 20.448C51.596 20.288 51.556 20.1547 51.476 20.048C51.4013 19.9413 51.2813 19.8533 51.116 19.784C50.956 19.7147 50.748 19.6533 50.492 19.6L49.572 19.424C49.0547 19.3227 48.6813 19.144 48.452 18.888C48.2227 18.632 48.108 18.3093 48.108 17.92C48.108 17.5893 48.1987 17.304 48.38 17.064C48.5667 16.8187 48.8227 16.6293 49.148 16.496C49.4787 16.3573 49.8547 16.288 50.276 16.288C50.5427 16.288 50.7907 16.3147 51.02 16.368C51.2547 16.416 51.468 16.4907 51.66 16.592C51.8573 16.6933 52.0333 16.816 52.188 16.96L51.924 17.544C51.6947 17.32 51.444 17.1627 51.172 17.072C50.9 16.976 50.5987 16.928 50.268 16.928C49.9907 16.928 49.7427 16.968 49.524 17.048C49.3053 17.1227 49.132 17.2347 49.004 17.384C48.8813 17.528 48.82 17.7067 48.82 17.92C48.82 18.1547 48.8947 18.3413 49.044 18.48C49.1933 18.6133 49.4467 18.7173 49.804 18.792L50.716 18.968C51.26 19.0693 51.6627 19.24 51.924 19.48C52.1853 19.72 52.316 20.032 52.316 20.416C52.316 20.736 52.228 21.0213 52.052 21.272C51.8813 21.5227 51.6387 21.72 51.324 21.864C51.0147 22.0027 50.6467 22.072 50.22 22.072ZM53.462 23.44V18.04H54.118V18.912C54.2353 18.6133 54.4193 18.384 54.67 18.224C54.926 18.0587 55.2247 17.976 55.566 17.976C55.934 17.976 56.254 18.0613 56.526 18.232C56.798 18.4027 57.0087 18.64 57.158 18.944C57.3073 19.248 57.382 19.608 57.382 20.024C57.382 20.424 57.3073 20.7787 57.158 21.088C57.014 21.3973 56.806 21.64 56.534 21.816C56.262 21.9867 55.942 22.072 55.574 22.072C55.238 22.072 54.9473 21.992 54.702 21.832C54.462 21.6667 54.286 21.448 54.174 21.176V23.44H53.462ZM55.414 21.488C55.8033 21.488 56.11 21.3573 56.334 21.096C56.558 20.8293 56.67 20.4693 56.67 20.016C56.67 19.5627 56.558 19.208 56.334 18.952C56.11 18.6907 55.8033 18.56 55.414 18.56C55.03 18.56 54.726 18.6907 54.502 18.952C54.278 19.208 54.166 19.5627 54.166 20.016C54.166 20.4693 54.278 20.8293 54.502 21.096C54.726 21.3573 55.03 21.488 55.414 21.488ZM58.4836 17.096V16.304H59.3476V17.096H58.4836ZM58.5636 22V18.048H59.2756V22H58.5636ZM61.8964 22.072C61.5124 22.072 61.2164 21.96 61.0084 21.736C60.8004 21.512 60.6964 21.1973 60.6964 20.792V16.36H61.4084V20.72C61.4084 20.88 61.4324 21.0187 61.4804 21.136C61.5284 21.248 61.5977 21.3333 61.6884 21.392C61.779 21.4507 61.8884 21.48 62.0164 21.48C62.0964 21.48 62.171 21.4773 62.2404 21.472C62.315 21.4613 62.3897 21.4453 62.4644 21.424L62.4804 21.984C62.3897 22.016 62.2964 22.0373 62.2004 22.048C62.1097 22.064 62.0084 22.072 61.8964 22.072ZM64.4823 22.072C64.0983 22.072 63.8023 21.96 63.5943 21.736C63.3863 21.512 63.2823 21.1973 63.2823 20.792V16.36H63.9943V20.72C63.9943 20.88 64.0183 21.0187 64.0663 21.136C64.1143 21.248 64.1836 21.3333 64.2743 21.392C64.365 21.4507 64.4743 21.48 64.6023 21.48C64.6823 21.48 64.757 21.4773 64.8263 21.472C64.901 21.4613 64.9756 21.4453 65.0503 21.424L65.0663 21.984C64.9756 22.016 64.8823 22.0373 64.7863 22.048C64.6956 22.064 64.5943 22.072 64.4823 22.072ZM67.2852 22.072C67.0665 22.072 66.8505 22.0507 66.6372 22.008C66.4292 21.9707 66.2345 21.9173 66.0532 21.848C65.8772 21.7733 65.7252 21.6827 65.5972 21.576L65.8292 21.072C65.9625 21.1733 66.1092 21.256 66.2692 21.32C66.4345 21.384 66.6025 21.432 66.7732 21.464C66.9492 21.4907 67.1172 21.504 67.2772 21.504C67.6079 21.504 67.8612 21.4533 68.0372 21.352C68.2185 21.2507 68.3092 21.1093 68.3092 20.928C68.3092 20.7733 68.2559 20.656 68.1492 20.576C68.0479 20.4907 67.8772 20.4267 67.6372 20.384L66.8132 20.24C66.4452 20.1707 66.1679 20.0453 65.9812 19.864C65.7999 19.6827 65.7092 19.4453 65.7092 19.152C65.7092 18.9173 65.7732 18.712 65.9012 18.536C66.0345 18.36 66.2239 18.224 66.4692 18.128C66.7145 18.0267 67.0079 17.976 67.3492 17.976C67.5359 17.976 67.7252 17.9947 67.9172 18.032C68.1145 18.0693 68.2959 18.1253 68.4612 18.2C68.6319 18.2693 68.7705 18.3573 68.8772 18.464L68.6372 18.968C68.5305 18.8667 68.4025 18.7867 68.2532 18.728C68.1092 18.664 67.9572 18.6187 67.7972 18.592C67.6425 18.56 67.4905 18.544 67.3412 18.544C67.0319 18.544 66.7919 18.5973 66.6212 18.704C66.4505 18.8053 66.3652 18.9493 66.3652 19.136C66.3652 19.2853 66.4132 19.4027 66.5092 19.488C66.6105 19.5733 66.7732 19.6373 66.9972 19.68L67.7972 19.824C68.1919 19.8987 68.4852 20.024 68.6772 20.2C68.8692 20.3707 68.9652 20.608 68.9652 20.912C68.9652 21.1467 68.8959 21.352 68.7572 21.528C68.6185 21.6987 68.4239 21.832 68.1732 21.928C67.9225 22.024 67.6265 22.072 67.2852 22.072Z" fill="#A0A09E"/>
</svg>
