<svg width="174" height="26" viewBox="0 0 174 26" fill="none" xmlns="http://www.w3.org/2000/svg">
<rect y="1" width="24" height="24" rx="12" fill="#F9DDD9"/>
<path d="M14.7831 8.06629C14.0176 7.18208 13.1562 6.38554 12.215 5.69129C12.152 5.64719 12.0769 5.62354 12 5.62354C11.9231 5.62354 11.848 5.64719 11.785 5.69129C10.8438 6.38554 9.98245 7.18208 9.21688 8.06629C7.52125 10.0163 6.625 12.0682 6.625 14C6.625 15.4256 7.19129 16.7927 8.1993 17.8007C9.20731 18.8087 10.5745 19.375 12 19.375C13.4255 19.375 14.7927 18.8087 15.8007 17.8007C16.8087 16.7927 17.375 15.4256 17.375 14C17.375 12.0682 16.4788 10.0163 14.7831 8.06629ZM12 18.625C10.7738 18.6236 9.59831 18.1358 8.73128 17.2688C7.86424 16.4017 7.37649 15.2262 7.375 14C7.375 10.2738 11.0625 7.19191 12 6.46816C12.9375 7.19191 16.625 10.2738 16.625 14C16.6235 15.2262 16.1358 16.4017 15.2687 17.2688C14.4017 18.1358 13.2262 18.6236 12 18.625ZM15.37 14.5625C15.245 15.2613 14.9088 15.905 14.4069 16.4069C13.9049 16.9089 13.2613 17.245 12.5625 17.37C12.5418 17.3732 12.5209 17.3749 12.5 17.375C12.4057 17.3754 12.3148 17.3403 12.2452 17.2766C12.1757 17.2129 12.1327 17.1253 12.1248 17.0314C12.1169 16.9374 12.1447 16.844 12.2027 16.7696C12.2606 16.6952 12.3445 16.6454 12.4375 16.63C13.5237 16.4475 14.4456 15.525 14.63 14.4375C14.6466 14.3394 14.7015 14.2519 14.7826 14.1942C14.8227 14.1657 14.8681 14.1453 14.9161 14.1343C14.9642 14.1233 15.0139 14.1218 15.0625 14.13C15.1111 14.1382 15.1576 14.1559 15.1993 14.1821C15.2411 14.2083 15.2773 14.2424 15.3058 14.2826C15.3344 14.3228 15.3547 14.3682 15.3658 14.4162C15.3768 14.4642 15.3782 14.514 15.37 14.5625Z" fill="#CE3439"/>
<path d="M34.832 9V3.36H36.808C37.4107 3.36 37.9227 3.46933 38.344 3.688C38.7653 3.90667 39.0853 4.22667 39.304 4.648C39.528 5.064 39.64 5.57333 39.64 6.176C39.64 6.77867 39.528 7.29067 39.304 7.712C39.0853 8.13333 38.7653 8.45333 38.344 8.672C37.9227 8.89067 37.4107 9 36.808 9H34.832ZM35.544 8.376H36.768C37.4667 8.376 37.9947 8.19467 38.352 7.832C38.7147 7.46933 38.896 6.91733 38.896 6.176C38.896 5.43467 38.7147 4.88533 38.352 4.528C37.9947 4.16533 37.4667 3.984 36.768 3.984H35.544V8.376ZM42.8582 9.072C42.4155 9.072 42.0315 8.992 41.7062 8.832C41.3862 8.66667 41.1409 8.432 40.9702 8.128C40.7995 7.81867 40.7142 7.45067 40.7142 7.024C40.7142 6.624 40.7942 6.272 40.9542 5.968C41.1142 5.65867 41.3409 5.416 41.6342 5.24C41.9275 5.064 42.2769 4.976 42.6822 4.976C43.0662 4.976 43.3915 5.05867 43.6582 5.224C43.9302 5.38933 44.1355 5.62133 44.2742 5.92C44.4182 6.21867 44.4902 6.57333 44.4902 6.984V7.216H41.2502V6.72H44.0262L43.8742 6.88C43.8742 6.44267 43.7702 6.10667 43.5622 5.872C43.3595 5.63733 43.0662 5.52 42.6822 5.52C42.4315 5.52 42.2075 5.57867 42.0102 5.696C41.8182 5.808 41.6689 5.968 41.5622 6.176C41.4555 6.384 41.4022 6.63733 41.4022 6.936V7.016C41.4022 7.336 41.4609 7.60533 41.5782 7.824C41.6955 8.04267 41.8635 8.208 42.0822 8.32C42.3009 8.432 42.5622 8.488 42.8662 8.488C43.0849 8.488 43.3062 8.45867 43.5302 8.4C43.7595 8.336 43.9729 8.224 44.1702 8.064L44.4102 8.576C44.2075 8.74667 43.9649 8.872 43.6822 8.952C43.4049 9.032 43.1302 9.072 42.8582 9.072ZM47.1211 9.072C46.9025 9.072 46.6865 9.05067 46.4731 9.008C46.2651 8.97067 46.0705 8.91733 45.8891 8.848C45.7131 8.77333 45.5611 8.68267 45.4331 8.576L45.6651 8.072C45.7985 8.17333 45.9451 8.256 46.1051 8.32C46.2705 8.384 46.4385 8.432 46.6091 8.464C46.7851 8.49067 46.9531 8.504 47.1131 8.504C47.4438 8.504 47.6971 8.45333 47.8731 8.352C48.0545 8.25067 48.1451 8.10933 48.1451 7.928C48.1451 7.77333 48.0918 7.656 47.9851 7.576C47.8838 7.49067 47.7131 7.42667 47.4731 7.384L46.6491 7.24C46.2811 7.17067 46.0038 7.04533 45.8171 6.864C45.6358 6.68267 45.5451 6.44533 45.5451 6.152C45.5451 5.91733 45.6091 5.712 45.7371 5.536C45.8705 5.36 46.0598 5.224 46.3051 5.128C46.5505 5.02667 46.8438 4.976 47.1851 4.976C47.3718 4.976 47.5611 4.99467 47.7531 5.032C47.9505 5.06933 48.1318 5.12533 48.2971 5.2C48.4678 5.26933 48.6065 5.35733 48.7131 5.464L48.4731 5.968C48.3665 5.86667 48.2385 5.78667 48.0891 5.728C47.9451 5.664 47.7931 5.61867 47.6331 5.592C47.4785 5.56 47.3265 5.544 47.1771 5.544C46.8678 5.544 46.6278 5.59733 46.4571 5.704C46.2865 5.80533 46.2011 5.94933 46.2011 6.136C46.2011 6.28533 46.2491 6.40267 46.3451 6.488C46.4465 6.57333 46.6091 6.63733 46.8331 6.68L47.6331 6.824C48.0278 6.89867 48.3211 7.024 48.5131 7.2C48.7051 7.37067 48.8011 7.608 48.8011 7.912C48.8011 8.14667 48.7318 8.352 48.5931 8.528C48.4545 8.69867 48.2598 8.832 48.0091 8.928C47.7585 9.024 47.4625 9.072 47.1211 9.072ZM49.8976 4.096V3.304H50.7616V4.096H49.8976ZM49.9776 9V5.048H50.6896V9H49.9776ZM53.8224 10.512C53.5078 10.512 53.1958 10.464 52.8864 10.368C52.5771 10.2773 52.3131 10.152 52.0944 9.992L52.3184 9.44C52.4678 9.536 52.6251 9.61867 52.7904 9.688C52.9558 9.76267 53.1238 9.816 53.2944 9.848C53.4704 9.88533 53.6438 9.904 53.8144 9.904C54.2251 9.904 54.5451 9.8 54.7744 9.592C55.0091 9.384 55.1264 9.088 55.1264 8.704V7.976H55.1104C55.0144 8.248 54.8411 8.46933 54.5904 8.64C54.3398 8.80533 54.0491 8.888 53.7184 8.888C53.3451 8.888 53.0198 8.808 52.7424 8.648C52.4651 8.48267 52.2491 8.25333 52.0944 7.96C51.9451 7.66667 51.8704 7.32267 51.8704 6.928C51.8704 6.53867 51.9451 6.19733 52.0944 5.904C52.2491 5.61067 52.4651 5.384 52.7424 5.224C53.0198 5.05867 53.3451 4.976 53.7184 4.976C54.0491 4.976 54.3398 5.06133 54.5904 5.232C54.8464 5.40267 55.0224 5.62933 55.1184 5.912H55.1264V5.048H55.7904V8.64C55.7904 9.024 55.7104 9.35467 55.5504 9.632C55.3958 9.91467 55.1718 10.1307 54.8784 10.28C54.5851 10.4347 54.2331 10.512 53.8224 10.512ZM53.8384 8.304C54.2278 8.304 54.5344 8.17867 54.7584 7.928C54.9878 7.67733 55.1024 7.344 55.1024 6.928C55.1024 6.512 54.9878 6.18133 54.7584 5.936C54.5344 5.68533 54.2278 5.56 53.8384 5.56C53.4544 5.56 53.1478 5.68533 52.9184 5.936C52.6944 6.18133 52.5824 6.512 52.5824 6.928C52.5824 7.344 52.6944 7.67733 52.9184 7.928C53.1478 8.17867 53.4544 8.304 53.8384 8.304ZM57.212 9V5.048H57.876V5.904C58.004 5.61067 58.196 5.384 58.452 5.224C58.708 5.05867 58.996 4.976 59.316 4.976C59.6413 4.976 59.9133 5.03467 60.132 5.152C60.3507 5.264 60.5133 5.44 60.62 5.68C60.732 5.91467 60.788 6.208 60.788 6.56V9H60.076V6.6C60.076 6.38667 60.0467 6.20533 59.988 6.056C59.9293 5.90667 59.8307 5.792 59.692 5.712C59.5587 5.62667 59.38 5.584 59.156 5.584C58.9213 5.584 58.708 5.63733 58.516 5.744C58.3293 5.85067 58.1827 5.99467 58.076 6.176C57.9747 6.35733 57.924 6.56 57.924 6.784V9H57.212ZM64.5508 9V3.36H66.8708C67.4788 3.36 67.9481 3.49867 68.2788 3.776C68.6094 4.05333 68.7748 4.456 68.7748 4.984C68.7748 5.28267 68.7134 5.54133 68.5908 5.76C68.4734 5.97867 68.3054 6.15467 68.0868 6.288C67.8681 6.416 67.6121 6.49867 67.3188 6.536L67.3428 6.528L67.4228 6.544C67.5561 6.56533 67.6761 6.62133 67.7828 6.712C67.8894 6.80267 67.9934 6.944 68.0948 7.136L69.0868 9H68.3028L67.3588 7.232C67.2788 7.07733 67.1934 6.96 67.1028 6.88C67.0121 6.8 66.9028 6.744 66.7748 6.712C66.6521 6.68 66.5028 6.664 66.3268 6.664H65.2628V9H64.5508ZM65.2628 6.072H66.8228C67.2494 6.072 67.5614 5.984 67.7587 5.808C67.9561 5.62667 68.0548 5.35733 68.0548 5C68.0548 4.64267 67.9508 4.38133 67.7428 4.216C67.5401 4.05067 67.2228 3.968 66.7908 3.968H65.2628V6.072ZM71.9832 9.072C71.5405 9.072 71.1565 8.992 70.8312 8.832C70.5112 8.66667 70.2659 8.432 70.0952 8.128C69.9245 7.81867 69.8392 7.45067 69.8392 7.024C69.8392 6.624 69.9192 6.272 70.0792 5.968C70.2392 5.65867 70.4659 5.416 70.7592 5.24C71.0525 5.064 71.4019 4.976 71.8072 4.976C72.1912 4.976 72.5165 5.05867 72.7832 5.224C73.0552 5.38933 73.2605 5.62133 73.3992 5.92C73.5432 6.21867 73.6152 6.57333 73.6152 6.984V7.216H70.3752V6.72H73.1512L72.9992 6.88C72.9992 6.44267 72.8952 6.10667 72.6872 5.872C72.4845 5.63733 72.1912 5.52 71.8072 5.52C71.5565 5.52 71.3325 5.57867 71.1352 5.696C70.9432 5.808 70.7939 5.968 70.6872 6.176C70.5805 6.384 70.5272 6.63733 70.5272 6.936V7.016C70.5272 7.336 70.5859 7.60533 70.7032 7.824C70.8205 8.04267 70.9885 8.208 71.2072 8.32C71.4259 8.432 71.6872 8.488 71.9912 8.488C72.2099 8.488 72.4312 8.45867 72.6552 8.4C72.8845 8.336 73.0979 8.224 73.2952 8.064L73.5352 8.576C73.3325 8.74667 73.0899 8.872 72.8072 8.952C72.5299 9.032 72.2552 9.072 71.9832 9.072ZM76.5021 10.512C76.1875 10.512 75.8755 10.464 75.5661 10.368C75.2568 10.2773 74.9928 10.152 74.7741 9.992L74.9981 9.44C75.1475 9.536 75.3048 9.61867 75.4701 9.688C75.6355 9.76267 75.8035 9.816 75.9741 9.848C76.1501 9.88533 76.3235 9.904 76.4941 9.904C76.9048 9.904 77.2248 9.8 77.4541 9.592C77.6888 9.384 77.8061 9.088 77.8061 8.704V7.976H77.7901C77.6941 8.248 77.5208 8.46933 77.2701 8.64C77.0195 8.80533 76.7288 8.888 76.3981 8.888C76.0248 8.888 75.6995 8.808 75.4221 8.648C75.1448 8.48267 74.9288 8.25333 74.7741 7.96C74.6248 7.66667 74.5501 7.32267 74.5501 6.928C74.5501 6.53867 74.6248 6.19733 74.7741 5.904C74.9288 5.61067 75.1448 5.384 75.4221 5.224C75.6995 5.05867 76.0248 4.976 76.3981 4.976C76.7288 4.976 77.0195 5.06133 77.2701 5.232C77.5261 5.40267 77.7021 5.62933 77.7981 5.912H77.8061V5.048H78.4701V8.64C78.4701 9.024 78.3901 9.35467 78.2301 9.632C78.0755 9.91467 77.8515 10.1307 77.5581 10.28C77.2648 10.4347 76.9128 10.512 76.5021 10.512ZM76.5181 8.304C76.9075 8.304 77.2141 8.17867 77.4381 7.928C77.6675 7.67733 77.7821 7.344 77.7821 6.928C77.7821 6.512 77.6675 6.18133 77.4381 5.936C77.2141 5.68533 76.9075 5.56 76.5181 5.56C76.1341 5.56 75.8275 5.68533 75.5981 5.936C75.3741 6.18133 75.2621 6.512 75.2621 6.928C75.2621 7.344 75.3741 7.67733 75.5981 7.928C75.8275 8.17867 76.1341 8.304 76.5181 8.304ZM79.8117 4.096V3.304H80.6757V4.096H79.8117ZM79.8917 9V5.048H80.6037V9H79.8917ZM83.4805 9.072C83.2618 9.072 83.0458 9.05067 82.8325 9.008C82.6245 8.97067 82.4298 8.91733 82.2485 8.848C82.0725 8.77333 81.9205 8.68267 81.7925 8.576L82.0245 8.072C82.1578 8.17333 82.3045 8.256 82.4645 8.32C82.6298 8.384 82.7978 8.432 82.9685 8.464C83.1445 8.49067 83.3125 8.504 83.4725 8.504C83.8032 8.504 84.0565 8.45333 84.2325 8.352C84.4138 8.25067 84.5045 8.10933 84.5045 7.928C84.5045 7.77333 84.4512 7.656 84.3445 7.576C84.2432 7.49067 84.0725 7.42667 83.8325 7.384L83.0085 7.24C82.6405 7.17067 82.3632 7.04533 82.1765 6.864C81.9952 6.68267 81.9045 6.44533 81.9045 6.152C81.9045 5.91733 81.9685 5.712 82.0965 5.536C82.2298 5.36 82.4192 5.224 82.6645 5.128C82.9098 5.02667 83.2032 4.976 83.5445 4.976C83.7312 4.976 83.9205 4.99467 84.1125 5.032C84.3098 5.06933 84.4912 5.12533 84.6565 5.2C84.8272 5.26933 84.9658 5.35733 85.0725 5.464L84.8325 5.968C84.7258 5.86667 84.5978 5.78667 84.4485 5.728C84.3045 5.664 84.1525 5.61867 83.9925 5.592C83.8378 5.56 83.6858 5.544 83.5365 5.544C83.2272 5.544 82.9872 5.59733 82.8165 5.704C82.6458 5.80533 82.5605 5.94933 82.5605 6.136C82.5605 6.28533 82.6085 6.40267 82.7045 6.488C82.8058 6.57333 82.9685 6.63733 83.1925 6.68L83.9925 6.824C84.3872 6.89867 84.6805 7.024 84.8725 7.2C85.0645 7.37067 85.1605 7.608 85.1605 7.912C85.1605 8.14667 85.0912 8.352 84.9525 8.528C84.8138 8.69867 84.6192 8.832 84.3685 8.928C84.1178 9.024 83.8218 9.072 83.4805 9.072ZM87.9619 9.072C87.4873 9.072 87.1273 8.94667 86.8819 8.696C86.6419 8.44533 86.5219 8.088 86.5219 7.624V5.632H85.7219V5.048H86.5459V3.872H87.2339V5.048H88.6499V5.632H87.2339V7.56C87.2339 7.864 87.3006 8.09067 87.4339 8.24C87.5726 8.384 87.7833 8.456 88.0659 8.456C88.1779 8.456 88.2846 8.44533 88.3859 8.424C88.4926 8.40267 88.5939 8.37067 88.6899 8.328L88.8019 8.888C88.6953 8.94667 88.5646 8.992 88.4099 9.024C88.2606 9.056 88.1113 9.072 87.9619 9.072ZM91.4988 9.072C91.0561 9.072 90.6721 8.992 90.3468 8.832C90.0268 8.66667 89.7815 8.432 89.6108 8.128C89.4401 7.81867 89.3548 7.45067 89.3548 7.024C89.3548 6.624 89.4348 6.272 89.5948 5.968C89.7548 5.65867 89.9815 5.416 90.2748 5.24C90.5681 5.064 90.9175 4.976 91.3228 4.976C91.7068 4.976 92.0321 5.05867 92.2988 5.224C92.5708 5.38933 92.7761 5.62133 92.9148 5.92C93.0588 6.21867 93.1308 6.57333 93.1308 6.984V7.216H89.8908V6.72H92.6668L92.5148 6.88C92.5148 6.44267 92.4108 6.10667 92.2028 5.872C92.0001 5.63733 91.7068 5.52 91.3228 5.52C91.0721 5.52 90.8481 5.57867 90.6508 5.696C90.4588 5.808 90.3095 5.968 90.2028 6.176C90.0961 6.384 90.0428 6.63733 90.0428 6.936V7.016C90.0428 7.336 90.1015 7.60533 90.2188 7.824C90.3361 8.04267 90.5041 8.208 90.7228 8.32C90.9415 8.432 91.2028 8.488 91.5068 8.488C91.7255 8.488 91.9468 8.45867 92.1708 8.4C92.4001 8.336 92.6135 8.224 92.8108 8.064L93.0508 8.576C92.8481 8.74667 92.6055 8.872 92.3228 8.952C92.0455 9.032 91.7708 9.072 91.4988 9.072ZM94.3058 9V5.048H94.9538V5.96H94.9618C95.0578 5.66667 95.2258 5.43733 95.4658 5.272C95.7058 5.10133 95.9991 5.00533 96.3458 4.984L96.7058 4.968L96.7698 5.616L96.1938 5.664C95.8258 5.696 95.5378 5.81867 95.3298 6.032C95.1218 6.24 95.0178 6.50133 95.0178 6.816V9H94.3058ZM99.5066 9.072C99.064 9.072 98.68 8.992 98.3546 8.832C98.0346 8.66667 97.7893 8.432 97.6186 8.128C97.448 7.81867 97.3626 7.45067 97.3626 7.024C97.3626 6.624 97.4426 6.272 97.6026 5.968C97.7626 5.65867 97.9893 5.416 98.2826 5.24C98.576 5.064 98.9253 4.976 99.3306 4.976C99.7146 4.976 100.04 5.05867 100.307 5.224C100.579 5.38933 100.784 5.62133 100.923 5.92C101.067 6.21867 101.139 6.57333 101.139 6.984V7.216H97.8986V6.72H100.675L100.523 6.88C100.523 6.44267 100.419 6.10667 100.211 5.872C100.008 5.63733 99.7146 5.52 99.3306 5.52C99.08 5.52 98.856 5.57867 98.6586 5.696C98.4666 5.808 98.3173 5.968 98.2106 6.176C98.104 6.384 98.0506 6.63733 98.0506 6.936V7.016C98.0506 7.336 98.1093 7.60533 98.2266 7.824C98.344 8.04267 98.512 8.208 98.7306 8.32C98.9493 8.432 99.2106 8.488 99.5146 8.488C99.7333 8.488 99.9546 8.45867 100.179 8.4C100.408 8.336 100.621 8.224 100.819 8.064L101.059 8.576C100.856 8.74667 100.613 8.872 100.331 8.952C100.053 9.032 99.7786 9.072 99.5066 9.072ZM103.89 9.072C103.527 9.072 103.21 8.98667 102.938 8.816C102.666 8.64533 102.452 8.40533 102.298 8.096C102.148 7.78667 102.074 7.42933 102.074 7.024C102.074 6.61333 102.148 6.256 102.298 5.952C102.447 5.64267 102.658 5.40267 102.93 5.232C103.202 5.06133 103.519 4.976 103.882 4.976C104.223 4.976 104.514 5.056 104.754 5.216C104.999 5.376 105.175 5.59467 105.282 5.872V3.36H105.994V9H105.338V8.128C105.22 8.42667 105.036 8.65867 104.786 8.824C104.535 8.98933 104.236 9.072 103.89 9.072ZM104.042 8.488C104.431 8.488 104.735 8.35733 104.954 8.096C105.178 7.83467 105.29 7.47733 105.29 7.024C105.29 6.57067 105.178 6.21333 104.954 5.952C104.735 5.69067 104.431 5.56 104.042 5.56C103.658 5.56 103.351 5.69067 103.122 5.952C102.898 6.21333 102.786 6.57067 102.786 7.024C102.786 7.47733 102.898 7.83467 103.122 8.096C103.346 8.35733 103.652 8.488 104.042 8.488ZM109.514 7.144V6.568H111.754V7.144H109.514ZM117.587 9.072C116.851 9.072 116.288 8.88 115.899 8.496C115.515 8.112 115.323 7.54667 115.323 6.8V3.36H116.035V6.8C116.035 7.35467 116.165 7.76267 116.427 8.024C116.693 8.28 117.08 8.408 117.587 8.408C118.093 8.408 118.477 8.27733 118.739 8.016C119 7.75467 119.131 7.34933 119.131 6.8V3.36H119.843V6.8C119.843 7.54667 119.651 8.112 119.266 8.496C118.883 8.88 118.323 9.072 117.587 9.072ZM121.321 9V5.048H121.985V5.904C122.113 5.61067 122.305 5.384 122.561 5.224C122.817 5.05867 123.105 4.976 123.425 4.976C123.751 4.976 124.023 5.03467 124.241 5.152C124.46 5.264 124.623 5.44 124.729 5.68C124.841 5.91467 124.897 6.208 124.897 6.56V9H124.185V6.6C124.185 6.38667 124.156 6.20533 124.097 6.056C124.039 5.90667 123.94 5.792 123.801 5.712C123.668 5.62667 123.489 5.584 123.265 5.584C123.031 5.584 122.817 5.63733 122.625 5.744C122.439 5.85067 122.292 5.99467 122.185 6.176C122.084 6.35733 122.033 6.56 122.033 6.784V9H121.321ZM126.226 4.096V3.304H127.09V4.096H126.226ZM126.306 9V5.048H127.018V9H126.306ZM131.407 10.44V8.176C131.3 8.45333 131.124 8.672 130.879 8.832C130.639 8.992 130.348 9.072 130.007 9.072C129.644 9.072 129.327 8.98667 129.055 8.816C128.783 8.64533 128.572 8.40533 128.423 8.096C128.273 7.78667 128.199 7.42933 128.199 7.024C128.199 6.61333 128.273 6.256 128.423 5.952C128.577 5.64267 128.791 5.40267 129.063 5.232C129.335 5.06133 129.652 4.976 130.015 4.976C130.361 4.976 130.66 5.05867 130.911 5.224C131.161 5.384 131.345 5.61333 131.463 5.912V5.04H132.119V10.44H131.407ZM130.175 8.488C130.559 8.488 130.86 8.35733 131.079 8.096C131.303 7.82933 131.415 7.46933 131.415 7.016C131.415 6.56267 131.303 6.208 131.079 5.952C130.86 5.69067 130.556 5.56 130.167 5.56C129.777 5.56 129.471 5.69067 129.247 5.952C129.023 6.208 128.911 6.56267 128.911 7.016C128.911 7.46933 129.023 7.82933 129.247 8.096C129.476 8.35733 129.785 8.488 130.175 8.488ZM135.02 9.072C134.695 9.072 134.42 9.01333 134.196 8.896C133.972 8.77867 133.804 8.60267 133.692 8.368C133.58 8.13333 133.524 7.84 133.524 7.488V5.048H134.236V7.456C134.236 7.65867 134.265 7.83733 134.324 7.992C134.388 8.14133 134.487 8.25867 134.62 8.344C134.759 8.424 134.94 8.464 135.164 8.464C135.388 8.464 135.591 8.41067 135.772 8.304C135.953 8.192 136.095 8.048 136.196 7.872C136.297 7.69067 136.348 7.49067 136.348 7.272V5.048H137.06V9H136.404V8.128C136.271 8.42133 136.089 8.65333 135.86 8.824C135.631 8.98933 135.351 9.072 135.02 9.072ZM140.389 9.072C139.947 9.072 139.563 8.992 139.237 8.832C138.917 8.66667 138.672 8.432 138.501 8.128C138.331 7.81867 138.245 7.45067 138.245 7.024C138.245 6.624 138.325 6.272 138.485 5.968C138.645 5.65867 138.872 5.416 139.165 5.24C139.459 5.064 139.808 4.976 140.213 4.976C140.597 4.976 140.923 5.05867 141.189 5.224C141.461 5.38933 141.667 5.62133 141.805 5.92C141.949 6.21867 142.021 6.57333 142.021 6.984V7.216H138.781V6.72H141.557L141.405 6.88C141.405 6.44267 141.301 6.10667 141.093 5.872C140.891 5.63733 140.597 5.52 140.213 5.52C139.963 5.52 139.739 5.57867 139.541 5.696C139.349 5.808 139.2 5.968 139.093 6.176C138.987 6.384 138.933 6.63733 138.933 6.936V7.016C138.933 7.336 138.992 7.60533 139.109 7.824C139.227 8.04267 139.395 8.208 139.613 8.32C139.832 8.432 140.093 8.488 140.397 8.488C140.616 8.488 140.837 8.45867 141.061 8.4C141.291 8.336 141.504 8.224 141.701 8.064L141.941 8.576C141.739 8.74667 141.496 8.872 141.213 8.952C140.936 9.032 140.661 9.072 140.389 9.072ZM145.551 9V3.36H147.527C148.129 3.36 148.641 3.46933 149.063 3.688C149.484 3.90667 149.804 4.22667 150.023 4.648C150.247 5.064 150.359 5.57333 150.359 6.176C150.359 6.77867 150.247 7.29067 150.023 7.712C149.804 8.13333 149.484 8.45333 149.063 8.672C148.641 8.89067 148.129 9 147.527 9H145.551ZM146.263 8.376H147.487C148.185 8.376 148.713 8.19467 149.071 7.832C149.433 7.46933 149.615 6.91733 149.615 6.176C149.615 5.43467 149.433 4.88533 149.071 4.528C148.713 4.16533 148.185 3.984 147.487 3.984H146.263V8.376ZM153.577 9.072C153.134 9.072 152.75 8.992 152.425 8.832C152.105 8.66667 151.86 8.432 151.689 8.128C151.518 7.81867 151.433 7.45067 151.433 7.024C151.433 6.624 151.513 6.272 151.673 5.968C151.833 5.65867 152.06 5.416 152.353 5.24C152.646 5.064 152.996 4.976 153.401 4.976C153.785 4.976 154.11 5.05867 154.377 5.224C154.649 5.38933 154.854 5.62133 154.993 5.92C155.137 6.21867 155.209 6.57333 155.209 6.984V7.216H151.969V6.72H154.745L154.593 6.88C154.593 6.44267 154.489 6.10667 154.281 5.872C154.078 5.63733 153.785 5.52 153.401 5.52C153.15 5.52 152.926 5.57867 152.729 5.696C152.537 5.808 152.388 5.968 152.281 6.176C152.174 6.384 152.121 6.63733 152.121 6.936V7.016C152.121 7.336 152.18 7.60533 152.297 7.824C152.414 8.04267 152.582 8.208 152.801 8.32C153.02 8.432 153.281 8.488 153.585 8.488C153.804 8.488 154.025 8.45867 154.249 8.4C154.478 8.336 154.692 8.224 154.889 8.064L155.129 8.576C154.926 8.74667 154.684 8.872 154.401 8.952C154.124 9.032 153.849 9.072 153.577 9.072ZM157.84 9.072C157.621 9.072 157.405 9.05067 157.192 9.008C156.984 8.97067 156.789 8.91733 156.608 8.848C156.432 8.77333 156.28 8.68267 156.152 8.576L156.384 8.072C156.517 8.17333 156.664 8.256 156.824 8.32C156.989 8.384 157.157 8.432 157.328 8.464C157.504 8.49067 157.672 8.504 157.832 8.504C158.163 8.504 158.416 8.45333 158.592 8.352C158.773 8.25067 158.864 8.10933 158.864 7.928C158.864 7.77333 158.811 7.656 158.704 7.576C158.603 7.49067 158.432 7.42667 158.192 7.384L157.368 7.24C157 7.17067 156.723 7.04533 156.536 6.864C156.355 6.68267 156.264 6.44533 156.264 6.152C156.264 5.91733 156.328 5.712 156.456 5.536C156.589 5.36 156.779 5.224 157.024 5.128C157.269 5.02667 157.563 4.976 157.904 4.976C158.091 4.976 158.28 4.99467 158.472 5.032C158.669 5.06933 158.851 5.12533 159.016 5.2C159.187 5.26933 159.325 5.35733 159.432 5.464L159.192 5.968C159.085 5.86667 158.957 5.78667 158.808 5.728C158.664 5.664 158.512 5.61867 158.352 5.592C158.197 5.56 158.045 5.544 157.896 5.544C157.587 5.544 157.347 5.59733 157.176 5.704C157.005 5.80533 156.92 5.94933 156.92 6.136C156.92 6.28533 156.968 6.40267 157.064 6.488C157.165 6.57333 157.328 6.63733 157.552 6.68L158.352 6.824C158.747 6.89867 159.04 7.024 159.232 7.2C159.424 7.37067 159.52 7.608 159.52 7.912C159.52 8.14667 159.451 8.352 159.312 8.528C159.173 8.69867 158.979 8.832 158.728 8.928C158.477 9.024 158.181 9.072 157.84 9.072ZM160.616 4.096V3.304H161.48V4.096H160.616ZM160.696 9V5.048H161.408V9H160.696ZM164.541 10.512C164.227 10.512 163.915 10.464 163.605 10.368C163.296 10.2773 163.032 10.152 162.813 9.992L163.037 9.44C163.187 9.536 163.344 9.61867 163.509 9.688C163.675 9.76267 163.843 9.816 164.013 9.848C164.189 9.88533 164.363 9.904 164.533 9.904C164.944 9.904 165.264 9.8 165.493 9.592C165.728 9.384 165.845 9.088 165.845 8.704V7.976H165.829C165.733 8.248 165.56 8.46933 165.309 8.64C165.059 8.80533 164.768 8.888 164.437 8.888C164.064 8.888 163.739 8.808 163.461 8.648C163.184 8.48267 162.968 8.25333 162.813 7.96C162.664 7.66667 162.589 7.32267 162.589 6.928C162.589 6.53867 162.664 6.19733 162.813 5.904C162.968 5.61067 163.184 5.384 163.461 5.224C163.739 5.05867 164.064 4.976 164.437 4.976C164.768 4.976 165.059 5.06133 165.309 5.232C165.565 5.40267 165.741 5.62933 165.837 5.912H165.845V5.048H166.509V8.64C166.509 9.024 166.429 9.35467 166.269 9.632C166.115 9.91467 165.891 10.1307 165.597 10.28C165.304 10.4347 164.952 10.512 164.541 10.512ZM164.557 8.304C164.947 8.304 165.253 8.17867 165.477 7.928C165.707 7.67733 165.821 7.344 165.821 6.928C165.821 6.512 165.707 6.18133 165.477 5.936C165.253 5.68533 164.947 5.56 164.557 5.56C164.173 5.56 163.867 5.68533 163.637 5.936C163.413 6.18133 163.301 6.512 163.301 6.928C163.301 7.344 163.413 7.67733 163.637 7.928C163.867 8.17867 164.173 8.304 164.557 8.304ZM167.931 9V5.048H168.595V5.904C168.723 5.61067 168.915 5.384 169.171 5.224C169.427 5.05867 169.715 4.976 170.035 4.976C170.36 4.976 170.632 5.03467 170.851 5.152C171.069 5.264 171.232 5.44 171.339 5.68C171.451 5.91467 171.507 6.208 171.507 6.56V9H170.795V6.6C170.795 6.38667 170.765 6.20533 170.707 6.056C170.648 5.90667 170.549 5.792 170.411 5.712C170.277 5.62667 170.099 5.584 169.875 5.584C169.64 5.584 169.427 5.63733 169.235 5.744C169.048 5.85067 168.901 5.99467 168.795 6.176C168.693 6.35733 168.643 6.56 168.643 6.784V9H167.931Z" fill="black"/>
<path d="M34.832 22V16.36H35.464L38.92 20.952H38.888V16.36H39.568V22H38.92L35.48 17.424H35.512V22H34.832ZM42.8304 22.072C42.4304 22.072 42.0838 21.9867 41.7904 21.816C41.4971 21.6453 41.2704 21.408 41.1104 21.104C40.9504 20.7947 40.8704 20.432 40.8704 20.016C40.8704 19.6053 40.9504 19.248 41.1104 18.944C41.2704 18.6347 41.4971 18.3973 41.7904 18.232C42.0838 18.0613 42.4304 17.976 42.8304 17.976C43.2304 17.976 43.5744 18.0613 43.8624 18.232C44.1558 18.3973 44.3824 18.6347 44.5424 18.944C44.7024 19.248 44.7824 19.6053 44.7824 20.016C44.7824 20.432 44.7024 20.7947 44.5424 21.104C44.3878 21.408 44.1638 21.6453 43.8704 21.816C43.5771 21.9867 43.2304 22.072 42.8304 22.072ZM42.8224 21.472C43.2118 21.472 43.5184 21.3413 43.7424 21.08C43.9664 20.8187 44.0784 20.464 44.0784 20.016C44.0784 19.568 43.9664 19.216 43.7424 18.96C43.5238 18.704 43.2198 18.576 42.8304 18.576C42.4411 18.576 42.1344 18.704 41.9104 18.96C41.6864 19.216 41.5744 19.568 41.5744 20.016C41.5744 20.464 41.6864 20.8187 41.9104 21.08C42.1398 21.3413 42.4438 21.472 42.8224 21.472ZM50.22 22.072C49.9107 22.072 49.6173 22.048 49.34 22C49.0627 21.952 48.8093 21.88 48.58 21.784C48.3507 21.688 48.1507 21.5707 47.98 21.432L48.244 20.84C48.4253 20.984 48.6173 21.1013 48.82 21.192C49.028 21.2773 49.2467 21.3387 49.476 21.376C49.7107 21.4133 49.9587 21.432 50.22 21.432C50.6627 21.432 51.0013 21.344 51.236 21.168C51.476 20.992 51.596 20.752 51.596 20.448C51.596 20.288 51.556 20.1547 51.476 20.048C51.4013 19.9413 51.2813 19.8533 51.116 19.784C50.956 19.7147 50.748 19.6533 50.492 19.6L49.572 19.424C49.0547 19.3227 48.6813 19.144 48.452 18.888C48.2227 18.632 48.108 18.3093 48.108 17.92C48.108 17.5893 48.1987 17.304 48.38 17.064C48.5667 16.8187 48.8227 16.6293 49.148 16.496C49.4787 16.3573 49.8547 16.288 50.276 16.288C50.5427 16.288 50.7907 16.3147 51.02 16.368C51.2547 16.416 51.468 16.4907 51.66 16.592C51.8573 16.6933 52.0333 16.816 52.188 16.96L51.924 17.544C51.6947 17.32 51.444 17.1627 51.172 17.072C50.9 16.976 50.5987 16.928 50.268 16.928C49.9907 16.928 49.7427 16.968 49.524 17.048C49.3053 17.1227 49.132 17.2347 49.004 17.384C48.8813 17.528 48.82 17.7067 48.82 17.92C48.82 18.1547 48.8947 18.3413 49.044 18.48C49.1933 18.6133 49.4467 18.7173 49.804 18.792L50.716 18.968C51.26 19.0693 51.6627 19.24 51.924 19.48C52.1853 19.72 52.316 20.032 52.316 20.416C52.316 20.736 52.228 21.0213 52.052 21.272C51.8813 21.5227 51.6387 21.72 51.324 21.864C51.0147 22.0027 50.6467 22.072 50.22 22.072ZM53.462 23.44V18.04H54.118V18.912C54.2353 18.6133 54.4193 18.384 54.67 18.224C54.926 18.0587 55.2247 17.976 55.566 17.976C55.934 17.976 56.254 18.0613 56.526 18.232C56.798 18.4027 57.0087 18.64 57.158 18.944C57.3073 19.248 57.382 19.608 57.382 20.024C57.382 20.424 57.3073 20.7787 57.158 21.088C57.014 21.3973 56.806 21.64 56.534 21.816C56.262 21.9867 55.942 22.072 55.574 22.072C55.238 22.072 54.9473 21.992 54.702 21.832C54.462 21.6667 54.286 21.448 54.174 21.176V23.44H53.462ZM55.414 21.488C55.8033 21.488 56.11 21.3573 56.334 21.096C56.558 20.8293 56.67 20.4693 56.67 20.016C56.67 19.5627 56.558 19.208 56.334 18.952C56.11 18.6907 55.8033 18.56 55.414 18.56C55.03 18.56 54.726 18.6907 54.502 18.952C54.278 19.208 54.166 19.5627 54.166 20.016C54.166 20.4693 54.278 20.8293 54.502 21.096C54.726 21.3573 55.03 21.488 55.414 21.488ZM58.4836 17.096V16.304H59.3476V17.096H58.4836ZM58.5636 22V18.048H59.2756V22H58.5636ZM61.8964 22.072C61.5124 22.072 61.2164 21.96 61.0084 21.736C60.8004 21.512 60.6964 21.1973 60.6964 20.792V16.36H61.4084V20.72C61.4084 20.88 61.4324 21.0187 61.4804 21.136C61.5284 21.248 61.5977 21.3333 61.6884 21.392C61.779 21.4507 61.8884 21.48 62.0164 21.48C62.0964 21.48 62.171 21.4773 62.2404 21.472C62.315 21.4613 62.3897 21.4453 62.4644 21.424L62.4804 21.984C62.3897 22.016 62.2964 22.0373 62.2004 22.048C62.1097 22.064 62.0084 22.072 61.8964 22.072ZM64.4823 22.072C64.0983 22.072 63.8023 21.96 63.5943 21.736C63.3863 21.512 63.2823 21.1973 63.2823 20.792V16.36H63.9943V20.72C63.9943 20.88 64.0183 21.0187 64.0663 21.136C64.1143 21.248 64.1836 21.3333 64.2743 21.392C64.365 21.4507 64.4743 21.48 64.6023 21.48C64.6823 21.48 64.757 21.4773 64.8263 21.472C64.901 21.4613 64.9756 21.4453 65.0503 21.424L65.0663 21.984C64.9756 22.016 64.8823 22.0373 64.7863 22.048C64.6956 22.064 64.5943 22.072 64.4823 22.072ZM67.2852 22.072C67.0665 22.072 66.8505 22.0507 66.6372 22.008C66.4292 21.9707 66.2345 21.9173 66.0532 21.848C65.8772 21.7733 65.7252 21.6827 65.5972 21.576L65.8292 21.072C65.9625 21.1733 66.1092 21.256 66.2692 21.32C66.4345 21.384 66.6025 21.432 66.7732 21.464C66.9492 21.4907 67.1172 21.504 67.2772 21.504C67.6079 21.504 67.8612 21.4533 68.0372 21.352C68.2185 21.2507 68.3092 21.1093 68.3092 20.928C68.3092 20.7733 68.2559 20.656 68.1492 20.576C68.0479 20.4907 67.8772 20.4267 67.6372 20.384L66.8132 20.24C66.4452 20.1707 66.1679 20.0453 65.9812 19.864C65.7999 19.6827 65.7092 19.4453 65.7092 19.152C65.7092 18.9173 65.7732 18.712 65.9012 18.536C66.0345 18.36 66.2239 18.224 66.4692 18.128C66.7145 18.0267 67.0079 17.976 67.3492 17.976C67.5359 17.976 67.7252 17.9947 67.9172 18.032C68.1145 18.0693 68.2959 18.1253 68.4612 18.2C68.6319 18.2693 68.7705 18.3573 68.8772 18.464L68.6372 18.968C68.5305 18.8667 68.4025 18.7867 68.2532 18.728C68.1092 18.664 67.9572 18.6187 67.7972 18.592C67.6425 18.56 67.4905 18.544 67.3412 18.544C67.0319 18.544 66.7919 18.5973 66.6212 18.704C66.4505 18.8053 66.3652 18.9493 66.3652 19.136C66.3652 19.2853 66.4132 19.4027 66.5092 19.488C66.6105 19.5733 66.7732 19.6373 66.9972 19.68L67.7972 19.824C68.1919 19.8987 68.4852 20.024 68.6772 20.2C68.8692 20.3707 68.9652 20.608 68.9652 20.912C68.9652 21.1467 68.8959 21.352 68.7572 21.528C68.6185 21.6987 68.4239 21.832 68.1732 21.928C67.9225 22.024 67.6265 22.072 67.2852 22.072Z" fill="#A0A09E"/>
</svg>
