<svg width="124" height="26" viewBox="0 0 124 26" fill="none" xmlns="http://www.w3.org/2000/svg">
<rect y="1" width="24" height="24" rx="12" fill="#F9DDD9"/>
<path fill-rule="evenodd" clip-rule="evenodd" d="M6.77887 7.77918V7.78158C6.73598 8.26473 6.70531 8.74888 6.68687 9.23358C6.64047 10.4016 6.64687 11.788 6.80047 12.8176C6.81371 12.8819 6.84639 12.9405 6.89407 12.9856L13.0973 19.1888C13.1723 19.2638 13.274 19.3059 13.3801 19.3059C13.4861 19.3059 13.5879 19.2638 13.6629 19.1888L18.1885 14.6632C18.2635 14.5882 18.3056 14.4864 18.3056 14.3804C18.3056 14.2743 18.2635 14.1726 18.1885 14.0976L11.9853 7.89438C11.9402 7.84669 11.8815 7.81402 11.8173 7.80078C10.7877 7.64718 9.40127 7.64078 8.23327 7.68718C7.74857 7.70561 7.26442 7.73629 6.78127 7.77918H6.77887ZM6.07167 7.07198C5.99407 7.14558 5.68047 10.7256 6.01007 12.936C6.04527 13.1712 6.16207 13.384 6.33007 13.552L12.5325 19.7552C12.7575 19.9801 13.0627 20.1065 13.3809 20.1065C13.6991 20.1065 14.0042 19.9801 14.2293 19.7552L18.7549 15.2296C18.9798 15.0045 19.1062 14.6994 19.1062 14.3812C19.1062 14.063 18.9798 13.7578 18.7549 13.5328L12.5509 7.32798C12.3846 7.15877 12.1689 7.04672 11.9349 7.00798C9.72447 6.67918 6.14447 6.99198 6.07087 7.07038" fill="#CE3439"/>
<path fill-rule="evenodd" clip-rule="evenodd" d="M10.0605 11.1288C10.0223 11.1657 9.99184 11.2098 9.97088 11.2586C9.94991 11.3074 9.93888 11.3599 9.93842 11.413C9.93796 11.4661 9.94808 11.5188 9.96819 11.568C9.9883 11.6171 10.018 11.6618 10.0556 11.6993C10.0931 11.7369 10.1378 11.7666 10.1869 11.7867C10.2361 11.8068 10.2888 11.8169 10.3419 11.8165C10.395 11.816 10.4475 11.805 10.4963 11.784C10.5451 11.7631 10.5892 11.7326 10.6261 11.6944C10.699 11.6189 10.7393 11.5179 10.7384 11.413C10.7375 11.3081 10.6954 11.2078 10.6212 11.1337C10.5471 11.0595 10.4468 11.0174 10.3419 11.0165C10.237 11.0156 10.136 11.0559 10.0605 11.1288ZM9.49572 12.26C9.37917 12.1498 9.28589 12.0173 9.22139 11.8705C9.1569 11.7236 9.12251 11.5653 9.12024 11.405C9.11797 11.2446 9.14788 11.0854 9.20819 10.9367C9.2685 10.7881 9.358 10.6531 9.47139 10.5397C9.58478 10.4262 9.71976 10.3367 9.86835 10.2763C10.0169 10.2159 10.1761 10.1859 10.3365 10.1881C10.4969 10.1903 10.6552 10.2246 10.8021 10.289C10.949 10.3535 11.0815 10.4467 11.1917 10.5632C11.4065 10.7901 11.5243 11.0919 11.52 11.4044C11.5157 11.7168 11.3898 12.0153 11.1688 12.2363C10.9479 12.4573 10.6495 12.5834 10.3371 12.5879C10.0246 12.5923 9.72278 12.4747 9.49572 12.26Z" fill="#CE3439"/>
<path d="M37.792 9V3.36H38.672V9H37.792ZM40.1329 9V5.032H40.9409V5.864H40.9489C41.0769 5.576 41.2663 5.352 41.5169 5.192C41.7729 5.032 42.0609 4.952 42.3809 4.952C42.7063 4.952 42.9783 5.01333 43.1969 5.136C43.4209 5.25333 43.5863 5.43467 43.6929 5.68C43.8049 5.92 43.8609 6.22667 43.8609 6.6V9H42.9809V6.64C42.9809 6.43733 42.9516 6.26667 42.8929 6.128C42.8396 5.984 42.7516 5.87467 42.6289 5.8C42.5063 5.72533 42.3436 5.688 42.1409 5.688C41.9223 5.688 41.7276 5.73867 41.5569 5.84C41.3863 5.936 41.2503 6.06933 41.1489 6.24C41.0529 6.40533 41.0049 6.592 41.0049 6.8V9H40.1329ZM47.6127 9V3.36H48.5727L50.5167 7.2H50.4607L52.3967 3.36H53.3407V9H52.5007V4.64H52.5327L50.7887 8.096H50.1727L48.4127 4.64H48.4527V9H47.6127ZM56.6124 9.072C56.2018 9.072 55.8444 8.98667 55.5404 8.816C55.2364 8.64533 55.0018 8.40533 54.8364 8.096C54.6711 7.78667 54.5884 7.424 54.5884 7.008C54.5884 6.592 54.6711 6.232 54.8364 5.928C55.0018 5.61867 55.2364 5.37867 55.5404 5.208C55.8444 5.03733 56.2018 4.952 56.6124 4.952C57.0284 4.952 57.3858 5.03733 57.6844 5.208C57.9831 5.37867 58.2151 5.61867 58.3804 5.928C58.5458 6.23733 58.6284 6.59733 58.6284 7.008C58.6284 7.424 58.5458 7.78667 58.3804 8.096C58.2204 8.40533 57.9884 8.64533 57.6844 8.816C57.3858 8.98667 57.0284 9.072 56.6124 9.072ZM56.6124 8.352C56.9698 8.352 57.2498 8.232 57.4524 7.992C57.6604 7.752 57.7644 7.424 57.7644 7.008C57.7644 6.592 57.6604 6.26667 57.4524 6.032C57.2498 5.79733 56.9698 5.68 56.6124 5.68C56.2498 5.68 55.9644 5.79733 55.7564 6.032C55.5538 6.26667 55.4524 6.592 55.4524 7.008C55.4524 7.424 55.5564 7.752 55.7644 7.992C55.9724 8.232 56.2551 8.352 56.6124 8.352ZM61.0223 9.072C60.6063 9.072 60.289 8.95733 60.0703 8.728C59.8516 8.49333 59.7423 8.16267 59.7423 7.736V3.36H60.6143V7.656C60.6143 7.81067 60.6356 7.94133 60.6783 8.048C60.7263 8.15467 60.793 8.23467 60.8783 8.288C60.9636 8.34133 61.0676 8.368 61.1903 8.368C61.2703 8.368 61.345 8.36533 61.4143 8.36C61.4836 8.34933 61.5556 8.33333 61.6303 8.312L61.6623 8.976C61.561 9.01333 61.4596 9.03733 61.3583 9.048C61.2623 9.064 61.1503 9.072 61.0223 9.072ZM63.9749 9.072C63.6016 9.072 63.2789 8.98667 63.0069 8.816C62.7349 8.64533 62.5243 8.40533 62.3749 8.096C62.2256 7.78133 62.1509 7.42133 62.1509 7.016C62.1509 6.60533 62.2256 6.248 62.3749 5.944C62.5243 5.63467 62.7323 5.392 62.9989 5.216C63.2709 5.04 63.5909 4.952 63.9589 4.952C64.2896 4.952 64.5723 5.02933 64.8069 5.184C65.0469 5.33867 65.2203 5.54667 65.3269 5.808V3.36H66.2069V9H65.4069V8.16H65.3989C65.2816 8.448 65.0976 8.672 64.8469 8.832C64.6016 8.992 64.3109 9.072 63.9749 9.072ZM64.1829 8.384C64.5456 8.384 64.8283 8.264 65.0309 8.024C65.2389 7.77867 65.3429 7.44267 65.3429 7.016C65.3429 6.58933 65.2389 6.256 65.0309 6.016C64.8283 5.77067 64.5483 5.648 64.1909 5.648C63.8283 5.648 63.5429 5.77067 63.3349 6.016C63.1323 6.256 63.0309 6.58933 63.0309 7.016C63.0309 7.44267 63.1323 7.77867 63.3349 8.024C63.5429 8.264 63.8256 8.384 64.1829 8.384ZM69.9639 9V3.36H70.8439V8.232H73.6359V9H69.9639ZM75.9224 9.072C75.6344 9.072 75.3758 9.01867 75.1464 8.912C74.9224 8.80533 74.7438 8.66133 74.6104 8.48C74.4824 8.29333 74.4184 8.08267 74.4184 7.848C74.4184 7.55467 74.5038 7.32 74.6744 7.144C74.8451 6.96267 75.1064 6.832 75.4584 6.752C75.8158 6.672 76.2718 6.632 76.8264 6.632H77.3864V7.192H76.8664C76.5891 7.192 76.3491 7.20267 76.1464 7.224C75.9491 7.24 75.7864 7.272 75.6584 7.32C75.5304 7.36267 75.4344 7.424 75.3704 7.504C75.3118 7.57867 75.2824 7.67733 75.2824 7.8C75.2824 8.00267 75.3571 8.15733 75.5064 8.264C75.6611 8.37067 75.8611 8.424 76.1064 8.424C76.3198 8.424 76.5118 8.376 76.6824 8.28C76.8584 8.17867 76.9971 8.048 77.0984 7.888C77.2051 7.72267 77.2584 7.54133 77.2584 7.344V6.456C77.2584 6.16267 77.1731 5.95467 77.0024 5.832C76.8371 5.704 76.5891 5.64 76.2584 5.64C76.0291 5.64 75.7971 5.672 75.5624 5.736C75.3331 5.8 75.0931 5.904 74.8424 6.048L74.5864 5.424C74.7518 5.32267 74.9304 5.23733 75.1224 5.168C75.3198 5.09867 75.5251 5.04533 75.7384 5.008C75.9518 4.97067 76.1624 4.952 76.3704 4.952C76.7278 4.952 77.0371 5.008 77.2984 5.12C77.5598 5.232 77.7598 5.40533 77.8984 5.64C78.0371 5.86933 78.1064 6.17067 78.1064 6.544V9H77.3544V8.152H77.3464C77.2718 8.32267 77.1678 8.48 77.0344 8.624C76.9064 8.76267 76.7491 8.872 76.5624 8.952C76.3758 9.032 76.1624 9.072 75.9224 9.072ZM81.6696 9.072C81.3336 9.072 81.0403 8.992 80.7896 8.832C80.5443 8.672 80.3603 8.448 80.2376 8.16V9H79.4376V3.36H80.3096V5.808C80.4216 5.54667 80.595 5.33867 80.8296 5.184C81.0643 5.02933 81.3496 4.952 81.6856 4.952C82.0536 4.952 82.371 5.04 82.6376 5.216C82.9096 5.392 83.1176 5.63467 83.2616 5.944C83.411 6.248 83.4856 6.60533 83.4856 7.016C83.4856 7.42133 83.411 7.78133 83.2616 8.096C83.1176 8.40533 82.9096 8.64533 82.6376 8.816C82.3656 8.98667 82.043 9.072 81.6696 9.072ZM81.4616 8.384C81.819 8.384 82.099 8.264 82.3016 8.024C82.5096 7.77867 82.6136 7.44267 82.6136 7.016C82.6136 6.58933 82.5096 6.256 82.3016 6.016C82.099 5.77067 81.8163 5.648 81.4536 5.648C81.0963 5.648 80.8136 5.77067 80.6056 6.016C80.403 6.256 80.3016 6.58933 80.3016 7.016C80.3016 7.44267 80.4056 7.77867 80.6136 8.024C80.8216 8.264 81.1043 8.384 81.4616 8.384ZM86.5935 9.072C86.1295 9.072 85.7322 8.992 85.4015 8.832C85.0708 8.66667 84.8175 8.42933 84.6415 8.12C84.4655 7.81067 84.3775 7.44267 84.3775 7.016C84.3775 6.616 84.4575 6.26133 84.6175 5.952C84.7828 5.64267 85.0175 5.4 85.3215 5.224C85.6255 5.04267 85.9828 4.952 86.3935 4.952C86.7828 4.952 87.1162 5.03467 87.3935 5.2C87.6708 5.36533 87.8842 5.6 88.0335 5.904C88.1828 6.208 88.2575 6.57067 88.2575 6.992V7.264H85.0575V6.696H87.6575L87.5135 6.84C87.5135 6.43467 87.4175 6.128 87.2255 5.92C87.0335 5.70667 86.7615 5.6 86.4095 5.6C86.1695 5.6 85.9588 5.65333 85.7775 5.76C85.6015 5.86133 85.4628 6.01067 85.3615 6.208C85.2602 6.4 85.2095 6.63467 85.2095 6.912V7C85.2095 7.30933 85.2628 7.56533 85.3695 7.768C85.4815 7.97067 85.6415 8.12267 85.8495 8.224C86.0628 8.32533 86.3188 8.376 86.6175 8.376C86.8362 8.376 87.0548 8.34933 87.2735 8.296C87.4975 8.23733 87.7055 8.13333 87.8975 7.984L88.1695 8.592C87.9615 8.75733 87.7162 8.88 87.4335 8.96C87.1508 9.03467 86.8708 9.072 86.5935 9.072ZM90.6317 9.072C90.2157 9.072 89.8984 8.95733 89.6797 8.728C89.461 8.49333 89.3517 8.16267 89.3517 7.736V3.36H90.2237V7.656C90.2237 7.81067 90.245 7.94133 90.2877 8.048C90.3357 8.15467 90.4024 8.23467 90.4877 8.288C90.573 8.34133 90.677 8.368 90.7997 8.368C90.8797 8.368 90.9544 8.36533 91.0237 8.36C91.093 8.34933 91.165 8.33333 91.2397 8.312L91.2717 8.976C91.1704 9.01333 91.069 9.03733 90.9677 9.048C90.8717 9.064 90.7597 9.072 90.6317 9.072ZM91.9434 4.152V3.232H92.9754V4.152H91.9434ZM92.0314 9V5.032H92.9034V9H92.0314ZM94.2501 9V5.032H95.0581V5.864H95.0661C95.1941 5.576 95.3835 5.352 95.6341 5.192C95.8901 5.032 96.1781 4.952 96.4981 4.952C96.8235 4.952 97.0955 5.01333 97.3141 5.136C97.5381 5.25333 97.7035 5.43467 97.8101 5.68C97.9221 5.92 97.9781 6.22667 97.9781 6.6V9H97.0981V6.64C97.0981 6.43733 97.0688 6.26667 97.0101 6.128C96.9568 5.984 96.8688 5.87467 96.7461 5.8C96.6235 5.72533 96.4608 5.688 96.2581 5.688C96.0395 5.688 95.8448 5.73867 95.6741 5.84C95.5035 5.936 95.3675 6.06933 95.2661 6.24C95.1701 6.40533 95.1221 6.592 95.1221 6.8V9H94.2501ZM101.065 10.512C100.745 10.512 100.427 10.4667 100.113 10.376C99.7981 10.2907 99.5288 10.168 99.3048 10.008L99.5608 9.344C99.7048 9.43467 99.8595 9.51467 100.025 9.584C100.19 9.65333 100.358 9.704 100.529 9.736C100.705 9.77333 100.873 9.792 101.033 9.792C101.443 9.792 101.758 9.69333 101.977 9.496C102.201 9.304 102.313 9.024 102.313 8.656V8H102.297C102.195 8.256 102.022 8.46667 101.777 8.632C101.531 8.792 101.246 8.872 100.921 8.872C100.553 8.872 100.23 8.792 99.9528 8.632C99.6755 8.46667 99.4595 8.23733 99.3048 7.944C99.1501 7.65067 99.0728 7.30667 99.0728 6.912C99.0728 6.52267 99.1501 6.18133 99.3048 5.888C99.4595 5.58933 99.6755 5.36 99.9528 5.2C100.23 5.03467 100.553 4.952 100.921 4.952C101.251 4.952 101.539 5.03467 101.785 5.2C102.03 5.36533 102.203 5.58667 102.305 5.864H102.313V5.032H103.137V8.584C103.137 8.984 103.054 9.328 102.889 9.616C102.723 9.904 102.486 10.1253 102.177 10.28C101.867 10.4347 101.497 10.512 101.065 10.512ZM101.113 8.176C101.47 8.176 101.753 8.06133 101.961 7.832C102.169 7.60267 102.273 7.296 102.273 6.912C102.273 6.52267 102.169 6.216 101.961 5.992C101.753 5.76267 101.47 5.648 101.113 5.648C100.755 5.648 100.47 5.76267 100.257 5.992C100.049 6.216 99.9448 6.52267 99.9448 6.912C99.9448 7.296 100.049 7.60267 100.257 7.832C100.47 8.06133 100.755 8.176 101.113 8.176ZM105.741 10.552C105.341 9.98133 105.047 9.39467 104.861 8.792C104.679 8.18933 104.589 7.55733 104.589 6.896C104.589 6.23467 104.679 5.60533 104.861 5.008C105.047 4.40533 105.341 3.816 105.741 3.24L106.349 3.472C106.146 3.856 105.978 4.23733 105.845 4.616C105.717 4.98933 105.621 5.36533 105.557 5.744C105.493 6.12267 105.461 6.50667 105.461 6.896C105.461 7.28533 105.493 7.66933 105.557 8.048C105.621 8.42667 105.717 8.80267 105.845 9.176C105.978 9.54933 106.146 9.93067 106.349 10.32L105.741 10.552ZM107.425 9V3.36H108.305V9H107.425ZM109.902 9V3.36H110.862L112.806 7.2H112.75L114.686 3.36H115.63V9H114.79V4.64H114.822L113.078 8.096H112.462L110.702 4.64H110.742V9H109.902ZM117.23 9V3.36H118.11V8.232H120.902V9H117.23ZM122.06 10.552L121.452 10.32C121.655 9.93067 121.82 9.54667 121.948 9.168C122.081 8.79467 122.18 8.41867 122.244 8.04C122.308 7.66133 122.34 7.28 122.34 6.896C122.34 6.50667 122.308 6.12533 122.244 5.752C122.18 5.37333 122.081 4.99467 121.948 4.616C121.82 4.23733 121.655 3.856 121.452 3.472L122.06 3.24C122.46 3.81067 122.751 4.39733 122.932 5C123.119 5.60267 123.212 6.23467 123.212 6.896C123.212 7.55733 123.119 8.18933 122.932 8.792C122.751 9.38933 122.46 9.976 122.06 10.552Z" fill="black"/>
<path d="M37.832 22V16.36H40.152C40.5573 16.36 40.9013 16.4267 41.184 16.56C41.4667 16.6933 41.6827 16.888 41.832 17.144C41.9867 17.3947 42.064 17.6987 42.064 18.056C42.064 18.4133 41.9867 18.72 41.832 18.976C41.6827 19.232 41.464 19.4293 41.176 19.568C40.8933 19.7067 40.552 19.776 40.152 19.776H38.544V22H37.832ZM38.544 19.168H40.048C40.4747 19.168 40.7973 19.0773 41.016 18.896C41.2347 18.7093 41.344 18.432 41.344 18.064C41.344 17.6907 41.2347 17.416 41.016 17.24C40.7973 17.0587 40.4747 16.968 40.048 16.968H38.544V19.168ZM43.1261 22V18.048H43.7741V18.96H43.7821C43.8781 18.6667 44.0461 18.4373 44.2861 18.272C44.5261 18.1013 44.8194 18.0053 45.1661 17.984L45.5261 17.968L45.5901 18.616L45.0141 18.664C44.6461 18.696 44.3581 18.8187 44.1501 19.032C43.9421 19.24 43.8381 19.5013 43.8381 19.816V22H43.1261ZM48.3269 22.072C47.8843 22.072 47.5003 21.992 47.1749 21.832C46.8549 21.6667 46.6096 21.432 46.4389 21.128C46.2683 20.8187 46.1829 20.4507 46.1829 20.024C46.1829 19.624 46.2629 19.272 46.4229 18.968C46.5829 18.6587 46.8096 18.416 47.1029 18.24C47.3963 18.064 47.7456 17.976 48.1509 17.976C48.5349 17.976 48.8603 18.0587 49.1269 18.224C49.3989 18.3893 49.6043 18.6213 49.7429 18.92C49.8869 19.2187 49.9589 19.5733 49.9589 19.984V20.216H46.7189V19.72H49.4949L49.3429 19.88C49.3429 19.4427 49.2389 19.1067 49.0309 18.872C48.8283 18.6373 48.5349 18.52 48.1509 18.52C47.9003 18.52 47.6763 18.5787 47.4789 18.696C47.2869 18.808 47.1376 18.968 47.0309 19.176C46.9243 19.384 46.8709 19.6373 46.8709 19.936V20.016C46.8709 20.336 46.9296 20.6053 47.0469 20.824C47.1643 21.0427 47.3323 21.208 47.5509 21.32C47.7696 21.432 48.0309 21.488 48.3349 21.488C48.5536 21.488 48.7749 21.4587 48.9989 21.4C49.2283 21.336 49.4416 21.224 49.6389 21.064L49.8789 21.576C49.6763 21.7467 49.4336 21.872 49.1509 21.952C48.8736 22.032 48.5989 22.072 48.3269 22.072ZM51.1499 22V18.048H51.8059V18.912C51.8752 18.736 51.9712 18.5787 52.0939 18.44C52.2219 18.296 52.3739 18.184 52.5499 18.104C52.7312 18.0187 52.9285 17.976 53.1419 17.976C53.4885 17.976 53.7739 18.0613 53.9979 18.232C54.2219 18.4027 54.3605 18.6267 54.4139 18.904H54.4059C54.5125 18.6427 54.6805 18.424 54.9099 18.248C55.1445 18.0667 55.4379 17.976 55.7899 17.976C56.0885 17.976 56.3419 18.0347 56.5499 18.152C56.7579 18.264 56.9152 18.4373 57.0219 18.672C57.1285 18.9067 57.1819 19.2027 57.1819 19.56V22H56.4779V19.608C56.4779 19.2667 56.4165 19.0107 56.2939 18.84C56.1712 18.6693 55.9525 18.584 55.6379 18.584C55.4032 18.584 55.2005 18.6373 55.0299 18.744C54.8645 18.8453 54.7365 18.9893 54.6459 19.176C54.5605 19.3573 54.5179 19.5627 54.5179 19.792V22H53.8139V19.608C53.8139 19.272 53.7445 19.0187 53.6059 18.848C53.4672 18.672 53.2565 18.584 52.9739 18.584C52.7445 18.584 52.5445 18.6427 52.3739 18.76C52.2085 18.872 52.0805 19.0187 51.9899 19.2C51.8992 19.3813 51.8539 19.5733 51.8539 19.776V22H51.1499ZM58.5304 17.096V16.304H59.3944V17.096H58.5304ZM58.6104 22V18.048H59.3224V22H58.6104ZM62.2233 22.072C61.8979 22.072 61.6233 22.0133 61.3993 21.896C61.1753 21.7787 61.0073 21.6027 60.8953 21.368C60.7833 21.1333 60.7273 20.84 60.7273 20.488V18.048H61.4393V20.456C61.4393 20.6587 61.4686 20.8373 61.5273 20.992C61.5913 21.1413 61.6899 21.2587 61.8233 21.344C61.9619 21.424 62.1433 21.464 62.3673 21.464C62.5913 21.464 62.7939 21.4107 62.9753 21.304C63.1566 21.192 63.2979 21.048 63.3993 20.872C63.5006 20.6907 63.5513 20.4907 63.5513 20.272V18.048H64.2633V22H63.6073V21.128C63.4739 21.4213 63.2926 21.6533 63.0633 21.824C62.8339 21.9893 62.5539 22.072 62.2233 22.072ZM65.7046 22V18.048H66.3606V18.912C66.4299 18.736 66.5259 18.5787 66.6486 18.44C66.7766 18.296 66.9286 18.184 67.1046 18.104C67.2859 18.0187 67.4832 17.976 67.6966 17.976C68.0432 17.976 68.3286 18.0613 68.5526 18.232C68.7766 18.4027 68.9152 18.6267 68.9686 18.904H68.9606C69.0672 18.6427 69.2352 18.424 69.4646 18.248C69.6992 18.0667 69.9926 17.976 70.3446 17.976C70.6432 17.976 70.8966 18.0347 71.1046 18.152C71.3126 18.264 71.4699 18.4373 71.5766 18.672C71.6832 18.9067 71.7366 19.2027 71.7366 19.56V22H71.0326V19.608C71.0326 19.2667 70.9712 19.0107 70.8486 18.84C70.7259 18.6693 70.5072 18.584 70.1926 18.584C69.9579 18.584 69.7552 18.6373 69.5846 18.744C69.4192 18.8453 69.2912 18.9893 69.2006 19.176C69.1152 19.3573 69.0726 19.5627 69.0726 19.792V22H68.3686V19.608C68.3686 19.272 68.2992 19.0187 68.1606 18.848C68.0219 18.672 67.8112 18.584 67.5286 18.584C67.2992 18.584 67.0992 18.6427 66.9286 18.76C66.7632 18.872 66.6352 19.0187 66.5446 19.2C66.4539 19.3813 66.4086 19.5733 66.4086 19.776V22H65.7046ZM75.5195 22V16.36H79.1675V16.984H76.2315V18.864H79.0075V19.48H76.2315V22H75.5195ZM80.1476 17.096V16.304H81.0116V17.096H80.1476ZM80.2276 22V18.048H80.9396V22H80.2276ZM82.3604 22V18.048H83.0244V18.904C83.1524 18.6107 83.3444 18.384 83.6004 18.224C83.8564 18.0587 84.1444 17.976 84.4644 17.976C84.7898 17.976 85.0618 18.0347 85.2804 18.152C85.4991 18.264 85.6618 18.44 85.7684 18.68C85.8804 18.9147 85.9364 19.208 85.9364 19.56V22H85.2244V19.6C85.2244 19.3867 85.1951 19.2053 85.1364 19.056C85.0778 18.9067 84.9791 18.792 84.8404 18.712C84.7071 18.6267 84.5284 18.584 84.3044 18.584C84.0698 18.584 83.8564 18.6373 83.6644 18.744C83.4778 18.8507 83.3311 18.9947 83.2244 19.176C83.1231 19.3573 83.0724 19.56 83.0724 19.784V22H82.3604ZM87.2648 17.096V16.304H88.1288V17.096H87.2648ZM87.3448 22V18.048H88.0568V22H87.3448ZM90.9336 22.072C90.715 22.072 90.499 22.0507 90.2856 22.008C90.0776 21.9707 89.883 21.9173 89.7016 21.848C89.5256 21.7733 89.3736 21.6827 89.2456 21.576L89.4776 21.072C89.611 21.1733 89.7576 21.256 89.9176 21.32C90.083 21.384 90.251 21.432 90.4216 21.464C90.5976 21.4907 90.7656 21.504 90.9256 21.504C91.2563 21.504 91.5096 21.4533 91.6856 21.352C91.867 21.2507 91.9576 21.1093 91.9576 20.928C91.9576 20.7733 91.9043 20.656 91.7976 20.576C91.6963 20.4907 91.5256 20.4267 91.2856 20.384L90.4616 20.24C90.0936 20.1707 89.8163 20.0453 89.6296 19.864C89.4483 19.6827 89.3576 19.4453 89.3576 19.152C89.3576 18.9173 89.4216 18.712 89.5496 18.536C89.683 18.36 89.8723 18.224 90.1176 18.128C90.363 18.0267 90.6563 17.976 90.9976 17.976C91.1843 17.976 91.3736 17.9947 91.5656 18.032C91.763 18.0693 91.9443 18.1253 92.1096 18.2C92.2803 18.2693 92.419 18.3573 92.5256 18.464L92.2856 18.968C92.179 18.8667 92.051 18.7867 91.9016 18.728C91.7576 18.664 91.6056 18.6187 91.4456 18.592C91.291 18.56 91.139 18.544 90.9896 18.544C90.6803 18.544 90.4403 18.5973 90.2696 18.704C90.099 18.8053 90.0136 18.9493 90.0136 19.136C90.0136 19.2853 90.0616 19.4027 90.1576 19.488C90.259 19.5733 90.4216 19.6373 90.6456 19.68L91.4456 19.824C91.8403 19.8987 92.1336 20.024 92.3256 20.2C92.5176 20.3707 92.6136 20.608 92.6136 20.912C92.6136 21.1467 92.5443 21.352 92.4056 21.528C92.267 21.6987 92.0723 21.832 91.8216 21.928C91.571 22.024 91.275 22.072 90.9336 22.072ZM93.7901 22V16.36H94.4781V18.888C94.5955 18.6053 94.7795 18.384 95.0301 18.224C95.2861 18.0587 95.5741 17.976 95.8941 17.976C96.2195 17.976 96.4915 18.0347 96.7101 18.152C96.9288 18.264 97.0915 18.44 97.1981 18.68C97.3101 18.9147 97.3661 19.208 97.3661 19.56V22H96.6541V19.6C96.6541 19.3867 96.6221 19.2053 96.5581 19.056C96.4995 18.9067 96.4035 18.792 96.2701 18.712C96.1368 18.6267 95.9581 18.584 95.7341 18.584C95.4995 18.584 95.2888 18.6373 95.1021 18.744C94.9155 18.8507 94.7688 18.9947 94.6621 19.176C94.5555 19.3573 94.5021 19.56 94.5021 19.784V22H93.7901Z" fill="#A0A09E"/>
</svg>
