<svg width="140" height="26" viewBox="0 0 140 26" fill="none" xmlns="http://www.w3.org/2000/svg">
<rect width="24" height="24" rx="12" fill="#F9DDD9"/>
<path d="M7.07733 16.6666C6.77867 16.6666 6.52444 16.5617 6.31467 16.3519C6.10489 16.1421 6 15.8881 6 15.5899V8.40992C6 8.11214 6.10489 7.85814 6.31467 7.64792C6.52444 7.43814 6.77867 7.33325 7.07733 7.33325H16.9233C17.2211 7.33325 17.4751 7.43814 17.6853 7.64792C17.8951 7.8577 18 8.11192 18 8.41059V15.5899C18 15.8877 17.8951 16.1417 17.6853 16.3519C17.4756 16.5617 17.2216 16.6666 16.9233 16.6666H7.07733ZM7.07733 15.9999H16.9233C17.0429 15.9999 17.1411 15.9615 17.218 15.8846C17.2949 15.8077 17.3333 15.7095 17.3333 15.5899V8.40992C17.3333 8.29036 17.2949 8.19214 17.218 8.11525C17.1411 8.03836 17.0429 7.99992 16.9233 7.99992H7.07667C6.95711 7.99992 6.85889 8.03836 6.782 8.11525C6.70511 8.19214 6.66667 8.29059 6.66667 8.41059V15.5899C6.66667 15.7095 6.70511 15.8077 6.782 15.8846C6.85889 15.9615 6.95733 15.9999 7.07733 15.9999ZM7.92333 14.7439H13.41V9.25659H7.92333V14.7439ZM15.7433 14.7439C15.8811 14.7439 16.0011 14.6928 16.1033 14.5906C16.2056 14.4884 16.2567 14.3684 16.2567 14.2306C16.2567 14.0928 16.2056 13.9728 16.1033 13.8706C16.0011 13.7684 15.8811 13.7175 15.7433 13.7179C15.6056 13.7184 15.4858 13.7695 15.384 13.8713C15.2822 13.973 15.2311 14.093 15.2307 14.2313C15.2307 14.3686 15.2818 14.4884 15.384 14.5906C15.4862 14.6928 15.6056 14.7439 15.7433 14.7439ZM8.59 14.0773V9.92325H12.7433V14.0766L8.59 14.0773ZM15.7433 12.5126C15.8811 12.5126 16.0011 12.4615 16.1033 12.3593C16.2056 12.257 16.2567 12.1373 16.2567 11.9999C16.2567 11.8626 16.2056 11.7426 16.1033 11.6399C16.0011 11.5373 15.8811 11.4861 15.7433 11.4866C15.6056 11.487 15.4858 11.5381 15.384 11.6399C15.2822 11.7417 15.2311 11.8617 15.2307 11.9999C15.2302 12.1381 15.2813 12.2581 15.384 12.3599C15.4867 12.4617 15.6067 12.5128 15.744 12.5133M15.744 10.2819C15.8813 10.2819 16.0011 10.2308 16.1033 10.1286C16.2056 10.0264 16.2567 9.90636 16.2567 9.76858C16.2567 9.63081 16.2056 9.51125 16.1033 9.40992C16.0011 9.30859 15.8811 9.25747 15.7433 9.25659C15.6056 9.2557 15.4858 9.30681 15.384 9.40992C15.2822 9.51303 15.2311 9.63281 15.2307 9.76925C15.2307 9.90703 15.2818 10.027 15.384 10.1293C15.4862 10.2315 15.6062 10.2824 15.744 10.2819Z" fill="#CE3439"/>
<path d="M34.808 9V3.36H35.768L37.712 7.2H37.656L39.592 3.36H40.536V9H39.696V4.64H39.728L37.984 8.096H37.368L35.608 4.64H35.648V9H34.808ZM41.9278 4.152V3.232H42.9598V4.152H41.9278ZM42.0158 9V5.032H42.8878V9H42.0158ZM46.0505 9.072C45.6398 9.072 45.2798 8.98933 44.9705 8.824C44.6665 8.65333 44.4292 8.41333 44.2585 8.104C44.0878 7.79467 44.0025 7.42933 44.0025 7.008C44.0025 6.58667 44.0878 6.224 44.2585 5.92C44.4292 5.61067 44.6665 5.37333 44.9705 5.208C45.2798 5.03733 45.6425 4.952 46.0585 4.952C46.3358 4.952 46.5998 4.99733 46.8505 5.088C47.1065 5.17867 47.3145 5.29867 47.4745 5.448L47.1945 6.088C47.0452 5.96 46.8772 5.864 46.6905 5.8C46.5038 5.73067 46.3225 5.696 46.1465 5.696C45.7518 5.696 45.4425 5.81067 45.2185 6.04C44.9998 6.264 44.8905 6.58933 44.8905 7.016C44.8905 7.43733 44.9998 7.76267 45.2185 7.992C45.4425 8.22133 45.7492 8.336 46.1385 8.336C46.3198 8.336 46.5012 8.304 46.6825 8.24C46.8692 8.17067 47.0345 8.07467 47.1785 7.952L47.4585 8.592C47.3038 8.74133 47.1012 8.85867 46.8505 8.944C46.5998 9.02933 46.3332 9.072 46.0505 9.072ZM48.3283 9V5.032H49.1123V5.976H49.1203C49.2163 5.67733 49.3789 5.44267 49.6083 5.272C49.8429 5.096 50.1309 4.99733 50.4723 4.976L50.8723 4.944L50.9523 5.744L50.3123 5.8C49.9603 5.82667 49.6883 5.94133 49.4963 6.144C49.3043 6.34133 49.2083 6.58933 49.2083 6.888V9H48.3283ZM53.5187 9.072C53.108 9.072 52.7507 8.98667 52.4467 8.816C52.1427 8.64533 51.908 8.40533 51.7427 8.096C51.5774 7.78667 51.4947 7.424 51.4947 7.008C51.4947 6.592 51.5774 6.232 51.7427 5.928C51.908 5.61867 52.1427 5.37867 52.4467 5.208C52.7507 5.03733 53.108 4.952 53.5187 4.952C53.9347 4.952 54.292 5.03733 54.5907 5.208C54.8894 5.37867 55.1214 5.61867 55.2867 5.928C55.452 6.23733 55.5347 6.59733 55.5347 7.008C55.5347 7.424 55.452 7.78667 55.2867 8.096C55.1267 8.40533 54.8947 8.64533 54.5907 8.816C54.292 8.98667 53.9347 9.072 53.5187 9.072ZM53.5187 8.352C53.876 8.352 54.156 8.232 54.3587 7.992C54.5667 7.752 54.6707 7.424 54.6707 7.008C54.6707 6.592 54.5667 6.26667 54.3587 6.032C54.156 5.79733 53.876 5.68 53.5187 5.68C53.156 5.68 52.8707 5.79733 52.6627 6.032C52.46 6.26667 52.3587 6.592 52.3587 7.008C52.3587 7.424 52.4627 7.752 52.6707 7.992C52.8787 8.232 53.1614 8.352 53.5187 8.352ZM57.4823 9L56.0823 5.032H56.9622L57.9463 8.088H57.9143L59.0263 5.032H59.7223L60.8183 8.088H60.7863L61.7863 5.032H62.6423L61.2423 9H60.4663L59.3143 5.888H59.4183L58.2582 9H57.4823ZM64.774 9.072C64.486 9.072 64.2273 9.01867 63.998 8.912C63.774 8.80533 63.5953 8.66133 63.462 8.48C63.334 8.29333 63.27 8.08267 63.27 7.848C63.27 7.55467 63.3553 7.32 63.526 7.144C63.6967 6.96267 63.958 6.832 64.31 6.752C64.6673 6.672 65.1233 6.632 65.678 6.632H66.238V7.192H65.718C65.4407 7.192 65.2007 7.20267 64.998 7.224C64.8007 7.24 64.638 7.272 64.51 7.32C64.382 7.36267 64.286 7.424 64.222 7.504C64.1633 7.57867 64.134 7.67733 64.134 7.8C64.134 8.00267 64.2087 8.15733 64.358 8.264C64.5127 8.37067 64.7127 8.424 64.958 8.424C65.1713 8.424 65.3633 8.376 65.534 8.28C65.71 8.17867 65.8487 8.048 65.95 7.888C66.0567 7.72267 66.11 7.54133 66.11 7.344V6.456C66.11 6.16267 66.0247 5.95467 65.854 5.832C65.6887 5.704 65.4407 5.64 65.11 5.64C64.8807 5.64 64.6487 5.672 64.414 5.736C64.1847 5.8 63.9447 5.904 63.694 6.048L63.438 5.424C63.6033 5.32267 63.782 5.23733 63.974 5.168C64.1713 5.09867 64.3767 5.04533 64.59 5.008C64.8033 4.97067 65.014 4.952 65.222 4.952C65.5793 4.952 65.8887 5.008 66.15 5.12C66.4113 5.232 66.6113 5.40533 66.75 5.64C66.8887 5.86933 66.958 6.17067 66.958 6.544V9H66.206V8.152H66.198C66.1233 8.32267 66.0193 8.48 65.886 8.624C65.758 8.76267 65.6007 8.872 65.414 8.952C65.2273 9.032 65.014 9.072 64.774 9.072ZM69.3461 9L67.6821 5.032H68.6181L69.8101 8.136H69.7701L70.9781 5.032H71.8821L70.2101 9H69.3461ZM74.5623 9.072C74.0983 9.072 73.7009 8.992 73.3703 8.832C73.0396 8.66667 72.7863 8.42933 72.6103 8.12C72.4343 7.81067 72.3463 7.44267 72.3463 7.016C72.3463 6.616 72.4263 6.26133 72.5863 5.952C72.7516 5.64267 72.9863 5.4 73.2903 5.224C73.5943 5.04267 73.9516 4.952 74.3623 4.952C74.7516 4.952 75.0849 5.03467 75.3623 5.2C75.6396 5.36533 75.8529 5.6 76.0023 5.904C76.1516 6.208 76.2263 6.57067 76.2263 6.992V7.264H73.0263V6.696H75.6263L75.4823 6.84C75.4823 6.43467 75.3863 6.128 75.1943 5.92C75.0023 5.70667 74.7303 5.6 74.3783 5.6C74.1383 5.6 73.9276 5.65333 73.7463 5.76C73.5703 5.86133 73.4316 6.01067 73.3303 6.208C73.2289 6.4 73.1783 6.63467 73.1783 6.912V7C73.1783 7.30933 73.2316 7.56533 73.3383 7.768C73.4503 7.97067 73.6103 8.12267 73.8183 8.224C74.0316 8.32533 74.2876 8.376 74.5863 8.376C74.8049 8.376 75.0236 8.34933 75.2423 8.296C75.4663 8.23733 75.6743 8.13333 75.8663 7.984L76.1383 8.592C75.9303 8.75733 75.6849 8.88 75.4023 8.96C75.1196 9.03467 74.8396 9.072 74.5623 9.072ZM83.5946 9.072C83.1999 9.072 82.8612 9.01333 82.5786 8.896C82.2959 8.77867 82.0772 8.61333 81.9226 8.4C81.7732 8.18133 81.6986 7.92533 81.6986 7.632C81.6986 7.376 81.7466 7.152 81.8426 6.96C81.9386 6.768 82.0719 6.592 82.2426 6.432C82.4132 6.272 82.6106 6.12 82.8346 5.976L83.1306 5.776L83.0346 5.944C82.7732 5.68267 82.5839 5.45067 82.4666 5.248C82.3546 5.04 82.2986 4.81867 82.2986 4.584C82.2986 4.328 82.3626 4.104 82.4906 3.912C82.6239 3.71467 82.8079 3.56267 83.0426 3.456C83.2772 3.344 83.5492 3.288 83.8586 3.288C84.1466 3.288 84.3972 3.336 84.6106 3.432C84.8239 3.528 84.9892 3.664 85.1066 3.84C85.2239 4.01067 85.2826 4.216 85.2826 4.456C85.2826 4.65333 85.2346 4.84 85.1386 5.016C85.0426 5.18667 84.9012 5.35467 84.7146 5.52C84.5279 5.68 84.2932 5.84533 84.0106 6.016L83.9546 5.856L85.4026 7.4L85.2906 7.416C85.4026 7.21867 85.4986 6.968 85.5786 6.664C85.6639 6.35467 85.7146 6.03467 85.7306 5.704H86.4746C86.4639 6.14133 86.3946 6.54933 86.2666 6.928C86.1386 7.30667 85.9759 7.632 85.7786 7.904L85.7146 7.704L86.9946 9H85.9786L85.2826 8.272H85.4586C85.2346 8.528 84.9599 8.72533 84.6346 8.864C84.3146 9.00267 83.9679 9.072 83.5946 9.072ZM83.6506 8.4C83.9332 8.4 84.1892 8.34933 84.4186 8.248C84.6532 8.14667 84.8506 7.98933 85.0106 7.776V8.008L83.2826 6.216H83.6266L83.3706 6.376C83.1892 6.49333 83.0372 6.61067 82.9146 6.728C82.7919 6.84 82.6986 6.96267 82.6346 7.096C82.5759 7.224 82.5466 7.37333 82.5466 7.544C82.5466 7.82133 82.6426 8.03467 82.8346 8.184C83.0319 8.328 83.3039 8.4 83.6506 8.4ZM83.8586 3.904C83.6346 3.904 83.4506 3.968 83.3066 4.096C83.1626 4.21867 83.0906 4.38133 83.0906 4.584C83.0906 4.696 83.1092 4.80267 83.1466 4.904C83.1892 5 83.2586 5.10667 83.3546 5.224C83.4506 5.34133 83.5732 5.48 83.7226 5.64L83.5546 5.608C83.7839 5.464 83.9706 5.336 84.1146 5.224C84.2639 5.10667 84.3732 4.992 84.4426 4.88C84.5119 4.76267 84.5466 4.64533 84.5466 4.528C84.5466 4.33067 84.4799 4.17867 84.3466 4.072C84.2186 3.96 84.0559 3.904 83.8586 3.904ZM90.0811 9V3.36H93.8171V4.104H90.9611V5.816H93.6571V6.56H90.9611V9H90.0811ZM94.7579 9V5.032H95.5419V5.976H95.5499C95.6459 5.67733 95.8086 5.44267 96.0379 5.272C96.2726 5.096 96.5606 4.99733 96.9019 4.976L97.3019 4.944L97.3819 5.744L96.7419 5.8C96.3899 5.82667 96.1179 5.94133 95.9259 6.144C95.7339 6.34133 95.6379 6.58933 95.6379 6.888V9H94.7579ZM100.14 9.072C99.6764 9.072 99.279 8.992 98.9484 8.832C98.6177 8.66667 98.3644 8.42933 98.1884 8.12C98.0124 7.81067 97.9244 7.44267 97.9244 7.016C97.9244 6.616 98.0044 6.26133 98.1644 5.952C98.3297 5.64267 98.5644 5.4 98.8684 5.224C99.1724 5.04267 99.5297 4.952 99.9404 4.952C100.33 4.952 100.663 5.03467 100.94 5.2C101.218 5.36533 101.431 5.6 101.58 5.904C101.73 6.208 101.804 6.57067 101.804 6.992V7.264H98.6044V6.696H101.204L101.06 6.84C101.06 6.43467 100.964 6.128 100.772 5.92C100.58 5.70667 100.308 5.6 99.9564 5.6C99.7164 5.6 99.5057 5.65333 99.3244 5.76C99.1484 5.86133 99.0097 6.01067 98.9084 6.208C98.807 6.4 98.7564 6.63467 98.7564 6.912V7C98.7564 7.30933 98.8097 7.56533 98.9164 7.768C99.0284 7.97067 99.1884 8.12267 99.3964 8.224C99.6097 8.32533 99.8657 8.376 100.164 8.376C100.383 8.376 100.602 8.34933 100.82 8.296C101.044 8.23733 101.252 8.13333 101.444 7.984L101.716 8.592C101.508 8.75733 101.263 8.88 100.98 8.96C100.698 9.03467 100.418 9.072 100.14 9.072ZM104.883 9.072C104.419 9.072 104.021 8.992 103.691 8.832C103.36 8.66667 103.107 8.42933 102.931 8.12C102.755 7.81067 102.667 7.44267 102.667 7.016C102.667 6.616 102.747 6.26133 102.907 5.952C103.072 5.64267 103.307 5.4 103.611 5.224C103.915 5.04267 104.272 4.952 104.683 4.952C105.072 4.952 105.405 5.03467 105.683 5.2C105.96 5.36533 106.173 5.6 106.323 5.904C106.472 6.208 106.547 6.57067 106.547 6.992V7.264H103.347V6.696H105.947L105.803 6.84C105.803 6.43467 105.707 6.128 105.515 5.92C105.323 5.70667 105.051 5.6 104.699 5.6C104.459 5.6 104.248 5.65333 104.067 5.76C103.891 5.86133 103.752 6.01067 103.651 6.208C103.549 6.4 103.499 6.63467 103.499 6.912V7C103.499 7.30933 103.552 7.56533 103.659 7.768C103.771 7.97067 103.931 8.12267 104.139 8.224C104.352 8.32533 104.608 8.376 104.907 8.376C105.125 8.376 105.344 8.34933 105.563 8.296C105.787 8.23733 105.995 8.13333 106.187 7.984L106.459 8.592C106.251 8.75733 106.005 8.88 105.723 8.96C105.44 9.03467 105.16 9.072 104.883 9.072ZM107.394 9V8.432L109.826 5.48L109.858 5.744H107.442V5.032H110.674V5.592L108.226 8.568L108.194 8.288H110.762V9H107.394ZM113.695 9.072C113.231 9.072 112.834 8.992 112.503 8.832C112.172 8.66667 111.919 8.42933 111.743 8.12C111.567 7.81067 111.479 7.44267 111.479 7.016C111.479 6.616 111.559 6.26133 111.719 5.952C111.884 5.64267 112.119 5.4 112.423 5.224C112.727 5.04267 113.084 4.952 113.495 4.952C113.884 4.952 114.218 5.03467 114.495 5.2C114.772 5.36533 114.986 5.6 115.135 5.904C115.284 6.208 115.359 6.57067 115.359 6.992V7.264H112.159V6.696H114.759L114.615 6.84C114.615 6.43467 114.519 6.128 114.327 5.92C114.135 5.70667 113.863 5.6 113.511 5.6C113.271 5.6 113.06 5.65333 112.879 5.76C112.703 5.86133 112.564 6.01067 112.463 6.208C112.362 6.4 112.311 6.63467 112.311 6.912V7C112.311 7.30933 112.364 7.56533 112.471 7.768C112.583 7.97067 112.743 8.12267 112.951 8.224C113.164 8.32533 113.42 8.376 113.719 8.376C113.938 8.376 114.156 8.34933 114.375 8.296C114.599 8.23733 114.807 8.13333 114.999 7.984L115.271 8.592C115.063 8.75733 114.818 8.88 114.535 8.96C114.252 9.03467 113.972 9.072 113.695 9.072ZM116.453 9V5.032H117.237V5.976H117.245C117.341 5.67733 117.504 5.44267 117.733 5.272C117.968 5.096 118.256 4.99733 118.597 4.976L118.997 4.944L119.077 5.744L118.437 5.8C118.085 5.82667 117.813 5.94133 117.621 6.144C117.429 6.34133 117.333 6.58933 117.333 6.888V9H116.453ZM119.623 7.2V6.496H121.927V7.2H119.623ZM125.072 9.072C124.768 9.072 124.475 9.048 124.192 9C123.909 8.95733 123.651 8.89067 123.416 8.8C123.187 8.70933 122.984 8.59733 122.808 8.464L123.104 7.744C123.291 7.87733 123.485 7.98667 123.688 8.072C123.896 8.152 124.115 8.21067 124.344 8.248C124.579 8.28533 124.821 8.304 125.072 8.304C125.493 8.304 125.813 8.22667 126.032 8.072C126.256 7.91733 126.368 7.70133 126.368 7.424C126.368 7.27467 126.331 7.15467 126.256 7.064C126.187 6.968 126.077 6.89067 125.928 6.832C125.779 6.768 125.584 6.712 125.344 6.664L124.424 6.488C123.901 6.38667 123.52 6.20533 123.28 5.944C123.045 5.68267 122.928 5.34933 122.928 4.944C122.928 4.608 123.024 4.31733 123.216 4.072C123.408 3.82133 123.672 3.62933 124.008 3.496C124.344 3.35733 124.728 3.288 125.16 3.288C125.427 3.288 125.68 3.312 125.92 3.36C126.16 3.408 126.379 3.48 126.576 3.576C126.779 3.672 126.955 3.78933 127.104 3.928L126.8 4.632C126.576 4.424 126.325 4.27733 126.048 4.192C125.776 4.10133 125.477 4.056 125.152 4.056C124.891 4.056 124.659 4.09067 124.456 4.16C124.253 4.22933 124.093 4.33067 123.976 4.464C123.864 4.592 123.808 4.752 123.808 4.944C123.808 5.15733 123.877 5.32533 124.016 5.448C124.155 5.56533 124.395 5.65867 124.736 5.728L125.648 5.896C126.192 5.99733 126.595 6.17067 126.856 6.416C127.117 6.66133 127.248 6.984 127.248 7.384C127.248 7.71467 127.157 8.008 126.976 8.264C126.8 8.51467 126.549 8.712 126.224 8.856C125.899 9 125.515 9.072 125.072 9.072ZM129.68 9.072C129.392 9.072 129.134 9.01867 128.904 8.912C128.68 8.80533 128.502 8.66133 128.368 8.48C128.24 8.29333 128.176 8.08267 128.176 7.848C128.176 7.55467 128.262 7.32 128.432 7.144C128.603 6.96267 128.864 6.832 129.216 6.752C129.574 6.672 130.03 6.632 130.584 6.632H131.144V7.192H130.624C130.347 7.192 130.107 7.20267 129.904 7.224C129.707 7.24 129.544 7.272 129.416 7.32C129.288 7.36267 129.192 7.424 129.128 7.504C129.07 7.57867 129.04 7.67733 129.04 7.8C129.04 8.00267 129.115 8.15733 129.264 8.264C129.419 8.37067 129.619 8.424 129.864 8.424C130.078 8.424 130.27 8.376 130.44 8.28C130.616 8.17867 130.755 8.048 130.856 7.888C130.963 7.72267 131.016 7.54133 131.016 7.344V6.456C131.016 6.16267 130.931 5.95467 130.76 5.832C130.595 5.704 130.347 5.64 130.016 5.64C129.787 5.64 129.555 5.672 129.32 5.736C129.091 5.8 128.851 5.904 128.6 6.048L128.344 5.424C128.51 5.32267 128.688 5.23733 128.88 5.168C129.078 5.09867 129.283 5.04533 129.496 5.008C129.71 4.97067 129.92 4.952 130.128 4.952C130.486 4.952 130.795 5.008 131.056 5.12C131.318 5.232 131.518 5.40533 131.656 5.64C131.795 5.86933 131.864 6.17067 131.864 6.544V9H131.112V8.152H131.104C131.03 8.32267 130.926 8.48 130.792 8.624C130.664 8.76267 130.507 8.872 130.32 8.952C130.134 9.032 129.92 9.072 129.68 9.072ZM133.443 9V5.704H132.651V5.032H133.683L133.443 5.264V5.016C133.443 4.47733 133.593 4.06933 133.891 3.792C134.195 3.51467 134.641 3.36267 135.227 3.336L135.667 3.312L135.731 4.016L135.219 4.048C135.038 4.05333 134.881 4.08533 134.747 4.144C134.614 4.19733 134.51 4.28267 134.435 4.4C134.361 4.51733 134.323 4.68267 134.323 4.896V5.104L134.195 5.032H135.539V5.704H134.323V9H133.443ZM138.281 9.072C137.817 9.072 137.42 8.992 137.089 8.832C136.758 8.66667 136.505 8.42933 136.329 8.12C136.153 7.81067 136.065 7.44267 136.065 7.016C136.065 6.616 136.145 6.26133 136.305 5.952C136.47 5.64267 136.705 5.4 137.009 5.224C137.313 5.04267 137.67 4.952 138.081 4.952C138.47 4.952 138.804 5.03467 139.081 5.2C139.358 5.36533 139.572 5.6 139.721 5.904C139.87 6.208 139.945 6.57067 139.945 6.992V7.264H136.745V6.696H139.345L139.201 6.84C139.201 6.43467 139.105 6.128 138.913 5.92C138.721 5.70667 138.449 5.6 138.097 5.6C137.857 5.6 137.646 5.65333 137.465 5.76C137.289 5.86133 137.15 6.01067 137.049 6.208C136.948 6.4 136.897 6.63467 136.897 6.912V7C136.897 7.30933 136.95 7.56533 137.057 7.768C137.169 7.97067 137.329 8.12267 137.537 8.224C137.75 8.32533 138.006 8.376 138.305 8.376C138.524 8.376 138.742 8.34933 138.961 8.296C139.185 8.23733 139.393 8.13333 139.585 7.984L139.857 8.592C139.649 8.75733 139.404 8.88 139.121 8.96C138.838 9.03467 138.558 9.072 138.281 9.072Z" fill="black"/>
<path d="M34.832 22V16.36H35.544V18.824H38.848V16.36H39.56V22H38.848V19.456H35.544V22H34.832ZM43.0066 22.072C42.564 22.072 42.18 21.992 41.8546 21.832C41.5346 21.6667 41.2893 21.432 41.1186 21.128C40.948 20.8187 40.8626 20.4507 40.8626 20.024C40.8626 19.624 40.9426 19.272 41.1026 18.968C41.2626 18.6587 41.4893 18.416 41.7826 18.24C42.076 18.064 42.4253 17.976 42.8306 17.976C43.2146 17.976 43.54 18.0587 43.8066 18.224C44.0786 18.3893 44.284 18.6213 44.4226 18.92C44.5666 19.2187 44.6386 19.5733 44.6386 19.984V20.216H41.3986V19.72H44.1746L44.0226 19.88C44.0226 19.4427 43.9186 19.1067 43.7106 18.872C43.508 18.6373 43.2146 18.52 42.8306 18.52C42.58 18.52 42.356 18.5787 42.1586 18.696C41.9666 18.808 41.8173 18.968 41.7106 19.176C41.604 19.384 41.5506 19.6373 41.5506 19.936V20.016C41.5506 20.336 41.6093 20.6053 41.7266 20.824C41.844 21.0427 42.012 21.208 42.2306 21.32C42.4493 21.432 42.7106 21.488 43.0146 21.488C43.2333 21.488 43.4546 21.4587 43.6786 21.4C43.908 21.336 44.1213 21.224 44.3186 21.064L44.5586 21.576C44.356 21.7467 44.1133 21.872 43.8306 21.952C43.5533 22.032 43.2786 22.072 43.0066 22.072ZM47.1336 22.072C46.8509 22.072 46.5976 22.0213 46.3736 21.92C46.1496 21.8133 45.9736 21.6693 45.8456 21.488C45.7176 21.3067 45.6536 21.104 45.6536 20.88C45.6536 20.576 45.7389 20.3387 45.9096 20.168C46.0802 19.992 46.3416 19.8667 46.6936 19.792C47.0509 19.7173 47.5069 19.68 48.0616 19.68H48.6296V20.168H48.0936C47.7842 20.168 47.5202 20.1787 47.3016 20.2C47.0829 20.216 46.9042 20.2507 46.7656 20.304C46.6269 20.352 46.5256 20.4187 46.4616 20.504C46.3976 20.5893 46.3656 20.7013 46.3656 20.84C46.3656 21.0533 46.4482 21.2187 46.6136 21.336C46.7842 21.4533 47.0002 21.512 47.2616 21.512C47.4909 21.512 47.6989 21.4613 47.8856 21.36C48.0776 21.2533 48.2296 21.112 48.3416 20.936C48.4589 20.76 48.5176 20.5653 48.5176 20.352V19.448C48.5176 19.1333 48.4296 18.9067 48.2536 18.768C48.0776 18.624 47.8162 18.552 47.4696 18.552C47.2349 18.552 47.0002 18.584 46.7656 18.648C46.5362 18.712 46.2989 18.8187 46.0536 18.968L45.8216 18.44C45.9869 18.3387 46.1629 18.256 46.3496 18.192C46.5362 18.1227 46.7309 18.0693 46.9336 18.032C47.1362 17.9947 47.3389 17.976 47.5416 17.976C47.8829 17.976 48.1762 18.0293 48.4216 18.136C48.6722 18.2427 48.8642 18.408 48.9976 18.632C49.1362 18.856 49.2056 19.1493 49.2056 19.512V22H48.5816V21.136C48.5069 21.3013 48.4029 21.456 48.2696 21.6C48.1362 21.744 47.9736 21.8587 47.7816 21.944C47.5949 22.0293 47.3789 22.072 47.1336 22.072ZM52.2823 22.072C51.8076 22.072 51.4476 21.9467 51.2023 21.696C50.9623 21.4453 50.8423 21.088 50.8423 20.624V18.632H50.0423V18.048H50.8663V16.872H51.5543V18.048H52.9703V18.632H51.5543V20.56C51.5543 20.864 51.6209 21.0907 51.7543 21.24C51.8929 21.384 52.1036 21.456 52.3863 21.456C52.4983 21.456 52.6049 21.4453 52.7063 21.424C52.8129 21.4027 52.9143 21.3707 53.0103 21.328L53.1223 21.888C53.0156 21.9467 52.8849 21.992 52.7303 22.024C52.5809 22.056 52.4316 22.072 52.2823 22.072ZM57.7966 22.072C57.4179 22.072 57.0899 22.0133 56.8126 21.896C56.5406 21.7787 56.3299 21.616 56.1806 21.408C56.0366 21.1947 55.9646 20.944 55.9646 20.656C55.9646 20.4 56.0126 20.176 56.1086 19.984C56.2046 19.792 56.3406 19.6133 56.5166 19.448C56.6926 19.2827 56.8979 19.1227 57.1326 18.968L57.4126 18.784L57.3166 18.92C57.0499 18.6427 56.8606 18.4027 56.7486 18.2C56.6366 17.992 56.5806 17.7733 56.5806 17.544C56.5806 17.2987 56.6419 17.0827 56.7646 16.896C56.8872 16.704 57.0606 16.5547 57.2846 16.448C57.5086 16.3413 57.7672 16.288 58.0606 16.288C58.3272 16.288 58.5592 16.336 58.7566 16.432C58.9592 16.5227 59.1166 16.6533 59.2286 16.824C59.3459 16.9893 59.4046 17.1867 59.4046 17.416C59.4046 17.608 59.3592 17.7893 59.2686 17.96C59.1779 18.1307 59.0392 18.2987 58.8526 18.464C58.6659 18.6293 58.4232 18.8053 58.1246 18.992L58.0766 18.856L59.5966 20.512L59.4926 20.52C59.6099 20.3173 59.7112 20.056 59.7966 19.736C59.8819 19.4107 59.9299 19.0747 59.9406 18.728H60.5646C60.5486 19.1707 60.4792 19.584 60.3566 19.968C60.2339 20.3467 60.0792 20.672 59.8926 20.944L59.8446 20.76L61.0366 22H60.2046L59.4926 21.232H59.6526C59.4339 21.504 59.1619 21.712 58.8366 21.856C58.5166 22 58.1699 22.072 57.7966 22.072ZM57.8366 21.504C58.1406 21.504 58.4152 21.448 58.6606 21.336C58.9059 21.2187 59.1112 21.0453 59.2766 20.816V21.024L57.5326 19.16H57.8126L57.5566 19.32C57.3592 19.4587 57.1939 19.5893 57.0606 19.712C56.9272 19.8347 56.8286 19.968 56.7646 20.112C56.7006 20.2507 56.6686 20.4133 56.6686 20.6C56.6686 20.888 56.7699 21.112 56.9726 21.272C57.1752 21.4267 57.4632 21.504 57.8366 21.504ZM58.0606 16.824C57.8259 16.824 57.6286 16.8907 57.4686 17.024C57.3139 17.152 57.2366 17.3253 57.2366 17.544C57.2366 17.656 57.2552 17.7653 57.2926 17.872C57.3352 17.9733 57.4046 18.0853 57.5006 18.208C57.5966 18.3307 57.7246 18.4827 57.8846 18.664L57.7406 18.64C57.9859 18.4853 58.1859 18.3467 58.3406 18.224C58.4952 18.096 58.6099 17.9733 58.6846 17.856C58.7592 17.7333 58.7966 17.608 58.7966 17.48C58.7966 17.272 58.7246 17.112 58.5806 17C58.4419 16.8827 58.2686 16.824 58.0606 16.824ZM66.0794 22.072C65.77 22.072 65.4767 22.048 65.1994 22C64.922 21.952 64.6687 21.88 64.4394 21.784C64.21 21.688 64.01 21.5707 63.8394 21.432L64.1034 20.84C64.2847 20.984 64.4767 21.1013 64.6794 21.192C64.8874 21.2773 65.106 21.3387 65.3354 21.376C65.57 21.4133 65.818 21.432 66.0794 21.432C66.522 21.432 66.8607 21.344 67.0954 21.168C67.3354 20.992 67.4554 20.752 67.4554 20.448C67.4554 20.288 67.4154 20.1547 67.3354 20.048C67.2607 19.9413 67.1407 19.8533 66.9754 19.784C66.8154 19.7147 66.6074 19.6533 66.3514 19.6L65.4314 19.424C64.914 19.3227 64.5407 19.144 64.3114 18.888C64.082 18.632 63.9674 18.3093 63.9674 17.92C63.9674 17.5893 64.058 17.304 64.2394 17.064C64.426 16.8187 64.682 16.6293 65.0074 16.496C65.338 16.3573 65.714 16.288 66.1354 16.288C66.402 16.288 66.65 16.3147 66.8794 16.368C67.114 16.416 67.3274 16.4907 67.5194 16.592C67.7167 16.6933 67.8927 16.816 68.0474 16.96L67.7834 17.544C67.554 17.32 67.3034 17.1627 67.0314 17.072C66.7594 16.976 66.458 16.928 66.1274 16.928C65.85 16.928 65.602 16.968 65.3834 17.048C65.1647 17.1227 64.9914 17.2347 64.8634 17.384C64.7407 17.528 64.6794 17.7067 64.6794 17.92C64.6794 18.1547 64.754 18.3413 64.9034 18.48C65.0527 18.6133 65.306 18.7173 65.6634 18.792L66.5754 18.968C67.1194 19.0693 67.522 19.24 67.7834 19.48C68.0447 19.72 68.1754 20.032 68.1754 20.416C68.1754 20.736 68.0874 21.0213 67.9114 21.272C67.7407 21.5227 67.498 21.72 67.1834 21.864C66.874 22.0027 66.506 22.072 66.0794 22.072ZM70.9698 22.072C70.4951 22.072 70.1351 21.9467 69.8898 21.696C69.6498 21.4453 69.5298 21.088 69.5298 20.624V18.632H68.7298V18.048H69.5538V16.872H70.2418V18.048H71.6578V18.632H70.2418V20.56C70.2418 20.864 70.3084 21.0907 70.4418 21.24C70.5804 21.384 70.7911 21.456 71.0738 21.456C71.1858 21.456 71.2924 21.4453 71.3938 21.424C71.5004 21.4027 71.6018 21.3707 71.6978 21.328L71.8098 21.888C71.7031 21.9467 71.5724 21.992 71.4178 22.024C71.2684 22.056 71.1191 22.072 70.9698 22.072ZM74.3226 22.072C73.9226 22.072 73.576 21.9867 73.2826 21.816C72.9893 21.6453 72.7626 21.408 72.6026 21.104C72.4426 20.7947 72.3626 20.432 72.3626 20.016C72.3626 19.6053 72.4426 19.248 72.6026 18.944C72.7626 18.6347 72.9893 18.3973 73.2826 18.232C73.576 18.0613 73.9226 17.976 74.3226 17.976C74.7226 17.976 75.0666 18.0613 75.3546 18.232C75.648 18.3973 75.8746 18.6347 76.0346 18.944C76.1946 19.248 76.2746 19.6053 76.2746 20.016C76.2746 20.432 76.1946 20.7947 76.0346 21.104C75.88 21.408 75.656 21.6453 75.3626 21.816C75.0693 21.9867 74.7226 22.072 74.3226 22.072ZM74.3146 21.472C74.704 21.472 75.0106 21.3413 75.2346 21.08C75.4586 20.8187 75.5706 20.464 75.5706 20.016C75.5706 19.568 75.4586 19.216 75.2346 18.96C75.016 18.704 74.712 18.576 74.3226 18.576C73.9333 18.576 73.6266 18.704 73.4026 18.96C73.1786 19.216 73.0666 19.568 73.0666 20.016C73.0666 20.464 73.1786 20.8187 73.4026 21.08C73.632 21.3413 73.936 21.472 74.3146 21.472ZM77.4698 22V18.048H78.1178V18.96H78.1258C78.2218 18.6667 78.3898 18.4373 78.6298 18.272C78.8698 18.1013 79.1631 18.0053 79.5098 17.984L79.8698 17.968L79.9338 18.616L79.3578 18.664C78.9898 18.696 78.7018 18.8187 78.4938 19.032C78.2858 19.24 78.1818 19.5013 78.1818 19.816V22H77.4698ZM82.6707 22.072C82.228 22.072 81.844 21.992 81.5187 21.832C81.1987 21.6667 80.9534 21.432 80.7827 21.128C80.612 20.8187 80.5267 20.4507 80.5267 20.024C80.5267 19.624 80.6067 19.272 80.7667 18.968C80.9267 18.6587 81.1534 18.416 81.4467 18.24C81.74 18.064 82.0894 17.976 82.4947 17.976C82.8787 17.976 83.204 18.0587 83.4707 18.224C83.7427 18.3893 83.948 18.6213 84.0867 18.92C84.2307 19.2187 84.3027 19.5733 84.3027 19.984V20.216H81.0627V19.72H83.8387L83.6867 19.88C83.6867 19.4427 83.5827 19.1067 83.3747 18.872C83.172 18.6373 82.8787 18.52 82.4947 18.52C82.244 18.52 82.02 18.5787 81.8227 18.696C81.6307 18.808 81.4814 18.968 81.3747 19.176C81.268 19.384 81.2147 19.6373 81.2147 19.936V20.016C81.2147 20.336 81.2734 20.6053 81.3907 20.824C81.508 21.0427 81.676 21.208 81.8947 21.32C82.1134 21.432 82.3747 21.488 82.6787 21.488C82.8974 21.488 83.1187 21.4587 83.3427 21.4C83.572 21.336 83.7854 21.224 83.9827 21.064L84.2227 21.576C84.02 21.7467 83.7774 21.872 83.4947 21.952C83.2174 22.032 82.9427 22.072 82.6707 22.072Z" fill="#A0A09E"/>
</svg>
