<svg width="139" height="26" viewBox="0 0 139 26" fill="none" xmlns="http://www.w3.org/2000/svg">
<rect width="24" height="24" rx="12" fill="#F9DDD9"/>
<g clip-path="url(#clip0_544_7)">
<path d="M16.0003 11.9999L17.667 10.9999L19.0003 13.3333L18.231 14.9999M18.231 14.9999L17.0003 17.6666H13.889M18.231 14.9999H13.889M15.0003 19.3333L13.0003 16.3333L15.0003 13.3333M10.5177 15.5979L10.551 17.5413L7.86299 17.5293L6.80433 16.0299M6.80433 16.0299L5.11033 13.6306L6.66566 10.9366M6.80433 16.0299L8.97566 12.2699M6.66566 10.9366L4.66699 11.0653M6.66566 10.9366L8.26566 10.8333L8.97566 12.2699M8.97566 12.2699L9.86299 14.0653M10.3337 8.66659L8.66699 7.66659L10.3337 5.33325H12.0003M12.0003 5.33325H15.0003L16.3737 8.06125M12.0003 5.33325L14.0003 9.02992M12.0003 8.66659L15.667 9.33325L17.3337 6.33325" stroke="#CE3439"/>
</g>
<path d="M34.792 9V3.36H37.2C37.824 3.36 38.304 3.50133 38.64 3.784C38.976 4.06667 39.144 4.47467 39.144 5.008C39.144 5.312 39.0827 5.57333 38.96 5.792C38.8427 6.01067 38.6747 6.18667 38.456 6.32C38.2373 6.448 37.984 6.53067 37.696 6.568L37.72 6.56L37.816 6.576C37.9493 6.60267 38.0693 6.66133 38.176 6.752C38.2827 6.83733 38.3867 6.976 38.488 7.168L39.464 9H38.496L37.568 7.248C37.4987 7.10933 37.4187 7.00267 37.328 6.928C37.2427 6.85333 37.1413 6.80267 37.024 6.776C36.912 6.744 36.776 6.728 36.616 6.728H35.672V9H34.792ZM35.672 6.024H37.12C37.5147 6.024 37.8053 5.944 37.992 5.784C38.1787 5.61867 38.272 5.37067 38.272 5.04C38.272 4.71467 38.176 4.47733 37.984 4.328C37.792 4.17333 37.496 4.096 37.096 4.096H35.672V6.024ZM42.3513 9.072C41.8873 9.072 41.49 8.992 41.1593 8.832C40.8286 8.66667 40.5753 8.42933 40.3993 8.12C40.2233 7.81067 40.1353 7.44267 40.1353 7.016C40.1353 6.616 40.2153 6.26133 40.3753 5.952C40.5406 5.64267 40.7753 5.4 41.0793 5.224C41.3833 5.04267 41.7406 4.952 42.1513 4.952C42.5406 4.952 42.874 5.03467 43.1513 5.2C43.4286 5.36533 43.642 5.6 43.7913 5.904C43.9406 6.208 44.0153 6.57067 44.0153 6.992V7.264H40.8153V6.696H43.4153L43.2713 6.84C43.2713 6.43467 43.1753 6.128 42.9833 5.92C42.7913 5.70667 42.5193 5.6 42.1673 5.6C41.9273 5.6 41.7166 5.65333 41.5353 5.76C41.3593 5.86133 41.2206 6.01067 41.1193 6.208C41.018 6.4 40.9673 6.63467 40.9673 6.912V7C40.9673 7.30933 41.0206 7.56533 41.1273 7.768C41.2393 7.97067 41.3993 8.12267 41.6073 8.224C41.8206 8.32533 42.0766 8.376 42.3753 8.376C42.594 8.376 42.8126 8.34933 43.0313 8.296C43.2553 8.23733 43.4633 8.13333 43.6553 7.984L43.9273 8.592C43.7193 8.75733 43.474 8.88 43.1913 8.96C42.9086 9.03467 42.6286 9.072 42.3513 9.072ZM46.6055 9.072C46.2748 9.072 45.9975 9.01333 45.7735 8.896C45.5495 8.77333 45.3788 8.592 45.2615 8.352C45.1495 8.112 45.0935 7.81067 45.0935 7.448V5.032H45.9735V7.416C45.9735 7.60267 46.0002 7.768 46.0535 7.912C46.1122 8.05067 46.2028 8.15733 46.3255 8.232C46.4535 8.30667 46.6188 8.344 46.8215 8.344C47.0242 8.344 47.2082 8.296 47.3735 8.2C47.5388 8.09867 47.6695 7.96533 47.7655 7.8C47.8615 7.62933 47.9095 7.44533 47.9095 7.248V5.032H48.7815V9H47.9735V8.152H47.9815C47.8482 8.44 47.6642 8.66667 47.4295 8.832C47.2002 8.992 46.9255 9.072 46.6055 9.072ZM51.6291 9.072C51.3998 9.072 51.1758 9.05333 50.9571 9.016C50.7438 8.97867 50.5465 8.928 50.3651 8.864C50.1838 8.79467 50.0291 8.70667 49.9011 8.6L50.1491 7.984C50.2878 8.08533 50.4398 8.168 50.6051 8.232C50.7705 8.29067 50.9385 8.33333 51.1091 8.36C51.2798 8.38667 51.4478 8.4 51.6131 8.4C51.9225 8.4 52.1598 8.35733 52.3251 8.272C52.4958 8.18667 52.5811 8.06133 52.5811 7.896C52.5811 7.75733 52.5331 7.65333 52.4371 7.584C52.3411 7.50933 52.1838 7.45333 51.9651 7.416L51.1171 7.28C50.7438 7.216 50.4638 7.088 50.2771 6.896C50.0905 6.704 49.9971 6.464 49.9971 6.176C49.9971 5.93067 50.0638 5.71733 50.1971 5.536C50.3305 5.35467 50.5251 5.21333 50.7811 5.112C51.0371 5.00533 51.3465 4.952 51.7091 4.952C51.9065 4.952 52.1038 4.97067 52.3011 5.008C52.4985 5.04533 52.6798 5.09867 52.8451 5.168C53.0158 5.23733 53.1571 5.32267 53.2691 5.424L53.0051 6.032C52.8931 5.936 52.7651 5.85867 52.6211 5.8C52.4771 5.74133 52.3251 5.69867 52.1651 5.672C52.0105 5.64533 51.8585 5.632 51.7091 5.632C51.4105 5.632 51.1811 5.67733 51.0211 5.768C50.8665 5.85867 50.7891 5.984 50.7891 6.144C50.7891 6.28267 50.8345 6.38933 50.9251 6.464C51.0158 6.53333 51.1598 6.58667 51.3571 6.624L52.1811 6.768C52.5865 6.83733 52.8851 6.96267 53.0771 7.144C53.2691 7.32533 53.3651 7.568 53.3651 7.872C53.3651 8.11733 53.2931 8.33067 53.1491 8.512C53.0105 8.69333 52.8105 8.832 52.5491 8.928C52.2878 9.024 51.9811 9.072 51.6291 9.072ZM55.7974 9.072C55.5094 9.072 55.2508 9.01867 55.0214 8.912C54.7974 8.80533 54.6188 8.66133 54.4854 8.48C54.3574 8.29333 54.2934 8.08267 54.2934 7.848C54.2934 7.55467 54.3788 7.32 54.5494 7.144C54.7201 6.96267 54.9814 6.832 55.3334 6.752C55.6908 6.672 56.1468 6.632 56.7014 6.632H57.2614V7.192H56.7414C56.4641 7.192 56.2241 7.20267 56.0214 7.224C55.8241 7.24 55.6614 7.272 55.5334 7.32C55.4054 7.36267 55.3094 7.424 55.2454 7.504C55.1868 7.57867 55.1574 7.67733 55.1574 7.8C55.1574 8.00267 55.2321 8.15733 55.3814 8.264C55.5361 8.37067 55.7361 8.424 55.9814 8.424C56.1948 8.424 56.3868 8.376 56.5574 8.28C56.7334 8.17867 56.8721 8.048 56.9734 7.888C57.0801 7.72267 57.1334 7.54133 57.1334 7.344V6.456C57.1334 6.16267 57.0481 5.95467 56.8774 5.832C56.7121 5.704 56.4641 5.64 56.1334 5.64C55.9041 5.64 55.6721 5.672 55.4374 5.736C55.2081 5.8 54.9681 5.904 54.7174 6.048L54.4614 5.424C54.6268 5.32267 54.8054 5.23733 54.9974 5.168C55.1948 5.09867 55.4001 5.04533 55.6134 5.008C55.8268 4.97067 56.0374 4.952 56.2454 4.952C56.6028 4.952 56.9121 5.008 57.1734 5.12C57.4348 5.232 57.6348 5.40533 57.7734 5.64C57.9121 5.86933 57.9814 6.17067 57.9814 6.544V9H57.2294V8.152H57.2214C57.1468 8.32267 57.0428 8.48 56.9094 8.624C56.7814 8.76267 56.6241 8.872 56.4374 8.952C56.2508 9.032 56.0374 9.072 55.7974 9.072ZM61.5446 9.072C61.2086 9.072 60.9153 8.992 60.6646 8.832C60.4193 8.672 60.2353 8.448 60.1126 8.16V9H59.3126V3.36H60.1846V5.808C60.2966 5.54667 60.47 5.33867 60.7046 5.184C60.9393 5.02933 61.2246 4.952 61.5606 4.952C61.9286 4.952 62.246 5.04 62.5126 5.216C62.7846 5.392 62.9926 5.63467 63.1366 5.944C63.286 6.248 63.3606 6.60533 63.3606 7.016C63.3606 7.42133 63.286 7.78133 63.1366 8.096C62.9926 8.40533 62.7846 8.64533 62.5126 8.816C62.2406 8.98667 61.918 9.072 61.5446 9.072ZM61.3366 8.384C61.694 8.384 61.974 8.264 62.1766 8.024C62.3846 7.77867 62.4886 7.44267 62.4886 7.016C62.4886 6.58933 62.3846 6.256 62.1766 6.016C61.974 5.77067 61.6913 5.648 61.3286 5.648C60.9713 5.648 60.6886 5.77067 60.4806 6.016C60.278 6.256 60.1766 6.58933 60.1766 7.016C60.1766 7.44267 60.2806 7.77867 60.4886 8.024C60.6966 8.264 60.9793 8.384 61.3366 8.384ZM65.7645 9.072C65.3485 9.072 65.0312 8.95733 64.8125 8.728C64.5938 8.49333 64.4845 8.16267 64.4845 7.736V3.36H65.3565V7.656C65.3565 7.81067 65.3778 7.94133 65.4205 8.048C65.4685 8.15467 65.5352 8.23467 65.6205 8.288C65.7058 8.34133 65.8098 8.368 65.9325 8.368C66.0125 8.368 66.0872 8.36533 66.1565 8.36C66.2258 8.34933 66.2978 8.33333 66.3725 8.312L66.4045 8.976C66.3032 9.01333 66.2018 9.03733 66.1005 9.048C66.0045 9.064 65.8925 9.072 65.7645 9.072ZM69.1091 9.072C68.6451 9.072 68.2478 8.992 67.9171 8.832C67.5865 8.66667 67.3331 8.42933 67.1571 8.12C66.9811 7.81067 66.8931 7.44267 66.8931 7.016C66.8931 6.616 66.9731 6.26133 67.1331 5.952C67.2985 5.64267 67.5331 5.4 67.8371 5.224C68.1411 5.04267 68.4985 4.952 68.9091 4.952C69.2985 4.952 69.6318 5.03467 69.9091 5.2C70.1865 5.36533 70.3998 5.6 70.5491 5.904C70.6985 6.208 70.7731 6.57067 70.7731 6.992V7.264H67.5731V6.696H70.1731L70.0291 6.84C70.0291 6.43467 69.9331 6.128 69.7411 5.92C69.5491 5.70667 69.2771 5.6 68.9251 5.6C68.6851 5.6 68.4745 5.65333 68.2931 5.76C68.1171 5.86133 67.9785 6.01067 67.8771 6.208C67.7758 6.4 67.7251 6.63467 67.7251 6.912V7C67.7251 7.30933 67.7785 7.56533 67.8851 7.768C67.9971 7.97067 68.1571 8.12267 68.3651 8.224C68.5785 8.32533 68.8345 8.376 69.1331 8.376C69.3518 8.376 69.5705 8.34933 69.7891 8.296C70.0131 8.23733 70.2211 8.13333 70.4131 7.984L70.6851 8.592C70.4771 8.75733 70.2318 8.88 69.9491 8.96C69.6665 9.03467 69.3865 9.072 69.1091 9.072ZM73.6764 9L76.1884 3.36H76.9644L79.4684 9H78.5564L77.8764 7.408L78.2764 7.696H74.8684L75.2684 7.408L74.5884 9H73.6764ZM76.5564 4.328L75.3564 7.152L75.1564 6.96H77.9884L77.7804 7.152L76.5884 4.328H76.5564ZM80.3439 9V5.032H81.1519V5.864H81.1599C81.2879 5.576 81.4772 5.352 81.7279 5.192C81.9839 5.032 82.2719 4.952 82.5919 4.952C82.9172 4.952 83.1892 5.01333 83.4079 5.136C83.6319 5.25333 83.7972 5.43467 83.9039 5.68C84.0159 5.92 84.0719 6.22667 84.0719 6.6V9H83.1919V6.64C83.1919 6.43733 83.1625 6.26667 83.1039 6.128C83.0505 5.984 82.9625 5.87467 82.8399 5.8C82.7172 5.72533 82.5545 5.688 82.3519 5.688C82.1332 5.688 81.9385 5.73867 81.7679 5.84C81.5972 5.936 81.4612 6.06933 81.3599 6.24C81.2639 6.40533 81.2159 6.592 81.2159 6.8V9H80.3439ZM86.9906 9.072C86.6172 9.072 86.2946 8.98667 86.0226 8.816C85.7506 8.64533 85.5399 8.40533 85.3906 8.096C85.2412 7.78133 85.1666 7.42133 85.1666 7.016C85.1666 6.60533 85.2412 6.248 85.3906 5.944C85.5399 5.63467 85.7479 5.392 86.0146 5.216C86.2866 5.04 86.6066 4.952 86.9746 4.952C87.3052 4.952 87.5879 5.02933 87.8226 5.184C88.0626 5.33867 88.2359 5.54667 88.3426 5.808V3.36H89.2226V9H88.4226V8.16H88.4146C88.2972 8.448 88.1132 8.672 87.8626 8.832C87.6172 8.992 87.3266 9.072 86.9906 9.072ZM87.1986 8.384C87.5612 8.384 87.8439 8.264 88.0466 8.024C88.2546 7.77867 88.3586 7.44267 88.3586 7.016C88.3586 6.58933 88.2546 6.256 88.0466 6.016C87.8439 5.77067 87.5639 5.648 87.2066 5.648C86.8439 5.648 86.5586 5.77067 86.3506 6.016C86.1479 6.256 86.0466 6.58933 86.0466 7.016C86.0466 7.44267 86.1479 7.77867 86.3506 8.024C86.5586 8.264 86.8412 8.384 87.1986 8.384ZM92.9795 9V3.36H95.3875C96.0115 3.36 96.4915 3.50133 96.8275 3.784C97.1635 4.06667 97.3315 4.47467 97.3315 5.008C97.3315 5.312 97.2702 5.57333 97.1475 5.792C97.0302 6.01067 96.8622 6.18667 96.6435 6.32C96.4248 6.448 96.1715 6.53067 95.8835 6.568L95.9075 6.56L96.0035 6.576C96.1368 6.60267 96.2568 6.66133 96.3635 6.752C96.4702 6.83733 96.5742 6.976 96.6755 7.168L97.6515 9H96.6835L95.7555 7.248C95.6862 7.10933 95.6062 7.00267 95.5155 6.928C95.4302 6.85333 95.3288 6.80267 95.2115 6.776C95.0995 6.744 94.9635 6.728 94.8035 6.728H93.8595V9H92.9795ZM93.8595 6.024H95.3075C95.7022 6.024 95.9928 5.944 96.1795 5.784C96.3662 5.61867 96.4595 5.37067 96.4595 5.04C96.4595 4.71467 96.3635 4.47733 96.1715 4.328C95.9795 4.17333 95.6835 4.096 95.2835 4.096H93.8595V6.024ZM100.539 9.072C100.075 9.072 99.6775 8.992 99.3468 8.832C99.0161 8.66667 98.7628 8.42933 98.5868 8.12C98.4108 7.81067 98.3228 7.44267 98.3228 7.016C98.3228 6.616 98.4028 6.26133 98.5628 5.952C98.7281 5.64267 98.9628 5.4 99.2668 5.224C99.5708 5.04267 99.9281 4.952 100.339 4.952C100.728 4.952 101.061 5.03467 101.339 5.2C101.616 5.36533 101.829 5.6 101.979 5.904C102.128 6.208 102.203 6.57067 102.203 6.992V7.264H99.0028V6.696H101.603L101.459 6.84C101.459 6.43467 101.363 6.128 101.171 5.92C100.979 5.70667 100.707 5.6 100.355 5.6C100.115 5.6 99.9041 5.65333 99.7228 5.76C99.5468 5.86133 99.4081 6.01067 99.3068 6.208C99.2055 6.4 99.1548 6.63467 99.1548 6.912V7C99.1548 7.30933 99.2081 7.56533 99.3148 7.768C99.4268 7.97067 99.5868 8.12267 99.7948 8.224C100.008 8.32533 100.264 8.376 100.563 8.376C100.781 8.376 101 8.34933 101.219 8.296C101.443 8.23733 101.651 8.13333 101.843 7.984L102.115 8.592C101.907 8.75733 101.661 8.88 101.379 8.96C101.096 9.03467 100.816 9.072 100.539 9.072ZM105.113 9.072C104.702 9.072 104.342 8.98933 104.033 8.824C103.729 8.65333 103.492 8.41333 103.321 8.104C103.15 7.79467 103.065 7.42933 103.065 7.008C103.065 6.58667 103.15 6.224 103.321 5.92C103.492 5.61067 103.729 5.37333 104.033 5.208C104.342 5.03733 104.705 4.952 105.121 4.952C105.398 4.952 105.662 4.99733 105.913 5.088C106.169 5.17867 106.377 5.29867 106.537 5.448L106.257 6.088C106.108 5.96 105.94 5.864 105.753 5.8C105.566 5.73067 105.385 5.696 105.209 5.696C104.814 5.696 104.505 5.81067 104.281 6.04C104.062 6.264 103.953 6.58933 103.953 7.016C103.953 7.43733 104.062 7.76267 104.281 7.992C104.505 8.22133 104.812 8.336 105.201 8.336C105.382 8.336 105.564 8.304 105.745 8.24C105.932 8.17067 106.097 8.07467 106.241 7.952L106.521 8.592C106.366 8.74133 106.164 8.85867 105.913 8.944C105.662 9.02933 105.396 9.072 105.113 9.072ZM107.886 10.44L108.67 8.68V9.296L106.87 5.032H107.806L109.006 8.144H108.966L110.166 5.032H111.07L108.798 10.44H107.886ZM113.582 9.072C113.171 9.072 112.811 8.98933 112.502 8.824C112.198 8.65333 111.96 8.41333 111.79 8.104C111.619 7.79467 111.534 7.42933 111.534 7.008C111.534 6.58667 111.619 6.224 111.79 5.92C111.96 5.61067 112.198 5.37333 112.502 5.208C112.811 5.03733 113.174 4.952 113.59 4.952C113.867 4.952 114.131 4.99733 114.382 5.088C114.638 5.17867 114.846 5.29867 115.006 5.448L114.726 6.088C114.576 5.96 114.408 5.864 114.222 5.8C114.035 5.73067 113.854 5.696 113.678 5.696C113.283 5.696 112.974 5.81067 112.75 6.04C112.531 6.264 112.422 6.58933 112.422 7.016C112.422 7.43733 112.531 7.76267 112.75 7.992C112.974 8.22133 113.28 8.336 113.67 8.336C113.851 8.336 114.032 8.304 114.214 8.24C114.4 8.17067 114.566 8.07467 114.71 7.952L114.99 8.592C114.835 8.74133 114.632 8.85867 114.382 8.944C114.131 9.02933 113.864 9.072 113.582 9.072ZM117.14 9.072C116.724 9.072 116.406 8.95733 116.188 8.728C115.969 8.49333 115.86 8.16267 115.86 7.736V3.36H116.732V7.656C116.732 7.81067 116.753 7.94133 116.796 8.048C116.844 8.15467 116.91 8.23467 116.996 8.288C117.081 8.34133 117.185 8.368 117.308 8.368C117.388 8.368 117.462 8.36533 117.532 8.36C117.601 8.34933 117.673 8.33333 117.748 8.312L117.78 8.976C117.678 9.01333 117.577 9.03733 117.476 9.048C117.38 9.064 117.268 9.072 117.14 9.072ZM119.891 9.072C119.603 9.072 119.345 9.01867 119.115 8.912C118.891 8.80533 118.713 8.66133 118.579 8.48C118.451 8.29333 118.387 8.08267 118.387 7.848C118.387 7.55467 118.473 7.32 118.643 7.144C118.814 6.96267 119.075 6.832 119.427 6.752C119.785 6.672 120.241 6.632 120.795 6.632H121.355V7.192H120.835C120.558 7.192 120.318 7.20267 120.115 7.224C119.918 7.24 119.755 7.272 119.627 7.32C119.499 7.36267 119.403 7.424 119.339 7.504C119.281 7.57867 119.251 7.67733 119.251 7.8C119.251 8.00267 119.326 8.15733 119.475 8.264C119.63 8.37067 119.83 8.424 120.075 8.424C120.289 8.424 120.481 8.376 120.651 8.28C120.827 8.17867 120.966 8.048 121.067 7.888C121.174 7.72267 121.227 7.54133 121.227 7.344V6.456C121.227 6.16267 121.142 5.95467 120.971 5.832C120.806 5.704 120.558 5.64 120.227 5.64C119.998 5.64 119.766 5.672 119.531 5.736C119.302 5.8 119.062 5.904 118.811 6.048L118.555 5.424C118.721 5.32267 118.899 5.23733 119.091 5.168C119.289 5.09867 119.494 5.04533 119.707 5.008C119.921 4.97067 120.131 4.952 120.339 4.952C120.697 4.952 121.006 5.008 121.267 5.12C121.529 5.232 121.729 5.40533 121.867 5.64C122.006 5.86933 122.075 6.17067 122.075 6.544V9H121.323V8.152H121.315C121.241 8.32267 121.137 8.48 121.003 8.624C120.875 8.76267 120.718 8.872 120.531 8.952C120.345 9.032 120.131 9.072 119.891 9.072ZM125.638 9.072C125.302 9.072 125.009 8.992 124.758 8.832C124.513 8.672 124.329 8.448 124.206 8.16V9H123.406V3.36H124.278V5.808C124.39 5.54667 124.564 5.33867 124.798 5.184C125.033 5.02933 125.318 4.952 125.654 4.952C126.022 4.952 126.34 5.04 126.606 5.216C126.878 5.392 127.086 5.63467 127.23 5.944C127.38 6.248 127.454 6.60533 127.454 7.016C127.454 7.42133 127.38 7.78133 127.23 8.096C127.086 8.40533 126.878 8.64533 126.606 8.816C126.334 8.98667 126.012 9.072 125.638 9.072ZM125.43 8.384C125.788 8.384 126.068 8.264 126.27 8.024C126.478 7.77867 126.582 7.44267 126.582 7.016C126.582 6.58933 126.478 6.256 126.27 6.016C126.068 5.77067 125.785 5.648 125.422 5.648C125.065 5.648 124.782 5.77067 124.574 6.016C124.372 6.256 124.27 6.58933 124.27 7.016C124.27 7.44267 124.374 7.77867 124.582 8.024C124.79 8.264 125.073 8.384 125.43 8.384ZM129.858 9.072C129.442 9.072 129.125 8.95733 128.906 8.728C128.688 8.49333 128.578 8.16267 128.578 7.736V3.36H129.45V7.656C129.45 7.81067 129.472 7.94133 129.514 8.048C129.562 8.15467 129.629 8.23467 129.714 8.288C129.8 8.34133 129.904 8.368 130.026 8.368C130.106 8.368 130.181 8.36533 130.25 8.36C130.32 8.34933 130.392 8.33333 130.466 8.312L130.498 8.976C130.397 9.01333 130.296 9.03733 130.194 9.048C130.098 9.064 129.986 9.072 129.858 9.072ZM133.203 9.072C132.739 9.072 132.342 8.992 132.011 8.832C131.68 8.66667 131.427 8.42933 131.251 8.12C131.075 7.81067 130.987 7.44267 130.987 7.016C130.987 6.616 131.067 6.26133 131.227 5.952C131.392 5.64267 131.627 5.4 131.931 5.224C132.235 5.04267 132.592 4.952 133.003 4.952C133.392 4.952 133.726 5.03467 134.003 5.2C134.28 5.36533 134.494 5.6 134.643 5.904C134.792 6.208 134.867 6.57067 134.867 6.992V7.264H131.667V6.696H134.267L134.123 6.84C134.123 6.43467 134.027 6.128 133.835 5.92C133.643 5.70667 133.371 5.6 133.019 5.6C132.779 5.6 132.568 5.65333 132.387 5.76C132.211 5.86133 132.072 6.01067 131.971 6.208C131.87 6.4 131.819 6.63467 131.819 6.912V7C131.819 7.30933 131.872 7.56533 131.979 7.768C132.091 7.97067 132.251 8.12267 132.459 8.224C132.672 8.32533 132.928 8.376 133.227 8.376C133.446 8.376 133.664 8.34933 133.883 8.296C134.107 8.23733 134.315 8.13333 134.507 7.984L134.779 8.592C134.571 8.75733 134.326 8.88 134.043 8.96C133.76 9.03467 133.48 9.072 133.203 9.072Z" fill="black"/>
<path d="M34.832 22V16.36H38.504V16.984H35.536V18.832H38.344V19.456H35.536V21.376H38.504V22H34.832ZM41.5423 22.072C41.137 22.072 40.785 21.9867 40.4863 21.816C40.1876 21.6453 39.9556 21.408 39.7903 21.104C39.625 20.7947 39.5423 20.432 39.5423 20.016C39.5423 19.6 39.625 19.24 39.7903 18.936C39.9556 18.6267 40.1876 18.3893 40.4863 18.224C40.7903 18.0587 41.145 17.976 41.5503 17.976C41.8223 17.976 42.081 18.0213 42.3263 18.112C42.5716 18.2027 42.7743 18.3253 42.9343 18.48L42.6863 19.008C42.5316 18.8693 42.3583 18.7653 42.1663 18.696C41.9743 18.6213 41.7876 18.584 41.6063 18.584C41.1903 18.584 40.8623 18.7093 40.6223 18.96C40.3823 19.2107 40.2623 19.5653 40.2623 20.024C40.2623 20.4773 40.3823 20.832 40.6223 21.088C40.8623 21.3387 41.1876 21.464 41.5983 21.464C41.785 21.464 41.9716 21.4293 42.1583 21.36C42.3503 21.2853 42.521 21.1813 42.6703 21.048L42.9183 21.576C42.7636 21.7307 42.5636 21.8533 42.3183 21.944C42.073 22.0293 41.8143 22.072 41.5423 22.072ZM45.4867 22.072C45.0867 22.072 44.74 21.9867 44.4467 21.816C44.1534 21.6453 43.9267 21.408 43.7667 21.104C43.6067 20.7947 43.5267 20.432 43.5267 20.016C43.5267 19.6053 43.6067 19.248 43.7667 18.944C43.9267 18.6347 44.1534 18.3973 44.4467 18.232C44.74 18.0613 45.0867 17.976 45.4867 17.976C45.8867 17.976 46.2307 18.0613 46.5187 18.232C46.812 18.3973 47.0387 18.6347 47.1987 18.944C47.3587 19.248 47.4387 19.6053 47.4387 20.016C47.4387 20.432 47.3587 20.7947 47.1987 21.104C47.044 21.408 46.82 21.6453 46.5267 21.816C46.2334 21.9867 45.8867 22.072 45.4867 22.072ZM45.4787 21.472C45.868 21.472 46.1747 21.3413 46.3987 21.08C46.6227 20.8187 46.7347 20.464 46.7347 20.016C46.7347 19.568 46.6227 19.216 46.3987 18.96C46.18 18.704 45.876 18.576 45.4867 18.576C45.0974 18.576 44.7907 18.704 44.5667 18.96C44.3427 19.216 44.2307 19.568 44.2307 20.016C44.2307 20.464 44.3427 20.8187 44.5667 21.08C44.796 21.3413 45.1 21.472 45.4787 21.472ZM48.6151 20.144V19.568H50.8551V20.144H48.6151ZM52.2617 22V16.36H55.9097V16.984H52.9737V18.864H55.7497V19.48H52.9737V22H52.2617ZM56.8917 22V18.048H57.5397V18.96H57.5477C57.6437 18.6667 57.8117 18.4373 58.0517 18.272C58.2917 18.1013 58.585 18.0053 58.9317 17.984L59.2917 17.968L59.3557 18.616L58.7797 18.664C58.4117 18.696 58.1237 18.8187 57.9157 19.032C57.7077 19.24 57.6037 19.5013 57.6037 19.816V22H56.8917ZM60.1554 17.096V16.304H61.0194V17.096H60.1554ZM60.2354 22V18.048H60.9474V22H60.2354ZM64.2723 22.072C63.8296 22.072 63.4456 21.992 63.1203 21.832C62.8003 21.6667 62.5549 21.432 62.3843 21.128C62.2136 20.8187 62.1283 20.4507 62.1283 20.024C62.1283 19.624 62.2083 19.272 62.3683 18.968C62.5283 18.6587 62.7549 18.416 63.0483 18.24C63.3416 18.064 63.6909 17.976 64.0963 17.976C64.4803 17.976 64.8056 18.0587 65.0723 18.224C65.3443 18.3893 65.5496 18.6213 65.6883 18.92C65.8323 19.2187 65.9043 19.5733 65.9043 19.984V20.216H62.6643V19.72H65.4403L65.2883 19.88C65.2883 19.4427 65.1843 19.1067 64.9763 18.872C64.7736 18.6373 64.4803 18.52 64.0963 18.52C63.8456 18.52 63.6216 18.5787 63.4243 18.696C63.2323 18.808 63.0829 18.968 62.9763 19.176C62.8696 19.384 62.8163 19.6373 62.8163 19.936V20.016C62.8163 20.336 62.8749 20.6053 62.9923 20.824C63.1096 21.0427 63.2776 21.208 63.4963 21.32C63.7149 21.432 63.9763 21.488 64.2803 21.488C64.4989 21.488 64.7203 21.4587 64.9443 21.4C65.1736 21.336 65.3869 21.224 65.5843 21.064L65.8243 21.576C65.6216 21.7467 65.3789 21.872 65.0963 21.952C64.8189 22.032 64.5443 22.072 64.2723 22.072ZM67.0792 22V18.048H67.7432V18.904C67.8712 18.6107 68.0632 18.384 68.3192 18.224C68.5752 18.0587 68.8632 17.976 69.1832 17.976C69.5085 17.976 69.7805 18.0347 69.9992 18.152C70.2179 18.264 70.3805 18.44 70.4872 18.68C70.5992 18.9147 70.6552 19.208 70.6552 19.56V22H69.9432V19.6C69.9432 19.3867 69.9139 19.2053 69.8552 19.056C69.7965 18.9067 69.6979 18.792 69.5592 18.712C69.4259 18.6267 69.2472 18.584 69.0232 18.584C68.7885 18.584 68.5752 18.6373 68.3832 18.744C68.1965 18.8507 68.0499 18.9947 67.9432 19.176C67.8419 19.3573 67.7912 19.56 67.7912 19.784V22H67.0792ZM73.6396 22.072C73.2769 22.072 72.9596 21.9867 72.6876 21.816C72.4156 21.6453 72.2022 21.4053 72.0476 21.096C71.8982 20.7867 71.8236 20.4293 71.8236 20.024C71.8236 19.6133 71.8982 19.256 72.0476 18.952C72.1969 18.6427 72.4076 18.4027 72.6796 18.232C72.9516 18.0613 73.2689 17.976 73.6316 17.976C73.9729 17.976 74.2636 18.056 74.5036 18.216C74.7489 18.376 74.9249 18.5947 75.0316 18.872V16.36H75.7436V22H75.0876V21.128C74.9702 21.4267 74.7862 21.6587 74.5356 21.824C74.2849 21.9893 73.9862 22.072 73.6396 22.072ZM73.7916 21.488C74.1809 21.488 74.4849 21.3573 74.7036 21.096C74.9276 20.8347 75.0396 20.4773 75.0396 20.024C75.0396 19.5707 74.9276 19.2133 74.7036 18.952C74.4849 18.6907 74.1809 18.56 73.7916 18.56C73.4076 18.56 73.1009 18.6907 72.8716 18.952C72.6476 19.2133 72.5356 19.5707 72.5356 20.024C72.5356 20.4773 72.6476 20.8347 72.8716 21.096C73.0956 21.3573 73.4022 21.488 73.7916 21.488ZM78.3651 22.072C77.9811 22.072 77.6851 21.96 77.4771 21.736C77.2691 21.512 77.1651 21.1973 77.1651 20.792V16.36H77.8771V20.72C77.8771 20.88 77.9011 21.0187 77.9491 21.136C77.9971 21.248 78.0665 21.3333 78.1571 21.392C78.2478 21.4507 78.3571 21.48 78.4851 21.48C78.5651 21.48 78.6398 21.4773 78.7091 21.472C78.7838 21.4613 78.8585 21.4453 78.9331 21.424L78.9491 21.984C78.8585 22.016 78.7651 22.0373 78.6691 22.048C78.5785 22.064 78.4771 22.072 78.3651 22.072ZM80.1451 23.44L80.8971 21.744V22.248L79.1211 18.048H79.8811L81.1691 21.304H81.1291L82.4171 18.048H83.1611L80.8971 23.44H80.1451Z" fill="#A0A09E"/>
<defs>
<clipPath id="clip0_544_7">
<rect width="16" height="16" fill="white" transform="translate(4 4)"/>
</clipPath>
</defs>
</svg>
