<svg width="99" height="26" viewBox="0 0 99 26" fill="none" xmlns="http://www.w3.org/2000/svg">
<rect width="24" height="24" rx="12" fill="#F9DDD9"/>
<path d="M7.84457 16.7879C9.69943 18.6427 12.1103 19.1985 13.2954 19.3125C13.6437 19.3525 13.838 19.1382 13.8646 18.9173C13.8914 18.683 13.744 18.4285 13.4094 18.3816C12.338 18.2342 10.1214 17.7522 8.51429 16.125C5.88915 13.4933 5.39372 9.5156 7.53657 7.37275C9.27772 5.63846 12.1771 5.85932 14.3134 7.01103L15.0097 6.33475C12.4114 4.77446 8.916 4.64732 6.86686 6.70303C4.42943 9.14732 4.75086 13.6942 7.84457 16.7879ZM17.6617 7.29903L18.1971 6.76332C18.4514 6.50903 18.4651 6.13389 18.204 5.89275L18.0297 5.73217C17.8023 5.51789 17.4471 5.52446 17.1994 5.75875L16.6706 6.30132L17.6617 7.29903ZM11.1594 13.7876L17.1726 7.78103L16.1749 6.79017L10.1683 12.7902L9.61258 14.069C9.55886 14.2096 9.69943 14.3505 9.84686 14.3033L11.1594 13.7876ZM10.2823 14.7856C12.4717 16.9753 15.994 17.8393 17.9629 15.877C19.57 14.2633 19.3623 11.397 17.6414 8.93303L16.9586 9.61589C18.3243 11.6382 18.5923 13.9085 17.2931 15.2073C15.7131 16.7879 13.1011 16.0379 11.3066 14.3436L10.2823 14.7856Z" fill="#CE3439"/>
<path d="M37.792 9V3.36H40.216C40.8187 3.36 41.2853 3.488 41.616 3.744C41.952 3.99467 42.12 4.35733 42.12 4.832C42.12 5.17333 42.0293 5.45333 41.848 5.672C41.672 5.88533 41.448 6.02667 41.176 6.096V6.088C41.3733 6.12533 41.5547 6.2 41.72 6.312C41.8853 6.424 42.016 6.57333 42.112 6.76C42.208 6.94133 42.256 7.16533 42.256 7.432C42.256 7.768 42.1787 8.05333 42.024 8.288C41.8747 8.51733 41.6533 8.69333 41.36 8.816C41.0667 8.93867 40.7147 9 40.304 9H37.792ZM38.664 8.272H40.256C40.4053 8.272 40.5413 8.26133 40.664 8.24C40.7867 8.21333 40.8907 8.176 40.976 8.128C41.0667 8.08 41.1413 8.02133 41.2 7.952C41.2587 7.88267 41.304 7.80267 41.336 7.712C41.368 7.616 41.384 7.512 41.384 7.4C41.384 7.272 41.368 7.16 41.336 7.064C41.304 6.968 41.256 6.88533 41.192 6.816C41.1333 6.74667 41.0587 6.69067 40.968 6.648C40.8773 6.6 40.7707 6.56533 40.648 6.544C40.5307 6.52267 40.4 6.512 40.256 6.512H38.664V8.272ZM38.664 5.784H40.12C40.4987 5.784 40.7787 5.712 40.96 5.568C41.1467 5.424 41.24 5.20533 41.24 4.912C41.24 4.64 41.1493 4.43467 40.968 4.296C40.7867 4.15733 40.504 4.088 40.12 4.088H38.664V5.784ZM43.5001 9V5.032H44.2841V5.976H44.2921C44.3881 5.67733 44.5508 5.44267 44.7801 5.272C45.0148 5.096 45.3028 4.99733 45.6441 4.976L46.0441 4.944L46.1241 5.744L45.4841 5.8C45.1321 5.82667 44.8601 5.94133 44.6681 6.144C44.4761 6.34133 44.3801 6.58933 44.3801 6.888V9H43.5001ZM48.2662 9.072C47.9782 9.072 47.7195 9.01867 47.4902 8.912C47.2662 8.80533 47.0875 8.66133 46.9542 8.48C46.8262 8.29333 46.7622 8.08267 46.7622 7.848C46.7622 7.55467 46.8475 7.32 47.0182 7.144C47.1889 6.96267 47.4502 6.832 47.8022 6.752C48.1595 6.672 48.6155 6.632 49.1702 6.632H49.7302V7.192H49.2102C48.9329 7.192 48.6929 7.20267 48.4902 7.224C48.2929 7.24 48.1302 7.272 48.0022 7.32C47.8742 7.36267 47.7782 7.424 47.7142 7.504C47.6555 7.57867 47.6262 7.67733 47.6262 7.8C47.6262 8.00267 47.7009 8.15733 47.8502 8.264C48.0049 8.37067 48.2049 8.424 48.4502 8.424C48.6635 8.424 48.8555 8.376 49.0262 8.28C49.2022 8.17867 49.3409 8.048 49.4422 7.888C49.5489 7.72267 49.6022 7.54133 49.6022 7.344V6.456C49.6022 6.16267 49.5169 5.95467 49.3462 5.832C49.1809 5.704 48.9329 5.64 48.6022 5.64C48.3729 5.64 48.1409 5.672 47.9062 5.736C47.6769 5.8 47.4369 5.904 47.1862 6.048L46.9302 5.424C47.0955 5.32267 47.2742 5.23733 47.4662 5.168C47.6635 5.09867 47.8689 5.04533 48.0822 5.008C48.2955 4.97067 48.5062 4.952 48.7142 4.952C49.0715 4.952 49.3809 5.008 49.6422 5.12C49.9035 5.232 50.1035 5.40533 50.2422 5.64C50.3809 5.86933 50.4502 6.17067 50.4502 6.544V9H49.6982V8.152H49.6902C49.6155 8.32267 49.5115 8.48 49.3782 8.624C49.2502 8.76267 49.0929 8.872 48.9062 8.952C48.7195 9.032 48.5062 9.072 48.2662 9.072ZM51.7814 9V5.032H52.5894V5.864H52.5974C52.7254 5.576 52.9147 5.352 53.1654 5.192C53.4214 5.032 53.7094 4.952 54.0294 4.952C54.3547 4.952 54.6267 5.01333 54.8454 5.136C55.0694 5.25333 55.2347 5.43467 55.3414 5.68C55.4534 5.92 55.5094 6.22667 55.5094 6.6V9H54.6294V6.64C54.6294 6.43733 54.6 6.26667 54.5414 6.128C54.488 5.984 54.4 5.87467 54.2774 5.8C54.1547 5.72533 53.992 5.688 53.7894 5.688C53.5707 5.688 53.376 5.73867 53.2054 5.84C53.0347 5.936 52.8987 6.06933 52.7974 6.24C52.7014 6.40533 52.6534 6.592 52.6534 6.8V9H51.7814ZM58.4281 9.072C58.0547 9.072 57.7321 8.98667 57.4601 8.816C57.1881 8.64533 56.9774 8.40533 56.8281 8.096C56.6787 7.78133 56.6041 7.42133 56.6041 7.016C56.6041 6.60533 56.6787 6.248 56.8281 5.944C56.9774 5.63467 57.1854 5.392 57.4521 5.216C57.7241 5.04 58.0441 4.952 58.4121 4.952C58.7427 4.952 59.0254 5.02933 59.2601 5.184C59.5001 5.33867 59.6734 5.54667 59.7801 5.808V3.36H60.6601V9H59.8601V8.16H59.8521C59.7347 8.448 59.5507 8.672 59.3001 8.832C59.0547 8.992 58.7641 9.072 58.4281 9.072ZM58.6361 8.384C58.9987 8.384 59.2814 8.264 59.4841 8.024C59.6921 7.77867 59.7961 7.44267 59.7961 7.016C59.7961 6.58933 59.6921 6.256 59.4841 6.016C59.2814 5.77067 59.0014 5.648 58.6441 5.648C58.2814 5.648 57.9961 5.77067 57.7881 6.016C57.5854 6.256 57.4841 6.58933 57.4841 7.016C57.4841 7.44267 57.5854 7.77867 57.7881 8.024C57.9961 8.264 58.2787 8.384 58.6361 8.384ZM61.9199 4.152V3.232H62.9519V4.152H61.9199ZM62.0079 9V5.032H62.8799V9H62.0079ZM64.2267 9V5.032H65.0347V5.864H65.0427C65.1707 5.576 65.36 5.352 65.6107 5.192C65.8667 5.032 66.1547 4.952 66.4747 4.952C66.8 4.952 67.072 5.01333 67.2907 5.136C67.5147 5.25333 67.68 5.43467 67.7867 5.68C67.8987 5.92 67.9547 6.22667 67.9547 6.6V9H67.0747V6.64C67.0747 6.43733 67.0454 6.26667 66.9867 6.128C66.9334 5.984 66.8454 5.87467 66.7227 5.8C66.6 5.72533 66.4374 5.688 66.2347 5.688C66.016 5.688 65.8214 5.73867 65.6507 5.84C65.48 5.936 65.344 6.06933 65.2427 6.24C65.1467 6.40533 65.0987 6.592 65.0987 6.8V9H64.2267ZM71.0414 10.512C70.7214 10.512 70.404 10.4667 70.0894 10.376C69.7747 10.2907 69.5054 10.168 69.2814 10.008L69.5374 9.344C69.6814 9.43467 69.836 9.51467 70.0014 9.584C70.1667 9.65333 70.3347 9.704 70.5054 9.736C70.6814 9.77333 70.8494 9.792 71.0094 9.792C71.42 9.792 71.7347 9.69333 71.9534 9.496C72.1774 9.304 72.2894 9.024 72.2894 8.656V8H72.2734C72.172 8.256 71.9987 8.46667 71.7534 8.632C71.508 8.792 71.2227 8.872 70.8974 8.872C70.5294 8.872 70.2067 8.792 69.9294 8.632C69.652 8.46667 69.436 8.23733 69.2814 7.944C69.1267 7.65067 69.0494 7.30667 69.0494 6.912C69.0494 6.52267 69.1267 6.18133 69.2814 5.888C69.436 5.58933 69.652 5.36 69.9294 5.2C70.2067 5.03467 70.5294 4.952 70.8974 4.952C71.228 4.952 71.516 5.03467 71.7614 5.2C72.0067 5.36533 72.18 5.58667 72.2814 5.864H72.2894V5.032H73.1134V8.584C73.1134 8.984 73.0307 9.328 72.8654 9.616C72.7 9.904 72.4627 10.1253 72.1534 10.28C71.844 10.4347 71.4734 10.512 71.0414 10.512ZM71.0894 8.176C71.4467 8.176 71.7294 8.06133 71.9374 7.832C72.1454 7.60267 72.2494 7.296 72.2494 6.912C72.2494 6.52267 72.1454 6.216 71.9374 5.992C71.7294 5.76267 71.4467 5.648 71.0894 5.648C70.732 5.648 70.4467 5.76267 70.2334 5.992C70.0254 6.216 69.9214 6.52267 69.9214 6.912C69.9214 7.296 70.0254 7.60267 70.2334 7.832C70.4467 8.06133 70.732 8.176 71.0894 8.176ZM78.5103 9L76.0543 3.36H77.0063L78.9343 7.976H78.8623L80.7903 3.36H81.7343L79.2703 9H78.5103ZM83.274 9.072C82.986 9.072 82.7273 9.01867 82.498 8.912C82.274 8.80533 82.0953 8.66133 81.962 8.48C81.834 8.29333 81.77 8.08267 81.77 7.848C81.77 7.55467 81.8553 7.32 82.026 7.144C82.1967 6.96267 82.458 6.832 82.81 6.752C83.1673 6.672 83.6233 6.632 84.178 6.632H84.738V7.192H84.218C83.9407 7.192 83.7007 7.20267 83.498 7.224C83.3007 7.24 83.138 7.272 83.01 7.32C82.882 7.36267 82.786 7.424 82.722 7.504C82.6633 7.57867 82.634 7.67733 82.634 7.8C82.634 8.00267 82.7087 8.15733 82.858 8.264C83.0127 8.37067 83.2127 8.424 83.458 8.424C83.6713 8.424 83.8633 8.376 84.034 8.28C84.21 8.17867 84.3487 8.048 84.45 7.888C84.5567 7.72267 84.61 7.54133 84.61 7.344V6.456C84.61 6.16267 84.5247 5.95467 84.354 5.832C84.1887 5.704 83.9407 5.64 83.61 5.64C83.3807 5.64 83.1487 5.672 82.914 5.736C82.6847 5.8 82.4447 5.904 82.194 6.048L81.938 5.424C82.1033 5.32267 82.282 5.23733 82.474 5.168C82.6713 5.09867 82.8767 5.04533 83.09 5.008C83.3033 4.97067 83.514 4.952 83.722 4.952C84.0793 4.952 84.3887 5.008 84.65 5.12C84.9113 5.232 85.1113 5.40533 85.25 5.64C85.3887 5.86933 85.458 6.17067 85.458 6.544V9H84.706V8.152H84.698C84.6233 8.32267 84.5193 8.48 84.386 8.624C84.258 8.76267 84.1007 8.872 83.914 8.952C83.7273 9.032 83.514 9.072 83.274 9.072ZM88.0692 9.072C87.6532 9.072 87.3359 8.95733 87.1172 8.728C86.8985 8.49333 86.7892 8.16267 86.7892 7.736V3.36H87.6612V7.656C87.6612 7.81067 87.6825 7.94133 87.7252 8.048C87.7732 8.15467 87.8399 8.23467 87.9252 8.288C88.0105 8.34133 88.1145 8.368 88.2372 8.368C88.3172 8.368 88.3919 8.36533 88.4612 8.36C88.5305 8.34933 88.6025 8.33333 88.6772 8.312L88.7092 8.976C88.6079 9.01333 88.5065 9.03733 88.4052 9.048C88.3092 9.064 88.1972 9.072 88.0692 9.072ZM90.9649 9.072C90.6342 9.072 90.3569 9.01333 90.1329 8.896C89.9089 8.77333 89.7382 8.592 89.6209 8.352C89.5089 8.112 89.4529 7.81067 89.4529 7.448V5.032H90.3329V7.416C90.3329 7.60267 90.3595 7.768 90.4129 7.912C90.4715 8.05067 90.5622 8.15733 90.6849 8.232C90.8129 8.30667 90.9782 8.344 91.1809 8.344C91.3835 8.344 91.5675 8.296 91.7329 8.2C91.8982 8.09867 92.0289 7.96533 92.1249 7.8C92.2209 7.62933 92.2689 7.44533 92.2689 7.248V5.032H93.1409V9H92.3329V8.152H92.3409C92.2075 8.44 92.0235 8.66667 91.7889 8.832C91.5595 8.992 91.2849 9.072 90.9649 9.072ZM96.4685 9.072C96.0045 9.072 95.6072 8.992 95.2765 8.832C94.9458 8.66667 94.6925 8.42933 94.5165 8.12C94.3405 7.81067 94.2525 7.44267 94.2525 7.016C94.2525 6.616 94.3325 6.26133 94.4925 5.952C94.6578 5.64267 94.8925 5.4 95.1965 5.224C95.5005 5.04267 95.8578 4.952 96.2685 4.952C96.6578 4.952 96.9912 5.03467 97.2685 5.2C97.5458 5.36533 97.7592 5.6 97.9085 5.904C98.0578 6.208 98.1325 6.57067 98.1325 6.992V7.264H94.9325V6.696H97.5325L97.3885 6.84C97.3885 6.43467 97.2925 6.128 97.1005 5.92C96.9085 5.70667 96.6365 5.6 96.2845 5.6C96.0445 5.6 95.8338 5.65333 95.6525 5.76C95.4765 5.86133 95.3378 6.01067 95.2365 6.208C95.1352 6.4 95.0845 6.63467 95.0845 6.912V7C95.0845 7.30933 95.1378 7.56533 95.2445 7.768C95.3565 7.97067 95.5165 8.12267 95.7245 8.224C95.9378 8.32533 96.1938 8.376 96.4925 8.376C96.7112 8.376 96.9298 8.34933 97.1485 8.296C97.3725 8.23733 97.5805 8.13333 97.7725 7.984L98.0445 8.592C97.8365 8.75733 97.5912 8.88 97.3085 8.96C97.0258 9.03467 96.7458 9.072 96.4685 9.072Z" fill="black"/>
<path d="M37.832 22V16.36H40.168C40.76 16.36 41.2187 16.488 41.544 16.744C41.8693 16.9947 42.032 17.3573 42.032 17.832C42.032 18.1787 41.9413 18.4613 41.76 18.68C41.5787 18.8987 41.3493 19.04 41.072 19.104V19.096C41.2693 19.128 41.4507 19.2 41.616 19.312C41.7813 19.424 41.9147 19.576 42.016 19.768C42.1173 19.9547 42.168 20.1813 42.168 20.448C42.168 20.7787 42.0933 21.0613 41.944 21.296C41.7947 21.5253 41.576 21.7013 41.288 21.824C41.0053 21.9413 40.6613 22 40.256 22H37.832ZM38.536 21.392H40.224C40.3893 21.392 40.5387 21.3813 40.672 21.36C40.8053 21.3333 40.92 21.2933 41.016 21.24C41.1173 21.1867 41.2 21.1227 41.264 21.048C41.328 20.968 41.376 20.8773 41.408 20.776C41.44 20.6747 41.456 20.56 41.456 20.432C41.456 20.2987 41.4373 20.1787 41.4 20.072C41.368 19.9653 41.3173 19.8747 41.248 19.8C41.184 19.72 41.1013 19.6533 41 19.6C40.904 19.5467 40.7893 19.5093 40.656 19.488C40.528 19.4613 40.384 19.448 40.224 19.448H38.536V21.392ZM38.536 18.848H40.096C40.5013 18.848 40.8053 18.768 41.008 18.608C41.216 18.4427 41.32 18.2 41.32 17.88C41.32 17.576 41.2187 17.3493 41.016 17.2C40.8187 17.0453 40.512 16.968 40.096 16.968H38.536V18.848ZM45.2133 22.072C44.8133 22.072 44.4666 21.9867 44.1733 21.816C43.8799 21.6453 43.6533 21.408 43.4933 21.104C43.3333 20.7947 43.2533 20.432 43.2533 20.016C43.2533 19.6053 43.3333 19.248 43.4933 18.944C43.6533 18.6347 43.8799 18.3973 44.1733 18.232C44.4666 18.0613 44.8133 17.976 45.2133 17.976C45.6133 17.976 45.9573 18.0613 46.2453 18.232C46.5386 18.3973 46.7653 18.6347 46.9253 18.944C47.0853 19.248 47.1653 19.6053 47.1653 20.016C47.1653 20.432 47.0853 20.7947 46.9253 21.104C46.7706 21.408 46.5466 21.6453 46.2533 21.816C45.9599 21.9867 45.6133 22.072 45.2133 22.072ZM45.2053 21.472C45.5946 21.472 45.9013 21.3413 46.1253 21.08C46.3493 20.8187 46.4613 20.464 46.4613 20.016C46.4613 19.568 46.3493 19.216 46.1253 18.96C45.9066 18.704 45.6026 18.576 45.2133 18.576C44.8239 18.576 44.5173 18.704 44.2933 18.96C44.0693 19.216 43.9572 19.568 43.9572 20.016C43.9572 20.464 44.0693 20.8187 44.2933 21.08C44.5226 21.3413 44.8266 21.472 45.2053 21.472ZM50.0804 22.072C49.6804 22.072 49.3338 21.9867 49.0404 21.816C48.7471 21.6453 48.5204 21.408 48.3604 21.104C48.2004 20.7947 48.1204 20.432 48.1204 20.016C48.1204 19.6053 48.2004 19.248 48.3604 18.944C48.5204 18.6347 48.7471 18.3973 49.0404 18.232C49.3338 18.0613 49.6804 17.976 50.0804 17.976C50.4804 17.976 50.8244 18.0613 51.1124 18.232C51.4058 18.3973 51.6324 18.6347 51.7924 18.944C51.9524 19.248 52.0324 19.6053 52.0324 20.016C52.0324 20.432 51.9524 20.7947 51.7924 21.104C51.6378 21.408 51.4138 21.6453 51.1204 21.816C50.8271 21.9867 50.4804 22.072 50.0804 22.072ZM50.0724 21.472C50.4618 21.472 50.7684 21.3413 50.9924 21.08C51.2164 20.8187 51.3284 20.464 51.3284 20.016C51.3284 19.568 51.2164 19.216 50.9924 18.96C50.7738 18.704 50.4698 18.576 50.0804 18.576C49.6911 18.576 49.3844 18.704 49.1604 18.96C48.9364 19.216 48.8244 19.568 48.8244 20.016C48.8244 20.464 48.9364 20.8187 49.1604 21.08C49.3898 21.3413 49.6938 21.472 50.0724 21.472ZM54.6836 22.072C54.465 22.072 54.249 22.0507 54.0356 22.008C53.8276 21.9707 53.633 21.9173 53.4516 21.848C53.2756 21.7733 53.1236 21.6827 52.9956 21.576L53.2276 21.072C53.361 21.1733 53.5076 21.256 53.6676 21.32C53.833 21.384 54.001 21.432 54.1716 21.464C54.3476 21.4907 54.5156 21.504 54.6756 21.504C55.0063 21.504 55.2596 21.4533 55.4356 21.352C55.617 21.2507 55.7076 21.1093 55.7076 20.928C55.7076 20.7733 55.6543 20.656 55.5476 20.576C55.4463 20.4907 55.2756 20.4267 55.0356 20.384L54.2116 20.24C53.8436 20.1707 53.5663 20.0453 53.3796 19.864C53.1983 19.6827 53.1076 19.4453 53.1076 19.152C53.1076 18.9173 53.1716 18.712 53.2996 18.536C53.433 18.36 53.6223 18.224 53.8676 18.128C54.113 18.0267 54.4063 17.976 54.7476 17.976C54.9343 17.976 55.1236 17.9947 55.3156 18.032C55.513 18.0693 55.6943 18.1253 55.8596 18.2C56.0303 18.2693 56.169 18.3573 56.2756 18.464L56.0356 18.968C55.929 18.8667 55.801 18.7867 55.6516 18.728C55.5076 18.664 55.3556 18.6187 55.1956 18.592C55.041 18.56 54.889 18.544 54.7396 18.544C54.4303 18.544 54.1903 18.5973 54.0196 18.704C53.849 18.8053 53.7636 18.9493 53.7636 19.136C53.7636 19.2853 53.8116 19.4027 53.9076 19.488C54.009 19.5733 54.1716 19.6373 54.3956 19.68L55.1956 19.824C55.5903 19.8987 55.8836 20.024 56.0756 20.2C56.2676 20.3707 56.3636 20.608 56.3636 20.912C56.3636 21.1467 56.2943 21.352 56.1556 21.528C56.017 21.6987 55.8223 21.832 55.5716 21.928C55.321 22.024 55.025 22.072 54.6836 22.072ZM59.1651 22.072C58.6904 22.072 58.3304 21.9467 58.0851 21.696C57.8451 21.4453 57.7251 21.088 57.7251 20.624V18.632H56.9251V18.048H57.7491V16.872H58.4371V18.048H59.8531V18.632H58.4371V20.56C58.4371 20.864 58.5037 21.0907 58.6371 21.24C58.7757 21.384 58.9864 21.456 59.2691 21.456C59.3811 21.456 59.4877 21.4453 59.5891 21.424C59.6957 21.4027 59.7971 21.3707 59.8931 21.328L60.0051 21.888C59.8984 21.9467 59.7677 21.992 59.6131 22.024C59.4637 22.056 59.3144 22.072 59.1651 22.072ZM62.293 22.072C62.0743 22.072 61.8583 22.0507 61.645 22.008C61.437 21.9707 61.2423 21.9173 61.061 21.848C60.885 21.7733 60.733 21.6827 60.605 21.576L60.837 21.072C60.9703 21.1733 61.117 21.256 61.277 21.32C61.4423 21.384 61.6103 21.432 61.781 21.464C61.957 21.4907 62.125 21.504 62.285 21.504C62.6157 21.504 62.869 21.4533 63.045 21.352C63.2263 21.2507 63.317 21.1093 63.317 20.928C63.317 20.7733 63.2637 20.656 63.157 20.576C63.0557 20.4907 62.885 20.4267 62.645 20.384L61.821 20.24C61.453 20.1707 61.1757 20.0453 60.989 19.864C60.8077 19.6827 60.717 19.4453 60.717 19.152C60.717 18.9173 60.781 18.712 60.909 18.536C61.0423 18.36 61.2317 18.224 61.477 18.128C61.7223 18.0267 62.0157 17.976 62.357 17.976C62.5437 17.976 62.733 17.9947 62.925 18.032C63.1223 18.0693 63.3037 18.1253 63.469 18.2C63.6397 18.2693 63.7783 18.3573 63.885 18.464L63.645 18.968C63.5383 18.8667 63.4103 18.7867 63.261 18.728C63.117 18.664 62.965 18.6187 62.805 18.592C62.6503 18.56 62.4983 18.544 62.349 18.544C62.0397 18.544 61.7997 18.5973 61.629 18.704C61.4583 18.8053 61.373 18.9493 61.373 19.136C61.373 19.2853 61.421 19.4027 61.517 19.488C61.6183 19.5733 61.781 19.6373 62.005 19.68L62.805 19.824C63.1997 19.8987 63.493 20.024 63.685 20.2C63.877 20.3707 63.973 20.608 63.973 20.912C63.973 21.1467 63.9037 21.352 63.765 21.528C63.6263 21.6987 63.4317 21.832 63.181 21.928C62.9303 22.024 62.6343 22.072 62.293 22.072ZM67.5039 22V16.36H68.2159V22H67.5039ZM71.3349 22.072C70.9722 22.072 70.6549 21.9867 70.3829 21.816C70.1109 21.6453 69.8975 21.4053 69.7429 21.096C69.5935 20.7867 69.5189 20.4293 69.5189 20.024C69.5189 19.6133 69.5935 19.256 69.7429 18.952C69.8922 18.6427 70.1029 18.4027 70.3749 18.232C70.6469 18.0613 70.9642 17.976 71.3269 17.976C71.6682 17.976 71.9589 18.056 72.1989 18.216C72.4442 18.376 72.6202 18.5947 72.7269 18.872V16.36H73.4389V22H72.7829V21.128C72.6655 21.4267 72.4815 21.6587 72.2309 21.824C71.9802 21.9893 71.6815 22.072 71.3349 22.072ZM71.4869 21.488C71.8762 21.488 72.1802 21.3573 72.3989 21.096C72.6229 20.8347 72.7349 20.4773 72.7349 20.024C72.7349 19.5707 72.6229 19.2133 72.3989 18.952C72.1802 18.6907 71.8762 18.56 71.4869 18.56C71.1029 18.56 70.7962 18.6907 70.5669 18.952C70.3429 19.2133 70.2309 19.5707 70.2309 20.024C70.2309 20.4773 70.3429 20.8347 70.5669 21.096C70.7909 21.3573 71.0975 21.488 71.4869 21.488ZM76.7644 22.072C76.3218 22.072 75.9378 21.992 75.6124 21.832C75.2924 21.6667 75.0471 21.432 74.8764 21.128C74.7058 20.8187 74.6204 20.4507 74.6204 20.024C74.6204 19.624 74.7004 19.272 74.8604 18.968C75.0204 18.6587 75.2471 18.416 75.5404 18.24C75.8338 18.064 76.1831 17.976 76.5884 17.976C76.9724 17.976 77.2978 18.0587 77.5644 18.224C77.8364 18.3893 78.0418 18.6213 78.1804 18.92C78.3244 19.2187 78.3964 19.5733 78.3964 19.984V20.216H75.1564V19.72H77.9324L77.7804 19.88C77.7804 19.4427 77.6764 19.1067 77.4684 18.872C77.2658 18.6373 76.9724 18.52 76.5884 18.52C76.3378 18.52 76.1138 18.5787 75.9164 18.696C75.7244 18.808 75.5751 18.968 75.4684 19.176C75.3618 19.384 75.3084 19.6373 75.3084 19.936V20.016C75.3084 20.336 75.3671 20.6053 75.4844 20.824C75.6018 21.0427 75.7698 21.208 75.9884 21.32C76.2071 21.432 76.4684 21.488 76.7724 21.488C76.9911 21.488 77.2124 21.4587 77.4364 21.4C77.6658 21.336 77.8791 21.224 78.0764 21.064L78.3164 21.576C78.1138 21.7467 77.8711 21.872 77.5884 21.952C77.3111 22.032 77.0364 22.072 76.7644 22.072ZM79.5714 22V18.048H80.2354V18.904C80.3634 18.6107 80.5554 18.384 80.8114 18.224C81.0674 18.0587 81.3554 17.976 81.6754 17.976C82.0007 17.976 82.2727 18.0347 82.4914 18.152C82.71 18.264 82.8727 18.44 82.9794 18.68C83.0914 18.9147 83.1474 19.208 83.1474 19.56V22H82.4354V19.6C82.4354 19.3867 82.406 19.2053 82.3474 19.056C82.2887 18.9067 82.19 18.792 82.0514 18.712C81.918 18.6267 81.7394 18.584 81.5154 18.584C81.2807 18.584 81.0674 18.6373 80.8754 18.744C80.6887 18.8507 80.542 18.9947 80.4354 19.176C80.334 19.3573 80.2834 19.56 80.2834 19.784V22H79.5714ZM86.2198 22.072C85.7451 22.072 85.3851 21.9467 85.1398 21.696C84.8998 21.4453 84.7798 21.088 84.7798 20.624V18.632H83.9798V18.048H84.8038V16.872H85.4918V18.048H86.9078V18.632H85.4918V20.56C85.4918 20.864 85.5584 21.0907 85.6918 21.24C85.8304 21.384 86.0411 21.456 86.3238 21.456C86.4358 21.456 86.5424 21.4453 86.6438 21.424C86.7504 21.4027 86.8518 21.3707 86.9478 21.328L87.0598 21.888C86.9531 21.9467 86.8224 21.992 86.6678 22.024C86.5184 22.056 86.3691 22.072 86.2198 22.072ZM87.8117 17.096V16.304H88.6757V17.096H87.8117ZM87.8917 22V18.048H88.6037V22H87.8917ZM91.6885 22.072C91.2138 22.072 90.8538 21.9467 90.6085 21.696C90.3685 21.4453 90.2485 21.088 90.2485 20.624V18.632H89.4485V18.048H90.2725V16.872H90.9605V18.048H92.3765V18.632H90.9605V20.56C90.9605 20.864 91.0272 21.0907 91.1605 21.24C91.2992 21.384 91.5098 21.456 91.7925 21.456C91.9045 21.456 92.0112 21.4453 92.1125 21.424C92.2192 21.4027 92.3205 21.3707 92.4165 21.328L92.5285 21.888C92.4218 21.9467 92.2912 21.992 92.1365 22.024C91.9872 22.056 91.8378 22.072 91.6885 22.072ZM93.8873 23.44L94.6393 21.744V22.248L92.8633 18.048H93.6233L94.9113 21.304H94.8713L96.1593 18.048H96.9033L94.6393 23.44H93.8873Z" fill="#A0A09E"/>
</svg>
