<svg width="121" height="26" viewBox="0 0 121 26" fill="none" xmlns="http://www.w3.org/2000/svg">
<rect y="1" width="24" height="24" rx="12" fill="#F9DDD9"/>
<path fill-rule="evenodd" clip-rule="evenodd" d="M6.77887 7.77918V7.78158C6.73598 8.26473 6.70531 8.74888 6.68687 9.23358C6.64047 10.4016 6.64687 11.788 6.80047 12.8176C6.81371 12.8819 6.84639 12.9405 6.89407 12.9856L13.0973 19.1888C13.1723 19.2638 13.274 19.3059 13.3801 19.3059C13.4861 19.3059 13.5879 19.2638 13.6629 19.1888L18.1885 14.6632C18.2635 14.5882 18.3056 14.4864 18.3056 14.3804C18.3056 14.2743 18.2635 14.1726 18.1885 14.0976L11.9853 7.89438C11.9402 7.84669 11.8815 7.81402 11.8173 7.80078C10.7877 7.64718 9.40127 7.64078 8.23327 7.68718C7.74857 7.70561 7.26442 7.73629 6.78127 7.77918H6.77887ZM6.07167 7.07198C5.99407 7.14558 5.68047 10.7256 6.01007 12.936C6.04527 13.1712 6.16207 13.384 6.33007 13.552L12.5325 19.7552C12.7575 19.9801 13.0627 20.1065 13.3809 20.1065C13.6991 20.1065 14.0042 19.9801 14.2293 19.7552L18.7549 15.2296C18.9798 15.0045 19.1062 14.6994 19.1062 14.3812C19.1062 14.063 18.9798 13.7578 18.7549 13.5328L12.5509 7.32798C12.3846 7.15877 12.1689 7.04672 11.9349 7.00798C9.72447 6.67918 6.14447 6.99198 6.07087 7.07038" fill="#CE3439"/>
<path fill-rule="evenodd" clip-rule="evenodd" d="M10.0605 11.1288C10.0223 11.1657 9.99184 11.2098 9.97088 11.2586C9.94991 11.3074 9.93888 11.3599 9.93842 11.413C9.93796 11.4661 9.94808 11.5188 9.96819 11.568C9.9883 11.6171 10.018 11.6618 10.0556 11.6993C10.0931 11.7369 10.1378 11.7666 10.1869 11.7867C10.2361 11.8068 10.2888 11.8169 10.3419 11.8165C10.395 11.816 10.4475 11.805 10.4963 11.784C10.5451 11.7631 10.5892 11.7326 10.6261 11.6944C10.699 11.6189 10.7393 11.5179 10.7384 11.413C10.7375 11.3081 10.6954 11.2078 10.6212 11.1337C10.5471 11.0595 10.4468 11.0174 10.3419 11.0165C10.237 11.0156 10.136 11.0559 10.0605 11.1288ZM9.49572 12.26C9.37917 12.1498 9.28589 12.0173 9.22139 11.8705C9.1569 11.7236 9.12251 11.5653 9.12024 11.405C9.11797 11.2446 9.14788 11.0854 9.20819 10.9367C9.2685 10.7881 9.358 10.6531 9.47139 10.5397C9.58478 10.4262 9.71976 10.3367 9.86835 10.2763C10.0169 10.2159 10.1761 10.1859 10.3365 10.1881C10.4969 10.1903 10.6552 10.2246 10.8021 10.289C10.949 10.3535 11.0815 10.4467 11.1917 10.5632C11.4065 10.7901 11.5243 11.0919 11.52 11.4044C11.5157 11.7168 11.3898 12.0153 11.1688 12.2363C10.9479 12.4573 10.6495 12.5834 10.3371 12.5879C10.0246 12.5923 9.72278 12.4747 9.49572 12.26Z" fill="#CE3439"/>
<path d="M34.792 9V3.36H35.672V9H34.792ZM37.1329 9V5.032H37.9409V5.864H37.9489C38.0769 5.576 38.2663 5.352 38.5169 5.192C38.7729 5.032 39.0609 4.952 39.3809 4.952C39.7063 4.952 39.9783 5.01333 40.1969 5.136C40.4209 5.25333 40.5863 5.43467 40.6929 5.68C40.8049 5.92 40.8609 6.22667 40.8609 6.6V9H39.9809V6.64C39.9809 6.43733 39.9516 6.26667 39.8929 6.128C39.8396 5.984 39.7516 5.87467 39.6289 5.8C39.5063 5.72533 39.3436 5.688 39.1409 5.688C38.9223 5.688 38.7276 5.73867 38.5569 5.84C38.3863 5.936 38.2503 6.06933 38.1489 6.24C38.0529 6.40533 38.0049 6.592 38.0049 6.8V9H37.1329ZM44.6127 9V3.36H45.5727L47.5167 7.2H47.4607L49.3967 3.36H50.3407V9H49.5007V4.64H49.5327L47.7887 8.096H47.1727L45.4127 4.64H45.4527V9H44.6127ZM53.6124 9.072C53.2018 9.072 52.8444 8.98667 52.5404 8.816C52.2364 8.64533 52.0018 8.40533 51.8364 8.096C51.6711 7.78667 51.5884 7.424 51.5884 7.008C51.5884 6.592 51.6711 6.232 51.8364 5.928C52.0018 5.61867 52.2364 5.37867 52.5404 5.208C52.8444 5.03733 53.2018 4.952 53.6124 4.952C54.0284 4.952 54.3858 5.03733 54.6844 5.208C54.9831 5.37867 55.2151 5.61867 55.3804 5.928C55.5458 6.23733 55.6284 6.59733 55.6284 7.008C55.6284 7.424 55.5458 7.78667 55.3804 8.096C55.2204 8.40533 54.9884 8.64533 54.6844 8.816C54.3858 8.98667 54.0284 9.072 53.6124 9.072ZM53.6124 8.352C53.9698 8.352 54.2498 8.232 54.4524 7.992C54.6604 7.752 54.7644 7.424 54.7644 7.008C54.7644 6.592 54.6604 6.26667 54.4524 6.032C54.2498 5.79733 53.9698 5.68 53.6124 5.68C53.2498 5.68 52.9644 5.79733 52.7564 6.032C52.5538 6.26667 52.4524 6.592 52.4524 7.008C52.4524 7.424 52.5564 7.752 52.7644 7.992C52.9724 8.232 53.2551 8.352 53.6124 8.352ZM58.0223 9.072C57.6063 9.072 57.289 8.95733 57.0703 8.728C56.8516 8.49333 56.7423 8.16267 56.7423 7.736V3.36H57.6143V7.656C57.6143 7.81067 57.6356 7.94133 57.6783 8.048C57.7263 8.15467 57.793 8.23467 57.8783 8.288C57.9636 8.34133 58.0676 8.368 58.1903 8.368C58.2703 8.368 58.345 8.36533 58.4143 8.36C58.4836 8.34933 58.5556 8.33333 58.6303 8.312L58.6623 8.976C58.561 9.01333 58.4596 9.03733 58.3583 9.048C58.2623 9.064 58.1503 9.072 58.0223 9.072ZM60.9749 9.072C60.6016 9.072 60.2789 8.98667 60.0069 8.816C59.7349 8.64533 59.5243 8.40533 59.3749 8.096C59.2256 7.78133 59.1509 7.42133 59.1509 7.016C59.1509 6.60533 59.2256 6.248 59.3749 5.944C59.5243 5.63467 59.7323 5.392 59.9989 5.216C60.2709 5.04 60.5909 4.952 60.9589 4.952C61.2896 4.952 61.5723 5.02933 61.8069 5.184C62.0469 5.33867 62.2203 5.54667 62.3269 5.808V3.36H63.2069V9H62.4069V8.16H62.3989C62.2816 8.448 62.0976 8.672 61.8469 8.832C61.6016 8.992 61.3109 9.072 60.9749 9.072ZM61.1829 8.384C61.5456 8.384 61.8283 8.264 62.0309 8.024C62.2389 7.77867 62.3429 7.44267 62.3429 7.016C62.3429 6.58933 62.2389 6.256 62.0309 6.016C61.8283 5.77067 61.5483 5.648 61.1909 5.648C60.8283 5.648 60.5429 5.77067 60.3349 6.016C60.1323 6.256 60.0309 6.58933 60.0309 7.016C60.0309 7.44267 60.1323 7.77867 60.3349 8.024C60.5429 8.264 60.8256 8.384 61.1829 8.384ZM66.9639 9V3.36H67.8439V8.232H70.6359V9H66.9639ZM72.9224 9.072C72.6344 9.072 72.3758 9.01867 72.1464 8.912C71.9224 8.80533 71.7438 8.66133 71.6104 8.48C71.4824 8.29333 71.4184 8.08267 71.4184 7.848C71.4184 7.55467 71.5038 7.32 71.6744 7.144C71.8451 6.96267 72.1064 6.832 72.4584 6.752C72.8158 6.672 73.2718 6.632 73.8264 6.632H74.3864V7.192H73.8664C73.5891 7.192 73.3491 7.20267 73.1464 7.224C72.9491 7.24 72.7864 7.272 72.6584 7.32C72.5304 7.36267 72.4344 7.424 72.3704 7.504C72.3118 7.57867 72.2824 7.67733 72.2824 7.8C72.2824 8.00267 72.3571 8.15733 72.5064 8.264C72.6611 8.37067 72.8611 8.424 73.1064 8.424C73.3198 8.424 73.5118 8.376 73.6824 8.28C73.8584 8.17867 73.9971 8.048 74.0984 7.888C74.2051 7.72267 74.2584 7.54133 74.2584 7.344V6.456C74.2584 6.16267 74.1731 5.95467 74.0024 5.832C73.8371 5.704 73.5891 5.64 73.2584 5.64C73.0291 5.64 72.7971 5.672 72.5624 5.736C72.3331 5.8 72.0931 5.904 71.8424 6.048L71.5864 5.424C71.7518 5.32267 71.9304 5.23733 72.1224 5.168C72.3198 5.09867 72.5251 5.04533 72.7384 5.008C72.9518 4.97067 73.1624 4.952 73.3704 4.952C73.7278 4.952 74.0371 5.008 74.2984 5.12C74.5598 5.232 74.7598 5.40533 74.8984 5.64C75.0371 5.86933 75.1064 6.17067 75.1064 6.544V9H74.3544V8.152H74.3464C74.2718 8.32267 74.1678 8.48 74.0344 8.624C73.9064 8.76267 73.7491 8.872 73.5624 8.952C73.3758 9.032 73.1624 9.072 72.9224 9.072ZM78.6696 9.072C78.3336 9.072 78.0403 8.992 77.7896 8.832C77.5443 8.672 77.3603 8.448 77.2376 8.16V9H76.4376V3.36H77.3096V5.808C77.4216 5.54667 77.595 5.33867 77.8296 5.184C78.0643 5.02933 78.3496 4.952 78.6856 4.952C79.0536 4.952 79.371 5.04 79.6376 5.216C79.9096 5.392 80.1176 5.63467 80.2616 5.944C80.411 6.248 80.4856 6.60533 80.4856 7.016C80.4856 7.42133 80.411 7.78133 80.2616 8.096C80.1176 8.40533 79.9096 8.64533 79.6376 8.816C79.3656 8.98667 79.043 9.072 78.6696 9.072ZM78.4616 8.384C78.819 8.384 79.099 8.264 79.3016 8.024C79.5096 7.77867 79.6136 7.44267 79.6136 7.016C79.6136 6.58933 79.5096 6.256 79.3016 6.016C79.099 5.77067 78.8163 5.648 78.4536 5.648C78.0963 5.648 77.8136 5.77067 77.6056 6.016C77.403 6.256 77.3016 6.58933 77.3016 7.016C77.3016 7.44267 77.4056 7.77867 77.6136 8.024C77.8216 8.264 78.1043 8.384 78.4616 8.384ZM83.5935 9.072C83.1295 9.072 82.7322 8.992 82.4015 8.832C82.0708 8.66667 81.8175 8.42933 81.6415 8.12C81.4655 7.81067 81.3775 7.44267 81.3775 7.016C81.3775 6.616 81.4575 6.26133 81.6175 5.952C81.7828 5.64267 82.0175 5.4 82.3215 5.224C82.6255 5.04267 82.9828 4.952 83.3935 4.952C83.7828 4.952 84.1162 5.03467 84.3935 5.2C84.6708 5.36533 84.8842 5.6 85.0335 5.904C85.1828 6.208 85.2575 6.57067 85.2575 6.992V7.264H82.0575V6.696H84.6575L84.5135 6.84C84.5135 6.43467 84.4175 6.128 84.2255 5.92C84.0335 5.70667 83.7615 5.6 83.4095 5.6C83.1695 5.6 82.9588 5.65333 82.7775 5.76C82.6015 5.86133 82.4628 6.01067 82.3615 6.208C82.2602 6.4 82.2095 6.63467 82.2095 6.912V7C82.2095 7.30933 82.2628 7.56533 82.3695 7.768C82.4815 7.97067 82.6415 8.12267 82.8495 8.224C83.0628 8.32533 83.3188 8.376 83.6175 8.376C83.8362 8.376 84.0548 8.34933 84.2735 8.296C84.4975 8.23733 84.7055 8.13333 84.8975 7.984L85.1695 8.592C84.9615 8.75733 84.7162 8.88 84.4335 8.96C84.1508 9.03467 83.8708 9.072 83.5935 9.072ZM87.6317 9.072C87.2157 9.072 86.8984 8.95733 86.6797 8.728C86.461 8.49333 86.3517 8.16267 86.3517 7.736V3.36H87.2237V7.656C87.2237 7.81067 87.245 7.94133 87.2877 8.048C87.3357 8.15467 87.4024 8.23467 87.4877 8.288C87.573 8.34133 87.677 8.368 87.7997 8.368C87.8797 8.368 87.9544 8.36533 88.0237 8.36C88.093 8.34933 88.165 8.33333 88.2397 8.312L88.2717 8.976C88.1704 9.01333 88.069 9.03733 87.9677 9.048C87.8717 9.064 87.7597 9.072 87.6317 9.072ZM88.9434 4.152V3.232H89.9754V4.152H88.9434ZM89.0314 9V5.032H89.9034V9H89.0314ZM91.2501 9V5.032H92.0581V5.864H92.0661C92.1941 5.576 92.3835 5.352 92.6341 5.192C92.8901 5.032 93.1781 4.952 93.4981 4.952C93.8235 4.952 94.0955 5.01333 94.3141 5.136C94.5381 5.25333 94.7035 5.43467 94.8101 5.68C94.9221 5.92 94.9781 6.22667 94.9781 6.6V9H94.0981V6.64C94.0981 6.43733 94.0688 6.26667 94.0101 6.128C93.9568 5.984 93.8688 5.87467 93.7461 5.8C93.6235 5.72533 93.4608 5.688 93.2581 5.688C93.0395 5.688 92.8448 5.73867 92.6741 5.84C92.5035 5.936 92.3675 6.06933 92.2661 6.24C92.1701 6.40533 92.1221 6.592 92.1221 6.8V9H91.2501ZM98.0648 10.512C97.7448 10.512 97.4275 10.4667 97.1128 10.376C96.7981 10.2907 96.5288 10.168 96.3048 10.008L96.5608 9.344C96.7048 9.43467 96.8595 9.51467 97.0248 9.584C97.1901 9.65333 97.3581 9.704 97.5288 9.736C97.7048 9.77333 97.8728 9.792 98.0328 9.792C98.4435 9.792 98.7581 9.69333 98.9768 9.496C99.2008 9.304 99.3128 9.024 99.3128 8.656V8H99.2968C99.1955 8.256 99.0221 8.46667 98.7768 8.632C98.5315 8.792 98.2461 8.872 97.9208 8.872C97.5528 8.872 97.2301 8.792 96.9528 8.632C96.6755 8.46667 96.4595 8.23733 96.3048 7.944C96.1501 7.65067 96.0728 7.30667 96.0728 6.912C96.0728 6.52267 96.1501 6.18133 96.3048 5.888C96.4595 5.58933 96.6755 5.36 96.9528 5.2C97.2301 5.03467 97.5528 4.952 97.9208 4.952C98.2515 4.952 98.5395 5.03467 98.7848 5.2C99.0301 5.36533 99.2035 5.58667 99.3048 5.864H99.3128V5.032H100.137V8.584C100.137 8.984 100.054 9.328 99.8888 9.616C99.7235 9.904 99.4861 10.1253 99.1768 10.28C98.8675 10.4347 98.4968 10.512 98.0648 10.512ZM98.1128 8.176C98.4701 8.176 98.7528 8.06133 98.9608 7.832C99.1688 7.60267 99.2728 7.296 99.2728 6.912C99.2728 6.52267 99.1688 6.216 98.9608 5.992C98.7528 5.76267 98.4701 5.648 98.1128 5.648C97.7555 5.648 97.4701 5.76267 97.2568 5.992C97.0488 6.216 96.9448 6.52267 96.9448 6.912C96.9448 7.296 97.0488 7.60267 97.2568 7.832C97.4701 8.06133 97.7555 8.176 98.1128 8.176ZM102.741 10.552C102.341 9.98133 102.047 9.39467 101.861 8.792C101.679 8.18933 101.589 7.55733 101.589 6.896C101.589 6.23467 101.679 5.60533 101.861 5.008C102.047 4.40533 102.341 3.816 102.741 3.24L103.349 3.472C103.146 3.856 102.978 4.23733 102.845 4.616C102.717 4.98933 102.621 5.36533 102.557 5.744C102.493 6.12267 102.461 6.50667 102.461 6.896C102.461 7.28533 102.493 7.66933 102.557 8.048C102.621 8.42667 102.717 8.80267 102.845 9.176C102.978 9.54933 103.146 9.93067 103.349 10.32L102.741 10.552ZM104.425 9V3.36H105.305V9H104.425ZM106.902 9V3.36H107.862L109.806 7.2H109.75L111.686 3.36H112.63V9H111.79V4.64H111.822L110.078 8.096H109.462L107.702 4.64H107.742V9H106.902ZM114.23 9V3.36H115.11V8.232H117.902V9H114.23ZM119.06 10.552L118.452 10.32C118.655 9.93067 118.82 9.54667 118.948 9.168C119.081 8.79467 119.18 8.41867 119.244 8.04C119.308 7.66133 119.34 7.28 119.34 6.896C119.34 6.50667 119.308 6.12533 119.244 5.752C119.18 5.37333 119.081 4.99467 118.948 4.616C118.82 4.23733 118.655 3.856 118.452 3.472L119.06 3.24C119.46 3.81067 119.751 4.39733 119.932 5C120.119 5.60267 120.212 6.23467 120.212 6.896C120.212 7.55733 120.119 8.18933 119.932 8.792C119.751 9.38933 119.46 9.976 119.06 10.552Z" fill="black"/>
<path d="M34.832 22V16.36H37.152C37.5573 16.36 37.9013 16.4267 38.184 16.56C38.4667 16.6933 38.6827 16.888 38.832 17.144C38.9867 17.3947 39.064 17.6987 39.064 18.056C39.064 18.4133 38.9867 18.72 38.832 18.976C38.6827 19.232 38.464 19.4293 38.176 19.568C37.8933 19.7067 37.552 19.776 37.152 19.776H35.544V22H34.832ZM35.544 19.168H37.048C37.4747 19.168 37.7973 19.0773 38.016 18.896C38.2347 18.7093 38.344 18.432 38.344 18.064C38.344 17.6907 38.2347 17.416 38.016 17.24C37.7973 17.0587 37.4747 16.968 37.048 16.968H35.544V19.168ZM40.1261 22V18.048H40.7741V18.96H40.7821C40.8781 18.6667 41.0461 18.4373 41.2861 18.272C41.5261 18.1013 41.8194 18.0053 42.1661 17.984L42.5261 17.968L42.5901 18.616L42.0141 18.664C41.6461 18.696 41.3581 18.8187 41.1501 19.032C40.9421 19.24 40.8381 19.5013 40.8381 19.816V22H40.1261ZM45.3269 22.072C44.8843 22.072 44.5003 21.992 44.1749 21.832C43.8549 21.6667 43.6096 21.432 43.4389 21.128C43.2683 20.8187 43.1829 20.4507 43.1829 20.024C43.1829 19.624 43.2629 19.272 43.4229 18.968C43.5829 18.6587 43.8096 18.416 44.1029 18.24C44.3963 18.064 44.7456 17.976 45.1509 17.976C45.5349 17.976 45.8603 18.0587 46.1269 18.224C46.3989 18.3893 46.6043 18.6213 46.7429 18.92C46.8869 19.2187 46.9589 19.5733 46.9589 19.984V20.216H43.7189V19.72H46.4949L46.3429 19.88C46.3429 19.4427 46.2389 19.1067 46.0309 18.872C45.8283 18.6373 45.5349 18.52 45.1509 18.52C44.9003 18.52 44.6763 18.5787 44.4789 18.696C44.2869 18.808 44.1376 18.968 44.0309 19.176C43.9243 19.384 43.8709 19.6373 43.8709 19.936V20.016C43.8709 20.336 43.9296 20.6053 44.0469 20.824C44.1643 21.0427 44.3323 21.208 44.5509 21.32C44.7696 21.432 45.0309 21.488 45.3349 21.488C45.5536 21.488 45.7749 21.4587 45.9989 21.4C46.2283 21.336 46.4416 21.224 46.6389 21.064L46.8789 21.576C46.6763 21.7467 46.4336 21.872 46.1509 21.952C45.8736 22.032 45.5989 22.072 45.3269 22.072ZM48.1499 22V18.048H48.8059V18.912C48.8752 18.736 48.9712 18.5787 49.0939 18.44C49.2219 18.296 49.3739 18.184 49.5499 18.104C49.7312 18.0187 49.9285 17.976 50.1419 17.976C50.4885 17.976 50.7739 18.0613 50.9979 18.232C51.2219 18.4027 51.3605 18.6267 51.4139 18.904H51.4059C51.5125 18.6427 51.6805 18.424 51.9099 18.248C52.1445 18.0667 52.4379 17.976 52.7899 17.976C53.0885 17.976 53.3419 18.0347 53.5499 18.152C53.7579 18.264 53.9152 18.4373 54.0219 18.672C54.1285 18.9067 54.1819 19.2027 54.1819 19.56V22H53.4779V19.608C53.4779 19.2667 53.4165 19.0107 53.2939 18.84C53.1712 18.6693 52.9525 18.584 52.6379 18.584C52.4032 18.584 52.2005 18.6373 52.0299 18.744C51.8645 18.8453 51.7365 18.9893 51.6459 19.176C51.5605 19.3573 51.5179 19.5627 51.5179 19.792V22H50.8139V19.608C50.8139 19.272 50.7445 19.0187 50.6059 18.848C50.4672 18.672 50.2565 18.584 49.9739 18.584C49.7445 18.584 49.5445 18.6427 49.3739 18.76C49.2085 18.872 49.0805 19.0187 48.9899 19.2C48.8992 19.3813 48.8539 19.5733 48.8539 19.776V22H48.1499ZM55.5304 17.096V16.304H56.3944V17.096H55.5304ZM55.6104 22V18.048H56.3224V22H55.6104ZM59.2233 22.072C58.8979 22.072 58.6233 22.0133 58.3993 21.896C58.1753 21.7787 58.0073 21.6027 57.8953 21.368C57.7833 21.1333 57.7273 20.84 57.7273 20.488V18.048H58.4393V20.456C58.4393 20.6587 58.4686 20.8373 58.5273 20.992C58.5913 21.1413 58.6899 21.2587 58.8233 21.344C58.9619 21.424 59.1433 21.464 59.3673 21.464C59.5913 21.464 59.7939 21.4107 59.9753 21.304C60.1566 21.192 60.2979 21.048 60.3993 20.872C60.5006 20.6907 60.5513 20.4907 60.5513 20.272V18.048H61.2633V22H60.6073V21.128C60.4739 21.4213 60.2926 21.6533 60.0633 21.824C59.8339 21.9893 59.5539 22.072 59.2233 22.072ZM62.7046 22V18.048H63.3606V18.912C63.4299 18.736 63.5259 18.5787 63.6486 18.44C63.7766 18.296 63.9286 18.184 64.1046 18.104C64.2859 18.0187 64.4832 17.976 64.6966 17.976C65.0432 17.976 65.3286 18.0613 65.5526 18.232C65.7766 18.4027 65.9152 18.6267 65.9686 18.904H65.9606C66.0672 18.6427 66.2352 18.424 66.4646 18.248C66.6992 18.0667 66.9926 17.976 67.3446 17.976C67.6432 17.976 67.8966 18.0347 68.1046 18.152C68.3126 18.264 68.4699 18.4373 68.5766 18.672C68.6832 18.9067 68.7366 19.2027 68.7366 19.56V22H68.0326V19.608C68.0326 19.2667 67.9712 19.0107 67.8486 18.84C67.7259 18.6693 67.5072 18.584 67.1926 18.584C66.9579 18.584 66.7552 18.6373 66.5846 18.744C66.4192 18.8453 66.2912 18.9893 66.2006 19.176C66.1152 19.3573 66.0726 19.5627 66.0726 19.792V22H65.3686V19.608C65.3686 19.272 65.2992 19.0187 65.1606 18.848C65.0219 18.672 64.8112 18.584 64.5286 18.584C64.2992 18.584 64.0992 18.6427 63.9286 18.76C63.7632 18.872 63.6352 19.0187 63.5446 19.2C63.4539 19.3813 63.4086 19.5733 63.4086 19.776V22H62.7046ZM72.5195 22V16.36H76.1675V16.984H73.2315V18.864H76.0075V19.48H73.2315V22H72.5195ZM77.1476 17.096V16.304H78.0116V17.096H77.1476ZM77.2276 22V18.048H77.9396V22H77.2276ZM79.3604 22V18.048H80.0244V18.904C80.1524 18.6107 80.3444 18.384 80.6004 18.224C80.8564 18.0587 81.1444 17.976 81.4644 17.976C81.7898 17.976 82.0618 18.0347 82.2804 18.152C82.4991 18.264 82.6618 18.44 82.7684 18.68C82.8804 18.9147 82.9364 19.208 82.9364 19.56V22H82.2244V19.6C82.2244 19.3867 82.1951 19.2053 82.1364 19.056C82.0778 18.9067 81.9791 18.792 81.8404 18.712C81.7071 18.6267 81.5284 18.584 81.3044 18.584C81.0698 18.584 80.8564 18.6373 80.6644 18.744C80.4778 18.8507 80.3311 18.9947 80.2244 19.176C80.1231 19.3573 80.0724 19.56 80.0724 19.784V22H79.3604ZM84.2648 17.096V16.304H85.1288V17.096H84.2648ZM84.3448 22V18.048H85.0568V22H84.3448ZM87.9336 22.072C87.715 22.072 87.499 22.0507 87.2856 22.008C87.0776 21.9707 86.883 21.9173 86.7016 21.848C86.5256 21.7733 86.3736 21.6827 86.2456 21.576L86.4776 21.072C86.611 21.1733 86.7576 21.256 86.9176 21.32C87.083 21.384 87.251 21.432 87.4216 21.464C87.5976 21.4907 87.7656 21.504 87.9256 21.504C88.2563 21.504 88.5096 21.4533 88.6856 21.352C88.867 21.2507 88.9576 21.1093 88.9576 20.928C88.9576 20.7733 88.9043 20.656 88.7976 20.576C88.6963 20.4907 88.5256 20.4267 88.2856 20.384L87.4616 20.24C87.0936 20.1707 86.8163 20.0453 86.6296 19.864C86.4483 19.6827 86.3576 19.4453 86.3576 19.152C86.3576 18.9173 86.4216 18.712 86.5496 18.536C86.683 18.36 86.8723 18.224 87.1176 18.128C87.363 18.0267 87.6563 17.976 87.9976 17.976C88.1843 17.976 88.3736 17.9947 88.5656 18.032C88.763 18.0693 88.9443 18.1253 89.1096 18.2C89.2803 18.2693 89.419 18.3573 89.5256 18.464L89.2856 18.968C89.179 18.8667 89.051 18.7867 88.9016 18.728C88.7576 18.664 88.6056 18.6187 88.4456 18.592C88.291 18.56 88.139 18.544 87.9896 18.544C87.6803 18.544 87.4403 18.5973 87.2696 18.704C87.099 18.8053 87.0136 18.9493 87.0136 19.136C87.0136 19.2853 87.0616 19.4027 87.1576 19.488C87.259 19.5733 87.4216 19.6373 87.6456 19.68L88.4456 19.824C88.8403 19.8987 89.1336 20.024 89.3256 20.2C89.5176 20.3707 89.6136 20.608 89.6136 20.912C89.6136 21.1467 89.5443 21.352 89.4056 21.528C89.267 21.6987 89.0723 21.832 88.8216 21.928C88.571 22.024 88.275 22.072 87.9336 22.072ZM90.7901 22V16.36H91.4781V18.888C91.5955 18.6053 91.7795 18.384 92.0301 18.224C92.2861 18.0587 92.5741 17.976 92.8941 17.976C93.2195 17.976 93.4915 18.0347 93.7101 18.152C93.9288 18.264 94.0915 18.44 94.1981 18.68C94.3101 18.9147 94.3661 19.208 94.3661 19.56V22H93.6541V19.6C93.6541 19.3867 93.6221 19.2053 93.5581 19.056C93.4995 18.9067 93.4035 18.792 93.2701 18.712C93.1368 18.6267 92.9581 18.584 92.7341 18.584C92.4995 18.584 92.2888 18.6373 92.1021 18.744C91.9155 18.8507 91.7688 18.9947 91.6621 19.176C91.5555 19.3573 91.5021 19.56 91.5021 19.784V22H90.7901Z" fill="#A0A09E"/>
</svg>
