<svg width="190" height="34" viewBox="0 0 190 34" fill="none" xmlns="http://www.w3.org/2000/svg">
<g filter="url(#filter0_d_618_2)">
<path d="M6.472 19.1602L6.256 14.6722L14.296 6.20024H18.616L11.368 14.0002L9.208 16.3042L6.472 19.1602ZM2.992 23.0002V6.20024H6.856V23.0002H2.992ZM14.488 23.0002L8.512 15.6802L11.056 12.9202L19.024 23.0002H14.488ZM24.3336 12.9682H32.4216V15.9922H24.3336V12.9682ZM24.6216 19.8802H33.7656V23.0002H20.7576V6.20024H33.4536V9.32024H24.6216V19.8802ZM40.8711 23.0002V16.1362L41.7591 18.4882L34.3671 6.20024H38.4951L44.1591 15.6322H41.7831L47.4711 6.20024H51.2871L43.8951 18.4882L44.7591 16.1362V23.0002H40.8711ZM63.3108 13.7602H71.3748V16.8802H63.3108V13.7602ZM63.5988 23.0002H59.7108V6.20024H72.4068V9.32024H63.5988V23.0002ZM78.6149 12.9682H86.7029V15.9922H78.6149V12.9682ZM78.9029 19.8802H88.0469V23.0002H75.0389V6.20024H87.7349V9.32024H78.9029V19.8802ZM88.9324 23.0002L96.4204 6.20024H100.26L107.772 23.0002H103.692L97.5484 8.16824H99.0844L92.9164 23.0002H88.9324ZM92.6764 19.4002L93.7084 16.4482H102.348L103.404 19.4002H92.6764ZM112.152 23.0002V9.36824H106.776V6.20024H121.416V9.36824H116.04V23.0002H112.152ZM130.69 23.2882C128.306 23.2882 126.442 22.6242 125.098 21.2962C123.754 19.9682 123.082 18.0722 123.082 15.6082V6.20024H126.97V15.4642C126.97 17.0642 127.298 18.2162 127.954 18.9202C128.61 19.6242 129.53 19.9762 130.714 19.9762C131.898 19.9762 132.818 19.6242 133.474 18.9202C134.13 18.2162 134.458 17.0642 134.458 15.4642V6.20024H138.298V15.6082C138.298 18.0722 137.626 19.9682 136.282 21.2962C134.938 22.6242 133.074 23.2882 130.69 23.2882ZM142.14 23.0002V6.20024H149.412C150.916 6.20024 152.212 6.44824 153.3 6.94424C154.388 7.42424 155.228 8.12024 155.82 9.03224C156.412 9.94424 156.708 11.0322 156.708 12.2962C156.708 13.5442 156.412 14.6242 155.82 15.5362C155.228 16.4322 154.388 17.1202 153.3 17.6002C152.212 18.0802 150.916 18.3202 149.412 18.3202H144.3L146.028 16.6162V23.0002H142.14ZM152.82 23.0002L148.62 16.9042H152.772L157.02 23.0002H152.82ZM146.028 17.0482L144.3 15.2242H149.196C150.396 15.2242 151.292 14.9682 151.884 14.4562C152.476 13.9282 152.772 13.2082 152.772 12.2962C152.772 11.3682 152.476 10.6482 151.884 10.1362C151.292 9.62424 150.396 9.36824 149.196 9.36824H144.3L146.028 7.52024V17.0482ZM163.365 12.9682H171.453V15.9922H163.365V12.9682ZM163.653 19.8802H172.797V23.0002H159.789V6.20024H172.485V9.32024H163.653V19.8802ZM181.41 23.2882C180.066 23.2882 178.778 23.1122 177.546 22.7602C176.314 22.3922 175.322 21.9202 174.57 21.3442L175.89 18.4162C176.61 18.9282 177.458 19.3522 178.434 19.6882C179.426 20.0082 180.426 20.1682 181.434 20.1682C182.202 20.1682 182.818 20.0962 183.282 19.9522C183.762 19.7922 184.114 19.5762 184.338 19.3042C184.562 19.0322 184.674 18.7202 184.674 18.3682C184.674 17.9202 184.498 17.5682 184.146 17.3122C183.794 17.0402 183.33 16.8242 182.754 16.6642C182.178 16.4882 181.538 16.3282 180.834 16.1842C180.146 16.0242 179.45 15.8322 178.746 15.6082C178.058 15.3842 177.426 15.0962 176.85 14.7442C176.274 14.3922 175.802 13.9282 175.434 13.3522C175.082 12.7762 174.906 12.0402 174.906 11.1442C174.906 10.1842 175.162 9.31224 175.674 8.52824C176.202 7.72824 176.986 7.09624 178.026 6.63224C179.082 6.15224 180.402 5.91224 181.986 5.91224C183.042 5.91224 184.082 6.04024 185.106 6.29624C186.13 6.53624 187.034 6.90424 187.818 7.40024L186.618 10.3522C185.834 9.90424 185.05 9.57624 184.266 9.36824C183.482 9.14424 182.714 9.03224 181.962 9.03224C181.21 9.03224 180.594 9.12024 180.114 9.29624C179.634 9.47224 179.29 9.70424 179.082 9.99224C178.874 10.2642 178.77 10.5842 178.77 10.9522C178.77 11.3842 178.946 11.7362 179.298 12.0082C179.65 12.2642 180.114 12.4722 180.69 12.6322C181.266 12.7922 181.898 12.9522 182.586 13.1122C183.29 13.2722 183.986 13.4562 184.674 13.6642C185.378 13.8722 186.018 14.1522 186.594 14.5042C187.17 14.8562 187.634 15.3202 187.986 15.8962C188.354 16.4722 188.538 17.2002 188.538 18.0802C188.538 19.0242 188.274 19.8882 187.746 20.6722C187.218 21.4562 186.426 22.0882 185.37 22.5682C184.33 23.0482 183.01 23.2882 181.41 23.2882Z" fill="black"/>
</g>
<line x1="1" y1="33.5" x2="128" y2="33.5" stroke="#DC2827"/>
<defs>
<filter id="filter0_d_618_2" x="0.892187" y="4.81235" width="187.746" height="19.576" filterUnits="userSpaceOnUse" color-interpolation-filters="sRGB">
<feFlood flood-opacity="0" result="BackgroundImageFix"/>
<feColorMatrix in="SourceAlpha" type="matrix" values="0 0 0 0 0 0 0 0 0 0 0 0 0 0 0 0 0 0 127 0" result="hardAlpha"/>
<feOffset dx="-1"/>
<feGaussianBlur stdDeviation="0.55"/>
<feComposite in2="hardAlpha" operator="out"/>
<feColorMatrix type="matrix" values="0 0 0 0 0 0 0 0 0 0 0 0 0 0 0 0 0 0 0.22 0"/>
<feBlend mode="normal" in2="BackgroundImageFix" result="effect1_dropShadow_618_2"/>
<feBlend mode="normal" in="SourceGraphic" in2="effect1_dropShadow_618_2" result="shape"/>
</filter>
</defs>
</svg>
