<svg width="189" height="21" viewBox="0 0 189 21" fill="none" xmlns="http://www.w3.org/2000/svg">
<g filter="url(#filter0_d_539_5)">
<path d="M6.472 15.1602L6.256 10.6722L14.296 2.20024H18.616L11.368 10.0002L9.208 12.3042L6.472 15.1602ZM2.992 19.0002V2.20024H6.856V19.0002H2.992ZM14.488 19.0002L8.512 11.6802L11.056 8.92024L19.024 19.0002H14.488ZM24.3336 8.96824H32.4216V11.9922H24.3336V8.96824ZM24.6216 15.8802H33.7656V19.0002H20.7576V2.20024H33.4536V5.32024H24.6216V15.8802ZM40.8711 19.0002V12.1362L41.7591 14.4882L34.3671 2.20024H38.4951L44.1591 11.6322H41.7831L47.4711 2.20024H51.2871L43.8951 14.4882L44.7591 12.1362V19.0002H40.8711ZM63.3108 9.76024H71.3748V12.8802H63.3108V9.76024ZM63.5988 19.0002H59.7108V2.20024H72.4068V5.32024H63.5988V19.0002ZM78.6149 8.96824H86.7029V11.9922H78.6149V8.96824ZM78.9029 15.8802H88.0469V19.0002H75.0389V2.20024H87.7349V5.32024H78.9029V15.8802ZM88.9324 19.0002L96.4204 2.20024H100.26L107.772 19.0002H103.692L97.5484 4.16824H99.0844L92.9164 19.0002H88.9324ZM92.6764 15.4002L93.7084 12.4482H102.348L103.404 15.4002H92.6764ZM112.152 19.0002V5.36824H106.776V2.20024H121.416V5.36824H116.04V19.0002H112.152ZM130.69 19.2882C128.306 19.2882 126.442 18.6242 125.098 17.2962C123.754 15.9682 123.082 14.0722 123.082 11.6082V2.20024H126.97V11.4642C126.97 13.0642 127.298 14.2162 127.954 14.9202C128.61 15.6242 129.53 15.9762 130.714 15.9762C131.898 15.9762 132.818 15.6242 133.474 14.9202C134.13 14.2162 134.458 13.0642 134.458 11.4642V2.20024H138.298V11.6082C138.298 14.0722 137.626 15.9682 136.282 17.2962C134.938 18.6242 133.074 19.2882 130.69 19.2882ZM142.14 19.0002V2.20024H149.412C150.916 2.20024 152.212 2.44824 153.3 2.94424C154.388 3.42424 155.228 4.12024 155.82 5.03224C156.412 5.94424 156.708 7.03224 156.708 8.29624C156.708 9.54424 156.412 10.6242 155.82 11.5362C155.228 12.4322 154.388 13.1202 153.3 13.6002C152.212 14.0802 150.916 14.3202 149.412 14.3202H144.3L146.028 12.6162V19.0002H142.14ZM152.82 19.0002L148.62 12.9042H152.772L157.02 19.0002H152.82ZM146.028 13.0482L144.3 11.2242H149.196C150.396 11.2242 151.292 10.9682 151.884 10.4562C152.476 9.92824 152.772 9.20824 152.772 8.29624C152.772 7.36824 152.476 6.64824 151.884 6.13624C151.292 5.62424 150.396 5.36824 149.196 5.36824H144.3L146.028 3.52024V13.0482ZM163.365 8.96824H171.453V11.9922H163.365V8.96824ZM163.653 15.8802H172.797V19.0002H159.789V2.20024H172.485V5.32024H163.653V15.8802ZM181.41 19.2882C180.066 19.2882 178.778 19.1122 177.546 18.7602C176.314 18.3922 175.322 17.9202 174.57 17.3442L175.89 14.4162C176.61 14.9282 177.458 15.3522 178.434 15.6882C179.426 16.0082 180.426 16.1682 181.434 16.1682C182.202 16.1682 182.818 16.0962 183.282 15.9522C183.762 15.7922 184.114 15.5762 184.338 15.3042C184.562 15.0322 184.674 14.7202 184.674 14.3682C184.674 13.9202 184.498 13.5682 184.146 13.3122C183.794 13.0402 183.33 12.8242 182.754 12.6642C182.178 12.4882 181.538 12.3282 180.834 12.1842C180.146 12.0242 179.45 11.8322 178.746 11.6082C178.058 11.3842 177.426 11.0962 176.85 10.7442C176.274 10.3922 175.802 9.92824 175.434 9.35224C175.082 8.77624 174.906 8.04024 174.906 7.14424C174.906 6.18424 175.162 5.31224 175.674 4.52824C176.202 3.72824 176.986 3.09624 178.026 2.63224C179.082 2.15224 180.402 1.91224 181.986 1.91224C183.042 1.91224 184.082 2.04024 185.106 2.29624C186.13 2.53624 187.034 2.90424 187.818 3.40024L186.618 6.35224C185.834 5.90424 185.05 5.57624 184.266 5.36824C183.482 5.14424 182.714 5.03224 181.962 5.03224C181.21 5.03224 180.594 5.12024 180.114 5.29624C179.634 5.47224 179.29 5.70424 179.082 5.99224C178.874 6.26424 178.77 6.58424 178.77 6.95224C178.77 7.38424 178.946 7.73624 179.298 8.00824C179.65 8.26424 180.114 8.47224 180.69 8.63224C181.266 8.79224 181.898 8.95224 182.586 9.11224C183.29 9.27224 183.986 9.45624 184.674 9.66424C185.378 9.87224 186.018 10.1522 186.594 10.5042C187.17 10.8562 187.634 11.3202 187.986 11.8962C188.354 12.4722 188.538 13.2002 188.538 14.0802C188.538 15.0242 188.274 15.8882 187.746 16.6722C187.218 17.4562 186.426 18.0882 185.37 18.5682C184.33 19.0482 183.01 19.2882 181.41 19.2882Z" fill="black"/>
</g>
<defs>
<filter id="filter0_d_539_5" x="0.892187" y="0.812353" width="187.746" height="19.576" filterUnits="userSpaceOnUse" color-interpolation-filters="sRGB">
<feFlood flood-opacity="0" result="BackgroundImageFix"/>
<feColorMatrix in="SourceAlpha" type="matrix" values="0 0 0 0 0 0 0 0 0 0 0 0 0 0 0 0 0 0 127 0" result="hardAlpha"/>
<feOffset dx="-1"/>
<feGaussianBlur stdDeviation="0.55"/>
<feComposite in2="hardAlpha" operator="out"/>
<feColorMatrix type="matrix" values="0 0 0 0 0 0 0 0 0 0 0 0 0 0 0 0 0 0 0.22 0"/>
<feBlend mode="normal" in2="BackgroundImageFix" result="effect1_dropShadow_539_5"/>
<feBlend mode="normal" in="SourceGraphic" in2="effect1_dropShadow_539_5" result="shape"/>
</filter>
</defs>
</svg>
