<svg width="229" height="10" viewBox="0 0 229 10" fill="none" xmlns="http://www.w3.org/2000/svg">
<path d="M2.80133 8V1.87H0.401328V1H6.19133V1.87H3.79133V8H2.80133ZM7.01352 8V2.7H7.93352V4.14L7.84352 3.78C7.99018 3.41333 8.23685 3.13333 8.58352 2.94C8.93018 2.74667 9.35685 2.65 9.86352 2.65V3.58C9.82352 3.57333 9.78352 3.57 9.74352 3.57C9.71018 3.57 9.67685 3.57 9.64352 3.57C9.13018 3.57 8.72352 3.72333 8.42352 4.03C8.12352 4.33667 7.97352 4.78 7.97352 5.36V8H7.01352ZM13.3451 8.06C12.8917 8.06 12.4917 7.97667 12.1451 7.81C11.8051 7.64333 11.5384 7.39 11.3451 7.05C11.1584 6.70333 11.0651 6.27 11.0651 5.75V2.7H12.0251V5.64C12.0251 6.16 12.1484 6.55 12.3951 6.81C12.6484 7.07 13.0017 7.2 13.4551 7.2C13.7884 7.2 14.0784 7.13333 14.3251 7C14.5717 6.86 14.7617 6.66 14.8951 6.4C15.0284 6.13333 15.0951 5.81333 15.0951 5.44V2.7H16.0551V8H15.1451V6.57L15.2951 6.95C15.1217 7.30333 14.8617 7.57667 14.5151 7.77C14.1684 7.96333 13.7784 8.06 13.3451 8.06ZM19.4027 8.06C18.9627 8.06 18.5427 8 18.1427 7.88C17.7493 7.76 17.4393 7.61333 17.2127 7.44L17.6127 6.68C17.8393 6.83333 18.1193 6.96333 18.4527 7.07C18.786 7.17667 19.126 7.23 19.4727 7.23C19.9193 7.23 20.2393 7.16667 20.4327 7.04C20.6327 6.91333 20.7327 6.73667 20.7327 6.51C20.7327 6.34333 20.6727 6.21333 20.5527 6.12C20.4327 6.02667 20.2727 5.95667 20.0727 5.91C19.8793 5.86333 19.6627 5.82333 19.4227 5.79C19.1827 5.75 18.9427 5.70333 18.7027 5.65C18.4627 5.59 18.2427 5.51 18.0427 5.41C17.8427 5.30333 17.6827 5.16 17.5627 4.98C17.4427 4.79333 17.3827 4.54667 17.3827 4.24C17.3827 3.92 17.4727 3.64 17.6527 3.4C17.8327 3.16 18.086 2.97667 18.4127 2.85C18.746 2.71667 19.1393 2.65 19.5927 2.65C19.9393 2.65 20.2893 2.69333 20.6427 2.78C21.0027 2.86 21.296 2.97667 21.5227 3.13L21.1127 3.89C20.8727 3.73 20.6227 3.62 20.3627 3.56C20.1027 3.5 19.8427 3.47 19.5827 3.47C19.1627 3.47 18.8493 3.54 18.6427 3.68C18.436 3.81333 18.3327 3.98667 18.3327 4.2C18.3327 4.38 18.3927 4.52 18.5127 4.62C18.6393 4.71333 18.7993 4.78667 18.9927 4.84C19.1927 4.89333 19.4127 4.94 19.6527 4.98C19.8927 5.01333 20.1327 5.06 20.3727 5.12C20.6127 5.17333 20.8293 5.25 21.0227 5.35C21.2227 5.45 21.3827 5.59 21.5027 5.77C21.6293 5.95 21.6927 6.19 21.6927 6.49C21.6927 6.81 21.5993 7.08667 21.4127 7.32C21.226 7.55333 20.9627 7.73667 20.6227 7.87C20.2827 7.99667 19.876 8.06 19.4027 8.06ZM24.7124 8.06C24.1791 8.06 23.7658 7.91667 23.4724 7.63C23.1791 7.34333 23.0324 6.93333 23.0324 6.4V1.54H23.9924V6.36C23.9924 6.64667 24.0624 6.86667 24.2024 7.02C24.3491 7.17333 24.5558 7.25 24.8224 7.25C25.1224 7.25 25.3724 7.16667 25.5724 7L25.8724 7.69C25.7258 7.81667 25.5491 7.91 25.3424 7.97C25.1424 8.03 24.9324 8.06 24.7124 8.06ZM22.1324 3.49V2.7H25.5124V3.49H22.1324ZM29.2173 8.06C28.6506 8.06 28.1506 7.94333 27.7173 7.71C27.2906 7.47667 26.9573 7.15667 26.7173 6.75C26.4839 6.34333 26.3673 5.87667 26.3673 5.35C26.3673 4.82333 26.4806 4.35667 26.7073 3.95C26.9406 3.54333 27.2573 3.22667 27.6573 3C28.0639 2.76667 28.5206 2.65 29.0273 2.65C29.5406 2.65 29.9939 2.76333 30.3873 2.99C30.7806 3.21667 31.0873 3.53667 31.3073 3.95C31.5339 4.35667 31.6473 4.83333 31.6473 5.38C31.6473 5.42 31.6439 5.46667 31.6373 5.52C31.6373 5.57333 31.6339 5.62333 31.6273 5.67H27.1173V4.98H31.1273L30.7373 5.22C30.7439 4.88 30.6739 4.57667 30.5273 4.31C30.3806 4.04333 30.1773 3.83667 29.9173 3.69C29.6639 3.53667 29.3673 3.46 29.0273 3.46C28.6939 3.46 28.3973 3.53667 28.1373 3.69C27.8773 3.83667 27.6739 4.04667 27.5273 4.32C27.3806 4.58667 27.3073 4.89333 27.3073 5.24V5.4C27.3073 5.75333 27.3873 6.07 27.5473 6.35C27.7139 6.62333 27.9439 6.83667 28.2373 6.99C28.5306 7.14333 28.8673 7.22 29.2473 7.22C29.5606 7.22 29.8439 7.16667 30.0973 7.06C30.3573 6.95333 30.5839 6.79333 30.7773 6.58L31.3073 7.2C31.0673 7.48 30.7673 7.69333 30.4073 7.84C30.0539 7.98667 29.6573 8.06 29.2173 8.06ZM35.1703 8.06C34.657 8.06 34.197 7.94667 33.7903 7.72C33.3903 7.49333 33.0736 7.17667 32.8403 6.77C32.607 6.36333 32.4903 5.89 32.4903 5.35C32.4903 4.81 32.607 4.34 32.8403 3.94C33.0736 3.53333 33.3903 3.21667 33.7903 2.99C34.197 2.76333 34.657 2.65 35.1703 2.65C35.617 2.65 36.0203 2.75 36.3803 2.95C36.7403 3.15 37.027 3.45 37.2403 3.85C37.4603 4.25 37.5703 4.75 37.5703 5.35C37.5703 5.95 37.4636 6.45 37.2503 6.85C37.0436 7.25 36.7603 7.55333 36.4003 7.76C36.0403 7.96 35.6303 8.06 35.1703 8.06ZM35.2503 7.22C35.5836 7.22 35.8836 7.14333 36.1503 6.99C36.4236 6.83667 36.637 6.62 36.7903 6.34C36.9503 6.05333 37.0303 5.72333 37.0303 5.35C37.0303 4.97 36.9503 4.64333 36.7903 4.37C36.637 4.09 36.4236 3.87333 36.1503 3.72C35.8836 3.56667 35.5836 3.49 35.2503 3.49C34.9103 3.49 34.607 3.56667 34.3403 3.72C34.0736 3.87333 33.8603 4.09 33.7003 4.37C33.5403 4.64333 33.4603 4.97 33.4603 5.35C33.4603 5.72333 33.5403 6.05333 33.7003 6.34C33.8603 6.62 34.0736 6.83667 34.3403 6.99C34.607 7.14333 34.9103 7.22 35.2503 7.22ZM37.0603 8V6.57L37.1203 5.34L37.0203 4.11V0.58H37.9803V8H37.0603ZM42.6223 8V1H45.7623C46.5689 1 47.1889 1.16333 47.6223 1.49C48.0556 1.81 48.2723 2.25 48.2723 2.81C48.2723 3.19 48.1856 3.51 48.0123 3.77C47.8456 4.03 47.6189 4.23 47.3323 4.37C47.0456 4.51 46.7356 4.58 46.4023 4.58L46.5823 4.28C46.9823 4.28 47.3356 4.35 47.6423 4.49C47.9489 4.63 48.1923 4.83667 48.3723 5.11C48.5523 5.37667 48.6423 5.71 48.6423 6.11C48.6423 6.71 48.4156 7.17667 47.9623 7.51C47.5156 7.83667 46.8489 8 45.9623 8H42.6223ZM43.6223 7.19H45.9223C46.4756 7.19 46.8989 7.09667 47.1923 6.91C47.4856 6.72333 47.6323 6.43 47.6323 6.03C47.6323 5.62333 47.4856 5.32667 47.1923 5.14C46.8989 4.95333 46.4756 4.86 45.9223 4.86H43.5323V4.05H45.6723C46.1789 4.05 46.5723 3.95667 46.8523 3.77C47.1323 3.58333 47.2723 3.30333 47.2723 2.93C47.2723 2.55667 47.1323 2.27667 46.8523 2.09C46.5723 1.90333 46.1789 1.81 45.6723 1.81H43.6223V7.19ZM50.2806 10C50.0273 10 49.7806 9.95667 49.5406 9.87C49.3006 9.79 49.094 9.67 48.9206 9.51L49.3306 8.79C49.464 8.91667 49.6106 9.01333 49.7706 9.08C49.9306 9.14667 50.1006 9.18 50.2806 9.18C50.514 9.18 50.7073 9.12 50.8606 9C51.014 8.88 51.1573 8.66667 51.2906 8.36L51.6206 7.63L51.7206 7.51L53.8006 2.7H54.7406L52.1706 8.53C52.0173 8.90333 51.844 9.19667 51.6506 9.41C51.464 9.62333 51.2573 9.77333 51.0306 9.86C50.804 9.95333 50.554 10 50.2806 10ZM51.5406 8.17L49.1206 2.7H50.1206L52.1806 7.42L51.5406 8.17ZM58.4621 8V1H59.4621V7.13H63.2521V8H58.4621ZM66.5513 8.06C65.9846 8.06 65.4846 7.94333 65.0513 7.71C64.6246 7.47667 64.2913 7.15667 64.0513 6.75C63.8179 6.34333 63.7013 5.87667 63.7013 5.35C63.7013 4.82333 63.8146 4.35667 64.0413 3.95C64.2746 3.54333 64.5913 3.22667 64.9913 3C65.3979 2.76667 65.8546 2.65 66.3613 2.65C66.8746 2.65 67.3279 2.76333 67.7213 2.99C68.1146 3.21667 68.4213 3.53667 68.6413 3.95C68.8679 4.35667 68.9813 4.83333 68.9813 5.38C68.9813 5.42 68.9779 5.46667 68.9713 5.52C68.9713 5.57333 68.9679 5.62333 68.9613 5.67H64.4513V4.98H68.4613L68.0713 5.22C68.0779 4.88 68.0079 4.57667 67.8613 4.31C67.7146 4.04333 67.5113 3.83667 67.2513 3.69C66.9979 3.53667 66.7013 3.46 66.3613 3.46C66.0279 3.46 65.7313 3.53667 65.4713 3.69C65.2113 3.83667 65.0079 4.04667 64.8613 4.32C64.7146 4.58667 64.6413 4.89333 64.6413 5.24V5.4C64.6413 5.75333 64.7213 6.07 64.8813 6.35C65.0479 6.62333 65.2779 6.83667 65.5713 6.99C65.8646 7.14333 66.2013 7.22 66.5813 7.22C66.8946 7.22 67.1779 7.16667 67.4313 7.06C67.6913 6.95333 67.9179 6.79333 68.1113 6.58L68.6413 7.2C68.4013 7.48 68.1013 7.69333 67.7413 7.84C67.3879 7.98667 66.9913 8.06 66.5513 8.06ZM73.4578 8V6.88L73.4078 6.67V4.76C73.4078 4.35333 73.2878 4.04 73.0478 3.82C72.8145 3.59333 72.4611 3.48 71.9878 3.48C71.6745 3.48 71.3678 3.53333 71.0678 3.64C70.7678 3.74 70.5145 3.87667 70.3078 4.05L69.9078 3.33C70.1811 3.11 70.5078 2.94333 70.8878 2.83C71.2745 2.71 71.6778 2.65 72.0978 2.65C72.8245 2.65 73.3845 2.82667 73.7778 3.18C74.1711 3.53333 74.3678 4.07333 74.3678 4.8V8H73.4578ZM71.7178 8.06C71.3245 8.06 70.9778 7.99333 70.6778 7.86C70.3845 7.72667 70.1578 7.54333 69.9978 7.31C69.8378 7.07 69.7578 6.8 69.7578 6.5C69.7578 6.21333 69.8245 5.95333 69.9578 5.72C70.0978 5.48667 70.3211 5.3 70.6278 5.16C70.9411 5.02 71.3611 4.95 71.8878 4.95H73.5678V5.64H71.9278C71.4478 5.64 71.1245 5.72 70.9578 5.88C70.7911 6.04 70.7078 6.23333 70.7078 6.46C70.7078 6.72 70.8111 6.93 71.0178 7.09C71.2245 7.24333 71.5111 7.32 71.8778 7.32C72.2378 7.32 72.5511 7.24 72.8178 7.08C73.0911 6.92 73.2878 6.68667 73.4078 6.38L73.5978 7.04C73.4711 7.35333 73.2478 7.60333 72.9278 7.79C72.6078 7.97 72.2045 8.06 71.7178 8.06ZM78.3344 8.06C77.821 8.06 77.361 7.94667 76.9544 7.72C76.5544 7.49333 76.2377 7.17667 76.0044 6.77C75.771 6.36333 75.6544 5.89 75.6544 5.35C75.6544 4.81 75.771 4.34 76.0044 3.94C76.2377 3.53333 76.5544 3.21667 76.9544 2.99C77.361 2.76333 77.821 2.65 78.3344 2.65C78.781 2.65 79.1844 2.75 79.5444 2.95C79.9044 3.15 80.191 3.45 80.4044 3.85C80.6244 4.25 80.7344 4.75 80.7344 5.35C80.7344 5.95 80.6277 6.45 80.4144 6.85C80.2077 7.25 79.9244 7.55333 79.5644 7.76C79.2044 7.96 78.7944 8.06 78.3344 8.06ZM78.4144 7.22C78.7477 7.22 79.0477 7.14333 79.3144 6.99C79.5877 6.83667 79.801 6.62 79.9544 6.34C80.1144 6.05333 80.1944 5.72333 80.1944 5.35C80.1944 4.97 80.1144 4.64333 79.9544 4.37C79.801 4.09 79.5877 3.87333 79.3144 3.72C79.0477 3.56667 78.7477 3.49 78.4144 3.49C78.0744 3.49 77.771 3.56667 77.5044 3.72C77.2377 3.87333 77.0244 4.09 76.8644 4.37C76.7044 4.64333 76.6244 4.97 76.6244 5.35C76.6244 5.72333 76.7044 6.05333 76.8644 6.34C77.0244 6.62 77.2377 6.83667 77.5044 6.99C77.771 7.14333 78.0744 7.22 78.4144 7.22ZM80.2244 8V6.57L80.2844 5.34L80.1844 4.11V0.58H81.1444V8H80.2244ZM82.9608 8V2.7H83.9208V8H82.9608ZM83.4408 1.68C83.2541 1.68 83.0974 1.62 82.9708 1.5C82.8508 1.38 82.7908 1.23333 82.7908 1.06C82.7908 0.88 82.8508 0.73 82.9708 0.61C83.0974 0.49 83.2541 0.43 83.4408 0.43C83.6274 0.43 83.7808 0.49 83.9008 0.61C84.0274 0.723333 84.0908 0.866666 84.0908 1.04C84.0908 1.22 84.0308 1.37333 83.9108 1.5C83.7908 1.62 83.6341 1.68 83.4408 1.68ZM88.5838 2.65C89.0171 2.65 89.3971 2.73333 89.7238 2.9C90.0571 3.06667 90.3171 3.32 90.5038 3.66C90.6904 4 90.7838 4.43 90.7838 4.95V8H89.8238V5.06C89.8238 4.54667 89.6971 4.16 89.4438 3.9C89.1971 3.64 88.8471 3.51 88.3938 3.51C88.0538 3.51 87.7571 3.57667 87.5038 3.71C87.2504 3.84333 87.0538 4.04 86.9138 4.3C86.7804 4.56 86.7138 4.88333 86.7138 5.27V8H85.7538V2.7H86.6738V4.13L86.5238 3.75C86.6971 3.40333 86.9638 3.13333 87.3238 2.94C87.6838 2.74667 88.1038 2.65 88.5838 2.65ZM94.8804 10C94.3937 10 93.9204 9.93 93.4604 9.79C93.0071 9.65667 92.6371 9.46333 92.3504 9.21L92.8104 8.47C93.0571 8.68333 93.3604 8.85 93.7204 8.97C94.0804 9.09667 94.4571 9.16 94.8504 9.16C95.4771 9.16 95.9371 9.01333 96.2304 8.72C96.5237 8.42667 96.6704 7.98 96.6704 7.38V6.26L96.7704 5.21L96.7204 4.15V2.7H97.6304V7.28C97.6304 8.21333 97.3971 8.9 96.9304 9.34C96.4637 9.78 95.7804 10 94.8804 10ZM94.7604 7.78C94.2471 7.78 93.7871 7.67333 93.3804 7.46C92.9804 7.24 92.6604 6.93667 92.4204 6.55C92.1871 6.16333 92.0704 5.71667 92.0704 5.21C92.0704 4.69667 92.1871 4.25 92.4204 3.87C92.6604 3.48333 92.9804 3.18333 93.3804 2.97C93.7871 2.75667 94.2471 2.65 94.7604 2.65C95.2137 2.65 95.6271 2.74333 96.0004 2.93C96.3737 3.11 96.6704 3.39 96.8904 3.77C97.1171 4.15 97.2304 4.63 97.2304 5.21C97.2304 5.78333 97.1171 6.26 96.8904 6.64C96.6704 7.02 96.3737 7.30667 96.0004 7.5C95.6271 7.68667 95.2137 7.78 94.7604 7.78ZM94.8704 6.94C95.2237 6.94 95.5371 6.86667 95.8104 6.72C96.0837 6.57333 96.2971 6.37 96.4504 6.11C96.6104 5.85 96.6904 5.55 96.6904 5.21C96.6904 4.87 96.6104 4.57 96.4504 4.31C96.2971 4.05 96.0837 3.85 95.8104 3.71C95.5371 3.56333 95.2237 3.49 94.8704 3.49C94.5171 3.49 94.2004 3.56333 93.9204 3.71C93.6471 3.85 93.4304 4.05 93.2704 4.31C93.1171 4.57 93.0404 4.87 93.0404 5.21C93.0404 5.55 93.1171 5.85 93.2704 6.11C93.4304 6.37 93.6471 6.57333 93.9204 6.72C94.2004 6.86667 94.5171 6.94 94.8704 6.94ZM103.19 4.31H106.8V5.17H103.19V4.31ZM103.29 8H102.29V1H107.23V1.87H103.29V8ZM110.602 8.06C110.069 8.06 109.595 7.94333 109.182 7.71C108.769 7.47667 108.442 7.15667 108.202 6.75C107.962 6.33667 107.842 5.87 107.842 5.35C107.842 4.82333 107.962 4.35667 108.202 3.95C108.442 3.54333 108.769 3.22667 109.182 3C109.595 2.76667 110.069 2.65 110.602 2.65C111.129 2.65 111.599 2.76667 112.012 3C112.432 3.22667 112.759 3.54333 112.992 3.95C113.232 4.35 113.352 4.81667 113.352 5.35C113.352 5.87667 113.232 6.34333 112.992 6.75C112.759 7.15667 112.432 7.47667 112.012 7.71C111.599 7.94333 111.129 8.06 110.602 8.06ZM110.602 7.22C110.942 7.22 111.245 7.14333 111.512 6.99C111.785 6.83667 111.999 6.62 112.152 6.34C112.305 6.05333 112.382 5.72333 112.382 5.35C112.382 4.97 112.305 4.64333 112.152 4.37C111.999 4.09 111.785 3.87333 111.512 3.72C111.245 3.56667 110.942 3.49 110.602 3.49C110.262 3.49 109.959 3.56667 109.692 3.72C109.425 3.87333 109.212 4.09 109.052 4.37C108.892 4.64333 108.812 4.97 108.812 5.35C108.812 5.72333 108.892 6.05333 109.052 6.34C109.212 6.62 109.425 6.83667 109.692 6.99C109.959 7.14333 110.262 7.22 110.602 7.22ZM116.95 8.06C116.416 8.06 115.943 7.94333 115.53 7.71C115.116 7.47667 114.79 7.15667 114.55 6.75C114.31 6.33667 114.19 5.87 114.19 5.35C114.19 4.82333 114.31 4.35667 114.55 3.95C114.79 3.54333 115.116 3.22667 115.53 3C115.943 2.76667 116.416 2.65 116.95 2.65C117.476 2.65 117.946 2.76667 118.36 3C118.78 3.22667 119.106 3.54333 119.34 3.95C119.58 4.35 119.7 4.81667 119.7 5.35C119.7 5.87667 119.58 6.34333 119.34 6.75C119.106 7.15667 118.78 7.47667 118.36 7.71C117.946 7.94333 117.476 8.06 116.95 8.06ZM116.95 7.22C117.29 7.22 117.593 7.14333 117.86 6.99C118.133 6.83667 118.346 6.62 118.5 6.34C118.653 6.05333 118.73 5.72333 118.73 5.35C118.73 4.97 118.653 4.64333 118.5 4.37C118.346 4.09 118.133 3.87333 117.86 3.72C117.593 3.56667 117.29 3.49 116.95 3.49C116.61 3.49 116.306 3.56667 116.04 3.72C115.773 3.87333 115.56 4.09 115.4 4.37C115.24 4.64333 115.16 4.97 115.16 5.35C115.16 5.72333 115.24 6.05333 115.4 6.34C115.56 6.62 115.773 6.83667 116.04 6.99C116.306 7.14333 116.61 7.22 116.95 7.22ZM123.217 8.06C122.704 8.06 122.244 7.94667 121.837 7.72C121.437 7.49333 121.121 7.17667 120.887 6.77C120.654 6.36333 120.537 5.89 120.537 5.35C120.537 4.81 120.654 4.34 120.887 3.94C121.121 3.53333 121.437 3.21667 121.837 2.99C122.244 2.76333 122.704 2.65 123.217 2.65C123.664 2.65 124.067 2.75 124.427 2.95C124.787 3.15 125.074 3.45 125.287 3.85C125.507 4.25 125.617 4.75 125.617 5.35C125.617 5.95 125.511 6.45 125.297 6.85C125.091 7.25 124.807 7.55333 124.447 7.76C124.087 7.96 123.677 8.06 123.217 8.06ZM123.297 7.22C123.631 7.22 123.931 7.14333 124.197 6.99C124.471 6.83667 124.684 6.62 124.837 6.34C124.997 6.05333 125.077 5.72333 125.077 5.35C125.077 4.97 124.997 4.64333 124.837 4.37C124.684 4.09 124.471 3.87333 124.197 3.72C123.931 3.56667 123.631 3.49 123.297 3.49C122.957 3.49 122.654 3.56667 122.387 3.72C122.121 3.87333 121.907 4.09 121.747 4.37C121.587 4.64333 121.507 4.97 121.507 5.35C121.507 5.72333 121.587 6.05333 121.747 6.34C121.907 6.62 122.121 6.83667 122.387 6.99C122.654 7.14333 122.957 7.22 123.297 7.22ZM125.107 8V6.57L125.167 5.34L125.067 4.11V0.58H126.027V8H125.107ZM130.669 8V1H133.809C134.616 1 135.236 1.16333 135.669 1.49C136.102 1.81 136.319 2.25 136.319 2.81C136.319 3.19 136.232 3.51 136.059 3.77C135.892 4.03 135.666 4.23 135.379 4.37C135.092 4.51 134.782 4.58 134.449 4.58L134.629 4.28C135.029 4.28 135.382 4.35 135.689 4.49C135.996 4.63 136.239 4.83667 136.419 5.11C136.599 5.37667 136.689 5.71 136.689 6.11C136.689 6.71 136.462 7.17667 136.009 7.51C135.562 7.83667 134.896 8 134.009 8H130.669ZM131.669 7.19H133.969C134.522 7.19 134.946 7.09667 135.239 6.91C135.532 6.72333 135.679 6.43 135.679 6.03C135.679 5.62333 135.532 5.32667 135.239 5.14C134.946 4.95333 134.522 4.86 133.969 4.86H131.579V4.05H133.719C134.226 4.05 134.619 3.95667 134.899 3.77C135.179 3.58333 135.319 3.30333 135.319 2.93C135.319 2.55667 135.179 2.27667 134.899 2.09C134.619 1.90333 134.226 1.81 133.719 1.81H131.669V7.19ZM138.098 8V2.7H139.018V4.14L138.928 3.78C139.074 3.41333 139.321 3.13333 139.668 2.94C140.014 2.74667 140.441 2.65 140.948 2.65V3.58C140.908 3.57333 140.868 3.57 140.828 3.57C140.794 3.57 140.761 3.57 140.728 3.57C140.214 3.57 139.808 3.72333 139.508 4.03C139.208 4.33667 139.058 4.78 139.058 5.36V8H138.098ZM145.03 8V6.88L144.98 6.67V4.76C144.98 4.35333 144.86 4.04 144.62 3.82C144.387 3.59333 144.033 3.48 143.56 3.48C143.247 3.48 142.94 3.53333 142.64 3.64C142.34 3.74 142.087 3.87667 141.88 4.05L141.48 3.33C141.753 3.11 142.08 2.94333 142.46 2.83C142.847 2.71 143.25 2.65 143.67 2.65C144.397 2.65 144.957 2.82667 145.35 3.18C145.743 3.53333 145.94 4.07333 145.94 4.8V8H145.03ZM143.29 8.06C142.897 8.06 142.55 7.99333 142.25 7.86C141.957 7.72667 141.73 7.54333 141.57 7.31C141.41 7.07 141.33 6.8 141.33 6.5C141.33 6.21333 141.397 5.95333 141.53 5.72C141.67 5.48667 141.893 5.3 142.2 5.16C142.513 5.02 142.933 4.95 143.46 4.95H145.14V5.64H143.5C143.02 5.64 142.697 5.72 142.53 5.88C142.363 6.04 142.28 6.23333 142.28 6.46C142.28 6.72 142.383 6.93 142.59 7.09C142.797 7.24333 143.083 7.32 143.45 7.32C143.81 7.32 144.123 7.24 144.39 7.08C144.663 6.92 144.86 6.68667 144.98 6.38L145.17 7.04C145.043 7.35333 144.82 7.60333 144.5 7.79C144.18 7.97 143.777 8.06 143.29 8.06ZM150.547 2.65C150.98 2.65 151.36 2.73333 151.687 2.9C152.02 3.06667 152.28 3.32 152.467 3.66C152.653 4 152.747 4.43 152.747 4.95V8H151.787V5.06C151.787 4.54667 151.66 4.16 151.407 3.9C151.16 3.64 150.81 3.51 150.357 3.51C150.017 3.51 149.72 3.57667 149.467 3.71C149.213 3.84333 149.017 4.04 148.877 4.3C148.743 4.56 148.677 4.88333 148.677 5.27V8H147.717V2.7H148.637V4.13L148.487 3.75C148.66 3.40333 148.927 3.13333 149.287 2.94C149.647 2.74667 150.067 2.65 150.547 2.65ZM156.713 8.06C156.2 8.06 155.74 7.94667 155.333 7.72C154.933 7.49333 154.617 7.17667 154.383 6.77C154.15 6.36333 154.033 5.89 154.033 5.35C154.033 4.81 154.15 4.34 154.383 3.94C154.617 3.53333 154.933 3.21667 155.333 2.99C155.74 2.76333 156.2 2.65 156.713 2.65C157.16 2.65 157.563 2.75 157.923 2.95C158.283 3.15 158.57 3.45 158.783 3.85C159.003 4.25 159.113 4.75 159.113 5.35C159.113 5.95 159.007 6.45 158.793 6.85C158.587 7.25 158.303 7.55333 157.943 7.76C157.583 7.96 157.173 8.06 156.713 8.06ZM156.793 7.22C157.127 7.22 157.427 7.14333 157.693 6.99C157.967 6.83667 158.18 6.62 158.333 6.34C158.493 6.05333 158.573 5.72333 158.573 5.35C158.573 4.97 158.493 4.64333 158.333 4.37C158.18 4.09 157.967 3.87333 157.693 3.72C157.427 3.56667 157.127 3.49 156.793 3.49C156.453 3.49 156.15 3.56667 155.883 3.72C155.617 3.87333 155.403 4.09 155.243 4.37C155.083 4.64333 155.003 4.97 155.003 5.35C155.003 5.72333 155.083 6.05333 155.243 6.34C155.403 6.62 155.617 6.83667 155.883 6.99C156.15 7.14333 156.453 7.22 156.793 7.22ZM158.603 8V6.57L158.663 5.34L158.563 4.11V0.58H159.523V8H158.603ZM162.86 8.06C162.42 8.06 162 8 161.6 7.88C161.206 7.76 160.896 7.61333 160.67 7.44L161.07 6.68C161.296 6.83333 161.576 6.96333 161.91 7.07C162.243 7.17667 162.583 7.23 162.93 7.23C163.376 7.23 163.696 7.16667 163.89 7.04C164.09 6.91333 164.19 6.73667 164.19 6.51C164.19 6.34333 164.13 6.21333 164.01 6.12C163.89 6.02667 163.73 5.95667 163.53 5.91C163.336 5.86333 163.12 5.82333 162.88 5.79C162.64 5.75 162.4 5.70333 162.16 5.65C161.92 5.59 161.7 5.51 161.5 5.41C161.3 5.30333 161.14 5.16 161.02 4.98C160.9 4.79333 160.84 4.54667 160.84 4.24C160.84 3.92 160.93 3.64 161.11 3.4C161.29 3.16 161.543 2.97667 161.87 2.85C162.203 2.71667 162.596 2.65 163.05 2.65C163.396 2.65 163.746 2.69333 164.1 2.78C164.46 2.86 164.753 2.97667 164.98 3.13L164.57 3.89C164.33 3.73 164.08 3.62 163.82 3.56C163.56 3.5 163.3 3.47 163.04 3.47C162.62 3.47 162.306 3.54 162.1 3.68C161.893 3.81333 161.79 3.98667 161.79 4.2C161.79 4.38 161.85 4.52 161.97 4.62C162.096 4.71333 162.256 4.78667 162.45 4.84C162.65 4.89333 162.87 4.94 163.11 4.98C163.35 5.01333 163.59 5.06 163.83 5.12C164.07 5.17333 164.286 5.25 164.48 5.35C164.68 5.45 164.84 5.59 164.96 5.77C165.086 5.95 165.15 6.19 165.15 6.49C165.15 6.81 165.056 7.08667 164.87 7.32C164.683 7.55333 164.42 7.73667 164.08 7.87C163.74 7.99667 163.333 8.06 162.86 8.06ZM168.115 8L171.285 1H172.275L175.455 8H174.405L171.575 1.56H171.975L169.145 8H168.115ZM169.465 6.25L169.735 5.45H173.675L173.965 6.25H169.465ZM178.62 8.06C178.08 8.06 177.597 7.94333 177.17 7.71C176.75 7.47667 176.42 7.15667 176.18 6.75C175.94 6.34333 175.82 5.87667 175.82 5.35C175.82 4.82333 175.94 4.35667 176.18 3.95C176.42 3.54333 176.75 3.22667 177.17 3C177.597 2.76667 178.08 2.65 178.62 2.65C179.1 2.65 179.527 2.74667 179.9 2.94C180.28 3.12667 180.574 3.40667 180.78 3.78L180.05 4.25C179.877 3.99 179.664 3.8 179.41 3.68C179.164 3.55333 178.897 3.49 178.61 3.49C178.264 3.49 177.954 3.56667 177.68 3.72C177.407 3.87333 177.19 4.09 177.03 4.37C176.87 4.64333 176.79 4.97 176.79 5.35C176.79 5.73 176.87 6.06 177.03 6.34C177.19 6.62 177.407 6.83667 177.68 6.99C177.954 7.14333 178.264 7.22 178.61 7.22C178.897 7.22 179.164 7.16 179.41 7.04C179.664 6.91333 179.877 6.72 180.05 6.46L180.78 6.92C180.574 7.28667 180.28 7.57 179.9 7.77C179.527 7.96333 179.1 8.06 178.62 8.06ZM182.023 8V2.7H182.943V4.14L182.853 3.78C183 3.41333 183.247 3.13333 183.593 2.94C183.94 2.74667 184.367 2.65 184.873 2.65V3.58C184.833 3.57333 184.793 3.57 184.753 3.57C184.72 3.57 184.687 3.57 184.653 3.57C184.14 3.57 183.733 3.72333 183.433 4.03C183.133 4.33667 182.983 4.78 182.983 5.36V8H182.023ZM188.278 8.06C187.744 8.06 187.271 7.94333 186.858 7.71C186.444 7.47667 186.118 7.15667 185.878 6.75C185.638 6.33667 185.518 5.87 185.518 5.35C185.518 4.82333 185.638 4.35667 185.878 3.95C186.118 3.54333 186.444 3.22667 186.858 3C187.271 2.76667 187.744 2.65 188.278 2.65C188.804 2.65 189.274 2.76667 189.688 3C190.108 3.22667 190.434 3.54333 190.668 3.95C190.908 4.35 191.028 4.81667 191.028 5.35C191.028 5.87667 190.908 6.34333 190.668 6.75C190.434 7.15667 190.108 7.47667 189.688 7.71C189.274 7.94333 188.804 8.06 188.278 8.06ZM188.278 7.22C188.618 7.22 188.921 7.14333 189.188 6.99C189.461 6.83667 189.674 6.62 189.828 6.34C189.981 6.05333 190.058 5.72333 190.058 5.35C190.058 4.97 189.981 4.64333 189.828 4.37C189.674 4.09 189.461 3.87333 189.188 3.72C188.921 3.56667 188.618 3.49 188.278 3.49C187.938 3.49 187.634 3.56667 187.368 3.72C187.101 3.87333 186.888 4.09 186.728 4.37C186.568 4.64333 186.488 4.97 186.488 5.35C186.488 5.72333 186.568 6.05333 186.728 6.34C186.888 6.62 187.101 6.83667 187.368 6.99C187.634 7.14333 187.938 7.22 188.278 7.22ZM193.875 8.06C193.435 8.06 193.015 8 192.615 7.88C192.222 7.76 191.912 7.61333 191.685 7.44L192.085 6.68C192.312 6.83333 192.592 6.96333 192.925 7.07C193.259 7.17667 193.599 7.23 193.945 7.23C194.392 7.23 194.712 7.16667 194.905 7.04C195.105 6.91333 195.205 6.73667 195.205 6.51C195.205 6.34333 195.145 6.21333 195.025 6.12C194.905 6.02667 194.745 5.95667 194.545 5.91C194.352 5.86333 194.135 5.82333 193.895 5.79C193.655 5.75 193.415 5.70333 193.175 5.65C192.935 5.59 192.715 5.51 192.515 5.41C192.315 5.30333 192.155 5.16 192.035 4.98C191.915 4.79333 191.855 4.54667 191.855 4.24C191.855 3.92 191.945 3.64 192.125 3.4C192.305 3.16 192.559 2.97667 192.885 2.85C193.219 2.71667 193.612 2.65 194.065 2.65C194.412 2.65 194.762 2.69333 195.115 2.78C195.475 2.86 195.769 2.97667 195.995 3.13L195.585 3.89C195.345 3.73 195.095 3.62 194.835 3.56C194.575 3.5 194.315 3.47 194.055 3.47C193.635 3.47 193.322 3.54 193.115 3.68C192.909 3.81333 192.805 3.98667 192.805 4.2C192.805 4.38 192.865 4.52 192.985 4.62C193.112 4.71333 193.272 4.78667 193.465 4.84C193.665 4.89333 193.885 4.94 194.125 4.98C194.365 5.01333 194.605 5.06 194.845 5.12C195.085 5.17333 195.302 5.25 195.495 5.35C195.695 5.45 195.855 5.59 195.975 5.77C196.102 5.95 196.165 6.19 196.165 6.49C196.165 6.81 196.072 7.08667 195.885 7.32C195.699 7.55333 195.435 7.73667 195.095 7.87C194.755 7.99667 194.349 8.06 193.875 8.06ZM198.885 8.06C198.445 8.06 198.025 8 197.625 7.88C197.232 7.76 196.922 7.61333 196.695 7.44L197.095 6.68C197.322 6.83333 197.602 6.96333 197.935 7.07C198.268 7.17667 198.608 7.23 198.955 7.23C199.402 7.23 199.722 7.16667 199.915 7.04C200.115 6.91333 200.215 6.73667 200.215 6.51C200.215 6.34333 200.155 6.21333 200.035 6.12C199.915 6.02667 199.755 5.95667 199.555 5.91C199.362 5.86333 199.145 5.82333 198.905 5.79C198.665 5.75 198.425 5.70333 198.185 5.65C197.945 5.59 197.725 5.51 197.525 5.41C197.325 5.30333 197.165 5.16 197.045 4.98C196.925 4.79333 196.865 4.54667 196.865 4.24C196.865 3.92 196.955 3.64 197.135 3.4C197.315 3.16 197.568 2.97667 197.895 2.85C198.228 2.71667 198.622 2.65 199.075 2.65C199.422 2.65 199.772 2.69333 200.125 2.78C200.485 2.86 200.778 2.97667 201.005 3.13L200.595 3.89C200.355 3.73 200.105 3.62 199.845 3.56C199.585 3.5 199.325 3.47 199.065 3.47C198.645 3.47 198.332 3.54 198.125 3.68C197.918 3.81333 197.815 3.98667 197.815 4.2C197.815 4.38 197.875 4.52 197.995 4.62C198.122 4.71333 198.282 4.78667 198.475 4.84C198.675 4.89333 198.895 4.94 199.135 4.98C199.375 5.01333 199.615 5.06 199.855 5.12C200.095 5.17333 200.312 5.25 200.505 5.35C200.705 5.45 200.865 5.59 200.985 5.77C201.112 5.95 201.175 6.19 201.175 6.49C201.175 6.81 201.082 7.08667 200.895 7.32C200.708 7.55333 200.445 7.73667 200.105 7.87C199.765 7.99667 199.358 8.06 198.885 8.06ZM205.2 8V1H206.2V8H205.2ZM210.986 2.65C211.419 2.65 211.799 2.73333 212.126 2.9C212.459 3.06667 212.719 3.32 212.906 3.66C213.093 4 213.186 4.43 213.186 4.95V8H212.226V5.06C212.226 4.54667 212.099 4.16 211.846 3.9C211.599 3.64 211.249 3.51 210.796 3.51C210.456 3.51 210.159 3.57667 209.906 3.71C209.653 3.84333 209.456 4.04 209.316 4.3C209.183 4.56 209.116 4.88333 209.116 5.27V8H208.156V2.7H209.076V4.13L208.926 3.75C209.099 3.40333 209.366 3.13333 209.726 2.94C210.086 2.74667 210.506 2.65 210.986 2.65ZM217.153 8.06C216.639 8.06 216.179 7.94667 215.773 7.72C215.373 7.49333 215.056 7.17667 214.823 6.77C214.589 6.36333 214.473 5.89 214.473 5.35C214.473 4.81 214.589 4.34 214.823 3.94C215.056 3.53333 215.373 3.21667 215.773 2.99C216.179 2.76333 216.639 2.65 217.153 2.65C217.599 2.65 218.003 2.75 218.363 2.95C218.723 3.15 219.009 3.45 219.223 3.85C219.443 4.25 219.553 4.75 219.553 5.35C219.553 5.95 219.446 6.45 219.233 6.85C219.026 7.25 218.743 7.55333 218.383 7.76C218.023 7.96 217.613 8.06 217.153 8.06ZM217.233 7.22C217.566 7.22 217.866 7.14333 218.133 6.99C218.406 6.83667 218.619 6.62 218.773 6.34C218.933 6.05333 219.013 5.72333 219.013 5.35C219.013 4.97 218.933 4.64333 218.773 4.37C218.619 4.09 218.406 3.87333 218.133 3.72C217.866 3.56667 217.566 3.49 217.233 3.49C216.893 3.49 216.589 3.56667 216.323 3.72C216.056 3.87333 215.843 4.09 215.683 4.37C215.523 4.64333 215.443 4.97 215.443 5.35C215.443 5.72333 215.523 6.05333 215.683 6.34C215.843 6.62 216.056 6.83667 216.323 6.99C216.589 7.14333 216.893 7.22 217.233 7.22ZM219.043 8V6.57L219.103 5.34L219.003 4.11V0.58H219.963V8H219.043ZM221.779 8V2.7H222.739V8H221.779ZM222.259 1.68C222.072 1.68 221.916 1.62 221.789 1.5C221.669 1.38 221.609 1.23333 221.609 1.06C221.609 0.88 221.669 0.73 221.789 0.61C221.916 0.49 222.072 0.43 222.259 0.43C222.446 0.43 222.599 0.49 222.719 0.61C222.846 0.723333 222.909 0.866666 222.909 1.04C222.909 1.22 222.849 1.37333 222.729 1.5C222.609 1.62 222.452 1.68 222.259 1.68ZM227.862 8V6.88L227.812 6.67V4.76C227.812 4.35333 227.692 4.04 227.452 3.82C227.219 3.59333 226.865 3.48 226.392 3.48C226.079 3.48 225.772 3.53333 225.472 3.64C225.172 3.74 224.919 3.87667 224.712 4.05L224.312 3.33C224.585 3.11 224.912 2.94333 225.292 2.83C225.679 2.71 226.082 2.65 226.502 2.65C227.229 2.65 227.789 2.82667 228.182 3.18C228.575 3.53333 228.772 4.07333 228.772 4.8V8H227.862ZM226.122 8.06C225.729 8.06 225.382 7.99333 225.082 7.86C224.789 7.72667 224.562 7.54333 224.402 7.31C224.242 7.07 224.162 6.8 224.162 6.5C224.162 6.21333 224.229 5.95333 224.362 5.72C224.502 5.48667 224.725 5.3 225.032 5.16C225.345 5.02 225.765 4.95 226.292 4.95H227.972V5.64H226.332C225.852 5.64 225.529 5.72 225.362 5.88C225.195 6.04 225.112 6.23333 225.112 6.46C225.112 6.72 225.215 6.93 225.422 7.09C225.629 7.24333 225.915 7.32 226.282 7.32C226.642 7.32 226.955 7.24 227.222 7.08C227.495 6.92 227.692 6.68667 227.812 6.38L228.002 7.04C227.875 7.35333 227.652 7.60333 227.332 7.79C227.012 7.97 226.609 8.06 226.122 8.06Z" fill="#666666"/>
</svg>
