<svg width="135" height="14" viewBox="0 0 135 14" fill="none" xmlns="http://www.w3.org/2000/svg">
<path d="M5.13009 13.0324C4.12209 13.0324 3.15609 12.9004 2.23209 12.6364C1.30809 12.3604 0.564094 12.0064 9.37656e-05 11.5744L0.990094 9.37841C1.53009 9.76241 2.16609 10.0804 2.89809 10.3324C3.64209 10.5724 4.39209 10.6924 5.14809 10.6924C5.72409 10.6924 6.18609 10.6384 6.53409 10.5304C6.89409 10.4104 7.15809 10.2484 7.32609 10.0444C7.49409 9.84041 7.57809 9.60641 7.57809 9.34241C7.57809 9.00641 7.44609 8.74241 7.18209 8.55041C6.91809 8.34641 6.57009 8.18441 6.13809 8.06441C5.70609 7.93241 5.22609 7.81241 4.69809 7.70441C4.18209 7.58441 3.66009 7.44041 3.13209 7.27241C2.61609 7.10441 2.14209 6.88841 1.71009 6.62441C1.27809 6.36041 0.924094 6.01241 0.648094 5.58041C0.384094 5.14841 0.252094 4.59641 0.252094 3.92441C0.252094 3.20441 0.444094 2.55041 0.828094 1.96241C1.22409 1.36241 1.81209 0.888405 2.59209 0.540406C3.38409 0.180406 4.37409 0.000406027 5.56209 0.000406027C6.35409 0.000406027 7.13409 0.0964059 7.90209 0.288406C8.67009 0.468405 9.34809 0.744405 9.93609 1.11641L9.03609 3.33041C8.44809 2.99441 7.86009 2.74841 7.27209 2.59241C6.68409 2.42441 6.10809 2.34041 5.54409 2.34041C4.98009 2.34041 4.51809 2.40641 4.15809 2.53841C3.79809 2.67041 3.54009 2.84441 3.38409 3.06041C3.22809 3.26441 3.15009 3.50441 3.15009 3.78041C3.15009 4.10441 3.28209 4.36841 3.54609 4.57241C3.81009 4.76441 4.15809 4.92041 4.59009 5.04041C5.02209 5.16041 5.49609 5.28041 6.01209 5.40041C6.54009 5.52041 7.06209 5.65841 7.57809 5.81441C8.10609 5.97041 8.58609 6.18041 9.01809 6.44441C9.45009 6.70841 9.79809 7.05641 10.0621 7.48841C10.3381 7.92041 10.4761 8.46641 10.4761 9.12641C10.4761 9.83441 10.2781 10.4824 9.88209 11.0704C9.48609 11.6584 8.89209 12.1324 8.10009 12.4924C7.32009 12.8524 6.33009 13.0324 5.13009 13.0324ZM12.4686 12.8164V0.216405H15.3846V12.8164H12.4686ZM18.3749 12.8164V0.216405H23.8289C24.9569 0.216405 25.9289 0.402406 26.7449 0.774406C27.5609 1.13441 28.1909 1.65641 28.6349 2.34041C29.0789 3.02441 29.3009 3.84041 29.3009 4.78841C29.3009 5.72441 29.0789 6.53441 28.6349 7.21841C28.1909 7.90241 27.5609 8.43041 26.7449 8.80241C25.9289 9.16241 24.9569 9.34241 23.8289 9.34241H19.9949L21.2909 8.02841V12.8164H18.3749ZM21.2909 8.35241L19.9949 6.96641H23.6669C24.5669 6.96641 25.2389 6.77441 25.6829 6.39041C26.1269 6.00641 26.3489 5.47241 26.3489 4.78841C26.3489 4.09241 26.1269 3.55241 25.6829 3.16841C25.2389 2.78441 24.5669 2.59241 23.6669 2.59241H19.9949L21.2909 1.20641V8.35241ZM31.3827 12.8164V0.216405H36.8367C37.9647 0.216405 38.9367 0.402406 39.7527 0.774406C40.5687 1.13441 41.1987 1.65641 41.6427 2.34041C42.0867 3.02441 42.3087 3.84041 42.3087 4.78841C42.3087 5.72441 42.0867 6.53441 41.6427 7.21841C41.1987 7.90241 40.5687 8.43041 39.7527 8.80241C38.9367 9.16241 37.9647 9.34241 36.8367 9.34241H33.0027L34.2987 8.02841V12.8164H31.3827ZM34.2987 8.35241L33.0027 6.96641H36.6747C37.5747 6.96641 38.2467 6.77441 38.6907 6.39041C39.1347 6.00641 39.3567 5.47241 39.3567 4.78841C39.3567 4.09241 39.1347 3.55241 38.6907 3.16841C38.2467 2.78441 37.5747 2.59241 36.6747 2.59241H33.0027L34.2987 1.20641V8.35241ZM47.0725 5.29241H53.1385V7.56041H47.0725V5.29241ZM47.2885 10.4764H54.1465V12.8164H44.3905V0.216405H53.9125V2.55641H47.2885V10.4764ZM56.4667 12.8164V0.216405H61.9207C63.0487 0.216405 64.0207 0.402406 64.8367 0.774406C65.6527 1.13441 66.2827 1.65641 66.7267 2.34041C67.1707 3.02441 67.3927 3.84041 67.3927 4.78841C67.3927 5.72441 67.1707 6.53441 66.7267 7.21841C66.2827 7.89041 65.6527 8.40641 64.8367 8.76641C64.0207 9.12641 63.0487 9.30641 61.9207 9.30641H58.0867L59.3827 8.02841V12.8164H56.4667ZM64.4767 12.8164L61.3267 8.24441H64.4407L67.6267 12.8164H64.4767ZM59.3827 8.35241L58.0867 6.98441H61.7587C62.6587 6.98441 63.3307 6.79241 63.7747 6.40841C64.2187 6.01241 64.4407 5.47241 64.4407 4.78841C64.4407 4.09241 64.2187 3.55241 63.7747 3.16841C63.3307 2.78441 62.6587 2.59241 61.7587 2.59241H58.0867L59.3827 1.20641V8.35241ZM80.8846 13.0324C79.8886 13.0324 78.9706 12.8764 78.1306 12.5644C77.3026 12.2404 76.5766 11.7844 75.9526 11.1964C75.3406 10.6084 74.8606 9.91841 74.5126 9.12641C74.1766 8.33441 74.0086 7.46441 74.0086 6.51641C74.0086 5.56841 74.1766 4.69841 74.5126 3.90641C74.8606 3.11441 75.3466 2.42441 75.9706 1.83641C76.5946 1.24841 77.3266 0.798405 78.1666 0.486405C79.0066 0.162406 79.9306 0.000406027 80.9386 0.000406027C82.0546 0.000406027 83.0566 0.186406 83.9446 0.558405C84.8446 0.930405 85.6006 1.47041 86.2126 2.17841L84.3406 3.90641C83.8846 3.42641 83.3866 3.07241 82.8466 2.84441C82.3066 2.60441 81.7186 2.48441 81.0826 2.48441C80.4706 2.48441 79.9126 2.58041 79.4086 2.77241C78.9046 2.96441 78.4666 3.24041 78.0946 3.60041C77.7346 3.96041 77.4526 4.38641 77.2486 4.87841C77.0566 5.37041 76.9606 5.91641 76.9606 6.51641C76.9606 7.10441 77.0566 7.64441 77.2486 8.13641C77.4526 8.62841 77.7346 9.06041 78.0946 9.43241C78.4666 9.79241 78.8986 10.0684 79.3906 10.2604C79.8946 10.4524 80.4466 10.5484 81.0466 10.5484C81.6226 10.5484 82.1806 10.4584 82.7206 10.2784C83.2726 10.0864 83.8066 9.76841 84.3226 9.32441L85.9786 11.4304C85.2946 11.9464 84.4966 12.3424 83.5846 12.6184C82.6846 12.8944 81.7846 13.0324 80.8846 13.0324ZM83.3146 11.0524V6.31841H85.9786V11.4304L83.3146 11.0524ZM88.6874 12.8164V0.216405H91.6034V10.4404H97.9214V12.8164H88.6874ZM97.965 12.8164L103.581 0.216405H106.461L112.095 12.8164H109.035L104.427 1.69241H105.579L100.953 12.8164H97.965ZM100.773 10.1164L101.547 7.90241H108.027L108.819 10.1164H100.773ZM117.542 13.0324C116.534 13.0324 115.568 12.9004 114.644 12.6364C113.72 12.3604 112.976 12.0064 112.412 11.5744L113.402 9.37841C113.942 9.76241 114.578 10.0804 115.31 10.3324C116.054 10.5724 116.804 10.6924 117.56 10.6924C118.136 10.6924 118.598 10.6384 118.946 10.5304C119.306 10.4104 119.57 10.2484 119.738 10.0444C119.906 9.84041 119.99 9.60641 119.99 9.34241C119.99 9.00641 119.858 8.74241 119.594 8.55041C119.33 8.34641 118.982 8.18441 118.55 8.06441C118.118 7.93241 117.638 7.81241 117.11 7.70441C116.594 7.58441 116.072 7.44041 115.544 7.27241C115.028 7.10441 114.554 6.88841 114.122 6.62441C113.69 6.36041 113.336 6.01241 113.06 5.58041C112.796 5.14841 112.664 4.59641 112.664 3.92441C112.664 3.20441 112.856 2.55041 113.24 1.96241C113.636 1.36241 114.224 0.888405 115.004 0.540406C115.796 0.180406 116.786 0.000406027 117.974 0.000406027C118.766 0.000406027 119.546 0.0964059 120.314 0.288406C121.082 0.468405 121.76 0.744405 122.348 1.11641L121.448 3.33041C120.86 2.99441 120.272 2.74841 119.684 2.59241C119.096 2.42441 118.52 2.34041 117.956 2.34041C117.392 2.34041 116.93 2.40641 116.57 2.53841C116.21 2.67041 115.952 2.84441 115.796 3.06041C115.64 3.26441 115.562 3.50441 115.562 3.78041C115.562 4.10441 115.694 4.36841 115.958 4.57241C116.222 4.76441 116.57 4.92041 117.002 5.04041C117.434 5.16041 117.908 5.28041 118.424 5.40041C118.952 5.52041 119.474 5.65841 119.99 5.81441C120.518 5.97041 120.998 6.18041 121.43 6.44441C121.862 6.70841 122.21 7.05641 122.474 7.48841C122.75 7.92041 122.888 8.46641 122.888 9.12641C122.888 9.83441 122.69 10.4824 122.294 11.0704C121.898 11.6584 121.304 12.1324 120.512 12.4924C119.732 12.8524 118.742 13.0324 117.542 13.0324ZM129.021 13.0324C128.013 13.0324 127.047 12.9004 126.123 12.6364C125.199 12.3604 124.455 12.0064 123.891 11.5744L124.881 9.37841C125.421 9.76241 126.057 10.0804 126.789 10.3324C127.533 10.5724 128.283 10.6924 129.039 10.6924C129.615 10.6924 130.077 10.6384 130.425 10.5304C130.785 10.4104 131.049 10.2484 131.217 10.0444C131.385 9.84041 131.469 9.60641 131.469 9.34241C131.469 9.00641 131.337 8.74241 131.073 8.55041C130.809 8.34641 130.461 8.18441 130.029 8.06441C129.597 7.93241 129.117 7.81241 128.589 7.70441C128.073 7.58441 127.551 7.44041 127.023 7.27241C126.507 7.10441 126.033 6.88841 125.601 6.62441C125.169 6.36041 124.815 6.01241 124.539 5.58041C124.275 5.14841 124.143 4.59641 124.143 3.92441C124.143 3.20441 124.335 2.55041 124.719 1.96241C125.115 1.36241 125.703 0.888405 126.483 0.540406C127.275 0.180406 128.265 0.000406027 129.453 0.000406027C130.245 0.000406027 131.025 0.0964059 131.793 0.288406C132.561 0.468405 133.239 0.744405 133.827 1.11641L132.927 3.33041C132.339 2.99441 131.751 2.74841 131.163 2.59241C130.575 2.42441 129.999 2.34041 129.435 2.34041C128.871 2.34041 128.409 2.40641 128.049 2.53841C127.689 2.67041 127.431 2.84441 127.275 3.06041C127.119 3.26441 127.041 3.50441 127.041 3.78041C127.041 4.10441 127.173 4.36841 127.437 4.57241C127.701 4.76441 128.049 4.92041 128.481 5.04041C128.913 5.16041 129.387 5.28041 129.903 5.40041C130.431 5.52041 130.953 5.65841 131.469 5.81441C131.997 5.97041 132.477 6.18041 132.909 6.44441C133.341 6.70841 133.689 7.05641 133.953 7.48841C134.229 7.92041 134.367 8.46641 134.367 9.12641C134.367 9.83441 134.169 10.4824 133.773 11.0704C133.377 11.6584 132.783 12.1324 131.991 12.4924C131.211 12.8524 130.221 13.0324 129.021 13.0324Z" fill="#787878"/>
</svg>
