<svg width="90" height="80" viewBox="0 0 90 80" fill="none" xmlns="http://www.w3.org/2000/svg">
<g filter="url(#filter0_d_535_31)">
<rect x="4" y="24.175" width="81.83" height="47.1725" rx="2" fill="white"/>
<rect x="4.25" y="24.425" width="81.33" height="46.6725" rx="1.75" stroke="white" stroke-width="0.5"/>
</g>
<rect x="29.271" y="0.0776367" width="30.0846" height="30.2388" rx="3" fill="#CB3335"/>
<g clip-path="url(#clip0_535_31)">
<path fill-rule="evenodd" clip-rule="evenodd" d="M35.6578 10.7535C35.7137 10.7743 35.7792 10.8209 35.8035 10.8573C35.8397 10.9112 35.8476 11.3819 35.8473 15.9011L35.7667 15.9837C35.7104 16.0413 35.6502 16.0664 35.5693 16.0664C35.4886 16.0664 35.4271 16.041 35.2879 15.9011V13.4205C35.2879 11.833 35.2998 10.9162 35.3208 10.8739C35.3389 10.8375 35.3995 10.7872 35.4551 10.7617C35.5344 10.726 35.5785 10.7244 35.6578 10.7535ZM51.9457 10.7535C52.0017 10.7743 52.0672 10.8209 52.0915 10.8573C52.1277 10.9112 52.1356 11.3819 52.1353 15.9011L52.0547 15.9837C51.9984 16.0413 51.9382 16.0664 51.8572 16.0664C51.7766 16.0664 51.7151 16.041 51.5759 15.9011V13.4205C51.5759 11.833 51.5877 10.9162 51.6088 10.8739C51.6269 10.8375 51.6874 10.7872 51.7431 10.7617C51.8224 10.726 51.8664 10.7244 51.9457 10.7535ZM51.9764 16.9429L52.1353 17.1248V18.8942C52.1353 20.0078 52.1231 20.6881 52.1024 20.7298C52.0843 20.7662 52.0178 20.8184 51.9543 20.8456C51.853 20.8892 50.8628 20.8952 43.7116 20.8952C36.5604 20.8952 35.5703 20.8892 35.4689 20.8456C35.4054 20.8184 35.3389 20.7662 35.3208 20.7298C35.3001 20.6881 35.2879 20.0098 35.2876 18.9025C35.2876 17.3371 35.2932 17.1327 35.3402 17.0646C35.3695 17.0223 35.4251 16.975 35.464 16.9591C35.5035 16.9429 39.1684 16.933 51.9764 16.9429ZM35.8638 20.3164H51.5594L51.5647 17.4886H50.7204C50.7187 18.0399 50.7033 18.1874 50.6782 18.2222C50.6562 18.2529 50.5937 18.2949 50.5394 18.3158C50.4598 18.3465 50.4199 18.3435 50.3337 18.3015C50.2636 18.2671 50.2153 18.2122 50.1932 18.1418C50.1748 18.0826 50.16 17.9116 50.1603 17.7614L50.161 17.4886H49.0422C49.0422 18.7001 49.0406 18.714 48.9629 18.8033C48.9034 18.8714 48.8533 18.8942 48.7625 18.8942C48.6717 18.8942 48.6217 18.8714 48.5621 18.8033C48.4845 18.714 48.4828 18.7001 48.4828 18.1005V17.4886H47.3641C47.3486 18.1431 47.3394 18.1898 47.2742 18.2549C47.2265 18.3029 47.1594 18.3293 47.0824 18.3303C46.9926 18.3316 46.9439 18.3095 46.884 18.241C46.8116 18.158 46.8047 18.1216 46.8047 17.8193V17.4886H45.6859C45.6859 18.4772 45.6741 18.6412 45.6365 18.7289C45.6069 18.7986 45.5513 18.8585 45.4967 18.8797C45.447 18.8989 45.373 18.9061 45.3322 18.8962C45.2914 18.886 45.2282 18.8443 45.1917 18.8033C45.1298 18.7341 45.1252 18.6849 45.1259 18.1087L45.1265 17.4886H44.0077C44.0074 17.8858 43.9926 18.0571 43.9745 18.1253C43.9502 18.2182 43.913 18.2638 43.8268 18.3072C43.7172 18.3624 43.706 18.3624 43.5964 18.3072C43.5102 18.2638 43.473 18.2182 43.4487 18.1253C43.4306 18.0571 43.4158 17.8858 43.4158 17.7449L43.4155 17.4886H42.2967C42.295 18.544 42.2825 18.7444 42.2546 18.7814C42.2325 18.8102 42.1812 18.8512 42.1404 18.8724C42.0996 18.8936 42.0219 18.9035 41.9676 18.8942C41.9018 18.8832 41.847 18.8419 41.8031 18.7702C41.7442 18.6733 41.7376 18.6042 41.7373 18.0756V17.4886H40.6185C40.6185 18.1216 40.6116 18.158 40.5392 18.241C40.4803 18.3082 40.429 18.332 40.3425 18.332C40.2646 18.332 40.2006 18.3068 40.1506 18.2566C40.0835 18.1894 40.0746 18.1454 40.0674 17.8349L40.0592 17.4886H38.9404C38.9243 18.7153 38.9206 18.747 38.8505 18.8172C38.8028 18.8651 38.7357 18.8916 38.6587 18.8926C38.5689 18.8939 38.5202 18.8717 38.4603 18.8033C38.3826 18.714 38.381 18.7001 38.381 18.1005V17.4886H37.2622C37.2632 17.9116 37.2484 18.0826 37.23 18.1418C37.2079 18.2122 37.1596 18.2671 37.0895 18.3015C37.0033 18.3435 36.9634 18.3465 36.8838 18.3158C36.8295 18.2949 36.767 18.2529 36.745 18.2222C36.72 18.1874 36.7045 18.0399 36.7038 17.8276L36.7028 17.4886H35.8467L35.8638 20.3164ZM37.9736 11.5684C38.0167 11.5684 38.0927 11.6045 38.2329 11.7278L38.2494 13.2552H49.1738L49.1903 11.7278L49.2808 11.6481C49.3305 11.6045 49.4045 11.5677 49.4453 11.5671C49.4861 11.5661 49.5519 11.5922 49.5914 11.625C49.6312 11.6574 49.9609 12.0711 50.3242 12.5441C50.6878 13.017 50.9938 13.4414 51.0047 13.4867C51.0162 13.5343 51.003 13.6114 50.9737 13.6686C50.9458 13.7232 50.6759 14.088 50.3745 14.4789C50.0728 14.8701 49.7681 15.2607 49.6974 15.3471C49.596 15.4708 49.5476 15.5042 49.47 15.5042C49.4157 15.5042 49.3416 15.4893 49.3055 15.4711C49.2693 15.4529 49.2245 15.3897 49.2061 15.3305C49.1877 15.2713 49.1728 14.9069 49.1738 13.8174H38.2494L38.25 14.5202C38.25 14.9069 38.2352 15.2713 38.2171 15.3305C38.1987 15.3897 38.154 15.4529 38.1178 15.4711C38.0816 15.4893 38.0075 15.5042 37.9532 15.5042C37.8756 15.5042 37.8272 15.4708 37.7259 15.3471C37.6548 15.2607 37.3501 14.8701 37.0487 14.4789C36.7469 14.088 36.4774 13.7232 36.4495 13.6686C36.4202 13.6114 36.407 13.5343 36.4185 13.4867C36.4294 13.4414 36.7354 13.017 37.0987 12.5441C37.462 12.0711 37.79 11.658 37.8275 11.6263C37.8647 11.5945 37.9305 11.5684 37.9736 11.5684ZM37.0645 13.6024C37.0882 13.6388 37.2346 13.8343 37.3902 14.037C37.5462 14.2398 37.6847 14.3998 37.6982 14.3926C37.7117 14.3856 37.7229 14.0003 37.7229 13.5363C37.7229 13.07 37.7097 12.6929 37.6936 12.6929C37.6778 12.6929 37.5202 12.8828 37.3432 13.1146C37.053 13.4959 37.026 13.5426 37.0645 13.6024ZM49.725 14.3926C49.7385 14.3998 49.877 14.2398 50.0327 14.037C50.1883 13.8343 50.335 13.6388 50.3584 13.6024C50.3969 13.5426 50.3699 13.4959 50.0754 13.1133C49.8961 12.8804 49.7385 12.6906 49.725 12.6916C49.7115 12.6922 49.7003 13.0726 49.7003 13.5363C49.7003 14.0003 49.7115 14.3856 49.725 14.3926Z" fill="white"/>
</g>
<path d="M24.4204 45.2703V39.6303H26.3964C26.999 39.6303 27.511 39.7396 27.9324 39.9583C28.3537 40.1769 28.6737 40.4969 28.8924 40.9183C29.1164 41.3343 29.2284 41.8436 29.2284 42.4463C29.2284 43.0489 29.1164 43.5609 28.8924 43.9823C28.6737 44.4036 28.3537 44.7236 27.9324 44.9423C27.511 45.1609 26.999 45.2703 26.3964 45.2703H24.4204ZM25.1324 44.6463H26.3564C27.055 44.6463 27.583 44.4649 27.9404 44.1023C28.303 43.7396 28.4844 43.1876 28.4844 42.4463C28.4844 41.7049 28.303 41.1556 27.9404 40.7983C27.583 40.4356 27.055 40.2543 26.3564 40.2543H25.1324V44.6463ZM30.4626 40.3663V39.5743H31.3266V40.3663H30.4626ZM30.5426 45.2703V41.3183H31.2546V45.2703H30.5426ZM32.6914 45.2703V41.3183H33.3474V42.1823C33.4167 42.0063 33.5127 41.8489 33.6354 41.7103C33.7634 41.5663 33.9154 41.4543 34.0914 41.3743C34.2727 41.2889 34.47 41.2463 34.6834 41.2463C35.03 41.2463 35.3154 41.3316 35.5394 41.5023C35.7634 41.6729 35.902 41.8969 35.9554 42.1743H35.9474C36.054 41.9129 36.222 41.6943 36.4514 41.5183C36.686 41.3369 36.9794 41.2463 37.3314 41.2463C37.63 41.2463 37.8834 41.3049 38.0914 41.4223C38.2994 41.5343 38.4567 41.7076 38.5634 41.9423C38.67 42.1769 38.7234 42.4729 38.7234 42.8303V45.2703H38.0194V42.8783C38.0194 42.5369 37.958 42.2809 37.8354 42.1103C37.7127 41.9396 37.494 41.8543 37.1794 41.8543C36.9447 41.8543 36.742 41.9076 36.5714 42.0143C36.406 42.1156 36.278 42.2596 36.1874 42.4463C36.102 42.6276 36.0594 42.8329 36.0594 43.0623V45.2703H35.3554V42.8783C35.3554 42.5423 35.286 42.2889 35.1474 42.1183C35.0087 41.9423 34.798 41.8543 34.5154 41.8543C34.286 41.8543 34.086 41.9129 33.9154 42.0303C33.75 42.1423 33.622 42.2889 33.5314 42.4703C33.4407 42.6516 33.3954 42.8436 33.3954 43.0463V45.2703H32.6914ZM42.0559 45.3423C41.6133 45.3423 41.2293 45.2623 40.9039 45.1023C40.5839 44.9369 40.3386 44.7023 40.1679 44.3983C39.9973 44.0889 39.9119 43.7209 39.9119 43.2943C39.9119 42.8943 39.9919 42.5423 40.1519 42.2383C40.3119 41.9289 40.5386 41.6863 40.8319 41.5103C41.1253 41.3343 41.4746 41.2463 41.8799 41.2463C42.2639 41.2463 42.5893 41.3289 42.8559 41.4943C43.1279 41.6596 43.3333 41.8916 43.4719 42.1903C43.6159 42.4889 43.6879 42.8436 43.6879 43.2543V43.4863H40.4479V42.9903H43.2239L43.0719 43.1503C43.0719 42.7129 42.9679 42.3769 42.7599 42.1423C42.5573 41.9076 42.2639 41.7903 41.8799 41.7903C41.6293 41.7903 41.4053 41.8489 41.2079 41.9663C41.0159 42.0783 40.8666 42.2383 40.7599 42.4463C40.6533 42.6543 40.5999 42.9076 40.5999 43.2063V43.2863C40.5999 43.6063 40.6586 43.8756 40.7759 44.0943C40.8933 44.3129 41.0613 44.4783 41.2799 44.5903C41.4986 44.7023 41.7599 44.7583 42.0639 44.7583C42.2826 44.7583 42.5039 44.7289 42.7279 44.6703C42.9573 44.6063 43.1706 44.4943 43.3679 44.3343L43.6079 44.8463C43.4053 45.0169 43.1626 45.1423 42.8799 45.2223C42.6026 45.3023 42.3279 45.3423 42.0559 45.3423ZM44.8629 45.2703V41.3183H45.5269V42.1743C45.6549 41.8809 45.8469 41.6543 46.1029 41.4943C46.3589 41.3289 46.6469 41.2463 46.9669 41.2463C47.2922 41.2463 47.5642 41.3049 47.7829 41.4223C48.0015 41.5343 48.1642 41.7103 48.2709 41.9503C48.3829 42.1849 48.4389 42.4783 48.4389 42.8303V45.2703H47.7269V42.8703C47.7269 42.6569 47.6975 42.4756 47.6389 42.3263C47.5802 42.1769 47.4815 42.0623 47.3429 41.9823C47.2095 41.8969 47.0309 41.8543 46.8069 41.8543C46.5722 41.8543 46.3589 41.9076 46.1669 42.0143C45.9802 42.1209 45.8335 42.2649 45.7269 42.4463C45.6255 42.6276 45.5749 42.8303 45.5749 43.0543V45.2703H44.8629ZM51.3033 45.3423C51.0846 45.3423 50.8686 45.3209 50.6553 45.2783C50.4473 45.2409 50.2526 45.1876 50.0713 45.1183C49.8953 45.0436 49.7433 44.9529 49.6153 44.8463L49.8473 44.3423C49.9806 44.4436 50.1273 44.5263 50.2873 44.5903C50.4526 44.6543 50.6206 44.7023 50.7913 44.7343C50.9673 44.7609 51.1353 44.7743 51.2953 44.7743C51.6259 44.7743 51.8793 44.7236 52.0553 44.6223C52.2366 44.5209 52.3273 44.3796 52.3273 44.1983C52.3273 44.0436 52.2739 43.9263 52.1673 43.8463C52.0659 43.7609 51.8953 43.6969 51.6553 43.6543L50.8313 43.5103C50.4633 43.4409 50.1859 43.3156 49.9993 43.1343C49.8179 42.9529 49.7273 42.7156 49.7273 42.4223C49.7273 42.1876 49.7913 41.9823 49.9193 41.8063C50.0526 41.6303 50.2419 41.4943 50.4873 41.3983C50.7326 41.2969 51.0259 41.2463 51.3673 41.2463C51.5539 41.2463 51.7433 41.2649 51.9353 41.3023C52.1326 41.3396 52.3139 41.3956 52.4793 41.4703C52.6499 41.5396 52.7886 41.6276 52.8953 41.7343L52.6553 42.2383C52.5486 42.1369 52.4206 42.0569 52.2713 41.9983C52.1273 41.9343 51.9753 41.8889 51.8153 41.8623C51.6606 41.8303 51.5086 41.8143 51.3593 41.8143C51.0499 41.8143 50.8099 41.8676 50.6393 41.9743C50.4686 42.0756 50.3833 42.2196 50.3833 42.4063C50.3833 42.5556 50.4313 42.6729 50.5273 42.7583C50.6286 42.8436 50.7913 42.9076 51.0153 42.9503L51.8153 43.0943C52.2099 43.1689 52.5033 43.2943 52.6953 43.4703C52.8873 43.6409 52.9833 43.8783 52.9833 44.1823C52.9833 44.4169 52.9139 44.6223 52.7753 44.7983C52.6366 44.9689 52.4419 45.1023 52.1913 45.1983C51.9406 45.2943 51.6446 45.3423 51.3033 45.3423ZM54.0798 40.3663V39.5743H54.9438V40.3663H54.0798ZM54.1598 45.2703V41.3183H54.8718V45.2703H54.1598ZM58.0126 45.3423C57.6126 45.3423 57.2659 45.2569 56.9726 45.0863C56.6792 44.9156 56.4526 44.6783 56.2926 44.3743C56.1326 44.0649 56.0526 43.7023 56.0526 43.2863C56.0526 42.8756 56.1326 42.5183 56.2926 42.2143C56.4526 41.9049 56.6792 41.6676 56.9726 41.5023C57.2659 41.3316 57.6126 41.2463 58.0126 41.2463C58.4126 41.2463 58.7566 41.3316 59.0446 41.5023C59.3379 41.6676 59.5646 41.9049 59.7246 42.2143C59.8846 42.5183 59.9646 42.8756 59.9646 43.2863C59.9646 43.7023 59.8846 44.0649 59.7246 44.3743C59.5699 44.6783 59.3459 44.9156 59.0526 45.0863C58.7592 45.2569 58.4126 45.3423 58.0126 45.3423ZM58.0046 44.7423C58.3939 44.7423 58.7006 44.6116 58.9246 44.3503C59.1486 44.0889 59.2606 43.7343 59.2606 43.2863C59.2606 42.8383 59.1486 42.4863 58.9246 42.2303C58.7059 41.9743 58.4019 41.8463 58.0126 41.8463C57.6232 41.8463 57.3166 41.9743 57.0926 42.2303C56.8686 42.4863 56.7566 42.8383 56.7566 43.2863C56.7566 43.7343 56.8686 44.0889 57.0926 44.3503C57.3219 44.6116 57.6259 44.7423 58.0046 44.7423ZM61.1598 45.2703V41.3183H61.8238V42.1743C61.9518 41.8809 62.1438 41.6543 62.3998 41.4943C62.6558 41.3289 62.9438 41.2463 63.2638 41.2463C63.5891 41.2463 63.8611 41.3049 64.0798 41.4223C64.2984 41.5343 64.4611 41.7103 64.5678 41.9503C64.6798 42.1849 64.7358 42.4783 64.7358 42.8303V45.2703H64.0238V42.8703C64.0238 42.6569 63.9944 42.4756 63.9358 42.3263C63.8771 42.1769 63.7784 42.0623 63.6398 41.9823C63.5064 41.8969 63.3278 41.8543 63.1038 41.8543C62.8691 41.8543 62.6558 41.9076 62.4638 42.0143C62.2771 42.1209 62.1304 42.2649 62.0238 42.4463C61.9224 42.6276 61.8718 42.8303 61.8718 43.0543V45.2703H61.1598Z" fill="#CE3439"/>
<path d="M27.3281 58.2703L30.0881 52.9183L30.1201 53.2623H26.9441V52.6303H30.7121V53.1663L28.1041 58.2703H27.3281ZM33.693 58.3423C33.4477 58.3423 33.2103 58.3156 32.981 58.2623C32.757 58.2089 32.5463 58.1316 32.349 58.0303C32.1517 57.9236 31.9757 57.7956 31.821 57.6463L32.101 57.0863C32.3463 57.3103 32.597 57.4729 32.853 57.5743C33.1143 57.6703 33.3943 57.7183 33.693 57.7183C34.0877 57.7183 34.3943 57.6169 34.613 57.4143C34.837 57.2063 34.949 56.9156 34.949 56.5423C34.949 56.1743 34.845 55.8809 34.637 55.6623C34.429 55.4436 34.141 55.3343 33.773 55.3343C33.5277 55.3343 33.3037 55.3849 33.101 55.4863C32.9037 55.5823 32.7197 55.7449 32.549 55.9743H31.989V52.6303H35.365V53.2463H32.637V55.3663H32.605C32.733 55.1743 32.909 55.0196 33.133 54.9023C33.357 54.7796 33.6077 54.7183 33.885 54.7183C34.2477 54.7183 34.5597 54.7956 34.821 54.9503C35.0823 55.0996 35.2823 55.3076 35.421 55.5743C35.565 55.8409 35.637 56.1529 35.637 56.5103C35.637 56.8889 35.557 57.2169 35.397 57.4943C35.237 57.7663 35.013 57.9769 34.725 58.1263C34.437 58.2703 34.093 58.3423 33.693 58.3423ZM37.3459 55.5823L36.8739 55.3023L37.5779 54.2383L37.5939 54.2623L36.3059 54.3423V53.7903L37.5939 53.8703L37.5699 53.8863L36.8739 52.8303L37.3539 52.5503L37.9219 53.7343H37.9139L38.4659 52.5503L38.9459 52.8303L38.2419 53.8863L38.2179 53.8703L39.5139 53.7903V54.3423L38.2259 54.2623L38.2499 54.2383L38.9459 55.3023L38.4739 55.5823L37.9139 54.4063H37.9219L37.3459 55.5823ZM42.8395 58.2703V57.1023H40.2075V56.5663L42.8075 52.6303H43.5195V56.5023H44.3035V57.1023H43.5195V58.2703H42.8395ZM42.8635 56.5023V53.5103H42.8955L40.8315 56.6383L40.7755 56.5023H42.8635ZM47.0524 58.3423C46.807 58.3423 46.5697 58.3156 46.3404 58.2623C46.1164 58.2089 45.9057 58.1316 45.7084 58.0303C45.511 57.9236 45.335 57.7956 45.1804 57.6463L45.4604 57.0863C45.7057 57.3103 45.9564 57.4729 46.2124 57.5743C46.4737 57.6703 46.7537 57.7183 47.0524 57.7183C47.447 57.7183 47.7537 57.6169 47.9724 57.4143C48.1964 57.2063 48.3084 56.9156 48.3084 56.5423C48.3084 56.1743 48.2044 55.8809 47.9964 55.6623C47.7884 55.4436 47.5004 55.3343 47.1324 55.3343C46.887 55.3343 46.663 55.3849 46.4604 55.4863C46.263 55.5823 46.079 55.7449 45.9084 55.9743H45.3484V52.6303H48.7244V53.2463H45.9964V55.3663H45.9644C46.0924 55.1743 46.2684 55.0196 46.4924 54.9023C46.7164 54.7796 46.967 54.7183 47.2444 54.7183C47.607 54.7183 47.919 54.7956 48.1804 54.9503C48.4417 55.0996 48.6417 55.3076 48.7804 55.5743C48.9244 55.8409 48.9964 56.1529 48.9964 56.5103C48.9964 56.8889 48.9164 57.2169 48.7564 57.4943C48.5964 57.7663 48.3724 57.9769 48.0844 58.1263C47.7964 58.2703 47.4524 58.3423 47.0524 58.3423ZM50.7053 55.5823L50.2333 55.3023L50.9373 54.2383L50.9533 54.2623L49.6653 54.3423V53.7903L50.9533 53.8703L50.9293 53.8863L50.2333 52.8303L50.7133 52.5503L51.2813 53.7343H51.2733L51.8253 52.5503L52.3053 52.8303L51.6013 53.8863L51.5773 53.8703L52.8733 53.7903V54.3423L51.5853 54.2623L51.6093 54.2383L52.3053 55.3023L51.8333 55.5823L51.2733 54.4063H51.2813L50.7053 55.5823ZM55.1989 58.3423C54.9909 58.3423 54.7882 58.3183 54.5909 58.2703C54.3989 58.2223 54.2149 58.1503 54.0389 58.0543C53.8682 57.9529 53.7082 57.8303 53.5589 57.6863L53.8309 57.1423C54.0495 57.3609 54.2709 57.5129 54.4949 57.5983C54.7189 57.6783 54.9562 57.7183 55.2069 57.7183C55.4682 57.7183 55.6975 57.6703 55.8949 57.5743C56.0975 57.4729 56.2682 57.3263 56.4069 57.1343C56.5455 56.9369 56.6495 56.6943 56.7189 56.4063C56.7882 56.1183 56.8229 55.7876 56.8229 55.4143V54.9503H56.8149C56.7722 55.2009 56.6762 55.4196 56.5269 55.6063C56.3829 55.7876 56.2042 55.9263 55.9909 56.0223C55.7775 56.1183 55.5429 56.1663 55.2869 56.1663C54.9509 56.1663 54.6522 56.0916 54.3909 55.9423C54.1295 55.7929 53.9242 55.5849 53.7749 55.3183C53.6309 55.0516 53.5589 54.7423 53.5589 54.3903C53.5589 54.0383 53.6362 53.7236 53.7909 53.4463C53.9455 53.1689 54.1589 52.9529 54.4309 52.7983C54.7029 52.6383 55.0149 52.5583 55.3669 52.5583C55.8255 52.5583 56.2122 52.6676 56.5269 52.8863C56.8415 53.0996 57.0789 53.4116 57.2389 53.8223C57.3989 54.2329 57.4789 54.7343 57.4789 55.3263C57.4789 55.9663 57.3882 56.5129 57.2069 56.9663C57.0255 57.4143 56.7642 57.7556 56.4229 57.9903C56.0869 58.2249 55.6789 58.3423 55.1989 58.3423ZM55.4069 55.5743C55.6415 55.5743 55.8495 55.5236 56.0309 55.4223C56.2122 55.3209 56.3535 55.1796 56.4549 54.9983C56.5562 54.8169 56.6069 54.6089 56.6069 54.3743C56.6069 54.1289 56.5562 53.9156 56.4549 53.7343C56.3589 53.5529 56.2202 53.4143 56.0389 53.3183C55.8575 53.2169 55.6442 53.1663 55.3989 53.1663C55.1642 53.1663 54.9589 53.2169 54.7829 53.3183C54.6069 53.4196 54.4682 53.5609 54.3669 53.7423C54.2709 53.9236 54.2229 54.1343 54.2229 54.3743C54.2229 54.6089 54.2735 54.8169 54.3749 54.9983C54.4762 55.1796 54.6149 55.3209 54.7909 55.4223C54.9669 55.5236 55.1722 55.5743 55.4069 55.5743ZM60.4118 58.3423C60.1664 58.3423 59.9291 58.3156 59.6998 58.2623C59.4758 58.2089 59.2651 58.1316 59.0678 58.0303C58.8704 57.9236 58.6944 57.7956 58.5398 57.6463L58.8198 57.0863C59.0651 57.3103 59.3158 57.4729 59.5718 57.5743C59.8331 57.6703 60.1131 57.7183 60.4118 57.7183C60.8064 57.7183 61.1131 57.6169 61.3318 57.4143C61.5558 57.2063 61.6678 56.9156 61.6678 56.5423C61.6678 56.1743 61.5638 55.8809 61.3558 55.6623C61.1478 55.4436 60.8598 55.3343 60.4918 55.3343C60.2464 55.3343 60.0224 55.3849 59.8198 55.4863C59.6224 55.5823 59.4384 55.7449 59.2678 55.9743H58.7078V52.6303H62.0838V53.2463H59.3558V55.3663H59.3238C59.4518 55.1743 59.6278 55.0196 59.8518 54.9023C60.0758 54.7796 60.3264 54.7183 60.6038 54.7183C60.9664 54.7183 61.2784 54.7956 61.5398 54.9503C61.8011 55.0996 62.0011 55.3076 62.1398 55.5743C62.2838 55.8409 62.3558 56.1529 62.3558 56.5103C62.3558 56.8889 62.2758 57.2169 62.1158 57.4943C61.9558 57.7663 61.7318 57.9769 61.4438 58.1263C61.1558 58.2703 60.8118 58.3423 60.4118 58.3423Z" fill="black"/>
<defs>
<filter id="filter0_d_535_31" x="0.0999999" y="24.175" width="89.6301" height="55.0724" filterUnits="userSpaceOnUse" color-interpolation-filters="sRGB">
<feFlood flood-opacity="0" result="BackgroundImageFix"/>
<feColorMatrix in="SourceAlpha" type="matrix" values="0 0 0 0 0 0 0 0 0 0 0 0 0 0 0 0 0 0 127 0" result="hardAlpha"/>
<feOffset dy="4"/>
<feGaussianBlur stdDeviation="1.95"/>
<feComposite in2="hardAlpha" operator="out"/>
<feColorMatrix type="matrix" values="0 0 0 0 0 0 0 0 0 0 0 0 0 0 0 0 0 0 0.2 0"/>
<feBlend mode="normal" in2="BackgroundImageFix" result="effect1_dropShadow_535_31"/>
<feBlend mode="normal" in="SourceGraphic" in2="effect1_dropShadow_535_31" result="shape"/>
</filter>
<clipPath id="clip0_535_31">
<rect width="16.8474" height="16.9337" fill="white" transform="translate(35.2881 7.33496)"/>
</clipPath>
</defs>
</svg>
