<svg width="322" height="27" viewBox="0 0 322 27" fill="none" xmlns="http://www.w3.org/2000/svg">
<path d="M1.08 9V8.256L3.972 5.136C4.244 4.84 4.464 4.564 4.632 4.308C4.8 4.044 4.924 3.788 5.004 3.54C5.084 3.292 5.124 3.04 5.124 2.784C5.124 2.304 4.976 1.94 4.68 1.692C4.392 1.436 3.968 1.308 3.408 1.308C2.976 1.308 2.572 1.388 2.196 1.548C1.828 1.7 1.476 1.94 1.14 2.268L0.768 1.5C1.08 1.18 1.476 0.924 1.956 0.732C2.444 0.532 2.956 0.431999 3.492 0.431999C4.06 0.431999 4.54 0.52 4.932 0.696C5.324 0.872 5.62 1.132 5.82 1.476C6.02 1.812 6.12 2.224 6.12 2.712C6.12 2.968 6.088 3.22 6.024 3.468C5.968 3.708 5.876 3.952 5.748 4.2C5.628 4.44 5.472 4.688 5.28 4.944C5.096 5.2 4.872 5.464 4.608 5.736L2.064 8.436V8.16H6.468V9H1.08ZM10.9753 9.108C10.6153 9.108 10.2633 9.068 9.91931 8.988C9.57531 8.908 9.25131 8.792 8.94731 8.64C8.65131 8.488 8.38731 8.308 8.15531 8.1L8.52731 7.32C8.91131 7.632 9.29931 7.864 9.69131 8.016C10.0913 8.16 10.5153 8.232 10.9633 8.232C11.5553 8.232 12.0153 8.068 12.3433 7.74C12.6793 7.412 12.8473 6.98 12.8473 6.444C12.8473 5.892 12.6873 5.44 12.3673 5.088C12.0473 4.736 11.6073 4.56 11.0473 4.56C10.6393 4.56 10.2793 4.644 9.96731 4.812C9.66331 4.972 9.38731 5.224 9.13931 5.568H8.41931V0.539999H13.3273V1.38H9.39131V4.752H9.12731C9.33531 4.416 9.62331 4.16 9.99131 3.984C10.3593 3.8 10.7713 3.708 11.2273 3.708C11.7633 3.708 12.2233 3.82 12.6073 4.044C12.9993 4.268 13.2993 4.584 13.5073 4.992C13.7233 5.392 13.8313 5.86 13.8313 6.396C13.8313 6.924 13.7153 7.392 13.4833 7.8C13.2513 8.208 12.9233 8.528 12.4993 8.76C12.0753 8.992 11.5673 9.108 10.9753 9.108ZM17.9906 9.108C17.3506 9.108 16.8066 8.944 16.3586 8.616C15.9186 8.28 15.5866 7.788 15.3626 7.14C15.1386 6.492 15.0266 5.7 15.0266 4.764C15.0266 3.82 15.1386 3.028 15.3626 2.388C15.5866 1.74 15.9186 1.252 16.3586 0.924C16.8066 0.595999 17.3506 0.431999 17.9906 0.431999C18.6386 0.431999 19.1826 0.595999 19.6226 0.924C20.0626 1.252 20.3946 1.736 20.6186 2.376C20.8426 3.016 20.9546 3.808 20.9546 4.752C20.9546 5.696 20.8426 6.492 20.6186 7.14C20.3946 7.788 20.0626 8.28 19.6226 8.616C19.1826 8.944 18.6386 9.108 17.9906 9.108ZM17.9906 8.256C18.6626 8.256 19.1586 7.972 19.4786 7.404C19.8066 6.836 19.9706 5.952 19.9706 4.752C19.9706 3.552 19.8106 2.676 19.4906 2.124C19.1706 1.564 18.6706 1.284 17.9906 1.284C17.3266 1.284 16.8306 1.564 16.5026 2.124C16.1746 2.684 16.0106 3.56 16.0106 4.752C16.0106 5.952 16.1706 6.836 16.4906 7.404C16.8186 7.972 17.3186 8.256 17.9906 8.256ZM22.5219 9V3.168H23.4699V4.464H23.3379C23.4339 4.168 23.5739 3.916 23.7579 3.708C23.9499 3.492 24.1739 3.332 24.4299 3.228C24.6939 3.116 24.9819 3.06 25.2939 3.06C25.7899 3.06 26.1899 3.18 26.4939 3.42C26.8059 3.652 27.0139 4.016 27.1179 4.512H26.9379C27.0819 4.064 27.3379 3.712 27.7059 3.456C28.0819 3.192 28.5179 3.06 29.0139 3.06C29.4539 3.06 29.8139 3.144 30.0939 3.312C30.3819 3.48 30.5979 3.736 30.7419 4.08C30.8859 4.416 30.9579 4.844 30.9579 5.364V9H29.9859V5.412C29.9859 4.876 29.8939 4.484 29.7099 4.236C29.5259 3.98 29.2139 3.852 28.7739 3.852C28.4619 3.852 28.1859 3.928 27.9459 4.08C27.7139 4.232 27.5339 4.448 27.4059 4.728C27.2859 5 27.2259 5.324 27.2259 5.7V9H26.2539V5.412C26.2539 4.876 26.1579 4.484 25.9659 4.236C25.7819 3.98 25.4739 3.852 25.0419 3.852C24.7219 3.852 24.4459 3.928 24.2139 4.08C23.9819 4.232 23.8019 4.448 23.6739 4.728C23.5539 5 23.4939 5.324 23.4939 5.7V9H22.5219ZM34.5633 9.108C33.9713 9.108 33.5233 8.932 33.2193 8.58C32.9233 8.228 32.7753 7.724 32.7753 7.068V0.539999H33.7473V6.996C33.7473 7.276 33.7833 7.512 33.8553 7.704C33.9353 7.896 34.0513 8.04 34.2033 8.136C34.3553 8.232 34.5433 8.28 34.7673 8.28C34.8633 8.28 34.9553 8.276 35.0433 8.268C35.1393 8.252 35.2273 8.232 35.3073 8.208L35.2833 9.024C35.1553 9.048 35.0313 9.068 34.9113 9.084C34.7993 9.1 34.6833 9.108 34.5633 9.108ZM43.4041 9.108C42.5001 9.108 41.7361 8.936 41.1121 8.592C40.4961 8.248 40.0281 7.752 39.7081 7.104C39.3881 6.456 39.2281 5.68 39.2281 4.776C39.2281 3.88 39.3881 3.108 39.7081 2.46C40.0281 1.812 40.4881 1.312 41.0881 0.96C41.6881 0.608 42.4121 0.431999 43.2601 0.431999C43.6601 0.431999 44.0361 0.471999 44.3881 0.551999C44.7481 0.632 45.0801 0.752 45.3841 0.912C45.6961 1.064 45.9681 1.256 46.2001 1.488L45.8161 2.28C45.4321 1.944 45.0361 1.7 44.6281 1.548C44.2201 1.396 43.7601 1.32 43.2481 1.32C42.2801 1.32 41.5401 1.62 41.0281 2.22C40.5241 2.82 40.2721 3.672 40.2721 4.776C40.2721 5.896 40.5321 6.752 41.0521 7.344C41.5801 7.936 42.3721 8.232 43.4281 8.232C43.8121 8.232 44.1881 8.196 44.5561 8.124C44.9241 8.044 45.2721 7.936 45.6001 7.8L45.3841 8.364V5.376H43.2361V4.596H46.2361V8.508C46.0201 8.62 45.7521 8.724 45.4321 8.82C45.1121 8.908 44.7761 8.976 44.4241 9.024C44.0721 9.08 43.7321 9.108 43.4041 9.108ZM49.9031 9.108C49.3111 9.108 48.8631 8.932 48.5591 8.58C48.2631 8.228 48.1151 7.724 48.1151 7.068V0.539999H49.0871V6.996C49.0871 7.276 49.1231 7.512 49.1951 7.704C49.2751 7.896 49.3911 8.04 49.5431 8.136C49.6951 8.232 49.8831 8.28 50.1071 8.28C50.2031 8.28 50.2951 8.276 50.3831 8.268C50.4791 8.252 50.5671 8.232 50.6471 8.208L50.6231 9.024C50.4951 9.048 50.3711 9.068 50.2511 9.084C50.1391 9.1 50.0231 9.108 49.9031 9.108ZM53.5019 9.108C53.1019 9.108 52.7419 9.032 52.4219 8.88C52.1099 8.72 51.8619 8.504 51.6779 8.232C51.4939 7.96 51.4019 7.656 51.4019 7.32C51.4019 6.888 51.5099 6.548 51.7259 6.3C51.9499 6.052 52.3139 5.876 52.8179 5.772C53.3299 5.668 54.0259 5.616 54.9059 5.616H55.4459V6.252H54.9179C54.4299 6.252 54.0219 6.268 53.6939 6.3C53.3659 6.332 53.1059 6.388 52.9139 6.468C52.7219 6.548 52.5859 6.652 52.5059 6.78C52.4259 6.908 52.3859 7.068 52.3859 7.26C52.3859 7.588 52.4979 7.856 52.7219 8.064C52.9539 8.272 53.2659 8.376 53.6579 8.376C53.9779 8.376 54.2579 8.3 54.4979 8.148C54.7459 7.996 54.9379 7.788 55.0739 7.524C55.2179 7.26 55.2899 6.956 55.2899 6.612V5.244C55.2899 4.748 55.1899 4.392 54.9899 4.176C54.7899 3.952 54.4619 3.84 54.0059 3.84C53.6539 3.84 53.3139 3.892 52.9859 3.996C52.6579 4.092 52.3219 4.252 51.9779 4.476L51.6419 3.768C51.8499 3.624 52.0859 3.5 52.3499 3.396C52.6139 3.284 52.8899 3.2 53.1779 3.144C53.4659 3.088 53.7419 3.06 54.0059 3.06C54.5099 3.06 54.9259 3.144 55.2539 3.312C55.5819 3.472 55.8259 3.72 55.9859 4.056C56.1459 4.384 56.2259 4.808 56.2259 5.328V9H55.3139V7.644H55.4219C55.3579 7.948 55.2339 8.208 55.0499 8.424C54.8739 8.64 54.6539 8.808 54.3899 8.928C54.1259 9.048 53.8299 9.108 53.5019 9.108ZM59.9972 9.108C59.6932 9.108 59.3972 9.076 59.1092 9.012C58.8292 8.956 58.5652 8.876 58.3172 8.772C58.0772 8.66 57.8692 8.528 57.6932 8.376L58.0052 7.692C58.1972 7.844 58.4052 7.972 58.6292 8.076C58.8532 8.172 59.0812 8.244 59.3132 8.292C59.5452 8.34 59.7812 8.364 60.0212 8.364C60.4772 8.364 60.8212 8.28 61.0532 8.112C61.2852 7.944 61.4012 7.716 61.4012 7.428C61.4012 7.204 61.3252 7.028 61.1732 6.9C61.0212 6.764 60.7812 6.66 60.4532 6.588L59.3612 6.348C58.8572 6.244 58.4812 6.064 58.2332 5.808C57.9932 5.552 57.8732 5.22 57.8732 4.812C57.8732 4.452 57.9652 4.144 58.1492 3.888C58.3412 3.624 58.6092 3.42 58.9532 3.276C59.2972 3.132 59.6972 3.06 60.1532 3.06C60.4252 3.06 60.6852 3.088 60.9332 3.144C61.1812 3.2 61.4132 3.284 61.6292 3.396C61.8532 3.5 62.0452 3.632 62.2052 3.792L61.8812 4.476C61.7292 4.332 61.5572 4.212 61.3652 4.116C61.1732 4.012 60.9732 3.936 60.7652 3.888C60.5652 3.832 60.3612 3.804 60.1532 3.804C59.7052 3.804 59.3652 3.892 59.1332 4.068C58.9012 4.244 58.7852 4.476 58.7852 4.764C58.7852 4.988 58.8572 5.172 59.0012 5.316C59.1452 5.46 59.3692 5.564 59.6732 5.628L60.7652 5.856C61.2852 5.968 61.6732 6.148 61.9292 6.396C62.1932 6.636 62.3252 6.964 62.3252 7.38C62.3252 7.732 62.2292 8.04 62.0372 8.304C61.8452 8.56 61.5732 8.76 61.2212 8.904C60.8772 9.04 60.4692 9.108 59.9972 9.108ZM65.7745 9.108C65.4705 9.108 65.1745 9.076 64.8865 9.012C64.6065 8.956 64.3425 8.876 64.0945 8.772C63.8545 8.66 63.6465 8.528 63.4705 8.376L63.7825 7.692C63.9745 7.844 64.1825 7.972 64.4065 8.076C64.6305 8.172 64.8585 8.244 65.0905 8.292C65.3225 8.34 65.5585 8.364 65.7985 8.364C66.2545 8.364 66.5985 8.28 66.8305 8.112C67.0625 7.944 67.1785 7.716 67.1785 7.428C67.1785 7.204 67.1025 7.028 66.9505 6.9C66.7985 6.764 66.5585 6.66 66.2305 6.588L65.1385 6.348C64.6345 6.244 64.2585 6.064 64.0105 5.808C63.7705 5.552 63.6505 5.22 63.6505 4.812C63.6505 4.452 63.7425 4.144 63.9265 3.888C64.1185 3.624 64.3865 3.42 64.7305 3.276C65.0745 3.132 65.4745 3.06 65.9305 3.06C66.2025 3.06 66.4625 3.088 66.7105 3.144C66.9585 3.2 67.1905 3.284 67.4065 3.396C67.6305 3.5 67.8225 3.632 67.9825 3.792L67.6585 4.476C67.5065 4.332 67.3345 4.212 67.1425 4.116C66.9505 4.012 66.7505 3.936 66.5425 3.888C66.3425 3.832 66.1385 3.804 65.9305 3.804C65.4825 3.804 65.1425 3.892 64.9105 4.068C64.6785 4.244 64.5625 4.476 64.5625 4.764C64.5625 4.988 64.6345 5.172 64.7785 5.316C64.9225 5.46 65.1465 5.564 65.4505 5.628L66.5425 5.856C67.0625 5.968 67.4505 6.148 67.7065 6.396C67.9705 6.636 68.1025 6.964 68.1025 7.38C68.1025 7.732 68.0065 8.04 67.8145 8.304C67.6225 8.56 67.3505 8.76 66.9985 8.904C66.6545 9.04 66.2465 9.108 65.7745 9.108ZM75.0779 9L72.1139 0.539999H73.1459L75.7499 8.16H75.3299L77.9819 0.539999H78.7739L81.3899 8.16H81.0179L83.6339 0.539999H84.6179L81.6539 9H80.7779L78.2339 1.68H78.4979L75.9299 9H75.0779ZM85.7529 1.716V0.624H86.9529V1.716H85.7529ZM85.8729 9V3.168H86.8449V9H85.8729ZM91.002 9.108C90.314 9.108 89.798 8.924 89.454 8.556C89.11 8.188 88.938 7.664 88.938 6.984V3.924H87.798V3.168H88.938V1.38H89.91V3.168H91.758V3.924H89.91V6.888C89.91 7.344 90.006 7.692 90.198 7.932C90.39 8.164 90.702 8.28 91.134 8.28C91.262 8.28 91.39 8.264 91.518 8.232C91.646 8.2 91.762 8.168 91.866 8.136L92.034 8.88C91.93 8.936 91.778 8.988 91.578 9.036C91.378 9.084 91.186 9.108 91.002 9.108ZM92.8573 9V0.539999H93.8293V4.464H93.6733C93.8413 4 94.1133 3.652 94.4893 3.42C94.8733 3.18 95.3133 3.06 95.8093 3.06C96.2733 3.06 96.6573 3.144 96.9613 3.312C97.2733 3.48 97.5053 3.736 97.6573 4.08C97.8093 4.416 97.8853 4.844 97.8853 5.364V9H96.9133V5.424C96.9133 5.064 96.8653 4.768 96.7693 4.536C96.6813 4.304 96.5373 4.132 96.3373 4.02C96.1453 3.908 95.8933 3.852 95.5813 3.852C95.2293 3.852 94.9213 3.928 94.6573 4.08C94.3933 4.232 94.1893 4.444 94.0453 4.716C93.9013 4.988 93.8293 5.308 93.8293 5.676V9H92.8573ZM105.628 9.108C105.188 9.108 104.772 9.068 104.38 8.988C103.996 8.908 103.64 8.796 103.312 8.652C102.992 8.5 102.7 8.316 102.436 8.1L102.784 7.308C103.056 7.508 103.332 7.68 103.612 7.824C103.9 7.96 104.208 8.064 104.536 8.136C104.872 8.2 105.236 8.232 105.628 8.232C106.348 8.232 106.88 8.1 107.224 7.836C107.576 7.564 107.752 7.208 107.752 6.768C107.752 6.536 107.696 6.336 107.584 6.168C107.48 6 107.304 5.856 107.056 5.736C106.816 5.616 106.5 5.516 106.108 5.436L104.86 5.184C104.108 5.024 103.544 4.764 103.168 4.404C102.8 4.036 102.616 3.548 102.616 2.94C102.616 2.436 102.744 1.996 103 1.62C103.264 1.244 103.628 0.951999 104.092 0.744C104.564 0.536 105.1 0.431999 105.7 0.431999C106.084 0.431999 106.448 0.471999 106.792 0.551999C107.136 0.632 107.452 0.752 107.74 0.912C108.036 1.064 108.296 1.252 108.52 1.476L108.172 2.244C107.812 1.916 107.432 1.68 107.032 1.536C106.632 1.384 106.184 1.308 105.688 1.308C105.264 1.308 104.896 1.372 104.584 1.5C104.28 1.628 104.04 1.816 103.864 2.064C103.696 2.304 103.612 2.584 103.612 2.904C103.612 3.288 103.728 3.592 103.96 3.816C104.2 4.04 104.588 4.204 105.124 4.308L106.372 4.572C107.18 4.74 107.776 4.996 108.16 5.34C108.552 5.676 108.748 6.136 108.748 6.72C108.748 7.184 108.62 7.6 108.364 7.968C108.116 8.328 107.756 8.608 107.284 8.808C106.82 9.008 106.268 9.108 105.628 9.108ZM112.77 9.108C112.154 9.108 111.622 8.988 111.174 8.748C110.734 8.5 110.39 8.152 110.142 7.704C109.902 7.256 109.782 6.72 109.782 6.096C109.782 5.488 109.902 4.96 110.142 4.512C110.382 4.056 110.71 3.7 111.126 3.444C111.55 3.188 112.038 3.06 112.59 3.06C113.118 3.06 113.57 3.176 113.946 3.408C114.322 3.64 114.61 3.968 114.81 4.392C115.018 4.816 115.122 5.324 115.122 5.916V6.288H110.526V5.652H114.474L114.282 5.808C114.282 5.168 114.138 4.672 113.85 4.32C113.57 3.96 113.158 3.78 112.614 3.78C112.206 3.78 111.858 3.876 111.57 4.068C111.29 4.252 111.078 4.512 110.934 4.848C110.79 5.176 110.718 5.56 110.718 6V6.072C110.718 6.56 110.794 6.972 110.946 7.308C111.106 7.644 111.342 7.9 111.654 8.076C111.966 8.244 112.338 8.328 112.77 8.328C113.114 8.328 113.446 8.276 113.766 8.172C114.094 8.06 114.402 7.88 114.69 7.632L115.026 8.316C114.762 8.556 114.426 8.748 114.018 8.892C113.61 9.036 113.194 9.108 112.77 9.108ZM119.001 9.108C118.417 9.108 117.913 8.98 117.489 8.724C117.065 8.468 116.737 8.112 116.505 7.656C116.281 7.192 116.169 6.656 116.169 6.048C116.169 5.432 116.281 4.9 116.505 4.452C116.737 4.004 117.065 3.66 117.489 3.42C117.913 3.18 118.417 3.06 119.001 3.06C119.361 3.06 119.717 3.124 120.069 3.252C120.421 3.38 120.713 3.56 120.945 3.792L120.609 4.5C120.377 4.276 120.121 4.112 119.841 4.008C119.569 3.904 119.309 3.852 119.061 3.852C118.453 3.852 117.985 4.044 117.657 4.428C117.329 4.804 117.165 5.348 117.165 6.06C117.165 6.756 117.329 7.308 117.657 7.716C117.985 8.116 118.453 8.316 119.061 8.316C119.309 8.316 119.569 8.264 119.841 8.16C120.121 8.056 120.377 7.888 120.609 7.656L120.945 8.364C120.713 8.596 120.417 8.78 120.057 8.916C119.705 9.044 119.353 9.108 119.001 9.108ZM124.148 9.108C123.676 9.108 123.284 9.024 122.972 8.856C122.668 8.68 122.436 8.42 122.276 8.076C122.124 7.732 122.048 7.304 122.048 6.792V3.168H123.02V6.78C123.02 7.124 123.064 7.412 123.152 7.644C123.248 7.868 123.396 8.036 123.596 8.148C123.796 8.252 124.044 8.304 124.34 8.304C124.676 8.304 124.968 8.228 125.216 8.076C125.464 7.924 125.66 7.712 125.804 7.44C125.948 7.168 126.02 6.848 126.02 6.48V3.168H126.992V9H126.044V7.656H126.2C126.04 8.128 125.776 8.488 125.408 8.736C125.048 8.984 124.628 9.108 124.148 9.108ZM128.81 9V3.168H129.758V4.548H129.638C129.774 4.076 130.01 3.72 130.346 3.48C130.682 3.232 131.126 3.088 131.678 3.048L132.026 3.012L132.098 3.852L131.486 3.924C130.942 3.972 130.522 4.148 130.226 4.452C129.938 4.748 129.794 5.156 129.794 5.676V9H128.81ZM135.669 9.108C135.053 9.108 134.521 8.988 134.073 8.748C133.633 8.5 133.289 8.152 133.041 7.704C132.801 7.256 132.681 6.72 132.681 6.096C132.681 5.488 132.801 4.96 133.041 4.512C133.281 4.056 133.609 3.7 134.025 3.444C134.449 3.188 134.937 3.06 135.489 3.06C136.017 3.06 136.469 3.176 136.845 3.408C137.221 3.64 137.509 3.968 137.709 4.392C137.917 4.816 138.021 5.324 138.021 5.916V6.288H133.425V5.652H137.373L137.181 5.808C137.181 5.168 137.037 4.672 136.749 4.32C136.469 3.96 136.057 3.78 135.513 3.78C135.105 3.78 134.757 3.876 134.469 4.068C134.189 4.252 133.977 4.512 133.833 4.848C133.689 5.176 133.617 5.56 133.617 6V6.072C133.617 6.56 133.693 6.972 133.845 7.308C134.005 7.644 134.241 7.9 134.553 8.076C134.865 8.244 135.237 8.328 135.669 8.328C136.013 8.328 136.345 8.276 136.665 8.172C136.993 8.06 137.301 7.88 137.589 7.632L137.925 8.316C137.661 8.556 137.325 8.748 136.917 8.892C136.509 9.036 136.093 9.108 135.669 9.108ZM142.642 9V0.539999H143.626V8.136H147.934V9H142.642ZM148.905 1.716V0.624H150.105V1.716H148.905ZM149.025 9V3.168H149.997V9H149.025ZM154.034 9.108C153.514 9.108 153.058 8.984 152.666 8.736C152.282 8.488 151.982 8.14 151.766 7.692C151.558 7.236 151.454 6.7 151.454 6.084C151.454 5.46 151.558 4.924 151.766 4.476C151.982 4.02 152.282 3.672 152.666 3.432C153.058 3.184 153.514 3.06 154.034 3.06C154.562 3.06 155.014 3.192 155.39 3.456C155.766 3.72 156.018 4.076 156.146 4.524H156.014V0.539999H156.986V9H156.038V7.608H156.158C156.03 8.064 155.774 8.428 155.39 8.7C155.014 8.972 154.562 9.108 154.034 9.108ZM154.238 8.328C154.79 8.328 155.226 8.136 155.546 7.752C155.874 7.36 156.038 6.804 156.038 6.084C156.038 5.356 155.874 4.8 155.546 4.416C155.226 4.032 154.79 3.84 154.238 3.84C153.694 3.84 153.258 4.032 152.93 4.416C152.602 4.8 152.438 5.356 152.438 6.084C152.438 6.804 152.602 7.36 152.93 7.752C153.258 8.136 153.694 8.328 154.238 8.328ZM159.158 10.368L158.702 10.02C158.846 9.868 158.954 9.724 159.026 9.588C159.106 9.46 159.158 9.328 159.182 9.192C159.214 9.064 159.23 8.932 159.23 8.796L159.446 9H158.654V7.776H159.878V8.64C159.878 8.856 159.854 9.06 159.806 9.252C159.766 9.452 159.694 9.644 159.59 9.828C159.486 10.012 159.342 10.192 159.158 10.368ZM164.755 9V0.539999H168.103C168.711 0.539999 169.223 0.64 169.639 0.84C170.063 1.032 170.383 1.32 170.599 1.704C170.815 2.08 170.923 2.54 170.923 3.084C170.923 3.612 170.815 4.068 170.599 4.452C170.383 4.836 170.063 5.128 169.639 5.328C169.223 5.528 168.711 5.628 168.103 5.628H165.739V9H164.755ZM165.739 4.8H167.983C168.631 4.8 169.119 4.656 169.447 4.368C169.783 4.072 169.951 3.644 169.951 3.084C169.951 2.516 169.783 2.088 169.447 1.8C169.119 1.504 168.631 1.356 167.983 1.356H165.739V4.8ZM174.587 9.108C173.971 9.108 173.439 8.988 172.991 8.748C172.551 8.5 172.207 8.152 171.959 7.704C171.719 7.256 171.599 6.72 171.599 6.096C171.599 5.488 171.719 4.96 171.959 4.512C172.199 4.056 172.527 3.7 172.943 3.444C173.367 3.188 173.855 3.06 174.407 3.06C174.935 3.06 175.387 3.176 175.763 3.408C176.139 3.64 176.427 3.968 176.627 4.392C176.835 4.816 176.939 5.324 176.939 5.916V6.288H172.343V5.652H176.291L176.099 5.808C176.099 5.168 175.955 4.672 175.667 4.32C175.387 3.96 174.975 3.78 174.431 3.78C174.023 3.78 173.675 3.876 173.387 4.068C173.107 4.252 172.895 4.512 172.751 4.848C172.607 5.176 172.535 5.56 172.535 6V6.072C172.535 6.56 172.611 6.972 172.763 7.308C172.923 7.644 173.159 7.9 173.471 8.076C173.783 8.244 174.155 8.328 174.587 8.328C174.931 8.328 175.263 8.276 175.583 8.172C175.911 8.06 176.219 7.88 176.507 7.632L176.843 8.316C176.579 8.556 176.243 8.748 175.835 8.892C175.427 9.036 175.011 9.108 174.587 9.108ZM178.346 9V3.168H179.294V4.548H179.174C179.31 4.076 179.546 3.72 179.882 3.48C180.218 3.232 180.662 3.088 181.214 3.048L181.562 3.012L181.634 3.852L181.022 3.924C180.478 3.972 180.058 4.148 179.762 4.452C179.474 4.748 179.33 5.156 179.33 5.676V9H178.346ZM183.275 9V3.924H182.123V3.168H183.539L183.275 3.42V2.964C183.275 2.188 183.467 1.6 183.851 1.2C184.243 0.799999 184.843 0.575999 185.651 0.528L186.119 0.504L186.203 1.248L185.651 1.284C185.323 1.308 185.055 1.38 184.847 1.5C184.639 1.62 184.487 1.792 184.391 2.016C184.295 2.24 184.247 2.516 184.247 2.844V3.348L184.103 3.168H185.927V3.924H184.247V9H183.275ZM189.423 9.108C188.807 9.108 188.275 8.988 187.827 8.748C187.387 8.5 187.043 8.152 186.795 7.704C186.555 7.256 186.435 6.72 186.435 6.096C186.435 5.488 186.555 4.96 186.795 4.512C187.035 4.056 187.363 3.7 187.779 3.444C188.203 3.188 188.691 3.06 189.243 3.06C189.771 3.06 190.223 3.176 190.599 3.408C190.975 3.64 191.263 3.968 191.463 4.392C191.671 4.816 191.775 5.324 191.775 5.916V6.288H187.179V5.652H191.127L190.935 5.808C190.935 5.168 190.791 4.672 190.503 4.32C190.223 3.96 189.811 3.78 189.267 3.78C188.859 3.78 188.511 3.876 188.223 4.068C187.943 4.252 187.731 4.512 187.587 4.848C187.443 5.176 187.371 5.56 187.371 6V6.072C187.371 6.56 187.447 6.972 187.599 7.308C187.759 7.644 187.995 7.9 188.307 8.076C188.619 8.244 188.991 8.328 189.423 8.328C189.767 8.328 190.099 8.276 190.419 8.172C190.747 8.06 191.055 7.88 191.343 7.632L191.679 8.316C191.415 8.556 191.079 8.748 190.671 8.892C190.263 9.036 189.847 9.108 189.423 9.108ZM195.654 9.108C195.07 9.108 194.566 8.98 194.142 8.724C193.718 8.468 193.39 8.112 193.158 7.656C192.934 7.192 192.822 6.656 192.822 6.048C192.822 5.432 192.934 4.9 193.158 4.452C193.39 4.004 193.718 3.66 194.142 3.42C194.566 3.18 195.07 3.06 195.654 3.06C196.014 3.06 196.37 3.124 196.722 3.252C197.074 3.38 197.366 3.56 197.598 3.792L197.262 4.5C197.03 4.276 196.774 4.112 196.494 4.008C196.222 3.904 195.962 3.852 195.714 3.852C195.106 3.852 194.638 4.044 194.31 4.428C193.982 4.804 193.818 5.348 193.818 6.06C193.818 6.756 193.982 7.308 194.31 7.716C194.638 8.116 195.106 8.316 195.714 8.316C195.962 8.316 196.222 8.264 196.494 8.16C196.774 8.056 197.03 7.888 197.262 7.656L197.598 8.364C197.366 8.596 197.07 8.78 196.71 8.916C196.358 9.044 196.006 9.108 195.654 9.108ZM201.076 9.108C200.388 9.108 199.872 8.924 199.528 8.556C199.184 8.188 199.012 7.664 199.012 6.984V3.924H197.872V3.168H199.012V1.38H199.984V3.168H201.832V3.924H199.984V6.888C199.984 7.344 200.08 7.692 200.272 7.932C200.464 8.164 200.776 8.28 201.208 8.28C201.336 8.28 201.464 8.264 201.592 8.232C201.72 8.2 201.836 8.168 201.94 8.136L202.108 8.88C202.004 8.936 201.852 8.988 201.652 9.036C201.452 9.084 201.26 9.108 201.076 9.108ZM206.146 9V0.539999H211.378V1.368H207.13V4.32H211.138V5.148H207.13V9H206.146ZM214.789 9.108C214.221 9.108 213.729 8.984 213.313 8.736C212.897 8.488 212.573 8.14 212.341 7.692C212.117 7.236 212.005 6.7 212.005 6.084C212.005 5.468 212.117 4.936 212.341 4.488C212.573 4.032 212.897 3.68 213.313 3.432C213.729 3.184 214.221 3.06 214.789 3.06C215.357 3.06 215.849 3.184 216.265 3.432C216.681 3.68 217.001 4.032 217.225 4.488C217.457 4.936 217.573 5.468 217.573 6.084C217.573 6.7 217.457 7.236 217.225 7.692C217.001 8.14 216.681 8.488 216.265 8.736C215.849 8.984 215.357 9.108 214.789 9.108ZM214.789 8.328C215.341 8.328 215.777 8.136 216.097 7.752C216.425 7.36 216.589 6.8 216.589 6.072C216.589 5.352 216.425 4.8 216.097 4.416C215.777 4.032 215.341 3.84 214.789 3.84C214.245 3.84 213.809 4.032 213.481 4.416C213.153 4.8 212.989 5.352 212.989 6.072C212.989 6.8 213.153 7.36 213.481 7.752C213.809 8.136 214.245 8.328 214.789 8.328ZM219.033 9V3.168H219.981V4.548H219.861C219.997 4.076 220.233 3.72 220.569 3.48C220.905 3.232 221.349 3.088 221.901 3.048L222.249 3.012L222.321 3.852L221.709 3.924C221.165 3.972 220.745 4.148 220.449 4.452C220.161 4.748 220.017 5.156 220.017 5.676V9H219.033ZM225.456 9.084L225.384 8.256L226.104 8.208C226.384 8.184 226.616 8.116 226.8 8.004C226.984 7.884 227.124 7.716 227.22 7.5C227.316 7.284 227.364 7.032 227.364 6.744V0.539999H228.348V6.756C228.348 7.212 228.268 7.608 228.108 7.944C227.948 8.272 227.712 8.528 227.4 8.712C227.088 8.896 226.7 9.004 226.236 9.036L225.456 9.084ZM232.371 9.108C231.899 9.108 231.507 9.024 231.195 8.856C230.891 8.68 230.659 8.42 230.499 8.076C230.347 7.732 230.271 7.304 230.271 6.792V3.168H231.243V6.78C231.243 7.124 231.287 7.412 231.375 7.644C231.471 7.868 231.619 8.036 231.819 8.148C232.019 8.252 232.267 8.304 232.563 8.304C232.899 8.304 233.191 8.228 233.439 8.076C233.687 7.924 233.883 7.712 234.027 7.44C234.171 7.168 234.243 6.848 234.243 6.48V3.168H235.215V9H234.267V7.656H234.423C234.263 8.128 233.999 8.488 233.631 8.736C233.271 8.984 232.851 9.108 232.371 9.108ZM236.913 1.716V0.624H238.113V1.716H236.913ZM237.033 9V3.168H238.005V9H237.033ZM242.294 9.108C241.71 9.108 241.206 8.98 240.782 8.724C240.358 8.468 240.03 8.112 239.798 7.656C239.574 7.192 239.462 6.656 239.462 6.048C239.462 5.432 239.574 4.9 239.798 4.452C240.03 4.004 240.358 3.66 240.782 3.42C241.206 3.18 241.71 3.06 242.294 3.06C242.654 3.06 243.01 3.124 243.362 3.252C243.714 3.38 244.006 3.56 244.238 3.792L243.902 4.5C243.67 4.276 243.414 4.112 243.134 4.008C242.862 3.904 242.602 3.852 242.354 3.852C241.746 3.852 241.278 4.044 240.95 4.428C240.622 4.804 240.458 5.348 240.458 6.06C240.458 6.756 240.622 7.308 240.95 7.716C241.278 8.116 241.746 8.316 242.354 8.316C242.602 8.316 242.862 8.264 243.134 8.16C243.414 8.056 243.67 7.888 243.902 7.656L244.238 8.364C244.006 8.596 243.71 8.78 243.35 8.916C242.998 9.044 242.646 9.108 242.294 9.108ZM247.888 9.108C247.272 9.108 246.74 8.988 246.292 8.748C245.852 8.5 245.508 8.152 245.26 7.704C245.02 7.256 244.9 6.72 244.9 6.096C244.9 5.488 245.02 4.96 245.26 4.512C245.5 4.056 245.828 3.7 246.244 3.444C246.668 3.188 247.156 3.06 247.708 3.06C248.236 3.06 248.688 3.176 249.064 3.408C249.44 3.64 249.728 3.968 249.928 4.392C250.136 4.816 250.24 5.324 250.24 5.916V6.288H245.644V5.652H249.592L249.4 5.808C249.4 5.168 249.256 4.672 248.968 4.32C248.688 3.96 248.276 3.78 247.732 3.78C247.324 3.78 246.976 3.876 246.688 4.068C246.408 4.252 246.196 4.512 246.052 4.848C245.908 5.176 245.836 5.56 245.836 6V6.072C245.836 6.56 245.912 6.972 246.064 7.308C246.224 7.644 246.46 7.9 246.772 8.076C247.084 8.244 247.456 8.328 247.888 8.328C248.232 8.328 248.564 8.276 248.884 8.172C249.212 8.06 249.52 7.88 249.808 7.632L250.144 8.316C249.88 8.556 249.544 8.748 249.136 8.892C248.728 9.036 248.312 9.108 247.888 9.108ZM253.614 9.108C253.31 9.108 253.014 9.076 252.726 9.012C252.446 8.956 252.182 8.876 251.934 8.772C251.694 8.66 251.486 8.528 251.31 8.376L251.622 7.692C251.814 7.844 252.022 7.972 252.246 8.076C252.47 8.172 252.698 8.244 252.93 8.292C253.162 8.34 253.398 8.364 253.638 8.364C254.094 8.364 254.438 8.28 254.67 8.112C254.902 7.944 255.018 7.716 255.018 7.428C255.018 7.204 254.942 7.028 254.79 6.9C254.638 6.764 254.398 6.66 254.07 6.588L252.978 6.348C252.474 6.244 252.098 6.064 251.85 5.808C251.61 5.552 251.49 5.22 251.49 4.812C251.49 4.452 251.582 4.144 251.766 3.888C251.958 3.624 252.226 3.42 252.57 3.276C252.914 3.132 253.314 3.06 253.77 3.06C254.042 3.06 254.302 3.088 254.55 3.144C254.798 3.2 255.03 3.284 255.246 3.396C255.47 3.5 255.662 3.632 255.822 3.792L255.498 4.476C255.346 4.332 255.174 4.212 254.982 4.116C254.79 4.012 254.59 3.936 254.382 3.888C254.182 3.832 253.978 3.804 253.77 3.804C253.322 3.804 252.982 3.892 252.75 4.068C252.518 4.244 252.402 4.476 252.402 4.764C252.402 4.988 252.474 5.172 252.618 5.316C252.762 5.46 252.986 5.564 253.29 5.628L254.382 5.856C254.902 5.968 255.29 6.148 255.546 6.396C255.81 6.636 255.942 6.964 255.942 7.38C255.942 7.732 255.846 8.04 255.654 8.304C255.462 8.56 255.19 8.76 254.838 8.904C254.494 9.04 254.086 9.108 253.614 9.108ZM257.713 10.368L257.257 10.02C257.401 9.868 257.509 9.724 257.581 9.588C257.661 9.46 257.713 9.328 257.737 9.192C257.769 9.064 257.785 8.932 257.785 8.796L258.001 9H257.209V7.776H258.433V8.64C258.433 8.856 258.409 9.06 258.361 9.252C258.321 9.452 258.249 9.644 258.145 9.828C258.041 10.012 257.897 10.192 257.713 10.368ZM266.046 9.108C265.606 9.108 265.19 9.068 264.798 8.988C264.414 8.908 264.058 8.796 263.73 8.652C263.41 8.5 263.118 8.316 262.854 8.1L263.202 7.308C263.474 7.508 263.75 7.68 264.03 7.824C264.318 7.96 264.626 8.064 264.954 8.136C265.29 8.2 265.654 8.232 266.046 8.232C266.766 8.232 267.298 8.1 267.642 7.836C267.994 7.564 268.17 7.208 268.17 6.768C268.17 6.536 268.114 6.336 268.002 6.168C267.898 6 267.722 5.856 267.474 5.736C267.234 5.616 266.918 5.516 266.526 5.436L265.278 5.184C264.526 5.024 263.962 4.764 263.586 4.404C263.218 4.036 263.034 3.548 263.034 2.94C263.034 2.436 263.162 1.996 263.418 1.62C263.682 1.244 264.046 0.951999 264.51 0.744C264.982 0.536 265.518 0.431999 266.118 0.431999C266.502 0.431999 266.866 0.471999 267.21 0.551999C267.554 0.632 267.87 0.752 268.158 0.912C268.454 1.064 268.714 1.252 268.938 1.476L268.59 2.244C268.23 1.916 267.85 1.68 267.45 1.536C267.05 1.384 266.602 1.308 266.106 1.308C265.682 1.308 265.314 1.372 265.002 1.5C264.698 1.628 264.458 1.816 264.282 2.064C264.114 2.304 264.03 2.584 264.03 2.904C264.03 3.288 264.146 3.592 264.378 3.816C264.618 4.04 265.006 4.204 265.542 4.308L266.79 4.572C267.598 4.74 268.194 4.996 268.578 5.34C268.97 5.676 269.166 6.136 269.166 6.72C269.166 7.184 269.038 7.6 268.782 7.968C268.534 8.328 268.174 8.608 267.702 8.808C267.238 9.008 266.686 9.108 266.046 9.108ZM270.584 9V3.168H271.532V4.464H271.4C271.496 4.168 271.636 3.916 271.82 3.708C272.012 3.492 272.236 3.332 272.492 3.228C272.756 3.116 273.044 3.06 273.356 3.06C273.852 3.06 274.252 3.18 274.556 3.42C274.868 3.652 275.076 4.016 275.18 4.512H275C275.144 4.064 275.4 3.712 275.768 3.456C276.144 3.192 276.58 3.06 277.076 3.06C277.516 3.06 277.876 3.144 278.156 3.312C278.444 3.48 278.66 3.736 278.804 4.08C278.948 4.416 279.02 4.844 279.02 5.364V9H278.048V5.412C278.048 4.876 277.956 4.484 277.772 4.236C277.588 3.98 277.276 3.852 276.836 3.852C276.524 3.852 276.248 3.928 276.008 4.08C275.776 4.232 275.596 4.448 275.468 4.728C275.348 5 275.288 5.324 275.288 5.7V9H274.316V5.412C274.316 4.876 274.22 4.484 274.028 4.236C273.844 3.98 273.536 3.852 273.104 3.852C272.784 3.852 272.508 3.928 272.276 4.08C272.044 4.232 271.864 4.448 271.736 4.728C271.616 5 271.556 5.324 271.556 5.7V9H270.584ZM283.262 9.108C282.694 9.108 282.202 8.984 281.786 8.736C281.37 8.488 281.046 8.14 280.814 7.692C280.59 7.236 280.478 6.7 280.478 6.084C280.478 5.468 280.59 4.936 280.814 4.488C281.046 4.032 281.37 3.68 281.786 3.432C282.202 3.184 282.694 3.06 283.262 3.06C283.83 3.06 284.322 3.184 284.738 3.432C285.154 3.68 285.474 4.032 285.698 4.488C285.93 4.936 286.046 5.468 286.046 6.084C286.046 6.7 285.93 7.236 285.698 7.692C285.474 8.14 285.154 8.488 284.738 8.736C284.322 8.984 283.83 9.108 283.262 9.108ZM283.262 8.328C283.814 8.328 284.25 8.136 284.57 7.752C284.898 7.36 285.062 6.8 285.062 6.072C285.062 5.352 284.898 4.8 284.57 4.416C284.25 4.032 283.814 3.84 283.262 3.84C282.718 3.84 282.282 4.032 281.954 4.416C281.626 4.8 281.462 5.352 281.462 6.072C281.462 6.8 281.626 7.36 281.954 7.752C282.282 8.136 282.718 8.328 283.262 8.328ZM289.93 9.108C289.362 9.108 288.87 8.984 288.454 8.736C288.038 8.488 287.714 8.14 287.482 7.692C287.258 7.236 287.146 6.7 287.146 6.084C287.146 5.468 287.258 4.936 287.482 4.488C287.714 4.032 288.038 3.68 288.454 3.432C288.87 3.184 289.362 3.06 289.93 3.06C290.498 3.06 290.99 3.184 291.406 3.432C291.822 3.68 292.142 4.032 292.366 4.488C292.598 4.936 292.714 5.468 292.714 6.084C292.714 6.7 292.598 7.236 292.366 7.692C292.142 8.14 291.822 8.488 291.406 8.736C290.99 8.984 290.498 9.108 289.93 9.108ZM289.93 8.328C290.482 8.328 290.918 8.136 291.238 7.752C291.566 7.36 291.73 6.8 291.73 6.072C291.73 5.352 291.566 4.8 291.238 4.416C290.918 4.032 290.482 3.84 289.93 3.84C289.386 3.84 288.95 4.032 288.622 4.416C288.294 4.8 288.13 5.352 288.13 6.072C288.13 6.8 288.294 7.36 288.622 7.752C288.95 8.136 289.386 8.328 289.93 8.328ZM296.455 9.108C295.767 9.108 295.251 8.924 294.907 8.556C294.563 8.188 294.391 7.664 294.391 6.984V3.924H293.251V3.168H294.391V1.38H295.363V3.168H297.211V3.924H295.363V6.888C295.363 7.344 295.459 7.692 295.651 7.932C295.843 8.164 296.155 8.28 296.587 8.28C296.715 8.28 296.843 8.264 296.971 8.232C297.099 8.2 297.215 8.168 297.319 8.136L297.487 8.88C297.383 8.936 297.231 8.988 297.031 9.036C296.831 9.084 296.639 9.108 296.455 9.108ZM298.31 9V0.539999H299.282V4.464H299.126C299.294 4 299.566 3.652 299.942 3.42C300.326 3.18 300.766 3.06 301.262 3.06C301.726 3.06 302.11 3.144 302.414 3.312C302.726 3.48 302.958 3.736 303.11 4.08C303.262 4.416 303.338 4.844 303.338 5.364V9H302.366V5.424C302.366 5.064 302.318 4.768 302.222 4.536C302.134 4.304 301.99 4.132 301.79 4.02C301.598 3.908 301.346 3.852 301.034 3.852C300.682 3.852 300.374 3.928 300.11 4.08C299.846 4.232 299.642 4.444 299.498 4.716C299.354 4.988 299.282 5.308 299.282 5.676V9H298.31ZM305.011 1.716V0.624H306.211V1.716H305.011ZM305.131 9V3.168H306.103V9H305.131ZM310.548 9.108C309.932 9.108 309.4 8.988 308.952 8.748C308.512 8.5 308.168 8.152 307.92 7.704C307.68 7.256 307.56 6.72 307.56 6.096C307.56 5.488 307.68 4.96 307.92 4.512C308.16 4.056 308.488 3.7 308.904 3.444C309.328 3.188 309.816 3.06 310.368 3.06C310.896 3.06 311.348 3.176 311.724 3.408C312.1 3.64 312.388 3.968 312.588 4.392C312.796 4.816 312.9 5.324 312.9 5.916V6.288H308.304V5.652H312.252L312.06 5.808C312.06 5.168 311.916 4.672 311.628 4.32C311.348 3.96 310.936 3.78 310.392 3.78C309.984 3.78 309.636 3.876 309.348 4.068C309.068 4.252 308.856 4.512 308.712 4.848C308.568 5.176 308.496 5.56 308.496 6V6.072C308.496 6.56 308.572 6.972 308.724 7.308C308.884 7.644 309.12 7.9 309.432 8.076C309.744 8.244 310.116 8.328 310.548 8.328C310.892 8.328 311.224 8.276 311.544 8.172C311.872 8.06 312.18 7.88 312.468 7.632L312.804 8.316C312.54 8.556 312.204 8.748 311.796 8.892C311.388 9.036 310.972 9.108 310.548 9.108ZM316.275 9.108C315.971 9.108 315.675 9.076 315.387 9.012C315.107 8.956 314.843 8.876 314.595 8.772C314.355 8.66 314.147 8.528 313.971 8.376L314.283 7.692C314.475 7.844 314.683 7.972 314.907 8.076C315.131 8.172 315.359 8.244 315.591 8.292C315.823 8.34 316.059 8.364 316.299 8.364C316.755 8.364 317.099 8.28 317.331 8.112C317.563 7.944 317.679 7.716 317.679 7.428C317.679 7.204 317.603 7.028 317.451 6.9C317.299 6.764 317.059 6.66 316.731 6.588L315.639 6.348C315.135 6.244 314.759 6.064 314.511 5.808C314.271 5.552 314.151 5.22 314.151 4.812C314.151 4.452 314.243 4.144 314.427 3.888C314.619 3.624 314.887 3.42 315.231 3.276C315.575 3.132 315.975 3.06 316.431 3.06C316.703 3.06 316.963 3.088 317.211 3.144C317.459 3.2 317.691 3.284 317.907 3.396C318.131 3.5 318.323 3.632 318.483 3.792L318.159 4.476C318.007 4.332 317.835 4.212 317.643 4.116C317.451 4.012 317.251 3.936 317.043 3.888C316.843 3.832 316.639 3.804 316.431 3.804C315.983 3.804 315.643 3.892 315.411 4.068C315.179 4.244 315.063 4.476 315.063 4.764C315.063 4.988 315.135 5.172 315.279 5.316C315.423 5.46 315.647 5.564 315.951 5.628L317.043 5.856C317.563 5.968 317.951 6.148 318.207 6.396C318.471 6.636 318.603 6.964 318.603 7.38C318.603 7.732 318.507 8.04 318.315 8.304C318.123 8.56 317.851 8.76 317.499 8.904C317.155 9.04 316.747 9.108 316.275 9.108ZM320.373 10.368L319.917 10.02C320.061 9.868 320.169 9.724 320.241 9.588C320.321 9.46 320.373 9.328 320.397 9.192C320.429 9.064 320.445 8.932 320.445 8.796L320.661 9H319.869V7.776H321.093V8.64C321.093 8.856 321.069 9.06 321.021 9.252C320.981 9.452 320.909 9.644 320.805 9.828C320.701 10.012 320.557 10.192 320.373 10.368ZM1.044 25V16.54H3.9C4.82 16.54 5.596 16.704 6.228 17.032C6.868 17.352 7.352 17.828 7.68 18.46C8.016 19.084 8.184 19.852 8.184 20.764C8.184 21.676 8.016 22.448 7.68 23.08C7.352 23.712 6.868 24.192 6.228 24.52C5.596 24.84 4.82 25 3.9 25H1.044ZM2.028 24.16H3.828C4.94 24.16 5.768 23.876 6.312 23.308C6.864 22.74 7.14 21.892 7.14 20.764C7.14 19.636 6.864 18.792 6.312 18.232C5.76 17.664 4.932 17.38 3.828 17.38H2.028V24.16ZM12.4463 25.108C11.8303 25.108 11.2983 24.988 10.8503 24.748C10.4103 24.5 10.0663 24.152 9.81825 23.704C9.57825 23.256 9.45825 22.72 9.45825 22.096C9.45825 21.488 9.57825 20.96 9.81825 20.512C10.0583 20.056 10.3863 19.7 10.8023 19.444C11.2263 19.188 11.7143 19.06 12.2663 19.06C12.7943 19.06 13.2463 19.176 13.6223 19.408C13.9983 19.64 14.2863 19.968 14.4863 20.392C14.6943 20.816 14.7983 21.324 14.7983 21.916V22.288H10.2023V21.652H14.1503L13.9583 21.808C13.9583 21.168 13.8143 20.672 13.5263 20.32C13.2463 19.96 12.8343 19.78 12.2903 19.78C11.8823 19.78 11.5343 19.876 11.2463 20.068C10.9663 20.252 10.7543 20.512 10.6103 20.848C10.4663 21.176 10.3943 21.56 10.3943 22V22.072C10.3943 22.56 10.4703 22.972 10.6223 23.308C10.7823 23.644 11.0183 23.9 11.3303 24.076C11.6423 24.244 12.0143 24.328 12.4463 24.328C12.7903 24.328 13.1223 24.276 13.4423 24.172C13.7703 24.06 14.0783 23.88 14.3663 23.632L14.7023 24.316C14.4383 24.556 14.1023 24.748 13.6943 24.892C13.2863 25.036 12.8703 25.108 12.4463 25.108ZM18.173 25.108C17.869 25.108 17.573 25.076 17.285 25.012C17.005 24.956 16.741 24.876 16.493 24.772C16.253 24.66 16.045 24.528 15.869 24.376L16.181 23.692C16.373 23.844 16.581 23.972 16.805 24.076C17.029 24.172 17.257 24.244 17.489 24.292C17.721 24.34 17.957 24.364 18.197 24.364C18.653 24.364 18.997 24.28 19.229 24.112C19.461 23.944 19.577 23.716 19.577 23.428C19.577 23.204 19.501 23.028 19.349 22.9C19.197 22.764 18.957 22.66 18.629 22.588L17.537 22.348C17.033 22.244 16.657 22.064 16.409 21.808C16.169 21.552 16.049 21.22 16.049 20.812C16.049 20.452 16.141 20.144 16.325 19.888C16.517 19.624 16.785 19.42 17.129 19.276C17.473 19.132 17.873 19.06 18.329 19.06C18.601 19.06 18.861 19.088 19.109 19.144C19.357 19.2 19.589 19.284 19.805 19.396C20.029 19.5 20.221 19.632 20.381 19.792L20.057 20.476C19.905 20.332 19.733 20.212 19.541 20.116C19.349 20.012 19.149 19.936 18.941 19.888C18.741 19.832 18.537 19.804 18.329 19.804C17.881 19.804 17.541 19.892 17.309 20.068C17.077 20.244 16.961 20.476 16.961 20.764C16.961 20.988 17.033 21.172 17.177 21.316C17.321 21.46 17.545 21.564 17.849 21.628L18.941 21.856C19.461 21.968 19.849 22.148 20.105 22.396C20.369 22.636 20.501 22.964 20.501 23.38C20.501 23.732 20.405 24.04 20.213 24.304C20.021 24.56 19.749 24.76 19.397 24.904C19.053 25.04 18.645 25.108 18.173 25.108ZM23.9503 25.108C23.6463 25.108 23.3503 25.076 23.0623 25.012C22.7823 24.956 22.5183 24.876 22.2703 24.772C22.0303 24.66 21.8223 24.528 21.6463 24.376L21.9583 23.692C22.1503 23.844 22.3583 23.972 22.5823 24.076C22.8063 24.172 23.0343 24.244 23.2663 24.292C23.4983 24.34 23.7343 24.364 23.9743 24.364C24.4303 24.364 24.7743 24.28 25.0063 24.112C25.2383 23.944 25.3543 23.716 25.3543 23.428C25.3543 23.204 25.2783 23.028 25.1263 22.9C24.9743 22.764 24.7343 22.66 24.4063 22.588L23.3143 22.348C22.8103 22.244 22.4343 22.064 22.1863 21.808C21.9463 21.552 21.8263 21.22 21.8263 20.812C21.8263 20.452 21.9183 20.144 22.1023 19.888C22.2943 19.624 22.5623 19.42 22.9063 19.276C23.2503 19.132 23.6503 19.06 24.1063 19.06C24.3783 19.06 24.6383 19.088 24.8863 19.144C25.1343 19.2 25.3663 19.284 25.5823 19.396C25.8063 19.5 25.9983 19.632 26.1583 19.792L25.8343 20.476C25.6823 20.332 25.5103 20.212 25.3183 20.116C25.1263 20.012 24.9263 19.936 24.7183 19.888C24.5183 19.832 24.3143 19.804 24.1063 19.804C23.6583 19.804 23.3183 19.892 23.0863 20.068C22.8543 20.244 22.7383 20.476 22.7383 20.764C22.7383 20.988 22.8103 21.172 22.9543 21.316C23.0983 21.46 23.3223 21.564 23.6263 21.628L24.7183 21.856C25.2383 21.968 25.6263 22.148 25.8823 22.396C26.1463 22.636 26.2783 22.964 26.2783 23.38C26.2783 23.732 26.1823 24.04 25.9903 24.304C25.7983 24.56 25.5263 24.76 25.1743 24.904C24.8303 25.04 24.4223 25.108 23.9503 25.108ZM30.3877 25.108C29.7717 25.108 29.2397 24.988 28.7917 24.748C28.3517 24.5 28.0077 24.152 27.7597 23.704C27.5197 23.256 27.3997 22.72 27.3997 22.096C27.3997 21.488 27.5197 20.96 27.7597 20.512C27.9997 20.056 28.3277 19.7 28.7437 19.444C29.1677 19.188 29.6557 19.06 30.2077 19.06C30.7357 19.06 31.1877 19.176 31.5637 19.408C31.9397 19.64 32.2277 19.968 32.4277 20.392C32.6357 20.816 32.7397 21.324 32.7397 21.916V22.288H28.1437V21.652H32.0917L31.8997 21.808C31.8997 21.168 31.7557 20.672 31.4677 20.32C31.1877 19.96 30.7757 19.78 30.2317 19.78C29.8237 19.78 29.4757 19.876 29.1877 20.068C28.9077 20.252 28.6957 20.512 28.5517 20.848C28.4077 21.176 28.3357 21.56 28.3357 22V22.072C28.3357 22.56 28.4117 22.972 28.5637 23.308C28.7237 23.644 28.9597 23.9 29.2717 24.076C29.5837 24.244 29.9557 24.328 30.3877 24.328C30.7317 24.328 31.0637 24.276 31.3837 24.172C31.7117 24.06 32.0197 23.88 32.3077 23.632L32.6437 24.316C32.3797 24.556 32.0437 24.748 31.6357 24.892C31.2277 25.036 30.8117 25.108 30.3877 25.108ZM34.1464 25V19.168H35.0944V20.548H34.9744C35.1104 20.076 35.3464 19.72 35.6824 19.48C36.0184 19.232 36.4624 19.088 37.0144 19.048L37.3624 19.012L37.4344 19.852L36.8224 19.924C36.2784 19.972 35.8584 20.148 35.5624 20.452C35.2744 20.748 35.1304 21.156 35.1304 21.676V25H34.1464ZM41.1036 25.108C40.4156 25.108 39.8996 24.924 39.5556 24.556C39.2116 24.188 39.0396 23.664 39.0396 22.984V19.924H37.8996V19.168H39.0396V17.38H40.0116V19.168H41.8596V19.924H40.0116V22.888C40.0116 23.344 40.1076 23.692 40.2996 23.932C40.4916 24.164 40.8036 24.28 41.2356 24.28C41.3636 24.28 41.4916 24.264 41.6196 24.232C41.7476 24.2 41.8636 24.168 41.9676 24.136L42.1356 24.88C42.0316 24.936 41.8796 24.988 41.6796 25.036C41.4796 25.084 41.2876 25.108 41.1036 25.108ZM44.9269 25.108C44.6229 25.108 44.3269 25.076 44.0389 25.012C43.7589 24.956 43.4949 24.876 43.2469 24.772C43.0069 24.66 42.7989 24.528 42.6229 24.376L42.9349 23.692C43.1269 23.844 43.3349 23.972 43.5589 24.076C43.7829 24.172 44.0109 24.244 44.2429 24.292C44.4749 24.34 44.7109 24.364 44.9509 24.364C45.4069 24.364 45.7509 24.28 45.9829 24.112C46.2149 23.944 46.3309 23.716 46.3309 23.428C46.3309 23.204 46.2549 23.028 46.1029 22.9C45.9509 22.764 45.7109 22.66 45.3829 22.588L44.2909 22.348C43.7869 22.244 43.4109 22.064 43.1629 21.808C42.9229 21.552 42.8029 21.22 42.8029 20.812C42.8029 20.452 42.8949 20.144 43.0789 19.888C43.2709 19.624 43.5389 19.42 43.8829 19.276C44.2269 19.132 44.6269 19.06 45.0829 19.06C45.3549 19.06 45.6149 19.088 45.8629 19.144C46.1109 19.2 46.3429 19.284 46.5589 19.396C46.7829 19.5 46.9749 19.632 47.1349 19.792L46.8109 20.476C46.6589 20.332 46.4869 20.212 46.2949 20.116C46.1029 20.012 45.9029 19.936 45.6949 19.888C45.4949 19.832 45.2909 19.804 45.0829 19.804C44.6349 19.804 44.2949 19.892 44.0629 20.068C43.8309 20.244 43.7149 20.476 43.7149 20.764C43.7149 20.988 43.7869 21.172 43.9309 21.316C44.0749 21.46 44.2989 21.564 44.6029 21.628L45.6949 21.856C46.2149 21.968 46.6029 22.148 46.8589 22.396C47.1229 22.636 47.2549 22.964 47.2549 23.38C47.2549 23.732 47.1589 24.04 46.9669 24.304C46.7749 24.56 46.5029 24.76 46.1509 24.904C45.8069 25.04 45.3989 25.108 44.9269 25.108ZM49.0256 26.368L48.5696 26.02C48.7136 25.868 48.8216 25.724 48.8936 25.588C48.9736 25.46 49.0256 25.328 49.0496 25.192C49.0816 25.064 49.0976 24.932 49.0976 24.796L49.3136 25H48.5216V23.776H49.7456V24.64C49.7456 24.856 49.7216 25.06 49.6736 25.252C49.6336 25.452 49.5616 25.644 49.4576 25.828C49.3536 26.012 49.2096 26.192 49.0256 26.368ZM53.8061 25L57.5381 16.54H58.3781L62.1101 25H61.0901L60.0461 22.588L60.5261 22.84H55.3661L55.8581 22.588L54.8261 25H53.8061ZM57.9461 17.692L56.0141 22.24L55.7261 22.012H60.1661L59.9021 22.24L57.9701 17.692H57.9461ZM63.2323 25V19.168H64.1803V20.464H64.0483C64.2163 20 64.4883 19.652 64.8643 19.42C65.2483 19.18 65.6883 19.06 66.1843 19.06C66.6483 19.06 67.0323 19.144 67.3363 19.312C67.6483 19.472 67.8803 19.724 68.0323 20.068C68.1843 20.412 68.2603 20.844 68.2603 21.364V25H67.2883V21.424C67.2883 21.064 67.2403 20.768 67.1443 20.536C67.0563 20.304 66.9123 20.132 66.7123 20.02C66.5203 19.908 66.2683 19.852 65.9563 19.852C65.6043 19.852 65.2963 19.928 65.0323 20.08C64.7683 20.232 64.5643 20.444 64.4203 20.716C64.2763 20.988 64.2043 21.308 64.2043 21.676V25H63.2323ZM72.2726 25.108C71.7526 25.108 71.2966 24.984 70.9046 24.736C70.5206 24.488 70.2206 24.14 70.0046 23.692C69.7966 23.236 69.6926 22.7 69.6926 22.084C69.6926 21.46 69.7966 20.924 70.0046 20.476C70.2206 20.02 70.5206 19.672 70.9046 19.432C71.2966 19.184 71.7526 19.06 72.2726 19.06C72.8006 19.06 73.2526 19.192 73.6286 19.456C74.0046 19.72 74.2566 20.076 74.3846 20.524H74.2526V16.54H75.2246V25H74.2766V23.608H74.3966C74.2686 24.064 74.0126 24.428 73.6286 24.7C73.2526 24.972 72.8006 25.108 72.2726 25.108ZM72.4766 24.328C73.0286 24.328 73.4646 24.136 73.7846 23.752C74.1126 23.36 74.2766 22.804 74.2766 22.084C74.2766 21.356 74.1126 20.8 73.7846 20.416C73.4646 20.032 73.0286 19.84 72.4766 19.84C71.9326 19.84 71.4966 20.032 71.1686 20.416C70.8406 20.8 70.6766 21.356 70.6766 22.084C70.6766 22.804 70.8406 23.36 71.1686 23.752C71.4966 24.136 71.9326 24.328 72.4766 24.328ZM83.9228 25.108C83.0908 25.108 82.3788 24.932 81.7868 24.58C81.1948 24.228 80.7388 23.728 80.4188 23.08C80.1068 22.432 79.9508 21.66 79.9508 20.764C79.9508 19.868 80.1068 19.1 80.4188 18.46C80.7388 17.812 81.1948 17.312 81.7868 16.96C82.3788 16.608 83.0908 16.432 83.9228 16.432C84.5068 16.432 85.0468 16.524 85.5428 16.708C86.0388 16.892 86.4548 17.16 86.7908 17.512L86.4068 18.316C86.0388 17.972 85.6548 17.724 85.2548 17.572C84.8628 17.412 84.4268 17.332 83.9468 17.332C82.9948 17.332 82.2668 17.632 81.7628 18.232C81.2588 18.832 81.0068 19.676 81.0068 20.764C81.0068 21.852 81.2588 22.7 81.7628 23.308C82.2668 23.908 82.9948 24.208 83.9468 24.208C84.4268 24.208 84.8628 24.132 85.2548 23.98C85.6548 23.82 86.0388 23.568 86.4068 23.224L86.7908 24.028C86.4548 24.372 86.0388 24.64 85.5428 24.832C85.0468 25.016 84.5068 25.108 83.9228 25.108ZM90.2071 25.108C89.6391 25.108 89.1471 24.984 88.7311 24.736C88.3151 24.488 87.9911 24.14 87.7591 23.692C87.5351 23.236 87.4231 22.7 87.4231 22.084C87.4231 21.468 87.5351 20.936 87.7591 20.488C87.9911 20.032 88.3151 19.68 88.7311 19.432C89.1471 19.184 89.6391 19.06 90.2071 19.06C90.7751 19.06 91.2671 19.184 91.6831 19.432C92.0991 19.68 92.4191 20.032 92.6431 20.488C92.8751 20.936 92.9911 21.468 92.9911 22.084C92.9911 22.7 92.8751 23.236 92.6431 23.692C92.4191 24.14 92.0991 24.488 91.6831 24.736C91.2671 24.984 90.7751 25.108 90.2071 25.108ZM90.2071 24.328C90.7591 24.328 91.1951 24.136 91.5151 23.752C91.8431 23.36 92.0071 22.8 92.0071 22.072C92.0071 21.352 91.8431 20.8 91.5151 20.416C91.1951 20.032 90.7591 19.84 90.2071 19.84C89.6631 19.84 89.2271 20.032 88.8991 20.416C88.5711 20.8 88.4071 21.352 88.4071 22.072C88.4071 22.8 88.5711 23.36 88.8991 23.752C89.2271 24.136 89.6631 24.328 90.2071 24.328ZM96.2391 25.108C95.6471 25.108 95.1991 24.932 94.8951 24.58C94.5991 24.228 94.4511 23.724 94.4511 23.068V16.54H95.4231V22.996C95.4231 23.276 95.4591 23.512 95.5311 23.704C95.6111 23.896 95.7271 24.04 95.8791 24.136C96.0311 24.232 96.2191 24.28 96.4431 24.28C96.5391 24.28 96.6311 24.276 96.7191 24.268C96.8151 24.252 96.9031 24.232 96.9831 24.208L96.9591 25.024C96.8311 25.048 96.7071 25.068 96.5871 25.084C96.4751 25.1 96.3591 25.108 96.2391 25.108ZM100.163 25.108C99.6433 25.108 99.1873 24.984 98.7952 24.736C98.4113 24.488 98.1113 24.14 97.8953 23.692C97.6873 23.236 97.5833 22.7 97.5833 22.084C97.5833 21.46 97.6873 20.924 97.8953 20.476C98.1113 20.02 98.4113 19.672 98.7952 19.432C99.1873 19.184 99.6433 19.06 100.163 19.06C100.691 19.06 101.143 19.192 101.519 19.456C101.895 19.72 102.147 20.076 102.275 20.524H102.143V16.54H103.115V25H102.167V23.608H102.287C102.159 24.064 101.903 24.428 101.519 24.7C101.143 24.972 100.691 25.108 100.163 25.108ZM100.367 24.328C100.919 24.328 101.355 24.136 101.675 23.752C102.003 23.36 102.167 22.804 102.167 22.084C102.167 21.356 102.003 20.8 101.675 20.416C101.355 20.032 100.919 19.84 100.367 19.84C99.8233 19.84 99.3873 20.032 99.0593 20.416C98.7313 20.8 98.5673 21.356 98.5673 22.084C98.5673 22.804 98.7313 23.36 99.0593 23.752C99.3873 24.136 99.8233 24.328 100.367 24.328ZM108.153 25V16.54H111.009C111.929 16.54 112.705 16.704 113.337 17.032C113.977 17.352 114.461 17.828 114.789 18.46C115.125 19.084 115.293 19.852 115.293 20.764C115.293 21.676 115.125 22.448 114.789 23.08C114.461 23.712 113.977 24.192 113.337 24.52C112.705 24.84 111.929 25 111.009 25H108.153ZM109.137 24.16H110.937C112.049 24.16 112.877 23.876 113.421 23.308C113.973 22.74 114.249 21.892 114.249 20.764C114.249 19.636 113.973 18.792 113.421 18.232C112.869 17.664 112.041 17.38 110.937 17.38H109.137V24.16ZM116.928 25V19.168H117.876V20.548H117.756C117.892 20.076 118.128 19.72 118.464 19.48C118.8 19.232 119.244 19.088 119.796 19.048L120.144 19.012L120.216 19.852L119.604 19.924C119.06 19.972 118.64 20.148 118.344 20.452C118.056 20.748 117.912 21.156 117.912 21.676V25H116.928ZM121.108 17.716V16.624H122.308V17.716H121.108ZM121.228 25V19.168H122.2V25H121.228ZM124.017 25V19.168H124.965V20.464H124.833C125.001 20 125.273 19.652 125.649 19.42C126.033 19.18 126.473 19.06 126.969 19.06C127.433 19.06 127.817 19.144 128.121 19.312C128.433 19.472 128.665 19.724 128.817 20.068C128.969 20.412 129.045 20.844 129.045 21.364V25H128.073V21.424C128.073 21.064 128.025 20.768 127.929 20.536C127.841 20.304 127.697 20.132 127.497 20.02C127.305 19.908 127.053 19.852 126.741 19.852C126.389 19.852 126.081 19.928 125.817 20.08C125.553 20.232 125.349 20.444 125.205 20.716C125.061 20.988 124.989 21.308 124.989 21.676V25H124.017ZM130.838 25V16.54H131.81V21.76H131.834L134.534 19.168H135.77L132.566 22.24V21.712L136.022 25H134.786L131.834 22.264H131.81V25H130.838ZM138.7 25.108C138.396 25.108 138.1 25.076 137.812 25.012C137.532 24.956 137.268 24.876 137.02 24.772C136.78 24.66 136.572 24.528 136.396 24.376L136.708 23.692C136.9 23.844 137.108 23.972 137.332 24.076C137.556 24.172 137.784 24.244 138.016 24.292C138.248 24.34 138.484 24.364 138.724 24.364C139.18 24.364 139.524 24.28 139.756 24.112C139.988 23.944 140.104 23.716 140.104 23.428C140.104 23.204 140.028 23.028 139.876 22.9C139.724 22.764 139.484 22.66 139.156 22.588L138.064 22.348C137.56 22.244 137.184 22.064 136.936 21.808C136.696 21.552 136.576 21.22 136.576 20.812C136.576 20.452 136.668 20.144 136.852 19.888C137.044 19.624 137.312 19.42 137.656 19.276C138 19.132 138.4 19.06 138.856 19.06C139.128 19.06 139.388 19.088 139.636 19.144C139.884 19.2 140.116 19.284 140.332 19.396C140.556 19.5 140.748 19.632 140.908 19.792L140.584 20.476C140.432 20.332 140.26 20.212 140.068 20.116C139.876 20.012 139.676 19.936 139.468 19.888C139.268 19.832 139.064 19.804 138.856 19.804C138.408 19.804 138.068 19.892 137.836 20.068C137.604 20.244 137.488 20.476 137.488 20.764C137.488 20.988 137.56 21.172 137.704 21.316C137.848 21.46 138.072 21.564 138.376 21.628L139.468 21.856C139.988 21.968 140.376 22.148 140.632 22.396C140.896 22.636 141.028 22.964 141.028 23.38C141.028 23.732 140.932 24.04 140.74 24.304C140.548 24.56 140.276 24.76 139.924 24.904C139.58 25.04 139.172 25.108 138.7 25.108ZM142.295 25V23.776H143.519V25H142.295Z" fill="white"/>
</svg>
