<svg width="304" height="27" viewBox="0 0 304 27" fill="none" xmlns="http://www.w3.org/2000/svg">
<path d="M0.0440001 9V0.539999H1.028V9H0.0440001ZM2.98231 9V3.168H3.93031V4.464H3.79831C3.96631 4 4.23831 3.652 4.61431 3.42C4.99831 3.18 5.43831 3.06 5.93431 3.06C6.39831 3.06 6.78231 3.144 7.08631 3.312C7.39831 3.472 7.63031 3.724 7.78231 4.068C7.93431 4.412 8.01031 4.844 8.01031 5.364V9H7.03831V5.424C7.03831 5.064 6.99031 4.768 6.89431 4.536C6.80631 4.304 6.66231 4.132 6.46231 4.02C6.27031 3.908 6.01831 3.852 5.70631 3.852C5.35431 3.852 5.04631 3.928 4.78231 4.08C4.51831 4.232 4.31431 4.444 4.17031 4.716C4.02631 4.988 3.95431 5.308 3.95431 5.676V9H2.98231ZM12.0226 9.108C11.5026 9.108 11.0466 8.984 10.6546 8.736C10.2706 8.488 9.97063 8.14 9.75463 7.692C9.54663 7.236 9.44263 6.7 9.44263 6.084C9.44263 5.46 9.54663 4.924 9.75463 4.476C9.97063 4.02 10.2706 3.672 10.6546 3.432C11.0466 3.184 11.5026 3.06 12.0226 3.06C12.5506 3.06 13.0026 3.192 13.3786 3.456C13.7546 3.72 14.0066 4.076 14.1346 4.524H14.0026V0.539999H14.9746V9H14.0266V7.608H14.1466C14.0186 8.064 13.7626 8.428 13.3786 8.7C13.0026 8.972 12.5506 9.108 12.0226 9.108ZM12.2266 8.328C12.7786 8.328 13.2146 8.136 13.5346 7.752C13.8626 7.36 14.0266 6.804 14.0266 6.084C14.0266 5.356 13.8626 4.8 13.5346 4.416C13.2146 4.032 12.7786 3.84 12.2266 3.84C11.6826 3.84 11.2466 4.032 10.9186 4.416C10.5906 4.8 10.4266 5.356 10.4266 6.084C10.4266 6.804 10.5906 7.36 10.9186 7.752C11.2466 8.136 11.6826 8.328 12.2266 8.328ZM16.6787 1.716V0.624H17.8787V1.716H16.6787ZM16.7987 9V3.168H17.7707V9H16.7987ZM21.4238 9.108C21.0238 9.108 20.6638 9.032 20.3438 8.88C20.0318 8.72 19.7838 8.504 19.5998 8.232C19.4158 7.96 19.3238 7.656 19.3238 7.32C19.3238 6.888 19.4318 6.548 19.6478 6.3C19.8718 6.052 20.2358 5.876 20.7398 5.772C21.2518 5.668 21.9478 5.616 22.8278 5.616H23.3678V6.252H22.8398C22.3518 6.252 21.9438 6.268 21.6158 6.3C21.2878 6.332 21.0278 6.388 20.8358 6.468C20.6438 6.548 20.5078 6.652 20.4278 6.78C20.3478 6.908 20.3078 7.068 20.3078 7.26C20.3078 7.588 20.4198 7.856 20.6438 8.064C20.8758 8.272 21.1878 8.376 21.5798 8.376C21.8998 8.376 22.1798 8.3 22.4198 8.148C22.6678 7.996 22.8598 7.788 22.9958 7.524C23.1398 7.26 23.2118 6.956 23.2118 6.612V5.244C23.2118 4.748 23.1118 4.392 22.9118 4.176C22.7118 3.952 22.3838 3.84 21.9278 3.84C21.5758 3.84 21.2358 3.892 20.9078 3.996C20.5798 4.092 20.2438 4.252 19.8998 4.476L19.5638 3.768C19.7718 3.624 20.0078 3.5 20.2718 3.396C20.5358 3.284 20.8118 3.2 21.0998 3.144C21.3878 3.088 21.6638 3.06 21.9278 3.06C22.4318 3.06 22.8478 3.144 23.1758 3.312C23.5038 3.472 23.7478 3.72 23.9078 4.056C24.0678 4.384 24.1478 4.808 24.1478 5.328V9H23.2358V7.644H23.3438C23.2798 7.948 23.1558 8.208 22.9718 8.424C22.7958 8.64 22.5758 8.808 22.3118 8.928C22.0478 9.048 21.7518 9.108 21.4238 9.108ZM26.0764 3.144L25.6324 2.784C25.7764 2.64 25.8844 2.5 25.9564 2.364C26.0364 2.228 26.0884 2.096 26.1124 1.968C26.1444 1.84 26.1604 1.708 26.1604 1.572L26.4604 1.764H25.5844V0.539999H26.8084V1.404C26.8084 1.62 26.7844 1.828 26.7364 2.028C26.6964 2.22 26.6244 2.408 26.5204 2.592C26.4164 2.776 26.2684 2.96 26.0764 3.144ZM30.0753 9.108C29.7713 9.108 29.4753 9.076 29.1873 9.012C28.9073 8.956 28.6433 8.876 28.3953 8.772C28.1553 8.66 27.9473 8.528 27.7713 8.376L28.0833 7.692C28.2753 7.844 28.4833 7.972 28.7073 8.076C28.9313 8.172 29.1593 8.244 29.3913 8.292C29.6233 8.34 29.8593 8.364 30.0993 8.364C30.5553 8.364 30.8993 8.28 31.1313 8.112C31.3633 7.944 31.4793 7.716 31.4793 7.428C31.4793 7.204 31.4033 7.028 31.2513 6.9C31.0993 6.764 30.8593 6.66 30.5313 6.588L29.4393 6.348C28.9353 6.244 28.5593 6.064 28.3113 5.808C28.0713 5.552 27.9513 5.22 27.9513 4.812C27.9513 4.452 28.0433 4.144 28.2273 3.888C28.4193 3.624 28.6873 3.42 29.0313 3.276C29.3753 3.132 29.7753 3.06 30.2313 3.06C30.5033 3.06 30.7633 3.088 31.0113 3.144C31.2593 3.2 31.4913 3.284 31.7073 3.396C31.9313 3.5 32.1233 3.632 32.2833 3.792L31.9593 4.476C31.8073 4.332 31.6353 4.212 31.4433 4.116C31.2513 4.012 31.0513 3.936 30.8433 3.888C30.6433 3.832 30.4393 3.804 30.2313 3.804C29.7833 3.804 29.4433 3.892 29.2113 4.068C28.9793 4.244 28.8633 4.476 28.8633 4.764C28.8633 4.988 28.9353 5.172 29.0793 5.316C29.2233 5.46 29.4473 5.564 29.7513 5.628L30.8433 5.856C31.3633 5.968 31.7513 6.148 32.0073 6.396C32.2713 6.636 32.4033 6.964 32.4033 7.38C32.4033 7.732 32.3073 8.04 32.1153 8.304C31.9233 8.56 31.6513 8.76 31.2993 8.904C30.9553 9.04 30.5473 9.108 30.0753 9.108ZM37.0987 9V0.539999H42.3307V1.368H38.0827V4.32H42.0907V5.148H38.0827V9H37.0987ZM43.4209 1.716V0.624H44.6209V1.716H43.4209ZM43.5409 9V3.168H44.5129V9H43.5409ZM46.33 9V3.168H47.278V4.548H47.158C47.294 4.076 47.53 3.72 47.866 3.48C48.202 3.232 48.646 3.088 49.198 3.048L49.546 3.012L49.618 3.852L49.006 3.924C48.462 3.972 48.042 4.148 47.746 4.452C47.458 4.748 47.314 5.156 47.314 5.676V9H46.33ZM52.5402 9.108C52.2362 9.108 51.9402 9.076 51.6522 9.012C51.3722 8.956 51.1082 8.876 50.8602 8.772C50.6202 8.66 50.4122 8.528 50.2362 8.376L50.5482 7.692C50.7402 7.844 50.9482 7.972 51.1722 8.076C51.3962 8.172 51.6242 8.244 51.8562 8.292C52.0882 8.34 52.3242 8.364 52.5642 8.364C53.0202 8.364 53.3642 8.28 53.5962 8.112C53.8282 7.944 53.9442 7.716 53.9442 7.428C53.9442 7.204 53.8682 7.028 53.7162 6.9C53.5642 6.764 53.3242 6.66 52.9962 6.588L51.9042 6.348C51.4002 6.244 51.0242 6.064 50.7762 5.808C50.5362 5.552 50.4162 5.22 50.4162 4.812C50.4162 4.452 50.5082 4.144 50.6922 3.888C50.8842 3.624 51.1522 3.42 51.4962 3.276C51.8402 3.132 52.2402 3.06 52.6962 3.06C52.9682 3.06 53.2282 3.088 53.4762 3.144C53.7242 3.2 53.9562 3.284 54.1722 3.396C54.3962 3.5 54.5882 3.632 54.7482 3.792L54.4242 4.476C54.2722 4.332 54.1002 4.212 53.9082 4.116C53.7162 4.012 53.5162 3.936 53.3082 3.888C53.1082 3.832 52.9042 3.804 52.6962 3.804C52.2482 3.804 51.9082 3.892 51.6762 4.068C51.4442 4.244 51.3282 4.476 51.3282 4.764C51.3282 4.988 51.4002 5.172 51.5442 5.316C51.6882 5.46 51.9122 5.564 52.2162 5.628L53.3082 5.856C53.8282 5.968 54.2162 6.148 54.4722 6.396C54.7362 6.636 54.8682 6.964 54.8682 7.38C54.8682 7.732 54.7722 8.04 54.5802 8.304C54.3882 8.56 54.1162 8.76 53.7642 8.904C53.4202 9.04 53.0122 9.108 52.5402 9.108ZM58.6309 9.108C57.9429 9.108 57.4269 8.924 57.0829 8.556C56.7389 8.188 56.5669 7.664 56.5669 6.984V3.924H55.4269V3.168H56.5669V1.38H57.5389V3.168H59.3869V3.924H57.5389V6.888C57.5389 7.344 57.6349 7.692 57.8269 7.932C58.0189 8.164 58.3309 8.28 58.7629 8.28C58.8909 8.28 59.0189 8.264 59.1469 8.232C59.2749 8.2 59.3909 8.168 59.4949 8.136L59.6629 8.88C59.5589 8.936 59.4069 8.988 59.2069 9.036C59.0069 9.084 58.8149 9.108 58.6309 9.108ZM63.7363 9V8.256L66.6283 5.136C66.9003 4.84 67.1203 4.564 67.2883 4.308C67.4563 4.044 67.5803 3.788 67.6603 3.54C67.7403 3.292 67.7803 3.04 67.7803 2.784C67.7803 2.304 67.6323 1.94 67.3363 1.692C67.0483 1.436 66.6243 1.308 66.0643 1.308C65.6323 1.308 65.2283 1.388 64.8523 1.548C64.4843 1.7 64.1323 1.94 63.7963 2.268L63.4243 1.5C63.7363 1.18 64.1323 0.924 64.6123 0.732C65.1003 0.532 65.6123 0.431999 66.1483 0.431999C66.7163 0.431999 67.1963 0.52 67.5883 0.696C67.9803 0.872 68.2763 1.132 68.4763 1.476C68.6763 1.812 68.7763 2.224 68.7763 2.712C68.7763 2.968 68.7443 3.22 68.6803 3.468C68.6243 3.708 68.5323 3.952 68.4043 4.2C68.2843 4.44 68.1283 4.688 67.9363 4.944C67.7523 5.2 67.5283 5.464 67.2643 5.736L64.7203 8.436V8.16H69.1243V9H63.7363ZM73.6316 9.108C73.2716 9.108 72.9196 9.068 72.5756 8.988C72.2316 8.908 71.9076 8.792 71.6036 8.64C71.3076 8.488 71.0436 8.308 70.8116 8.1L71.1836 7.32C71.5676 7.632 71.9556 7.864 72.3476 8.016C72.7476 8.16 73.1716 8.232 73.6196 8.232C74.2116 8.232 74.6716 8.068 74.9996 7.74C75.3356 7.412 75.5036 6.98 75.5036 6.444C75.5036 5.892 75.3436 5.44 75.0236 5.088C74.7036 4.736 74.2636 4.56 73.7036 4.56C73.2956 4.56 72.9356 4.644 72.6236 4.812C72.3196 4.972 72.0436 5.224 71.7956 5.568H71.0756V0.539999H75.9836V1.38H72.0476V4.752H71.7836C71.9916 4.416 72.2796 4.16 72.6476 3.984C73.0156 3.8 73.4276 3.708 73.8836 3.708C74.4196 3.708 74.8796 3.82 75.2636 4.044C75.6556 4.268 75.9556 4.584 76.1636 4.992C76.3796 5.392 76.4876 5.86 76.4876 6.396C76.4876 6.924 76.3716 7.392 76.1396 7.8C75.9076 8.208 75.5796 8.528 75.1556 8.76C74.7316 8.992 74.2236 9.108 73.6316 9.108ZM80.6469 9.108C80.0069 9.108 79.4629 8.944 79.0149 8.616C78.5749 8.28 78.2429 7.788 78.0189 7.14C77.7949 6.492 77.6829 5.7 77.6829 4.764C77.6829 3.82 77.7949 3.028 78.0189 2.388C78.2429 1.74 78.5749 1.252 79.0149 0.924C79.4629 0.595999 80.0069 0.431999 80.6469 0.431999C81.2949 0.431999 81.8389 0.595999 82.2789 0.924C82.7189 1.252 83.0509 1.736 83.2749 2.376C83.4989 3.016 83.6109 3.808 83.6109 4.752C83.6109 5.696 83.4989 6.492 83.2749 7.14C83.0509 7.788 82.7189 8.28 82.2789 8.616C81.8389 8.944 81.2949 9.108 80.6469 9.108ZM80.6469 8.256C81.3189 8.256 81.8149 7.972 82.1349 7.404C82.4629 6.836 82.6269 5.952 82.6269 4.752C82.6269 3.552 82.4669 2.676 82.1469 2.124C81.8269 1.564 81.3269 1.284 80.6469 1.284C79.9829 1.284 79.4869 1.564 79.1589 2.124C78.8309 2.684 78.6669 3.56 78.6669 4.752C78.6669 5.952 78.8269 6.836 79.1469 7.404C79.4749 7.972 79.9749 8.256 80.6469 8.256ZM85.1782 9V3.168H86.1262V4.464H85.9942C86.0902 4.168 86.2302 3.916 86.4142 3.708C86.6062 3.492 86.8302 3.332 87.0862 3.228C87.3502 3.116 87.6382 3.06 87.9502 3.06C88.4462 3.06 88.8462 3.18 89.1502 3.42C89.4622 3.652 89.6702 4.016 89.7742 4.512H89.5942C89.7382 4.064 89.9942 3.712 90.3622 3.456C90.7382 3.192 91.1742 3.06 91.6702 3.06C92.1102 3.06 92.4702 3.144 92.7502 3.312C93.0382 3.48 93.2542 3.736 93.3982 4.08C93.5422 4.416 93.6142 4.844 93.6142 5.364V9H92.6422V5.412C92.6422 4.876 92.5502 4.484 92.3662 4.236C92.1822 3.98 91.8702 3.852 91.4302 3.852C91.1182 3.852 90.8422 3.928 90.6022 4.08C90.3702 4.232 90.1902 4.448 90.0622 4.728C89.9422 5 89.8822 5.324 89.8822 5.7V9H88.9102V5.412C88.9102 4.876 88.8142 4.484 88.6222 4.236C88.4382 3.98 88.1302 3.852 87.6982 3.852C87.3782 3.852 87.1022 3.928 86.8702 4.08C86.6382 4.232 86.4582 4.448 86.3302 4.728C86.2102 5 86.1502 5.324 86.1502 5.7V9H85.1782ZM97.2195 9.108C96.6275 9.108 96.1795 8.932 95.8755 8.58C95.5795 8.228 95.4315 7.724 95.4315 7.068V0.539999H96.4035V6.996C96.4035 7.276 96.4395 7.512 96.5115 7.704C96.5915 7.896 96.7075 8.04 96.8595 8.136C97.0115 8.232 97.1995 8.28 97.4235 8.28C97.5195 8.28 97.6115 8.276 97.6995 8.268C97.7955 8.252 97.8835 8.232 97.9635 8.208L97.9395 9.024C97.8115 9.048 97.6875 9.068 97.5675 9.084C97.4555 9.1 97.3395 9.108 97.2195 9.108ZM102.196 9V0.539999H103.18V8.136H107.488V9H102.196ZM111.149 9.108C110.533 9.108 110.001 8.988 109.553 8.748C109.113 8.5 108.769 8.152 108.521 7.704C108.281 7.256 108.161 6.72 108.161 6.096C108.161 5.488 108.281 4.96 108.521 4.512C108.761 4.056 109.089 3.7 109.505 3.444C109.929 3.188 110.417 3.06 110.969 3.06C111.497 3.06 111.949 3.176 112.325 3.408C112.701 3.64 112.989 3.968 113.189 4.392C113.397 4.816 113.501 5.324 113.501 5.916V6.288H108.905V5.652H112.853L112.661 5.808C112.661 5.168 112.517 4.672 112.229 4.32C111.949 3.96 111.537 3.78 110.993 3.78C110.585 3.78 110.237 3.876 109.949 4.068C109.669 4.252 109.457 4.512 109.313 4.848C109.169 5.176 109.097 5.56 109.097 6V6.072C109.097 6.56 109.173 6.972 109.325 7.308C109.485 7.644 109.721 7.9 110.033 8.076C110.345 8.244 110.717 8.328 111.149 8.328C111.493 8.328 111.825 8.276 112.145 8.172C112.473 8.06 112.781 7.88 113.069 7.632L113.405 8.316C113.141 8.556 112.805 8.748 112.397 8.892C111.989 9.036 111.573 9.108 111.149 9.108ZM116.744 9.108C116.344 9.108 115.984 9.032 115.664 8.88C115.352 8.72 115.104 8.504 114.92 8.232C114.736 7.96 114.644 7.656 114.644 7.32C114.644 6.888 114.752 6.548 114.968 6.3C115.192 6.052 115.556 5.876 116.06 5.772C116.572 5.668 117.268 5.616 118.148 5.616H118.688V6.252H118.16C117.672 6.252 117.264 6.268 116.936 6.3C116.608 6.332 116.348 6.388 116.156 6.468C115.964 6.548 115.828 6.652 115.748 6.78C115.668 6.908 115.628 7.068 115.628 7.26C115.628 7.588 115.74 7.856 115.964 8.064C116.196 8.272 116.508 8.376 116.9 8.376C117.22 8.376 117.5 8.3 117.74 8.148C117.988 7.996 118.18 7.788 118.316 7.524C118.46 7.26 118.532 6.956 118.532 6.612V5.244C118.532 4.748 118.432 4.392 118.232 4.176C118.032 3.952 117.704 3.84 117.248 3.84C116.896 3.84 116.556 3.892 116.228 3.996C115.9 4.092 115.564 4.252 115.22 4.476L114.884 3.768C115.092 3.624 115.328 3.5 115.592 3.396C115.856 3.284 116.132 3.2 116.42 3.144C116.708 3.088 116.984 3.06 117.248 3.06C117.752 3.06 118.168 3.144 118.496 3.312C118.824 3.472 119.068 3.72 119.228 4.056C119.388 4.384 119.468 4.808 119.468 5.328V9H118.556V7.644H118.664C118.6 7.948 118.476 8.208 118.292 8.424C118.116 8.64 117.896 8.808 117.632 8.928C117.368 9.048 117.072 9.108 116.744 9.108ZM121.271 9V0.539999H122.243V5.76H122.267L124.967 3.168H126.203L122.999 6.24V5.712L126.455 9H125.219L122.267 6.264H122.243V9H121.271ZM126.872 6.204V5.4H130.232V6.204H126.872ZM132.138 9V0.539999H135.486C136.094 0.539999 136.606 0.64 137.022 0.84C137.446 1.032 137.766 1.32 137.982 1.704C138.198 2.08 138.306 2.54 138.306 3.084C138.306 3.612 138.198 4.068 137.982 4.452C137.766 4.836 137.446 5.128 137.022 5.328C136.606 5.528 136.094 5.628 135.486 5.628H133.122V9H132.138ZM133.122 4.8H135.366C136.014 4.8 136.502 4.656 136.83 4.368C137.166 4.072 137.334 3.644 137.334 3.084C137.334 2.516 137.166 2.088 136.83 1.8C136.502 1.504 136.014 1.356 135.366 1.356H133.122V4.8ZM139.482 9V3.168H140.43V4.548H140.31C140.446 4.076 140.682 3.72 141.018 3.48C141.354 3.232 141.798 3.088 142.35 3.048L142.698 3.012L142.77 3.852L142.158 3.924C141.614 3.972 141.194 4.148 140.898 4.452C140.61 4.748 140.466 5.156 140.466 5.676V9H139.482ZM146.137 9.108C145.569 9.108 145.077 8.984 144.661 8.736C144.245 8.488 143.921 8.14 143.689 7.692C143.465 7.236 143.353 6.7 143.353 6.084C143.353 5.468 143.465 4.936 143.689 4.488C143.921 4.032 144.245 3.68 144.661 3.432C145.077 3.184 145.569 3.06 146.137 3.06C146.705 3.06 147.197 3.184 147.613 3.432C148.029 3.68 148.349 4.032 148.573 4.488C148.805 4.936 148.921 5.468 148.921 6.084C148.921 6.7 148.805 7.236 148.573 7.692C148.349 8.14 148.029 8.488 147.613 8.736C147.197 8.984 146.705 9.108 146.137 9.108ZM146.137 8.328C146.689 8.328 147.125 8.136 147.445 7.752C147.773 7.36 147.937 6.8 147.937 6.072C147.937 5.352 147.773 4.8 147.445 4.416C147.125 4.032 146.689 3.84 146.137 3.84C145.593 3.84 145.157 4.032 144.829 4.416C144.501 4.8 144.337 5.352 144.337 6.072C144.337 6.8 144.501 7.36 144.829 7.752C145.157 8.136 145.593 8.328 146.137 8.328ZM152.805 9.108C152.237 9.108 151.745 8.984 151.329 8.736C150.913 8.488 150.589 8.14 150.357 7.692C150.133 7.236 150.021 6.7 150.021 6.084C150.021 5.468 150.133 4.936 150.357 4.488C150.589 4.032 150.913 3.68 151.329 3.432C151.745 3.184 152.237 3.06 152.805 3.06C153.373 3.06 153.865 3.184 154.281 3.432C154.697 3.68 155.017 4.032 155.241 4.488C155.473 4.936 155.589 5.468 155.589 6.084C155.589 6.7 155.473 7.236 155.241 7.692C155.017 8.14 154.697 8.488 154.281 8.736C153.865 8.984 153.373 9.108 152.805 9.108ZM152.805 8.328C153.357 8.328 153.793 8.136 154.113 7.752C154.441 7.36 154.605 6.8 154.605 6.072C154.605 5.352 154.441 4.8 154.113 4.416C153.793 4.032 153.357 3.84 152.805 3.84C152.261 3.84 151.825 4.032 151.497 4.416C151.169 4.8 151.005 5.352 151.005 6.072C151.005 6.8 151.169 7.36 151.497 7.752C151.825 8.136 152.261 8.328 152.805 8.328ZM157.302 9V3.924H156.15V3.168H157.566L157.302 3.42V2.964C157.302 2.188 157.494 1.6 157.878 1.2C158.27 0.799999 158.87 0.575999 159.678 0.528L160.146 0.504L160.23 1.248L159.678 1.284C159.35 1.308 159.082 1.38 158.874 1.5C158.666 1.62 158.514 1.792 158.418 2.016C158.322 2.24 158.274 2.516 158.274 2.844V3.348L158.13 3.168H159.954V3.924H158.274V9H157.302ZM168.064 9.108C167.16 9.108 166.396 8.936 165.772 8.592C165.156 8.248 164.688 7.752 164.368 7.104C164.048 6.456 163.888 5.68 163.888 4.776C163.888 3.88 164.048 3.108 164.368 2.46C164.688 1.812 165.148 1.312 165.748 0.96C166.348 0.608 167.072 0.431999 167.92 0.431999C168.32 0.431999 168.696 0.471999 169.048 0.551999C169.408 0.632 169.74 0.752 170.044 0.912C170.356 1.064 170.628 1.256 170.86 1.488L170.476 2.28C170.092 1.944 169.696 1.7 169.288 1.548C168.88 1.396 168.42 1.32 167.908 1.32C166.94 1.32 166.2 1.62 165.688 2.22C165.184 2.82 164.932 3.672 164.932 4.776C164.932 5.896 165.192 6.752 165.712 7.344C166.24 7.936 167.032 8.232 168.088 8.232C168.472 8.232 168.848 8.196 169.216 8.124C169.584 8.044 169.932 7.936 170.26 7.8L170.044 8.364V5.376H167.896V4.596H170.896V8.508C170.68 8.62 170.412 8.724 170.092 8.82C169.772 8.908 169.436 8.976 169.084 9.024C168.732 9.08 168.392 9.108 168.064 9.108ZM174.563 9.108C173.971 9.108 173.523 8.932 173.219 8.58C172.923 8.228 172.775 7.724 172.775 7.068V0.539999H173.747V6.996C173.747 7.276 173.783 7.512 173.855 7.704C173.935 7.896 174.051 8.04 174.203 8.136C174.355 8.232 174.543 8.28 174.767 8.28C174.863 8.28 174.955 8.276 175.043 8.268C175.139 8.252 175.227 8.232 175.307 8.208L175.283 9.024C175.155 9.048 175.031 9.068 174.911 9.084C174.799 9.1 174.683 9.108 174.563 9.108ZM178.162 9.108C177.762 9.108 177.402 9.032 177.082 8.88C176.77 8.72 176.522 8.504 176.338 8.232C176.154 7.96 176.062 7.656 176.062 7.32C176.062 6.888 176.17 6.548 176.386 6.3C176.61 6.052 176.974 5.876 177.478 5.772C177.99 5.668 178.686 5.616 179.566 5.616H180.106V6.252H179.578C179.09 6.252 178.682 6.268 178.354 6.3C178.026 6.332 177.766 6.388 177.574 6.468C177.382 6.548 177.246 6.652 177.166 6.78C177.086 6.908 177.046 7.068 177.046 7.26C177.046 7.588 177.158 7.856 177.382 8.064C177.614 8.272 177.926 8.376 178.318 8.376C178.638 8.376 178.918 8.3 179.158 8.148C179.406 7.996 179.598 7.788 179.734 7.524C179.878 7.26 179.95 6.956 179.95 6.612V5.244C179.95 4.748 179.85 4.392 179.65 4.176C179.45 3.952 179.122 3.84 178.666 3.84C178.314 3.84 177.974 3.892 177.646 3.996C177.318 4.092 176.982 4.252 176.638 4.476L176.302 3.768C176.51 3.624 176.746 3.5 177.01 3.396C177.274 3.284 177.55 3.2 177.838 3.144C178.126 3.088 178.402 3.06 178.666 3.06C179.17 3.06 179.586 3.144 179.914 3.312C180.242 3.472 180.486 3.72 180.646 4.056C180.806 4.384 180.886 4.808 180.886 5.328V9H179.974V7.644H180.082C180.018 7.948 179.894 8.208 179.71 8.424C179.534 8.64 179.314 8.808 179.05 8.928C178.786 9.048 178.49 9.108 178.162 9.108ZM184.657 9.108C184.353 9.108 184.057 9.076 183.769 9.012C183.489 8.956 183.225 8.876 182.977 8.772C182.737 8.66 182.529 8.528 182.353 8.376L182.665 7.692C182.857 7.844 183.065 7.972 183.289 8.076C183.513 8.172 183.741 8.244 183.973 8.292C184.205 8.34 184.441 8.364 184.681 8.364C185.137 8.364 185.481 8.28 185.713 8.112C185.945 7.944 186.061 7.716 186.061 7.428C186.061 7.204 185.985 7.028 185.833 6.9C185.681 6.764 185.441 6.66 185.113 6.588L184.021 6.348C183.517 6.244 183.141 6.064 182.893 5.808C182.653 5.552 182.533 5.22 182.533 4.812C182.533 4.452 182.625 4.144 182.809 3.888C183.001 3.624 183.269 3.42 183.613 3.276C183.957 3.132 184.357 3.06 184.813 3.06C185.085 3.06 185.345 3.088 185.593 3.144C185.841 3.2 186.073 3.284 186.289 3.396C186.513 3.5 186.705 3.632 186.865 3.792L186.541 4.476C186.389 4.332 186.217 4.212 186.025 4.116C185.833 4.012 185.633 3.936 185.425 3.888C185.225 3.832 185.021 3.804 184.813 3.804C184.365 3.804 184.025 3.892 183.793 4.068C183.561 4.244 183.445 4.476 183.445 4.764C183.445 4.988 183.517 5.172 183.661 5.316C183.805 5.46 184.029 5.564 184.333 5.628L185.425 5.856C185.945 5.968 186.333 6.148 186.589 6.396C186.853 6.636 186.985 6.964 186.985 7.38C186.985 7.732 186.889 8.04 186.697 8.304C186.505 8.56 186.233 8.76 185.881 8.904C185.537 9.04 185.129 9.108 184.657 9.108ZM190.435 9.108C190.131 9.108 189.835 9.076 189.547 9.012C189.267 8.956 189.003 8.876 188.755 8.772C188.515 8.66 188.307 8.528 188.131 8.376L188.443 7.692C188.635 7.844 188.843 7.972 189.067 8.076C189.291 8.172 189.519 8.244 189.751 8.292C189.983 8.34 190.219 8.364 190.459 8.364C190.915 8.364 191.259 8.28 191.491 8.112C191.723 7.944 191.839 7.716 191.839 7.428C191.839 7.204 191.763 7.028 191.611 6.9C191.459 6.764 191.219 6.66 190.891 6.588L189.799 6.348C189.295 6.244 188.919 6.064 188.671 5.808C188.431 5.552 188.311 5.22 188.311 4.812C188.311 4.452 188.403 4.144 188.587 3.888C188.779 3.624 189.047 3.42 189.391 3.276C189.735 3.132 190.135 3.06 190.591 3.06C190.863 3.06 191.123 3.088 191.371 3.144C191.619 3.2 191.851 3.284 192.067 3.396C192.291 3.5 192.483 3.632 192.643 3.792L192.319 4.476C192.167 4.332 191.995 4.212 191.803 4.116C191.611 4.012 191.411 3.936 191.203 3.888C191.003 3.832 190.799 3.804 190.591 3.804C190.143 3.804 189.803 3.892 189.571 4.068C189.339 4.244 189.223 4.476 189.223 4.764C189.223 4.988 189.295 5.172 189.439 5.316C189.583 5.46 189.807 5.564 190.111 5.628L191.203 5.856C191.723 5.968 192.111 6.148 192.367 6.396C192.631 6.636 192.763 6.964 192.763 7.38C192.763 7.732 192.667 8.04 192.475 8.304C192.283 8.56 192.011 8.76 191.659 8.904C191.315 9.04 190.907 9.108 190.435 9.108ZM199.738 9L196.774 0.539999H197.806L200.41 8.16H199.99L202.642 0.539999H203.434L206.05 8.16H205.678L208.294 0.539999H209.278L206.314 9H205.438L202.894 1.68H203.158L200.59 9H199.738ZM210.413 1.716V0.624H211.613V1.716H210.413ZM210.533 9V3.168H211.505V9H210.533ZM215.662 9.108C214.974 9.108 214.458 8.924 214.114 8.556C213.77 8.188 213.598 7.664 213.598 6.984V3.924H212.458V3.168H213.598V1.38H214.57V3.168H216.418V3.924H214.57V6.888C214.57 7.344 214.666 7.692 214.858 7.932C215.05 8.164 215.362 8.28 215.794 8.28C215.922 8.28 216.05 8.264 216.178 8.232C216.306 8.2 216.422 8.168 216.526 8.136L216.694 8.88C216.59 8.936 216.438 8.988 216.238 9.036C216.038 9.084 215.846 9.108 215.662 9.108ZM217.517 9V0.539999H218.489V4.464H218.333C218.501 4 218.773 3.652 219.149 3.42C219.533 3.18 219.973 3.06 220.469 3.06C220.933 3.06 221.317 3.144 221.621 3.312C221.933 3.48 222.165 3.736 222.317 4.08C222.469 4.416 222.545 4.844 222.545 5.364V9H221.573V5.424C221.573 5.064 221.525 4.768 221.429 4.536C221.341 4.304 221.197 4.132 220.997 4.02C220.805 3.908 220.553 3.852 220.241 3.852C219.889 3.852 219.581 3.928 219.317 4.08C219.053 4.232 218.849 4.444 218.705 4.716C218.561 4.988 218.489 5.308 218.489 5.676V9H217.517ZM230.288 9.108C229.848 9.108 229.432 9.068 229.04 8.988C228.656 8.908 228.3 8.796 227.972 8.652C227.652 8.5 227.36 8.316 227.096 8.1L227.444 7.308C227.716 7.508 227.992 7.68 228.272 7.824C228.56 7.96 228.868 8.064 229.196 8.136C229.532 8.2 229.896 8.232 230.288 8.232C231.008 8.232 231.54 8.1 231.884 7.836C232.236 7.564 232.412 7.208 232.412 6.768C232.412 6.536 232.356 6.336 232.244 6.168C232.14 6 231.964 5.856 231.716 5.736C231.476 5.616 231.16 5.516 230.768 5.436L229.52 5.184C228.768 5.024 228.204 4.764 227.828 4.404C227.46 4.036 227.276 3.548 227.276 2.94C227.276 2.436 227.404 1.996 227.66 1.62C227.924 1.244 228.288 0.951999 228.752 0.744C229.224 0.536 229.76 0.431999 230.36 0.431999C230.744 0.431999 231.108 0.471999 231.452 0.551999C231.796 0.632 232.112 0.752 232.4 0.912C232.696 1.064 232.956 1.252 233.18 1.476L232.832 2.244C232.472 1.916 232.092 1.68 231.692 1.536C231.292 1.384 230.844 1.308 230.348 1.308C229.924 1.308 229.556 1.372 229.244 1.5C228.94 1.628 228.7 1.816 228.524 2.064C228.356 2.304 228.272 2.584 228.272 2.904C228.272 3.288 228.388 3.592 228.62 3.816C228.86 4.04 229.248 4.204 229.784 4.308L231.032 4.572C231.84 4.74 232.436 4.996 232.82 5.34C233.212 5.676 233.408 6.136 233.408 6.72C233.408 7.184 233.28 7.6 233.024 7.968C232.776 8.328 232.416 8.608 231.944 8.808C231.48 9.008 230.928 9.108 230.288 9.108ZM237.431 9.108C236.815 9.108 236.283 8.988 235.835 8.748C235.395 8.5 235.051 8.152 234.803 7.704C234.563 7.256 234.443 6.72 234.443 6.096C234.443 5.488 234.563 4.96 234.803 4.512C235.043 4.056 235.371 3.7 235.787 3.444C236.211 3.188 236.699 3.06 237.251 3.06C237.779 3.06 238.231 3.176 238.607 3.408C238.983 3.64 239.271 3.968 239.471 4.392C239.679 4.816 239.783 5.324 239.783 5.916V6.288H235.187V5.652H239.135L238.943 5.808C238.943 5.168 238.799 4.672 238.511 4.32C238.231 3.96 237.819 3.78 237.275 3.78C236.867 3.78 236.519 3.876 236.231 4.068C235.951 4.252 235.739 4.512 235.595 4.848C235.451 5.176 235.379 5.56 235.379 6V6.072C235.379 6.56 235.455 6.972 235.607 7.308C235.767 7.644 236.003 7.9 236.315 8.076C236.627 8.244 236.999 8.328 237.431 8.328C237.775 8.328 238.107 8.276 238.427 8.172C238.755 8.06 239.063 7.88 239.351 7.632L239.687 8.316C239.423 8.556 239.087 8.748 238.679 8.892C238.271 9.036 237.855 9.108 237.431 9.108ZM243.661 9.108C243.077 9.108 242.573 8.98 242.149 8.724C241.725 8.468 241.397 8.112 241.165 7.656C240.941 7.192 240.829 6.656 240.829 6.048C240.829 5.432 240.941 4.9 241.165 4.452C241.397 4.004 241.725 3.66 242.149 3.42C242.573 3.18 243.077 3.06 243.661 3.06C244.021 3.06 244.377 3.124 244.729 3.252C245.081 3.38 245.373 3.56 245.605 3.792L245.269 4.5C245.037 4.276 244.781 4.112 244.501 4.008C244.229 3.904 243.969 3.852 243.721 3.852C243.113 3.852 242.645 4.044 242.317 4.428C241.989 4.804 241.825 5.348 241.825 6.06C241.825 6.756 241.989 7.308 242.317 7.716C242.645 8.116 243.113 8.316 243.721 8.316C243.969 8.316 244.229 8.264 244.501 8.16C244.781 8.056 245.037 7.888 245.269 7.656L245.605 8.364C245.373 8.596 245.077 8.78 244.717 8.916C244.365 9.044 244.013 9.108 243.661 9.108ZM248.808 9.108C248.336 9.108 247.944 9.024 247.632 8.856C247.328 8.68 247.096 8.42 246.936 8.076C246.784 7.732 246.708 7.304 246.708 6.792V3.168H247.68V6.78C247.68 7.124 247.724 7.412 247.812 7.644C247.908 7.868 248.056 8.036 248.256 8.148C248.456 8.252 248.704 8.304 249 8.304C249.336 8.304 249.628 8.228 249.876 8.076C250.124 7.924 250.32 7.712 250.464 7.44C250.608 7.168 250.68 6.848 250.68 6.48V3.168H251.652V9H250.704V7.656H250.86C250.7 8.128 250.436 8.488 250.068 8.736C249.708 8.984 249.288 9.108 248.808 9.108ZM253.471 9V3.168H254.419V4.548H254.299C254.435 4.076 254.671 3.72 255.007 3.48C255.343 3.232 255.787 3.088 256.339 3.048L256.687 3.012L256.759 3.852L256.147 3.924C255.603 3.972 255.183 4.148 254.887 4.452C254.599 4.748 254.455 5.156 254.455 5.676V9H253.471ZM260.329 9.108C259.713 9.108 259.181 8.988 258.733 8.748C258.293 8.5 257.949 8.152 257.701 7.704C257.461 7.256 257.341 6.72 257.341 6.096C257.341 5.488 257.461 4.96 257.701 4.512C257.941 4.056 258.269 3.7 258.685 3.444C259.109 3.188 259.597 3.06 260.149 3.06C260.677 3.06 261.129 3.176 261.505 3.408C261.881 3.64 262.169 3.968 262.369 4.392C262.577 4.816 262.681 5.324 262.681 5.916V6.288H258.085V5.652H262.033L261.841 5.808C261.841 5.168 261.697 4.672 261.409 4.32C261.129 3.96 260.717 3.78 260.173 3.78C259.765 3.78 259.417 3.876 259.129 4.068C258.849 4.252 258.637 4.512 258.493 4.848C258.349 5.176 258.277 5.56 258.277 6V6.072C258.277 6.56 258.353 6.972 258.505 7.308C258.665 7.644 258.901 7.9 259.213 8.076C259.525 8.244 259.897 8.328 260.329 8.328C260.673 8.328 261.005 8.276 261.325 8.172C261.653 8.06 261.961 7.88 262.249 7.632L262.585 8.316C262.321 8.556 261.985 8.748 261.577 8.892C261.169 9.036 260.753 9.108 260.329 9.108ZM267.302 9V0.539999H268.286V8.136H272.594V9H267.302ZM273.565 1.716V0.624H274.765V1.716H273.565ZM273.685 9V3.168H274.657V9H273.685ZM278.695 9.108C278.175 9.108 277.719 8.984 277.326 8.736C276.943 8.488 276.643 8.14 276.427 7.692C276.219 7.236 276.115 6.7 276.115 6.084C276.115 5.46 276.219 4.924 276.427 4.476C276.643 4.02 276.943 3.672 277.326 3.432C277.719 3.184 278.175 3.06 278.695 3.06C279.223 3.06 279.675 3.192 280.051 3.456C280.427 3.72 280.679 4.076 280.807 4.524H280.675V0.539999H281.647V9H280.699V7.608H280.819C280.691 8.064 280.435 8.428 280.051 8.7C279.675 8.972 279.223 9.108 278.695 9.108ZM278.899 8.328C279.451 8.328 279.887 8.136 280.207 7.752C280.535 7.36 280.699 6.804 280.699 6.084C280.699 5.356 280.535 4.8 280.207 4.416C279.887 4.032 279.451 3.84 278.899 3.84C278.355 3.84 277.919 4.032 277.591 4.416C277.263 4.8 277.099 5.356 277.099 6.084C277.099 6.804 277.263 7.36 277.591 7.752C277.919 8.136 278.355 8.328 278.899 8.328ZM285.641 6.12V5.484H297.641V6.12H285.641ZM0.0440001 25V16.54H3.392C4 16.54 4.512 16.64 4.928 16.84C5.352 17.032 5.672 17.32 5.888 17.704C6.104 18.08 6.212 18.54 6.212 19.084C6.212 19.612 6.104 20.068 5.888 20.452C5.672 20.836 5.352 21.128 4.928 21.328C4.512 21.528 4 21.628 3.392 21.628H1.028V25H0.0440001ZM1.028 20.8H3.272C3.92 20.8 4.408 20.656 4.736 20.368C5.072 20.072 5.24 19.644 5.24 19.084C5.24 18.516 5.072 18.088 4.736 17.8C4.408 17.504 3.92 17.356 3.272 17.356H1.028V20.8ZM9.87594 25.108C9.25994 25.108 8.72794 24.988 8.27994 24.748C7.83994 24.5 7.49594 24.152 7.24794 23.704C7.00794 23.256 6.88794 22.72 6.88794 22.096C6.88794 21.488 7.00794 20.96 7.24794 20.512C7.48794 20.056 7.81594 19.7 8.23194 19.444C8.65594 19.188 9.14394 19.06 9.69594 19.06C10.2239 19.06 10.6759 19.176 11.0519 19.408C11.4279 19.64 11.7159 19.968 11.9159 20.392C12.1239 20.816 12.2279 21.324 12.2279 21.916V22.288H7.63194V21.652H11.5799L11.3879 21.808C11.3879 21.168 11.2439 20.672 10.9559 20.32C10.6759 19.96 10.2639 19.78 9.71994 19.78C9.31194 19.78 8.96394 19.876 8.67594 20.068C8.39594 20.252 8.18394 20.512 8.03994 20.848C7.89594 21.176 7.82394 21.56 7.82394 22V22.072C7.82394 22.56 7.89994 22.972 8.05194 23.308C8.21194 23.644 8.44794 23.9 8.75994 24.076C9.07194 24.244 9.44394 24.328 9.87594 24.328C10.2199 24.328 10.5519 24.276 10.8719 24.172C11.1999 24.06 11.5079 23.88 11.7959 23.632L12.1319 24.316C11.8679 24.556 11.5319 24.748 11.1239 24.892C10.7159 25.036 10.2999 25.108 9.87594 25.108ZM13.6347 25V19.168H14.5827V20.548H14.4627C14.5987 20.076 14.8347 19.72 15.1707 19.48C15.5067 19.232 15.9507 19.088 16.5027 19.048L16.8507 19.012L16.9227 19.852L16.3107 19.924C15.7667 19.972 15.3467 20.148 15.0507 20.452C14.7627 20.748 14.6187 21.156 14.6187 21.676V25H13.6347ZM18.5638 25V19.924H17.4118V19.168H18.8278L18.5638 19.42V18.964C18.5638 18.188 18.7558 17.6 19.1398 17.2C19.5318 16.8 20.1318 16.576 20.9398 16.528L21.4078 16.504L21.4918 17.248L20.9398 17.284C20.6118 17.308 20.3438 17.38 20.1358 17.5C19.9278 17.62 19.7758 17.792 19.6798 18.016C19.5838 18.24 19.5358 18.516 19.5358 18.844V19.348L19.3918 19.168H21.2158V19.924H19.5358V25H18.5638ZM24.7119 25.108C24.0959 25.108 23.5639 24.988 23.1159 24.748C22.6759 24.5 22.3319 24.152 22.0839 23.704C21.8439 23.256 21.7239 22.72 21.7239 22.096C21.7239 21.488 21.8439 20.96 22.0839 20.512C22.3239 20.056 22.6519 19.7 23.0679 19.444C23.4919 19.188 23.9799 19.06 24.5319 19.06C25.0599 19.06 25.5119 19.176 25.8879 19.408C26.2639 19.64 26.5519 19.968 26.7519 20.392C26.9599 20.816 27.0639 21.324 27.0639 21.916V22.288H22.4679V21.652H26.4159L26.2239 21.808C26.2239 21.168 26.0799 20.672 25.7919 20.32C25.5119 19.96 25.0999 19.78 24.5559 19.78C24.1479 19.78 23.7999 19.876 23.5119 20.068C23.2319 20.252 23.0199 20.512 22.8759 20.848C22.7319 21.176 22.6599 21.56 22.6599 22V22.072C22.6599 22.56 22.7359 22.972 22.8879 23.308C23.0479 23.644 23.2839 23.9 23.5959 24.076C23.9079 24.244 24.2799 24.328 24.7119 24.328C25.0559 24.328 25.3879 24.276 25.7079 24.172C26.0359 24.06 26.3439 23.88 26.6319 23.632L26.9679 24.316C26.7039 24.556 26.3679 24.748 25.9599 24.892C25.5519 25.036 25.1359 25.108 24.7119 25.108ZM30.9426 25.108C30.3586 25.108 29.8546 24.98 29.4306 24.724C29.0066 24.468 28.6786 24.112 28.4466 23.656C28.2226 23.192 28.1106 22.656 28.1106 22.048C28.1106 21.432 28.2226 20.9 28.4466 20.452C28.6786 20.004 29.0066 19.66 29.4306 19.42C29.8546 19.18 30.3586 19.06 30.9426 19.06C31.3026 19.06 31.6586 19.124 32.0106 19.252C32.3626 19.38 32.6546 19.56 32.8866 19.792L32.5506 20.5C32.3186 20.276 32.0626 20.112 31.7826 20.008C31.5106 19.904 31.2506 19.852 31.0026 19.852C30.3946 19.852 29.9266 20.044 29.5986 20.428C29.2706 20.804 29.1066 21.348 29.1066 22.06C29.1066 22.756 29.2706 23.308 29.5986 23.716C29.9266 24.116 30.3946 24.316 31.0026 24.316C31.2506 24.316 31.5106 24.264 31.7826 24.16C32.0626 24.056 32.3186 23.888 32.5506 23.656L32.8866 24.364C32.6546 24.596 32.3586 24.78 31.9986 24.916C31.6466 25.044 31.2946 25.108 30.9426 25.108ZM36.3653 25.108C35.6773 25.108 35.1613 24.924 34.8173 24.556C34.4733 24.188 34.3013 23.664 34.3013 22.984V19.924H33.1613V19.168H34.3013V17.38H35.2733V19.168H37.1213V19.924H35.2733V22.888C35.2733 23.344 35.3693 23.692 35.5613 23.932C35.7533 24.164 36.0653 24.28 36.4973 24.28C36.6253 24.28 36.7533 24.264 36.8813 24.232C37.0093 24.2 37.1253 24.168 37.2293 24.136L37.3973 24.88C37.2933 24.936 37.1413 24.988 36.9413 25.036C36.7413 25.084 36.5493 25.108 36.3653 25.108ZM41.4346 25V16.54H46.6666V17.368H42.4186V20.32H46.4266V21.148H42.4186V25H41.4346ZM50.0782 25.108C49.5102 25.108 49.0182 24.984 48.6022 24.736C48.1862 24.488 47.8622 24.14 47.6302 23.692C47.4062 23.236 47.2942 22.7 47.2942 22.084C47.2942 21.468 47.4062 20.936 47.6302 20.488C47.8622 20.032 48.1862 19.68 48.6022 19.432C49.0182 19.184 49.5102 19.06 50.0782 19.06C50.6462 19.06 51.1382 19.184 51.5542 19.432C51.9702 19.68 52.2902 20.032 52.5142 20.488C52.7462 20.936 52.8622 21.468 52.8622 22.084C52.8622 22.7 52.7462 23.236 52.5142 23.692C52.2902 24.14 51.9702 24.488 51.5542 24.736C51.1382 24.984 50.6462 25.108 50.0782 25.108ZM50.0782 24.328C50.6302 24.328 51.0662 24.136 51.3862 23.752C51.7142 23.36 51.8782 22.8 51.8782 22.072C51.8782 21.352 51.7142 20.8 51.3862 20.416C51.0662 20.032 50.6302 19.84 50.0782 19.84C49.5342 19.84 49.0982 20.032 48.7702 20.416C48.4422 20.8 48.2782 21.352 48.2782 22.072C48.2782 22.8 48.4422 23.36 48.7702 23.752C49.0982 24.136 49.5342 24.328 50.0782 24.328ZM54.3222 25V19.168H55.2702V20.548H55.1502C55.2862 20.076 55.5222 19.72 55.8582 19.48C56.1942 19.232 56.6382 19.088 57.1902 19.048L57.5382 19.012L57.6102 19.852L56.9982 19.924C56.4542 19.972 56.0342 20.148 55.7382 20.452C55.4502 20.748 55.3062 21.156 55.3062 21.676V25H54.3222ZM60.745 25.084L60.673 24.256L61.393 24.208C61.673 24.184 61.905 24.116 62.089 24.004C62.273 23.884 62.413 23.716 62.509 23.5C62.605 23.284 62.653 23.032 62.653 22.744V16.54H63.637V22.756C63.637 23.212 63.557 23.608 63.397 23.944C63.237 24.272 63.001 24.528 62.689 24.712C62.377 24.896 61.989 25.004 61.525 25.036L60.745 25.084ZM67.6596 25.108C67.1876 25.108 66.7956 25.024 66.4836 24.856C66.1796 24.68 65.9476 24.42 65.7876 24.076C65.6356 23.732 65.5596 23.304 65.5596 22.792V19.168H66.5316V22.78C66.5316 23.124 66.5756 23.412 66.6636 23.644C66.7596 23.868 66.9076 24.036 67.1076 24.148C67.3076 24.252 67.5556 24.304 67.8516 24.304C68.1876 24.304 68.4796 24.228 68.7276 24.076C68.9756 23.924 69.1716 23.712 69.3156 23.44C69.4596 23.168 69.5316 22.848 69.5316 22.48V19.168H70.5036V25H69.5556V23.656H69.7116C69.5516 24.128 69.2876 24.488 68.9196 24.736C68.5596 24.984 68.1396 25.108 67.6596 25.108ZM72.2022 17.716V16.624H73.4022V17.716H72.2022ZM72.3222 25V19.168H73.2942V25H72.3222ZM77.5832 25.108C76.9992 25.108 76.4952 24.98 76.0712 24.724C75.6472 24.468 75.3192 24.112 75.0872 23.656C74.8632 23.192 74.7512 22.656 74.7512 22.048C74.7512 21.432 74.8632 20.9 75.0872 20.452C75.3192 20.004 75.6472 19.66 76.0712 19.42C76.4952 19.18 76.9992 19.06 77.5832 19.06C77.9432 19.06 78.2992 19.124 78.6512 19.252C79.0032 19.38 79.2952 19.56 79.5272 19.792L79.1912 20.5C78.9592 20.276 78.7032 20.112 78.4232 20.008C78.1512 19.904 77.8912 19.852 77.6432 19.852C77.0352 19.852 76.5672 20.044 76.2392 20.428C75.9112 20.804 75.7472 21.348 75.7472 22.06C75.7472 22.756 75.9112 23.308 76.2392 23.716C76.5672 24.116 77.0352 24.316 77.6432 24.316C77.8912 24.316 78.1512 24.264 78.4232 24.16C78.7032 24.056 78.9592 23.888 79.1912 23.656L79.5272 24.364C79.2952 24.596 78.9992 24.78 78.6392 24.916C78.2872 25.044 77.9352 25.108 77.5832 25.108ZM83.1767 25.108C82.5607 25.108 82.0287 24.988 81.5807 24.748C81.1407 24.5 80.7967 24.152 80.5487 23.704C80.3087 23.256 80.1887 22.72 80.1887 22.096C80.1887 21.488 80.3087 20.96 80.5487 20.512C80.7887 20.056 81.1167 19.7 81.5327 19.444C81.9567 19.188 82.4447 19.06 82.9967 19.06C83.5247 19.06 83.9767 19.176 84.3527 19.408C84.7287 19.64 85.0167 19.968 85.2167 20.392C85.4247 20.816 85.5287 21.324 85.5287 21.916V22.288H80.9327V21.652H84.8807L84.6887 21.808C84.6887 21.168 84.5447 20.672 84.2567 20.32C83.9767 19.96 83.5647 19.78 83.0207 19.78C82.6127 19.78 82.2647 19.876 81.9767 20.068C81.6967 20.252 81.4847 20.512 81.3407 20.848C81.1967 21.176 81.1247 21.56 81.1247 22V22.072C81.1247 22.56 81.2007 22.972 81.3527 23.308C81.5127 23.644 81.7487 23.9 82.0607 24.076C82.3727 24.244 82.7447 24.328 83.1767 24.328C83.5207 24.328 83.8527 24.276 84.1727 24.172C84.5007 24.06 84.8087 23.88 85.0967 23.632L85.4327 24.316C85.1687 24.556 84.8327 24.748 84.4247 24.892C84.0167 25.036 83.6007 25.108 83.1767 25.108ZM88.9034 25.108C88.5994 25.108 88.3034 25.076 88.0154 25.012C87.7354 24.956 87.4714 24.876 87.2234 24.772C86.9834 24.66 86.7754 24.528 86.5994 24.376L86.9114 23.692C87.1034 23.844 87.3114 23.972 87.5354 24.076C87.7594 24.172 87.9874 24.244 88.2194 24.292C88.4514 24.34 88.6874 24.364 88.9274 24.364C89.3834 24.364 89.7274 24.28 89.9594 24.112C90.1914 23.944 90.3074 23.716 90.3074 23.428C90.3074 23.204 90.2314 23.028 90.0794 22.9C89.9274 22.764 89.6874 22.66 89.3594 22.588L88.2674 22.348C87.7634 22.244 87.3874 22.064 87.1394 21.808C86.8994 21.552 86.7794 21.22 86.7794 20.812C86.7794 20.452 86.8714 20.144 87.0554 19.888C87.2474 19.624 87.5154 19.42 87.8594 19.276C88.2034 19.132 88.6034 19.06 89.0594 19.06C89.3314 19.06 89.5914 19.088 89.8394 19.144C90.0874 19.2 90.3194 19.284 90.5354 19.396C90.7594 19.5 90.9514 19.632 91.1114 19.792L90.7874 20.476C90.6354 20.332 90.4634 20.212 90.2714 20.116C90.0794 20.012 89.8794 19.936 89.6714 19.888C89.4714 19.832 89.2674 19.804 89.0594 19.804C88.6114 19.804 88.2714 19.892 88.0394 20.068C87.8074 20.244 87.6914 20.476 87.6914 20.764C87.6914 20.988 87.7634 21.172 87.9074 21.316C88.0514 21.46 88.2754 21.564 88.5794 21.628L89.6714 21.856C90.1914 21.968 90.5794 22.148 90.8354 22.396C91.0994 22.636 91.2314 22.964 91.2314 23.38C91.2314 23.732 91.1354 24.04 90.9434 24.304C90.7514 24.56 90.4794 24.76 90.1274 24.904C89.7834 25.04 89.3754 25.108 88.9034 25.108ZM93.0022 26.368L92.5462 26.02C92.6902 25.868 92.7982 25.724 92.8702 25.588C92.9502 25.46 93.0022 25.328 93.0262 25.192C93.0582 25.064 93.0742 24.932 93.0742 24.796L93.2902 25H92.4982V23.776H93.7222V24.64C93.7222 24.856 93.6982 25.06 93.6502 25.252C93.6102 25.452 93.5382 25.644 93.4342 25.828C93.3302 26.012 93.1862 26.192 93.0022 26.368ZM101.335 25.108C100.895 25.108 100.479 25.068 100.087 24.988C99.7027 24.908 99.3467 24.796 99.0187 24.652C98.6987 24.5 98.4067 24.316 98.1427 24.1L98.4907 23.308C98.7627 23.508 99.0387 23.68 99.3187 23.824C99.6067 23.96 99.9147 24.064 100.243 24.136C100.579 24.2 100.943 24.232 101.335 24.232C102.055 24.232 102.587 24.1 102.931 23.836C103.283 23.564 103.459 23.208 103.459 22.768C103.459 22.536 103.403 22.336 103.291 22.168C103.187 22 103.011 21.856 102.763 21.736C102.523 21.616 102.207 21.516 101.815 21.436L100.567 21.184C99.8147 21.024 99.2507 20.764 98.8747 20.404C98.5067 20.036 98.3227 19.548 98.3227 18.94C98.3227 18.436 98.4507 17.996 98.7067 17.62C98.9707 17.244 99.3347 16.952 99.7987 16.744C100.271 16.536 100.807 16.432 101.407 16.432C101.791 16.432 102.155 16.472 102.499 16.552C102.843 16.632 103.159 16.752 103.447 16.912C103.743 17.064 104.003 17.252 104.227 17.476L103.879 18.244C103.519 17.916 103.139 17.68 102.739 17.536C102.339 17.384 101.891 17.308 101.395 17.308C100.971 17.308 100.603 17.372 100.291 17.5C99.9867 17.628 99.7467 17.816 99.5707 18.064C99.4027 18.304 99.3187 18.584 99.3187 18.904C99.3187 19.288 99.4347 19.592 99.6667 19.816C99.9067 20.04 100.295 20.204 100.831 20.308L102.079 20.572C102.887 20.74 103.483 20.996 103.867 21.34C104.259 21.676 104.455 22.136 104.455 22.72C104.455 23.184 104.327 23.6 104.071 23.968C103.823 24.328 103.463 24.608 102.991 24.808C102.527 25.008 101.975 25.108 101.335 25.108ZM105.874 25V19.168H106.822V20.464H106.69C106.786 20.168 106.926 19.916 107.11 19.708C107.302 19.492 107.526 19.332 107.782 19.228C108.046 19.116 108.334 19.06 108.646 19.06C109.142 19.06 109.542 19.18 109.846 19.42C110.158 19.652 110.366 20.016 110.47 20.512H110.29C110.434 20.064 110.69 19.712 111.058 19.456C111.434 19.192 111.87 19.06 112.366 19.06C112.806 19.06 113.166 19.144 113.446 19.312C113.734 19.48 113.95 19.736 114.094 20.08C114.238 20.416 114.31 20.844 114.31 21.364V25H113.338V21.412C113.338 20.876 113.246 20.484 113.062 20.236C112.878 19.98 112.566 19.852 112.126 19.852C111.814 19.852 111.538 19.928 111.298 20.08C111.066 20.232 110.886 20.448 110.758 20.728C110.638 21 110.578 21.324 110.578 21.7V25H109.606V21.412C109.606 20.876 109.51 20.484 109.318 20.236C109.134 19.98 108.826 19.852 108.394 19.852C108.074 19.852 107.798 19.928 107.566 20.08C107.334 20.232 107.154 20.448 107.026 20.728C106.906 21 106.846 21.324 106.846 21.7V25H105.874ZM118.551 25.108C117.983 25.108 117.491 24.984 117.075 24.736C116.659 24.488 116.335 24.14 116.103 23.692C115.879 23.236 115.767 22.7 115.767 22.084C115.767 21.468 115.879 20.936 116.103 20.488C116.335 20.032 116.659 19.68 117.075 19.432C117.491 19.184 117.983 19.06 118.551 19.06C119.119 19.06 119.611 19.184 120.027 19.432C120.443 19.68 120.763 20.032 120.987 20.488C121.219 20.936 121.335 21.468 121.335 22.084C121.335 22.7 121.219 23.236 120.987 23.692C120.763 24.14 120.443 24.488 120.027 24.736C119.611 24.984 119.119 25.108 118.551 25.108ZM118.551 24.328C119.103 24.328 119.539 24.136 119.859 23.752C120.187 23.36 120.351 22.8 120.351 22.072C120.351 21.352 120.187 20.8 119.859 20.416C119.539 20.032 119.103 19.84 118.551 19.84C118.007 19.84 117.571 20.032 117.243 20.416C116.915 20.8 116.751 21.352 116.751 22.072C116.751 22.8 116.915 23.36 117.243 23.752C117.571 24.136 118.007 24.328 118.551 24.328ZM125.219 25.108C124.651 25.108 124.159 24.984 123.743 24.736C123.327 24.488 123.003 24.14 122.771 23.692C122.547 23.236 122.435 22.7 122.435 22.084C122.435 21.468 122.547 20.936 122.771 20.488C123.003 20.032 123.327 19.68 123.743 19.432C124.159 19.184 124.651 19.06 125.219 19.06C125.787 19.06 126.279 19.184 126.695 19.432C127.111 19.68 127.431 20.032 127.655 20.488C127.887 20.936 128.003 21.468 128.003 22.084C128.003 22.7 127.887 23.236 127.655 23.692C127.431 24.14 127.111 24.488 126.695 24.736C126.279 24.984 125.787 25.108 125.219 25.108ZM125.219 24.328C125.771 24.328 126.207 24.136 126.527 23.752C126.855 23.36 127.019 22.8 127.019 22.072C127.019 21.352 126.855 20.8 126.527 20.416C126.207 20.032 125.771 19.84 125.219 19.84C124.675 19.84 124.239 20.032 123.911 20.416C123.583 20.8 123.419 21.352 123.419 22.072C123.419 22.8 123.583 23.36 123.911 23.752C124.239 24.136 124.675 24.328 125.219 24.328ZM131.744 25.108C131.056 25.108 130.54 24.924 130.196 24.556C129.852 24.188 129.68 23.664 129.68 22.984V19.924H128.54V19.168H129.68V17.38H130.652V19.168H132.5V19.924H130.652V22.888C130.652 23.344 130.748 23.692 130.94 23.932C131.132 24.164 131.444 24.28 131.876 24.28C132.004 24.28 132.132 24.264 132.26 24.232C132.388 24.2 132.504 24.168 132.608 24.136L132.776 24.88C132.672 24.936 132.52 24.988 132.32 25.036C132.12 25.084 131.928 25.108 131.744 25.108ZM133.6 25V16.54H134.572V20.464H134.416C134.584 20 134.856 19.652 135.232 19.42C135.616 19.18 136.056 19.06 136.552 19.06C137.016 19.06 137.4 19.144 137.704 19.312C138.016 19.48 138.248 19.736 138.4 20.08C138.552 20.416 138.628 20.844 138.628 21.364V25H137.656V21.424C137.656 21.064 137.608 20.768 137.512 20.536C137.424 20.304 137.28 20.132 137.08 20.02C136.888 19.908 136.636 19.852 136.324 19.852C135.972 19.852 135.664 19.928 135.4 20.08C135.136 20.232 134.932 20.444 134.788 20.716C134.644 20.988 134.572 21.308 134.572 21.676V25H133.6ZM140.3 17.716V16.624H141.5V17.716H140.3ZM140.42 25V19.168H141.392V25H140.42ZM145.837 25.108C145.221 25.108 144.689 24.988 144.241 24.748C143.801 24.5 143.457 24.152 143.209 23.704C142.969 23.256 142.849 22.72 142.849 22.096C142.849 21.488 142.969 20.96 143.209 20.512C143.449 20.056 143.777 19.7 144.193 19.444C144.617 19.188 145.105 19.06 145.657 19.06C146.185 19.06 146.637 19.176 147.013 19.408C147.389 19.64 147.677 19.968 147.877 20.392C148.085 20.816 148.189 21.324 148.189 21.916V22.288H143.593V21.652H147.541L147.349 21.808C147.349 21.168 147.205 20.672 146.917 20.32C146.637 19.96 146.225 19.78 145.681 19.78C145.273 19.78 144.925 19.876 144.637 20.068C144.357 20.252 144.145 20.512 144.001 20.848C143.857 21.176 143.785 21.56 143.785 22V22.072C143.785 22.56 143.861 22.972 144.013 23.308C144.173 23.644 144.409 23.9 144.721 24.076C145.033 24.244 145.405 24.328 145.837 24.328C146.181 24.328 146.513 24.276 146.833 24.172C147.161 24.06 147.469 23.88 147.757 23.632L148.093 24.316C147.829 24.556 147.493 24.748 147.085 24.892C146.677 25.036 146.261 25.108 145.837 25.108ZM151.564 25.108C151.26 25.108 150.964 25.076 150.676 25.012C150.396 24.956 150.132 24.876 149.884 24.772C149.644 24.66 149.436 24.528 149.26 24.376L149.572 23.692C149.764 23.844 149.972 23.972 150.196 24.076C150.42 24.172 150.648 24.244 150.88 24.292C151.112 24.34 151.348 24.364 151.588 24.364C152.044 24.364 152.388 24.28 152.62 24.112C152.852 23.944 152.968 23.716 152.968 23.428C152.968 23.204 152.892 23.028 152.74 22.9C152.588 22.764 152.348 22.66 152.02 22.588L150.928 22.348C150.424 22.244 150.048 22.064 149.8 21.808C149.56 21.552 149.44 21.22 149.44 20.812C149.44 20.452 149.532 20.144 149.716 19.888C149.908 19.624 150.176 19.42 150.52 19.276C150.864 19.132 151.264 19.06 151.72 19.06C151.992 19.06 152.252 19.088 152.5 19.144C152.748 19.2 152.98 19.284 153.196 19.396C153.42 19.5 153.612 19.632 153.772 19.792L153.448 20.476C153.296 20.332 153.124 20.212 152.932 20.116C152.74 20.012 152.54 19.936 152.332 19.888C152.132 19.832 151.928 19.804 151.72 19.804C151.272 19.804 150.932 19.892 150.7 20.068C150.468 20.244 150.352 20.476 150.352 20.764C150.352 20.988 150.424 21.172 150.568 21.316C150.712 21.46 150.936 21.564 151.24 21.628L152.332 21.856C152.852 21.968 153.24 22.148 153.496 22.396C153.76 22.636 153.892 22.964 153.892 23.38C153.892 23.732 153.796 24.04 153.604 24.304C153.412 24.56 153.14 24.76 152.788 24.904C152.444 25.04 152.036 25.108 151.564 25.108ZM155.662 26.368L155.206 26.02C155.35 25.868 155.458 25.724 155.53 25.588C155.61 25.46 155.662 25.328 155.686 25.192C155.718 25.064 155.734 24.932 155.734 24.796L155.95 25H155.158V23.776H156.382V24.64C156.382 24.856 156.358 25.06 156.31 25.252C156.27 25.452 156.198 25.644 156.094 25.828C155.99 26.012 155.846 26.192 155.662 26.368ZM161.259 25V16.54H164.115C165.035 16.54 165.811 16.704 166.443 17.032C167.083 17.352 167.567 17.828 167.895 18.46C168.231 19.084 168.399 19.852 168.399 20.764C168.399 21.676 168.231 22.448 167.895 23.08C167.567 23.712 167.083 24.192 166.443 24.52C165.811 24.84 165.035 25 164.115 25H161.259ZM162.243 24.16H164.043C165.155 24.16 165.983 23.876 166.527 23.308C167.079 22.74 167.355 21.892 167.355 20.764C167.355 19.636 167.079 18.792 166.527 18.232C165.975 17.664 165.147 17.38 164.043 17.38H162.243V24.16ZM172.661 25.108C172.045 25.108 171.513 24.988 171.065 24.748C170.625 24.5 170.281 24.152 170.033 23.704C169.793 23.256 169.673 22.72 169.673 22.096C169.673 21.488 169.793 20.96 170.033 20.512C170.273 20.056 170.601 19.7 171.017 19.444C171.441 19.188 171.929 19.06 172.481 19.06C173.009 19.06 173.461 19.176 173.837 19.408C174.213 19.64 174.501 19.968 174.701 20.392C174.909 20.816 175.013 21.324 175.013 21.916V22.288H170.417V21.652H174.365L174.173 21.808C174.173 21.168 174.029 20.672 173.741 20.32C173.461 19.96 173.049 19.78 172.505 19.78C172.097 19.78 171.749 19.876 171.461 20.068C171.181 20.252 170.969 20.512 170.825 20.848C170.681 21.176 170.609 21.56 170.609 22V22.072C170.609 22.56 170.685 22.972 170.837 23.308C170.997 23.644 171.233 23.9 171.545 24.076C171.857 24.244 172.229 24.328 172.661 24.328C173.005 24.328 173.337 24.276 173.657 24.172C173.985 24.06 174.293 23.88 174.581 23.632L174.917 24.316C174.653 24.556 174.317 24.748 173.909 24.892C173.501 25.036 173.085 25.108 172.661 25.108ZM178.388 25.108C178.084 25.108 177.788 25.076 177.5 25.012C177.22 24.956 176.956 24.876 176.708 24.772C176.468 24.66 176.26 24.528 176.084 24.376L176.396 23.692C176.588 23.844 176.796 23.972 177.02 24.076C177.244 24.172 177.472 24.244 177.704 24.292C177.936 24.34 178.172 24.364 178.412 24.364C178.868 24.364 179.212 24.28 179.444 24.112C179.676 23.944 179.792 23.716 179.792 23.428C179.792 23.204 179.716 23.028 179.564 22.9C179.412 22.764 179.172 22.66 178.844 22.588L177.752 22.348C177.248 22.244 176.872 22.064 176.624 21.808C176.384 21.552 176.264 21.22 176.264 20.812C176.264 20.452 176.356 20.144 176.54 19.888C176.732 19.624 177 19.42 177.344 19.276C177.688 19.132 178.088 19.06 178.544 19.06C178.816 19.06 179.076 19.088 179.324 19.144C179.572 19.2 179.804 19.284 180.02 19.396C180.244 19.5 180.436 19.632 180.596 19.792L180.272 20.476C180.12 20.332 179.948 20.212 179.756 20.116C179.564 20.012 179.364 19.936 179.156 19.888C178.956 19.832 178.752 19.804 178.544 19.804C178.096 19.804 177.756 19.892 177.524 20.068C177.292 20.244 177.176 20.476 177.176 20.764C177.176 20.988 177.248 21.172 177.392 21.316C177.536 21.46 177.76 21.564 178.064 21.628L179.156 21.856C179.676 21.968 180.064 22.148 180.32 22.396C180.584 22.636 180.716 22.964 180.716 23.38C180.716 23.732 180.62 24.04 180.428 24.304C180.236 24.56 179.964 24.76 179.612 24.904C179.268 25.04 178.86 25.108 178.388 25.108ZM184.165 25.108C183.861 25.108 183.565 25.076 183.277 25.012C182.997 24.956 182.733 24.876 182.485 24.772C182.245 24.66 182.037 24.528 181.861 24.376L182.173 23.692C182.365 23.844 182.573 23.972 182.797 24.076C183.021 24.172 183.249 24.244 183.481 24.292C183.713 24.34 183.949 24.364 184.189 24.364C184.645 24.364 184.989 24.28 185.221 24.112C185.453 23.944 185.569 23.716 185.569 23.428C185.569 23.204 185.493 23.028 185.341 22.9C185.189 22.764 184.949 22.66 184.621 22.588L183.529 22.348C183.025 22.244 182.649 22.064 182.401 21.808C182.161 21.552 182.041 21.22 182.041 20.812C182.041 20.452 182.133 20.144 182.317 19.888C182.509 19.624 182.777 19.42 183.121 19.276C183.465 19.132 183.865 19.06 184.321 19.06C184.593 19.06 184.853 19.088 185.101 19.144C185.349 19.2 185.581 19.284 185.797 19.396C186.021 19.5 186.213 19.632 186.373 19.792L186.049 20.476C185.897 20.332 185.725 20.212 185.533 20.116C185.341 20.012 185.141 19.936 184.933 19.888C184.733 19.832 184.529 19.804 184.321 19.804C183.873 19.804 183.533 19.892 183.301 20.068C183.069 20.244 182.953 20.476 182.953 20.764C182.953 20.988 183.025 21.172 183.169 21.316C183.313 21.46 183.537 21.564 183.841 21.628L184.933 21.856C185.453 21.968 185.841 22.148 186.097 22.396C186.361 22.636 186.493 22.964 186.493 23.38C186.493 23.732 186.397 24.04 186.205 24.304C186.013 24.56 185.741 24.76 185.389 24.904C185.045 25.04 184.637 25.108 184.165 25.108ZM190.603 25.108C189.987 25.108 189.455 24.988 189.007 24.748C188.567 24.5 188.223 24.152 187.975 23.704C187.735 23.256 187.615 22.72 187.615 22.096C187.615 21.488 187.735 20.96 187.975 20.512C188.215 20.056 188.543 19.7 188.959 19.444C189.383 19.188 189.871 19.06 190.423 19.06C190.951 19.06 191.403 19.176 191.779 19.408C192.155 19.64 192.443 19.968 192.643 20.392C192.851 20.816 192.955 21.324 192.955 21.916V22.288H188.359V21.652H192.307L192.115 21.808C192.115 21.168 191.971 20.672 191.683 20.32C191.403 19.96 190.991 19.78 190.447 19.78C190.039 19.78 189.691 19.876 189.403 20.068C189.123 20.252 188.911 20.512 188.767 20.848C188.623 21.176 188.551 21.56 188.551 22V22.072C188.551 22.56 188.627 22.972 188.779 23.308C188.939 23.644 189.175 23.9 189.487 24.076C189.799 24.244 190.171 24.328 190.603 24.328C190.947 24.328 191.279 24.276 191.599 24.172C191.927 24.06 192.235 23.88 192.523 23.632L192.859 24.316C192.595 24.556 192.259 24.748 191.851 24.892C191.443 25.036 191.027 25.108 190.603 25.108ZM194.361 25V19.168H195.309V20.548H195.189C195.325 20.076 195.561 19.72 195.897 19.48C196.233 19.232 196.677 19.088 197.229 19.048L197.577 19.012L197.649 19.852L197.037 19.924C196.493 19.972 196.073 20.148 195.777 20.452C195.489 20.748 195.345 21.156 195.345 21.676V25H194.361ZM201.318 25.108C200.63 25.108 200.114 24.924 199.77 24.556C199.426 24.188 199.254 23.664 199.254 22.984V19.924H198.114V19.168H199.254V17.38H200.226V19.168H202.074V19.924H200.226V22.888C200.226 23.344 200.322 23.692 200.514 23.932C200.706 24.164 201.018 24.28 201.45 24.28C201.578 24.28 201.706 24.264 201.834 24.232C201.962 24.2 202.078 24.168 202.182 24.136L202.35 24.88C202.246 24.936 202.094 24.988 201.894 25.036C201.694 25.084 201.502 25.108 201.318 25.108ZM205.142 25.108C204.838 25.108 204.542 25.076 204.254 25.012C203.974 24.956 203.71 24.876 203.462 24.772C203.222 24.66 203.014 24.528 202.838 24.376L203.15 23.692C203.342 23.844 203.55 23.972 203.774 24.076C203.998 24.172 204.226 24.244 204.458 24.292C204.69 24.34 204.926 24.364 205.166 24.364C205.622 24.364 205.966 24.28 206.198 24.112C206.43 23.944 206.546 23.716 206.546 23.428C206.546 23.204 206.47 23.028 206.318 22.9C206.166 22.764 205.926 22.66 205.598 22.588L204.506 22.348C204.002 22.244 203.626 22.064 203.378 21.808C203.138 21.552 203.018 21.22 203.018 20.812C203.018 20.452 203.11 20.144 203.294 19.888C203.486 19.624 203.754 19.42 204.098 19.276C204.442 19.132 204.842 19.06 205.298 19.06C205.57 19.06 205.83 19.088 206.078 19.144C206.326 19.2 206.558 19.284 206.774 19.396C206.998 19.5 207.19 19.632 207.35 19.792L207.026 20.476C206.874 20.332 206.702 20.212 206.51 20.116C206.318 20.012 206.118 19.936 205.91 19.888C205.71 19.832 205.506 19.804 205.298 19.804C204.85 19.804 204.51 19.892 204.278 20.068C204.046 20.244 203.93 20.476 203.93 20.764C203.93 20.988 204.002 21.172 204.146 21.316C204.29 21.46 204.514 21.564 204.818 21.628L205.91 21.856C206.43 21.968 206.818 22.148 207.074 22.396C207.338 22.636 207.47 22.964 207.47 23.38C207.47 23.732 207.374 24.04 207.182 24.304C206.99 24.56 206.718 24.76 206.366 24.904C206.022 25.04 205.614 25.108 205.142 25.108ZM209.24 26.368L208.784 26.02C208.928 25.868 209.036 25.724 209.108 25.588C209.188 25.46 209.24 25.328 209.264 25.192C209.296 25.064 209.312 24.932 209.312 24.796L209.528 25H208.736V23.776H209.96V24.64C209.96 24.856 209.936 25.06 209.888 25.252C209.848 25.452 209.776 25.644 209.672 25.828C209.568 26.012 209.424 26.192 209.24 26.368ZM214.021 25L217.753 16.54H218.593L222.325 25H221.305L220.261 22.588L220.741 22.84H215.581L216.073 22.588L215.041 25H214.021ZM218.161 17.692L216.229 22.24L215.941 22.012H220.381L220.117 22.24L218.185 17.692H218.161ZM223.447 25V19.168H224.395V20.464H224.263C224.431 20 224.703 19.652 225.079 19.42C225.463 19.18 225.903 19.06 226.399 19.06C226.863 19.06 227.247 19.144 227.551 19.312C227.863 19.472 228.095 19.724 228.247 20.068C228.399 20.412 228.475 20.844 228.475 21.364V25H227.503V21.424C227.503 21.064 227.455 20.768 227.359 20.536C227.271 20.304 227.127 20.132 226.927 20.02C226.735 19.908 226.483 19.852 226.171 19.852C225.819 19.852 225.511 19.928 225.247 20.08C224.983 20.232 224.779 20.444 224.635 20.716C224.491 20.988 224.419 21.308 224.419 21.676V25H223.447ZM232.487 25.108C231.967 25.108 231.511 24.984 231.119 24.736C230.735 24.488 230.435 24.14 230.219 23.692C230.011 23.236 229.907 22.7 229.907 22.084C229.907 21.46 230.011 20.924 230.219 20.476C230.435 20.02 230.735 19.672 231.119 19.432C231.511 19.184 231.967 19.06 232.487 19.06C233.015 19.06 233.467 19.192 233.843 19.456C234.219 19.72 234.471 20.076 234.599 20.524H234.467V16.54H235.439V25H234.491V23.608H234.611C234.483 24.064 234.227 24.428 233.843 24.7C233.467 24.972 233.015 25.108 232.487 25.108ZM232.691 24.328C233.243 24.328 233.679 24.136 233.999 23.752C234.327 23.36 234.491 22.804 234.491 22.084C234.491 21.356 234.327 20.8 233.999 20.416C233.679 20.032 233.243 19.84 232.691 19.84C232.147 19.84 231.711 20.032 231.383 20.416C231.055 20.8 230.891 21.356 230.891 22.084C230.891 22.804 231.055 23.36 231.383 23.752C231.711 24.136 232.147 24.328 232.691 24.328ZM244.138 25.108C243.306 25.108 242.594 24.932 242.002 24.58C241.41 24.228 240.954 23.728 240.634 23.08C240.322 22.432 240.166 21.66 240.166 20.764C240.166 19.868 240.322 19.1 240.634 18.46C240.954 17.812 241.41 17.312 242.002 16.96C242.594 16.608 243.306 16.432 244.138 16.432C244.722 16.432 245.262 16.524 245.758 16.708C246.254 16.892 246.67 17.16 247.006 17.512L246.622 18.316C246.254 17.972 245.87 17.724 245.47 17.572C245.078 17.412 244.642 17.332 244.162 17.332C243.21 17.332 242.482 17.632 241.978 18.232C241.474 18.832 241.222 19.676 241.222 20.764C241.222 21.852 241.474 22.7 241.978 23.308C242.482 23.908 243.21 24.208 244.162 24.208C244.642 24.208 245.078 24.132 245.47 23.98C245.87 23.82 246.254 23.568 246.622 23.224L247.006 24.028C246.67 24.372 246.254 24.64 245.758 24.832C245.262 25.016 244.722 25.108 244.138 25.108ZM250.422 25.108C249.854 25.108 249.362 24.984 248.946 24.736C248.53 24.488 248.206 24.14 247.974 23.692C247.75 23.236 247.638 22.7 247.638 22.084C247.638 21.468 247.75 20.936 247.974 20.488C248.206 20.032 248.53 19.68 248.946 19.432C249.362 19.184 249.854 19.06 250.422 19.06C250.99 19.06 251.482 19.184 251.898 19.432C252.314 19.68 252.634 20.032 252.858 20.488C253.09 20.936 253.206 21.468 253.206 22.084C253.206 22.7 253.09 23.236 252.858 23.692C252.634 24.14 252.314 24.488 251.898 24.736C251.482 24.984 250.99 25.108 250.422 25.108ZM250.422 24.328C250.974 24.328 251.41 24.136 251.73 23.752C252.058 23.36 252.222 22.8 252.222 22.072C252.222 21.352 252.058 20.8 251.73 20.416C251.41 20.032 250.974 19.84 250.422 19.84C249.878 19.84 249.442 20.032 249.114 20.416C248.786 20.8 248.622 21.352 248.622 22.072C248.622 22.8 248.786 23.36 249.114 23.752C249.442 24.136 249.878 24.328 250.422 24.328ZM256.454 25.108C255.862 25.108 255.414 24.932 255.11 24.58C254.814 24.228 254.666 23.724 254.666 23.068V16.54H255.638V22.996C255.638 23.276 255.674 23.512 255.746 23.704C255.826 23.896 255.942 24.04 256.094 24.136C256.246 24.232 256.434 24.28 256.658 24.28C256.754 24.28 256.846 24.276 256.934 24.268C257.03 24.252 257.118 24.232 257.198 24.208L257.174 25.024C257.046 25.048 256.922 25.068 256.802 25.084C256.69 25.1 256.574 25.108 256.454 25.108ZM260.378 25.108C259.858 25.108 259.402 24.984 259.01 24.736C258.626 24.488 258.326 24.14 258.11 23.692C257.902 23.236 257.798 22.7 257.798 22.084C257.798 21.46 257.902 20.924 258.11 20.476C258.326 20.02 258.626 19.672 259.01 19.432C259.402 19.184 259.858 19.06 260.378 19.06C260.906 19.06 261.358 19.192 261.734 19.456C262.11 19.72 262.362 20.076 262.49 20.524H262.358V16.54H263.33V25H262.382V23.608H262.502C262.374 24.064 262.118 24.428 261.734 24.7C261.358 24.972 260.906 25.108 260.378 25.108ZM260.582 24.328C261.134 24.328 261.57 24.136 261.89 23.752C262.218 23.36 262.382 22.804 262.382 22.084C262.382 21.356 262.218 20.8 261.89 20.416C261.57 20.032 261.134 19.84 260.582 19.84C260.038 19.84 259.602 20.032 259.274 20.416C258.946 20.8 258.782 21.356 258.782 22.084C258.782 22.804 258.946 23.36 259.274 23.752C259.602 24.136 260.038 24.328 260.582 24.328ZM268.368 25V16.54H271.224C272.144 16.54 272.92 16.704 273.552 17.032C274.192 17.352 274.676 17.828 275.004 18.46C275.34 19.084 275.508 19.852 275.508 20.764C275.508 21.676 275.34 22.448 275.004 23.08C274.676 23.712 274.192 24.192 273.552 24.52C272.92 24.84 272.144 25 271.224 25H268.368ZM269.352 24.16H271.152C272.264 24.16 273.092 23.876 273.636 23.308C274.188 22.74 274.464 21.892 274.464 20.764C274.464 19.636 274.188 18.792 273.636 18.232C273.084 17.664 272.256 17.38 271.152 17.38H269.352V24.16ZM277.142 25V19.168H278.09V20.548H277.97C278.106 20.076 278.342 19.72 278.678 19.48C279.014 19.232 279.458 19.088 280.01 19.048L280.358 19.012L280.43 19.852L279.818 19.924C279.274 19.972 278.854 20.148 278.558 20.452C278.27 20.748 278.126 21.156 278.126 21.676V25H277.142ZM281.323 17.716V16.624H282.523V17.716H281.323ZM281.443 25V19.168H282.415V25H281.443ZM284.232 25V19.168H285.18V20.464H285.048C285.216 20 285.488 19.652 285.864 19.42C286.248 19.18 286.688 19.06 287.184 19.06C287.648 19.06 288.032 19.144 288.336 19.312C288.648 19.472 288.88 19.724 289.032 20.068C289.184 20.412 289.26 20.844 289.26 21.364V25H288.288V21.424C288.288 21.064 288.24 20.768 288.144 20.536C288.056 20.304 287.912 20.132 287.712 20.02C287.52 19.908 287.268 19.852 286.956 19.852C286.604 19.852 286.296 19.928 286.032 20.08C285.768 20.232 285.564 20.444 285.42 20.716C285.276 20.988 285.204 21.308 285.204 21.676V25H284.232ZM291.053 25V16.54H292.025V21.76H292.049L294.749 19.168H295.985L292.781 22.24V21.712L296.237 25H295.001L292.049 22.264H292.025V25H291.053ZM298.915 25.108C298.611 25.108 298.315 25.076 298.027 25.012C297.747 24.956 297.483 24.876 297.235 24.772C296.995 24.66 296.787 24.528 296.611 24.376L296.923 23.692C297.115 23.844 297.323 23.972 297.547 24.076C297.771 24.172 297.999 24.244 298.231 24.292C298.463 24.34 298.699 24.364 298.939 24.364C299.395 24.364 299.739 24.28 299.971 24.112C300.203 23.944 300.319 23.716 300.319 23.428C300.319 23.204 300.243 23.028 300.091 22.9C299.939 22.764 299.699 22.66 299.371 22.588L298.279 22.348C297.775 22.244 297.399 22.064 297.151 21.808C296.911 21.552 296.791 21.22 296.791 20.812C296.791 20.452 296.883 20.144 297.067 19.888C297.259 19.624 297.527 19.42 297.871 19.276C298.215 19.132 298.615 19.06 299.071 19.06C299.343 19.06 299.603 19.088 299.851 19.144C300.099 19.2 300.331 19.284 300.547 19.396C300.771 19.5 300.963 19.632 301.123 19.792L300.799 20.476C300.647 20.332 300.475 20.212 300.283 20.116C300.091 20.012 299.891 19.936 299.683 19.888C299.483 19.832 299.279 19.804 299.071 19.804C298.623 19.804 298.283 19.892 298.051 20.068C297.819 20.244 297.703 20.476 297.703 20.764C297.703 20.988 297.775 21.172 297.919 21.316C298.063 21.46 298.287 21.564 298.591 21.628L299.683 21.856C300.203 21.968 300.591 22.148 300.847 22.396C301.111 22.636 301.243 22.964 301.243 23.38C301.243 23.732 301.147 24.04 300.955 24.304C300.763 24.56 300.491 24.76 300.139 24.904C299.795 25.04 299.387 25.108 298.915 25.108ZM302.51 25V23.776H303.734V25H302.51Z" fill="white"/>
</svg>
