<svg width="91" height="80" viewBox="0 0 91 80" fill="none" xmlns="http://www.w3.org/2000/svg">
<g filter="url(#filter0_d_535_49)">
<rect x="4" y="24" width="82.1667" height="47.125" rx="2" fill="#EBDBBA"/>
<rect x="4.25" y="24.25" width="81.6667" height="46.625" rx="1.75" stroke="#EBDBBA" stroke-width="0.5"/>
</g>
<rect x="29.375" width="30.2083" height="30.2083" rx="3" fill="#CB3335"/>
<g clip-path="url(#clip0_535_49)">
<path fill-rule="evenodd" clip-rule="evenodd" d="M35.7877 10.6651C35.8439 10.6859 35.9096 10.7325 35.9341 10.7688C35.9704 10.8227 35.9784 11.2928 35.978 15.8075L35.8971 15.8901C35.8406 15.9476 35.7801 15.9727 35.6988 15.9727C35.6179 15.9727 35.5561 15.9472 35.4163 15.8075V13.3294C35.4163 11.7435 35.4282 10.8276 35.4494 10.7853C35.4676 10.749 35.5284 10.6988 35.5842 10.6733C35.6638 10.6376 35.7081 10.636 35.7877 10.6651ZM52.1427 10.6651C52.1989 10.6859 52.2646 10.7325 52.2891 10.7688C52.3254 10.8227 52.3333 11.2928 52.333 15.8075L52.2521 15.8901C52.1956 15.9476 52.1351 15.9727 52.0538 15.9727C51.9729 15.9727 51.9111 15.9472 51.7713 15.8075V13.3294C51.7713 11.7435 51.7832 10.8276 51.8044 10.7853C51.8225 10.749 51.8833 10.6988 51.9392 10.6733C52.0188 10.6376 52.0631 10.636 52.1427 10.6651ZM52.1734 16.8482L52.333 17.03V18.7976C52.333 19.9101 52.3208 20.5897 52.3 20.6314C52.2818 20.6677 52.2151 20.7199 52.1513 20.747C52.0495 20.7906 51.0553 20.7966 43.8747 20.7966C36.694 20.7966 35.6998 20.7906 35.5981 20.747C35.5343 20.7199 35.4676 20.6677 35.4494 20.6314C35.4286 20.5897 35.4163 19.9121 35.416 18.8059C35.416 17.2421 35.4216 17.0379 35.4689 16.9698C35.4983 16.9275 35.5541 16.8803 35.5931 16.8644C35.6328 16.8482 39.3128 16.8383 52.1734 16.8482ZM35.9946 20.2184H51.7548L51.7601 17.3934H50.9123C50.9106 17.9442 50.8951 18.0916 50.87 18.1262C50.8478 18.157 50.7851 18.1989 50.7306 18.2198C50.6506 18.2505 50.6106 18.2475 50.5241 18.2055C50.4537 18.1712 50.4051 18.1163 50.383 18.046C50.3645 17.9868 50.3496 17.816 50.3499 17.666L50.3506 17.3934H49.2272C49.2272 18.6037 49.2256 18.6176 49.1476 18.7068C49.0878 18.7748 49.0376 18.7976 48.9464 18.7976C48.8552 18.7976 48.805 18.7748 48.7452 18.7068C48.6672 18.6176 48.6655 18.6037 48.6655 18.0047V17.3934H47.5422C47.5266 18.0473 47.5174 18.0939 47.452 18.159C47.4041 18.2069 47.3366 18.2333 47.2593 18.2343C47.1691 18.2356 47.1202 18.2135 47.0601 18.1451C46.9874 18.0621 46.9805 18.0258 46.9805 17.7238V17.3934H45.8571C45.8571 18.381 45.8452 18.5449 45.8075 18.6324C45.7778 18.7021 45.722 18.7619 45.6671 18.7831C45.6172 18.8023 45.5429 18.8095 45.5019 18.7996C45.4609 18.7894 45.3975 18.7477 45.3608 18.7068C45.2987 18.6377 45.2941 18.5885 45.2948 18.0129L45.2954 17.3934H44.172C44.1717 17.7902 44.1568 17.9614 44.1387 18.0294C44.1142 18.1223 44.0769 18.1679 43.9903 18.2112C43.8803 18.2663 43.8691 18.2663 43.759 18.2112C43.6725 18.1679 43.6351 18.1223 43.6107 18.0294C43.5925 17.9614 43.5776 17.7902 43.5776 17.6495L43.5773 17.3934H42.4539C42.4523 18.4477 42.4397 18.648 42.4117 18.685C42.3895 18.7137 42.338 18.7547 42.297 18.7758C42.256 18.797 42.1781 18.8069 42.1235 18.7976C42.0575 18.7866 42.0024 18.7453 41.9583 18.6737C41.8992 18.5769 41.8926 18.5079 41.8923 17.9799V17.3934H40.7689C40.7689 18.0258 40.7619 18.0621 40.6893 18.1451C40.6301 18.2122 40.5786 18.2359 40.4917 18.2359C40.4135 18.2359 40.3493 18.2108 40.2991 18.1606C40.2316 18.0935 40.2227 18.0496 40.2155 17.7393L40.2072 17.3934H39.0838C39.0676 18.6189 39.064 18.6506 38.9936 18.7206C38.9457 18.7686 38.8783 18.795 38.801 18.796C38.7108 18.7973 38.6619 18.7752 38.6018 18.7068C38.5238 18.6176 38.5221 18.6037 38.5221 18.0047V17.3934H37.3988C37.3998 17.816 37.3849 17.9868 37.3664 18.046C37.3443 18.1163 37.2957 18.1712 37.2253 18.2055C37.1387 18.2475 37.0988 18.2505 37.0188 18.2198C36.9643 18.1989 36.9015 18.157 36.8794 18.1262C36.8543 18.0916 36.8387 17.9442 36.8381 17.7321L36.8371 17.3934H35.9774L35.9946 20.2184ZM38.1131 11.4792C38.1564 11.4792 38.2327 11.5152 38.3735 11.6384L38.39 13.1642H49.3594L49.3759 11.6384L49.4668 11.5588C49.5167 11.5152 49.591 11.4785 49.632 11.4779C49.6729 11.4769 49.739 11.503 49.7787 11.5357C49.8186 11.5681 50.1497 11.9814 50.5145 12.4539C50.8796 12.9264 51.1868 13.3503 51.1977 13.3955C51.2093 13.4431 51.1961 13.5201 51.1667 13.5773C51.1386 13.6318 50.8677 13.9962 50.565 14.3867C50.262 14.7776 49.9561 15.1678 49.8851 15.254C49.7833 15.3776 49.7347 15.411 49.6567 15.411C49.6022 15.411 49.5279 15.3961 49.4915 15.3779C49.4552 15.3598 49.4103 15.2967 49.3918 15.2375C49.3733 15.1784 49.3584 14.8143 49.3594 13.7259H38.39L38.3906 14.428C38.3906 14.8143 38.3758 15.1784 38.3576 15.2375C38.3391 15.2967 38.2942 15.3598 38.2578 15.3779C38.2215 15.3961 38.1471 15.411 38.0926 15.411C38.0146 15.411 37.9661 15.3776 37.8643 15.254C37.7929 15.1678 37.487 14.7776 37.1843 14.3867C36.8814 13.9962 36.6108 13.6318 36.5827 13.5773C36.5533 13.5201 36.54 13.4431 36.5516 13.3955C36.5625 13.3503 36.8698 12.9264 37.2346 12.4539C37.5993 11.9814 37.9287 11.5687 37.9664 11.537C38.0037 11.5053 38.0698 11.4792 38.1131 11.4792ZM37.2002 13.5112C37.224 13.5475 37.371 13.7428 37.5273 13.9453C37.6839 14.1479 37.823 14.3078 37.8366 14.3005C37.8501 14.2936 37.8613 13.9086 37.8613 13.4451C37.8613 12.9792 37.8481 12.6026 37.8319 12.6026C37.8161 12.6026 37.6578 12.7922 37.48 13.0238C37.1886 13.4048 37.1615 13.4514 37.2002 13.5112ZM49.9128 14.3005C49.9264 14.3078 50.0655 14.1479 50.2217 13.9453C50.378 13.7428 50.5254 13.5475 50.5488 13.5112C50.5875 13.4514 50.5604 13.4048 50.2647 13.0225C50.0846 12.7899 49.9264 12.6002 49.9128 12.6012C49.8993 12.6019 49.888 12.9819 49.888 13.4451C49.888 13.9086 49.8993 14.2936 49.9128 14.3005Z" fill="#EBDBBA"/>
</g>
<path d="M25.332 45V39.36H27.308C27.9107 39.36 28.4227 39.4693 28.844 39.688C29.2653 39.9067 29.5853 40.2267 29.804 40.648C30.028 41.064 30.14 41.5733 30.14 42.176C30.14 42.7787 30.028 43.2907 29.804 43.712C29.5853 44.1333 29.2653 44.4533 28.844 44.672C28.4227 44.8907 27.9107 45 27.308 45H25.332ZM26.044 44.376H27.268C27.9667 44.376 28.4947 44.1947 28.852 43.832C29.2147 43.4693 29.396 42.9173 29.396 42.176C29.396 41.4347 29.2147 40.8853 28.852 40.528C28.4947 40.1653 27.9667 39.984 27.268 39.984H26.044V44.376ZM31.3742 40.096V39.304H32.2382V40.096H31.3742ZM31.4542 45V41.048H32.1662V45H31.4542ZM33.603 45V41.048H34.259V41.912C34.3283 41.736 34.4243 41.5787 34.547 41.44C34.675 41.296 34.827 41.184 35.003 41.104C35.1843 41.0187 35.3817 40.976 35.595 40.976C35.9417 40.976 36.227 41.0613 36.451 41.232C36.675 41.4027 36.8137 41.6267 36.867 41.904H36.859C36.9657 41.6427 37.1337 41.424 37.363 41.248C37.5977 41.0667 37.891 40.976 38.243 40.976C38.5417 40.976 38.795 41.0347 39.003 41.152C39.211 41.264 39.3683 41.4373 39.475 41.672C39.5817 41.9067 39.635 42.2027 39.635 42.56V45H38.931V42.608C38.931 42.2667 38.8697 42.0107 38.747 41.84C38.6243 41.6693 38.4057 41.584 38.091 41.584C37.8563 41.584 37.6537 41.6373 37.483 41.744C37.3177 41.8453 37.1897 41.9893 37.099 42.176C37.0137 42.3573 36.971 42.5627 36.971 42.792V45H36.267V42.608C36.267 42.272 36.1977 42.0187 36.059 41.848C35.9203 41.672 35.7097 41.584 35.427 41.584C35.1977 41.584 34.9977 41.6427 34.827 41.76C34.6617 41.872 34.5337 42.0187 34.443 42.2C34.3523 42.3813 34.307 42.5733 34.307 42.776V45H33.603ZM42.9676 45.072C42.5249 45.072 42.1409 44.992 41.8156 44.832C41.4956 44.6667 41.2502 44.432 41.0796 44.128C40.9089 43.8187 40.8236 43.4507 40.8236 43.024C40.8236 42.624 40.9036 42.272 41.0636 41.968C41.2236 41.6587 41.4502 41.416 41.7436 41.24C42.0369 41.064 42.3862 40.976 42.7916 40.976C43.1756 40.976 43.5009 41.0587 43.7676 41.224C44.0396 41.3893 44.2449 41.6213 44.3836 41.92C44.5276 42.2187 44.5996 42.5733 44.5996 42.984V43.216H41.3596V42.72H44.1356L43.9836 42.88C43.9836 42.4427 43.8796 42.1067 43.6716 41.872C43.4689 41.6373 43.1756 41.52 42.7916 41.52C42.5409 41.52 42.3169 41.5787 42.1196 41.696C41.9276 41.808 41.7782 41.968 41.6716 42.176C41.5649 42.384 41.5116 42.6373 41.5116 42.936V43.016C41.5116 43.336 41.5702 43.6053 41.6876 43.824C41.8049 44.0427 41.9729 44.208 42.1916 44.32C42.4102 44.432 42.6716 44.488 42.9756 44.488C43.1942 44.488 43.4156 44.4587 43.6396 44.4C43.8689 44.336 44.0822 44.224 44.2796 44.064L44.5196 44.576C44.3169 44.7467 44.0742 44.872 43.7916 44.952C43.5142 45.032 43.2396 45.072 42.9676 45.072ZM45.7745 45V41.048H46.4385V41.904C46.5665 41.6107 46.7585 41.384 47.0145 41.224C47.2705 41.0587 47.5585 40.976 47.8785 40.976C48.2038 40.976 48.4758 41.0347 48.6945 41.152C48.9132 41.264 49.0758 41.44 49.1825 41.68C49.2945 41.9147 49.3505 42.208 49.3505 42.56V45H48.6385V42.6C48.6385 42.3867 48.6092 42.2053 48.5505 42.056C48.4918 41.9067 48.3932 41.792 48.2545 41.712C48.1212 41.6267 47.9425 41.584 47.7185 41.584C47.4838 41.584 47.2705 41.6373 47.0785 41.744C46.8918 41.8507 46.7452 41.9947 46.6385 42.176C46.5372 42.3573 46.4865 42.56 46.4865 42.784V45H45.7745ZM52.2149 45.072C51.9962 45.072 51.7802 45.0507 51.5669 45.008C51.3589 44.9707 51.1642 44.9173 50.9829 44.848C50.8069 44.7733 50.6549 44.6827 50.5269 44.576L50.7589 44.072C50.8922 44.1733 51.0389 44.256 51.1989 44.32C51.3642 44.384 51.5322 44.432 51.7029 44.464C51.8789 44.4907 52.0469 44.504 52.2069 44.504C52.5375 44.504 52.7909 44.4533 52.9669 44.352C53.1482 44.2507 53.2389 44.1093 53.2389 43.928C53.2389 43.7733 53.1855 43.656 53.0789 43.576C52.9775 43.4907 52.8069 43.4267 52.5669 43.384L51.7429 43.24C51.3749 43.1707 51.0975 43.0453 50.9109 42.864C50.7295 42.6827 50.6389 42.4453 50.6389 42.152C50.6389 41.9173 50.7029 41.712 50.8309 41.536C50.9642 41.36 51.1535 41.224 51.3989 41.128C51.6442 41.0267 51.9375 40.976 52.2789 40.976C52.4655 40.976 52.6549 40.9947 52.8469 41.032C53.0442 41.0693 53.2255 41.1253 53.3909 41.2C53.5615 41.2693 53.7002 41.3573 53.8069 41.464L53.5669 41.968C53.4602 41.8667 53.3322 41.7867 53.1829 41.728C53.0389 41.664 52.8869 41.6187 52.7269 41.592C52.5722 41.56 52.4202 41.544 52.2709 41.544C51.9615 41.544 51.7215 41.5973 51.5509 41.704C51.3802 41.8053 51.2949 41.9493 51.2949 42.136C51.2949 42.2853 51.3429 42.4027 51.4389 42.488C51.5402 42.5733 51.7029 42.6373 51.9269 42.68L52.7269 42.824C53.1215 42.8987 53.4149 43.024 53.6069 43.2C53.7989 43.3707 53.8949 43.608 53.8949 43.912C53.8949 44.1467 53.8255 44.352 53.6869 44.528C53.5482 44.6987 53.3535 44.832 53.1029 44.928C52.8522 45.024 52.5562 45.072 52.2149 45.072ZM54.9914 40.096V39.304H55.8554V40.096H54.9914ZM55.0714 45V41.048H55.7834V45H55.0714ZM58.9242 45.072C58.5242 45.072 58.1775 44.9867 57.8842 44.816C57.5909 44.6453 57.3642 44.408 57.2042 44.104C57.0442 43.7947 56.9642 43.432 56.9642 43.016C56.9642 42.6053 57.0442 42.248 57.2042 41.944C57.3642 41.6347 57.5909 41.3973 57.8842 41.232C58.1775 41.0613 58.5242 40.976 58.9242 40.976C59.3242 40.976 59.6682 41.0613 59.9562 41.232C60.2495 41.3973 60.4762 41.6347 60.6362 41.944C60.7962 42.248 60.8762 42.6053 60.8762 43.016C60.8762 43.432 60.7962 43.7947 60.6362 44.104C60.4815 44.408 60.2575 44.6453 59.9642 44.816C59.6709 44.9867 59.3242 45.072 58.9242 45.072ZM58.9162 44.472C59.3055 44.472 59.6122 44.3413 59.8362 44.08C60.0602 43.8187 60.1722 43.464 60.1722 43.016C60.1722 42.568 60.0602 42.216 59.8362 41.96C59.6175 41.704 59.3135 41.576 58.9242 41.576C58.5349 41.576 58.2282 41.704 58.0042 41.96C57.7802 42.216 57.6682 42.568 57.6682 43.016C57.6682 43.464 57.7802 43.8187 58.0042 44.08C58.2335 44.3413 58.5375 44.472 58.9162 44.472ZM62.0714 45V41.048H62.7354V41.904C62.8634 41.6107 63.0554 41.384 63.3114 41.224C63.5674 41.0587 63.8554 40.976 64.1754 40.976C64.5007 40.976 64.7727 41.0347 64.9914 41.152C65.21 41.264 65.3727 41.44 65.4794 41.68C65.5914 41.9147 65.6474 42.208 65.6474 42.56V45H64.9354V42.6C64.9354 42.3867 64.906 42.2053 64.8474 42.056C64.7887 41.9067 64.69 41.792 64.5514 41.712C64.418 41.6267 64.2394 41.584 64.0154 41.584C63.7807 41.584 63.5674 41.6373 63.3754 41.744C63.1887 41.8507 63.042 41.9947 62.9354 42.176C62.834 42.3573 62.7834 42.56 62.7834 42.784V45H62.0714Z" fill="#CE3439"/>
<path d="M27.3453 58.072C26.716 58.072 26.22 57.936 25.8573 57.664C25.4946 57.3867 25.3133 57.0027 25.3133 56.512C25.3133 56.2613 25.3613 56.04 25.4573 55.848C25.5586 55.6507 25.6973 55.4907 25.8733 55.368C26.0546 55.24 26.2626 55.1547 26.4973 55.112V55.12C26.2946 55.072 26.1133 54.984 25.9533 54.856C25.7986 54.728 25.676 54.5733 25.5853 54.392C25.4946 54.2107 25.4493 54.0107 25.4493 53.792C25.4493 53.3227 25.62 52.9547 25.9613 52.688C26.308 52.4213 26.7693 52.288 27.3453 52.288C27.9213 52.288 28.38 52.4213 28.7213 52.688C29.068 52.9547 29.2413 53.3227 29.2413 53.792C29.2413 54.0053 29.196 54.2053 29.1053 54.392C29.0146 54.5733 28.8893 54.728 28.7293 54.856C28.5746 54.984 28.3933 55.072 28.1853 55.12V55.112C28.4146 55.1493 28.6173 55.232 28.7933 55.36C28.9746 55.488 29.116 55.6507 29.2173 55.848C29.324 56.04 29.3773 56.2613 29.3773 56.512C29.3773 57.0027 29.196 57.3867 28.8333 57.664C28.476 57.936 27.98 58.072 27.3453 58.072ZM27.3453 57.472C27.788 57.472 28.124 57.3867 28.3533 57.216C28.588 57.0453 28.7053 56.7947 28.7053 56.464C28.7053 56.1333 28.588 55.88 28.3533 55.704C28.124 55.528 27.788 55.44 27.3453 55.44C26.9026 55.44 26.564 55.528 26.3293 55.704C26.1 55.88 25.9853 56.1333 25.9853 56.464C25.9853 56.7947 26.1 57.0453 26.3293 57.216C26.564 57.3867 26.9026 57.472 27.3453 57.472ZM27.3453 54.84C27.7293 54.84 28.0306 54.7547 28.2493 54.584C28.468 54.408 28.5773 54.1653 28.5773 53.856C28.5773 53.552 28.468 53.3147 28.2493 53.144C28.0306 52.968 27.7293 52.88 27.3453 52.88C26.9666 52.88 26.668 52.968 26.4493 53.144C26.2306 53.3147 26.1213 53.552 26.1213 53.856C26.1213 54.1653 26.2306 54.408 26.4493 54.584C26.668 54.7547 26.9666 54.84 27.3453 54.84ZM32.2062 58.072C31.9609 58.072 31.7235 58.0453 31.4942 57.992C31.2702 57.9387 31.0595 57.8613 30.8622 57.76C30.6649 57.6533 30.4889 57.5253 30.3342 57.376L30.6142 56.816C30.8595 57.04 31.1102 57.2027 31.3662 57.304C31.6275 57.4 31.9075 57.448 32.2062 57.448C32.6009 57.448 32.9075 57.3467 33.1262 57.144C33.3502 56.936 33.4622 56.6453 33.4622 56.272C33.4622 55.904 33.3582 55.6107 33.1502 55.392C32.9422 55.1733 32.6542 55.064 32.2862 55.064C32.0409 55.064 31.8169 55.1147 31.6142 55.216C31.4169 55.312 31.2329 55.4747 31.0622 55.704H30.5022V52.36H33.8782V52.976H31.1502V55.096H31.1182C31.2462 54.904 31.4222 54.7493 31.6462 54.632C31.8702 54.5093 32.1209 54.448 32.3982 54.448C32.7609 54.448 33.0729 54.5253 33.3342 54.68C33.5955 54.8293 33.7955 55.0373 33.9342 55.304C34.0782 55.5707 34.1502 55.8827 34.1502 56.24C34.1502 56.6187 34.0702 56.9467 33.9102 57.224C33.7502 57.496 33.5262 57.7067 33.2382 57.856C32.9502 58 32.6062 58.072 32.2062 58.072ZM35.8591 55.312L35.3871 55.032L36.0911 53.968L36.1071 53.992L34.8191 54.072V53.52L36.1071 53.6L36.0831 53.616L35.3871 52.56L35.8671 52.28L36.4351 53.464H36.4271L36.9791 52.28L37.4591 52.56L36.7551 53.616L36.7311 53.6L38.0271 53.52V54.072L36.7391 53.992L36.7631 53.968L37.4591 55.032L36.9871 55.312L36.4271 54.136H36.4351L35.8591 55.312ZM40.7687 58.072C40.5234 58.072 40.286 58.0453 40.0567 57.992C39.8327 57.9387 39.622 57.8613 39.4247 57.76C39.2274 57.6533 39.0514 57.5253 38.8967 57.376L39.1767 56.816C39.422 57.04 39.6727 57.2027 39.9287 57.304C40.19 57.4 40.47 57.448 40.7687 57.448C41.1634 57.448 41.47 57.3467 41.6887 57.144C41.9127 56.936 42.0247 56.6453 42.0247 56.272C42.0247 55.904 41.9207 55.6107 41.7127 55.392C41.5047 55.1733 41.2167 55.064 40.8487 55.064C40.6034 55.064 40.3794 55.1147 40.1767 55.216C39.9794 55.312 39.7954 55.4747 39.6247 55.704H39.0647V52.36H42.4407V52.976H39.7127V55.096H39.6807C39.8087 54.904 39.9847 54.7493 40.2087 54.632C40.4327 54.5093 40.6834 54.448 40.9607 54.448C41.3234 54.448 41.6354 54.5253 41.8967 54.68C42.158 54.8293 42.358 55.0373 42.4967 55.304C42.6407 55.5707 42.7127 55.8827 42.7127 56.24C42.7127 56.6187 42.6327 56.9467 42.4727 57.224C42.3127 57.496 42.0887 57.7067 41.8007 57.856C41.5127 58 41.1687 58.072 40.7687 58.072ZM45.5016 58.072C45.0696 58.072 44.7042 57.9627 44.4056 57.744C44.1069 57.52 43.8802 57.1947 43.7256 56.768C43.5762 56.336 43.5016 55.8053 43.5016 55.176C43.5016 54.5467 43.5762 54.0187 43.7256 53.592C43.8802 53.1653 44.1069 52.8427 44.4056 52.624C44.7042 52.4 45.0696 52.288 45.5016 52.288C45.9442 52.288 46.3122 52.3973 46.6056 52.616C46.8989 52.8347 47.1202 53.1573 47.2696 53.584C47.4242 54.0107 47.5016 54.5387 47.5016 55.168C47.5016 55.7973 47.4242 56.328 47.2696 56.76C47.1202 57.192 46.8962 57.52 46.5976 57.744C46.2989 57.9627 45.9336 58.072 45.5016 58.072ZM45.5016 57.448C45.9389 57.448 46.2642 57.264 46.4776 56.896C46.6909 56.528 46.7976 55.952 46.7976 55.168C46.7976 54.3893 46.6909 53.8187 46.4776 53.456C46.2696 53.0933 45.9469 52.912 45.5096 52.912C45.0669 52.912 44.7389 53.096 44.5256 53.464C44.3122 53.8267 44.2056 54.3973 44.2056 55.176C44.2056 55.9493 44.3122 56.5227 44.5256 56.896C44.7389 57.264 45.0642 57.448 45.5016 57.448ZM49.2184 55.312L48.7464 55.032L49.4504 53.968L49.4664 53.992L48.1784 54.072V53.52L49.4664 53.6L49.4424 53.616L48.7464 52.56L49.2264 52.28L49.7944 53.464H49.7864L50.3384 52.28L50.8184 52.56L50.1144 53.616L50.0904 53.6L51.3864 53.52V54.072L50.0984 53.992L50.1224 53.968L50.8184 55.032L50.3464 55.312L49.7864 54.136H49.7944L49.2184 55.312ZM52.4001 58V57.392H53.9441V52.928L54.3201 52.984L52.6801 54.04L52.3601 53.488L54.1281 52.36H54.6481V57.392H56.0721V58H52.4001ZM57.1169 58V57.472L59.1009 55.392C59.2929 55.1893 59.4423 55.0053 59.5489 54.84C59.6556 54.6747 59.7329 54.5147 59.7809 54.36C59.8289 54.2053 59.8529 54.048 59.8529 53.888C59.8529 53.5733 59.7516 53.3333 59.5489 53.168C59.3516 52.9973 59.0769 52.912 58.7249 52.912C58.4583 52.912 58.1943 52.9653 57.9329 53.072C57.6769 53.1733 57.4316 53.336 57.1969 53.56L56.9249 53C57.1596 52.776 57.4396 52.6027 57.7649 52.48C58.0903 52.352 58.4263 52.288 58.7729 52.288C59.1409 52.288 59.4583 52.352 59.7249 52.48C59.9916 52.6027 60.1943 52.7813 60.3329 53.016C60.4769 53.2453 60.5489 53.5227 60.5489 53.848C60.5489 54.0133 60.5303 54.176 60.4929 54.336C60.4556 54.4907 60.3969 54.6453 60.3169 54.8C60.2423 54.9547 60.1436 55.1147 60.0209 55.28C59.8983 55.4453 59.7489 55.6187 59.5729 55.8L58.0209 57.416V57.384H60.7809V58H57.1169ZM63.6578 58.072C63.2258 58.072 62.8605 57.9627 62.5618 57.744C62.2631 57.52 62.0365 57.1947 61.8818 56.768C61.7325 56.336 61.6578 55.8053 61.6578 55.176C61.6578 54.5467 61.7325 54.0187 61.8818 53.592C62.0365 53.1653 62.2631 52.8427 62.5618 52.624C62.8605 52.4 63.2258 52.288 63.6578 52.288C64.1005 52.288 64.4685 52.3973 64.7618 52.616C65.0551 52.8347 65.2765 53.1573 65.4258 53.584C65.5805 54.0107 65.6578 54.5387 65.6578 55.168C65.6578 55.7973 65.5805 56.328 65.4258 56.76C65.2765 57.192 65.0525 57.52 64.7538 57.744C64.4551 57.9627 64.0898 58.072 63.6578 58.072ZM63.6578 57.448C64.0951 57.448 64.4205 57.264 64.6338 56.896C64.8471 56.528 64.9538 55.952 64.9538 55.168C64.9538 54.3893 64.8471 53.8187 64.6338 53.456C64.4258 53.0933 64.1031 52.912 63.6658 52.912C63.2231 52.912 62.8951 53.096 62.6818 53.464C62.4685 53.8267 62.3618 54.3973 62.3618 55.176C62.3618 55.9493 62.4685 56.5227 62.6818 56.896C62.8951 57.264 63.2205 57.448 63.6578 57.448Z" fill="black"/>
<defs>
<filter id="filter0_d_535_49" x="0.0999999" y="24" width="89.9665" height="55.025" filterUnits="userSpaceOnUse" color-interpolation-filters="sRGB">
<feFlood flood-opacity="0" result="BackgroundImageFix"/>
<feColorMatrix in="SourceAlpha" type="matrix" values="0 0 0 0 0 0 0 0 0 0 0 0 0 0 0 0 0 0 127 0" result="hardAlpha"/>
<feOffset dy="4"/>
<feGaussianBlur stdDeviation="1.95"/>
<feComposite in2="hardAlpha" operator="out"/>
<feColorMatrix type="matrix" values="0 0 0 0 0 0 0 0 0 0 0 0 0 0 0 0 0 0 0.2 0"/>
<feBlend mode="normal" in2="BackgroundImageFix" result="effect1_dropShadow_535_49"/>
<feBlend mode="normal" in="SourceGraphic" in2="effect1_dropShadow_535_49" result="shape"/>
</filter>
<clipPath id="clip0_535_49">
<rect width="16.9167" height="16.9167" fill="white" transform="translate(35.4165 7.25)"/>
</clipPath>
</defs>
</svg>
