<svg width="327" height="44" viewBox="0 0 327 44" fill="none" xmlns="http://www.w3.org/2000/svg">
<path d="M3.504 9.108C3.128 9.108 2.764 9.068 2.412 8.988C2.068 8.908 1.744 8.796 1.44 8.652C1.136 8.5 0.868 8.316 0.636 8.1L0.996 7.32C1.388 7.64 1.784 7.872 2.184 8.016C2.584 8.16 3.016 8.232 3.48 8.232C3.888 8.232 4.232 8.172 4.512 8.052C4.792 7.932 5.004 7.756 5.148 7.524C5.292 7.284 5.364 6.992 5.364 6.648C5.364 6.152 5.2 5.776 4.872 5.52C4.544 5.264 4.068 5.136 3.444 5.136H2.196V4.284H3.36C3.728 4.284 4.04 4.22 4.296 4.092C4.56 3.964 4.764 3.784 4.908 3.552C5.052 3.312 5.124 3.024 5.124 2.688C5.124 2.24 4.98 1.9 4.692 1.668C4.404 1.428 3.988 1.308 3.444 1.308C2.996 1.308 2.584 1.388 2.208 1.548C1.832 1.7 1.476 1.94 1.14 2.268L0.78 1.5C1.1 1.164 1.5 0.903999 1.98 0.719999C2.468 0.527999 2.976 0.431999 3.504 0.431999C4.048 0.431999 4.512 0.52 4.896 0.696C5.288 0.864 5.588 1.112 5.796 1.44C6.004 1.76 6.108 2.148 6.108 2.604C6.108 3.124 5.964 3.572 5.676 3.948C5.388 4.316 4.996 4.568 4.5 4.704V4.572C4.892 4.636 5.224 4.764 5.496 4.956C5.776 5.148 5.988 5.396 6.132 5.7C6.276 5.996 6.348 6.336 6.348 6.72C6.348 7.208 6.232 7.632 6 7.992C5.776 8.344 5.452 8.62 5.028 8.82C4.604 9.012 4.096 9.108 3.504 9.108ZM10.9753 9.108C10.6153 9.108 10.2633 9.068 9.91931 8.988C9.57531 8.908 9.25131 8.792 8.94731 8.64C8.65131 8.488 8.38731 8.308 8.15531 8.1L8.52731 7.32C8.91131 7.632 9.29931 7.864 9.69131 8.016C10.0913 8.16 10.5153 8.232 10.9633 8.232C11.5553 8.232 12.0153 8.068 12.3433 7.74C12.6793 7.412 12.8473 6.98 12.8473 6.444C12.8473 5.892 12.6873 5.44 12.3673 5.088C12.0473 4.736 11.6073 4.56 11.0473 4.56C10.6393 4.56 10.2793 4.644 9.96731 4.812C9.66331 4.972 9.38731 5.224 9.13931 5.568H8.41931V0.539999H13.3273V1.38H9.39131V4.752H9.12731C9.33531 4.416 9.62331 4.16 9.99131 3.984C10.3593 3.8 10.7713 3.708 11.2273 3.708C11.7633 3.708 12.2233 3.82 12.6073 4.044C12.9993 4.268 13.2993 4.584 13.5073 4.992C13.7233 5.392 13.8313 5.86 13.8313 6.396C13.8313 6.924 13.7153 7.392 13.4833 7.8C13.2513 8.208 12.9233 8.528 12.4993 8.76C12.0753 8.992 11.5673 9.108 10.9753 9.108ZM17.9906 9.108C17.3506 9.108 16.8066 8.944 16.3586 8.616C15.9186 8.28 15.5866 7.788 15.3626 7.14C15.1386 6.492 15.0266 5.7 15.0266 4.764C15.0266 3.82 15.1386 3.028 15.3626 2.388C15.5866 1.74 15.9186 1.252 16.3586 0.924C16.8066 0.595999 17.3506 0.431999 17.9906 0.431999C18.6386 0.431999 19.1826 0.595999 19.6226 0.924C20.0626 1.252 20.3946 1.736 20.6186 2.376C20.8426 3.016 20.9546 3.808 20.9546 4.752C20.9546 5.696 20.8426 6.492 20.6186 7.14C20.3946 7.788 20.0626 8.28 19.6226 8.616C19.1826 8.944 18.6386 9.108 17.9906 9.108ZM17.9906 8.256C18.6626 8.256 19.1586 7.972 19.4786 7.404C19.8066 6.836 19.9706 5.952 19.9706 4.752C19.9706 3.552 19.8106 2.676 19.4906 2.124C19.1706 1.564 18.6706 1.284 17.9906 1.284C17.3266 1.284 16.8306 1.564 16.5026 2.124C16.1746 2.684 16.0106 3.56 16.0106 4.752C16.0106 5.952 16.1706 6.836 16.4906 7.404C16.8186 7.972 17.3186 8.256 17.9906 8.256ZM22.5219 9V3.168H23.4699V4.464H23.3379C23.4339 4.168 23.5739 3.916 23.7579 3.708C23.9499 3.492 24.1739 3.332 24.4299 3.228C24.6939 3.116 24.9819 3.06 25.2939 3.06C25.7899 3.06 26.1899 3.18 26.4939 3.42C26.8059 3.652 27.0139 4.016 27.1179 4.512H26.9379C27.0819 4.064 27.3379 3.712 27.7059 3.456C28.0819 3.192 28.5179 3.06 29.0139 3.06C29.4539 3.06 29.8139 3.144 30.0939 3.312C30.3819 3.48 30.5979 3.736 30.7419 4.08C30.8859 4.416 30.9579 4.844 30.9579 5.364V9H29.9859V5.412C29.9859 4.876 29.8939 4.484 29.7099 4.236C29.5259 3.98 29.2139 3.852 28.7739 3.852C28.4619 3.852 28.1859 3.928 27.9459 4.08C27.7139 4.232 27.5339 4.448 27.4059 4.728C27.2859 5 27.2259 5.324 27.2259 5.7V9H26.2539V5.412C26.2539 4.876 26.1579 4.484 25.9659 4.236C25.7819 3.98 25.4739 3.852 25.0419 3.852C24.7219 3.852 24.4459 3.928 24.2139 4.08C23.9819 4.232 23.8019 4.448 23.6739 4.728C23.5539 5 23.4939 5.324 23.4939 5.7V9H22.5219ZM34.5633 9.108C33.9713 9.108 33.5233 8.932 33.2193 8.58C32.9233 8.228 32.7753 7.724 32.7753 7.068V0.539999H33.7473V6.996C33.7473 7.276 33.7833 7.512 33.8553 7.704C33.9353 7.896 34.0513 8.04 34.2033 8.136C34.3553 8.232 34.5433 8.28 34.7673 8.28C34.8633 8.28 34.9553 8.276 35.0433 8.268C35.1393 8.252 35.2273 8.232 35.3073 8.208L35.2833 9.024C35.1553 9.048 35.0313 9.068 34.9113 9.084C34.7993 9.1 34.6833 9.108 34.5633 9.108ZM43.4041 9.108C42.5001 9.108 41.7361 8.936 41.1121 8.592C40.4961 8.248 40.0281 7.752 39.7081 7.104C39.3881 6.456 39.2281 5.68 39.2281 4.776C39.2281 3.88 39.3881 3.108 39.7081 2.46C40.0281 1.812 40.4881 1.312 41.0881 0.96C41.6881 0.608 42.4121 0.431999 43.2601 0.431999C43.6601 0.431999 44.0361 0.471999 44.3881 0.551999C44.7481 0.632 45.0801 0.752 45.3841 0.912C45.6961 1.064 45.9681 1.256 46.2001 1.488L45.8161 2.28C45.4321 1.944 45.0361 1.7 44.6281 1.548C44.2201 1.396 43.7601 1.32 43.2481 1.32C42.2801 1.32 41.5401 1.62 41.0281 2.22C40.5241 2.82 40.2721 3.672 40.2721 4.776C40.2721 5.896 40.5321 6.752 41.0521 7.344C41.5801 7.936 42.3721 8.232 43.4281 8.232C43.8121 8.232 44.1881 8.196 44.5561 8.124C44.9241 8.044 45.2721 7.936 45.6001 7.8L45.3841 8.364V5.376H43.2361V4.596H46.2361V8.508C46.0201 8.62 45.7521 8.724 45.4321 8.82C45.1121 8.908 44.7761 8.976 44.4241 9.024C44.0721 9.08 43.7321 9.108 43.4041 9.108ZM49.9031 9.108C49.3111 9.108 48.8631 8.932 48.5591 8.58C48.2631 8.228 48.1151 7.724 48.1151 7.068V0.539999H49.0871V6.996C49.0871 7.276 49.1231 7.512 49.1951 7.704C49.2751 7.896 49.3911 8.04 49.5431 8.136C49.6951 8.232 49.8831 8.28 50.1071 8.28C50.2031 8.28 50.2951 8.276 50.3831 8.268C50.4791 8.252 50.5671 8.232 50.6471 8.208L50.6231 9.024C50.4951 9.048 50.3711 9.068 50.2511 9.084C50.1391 9.1 50.0231 9.108 49.9031 9.108ZM53.5019 9.108C53.1019 9.108 52.7419 9.032 52.4219 8.88C52.1099 8.72 51.8619 8.504 51.6779 8.232C51.4939 7.96 51.4019 7.656 51.4019 7.32C51.4019 6.888 51.5099 6.548 51.7259 6.3C51.9499 6.052 52.3139 5.876 52.8179 5.772C53.3299 5.668 54.0259 5.616 54.9059 5.616H55.4459V6.252H54.9179C54.4299 6.252 54.0219 6.268 53.6939 6.3C53.3659 6.332 53.1059 6.388 52.9139 6.468C52.7219 6.548 52.5859 6.652 52.5059 6.78C52.4259 6.908 52.3859 7.068 52.3859 7.26C52.3859 7.588 52.4979 7.856 52.7219 8.064C52.9539 8.272 53.2659 8.376 53.6579 8.376C53.9779 8.376 54.2579 8.3 54.4979 8.148C54.7459 7.996 54.9379 7.788 55.0739 7.524C55.2179 7.26 55.2899 6.956 55.2899 6.612V5.244C55.2899 4.748 55.1899 4.392 54.9899 4.176C54.7899 3.952 54.4619 3.84 54.0059 3.84C53.6539 3.84 53.3139 3.892 52.9859 3.996C52.6579 4.092 52.3219 4.252 51.9779 4.476L51.6419 3.768C51.8499 3.624 52.0859 3.5 52.3499 3.396C52.6139 3.284 52.8899 3.2 53.1779 3.144C53.4659 3.088 53.7419 3.06 54.0059 3.06C54.5099 3.06 54.9259 3.144 55.2539 3.312C55.5819 3.472 55.8259 3.72 55.9859 4.056C56.1459 4.384 56.2259 4.808 56.2259 5.328V9H55.3139V7.644H55.4219C55.3579 7.948 55.2339 8.208 55.0499 8.424C54.8739 8.64 54.6539 8.808 54.3899 8.928C54.1259 9.048 53.8299 9.108 53.5019 9.108ZM59.9972 9.108C59.6932 9.108 59.3972 9.076 59.1092 9.012C58.8292 8.956 58.5652 8.876 58.3172 8.772C58.0772 8.66 57.8692 8.528 57.6932 8.376L58.0052 7.692C58.1972 7.844 58.4052 7.972 58.6292 8.076C58.8532 8.172 59.0812 8.244 59.3132 8.292C59.5452 8.34 59.7812 8.364 60.0212 8.364C60.4772 8.364 60.8212 8.28 61.0532 8.112C61.2852 7.944 61.4012 7.716 61.4012 7.428C61.4012 7.204 61.3252 7.028 61.1732 6.9C61.0212 6.764 60.7812 6.66 60.4532 6.588L59.3612 6.348C58.8572 6.244 58.4812 6.064 58.2332 5.808C57.9932 5.552 57.8732 5.22 57.8732 4.812C57.8732 4.452 57.9652 4.144 58.1492 3.888C58.3412 3.624 58.6092 3.42 58.9532 3.276C59.2972 3.132 59.6972 3.06 60.1532 3.06C60.4252 3.06 60.6852 3.088 60.9332 3.144C61.1812 3.2 61.4132 3.284 61.6292 3.396C61.8532 3.5 62.0452 3.632 62.2052 3.792L61.8812 4.476C61.7292 4.332 61.5572 4.212 61.3652 4.116C61.1732 4.012 60.9732 3.936 60.7652 3.888C60.5652 3.832 60.3612 3.804 60.1532 3.804C59.7052 3.804 59.3652 3.892 59.1332 4.068C58.9012 4.244 58.7852 4.476 58.7852 4.764C58.7852 4.988 58.8572 5.172 59.0012 5.316C59.1452 5.46 59.3692 5.564 59.6732 5.628L60.7652 5.856C61.2852 5.968 61.6732 6.148 61.9292 6.396C62.1932 6.636 62.3252 6.964 62.3252 7.38C62.3252 7.732 62.2292 8.04 62.0372 8.304C61.8452 8.56 61.5732 8.76 61.2212 8.904C60.8772 9.04 60.4692 9.108 59.9972 9.108ZM65.7745 9.108C65.4705 9.108 65.1745 9.076 64.8865 9.012C64.6065 8.956 64.3425 8.876 64.0945 8.772C63.8545 8.66 63.6465 8.528 63.4705 8.376L63.7825 7.692C63.9745 7.844 64.1825 7.972 64.4065 8.076C64.6305 8.172 64.8585 8.244 65.0905 8.292C65.3225 8.34 65.5585 8.364 65.7985 8.364C66.2545 8.364 66.5985 8.28 66.8305 8.112C67.0625 7.944 67.1785 7.716 67.1785 7.428C67.1785 7.204 67.1025 7.028 66.9505 6.9C66.7985 6.764 66.5585 6.66 66.2305 6.588L65.1385 6.348C64.6345 6.244 64.2585 6.064 64.0105 5.808C63.7705 5.552 63.6505 5.22 63.6505 4.812C63.6505 4.452 63.7425 4.144 63.9265 3.888C64.1185 3.624 64.3865 3.42 64.7305 3.276C65.0745 3.132 65.4745 3.06 65.9305 3.06C66.2025 3.06 66.4625 3.088 66.7105 3.144C66.9585 3.2 67.1905 3.284 67.4065 3.396C67.6305 3.5 67.8225 3.632 67.9825 3.792L67.6585 4.476C67.5065 4.332 67.3345 4.212 67.1425 4.116C66.9505 4.012 66.7505 3.936 66.5425 3.888C66.3425 3.832 66.1385 3.804 65.9305 3.804C65.4825 3.804 65.1425 3.892 64.9105 4.068C64.6785 4.244 64.5625 4.476 64.5625 4.764C64.5625 4.988 64.6345 5.172 64.7785 5.316C64.9225 5.46 65.1465 5.564 65.4505 5.628L66.5425 5.856C67.0625 5.968 67.4505 6.148 67.7065 6.396C67.9705 6.636 68.1025 6.964 68.1025 7.38C68.1025 7.732 68.0065 8.04 67.8145 8.304C67.6225 8.56 67.3505 8.76 66.9985 8.904C66.6545 9.04 66.2465 9.108 65.7745 9.108ZM69.8733 10.368L69.4173 10.02C69.5613 9.868 69.6693 9.724 69.7413 9.588C69.8213 9.46 69.8733 9.328 69.8973 9.192C69.9293 9.064 69.9453 8.932 69.9453 8.796L70.1613 9H69.3693V7.776H70.5933V8.64C70.5933 8.856 70.5693 9.06 70.5213 9.252C70.4813 9.452 70.4093 9.644 70.3053 9.828C70.2013 10.012 70.0573 10.192 69.8733 10.368ZM75.4698 9V0.539999H80.7018V1.368H76.4538V4.32H80.4618V5.148H76.4538V9H75.4698ZM81.792 1.716V0.624H82.992V1.716H81.792ZM81.912 9V3.168H82.884V9H81.912ZM84.7011 9V3.168H85.6491V4.548H85.5291C85.6651 4.076 85.9011 3.72 86.2371 3.48C86.5731 3.232 87.0171 3.088 87.5691 3.048L87.9171 3.012L87.9891 3.852L87.3771 3.924C86.8331 3.972 86.4131 4.148 86.1171 4.452C85.8291 4.748 85.6851 5.156 85.6851 5.676V9H84.7011ZM90.9113 9.108C90.6073 9.108 90.3113 9.076 90.0233 9.012C89.7433 8.956 89.4793 8.876 89.2313 8.772C88.9913 8.66 88.7833 8.528 88.6073 8.376L88.9193 7.692C89.1113 7.844 89.3193 7.972 89.5433 8.076C89.7673 8.172 89.9953 8.244 90.2273 8.292C90.4593 8.34 90.6953 8.364 90.9353 8.364C91.3913 8.364 91.7353 8.28 91.9673 8.112C92.1993 7.944 92.3153 7.716 92.3153 7.428C92.3153 7.204 92.2393 7.028 92.0873 6.9C91.9353 6.764 91.6953 6.66 91.3673 6.588L90.2753 6.348C89.7713 6.244 89.3953 6.064 89.1473 5.808C88.9073 5.552 88.7873 5.22 88.7873 4.812C88.7873 4.452 88.8793 4.144 89.0633 3.888C89.2553 3.624 89.5233 3.42 89.8673 3.276C90.2113 3.132 90.6113 3.06 91.0673 3.06C91.3393 3.06 91.5993 3.088 91.8473 3.144C92.0953 3.2 92.3273 3.284 92.5433 3.396C92.7673 3.5 92.9593 3.632 93.1193 3.792L92.7953 4.476C92.6433 4.332 92.4713 4.212 92.2793 4.116C92.0873 4.012 91.8873 3.936 91.6793 3.888C91.4793 3.832 91.2753 3.804 91.0673 3.804C90.6193 3.804 90.2793 3.892 90.0473 4.068C89.8153 4.244 89.6993 4.476 89.6993 4.764C89.6993 4.988 89.7713 5.172 89.9153 5.316C90.0593 5.46 90.2833 5.564 90.5873 5.628L91.6793 5.856C92.1993 5.968 92.5873 6.148 92.8433 6.396C93.1073 6.636 93.2393 6.964 93.2393 7.38C93.2393 7.732 93.1433 8.04 92.9513 8.304C92.7593 8.56 92.4873 8.76 92.1353 8.904C91.7913 9.04 91.3833 9.108 90.9113 9.108ZM97.002 9.108C96.314 9.108 95.798 8.924 95.454 8.556C95.11 8.188 94.938 7.664 94.938 6.984V3.924H93.798V3.168H94.938V1.38H95.91V3.168H97.758V3.924H95.91V6.888C95.91 7.344 96.006 7.692 96.198 7.932C96.39 8.164 96.702 8.28 97.134 8.28C97.262 8.28 97.39 8.264 97.518 8.232C97.646 8.2 97.762 8.168 97.866 8.136L98.034 8.88C97.93 8.936 97.778 8.988 97.578 9.036C97.378 9.084 97.186 9.108 97.002 9.108ZM105.407 9.108C104.303 9.108 103.459 8.816 102.875 8.232C102.299 7.64 102.011 6.78 102.011 5.652V0.539999H102.995V5.604C102.995 6.484 103.199 7.144 103.607 7.584C104.015 8.016 104.615 8.232 105.407 8.232C106.199 8.232 106.795 8.016 107.195 7.584C107.595 7.144 107.795 6.484 107.795 5.604V0.539999H108.779V5.652C108.779 6.78 108.491 7.64 107.915 8.232C107.347 8.816 106.511 9.108 105.407 9.108ZM110.67 9V3.168H111.618V4.464H111.486C111.654 4 111.926 3.652 112.302 3.42C112.686 3.18 113.126 3.06 113.622 3.06C114.086 3.06 114.47 3.144 114.774 3.312C115.086 3.472 115.318 3.724 115.47 4.068C115.622 4.412 115.698 4.844 115.698 5.364V9H114.726V5.424C114.726 5.064 114.678 4.768 114.582 4.536C114.494 4.304 114.35 4.132 114.15 4.02C113.958 3.908 113.706 3.852 113.394 3.852C113.042 3.852 112.734 3.928 112.47 4.08C112.206 4.232 112.002 4.444 111.858 4.716C111.714 4.988 111.642 5.308 111.642 5.676V9H110.67ZM117.37 1.716V0.624H118.57V1.716H117.37ZM117.49 9V3.168H118.462V9H117.49ZM124.479 11.16V7.632H124.611C124.483 8.08 124.231 8.44 123.855 8.712C123.479 8.976 123.027 9.108 122.499 9.108C121.979 9.108 121.523 8.984 121.131 8.736C120.747 8.488 120.447 8.14 120.231 7.692C120.023 7.236 119.919 6.7 119.919 6.084C119.919 5.46 120.023 4.924 120.231 4.476C120.447 4.02 120.747 3.672 121.131 3.432C121.523 3.184 121.979 3.06 122.499 3.06C123.027 3.06 123.479 3.196 123.855 3.468C124.239 3.732 124.495 4.092 124.623 4.548H124.503V3.168H125.451V11.16H124.479ZM122.703 8.328C123.255 8.328 123.691 8.136 124.011 7.752C124.339 7.36 124.503 6.804 124.503 6.084C124.503 5.356 124.339 4.8 124.011 4.416C123.691 4.032 123.255 3.84 122.703 3.84C122.159 3.84 121.723 4.032 121.395 4.416C121.067 4.8 120.903 5.356 120.903 6.084C120.903 6.804 121.067 7.36 121.395 7.752C121.723 8.136 122.159 8.328 122.703 8.328ZM129.339 9.108C128.867 9.108 128.475 9.024 128.163 8.856C127.859 8.68 127.627 8.42 127.467 8.076C127.315 7.732 127.239 7.304 127.239 6.792V3.168H128.211V6.78C128.211 7.124 128.255 7.412 128.343 7.644C128.439 7.868 128.587 8.036 128.787 8.148C128.987 8.252 129.235 8.304 129.531 8.304C129.867 8.304 130.159 8.228 130.407 8.076C130.655 7.924 130.851 7.712 130.995 7.44C131.139 7.168 131.211 6.848 131.211 6.48V3.168H132.183V9H131.235V7.656H131.391C131.231 8.128 130.967 8.488 130.599 8.736C130.239 8.984 129.819 9.108 129.339 9.108ZM136.63 9.108C136.014 9.108 135.482 8.988 135.034 8.748C134.594 8.5 134.25 8.152 134.002 7.704C133.762 7.256 133.642 6.72 133.642 6.096C133.642 5.488 133.762 4.96 134.002 4.512C134.242 4.056 134.57 3.7 134.986 3.444C135.41 3.188 135.898 3.06 136.45 3.06C136.978 3.06 137.43 3.176 137.806 3.408C138.182 3.64 138.47 3.968 138.67 4.392C138.878 4.816 138.982 5.324 138.982 5.916V6.288H134.386V5.652H138.334L138.142 5.808C138.142 5.168 137.998 4.672 137.71 4.32C137.43 3.96 137.018 3.78 136.474 3.78C136.066 3.78 135.718 3.876 135.43 4.068C135.15 4.252 134.938 4.512 134.794 4.848C134.65 5.176 134.578 5.56 134.578 6V6.072C134.578 6.56 134.654 6.972 134.806 7.308C134.966 7.644 135.202 7.9 135.514 8.076C135.826 8.244 136.198 8.328 136.63 8.328C136.974 8.328 137.306 8.276 137.626 8.172C137.954 8.06 138.262 7.88 138.55 7.632L138.886 8.316C138.622 8.556 138.286 8.748 137.878 8.892C137.47 9.036 137.054 9.108 136.63 9.108ZM146.339 9.108C145.899 9.108 145.483 9.068 145.091 8.988C144.707 8.908 144.351 8.796 144.023 8.652C143.703 8.5 143.411 8.316 143.147 8.1L143.495 7.308C143.767 7.508 144.043 7.68 144.323 7.824C144.611 7.96 144.919 8.064 145.247 8.136C145.583 8.2 145.947 8.232 146.339 8.232C147.059 8.232 147.591 8.1 147.935 7.836C148.287 7.564 148.463 7.208 148.463 6.768C148.463 6.536 148.407 6.336 148.295 6.168C148.191 6 148.015 5.856 147.767 5.736C147.527 5.616 147.211 5.516 146.819 5.436L145.571 5.184C144.819 5.024 144.255 4.764 143.879 4.404C143.511 4.036 143.327 3.548 143.327 2.94C143.327 2.436 143.455 1.996 143.711 1.62C143.975 1.244 144.339 0.951999 144.803 0.744C145.275 0.536 145.811 0.431999 146.411 0.431999C146.795 0.431999 147.159 0.471999 147.503 0.551999C147.847 0.632 148.163 0.752 148.451 0.912C148.747 1.064 149.007 1.252 149.231 1.476L148.883 2.244C148.523 1.916 148.143 1.68 147.743 1.536C147.343 1.384 146.895 1.308 146.399 1.308C145.975 1.308 145.607 1.372 145.295 1.5C144.991 1.628 144.751 1.816 144.575 2.064C144.407 2.304 144.323 2.584 144.323 2.904C144.323 3.288 144.439 3.592 144.671 3.816C144.911 4.04 145.299 4.204 145.835 4.308L147.083 4.572C147.891 4.74 148.487 4.996 148.871 5.34C149.263 5.676 149.459 6.136 149.459 6.72C149.459 7.184 149.331 7.6 149.075 7.968C148.827 8.328 148.467 8.608 147.995 8.808C147.531 9.008 146.979 9.108 146.339 9.108ZM150.853 9V0.539999H151.825V4.464H151.669C151.837 4 152.109 3.652 152.485 3.42C152.869 3.18 153.309 3.06 153.805 3.06C154.269 3.06 154.653 3.144 154.957 3.312C155.269 3.48 155.501 3.736 155.653 4.08C155.805 4.416 155.881 4.844 155.881 5.364V9H154.909V5.424C154.909 5.064 154.861 4.768 154.765 4.536C154.677 4.304 154.533 4.132 154.333 4.02C154.141 3.908 153.889 3.852 153.577 3.852C153.225 3.852 152.917 3.928 152.653 4.08C152.389 4.232 152.185 4.444 152.041 4.716C151.897 4.988 151.825 5.308 151.825 5.676V9H150.853ZM159.51 9.108C159.11 9.108 158.75 9.032 158.43 8.88C158.118 8.72 157.87 8.504 157.686 8.232C157.502 7.96 157.41 7.656 157.41 7.32C157.41 6.888 157.518 6.548 157.734 6.3C157.958 6.052 158.322 5.876 158.826 5.772C159.338 5.668 160.034 5.616 160.914 5.616H161.454V6.252H160.926C160.438 6.252 160.03 6.268 159.702 6.3C159.374 6.332 159.114 6.388 158.922 6.468C158.73 6.548 158.594 6.652 158.514 6.78C158.434 6.908 158.394 7.068 158.394 7.26C158.394 7.588 158.506 7.856 158.73 8.064C158.962 8.272 159.274 8.376 159.666 8.376C159.986 8.376 160.266 8.3 160.506 8.148C160.754 7.996 160.946 7.788 161.082 7.524C161.226 7.26 161.298 6.956 161.298 6.612V5.244C161.298 4.748 161.198 4.392 160.998 4.176C160.798 3.952 160.47 3.84 160.014 3.84C159.662 3.84 159.322 3.892 158.994 3.996C158.666 4.092 158.33 4.252 157.986 4.476L157.65 3.768C157.858 3.624 158.094 3.5 158.358 3.396C158.622 3.284 158.898 3.2 159.186 3.144C159.474 3.088 159.75 3.06 160.014 3.06C160.518 3.06 160.934 3.144 161.262 3.312C161.59 3.472 161.834 3.72 161.994 4.056C162.154 4.384 162.234 4.808 162.234 5.328V9H161.322V7.644H161.43C161.366 7.948 161.242 8.208 161.058 8.424C160.882 8.64 160.662 8.808 160.398 8.928C160.134 9.048 159.838 9.108 159.51 9.108ZM164.037 11.16V3.168H164.985V4.548H164.865C164.993 4.092 165.245 3.732 165.621 3.468C166.005 3.196 166.461 3.06 166.989 3.06C167.509 3.06 167.961 3.184 168.345 3.432C168.737 3.672 169.037 4.02 169.245 4.476C169.461 4.924 169.569 5.46 169.569 6.084C169.569 6.7 169.461 7.236 169.245 7.692C169.037 8.14 168.741 8.488 168.357 8.736C167.973 8.984 167.517 9.108 166.989 9.108C166.461 9.108 166.009 8.976 165.633 8.712C165.257 8.44 165.001 8.08 164.865 7.632H165.009V11.16H164.037ZM166.785 8.328C167.337 8.328 167.773 8.136 168.093 7.752C168.421 7.36 168.585 6.804 168.585 6.084C168.585 5.356 168.421 4.8 168.093 4.416C167.773 4.032 167.337 3.84 166.785 3.84C166.241 3.84 165.805 4.032 165.477 4.416C165.149 4.8 164.985 5.356 164.985 6.084C164.985 6.804 165.149 7.36 165.477 7.752C165.805 8.136 166.241 8.328 166.785 8.328ZM173.661 9.108C173.045 9.108 172.513 8.988 172.065 8.748C171.625 8.5 171.281 8.152 171.033 7.704C170.793 7.256 170.673 6.72 170.673 6.096C170.673 5.488 170.793 4.96 171.033 4.512C171.273 4.056 171.601 3.7 172.017 3.444C172.441 3.188 172.929 3.06 173.481 3.06C174.009 3.06 174.461 3.176 174.837 3.408C175.213 3.64 175.501 3.968 175.701 4.392C175.909 4.816 176.013 5.324 176.013 5.916V6.288H171.417V5.652H175.365L175.173 5.808C175.173 5.168 175.029 4.672 174.741 4.32C174.461 3.96 174.049 3.78 173.505 3.78C173.097 3.78 172.749 3.876 172.461 4.068C172.181 4.252 171.969 4.512 171.825 4.848C171.681 5.176 171.609 5.56 171.609 6V6.072C171.609 6.56 171.685 6.972 171.837 7.308C171.997 7.644 172.233 7.9 172.545 8.076C172.857 8.244 173.229 8.328 173.661 8.328C174.005 8.328 174.337 8.276 174.657 8.172C174.985 8.06 175.293 7.88 175.581 7.632L175.917 8.316C175.653 8.556 175.317 8.748 174.909 8.892C174.501 9.036 174.085 9.108 173.661 9.108ZM180.634 9V0.539999H181.618V9H180.634ZM183.572 9V3.168H184.52V4.464H184.388C184.556 4 184.828 3.652 185.204 3.42C185.588 3.18 186.028 3.06 186.524 3.06C186.988 3.06 187.372 3.144 187.676 3.312C187.988 3.472 188.22 3.724 188.372 4.068C188.524 4.412 188.6 4.844 188.6 5.364V9H187.628V5.424C187.628 5.064 187.58 4.768 187.484 4.536C187.396 4.304 187.252 4.132 187.052 4.02C186.86 3.908 186.608 3.852 186.296 3.852C185.944 3.852 185.636 3.928 185.372 4.08C185.108 4.232 184.904 4.444 184.76 4.716C184.616 4.988 184.544 5.308 184.544 5.676V9H183.572ZM193.607 9V0.539999H194.591V9H193.607ZM196.545 9V3.168H197.493V4.464H197.361C197.529 4 197.801 3.652 198.177 3.42C198.561 3.18 199.001 3.06 199.497 3.06C199.961 3.06 200.345 3.144 200.649 3.312C200.961 3.472 201.193 3.724 201.345 4.068C201.497 4.412 201.573 4.844 201.573 5.364V9H200.601V5.424C200.601 5.064 200.553 4.768 200.457 4.536C200.369 4.304 200.225 4.132 200.025 4.02C199.833 3.908 199.581 3.852 199.269 3.852C198.917 3.852 198.609 3.928 198.345 4.08C198.081 4.232 197.877 4.444 197.733 4.716C197.589 4.988 197.517 5.308 197.517 5.676V9H196.545ZM205.585 9.108C205.065 9.108 204.609 8.984 204.217 8.736C203.833 8.488 203.533 8.14 203.317 7.692C203.109 7.236 203.005 6.7 203.005 6.084C203.005 5.46 203.109 4.924 203.317 4.476C203.533 4.02 203.833 3.672 204.217 3.432C204.609 3.184 205.065 3.06 205.585 3.06C206.113 3.06 206.565 3.192 206.941 3.456C207.317 3.72 207.569 4.076 207.697 4.524H207.565V0.539999H208.537V9H207.589V7.608H207.709C207.581 8.064 207.325 8.428 206.941 8.7C206.565 8.972 206.113 9.108 205.585 9.108ZM205.789 8.328C206.341 8.328 206.777 8.136 207.097 7.752C207.425 7.36 207.589 6.804 207.589 6.084C207.589 5.356 207.425 4.8 207.097 4.416C206.777 4.032 206.341 3.84 205.789 3.84C205.245 3.84 204.809 4.032 204.481 4.416C204.153 4.8 203.989 5.356 203.989 6.084C203.989 6.804 204.153 7.36 204.481 7.752C204.809 8.136 205.245 8.328 205.789 8.328ZM210.241 1.716V0.624H211.441V1.716H210.241ZM210.361 9V3.168H211.333V9H210.361ZM214.986 9.108C214.586 9.108 214.226 9.032 213.906 8.88C213.594 8.72 213.346 8.504 213.162 8.232C212.978 7.96 212.886 7.656 212.886 7.32C212.886 6.888 212.994 6.548 213.21 6.3C213.434 6.052 213.798 5.876 214.302 5.772C214.814 5.668 215.51 5.616 216.39 5.616H216.93V6.252H216.402C215.914 6.252 215.506 6.268 215.178 6.3C214.85 6.332 214.59 6.388 214.398 6.468C214.206 6.548 214.07 6.652 213.99 6.78C213.91 6.908 213.87 7.068 213.87 7.26C213.87 7.588 213.982 7.856 214.206 8.064C214.438 8.272 214.75 8.376 215.142 8.376C215.462 8.376 215.742 8.3 215.982 8.148C216.23 7.996 216.422 7.788 216.558 7.524C216.702 7.26 216.774 6.956 216.774 6.612V5.244C216.774 4.748 216.674 4.392 216.474 4.176C216.274 3.952 215.946 3.84 215.49 3.84C215.138 3.84 214.798 3.892 214.47 3.996C214.142 4.092 213.806 4.252 213.462 4.476L213.126 3.768C213.334 3.624 213.57 3.5 213.834 3.396C214.098 3.284 214.374 3.2 214.662 3.144C214.95 3.088 215.226 3.06 215.49 3.06C215.994 3.06 216.41 3.144 216.738 3.312C217.066 3.472 217.31 3.72 217.47 4.056C217.63 4.384 217.71 4.808 217.71 5.328V9H216.798V7.644H216.906C216.842 7.948 216.718 8.208 216.534 8.424C216.358 8.64 216.138 8.808 215.874 8.928C215.61 9.048 215.314 9.108 214.986 9.108ZM225.464 9.108C225.024 9.108 224.608 9.068 224.216 8.988C223.832 8.908 223.476 8.796 223.148 8.652C222.828 8.5 222.536 8.316 222.272 8.1L222.62 7.308C222.892 7.508 223.168 7.68 223.448 7.824C223.736 7.96 224.044 8.064 224.372 8.136C224.708 8.2 225.072 8.232 225.464 8.232C226.184 8.232 226.716 8.1 227.06 7.836C227.412 7.564 227.588 7.208 227.588 6.768C227.588 6.536 227.532 6.336 227.42 6.168C227.316 6 227.14 5.856 226.892 5.736C226.652 5.616 226.336 5.516 225.944 5.436L224.696 5.184C223.944 5.024 223.38 4.764 223.004 4.404C222.636 4.036 222.452 3.548 222.452 2.94C222.452 2.436 222.58 1.996 222.836 1.62C223.1 1.244 223.464 0.951999 223.928 0.744C224.4 0.536 224.936 0.431999 225.536 0.431999C225.92 0.431999 226.284 0.471999 226.628 0.551999C226.972 0.632 227.288 0.752 227.576 0.912C227.872 1.064 228.132 1.252 228.356 1.476L228.008 2.244C227.648 1.916 227.268 1.68 226.868 1.536C226.468 1.384 226.02 1.308 225.524 1.308C225.1 1.308 224.732 1.372 224.42 1.5C224.116 1.628 223.876 1.816 223.7 2.064C223.532 2.304 223.448 2.584 223.448 2.904C223.448 3.288 223.564 3.592 223.796 3.816C224.036 4.04 224.424 4.204 224.96 4.308L226.208 4.572C227.016 4.74 227.612 4.996 227.996 5.34C228.388 5.676 228.584 6.136 228.584 6.72C228.584 7.184 228.456 7.6 228.2 7.968C227.952 8.328 227.592 8.608 227.12 8.808C226.656 9.008 226.104 9.108 225.464 9.108ZM229.858 1.716V0.624H231.058V1.716H229.858ZM229.978 9V3.168H230.95V9H229.978ZM232.767 9V3.168H233.715V4.464H233.583C233.751 4 234.023 3.652 234.399 3.42C234.783 3.18 235.223 3.06 235.719 3.06C236.183 3.06 236.567 3.144 236.871 3.312C237.183 3.472 237.415 3.724 237.567 4.068C237.719 4.412 237.795 4.844 237.795 5.364V9H236.823V5.424C236.823 5.064 236.775 4.768 236.679 4.536C236.591 4.304 236.447 4.132 236.247 4.02C236.055 3.908 235.803 3.852 235.491 3.852C235.139 3.852 234.831 3.928 234.567 4.08C234.303 4.232 234.099 4.444 233.955 4.716C233.811 4.988 233.739 5.308 233.739 5.676V9H232.767ZM242.06 9.108C241.476 9.108 240.972 8.98 240.548 8.724C240.124 8.468 239.796 8.112 239.564 7.656C239.34 7.192 239.228 6.656 239.228 6.048C239.228 5.432 239.34 4.9 239.564 4.452C239.796 4.004 240.124 3.66 240.548 3.42C240.972 3.18 241.476 3.06 242.06 3.06C242.42 3.06 242.776 3.124 243.128 3.252C243.48 3.38 243.772 3.56 244.004 3.792L243.668 4.5C243.436 4.276 243.18 4.112 242.9 4.008C242.628 3.904 242.368 3.852 242.12 3.852C241.512 3.852 241.044 4.044 240.716 4.428C240.388 4.804 240.224 5.348 240.224 6.06C240.224 6.756 240.388 7.308 240.716 7.716C241.044 8.116 241.512 8.316 242.12 8.316C242.368 8.316 242.628 8.264 242.9 8.16C243.18 8.056 243.436 7.888 243.668 7.656L244.004 8.364C243.772 8.596 243.476 8.78 243.116 8.916C242.764 9.044 242.412 9.108 242.06 9.108ZM247.653 9.108C247.037 9.108 246.505 8.988 246.057 8.748C245.617 8.5 245.273 8.152 245.025 7.704C244.785 7.256 244.665 6.72 244.665 6.096C244.665 5.488 244.785 4.96 245.025 4.512C245.265 4.056 245.593 3.7 246.009 3.444C246.433 3.188 246.921 3.06 247.473 3.06C248.001 3.06 248.453 3.176 248.829 3.408C249.205 3.64 249.493 3.968 249.693 4.392C249.901 4.816 250.005 5.324 250.005 5.916V6.288H245.409V5.652H249.357L249.165 5.808C249.165 5.168 249.021 4.672 248.733 4.32C248.453 3.96 248.041 3.78 247.497 3.78C247.089 3.78 246.741 3.876 246.453 4.068C246.173 4.252 245.961 4.512 245.817 4.848C245.673 5.176 245.601 5.56 245.601 6V6.072C245.601 6.56 245.677 6.972 245.829 7.308C245.989 7.644 246.225 7.9 246.537 8.076C246.849 8.244 247.221 8.328 247.653 8.328C247.997 8.328 248.329 8.276 248.649 8.172C248.977 8.06 249.285 7.88 249.573 7.632L249.909 8.316C249.645 8.556 249.309 8.748 248.901 8.892C248.493 9.036 248.077 9.108 247.653 9.108ZM254.662 9V8.256L257.554 5.136C257.826 4.84 258.046 4.564 258.214 4.308C258.382 4.044 258.506 3.788 258.586 3.54C258.666 3.292 258.706 3.04 258.706 2.784C258.706 2.304 258.558 1.94 258.262 1.692C257.974 1.436 257.55 1.308 256.99 1.308C256.558 1.308 256.154 1.388 255.778 1.548C255.41 1.7 255.058 1.94 254.722 2.268L254.35 1.5C254.662 1.18 255.058 0.924 255.538 0.732C256.026 0.532 256.538 0.431999 257.074 0.431999C257.642 0.431999 258.122 0.52 258.514 0.696C258.906 0.872 259.202 1.132 259.402 1.476C259.602 1.812 259.702 2.224 259.702 2.712C259.702 2.968 259.67 3.22 259.606 3.468C259.55 3.708 259.458 3.952 259.33 4.2C259.21 4.44 259.054 4.688 258.862 4.944C258.678 5.2 258.454 5.464 258.19 5.736L255.646 8.436V8.16H260.05V9H254.662ZM264.377 9.108C263.737 9.108 263.193 8.944 262.745 8.616C262.305 8.28 261.973 7.788 261.749 7.14C261.525 6.492 261.413 5.7 261.413 4.764C261.413 3.82 261.525 3.028 261.749 2.388C261.973 1.74 262.305 1.252 262.745 0.924C263.193 0.595999 263.737 0.431999 264.377 0.431999C265.025 0.431999 265.569 0.595999 266.009 0.924C266.449 1.252 266.781 1.736 267.005 2.376C267.229 3.016 267.341 3.808 267.341 4.752C267.341 5.696 267.229 6.492 267.005 7.14C266.781 7.788 266.449 8.28 266.009 8.616C265.569 8.944 265.025 9.108 264.377 9.108ZM264.377 8.256C265.049 8.256 265.545 7.972 265.865 7.404C266.193 6.836 266.357 5.952 266.357 4.752C266.357 3.552 266.197 2.676 265.877 2.124C265.557 1.564 265.057 1.284 264.377 1.284C263.713 1.284 263.217 1.564 262.889 2.124C262.561 2.684 262.397 3.56 262.397 4.752C262.397 5.952 262.557 6.836 262.877 7.404C263.205 7.972 263.705 8.256 264.377 8.256ZM269.053 9V8.256L271.945 5.136C272.217 4.84 272.437 4.564 272.605 4.308C272.773 4.044 272.897 3.788 272.977 3.54C273.057 3.292 273.097 3.04 273.097 2.784C273.097 2.304 272.949 1.94 272.653 1.692C272.365 1.436 271.941 1.308 271.381 1.308C270.949 1.308 270.545 1.388 270.169 1.548C269.801 1.7 269.449 1.94 269.113 2.268L268.741 1.5C269.053 1.18 269.449 0.924 269.929 0.732C270.417 0.532 270.929 0.431999 271.465 0.431999C272.033 0.431999 272.513 0.52 272.905 0.696C273.297 0.872 273.593 1.132 273.793 1.476C273.993 1.812 274.093 2.224 274.093 2.712C274.093 2.968 274.061 3.22 273.997 3.468C273.941 3.708 273.849 3.952 273.721 4.2C273.601 4.44 273.445 4.688 273.253 4.944C273.069 5.2 272.845 5.464 272.581 5.736L270.037 8.436V8.16H274.441V9H269.053ZM276.656 9V8.16H278.588V1.392H279.104L277.064 2.688L276.644 1.956L278.864 0.539999H279.572V8.16H281.384V9H276.656ZM283.623 10.368L283.167 10.02C283.311 9.868 283.419 9.724 283.491 9.588C283.571 9.46 283.623 9.328 283.647 9.192C283.679 9.064 283.695 8.932 283.695 8.796L283.911 9H283.119V7.776H284.343V8.64C284.343 8.856 284.319 9.06 284.271 9.252C284.231 9.452 284.159 9.644 284.055 9.828C283.951 10.012 283.807 10.192 283.623 10.368ZM289.22 9V0.539999H292.568C293.176 0.539999 293.688 0.64 294.104 0.84C294.528 1.032 294.848 1.32 295.064 1.704C295.28 2.08 295.388 2.54 295.388 3.084C295.388 3.612 295.28 4.068 295.064 4.452C294.848 4.836 294.528 5.128 294.104 5.328C293.688 5.528 293.176 5.628 292.568 5.628H290.204V9H289.22ZM290.204 4.8H292.448C293.096 4.8 293.584 4.656 293.912 4.368C294.248 4.072 294.416 3.644 294.416 3.084C294.416 2.516 294.248 2.088 293.912 1.8C293.584 1.504 293.096 1.356 292.448 1.356H290.204V4.8ZM299.052 9.108C298.436 9.108 297.904 8.988 297.456 8.748C297.016 8.5 296.672 8.152 296.424 7.704C296.184 7.256 296.064 6.72 296.064 6.096C296.064 5.488 296.184 4.96 296.424 4.512C296.664 4.056 296.992 3.7 297.408 3.444C297.832 3.188 298.32 3.06 298.872 3.06C299.4 3.06 299.852 3.176 300.228 3.408C300.604 3.64 300.892 3.968 301.092 4.392C301.3 4.816 301.404 5.324 301.404 5.916V6.288H296.808V5.652H300.756L300.564 5.808C300.564 5.168 300.42 4.672 300.132 4.32C299.852 3.96 299.44 3.78 298.896 3.78C298.488 3.78 298.14 3.876 297.852 4.068C297.572 4.252 297.36 4.512 297.216 4.848C297.072 5.176 297 5.56 297 6V6.072C297 6.56 297.076 6.972 297.228 7.308C297.388 7.644 297.624 7.9 297.936 8.076C298.248 8.244 298.62 8.328 299.052 8.328C299.396 8.328 299.728 8.276 300.048 8.172C300.376 8.06 300.684 7.88 300.972 7.632L301.308 8.316C301.044 8.556 300.708 8.748 300.3 8.892C299.892 9.036 299.476 9.108 299.052 9.108ZM302.81 9V3.168H303.758V4.548H303.638C303.774 4.076 304.01 3.72 304.346 3.48C304.682 3.232 305.126 3.088 305.678 3.048L306.026 3.012L306.098 3.852L305.486 3.924C304.942 3.972 304.522 4.148 304.226 4.452C303.938 4.748 303.794 5.156 303.794 5.676V9H302.81ZM307.74 9V3.924H306.588V3.168H308.004L307.74 3.42V2.964C307.74 2.188 307.932 1.6 308.316 1.2C308.708 0.799999 309.308 0.575999 310.116 0.528L310.584 0.504L310.668 1.248L310.116 1.284C309.788 1.308 309.52 1.38 309.312 1.5C309.104 1.62 308.952 1.792 308.856 2.016C308.76 2.24 308.712 2.516 308.712 2.844V3.348L308.568 3.168H310.392V3.924H308.712V9H307.74ZM313.888 9.108C313.272 9.108 312.74 8.988 312.292 8.748C311.852 8.5 311.508 8.152 311.26 7.704C311.02 7.256 310.9 6.72 310.9 6.096C310.9 5.488 311.02 4.96 311.26 4.512C311.5 4.056 311.828 3.7 312.244 3.444C312.668 3.188 313.156 3.06 313.708 3.06C314.236 3.06 314.688 3.176 315.064 3.408C315.44 3.64 315.728 3.968 315.928 4.392C316.136 4.816 316.24 5.324 316.24 5.916V6.288H311.644V5.652H315.592L315.4 5.808C315.4 5.168 315.256 4.672 314.968 4.32C314.688 3.96 314.276 3.78 313.732 3.78C313.324 3.78 312.976 3.876 312.688 4.068C312.408 4.252 312.196 4.512 312.052 4.848C311.908 5.176 311.836 5.56 311.836 6V6.072C311.836 6.56 311.912 6.972 312.064 7.308C312.224 7.644 312.46 7.9 312.772 8.076C313.084 8.244 313.456 8.328 313.888 8.328C314.232 8.328 314.564 8.276 314.884 8.172C315.212 8.06 315.52 7.88 315.808 7.632L316.144 8.316C315.88 8.556 315.544 8.748 315.136 8.892C314.728 9.036 314.312 9.108 313.888 9.108ZM320.118 9.108C319.534 9.108 319.03 8.98 318.606 8.724C318.182 8.468 317.854 8.112 317.622 7.656C317.398 7.192 317.286 6.656 317.286 6.048C317.286 5.432 317.398 4.9 317.622 4.452C317.854 4.004 318.182 3.66 318.606 3.42C319.03 3.18 319.534 3.06 320.118 3.06C320.478 3.06 320.834 3.124 321.186 3.252C321.538 3.38 321.83 3.56 322.062 3.792L321.726 4.5C321.494 4.276 321.238 4.112 320.958 4.008C320.686 3.904 320.426 3.852 320.178 3.852C319.57 3.852 319.102 4.044 318.774 4.428C318.446 4.804 318.282 5.348 318.282 6.06C318.282 6.756 318.446 7.308 318.774 7.716C319.102 8.116 319.57 8.316 320.178 8.316C320.426 8.316 320.686 8.264 320.958 8.16C321.238 8.056 321.494 7.888 321.726 7.656L322.062 8.364C321.83 8.596 321.534 8.78 321.174 8.916C320.822 9.044 320.47 9.108 320.118 9.108ZM325.541 9.108C324.853 9.108 324.337 8.924 323.993 8.556C323.649 8.188 323.477 7.664 323.477 6.984V3.924H322.337V3.168H323.477V1.38H324.449V3.168H326.297V3.924H324.449V6.888C324.449 7.344 324.545 7.692 324.737 7.932C324.929 8.164 325.241 8.28 325.673 8.28C325.801 8.28 325.929 8.264 326.057 8.232C326.185 8.2 326.301 8.168 326.405 8.136L326.573 8.88C326.469 8.936 326.317 8.988 326.117 9.036C325.917 9.084 325.725 9.108 325.541 9.108ZM1.044 25V16.54H6.276V17.368H2.028V20.32H6.036V21.148H2.028V25H1.044ZM9.68756 25.108C9.11956 25.108 8.62756 24.984 8.21156 24.736C7.79556 24.488 7.47156 24.14 7.23956 23.692C7.01556 23.236 6.90356 22.7 6.90356 22.084C6.90356 21.468 7.01556 20.936 7.23956 20.488C7.47156 20.032 7.79556 19.68 8.21156 19.432C8.62756 19.184 9.11956 19.06 9.68756 19.06C10.2556 19.06 10.7476 19.184 11.1636 19.432C11.5796 19.68 11.8996 20.032 12.1236 20.488C12.3556 20.936 12.4716 21.468 12.4716 22.084C12.4716 22.7 12.3556 23.236 12.1236 23.692C11.8996 24.14 11.5796 24.488 11.1636 24.736C10.7476 24.984 10.2556 25.108 9.68756 25.108ZM9.68756 24.328C10.2396 24.328 10.6756 24.136 10.9956 23.752C11.3236 23.36 11.4876 22.8 11.4876 22.072C11.4876 21.352 11.3236 20.8 10.9956 20.416C10.6756 20.032 10.2396 19.84 9.68756 19.84C9.14356 19.84 8.70756 20.032 8.37956 20.416C8.05156 20.8 7.88756 21.352 7.88756 22.072C7.88756 22.8 8.05156 23.36 8.37956 23.752C8.70756 24.136 9.14356 24.328 9.68756 24.328ZM13.9315 25V19.168H14.8795V20.548H14.7595C14.8955 20.076 15.1315 19.72 15.4675 19.48C15.8035 19.232 16.2475 19.088 16.7995 19.048L17.1475 19.012L17.2195 19.852L16.6075 19.924C16.0635 19.972 15.6435 20.148 15.3475 20.452C15.0595 20.748 14.9155 21.156 14.9155 21.676V25H13.9315ZM20.3543 25.084L20.2823 24.256L21.0023 24.208C21.2823 24.184 21.5143 24.116 21.6983 24.004C21.8823 23.884 22.0223 23.716 22.1183 23.5C22.2143 23.284 22.2623 23.032 22.2623 22.744V16.54H23.2463V22.756C23.2463 23.212 23.1663 23.608 23.0063 23.944C22.8463 24.272 22.6103 24.528 22.2983 24.712C21.9863 24.896 21.5983 25.004 21.1343 25.036L20.3543 25.084ZM27.269 25.108C26.797 25.108 26.405 25.024 26.093 24.856C25.789 24.68 25.557 24.42 25.397 24.076C25.245 23.732 25.169 23.304 25.169 22.792V19.168H26.141V22.78C26.141 23.124 26.185 23.412 26.273 23.644C26.369 23.868 26.517 24.036 26.717 24.148C26.917 24.252 27.165 24.304 27.461 24.304C27.797 24.304 28.089 24.228 28.337 24.076C28.585 23.924 28.781 23.712 28.925 23.44C29.069 23.168 29.141 22.848 29.141 22.48V19.168H30.113V25H29.165V23.656H29.321C29.161 24.128 28.897 24.488 28.529 24.736C28.169 24.984 27.749 25.108 27.269 25.108ZM31.8115 17.716V16.624H33.0115V17.716H31.8115ZM31.9315 25V19.168H32.9035V25H31.9315ZM37.1926 25.108C36.6086 25.108 36.1046 24.98 35.6806 24.724C35.2566 24.468 34.9286 24.112 34.6966 23.656C34.4726 23.192 34.3606 22.656 34.3606 22.048C34.3606 21.432 34.4726 20.9 34.6966 20.452C34.9286 20.004 35.2566 19.66 35.6806 19.42C36.1046 19.18 36.6086 19.06 37.1926 19.06C37.5526 19.06 37.9086 19.124 38.2606 19.252C38.6126 19.38 38.9046 19.56 39.1366 19.792L38.8006 20.5C38.5686 20.276 38.3126 20.112 38.0326 20.008C37.7606 19.904 37.5006 19.852 37.2526 19.852C36.6446 19.852 36.1766 20.044 35.8486 20.428C35.5206 20.804 35.3566 21.348 35.3566 22.06C35.3566 22.756 35.5206 23.308 35.8486 23.716C36.1766 24.116 36.6446 24.316 37.2526 24.316C37.5006 24.316 37.7606 24.264 38.0326 24.16C38.3126 24.056 38.5686 23.888 38.8006 23.656L39.1366 24.364C38.9046 24.596 38.6086 24.78 38.2486 24.916C37.8966 25.044 37.5446 25.108 37.1926 25.108ZM42.7861 25.108C42.1701 25.108 41.6381 24.988 41.1901 24.748C40.7501 24.5 40.4061 24.152 40.1581 23.704C39.9181 23.256 39.7981 22.72 39.7981 22.096C39.7981 21.488 39.9181 20.96 40.1581 20.512C40.3981 20.056 40.7261 19.7 41.1421 19.444C41.5661 19.188 42.0541 19.06 42.6061 19.06C43.1341 19.06 43.5861 19.176 43.9621 19.408C44.3381 19.64 44.6261 19.968 44.8261 20.392C45.0341 20.816 45.1381 21.324 45.1381 21.916V22.288H40.5421V21.652H44.4901L44.2981 21.808C44.2981 21.168 44.1541 20.672 43.8661 20.32C43.5861 19.96 43.1741 19.78 42.6301 19.78C42.2221 19.78 41.8741 19.876 41.5861 20.068C41.3061 20.252 41.0941 20.512 40.9501 20.848C40.8061 21.176 40.7341 21.56 40.7341 22V22.072C40.7341 22.56 40.8101 22.972 40.9621 23.308C41.1221 23.644 41.3581 23.9 41.6701 24.076C41.9821 24.244 42.3541 24.328 42.7861 24.328C43.1301 24.328 43.4621 24.276 43.7821 24.172C44.1101 24.06 44.4181 23.88 44.7061 23.632L45.0421 24.316C44.7781 24.556 44.4421 24.748 44.0341 24.892C43.6261 25.036 43.2101 25.108 42.7861 25.108ZM48.5128 25.108C48.2088 25.108 47.9128 25.076 47.6248 25.012C47.3448 24.956 47.0808 24.876 46.8328 24.772C46.5928 24.66 46.3848 24.528 46.2088 24.376L46.5208 23.692C46.7128 23.844 46.9208 23.972 47.1448 24.076C47.3688 24.172 47.5968 24.244 47.8288 24.292C48.0608 24.34 48.2968 24.364 48.5368 24.364C48.9928 24.364 49.3368 24.28 49.5688 24.112C49.8008 23.944 49.9168 23.716 49.9168 23.428C49.9168 23.204 49.8408 23.028 49.6888 22.9C49.5368 22.764 49.2968 22.66 48.9688 22.588L47.8768 22.348C47.3728 22.244 46.9968 22.064 46.7488 21.808C46.5088 21.552 46.3888 21.22 46.3888 20.812C46.3888 20.452 46.4808 20.144 46.6648 19.888C46.8568 19.624 47.1248 19.42 47.4688 19.276C47.8128 19.132 48.2128 19.06 48.6688 19.06C48.9408 19.06 49.2008 19.088 49.4488 19.144C49.6968 19.2 49.9288 19.284 50.1448 19.396C50.3688 19.5 50.5608 19.632 50.7208 19.792L50.3968 20.476C50.2448 20.332 50.0728 20.212 49.8808 20.116C49.6888 20.012 49.4888 19.936 49.2808 19.888C49.0808 19.832 48.8768 19.804 48.6688 19.804C48.2208 19.804 47.8808 19.892 47.6488 20.068C47.4168 20.244 47.3008 20.476 47.3008 20.764C47.3008 20.988 47.3728 21.172 47.5168 21.316C47.6608 21.46 47.8848 21.564 48.1888 21.628L49.2808 21.856C49.8008 21.968 50.1888 22.148 50.4448 22.396C50.7088 22.636 50.8408 22.964 50.8408 23.38C50.8408 23.732 50.7448 24.04 50.5528 24.304C50.3608 24.56 50.0888 24.76 49.7368 24.904C49.3928 25.04 48.9848 25.108 48.5128 25.108ZM52.6116 26.368L52.1556 26.02C52.2996 25.868 52.4076 25.724 52.4796 25.588C52.5596 25.46 52.6116 25.328 52.6356 25.192C52.6676 25.064 52.6836 24.932 52.6836 24.796L52.8996 25H52.1076V23.776H53.3316V24.64C53.3316 24.856 53.3076 25.06 53.2596 25.252C53.2196 25.452 53.1476 25.644 53.0436 25.828C52.9396 26.012 52.7956 26.192 52.6116 26.368ZM60.9441 25.108C60.5041 25.108 60.0881 25.068 59.6961 24.988C59.3121 24.908 58.9561 24.796 58.6281 24.652C58.3081 24.5 58.0161 24.316 57.7521 24.1L58.1001 23.308C58.3721 23.508 58.6481 23.68 58.9281 23.824C59.2161 23.96 59.5241 24.064 59.8521 24.136C60.1881 24.2 60.5521 24.232 60.9441 24.232C61.6641 24.232 62.1961 24.1 62.5401 23.836C62.8921 23.564 63.0681 23.208 63.0681 22.768C63.0681 22.536 63.0121 22.336 62.9001 22.168C62.7961 22 62.6201 21.856 62.3721 21.736C62.1321 21.616 61.8161 21.516 61.4241 21.436L60.1761 21.184C59.4241 21.024 58.8601 20.764 58.4841 20.404C58.1161 20.036 57.9321 19.548 57.9321 18.94C57.9321 18.436 58.0601 17.996 58.3161 17.62C58.5801 17.244 58.9441 16.952 59.4081 16.744C59.8801 16.536 60.4161 16.432 61.0161 16.432C61.4001 16.432 61.7641 16.472 62.1081 16.552C62.4521 16.632 62.7681 16.752 63.0561 16.912C63.3521 17.064 63.6121 17.252 63.8361 17.476L63.4881 18.244C63.1281 17.916 62.7481 17.68 62.3481 17.536C61.9481 17.384 61.5001 17.308 61.0041 17.308C60.5801 17.308 60.2121 17.372 59.9001 17.5C59.5961 17.628 59.3561 17.816 59.1801 18.064C59.0121 18.304 58.9281 18.584 58.9281 18.904C58.9281 19.288 59.0441 19.592 59.2761 19.816C59.5161 20.04 59.9041 20.204 60.4401 20.308L61.6881 20.572C62.4961 20.74 63.0921 20.996 63.4761 21.34C63.8681 21.676 64.0641 22.136 64.0641 22.72C64.0641 23.184 63.9361 23.6 63.6801 23.968C63.4321 24.328 63.0721 24.608 62.6001 24.808C62.1361 25.008 61.5841 25.108 60.9441 25.108ZM65.4829 25V19.168H66.4309V20.464H66.2989C66.3949 20.168 66.5349 19.916 66.7189 19.708C66.9109 19.492 67.1349 19.332 67.3909 19.228C67.6549 19.116 67.9429 19.06 68.2549 19.06C68.7509 19.06 69.1509 19.18 69.4549 19.42C69.7669 19.652 69.9749 20.016 70.0789 20.512H69.8989C70.0429 20.064 70.2989 19.712 70.6669 19.456C71.0429 19.192 71.4789 19.06 71.9749 19.06C72.4149 19.06 72.7749 19.144 73.0549 19.312C73.3429 19.48 73.5589 19.736 73.7029 20.08C73.8469 20.416 73.9189 20.844 73.9189 21.364V25H72.9469V21.412C72.9469 20.876 72.8549 20.484 72.6709 20.236C72.4869 19.98 72.1749 19.852 71.7349 19.852C71.4229 19.852 71.1469 19.928 70.9069 20.08C70.6749 20.232 70.4949 20.448 70.3669 20.728C70.2469 21 70.1869 21.324 70.1869 21.7V25H69.2149V21.412C69.2149 20.876 69.1189 20.484 68.9269 20.236C68.7429 19.98 68.4349 19.852 68.0029 19.852C67.6829 19.852 67.4069 19.928 67.1749 20.08C66.9429 20.232 66.7629 20.448 66.6349 20.728C66.5149 21 66.4549 21.324 66.4549 21.7V25H65.4829ZM78.1602 25.108C77.5922 25.108 77.1002 24.984 76.6842 24.736C76.2682 24.488 75.9442 24.14 75.7122 23.692C75.4882 23.236 75.3762 22.7 75.3762 22.084C75.3762 21.468 75.4882 20.936 75.7122 20.488C75.9442 20.032 76.2682 19.68 76.6842 19.432C77.1002 19.184 77.5922 19.06 78.1602 19.06C78.7282 19.06 79.2202 19.184 79.6362 19.432C80.0522 19.68 80.3722 20.032 80.5962 20.488C80.8282 20.936 80.9442 21.468 80.9442 22.084C80.9442 22.7 80.8282 23.236 80.5962 23.692C80.3722 24.14 80.0522 24.488 79.6362 24.736C79.2202 24.984 78.7282 25.108 78.1602 25.108ZM78.1602 24.328C78.7122 24.328 79.1482 24.136 79.4682 23.752C79.7962 23.36 79.9602 22.8 79.9602 22.072C79.9602 21.352 79.7962 20.8 79.4682 20.416C79.1482 20.032 78.7122 19.84 78.1602 19.84C77.6162 19.84 77.1802 20.032 76.8522 20.416C76.5242 20.8 76.3602 21.352 76.3602 22.072C76.3602 22.8 76.5242 23.36 76.8522 23.752C77.1802 24.136 77.6162 24.328 78.1602 24.328ZM84.8282 25.108C84.2602 25.108 83.7682 24.984 83.3522 24.736C82.9362 24.488 82.6122 24.14 82.3802 23.692C82.1562 23.236 82.0442 22.7 82.0442 22.084C82.0442 21.468 82.1562 20.936 82.3802 20.488C82.6122 20.032 82.9362 19.68 83.3522 19.432C83.7682 19.184 84.2602 19.06 84.8282 19.06C85.3962 19.06 85.8882 19.184 86.3042 19.432C86.7202 19.68 87.0402 20.032 87.2642 20.488C87.4962 20.936 87.6122 21.468 87.6122 22.084C87.6122 22.7 87.4962 23.236 87.2642 23.692C87.0402 24.14 86.7202 24.488 86.3042 24.736C85.8882 24.984 85.3962 25.108 84.8282 25.108ZM84.8282 24.328C85.3802 24.328 85.8162 24.136 86.1362 23.752C86.4642 23.36 86.6282 22.8 86.6282 22.072C86.6282 21.352 86.4642 20.8 86.1362 20.416C85.8162 20.032 85.3802 19.84 84.8282 19.84C84.2842 19.84 83.8482 20.032 83.5202 20.416C83.1922 20.8 83.0282 21.352 83.0282 22.072C83.0282 22.8 83.1922 23.36 83.5202 23.752C83.8482 24.136 84.2842 24.328 84.8282 24.328ZM91.3536 25.108C90.6656 25.108 90.1496 24.924 89.8056 24.556C89.4616 24.188 89.2896 23.664 89.2896 22.984V19.924H88.1496V19.168H89.2896V17.38H90.2616V19.168H92.1096V19.924H90.2616V22.888C90.2616 23.344 90.3576 23.692 90.5496 23.932C90.7416 24.164 91.0536 24.28 91.4856 24.28C91.6136 24.28 91.7416 24.264 91.8696 24.232C91.9976 24.2 92.1136 24.168 92.2176 24.136L92.3856 24.88C92.2816 24.936 92.1296 24.988 91.9296 25.036C91.7296 25.084 91.5376 25.108 91.3536 25.108ZM93.2089 25V16.54H94.1809V20.464H94.0249C94.1929 20 94.4649 19.652 94.8409 19.42C95.2249 19.18 95.6649 19.06 96.1609 19.06C96.6249 19.06 97.0089 19.144 97.3129 19.312C97.6249 19.48 97.8569 19.736 98.0089 20.08C98.1609 20.416 98.2369 20.844 98.2369 21.364V25H97.2649V21.424C97.2649 21.064 97.2169 20.768 97.1209 20.536C97.0329 20.304 96.8889 20.132 96.6889 20.02C96.4969 19.908 96.2449 19.852 95.9329 19.852C95.5809 19.852 95.2729 19.928 95.0089 20.08C94.7449 20.232 94.5409 20.444 94.3969 20.716C94.2529 20.988 94.1809 21.308 94.1809 21.676V25H93.2089ZM99.9092 17.716V16.624H101.109V17.716H99.9092ZM100.029 25V19.168H101.001V25H100.029ZM105.446 25.108C104.83 25.108 104.298 24.988 103.85 24.748C103.41 24.5 103.066 24.152 102.818 23.704C102.578 23.256 102.458 22.72 102.458 22.096C102.458 21.488 102.578 20.96 102.818 20.512C103.058 20.056 103.386 19.7 103.802 19.444C104.226 19.188 104.714 19.06 105.266 19.06C105.794 19.06 106.246 19.176 106.622 19.408C106.998 19.64 107.286 19.968 107.486 20.392C107.694 20.816 107.798 21.324 107.798 21.916V22.288H103.202V21.652H107.15L106.958 21.808C106.958 21.168 106.814 20.672 106.526 20.32C106.246 19.96 105.834 19.78 105.29 19.78C104.882 19.78 104.534 19.876 104.246 20.068C103.966 20.252 103.754 20.512 103.61 20.848C103.466 21.176 103.394 21.56 103.394 22V22.072C103.394 22.56 103.47 22.972 103.622 23.308C103.782 23.644 104.018 23.9 104.33 24.076C104.642 24.244 105.014 24.328 105.446 24.328C105.79 24.328 106.122 24.276 106.442 24.172C106.77 24.06 107.078 23.88 107.366 23.632L107.702 24.316C107.438 24.556 107.102 24.748 106.694 24.892C106.286 25.036 105.87 25.108 105.446 25.108ZM111.173 25.108C110.869 25.108 110.573 25.076 110.285 25.012C110.005 24.956 109.741 24.876 109.493 24.772C109.253 24.66 109.045 24.528 108.869 24.376L109.181 23.692C109.373 23.844 109.581 23.972 109.805 24.076C110.029 24.172 110.257 24.244 110.489 24.292C110.721 24.34 110.957 24.364 111.197 24.364C111.653 24.364 111.997 24.28 112.229 24.112C112.461 23.944 112.577 23.716 112.577 23.428C112.577 23.204 112.501 23.028 112.349 22.9C112.197 22.764 111.957 22.66 111.629 22.588L110.537 22.348C110.033 22.244 109.657 22.064 109.409 21.808C109.169 21.552 109.049 21.22 109.049 20.812C109.049 20.452 109.141 20.144 109.325 19.888C109.517 19.624 109.785 19.42 110.129 19.276C110.473 19.132 110.873 19.06 111.329 19.06C111.601 19.06 111.861 19.088 112.109 19.144C112.357 19.2 112.589 19.284 112.805 19.396C113.029 19.5 113.221 19.632 113.381 19.792L113.057 20.476C112.905 20.332 112.733 20.212 112.541 20.116C112.349 20.012 112.149 19.936 111.941 19.888C111.741 19.832 111.537 19.804 111.329 19.804C110.881 19.804 110.541 19.892 110.309 20.068C110.077 20.244 109.961 20.476 109.961 20.764C109.961 20.988 110.033 21.172 110.177 21.316C110.321 21.46 110.545 21.564 110.849 21.628L111.941 21.856C112.461 21.968 112.849 22.148 113.105 22.396C113.369 22.636 113.501 22.964 113.501 23.38C113.501 23.732 113.405 24.04 113.213 24.304C113.021 24.56 112.749 24.76 112.397 24.904C112.053 25.04 111.645 25.108 111.173 25.108ZM115.272 26.368L114.816 26.02C114.96 25.868 115.068 25.724 115.14 25.588C115.22 25.46 115.272 25.328 115.296 25.192C115.328 25.064 115.344 24.932 115.344 24.796L115.56 25H114.768V23.776H115.992V24.64C115.992 24.856 115.968 25.06 115.92 25.252C115.88 25.452 115.808 25.644 115.704 25.828C115.6 26.012 115.456 26.192 115.272 26.368ZM120.892 25V16.54H121.72L125.152 22.984H124.792L128.2 16.54H129.028V25H128.116V17.86H128.404L125.296 23.692H124.648L121.504 17.848H121.792V25H120.892ZM133.426 25.108C132.858 25.108 132.366 24.984 131.95 24.736C131.534 24.488 131.21 24.14 130.978 23.692C130.754 23.236 130.642 22.7 130.642 22.084C130.642 21.468 130.754 20.936 130.978 20.488C131.21 20.032 131.534 19.68 131.95 19.432C132.366 19.184 132.858 19.06 133.426 19.06C133.994 19.06 134.486 19.184 134.902 19.432C135.318 19.68 135.638 20.032 135.862 20.488C136.094 20.936 136.21 21.468 136.21 22.084C136.21 22.7 136.094 23.236 135.862 23.692C135.638 24.14 135.318 24.488 134.902 24.736C134.486 24.984 133.994 25.108 133.426 25.108ZM133.426 24.328C133.978 24.328 134.414 24.136 134.734 23.752C135.062 23.36 135.226 22.8 135.226 22.072C135.226 21.352 135.062 20.8 134.734 20.416C134.414 20.032 133.978 19.84 133.426 19.84C132.882 19.84 132.446 20.032 132.118 20.416C131.79 20.8 131.626 21.352 131.626 22.072C131.626 22.8 131.79 23.36 132.118 23.752C132.446 24.136 132.882 24.328 133.426 24.328ZM140.142 25.108C139.558 25.108 139.054 24.98 138.63 24.724C138.206 24.468 137.878 24.112 137.646 23.656C137.422 23.192 137.31 22.656 137.31 22.048C137.31 21.432 137.422 20.9 137.646 20.452C137.878 20.004 138.206 19.66 138.63 19.42C139.054 19.18 139.558 19.06 140.142 19.06C140.502 19.06 140.858 19.124 141.21 19.252C141.562 19.38 141.854 19.56 142.086 19.792L141.75 20.5C141.518 20.276 141.262 20.112 140.982 20.008C140.71 19.904 140.45 19.852 140.202 19.852C139.594 19.852 139.126 20.044 138.798 20.428C138.47 20.804 138.306 21.348 138.306 22.06C138.306 22.756 138.47 23.308 138.798 23.716C139.126 24.116 139.594 24.316 140.202 24.316C140.45 24.316 140.71 24.264 140.982 24.16C141.262 24.056 141.518 23.888 141.75 23.656L142.086 24.364C141.854 24.596 141.558 24.78 141.198 24.916C140.846 25.044 140.494 25.108 140.142 25.108ZM143.225 25V16.54H144.197V21.76H144.221L146.921 19.168H148.157L144.953 22.24V21.712L148.409 25H147.173L144.221 22.264H144.197V25H143.225ZM151.424 25.108C150.736 25.108 150.22 24.924 149.876 24.556C149.532 24.188 149.36 23.664 149.36 22.984V19.924H148.22V19.168H149.36V17.38H150.332V19.168H152.18V19.924H150.332V22.888C150.332 23.344 150.428 23.692 150.62 23.932C150.812 24.164 151.124 24.28 151.556 24.28C151.684 24.28 151.812 24.264 151.94 24.232C152.068 24.2 152.184 24.168 152.288 24.136L152.456 24.88C152.352 24.936 152.2 24.988 152 25.036C151.8 25.084 151.608 25.108 151.424 25.108ZM155.115 25.108C154.715 25.108 154.355 25.032 154.035 24.88C153.723 24.72 153.475 24.504 153.291 24.232C153.107 23.96 153.015 23.656 153.015 23.32C153.015 22.888 153.123 22.548 153.339 22.3C153.563 22.052 153.927 21.876 154.431 21.772C154.943 21.668 155.639 21.616 156.519 21.616H157.059V22.252H156.531C156.043 22.252 155.635 22.268 155.307 22.3C154.979 22.332 154.719 22.388 154.527 22.468C154.335 22.548 154.199 22.652 154.119 22.78C154.039 22.908 153.999 23.068 153.999 23.26C153.999 23.588 154.111 23.856 154.335 24.064C154.567 24.272 154.879 24.376 155.271 24.376C155.591 24.376 155.871 24.3 156.111 24.148C156.359 23.996 156.551 23.788 156.687 23.524C156.831 23.26 156.903 22.956 156.903 22.612V21.244C156.903 20.748 156.803 20.392 156.603 20.176C156.403 19.952 156.075 19.84 155.619 19.84C155.267 19.84 154.927 19.892 154.599 19.996C154.271 20.092 153.935 20.252 153.591 20.476L153.255 19.768C153.463 19.624 153.699 19.5 153.963 19.396C154.227 19.284 154.503 19.2 154.791 19.144C155.079 19.088 155.355 19.06 155.619 19.06C156.123 19.06 156.539 19.144 156.867 19.312C157.195 19.472 157.439 19.72 157.599 20.056C157.759 20.384 157.839 20.808 157.839 21.328V25H156.927V23.644H157.035C156.971 23.948 156.847 24.208 156.663 24.424C156.487 24.64 156.267 24.808 156.003 24.928C155.739 25.048 155.443 25.108 155.115 25.108ZM159.522 17.716V16.624H160.722V17.716H159.522ZM159.642 25V19.168H160.614V25H159.642ZM164.22 25.108C163.628 25.108 163.18 24.932 162.876 24.58C162.58 24.228 162.432 23.724 162.432 23.068V16.54H163.404V22.996C163.404 23.276 163.44 23.512 163.512 23.704C163.592 23.896 163.708 24.04 163.86 24.136C164.012 24.232 164.2 24.28 164.424 24.28C164.52 24.28 164.612 24.276 164.7 24.268C164.796 24.252 164.884 24.232 164.964 24.208L164.94 25.024C164.812 25.048 164.688 25.068 164.568 25.084C164.456 25.1 164.34 25.108 164.22 25.108ZM167.892 25.108C167.588 25.108 167.292 25.076 167.004 25.012C166.724 24.956 166.46 24.876 166.212 24.772C165.972 24.66 165.764 24.528 165.588 24.376L165.9 23.692C166.092 23.844 166.3 23.972 166.524 24.076C166.748 24.172 166.976 24.244 167.208 24.292C167.44 24.34 167.676 24.364 167.916 24.364C168.372 24.364 168.716 24.28 168.948 24.112C169.18 23.944 169.296 23.716 169.296 23.428C169.296 23.204 169.22 23.028 169.068 22.9C168.916 22.764 168.676 22.66 168.348 22.588L167.256 22.348C166.752 22.244 166.376 22.064 166.128 21.808C165.888 21.552 165.768 21.22 165.768 20.812C165.768 20.452 165.86 20.144 166.044 19.888C166.236 19.624 166.504 19.42 166.848 19.276C167.192 19.132 167.592 19.06 168.048 19.06C168.32 19.06 168.58 19.088 168.828 19.144C169.076 19.2 169.308 19.284 169.524 19.396C169.748 19.5 169.94 19.632 170.1 19.792L169.776 20.476C169.624 20.332 169.452 20.212 169.26 20.116C169.068 20.012 168.868 19.936 168.66 19.888C168.46 19.832 168.256 19.804 168.048 19.804C167.6 19.804 167.26 19.892 167.028 20.068C166.796 20.244 166.68 20.476 166.68 20.764C166.68 20.988 166.752 21.172 166.896 21.316C167.04 21.46 167.264 21.564 167.568 21.628L168.66 21.856C169.18 21.968 169.568 22.148 169.824 22.396C170.088 22.636 170.22 22.964 170.22 23.38C170.22 23.732 170.124 24.04 169.932 24.304C169.74 24.56 169.468 24.76 169.116 24.904C168.772 25.04 168.364 25.108 167.892 25.108ZM174.099 25L177.831 16.54H178.671L182.403 25H181.383L180.339 22.588L180.819 22.84H175.659L176.151 22.588L175.119 25H174.099ZM178.239 17.692L176.307 22.24L176.019 22.012H180.459L180.195 22.24L178.263 17.692H178.239ZM183.525 25V19.168H184.473V20.464H184.341C184.509 20 184.781 19.652 185.157 19.42C185.541 19.18 185.981 19.06 186.477 19.06C186.941 19.06 187.325 19.144 187.629 19.312C187.941 19.472 188.173 19.724 188.325 20.068C188.477 20.412 188.553 20.844 188.553 21.364V25H187.581V21.424C187.581 21.064 187.533 20.768 187.437 20.536C187.349 20.304 187.205 20.132 187.005 20.02C186.813 19.908 186.561 19.852 186.249 19.852C185.897 19.852 185.589 19.928 185.325 20.08C185.061 20.232 184.857 20.444 184.713 20.716C184.569 20.988 184.497 21.308 184.497 21.676V25H183.525ZM192.566 25.108C192.046 25.108 191.59 24.984 191.198 24.736C190.814 24.488 190.514 24.14 190.298 23.692C190.09 23.236 189.986 22.7 189.986 22.084C189.986 21.46 190.09 20.924 190.298 20.476C190.514 20.02 190.814 19.672 191.198 19.432C191.59 19.184 192.046 19.06 192.566 19.06C193.094 19.06 193.546 19.192 193.922 19.456C194.298 19.72 194.55 20.076 194.678 20.524H194.546V16.54H195.518V25H194.57V23.608H194.69C194.562 24.064 194.306 24.428 193.922 24.7C193.546 24.972 193.094 25.108 192.566 25.108ZM192.77 24.328C193.322 24.328 193.758 24.136 194.078 23.752C194.406 23.36 194.57 22.804 194.57 22.084C194.57 21.356 194.406 20.8 194.078 20.416C193.758 20.032 193.322 19.84 192.77 19.84C192.226 19.84 191.79 20.032 191.462 20.416C191.134 20.8 190.97 21.356 190.97 22.084C190.97 22.804 191.134 23.36 191.462 23.752C191.79 24.136 192.226 24.328 192.77 24.328ZM204.108 25.108C203.524 25.108 202.992 25.008 202.512 24.808C202.032 24.6 201.624 24.308 201.288 23.932C200.952 23.556 200.692 23.1 200.508 22.564C200.332 22.028 200.244 21.428 200.244 20.764C200.244 20.092 200.332 19.492 200.508 18.964C200.692 18.428 200.952 17.976 201.288 17.608C201.624 17.232 202.028 16.944 202.5 16.744C202.98 16.536 203.516 16.432 204.108 16.432C204.708 16.432 205.244 16.532 205.716 16.732C206.196 16.932 206.604 17.22 206.94 17.596C207.284 17.972 207.544 18.428 207.72 18.964C207.904 19.492 207.996 20.088 207.996 20.752C207.996 21.424 207.904 22.028 207.72 22.564C207.536 23.1 207.276 23.556 206.94 23.932C206.604 24.308 206.196 24.6 205.716 24.808C205.244 25.008 204.708 25.108 204.108 25.108ZM204.108 24.232C204.716 24.232 205.228 24.096 205.644 23.824C206.068 23.552 206.392 23.156 206.616 22.636C206.84 22.116 206.952 21.492 206.952 20.764C206.952 20.028 206.84 19.404 206.616 18.892C206.392 18.38 206.068 17.988 205.644 17.716C205.228 17.444 204.716 17.308 204.108 17.308C203.516 17.308 203.008 17.444 202.584 17.716C202.168 17.988 201.848 18.384 201.624 18.904C201.4 19.416 201.288 20.036 201.288 20.764C201.288 21.492 201.4 22.116 201.624 22.636C201.848 23.148 202.168 23.544 202.584 23.824C203.008 24.096 203.516 24.232 204.108 24.232ZM211.963 25.108C211.275 25.108 210.759 24.924 210.415 24.556C210.071 24.188 209.899 23.664 209.899 22.984V19.924H208.759V19.168H209.899V17.38H210.871V19.168H212.719V19.924H210.871V22.888C210.871 23.344 210.967 23.692 211.159 23.932C211.351 24.164 211.663 24.28 212.095 24.28C212.223 24.28 212.351 24.264 212.479 24.232C212.607 24.2 212.723 24.168 212.827 24.136L212.995 24.88C212.891 24.936 212.739 24.988 212.539 25.036C212.339 25.084 212.147 25.108 211.963 25.108ZM213.818 25V16.54H214.79V20.464H214.634C214.802 20 215.074 19.652 215.45 19.42C215.834 19.18 216.274 19.06 216.77 19.06C217.234 19.06 217.618 19.144 217.922 19.312C218.234 19.48 218.466 19.736 218.618 20.08C218.77 20.416 218.846 20.844 218.846 21.364V25H217.874V21.424C217.874 21.064 217.826 20.768 217.73 20.536C217.642 20.304 217.498 20.132 217.298 20.02C217.106 19.908 216.854 19.852 216.542 19.852C216.19 19.852 215.882 19.928 215.618 20.08C215.354 20.232 215.15 20.444 215.006 20.716C214.862 20.988 214.79 21.308 214.79 21.676V25H213.818ZM223.267 25.108C222.651 25.108 222.119 24.988 221.671 24.748C221.231 24.5 220.887 24.152 220.639 23.704C220.399 23.256 220.279 22.72 220.279 22.096C220.279 21.488 220.399 20.96 220.639 20.512C220.879 20.056 221.207 19.7 221.623 19.444C222.047 19.188 222.535 19.06 223.087 19.06C223.615 19.06 224.067 19.176 224.443 19.408C224.819 19.64 225.107 19.968 225.307 20.392C225.515 20.816 225.619 21.324 225.619 21.916V22.288H221.023V21.652H224.971L224.779 21.808C224.779 21.168 224.635 20.672 224.347 20.32C224.067 19.96 223.655 19.78 223.111 19.78C222.703 19.78 222.355 19.876 222.067 20.068C221.787 20.252 221.575 20.512 221.431 20.848C221.287 21.176 221.215 21.56 221.215 22V22.072C221.215 22.56 221.291 22.972 221.443 23.308C221.603 23.644 221.839 23.9 222.151 24.076C222.463 24.244 222.835 24.328 223.267 24.328C223.611 24.328 223.943 24.276 224.263 24.172C224.591 24.06 224.899 23.88 225.187 23.632L225.523 24.316C225.259 24.556 224.923 24.748 224.515 24.892C224.107 25.036 223.691 25.108 223.267 25.108ZM227.025 25V19.168H227.973V20.548H227.853C227.989 20.076 228.225 19.72 228.561 19.48C228.897 19.232 229.341 19.088 229.893 19.048L230.241 19.012L230.313 19.852L229.701 19.924C229.157 19.972 228.737 20.148 228.441 20.452C228.153 20.748 228.009 21.156 228.009 21.676V25H227.025ZM234.54 25V16.54H237.888C238.792 16.54 239.488 16.752 239.976 17.176C240.464 17.6 240.708 18.204 240.708 18.988C240.708 19.484 240.596 19.916 240.372 20.284C240.156 20.644 239.836 20.92 239.412 21.112C238.988 21.296 238.48 21.388 237.888 21.388L238.008 21.232H238.248C238.56 21.232 238.832 21.312 239.064 21.472C239.296 21.632 239.508 21.888 239.7 22.24L241.188 25H240.108L238.644 22.288C238.524 22.064 238.388 21.888 238.236 21.76C238.092 21.632 237.924 21.544 237.732 21.496C237.548 21.448 237.324 21.424 237.06 21.424H235.524V25H234.54ZM235.524 20.644H237.744C238.4 20.644 238.896 20.508 239.232 20.236C239.568 19.956 239.736 19.54 239.736 18.988C239.736 18.452 239.568 18.048 239.232 17.776C238.896 17.496 238.4 17.356 237.744 17.356H235.524V20.644ZM244.935 25.108C244.319 25.108 243.787 24.988 243.339 24.748C242.899 24.5 242.555 24.152 242.307 23.704C242.067 23.256 241.947 22.72 241.947 22.096C241.947 21.488 242.067 20.96 242.307 20.512C242.547 20.056 242.875 19.7 243.291 19.444C243.715 19.188 244.203 19.06 244.755 19.06C245.283 19.06 245.735 19.176 246.111 19.408C246.487 19.64 246.775 19.968 246.975 20.392C247.183 20.816 247.287 21.324 247.287 21.916V22.288H242.691V21.652H246.639L246.447 21.808C246.447 21.168 246.303 20.672 246.015 20.32C245.735 19.96 245.323 19.78 244.779 19.78C244.371 19.78 244.023 19.876 243.735 20.068C243.455 20.252 243.243 20.512 243.099 20.848C242.955 21.176 242.883 21.56 242.883 22V22.072C242.883 22.56 242.959 22.972 243.111 23.308C243.271 23.644 243.507 23.9 243.819 24.076C244.131 24.244 244.503 24.328 244.935 24.328C245.279 24.328 245.611 24.276 245.931 24.172C246.259 24.06 246.567 23.88 246.855 23.632L247.191 24.316C246.927 24.556 246.591 24.748 246.183 24.892C245.775 25.036 245.359 25.108 244.935 25.108ZM249.005 25V19.924H247.853V19.168H249.269L249.005 19.42V18.964C249.005 18.188 249.197 17.6 249.581 17.2C249.973 16.8 250.573 16.576 251.381 16.528L251.849 16.504L251.933 17.248L251.381 17.284C251.053 17.308 250.785 17.38 250.577 17.5C250.369 17.62 250.217 17.792 250.121 18.016C250.025 18.24 249.977 18.516 249.977 18.844V19.348L249.833 19.168H251.657V19.924H249.977V25H249.005ZM252.689 25V19.168H253.637V20.548H253.517C253.653 20.076 253.889 19.72 254.225 19.48C254.561 19.232 255.005 19.088 255.557 19.048L255.905 19.012L255.977 19.852L255.365 19.924C254.821 19.972 254.401 20.148 254.105 20.452C253.817 20.748 253.673 21.156 253.673 21.676V25H252.689ZM259.548 25.108C258.932 25.108 258.4 24.988 257.952 24.748C257.512 24.5 257.168 24.152 256.92 23.704C256.68 23.256 256.56 22.72 256.56 22.096C256.56 21.488 256.68 20.96 256.92 20.512C257.16 20.056 257.488 19.7 257.904 19.444C258.328 19.188 258.816 19.06 259.368 19.06C259.896 19.06 260.348 19.176 260.724 19.408C261.1 19.64 261.388 19.968 261.588 20.392C261.796 20.816 261.9 21.324 261.9 21.916V22.288H257.304V21.652H261.252L261.06 21.808C261.06 21.168 260.916 20.672 260.628 20.32C260.348 19.96 259.936 19.78 259.392 19.78C258.984 19.78 258.636 19.876 258.348 20.068C258.068 20.252 257.856 20.512 257.712 20.848C257.568 21.176 257.496 21.56 257.496 22V22.072C257.496 22.56 257.572 22.972 257.724 23.308C257.884 23.644 258.12 23.9 258.432 24.076C258.744 24.244 259.116 24.328 259.548 24.328C259.892 24.328 260.224 24.276 260.544 24.172C260.872 24.06 261.18 23.88 261.468 23.632L261.804 24.316C261.54 24.556 261.204 24.748 260.796 24.892C260.388 25.036 259.972 25.108 259.548 25.108ZM265.275 25.108C264.971 25.108 264.675 25.076 264.387 25.012C264.107 24.956 263.843 24.876 263.595 24.772C263.355 24.66 263.147 24.528 262.971 24.376L263.283 23.692C263.475 23.844 263.683 23.972 263.907 24.076C264.131 24.172 264.359 24.244 264.591 24.292C264.823 24.34 265.059 24.364 265.299 24.364C265.755 24.364 266.099 24.28 266.331 24.112C266.563 23.944 266.679 23.716 266.679 23.428C266.679 23.204 266.603 23.028 266.451 22.9C266.299 22.764 266.059 22.66 265.731 22.588L264.639 22.348C264.135 22.244 263.759 22.064 263.511 21.808C263.271 21.552 263.151 21.22 263.151 20.812C263.151 20.452 263.243 20.144 263.427 19.888C263.619 19.624 263.887 19.42 264.231 19.276C264.575 19.132 264.975 19.06 265.431 19.06C265.703 19.06 265.963 19.088 266.211 19.144C266.459 19.2 266.691 19.284 266.907 19.396C267.131 19.5 267.323 19.632 267.483 19.792L267.159 20.476C267.007 20.332 266.835 20.212 266.643 20.116C266.451 20.012 266.251 19.936 266.043 19.888C265.843 19.832 265.639 19.804 265.431 19.804C264.983 19.804 264.643 19.892 264.411 20.068C264.179 20.244 264.063 20.476 264.063 20.764C264.063 20.988 264.135 21.172 264.279 21.316C264.423 21.46 264.647 21.564 264.951 21.628L266.043 21.856C266.563 21.968 266.951 22.148 267.207 22.396C267.471 22.636 267.603 22.964 267.603 23.38C267.603 23.732 267.507 24.04 267.315 24.304C267.123 24.56 266.851 24.76 266.499 24.904C266.155 25.04 265.747 25.108 265.275 25.108ZM269.084 25V16.54H270.056V20.464H269.9C270.068 20 270.34 19.652 270.716 19.42C271.1 19.18 271.54 19.06 272.036 19.06C272.5 19.06 272.884 19.144 273.188 19.312C273.5 19.48 273.732 19.736 273.884 20.08C274.036 20.416 274.112 20.844 274.112 21.364V25H273.14V21.424C273.14 21.064 273.092 20.768 272.996 20.536C272.908 20.304 272.764 20.132 272.564 20.02C272.372 19.908 272.12 19.852 271.808 19.852C271.456 19.852 271.148 19.928 270.884 20.08C270.62 20.232 270.416 20.444 270.272 20.716C270.128 20.988 270.056 21.308 270.056 21.676V25H269.084ZM275.784 17.716V16.624H276.984V17.716H275.784ZM275.904 25V19.168H276.876V25H275.904ZM278.693 25V19.168H279.641V20.464H279.509C279.677 20 279.949 19.652 280.325 19.42C280.709 19.18 281.149 19.06 281.645 19.06C282.109 19.06 282.493 19.144 282.797 19.312C283.109 19.472 283.341 19.724 283.493 20.068C283.645 20.412 283.721 20.844 283.721 21.364V25H282.749V21.424C282.749 21.064 282.701 20.768 282.605 20.536C282.517 20.304 282.373 20.132 282.173 20.02C281.981 19.908 281.729 19.852 281.417 19.852C281.065 19.852 280.757 19.928 280.493 20.08C280.229 20.232 280.025 20.444 279.881 20.716C279.737 20.988 279.665 21.308 279.665 21.676V25H278.693ZM288.094 27.268C287.59 27.268 287.114 27.2 286.666 27.064C286.226 26.936 285.834 26.74 285.49 26.476L285.814 25.768C286.054 25.936 286.29 26.072 286.522 26.176C286.762 26.288 287.006 26.368 287.254 26.416C287.51 26.464 287.774 26.488 288.046 26.488C288.614 26.488 289.042 26.336 289.33 26.032C289.626 25.728 289.774 25.288 289.774 24.712V23.356H289.894C289.774 23.82 289.518 24.188 289.126 24.46C288.742 24.732 288.29 24.868 287.77 24.868C287.234 24.868 286.77 24.748 286.378 24.508C285.986 24.26 285.682 23.916 285.466 23.476C285.258 23.036 285.154 22.528 285.154 21.952C285.154 21.376 285.258 20.872 285.466 20.44C285.682 20 285.986 19.66 286.378 19.42C286.77 19.18 287.234 19.06 287.77 19.06C288.298 19.06 288.754 19.196 289.138 19.468C289.522 19.732 289.77 20.092 289.882 20.548H289.774V19.168H290.722V24.58C290.722 25.172 290.622 25.668 290.422 26.068C290.23 26.468 289.938 26.768 289.546 26.968C289.154 27.168 288.67 27.268 288.094 27.268ZM287.95 24.076C288.51 24.076 288.954 23.884 289.282 23.5C289.61 23.116 289.774 22.6 289.774 21.952C289.774 21.304 289.61 20.792 289.282 20.416C288.954 20.032 288.51 19.84 287.95 19.84C287.398 19.84 286.958 20.032 286.63 20.416C286.302 20.792 286.138 21.304 286.138 21.952C286.138 22.6 286.302 23.116 286.63 23.5C286.958 23.884 287.398 24.076 287.95 24.076ZM1.044 41V32.54H4.428C5.292 32.54 5.964 32.732 6.444 33.116C6.924 33.5 7.164 34.044 7.164 34.748C7.164 35.276 7.008 35.716 6.696 36.068C6.392 36.42 5.976 36.652 5.448 36.764V36.596C5.848 36.644 6.192 36.76 6.48 36.944C6.768 37.12 6.988 37.356 7.14 37.652C7.292 37.94 7.368 38.28 7.368 38.672C7.368 39.176 7.256 39.604 7.032 39.956C6.816 40.3 6.5 40.56 6.084 40.736C5.668 40.912 5.164 41 4.572 41H1.044ZM2.004 40.208H4.476C4.732 40.208 4.96 40.188 5.16 40.148C5.368 40.108 5.548 40.048 5.7 39.968C5.852 39.88 5.98 39.776 6.084 39.656C6.188 39.536 6.264 39.392 6.312 39.224C6.368 39.056 6.396 38.868 6.396 38.66C6.396 38.444 6.368 38.256 6.312 38.096C6.264 37.928 6.188 37.784 6.084 37.664C5.98 37.536 5.852 37.432 5.7 37.352C5.548 37.272 5.368 37.212 5.16 37.172C4.96 37.132 4.732 37.112 4.476 37.112H2.004V40.208ZM2.004 36.32H4.284C4.908 36.32 5.38 36.192 5.7 35.936C6.028 35.68 6.192 35.312 6.192 34.832C6.192 34.336 6.028 33.964 5.7 33.716C5.38 33.46 4.908 33.332 4.284 33.332H2.004V36.32ZM11.6494 41.108C11.0334 41.108 10.5014 40.988 10.0534 40.748C9.61338 40.5 9.26938 40.152 9.02138 39.704C8.78138 39.256 8.66138 38.72 8.66138 38.096C8.66138 37.488 8.78138 36.96 9.02138 36.512C9.26138 36.056 9.58938 35.7 10.0054 35.444C10.4294 35.188 10.9174 35.06 11.4694 35.06C11.9974 35.06 12.4494 35.176 12.8254 35.408C13.2014 35.64 13.4894 35.968 13.6894 36.392C13.8974 36.816 14.0014 37.324 14.0014 37.916V38.288H9.40538V37.652H13.3534L13.1614 37.808C13.1614 37.168 13.0174 36.672 12.7294 36.32C12.4494 35.96 12.0374 35.78 11.4934 35.78C11.0854 35.78 10.7374 35.876 10.4494 36.068C10.1694 36.252 9.95738 36.512 9.81338 36.848C9.66938 37.176 9.59738 37.56 9.59738 38V38.072C9.59738 38.56 9.67338 38.972 9.82538 39.308C9.98538 39.644 10.2214 39.9 10.5334 40.076C10.8454 40.244 11.2174 40.328 11.6494 40.328C11.9934 40.328 12.3254 40.276 12.6454 40.172C12.9734 40.06 13.2814 39.88 13.5694 39.632L13.9054 40.316C13.6414 40.556 13.3054 40.748 12.8974 40.892C12.4894 41.036 12.0734 41.108 11.6494 41.108ZM17.0538 41L14.5458 35.168H15.6018L17.6898 40.28H17.3658L19.4898 35.168H20.4858L17.9658 41H17.0538ZM24.0595 41.108C23.4435 41.108 22.9115 40.988 22.4635 40.748C22.0235 40.5 21.6795 40.152 21.4315 39.704C21.1915 39.256 21.0715 38.72 21.0715 38.096C21.0715 37.488 21.1915 36.96 21.4315 36.512C21.6715 36.056 21.9995 35.7 22.4155 35.444C22.8395 35.188 23.3275 35.06 23.8795 35.06C24.4075 35.06 24.8595 35.176 25.2355 35.408C25.6115 35.64 25.8995 35.968 26.0995 36.392C26.3075 36.816 26.4115 37.324 26.4115 37.916V38.288H21.8155V37.652H25.7635L25.5715 37.808C25.5715 37.168 25.4275 36.672 25.1395 36.32C24.8595 35.96 24.4475 35.78 23.9035 35.78C23.4955 35.78 23.1475 35.876 22.8595 36.068C22.5795 36.252 22.3675 36.512 22.2235 36.848C22.0795 37.176 22.0075 37.56 22.0075 38V38.072C22.0075 38.56 22.0835 38.972 22.2355 39.308C22.3955 39.644 22.6315 39.9 22.9435 40.076C23.2555 40.244 23.6275 40.328 24.0595 40.328C24.4035 40.328 24.7355 40.276 25.0555 40.172C25.3835 40.06 25.6915 39.88 25.9795 39.632L26.3155 40.316C26.0515 40.556 25.7155 40.748 25.3075 40.892C24.8995 41.036 24.4835 41.108 24.0595 41.108ZM27.8183 41V35.168H28.7663V36.548H28.6463C28.7823 36.076 29.0183 35.72 29.3543 35.48C29.6903 35.232 30.1343 35.088 30.6863 35.048L31.0343 35.012L31.1063 35.852L30.4943 35.924C29.9503 35.972 29.5303 36.148 29.2343 36.452C28.9463 36.748 28.8023 37.156 28.8023 37.676V41H27.8183ZM33.8964 41.108C33.4964 41.108 33.1364 41.032 32.8164 40.88C32.5044 40.72 32.2564 40.504 32.0724 40.232C31.8884 39.96 31.7964 39.656 31.7964 39.32C31.7964 38.888 31.9044 38.548 32.1204 38.3C32.3444 38.052 32.7084 37.876 33.2124 37.772C33.7244 37.668 34.4204 37.616 35.3004 37.616H35.8404V38.252H35.3124C34.8244 38.252 34.4164 38.268 34.0884 38.3C33.7604 38.332 33.5004 38.388 33.3084 38.468C33.1164 38.548 32.9804 38.652 32.9004 38.78C32.8204 38.908 32.7804 39.068 32.7804 39.26C32.7804 39.588 32.8924 39.856 33.1164 40.064C33.3484 40.272 33.6604 40.376 34.0524 40.376C34.3724 40.376 34.6524 40.3 34.8924 40.148C35.1404 39.996 35.3324 39.788 35.4684 39.524C35.6124 39.26 35.6844 38.956 35.6844 38.612V37.244C35.6844 36.748 35.5844 36.392 35.3844 36.176C35.1844 35.952 34.8564 35.84 34.4004 35.84C34.0484 35.84 33.7084 35.892 33.3804 35.996C33.0524 36.092 32.7164 36.252 32.3724 36.476L32.0364 35.768C32.2444 35.624 32.4804 35.5 32.7444 35.396C33.0084 35.284 33.2844 35.2 33.5724 35.144C33.8604 35.088 34.1364 35.06 34.4004 35.06C34.9044 35.06 35.3204 35.144 35.6484 35.312C35.9764 35.472 36.2204 35.72 36.3804 36.056C36.5404 36.384 36.6204 36.808 36.6204 37.328V41H35.7084V39.644H35.8164C35.7524 39.948 35.6284 40.208 35.4444 40.424C35.2684 40.64 35.0484 40.808 34.7844 40.928C34.5204 41.048 34.2244 41.108 33.8964 41.108ZM41.0037 43.268C40.4997 43.268 40.0237 43.2 39.5757 43.064C39.1357 42.936 38.7437 42.74 38.3997 42.476L38.7237 41.768C38.9637 41.936 39.1997 42.072 39.4317 42.176C39.6717 42.288 39.9157 42.368 40.1637 42.416C40.4197 42.464 40.6837 42.488 40.9557 42.488C41.5237 42.488 41.9517 42.336 42.2397 42.032C42.5357 41.728 42.6837 41.288 42.6837 40.712V39.356H42.8037C42.6837 39.82 42.4277 40.188 42.0357 40.46C41.6517 40.732 41.1997 40.868 40.6797 40.868C40.1437 40.868 39.6797 40.748 39.2877 40.508C38.8957 40.26 38.5917 39.916 38.3757 39.476C38.1677 39.036 38.0637 38.528 38.0637 37.952C38.0637 37.376 38.1677 36.872 38.3757 36.44C38.5917 36 38.8957 35.66 39.2877 35.42C39.6797 35.18 40.1437 35.06 40.6797 35.06C41.2077 35.06 41.6637 35.196 42.0477 35.468C42.4317 35.732 42.6797 36.092 42.7917 36.548H42.6837V35.168H43.6317V40.58C43.6317 41.172 43.5317 41.668 43.3317 42.068C43.1397 42.468 42.8477 42.768 42.4557 42.968C42.0637 43.168 41.5797 43.268 41.0037 43.268ZM40.8597 40.076C41.4197 40.076 41.8637 39.884 42.1917 39.5C42.5197 39.116 42.6837 38.6 42.6837 37.952C42.6837 37.304 42.5197 36.792 42.1917 36.416C41.8637 36.032 41.4197 35.84 40.8597 35.84C40.3077 35.84 39.8677 36.032 39.5397 36.416C39.2117 36.792 39.0477 37.304 39.0477 37.952C39.0477 38.6 39.2117 39.116 39.5397 39.5C39.8677 39.884 40.3077 40.076 40.8597 40.076ZM48.083 41.108C47.467 41.108 46.935 40.988 46.487 40.748C46.047 40.5 45.703 40.152 45.455 39.704C45.215 39.256 45.095 38.72 45.095 38.096C45.095 37.488 45.215 36.96 45.455 36.512C45.695 36.056 46.023 35.7 46.439 35.444C46.863 35.188 47.351 35.06 47.903 35.06C48.431 35.06 48.883 35.176 49.259 35.408C49.635 35.64 49.923 35.968 50.123 36.392C50.331 36.816 50.435 37.324 50.435 37.916V38.288H45.839V37.652H49.787L49.595 37.808C49.595 37.168 49.451 36.672 49.163 36.32C48.883 35.96 48.471 35.78 47.927 35.78C47.519 35.78 47.171 35.876 46.883 36.068C46.603 36.252 46.391 36.512 46.247 36.848C46.103 37.176 46.031 37.56 46.031 38V38.072C46.031 38.56 46.107 38.972 46.259 39.308C46.419 39.644 46.655 39.9 46.967 40.076C47.279 40.244 47.651 40.328 48.083 40.328C48.427 40.328 48.759 40.276 49.079 40.172C49.407 40.06 49.715 39.88 50.003 39.632L50.339 40.316C50.075 40.556 49.739 40.748 49.331 40.892C48.923 41.036 48.507 41.108 48.083 41.108ZM53.8097 41.108C53.5057 41.108 53.2097 41.076 52.9217 41.012C52.6417 40.956 52.3777 40.876 52.1297 40.772C51.8897 40.66 51.6817 40.528 51.5057 40.376L51.8177 39.692C52.0097 39.844 52.2177 39.972 52.4417 40.076C52.6657 40.172 52.8937 40.244 53.1257 40.292C53.3577 40.34 53.5937 40.364 53.8337 40.364C54.2897 40.364 54.6337 40.28 54.8657 40.112C55.0977 39.944 55.2137 39.716 55.2137 39.428C55.2137 39.204 55.1377 39.028 54.9857 38.9C54.8337 38.764 54.5937 38.66 54.2657 38.588L53.1737 38.348C52.6697 38.244 52.2937 38.064 52.0457 37.808C51.8057 37.552 51.6857 37.22 51.6857 36.812C51.6857 36.452 51.7777 36.144 51.9617 35.888C52.1537 35.624 52.4217 35.42 52.7657 35.276C53.1097 35.132 53.5097 35.06 53.9657 35.06C54.2377 35.06 54.4977 35.088 54.7457 35.144C54.9937 35.2 55.2257 35.284 55.4417 35.396C55.6657 35.5 55.8577 35.632 56.0177 35.792L55.6937 36.476C55.5417 36.332 55.3697 36.212 55.1777 36.116C54.9857 36.012 54.7857 35.936 54.5777 35.888C54.3777 35.832 54.1737 35.804 53.9657 35.804C53.5177 35.804 53.1777 35.892 52.9457 36.068C52.7137 36.244 52.5977 36.476 52.5977 36.764C52.5977 36.988 52.6697 37.172 52.8137 37.316C52.9577 37.46 53.1817 37.564 53.4857 37.628L54.5777 37.856C55.0977 37.968 55.4857 38.148 55.7417 38.396C56.0057 38.636 56.1377 38.964 56.1377 39.38C56.1377 39.732 56.0417 40.04 55.8497 40.304C55.6577 40.56 55.3857 40.76 55.0337 40.904C54.6897 41.04 54.2817 41.108 53.8097 41.108ZM57.4044 41V39.776H58.6284V41H57.4044Z" fill="black"/>
</svg>
