<svg width="90" height="81" viewBox="0 0 90 81" fill="none" xmlns="http://www.w3.org/2000/svg">
<g filter="url(#filter0_d_535_40)">
<rect x="4" y="25.0874" width="81.83" height="47.1484" rx="2" fill="white"/>
<rect x="4.25" y="25.3374" width="81.33" height="46.6484" rx="1.75" stroke="white" stroke-width="0.5"/>
</g>
<rect x="29.271" y="0.96582" width="30.0846" height="30.2233" rx="3" fill="#CB3335"/>
<g clip-path="url(#clip0_535_40)">
<path fill-rule="evenodd" clip-rule="evenodd" d="M35.6578 11.6363C35.7137 11.6571 35.7792 11.7037 35.8035 11.7401C35.8397 11.794 35.8476 12.2644 35.8473 16.7812L35.7667 16.8639C35.7104 16.9214 35.6502 16.9465 35.5693 16.9465C35.4886 16.9465 35.4271 16.9211 35.2879 16.7812V14.302C35.2879 12.7152 35.2998 11.7989 35.3208 11.7566C35.3389 11.7202 35.3995 11.67 35.4551 11.6445C35.5344 11.6088 35.5785 11.6072 35.6578 11.6363ZM51.9457 11.6363C52.0017 11.6571 52.0672 11.7037 52.0915 11.7401C52.1277 11.794 52.1356 12.2644 52.1353 16.7812L52.0547 16.8639C51.9984 16.9214 51.9382 16.9465 51.8572 16.9465C51.7766 16.9465 51.7151 16.9211 51.5759 16.7812V14.302C51.5759 12.7152 51.5877 11.7989 51.6088 11.7566C51.6269 11.7202 51.6874 11.67 51.7431 11.6445C51.8224 11.6088 51.8664 11.6072 51.9457 11.6363ZM51.9763 17.8225L52.1353 18.0043V19.7729C52.1353 20.8859 52.1231 21.5659 52.1024 21.6075C52.0843 21.6439 52.0178 21.6961 51.9543 21.7232C51.853 21.7668 50.8628 21.7728 43.7116 21.7728C36.5604 21.7728 35.5703 21.7668 35.4689 21.7232C35.4054 21.6961 35.3389 21.6439 35.3208 21.6075C35.3001 21.5659 35.2879 20.8879 35.2876 19.7811C35.2876 18.2166 35.2932 18.0123 35.3402 17.9442C35.3695 17.9019 35.4251 17.8546 35.464 17.8387C35.5035 17.8225 39.1684 17.8126 51.9763 17.8225ZM35.8638 21.1943H51.5594L51.5647 18.368H50.7204C50.7187 18.919 50.7033 19.0664 50.6782 19.1012C50.6562 19.1319 50.5937 19.1739 50.5394 19.1947C50.4598 19.2254 50.4199 19.2225 50.3337 19.1805C50.2636 19.1461 50.2153 19.0912 50.1932 19.0208C50.1748 18.9617 50.16 18.7907 50.1603 18.6407L50.161 18.368H49.0422C49.0422 19.5788 49.0406 19.5927 48.9629 19.682C48.9034 19.7501 48.8533 19.7729 48.7625 19.7729C48.6717 19.7729 48.6217 19.7501 48.5621 19.682C48.4845 19.5927 48.4828 19.5788 48.4828 18.9795V18.368H47.3641C47.3486 19.0221 47.3394 19.0688 47.2742 19.1339C47.2265 19.1818 47.1594 19.2083 47.0824 19.2092C46.9926 19.2106 46.9439 19.1884 46.884 19.12C46.8116 19.037 46.8047 19.0007 46.8047 18.6985V18.368H45.6859C45.6859 19.356 45.6741 19.52 45.6365 19.6076C45.6069 19.6773 45.5513 19.7372 45.4967 19.7583C45.447 19.7775 45.373 19.7848 45.3322 19.7748C45.2914 19.7646 45.2282 19.7229 45.1917 19.682C45.1298 19.6129 45.1252 19.5636 45.1259 18.9878L45.1265 18.368H44.0077C44.0074 18.765 43.9926 18.9362 43.9745 19.0043C43.9502 19.0972 43.913 19.1428 43.8268 19.1861C43.7172 19.2413 43.706 19.2413 43.5964 19.1861C43.5102 19.1428 43.473 19.0972 43.4487 19.0043C43.4306 18.9362 43.4158 18.765 43.4158 18.6241L43.4155 18.368H42.2967C42.295 19.4228 42.2825 19.6231 42.2546 19.6601C42.2325 19.6889 42.1812 19.7299 42.1404 19.751C42.0996 19.7722 42.0219 19.7821 41.9676 19.7729C41.9018 19.7618 41.847 19.7205 41.8031 19.6489C41.7442 19.552 41.7376 19.483 41.7373 18.9547V18.368H40.6185C40.6185 19.0007 40.6116 19.037 40.5392 19.12C40.4803 19.1871 40.429 19.2109 40.3425 19.2109C40.2646 19.2109 40.2006 19.1858 40.1506 19.1355C40.0835 19.0684 40.0746 19.0245 40.0674 18.7141L40.0591 18.368H38.9404C38.9243 19.594 38.9206 19.6258 38.8505 19.6958C38.8028 19.7438 38.7357 19.7702 38.6587 19.7712C38.5689 19.7725 38.5202 19.7504 38.4603 19.682C38.3826 19.5927 38.381 19.5788 38.381 18.9795V18.368H37.2622C37.2632 18.7907 37.2484 18.9617 37.23 19.0208C37.2079 19.0912 37.1596 19.1461 37.0895 19.1805C37.0033 19.2225 36.9634 19.2254 36.8838 19.1947C36.8295 19.1739 36.767 19.1319 36.745 19.1012C36.72 19.0664 36.7045 18.919 36.7038 18.7068L36.7028 18.368H35.8467L35.8638 21.1943ZM37.9736 12.4508C38.0167 12.4508 38.0927 12.4868 38.2329 12.6101L38.2494 14.1367H49.1738L49.1903 12.6101L49.2808 12.5305C49.3305 12.4868 49.4045 12.4501 49.4453 12.4495C49.4861 12.4485 49.5519 12.4746 49.5914 12.5073C49.6312 12.5397 49.9609 12.9533 50.3242 13.426C50.6878 13.8987 50.9938 14.3228 51.0047 14.3681C51.0162 14.4157 51.003 14.4927 50.9737 14.5499C50.9458 14.6044 50.6759 14.9691 50.3745 15.3598C50.0728 15.7508 49.7681 16.1412 49.6973 16.2275C49.596 16.3512 49.5476 16.3845 49.47 16.3845C49.4157 16.3845 49.3416 16.3697 49.3055 16.3515C49.2693 16.3333 49.2245 16.2702 49.2061 16.211C49.1877 16.1518 49.1728 15.7875 49.1738 14.6987H38.2494L38.25 15.4011C38.25 15.7875 38.2352 16.1518 38.2171 16.211C38.1987 16.2702 38.154 16.3333 38.1178 16.3515C38.0816 16.3697 38.0075 16.3845 37.9532 16.3845C37.8756 16.3845 37.8272 16.3512 37.7259 16.2275C37.6548 16.1412 37.3501 15.7508 37.0487 15.3598C36.7469 14.9691 36.4774 14.6044 36.4495 14.5499C36.4202 14.4927 36.407 14.4157 36.4185 14.3681C36.4294 14.3228 36.7354 13.8987 37.0987 13.426C37.462 12.9533 37.79 12.5404 37.8275 12.5086C37.8647 12.4769 37.9305 12.4508 37.9736 12.4508ZM37.0645 14.4838C37.0882 14.5201 37.2346 14.7155 37.3902 14.9181C37.5462 15.1208 37.6847 15.2808 37.6982 15.2735C37.7117 15.2666 37.7229 14.8815 37.7229 14.4177C37.7229 13.9516 37.7097 13.5747 37.6936 13.5747C37.6778 13.5747 37.5202 13.7645 37.3432 13.9962C37.053 14.3773 37.026 14.424 37.0645 14.4838ZM49.725 15.2735C49.7385 15.2808 49.877 15.1208 50.0327 14.9181C50.1883 14.7155 50.335 14.5201 50.3584 14.4838C50.3969 14.424 50.3699 14.3773 50.0754 13.9949C49.8961 13.7622 49.7385 13.5724 49.725 13.5734C49.7115 13.5741 49.7003 13.9542 49.7003 14.4177C49.7003 14.8815 49.7115 15.2666 49.725 15.2735Z" fill="white"/>
</g>
<path d="M24.6787 46.1348V40.4948H26.6547C27.2573 40.4948 27.7693 40.6041 28.1907 40.8228C28.612 41.0414 28.932 41.3614 29.1507 41.7828C29.3747 42.1988 29.4867 42.7081 29.4867 43.3108C29.4867 43.9134 29.3747 44.4254 29.1507 44.8468C28.932 45.2681 28.612 45.5881 28.1907 45.8068C27.7693 46.0254 27.2573 46.1348 26.6547 46.1348H24.6787ZM25.3907 45.5108H26.6147C27.3133 45.5108 27.8413 45.3294 28.1987 44.9668C28.5613 44.6041 28.7427 44.0521 28.7427 43.3108C28.7427 42.5694 28.5613 42.0201 28.1987 41.6628C27.8413 41.3001 27.3133 41.1188 26.6147 41.1188H25.3907V45.5108ZM30.7209 41.2308V40.4388H31.5849V41.2308H30.7209ZM30.8009 46.1348V42.1828H31.5129V46.1348H30.8009ZM32.9497 46.1348V42.1828H33.6057V43.0468C33.675 42.8708 33.771 42.7134 33.8937 42.5748C34.0217 42.4308 34.1737 42.3188 34.3497 42.2388C34.531 42.1534 34.7283 42.1108 34.9417 42.1108C35.2883 42.1108 35.5737 42.1961 35.7977 42.3668C36.0217 42.5374 36.1603 42.7614 36.2137 43.0388H36.2057C36.3123 42.7774 36.4803 42.5588 36.7097 42.3828C36.9443 42.2014 37.2377 42.1108 37.5897 42.1108C37.8883 42.1108 38.1417 42.1694 38.3497 42.2868C38.5577 42.3988 38.715 42.5721 38.8217 42.8068C38.9283 43.0414 38.9817 43.3374 38.9817 43.6948V46.1348H38.2777V43.7428C38.2777 43.4014 38.2163 43.1454 38.0937 42.9748C37.971 42.8041 37.7523 42.7188 37.4377 42.7188C37.203 42.7188 37.0003 42.7721 36.8297 42.8788C36.6643 42.9801 36.5363 43.1241 36.4457 43.3108C36.3603 43.4921 36.3177 43.6974 36.3177 43.9268V46.1348H35.6137V43.7428C35.6137 43.4068 35.5443 43.1534 35.4057 42.9828C35.267 42.8068 35.0563 42.7188 34.7737 42.7188C34.5443 42.7188 34.3443 42.7774 34.1737 42.8948C34.0083 43.0068 33.8803 43.1534 33.7897 43.3348C33.699 43.5161 33.6537 43.7081 33.6537 43.9108V46.1348H32.9497ZM42.3142 46.2068C41.8716 46.2068 41.4876 46.1268 41.1622 45.9668C40.8422 45.8014 40.5969 45.5668 40.4262 45.2628C40.2556 44.9534 40.1702 44.5854 40.1702 44.1588C40.1702 43.7588 40.2502 43.4068 40.4102 43.1028C40.5702 42.7934 40.7969 42.5508 41.0902 42.3748C41.3836 42.1988 41.7329 42.1108 42.1382 42.1108C42.5222 42.1108 42.8476 42.1934 43.1142 42.3588C43.3862 42.5241 43.5916 42.7561 43.7302 43.0548C43.8742 43.3534 43.9462 43.7081 43.9462 44.1188V44.3508H40.7062V43.8548H43.4822L43.3302 44.0148C43.3302 43.5774 43.2262 43.2414 43.0182 43.0068C42.8156 42.7721 42.5222 42.6548 42.1382 42.6548C41.8876 42.6548 41.6636 42.7134 41.4662 42.8308C41.2742 42.9428 41.1249 43.1028 41.0182 43.3108C40.9116 43.5188 40.8582 43.7721 40.8582 44.0708V44.1508C40.8582 44.4708 40.9169 44.7401 41.0342 44.9588C41.1516 45.1774 41.3196 45.3428 41.5382 45.4548C41.7569 45.5668 42.0182 45.6228 42.3222 45.6228C42.5409 45.6228 42.7622 45.5934 42.9862 45.5348C43.2156 45.4708 43.4289 45.3588 43.6262 45.1988L43.8662 45.7108C43.6636 45.8814 43.4209 46.0068 43.1382 46.0868C42.8609 46.1668 42.5862 46.2068 42.3142 46.2068ZM45.1212 46.1348V42.1828H45.7852V43.0388C45.9132 42.7454 46.1052 42.5188 46.3612 42.3588C46.6172 42.1934 46.9052 42.1108 47.2252 42.1108C47.5505 42.1108 47.8225 42.1694 48.0412 42.2868C48.2598 42.3988 48.4225 42.5748 48.5292 42.8148C48.6412 43.0494 48.6972 43.3428 48.6972 43.6948V46.1348H47.9852V43.7348C47.9852 43.5214 47.9558 43.3401 47.8972 43.1908C47.8385 43.0414 47.7398 42.9268 47.6012 42.8468C47.4678 42.7614 47.2892 42.7188 47.0652 42.7188C46.8305 42.7188 46.6172 42.7721 46.4252 42.8788C46.2385 42.9854 46.0918 43.1294 45.9852 43.3108C45.8838 43.4921 45.8332 43.6948 45.8332 43.9188V46.1348H45.1212ZM51.5616 46.2068C51.3429 46.2068 51.1269 46.1854 50.9136 46.1428C50.7056 46.1054 50.5109 46.0521 50.3296 45.9828C50.1536 45.9081 50.0016 45.8174 49.8736 45.7108L50.1056 45.2068C50.2389 45.3081 50.3856 45.3908 50.5456 45.4548C50.7109 45.5188 50.8789 45.5668 51.0496 45.5988C51.2256 45.6254 51.3936 45.6388 51.5536 45.6388C51.8842 45.6388 52.1376 45.5881 52.3136 45.4868C52.4949 45.3854 52.5856 45.2441 52.5856 45.0628C52.5856 44.9081 52.5322 44.7908 52.4256 44.7108C52.3242 44.6254 52.1536 44.5614 51.9136 44.5188L51.0896 44.3748C50.7216 44.3054 50.4442 44.1801 50.2576 43.9988C50.0762 43.8174 49.9856 43.5801 49.9856 43.2868C49.9856 43.0521 50.0496 42.8468 50.1776 42.6708C50.3109 42.4948 50.5002 42.3588 50.7456 42.2628C50.9909 42.1614 51.2842 42.1108 51.6256 42.1108C51.8122 42.1108 52.0016 42.1294 52.1936 42.1668C52.3909 42.2041 52.5722 42.2601 52.7376 42.3348C52.9082 42.4041 53.0469 42.4921 53.1536 42.5988L52.9136 43.1028C52.8069 43.0014 52.6789 42.9214 52.5296 42.8628C52.3856 42.7988 52.2336 42.7534 52.0736 42.7268C51.9189 42.6948 51.7669 42.6788 51.6176 42.6788C51.3082 42.6788 51.0682 42.7321 50.8976 42.8388C50.7269 42.9401 50.6416 43.0841 50.6416 43.2708C50.6416 43.4201 50.6896 43.5374 50.7856 43.6228C50.8869 43.7081 51.0496 43.7721 51.2736 43.8148L52.0736 43.9588C52.4682 44.0334 52.7616 44.1588 52.9536 44.3348C53.1456 44.5054 53.2416 44.7428 53.2416 45.0468C53.2416 45.2814 53.1722 45.4868 53.0336 45.6628C52.8949 45.8334 52.7002 45.9668 52.4496 46.0628C52.1989 46.1588 51.9029 46.2068 51.5616 46.2068ZM54.3381 41.2308V40.4388H55.2021V41.2308H54.3381ZM54.4181 46.1348V42.1828H55.1301V46.1348H54.4181ZM58.2709 46.2068C57.8709 46.2068 57.5242 46.1214 57.2309 45.9508C56.9375 45.7801 56.7109 45.5428 56.5509 45.2388C56.3909 44.9294 56.3109 44.5668 56.3109 44.1508C56.3109 43.7401 56.3909 43.3828 56.5509 43.0788C56.7109 42.7694 56.9375 42.5321 57.2309 42.3668C57.5242 42.1961 57.8709 42.1108 58.2709 42.1108C58.6709 42.1108 59.0149 42.1961 59.3029 42.3668C59.5962 42.5321 59.8229 42.7694 59.9829 43.0788C60.1429 43.3828 60.2229 43.7401 60.2229 44.1508C60.2229 44.5668 60.1429 44.9294 59.9829 45.2388C59.8282 45.5428 59.6042 45.7801 59.3109 45.9508C59.0175 46.1214 58.6709 46.2068 58.2709 46.2068ZM58.2629 45.6068C58.6522 45.6068 58.9589 45.4761 59.1829 45.2148C59.4069 44.9534 59.5189 44.5988 59.5189 44.1508C59.5189 43.7028 59.4069 43.3508 59.1829 43.0948C58.9642 42.8388 58.6602 42.7108 58.2709 42.7108C57.8815 42.7108 57.5749 42.8388 57.3509 43.0948C57.1269 43.3508 57.0149 43.7028 57.0149 44.1508C57.0149 44.5988 57.1269 44.9534 57.3509 45.2148C57.5802 45.4761 57.8842 45.6068 58.2629 45.6068ZM61.4181 46.1348V42.1828H62.0821V43.0388C62.2101 42.7454 62.4021 42.5188 62.6581 42.3588C62.9141 42.1934 63.2021 42.1108 63.5221 42.1108C63.8474 42.1108 64.1194 42.1694 64.3381 42.2868C64.5567 42.3988 64.7194 42.5748 64.8261 42.8148C64.9381 43.0494 64.9941 43.3428 64.9941 43.6948V46.1348H64.2821V43.7348C64.2821 43.5214 64.2527 43.3401 64.1941 43.1908C64.1354 43.0414 64.0367 42.9268 63.8981 42.8468C63.7647 42.7614 63.5861 42.7188 63.3621 42.7188C63.1274 42.7188 62.9141 42.7721 62.7221 42.8788C62.5354 42.9854 62.3887 43.1294 62.2821 43.3108C62.1807 43.4921 62.1301 43.6948 62.1301 43.9188V46.1348H61.4181Z" fill="#CE3439"/>
<path d="M26.692 59.2068C26.0627 59.2068 25.5667 59.0708 25.204 58.7988C24.8413 58.5214 24.66 58.1374 24.66 57.6468C24.66 57.3961 24.708 57.1748 24.804 56.9828C24.9053 56.7854 25.044 56.6254 25.22 56.5028C25.4013 56.3748 25.6093 56.2894 25.844 56.2468V56.2548C25.6413 56.2068 25.46 56.1188 25.3 55.9908C25.1453 55.8628 25.0227 55.7081 24.932 55.5268C24.8413 55.3454 24.796 55.1454 24.796 54.9268C24.796 54.4574 24.9667 54.0894 25.308 53.8228C25.6547 53.5561 26.116 53.4228 26.692 53.4228C27.268 53.4228 27.7267 53.5561 28.068 53.8228C28.4147 54.0894 28.588 54.4574 28.588 54.9268C28.588 55.1401 28.5427 55.3401 28.452 55.5268C28.3613 55.7081 28.236 55.8628 28.076 55.9908C27.9213 56.1188 27.74 56.2068 27.532 56.2548V56.2468C27.7613 56.2841 27.964 56.3668 28.14 56.4948C28.3213 56.6228 28.4627 56.7854 28.564 56.9828C28.6707 57.1748 28.724 57.3961 28.724 57.6468C28.724 58.1374 28.5427 58.5214 28.18 58.7988C27.8227 59.0708 27.3267 59.2068 26.692 59.2068ZM26.692 58.6068C27.1347 58.6068 27.4707 58.5214 27.7 58.3508C27.9347 58.1801 28.052 57.9294 28.052 57.5988C28.052 57.2681 27.9347 57.0148 27.7 56.8388C27.4707 56.6628 27.1347 56.5748 26.692 56.5748C26.2493 56.5748 25.9107 56.6628 25.676 56.8388C25.4467 57.0148 25.332 57.2681 25.332 57.5988C25.332 57.9294 25.4467 58.1801 25.676 58.3508C25.9107 58.5214 26.2493 58.6068 26.692 58.6068ZM26.692 55.9748C27.076 55.9748 27.3773 55.8894 27.596 55.7188C27.8147 55.5428 27.924 55.3001 27.924 54.9908C27.924 54.6868 27.8147 54.4494 27.596 54.2788C27.3773 54.1028 27.076 54.0148 26.692 54.0148C26.3133 54.0148 26.0147 54.1028 25.796 54.2788C25.5773 54.4494 25.468 54.6868 25.468 54.9908C25.468 55.3001 25.5773 55.5428 25.796 55.7188C26.0147 55.8894 26.3133 55.9748 26.692 55.9748ZM31.5529 59.2068C31.3075 59.2068 31.0702 59.1801 30.8409 59.1268C30.6169 59.0734 30.4062 58.9961 30.2089 58.8948C30.0115 58.7881 29.8355 58.6601 29.6809 58.5108L29.9609 57.9508C30.2062 58.1748 30.4569 58.3374 30.7129 58.4388C30.9742 58.5348 31.2542 58.5828 31.5529 58.5828C31.9475 58.5828 32.2542 58.4814 32.4729 58.2788C32.6969 58.0708 32.8089 57.7801 32.8089 57.4068C32.8089 57.0388 32.7049 56.7454 32.4969 56.5268C32.2889 56.3081 32.0009 56.1988 31.6329 56.1988C31.3875 56.1988 31.1635 56.2494 30.9609 56.3508C30.7635 56.4468 30.5795 56.6094 30.4089 56.8388H29.8489V53.4948H33.2249V54.1108H30.4969V56.2308H30.4649C30.5929 56.0388 30.7689 55.8841 30.9929 55.7668C31.2169 55.6441 31.4675 55.5828 31.7449 55.5828C32.1075 55.5828 32.4195 55.6601 32.6809 55.8148C32.9422 55.9641 33.1422 56.1721 33.2809 56.4388C33.4249 56.7054 33.4969 57.0174 33.4969 57.3748C33.4969 57.7534 33.4169 58.0814 33.2569 58.3588C33.0969 58.6308 32.8729 58.8414 32.5849 58.9908C32.2969 59.1348 31.9529 59.2068 31.5529 59.2068ZM35.2057 56.4468L34.7337 56.1668L35.4377 55.1028L35.4537 55.1268L34.1657 55.2068V54.6548L35.4537 54.7348L35.4297 54.7508L34.7337 53.6948L35.2137 53.4148L35.7817 54.5988H35.7737L36.3257 53.4148L36.8057 53.6948L36.1017 54.7508L36.0777 54.7348L37.3737 54.6548V55.2068L36.0857 55.1268L36.1097 55.1028L36.8057 56.1668L36.3337 56.4468L35.7737 55.2708H35.7817L35.2057 56.4468ZM40.1154 59.2068C39.87 59.2068 39.6327 59.1801 39.4034 59.1268C39.1794 59.0734 38.9687 58.9961 38.7714 58.8948C38.574 58.7881 38.398 58.6601 38.2434 58.5108L38.5234 57.9508C38.7687 58.1748 39.0194 58.3374 39.2754 58.4388C39.5367 58.5348 39.8167 58.5828 40.1154 58.5828C40.51 58.5828 40.8167 58.4814 41.0354 58.2788C41.2594 58.0708 41.3714 57.7801 41.3714 57.4068C41.3714 57.0388 41.2674 56.7454 41.0594 56.5268C40.8514 56.3081 40.5634 56.1988 40.1954 56.1988C39.95 56.1988 39.726 56.2494 39.5234 56.3508C39.326 56.4468 39.142 56.6094 38.9714 56.8388H38.4114V53.4948H41.7874V54.1108H39.0594V56.2308H39.0274C39.1554 56.0388 39.3314 55.8841 39.5554 55.7668C39.7794 55.6441 40.03 55.5828 40.3074 55.5828C40.67 55.5828 40.982 55.6601 41.2434 55.8148C41.5047 55.9641 41.7047 56.1721 41.8434 56.4388C41.9874 56.7054 42.0594 57.0174 42.0594 57.3748C42.0594 57.7534 41.9794 58.0814 41.8194 58.3588C41.6594 58.6308 41.4354 58.8414 41.1474 58.9908C40.8594 59.1348 40.5154 59.2068 40.1154 59.2068ZM44.8482 59.2068C44.4162 59.2068 44.0509 59.0974 43.7522 58.8788C43.4536 58.6548 43.2269 58.3294 43.0722 57.9028C42.9229 57.4708 42.8482 56.9401 42.8482 56.3108C42.8482 55.6814 42.9229 55.1534 43.0722 54.7268C43.2269 54.3001 43.4536 53.9774 43.7522 53.7588C44.0509 53.5348 44.4162 53.4228 44.8482 53.4228C45.2909 53.4228 45.6589 53.5321 45.9522 53.7508C46.2456 53.9694 46.4669 54.2921 46.6162 54.7188C46.7709 55.1454 46.8482 55.6734 46.8482 56.3028C46.8482 56.9321 46.7709 57.4628 46.6162 57.8948C46.4669 58.3268 46.2429 58.6548 45.9442 58.8788C45.6456 59.0974 45.2802 59.2068 44.8482 59.2068ZM44.8482 58.5828C45.2856 58.5828 45.6109 58.3988 45.8242 58.0308C46.0376 57.6628 46.1442 57.0868 46.1442 56.3028C46.1442 55.5241 46.0376 54.9534 45.8242 54.5908C45.6162 54.2281 45.2936 54.0468 44.8562 54.0468C44.4136 54.0468 44.0856 54.2308 43.8722 54.5988C43.6589 54.9614 43.5522 55.5321 43.5522 56.3108C43.5522 57.0841 43.6589 57.6574 43.8722 58.0308C44.0856 58.3988 44.4109 58.5828 44.8482 58.5828ZM48.5651 56.4468L48.0931 56.1668L48.7971 55.1028L48.8131 55.1268L47.5251 55.2068V54.6548L48.8131 54.7348L48.7891 54.7508L48.0931 53.6948L48.5731 53.4148L49.1411 54.5988H49.1331L49.6851 53.4148L50.1651 53.6948L49.4611 54.7508L49.4371 54.7348L50.7331 54.6548V55.2068L49.4451 55.1268L49.4691 55.1028L50.1651 56.1668L49.6931 56.4468L49.1331 55.2708H49.1411L48.5651 56.4468ZM51.7467 59.1348V58.5268H53.2907V54.0628L53.6667 54.1188L52.0267 55.1748L51.7067 54.6228L53.4747 53.4948H53.9947V58.5268H55.4187V59.1348H51.7467ZM58.1276 59.2068C57.893 59.2068 57.661 59.1828 57.4316 59.1348C57.2023 59.0868 56.9836 59.0121 56.7756 58.9108C56.573 58.8094 56.3863 58.6841 56.2156 58.5348L56.4876 57.9748C56.7436 58.1934 57.0103 58.3508 57.2876 58.4468C57.565 58.5374 57.845 58.5828 58.1276 58.5828C58.3623 58.5828 58.573 58.5481 58.7596 58.4788C58.9516 58.4041 59.101 58.2948 59.2076 58.1508C59.3196 58.0014 59.3756 57.8094 59.3756 57.5748C59.3756 57.2494 59.2663 57.0041 59.0476 56.8388C58.829 56.6681 58.5116 56.5828 58.0956 56.5828H57.2476V55.9668H57.9916C58.2316 55.9668 58.445 55.9294 58.6316 55.8548C58.8236 55.7748 58.973 55.6574 59.0796 55.5028C59.1863 55.3481 59.2396 55.1561 59.2396 54.9268C59.2396 54.6334 59.1383 54.4148 58.9356 54.2708C58.733 54.1214 58.4716 54.0468 58.1516 54.0468C57.869 54.0468 57.5916 54.0948 57.3196 54.1908C57.053 54.2868 56.8076 54.4521 56.5836 54.6868L56.3196 54.1348C56.5436 53.8948 56.821 53.7161 57.1516 53.5988C57.4823 53.4814 57.8263 53.4228 58.1836 53.4228C58.541 53.4228 58.8476 53.4814 59.1036 53.5988C59.365 53.7108 59.5676 53.8761 59.7116 54.0948C59.8556 54.3081 59.9276 54.5668 59.9276 54.8708C59.9276 55.1908 59.837 55.4734 59.6556 55.7188C59.4743 55.9641 59.229 56.1374 58.9196 56.2388V56.2308C59.1436 56.2734 59.341 56.3561 59.5116 56.4788C59.6823 56.5961 59.8183 56.7508 59.9196 56.9428C60.021 57.1294 60.0716 57.3508 60.0716 57.6068C60.0716 57.9428 59.989 58.2308 59.8236 58.4708C59.6636 58.7108 59.437 58.8948 59.1436 59.0228C58.8556 59.1454 58.517 59.2068 58.1276 59.2068ZM63.0045 59.2068C62.5725 59.2068 62.2072 59.0974 61.9085 58.8788C61.6098 58.6548 61.3832 58.3294 61.2285 57.9028C61.0792 57.4708 61.0045 56.9401 61.0045 56.3108C61.0045 55.6814 61.0792 55.1534 61.2285 54.7268C61.3832 54.3001 61.6098 53.9774 61.9085 53.7588C62.2072 53.5348 62.5725 53.4228 63.0045 53.4228C63.4472 53.4228 63.8152 53.5321 64.1085 53.7508C64.4018 53.9694 64.6232 54.2921 64.7725 54.7188C64.9272 55.1454 65.0045 55.6734 65.0045 56.3028C65.0045 56.9321 64.9272 57.4628 64.7725 57.8948C64.6232 58.3268 64.3992 58.6548 64.1005 58.8788C63.8018 59.0974 63.4365 59.2068 63.0045 59.2068ZM63.0045 58.5828C63.4418 58.5828 63.7672 58.3988 63.9805 58.0308C64.1938 57.6628 64.3005 57.0868 64.3005 56.3028C64.3005 55.5241 64.1938 54.9534 63.9805 54.5908C63.7725 54.2281 63.4498 54.0468 63.0125 54.0468C62.5698 54.0468 62.2418 54.2308 62.0285 54.5988C61.8152 54.9614 61.7085 55.5321 61.7085 56.3108C61.7085 57.0841 61.8152 57.6574 62.0285 58.0308C62.2418 58.3988 62.5672 58.5828 63.0045 58.5828Z" fill="black"/>
<defs>
<filter id="filter0_d_535_40" x="0.0999999" y="25.0874" width="89.6301" height="55.0484" filterUnits="userSpaceOnUse" color-interpolation-filters="sRGB">
<feFlood flood-opacity="0" result="BackgroundImageFix"/>
<feColorMatrix in="SourceAlpha" type="matrix" values="0 0 0 0 0 0 0 0 0 0 0 0 0 0 0 0 0 0 127 0" result="hardAlpha"/>
<feOffset dy="4"/>
<feGaussianBlur stdDeviation="1.95"/>
<feComposite in2="hardAlpha" operator="out"/>
<feColorMatrix type="matrix" values="0 0 0 0 0 0 0 0 0 0 0 0 0 0 0 0 0 0 0.2 0"/>
<feBlend mode="normal" in2="BackgroundImageFix" result="effect1_dropShadow_535_40"/>
<feBlend mode="normal" in="SourceGraphic" in2="effect1_dropShadow_535_40" result="shape"/>
</filter>
<clipPath id="clip0_535_40">
<rect width="16.8474" height="16.9251" fill="white" transform="translate(35.2881 8.21948)"/>
</clipPath>
</defs>
</svg>
