<svg width="136" height="80" viewBox="0 0 136 80" fill="none" xmlns="http://www.w3.org/2000/svg">
<g filter="url(#filter0_d_535_85)">
<rect x="4" y="24.1074" width="127.28" height="47.0401" rx="2" fill="white"/>
<rect x="4.25" y="24.3574" width="126.78" height="46.5401" rx="1.75" stroke="white" stroke-width="0.5"/>
</g>
<rect x="51.75" y="0.0776367" width="30.0189" height="30.1539" rx="3" fill="#CB3335"/>
<g clip-path="url(#clip0_535_85)">
<path fill-rule="evenodd" clip-rule="evenodd" d="M66.2437 2.4979C66.3252 2.49281 66.4105 2.50638 66.4337 2.52758C66.4569 2.54878 67.0935 2.88504 67.8479 3.27516C68.6026 3.66485 69.5428 4.15123 69.9375 4.35561C70.3322 4.55958 72.0325 5.43734 73.7156 6.30619C75.3991 7.17463 76.8086 7.9167 76.8488 7.95486C76.9163 8.01931 76.9214 8.37508 76.9239 13.3457C76.926 17.6026 76.9155 18.6826 76.8724 18.7445C76.8428 18.7869 74.4535 20.0323 71.5627 21.5118C68.6719 22.9917 66.269 24.2024 66.2226 24.2024C66.1762 24.2024 65.9292 24.0913 65.6738 23.956C65.4184 23.8203 63.0266 22.5846 60.3586 21.2099C56.361 19.1495 55.4939 18.6873 55.4285 18.5826C55.3672 18.4846 55.3529 18.3973 55.3656 18.2009C55.3748 18.061 55.4154 15.7046 55.4555 12.964C55.496 10.2235 55.5462 7.93366 55.5673 7.87556C55.5994 7.78694 56.4644 7.33873 60.8509 5.13839C64.3559 3.3799 66.1449 2.50426 66.2437 2.4979ZM56.61 8.02058C56.6151 8.03415 57.2694 8.39247 58.0647 8.81693C58.86 9.24139 59.5583 9.61582 59.6161 9.64932C59.7174 9.70826 59.9086 9.61328 64.4813 7.23484C67.099 5.87283 69.2266 4.74658 69.2093 4.73131C69.192 4.71605 68.5271 4.36791 67.7318 3.95744C66.9365 3.54697 66.2623 3.2124 66.2332 3.21368C66.204 3.21495 64.0249 4.29158 61.3908 5.60611C58.7566 6.92063 56.6054 8.00702 56.61 8.02058ZM63.4884 8.49042C61.8239 9.35334 60.4612 10.0687 60.4612 10.0806C60.4608 10.092 60.8639 10.3193 61.3574 10.5852L62.2545 11.0682C62.7125 10.8328 64.8473 9.71844 67.2936 8.43996C69.7399 7.16191 71.7438 6.09672 71.7472 6.0734C71.7501 6.05007 71.3596 5.82576 70.8788 5.57515C70.3984 5.32454 69.9995 5.11973 69.9923 5.12058C69.9856 5.12143 69.2 5.52681 68.2472 6.02166C67.2944 6.51652 65.1529 7.6275 63.4884 8.49042ZM65.7068 10.0042C64.2157 10.7807 62.9949 11.4307 62.9945 11.4481C62.9936 11.4655 63.7058 11.8615 64.5763 12.328L66.1593 13.1761C73.5696 9.36606 75.7533 8.23557 75.7934 8.20547C75.8563 8.1584 75.6532 8.04179 74.2201 7.30311C73.3146 6.83667 72.5602 6.45249 72.5433 6.44952C72.5264 6.44655 71.5914 6.92741 70.4651 7.5181C69.3389 8.10836 67.1978 9.2274 65.7068 10.0042ZM56.1161 13.3881C56.0629 16.8461 56.0549 18.2141 56.0878 18.2484C56.1127 18.2743 56.5991 18.5346 57.1677 18.8272C57.7367 19.1194 59.9306 20.2486 62.0434 21.3363C64.1562 22.4235 65.8891 23.3081 65.8946 23.3013C65.8997 23.2949 65.8862 21.1425 65.8642 18.519C65.8423 15.895 65.819 13.7455 65.8123 13.7417C65.806 13.7379 65.0786 13.3444 64.1963 12.8678L62.5922 12.001C62.5508 12.205 62.5272 12.7698 62.5124 13.3881C62.4892 14.388 62.4778 14.5237 62.4086 14.6178C62.3565 14.6885 62.2826 14.7276 62.1869 14.7352C62.0713 14.745 61.8066 14.6216 60.8213 14.0992C60.1493 13.743 59.5557 13.4182 59.5021 13.3775L59.405 13.3033L59.3839 10.2739C57.5189 9.26726 56.8017 8.88054 56.5864 8.7652C56.3711 8.64944 56.1938 8.55954 56.1925 8.56505C56.1917 8.57056 56.1571 10.7408 56.1161 13.3881ZM66.5253 13.7354C66.5063 13.7426 66.5063 15.9001 66.5253 18.5296C66.5447 21.159 66.57 23.3114 66.5814 23.3119C66.5928 23.3127 68.7774 22.1992 71.4361 20.8372L76.2696 18.3612C76.286 10.8922 76.2768 8.72491 76.259 8.72661C76.2417 8.72873 74.0525 9.85328 71.3938 11.2263C68.7352 12.5994 66.5447 13.7282 66.5253 13.7354ZM60.0391 12.9428C61.3503 13.6327 61.7534 13.8388 61.7817 13.8452C61.8188 13.8537 61.8408 13.6654 61.864 13.1455C61.8817 12.7541 61.8957 12.2525 61.8957 12.0311V11.6283C60.5216 10.8888 60.1037 10.6742 60.0805 10.6742C60.0534 10.6742 60.0382 11.0805 60.0387 11.8085L60.0391 12.9428Z" fill="white"/>
</g>
<path d="M16.832 38.1345V32.4945H19.152C19.5573 32.4945 19.9013 32.5612 20.184 32.6945C20.4667 32.8279 20.6827 33.0225 20.832 33.2785C20.9867 33.5292 21.064 33.8332 21.064 34.1905C21.064 34.5479 20.9867 34.8545 20.832 35.1105C20.6827 35.3665 20.464 35.5639 20.176 35.7025C19.8933 35.8412 19.552 35.9105 19.152 35.9105H17.544V38.1345H16.832ZM17.544 35.3025H19.048C19.4747 35.3025 19.7973 35.2119 20.016 35.0305C20.2347 34.8439 20.344 34.5665 20.344 34.1985C20.344 33.8252 20.2347 33.5505 20.016 33.3745C19.7973 33.1932 19.4747 33.1025 19.048 33.1025H17.544V35.3025ZM21.7242 33.2305V32.4385H22.5882V33.2305H21.7242ZM21.8042 38.1345V34.1825H22.5162V38.1345H21.8042ZM25.441 38.2065C24.9983 38.2065 24.6143 38.1265 24.289 37.9665C23.969 37.8012 23.7237 37.5665 23.553 37.2625C23.3823 36.9532 23.297 36.5852 23.297 36.1585C23.297 35.7585 23.377 35.4065 23.537 35.1025C23.697 34.7932 23.9237 34.5505 24.217 34.3745C24.5103 34.1985 24.8597 34.1105 25.265 34.1105C25.649 34.1105 25.9743 34.1932 26.241 34.3585C26.513 34.5239 26.7183 34.7559 26.857 35.0545C27.001 35.3532 27.073 35.7079 27.073 36.1185V36.3505H23.833V35.8545H26.609L26.457 36.0145C26.457 35.5772 26.353 35.2412 26.145 35.0065C25.9423 34.7719 25.649 34.6545 25.265 34.6545C25.0143 34.6545 24.7903 34.7132 24.593 34.8305C24.401 34.9425 24.2517 35.1025 24.145 35.3105C24.0383 35.5185 23.985 35.7719 23.985 36.0705V36.1505C23.985 36.4705 24.0437 36.7399 24.161 36.9585C24.2783 37.1772 24.4463 37.3425 24.665 37.4545C24.8837 37.5665 25.145 37.6225 25.449 37.6225C25.6677 37.6225 25.889 37.5932 26.113 37.5345C26.3423 37.4705 26.5557 37.3585 26.753 37.1985L26.993 37.7105C26.7903 37.8812 26.5477 38.0065 26.265 38.0865C25.9877 38.1665 25.713 38.2065 25.441 38.2065ZM29.6079 38.2065C29.2026 38.2065 28.8506 38.1212 28.5519 37.9505C28.2533 37.7799 28.0213 37.5425 27.8559 37.2385C27.6906 36.9292 27.6079 36.5665 27.6079 36.1505C27.6079 35.7345 27.6906 35.3745 27.8559 35.0705C28.0213 34.7612 28.2533 34.5239 28.5519 34.3585C28.8559 34.1932 29.2106 34.1105 29.6159 34.1105C29.8879 34.1105 30.1466 34.1559 30.3919 34.2465C30.6373 34.3372 30.8399 34.4599 30.9999 34.6145L30.7519 35.1425C30.5973 35.0039 30.4239 34.8999 30.2319 34.8305C30.0399 34.7559 29.8533 34.7185 29.6719 34.7185C29.2559 34.7185 28.9279 34.8439 28.6879 35.0945C28.4479 35.3452 28.3279 35.6999 28.3279 36.1585C28.3279 36.6119 28.4479 36.9665 28.6879 37.2225C28.9279 37.4732 29.2533 37.5985 29.6639 37.5985C29.8506 37.5985 30.0373 37.5639 30.2239 37.4945C30.4159 37.4199 30.5866 37.3159 30.7359 37.1825L30.9839 37.7105C30.8293 37.8652 30.6293 37.9879 30.3839 38.0785C30.1386 38.1639 29.8799 38.2065 29.6079 38.2065ZM33.3363 38.2065C32.8936 38.2065 32.5096 38.1265 32.1843 37.9665C31.8643 37.8012 31.619 37.5665 31.4483 37.2625C31.2776 36.9532 31.1923 36.5852 31.1923 36.1585C31.1923 35.7585 31.2723 35.4065 31.4323 35.1025C31.5923 34.7932 31.819 34.5505 32.1123 34.3745C32.4056 34.1985 32.755 34.1105 33.1603 34.1105C33.5443 34.1105 33.8696 34.1932 34.1363 34.3585C34.4083 34.5239 34.6136 34.7559 34.7523 35.0545C34.8963 35.3532 34.9683 35.7079 34.9683 36.1185V36.3505H31.7283V35.8545H34.5043L34.3523 36.0145C34.3523 35.5772 34.2483 35.2412 34.0403 35.0065C33.8376 34.7719 33.5443 34.6545 33.1603 34.6545C32.9096 34.6545 32.6856 34.7132 32.4883 34.8305C32.2963 34.9425 32.147 35.1025 32.0403 35.3105C31.9336 35.5185 31.8803 35.7719 31.8803 36.0705V36.1505C31.8803 36.4705 31.939 36.7399 32.0563 36.9585C32.1736 37.1772 32.3416 37.3425 32.5603 37.4545C32.779 37.5665 33.0403 37.6225 33.3443 37.6225C33.563 37.6225 33.7843 37.5932 34.0083 37.5345C34.2376 37.4705 34.451 37.3585 34.6483 37.1985L34.8883 37.7105C34.6856 37.8812 34.443 38.0065 34.1603 38.0865C33.883 38.1665 33.6083 38.2065 33.3363 38.2065ZM37.1993 38.2065C36.9806 38.2065 36.7646 38.1852 36.5513 38.1425C36.3433 38.1052 36.1486 38.0519 35.9673 37.9825C35.7913 37.9079 35.6393 37.8172 35.5113 37.7105L35.7433 37.2065C35.8766 37.3079 36.0233 37.3905 36.1833 37.4545C36.3486 37.5185 36.5166 37.5665 36.6873 37.5985C36.8633 37.6252 37.0313 37.6385 37.1913 37.6385C37.5219 37.6385 37.7753 37.5879 37.9513 37.4865C38.1326 37.3852 38.2233 37.2439 38.2233 37.0625C38.2233 36.9079 38.1699 36.7905 38.0633 36.7105C37.9619 36.6252 37.7913 36.5612 37.5513 36.5185L36.7273 36.3745C36.3593 36.3052 36.0819 36.1799 35.8953 35.9985C35.7139 35.8172 35.6233 35.5799 35.6233 35.2865C35.6233 35.0519 35.6873 34.8465 35.8153 34.6705C35.9486 34.4945 36.1379 34.3585 36.3833 34.2625C36.6286 34.1612 36.9219 34.1105 37.2633 34.1105C37.4499 34.1105 37.6393 34.1292 37.8313 34.1665C38.0286 34.2039 38.2099 34.2599 38.3753 34.3345C38.5459 34.4039 38.6846 34.4919 38.7913 34.5985L38.5513 35.1025C38.4446 35.0012 38.3166 34.9212 38.1673 34.8625C38.0233 34.7985 37.8713 34.7532 37.7113 34.7265C37.5566 34.6945 37.4046 34.6785 37.2553 34.6785C36.9459 34.6785 36.7059 34.7319 36.5353 34.8385C36.3646 34.9399 36.2793 35.0839 36.2793 35.2705C36.2793 35.4199 36.3273 35.5372 36.4233 35.6225C36.5246 35.7079 36.6873 35.7719 36.9113 35.8145L37.7113 35.9585C38.1059 36.0332 38.3993 36.1585 38.5913 36.3345C38.7833 36.5052 38.8793 36.7425 38.8793 37.0465C38.8793 37.2812 38.8099 37.4865 38.6713 37.6625C38.5326 37.8332 38.3379 37.9665 38.0873 38.0625C37.8366 38.1585 37.5406 38.2065 37.1993 38.2065Z" fill="#CE3439"/>
<path d="M55.1774 38.1345V37.5265H56.7214V33.0625L57.0974 33.1185L55.4574 34.1745L55.1374 33.6225L56.9054 32.4945H57.4254V37.5265H58.8494V38.1345H55.1774ZM61.6383 38.2065C61.2063 38.2065 60.8409 38.0972 60.5423 37.8785C60.2436 37.6545 60.0169 37.3292 59.8623 36.9025C59.7129 36.4705 59.6383 35.9399 59.6383 35.3105C59.6383 34.6812 59.7129 34.1532 59.8623 33.7265C60.0169 33.2999 60.2436 32.9772 60.5423 32.7585C60.8409 32.5345 61.2063 32.4225 61.6383 32.4225C62.0809 32.4225 62.4489 32.5319 62.7423 32.7505C63.0356 32.9692 63.2569 33.2919 63.4063 33.7185C63.5609 34.1452 63.6383 34.6732 63.6383 35.3025C63.6383 35.9319 63.5609 36.4625 63.4063 36.8945C63.2569 37.3265 63.0329 37.6545 62.7343 37.8785C62.4356 38.0972 62.0703 38.2065 61.6383 38.2065ZM61.6383 37.5825C62.0756 37.5825 62.4009 37.3985 62.6143 37.0305C62.8276 36.6625 62.9343 36.0865 62.9343 35.3025C62.9343 34.5239 62.8276 33.9532 62.6143 33.5905C62.4063 33.2279 62.0836 33.0465 61.6463 33.0465C61.2036 33.0465 60.8756 33.2305 60.6623 33.5985C60.4489 33.9612 60.3423 34.5319 60.3423 35.3105C60.3423 36.0839 60.4489 36.6572 60.6623 37.0305C60.8756 37.3985 61.2009 37.5825 61.6383 37.5825ZM66.4352 38.2065C66.0032 38.2065 65.6378 38.0972 65.3392 37.8785C65.0405 37.6545 64.8138 37.3292 64.6592 36.9025C64.5098 36.4705 64.4352 35.9399 64.4352 35.3105C64.4352 34.6812 64.5098 34.1532 64.6592 33.7265C64.8138 33.2999 65.0405 32.9772 65.3392 32.7585C65.6378 32.5345 66.0032 32.4225 66.4352 32.4225C66.8778 32.4225 67.2458 32.5319 67.5392 32.7505C67.8325 32.9692 68.0538 33.2919 68.2032 33.7185C68.3578 34.1452 68.4352 34.6732 68.4352 35.3025C68.4352 35.9319 68.3578 36.4625 68.2032 36.8945C68.0538 37.3265 67.8298 37.6545 67.5312 37.8785C67.2325 38.0972 66.8672 38.2065 66.4352 38.2065ZM66.4352 37.5825C66.8725 37.5825 67.1978 37.3985 67.4112 37.0305C67.6245 36.6625 67.7312 36.0865 67.7312 35.3025C67.7312 34.5239 67.6245 33.9532 67.4112 33.5905C67.2032 33.2279 66.8805 33.0465 66.4432 33.0465C66.0005 33.0465 65.6725 33.2305 65.4592 33.5985C65.2458 33.9612 65.1392 34.5319 65.1392 35.3105C65.1392 36.0839 65.2458 36.6572 65.4592 37.0305C65.6725 37.3985 65.9978 37.5825 66.4352 37.5825ZM71.232 38.2065C70.8 38.2065 70.4347 38.0972 70.136 37.8785C69.8374 37.6545 69.6107 37.3292 69.456 36.9025C69.3067 36.4705 69.232 35.9399 69.232 35.3105C69.232 34.6812 69.3067 34.1532 69.456 33.7265C69.6107 33.2999 69.8374 32.9772 70.136 32.7585C70.4347 32.5345 70.8 32.4225 71.232 32.4225C71.6747 32.4225 72.0427 32.5319 72.336 32.7505C72.6294 32.9692 72.8507 33.2919 73 33.7185C73.1547 34.1452 73.232 34.6732 73.232 35.3025C73.232 35.9319 73.1547 36.4625 73 36.8945C72.8507 37.3265 72.6267 37.6545 72.328 37.8785C72.0294 38.0972 71.664 38.2065 71.232 38.2065ZM71.232 37.5825C71.6694 37.5825 71.9947 37.3985 72.208 37.0305C72.4214 36.6625 72.528 36.0865 72.528 35.3025C72.528 34.5239 72.4214 33.9532 72.208 33.5905C72 33.2279 71.6774 33.0465 71.24 33.0465C70.7974 33.0465 70.4694 33.2305 70.256 33.5985C70.0427 33.9612 69.936 34.5319 69.936 35.3105C69.936 36.0839 70.0427 36.6572 70.256 37.0305C70.4694 37.3985 70.7947 37.5825 71.232 37.5825ZM76.6953 38.1345V32.4945H77.3273L80.7833 37.0865H80.7513V32.4945H81.4313V38.1345H80.7833L77.3433 33.5585H77.3753V38.1345H76.6953ZM84.6937 38.2065C84.2937 38.2065 83.9471 38.1212 83.6537 37.9505C83.3604 37.7799 83.1337 37.5425 82.9737 37.2385C82.8137 36.9292 82.7337 36.5665 82.7337 36.1505C82.7337 35.7399 82.8137 35.3825 82.9737 35.0785C83.1337 34.7692 83.3604 34.5319 83.6537 34.3665C83.9471 34.1959 84.2937 34.1105 84.6937 34.1105C85.0937 34.1105 85.4377 34.1959 85.7257 34.3665C86.0191 34.5319 86.2457 34.7692 86.4057 35.0785C86.5657 35.3825 86.6457 35.7399 86.6457 36.1505C86.6457 36.5665 86.5657 36.9292 86.4057 37.2385C86.2511 37.5425 86.0271 37.7799 85.7337 37.9505C85.4404 38.1212 85.0937 38.2065 84.6937 38.2065ZM84.6857 37.6065C85.0751 37.6065 85.3817 37.4759 85.6057 37.2145C85.8297 36.9532 85.9417 36.5985 85.9417 36.1505C85.9417 35.7025 85.8297 35.3505 85.6057 35.0945C85.3871 34.8385 85.0831 34.7105 84.6937 34.7105C84.3044 34.7105 83.9977 34.8385 83.7737 35.0945C83.5497 35.3505 83.4377 35.7025 83.4377 36.1505C83.4377 36.5985 83.5497 36.9532 83.7737 37.2145C84.0031 37.4759 84.3071 37.6065 84.6857 37.6065ZM89.2969 38.2065C89.0782 38.2065 88.8622 38.1852 88.6489 38.1425C88.4409 38.1052 88.2462 38.0519 88.0649 37.9825C87.8889 37.9079 87.7369 37.8172 87.6089 37.7105L87.8409 37.2065C87.9742 37.3079 88.1209 37.3905 88.2809 37.4545C88.4462 37.5185 88.6142 37.5665 88.7849 37.5985C88.9609 37.6252 89.1289 37.6385 89.2889 37.6385C89.6196 37.6385 89.8729 37.5879 90.0489 37.4865C90.2302 37.3852 90.3209 37.2439 90.3209 37.0625C90.3209 36.9079 90.2676 36.7905 90.1609 36.7105C90.0596 36.6252 89.8889 36.5612 89.6489 36.5185L88.8249 36.3745C88.4569 36.3052 88.1796 36.1799 87.9929 35.9985C87.8116 35.8172 87.7209 35.5799 87.7209 35.2865C87.7209 35.0519 87.7849 34.8465 87.9129 34.6705C88.0462 34.4945 88.2356 34.3585 88.4809 34.2625C88.7262 34.1612 89.0196 34.1105 89.3609 34.1105C89.5476 34.1105 89.7369 34.1292 89.9289 34.1665C90.1262 34.2039 90.3076 34.2599 90.4729 34.3345C90.6436 34.4039 90.7822 34.4919 90.8889 34.5985L90.6489 35.1025C90.5422 35.0012 90.4142 34.9212 90.2649 34.8625C90.1209 34.7985 89.9689 34.7532 89.8089 34.7265C89.6542 34.6945 89.5022 34.6785 89.3529 34.6785C89.0436 34.6785 88.8036 34.7319 88.6329 34.8385C88.4622 34.9399 88.3769 35.0839 88.3769 35.2705C88.3769 35.4199 88.4249 35.5372 88.5209 35.6225C88.6222 35.7079 88.7849 35.7719 89.0089 35.8145L89.8089 35.9585C90.2036 36.0332 90.4969 36.1585 90.6889 36.3345C90.8809 36.5052 90.9769 36.7425 90.9769 37.0465C90.9769 37.2812 90.9076 37.4865 90.7689 37.6625C90.6302 37.8332 90.4356 37.9665 90.1849 38.0625C89.9342 38.1585 89.6382 38.2065 89.2969 38.2065ZM91.8814 38.6385L91.3214 38.4865L93.3614 32.1185L93.9134 32.2705L91.8814 38.6385ZM96.9627 38.2065C96.424 38.2065 95.9547 38.0919 95.5547 37.8625C95.16 37.6279 94.856 37.2945 94.6427 36.8625C94.4293 36.4252 94.3227 35.9079 94.3227 35.3105C94.3227 34.7132 94.4293 34.1985 94.6427 33.7665C94.856 33.3345 95.16 33.0039 95.5547 32.7745C95.9493 32.5399 96.4187 32.4225 96.9627 32.4225C97.3573 32.4225 97.7173 32.4839 98.0427 32.6065C98.368 32.7239 98.648 32.8972 98.8827 33.1265L98.6027 33.6865C98.3573 33.4679 98.104 33.3105 97.8427 33.2145C97.5867 33.1185 97.2987 33.0705 96.9787 33.0705C96.3813 33.0705 95.912 33.2625 95.5707 33.6465C95.2347 34.0252 95.0667 34.5799 95.0667 35.3105C95.0667 36.0359 95.2347 36.5932 95.5707 36.9825C95.9067 37.3665 96.376 37.5585 96.9787 37.5585C97.2987 37.5585 97.5867 37.5105 97.8427 37.4145C98.104 37.3185 98.3573 37.1612 98.6027 36.9425L98.8827 37.5025C98.648 37.7319 98.368 37.9079 98.0427 38.0305C97.7173 38.1479 97.3573 38.2065 96.9627 38.2065ZM101.614 38.2065C101.14 38.2065 100.78 38.0812 100.534 37.8305C100.294 37.5799 100.174 37.2225 100.174 36.7585V34.7665H99.3743V34.1825H100.198V33.0065H100.886V34.1825H102.302V34.7665H100.886V36.6945C100.886 36.9985 100.953 37.2252 101.086 37.3745C101.225 37.5185 101.436 37.5905 101.718 37.5905C101.83 37.5905 101.937 37.5799 102.038 37.5585C102.145 37.5372 102.246 37.5052 102.342 37.4625L102.454 38.0225C102.348 38.0812 102.217 38.1265 102.062 38.1585C101.913 38.1905 101.764 38.2065 101.614 38.2065ZM103.286 38.1345V34.1825H103.95V35.0385C104.078 34.7452 104.27 34.5185 104.526 34.3585C104.782 34.1932 105.07 34.1105 105.39 34.1105C105.716 34.1105 105.988 34.1692 106.206 34.2865C106.425 34.3985 106.588 34.5745 106.694 34.8145C106.806 35.0492 106.862 35.3425 106.862 35.6945V38.1345H106.15V35.7345C106.15 35.5212 106.121 35.3399 106.062 35.1905C106.004 35.0412 105.905 34.9265 105.766 34.8465C105.633 34.7612 105.454 34.7185 105.23 34.7185C104.996 34.7185 104.782 34.7719 104.59 34.8785C104.404 34.9852 104.257 35.1292 104.15 35.3105C104.049 35.4919 103.998 35.6945 103.998 35.9185V38.1345H103.286Z" fill="black"/>
<path d="M18.72 51.2065C18.4107 51.2065 18.1173 51.1825 17.84 51.1345C17.5627 51.0865 17.3093 51.0145 17.08 50.9185C16.8507 50.8225 16.6507 50.7052 16.48 50.5665L16.744 49.9745C16.9253 50.1185 17.1173 50.2359 17.32 50.3265C17.528 50.4119 17.7467 50.4732 17.976 50.5105C18.2107 50.5479 18.4587 50.5665 18.72 50.5665C19.1627 50.5665 19.5013 50.4785 19.736 50.3025C19.976 50.1265 20.096 49.8865 20.096 49.5825C20.096 49.4225 20.056 49.2892 19.976 49.1825C19.9013 49.0759 19.7813 48.9879 19.616 48.9185C19.456 48.8492 19.248 48.7879 18.992 48.7345L18.072 48.5585C17.5547 48.4572 17.1813 48.2785 16.952 48.0225C16.7227 47.7665 16.608 47.4439 16.608 47.0545C16.608 46.7239 16.6987 46.4385 16.88 46.1985C17.0667 45.9532 17.3227 45.7639 17.648 45.6305C17.9787 45.4919 18.3547 45.4225 18.776 45.4225C19.0427 45.4225 19.2907 45.4492 19.52 45.5025C19.7547 45.5505 19.968 45.6252 20.16 45.7265C20.3573 45.8279 20.5333 45.9505 20.688 46.0945L20.424 46.6785C20.1947 46.4545 19.944 46.2972 19.672 46.2065C19.4 46.1105 19.0987 46.0625 18.768 46.0625C18.4907 46.0625 18.2427 46.1025 18.024 46.1825C17.8053 46.2572 17.632 46.3692 17.504 46.5185C17.3813 46.6625 17.32 46.8412 17.32 47.0545C17.32 47.2892 17.3947 47.4759 17.544 47.6145C17.6933 47.7479 17.9467 47.8519 18.304 47.9265L19.216 48.1025C19.76 48.2039 20.1627 48.3745 20.424 48.6145C20.6853 48.8545 20.816 49.1665 20.816 49.5505C20.816 49.8705 20.728 50.1559 20.552 50.4065C20.3813 50.6572 20.1387 50.8545 19.824 50.9985C19.5147 51.1372 19.1467 51.2065 18.72 51.2065ZM21.882 46.2305V45.4385H22.746V46.2305H21.882ZM21.962 51.1345V47.1825H22.674V51.1345H21.962ZM23.8628 51.1345V50.6785L26.3668 47.5505L26.4068 47.7745H23.9188V47.1825H27.0708V47.6385L24.5428 50.7905L24.5028 50.5425H27.1588V51.1345H23.8628ZM30.0691 51.2065C29.6265 51.2065 29.2425 51.1265 28.9171 50.9665C28.5971 50.8012 28.3518 50.5665 28.1811 50.2625C28.0105 49.9532 27.9251 49.5852 27.9251 49.1585C27.9251 48.7585 28.0051 48.4065 28.1651 48.1025C28.3251 47.7932 28.5518 47.5505 28.8451 47.3745C29.1385 47.1985 29.4878 47.1105 29.8931 47.1105C30.2771 47.1105 30.6025 47.1932 30.8691 47.3585C31.1411 47.5239 31.3465 47.7559 31.4851 48.0545C31.6291 48.3532 31.7011 48.7079 31.7011 49.1185V49.3505H28.4611V48.8545H31.2371L31.0851 49.0145C31.0851 48.5772 30.9811 48.2412 30.7731 48.0065C30.5705 47.7719 30.2771 47.6545 29.8931 47.6545C29.6425 47.6545 29.4185 47.7132 29.2211 47.8305C29.0291 47.9425 28.8798 48.1025 28.7731 48.3105C28.6665 48.5185 28.6131 48.7719 28.6131 49.0705V49.1505C28.6131 49.4705 28.6718 49.7399 28.7891 49.9585C28.9065 50.1772 29.0745 50.3425 29.2931 50.4545C29.5118 50.5665 29.7731 50.6225 30.0771 50.6225C30.2958 50.6225 30.5171 50.5932 30.7411 50.5345C30.9705 50.4705 31.1838 50.3585 31.3811 50.1985L31.6211 50.7105C31.4185 50.8812 31.1758 51.0065 30.8931 51.0865C30.6158 51.1665 30.3411 51.2065 30.0691 51.2065Z" fill="#CE3439"/>
<path d="M59.048 51.1345V49.9665H56.416V49.4305L59.016 45.4945H59.728V49.3665H60.512V49.9665H59.728V51.1345H59.048ZM59.072 49.3665V46.3745H59.104L57.04 49.5025L56.984 49.3665H59.072ZM62.8449 51.2065C62.6369 51.2065 62.4342 51.1825 62.2369 51.1345C62.0449 51.0865 61.8609 51.0145 61.6849 50.9185C61.5142 50.8172 61.3542 50.6945 61.2049 50.5505L61.4769 50.0065C61.6955 50.2252 61.9169 50.3772 62.1409 50.4625C62.3649 50.5425 62.6022 50.5825 62.8529 50.5825C63.1142 50.5825 63.3435 50.5345 63.5409 50.4385C63.7435 50.3372 63.9142 50.1905 64.0529 49.9985C64.1915 49.8012 64.2955 49.5585 64.3649 49.2705C64.4342 48.9825 64.4689 48.6519 64.4689 48.2785V47.8145H64.4609C64.4182 48.0652 64.3222 48.2839 64.1729 48.4705C64.0289 48.6519 63.8502 48.7905 63.6369 48.8865C63.4235 48.9825 63.1889 49.0305 62.9329 49.0305C62.5969 49.0305 62.2982 48.9559 62.0369 48.8065C61.7755 48.6572 61.5702 48.4492 61.4209 48.1825C61.2769 47.9159 61.2049 47.6065 61.2049 47.2545C61.2049 46.9025 61.2822 46.5879 61.4369 46.3105C61.5915 46.0332 61.8049 45.8172 62.0769 45.6625C62.3489 45.5025 62.6609 45.4225 63.0129 45.4225C63.4715 45.4225 63.8582 45.5319 64.1729 45.7505C64.4875 45.9639 64.7249 46.2759 64.8849 46.6865C65.0449 47.0972 65.1249 47.5985 65.1249 48.1905C65.1249 48.8305 65.0342 49.3772 64.8529 49.8305C64.6715 50.2785 64.4102 50.6199 64.0689 50.8545C63.7329 51.0892 63.3249 51.2065 62.8449 51.2065ZM63.0529 48.4385C63.2875 48.4385 63.4955 48.3879 63.6769 48.2865C63.8582 48.1852 63.9995 48.0439 64.1009 47.8625C64.2022 47.6812 64.2529 47.4732 64.2529 47.2385C64.2529 46.9932 64.2022 46.7799 64.1009 46.5985C64.0049 46.4172 63.8662 46.2785 63.6849 46.1825C63.5035 46.0812 63.2902 46.0305 63.0449 46.0305C62.8102 46.0305 62.6049 46.0812 62.4289 46.1825C62.2529 46.2839 62.1142 46.4252 62.0129 46.6065C61.9169 46.7879 61.8689 46.9985 61.8689 47.2385C61.8689 47.4732 61.9195 47.6812 62.0209 47.8625C62.1222 48.0439 62.2609 48.1852 62.4369 48.2865C62.6129 48.3879 62.8182 48.4385 63.0529 48.4385ZM67.9938 51.2065C67.5618 51.2065 67.1964 51.0972 66.8978 50.8785C66.5991 50.6545 66.3724 50.3292 66.2178 49.9025C66.0684 49.4705 65.9938 48.9399 65.9938 48.3105C65.9938 47.6812 66.0684 47.1532 66.2178 46.7265C66.3724 46.2999 66.5991 45.9772 66.8978 45.7585C67.1964 45.5345 67.5618 45.4225 67.9938 45.4225C68.4364 45.4225 68.8044 45.5319 69.0978 45.7505C69.3911 45.9692 69.6124 46.2919 69.7618 46.7185C69.9164 47.1452 69.9938 47.6732 69.9938 48.3025C69.9938 48.9319 69.9164 49.4625 69.7618 49.8945C69.6124 50.3265 69.3884 50.6545 69.0898 50.8785C68.7911 51.0972 68.4258 51.2065 67.9938 51.2065ZM67.9938 50.5825C68.4311 50.5825 68.7564 50.3985 68.9698 50.0305C69.1831 49.6625 69.2898 49.0865 69.2898 48.3025C69.2898 47.5239 69.1831 46.9532 68.9698 46.5905C68.7618 46.2279 68.4391 46.0465 68.0018 46.0465C67.5591 46.0465 67.2311 46.2305 67.0178 46.5985C66.8044 46.9612 66.6978 47.5319 66.6978 48.3105C66.6978 49.0839 66.8044 49.6572 67.0178 50.0305C67.2311 50.3985 67.5564 50.5825 67.9938 50.5825ZM72.817 51.1345L74.905 48.1105V48.3745L72.929 45.4945H73.753L75.353 47.8465H75.313L76.913 45.4945H77.737L75.745 48.3745V48.1105L77.841 51.1345H77.009L75.297 48.6305H75.353L73.641 51.1345H72.817ZM83.3136 51.1345V49.9665H80.6816V49.4305L83.2816 45.4945H83.9936V49.3665H84.7776V49.9665H83.9936V51.1345H83.3136ZM83.3376 49.3665V46.3745H83.3696L81.3056 49.5025L81.2496 49.3665H83.3376ZM87.4625 51.2065C86.8332 51.2065 86.3372 51.0705 85.9745 50.7985C85.6118 50.5212 85.4305 50.1372 85.4305 49.6465C85.4305 49.3959 85.4785 49.1745 85.5745 48.9825C85.6758 48.7852 85.8145 48.6252 85.9905 48.5025C86.1718 48.3745 86.3798 48.2892 86.6145 48.2465V48.2545C86.4118 48.2065 86.2305 48.1185 86.0705 47.9905C85.9158 47.8625 85.7932 47.7079 85.7025 47.5265C85.6118 47.3452 85.5665 47.1452 85.5665 46.9265C85.5665 46.4572 85.7372 46.0892 86.0785 45.8225C86.4252 45.5559 86.8865 45.4225 87.4625 45.4225C88.0385 45.4225 88.4972 45.5559 88.8385 45.8225C89.1852 46.0892 89.3585 46.4572 89.3585 46.9265C89.3585 47.1399 89.3132 47.3399 89.2225 47.5265C89.1318 47.7079 89.0065 47.8625 88.8465 47.9905C88.6918 48.1185 88.5105 48.2065 88.3025 48.2545V48.2465C88.5318 48.2839 88.7345 48.3665 88.9105 48.4945C89.0918 48.6225 89.2332 48.7852 89.3345 48.9825C89.4412 49.1745 89.4945 49.3959 89.4945 49.6465C89.4945 50.1372 89.3132 50.5212 88.9505 50.7985C88.5932 51.0705 88.0972 51.2065 87.4625 51.2065ZM87.4625 50.6065C87.9052 50.6065 88.2412 50.5212 88.4705 50.3505C88.7052 50.1799 88.8225 49.9292 88.8225 49.5985C88.8225 49.2679 88.7052 49.0145 88.4705 48.8385C88.2412 48.6625 87.9052 48.5745 87.4625 48.5745C87.0198 48.5745 86.6812 48.6625 86.4465 48.8385C86.2172 49.0145 86.1025 49.2679 86.1025 49.5985C86.1025 49.9292 86.2172 50.1799 86.4465 50.3505C86.6812 50.5212 87.0198 50.6065 87.4625 50.6065ZM87.4625 47.9745C87.8465 47.9745 88.1478 47.8892 88.3665 47.7185C88.5852 47.5425 88.6945 47.2999 88.6945 46.9905C88.6945 46.6865 88.5852 46.4492 88.3665 46.2785C88.1478 46.1025 87.8465 46.0145 87.4625 46.0145C87.0838 46.0145 86.7852 46.1025 86.5665 46.2785C86.3478 46.4492 86.2385 46.6865 86.2385 46.9905C86.2385 47.2999 86.3478 47.5425 86.5665 47.7185C86.7852 47.8892 87.0838 47.9745 87.4625 47.9745ZM92.2594 51.2065C91.8274 51.2065 91.462 51.0972 91.1634 50.8785C90.8647 50.6545 90.638 50.3292 90.4834 49.9025C90.334 49.4705 90.2594 48.9399 90.2594 48.3105C90.2594 47.6812 90.334 47.1532 90.4834 46.7265C90.638 46.2999 90.8647 45.9772 91.1634 45.7585C91.462 45.5345 91.8274 45.4225 92.2594 45.4225C92.702 45.4225 93.07 45.5319 93.3634 45.7505C93.6567 45.9692 93.878 46.2919 94.0274 46.7185C94.182 47.1452 94.2594 47.6732 94.2594 48.3025C94.2594 48.9319 94.182 49.4625 94.0274 49.8945C93.878 50.3265 93.654 50.6545 93.3554 50.8785C93.0567 51.0972 92.6914 51.2065 92.2594 51.2065ZM92.2594 50.5825C92.6967 50.5825 93.022 50.3985 93.2354 50.0305C93.4487 49.6625 93.5554 49.0865 93.5554 48.3025C93.5554 47.5239 93.4487 46.9532 93.2354 46.5905C93.0274 46.2279 92.7047 46.0465 92.2674 46.0465C91.8247 46.0465 91.4967 46.2305 91.2834 46.5985C91.07 46.9612 90.9634 47.5319 90.9634 48.3105C90.9634 49.0839 91.07 49.6572 91.2834 50.0305C91.4967 50.3985 91.822 50.5825 92.2594 50.5825ZM97.0826 51.1345L99.1706 48.1105V48.3745L97.1946 45.4945H98.0186L99.6186 47.8465H99.5786L101.179 45.4945H102.003L100.011 48.3745V48.1105L102.107 51.1345H101.275L99.5626 48.6305H99.6186L97.9066 51.1345H97.0826ZM107.579 51.1345V49.9665H104.947V49.4305L107.547 45.4945H108.259V49.3665H109.043V49.9665H108.259V51.1345H107.579ZM107.603 49.3665V46.3745H107.635L105.571 49.5025L105.515 49.3665H107.603ZM111.728 51.2065C111.296 51.2065 110.931 51.0972 110.632 50.8785C110.333 50.6545 110.107 50.3292 109.952 49.9025C109.803 49.4705 109.728 48.9399 109.728 48.3105C109.728 47.6812 109.803 47.1532 109.952 46.7265C110.107 46.2999 110.333 45.9772 110.632 45.7585C110.931 45.5345 111.296 45.4225 111.728 45.4225C112.171 45.4225 112.539 45.5319 112.832 45.7505C113.125 45.9692 113.347 46.2919 113.496 46.7185C113.651 47.1452 113.728 47.6732 113.728 48.3025C113.728 48.9319 113.651 49.4625 113.496 49.8945C113.347 50.3265 113.123 50.6545 112.824 50.8785C112.525 51.0972 112.16 51.2065 111.728 51.2065ZM111.728 50.5825C112.165 50.5825 112.491 50.3985 112.704 50.0305C112.917 49.6625 113.024 49.0865 113.024 48.3025C113.024 47.5239 112.917 46.9532 112.704 46.5905C112.496 46.2279 112.173 46.0465 111.736 46.0465C111.293 46.0465 110.965 46.2305 110.752 46.5985C110.539 46.9612 110.432 47.5319 110.432 48.3105C110.432 49.0839 110.539 49.6572 110.752 50.0305C110.965 50.3985 111.291 50.5825 111.728 50.5825ZM116.525 51.2065C116.093 51.2065 115.728 51.0972 115.429 50.8785C115.13 50.6545 114.904 50.3292 114.749 49.9025C114.6 49.4705 114.525 48.9399 114.525 48.3105C114.525 47.6812 114.6 47.1532 114.749 46.7265C114.904 46.2999 115.13 45.9772 115.429 45.7585C115.728 45.5345 116.093 45.4225 116.525 45.4225C116.968 45.4225 117.336 45.5319 117.629 45.7505C117.922 45.9692 118.144 46.2919 118.293 46.7185C118.448 47.1452 118.525 47.6732 118.525 48.3025C118.525 48.9319 118.448 49.4625 118.293 49.8945C118.144 50.3265 117.92 50.6545 117.621 50.8785C117.322 51.0972 116.957 51.2065 116.525 51.2065ZM116.525 50.5825C116.962 50.5825 117.288 50.3985 117.501 50.0305C117.714 49.6625 117.821 49.0865 117.821 48.3025C117.821 47.5239 117.714 46.9532 117.501 46.5905C117.293 46.2279 116.97 46.0465 116.533 46.0465C116.09 46.0465 115.762 46.2305 115.549 46.5985C115.336 46.9612 115.229 47.5319 115.229 48.3105C115.229 49.0839 115.336 49.6572 115.549 50.0305C115.762 50.3985 116.088 50.5825 116.525 50.5825Z" fill="black"/>
<path d="M18.168 64.1345L16.36 58.4945H17.112L18.584 63.2785H18.512L20.152 58.4945H20.736L22.36 63.2785H22.304L23.792 58.4945H24.512L22.696 64.1345H22.016L20.424 59.4785H20.456L18.832 64.1345H18.168ZM27.0223 64.2065C26.5796 64.2065 26.1956 64.1265 25.8703 63.9665C25.5503 63.8012 25.3049 63.5665 25.1343 63.2625C24.9636 62.9532 24.8783 62.5852 24.8783 62.1585C24.8783 61.7585 24.9583 61.4065 25.1183 61.1025C25.2783 60.7932 25.5049 60.5505 25.7983 60.3745C26.0916 60.1985 26.4409 60.1105 26.8463 60.1105C27.2303 60.1105 27.5556 60.1932 27.8223 60.3585C28.0943 60.5239 28.2996 60.7559 28.4383 61.0545C28.5823 61.3532 28.6543 61.7079 28.6543 62.1185V62.3505H25.4143V61.8545H28.1903L28.0383 62.0145C28.0383 61.5772 27.9343 61.2412 27.7263 61.0065C27.5236 60.7719 27.2303 60.6545 26.8463 60.6545C26.5956 60.6545 26.3716 60.7132 26.1743 60.8305C25.9823 60.9425 25.8329 61.1025 25.7263 61.3105C25.6196 61.5185 25.5663 61.7719 25.5663 62.0705V62.1505C25.5663 62.4705 25.6249 62.7399 25.7423 62.9585C25.8596 63.1772 26.0276 63.3425 26.2463 63.4545C26.4649 63.5665 26.7263 63.6225 27.0303 63.6225C27.2489 63.6225 27.4703 63.5932 27.6943 63.5345C27.9236 63.4705 28.1369 63.3585 28.3343 63.1985L28.5743 63.7105C28.3716 63.8812 28.1289 64.0065 27.8463 64.0865C27.5689 64.1665 27.2943 64.2065 27.0223 64.2065ZM29.7492 59.2305V58.4385H30.6132V59.2305H29.7492ZM29.8292 64.1345V60.1825H30.5412V64.1345H29.8292ZM33.674 65.6465C33.3593 65.6465 33.0473 65.5985 32.738 65.5025C32.4287 65.4119 32.1647 65.2865 31.946 65.1265L32.17 64.5745C32.3193 64.6705 32.4767 64.7532 32.642 64.8225C32.8073 64.8972 32.9753 64.9505 33.146 64.9825C33.322 65.0199 33.4953 65.0385 33.666 65.0385C34.0767 65.0385 34.3967 64.9345 34.626 64.7265C34.8607 64.5185 34.978 64.2225 34.978 63.8385V63.1105H34.962C34.866 63.3825 34.6927 63.6039 34.442 63.7745C34.1913 63.9399 33.9007 64.0225 33.57 64.0225C33.1967 64.0225 32.8713 63.9425 32.594 63.7825C32.3167 63.6172 32.1007 63.3879 31.946 63.0945C31.7967 62.8012 31.722 62.4572 31.722 62.0625C31.722 61.6732 31.7967 61.3319 31.946 61.0385C32.1007 60.7452 32.3167 60.5185 32.594 60.3585C32.8713 60.1932 33.1967 60.1105 33.57 60.1105C33.9007 60.1105 34.1913 60.1959 34.442 60.3665C34.698 60.5372 34.874 60.7639 34.97 61.0465H34.978V60.1825H35.642V63.7745C35.642 64.1585 35.562 64.4892 35.402 64.7665C35.2473 65.0492 35.0233 65.2652 34.73 65.4145C34.4367 65.5692 34.0847 65.6465 33.674 65.6465ZM33.69 63.4385C34.0793 63.4385 34.386 63.3132 34.61 63.0625C34.8393 62.8119 34.954 62.4785 34.954 62.0625C34.954 61.6465 34.8393 61.3159 34.61 61.0705C34.386 60.8199 34.0793 60.6945 33.69 60.6945C33.306 60.6945 32.9993 60.8199 32.77 61.0705C32.546 61.3159 32.434 61.6465 32.434 62.0625C32.434 62.4785 32.546 62.8119 32.77 63.0625C32.9993 63.3132 33.306 63.4385 33.69 63.4385ZM37.0636 64.1345V58.4945H37.7516V61.0225C37.8689 60.7399 38.0529 60.5185 38.3036 60.3585C38.5596 60.1932 38.8476 60.1105 39.1676 60.1105C39.4929 60.1105 39.7649 60.1692 39.9836 60.2865C40.2022 60.3985 40.3649 60.5745 40.4716 60.8145C40.5836 61.0492 40.6396 61.3425 40.6396 61.6945V64.1345H39.9276V61.7345C39.9276 61.5212 39.8956 61.3399 39.8316 61.1905C39.7729 61.0412 39.6769 60.9265 39.5436 60.8465C39.4102 60.7612 39.2316 60.7185 39.0076 60.7185C38.7729 60.7185 38.5622 60.7719 38.3756 60.8785C38.1889 60.9852 38.0422 61.1292 37.9356 61.3105C37.8289 61.4919 37.7756 61.6945 37.7756 61.9185V64.1345H37.0636ZM43.7119 64.2065C43.2373 64.2065 42.8773 64.0812 42.6319 63.8305C42.3919 63.5799 42.2719 63.2225 42.2719 62.7585V60.7665H41.4719V60.1825H42.2959V59.0065H42.9839V60.1825H44.3999V60.7665H42.9839V62.6945C42.9839 62.9985 43.0506 63.2252 43.1839 63.3745C43.3226 63.5185 43.5333 63.5905 43.8159 63.5905C43.9279 63.5905 44.0346 63.5799 44.1359 63.5585C44.2426 63.5372 44.3439 63.5052 44.4399 63.4625L44.5519 64.0225C44.4453 64.0812 44.3146 64.1265 44.1599 64.1585C44.0106 64.1905 43.8613 64.2065 43.7119 64.2065Z" fill="#CE3439"/>
<path d="M58.9157 64.1345V63.5265H60.4597V59.0625L60.8357 59.1185L59.1957 60.1745L58.8757 59.6225L60.6437 58.4945H61.1637V63.5265H62.5877V64.1345H58.9157ZM63.8726 64.1345L66.6326 58.7825L66.6646 59.1265H63.4886V58.4945H67.2566V59.0305L64.6486 64.1345H63.8726ZM69.6614 65.6705C69.2828 65.0945 69.0028 64.5079 68.8214 63.9105C68.6454 63.3079 68.5574 62.6812 68.5574 62.0305C68.5574 61.3799 68.6454 60.7559 68.8214 60.1585C69.0028 59.5612 69.2828 58.9719 69.6614 58.3905L70.1734 58.5745C69.9708 58.9532 69.8028 59.3345 69.6694 59.7185C69.5361 60.1025 69.4348 60.4865 69.3654 60.8705C69.3014 61.2492 69.2694 61.6359 69.2694 62.0305C69.2694 62.4199 69.3014 62.8065 69.3654 63.1905C69.4348 63.5745 69.5361 63.9559 69.6694 64.3345C69.8028 64.7185 69.9708 65.1025 70.1734 65.4865L69.6614 65.6705ZM71.2929 64.1345V58.4945H72.0049V61.0385H72.0369L74.7169 58.4945H75.6209L72.5089 61.4465L72.5569 61.0545L75.8129 64.1345H74.8609L72.0369 61.4865H72.0049V64.1345H71.2929ZM78.1428 65.6465C77.8281 65.6465 77.5161 65.5985 77.2068 65.5025C76.8974 65.4119 76.6334 65.2865 76.4148 65.1265L76.6388 64.5745C76.7881 64.6705 76.9454 64.7532 77.1108 64.8225C77.2761 64.8972 77.4441 64.9505 77.6148 64.9825C77.7908 65.0199 77.9641 65.0385 78.1348 65.0385C78.5454 65.0385 78.8654 64.9345 79.0948 64.7265C79.3294 64.5185 79.4468 64.2225 79.4468 63.8385V63.1105H79.4308C79.3348 63.3825 79.1614 63.6039 78.9108 63.7745C78.6601 63.9399 78.3694 64.0225 78.0388 64.0225C77.6654 64.0225 77.3401 63.9425 77.0628 63.7825C76.7854 63.6172 76.5694 63.3879 76.4148 63.0945C76.2654 62.8012 76.1908 62.4572 76.1908 62.0625C76.1908 61.6732 76.2654 61.3319 76.4148 61.0385C76.5694 60.7452 76.7854 60.5185 77.0628 60.3585C77.3401 60.1932 77.6654 60.1105 78.0388 60.1105C78.3694 60.1105 78.6601 60.1959 78.9108 60.3665C79.1668 60.5372 79.3428 60.7639 79.4388 61.0465H79.4468V60.1825H80.1108V63.7745C80.1108 64.1585 80.0308 64.4892 79.8708 64.7665C79.7161 65.0492 79.4921 65.2652 79.1988 65.4145C78.9054 65.5692 78.5534 65.6465 78.1428 65.6465ZM78.1588 63.4385C78.5481 63.4385 78.8548 63.3132 79.0788 63.0625C79.3081 62.8119 79.4228 62.4785 79.4228 62.0625C79.4228 61.6465 79.3081 61.3159 79.0788 61.0705C78.8548 60.8199 78.5481 60.6945 78.1588 60.6945C77.7748 60.6945 77.4681 60.8199 77.2388 61.0705C77.0148 61.3159 76.9028 61.6465 76.9028 62.0625C76.9028 62.4785 77.0148 62.8119 77.2388 63.0625C77.4681 63.3132 77.7748 63.4385 78.1588 63.4385ZM82.9883 64.2065C82.7696 64.2065 82.5536 64.1852 82.3403 64.1425C82.1323 64.1052 81.9376 64.0519 81.7563 63.9825C81.5803 63.9079 81.4283 63.8172 81.3003 63.7105L81.5323 63.2065C81.6656 63.3079 81.8123 63.3905 81.9723 63.4545C82.1376 63.5185 82.3056 63.5665 82.4763 63.5985C82.6523 63.6252 82.8203 63.6385 82.9803 63.6385C83.311 63.6385 83.5643 63.5879 83.7403 63.4865C83.9216 63.3852 84.0123 63.2439 84.0123 63.0625C84.0123 62.9079 83.959 62.7905 83.8523 62.7105C83.751 62.6252 83.5803 62.5612 83.3403 62.5185L82.5163 62.3745C82.1483 62.3052 81.871 62.1799 81.6843 61.9985C81.503 61.8172 81.4123 61.5799 81.4123 61.2865C81.4123 61.0519 81.4763 60.8465 81.6043 60.6705C81.7376 60.4945 81.927 60.3585 82.1723 60.2625C82.4176 60.1612 82.711 60.1105 83.0523 60.1105C83.239 60.1105 83.4283 60.1292 83.6203 60.1665C83.8176 60.2039 83.999 60.2599 84.1643 60.3345C84.335 60.4039 84.4736 60.4919 84.5803 60.5985L84.3403 61.1025C84.2336 61.0012 84.1056 60.9212 83.9563 60.8625C83.8123 60.7985 83.6603 60.7532 83.5003 60.7265C83.3456 60.6945 83.1936 60.6785 83.0443 60.6785C82.735 60.6785 82.495 60.7319 82.3243 60.8385C82.1536 60.9399 82.0683 61.0839 82.0683 61.2705C82.0683 61.4199 82.1163 61.5372 82.2123 61.6225C82.3136 61.7079 82.4763 61.7719 82.7003 61.8145L83.5003 61.9585C83.895 62.0332 84.1883 62.1585 84.3803 62.3345C84.5723 62.5052 84.6683 62.7425 84.6683 63.0465C84.6683 63.2812 84.599 63.4865 84.4603 63.6625C84.3216 63.8332 84.127 63.9665 83.8763 64.0625C83.6256 64.1585 83.3296 64.2065 82.9883 64.2065ZM85.9408 65.6705L85.4208 65.4865C85.6288 65.0972 85.7995 64.7105 85.9328 64.3265C86.0661 63.9479 86.1648 63.5692 86.2288 63.1905C86.2928 62.8065 86.3248 62.4199 86.3248 62.0305C86.3248 61.6412 86.2928 61.2572 86.2288 60.8785C86.1648 60.4945 86.0661 60.1105 85.9328 59.7265C85.7995 59.3425 85.6288 58.9585 85.4208 58.5745L85.9408 58.3905C86.3141 58.9665 86.5888 59.5559 86.7648 60.1585C86.9461 60.7559 87.0368 61.3799 87.0368 62.0305C87.0368 62.6759 86.9461 63.2999 86.7648 63.9025C86.5888 64.4999 86.3141 65.0892 85.9408 65.6705Z" fill="black"/>
<defs>
<filter id="filter0_d_535_85" x="0.0999999" y="24.1074" width="135.08" height="54.94" filterUnits="userSpaceOnUse" color-interpolation-filters="sRGB">
<feFlood flood-opacity="0" result="BackgroundImageFix"/>
<feColorMatrix in="SourceAlpha" type="matrix" values="0 0 0 0 0 0 0 0 0 0 0 0 0 0 0 0 0 0 127 0" result="hardAlpha"/>
<feOffset dy="4"/>
<feGaussianBlur stdDeviation="1.95"/>
<feComposite in2="hardAlpha" operator="out"/>
<feColorMatrix type="matrix" values="0 0 0 0 0 0 0 0 0 0 0 0 0 0 0 0 0 0 0.2 0"/>
<feBlend mode="normal" in2="BackgroundImageFix" result="effect1_dropShadow_535_85"/>
<feBlend mode="normal" in="SourceGraphic" in2="effect1_dropShadow_535_85" result="shape"/>
</filter>
<clipPath id="clip0_535_85">
<rect width="21.6136" height="21.7108" fill="white" transform="translate(55.3525 2.48999)"/>
</clipPath>
</defs>
</svg>
