<svg width="315" height="28" viewBox="0 0 315 28" fill="none" xmlns="http://www.w3.org/2000/svg">
<path d="M3.504 9.108C3.128 9.108 2.764 9.068 2.412 8.988C2.068 8.908 1.744 8.796 1.44 8.652C1.136 8.5 0.868 8.316 0.636 8.1L0.996 7.32C1.388 7.64 1.784 7.872 2.184 8.016C2.584 8.16 3.016 8.232 3.48 8.232C3.888 8.232 4.232 8.172 4.512 8.052C4.792 7.932 5.004 7.756 5.148 7.524C5.292 7.284 5.364 6.992 5.364 6.648C5.364 6.152 5.2 5.776 4.872 5.52C4.544 5.264 4.068 5.136 3.444 5.136H2.196V4.284H3.36C3.728 4.284 4.04 4.22 4.296 4.092C4.56 3.964 4.764 3.784 4.908 3.552C5.052 3.312 5.124 3.024 5.124 2.688C5.124 2.24 4.98 1.9 4.692 1.668C4.404 1.428 3.988 1.308 3.444 1.308C2.996 1.308 2.584 1.388 2.208 1.548C1.832 1.7 1.476 1.94 1.14 2.268L0.78 1.5C1.1 1.164 1.5 0.903999 1.98 0.719999C2.468 0.527999 2.976 0.431999 3.504 0.431999C4.048 0.431999 4.512 0.52 4.896 0.696C5.288 0.864 5.588 1.112 5.796 1.44C6.004 1.76 6.108 2.148 6.108 2.604C6.108 3.124 5.964 3.572 5.676 3.948C5.388 4.316 4.996 4.568 4.5 4.704V4.572C4.892 4.636 5.224 4.764 5.496 4.956C5.776 5.148 5.988 5.396 6.132 5.7C6.276 5.996 6.348 6.336 6.348 6.72C6.348 7.208 6.232 7.632 6 7.992C5.776 8.344 5.452 8.62 5.028 8.82C4.604 9.012 4.096 9.108 3.504 9.108ZM10.9753 9.108C10.6153 9.108 10.2633 9.068 9.91931 8.988C9.57531 8.908 9.25131 8.792 8.94731 8.64C8.65131 8.488 8.38731 8.308 8.15531 8.1L8.52731 7.32C8.91131 7.632 9.29931 7.864 9.69131 8.016C10.0913 8.16 10.5153 8.232 10.9633 8.232C11.5553 8.232 12.0153 8.068 12.3433 7.74C12.6793 7.412 12.8473 6.98 12.8473 6.444C12.8473 5.892 12.6873 5.44 12.3673 5.088C12.0473 4.736 11.6073 4.56 11.0473 4.56C10.6393 4.56 10.2793 4.644 9.96731 4.812C9.66331 4.972 9.38731 5.224 9.13931 5.568H8.41931V0.539999H13.3273V1.38H9.39131V4.752H9.12731C9.33531 4.416 9.62331 4.16 9.99131 3.984C10.3593 3.8 10.7713 3.708 11.2273 3.708C11.7633 3.708 12.2233 3.82 12.6073 4.044C12.9993 4.268 13.2993 4.584 13.5073 4.992C13.7233 5.392 13.8313 5.86 13.8313 6.396C13.8313 6.924 13.7153 7.392 13.4833 7.8C13.2513 8.208 12.9233 8.528 12.4993 8.76C12.0753 8.992 11.5673 9.108 10.9753 9.108ZM17.9906 9.108C17.3506 9.108 16.8066 8.944 16.3586 8.616C15.9186 8.28 15.5866 7.788 15.3626 7.14C15.1386 6.492 15.0266 5.7 15.0266 4.764C15.0266 3.82 15.1386 3.028 15.3626 2.388C15.5866 1.74 15.9186 1.252 16.3586 0.924C16.8066 0.595999 17.3506 0.431999 17.9906 0.431999C18.6386 0.431999 19.1826 0.595999 19.6226 0.924C20.0626 1.252 20.3946 1.736 20.6186 2.376C20.8426 3.016 20.9546 3.808 20.9546 4.752C20.9546 5.696 20.8426 6.492 20.6186 7.14C20.3946 7.788 20.0626 8.28 19.6226 8.616C19.1826 8.944 18.6386 9.108 17.9906 9.108ZM17.9906 8.256C18.6626 8.256 19.1586 7.972 19.4786 7.404C19.8066 6.836 19.9706 5.952 19.9706 4.752C19.9706 3.552 19.8106 2.676 19.4906 2.124C19.1706 1.564 18.6706 1.284 17.9906 1.284C17.3266 1.284 16.8306 1.564 16.5026 2.124C16.1746 2.684 16.0106 3.56 16.0106 4.752C16.0106 5.952 16.1706 6.836 16.4906 7.404C16.8186 7.972 17.3186 8.256 17.9906 8.256ZM22.5219 9V3.168H23.4699V4.464H23.3379C23.4339 4.168 23.5739 3.916 23.7579 3.708C23.9499 3.492 24.1739 3.332 24.4299 3.228C24.6939 3.116 24.9819 3.06 25.2939 3.06C25.7899 3.06 26.1899 3.18 26.4939 3.42C26.8059 3.652 27.0139 4.016 27.1179 4.512H26.9379C27.0819 4.064 27.3379 3.712 27.7059 3.456C28.0819 3.192 28.5179 3.06 29.0139 3.06C29.4539 3.06 29.8139 3.144 30.0939 3.312C30.3819 3.48 30.5979 3.736 30.7419 4.08C30.8859 4.416 30.9579 4.844 30.9579 5.364V9H29.9859V5.412C29.9859 4.876 29.8939 4.484 29.7099 4.236C29.5259 3.98 29.2139 3.852 28.7739 3.852C28.4619 3.852 28.1859 3.928 27.9459 4.08C27.7139 4.232 27.5339 4.448 27.4059 4.728C27.2859 5 27.2259 5.324 27.2259 5.7V9H26.2539V5.412C26.2539 4.876 26.1579 4.484 25.9659 4.236C25.7819 3.98 25.4739 3.852 25.0419 3.852C24.7219 3.852 24.4459 3.928 24.2139 4.08C23.9819 4.232 23.8019 4.448 23.6739 4.728C23.5539 5 23.4939 5.324 23.4939 5.7V9H22.5219ZM34.5633 9.108C33.9713 9.108 33.5233 8.932 33.2193 8.58C32.9233 8.228 32.7753 7.724 32.7753 7.068V0.539999H33.7473V6.996C33.7473 7.276 33.7833 7.512 33.8553 7.704C33.9353 7.896 34.0513 8.04 34.2033 8.136C34.3553 8.232 34.5433 8.28 34.7673 8.28C34.8633 8.28 34.9553 8.276 35.0433 8.268C35.1393 8.252 35.2273 8.232 35.3073 8.208L35.2833 9.024C35.1553 9.048 35.0313 9.068 34.9113 9.084C34.7993 9.1 34.6833 9.108 34.5633 9.108ZM42.2761 9.108C41.8361 9.108 41.4201 9.068 41.0281 8.988C40.6441 8.908 40.2881 8.796 39.9601 8.652C39.6401 8.5 39.3481 8.316 39.0841 8.1L39.4321 7.308C39.7041 7.508 39.9801 7.68 40.2601 7.824C40.5481 7.96 40.8561 8.064 41.1841 8.136C41.5201 8.2 41.8841 8.232 42.2761 8.232C42.9961 8.232 43.5281 8.1 43.8721 7.836C44.2241 7.564 44.4001 7.208 44.4001 6.768C44.4001 6.536 44.3441 6.336 44.2321 6.168C44.1281 6 43.9521 5.856 43.7041 5.736C43.4641 5.616 43.1481 5.516 42.7561 5.436L41.5081 5.184C40.7561 5.024 40.1921 4.764 39.8161 4.404C39.4481 4.036 39.2641 3.548 39.2641 2.94C39.2641 2.436 39.3921 1.996 39.6481 1.62C39.9121 1.244 40.2761 0.951999 40.7401 0.744C41.2121 0.536 41.7481 0.431999 42.3481 0.431999C42.7321 0.431999 43.0961 0.471999 43.4401 0.551999C43.7841 0.632 44.1001 0.752 44.3881 0.912C44.6841 1.064 44.9441 1.252 45.1681 1.476L44.8201 2.244C44.4601 1.916 44.0801 1.68 43.6801 1.536C43.2801 1.384 42.8321 1.308 42.3361 1.308C41.9121 1.308 41.5441 1.372 41.2321 1.5C40.9281 1.628 40.6881 1.816 40.5121 2.064C40.3441 2.304 40.2601 2.584 40.2601 2.904C40.2601 3.288 40.3761 3.592 40.6081 3.816C40.8481 4.04 41.2361 4.204 41.7721 4.308L43.0201 4.572C43.8281 4.74 44.4241 4.996 44.8081 5.34C45.2001 5.676 45.3961 6.136 45.3961 6.72C45.3961 7.184 45.2681 7.6 45.0121 7.968C44.7641 8.328 44.4041 8.608 43.9321 8.808C43.4681 9.008 42.9161 9.108 42.2761 9.108ZM46.6709 1.716V0.624H47.8709V1.716H46.6709ZM46.7909 9V3.168H47.7629V9H46.7909ZM49.58 11.16V3.168H50.528V4.548H50.408C50.536 4.092 50.788 3.732 51.164 3.468C51.548 3.196 52.004 3.06 52.532 3.06C53.052 3.06 53.504 3.184 53.888 3.432C54.28 3.672 54.58 4.02 54.788 4.476C55.004 4.924 55.112 5.46 55.112 6.084C55.112 6.7 55.004 7.236 54.788 7.692C54.58 8.14 54.284 8.488 53.9 8.736C53.516 8.984 53.06 9.108 52.532 9.108C52.004 9.108 51.552 8.976 51.176 8.712C50.8 8.44 50.544 8.08 50.408 7.632H50.552V11.16H49.58ZM52.328 8.328C52.88 8.328 53.316 8.136 53.636 7.752C53.964 7.36 54.128 6.804 54.128 6.084C54.128 5.356 53.964 4.8 53.636 4.416C53.316 4.032 52.88 3.84 52.328 3.84C51.784 3.84 51.348 4.032 51.02 4.416C50.692 4.8 50.528 5.356 50.528 6.084C50.528 6.804 50.692 7.36 51.02 7.752C51.348 8.136 51.784 8.328 52.328 8.328ZM56.5761 11.16V3.168H57.5241V4.548H57.4041C57.5321 4.092 57.7841 3.732 58.1601 3.468C58.5441 3.196 59.0001 3.06 59.5281 3.06C60.0481 3.06 60.5001 3.184 60.8841 3.432C61.2761 3.672 61.5761 4.02 61.7841 4.476C62.0001 4.924 62.1081 5.46 62.1081 6.084C62.1081 6.7 62.0001 7.236 61.7841 7.692C61.5761 8.14 61.2801 8.488 60.8961 8.736C60.5121 8.984 60.0561 9.108 59.5281 9.108C59.0001 9.108 58.5481 8.976 58.1721 8.712C57.7961 8.44 57.5401 8.08 57.4041 7.632H57.5481V11.16H56.5761ZM59.3241 8.328C59.8761 8.328 60.3121 8.136 60.6321 7.752C60.9601 7.36 61.1241 6.804 61.1241 6.084C61.1241 5.356 60.9601 4.8 60.6321 4.416C60.3121 4.032 59.8761 3.84 59.3241 3.84C58.7801 3.84 58.3441 4.032 58.0161 4.416C57.6881 4.8 57.5241 5.356 57.5241 6.084C57.5241 6.804 57.6881 7.36 58.0161 7.752C58.3441 8.136 58.7801 8.328 59.3241 8.328ZM66.2002 9.108C65.5842 9.108 65.0522 8.988 64.6042 8.748C64.1642 8.5 63.8202 8.152 63.5722 7.704C63.3322 7.256 63.2122 6.72 63.2122 6.096C63.2122 5.488 63.3322 4.96 63.5722 4.512C63.8122 4.056 64.1402 3.7 64.5562 3.444C64.9802 3.188 65.4682 3.06 66.0202 3.06C66.5482 3.06 67.0002 3.176 67.3762 3.408C67.7522 3.64 68.0402 3.968 68.2402 4.392C68.4482 4.816 68.5522 5.324 68.5522 5.916V6.288H63.9562V5.652H67.9042L67.7122 5.808C67.7122 5.168 67.5682 4.672 67.2802 4.32C67.0002 3.96 66.5882 3.78 66.0442 3.78C65.6362 3.78 65.2882 3.876 65.0002 4.068C64.7202 4.252 64.5082 4.512 64.3642 4.848C64.2202 5.176 64.1482 5.56 64.1482 6V6.072C64.1482 6.56 64.2242 6.972 64.3762 7.308C64.5362 7.644 64.7722 7.9 65.0842 8.076C65.3962 8.244 65.7682 8.328 66.2002 8.328C66.5442 8.328 66.8762 8.276 67.1962 8.172C67.5242 8.06 67.8322 7.88 68.1202 7.632L68.4562 8.316C68.1922 8.556 67.8562 8.748 67.4482 8.892C67.0402 9.036 66.6242 9.108 66.2002 9.108ZM69.9589 9V3.168H70.9069V4.548H70.7869C70.9229 4.076 71.1589 3.72 71.4949 3.48C71.8309 3.232 72.2749 3.088 72.8269 3.048L73.1749 3.012L73.2469 3.852L72.6349 3.924C72.0909 3.972 71.6709 4.148 71.3749 4.452C71.0869 4.748 70.9429 5.156 70.9429 5.676V9H69.9589ZM81.3377 9.108C80.4337 9.108 79.6697 8.936 79.0457 8.592C78.4297 8.248 77.9617 7.752 77.6417 7.104C77.3217 6.456 77.1617 5.68 77.1617 4.776C77.1617 3.88 77.3217 3.108 77.6417 2.46C77.9617 1.812 78.4217 1.312 79.0217 0.96C79.6217 0.608 80.3457 0.431999 81.1937 0.431999C81.5937 0.431999 81.9697 0.471999 82.3217 0.551999C82.6817 0.632 83.0137 0.752 83.3177 0.912C83.6297 1.064 83.9017 1.256 84.1337 1.488L83.7497 2.28C83.3657 1.944 82.9697 1.7 82.5617 1.548C82.1537 1.396 81.6937 1.32 81.1817 1.32C80.2137 1.32 79.4737 1.62 78.9617 2.22C78.4577 2.82 78.2057 3.672 78.2057 4.776C78.2057 5.896 78.4657 6.752 78.9857 7.344C79.5137 7.936 80.3057 8.232 81.3617 8.232C81.7457 8.232 82.1217 8.196 82.4897 8.124C82.8577 8.044 83.2057 7.936 83.5337 7.8L83.3177 8.364V5.376H81.1697V4.596H84.1697V8.508C83.9537 8.62 83.6857 8.724 83.3657 8.82C83.0457 8.908 82.7097 8.976 82.3577 9.024C82.0057 9.08 81.6657 9.108 81.3377 9.108ZM87.8367 9.108C87.2447 9.108 86.7967 8.932 86.4927 8.58C86.1967 8.228 86.0487 7.724 86.0487 7.068V0.539999H87.0207V6.996C87.0207 7.276 87.0567 7.512 87.1287 7.704C87.2087 7.896 87.3247 8.04 87.4767 8.136C87.6287 8.232 87.8167 8.28 88.0407 8.28C88.1367 8.28 88.2287 8.276 88.3167 8.268C88.4127 8.252 88.5007 8.232 88.5807 8.208L88.5567 9.024C88.4287 9.048 88.3047 9.068 88.1847 9.084C88.0727 9.1 87.9567 9.108 87.8367 9.108ZM91.4355 9.108C91.0355 9.108 90.6755 9.032 90.3555 8.88C90.0435 8.72 89.7955 8.504 89.6115 8.232C89.4275 7.96 89.3355 7.656 89.3355 7.32C89.3355 6.888 89.4435 6.548 89.6595 6.3C89.8835 6.052 90.2475 5.876 90.7515 5.772C91.2635 5.668 91.9595 5.616 92.8395 5.616H93.3795V6.252H92.8515C92.3635 6.252 91.9555 6.268 91.6275 6.3C91.2995 6.332 91.0395 6.388 90.8475 6.468C90.6555 6.548 90.5195 6.652 90.4395 6.78C90.3595 6.908 90.3195 7.068 90.3195 7.26C90.3195 7.588 90.4315 7.856 90.6555 8.064C90.8875 8.272 91.1995 8.376 91.5915 8.376C91.9115 8.376 92.1915 8.3 92.4315 8.148C92.6795 7.996 92.8715 7.788 93.0075 7.524C93.1515 7.26 93.2235 6.956 93.2235 6.612V5.244C93.2235 4.748 93.1235 4.392 92.9235 4.176C92.7235 3.952 92.3955 3.84 91.9395 3.84C91.5875 3.84 91.2475 3.892 90.9195 3.996C90.5915 4.092 90.2555 4.252 89.9115 4.476L89.5755 3.768C89.7835 3.624 90.0195 3.5 90.2835 3.396C90.5475 3.284 90.8235 3.2 91.1115 3.144C91.3995 3.088 91.6755 3.06 91.9395 3.06C92.4435 3.06 92.8595 3.144 93.1875 3.312C93.5155 3.472 93.7595 3.72 93.9195 4.056C94.0795 4.384 94.1595 4.808 94.1595 5.328V9H93.2475V7.644H93.3555C93.2915 7.948 93.1675 8.208 92.9835 8.424C92.8075 8.64 92.5875 8.808 92.3235 8.928C92.0595 9.048 91.7635 9.108 91.4355 9.108ZM97.9308 9.108C97.6268 9.108 97.3308 9.076 97.0428 9.012C96.7628 8.956 96.4988 8.876 96.2508 8.772C96.0108 8.66 95.8028 8.528 95.6268 8.376L95.9388 7.692C96.1308 7.844 96.3388 7.972 96.5628 8.076C96.7868 8.172 97.0148 8.244 97.2468 8.292C97.4788 8.34 97.7148 8.364 97.9548 8.364C98.4108 8.364 98.7548 8.28 98.9868 8.112C99.2188 7.944 99.3348 7.716 99.3348 7.428C99.3348 7.204 99.2588 7.028 99.1068 6.9C98.9548 6.764 98.7148 6.66 98.3868 6.588L97.2948 6.348C96.7908 6.244 96.4148 6.064 96.1668 5.808C95.9268 5.552 95.8068 5.22 95.8068 4.812C95.8068 4.452 95.8988 4.144 96.0828 3.888C96.2748 3.624 96.5428 3.42 96.8868 3.276C97.2308 3.132 97.6308 3.06 98.0868 3.06C98.3588 3.06 98.6188 3.088 98.8668 3.144C99.1148 3.2 99.3468 3.284 99.5628 3.396C99.7868 3.5 99.9788 3.632 100.139 3.792L99.8148 4.476C99.6628 4.332 99.4908 4.212 99.2988 4.116C99.1068 4.012 98.9068 3.936 98.6988 3.888C98.4988 3.832 98.2948 3.804 98.0868 3.804C97.6388 3.804 97.2988 3.892 97.0668 4.068C96.8348 4.244 96.7188 4.476 96.7188 4.764C96.7188 4.988 96.7908 5.172 96.9348 5.316C97.0788 5.46 97.3028 5.564 97.6068 5.628L98.6988 5.856C99.2188 5.968 99.6068 6.148 99.8628 6.396C100.127 6.636 100.259 6.964 100.259 7.38C100.259 7.732 100.163 8.04 99.9708 8.304C99.7788 8.56 99.5068 8.76 99.1548 8.904C98.8108 9.04 98.4028 9.108 97.9308 9.108ZM103.708 9.108C103.404 9.108 103.108 9.076 102.82 9.012C102.54 8.956 102.276 8.876 102.028 8.772C101.788 8.66 101.58 8.528 101.404 8.376L101.716 7.692C101.908 7.844 102.116 7.972 102.34 8.076C102.564 8.172 102.792 8.244 103.024 8.292C103.256 8.34 103.492 8.364 103.732 8.364C104.188 8.364 104.532 8.28 104.764 8.112C104.996 7.944 105.112 7.716 105.112 7.428C105.112 7.204 105.036 7.028 104.884 6.9C104.732 6.764 104.492 6.66 104.164 6.588L103.072 6.348C102.568 6.244 102.192 6.064 101.944 5.808C101.704 5.552 101.584 5.22 101.584 4.812C101.584 4.452 101.676 4.144 101.86 3.888C102.052 3.624 102.32 3.42 102.664 3.276C103.008 3.132 103.408 3.06 103.864 3.06C104.136 3.06 104.396 3.088 104.644 3.144C104.892 3.2 105.124 3.284 105.34 3.396C105.564 3.5 105.756 3.632 105.916 3.792L105.592 4.476C105.44 4.332 105.268 4.212 105.076 4.116C104.884 4.012 104.684 3.936 104.476 3.888C104.276 3.832 104.072 3.804 103.864 3.804C103.416 3.804 103.076 3.892 102.844 4.068C102.612 4.244 102.496 4.476 102.496 4.764C102.496 4.988 102.568 5.172 102.712 5.316C102.856 5.46 103.08 5.564 103.384 5.628L104.476 5.856C104.996 5.968 105.384 6.148 105.64 6.396C105.904 6.636 106.036 6.964 106.036 7.38C106.036 7.732 105.94 8.04 105.748 8.304C105.556 8.56 105.284 8.76 104.932 8.904C104.588 9.04 104.18 9.108 103.708 9.108ZM107.807 10.368L107.351 10.02C107.495 9.868 107.603 9.724 107.675 9.588C107.755 9.46 107.807 9.328 107.831 9.192C107.863 9.064 107.879 8.932 107.879 8.796L108.095 9H107.303V7.776H108.527V8.64C108.527 8.856 108.503 9.06 108.455 9.252C108.415 9.452 108.343 9.644 108.239 9.828C108.135 10.012 107.991 10.192 107.807 10.368ZM113.403 9V0.539999H114.387V9H113.403ZM118.562 9.108C118.042 9.108 117.586 8.984 117.194 8.736C116.81 8.488 116.51 8.14 116.294 7.692C116.086 7.236 115.982 6.7 115.982 6.084C115.982 5.46 116.086 4.924 116.294 4.476C116.51 4.02 116.81 3.672 117.194 3.432C117.586 3.184 118.042 3.06 118.562 3.06C119.09 3.06 119.542 3.192 119.918 3.456C120.294 3.72 120.546 4.076 120.674 4.524H120.542V0.539999H121.514V9H120.566V7.608H120.686C120.558 8.064 120.302 8.428 119.918 8.7C119.542 8.972 119.09 9.108 118.562 9.108ZM118.766 8.328C119.318 8.328 119.754 8.136 120.074 7.752C120.402 7.36 120.566 6.804 120.566 6.084C120.566 5.356 120.402 4.8 120.074 4.416C119.754 4.032 119.318 3.84 118.766 3.84C118.222 3.84 117.786 4.032 117.458 4.416C117.13 4.8 116.966 5.356 116.966 6.084C116.966 6.804 117.13 7.36 117.458 7.752C117.786 8.136 118.222 8.328 118.766 8.328ZM125.966 9.108C125.35 9.108 124.818 8.988 124.37 8.748C123.93 8.5 123.586 8.152 123.338 7.704C123.098 7.256 122.978 6.72 122.978 6.096C122.978 5.488 123.098 4.96 123.338 4.512C123.578 4.056 123.906 3.7 124.322 3.444C124.746 3.188 125.234 3.06 125.786 3.06C126.314 3.06 126.766 3.176 127.142 3.408C127.518 3.64 127.806 3.968 128.006 4.392C128.214 4.816 128.318 5.324 128.318 5.916V6.288H123.722V5.652H127.67L127.478 5.808C127.478 5.168 127.334 4.672 127.046 4.32C126.766 3.96 126.354 3.78 125.81 3.78C125.402 3.78 125.054 3.876 124.766 4.068C124.486 4.252 124.274 4.512 124.13 4.848C123.986 5.176 123.914 5.56 123.914 6V6.072C123.914 6.56 123.99 6.972 124.142 7.308C124.302 7.644 124.538 7.9 124.85 8.076C125.162 8.244 125.534 8.328 125.966 8.328C126.31 8.328 126.642 8.276 126.962 8.172C127.29 8.06 127.598 7.88 127.886 7.632L128.222 8.316C127.958 8.556 127.622 8.748 127.214 8.892C126.806 9.036 126.39 9.108 125.966 9.108ZM131.561 9.108C131.161 9.108 130.801 9.032 130.481 8.88C130.169 8.72 129.921 8.504 129.737 8.232C129.553 7.96 129.461 7.656 129.461 7.32C129.461 6.888 129.569 6.548 129.785 6.3C130.009 6.052 130.373 5.876 130.877 5.772C131.389 5.668 132.085 5.616 132.965 5.616H133.505V6.252H132.977C132.489 6.252 132.081 6.268 131.753 6.3C131.425 6.332 131.165 6.388 130.973 6.468C130.781 6.548 130.645 6.652 130.565 6.78C130.485 6.908 130.445 7.068 130.445 7.26C130.445 7.588 130.557 7.856 130.781 8.064C131.013 8.272 131.325 8.376 131.717 8.376C132.037 8.376 132.317 8.3 132.557 8.148C132.805 7.996 132.997 7.788 133.133 7.524C133.277 7.26 133.349 6.956 133.349 6.612V5.244C133.349 4.748 133.249 4.392 133.049 4.176C132.849 3.952 132.521 3.84 132.065 3.84C131.713 3.84 131.373 3.892 131.045 3.996C130.717 4.092 130.381 4.252 130.037 4.476L129.701 3.768C129.909 3.624 130.145 3.5 130.409 3.396C130.673 3.284 130.949 3.2 131.237 3.144C131.525 3.088 131.801 3.06 132.065 3.06C132.569 3.06 132.985 3.144 133.313 3.312C133.641 3.472 133.885 3.72 134.045 4.056C134.205 4.384 134.285 4.808 134.285 5.328V9H133.373V7.644H133.481C133.417 7.948 133.293 8.208 133.109 8.424C132.933 8.64 132.713 8.808 132.449 8.928C132.185 9.048 131.889 9.108 131.561 9.108ZM137.876 9.108C137.284 9.108 136.836 8.932 136.532 8.58C136.236 8.228 136.088 7.724 136.088 7.068V0.539999H137.06V6.996C137.06 7.276 137.096 7.512 137.168 7.704C137.248 7.896 137.364 8.04 137.516 8.136C137.668 8.232 137.856 8.28 138.08 8.28C138.176 8.28 138.268 8.276 138.356 8.268C138.452 8.252 138.54 8.232 138.62 8.208L138.596 9.024C138.468 9.048 138.344 9.068 138.224 9.084C138.112 9.1 137.996 9.108 137.876 9.108ZM142.853 9V0.539999H148.085V1.368H143.837V4.32H147.845V5.148H143.837V9H142.853ZM151.496 9.108C150.928 9.108 150.436 8.984 150.02 8.736C149.604 8.488 149.28 8.14 149.048 7.692C148.824 7.236 148.712 6.7 148.712 6.084C148.712 5.468 148.824 4.936 149.048 4.488C149.28 4.032 149.604 3.68 150.02 3.432C150.436 3.184 150.928 3.06 151.496 3.06C152.064 3.06 152.556 3.184 152.972 3.432C153.388 3.68 153.708 4.032 153.932 4.488C154.164 4.936 154.28 5.468 154.28 6.084C154.28 6.7 154.164 7.236 153.932 7.692C153.708 8.14 153.388 8.488 152.972 8.736C152.556 8.984 152.064 9.108 151.496 9.108ZM151.496 8.328C152.048 8.328 152.484 8.136 152.804 7.752C153.132 7.36 153.296 6.8 153.296 6.072C153.296 5.352 153.132 4.8 152.804 4.416C152.484 4.032 152.048 3.84 151.496 3.84C150.952 3.84 150.516 4.032 150.188 4.416C149.86 4.8 149.696 5.352 149.696 6.072C149.696 6.8 149.86 7.36 150.188 7.752C150.516 8.136 150.952 8.328 151.496 8.328ZM155.74 9V3.168H156.688V4.548H156.568C156.704 4.076 156.94 3.72 157.276 3.48C157.612 3.232 158.056 3.088 158.608 3.048L158.956 3.012L159.028 3.852L158.416 3.924C157.872 3.972 157.452 4.148 157.156 4.452C156.868 4.748 156.724 5.156 156.724 5.676V9H155.74ZM165.991 9.108C165.551 9.108 165.135 9.068 164.743 8.988C164.359 8.908 164.003 8.796 163.675 8.652C163.355 8.5 163.063 8.316 162.799 8.1L163.147 7.308C163.419 7.508 163.695 7.68 163.975 7.824C164.263 7.96 164.571 8.064 164.899 8.136C165.235 8.2 165.599 8.232 165.991 8.232C166.711 8.232 167.243 8.1 167.587 7.836C167.939 7.564 168.115 7.208 168.115 6.768C168.115 6.536 168.059 6.336 167.947 6.168C167.843 6 167.667 5.856 167.419 5.736C167.179 5.616 166.863 5.516 166.471 5.436L165.223 5.184C164.471 5.024 163.907 4.764 163.531 4.404C163.163 4.036 162.979 3.548 162.979 2.94C162.979 2.436 163.107 1.996 163.363 1.62C163.627 1.244 163.991 0.951999 164.455 0.744C164.927 0.536 165.463 0.431999 166.063 0.431999C166.447 0.431999 166.811 0.471999 167.155 0.551999C167.499 0.632 167.815 0.752 168.103 0.912C168.399 1.064 168.659 1.252 168.883 1.476L168.535 2.244C168.175 1.916 167.795 1.68 167.395 1.536C166.995 1.384 166.547 1.308 166.051 1.308C165.627 1.308 165.259 1.372 164.947 1.5C164.643 1.628 164.403 1.816 164.227 2.064C164.059 2.304 163.975 2.584 163.975 2.904C163.975 3.288 164.091 3.592 164.323 3.816C164.563 4.04 164.951 4.204 165.487 4.308L166.735 4.572C167.543 4.74 168.139 4.996 168.523 5.34C168.915 5.676 169.111 6.136 169.111 6.72C169.111 7.184 168.983 7.6 168.727 7.968C168.479 8.328 168.119 8.608 167.647 8.808C167.183 9.008 166.631 9.108 165.991 9.108ZM170.53 9V3.168H171.478V4.464H171.346C171.442 4.168 171.582 3.916 171.766 3.708C171.958 3.492 172.182 3.332 172.438 3.228C172.702 3.116 172.99 3.06 173.302 3.06C173.798 3.06 174.198 3.18 174.502 3.42C174.814 3.652 175.022 4.016 175.126 4.512H174.946C175.09 4.064 175.346 3.712 175.714 3.456C176.09 3.192 176.526 3.06 177.022 3.06C177.462 3.06 177.822 3.144 178.102 3.312C178.39 3.48 178.606 3.736 178.75 4.08C178.894 4.416 178.966 4.844 178.966 5.364V9H177.994V5.412C177.994 4.876 177.902 4.484 177.718 4.236C177.534 3.98 177.222 3.852 176.782 3.852C176.47 3.852 176.194 3.928 175.954 4.08C175.722 4.232 175.542 4.448 175.414 4.728C175.294 5 175.234 5.324 175.234 5.7V9H174.262V5.412C174.262 4.876 174.166 4.484 173.974 4.236C173.79 3.98 173.482 3.852 173.05 3.852C172.73 3.852 172.454 3.928 172.222 4.08C171.99 4.232 171.81 4.448 171.682 4.728C171.562 5 171.502 5.324 171.502 5.7V9H170.53ZM183.207 9.108C182.639 9.108 182.147 8.984 181.731 8.736C181.315 8.488 180.991 8.14 180.759 7.692C180.535 7.236 180.423 6.7 180.423 6.084C180.423 5.468 180.535 4.936 180.759 4.488C180.991 4.032 181.315 3.68 181.731 3.432C182.147 3.184 182.639 3.06 183.207 3.06C183.775 3.06 184.267 3.184 184.683 3.432C185.099 3.68 185.419 4.032 185.643 4.488C185.875 4.936 185.991 5.468 185.991 6.084C185.991 6.7 185.875 7.236 185.643 7.692C185.419 8.14 185.099 8.488 184.683 8.736C184.267 8.984 183.775 9.108 183.207 9.108ZM183.207 8.328C183.759 8.328 184.195 8.136 184.515 7.752C184.843 7.36 185.007 6.8 185.007 6.072C185.007 5.352 184.843 4.8 184.515 4.416C184.195 4.032 183.759 3.84 183.207 3.84C182.663 3.84 182.227 4.032 181.899 4.416C181.571 4.8 181.407 5.352 181.407 6.072C181.407 6.8 181.571 7.36 181.899 7.752C182.227 8.136 182.663 8.328 183.207 8.328ZM189.875 9.108C189.307 9.108 188.815 8.984 188.399 8.736C187.983 8.488 187.659 8.14 187.427 7.692C187.203 7.236 187.091 6.7 187.091 6.084C187.091 5.468 187.203 4.936 187.427 4.488C187.659 4.032 187.983 3.68 188.399 3.432C188.815 3.184 189.307 3.06 189.875 3.06C190.443 3.06 190.935 3.184 191.351 3.432C191.767 3.68 192.087 4.032 192.311 4.488C192.543 4.936 192.659 5.468 192.659 6.084C192.659 6.7 192.543 7.236 192.311 7.692C192.087 8.14 191.767 8.488 191.351 8.736C190.935 8.984 190.443 9.108 189.875 9.108ZM189.875 8.328C190.427 8.328 190.863 8.136 191.183 7.752C191.511 7.36 191.675 6.8 191.675 6.072C191.675 5.352 191.511 4.8 191.183 4.416C190.863 4.032 190.427 3.84 189.875 3.84C189.331 3.84 188.895 4.032 188.567 4.416C188.239 4.8 188.075 5.352 188.075 6.072C188.075 6.8 188.239 7.36 188.567 7.752C188.895 8.136 189.331 8.328 189.875 8.328ZM196.4 9.108C195.712 9.108 195.196 8.924 194.852 8.556C194.508 8.188 194.336 7.664 194.336 6.984V3.924H193.196V3.168H194.336V1.38H195.308V3.168H197.156V3.924H195.308V6.888C195.308 7.344 195.404 7.692 195.596 7.932C195.788 8.164 196.1 8.28 196.532 8.28C196.66 8.28 196.788 8.264 196.916 8.232C197.044 8.2 197.16 8.168 197.264 8.136L197.432 8.88C197.328 8.936 197.176 8.988 196.976 9.036C196.776 9.084 196.584 9.108 196.4 9.108ZM198.256 9V0.539999H199.228V4.464H199.072C199.24 4 199.512 3.652 199.888 3.42C200.272 3.18 200.712 3.06 201.208 3.06C201.672 3.06 202.056 3.144 202.36 3.312C202.672 3.48 202.904 3.736 203.056 4.08C203.208 4.416 203.284 4.844 203.284 5.364V9H202.312V5.424C202.312 5.064 202.264 4.768 202.168 4.536C202.08 4.304 201.936 4.132 201.736 4.02C201.544 3.908 201.292 3.852 200.98 3.852C200.628 3.852 200.32 3.928 200.056 4.08C199.792 4.232 199.588 4.444 199.444 4.716C199.3 4.988 199.228 5.308 199.228 5.676V9H198.256ZM204.956 1.716V0.624H206.156V1.716H204.956ZM205.076 9V3.168H206.048V9H205.076ZM210.493 9.108C209.877 9.108 209.345 8.988 208.897 8.748C208.457 8.5 208.113 8.152 207.865 7.704C207.625 7.256 207.505 6.72 207.505 6.096C207.505 5.488 207.625 4.96 207.865 4.512C208.105 4.056 208.433 3.7 208.849 3.444C209.273 3.188 209.761 3.06 210.313 3.06C210.841 3.06 211.293 3.176 211.669 3.408C212.045 3.64 212.333 3.968 212.533 4.392C212.741 4.816 212.845 5.324 212.845 5.916V6.288H208.249V5.652H212.197L212.005 5.808C212.005 5.168 211.861 4.672 211.573 4.32C211.293 3.96 210.881 3.78 210.337 3.78C209.929 3.78 209.581 3.876 209.293 4.068C209.013 4.252 208.801 4.512 208.657 4.848C208.513 5.176 208.441 5.56 208.441 6V6.072C208.441 6.56 208.517 6.972 208.669 7.308C208.829 7.644 209.065 7.9 209.377 8.076C209.689 8.244 210.061 8.328 210.493 8.328C210.837 8.328 211.169 8.276 211.489 8.172C211.817 8.06 212.125 7.88 212.413 7.632L212.749 8.316C212.485 8.556 212.149 8.748 211.741 8.892C211.333 9.036 210.917 9.108 210.493 9.108ZM216.22 9.108C215.916 9.108 215.62 9.076 215.332 9.012C215.052 8.956 214.788 8.876 214.54 8.772C214.3 8.66 214.092 8.528 213.916 8.376L214.228 7.692C214.42 7.844 214.628 7.972 214.852 8.076C215.076 8.172 215.304 8.244 215.536 8.292C215.768 8.34 216.004 8.364 216.244 8.364C216.7 8.364 217.044 8.28 217.276 8.112C217.508 7.944 217.624 7.716 217.624 7.428C217.624 7.204 217.548 7.028 217.396 6.9C217.244 6.764 217.004 6.66 216.676 6.588L215.584 6.348C215.08 6.244 214.704 6.064 214.456 5.808C214.216 5.552 214.096 5.22 214.096 4.812C214.096 4.452 214.188 4.144 214.372 3.888C214.564 3.624 214.832 3.42 215.176 3.276C215.52 3.132 215.92 3.06 216.376 3.06C216.648 3.06 216.908 3.088 217.156 3.144C217.404 3.2 217.636 3.284 217.852 3.396C218.076 3.5 218.268 3.632 218.428 3.792L218.104 4.476C217.952 4.332 217.78 4.212 217.588 4.116C217.396 4.012 217.196 3.936 216.988 3.888C216.788 3.832 216.584 3.804 216.376 3.804C215.928 3.804 215.588 3.892 215.356 4.068C215.124 4.244 215.008 4.476 215.008 4.764C215.008 4.988 215.08 5.172 215.224 5.316C215.368 5.46 215.592 5.564 215.896 5.628L216.988 5.856C217.508 5.968 217.896 6.148 218.152 6.396C218.416 6.636 218.548 6.964 218.548 7.38C218.548 7.732 218.452 8.04 218.26 8.304C218.068 8.56 217.796 8.76 217.444 8.904C217.1 9.04 216.692 9.108 216.22 9.108ZM220.319 10.368L219.863 10.02C220.007 9.868 220.115 9.724 220.187 9.588C220.267 9.46 220.319 9.328 220.343 9.192C220.375 9.064 220.391 8.932 220.391 8.796L220.607 9H219.815V7.776H221.039V8.64C221.039 8.856 221.015 9.06 220.967 9.252C220.927 9.452 220.855 9.644 220.751 9.828C220.647 10.012 220.503 10.192 220.319 10.368ZM224.823 9.084L224.751 8.256L225.471 8.208C225.751 8.184 225.983 8.116 226.167 8.004C226.351 7.884 226.491 7.716 226.587 7.5C226.683 7.284 226.731 7.032 226.731 6.744V0.539999H227.715V6.756C227.715 7.212 227.635 7.608 227.475 7.944C227.315 8.272 227.079 8.528 226.767 8.712C226.455 8.896 226.067 9.004 225.603 9.036L224.823 9.084ZM231.738 9.108C231.266 9.108 230.874 9.024 230.562 8.856C230.258 8.68 230.026 8.42 229.866 8.076C229.714 7.732 229.638 7.304 229.638 6.792V3.168H230.61V6.78C230.61 7.124 230.654 7.412 230.742 7.644C230.838 7.868 230.986 8.036 231.186 8.148C231.386 8.252 231.634 8.304 231.93 8.304C232.266 8.304 232.558 8.228 232.806 8.076C233.054 7.924 233.25 7.712 233.394 7.44C233.538 7.168 233.61 6.848 233.61 6.48V3.168H234.582V9H233.634V7.656H233.79C233.63 8.128 233.366 8.488 232.998 8.736C232.638 8.984 232.218 9.108 231.738 9.108ZM236.28 1.716V0.624H237.48V1.716H236.28ZM236.4 9V3.168H237.372V9H236.4ZM241.661 9.108C241.077 9.108 240.573 8.98 240.149 8.724C239.725 8.468 239.397 8.112 239.165 7.656C238.941 7.192 238.829 6.656 238.829 6.048C238.829 5.432 238.941 4.9 239.165 4.452C239.397 4.004 239.725 3.66 240.149 3.42C240.573 3.18 241.077 3.06 241.661 3.06C242.021 3.06 242.377 3.124 242.729 3.252C243.081 3.38 243.373 3.56 243.605 3.792L243.269 4.5C243.037 4.276 242.781 4.112 242.501 4.008C242.229 3.904 241.969 3.852 241.721 3.852C241.113 3.852 240.645 4.044 240.317 4.428C239.989 4.804 239.825 5.348 239.825 6.06C239.825 6.756 239.989 7.308 240.317 7.716C240.645 8.116 241.113 8.316 241.721 8.316C241.969 8.316 242.229 8.264 242.501 8.16C242.781 8.056 243.037 7.888 243.269 7.656L243.605 8.364C243.373 8.596 243.077 8.78 242.717 8.916C242.365 9.044 242.013 9.108 241.661 9.108ZM247.255 9.108C246.639 9.108 246.107 8.988 245.659 8.748C245.219 8.5 244.875 8.152 244.627 7.704C244.387 7.256 244.267 6.72 244.267 6.096C244.267 5.488 244.387 4.96 244.627 4.512C244.867 4.056 245.195 3.7 245.611 3.444C246.035 3.188 246.523 3.06 247.075 3.06C247.603 3.06 248.055 3.176 248.431 3.408C248.807 3.64 249.095 3.968 249.295 4.392C249.503 4.816 249.607 5.324 249.607 5.916V6.288H245.011V5.652H248.959L248.767 5.808C248.767 5.168 248.623 4.672 248.335 4.32C248.055 3.96 247.643 3.78 247.099 3.78C246.691 3.78 246.343 3.876 246.055 4.068C245.775 4.252 245.563 4.512 245.419 4.848C245.275 5.176 245.203 5.56 245.203 6V6.072C245.203 6.56 245.279 6.972 245.431 7.308C245.591 7.644 245.827 7.9 246.139 8.076C246.451 8.244 246.823 8.328 247.255 8.328C247.599 8.328 247.931 8.276 248.251 8.172C248.579 8.06 248.887 7.88 249.175 7.632L249.511 8.316C249.247 8.556 248.911 8.748 248.503 8.892C248.095 9.036 247.679 9.108 247.255 9.108ZM252.982 9.108C252.678 9.108 252.382 9.076 252.094 9.012C251.814 8.956 251.55 8.876 251.302 8.772C251.062 8.66 250.854 8.528 250.678 8.376L250.99 7.692C251.182 7.844 251.39 7.972 251.614 8.076C251.838 8.172 252.066 8.244 252.298 8.292C252.53 8.34 252.766 8.364 253.006 8.364C253.462 8.364 253.806 8.28 254.038 8.112C254.27 7.944 254.386 7.716 254.386 7.428C254.386 7.204 254.31 7.028 254.158 6.9C254.006 6.764 253.766 6.66 253.438 6.588L252.346 6.348C251.842 6.244 251.466 6.064 251.218 5.808C250.978 5.552 250.858 5.22 250.858 4.812C250.858 4.452 250.95 4.144 251.134 3.888C251.326 3.624 251.594 3.42 251.938 3.276C252.282 3.132 252.682 3.06 253.138 3.06C253.41 3.06 253.67 3.088 253.918 3.144C254.166 3.2 254.398 3.284 254.614 3.396C254.838 3.5 255.03 3.632 255.19 3.792L254.866 4.476C254.714 4.332 254.542 4.212 254.35 4.116C254.158 4.012 253.958 3.936 253.75 3.888C253.55 3.832 253.346 3.804 253.138 3.804C252.69 3.804 252.35 3.892 252.118 4.068C251.886 4.244 251.77 4.476 251.77 4.764C251.77 4.988 251.842 5.172 251.986 5.316C252.13 5.46 252.354 5.564 252.658 5.628L253.75 5.856C254.27 5.968 254.658 6.148 254.914 6.396C255.178 6.636 255.31 6.964 255.31 7.38C255.31 7.732 255.214 8.04 255.022 8.304C254.83 8.56 254.558 8.76 254.206 8.904C253.862 9.04 253.454 9.108 252.982 9.108ZM257.08 10.368L256.624 10.02C256.768 9.868 256.876 9.724 256.948 9.588C257.028 9.46 257.08 9.328 257.104 9.192C257.136 9.064 257.152 8.932 257.152 8.796L257.368 9H256.576V7.776H257.8V8.64C257.8 8.856 257.776 9.06 257.728 9.252C257.688 9.452 257.616 9.644 257.512 9.828C257.408 10.012 257.264 10.192 257.08 10.368ZM262.701 9V0.539999H263.529L266.961 6.984H266.601L270.009 0.539999H270.837V9H269.925V1.86H270.213L267.105 7.692H266.457L263.313 1.848H263.601V9H262.701ZM275.234 9.108C274.666 9.108 274.174 8.984 273.758 8.736C273.342 8.488 273.018 8.14 272.786 7.692C272.562 7.236 272.45 6.7 272.45 6.084C272.45 5.468 272.562 4.936 272.786 4.488C273.018 4.032 273.342 3.68 273.758 3.432C274.174 3.184 274.666 3.06 275.234 3.06C275.802 3.06 276.294 3.184 276.71 3.432C277.126 3.68 277.446 4.032 277.67 4.488C277.902 4.936 278.018 5.468 278.018 6.084C278.018 6.7 277.902 7.236 277.67 7.692C277.446 8.14 277.126 8.488 276.71 8.736C276.294 8.984 275.802 9.108 275.234 9.108ZM275.234 8.328C275.786 8.328 276.222 8.136 276.542 7.752C276.87 7.36 277.034 6.8 277.034 6.072C277.034 5.352 276.87 4.8 276.542 4.416C276.222 4.032 275.786 3.84 275.234 3.84C274.69 3.84 274.254 4.032 273.926 4.416C273.598 4.8 273.434 5.352 273.434 6.072C273.434 6.8 273.598 7.36 273.926 7.752C274.254 8.136 274.69 8.328 275.234 8.328ZM281.95 9.108C281.366 9.108 280.862 8.98 280.438 8.724C280.014 8.468 279.686 8.112 279.454 7.656C279.23 7.192 279.118 6.656 279.118 6.048C279.118 5.432 279.23 4.9 279.454 4.452C279.686 4.004 280.014 3.66 280.438 3.42C280.862 3.18 281.366 3.06 281.95 3.06C282.31 3.06 282.666 3.124 283.018 3.252C283.37 3.38 283.662 3.56 283.894 3.792L283.558 4.5C283.326 4.276 283.07 4.112 282.79 4.008C282.518 3.904 282.258 3.852 282.01 3.852C281.402 3.852 280.934 4.044 280.606 4.428C280.278 4.804 280.114 5.348 280.114 6.06C280.114 6.756 280.278 7.308 280.606 7.716C280.934 8.116 281.402 8.316 282.01 8.316C282.258 8.316 282.518 8.264 282.79 8.16C283.07 8.056 283.326 7.888 283.558 7.656L283.894 8.364C283.662 8.596 283.366 8.78 283.006 8.916C282.654 9.044 282.302 9.108 281.95 9.108ZM285.033 9V0.539999H286.005V5.76H286.029L288.729 3.168H289.965L286.761 6.24V5.712L290.217 9H288.981L286.029 6.264H286.005V9H285.033ZM293.232 9.108C292.544 9.108 292.028 8.924 291.684 8.556C291.34 8.188 291.168 7.664 291.168 6.984V3.924H290.028V3.168H291.168V1.38H292.14V3.168H293.988V3.924H292.14V6.888C292.14 7.344 292.236 7.692 292.428 7.932C292.62 8.164 292.932 8.28 293.364 8.28C293.492 8.28 293.62 8.264 293.748 8.232C293.876 8.2 293.992 8.168 294.096 8.136L294.264 8.88C294.16 8.936 294.008 8.988 293.808 9.036C293.608 9.084 293.416 9.108 293.232 9.108ZM296.924 9.108C296.524 9.108 296.164 9.032 295.844 8.88C295.532 8.72 295.284 8.504 295.1 8.232C294.916 7.96 294.824 7.656 294.824 7.32C294.824 6.888 294.932 6.548 295.148 6.3C295.372 6.052 295.736 5.876 296.24 5.772C296.752 5.668 297.448 5.616 298.328 5.616H298.868V6.252H298.34C297.852 6.252 297.444 6.268 297.116 6.3C296.788 6.332 296.528 6.388 296.336 6.468C296.144 6.548 296.008 6.652 295.928 6.78C295.848 6.908 295.808 7.068 295.808 7.26C295.808 7.588 295.92 7.856 296.144 8.064C296.376 8.272 296.688 8.376 297.08 8.376C297.4 8.376 297.68 8.3 297.92 8.148C298.168 7.996 298.36 7.788 298.496 7.524C298.64 7.26 298.712 6.956 298.712 6.612V5.244C298.712 4.748 298.612 4.392 298.412 4.176C298.212 3.952 297.884 3.84 297.428 3.84C297.076 3.84 296.736 3.892 296.408 3.996C296.08 4.092 295.744 4.252 295.4 4.476L295.064 3.768C295.272 3.624 295.508 3.5 295.772 3.396C296.036 3.284 296.312 3.2 296.6 3.144C296.888 3.088 297.164 3.06 297.428 3.06C297.932 3.06 298.348 3.144 298.676 3.312C299.004 3.472 299.248 3.72 299.408 4.056C299.568 4.384 299.648 4.808 299.648 5.328V9H298.736V7.644H298.844C298.78 7.948 298.656 8.208 298.472 8.424C298.296 8.64 298.076 8.808 297.812 8.928C297.548 9.048 297.252 9.108 296.924 9.108ZM301.331 1.716V0.624H302.531V1.716H301.331ZM301.451 9V3.168H302.423V9H301.451ZM306.028 9.108C305.436 9.108 304.988 8.932 304.684 8.58C304.388 8.228 304.24 7.724 304.24 7.068V0.539999H305.212V6.996C305.212 7.276 305.248 7.512 305.32 7.704C305.4 7.896 305.516 8.04 305.668 8.136C305.82 8.232 306.008 8.28 306.232 8.28C306.328 8.28 306.42 8.276 306.508 8.268C306.604 8.252 306.692 8.232 306.772 8.208L306.748 9.024C306.62 9.048 306.496 9.068 306.376 9.084C306.264 9.1 306.148 9.108 306.028 9.108ZM309.7 9.108C309.396 9.108 309.1 9.076 308.812 9.012C308.532 8.956 308.268 8.876 308.02 8.772C307.78 8.66 307.572 8.528 307.396 8.376L307.708 7.692C307.9 7.844 308.108 7.972 308.332 8.076C308.556 8.172 308.784 8.244 309.016 8.292C309.248 8.34 309.484 8.364 309.724 8.364C310.18 8.364 310.524 8.28 310.756 8.112C310.988 7.944 311.104 7.716 311.104 7.428C311.104 7.204 311.028 7.028 310.876 6.9C310.724 6.764 310.484 6.66 310.156 6.588L309.064 6.348C308.56 6.244 308.184 6.064 307.936 5.808C307.696 5.552 307.576 5.22 307.576 4.812C307.576 4.452 307.668 4.144 307.852 3.888C308.044 3.624 308.312 3.42 308.656 3.276C309 3.132 309.4 3.06 309.856 3.06C310.128 3.06 310.388 3.088 310.636 3.144C310.884 3.2 311.116 3.284 311.332 3.396C311.556 3.5 311.748 3.632 311.908 3.792L311.584 4.476C311.432 4.332 311.26 4.212 311.068 4.116C310.876 4.012 310.676 3.936 310.468 3.888C310.268 3.832 310.064 3.804 309.856 3.804C309.408 3.804 309.068 3.892 308.836 4.068C308.604 4.244 308.488 4.476 308.488 4.764C308.488 4.988 308.56 5.172 308.704 5.316C308.848 5.46 309.072 5.564 309.376 5.628L310.468 5.856C310.988 5.968 311.376 6.148 311.632 6.396C311.896 6.636 312.028 6.964 312.028 7.38C312.028 7.732 311.932 8.04 311.74 8.304C311.548 8.56 311.276 8.76 310.924 8.904C310.58 9.04 310.172 9.108 309.7 9.108ZM313.799 10.368L313.343 10.02C313.487 9.868 313.595 9.724 313.667 9.588C313.747 9.46 313.799 9.328 313.823 9.192C313.855 9.064 313.871 8.932 313.871 8.796L314.087 9H313.295V7.776H314.519V8.64C314.519 8.856 314.495 9.06 314.447 9.252C314.407 9.452 314.335 9.644 314.231 9.828C314.127 10.012 313.983 10.192 313.799 10.368ZM1.044 25V16.54H2.028V25H1.044ZM6.45431 25.108C5.87031 25.108 5.36631 24.98 4.94231 24.724C4.51831 24.468 4.19031 24.112 3.95831 23.656C3.73431 23.192 3.62231 22.656 3.62231 22.048C3.62231 21.432 3.73431 20.9 3.95831 20.452C4.19031 20.004 4.51831 19.66 4.94231 19.42C5.36631 19.18 5.87031 19.06 6.45431 19.06C6.81431 19.06 7.17031 19.124 7.52231 19.252C7.87431 19.38 8.16631 19.56 8.39831 19.792L8.06231 20.5C7.83031 20.276 7.57431 20.112 7.29431 20.008C7.02231 19.904 6.76231 19.852 6.51431 19.852C5.90631 19.852 5.43831 20.044 5.11031 20.428C4.78231 20.804 4.61831 21.348 4.61831 22.06C4.61831 22.756 4.78231 23.308 5.11031 23.716C5.43831 24.116 5.90631 24.316 6.51431 24.316C6.76231 24.316 7.02231 24.264 7.29431 24.16C7.57431 24.056 7.83031 23.888 8.06231 23.656L8.39831 24.364C8.16631 24.596 7.87031 24.78 7.51031 24.916C7.15831 25.044 6.80631 25.108 6.45431 25.108ZM12.0478 25.108C11.4318 25.108 10.8998 24.988 10.4518 24.748C10.0118 24.5 9.66781 24.152 9.41981 23.704C9.17981 23.256 9.05981 22.72 9.05981 22.096C9.05981 21.488 9.17981 20.96 9.41981 20.512C9.65981 20.056 9.98781 19.7 10.4038 19.444C10.8278 19.188 11.3158 19.06 11.8678 19.06C12.3958 19.06 12.8478 19.176 13.2238 19.408C13.5998 19.64 13.8878 19.968 14.0878 20.392C14.2958 20.816 14.3998 21.324 14.3998 21.916V22.288H9.80381V21.652H13.7518L13.5598 21.808C13.5598 21.168 13.4158 20.672 13.1278 20.32C12.8478 19.96 12.4358 19.78 11.8918 19.78C11.4838 19.78 11.1358 19.876 10.8478 20.068C10.5678 20.252 10.3558 20.512 10.2118 20.848C10.0678 21.176 9.99581 21.56 9.99581 22V22.072C9.99581 22.56 10.0718 22.972 10.2238 23.308C10.3838 23.644 10.6198 23.9 10.9318 24.076C11.2438 24.244 11.6158 24.328 12.0478 24.328C12.3918 24.328 12.7238 24.276 13.0438 24.172C13.3718 24.06 13.6798 23.88 13.9678 23.632L14.3038 24.316C14.0398 24.556 13.7038 24.748 13.2958 24.892C12.8878 25.036 12.4718 25.108 12.0478 25.108ZM18.0265 25.108C17.5065 25.108 17.0505 24.984 16.6585 24.736C16.2745 24.488 15.9745 24.14 15.7585 23.692C15.5505 23.236 15.4465 22.7 15.4465 22.084C15.4465 21.46 15.5505 20.924 15.7585 20.476C15.9745 20.02 16.2745 19.672 16.6585 19.432C17.0505 19.184 17.5065 19.06 18.0265 19.06C18.5545 19.06 19.0065 19.192 19.3825 19.456C19.7585 19.72 20.0105 20.076 20.1385 20.524H20.0065V16.54H20.9785V25H20.0305V23.608H20.1505C20.0225 24.064 19.7665 24.428 19.3825 24.7C19.0065 24.972 18.5545 25.108 18.0265 25.108ZM18.2305 24.328C18.7825 24.328 19.2185 24.136 19.5385 23.752C19.8665 23.36 20.0305 22.804 20.0305 22.084C20.0305 21.356 19.8665 20.8 19.5385 20.416C19.2185 20.032 18.7825 19.84 18.2305 19.84C17.6865 19.84 17.2505 20.032 16.9225 20.416C16.5945 20.8 16.4305 21.356 16.4305 22.084C16.4305 22.804 16.5945 23.36 16.9225 23.752C17.2505 24.136 17.6865 24.328 18.2305 24.328ZM29.6767 25.108C28.8447 25.108 28.1327 24.932 27.5407 24.58C26.9487 24.228 26.4927 23.728 26.1727 23.08C25.8607 22.432 25.7047 21.66 25.7047 20.764C25.7047 19.868 25.8607 19.1 26.1727 18.46C26.4927 17.812 26.9487 17.312 27.5407 16.96C28.1327 16.608 28.8447 16.432 29.6767 16.432C30.2607 16.432 30.8007 16.524 31.2967 16.708C31.7927 16.892 32.2087 17.16 32.5447 17.512L32.1607 18.316C31.7927 17.972 31.4087 17.724 31.0087 17.572C30.6167 17.412 30.1807 17.332 29.7007 17.332C28.7487 17.332 28.0207 17.632 27.5167 18.232C27.0127 18.832 26.7607 19.676 26.7607 20.764C26.7607 21.852 27.0127 22.7 27.5167 23.308C28.0207 23.908 28.7487 24.208 29.7007 24.208C30.1807 24.208 30.6167 24.132 31.0087 23.98C31.4087 23.82 31.7927 23.568 32.1607 23.224L32.5447 24.028C32.2087 24.372 31.7927 24.64 31.2967 24.832C30.8007 25.016 30.2607 25.108 29.6767 25.108ZM35.961 25.108C35.393 25.108 34.901 24.984 34.485 24.736C34.069 24.488 33.745 24.14 33.513 23.692C33.289 23.236 33.177 22.7 33.177 22.084C33.177 21.468 33.289 20.936 33.513 20.488C33.745 20.032 34.069 19.68 34.485 19.432C34.901 19.184 35.393 19.06 35.961 19.06C36.529 19.06 37.021 19.184 37.437 19.432C37.853 19.68 38.173 20.032 38.397 20.488C38.629 20.936 38.745 21.468 38.745 22.084C38.745 22.7 38.629 23.236 38.397 23.692C38.173 24.14 37.853 24.488 37.437 24.736C37.021 24.984 36.529 25.108 35.961 25.108ZM35.961 24.328C36.513 24.328 36.949 24.136 37.269 23.752C37.597 23.36 37.761 22.8 37.761 22.072C37.761 21.352 37.597 20.8 37.269 20.416C36.949 20.032 36.513 19.84 35.961 19.84C35.417 19.84 34.981 20.032 34.653 20.416C34.325 20.8 34.161 21.352 34.161 22.072C34.161 22.8 34.325 23.36 34.653 23.752C34.981 24.136 35.417 24.328 35.961 24.328ZM40.4584 25V19.924H39.3064V19.168H40.7224L40.4584 19.42V18.964C40.4584 18.188 40.6504 17.6 41.0344 17.2C41.4264 16.8 42.0264 16.576 42.8344 16.528L43.3024 16.504L43.3864 17.248L42.8344 17.284C42.5064 17.308 42.2384 17.38 42.0304 17.5C41.8224 17.62 41.6704 17.792 41.5744 18.016C41.4784 18.24 41.4304 18.516 41.4304 18.844V19.348L41.2864 19.168H43.1104V19.924H41.4304V25H40.4584ZM44.267 25V19.924H43.115V19.168H44.531L44.267 19.42V18.964C44.267 18.188 44.459 17.6 44.843 17.2C45.235 16.8 45.835 16.576 46.643 16.528L47.111 16.504L47.195 17.248L46.643 17.284C46.315 17.308 46.047 17.38 45.839 17.5C45.631 17.62 45.479 17.792 45.383 18.016C45.287 18.24 45.239 18.516 45.239 18.844V19.348L45.095 19.168H46.919V19.924H45.239V25H44.267ZM50.415 25.108C49.799 25.108 49.267 24.988 48.819 24.748C48.379 24.5 48.035 24.152 47.787 23.704C47.547 23.256 47.427 22.72 47.427 22.096C47.427 21.488 47.547 20.96 47.787 20.512C48.027 20.056 48.355 19.7 48.771 19.444C49.195 19.188 49.683 19.06 50.235 19.06C50.763 19.06 51.215 19.176 51.591 19.408C51.967 19.64 52.255 19.968 52.455 20.392C52.663 20.816 52.767 21.324 52.767 21.916V22.288H48.171V21.652H52.119L51.927 21.808C51.927 21.168 51.783 20.672 51.495 20.32C51.215 19.96 50.803 19.78 50.259 19.78C49.851 19.78 49.503 19.876 49.215 20.068C48.935 20.252 48.723 20.512 48.579 20.848C48.435 21.176 48.363 21.56 48.363 22V22.072C48.363 22.56 48.439 22.972 48.591 23.308C48.751 23.644 48.987 23.9 49.299 24.076C49.611 24.244 49.983 24.328 50.415 24.328C50.759 24.328 51.091 24.276 51.411 24.172C51.739 24.06 52.047 23.88 52.335 23.632L52.671 24.316C52.407 24.556 52.071 24.748 51.663 24.892C51.255 25.036 50.839 25.108 50.415 25.108ZM56.8017 25.108C56.1857 25.108 55.6537 24.988 55.2057 24.748C54.7657 24.5 54.4217 24.152 54.1737 23.704C53.9337 23.256 53.8137 22.72 53.8137 22.096C53.8137 21.488 53.9337 20.96 54.1737 20.512C54.4137 20.056 54.7417 19.7 55.1577 19.444C55.5817 19.188 56.0697 19.06 56.6217 19.06C57.1497 19.06 57.6017 19.176 57.9777 19.408C58.3537 19.64 58.6417 19.968 58.8417 20.392C59.0497 20.816 59.1537 21.324 59.1537 21.916V22.288H54.5577V21.652H58.5057L58.3137 21.808C58.3137 21.168 58.1697 20.672 57.8817 20.32C57.6017 19.96 57.1897 19.78 56.6457 19.78C56.2377 19.78 55.8897 19.876 55.6017 20.068C55.3217 20.252 55.1097 20.512 54.9657 20.848C54.8217 21.176 54.7497 21.56 54.7497 22V22.072C54.7497 22.56 54.8257 22.972 54.9777 23.308C55.1377 23.644 55.3737 23.9 55.6857 24.076C55.9977 24.244 56.3697 24.328 56.8017 24.328C57.1457 24.328 57.4777 24.276 57.7977 24.172C58.1257 24.06 58.4337 23.88 58.7217 23.632L59.0577 24.316C58.7937 24.556 58.4577 24.748 58.0497 24.892C57.6417 25.036 57.2257 25.108 56.8017 25.108ZM60.9084 26.368L60.4524 26.02C60.5964 25.868 60.7044 25.724 60.7764 25.588C60.8564 25.46 60.9084 25.328 60.9324 25.192C60.9644 25.064 60.9804 24.932 60.9804 24.796L61.1964 25H60.4044V23.776H61.6284V24.64C61.6284 24.856 61.6044 25.06 61.5564 25.252C61.5164 25.452 61.4444 25.644 61.3404 25.828C61.2364 26.012 61.0924 26.192 60.9084 26.368ZM65.6889 25L69.4209 16.54H70.2609L73.9929 25H72.9729L71.9289 22.588L72.4089 22.84H67.2489L67.7409 22.588L66.7089 25H65.6889ZM69.8289 17.692L67.8969 22.24L67.6089 22.012H72.0489L71.7849 22.24L69.8529 17.692H69.8289ZM75.1151 25V19.168H76.0631V20.464H75.9311C76.0991 20 76.3711 19.652 76.7471 19.42C77.1311 19.18 77.5711 19.06 78.0671 19.06C78.5311 19.06 78.9151 19.144 79.2191 19.312C79.5311 19.472 79.7631 19.724 79.9151 20.068C80.0671 20.412 80.1431 20.844 80.1431 21.364V25H79.1711V21.424C79.1711 21.064 79.1231 20.768 79.0271 20.536C78.9391 20.304 78.7951 20.132 78.5951 20.02C78.4031 19.908 78.1511 19.852 77.8391 19.852C77.4871 19.852 77.1791 19.928 76.9151 20.08C76.6511 20.232 76.4471 20.444 76.3031 20.716C76.1591 20.988 76.0871 21.308 76.0871 21.676V25H75.1151ZM84.1554 25.108C83.6354 25.108 83.1794 24.984 82.7874 24.736C82.4034 24.488 82.1034 24.14 81.8874 23.692C81.6794 23.236 81.5754 22.7 81.5754 22.084C81.5754 21.46 81.6794 20.924 81.8874 20.476C82.1034 20.02 82.4034 19.672 82.7874 19.432C83.1794 19.184 83.6354 19.06 84.1554 19.06C84.6834 19.06 85.1354 19.192 85.5114 19.456C85.8874 19.72 86.1394 20.076 86.2674 20.524H86.1354V16.54H87.1074V25H86.1594V23.608H86.2794C86.1514 24.064 85.8954 24.428 85.5114 24.7C85.1354 24.972 84.6834 25.108 84.1554 25.108ZM84.3594 24.328C84.9114 24.328 85.3474 24.136 85.6674 23.752C85.9954 23.36 86.1594 22.804 86.1594 22.084C86.1594 21.356 85.9954 20.8 85.6674 20.416C85.3474 20.032 84.9114 19.84 84.3594 19.84C83.8154 19.84 83.3794 20.032 83.0514 20.416C82.7234 20.8 82.5594 21.356 82.5594 22.084C82.5594 22.804 82.7234 23.36 83.0514 23.752C83.3794 24.136 83.8154 24.328 84.3594 24.328ZM92.1456 25V16.54H95.4936C96.3976 16.54 97.0936 16.752 97.5816 17.176C98.0696 17.6 98.3136 18.204 98.3136 18.988C98.3136 19.484 98.2016 19.916 97.9776 20.284C97.7616 20.644 97.4416 20.92 97.0176 21.112C96.5936 21.296 96.0856 21.388 95.4936 21.388L95.6136 21.232H95.8536C96.1656 21.232 96.4376 21.312 96.6696 21.472C96.9016 21.632 97.1136 21.888 97.3056 22.24L98.7936 25H97.7136L96.2496 22.288C96.1296 22.064 95.9936 21.888 95.8416 21.76C95.6976 21.632 95.5296 21.544 95.3376 21.496C95.1536 21.448 94.9296 21.424 94.6656 21.424H93.1296V25H92.1456ZM93.1296 20.644H95.3496C96.0056 20.644 96.5016 20.508 96.8376 20.236C97.1736 19.956 97.3416 19.54 97.3416 18.988C97.3416 18.452 97.1736 18.048 96.8376 17.776C96.5016 17.496 96.0056 17.356 95.3496 17.356H93.1296V20.644ZM102.54 25.108C101.924 25.108 101.392 24.988 100.944 24.748C100.504 24.5 100.16 24.152 99.912 23.704C99.672 23.256 99.552 22.72 99.552 22.096C99.552 21.488 99.672 20.96 99.912 20.512C100.152 20.056 100.48 19.7 100.896 19.444C101.32 19.188 101.808 19.06 102.36 19.06C102.888 19.06 103.34 19.176 103.716 19.408C104.092 19.64 104.38 19.968 104.58 20.392C104.788 20.816 104.892 21.324 104.892 21.916V22.288H100.296V21.652H104.244L104.052 21.808C104.052 21.168 103.908 20.672 103.62 20.32C103.34 19.96 102.928 19.78 102.384 19.78C101.976 19.78 101.628 19.876 101.34 20.068C101.06 20.252 100.848 20.512 100.704 20.848C100.56 21.176 100.488 21.56 100.488 22V22.072C100.488 22.56 100.564 22.972 100.716 23.308C100.876 23.644 101.112 23.9 101.424 24.076C101.736 24.244 102.108 24.328 102.54 24.328C102.884 24.328 103.216 24.276 103.536 24.172C103.864 24.06 104.172 23.88 104.46 23.632L104.796 24.316C104.532 24.556 104.196 24.748 103.788 24.892C103.38 25.036 102.964 25.108 102.54 25.108ZM106.611 25V19.924H105.459V19.168H106.875L106.611 19.42V18.964C106.611 18.188 106.803 17.6 107.187 17.2C107.579 16.8 108.179 16.576 108.987 16.528L109.455 16.504L109.539 17.248L108.987 17.284C108.659 17.308 108.391 17.38 108.183 17.5C107.975 17.62 107.823 17.792 107.727 18.016C107.631 18.24 107.583 18.516 107.583 18.844V19.348L107.439 19.168H109.263V19.924H107.583V25H106.611ZM110.295 25V19.168H111.243V20.548H111.123C111.259 20.076 111.495 19.72 111.831 19.48C112.167 19.232 112.611 19.088 113.163 19.048L113.511 19.012L113.583 19.852L112.971 19.924C112.427 19.972 112.007 20.148 111.711 20.452C111.423 20.748 111.279 21.156 111.279 21.676V25H110.295ZM117.153 25.108C116.537 25.108 116.005 24.988 115.557 24.748C115.117 24.5 114.773 24.152 114.525 23.704C114.285 23.256 114.165 22.72 114.165 22.096C114.165 21.488 114.285 20.96 114.525 20.512C114.765 20.056 115.093 19.7 115.509 19.444C115.933 19.188 116.421 19.06 116.973 19.06C117.501 19.06 117.953 19.176 118.329 19.408C118.705 19.64 118.993 19.968 119.193 20.392C119.401 20.816 119.505 21.324 119.505 21.916V22.288H114.909V21.652H118.857L118.665 21.808C118.665 21.168 118.521 20.672 118.233 20.32C117.953 19.96 117.541 19.78 116.997 19.78C116.589 19.78 116.241 19.876 115.953 20.068C115.673 20.252 115.461 20.512 115.317 20.848C115.173 21.176 115.101 21.56 115.101 22V22.072C115.101 22.56 115.177 22.972 115.329 23.308C115.489 23.644 115.725 23.9 116.037 24.076C116.349 24.244 116.721 24.328 117.153 24.328C117.497 24.328 117.829 24.276 118.149 24.172C118.477 24.06 118.785 23.88 119.073 23.632L119.409 24.316C119.145 24.556 118.809 24.748 118.401 24.892C117.993 25.036 117.577 25.108 117.153 25.108ZM122.88 25.108C122.576 25.108 122.28 25.076 121.992 25.012C121.712 24.956 121.448 24.876 121.2 24.772C120.96 24.66 120.752 24.528 120.576 24.376L120.888 23.692C121.08 23.844 121.288 23.972 121.512 24.076C121.736 24.172 121.964 24.244 122.196 24.292C122.428 24.34 122.664 24.364 122.904 24.364C123.36 24.364 123.704 24.28 123.936 24.112C124.168 23.944 124.284 23.716 124.284 23.428C124.284 23.204 124.208 23.028 124.056 22.9C123.904 22.764 123.664 22.66 123.336 22.588L122.244 22.348C121.74 22.244 121.364 22.064 121.116 21.808C120.876 21.552 120.756 21.22 120.756 20.812C120.756 20.452 120.848 20.144 121.032 19.888C121.224 19.624 121.492 19.42 121.836 19.276C122.18 19.132 122.58 19.06 123.036 19.06C123.308 19.06 123.568 19.088 123.816 19.144C124.064 19.2 124.296 19.284 124.512 19.396C124.736 19.5 124.928 19.632 125.088 19.792L124.764 20.476C124.612 20.332 124.44 20.212 124.248 20.116C124.056 20.012 123.856 19.936 123.648 19.888C123.448 19.832 123.244 19.804 123.036 19.804C122.588 19.804 122.248 19.892 122.016 20.068C121.784 20.244 121.668 20.476 121.668 20.764C121.668 20.988 121.74 21.172 121.884 21.316C122.028 21.46 122.252 21.564 122.556 21.628L123.648 21.856C124.168 21.968 124.556 22.148 124.812 22.396C125.076 22.636 125.208 22.964 125.208 23.38C125.208 23.732 125.112 24.04 124.92 24.304C124.728 24.56 124.456 24.76 124.104 24.904C123.76 25.04 123.352 25.108 122.88 25.108ZM126.689 25V16.54H127.661V20.464H127.505C127.673 20 127.945 19.652 128.321 19.42C128.705 19.18 129.145 19.06 129.641 19.06C130.105 19.06 130.489 19.144 130.793 19.312C131.105 19.48 131.337 19.736 131.489 20.08C131.641 20.416 131.717 20.844 131.717 21.364V25H130.745V21.424C130.745 21.064 130.697 20.768 130.601 20.536C130.513 20.304 130.369 20.132 130.169 20.02C129.977 19.908 129.725 19.852 129.413 19.852C129.061 19.852 128.753 19.928 128.489 20.08C128.225 20.232 128.021 20.444 127.877 20.716C127.733 20.988 127.661 21.308 127.661 21.676V25H126.689ZM133.39 17.716V16.624H134.59V17.716H133.39ZM133.51 25V19.168H134.482V25H133.51ZM136.299 25V19.168H137.247V20.464H137.115C137.283 20 137.555 19.652 137.931 19.42C138.315 19.18 138.755 19.06 139.251 19.06C139.715 19.06 140.099 19.144 140.403 19.312C140.715 19.472 140.947 19.724 141.099 20.068C141.251 20.412 141.327 20.844 141.327 21.364V25H140.355V21.424C140.355 21.064 140.307 20.768 140.211 20.536C140.123 20.304 139.979 20.132 139.779 20.02C139.587 19.908 139.335 19.852 139.023 19.852C138.671 19.852 138.363 19.928 138.099 20.08C137.835 20.232 137.631 20.444 137.487 20.716C137.343 20.988 137.271 21.308 137.271 21.676V25H136.299ZM145.699 27.268C145.195 27.268 144.719 27.2 144.271 27.064C143.831 26.936 143.439 26.74 143.095 26.476L143.419 25.768C143.659 25.936 143.895 26.072 144.127 26.176C144.367 26.288 144.611 26.368 144.859 26.416C145.115 26.464 145.379 26.488 145.651 26.488C146.219 26.488 146.647 26.336 146.935 26.032C147.231 25.728 147.379 25.288 147.379 24.712V23.356H147.499C147.379 23.82 147.123 24.188 146.731 24.46C146.347 24.732 145.895 24.868 145.375 24.868C144.839 24.868 144.375 24.748 143.983 24.508C143.591 24.26 143.287 23.916 143.071 23.476C142.863 23.036 142.759 22.528 142.759 21.952C142.759 21.376 142.863 20.872 143.071 20.44C143.287 20 143.591 19.66 143.983 19.42C144.375 19.18 144.839 19.06 145.375 19.06C145.903 19.06 146.359 19.196 146.743 19.468C147.127 19.732 147.375 20.092 147.487 20.548H147.379V19.168H148.327V24.58C148.327 25.172 148.227 25.668 148.027 26.068C147.835 26.468 147.543 26.768 147.151 26.968C146.759 27.168 146.275 27.268 145.699 27.268ZM145.555 24.076C146.115 24.076 146.559 23.884 146.887 23.5C147.215 23.116 147.379 22.6 147.379 21.952C147.379 21.304 147.215 20.792 146.887 20.416C146.559 20.032 146.115 19.84 145.555 19.84C145.003 19.84 144.563 20.032 144.235 20.416C143.907 20.792 143.743 21.304 143.743 21.952C143.743 22.6 143.907 23.116 144.235 23.5C144.563 23.884 145.003 24.076 145.555 24.076ZM153.364 25V16.54H156.748C157.612 16.54 158.284 16.732 158.764 17.116C159.244 17.5 159.484 18.044 159.484 18.748C159.484 19.276 159.328 19.716 159.016 20.068C158.712 20.42 158.296 20.652 157.768 20.764V20.596C158.168 20.644 158.512 20.76 158.8 20.944C159.088 21.12 159.308 21.356 159.46 21.652C159.612 21.94 159.688 22.28 159.688 22.672C159.688 23.176 159.576 23.604 159.352 23.956C159.136 24.3 158.82 24.56 158.404 24.736C157.988 24.912 157.484 25 156.892 25H153.364ZM154.324 24.208H156.796C157.052 24.208 157.28 24.188 157.48 24.148C157.688 24.108 157.868 24.048 158.02 23.968C158.172 23.88 158.3 23.776 158.404 23.656C158.508 23.536 158.584 23.392 158.632 23.224C158.688 23.056 158.716 22.868 158.716 22.66C158.716 22.444 158.688 22.256 158.632 22.096C158.584 21.928 158.508 21.784 158.404 21.664C158.3 21.536 158.172 21.432 158.02 21.352C157.868 21.272 157.688 21.212 157.48 21.172C157.28 21.132 157.052 21.112 156.796 21.112H154.324V24.208ZM154.324 20.32H156.604C157.228 20.32 157.7 20.192 158.02 19.936C158.348 19.68 158.512 19.312 158.512 18.832C158.512 18.336 158.348 17.964 158.02 17.716C157.7 17.46 157.228 17.332 156.604 17.332H154.324V20.32ZM163.97 25.108C163.354 25.108 162.822 24.988 162.374 24.748C161.934 24.5 161.59 24.152 161.342 23.704C161.102 23.256 160.982 22.72 160.982 22.096C160.982 21.488 161.102 20.96 161.342 20.512C161.582 20.056 161.91 19.7 162.326 19.444C162.75 19.188 163.238 19.06 163.79 19.06C164.318 19.06 164.77 19.176 165.146 19.408C165.522 19.64 165.81 19.968 166.01 20.392C166.218 20.816 166.322 21.324 166.322 21.916V22.288H161.726V21.652H165.674L165.482 21.808C165.482 21.168 165.338 20.672 165.05 20.32C164.77 19.96 164.358 19.78 163.814 19.78C163.406 19.78 163.058 19.876 162.77 20.068C162.49 20.252 162.278 20.512 162.134 20.848C161.99 21.176 161.918 21.56 161.918 22V22.072C161.918 22.56 161.994 22.972 162.146 23.308C162.306 23.644 162.542 23.9 162.854 24.076C163.166 24.244 163.538 24.328 163.97 24.328C164.314 24.328 164.646 24.276 164.966 24.172C165.294 24.06 165.602 23.88 165.89 23.632L166.226 24.316C165.962 24.556 165.626 24.748 165.218 24.892C164.81 25.036 164.394 25.108 163.97 25.108ZM169.374 25L166.866 19.168H167.922L170.01 24.28H169.686L171.81 19.168H172.806L170.286 25H169.374ZM176.38 25.108C175.764 25.108 175.232 24.988 174.784 24.748C174.344 24.5 174 24.152 173.752 23.704C173.512 23.256 173.392 22.72 173.392 22.096C173.392 21.488 173.512 20.96 173.752 20.512C173.992 20.056 174.32 19.7 174.736 19.444C175.16 19.188 175.648 19.06 176.2 19.06C176.728 19.06 177.18 19.176 177.556 19.408C177.932 19.64 178.22 19.968 178.42 20.392C178.628 20.816 178.732 21.324 178.732 21.916V22.288H174.136V21.652H178.084L177.892 21.808C177.892 21.168 177.748 20.672 177.46 20.32C177.18 19.96 176.768 19.78 176.224 19.78C175.816 19.78 175.468 19.876 175.18 20.068C174.9 20.252 174.688 20.512 174.544 20.848C174.4 21.176 174.328 21.56 174.328 22V22.072C174.328 22.56 174.404 22.972 174.556 23.308C174.716 23.644 174.952 23.9 175.264 24.076C175.576 24.244 175.948 24.328 176.38 24.328C176.724 24.328 177.056 24.276 177.376 24.172C177.704 24.06 178.012 23.88 178.3 23.632L178.636 24.316C178.372 24.556 178.036 24.748 177.628 24.892C177.22 25.036 176.804 25.108 176.38 25.108ZM180.139 25V19.168H181.087V20.548H180.967C181.103 20.076 181.339 19.72 181.675 19.48C182.011 19.232 182.455 19.088 183.007 19.048L183.355 19.012L183.427 19.852L182.815 19.924C182.271 19.972 181.851 20.148 181.555 20.452C181.267 20.748 181.123 21.156 181.123 21.676V25H180.139ZM186.217 25.108C185.817 25.108 185.457 25.032 185.137 24.88C184.825 24.72 184.577 24.504 184.393 24.232C184.209 23.96 184.117 23.656 184.117 23.32C184.117 22.888 184.225 22.548 184.441 22.3C184.665 22.052 185.029 21.876 185.533 21.772C186.045 21.668 186.741 21.616 187.621 21.616H188.161V22.252H187.633C187.145 22.252 186.737 22.268 186.409 22.3C186.081 22.332 185.821 22.388 185.629 22.468C185.437 22.548 185.301 22.652 185.221 22.78C185.141 22.908 185.101 23.068 185.101 23.26C185.101 23.588 185.213 23.856 185.437 24.064C185.669 24.272 185.981 24.376 186.373 24.376C186.693 24.376 186.973 24.3 187.213 24.148C187.461 23.996 187.653 23.788 187.789 23.524C187.933 23.26 188.005 22.956 188.005 22.612V21.244C188.005 20.748 187.905 20.392 187.705 20.176C187.505 19.952 187.177 19.84 186.721 19.84C186.369 19.84 186.029 19.892 185.701 19.996C185.373 20.092 185.037 20.252 184.693 20.476L184.357 19.768C184.565 19.624 184.801 19.5 185.065 19.396C185.329 19.284 185.605 19.2 185.893 19.144C186.181 19.088 186.457 19.06 186.721 19.06C187.225 19.06 187.641 19.144 187.969 19.312C188.297 19.472 188.541 19.72 188.701 20.056C188.861 20.384 188.941 20.808 188.941 21.328V25H188.029V23.644H188.137C188.073 23.948 187.949 24.208 187.765 24.424C187.589 24.64 187.369 24.808 187.105 24.928C186.841 25.048 186.545 25.108 186.217 25.108ZM193.324 27.268C192.82 27.268 192.344 27.2 191.896 27.064C191.456 26.936 191.064 26.74 190.72 26.476L191.044 25.768C191.284 25.936 191.52 26.072 191.752 26.176C191.992 26.288 192.236 26.368 192.484 26.416C192.74 26.464 193.004 26.488 193.276 26.488C193.844 26.488 194.272 26.336 194.56 26.032C194.856 25.728 195.004 25.288 195.004 24.712V23.356H195.124C195.004 23.82 194.748 24.188 194.356 24.46C193.972 24.732 193.52 24.868 193 24.868C192.464 24.868 192 24.748 191.608 24.508C191.216 24.26 190.912 23.916 190.696 23.476C190.488 23.036 190.384 22.528 190.384 21.952C190.384 21.376 190.488 20.872 190.696 20.44C190.912 20 191.216 19.66 191.608 19.42C192 19.18 192.464 19.06 193 19.06C193.528 19.06 193.984 19.196 194.368 19.468C194.752 19.732 195 20.092 195.112 20.548H195.004V19.168H195.952V24.58C195.952 25.172 195.852 25.668 195.652 26.068C195.46 26.468 195.168 26.768 194.776 26.968C194.384 27.168 193.9 27.268 193.324 27.268ZM193.18 24.076C193.74 24.076 194.184 23.884 194.512 23.5C194.84 23.116 195.004 22.6 195.004 21.952C195.004 21.304 194.84 20.792 194.512 20.416C194.184 20.032 193.74 19.84 193.18 19.84C192.628 19.84 192.188 20.032 191.86 20.416C191.532 20.792 191.368 21.304 191.368 21.952C191.368 22.6 191.532 23.116 191.86 23.5C192.188 23.884 192.628 24.076 193.18 24.076ZM200.403 25.108C199.787 25.108 199.255 24.988 198.807 24.748C198.367 24.5 198.023 24.152 197.775 23.704C197.535 23.256 197.415 22.72 197.415 22.096C197.415 21.488 197.535 20.96 197.775 20.512C198.015 20.056 198.343 19.7 198.759 19.444C199.183 19.188 199.671 19.06 200.223 19.06C200.751 19.06 201.203 19.176 201.579 19.408C201.955 19.64 202.243 19.968 202.443 20.392C202.651 20.816 202.755 21.324 202.755 21.916V22.288H198.159V21.652H202.107L201.915 21.808C201.915 21.168 201.771 20.672 201.483 20.32C201.203 19.96 200.791 19.78 200.247 19.78C199.839 19.78 199.491 19.876 199.203 20.068C198.923 20.252 198.711 20.512 198.567 20.848C198.423 21.176 198.351 21.56 198.351 22V22.072C198.351 22.56 198.427 22.972 198.579 23.308C198.739 23.644 198.975 23.9 199.287 24.076C199.599 24.244 199.971 24.328 200.403 24.328C200.747 24.328 201.079 24.276 201.399 24.172C201.727 24.06 202.035 23.88 202.323 23.632L202.659 24.316C202.395 24.556 202.059 24.748 201.651 24.892C201.243 25.036 200.827 25.108 200.403 25.108ZM206.13 25.108C205.826 25.108 205.53 25.076 205.242 25.012C204.962 24.956 204.698 24.876 204.45 24.772C204.21 24.66 204.002 24.528 203.826 24.376L204.138 23.692C204.33 23.844 204.538 23.972 204.762 24.076C204.986 24.172 205.214 24.244 205.446 24.292C205.678 24.34 205.914 24.364 206.154 24.364C206.61 24.364 206.954 24.28 207.186 24.112C207.418 23.944 207.534 23.716 207.534 23.428C207.534 23.204 207.458 23.028 207.306 22.9C207.154 22.764 206.914 22.66 206.586 22.588L205.494 22.348C204.99 22.244 204.614 22.064 204.366 21.808C204.126 21.552 204.006 21.22 204.006 20.812C204.006 20.452 204.098 20.144 204.282 19.888C204.474 19.624 204.742 19.42 205.086 19.276C205.43 19.132 205.83 19.06 206.286 19.06C206.558 19.06 206.818 19.088 207.066 19.144C207.314 19.2 207.546 19.284 207.762 19.396C207.986 19.5 208.178 19.632 208.338 19.792L208.014 20.476C207.862 20.332 207.69 20.212 207.498 20.116C207.306 20.012 207.106 19.936 206.898 19.888C206.698 19.832 206.494 19.804 206.286 19.804C205.838 19.804 205.498 19.892 205.266 20.068C205.034 20.244 204.918 20.476 204.918 20.764C204.918 20.988 204.99 21.172 205.134 21.316C205.278 21.46 205.502 21.564 205.806 21.628L206.898 21.856C207.418 21.968 207.806 22.148 208.062 22.396C208.326 22.636 208.458 22.964 208.458 23.38C208.458 23.732 208.362 24.04 208.17 24.304C207.978 24.56 207.706 24.76 207.354 24.904C207.01 25.04 206.602 25.108 206.13 25.108ZM209.725 25V23.776H210.949V25H209.725Z" fill="white"/>
</svg>
