<svg width="136" height="80" viewBox="0 0 136 80" fill="none" xmlns="http://www.w3.org/2000/svg">
<g filter="url(#filter0_d_535_117)">
<rect x="4" y="24" width="128.083" height="47.125" rx="2" fill="#EBDBBA"/>
<rect x="4.25" y="24.25" width="127.583" height="46.625" rx="1.75" stroke="#EBDBBA" stroke-width="0.5"/>
</g>
<rect x="52.25" width="30.2083" height="30.2083" rx="3" fill="#CB3335"/>
<g clip-path="url(#clip0_535_117)">
<path fill-rule="evenodd" clip-rule="evenodd" d="M66.8348 2.4249C66.9168 2.4198 67.0026 2.4334 67.026 2.45464C67.0494 2.47588 67.69 2.81275 68.4491 3.20357C69.2086 3.59396 70.1547 4.08121 70.5519 4.28597C70.9491 4.4903 72.6602 5.36965 74.3539 6.24007C76.048 7.11007 77.4664 7.85348 77.5068 7.89171C77.5747 7.95628 77.5798 8.31269 77.5824 13.2923C77.5845 17.5569 77.5739 18.6388 77.5306 18.7009C77.5008 18.7433 75.0964 19.991 72.1874 21.4731C69.2783 22.9557 66.8603 24.1685 66.8136 24.1685C66.7669 24.1685 66.5184 24.0572 66.2613 23.9217C66.0043 23.7858 63.5974 22.5479 60.9126 21.1707C56.8897 19.1066 56.0172 18.6435 55.9513 18.5386C55.8897 18.4405 55.8753 18.3529 55.888 18.1563C55.8974 18.0161 55.9382 15.6554 55.9785 12.9099C56.0193 10.1644 56.0699 7.87047 56.0911 7.81227C56.1234 7.72349 56.9938 7.27447 61.408 5.07016C64.9351 3.30849 66.7354 2.43127 66.8348 2.4249ZM57.1404 7.95756C57.1455 7.97115 57.8039 8.33011 58.6042 8.75534C59.4046 9.18057 60.1072 9.55567 60.1654 9.58923C60.2674 9.64828 60.4598 9.55312 65.0613 7.17039C67.6955 5.80592 69.8365 4.67764 69.8191 4.66235C69.8017 4.64705 69.1326 4.29829 68.3323 3.88708C67.5319 3.47587 66.8535 3.1407 66.8242 3.14197C66.7949 3.14325 64.6021 4.22182 61.9513 5.53872C59.3005 6.85561 57.1357 7.94396 57.1404 7.95756ZM64.0621 8.42824C62.3871 9.29272 61.0159 10.0094 61.0159 10.0213C61.0154 10.0327 61.4211 10.2604 61.9177 10.5268L62.8204 11.0106C63.2813 10.7749 65.4296 9.65847 67.8913 8.37769C70.3531 7.09733 72.3696 6.03022 72.373 6.00685C72.376 5.98349 71.983 5.75877 71.4992 5.50771C71.0158 5.25665 70.6143 5.05147 70.6071 5.05232C70.6003 5.05317 69.8097 5.45928 68.851 5.95503C67.8922 6.45077 65.7371 7.56376 64.0621 8.42824ZM66.2945 9.94479C64.7941 10.7226 63.5655 11.3738 63.5651 11.3913C63.5643 11.4087 64.2809 11.8054 65.1569 12.2727L66.7499 13.1223C74.2069 9.30546 76.4044 8.17293 76.4448 8.14277C76.5081 8.09562 76.3037 7.9788 74.8615 7.23879C73.9503 6.7715 73.1912 6.38663 73.1742 6.38365C73.1572 6.38068 72.2163 6.86241 71.0829 7.45416C69.9495 8.04549 67.7949 9.16655 66.2945 9.94479ZM56.6433 13.3347C56.5898 16.799 56.5817 18.1694 56.6149 18.2038C56.6399 18.2298 57.1293 18.4906 57.7015 18.7837C58.2742 19.0764 60.4819 20.2076 62.608 21.2973C64.7342 22.3865 66.478 23.2726 66.4835 23.2658C66.4886 23.2594 66.475 21.1031 66.4529 18.4749C66.4308 15.8462 66.4075 13.6928 66.4007 13.689C66.3943 13.6852 65.6624 13.291 64.7745 12.8135L63.1603 11.9452C63.1186 12.1495 63.0949 12.7154 63.08 13.3347C63.0566 14.3364 63.0451 14.4724 62.9755 14.5667C62.9231 14.6375 62.8487 14.6767 62.7525 14.6843C62.6361 14.6941 62.3697 14.5705 61.3782 14.0471C60.7019 13.6903 60.1047 13.3649 60.0507 13.3241L59.953 13.2498L59.9318 10.215C58.055 9.20648 57.3332 8.81906 57.1166 8.70351C56.8999 8.58754 56.7215 8.49748 56.7202 8.503C56.7194 8.50853 56.6845 10.6827 56.6433 13.3347ZM67.1182 13.6826C67.0991 13.6899 67.0991 15.8513 67.1182 18.4855C67.1377 21.1197 67.1632 23.276 67.1747 23.2764C67.1861 23.2773 69.3845 22.1617 72.0599 20.7973L76.9239 18.3168C76.9405 10.8343 76.9312 8.66316 76.9133 8.66486C76.8959 8.66698 74.6929 9.79356 72.0175 11.1691C69.342 12.5446 67.1377 13.6754 67.1182 13.6826ZM60.5911 12.8887C61.9105 13.5798 62.3162 13.7863 62.3446 13.7927C62.382 13.8012 62.4041 13.6126 62.4275 13.0917C62.4453 12.6996 62.4593 12.1971 62.4593 11.9754V11.5718C61.0766 10.8309 60.656 10.616 60.6327 10.616C60.6055 10.616 60.5902 11.0229 60.5906 11.7523L60.5911 12.8887Z" fill="#EBDBBA"/>
</g>
<path d="M14.832 40V34.36H17.152C17.5573 34.36 17.9013 34.4267 18.184 34.56C18.4667 34.6933 18.6827 34.888 18.832 35.144C18.9867 35.3947 19.064 35.6987 19.064 36.056C19.064 36.4133 18.9867 36.72 18.832 36.976C18.6827 37.232 18.464 37.4293 18.176 37.568C17.8933 37.7067 17.552 37.776 17.152 37.776H15.544V40H14.832ZM15.544 37.168H17.048C17.4747 37.168 17.7973 37.0773 18.016 36.896C18.2347 36.7093 18.344 36.432 18.344 36.064C18.344 35.6907 18.2347 35.416 18.016 35.24C17.7973 35.0587 17.4747 34.968 17.048 34.968H15.544V37.168ZM19.7242 35.096V34.304H20.5882V35.096H19.7242ZM19.8042 40V36.048H20.5162V40H19.8042ZM23.441 40.072C22.9983 40.072 22.6143 39.992 22.289 39.832C21.969 39.6667 21.7237 39.432 21.553 39.128C21.3823 38.8187 21.297 38.4507 21.297 38.024C21.297 37.624 21.377 37.272 21.537 36.968C21.697 36.6587 21.9237 36.416 22.217 36.24C22.5103 36.064 22.8597 35.976 23.265 35.976C23.649 35.976 23.9743 36.0587 24.241 36.224C24.513 36.3893 24.7183 36.6213 24.857 36.92C25.001 37.2187 25.073 37.5733 25.073 37.984V38.216H21.833V37.72H24.609L24.457 37.88C24.457 37.4427 24.353 37.1067 24.145 36.872C23.9423 36.6373 23.649 36.52 23.265 36.52C23.0143 36.52 22.7903 36.5787 22.593 36.696C22.401 36.808 22.2517 36.968 22.145 37.176C22.0383 37.384 21.985 37.6373 21.985 37.936V38.016C21.985 38.336 22.0437 38.6053 22.161 38.824C22.2783 39.0427 22.4463 39.208 22.665 39.32C22.8837 39.432 23.145 39.488 23.449 39.488C23.6677 39.488 23.889 39.4587 24.113 39.4C24.3423 39.336 24.5557 39.224 24.753 39.064L24.993 39.576C24.7903 39.7467 24.5477 39.872 24.265 39.952C23.9877 40.032 23.713 40.072 23.441 40.072ZM27.6079 40.072C27.2026 40.072 26.8506 39.9867 26.5519 39.816C26.2533 39.6453 26.0213 39.408 25.8559 39.104C25.6906 38.7947 25.6079 38.432 25.6079 38.016C25.6079 37.6 25.6906 37.24 25.8559 36.936C26.0213 36.6267 26.2533 36.3893 26.5519 36.224C26.8559 36.0587 27.2106 35.976 27.6159 35.976C27.8879 35.976 28.1466 36.0213 28.3919 36.112C28.6373 36.2027 28.8399 36.3253 28.9999 36.48L28.7519 37.008C28.5973 36.8693 28.4239 36.7653 28.2319 36.696C28.0399 36.6213 27.8533 36.584 27.6719 36.584C27.2559 36.584 26.9279 36.7093 26.6879 36.96C26.4479 37.2107 26.3279 37.5653 26.3279 38.024C26.3279 38.4773 26.4479 38.832 26.6879 39.088C26.9279 39.3387 27.2533 39.464 27.6639 39.464C27.8506 39.464 28.0373 39.4293 28.2239 39.36C28.4159 39.2853 28.5866 39.1813 28.7359 39.048L28.9839 39.576C28.8293 39.7307 28.6293 39.8533 28.3839 39.944C28.1386 40.0293 27.8799 40.072 27.6079 40.072ZM31.3363 40.072C30.8936 40.072 30.5096 39.992 30.1843 39.832C29.8643 39.6667 29.619 39.432 29.4483 39.128C29.2776 38.8187 29.1923 38.4507 29.1923 38.024C29.1923 37.624 29.2723 37.272 29.4323 36.968C29.5923 36.6587 29.819 36.416 30.1123 36.24C30.4056 36.064 30.755 35.976 31.1603 35.976C31.5443 35.976 31.8696 36.0587 32.1363 36.224C32.4083 36.3893 32.6136 36.6213 32.7523 36.92C32.8963 37.2187 32.9683 37.5733 32.9683 37.984V38.216H29.7283V37.72H32.5043L32.3523 37.88C32.3523 37.4427 32.2483 37.1067 32.0403 36.872C31.8376 36.6373 31.5443 36.52 31.1603 36.52C30.9096 36.52 30.6856 36.5787 30.4883 36.696C30.2963 36.808 30.147 36.968 30.0403 37.176C29.9336 37.384 29.8803 37.6373 29.8803 37.936V38.016C29.8803 38.336 29.939 38.6053 30.0563 38.824C30.1736 39.0427 30.3416 39.208 30.5603 39.32C30.779 39.432 31.0403 39.488 31.3443 39.488C31.563 39.488 31.7843 39.4587 32.0083 39.4C32.2376 39.336 32.451 39.224 32.6483 39.064L32.8883 39.576C32.6856 39.7467 32.443 39.872 32.1603 39.952C31.883 40.032 31.6083 40.072 31.3363 40.072ZM35.1993 40.072C34.9806 40.072 34.7646 40.0507 34.5513 40.008C34.3433 39.9707 34.1486 39.9173 33.9673 39.848C33.7913 39.7733 33.6393 39.6827 33.5113 39.576L33.7433 39.072C33.8766 39.1733 34.0233 39.256 34.1833 39.32C34.3486 39.384 34.5166 39.432 34.6873 39.464C34.8633 39.4907 35.0313 39.504 35.1913 39.504C35.5219 39.504 35.7753 39.4533 35.9513 39.352C36.1326 39.2507 36.2233 39.1093 36.2233 38.928C36.2233 38.7733 36.1699 38.656 36.0633 38.576C35.9619 38.4907 35.7913 38.4267 35.5513 38.384L34.7273 38.24C34.3593 38.1707 34.0819 38.0453 33.8953 37.864C33.7139 37.6827 33.6233 37.4453 33.6233 37.152C33.6233 36.9173 33.6873 36.712 33.8153 36.536C33.9486 36.36 34.1379 36.224 34.3833 36.128C34.6286 36.0267 34.9219 35.976 35.2633 35.976C35.4499 35.976 35.6393 35.9947 35.8313 36.032C36.0286 36.0693 36.2099 36.1253 36.3753 36.2C36.5459 36.2693 36.6846 36.3573 36.7913 36.464L36.5513 36.968C36.4446 36.8667 36.3166 36.7867 36.1673 36.728C36.0233 36.664 35.8713 36.6187 35.7113 36.592C35.5566 36.56 35.4046 36.544 35.2553 36.544C34.9459 36.544 34.7059 36.5973 34.5353 36.704C34.3646 36.8053 34.2793 36.9493 34.2793 37.136C34.2793 37.2853 34.3273 37.4027 34.4233 37.488C34.5246 37.5733 34.6873 37.6373 34.9113 37.68L35.7113 37.824C36.1059 37.8987 36.3993 38.024 36.5913 38.2C36.7833 38.3707 36.8793 38.608 36.8793 38.912C36.8793 39.1467 36.8099 39.352 36.6713 39.528C36.5326 39.6987 36.3379 39.832 36.0873 39.928C35.8366 40.024 35.5406 40.072 35.1993 40.072Z" fill="#CE3439"/>
<path d="M53.1774 40V39.392H54.7214V34.928L55.0974 34.984L53.4574 36.04L53.1374 35.488L54.9054 34.36H55.4254V39.392H56.8494V40H53.1774ZM59.7023 40.072C59.4569 40.072 59.2196 40.0453 58.9903 39.992C58.7663 39.9387 58.5556 39.8613 58.3583 39.76C58.1609 39.6533 57.9849 39.5253 57.8303 39.376L58.1103 38.816C58.3556 39.04 58.6063 39.2027 58.8623 39.304C59.1236 39.4 59.4036 39.448 59.7023 39.448C60.0969 39.448 60.4036 39.3467 60.6223 39.144C60.8463 38.936 60.9583 38.6453 60.9583 38.272C60.9583 37.904 60.8543 37.6107 60.6463 37.392C60.4383 37.1733 60.1503 37.064 59.7823 37.064C59.5369 37.064 59.3129 37.1147 59.1103 37.216C58.9129 37.312 58.7289 37.4747 58.5583 37.704H57.9983V34.36H61.3743V34.976H58.6463V37.096H58.6143C58.7423 36.904 58.9183 36.7493 59.1423 36.632C59.3663 36.5093 59.6169 36.448 59.8943 36.448C60.2569 36.448 60.5689 36.5253 60.8303 36.68C61.0916 36.8293 61.2916 37.0373 61.4303 37.304C61.5743 37.5707 61.6463 37.8827 61.6463 38.24C61.6463 38.6187 61.5663 38.9467 61.4063 39.224C61.2463 39.496 61.0223 39.7067 60.7343 39.856C60.4463 40 60.1023 40.072 59.7023 40.072ZM64.4352 40.072C64.0032 40.072 63.6378 39.9627 63.3392 39.744C63.0405 39.52 62.8138 39.1947 62.6592 38.768C62.5098 38.336 62.4352 37.8053 62.4352 37.176C62.4352 36.5467 62.5098 36.0187 62.6592 35.592C62.8138 35.1653 63.0405 34.8427 63.3392 34.624C63.6378 34.4 64.0032 34.288 64.4352 34.288C64.8778 34.288 65.2458 34.3973 65.5392 34.616C65.8325 34.8347 66.0538 35.1573 66.2032 35.584C66.3578 36.0107 66.4352 36.5387 66.4352 37.168C66.4352 37.7973 66.3578 38.328 66.2032 38.76C66.0538 39.192 65.8298 39.52 65.5312 39.744C65.2325 39.9627 64.8672 40.072 64.4352 40.072ZM64.4352 39.448C64.8725 39.448 65.1978 39.264 65.4112 38.896C65.6245 38.528 65.7312 37.952 65.7312 37.168C65.7312 36.3893 65.6245 35.8187 65.4112 35.456C65.2032 35.0933 64.8805 34.912 64.4432 34.912C64.0005 34.912 63.6725 35.096 63.4592 35.464C63.2458 35.8267 63.1392 36.3973 63.1392 37.176C63.1392 37.9493 63.2458 38.5227 63.4592 38.896C63.6725 39.264 63.9978 39.448 64.4352 39.448ZM69.232 40.072C68.8 40.072 68.4347 39.9627 68.136 39.744C67.8374 39.52 67.6107 39.1947 67.456 38.768C67.3067 38.336 67.232 37.8053 67.232 37.176C67.232 36.5467 67.3067 36.0187 67.456 35.592C67.6107 35.1653 67.8374 34.8427 68.136 34.624C68.4347 34.4 68.8 34.288 69.232 34.288C69.6747 34.288 70.0427 34.3973 70.336 34.616C70.6294 34.8347 70.8507 35.1573 71 35.584C71.1547 36.0107 71.232 36.5387 71.232 37.168C71.232 37.7973 71.1547 38.328 71 38.76C70.8507 39.192 70.6267 39.52 70.328 39.744C70.0294 39.9627 69.664 40.072 69.232 40.072ZM69.232 39.448C69.6694 39.448 69.9947 39.264 70.208 38.896C70.4214 38.528 70.528 37.952 70.528 37.168C70.528 36.3893 70.4214 35.8187 70.208 35.456C70 35.0933 69.6774 34.912 69.24 34.912C68.7974 34.912 68.4694 35.096 68.256 35.464C68.0427 35.8267 67.936 36.3973 67.936 37.176C67.936 37.9493 68.0427 38.5227 68.256 38.896C68.4694 39.264 68.7947 39.448 69.232 39.448ZM74.6953 40V34.36H75.3273L78.7833 38.952H78.7513V34.36H79.4313V40H78.7833L75.3433 35.424H75.3753V40H74.6953ZM82.6937 40.072C82.2937 40.072 81.9471 39.9867 81.6537 39.816C81.3604 39.6453 81.1337 39.408 80.9737 39.104C80.8137 38.7947 80.7337 38.432 80.7337 38.016C80.7337 37.6053 80.8137 37.248 80.9737 36.944C81.1337 36.6347 81.3604 36.3973 81.6537 36.232C81.9471 36.0613 82.2937 35.976 82.6937 35.976C83.0937 35.976 83.4377 36.0613 83.7257 36.232C84.0191 36.3973 84.2457 36.6347 84.4057 36.944C84.5657 37.248 84.6457 37.6053 84.6457 38.016C84.6457 38.432 84.5657 38.7947 84.4057 39.104C84.2511 39.408 84.0271 39.6453 83.7337 39.816C83.4404 39.9867 83.0937 40.072 82.6937 40.072ZM82.6857 39.472C83.0751 39.472 83.3817 39.3413 83.6057 39.08C83.8297 38.8187 83.9417 38.464 83.9417 38.016C83.9417 37.568 83.8297 37.216 83.6057 36.96C83.3871 36.704 83.0831 36.576 82.6937 36.576C82.3044 36.576 81.9977 36.704 81.7737 36.96C81.5497 37.216 81.4377 37.568 81.4377 38.016C81.4377 38.464 81.5497 38.8187 81.7737 39.08C82.0031 39.3413 82.3071 39.472 82.6857 39.472ZM87.2969 40.072C87.0782 40.072 86.8622 40.0507 86.6489 40.008C86.4409 39.9707 86.2462 39.9173 86.0649 39.848C85.8889 39.7733 85.7369 39.6827 85.6089 39.576L85.8409 39.072C85.9742 39.1733 86.1209 39.256 86.2809 39.32C86.4462 39.384 86.6142 39.432 86.7849 39.464C86.9609 39.4907 87.1289 39.504 87.2889 39.504C87.6196 39.504 87.8729 39.4533 88.0489 39.352C88.2302 39.2507 88.3209 39.1093 88.3209 38.928C88.3209 38.7733 88.2676 38.656 88.1609 38.576C88.0596 38.4907 87.8889 38.4267 87.6489 38.384L86.8249 38.24C86.4569 38.1707 86.1796 38.0453 85.9929 37.864C85.8116 37.6827 85.7209 37.4453 85.7209 37.152C85.7209 36.9173 85.7849 36.712 85.9129 36.536C86.0462 36.36 86.2356 36.224 86.4809 36.128C86.7262 36.0267 87.0196 35.976 87.3609 35.976C87.5476 35.976 87.7369 35.9947 87.9289 36.032C88.1262 36.0693 88.3076 36.1253 88.4729 36.2C88.6436 36.2693 88.7822 36.3573 88.8889 36.464L88.6489 36.968C88.5422 36.8667 88.4142 36.7867 88.2649 36.728C88.1209 36.664 87.9689 36.6187 87.8089 36.592C87.6542 36.56 87.5022 36.544 87.3529 36.544C87.0436 36.544 86.8036 36.5973 86.6329 36.704C86.4622 36.8053 86.3769 36.9493 86.3769 37.136C86.3769 37.2853 86.4249 37.4027 86.5209 37.488C86.6222 37.5733 86.7849 37.6373 87.0089 37.68L87.8089 37.824C88.2036 37.8987 88.4969 38.024 88.6889 38.2C88.8809 38.3707 88.9769 38.608 88.9769 38.912C88.9769 39.1467 88.9076 39.352 88.7689 39.528C88.6302 39.6987 88.4356 39.832 88.1849 39.928C87.9342 40.024 87.6382 40.072 87.2969 40.072ZM89.8814 40.504L89.3214 40.352L91.3614 33.984L91.9134 34.136L89.8814 40.504ZM94.9627 40.072C94.424 40.072 93.9547 39.9573 93.5547 39.728C93.16 39.4933 92.856 39.16 92.6427 38.728C92.4293 38.2907 92.3227 37.7733 92.3227 37.176C92.3227 36.5787 92.4293 36.064 92.6427 35.632C92.856 35.2 93.16 34.8693 93.5547 34.64C93.9493 34.4053 94.4187 34.288 94.9627 34.288C95.3573 34.288 95.7173 34.3493 96.0427 34.472C96.368 34.5893 96.648 34.7627 96.8827 34.992L96.6027 35.552C96.3573 35.3333 96.104 35.176 95.8427 35.08C95.5867 34.984 95.2987 34.936 94.9787 34.936C94.3813 34.936 93.912 35.128 93.5707 35.512C93.2347 35.8907 93.0667 36.4453 93.0667 37.176C93.0667 37.9013 93.2347 38.4587 93.5707 38.848C93.9067 39.232 94.376 39.424 94.9787 39.424C95.2987 39.424 95.5867 39.376 95.8427 39.28C96.104 39.184 96.3573 39.0267 96.6027 38.808L96.8827 39.368C96.648 39.5973 96.368 39.7733 96.0427 39.896C95.7173 40.0133 95.3573 40.072 94.9627 40.072ZM99.6143 40.072C99.1396 40.072 98.7796 39.9467 98.5343 39.696C98.2943 39.4453 98.1743 39.088 98.1743 38.624V36.632H97.3743V36.048H98.1983V34.872H98.8863V36.048H100.302V36.632H98.8863V38.56C98.8863 38.864 98.9529 39.0907 99.0863 39.24C99.2249 39.384 99.4356 39.456 99.7183 39.456C99.8303 39.456 99.9369 39.4453 100.038 39.424C100.145 39.4027 100.246 39.3707 100.342 39.328L100.454 39.888C100.348 39.9467 100.217 39.992 100.062 40.024C99.9129 40.056 99.7636 40.072 99.6143 40.072ZM101.286 40V36.048H101.95V36.904C102.078 36.6107 102.27 36.384 102.526 36.224C102.782 36.0587 103.07 35.976 103.39 35.976C103.716 35.976 103.988 36.0347 104.206 36.152C104.425 36.264 104.588 36.44 104.694 36.68C104.806 36.9147 104.862 37.208 104.862 37.56V40H104.15V37.6C104.15 37.3867 104.121 37.2053 104.062 37.056C104.004 36.9067 103.905 36.792 103.766 36.712C103.633 36.6267 103.454 36.584 103.23 36.584C102.996 36.584 102.782 36.6373 102.59 36.744C102.404 36.8507 102.257 36.9947 102.15 37.176C102.049 37.3573 101.998 37.56 101.998 37.784V40H101.286Z" fill="black"/>
<path d="M16.72 53.072C16.4107 53.072 16.1173 53.048 15.84 53C15.5627 52.952 15.3093 52.88 15.08 52.784C14.8507 52.688 14.6507 52.5707 14.48 52.432L14.744 51.84C14.9253 51.984 15.1173 52.1013 15.32 52.192C15.528 52.2773 15.7467 52.3387 15.976 52.376C16.2107 52.4133 16.4587 52.432 16.72 52.432C17.1627 52.432 17.5013 52.344 17.736 52.168C17.976 51.992 18.096 51.752 18.096 51.448C18.096 51.288 18.056 51.1547 17.976 51.048C17.9013 50.9413 17.7813 50.8533 17.616 50.784C17.456 50.7147 17.248 50.6533 16.992 50.6L16.072 50.424C15.5547 50.3227 15.1813 50.144 14.952 49.888C14.7227 49.632 14.608 49.3093 14.608 48.92C14.608 48.5893 14.6987 48.304 14.88 48.064C15.0667 47.8187 15.3227 47.6293 15.648 47.496C15.9787 47.3573 16.3547 47.288 16.776 47.288C17.0427 47.288 17.2907 47.3147 17.52 47.368C17.7547 47.416 17.968 47.4907 18.16 47.592C18.3573 47.6933 18.5333 47.816 18.688 47.96L18.424 48.544C18.1947 48.32 17.944 48.1627 17.672 48.072C17.4 47.976 17.0987 47.928 16.768 47.928C16.4907 47.928 16.2427 47.968 16.024 48.048C15.8053 48.1227 15.632 48.2347 15.504 48.384C15.3813 48.528 15.32 48.7067 15.32 48.92C15.32 49.1547 15.3947 49.3413 15.544 49.48C15.6933 49.6133 15.9467 49.7173 16.304 49.792L17.216 49.968C17.76 50.0693 18.1627 50.24 18.424 50.48C18.6853 50.72 18.816 51.032 18.816 51.416C18.816 51.736 18.728 52.0213 18.552 52.272C18.3813 52.5227 18.1387 52.72 17.824 52.864C17.5147 53.0027 17.1467 53.072 16.72 53.072ZM19.882 48.096V47.304H20.746V48.096H19.882ZM19.962 53V49.048H20.674V53H19.962ZM21.8628 53V52.544L24.3668 49.416L24.4068 49.64H21.9188V49.048H25.0708V49.504L22.5428 52.656L22.5028 52.408H25.1588V53H21.8628ZM28.0691 53.072C27.6265 53.072 27.2425 52.992 26.9171 52.832C26.5971 52.6667 26.3518 52.432 26.1811 52.128C26.0105 51.8187 25.9251 51.4507 25.9251 51.024C25.9251 50.624 26.0051 50.272 26.1651 49.968C26.3251 49.6587 26.5518 49.416 26.8451 49.24C27.1385 49.064 27.4878 48.976 27.8931 48.976C28.2771 48.976 28.6025 49.0587 28.8691 49.224C29.1411 49.3893 29.3465 49.6213 29.4851 49.92C29.6291 50.2187 29.7011 50.5733 29.7011 50.984V51.216H26.4611V50.72H29.2371L29.0851 50.88C29.0851 50.4427 28.9811 50.1067 28.7731 49.872C28.5705 49.6373 28.2771 49.52 27.8931 49.52C27.6425 49.52 27.4185 49.5787 27.2211 49.696C27.0291 49.808 26.8798 49.968 26.7731 50.176C26.6665 50.384 26.6131 50.6373 26.6131 50.936V51.016C26.6131 51.336 26.6718 51.6053 26.7891 51.824C26.9065 52.0427 27.0745 52.208 27.2931 52.32C27.5118 52.432 27.7731 52.488 28.0771 52.488C28.2958 52.488 28.5171 52.4587 28.7411 52.4C28.9705 52.336 29.1838 52.224 29.3811 52.064L29.6211 52.576C29.4185 52.7467 29.1758 52.872 28.8931 52.952C28.6158 53.032 28.3411 53.072 28.0691 53.072Z" fill="#CE3439"/>
<path d="M57.464 53.072C57.2187 53.072 56.9813 53.0453 56.752 52.992C56.528 52.9387 56.3173 52.8613 56.12 52.76C55.9227 52.6533 55.7467 52.5253 55.592 52.376L55.872 51.816C56.1173 52.04 56.368 52.2027 56.624 52.304C56.8853 52.4 57.1653 52.448 57.464 52.448C57.8587 52.448 58.1653 52.3467 58.384 52.144C58.608 51.936 58.72 51.6453 58.72 51.272C58.72 50.904 58.616 50.6107 58.408 50.392C58.2 50.1733 57.912 50.064 57.544 50.064C57.2987 50.064 57.0747 50.1147 56.872 50.216C56.6747 50.312 56.4907 50.4747 56.32 50.704H55.76V47.36H59.136V47.976H56.408V50.096H56.376C56.504 49.904 56.68 49.7493 56.904 49.632C57.128 49.5093 57.3787 49.448 57.656 49.448C58.0187 49.448 58.3307 49.5253 58.592 49.68C58.8533 49.8293 59.0533 50.0373 59.192 50.304C59.336 50.5707 59.408 50.8827 59.408 51.24C59.408 51.6187 59.328 51.9467 59.168 52.224C59.008 52.496 58.784 52.7067 58.496 52.856C58.208 53 57.864 53.072 57.464 53.072ZM60.4529 53V52.472L62.4369 50.392C62.6289 50.1893 62.7782 50.0053 62.8849 49.84C62.9915 49.6747 63.0689 49.5147 63.1169 49.36C63.1649 49.2053 63.1889 49.048 63.1889 48.888C63.1889 48.5733 63.0875 48.3333 62.8849 48.168C62.6875 47.9973 62.4129 47.912 62.0609 47.912C61.7942 47.912 61.5302 47.9653 61.2689 48.072C61.0129 48.1733 60.7675 48.336 60.5329 48.56L60.2609 48C60.4955 47.776 60.7755 47.6027 61.1009 47.48C61.4262 47.352 61.7622 47.288 62.1089 47.288C62.4769 47.288 62.7942 47.352 63.0609 47.48C63.3275 47.6027 63.5302 47.7813 63.6689 48.016C63.8129 48.2453 63.8849 48.5227 63.8849 48.848C63.8849 49.0133 63.8662 49.176 63.8289 49.336C63.7915 49.4907 63.7329 49.6453 63.6529 49.8C63.5782 49.9547 63.4795 50.1147 63.3569 50.28C63.2342 50.4453 63.0849 50.6187 62.9089 50.8L61.3569 52.416V52.384H64.1169V53H60.4529ZM66.9938 53.072C66.5618 53.072 66.1964 52.9627 65.8978 52.744C65.5991 52.52 65.3724 52.1947 65.2178 51.768C65.0684 51.336 64.9938 50.8053 64.9938 50.176C64.9938 49.5467 65.0684 49.0187 65.2178 48.592C65.3724 48.1653 65.5991 47.8427 65.8978 47.624C66.1964 47.4 66.5618 47.288 66.9938 47.288C67.4364 47.288 67.8044 47.3973 68.0978 47.616C68.3911 47.8347 68.6124 48.1573 68.7618 48.584C68.9164 49.0107 68.9938 49.5387 68.9938 50.168C68.9938 50.7973 68.9164 51.328 68.7618 51.76C68.6124 52.192 68.3884 52.52 68.0898 52.744C67.7911 52.9627 67.4258 53.072 66.9938 53.072ZM66.9938 52.448C67.4311 52.448 67.7564 52.264 67.9698 51.896C68.1831 51.528 68.2898 50.952 68.2898 50.168C68.2898 49.3893 68.1831 48.8187 67.9698 48.456C67.7618 48.0933 67.4391 47.912 67.0018 47.912C66.5591 47.912 66.2311 48.096 66.0178 48.464C65.8044 48.8267 65.6978 49.3973 65.6978 50.176C65.6978 50.9493 65.8044 51.5227 66.0178 51.896C66.2311 52.264 66.5564 52.448 66.9938 52.448ZM71.817 53L73.905 49.976V50.24L71.929 47.36H72.753L74.353 49.712H74.313L75.913 47.36H76.737L74.745 50.24V49.976L76.841 53H76.009L74.297 50.496H74.353L72.641 53H71.817ZM81.7296 53.072C81.4843 53.072 81.247 53.0453 81.0176 52.992C80.7936 52.9387 80.583 52.8613 80.3856 52.76C80.1883 52.6533 80.0123 52.5253 79.8576 52.376L80.1376 51.816C80.383 52.04 80.6336 52.2027 80.8896 52.304C81.151 52.4 81.431 52.448 81.7296 52.448C82.1243 52.448 82.431 52.3467 82.6496 52.144C82.8736 51.936 82.9856 51.6453 82.9856 51.272C82.9856 50.904 82.8816 50.6107 82.6736 50.392C82.4656 50.1733 82.1776 50.064 81.8096 50.064C81.5643 50.064 81.3403 50.1147 81.1376 50.216C80.9403 50.312 80.7563 50.4747 80.5856 50.704H80.0256V47.36H83.4016V47.976H80.6736V50.096H80.6416C80.7696 49.904 80.9456 49.7493 81.1696 49.632C81.3936 49.5093 81.6443 49.448 81.9216 49.448C82.2843 49.448 82.5963 49.5253 82.8576 49.68C83.119 49.8293 83.319 50.0373 83.4576 50.304C83.6016 50.5707 83.6736 50.8827 83.6736 51.24C83.6736 51.6187 83.5936 51.9467 83.4336 52.224C83.2736 52.496 83.0496 52.7067 82.7616 52.856C82.4736 53 82.1296 53.072 81.7296 53.072ZM86.4625 53.072C86.0305 53.072 85.6652 52.9627 85.3665 52.744C85.0678 52.52 84.8412 52.1947 84.6865 51.768C84.5372 51.336 84.4625 50.8053 84.4625 50.176C84.4625 49.5467 84.5372 49.0187 84.6865 48.592C84.8412 48.1653 85.0678 47.8427 85.3665 47.624C85.6652 47.4 86.0305 47.288 86.4625 47.288C86.9052 47.288 87.2732 47.3973 87.5665 47.616C87.8598 47.8347 88.0812 48.1573 88.2305 48.584C88.3852 49.0107 88.4625 49.5387 88.4625 50.168C88.4625 50.7973 88.3852 51.328 88.2305 51.76C88.0812 52.192 87.8572 52.52 87.5585 52.744C87.2598 52.9627 86.8945 53.072 86.4625 53.072ZM86.4625 52.448C86.8998 52.448 87.2252 52.264 87.4385 51.896C87.6518 51.528 87.7585 50.952 87.7585 50.168C87.7585 49.3893 87.6518 48.8187 87.4385 48.456C87.2305 48.0933 86.9078 47.912 86.4705 47.912C86.0278 47.912 85.6998 48.096 85.4865 48.464C85.2732 48.8267 85.1665 49.3973 85.1665 50.176C85.1665 50.9493 85.2732 51.5227 85.4865 51.896C85.6998 52.264 86.0252 52.448 86.4625 52.448ZM91.2594 53.072C90.63 53.072 90.134 52.936 89.7714 52.664C89.4087 52.3867 89.2274 52.0027 89.2274 51.512C89.2274 51.2613 89.2754 51.04 89.3714 50.848C89.4727 50.6507 89.6114 50.4907 89.7874 50.368C89.9687 50.24 90.1767 50.1547 90.4114 50.112V50.12C90.2087 50.072 90.0274 49.984 89.8674 49.856C89.7127 49.728 89.59 49.5733 89.4994 49.392C89.4087 49.2107 89.3634 49.0107 89.3634 48.792C89.3634 48.3227 89.534 47.9547 89.8754 47.688C90.222 47.4213 90.6834 47.288 91.2594 47.288C91.8354 47.288 92.294 47.4213 92.6354 47.688C92.982 47.9547 93.1554 48.3227 93.1554 48.792C93.1554 49.0053 93.11 49.2053 93.0194 49.392C92.9287 49.5733 92.8034 49.728 92.6434 49.856C92.4887 49.984 92.3074 50.072 92.0994 50.12V50.112C92.3287 50.1493 92.5314 50.232 92.7074 50.36C92.8887 50.488 93.03 50.6507 93.1314 50.848C93.238 51.04 93.2914 51.2613 93.2914 51.512C93.2914 52.0027 93.11 52.3867 92.7474 52.664C92.39 52.936 91.894 53.072 91.2594 53.072ZM91.2594 52.472C91.702 52.472 92.038 52.3867 92.2674 52.216C92.502 52.0453 92.6194 51.7947 92.6194 51.464C92.6194 51.1333 92.502 50.88 92.2674 50.704C92.038 50.528 91.702 50.44 91.2594 50.44C90.8167 50.44 90.478 50.528 90.2434 50.704C90.014 50.88 89.8994 51.1333 89.8994 51.464C89.8994 51.7947 90.014 52.0453 90.2434 52.216C90.478 52.3867 90.8167 52.472 91.2594 52.472ZM91.2594 49.84C91.6434 49.84 91.9447 49.7547 92.1634 49.584C92.382 49.408 92.4914 49.1653 92.4914 48.856C92.4914 48.552 92.382 48.3147 92.1634 48.144C91.9447 47.968 91.6434 47.88 91.2594 47.88C90.8807 47.88 90.582 47.968 90.3634 48.144C90.1447 48.3147 90.0354 48.552 90.0354 48.856C90.0354 49.1653 90.1447 49.408 90.3634 49.584C90.582 49.7547 90.8807 49.84 91.2594 49.84ZM96.0826 53L98.1706 49.976V50.24L96.1946 47.36H97.0186L98.6186 49.712H98.5786L100.179 47.36H101.003L99.0106 50.24V49.976L101.107 53H100.275L98.5626 50.496H98.6186L96.9066 53H96.0826ZM106.579 53V51.832H103.947V51.296L106.547 47.36H107.259V51.232H108.043V51.832H107.259V53H106.579ZM106.603 51.232V48.24H106.635L104.571 51.368L104.515 51.232H106.603ZM110.648 53.072C110.413 53.072 110.181 53.048 109.952 53C109.723 52.952 109.504 52.8773 109.296 52.776C109.093 52.6747 108.907 52.5493 108.736 52.4L109.008 51.84C109.264 52.0587 109.531 52.216 109.808 52.312C110.085 52.4027 110.365 52.448 110.648 52.448C110.883 52.448 111.093 52.4133 111.28 52.344C111.472 52.2693 111.621 52.16 111.728 52.016C111.84 51.8667 111.896 51.6747 111.896 51.44C111.896 51.1147 111.787 50.8693 111.568 50.704C111.349 50.5333 111.032 50.448 110.616 50.448H109.768V49.832H110.512C110.752 49.832 110.965 49.7947 111.152 49.72C111.344 49.64 111.493 49.5227 111.6 49.368C111.707 49.2133 111.76 49.0213 111.76 48.792C111.76 48.4987 111.659 48.28 111.456 48.136C111.253 47.9867 110.992 47.912 110.672 47.912C110.389 47.912 110.112 47.96 109.84 48.056C109.573 48.152 109.328 48.3173 109.104 48.552L108.84 48C109.064 47.76 109.341 47.5813 109.672 47.464C110.003 47.3467 110.347 47.288 110.704 47.288C111.061 47.288 111.368 47.3467 111.624 47.464C111.885 47.576 112.088 47.7413 112.232 47.96C112.376 48.1733 112.448 48.432 112.448 48.736C112.448 49.056 112.357 49.3387 112.176 49.584C111.995 49.8293 111.749 50.0027 111.44 50.104V50.096C111.664 50.1387 111.861 50.2213 112.032 50.344C112.203 50.4613 112.339 50.616 112.44 50.808C112.541 50.9947 112.592 51.216 112.592 51.472C112.592 51.808 112.509 52.096 112.344 52.336C112.184 52.576 111.957 52.76 111.664 52.888C111.376 53.0107 111.037 53.072 110.648 53.072ZM115.525 53.072C114.896 53.072 114.4 52.936 114.037 52.664C113.674 52.3867 113.493 52.0027 113.493 51.512C113.493 51.2613 113.541 51.04 113.637 50.848C113.738 50.6507 113.877 50.4907 114.053 50.368C114.234 50.24 114.442 50.1547 114.677 50.112V50.12C114.474 50.072 114.293 49.984 114.133 49.856C113.978 49.728 113.856 49.5733 113.765 49.392C113.674 49.2107 113.629 49.0107 113.629 48.792C113.629 48.3227 113.8 47.9547 114.141 47.688C114.488 47.4213 114.949 47.288 115.525 47.288C116.101 47.288 116.56 47.4213 116.901 47.688C117.248 47.9547 117.421 48.3227 117.421 48.792C117.421 49.0053 117.376 49.2053 117.285 49.392C117.194 49.5733 117.069 49.728 116.909 49.856C116.754 49.984 116.573 50.072 116.365 50.12V50.112C116.594 50.1493 116.797 50.232 116.973 50.36C117.154 50.488 117.296 50.6507 117.397 50.848C117.504 51.04 117.557 51.2613 117.557 51.512C117.557 52.0027 117.376 52.3867 117.013 52.664C116.656 52.936 116.16 53.072 115.525 53.072ZM115.525 52.472C115.968 52.472 116.304 52.3867 116.533 52.216C116.768 52.0453 116.885 51.7947 116.885 51.464C116.885 51.1333 116.768 50.88 116.533 50.704C116.304 50.528 115.968 50.44 115.525 50.44C115.082 50.44 114.744 50.528 114.509 50.704C114.28 50.88 114.165 51.1333 114.165 51.464C114.165 51.7947 114.28 52.0453 114.509 52.216C114.744 52.3867 115.082 52.472 115.525 52.472ZM115.525 49.84C115.909 49.84 116.21 49.7547 116.429 49.584C116.648 49.408 116.757 49.1653 116.757 48.856C116.757 48.552 116.648 48.3147 116.429 48.144C116.21 47.968 115.909 47.88 115.525 47.88C115.146 47.88 114.848 47.968 114.629 48.144C114.41 48.3147 114.301 48.552 114.301 48.856C114.301 49.1653 114.41 49.408 114.629 49.584C114.848 49.7547 115.146 49.84 115.525 49.84Z" fill="black"/>
<path d="M16.168 66L14.36 60.36H15.112L16.584 65.144H16.512L18.152 60.36H18.736L20.36 65.144H20.304L21.792 60.36H22.512L20.696 66H20.016L18.424 61.344H18.456L16.832 66H16.168ZM25.0223 66.072C24.5796 66.072 24.1956 65.992 23.8703 65.832C23.5503 65.6667 23.3049 65.432 23.1343 65.128C22.9636 64.8187 22.8783 64.4507 22.8783 64.024C22.8783 63.624 22.9583 63.272 23.1183 62.968C23.2783 62.6587 23.5049 62.416 23.7983 62.24C24.0916 62.064 24.4409 61.976 24.8463 61.976C25.2303 61.976 25.5556 62.0587 25.8223 62.224C26.0943 62.3893 26.2996 62.6213 26.4383 62.92C26.5823 63.2187 26.6543 63.5733 26.6543 63.984V64.216H23.4143V63.72H26.1903L26.0383 63.88C26.0383 63.4427 25.9343 63.1067 25.7263 62.872C25.5236 62.6373 25.2303 62.52 24.8463 62.52C24.5956 62.52 24.3716 62.5787 24.1743 62.696C23.9823 62.808 23.8329 62.968 23.7263 63.176C23.6196 63.384 23.5663 63.6373 23.5663 63.936V64.016C23.5663 64.336 23.6249 64.6053 23.7423 64.824C23.8596 65.0427 24.0276 65.208 24.2463 65.32C24.4649 65.432 24.7263 65.488 25.0303 65.488C25.2489 65.488 25.4703 65.4587 25.6943 65.4C25.9236 65.336 26.1369 65.224 26.3343 65.064L26.5743 65.576C26.3716 65.7467 26.1289 65.872 25.8463 65.952C25.5689 66.032 25.2943 66.072 25.0223 66.072ZM27.7492 61.096V60.304H28.6132V61.096H27.7492ZM27.8292 66V62.048H28.5412V66H27.8292ZM31.674 67.512C31.3593 67.512 31.0473 67.464 30.738 67.368C30.4287 67.2773 30.1647 67.152 29.946 66.992L30.17 66.44C30.3193 66.536 30.4767 66.6187 30.642 66.688C30.8073 66.7627 30.9753 66.816 31.146 66.848C31.322 66.8853 31.4953 66.904 31.666 66.904C32.0767 66.904 32.3967 66.8 32.626 66.592C32.8607 66.384 32.978 66.088 32.978 65.704V64.976H32.962C32.866 65.248 32.6927 65.4693 32.442 65.64C32.1913 65.8053 31.9007 65.888 31.57 65.888C31.1967 65.888 30.8713 65.808 30.594 65.648C30.3167 65.4827 30.1007 65.2533 29.946 64.96C29.7967 64.6667 29.722 64.3227 29.722 63.928C29.722 63.5387 29.7967 63.1973 29.946 62.904C30.1007 62.6107 30.3167 62.384 30.594 62.224C30.8713 62.0587 31.1967 61.976 31.57 61.976C31.9007 61.976 32.1913 62.0613 32.442 62.232C32.698 62.4027 32.874 62.6293 32.97 62.912H32.978V62.048H33.642V65.64C33.642 66.024 33.562 66.3547 33.402 66.632C33.2473 66.9147 33.0233 67.1307 32.73 67.28C32.4367 67.4347 32.0847 67.512 31.674 67.512ZM31.69 65.304C32.0793 65.304 32.386 65.1787 32.61 64.928C32.8393 64.6773 32.954 64.344 32.954 63.928C32.954 63.512 32.8393 63.1813 32.61 62.936C32.386 62.6853 32.0793 62.56 31.69 62.56C31.306 62.56 30.9993 62.6853 30.77 62.936C30.546 63.1813 30.434 63.512 30.434 63.928C30.434 64.344 30.546 64.6773 30.77 64.928C30.9993 65.1787 31.306 65.304 31.69 65.304ZM35.0636 66V60.36H35.7516V62.888C35.8689 62.6053 36.0529 62.384 36.3036 62.224C36.5596 62.0587 36.8476 61.976 37.1676 61.976C37.4929 61.976 37.7649 62.0347 37.9836 62.152C38.2022 62.264 38.3649 62.44 38.4716 62.68C38.5836 62.9147 38.6396 63.208 38.6396 63.56V66H37.9276V63.6C37.9276 63.3867 37.8956 63.2053 37.8316 63.056C37.7729 62.9067 37.6769 62.792 37.5436 62.712C37.4102 62.6267 37.2316 62.584 37.0076 62.584C36.7729 62.584 36.5622 62.6373 36.3756 62.744C36.1889 62.8507 36.0422 62.9947 35.9356 63.176C35.8289 63.3573 35.7756 63.56 35.7756 63.784V66H35.0636ZM41.7119 66.072C41.2373 66.072 40.8773 65.9467 40.6319 65.696C40.3919 65.4453 40.2719 65.088 40.2719 64.624V62.632H39.4719V62.048H40.2959V60.872H40.9839V62.048H42.3999V62.632H40.9839V64.56C40.9839 64.864 41.0506 65.0907 41.1839 65.24C41.3226 65.384 41.5333 65.456 41.8159 65.456C41.9279 65.456 42.0346 65.4453 42.1359 65.424C42.2426 65.4027 42.3439 65.3707 42.4399 65.328L42.5519 65.888C42.4453 65.9467 42.3146 65.992 42.1599 66.024C42.0106 66.056 41.8613 66.072 41.7119 66.072Z" fill="#CE3439"/>
<path d="M56.8357 66V65.472L58.8197 63.392C59.0117 63.1893 59.161 63.0053 59.2677 62.84C59.3744 62.6747 59.4517 62.5147 59.4997 62.36C59.5477 62.2053 59.5717 62.048 59.5717 61.888C59.5717 61.5733 59.4704 61.3333 59.2677 61.168C59.0704 60.9973 58.7957 60.912 58.4437 60.912C58.177 60.912 57.913 60.9653 57.6517 61.072C57.3957 61.1733 57.1504 61.336 56.9157 61.56L56.6437 61C56.8784 60.776 57.1584 60.6027 57.4837 60.48C57.809 60.352 58.145 60.288 58.4917 60.288C58.8597 60.288 59.177 60.352 59.4437 60.48C59.7104 60.6027 59.913 60.7813 60.0517 61.016C60.1957 61.2453 60.2677 61.5227 60.2677 61.848C60.2677 62.0133 60.249 62.176 60.2117 62.336C60.1744 62.4907 60.1157 62.6453 60.0357 62.8C59.961 62.9547 59.8624 63.1147 59.7397 63.28C59.617 63.4453 59.4677 63.6187 59.2917 63.8L57.7397 65.416V65.384H60.4997V66H56.8357ZM61.7126 66V65.392H63.2566V60.928L63.6326 60.984L61.9926 62.04L61.6726 61.488L63.4406 60.36H63.9606V65.392H65.3846V66H61.7126ZM67.6614 67.536C67.2828 66.96 67.0028 66.3733 66.8214 65.776C66.6454 65.1733 66.5574 64.5467 66.5574 63.896C66.5574 63.2453 66.6454 62.6213 66.8214 62.024C67.0028 61.4267 67.2828 60.8373 67.6614 60.256L68.1734 60.44C67.9708 60.8187 67.8028 61.2 67.6694 61.584C67.5361 61.968 67.4348 62.352 67.3654 62.736C67.3014 63.1147 67.2694 63.5013 67.2694 63.896C67.2694 64.2853 67.3014 64.672 67.3654 65.056C67.4348 65.44 67.5361 65.8213 67.6694 66.2C67.8028 66.584 67.9708 66.968 68.1734 67.352L67.6614 67.536ZM69.2929 66V60.36H70.0049V62.904H70.0369L72.7169 60.36H73.6209L70.5089 63.312L70.5569 62.92L73.8129 66H72.8609L70.0369 63.352H70.0049V66H69.2929ZM76.1428 67.512C75.8281 67.512 75.5161 67.464 75.2068 67.368C74.8974 67.2773 74.6334 67.152 74.4148 66.992L74.6388 66.44C74.7881 66.536 74.9454 66.6187 75.1108 66.688C75.2761 66.7627 75.4441 66.816 75.6148 66.848C75.7908 66.8853 75.9641 66.904 76.1348 66.904C76.5454 66.904 76.8654 66.8 77.0948 66.592C77.3294 66.384 77.4468 66.088 77.4468 65.704V64.976H77.4308C77.3348 65.248 77.1614 65.4693 76.9108 65.64C76.6601 65.8053 76.3694 65.888 76.0388 65.888C75.6654 65.888 75.3401 65.808 75.0628 65.648C74.7854 65.4827 74.5694 65.2533 74.4148 64.96C74.2654 64.6667 74.1908 64.3227 74.1908 63.928C74.1908 63.5387 74.2654 63.1973 74.4148 62.904C74.5694 62.6107 74.7854 62.384 75.0628 62.224C75.3401 62.0587 75.6654 61.976 76.0388 61.976C76.3694 61.976 76.6601 62.0613 76.9108 62.232C77.1668 62.4027 77.3428 62.6293 77.4388 62.912H77.4468V62.048H78.1108V65.64C78.1108 66.024 78.0308 66.3547 77.8708 66.632C77.7161 66.9147 77.4921 67.1307 77.1988 67.28C76.9054 67.4347 76.5534 67.512 76.1428 67.512ZM76.1588 65.304C76.5481 65.304 76.8548 65.1787 77.0788 64.928C77.3081 64.6773 77.4228 64.344 77.4228 63.928C77.4228 63.512 77.3081 63.1813 77.0788 62.936C76.8548 62.6853 76.5481 62.56 76.1588 62.56C75.7748 62.56 75.4681 62.6853 75.2388 62.936C75.0148 63.1813 74.9028 63.512 74.9028 63.928C74.9028 64.344 75.0148 64.6773 75.2388 64.928C75.4681 65.1787 75.7748 65.304 76.1588 65.304ZM80.9883 66.072C80.7696 66.072 80.5536 66.0507 80.3403 66.008C80.1323 65.9707 79.9376 65.9173 79.7563 65.848C79.5803 65.7733 79.4283 65.6827 79.3003 65.576L79.5323 65.072C79.6656 65.1733 79.8123 65.256 79.9723 65.32C80.1376 65.384 80.3056 65.432 80.4763 65.464C80.6523 65.4907 80.8203 65.504 80.9803 65.504C81.311 65.504 81.5643 65.4533 81.7403 65.352C81.9216 65.2507 82.0123 65.1093 82.0123 64.928C82.0123 64.7733 81.959 64.656 81.8523 64.576C81.751 64.4907 81.5803 64.4267 81.3403 64.384L80.5163 64.24C80.1483 64.1707 79.871 64.0453 79.6843 63.864C79.503 63.6827 79.4123 63.4453 79.4123 63.152C79.4123 62.9173 79.4763 62.712 79.6043 62.536C79.7376 62.36 79.927 62.224 80.1723 62.128C80.4176 62.0267 80.711 61.976 81.0523 61.976C81.239 61.976 81.4283 61.9947 81.6203 62.032C81.8176 62.0693 81.999 62.1253 82.1643 62.2C82.335 62.2693 82.4736 62.3573 82.5803 62.464L82.3403 62.968C82.2336 62.8667 82.1056 62.7867 81.9563 62.728C81.8123 62.664 81.6603 62.6187 81.5003 62.592C81.3456 62.56 81.1936 62.544 81.0443 62.544C80.735 62.544 80.495 62.5973 80.3243 62.704C80.1536 62.8053 80.0683 62.9493 80.0683 63.136C80.0683 63.2853 80.1163 63.4027 80.2123 63.488C80.3136 63.5733 80.4763 63.6373 80.7003 63.68L81.5003 63.824C81.895 63.8987 82.1883 64.024 82.3803 64.2C82.5723 64.3707 82.6683 64.608 82.6683 64.912C82.6683 65.1467 82.599 65.352 82.4603 65.528C82.3216 65.6987 82.127 65.832 81.8763 65.928C81.6256 66.024 81.3296 66.072 80.9883 66.072ZM83.9408 67.536L83.4208 67.352C83.6288 66.9627 83.7995 66.576 83.9328 66.192C84.0661 65.8133 84.1648 65.4347 84.2288 65.056C84.2928 64.672 84.3248 64.2853 84.3248 63.896C84.3248 63.5067 84.2928 63.1227 84.2288 62.744C84.1648 62.36 84.0661 61.976 83.9328 61.592C83.7995 61.208 83.6288 60.824 83.4208 60.44L83.9408 60.256C84.3141 60.832 84.5888 61.4213 84.7648 62.024C84.9461 62.6213 85.0368 63.2453 85.0368 63.896C85.0368 64.5413 84.9461 65.1653 84.7648 65.768C84.5888 66.3653 84.3141 66.9547 83.9408 67.536Z" fill="black"/>
<defs>
<filter id="filter0_d_535_117" x="0.0999999" y="24" width="135.883" height="55.025" filterUnits="userSpaceOnUse" color-interpolation-filters="sRGB">
<feFlood flood-opacity="0" result="BackgroundImageFix"/>
<feColorMatrix in="SourceAlpha" type="matrix" values="0 0 0 0 0 0 0 0 0 0 0 0 0 0 0 0 0 0 127 0" result="hardAlpha"/>
<feOffset dy="4"/>
<feGaussianBlur stdDeviation="1.95"/>
<feComposite in2="hardAlpha" operator="out"/>
<feColorMatrix type="matrix" values="0 0 0 0 0 0 0 0 0 0 0 0 0 0 0 0 0 0 0.2 0"/>
<feBlend mode="normal" in2="BackgroundImageFix" result="effect1_dropShadow_535_117"/>
<feBlend mode="normal" in="SourceGraphic" in2="effect1_dropShadow_535_117" result="shape"/>
</filter>
<clipPath id="clip0_535_117">
<rect width="21.75" height="21.75" fill="white" transform="translate(55.875 2.41675)"/>
</clipPath>
</defs>
</svg>
