<svg width="286" height="28" viewBox="0 0 286 28" fill="none" xmlns="http://www.w3.org/2000/svg">
<path d="M3.504 9.108C3.128 9.108 2.764 9.068 2.412 8.988C2.068 8.908 1.744 8.796 1.44 8.652C1.136 8.5 0.868 8.316 0.636 8.1L0.996 7.32C1.388 7.64 1.784 7.872 2.184 8.016C2.584 8.16 3.016 8.232 3.48 8.232C3.888 8.232 4.232 8.172 4.512 8.052C4.792 7.932 5.004 7.756 5.148 7.524C5.292 7.284 5.364 6.992 5.364 6.648C5.364 6.152 5.2 5.776 4.872 5.52C4.544 5.264 4.068 5.136 3.444 5.136H2.196V4.284H3.36C3.728 4.284 4.04 4.22 4.296 4.092C4.56 3.964 4.764 3.784 4.908 3.552C5.052 3.312 5.124 3.024 5.124 2.688C5.124 2.24 4.98 1.9 4.692 1.668C4.404 1.428 3.988 1.308 3.444 1.308C2.996 1.308 2.584 1.388 2.208 1.548C1.832 1.7 1.476 1.94 1.14 2.268L0.78 1.5C1.1 1.164 1.5 0.903999 1.98 0.719999C2.468 0.527999 2.976 0.431999 3.504 0.431999C4.048 0.431999 4.512 0.52 4.896 0.696C5.288 0.864 5.588 1.112 5.796 1.44C6.004 1.76 6.108 2.148 6.108 2.604C6.108 3.124 5.964 3.572 5.676 3.948C5.388 4.316 4.996 4.568 4.5 4.704V4.572C4.892 4.636 5.224 4.764 5.496 4.956C5.776 5.148 5.988 5.396 6.132 5.7C6.276 5.996 6.348 6.336 6.348 6.72C6.348 7.208 6.232 7.632 6 7.992C5.776 8.344 5.452 8.62 5.028 8.82C4.604 9.012 4.096 9.108 3.504 9.108ZM10.9753 9.108C10.6153 9.108 10.2633 9.068 9.91931 8.988C9.57531 8.908 9.25131 8.792 8.94731 8.64C8.65131 8.488 8.38731 8.308 8.15531 8.1L8.52731 7.32C8.91131 7.632 9.29931 7.864 9.69131 8.016C10.0913 8.16 10.5153 8.232 10.9633 8.232C11.5553 8.232 12.0153 8.068 12.3433 7.74C12.6793 7.412 12.8473 6.98 12.8473 6.444C12.8473 5.892 12.6873 5.44 12.3673 5.088C12.0473 4.736 11.6073 4.56 11.0473 4.56C10.6393 4.56 10.2793 4.644 9.96731 4.812C9.66331 4.972 9.38731 5.224 9.13931 5.568H8.41931V0.539999H13.3273V1.38H9.39131V4.752H9.12731C9.33531 4.416 9.62331 4.16 9.99131 3.984C10.3593 3.8 10.7713 3.708 11.2273 3.708C11.7633 3.708 12.2233 3.82 12.6073 4.044C12.9993 4.268 13.2993 4.584 13.5073 4.992C13.7233 5.392 13.8313 5.86 13.8313 6.396C13.8313 6.924 13.7153 7.392 13.4833 7.8C13.2513 8.208 12.9233 8.528 12.4993 8.76C12.0753 8.992 11.5673 9.108 10.9753 9.108ZM17.9906 9.108C17.3506 9.108 16.8066 8.944 16.3586 8.616C15.9186 8.28 15.5866 7.788 15.3626 7.14C15.1386 6.492 15.0266 5.7 15.0266 4.764C15.0266 3.82 15.1386 3.028 15.3626 2.388C15.5866 1.74 15.9186 1.252 16.3586 0.924C16.8066 0.595999 17.3506 0.431999 17.9906 0.431999C18.6386 0.431999 19.1826 0.595999 19.6226 0.924C20.0626 1.252 20.3946 1.736 20.6186 2.376C20.8426 3.016 20.9546 3.808 20.9546 4.752C20.9546 5.696 20.8426 6.492 20.6186 7.14C20.3946 7.788 20.0626 8.28 19.6226 8.616C19.1826 8.944 18.6386 9.108 17.9906 9.108ZM17.9906 8.256C18.6626 8.256 19.1586 7.972 19.4786 7.404C19.8066 6.836 19.9706 5.952 19.9706 4.752C19.9706 3.552 19.8106 2.676 19.4906 2.124C19.1706 1.564 18.6706 1.284 17.9906 1.284C17.3266 1.284 16.8306 1.564 16.5026 2.124C16.1746 2.684 16.0106 3.56 16.0106 4.752C16.0106 5.952 16.1706 6.836 16.4906 7.404C16.8186 7.972 17.3186 8.256 17.9906 8.256ZM22.5219 9V3.168H23.4699V4.464H23.3379C23.4339 4.168 23.5739 3.916 23.7579 3.708C23.9499 3.492 24.1739 3.332 24.4299 3.228C24.6939 3.116 24.9819 3.06 25.2939 3.06C25.7899 3.06 26.1899 3.18 26.4939 3.42C26.8059 3.652 27.0139 4.016 27.1179 4.512H26.9379C27.0819 4.064 27.3379 3.712 27.7059 3.456C28.0819 3.192 28.5179 3.06 29.0139 3.06C29.4539 3.06 29.8139 3.144 30.0939 3.312C30.3819 3.48 30.5979 3.736 30.7419 4.08C30.8859 4.416 30.9579 4.844 30.9579 5.364V9H29.9859V5.412C29.9859 4.876 29.8939 4.484 29.7099 4.236C29.5259 3.98 29.2139 3.852 28.7739 3.852C28.4619 3.852 28.1859 3.928 27.9459 4.08C27.7139 4.232 27.5339 4.448 27.4059 4.728C27.2859 5 27.2259 5.324 27.2259 5.7V9H26.2539V5.412C26.2539 4.876 26.1579 4.484 25.9659 4.236C25.7819 3.98 25.4739 3.852 25.0419 3.852C24.7219 3.852 24.4459 3.928 24.2139 4.08C23.9819 4.232 23.8019 4.448 23.6739 4.728C23.5539 5 23.4939 5.324 23.4939 5.7V9H22.5219ZM34.5633 9.108C33.9713 9.108 33.5233 8.932 33.2193 8.58C32.9233 8.228 32.7753 7.724 32.7753 7.068V0.539999H33.7473V6.996C33.7473 7.276 33.7833 7.512 33.8553 7.704C33.9353 7.896 34.0513 8.04 34.2033 8.136C34.3553 8.232 34.5433 8.28 34.7673 8.28C34.8633 8.28 34.9553 8.276 35.0433 8.268C35.1393 8.252 35.2273 8.232 35.3073 8.208L35.2833 9.024C35.1553 9.048 35.0313 9.068 34.9113 9.084C34.7993 9.1 34.6833 9.108 34.5633 9.108ZM43.4041 9.108C42.5001 9.108 41.7361 8.936 41.1121 8.592C40.4961 8.248 40.0281 7.752 39.7081 7.104C39.3881 6.456 39.2281 5.68 39.2281 4.776C39.2281 3.88 39.3881 3.108 39.7081 2.46C40.0281 1.812 40.4881 1.312 41.0881 0.96C41.6881 0.608 42.4121 0.431999 43.2601 0.431999C43.6601 0.431999 44.0361 0.471999 44.3881 0.551999C44.7481 0.632 45.0801 0.752 45.3841 0.912C45.6961 1.064 45.9681 1.256 46.2001 1.488L45.8161 2.28C45.4321 1.944 45.0361 1.7 44.6281 1.548C44.2201 1.396 43.7601 1.32 43.2481 1.32C42.2801 1.32 41.5401 1.62 41.0281 2.22C40.5241 2.82 40.2721 3.672 40.2721 4.776C40.2721 5.896 40.5321 6.752 41.0521 7.344C41.5801 7.936 42.3721 8.232 43.4281 8.232C43.8121 8.232 44.1881 8.196 44.5561 8.124C44.9241 8.044 45.2721 7.936 45.6001 7.8L45.3841 8.364V5.376H43.2361V4.596H46.2361V8.508C46.0201 8.62 45.7521 8.724 45.4321 8.82C45.1121 8.908 44.7761 8.976 44.4241 9.024C44.0721 9.08 43.7321 9.108 43.4041 9.108ZM49.9031 9.108C49.3111 9.108 48.8631 8.932 48.5591 8.58C48.2631 8.228 48.1151 7.724 48.1151 7.068V0.539999H49.0871V6.996C49.0871 7.276 49.1231 7.512 49.1951 7.704C49.2751 7.896 49.3911 8.04 49.5431 8.136C49.6951 8.232 49.8831 8.28 50.1071 8.28C50.2031 8.28 50.2951 8.276 50.3831 8.268C50.4791 8.252 50.5671 8.232 50.6471 8.208L50.6231 9.024C50.4951 9.048 50.3711 9.068 50.2511 9.084C50.1391 9.1 50.0231 9.108 49.9031 9.108ZM53.5019 9.108C53.1019 9.108 52.7419 9.032 52.4219 8.88C52.1099 8.72 51.8619 8.504 51.6779 8.232C51.4939 7.96 51.4019 7.656 51.4019 7.32C51.4019 6.888 51.5099 6.548 51.7259 6.3C51.9499 6.052 52.3139 5.876 52.8179 5.772C53.3299 5.668 54.0259 5.616 54.9059 5.616H55.4459V6.252H54.9179C54.4299 6.252 54.0219 6.268 53.6939 6.3C53.3659 6.332 53.1059 6.388 52.9139 6.468C52.7219 6.548 52.5859 6.652 52.5059 6.78C52.4259 6.908 52.3859 7.068 52.3859 7.26C52.3859 7.588 52.4979 7.856 52.7219 8.064C52.9539 8.272 53.2659 8.376 53.6579 8.376C53.9779 8.376 54.2579 8.3 54.4979 8.148C54.7459 7.996 54.9379 7.788 55.0739 7.524C55.2179 7.26 55.2899 6.956 55.2899 6.612V5.244C55.2899 4.748 55.1899 4.392 54.9899 4.176C54.7899 3.952 54.4619 3.84 54.0059 3.84C53.6539 3.84 53.3139 3.892 52.9859 3.996C52.6579 4.092 52.3219 4.252 51.9779 4.476L51.6419 3.768C51.8499 3.624 52.0859 3.5 52.3499 3.396C52.6139 3.284 52.8899 3.2 53.1779 3.144C53.4659 3.088 53.7419 3.06 54.0059 3.06C54.5099 3.06 54.9259 3.144 55.2539 3.312C55.5819 3.472 55.8259 3.72 55.9859 4.056C56.1459 4.384 56.2259 4.808 56.2259 5.328V9H55.3139V7.644H55.4219C55.3579 7.948 55.2339 8.208 55.0499 8.424C54.8739 8.64 54.6539 8.808 54.3899 8.928C54.1259 9.048 53.8299 9.108 53.5019 9.108ZM59.9972 9.108C59.6932 9.108 59.3972 9.076 59.1092 9.012C58.8292 8.956 58.5652 8.876 58.3172 8.772C58.0772 8.66 57.8692 8.528 57.6932 8.376L58.0052 7.692C58.1972 7.844 58.4052 7.972 58.6292 8.076C58.8532 8.172 59.0812 8.244 59.3132 8.292C59.5452 8.34 59.7812 8.364 60.0212 8.364C60.4772 8.364 60.8212 8.28 61.0532 8.112C61.2852 7.944 61.4012 7.716 61.4012 7.428C61.4012 7.204 61.3252 7.028 61.1732 6.9C61.0212 6.764 60.7812 6.66 60.4532 6.588L59.3612 6.348C58.8572 6.244 58.4812 6.064 58.2332 5.808C57.9932 5.552 57.8732 5.22 57.8732 4.812C57.8732 4.452 57.9652 4.144 58.1492 3.888C58.3412 3.624 58.6092 3.42 58.9532 3.276C59.2972 3.132 59.6972 3.06 60.1532 3.06C60.4252 3.06 60.6852 3.088 60.9332 3.144C61.1812 3.2 61.4132 3.284 61.6292 3.396C61.8532 3.5 62.0452 3.632 62.2052 3.792L61.8812 4.476C61.7292 4.332 61.5572 4.212 61.3652 4.116C61.1732 4.012 60.9732 3.936 60.7652 3.888C60.5652 3.832 60.3612 3.804 60.1532 3.804C59.7052 3.804 59.3652 3.892 59.1332 4.068C58.9012 4.244 58.7852 4.476 58.7852 4.764C58.7852 4.988 58.8572 5.172 59.0012 5.316C59.1452 5.46 59.3692 5.564 59.6732 5.628L60.7652 5.856C61.2852 5.968 61.6732 6.148 61.9292 6.396C62.1932 6.636 62.3252 6.964 62.3252 7.38C62.3252 7.732 62.2292 8.04 62.0372 8.304C61.8452 8.56 61.5732 8.76 61.2212 8.904C60.8772 9.04 60.4692 9.108 59.9972 9.108ZM65.7745 9.108C65.4705 9.108 65.1745 9.076 64.8865 9.012C64.6065 8.956 64.3425 8.876 64.0945 8.772C63.8545 8.66 63.6465 8.528 63.4705 8.376L63.7825 7.692C63.9745 7.844 64.1825 7.972 64.4065 8.076C64.6305 8.172 64.8585 8.244 65.0905 8.292C65.3225 8.34 65.5585 8.364 65.7985 8.364C66.2545 8.364 66.5985 8.28 66.8305 8.112C67.0625 7.944 67.1785 7.716 67.1785 7.428C67.1785 7.204 67.1025 7.028 66.9505 6.9C66.7985 6.764 66.5585 6.66 66.2305 6.588L65.1385 6.348C64.6345 6.244 64.2585 6.064 64.0105 5.808C63.7705 5.552 63.6505 5.22 63.6505 4.812C63.6505 4.452 63.7425 4.144 63.9265 3.888C64.1185 3.624 64.3865 3.42 64.7305 3.276C65.0745 3.132 65.4745 3.06 65.9305 3.06C66.2025 3.06 66.4625 3.088 66.7105 3.144C66.9585 3.2 67.1905 3.284 67.4065 3.396C67.6305 3.5 67.8225 3.632 67.9825 3.792L67.6585 4.476C67.5065 4.332 67.3345 4.212 67.1425 4.116C66.9505 4.012 66.7505 3.936 66.5425 3.888C66.3425 3.832 66.1385 3.804 65.9305 3.804C65.4825 3.804 65.1425 3.892 64.9105 4.068C64.6785 4.244 64.5625 4.476 64.5625 4.764C64.5625 4.988 64.6345 5.172 64.7785 5.316C64.9225 5.46 65.1465 5.564 65.4505 5.628L66.5425 5.856C67.0625 5.968 67.4505 6.148 67.7065 6.396C67.9705 6.636 68.1025 6.964 68.1025 7.38C68.1025 7.732 68.0065 8.04 67.8145 8.304C67.6225 8.56 67.3505 8.76 66.9985 8.904C66.6545 9.04 66.2465 9.108 65.7745 9.108ZM72.7979 9V0.539999H76.1459C76.7539 0.539999 77.2659 0.64 77.6819 0.84C78.1059 1.032 78.4259 1.32 78.6419 1.704C78.8579 2.08 78.9659 2.54 78.9659 3.084C78.9659 3.612 78.8579 4.068 78.6419 4.452C78.4259 4.836 78.1059 5.128 77.6819 5.328C77.2659 5.528 76.7539 5.628 76.1459 5.628H73.7819V9H72.7979ZM73.7819 4.8H76.0259C76.6739 4.8 77.1619 4.656 77.4899 4.368C77.8259 4.072 77.9939 3.644 77.9939 3.084C77.9939 2.516 77.8259 2.088 77.4899 1.8C77.1619 1.504 76.6739 1.356 76.0259 1.356H73.7819V4.8ZM82.6298 9.108C82.0138 9.108 81.4818 8.988 81.0338 8.748C80.5938 8.5 80.2498 8.152 80.0018 7.704C79.7618 7.256 79.6418 6.72 79.6418 6.096C79.6418 5.488 79.7618 4.96 80.0018 4.512C80.2418 4.056 80.5698 3.7 80.9858 3.444C81.4098 3.188 81.8978 3.06 82.4498 3.06C82.9778 3.06 83.4298 3.176 83.8058 3.408C84.1818 3.64 84.4698 3.968 84.6698 4.392C84.8778 4.816 84.9818 5.324 84.9818 5.916V6.288H80.3858V5.652H84.3338L84.1418 5.808C84.1418 5.168 83.9978 4.672 83.7098 4.32C83.4298 3.96 83.0178 3.78 82.4738 3.78C82.0658 3.78 81.7178 3.876 81.4298 4.068C81.1498 4.252 80.9378 4.512 80.7938 4.848C80.6498 5.176 80.5778 5.56 80.5778 6V6.072C80.5778 6.56 80.6538 6.972 80.8058 7.308C80.9658 7.644 81.2018 7.9 81.5138 8.076C81.8258 8.244 82.1978 8.328 82.6298 8.328C82.9738 8.328 83.3058 8.276 83.6258 8.172C83.9538 8.06 84.2618 7.88 84.5498 7.632L84.8858 8.316C84.6218 8.556 84.2858 8.748 83.8778 8.892C83.4698 9.036 83.0538 9.108 82.6298 9.108ZM86.3886 9V3.168H87.3366V4.548H87.2166C87.3526 4.076 87.5886 3.72 87.9246 3.48C88.2606 3.232 88.7046 3.088 89.2566 3.048L89.6046 3.012L89.6766 3.852L89.0646 3.924C88.5206 3.972 88.1006 4.148 87.8046 4.452C87.5166 4.748 87.3726 5.156 87.3726 5.676V9H86.3886ZM91.3178 9V3.924H90.1658V3.168H91.5818L91.3178 3.42V2.964C91.3178 2.188 91.5098 1.6 91.8938 1.2C92.2858 0.799999 92.8858 0.575999 93.6938 0.528L94.1618 0.504L94.2458 1.248L93.6938 1.284C93.3658 1.308 93.0978 1.38 92.8898 1.5C92.6818 1.62 92.5298 1.792 92.4338 2.016C92.3378 2.24 92.2898 2.516 92.2898 2.844V3.348L92.1458 3.168H93.9698V3.924H92.2898V9H91.3178ZM97.4658 9.108C96.8498 9.108 96.3178 8.988 95.8698 8.748C95.4298 8.5 95.0858 8.152 94.8378 7.704C94.5978 7.256 94.4778 6.72 94.4778 6.096C94.4778 5.488 94.5978 4.96 94.8378 4.512C95.0778 4.056 95.4058 3.7 95.8218 3.444C96.2458 3.188 96.7338 3.06 97.2858 3.06C97.8138 3.06 98.2658 3.176 98.6418 3.408C99.0178 3.64 99.3058 3.968 99.5058 4.392C99.7138 4.816 99.8178 5.324 99.8178 5.916V6.288H95.2218V5.652H99.1698L98.9778 5.808C98.9778 5.168 98.8338 4.672 98.5458 4.32C98.2658 3.96 97.8538 3.78 97.3098 3.78C96.9018 3.78 96.5538 3.876 96.2658 4.068C95.9858 4.252 95.7738 4.512 95.6298 4.848C95.4858 5.176 95.4138 5.56 95.4138 6V6.072C95.4138 6.56 95.4898 6.972 95.6418 7.308C95.8018 7.644 96.0378 7.9 96.3498 8.076C96.6618 8.244 97.0338 8.328 97.4658 8.328C97.8098 8.328 98.1418 8.276 98.4618 8.172C98.7898 8.06 99.0978 7.88 99.3858 7.632L99.7218 8.316C99.4578 8.556 99.1218 8.748 98.7138 8.892C98.3058 9.036 97.8898 9.108 97.4658 9.108ZM103.697 9.108C103.113 9.108 102.609 8.98 102.185 8.724C101.761 8.468 101.433 8.112 101.201 7.656C100.977 7.192 100.865 6.656 100.865 6.048C100.865 5.432 100.977 4.9 101.201 4.452C101.433 4.004 101.761 3.66 102.185 3.42C102.609 3.18 103.113 3.06 103.697 3.06C104.057 3.06 104.413 3.124 104.765 3.252C105.117 3.38 105.409 3.56 105.641 3.792L105.305 4.5C105.073 4.276 104.817 4.112 104.537 4.008C104.265 3.904 104.005 3.852 103.757 3.852C103.149 3.852 102.681 4.044 102.353 4.428C102.025 4.804 101.861 5.348 101.861 6.06C101.861 6.756 102.025 7.308 102.353 7.716C102.681 8.116 103.149 8.316 103.757 8.316C104.005 8.316 104.265 8.264 104.537 8.16C104.817 8.056 105.073 7.888 105.305 7.656L105.641 8.364C105.409 8.596 105.113 8.78 104.753 8.916C104.401 9.044 104.049 9.108 103.697 9.108ZM109.119 9.108C108.431 9.108 107.915 8.924 107.571 8.556C107.227 8.188 107.055 7.664 107.055 6.984V3.924H105.915V3.168H107.055V1.38H108.027V3.168H109.875V3.924H108.027V6.888C108.027 7.344 108.123 7.692 108.315 7.932C108.507 8.164 108.819 8.28 109.251 8.28C109.379 8.28 109.507 8.264 109.635 8.232C109.763 8.2 109.879 8.168 109.983 8.136L110.151 8.88C110.047 8.936 109.895 8.988 109.695 9.036C109.495 9.084 109.303 9.108 109.119 9.108ZM114.189 9V0.539999H119.421V1.368H115.173V4.32H119.181V5.148H115.173V9H114.189ZM122.832 9.108C122.264 9.108 121.772 8.984 121.356 8.736C120.94 8.488 120.616 8.14 120.384 7.692C120.16 7.236 120.048 6.7 120.048 6.084C120.048 5.468 120.16 4.936 120.384 4.488C120.616 4.032 120.94 3.68 121.356 3.432C121.772 3.184 122.264 3.06 122.832 3.06C123.4 3.06 123.892 3.184 124.308 3.432C124.724 3.68 125.044 4.032 125.268 4.488C125.5 4.936 125.616 5.468 125.616 6.084C125.616 6.7 125.5 7.236 125.268 7.692C125.044 8.14 124.724 8.488 124.308 8.736C123.892 8.984 123.4 9.108 122.832 9.108ZM122.832 8.328C123.384 8.328 123.82 8.136 124.14 7.752C124.468 7.36 124.632 6.8 124.632 6.072C124.632 5.352 124.468 4.8 124.14 4.416C123.82 4.032 123.384 3.84 122.832 3.84C122.288 3.84 121.852 4.032 121.524 4.416C121.196 4.8 121.032 5.352 121.032 6.072C121.032 6.8 121.196 7.36 121.524 7.752C121.852 8.136 122.288 8.328 122.832 8.328ZM127.076 9V3.168H128.024V4.548H127.904C128.04 4.076 128.276 3.72 128.612 3.48C128.948 3.232 129.392 3.088 129.944 3.048L130.292 3.012L130.364 3.852L129.752 3.924C129.208 3.972 128.788 4.148 128.492 4.452C128.204 4.748 128.06 5.156 128.06 5.676V9H127.076ZM133.499 9.084L133.427 8.256L134.147 8.208C134.427 8.184 134.659 8.116 134.843 8.004C135.027 7.884 135.167 7.716 135.263 7.5C135.359 7.284 135.407 7.032 135.407 6.744V0.539999H136.391V6.756C136.391 7.212 136.311 7.608 136.151 7.944C135.991 8.272 135.755 8.528 135.443 8.712C135.131 8.896 134.743 9.004 134.279 9.036L133.499 9.084ZM140.414 9.108C139.942 9.108 139.55 9.024 139.238 8.856C138.934 8.68 138.702 8.42 138.542 8.076C138.39 7.732 138.314 7.304 138.314 6.792V3.168H139.286V6.78C139.286 7.124 139.33 7.412 139.418 7.644C139.514 7.868 139.662 8.036 139.862 8.148C140.062 8.252 140.31 8.304 140.605 8.304C140.942 8.304 141.234 8.228 141.482 8.076C141.73 7.924 141.926 7.712 142.07 7.44C142.214 7.168 142.286 6.848 142.286 6.48V3.168H143.258V9H142.31V7.656H142.466C142.306 8.128 142.042 8.488 141.674 8.736C141.314 8.984 140.894 9.108 140.414 9.108ZM144.956 1.716V0.624H146.156V1.716H144.956ZM145.076 9V3.168H146.048V9H145.076ZM150.337 9.108C149.753 9.108 149.249 8.98 148.825 8.724C148.401 8.468 148.073 8.112 147.841 7.656C147.617 7.192 147.505 6.656 147.505 6.048C147.505 5.432 147.617 4.9 147.841 4.452C148.073 4.004 148.401 3.66 148.825 3.42C149.249 3.18 149.753 3.06 150.337 3.06C150.697 3.06 151.053 3.124 151.405 3.252C151.757 3.38 152.049 3.56 152.281 3.792L151.945 4.5C151.713 4.276 151.457 4.112 151.177 4.008C150.905 3.904 150.645 3.852 150.397 3.852C149.789 3.852 149.321 4.044 148.993 4.428C148.665 4.804 148.501 5.348 148.501 6.06C148.501 6.756 148.665 7.308 148.993 7.716C149.321 8.116 149.789 8.316 150.397 8.316C150.645 8.316 150.905 8.264 151.177 8.16C151.457 8.056 151.713 7.888 151.945 7.656L152.281 8.364C152.049 8.596 151.753 8.78 151.393 8.916C151.041 9.044 150.689 9.108 150.337 9.108ZM155.931 9.108C155.315 9.108 154.783 8.988 154.335 8.748C153.895 8.5 153.551 8.152 153.303 7.704C153.063 7.256 152.943 6.72 152.943 6.096C152.943 5.488 153.063 4.96 153.303 4.512C153.543 4.056 153.871 3.7 154.287 3.444C154.711 3.188 155.199 3.06 155.751 3.06C156.279 3.06 156.731 3.176 157.107 3.408C157.483 3.64 157.771 3.968 157.971 4.392C158.179 4.816 158.283 5.324 158.283 5.916V6.288H153.687V5.652H157.635L157.443 5.808C157.443 5.168 157.299 4.672 157.011 4.32C156.731 3.96 156.319 3.78 155.775 3.78C155.367 3.78 155.019 3.876 154.731 4.068C154.451 4.252 154.239 4.512 154.095 4.848C153.951 5.176 153.879 5.56 153.879 6V6.072C153.879 6.56 153.955 6.972 154.107 7.308C154.267 7.644 154.503 7.9 154.815 8.076C155.127 8.244 155.499 8.328 155.931 8.328C156.275 8.328 156.607 8.276 156.927 8.172C157.255 8.06 157.563 7.88 157.851 7.632L158.187 8.316C157.923 8.556 157.587 8.748 157.179 8.892C156.771 9.036 156.355 9.108 155.931 9.108ZM161.657 9.108C161.353 9.108 161.057 9.076 160.769 9.012C160.489 8.956 160.225 8.876 159.977 8.772C159.737 8.66 159.529 8.528 159.353 8.376L159.665 7.692C159.857 7.844 160.065 7.972 160.289 8.076C160.513 8.172 160.741 8.244 160.973 8.292C161.205 8.34 161.441 8.364 161.681 8.364C162.137 8.364 162.481 8.28 162.713 8.112C162.945 7.944 163.061 7.716 163.061 7.428C163.061 7.204 162.985 7.028 162.833 6.9C162.681 6.764 162.441 6.66 162.113 6.588L161.021 6.348C160.517 6.244 160.141 6.064 159.893 5.808C159.653 5.552 159.533 5.22 159.533 4.812C159.533 4.452 159.625 4.144 159.809 3.888C160.001 3.624 160.269 3.42 160.613 3.276C160.957 3.132 161.357 3.06 161.813 3.06C162.085 3.06 162.345 3.088 162.593 3.144C162.841 3.2 163.073 3.284 163.289 3.396C163.513 3.5 163.705 3.632 163.865 3.792L163.541 4.476C163.389 4.332 163.217 4.212 163.025 4.116C162.833 4.012 162.633 3.936 162.425 3.888C162.225 3.832 162.021 3.804 161.813 3.804C161.365 3.804 161.025 3.892 160.793 4.068C160.561 4.244 160.445 4.476 160.445 4.764C160.445 4.988 160.517 5.172 160.661 5.316C160.805 5.46 161.029 5.564 161.333 5.628L162.425 5.856C162.945 5.968 163.333 6.148 163.589 6.396C163.853 6.636 163.985 6.964 163.985 7.38C163.985 7.732 163.889 8.04 163.697 8.304C163.505 8.56 163.233 8.76 162.881 8.904C162.537 9.04 162.129 9.108 161.657 9.108ZM165.756 10.368L165.3 10.02C165.444 9.868 165.552 9.724 165.624 9.588C165.704 9.46 165.756 9.328 165.78 9.192C165.812 9.064 165.828 8.932 165.828 8.796L166.044 9H165.252V7.776H166.476V8.64C166.476 8.856 166.452 9.06 166.404 9.252C166.364 9.452 166.292 9.644 166.188 9.828C166.084 10.012 165.94 10.192 165.756 10.368ZM174.089 9.108C173.649 9.108 173.233 9.068 172.841 8.988C172.457 8.908 172.101 8.796 171.773 8.652C171.453 8.5 171.161 8.316 170.897 8.1L171.245 7.308C171.517 7.508 171.793 7.68 172.073 7.824C172.361 7.96 172.669 8.064 172.997 8.136C173.333 8.2 173.697 8.232 174.089 8.232C174.809 8.232 175.341 8.1 175.685 7.836C176.037 7.564 176.213 7.208 176.213 6.768C176.213 6.536 176.157 6.336 176.045 6.168C175.941 6 175.765 5.856 175.517 5.736C175.277 5.616 174.961 5.516 174.569 5.436L173.321 5.184C172.569 5.024 172.005 4.764 171.629 4.404C171.261 4.036 171.077 3.548 171.077 2.94C171.077 2.436 171.205 1.996 171.461 1.62C171.725 1.244 172.089 0.951999 172.553 0.744C173.025 0.536 173.561 0.431999 174.161 0.431999C174.545 0.431999 174.909 0.471999 175.253 0.551999C175.597 0.632 175.913 0.752 176.201 0.912C176.497 1.064 176.757 1.252 176.981 1.476L176.633 2.244C176.273 1.916 175.893 1.68 175.493 1.536C175.093 1.384 174.645 1.308 174.149 1.308C173.725 1.308 173.357 1.372 173.045 1.5C172.741 1.628 172.501 1.816 172.325 2.064C172.157 2.304 172.073 2.584 172.073 2.904C172.073 3.288 172.189 3.592 172.421 3.816C172.661 4.04 173.049 4.204 173.585 4.308L174.833 4.572C175.641 4.74 176.237 4.996 176.621 5.34C177.013 5.676 177.209 6.136 177.209 6.72C177.209 7.184 177.081 7.6 176.825 7.968C176.577 8.328 176.217 8.608 175.745 8.808C175.281 9.008 174.729 9.108 174.089 9.108ZM178.627 9V3.168H179.575V4.464H179.443C179.539 4.168 179.679 3.916 179.863 3.708C180.055 3.492 180.279 3.332 180.535 3.228C180.799 3.116 181.087 3.06 181.399 3.06C181.895 3.06 182.295 3.18 182.599 3.42C182.911 3.652 183.119 4.016 183.223 4.512H183.043C183.187 4.064 183.443 3.712 183.811 3.456C184.187 3.192 184.623 3.06 185.119 3.06C185.559 3.06 185.919 3.144 186.199 3.312C186.487 3.48 186.703 3.736 186.847 4.08C186.991 4.416 187.063 4.844 187.063 5.364V9H186.091V5.412C186.091 4.876 185.999 4.484 185.815 4.236C185.631 3.98 185.319 3.852 184.879 3.852C184.567 3.852 184.291 3.928 184.051 4.08C183.819 4.232 183.639 4.448 183.511 4.728C183.391 5 183.331 5.324 183.331 5.7V9H182.359V5.412C182.359 4.876 182.263 4.484 182.071 4.236C181.887 3.98 181.579 3.852 181.147 3.852C180.827 3.852 180.551 3.928 180.319 4.08C180.087 4.232 179.907 4.448 179.779 4.728C179.659 5 179.599 5.324 179.599 5.7V9H178.627ZM191.305 9.108C190.737 9.108 190.245 8.984 189.829 8.736C189.413 8.488 189.089 8.14 188.857 7.692C188.633 7.236 188.521 6.7 188.521 6.084C188.521 5.468 188.633 4.936 188.857 4.488C189.089 4.032 189.413 3.68 189.829 3.432C190.245 3.184 190.737 3.06 191.305 3.06C191.873 3.06 192.365 3.184 192.781 3.432C193.197 3.68 193.517 4.032 193.741 4.488C193.973 4.936 194.089 5.468 194.089 6.084C194.089 6.7 193.973 7.236 193.741 7.692C193.517 8.14 193.197 8.488 192.781 8.736C192.365 8.984 191.873 9.108 191.305 9.108ZM191.305 8.328C191.857 8.328 192.293 8.136 192.613 7.752C192.941 7.36 193.105 6.8 193.105 6.072C193.105 5.352 192.941 4.8 192.613 4.416C192.293 4.032 191.857 3.84 191.305 3.84C190.761 3.84 190.325 4.032 189.997 4.416C189.669 4.8 189.505 5.352 189.505 6.072C189.505 6.8 189.669 7.36 189.997 7.752C190.325 8.136 190.761 8.328 191.305 8.328ZM197.973 9.108C197.405 9.108 196.913 8.984 196.497 8.736C196.081 8.488 195.757 8.14 195.525 7.692C195.301 7.236 195.189 6.7 195.189 6.084C195.189 5.468 195.301 4.936 195.525 4.488C195.757 4.032 196.081 3.68 196.497 3.432C196.913 3.184 197.405 3.06 197.973 3.06C198.541 3.06 199.033 3.184 199.449 3.432C199.865 3.68 200.185 4.032 200.409 4.488C200.641 4.936 200.757 5.468 200.757 6.084C200.757 6.7 200.641 7.236 200.409 7.692C200.185 8.14 199.865 8.488 199.449 8.736C199.033 8.984 198.541 9.108 197.973 9.108ZM197.973 8.328C198.525 8.328 198.961 8.136 199.281 7.752C199.609 7.36 199.773 6.8 199.773 6.072C199.773 5.352 199.609 4.8 199.281 4.416C198.961 4.032 198.525 3.84 197.973 3.84C197.429 3.84 196.993 4.032 196.665 4.416C196.337 4.8 196.173 5.352 196.173 6.072C196.173 6.8 196.337 7.36 196.665 7.752C196.993 8.136 197.429 8.328 197.973 8.328ZM204.498 9.108C203.81 9.108 203.294 8.924 202.95 8.556C202.606 8.188 202.434 7.664 202.434 6.984V3.924H201.294V3.168H202.434V1.38H203.406V3.168H205.254V3.924H203.406V6.888C203.406 7.344 203.502 7.692 203.694 7.932C203.886 8.164 204.198 8.28 204.63 8.28C204.758 8.28 204.886 8.264 205.014 8.232C205.142 8.2 205.258 8.168 205.362 8.136L205.53 8.88C205.426 8.936 205.274 8.988 205.074 9.036C204.874 9.084 204.682 9.108 204.498 9.108ZM206.353 9V0.539999H207.325V4.464H207.169C207.337 4 207.609 3.652 207.985 3.42C208.369 3.18 208.809 3.06 209.305 3.06C209.769 3.06 210.153 3.144 210.457 3.312C210.769 3.48 211.001 3.736 211.153 4.08C211.305 4.416 211.381 4.844 211.381 5.364V9H210.409V5.424C210.409 5.064 210.361 4.768 210.265 4.536C210.177 4.304 210.033 4.132 209.833 4.02C209.641 3.908 209.389 3.852 209.077 3.852C208.725 3.852 208.417 3.928 208.153 4.08C207.889 4.232 207.685 4.444 207.541 4.716C207.397 4.988 207.325 5.308 207.325 5.676V9H206.353ZM213.054 1.716V0.624H214.254V1.716H213.054ZM213.174 9V3.168H214.146V9H213.174ZM218.591 9.108C217.975 9.108 217.443 8.988 216.995 8.748C216.555 8.5 216.211 8.152 215.963 7.704C215.723 7.256 215.603 6.72 215.603 6.096C215.603 5.488 215.723 4.96 215.963 4.512C216.203 4.056 216.531 3.7 216.947 3.444C217.371 3.188 217.859 3.06 218.411 3.06C218.939 3.06 219.391 3.176 219.767 3.408C220.143 3.64 220.431 3.968 220.631 4.392C220.839 4.816 220.943 5.324 220.943 5.916V6.288H216.347V5.652H220.295L220.103 5.808C220.103 5.168 219.959 4.672 219.671 4.32C219.391 3.96 218.979 3.78 218.435 3.78C218.027 3.78 217.679 3.876 217.391 4.068C217.111 4.252 216.899 4.512 216.755 4.848C216.611 5.176 216.539 5.56 216.539 6V6.072C216.539 6.56 216.615 6.972 216.767 7.308C216.927 7.644 217.163 7.9 217.475 8.076C217.787 8.244 218.159 8.328 218.591 8.328C218.935 8.328 219.267 8.276 219.587 8.172C219.915 8.06 220.223 7.88 220.511 7.632L220.847 8.316C220.583 8.556 220.247 8.748 219.839 8.892C219.431 9.036 219.015 9.108 218.591 9.108ZM224.318 9.108C224.014 9.108 223.718 9.076 223.43 9.012C223.15 8.956 222.886 8.876 222.638 8.772C222.398 8.66 222.19 8.528 222.014 8.376L222.326 7.692C222.518 7.844 222.726 7.972 222.95 8.076C223.174 8.172 223.402 8.244 223.634 8.292C223.866 8.34 224.102 8.364 224.342 8.364C224.798 8.364 225.142 8.28 225.374 8.112C225.606 7.944 225.722 7.716 225.722 7.428C225.722 7.204 225.646 7.028 225.494 6.9C225.342 6.764 225.102 6.66 224.774 6.588L223.682 6.348C223.178 6.244 222.802 6.064 222.554 5.808C222.314 5.552 222.194 5.22 222.194 4.812C222.194 4.452 222.286 4.144 222.47 3.888C222.662 3.624 222.93 3.42 223.274 3.276C223.618 3.132 224.018 3.06 224.474 3.06C224.746 3.06 225.006 3.088 225.254 3.144C225.502 3.2 225.734 3.284 225.95 3.396C226.174 3.5 226.366 3.632 226.526 3.792L226.202 4.476C226.05 4.332 225.878 4.212 225.686 4.116C225.494 4.012 225.294 3.936 225.086 3.888C224.886 3.832 224.682 3.804 224.474 3.804C224.026 3.804 223.686 3.892 223.454 4.068C223.222 4.244 223.106 4.476 223.106 4.764C223.106 4.988 223.178 5.172 223.322 5.316C223.466 5.46 223.69 5.564 223.994 5.628L225.086 5.856C225.606 5.968 225.994 6.148 226.25 6.396C226.514 6.636 226.646 6.964 226.646 7.38C226.646 7.732 226.55 8.04 226.358 8.304C226.166 8.56 225.894 8.76 225.542 8.904C225.198 9.04 224.79 9.108 224.318 9.108ZM228.416 10.368L227.96 10.02C228.104 9.868 228.212 9.724 228.284 9.588C228.364 9.46 228.416 9.328 228.44 9.192C228.472 9.064 228.488 8.932 228.488 8.796L228.704 9H227.912V7.776H229.136V8.64C229.136 8.856 229.112 9.06 229.064 9.252C229.024 9.452 228.952 9.644 228.848 9.828C228.744 10.012 228.6 10.192 228.416 10.368ZM234.037 9V0.539999H234.865L238.297 6.984H237.937L241.345 0.539999H242.173V9H241.261V1.86H241.549L238.441 7.692H237.793L234.649 1.848H234.937V9H234.037ZM246.57 9.108C246.002 9.108 245.51 8.984 245.094 8.736C244.678 8.488 244.354 8.14 244.122 7.692C243.898 7.236 243.786 6.7 243.786 6.084C243.786 5.468 243.898 4.936 244.122 4.488C244.354 4.032 244.678 3.68 245.094 3.432C245.51 3.184 246.002 3.06 246.57 3.06C247.138 3.06 247.63 3.184 248.046 3.432C248.462 3.68 248.782 4.032 249.006 4.488C249.238 4.936 249.354 5.468 249.354 6.084C249.354 6.7 249.238 7.236 249.006 7.692C248.782 8.14 248.462 8.488 248.046 8.736C247.63 8.984 247.138 9.108 246.57 9.108ZM246.57 8.328C247.122 8.328 247.558 8.136 247.878 7.752C248.206 7.36 248.37 6.8 248.37 6.072C248.37 5.352 248.206 4.8 247.878 4.416C247.558 4.032 247.122 3.84 246.57 3.84C246.026 3.84 245.59 4.032 245.262 4.416C244.934 4.8 244.77 5.352 244.77 6.072C244.77 6.8 244.934 7.36 245.262 7.752C245.59 8.136 246.026 8.328 246.57 8.328ZM253.286 9.108C252.702 9.108 252.198 8.98 251.774 8.724C251.35 8.468 251.022 8.112 250.79 7.656C250.566 7.192 250.454 6.656 250.454 6.048C250.454 5.432 250.566 4.9 250.79 4.452C251.022 4.004 251.35 3.66 251.774 3.42C252.198 3.18 252.702 3.06 253.286 3.06C253.646 3.06 254.002 3.124 254.354 3.252C254.706 3.38 254.998 3.56 255.23 3.792L254.894 4.5C254.662 4.276 254.406 4.112 254.126 4.008C253.854 3.904 253.594 3.852 253.346 3.852C252.738 3.852 252.27 4.044 251.942 4.428C251.614 4.804 251.45 5.348 251.45 6.06C251.45 6.756 251.614 7.308 251.942 7.716C252.27 8.116 252.738 8.316 253.346 8.316C253.594 8.316 253.854 8.264 254.126 8.16C254.406 8.056 254.662 7.888 254.894 7.656L255.23 8.364C254.998 8.596 254.702 8.78 254.342 8.916C253.99 9.044 253.638 9.108 253.286 9.108ZM256.369 9V0.539999H257.341V5.76H257.365L260.065 3.168H261.301L258.097 6.24V5.712L261.553 9H260.317L257.365 6.264H257.341V9H256.369ZM264.568 9.108C263.88 9.108 263.364 8.924 263.02 8.556C262.676 8.188 262.504 7.664 262.504 6.984V3.924H261.364V3.168H262.504V1.38H263.476V3.168H265.324V3.924H263.476V6.888C263.476 7.344 263.572 7.692 263.764 7.932C263.956 8.164 264.268 8.28 264.7 8.28C264.828 8.28 264.956 8.264 265.084 8.232C265.212 8.2 265.328 8.168 265.432 8.136L265.6 8.88C265.496 8.936 265.344 8.988 265.144 9.036C264.944 9.084 264.752 9.108 264.568 9.108ZM268.26 9.108C267.86 9.108 267.5 9.032 267.18 8.88C266.868 8.72 266.62 8.504 266.436 8.232C266.252 7.96 266.16 7.656 266.16 7.32C266.16 6.888 266.268 6.548 266.484 6.3C266.708 6.052 267.072 5.876 267.576 5.772C268.088 5.668 268.784 5.616 269.664 5.616H270.204V6.252H269.676C269.188 6.252 268.78 6.268 268.452 6.3C268.124 6.332 267.864 6.388 267.672 6.468C267.48 6.548 267.344 6.652 267.264 6.78C267.184 6.908 267.144 7.068 267.144 7.26C267.144 7.588 267.256 7.856 267.48 8.064C267.712 8.272 268.024 8.376 268.416 8.376C268.736 8.376 269.016 8.3 269.256 8.148C269.504 7.996 269.696 7.788 269.832 7.524C269.976 7.26 270.048 6.956 270.048 6.612V5.244C270.048 4.748 269.948 4.392 269.748 4.176C269.548 3.952 269.22 3.84 268.764 3.84C268.412 3.84 268.072 3.892 267.744 3.996C267.416 4.092 267.08 4.252 266.736 4.476L266.4 3.768C266.608 3.624 266.844 3.5 267.108 3.396C267.372 3.284 267.648 3.2 267.936 3.144C268.224 3.088 268.5 3.06 268.764 3.06C269.268 3.06 269.684 3.144 270.012 3.312C270.34 3.472 270.584 3.72 270.744 4.056C270.904 4.384 270.984 4.808 270.984 5.328V9H270.072V7.644H270.18C270.116 7.948 269.992 8.208 269.808 8.424C269.632 8.64 269.412 8.808 269.148 8.928C268.884 9.048 268.588 9.108 268.26 9.108ZM272.667 1.716V0.624H273.867V1.716H272.667ZM272.787 9V3.168H273.759V9H272.787ZM277.364 9.108C276.772 9.108 276.324 8.932 276.02 8.58C275.724 8.228 275.576 7.724 275.576 7.068V0.539999H276.548V6.996C276.548 7.276 276.584 7.512 276.656 7.704C276.736 7.896 276.852 8.04 277.004 8.136C277.156 8.232 277.344 8.28 277.568 8.28C277.664 8.28 277.756 8.276 277.844 8.268C277.94 8.252 278.028 8.232 278.108 8.208L278.084 9.024C277.956 9.048 277.832 9.068 277.712 9.084C277.6 9.1 277.484 9.108 277.364 9.108ZM281.036 9.108C280.732 9.108 280.436 9.076 280.148 9.012C279.868 8.956 279.604 8.876 279.356 8.772C279.116 8.66 278.908 8.528 278.732 8.376L279.044 7.692C279.236 7.844 279.444 7.972 279.668 8.076C279.892 8.172 280.12 8.244 280.352 8.292C280.584 8.34 280.82 8.364 281.06 8.364C281.516 8.364 281.86 8.28 282.092 8.112C282.324 7.944 282.44 7.716 282.44 7.428C282.44 7.204 282.364 7.028 282.212 6.9C282.06 6.764 281.82 6.66 281.492 6.588L280.4 6.348C279.896 6.244 279.52 6.064 279.272 5.808C279.032 5.552 278.912 5.22 278.912 4.812C278.912 4.452 279.004 4.144 279.188 3.888C279.38 3.624 279.648 3.42 279.992 3.276C280.336 3.132 280.736 3.06 281.192 3.06C281.464 3.06 281.724 3.088 281.972 3.144C282.22 3.2 282.452 3.284 282.668 3.396C282.892 3.5 283.084 3.632 283.244 3.792L282.92 4.476C282.768 4.332 282.596 4.212 282.404 4.116C282.212 4.012 282.012 3.936 281.804 3.888C281.604 3.832 281.4 3.804 281.192 3.804C280.744 3.804 280.404 3.892 280.172 4.068C279.94 4.244 279.824 4.476 279.824 4.764C279.824 4.988 279.896 5.172 280.04 5.316C280.184 5.46 280.408 5.564 280.712 5.628L281.804 5.856C282.324 5.968 282.712 6.148 282.968 6.396C283.232 6.636 283.364 6.964 283.364 7.38C283.364 7.732 283.268 8.04 283.076 8.304C282.884 8.56 282.612 8.76 282.26 8.904C281.916 9.04 281.508 9.108 281.036 9.108ZM285.135 10.368L284.679 10.02C284.823 9.868 284.931 9.724 285.003 9.588C285.083 9.46 285.135 9.328 285.159 9.192C285.191 9.064 285.207 8.932 285.207 8.796L285.423 9H284.631V7.776H285.855V8.64C285.855 8.856 285.831 9.06 285.783 9.252C285.743 9.452 285.671 9.644 285.567 9.828C285.463 10.012 285.319 10.192 285.135 10.368ZM0.228 25L3.96 16.54H4.8L8.532 25H7.512L6.468 22.588L6.948 22.84H1.788L2.28 22.588L1.248 25H0.228ZM4.368 17.692L2.436 22.24L2.148 22.012H6.588L6.324 22.24L4.392 17.692H4.368ZM9.65419 25V19.168H10.6022V20.464H10.4702C10.6382 20 10.9102 19.652 11.2862 19.42C11.6702 19.18 12.1102 19.06 12.6062 19.06C13.0702 19.06 13.4542 19.144 13.7582 19.312C14.0702 19.472 14.3022 19.724 14.4542 20.068C14.6062 20.412 14.6822 20.844 14.6822 21.364V25H13.7102V21.424C13.7102 21.064 13.6622 20.768 13.5662 20.536C13.4782 20.304 13.3342 20.132 13.1342 20.02C12.9422 19.908 12.6902 19.852 12.3782 19.852C12.0262 19.852 11.7182 19.928 11.4542 20.08C11.1902 20.232 10.9862 20.444 10.8422 20.716C10.6982 20.988 10.6262 21.308 10.6262 21.676V25H9.65419ZM18.6945 25.108C18.1745 25.108 17.7185 24.984 17.3265 24.736C16.9425 24.488 16.6425 24.14 16.4265 23.692C16.2185 23.236 16.1145 22.7 16.1145 22.084C16.1145 21.46 16.2185 20.924 16.4265 20.476C16.6425 20.02 16.9425 19.672 17.3265 19.432C17.7185 19.184 18.1745 19.06 18.6945 19.06C19.2225 19.06 19.6745 19.192 20.0505 19.456C20.4265 19.72 20.6785 20.076 20.8065 20.524H20.6745V16.54H21.6465V25H20.6985V23.608H20.8185C20.6905 24.064 20.4345 24.428 20.0505 24.7C19.6745 24.972 19.2225 25.108 18.6945 25.108ZM18.8985 24.328C19.4505 24.328 19.8865 24.136 20.2065 23.752C20.5345 23.36 20.6985 22.804 20.6985 22.084C20.6985 21.356 20.5345 20.8 20.2065 20.416C19.8865 20.032 19.4505 19.84 18.8985 19.84C18.3545 19.84 17.9185 20.032 17.5905 20.416C17.2625 20.8 17.0985 21.356 17.0985 22.084C17.0985 22.804 17.2625 23.36 17.5905 23.752C17.9185 24.136 18.3545 24.328 18.8985 24.328ZM30.2366 25.108C29.6526 25.108 29.1206 25.008 28.6406 24.808C28.1606 24.6 27.7526 24.308 27.4166 23.932C27.0806 23.556 26.8206 23.1 26.6366 22.564C26.4606 22.028 26.3726 21.428 26.3726 20.764C26.3726 20.092 26.4606 19.492 26.6366 18.964C26.8206 18.428 27.0806 17.976 27.4166 17.608C27.7526 17.232 28.1566 16.944 28.6286 16.744C29.1086 16.536 29.6446 16.432 30.2366 16.432C30.8366 16.432 31.3726 16.532 31.8446 16.732C32.3246 16.932 32.7326 17.22 33.0686 17.596C33.4126 17.972 33.6726 18.428 33.8486 18.964C34.0326 19.492 34.1246 20.088 34.1246 20.752C34.1246 21.424 34.0326 22.028 33.8486 22.564C33.6646 23.1 33.4046 23.556 33.0686 23.932C32.7326 24.308 32.3246 24.6 31.8446 24.808C31.3726 25.008 30.8366 25.108 30.2366 25.108ZM30.2366 24.232C30.8446 24.232 31.3566 24.096 31.7726 23.824C32.1966 23.552 32.5206 23.156 32.7446 22.636C32.9686 22.116 33.0806 21.492 33.0806 20.764C33.0806 20.028 32.9686 19.404 32.7446 18.892C32.5206 18.38 32.1966 17.988 31.7726 17.716C31.3566 17.444 30.8446 17.308 30.2366 17.308C29.6446 17.308 29.1366 17.444 28.7126 17.716C28.2966 17.988 27.9766 18.384 27.7526 18.904C27.5286 19.416 27.4166 20.036 27.4166 20.764C27.4166 21.492 27.5286 22.116 27.7526 22.636C27.9766 23.148 28.2966 23.544 28.7126 23.824C29.1366 24.096 29.6446 24.232 30.2366 24.232ZM38.0918 25.108C37.4038 25.108 36.8878 24.924 36.5438 24.556C36.1998 24.188 36.0278 23.664 36.0278 22.984V19.924H34.8878V19.168H36.0278V17.38H36.9998V19.168H38.8478V19.924H36.9998V22.888C36.9998 23.344 37.0958 23.692 37.2878 23.932C37.4798 24.164 37.7918 24.28 38.2238 24.28C38.3518 24.28 38.4798 24.264 38.6078 24.232C38.7358 24.2 38.8518 24.168 38.9558 24.136L39.1238 24.88C39.0198 24.936 38.8678 24.988 38.6678 25.036C38.4678 25.084 38.2758 25.108 38.0918 25.108ZM39.9472 25V16.54H40.9192V20.464H40.7632C40.9312 20 41.2032 19.652 41.5792 19.42C41.9632 19.18 42.4032 19.06 42.8992 19.06C43.3632 19.06 43.7472 19.144 44.0512 19.312C44.3632 19.48 44.5952 19.736 44.7472 20.08C44.8992 20.416 44.9752 20.844 44.9752 21.364V25H44.0032V21.424C44.0032 21.064 43.9552 20.768 43.8592 20.536C43.7712 20.304 43.6272 20.132 43.4272 20.02C43.2352 19.908 42.9832 19.852 42.6712 19.852C42.3192 19.852 42.0112 19.928 41.7472 20.08C41.4832 20.232 41.2792 20.444 41.1352 20.716C40.9912 20.988 40.9192 21.308 40.9192 21.676V25H39.9472ZM49.3955 25.108C48.7795 25.108 48.2475 24.988 47.7995 24.748C47.3595 24.5 47.0155 24.152 46.7675 23.704C46.5275 23.256 46.4075 22.72 46.4075 22.096C46.4075 21.488 46.5275 20.96 46.7675 20.512C47.0075 20.056 47.3355 19.7 47.7515 19.444C48.1755 19.188 48.6635 19.06 49.2155 19.06C49.7435 19.06 50.1955 19.176 50.5715 19.408C50.9475 19.64 51.2355 19.968 51.4355 20.392C51.6435 20.816 51.7475 21.324 51.7475 21.916V22.288H47.1515V21.652H51.0995L50.9075 21.808C50.9075 21.168 50.7635 20.672 50.4755 20.32C50.1955 19.96 49.7835 19.78 49.2395 19.78C48.8315 19.78 48.4835 19.876 48.1955 20.068C47.9155 20.252 47.7035 20.512 47.5595 20.848C47.4155 21.176 47.3435 21.56 47.3435 22V22.072C47.3435 22.56 47.4195 22.972 47.5715 23.308C47.7315 23.644 47.9675 23.9 48.2795 24.076C48.5915 24.244 48.9635 24.328 49.3955 24.328C49.7395 24.328 50.0715 24.276 50.3915 24.172C50.7195 24.06 51.0275 23.88 51.3155 23.632L51.6515 24.316C51.3875 24.556 51.0515 24.748 50.6435 24.892C50.2355 25.036 49.8195 25.108 49.3955 25.108ZM53.1542 25V19.168H54.1022V20.548H53.9822C54.1182 20.076 54.3542 19.72 54.6902 19.48C55.0262 19.232 55.4702 19.088 56.0222 19.048L56.3702 19.012L56.4422 19.852L55.8302 19.924C55.2862 19.972 54.8662 20.148 54.5702 20.452C54.2822 20.748 54.1382 21.156 54.1382 21.676V25H53.1542ZM60.669 25V16.54H64.017C64.921 16.54 65.617 16.752 66.105 17.176C66.593 17.6 66.837 18.204 66.837 18.988C66.837 19.484 66.725 19.916 66.501 20.284C66.285 20.644 65.965 20.92 65.541 21.112C65.117 21.296 64.609 21.388 64.017 21.388L64.137 21.232H64.377C64.689 21.232 64.961 21.312 65.193 21.472C65.425 21.632 65.637 21.888 65.829 22.24L67.317 25H66.237L64.773 22.288C64.653 22.064 64.517 21.888 64.365 21.76C64.221 21.632 64.053 21.544 63.861 21.496C63.677 21.448 63.453 21.424 63.189 21.424H61.653V25H60.669ZM61.653 20.644H63.873C64.529 20.644 65.025 20.508 65.361 20.236C65.697 19.956 65.865 19.54 65.865 18.988C65.865 18.452 65.697 18.048 65.361 17.776C65.025 17.496 64.529 17.356 63.873 17.356H61.653V20.644ZM71.0634 25.108C70.4474 25.108 69.9154 24.988 69.4674 24.748C69.0274 24.5 68.6834 24.152 68.4354 23.704C68.1954 23.256 68.0754 22.72 68.0754 22.096C68.0754 21.488 68.1954 20.96 68.4354 20.512C68.6754 20.056 69.0034 19.7 69.4194 19.444C69.8434 19.188 70.3314 19.06 70.8834 19.06C71.4114 19.06 71.8634 19.176 72.2394 19.408C72.6154 19.64 72.9034 19.968 73.1034 20.392C73.3114 20.816 73.4154 21.324 73.4154 21.916V22.288H68.8194V21.652H72.7674L72.5754 21.808C72.5754 21.168 72.4314 20.672 72.1434 20.32C71.8634 19.96 71.4514 19.78 70.9074 19.78C70.4994 19.78 70.1514 19.876 69.8634 20.068C69.5834 20.252 69.3714 20.512 69.2274 20.848C69.0834 21.176 69.0114 21.56 69.0114 22V22.072C69.0114 22.56 69.0874 22.972 69.2394 23.308C69.3994 23.644 69.6354 23.9 69.9474 24.076C70.2594 24.244 70.6314 24.328 71.0634 24.328C71.4074 24.328 71.7394 24.276 72.0594 24.172C72.3874 24.06 72.6954 23.88 72.9834 23.632L73.3194 24.316C73.0554 24.556 72.7194 24.748 72.3114 24.892C71.9034 25.036 71.4874 25.108 71.0634 25.108ZM75.1342 25V19.924H73.9822V19.168H75.3982L75.1342 19.42V18.964C75.1342 18.188 75.3262 17.6 75.7102 17.2C76.1022 16.8 76.7022 16.576 77.5102 16.528L77.9782 16.504L78.0622 17.248L77.5102 17.284C77.1822 17.308 76.9142 17.38 76.7062 17.5C76.4982 17.62 76.3462 17.792 76.2502 18.016C76.1542 18.24 76.1062 18.516 76.1062 18.844V19.348L75.9622 19.168H77.7862V19.924H76.1062V25H75.1342ZM78.8183 25V19.168H79.7663V20.548H79.6463C79.7823 20.076 80.0183 19.72 80.3543 19.48C80.6903 19.232 81.1343 19.088 81.6863 19.048L82.0343 19.012L82.1063 19.852L81.4943 19.924C80.9503 19.972 80.5303 20.148 80.2343 20.452C79.9463 20.748 79.8023 21.156 79.8023 21.676V25H78.8183ZM85.6767 25.108C85.0607 25.108 84.5287 24.988 84.0807 24.748C83.6407 24.5 83.2967 24.152 83.0487 23.704C82.8087 23.256 82.6887 22.72 82.6887 22.096C82.6887 21.488 82.8087 20.96 83.0487 20.512C83.2887 20.056 83.6167 19.7 84.0327 19.444C84.4567 19.188 84.9447 19.06 85.4967 19.06C86.0247 19.06 86.4767 19.176 86.8527 19.408C87.2287 19.64 87.5167 19.968 87.7167 20.392C87.9247 20.816 88.0287 21.324 88.0287 21.916V22.288H83.4327V21.652H87.3807L87.1887 21.808C87.1887 21.168 87.0447 20.672 86.7567 20.32C86.4767 19.96 86.0647 19.78 85.5207 19.78C85.1127 19.78 84.7647 19.876 84.4767 20.068C84.1967 20.252 83.9847 20.512 83.8407 20.848C83.6967 21.176 83.6247 21.56 83.6247 22V22.072C83.6247 22.56 83.7007 22.972 83.8527 23.308C84.0127 23.644 84.2487 23.9 84.5607 24.076C84.8727 24.244 85.2447 24.328 85.6767 24.328C86.0207 24.328 86.3527 24.276 86.6727 24.172C87.0007 24.06 87.3087 23.88 87.5967 23.632L87.9327 24.316C87.6687 24.556 87.3327 24.748 86.9247 24.892C86.5167 25.036 86.1007 25.108 85.6767 25.108ZM91.4034 25.108C91.0994 25.108 90.8034 25.076 90.5154 25.012C90.2354 24.956 89.9714 24.876 89.7234 24.772C89.4834 24.66 89.2754 24.528 89.0994 24.376L89.4114 23.692C89.6034 23.844 89.8114 23.972 90.0354 24.076C90.2594 24.172 90.4874 24.244 90.7194 24.292C90.9514 24.34 91.1874 24.364 91.4274 24.364C91.8834 24.364 92.2274 24.28 92.4594 24.112C92.6914 23.944 92.8074 23.716 92.8074 23.428C92.8074 23.204 92.7314 23.028 92.5794 22.9C92.4274 22.764 92.1874 22.66 91.8594 22.588L90.7674 22.348C90.2634 22.244 89.8874 22.064 89.6394 21.808C89.3994 21.552 89.2794 21.22 89.2794 20.812C89.2794 20.452 89.3714 20.144 89.5554 19.888C89.7474 19.624 90.0154 19.42 90.3594 19.276C90.7034 19.132 91.1034 19.06 91.5594 19.06C91.8314 19.06 92.0914 19.088 92.3394 19.144C92.5874 19.2 92.8194 19.284 93.0354 19.396C93.2594 19.5 93.4514 19.632 93.6114 19.792L93.2874 20.476C93.1354 20.332 92.9634 20.212 92.7714 20.116C92.5794 20.012 92.3794 19.936 92.1714 19.888C91.9714 19.832 91.7674 19.804 91.5594 19.804C91.1114 19.804 90.7714 19.892 90.5394 20.068C90.3074 20.244 90.1914 20.476 90.1914 20.764C90.1914 20.988 90.2634 21.172 90.4074 21.316C90.5514 21.46 90.7754 21.564 91.0794 21.628L92.1714 21.856C92.6914 21.968 93.0794 22.148 93.3354 22.396C93.5994 22.636 93.7314 22.964 93.7314 23.38C93.7314 23.732 93.6354 24.04 93.4434 24.304C93.2514 24.56 92.9794 24.76 92.6274 24.904C92.2834 25.04 91.8754 25.108 91.4034 25.108ZM95.2128 25V16.54H96.1848V20.464H96.0288C96.1968 20 96.4688 19.652 96.8448 19.42C97.2288 19.18 97.6688 19.06 98.1648 19.06C98.6288 19.06 99.0128 19.144 99.3168 19.312C99.6288 19.48 99.8608 19.736 100.013 20.08C100.165 20.416 100.241 20.844 100.241 21.364V25H99.2688V21.424C99.2688 21.064 99.2208 20.768 99.1248 20.536C99.0368 20.304 98.8928 20.132 98.6928 20.02C98.5008 19.908 98.2488 19.852 97.9368 19.852C97.5848 19.852 97.2768 19.928 97.0128 20.08C96.7488 20.232 96.5448 20.444 96.4008 20.716C96.2568 20.988 96.1848 21.308 96.1848 21.676V25H95.2128ZM101.913 17.716V16.624H103.113V17.716H101.913ZM102.033 25V19.168H103.005V25H102.033ZM104.822 25V19.168H105.77V20.464H105.638C105.806 20 106.078 19.652 106.454 19.42C106.838 19.18 107.278 19.06 107.774 19.06C108.238 19.06 108.622 19.144 108.926 19.312C109.238 19.472 109.47 19.724 109.622 20.068C109.774 20.412 109.85 20.844 109.85 21.364V25H108.878V21.424C108.878 21.064 108.83 20.768 108.734 20.536C108.646 20.304 108.502 20.132 108.302 20.02C108.11 19.908 107.858 19.852 107.546 19.852C107.194 19.852 106.886 19.928 106.622 20.08C106.358 20.232 106.154 20.444 106.01 20.716C105.866 20.988 105.794 21.308 105.794 21.676V25H104.822ZM114.222 27.268C113.718 27.268 113.242 27.2 112.794 27.064C112.354 26.936 111.962 26.74 111.618 26.476L111.942 25.768C112.182 25.936 112.418 26.072 112.65 26.176C112.89 26.288 113.134 26.368 113.382 26.416C113.638 26.464 113.902 26.488 114.174 26.488C114.742 26.488 115.17 26.336 115.458 26.032C115.754 25.728 115.902 25.288 115.902 24.712V23.356H116.022C115.902 23.82 115.646 24.188 115.254 24.46C114.87 24.732 114.418 24.868 113.898 24.868C113.362 24.868 112.898 24.748 112.506 24.508C112.114 24.26 111.81 23.916 111.594 23.476C111.386 23.036 111.282 22.528 111.282 21.952C111.282 21.376 111.386 20.872 111.594 20.44C111.81 20 112.114 19.66 112.506 19.42C112.898 19.18 113.362 19.06 113.898 19.06C114.426 19.06 114.882 19.196 115.266 19.468C115.65 19.732 115.898 20.092 116.01 20.548H115.902V19.168H116.85V24.58C116.85 25.172 116.75 25.668 116.55 26.068C116.358 26.468 116.066 26.768 115.674 26.968C115.282 27.168 114.798 27.268 114.222 27.268ZM114.078 24.076C114.638 24.076 115.082 23.884 115.41 23.5C115.738 23.116 115.902 22.6 115.902 21.952C115.902 21.304 115.738 20.792 115.41 20.416C115.082 20.032 114.638 19.84 114.078 19.84C113.526 19.84 113.086 20.032 112.758 20.416C112.43 20.792 112.266 21.304 112.266 21.952C112.266 22.6 112.43 23.116 112.758 23.5C113.086 23.884 113.526 24.076 114.078 24.076ZM121.888 25V16.54H125.272C126.136 16.54 126.808 16.732 127.288 17.116C127.768 17.5 128.008 18.044 128.008 18.748C128.008 19.276 127.852 19.716 127.54 20.068C127.236 20.42 126.82 20.652 126.292 20.764V20.596C126.692 20.644 127.036 20.76 127.324 20.944C127.612 21.12 127.832 21.356 127.984 21.652C128.136 21.94 128.212 22.28 128.212 22.672C128.212 23.176 128.1 23.604 127.876 23.956C127.66 24.3 127.344 24.56 126.928 24.736C126.512 24.912 126.008 25 125.416 25H121.888ZM122.848 24.208H125.32C125.576 24.208 125.804 24.188 126.004 24.148C126.212 24.108 126.392 24.048 126.544 23.968C126.696 23.88 126.824 23.776 126.928 23.656C127.032 23.536 127.108 23.392 127.156 23.224C127.212 23.056 127.24 22.868 127.24 22.66C127.24 22.444 127.212 22.256 127.156 22.096C127.108 21.928 127.032 21.784 126.928 21.664C126.824 21.536 126.696 21.432 126.544 21.352C126.392 21.272 126.212 21.212 126.004 21.172C125.804 21.132 125.576 21.112 125.32 21.112H122.848V24.208ZM122.848 20.32H125.128C125.752 20.32 126.224 20.192 126.544 19.936C126.872 19.68 127.036 19.312 127.036 18.832C127.036 18.336 126.872 17.964 126.544 17.716C126.224 17.46 125.752 17.332 125.128 17.332H122.848V20.32ZM132.493 25.108C131.877 25.108 131.345 24.988 130.897 24.748C130.457 24.5 130.113 24.152 129.865 23.704C129.625 23.256 129.505 22.72 129.505 22.096C129.505 21.488 129.625 20.96 129.865 20.512C130.105 20.056 130.433 19.7 130.849 19.444C131.273 19.188 131.761 19.06 132.313 19.06C132.841 19.06 133.293 19.176 133.669 19.408C134.045 19.64 134.333 19.968 134.533 20.392C134.741 20.816 134.845 21.324 134.845 21.916V22.288H130.249V21.652H134.197L134.005 21.808C134.005 21.168 133.861 20.672 133.573 20.32C133.293 19.96 132.881 19.78 132.337 19.78C131.929 19.78 131.581 19.876 131.293 20.068C131.013 20.252 130.801 20.512 130.657 20.848C130.513 21.176 130.441 21.56 130.441 22V22.072C130.441 22.56 130.517 22.972 130.669 23.308C130.829 23.644 131.065 23.9 131.377 24.076C131.689 24.244 132.061 24.328 132.493 24.328C132.837 24.328 133.169 24.276 133.489 24.172C133.817 24.06 134.125 23.88 134.413 23.632L134.749 24.316C134.485 24.556 134.149 24.748 133.741 24.892C133.333 25.036 132.917 25.108 132.493 25.108ZM137.898 25L135.39 19.168H136.446L138.534 24.28H138.21L140.334 19.168H141.33L138.81 25H137.898ZM144.903 25.108C144.287 25.108 143.755 24.988 143.307 24.748C142.867 24.5 142.523 24.152 142.275 23.704C142.035 23.256 141.915 22.72 141.915 22.096C141.915 21.488 142.035 20.96 142.275 20.512C142.515 20.056 142.843 19.7 143.259 19.444C143.683 19.188 144.171 19.06 144.723 19.06C145.251 19.06 145.703 19.176 146.079 19.408C146.455 19.64 146.743 19.968 146.943 20.392C147.151 20.816 147.255 21.324 147.255 21.916V22.288H142.659V21.652H146.607L146.415 21.808C146.415 21.168 146.271 20.672 145.983 20.32C145.703 19.96 145.291 19.78 144.747 19.78C144.339 19.78 143.991 19.876 143.703 20.068C143.423 20.252 143.211 20.512 143.067 20.848C142.923 21.176 142.851 21.56 142.851 22V22.072C142.851 22.56 142.927 22.972 143.079 23.308C143.239 23.644 143.475 23.9 143.787 24.076C144.099 24.244 144.471 24.328 144.903 24.328C145.247 24.328 145.579 24.276 145.899 24.172C146.227 24.06 146.535 23.88 146.823 23.632L147.159 24.316C146.895 24.556 146.559 24.748 146.151 24.892C145.743 25.036 145.327 25.108 144.903 25.108ZM148.662 25V19.168H149.61V20.548H149.49C149.626 20.076 149.862 19.72 150.198 19.48C150.534 19.232 150.978 19.088 151.53 19.048L151.878 19.012L151.95 19.852L151.338 19.924C150.794 19.972 150.374 20.148 150.078 20.452C149.79 20.748 149.646 21.156 149.646 21.676V25H148.662ZM154.74 25.108C154.34 25.108 153.98 25.032 153.66 24.88C153.348 24.72 153.1 24.504 152.916 24.232C152.732 23.96 152.64 23.656 152.64 23.32C152.64 22.888 152.748 22.548 152.964 22.3C153.188 22.052 153.552 21.876 154.056 21.772C154.568 21.668 155.264 21.616 156.144 21.616H156.684V22.252H156.156C155.668 22.252 155.26 22.268 154.932 22.3C154.604 22.332 154.344 22.388 154.152 22.468C153.96 22.548 153.824 22.652 153.744 22.78C153.664 22.908 153.624 23.068 153.624 23.26C153.624 23.588 153.736 23.856 153.96 24.064C154.192 24.272 154.504 24.376 154.896 24.376C155.216 24.376 155.496 24.3 155.736 24.148C155.984 23.996 156.176 23.788 156.312 23.524C156.456 23.26 156.528 22.956 156.528 22.612V21.244C156.528 20.748 156.428 20.392 156.228 20.176C156.028 19.952 155.7 19.84 155.244 19.84C154.892 19.84 154.552 19.892 154.224 19.996C153.896 20.092 153.56 20.252 153.216 20.476L152.88 19.768C153.088 19.624 153.324 19.5 153.588 19.396C153.852 19.284 154.128 19.2 154.416 19.144C154.704 19.088 154.98 19.06 155.244 19.06C155.748 19.06 156.164 19.144 156.492 19.312C156.82 19.472 157.064 19.72 157.224 20.056C157.384 20.384 157.464 20.808 157.464 21.328V25H156.552V23.644H156.66C156.596 23.948 156.472 24.208 156.288 24.424C156.112 24.64 155.892 24.808 155.628 24.928C155.364 25.048 155.068 25.108 154.74 25.108ZM161.847 27.268C161.343 27.268 160.867 27.2 160.419 27.064C159.979 26.936 159.587 26.74 159.243 26.476L159.567 25.768C159.807 25.936 160.043 26.072 160.275 26.176C160.515 26.288 160.759 26.368 161.007 26.416C161.263 26.464 161.527 26.488 161.799 26.488C162.367 26.488 162.795 26.336 163.083 26.032C163.379 25.728 163.527 25.288 163.527 24.712V23.356H163.647C163.527 23.82 163.271 24.188 162.879 24.46C162.495 24.732 162.043 24.868 161.523 24.868C160.987 24.868 160.523 24.748 160.131 24.508C159.739 24.26 159.435 23.916 159.219 23.476C159.011 23.036 158.907 22.528 158.907 21.952C158.907 21.376 159.011 20.872 159.219 20.44C159.435 20 159.739 19.66 160.131 19.42C160.523 19.18 160.987 19.06 161.523 19.06C162.051 19.06 162.507 19.196 162.891 19.468C163.275 19.732 163.523 20.092 163.635 20.548H163.527V19.168H164.475V24.58C164.475 25.172 164.375 25.668 164.175 26.068C163.983 26.468 163.691 26.768 163.299 26.968C162.907 27.168 162.423 27.268 161.847 27.268ZM161.703 24.076C162.263 24.076 162.707 23.884 163.035 23.5C163.363 23.116 163.527 22.6 163.527 21.952C163.527 21.304 163.363 20.792 163.035 20.416C162.707 20.032 162.263 19.84 161.703 19.84C161.151 19.84 160.711 20.032 160.383 20.416C160.055 20.792 159.891 21.304 159.891 21.952C159.891 22.6 160.055 23.116 160.383 23.5C160.711 23.884 161.151 24.076 161.703 24.076ZM168.927 25.108C168.311 25.108 167.779 24.988 167.331 24.748C166.891 24.5 166.547 24.152 166.299 23.704C166.059 23.256 165.939 22.72 165.939 22.096C165.939 21.488 166.059 20.96 166.299 20.512C166.539 20.056 166.867 19.7 167.283 19.444C167.707 19.188 168.195 19.06 168.747 19.06C169.275 19.06 169.727 19.176 170.103 19.408C170.479 19.64 170.767 19.968 170.967 20.392C171.175 20.816 171.279 21.324 171.279 21.916V22.288H166.683V21.652H170.631L170.439 21.808C170.439 21.168 170.295 20.672 170.007 20.32C169.727 19.96 169.315 19.78 168.771 19.78C168.363 19.78 168.015 19.876 167.727 20.068C167.447 20.252 167.235 20.512 167.091 20.848C166.947 21.176 166.875 21.56 166.875 22V22.072C166.875 22.56 166.951 22.972 167.103 23.308C167.263 23.644 167.499 23.9 167.811 24.076C168.123 24.244 168.495 24.328 168.927 24.328C169.271 24.328 169.603 24.276 169.923 24.172C170.251 24.06 170.559 23.88 170.847 23.632L171.183 24.316C170.919 24.556 170.583 24.748 170.175 24.892C169.767 25.036 169.351 25.108 168.927 25.108ZM174.653 25.108C174.349 25.108 174.053 25.076 173.765 25.012C173.485 24.956 173.221 24.876 172.973 24.772C172.733 24.66 172.525 24.528 172.349 24.376L172.661 23.692C172.853 23.844 173.061 23.972 173.285 24.076C173.509 24.172 173.737 24.244 173.969 24.292C174.201 24.34 174.437 24.364 174.677 24.364C175.133 24.364 175.477 24.28 175.709 24.112C175.941 23.944 176.057 23.716 176.057 23.428C176.057 23.204 175.981 23.028 175.829 22.9C175.677 22.764 175.437 22.66 175.109 22.588L174.017 22.348C173.513 22.244 173.137 22.064 172.889 21.808C172.649 21.552 172.529 21.22 172.529 20.812C172.529 20.452 172.621 20.144 172.805 19.888C172.997 19.624 173.265 19.42 173.609 19.276C173.953 19.132 174.353 19.06 174.809 19.06C175.081 19.06 175.341 19.088 175.589 19.144C175.837 19.2 176.069 19.284 176.285 19.396C176.509 19.5 176.701 19.632 176.861 19.792L176.537 20.476C176.385 20.332 176.213 20.212 176.021 20.116C175.829 20.012 175.629 19.936 175.421 19.888C175.221 19.832 175.017 19.804 174.809 19.804C174.361 19.804 174.021 19.892 173.789 20.068C173.557 20.244 173.441 20.476 173.441 20.764C173.441 20.988 173.513 21.172 173.657 21.316C173.801 21.46 174.025 21.564 174.329 21.628L175.421 21.856C175.941 21.968 176.329 22.148 176.585 22.396C176.849 22.636 176.981 22.964 176.981 23.38C176.981 23.732 176.885 24.04 176.693 24.304C176.501 24.56 176.229 24.76 175.877 24.904C175.533 25.04 175.125 25.108 174.653 25.108ZM178.248 25V23.776H179.472V25H178.248Z" fill="black"/>
</svg>
