<svg width="324" height="28" viewBox="0 0 324 28" fill="none" xmlns="http://www.w3.org/2000/svg">
<path d="M3.504 9.108C3.128 9.108 2.764 9.068 2.412 8.988C2.068 8.908 1.744 8.796 1.44 8.652C1.136 8.5 0.868 8.316 0.636 8.1L0.996 7.32C1.388 7.64 1.784 7.872 2.184 8.016C2.584 8.16 3.016 8.232 3.48 8.232C3.888 8.232 4.232 8.172 4.512 8.052C4.792 7.932 5.004 7.756 5.148 7.524C5.292 7.284 5.364 6.992 5.364 6.648C5.364 6.152 5.2 5.776 4.872 5.52C4.544 5.264 4.068 5.136 3.444 5.136H2.196V4.284H3.36C3.728 4.284 4.04 4.22 4.296 4.092C4.56 3.964 4.764 3.784 4.908 3.552C5.052 3.312 5.124 3.024 5.124 2.688C5.124 2.24 4.98 1.9 4.692 1.668C4.404 1.428 3.988 1.308 3.444 1.308C2.996 1.308 2.584 1.388 2.208 1.548C1.832 1.7 1.476 1.94 1.14 2.268L0.78 1.5C1.1 1.164 1.5 0.903999 1.98 0.719999C2.468 0.527999 2.976 0.431999 3.504 0.431999C4.048 0.431999 4.512 0.52 4.896 0.696C5.288 0.864 5.588 1.112 5.796 1.44C6.004 1.76 6.108 2.148 6.108 2.604C6.108 3.124 5.964 3.572 5.676 3.948C5.388 4.316 4.996 4.568 4.5 4.704V4.572C4.892 4.636 5.224 4.764 5.496 4.956C5.776 5.148 5.988 5.396 6.132 5.7C6.276 5.996 6.348 6.336 6.348 6.72C6.348 7.208 6.232 7.632 6 7.992C5.776 8.344 5.452 8.62 5.028 8.82C4.604 9.012 4.096 9.108 3.504 9.108ZM10.9753 9.108C10.6153 9.108 10.2633 9.068 9.91931 8.988C9.57531 8.908 9.25131 8.792 8.94731 8.64C8.65131 8.488 8.38731 8.308 8.15531 8.1L8.52731 7.32C8.91131 7.632 9.29931 7.864 9.69131 8.016C10.0913 8.16 10.5153 8.232 10.9633 8.232C11.5553 8.232 12.0153 8.068 12.3433 7.74C12.6793 7.412 12.8473 6.98 12.8473 6.444C12.8473 5.892 12.6873 5.44 12.3673 5.088C12.0473 4.736 11.6073 4.56 11.0473 4.56C10.6393 4.56 10.2793 4.644 9.96731 4.812C9.66331 4.972 9.38731 5.224 9.13931 5.568H8.41931V0.539999H13.3273V1.38H9.39131V4.752H9.12731C9.33531 4.416 9.62331 4.16 9.99131 3.984C10.3593 3.8 10.7713 3.708 11.2273 3.708C11.7633 3.708 12.2233 3.82 12.6073 4.044C12.9993 4.268 13.2993 4.584 13.5073 4.992C13.7233 5.392 13.8313 5.86 13.8313 6.396C13.8313 6.924 13.7153 7.392 13.4833 7.8C13.2513 8.208 12.9233 8.528 12.4993 8.76C12.0753 8.992 11.5673 9.108 10.9753 9.108ZM17.9906 9.108C17.3506 9.108 16.8066 8.944 16.3586 8.616C15.9186 8.28 15.5866 7.788 15.3626 7.14C15.1386 6.492 15.0266 5.7 15.0266 4.764C15.0266 3.82 15.1386 3.028 15.3626 2.388C15.5866 1.74 15.9186 1.252 16.3586 0.924C16.8066 0.595999 17.3506 0.431999 17.9906 0.431999C18.6386 0.431999 19.1826 0.595999 19.6226 0.924C20.0626 1.252 20.3946 1.736 20.6186 2.376C20.8426 3.016 20.9546 3.808 20.9546 4.752C20.9546 5.696 20.8426 6.492 20.6186 7.14C20.3946 7.788 20.0626 8.28 19.6226 8.616C19.1826 8.944 18.6386 9.108 17.9906 9.108ZM17.9906 8.256C18.6626 8.256 19.1586 7.972 19.4786 7.404C19.8066 6.836 19.9706 5.952 19.9706 4.752C19.9706 3.552 19.8106 2.676 19.4906 2.124C19.1706 1.564 18.6706 1.284 17.9906 1.284C17.3266 1.284 16.8306 1.564 16.5026 2.124C16.1746 2.684 16.0106 3.56 16.0106 4.752C16.0106 5.952 16.1706 6.836 16.4906 7.404C16.8186 7.972 17.3186 8.256 17.9906 8.256ZM22.5219 9V3.168H23.4699V4.464H23.3379C23.4339 4.168 23.5739 3.916 23.7579 3.708C23.9499 3.492 24.1739 3.332 24.4299 3.228C24.6939 3.116 24.9819 3.06 25.2939 3.06C25.7899 3.06 26.1899 3.18 26.4939 3.42C26.8059 3.652 27.0139 4.016 27.1179 4.512H26.9379C27.0819 4.064 27.3379 3.712 27.7059 3.456C28.0819 3.192 28.5179 3.06 29.0139 3.06C29.4539 3.06 29.8139 3.144 30.0939 3.312C30.3819 3.48 30.5979 3.736 30.7419 4.08C30.8859 4.416 30.9579 4.844 30.9579 5.364V9H29.9859V5.412C29.9859 4.876 29.8939 4.484 29.7099 4.236C29.5259 3.98 29.2139 3.852 28.7739 3.852C28.4619 3.852 28.1859 3.928 27.9459 4.08C27.7139 4.232 27.5339 4.448 27.4059 4.728C27.2859 5 27.2259 5.324 27.2259 5.7V9H26.2539V5.412C26.2539 4.876 26.1579 4.484 25.9659 4.236C25.7819 3.98 25.4739 3.852 25.0419 3.852C24.7219 3.852 24.4459 3.928 24.2139 4.08C23.9819 4.232 23.8019 4.448 23.6739 4.728C23.5539 5 23.4939 5.324 23.4939 5.7V9H22.5219ZM34.5633 9.108C33.9713 9.108 33.5233 8.932 33.2193 8.58C32.9233 8.228 32.7753 7.724 32.7753 7.068V0.539999H33.7473V6.996C33.7473 7.276 33.7833 7.512 33.8553 7.704C33.9353 7.896 34.0513 8.04 34.2033 8.136C34.3553 8.232 34.5433 8.28 34.7673 8.28C34.8633 8.28 34.9553 8.276 35.0433 8.268C35.1393 8.252 35.2273 8.232 35.3073 8.208L35.2833 9.024C35.1553 9.048 35.0313 9.068 34.9113 9.084C34.7993 9.1 34.6833 9.108 34.5633 9.108ZM42.2761 9.108C41.8361 9.108 41.4201 9.068 41.0281 8.988C40.6441 8.908 40.2881 8.796 39.9601 8.652C39.6401 8.5 39.3481 8.316 39.0841 8.1L39.4321 7.308C39.7041 7.508 39.9801 7.68 40.2601 7.824C40.5481 7.96 40.8561 8.064 41.1841 8.136C41.5201 8.2 41.8841 8.232 42.2761 8.232C42.9961 8.232 43.5281 8.1 43.8721 7.836C44.2241 7.564 44.4001 7.208 44.4001 6.768C44.4001 6.536 44.3441 6.336 44.2321 6.168C44.1281 6 43.9521 5.856 43.7041 5.736C43.4641 5.616 43.1481 5.516 42.7561 5.436L41.5081 5.184C40.7561 5.024 40.1921 4.764 39.8161 4.404C39.4481 4.036 39.2641 3.548 39.2641 2.94C39.2641 2.436 39.3921 1.996 39.6481 1.62C39.9121 1.244 40.2761 0.951999 40.7401 0.744C41.2121 0.536 41.7481 0.431999 42.3481 0.431999C42.7321 0.431999 43.0961 0.471999 43.4401 0.551999C43.7841 0.632 44.1001 0.752 44.3881 0.912C44.6841 1.064 44.9441 1.252 45.1681 1.476L44.8201 2.244C44.4601 1.916 44.0801 1.68 43.6801 1.536C43.2801 1.384 42.8321 1.308 42.3361 1.308C41.9121 1.308 41.5441 1.372 41.2321 1.5C40.9281 1.628 40.6881 1.816 40.5121 2.064C40.3441 2.304 40.2601 2.584 40.2601 2.904C40.2601 3.288 40.3761 3.592 40.6081 3.816C40.8481 4.04 41.2361 4.204 41.7721 4.308L43.0201 4.572C43.8281 4.74 44.4241 4.996 44.8081 5.34C45.2001 5.676 45.3961 6.136 45.3961 6.72C45.3961 7.184 45.2681 7.6 45.0121 7.968C44.7641 8.328 44.4041 8.608 43.9321 8.808C43.4681 9.008 42.9161 9.108 42.2761 9.108ZM46.6709 1.716V0.624H47.8709V1.716H46.6709ZM46.7909 9V3.168H47.7629V9H46.7909ZM49.58 11.16V3.168H50.528V4.548H50.408C50.536 4.092 50.788 3.732 51.164 3.468C51.548 3.196 52.004 3.06 52.532 3.06C53.052 3.06 53.504 3.184 53.888 3.432C54.28 3.672 54.58 4.02 54.788 4.476C55.004 4.924 55.112 5.46 55.112 6.084C55.112 6.7 55.004 7.236 54.788 7.692C54.58 8.14 54.284 8.488 53.9 8.736C53.516 8.984 53.06 9.108 52.532 9.108C52.004 9.108 51.552 8.976 51.176 8.712C50.8 8.44 50.544 8.08 50.408 7.632H50.552V11.16H49.58ZM52.328 8.328C52.88 8.328 53.316 8.136 53.636 7.752C53.964 7.36 54.128 6.804 54.128 6.084C54.128 5.356 53.964 4.8 53.636 4.416C53.316 4.032 52.88 3.84 52.328 3.84C51.784 3.84 51.348 4.032 51.02 4.416C50.692 4.8 50.528 5.356 50.528 6.084C50.528 6.804 50.692 7.36 51.02 7.752C51.348 8.136 51.784 8.328 52.328 8.328ZM56.5761 11.16V3.168H57.5241V4.548H57.4041C57.5321 4.092 57.7841 3.732 58.1601 3.468C58.5441 3.196 59.0001 3.06 59.5281 3.06C60.0481 3.06 60.5001 3.184 60.8841 3.432C61.2761 3.672 61.5761 4.02 61.7841 4.476C62.0001 4.924 62.1081 5.46 62.1081 6.084C62.1081 6.7 62.0001 7.236 61.7841 7.692C61.5761 8.14 61.2801 8.488 60.8961 8.736C60.5121 8.984 60.0561 9.108 59.5281 9.108C59.0001 9.108 58.5481 8.976 58.1721 8.712C57.7961 8.44 57.5401 8.08 57.4041 7.632H57.5481V11.16H56.5761ZM59.3241 8.328C59.8761 8.328 60.3121 8.136 60.6321 7.752C60.9601 7.36 61.1241 6.804 61.1241 6.084C61.1241 5.356 60.9601 4.8 60.6321 4.416C60.3121 4.032 59.8761 3.84 59.3241 3.84C58.7801 3.84 58.3441 4.032 58.0161 4.416C57.6881 4.8 57.5241 5.356 57.5241 6.084C57.5241 6.804 57.6881 7.36 58.0161 7.752C58.3441 8.136 58.7801 8.328 59.3241 8.328ZM66.2002 9.108C65.5842 9.108 65.0522 8.988 64.6042 8.748C64.1642 8.5 63.8202 8.152 63.5722 7.704C63.3322 7.256 63.2122 6.72 63.2122 6.096C63.2122 5.488 63.3322 4.96 63.5722 4.512C63.8122 4.056 64.1402 3.7 64.5562 3.444C64.9802 3.188 65.4682 3.06 66.0202 3.06C66.5482 3.06 67.0002 3.176 67.3762 3.408C67.7522 3.64 68.0402 3.968 68.2402 4.392C68.4482 4.816 68.5522 5.324 68.5522 5.916V6.288H63.9562V5.652H67.9042L67.7122 5.808C67.7122 5.168 67.5682 4.672 67.2802 4.32C67.0002 3.96 66.5882 3.78 66.0442 3.78C65.6362 3.78 65.2882 3.876 65.0002 4.068C64.7202 4.252 64.5082 4.512 64.3642 4.848C64.2202 5.176 64.1482 5.56 64.1482 6V6.072C64.1482 6.56 64.2242 6.972 64.3762 7.308C64.5362 7.644 64.7722 7.9 65.0842 8.076C65.3962 8.244 65.7682 8.328 66.2002 8.328C66.5442 8.328 66.8762 8.276 67.1962 8.172C67.5242 8.06 67.8322 7.88 68.1202 7.632L68.4562 8.316C68.1922 8.556 67.8562 8.748 67.4482 8.892C67.0402 9.036 66.6242 9.108 66.2002 9.108ZM69.9589 9V3.168H70.9069V4.548H70.7869C70.9229 4.076 71.1589 3.72 71.4949 3.48C71.8309 3.232 72.2749 3.088 72.8269 3.048L73.1749 3.012L73.2469 3.852L72.6349 3.924C72.0909 3.972 71.6709 4.148 71.3749 4.452C71.0869 4.748 70.9429 5.156 70.9429 5.676V9H69.9589ZM81.3377 9.108C80.4337 9.108 79.6697 8.936 79.0457 8.592C78.4297 8.248 77.9617 7.752 77.6417 7.104C77.3217 6.456 77.1617 5.68 77.1617 4.776C77.1617 3.88 77.3217 3.108 77.6417 2.46C77.9617 1.812 78.4217 1.312 79.0217 0.96C79.6217 0.608 80.3457 0.431999 81.1937 0.431999C81.5937 0.431999 81.9697 0.471999 82.3217 0.551999C82.6817 0.632 83.0137 0.752 83.3177 0.912C83.6297 1.064 83.9017 1.256 84.1337 1.488L83.7497 2.28C83.3657 1.944 82.9697 1.7 82.5617 1.548C82.1537 1.396 81.6937 1.32 81.1817 1.32C80.2137 1.32 79.4737 1.62 78.9617 2.22C78.4577 2.82 78.2057 3.672 78.2057 4.776C78.2057 5.896 78.4657 6.752 78.9857 7.344C79.5137 7.936 80.3057 8.232 81.3617 8.232C81.7457 8.232 82.1217 8.196 82.4897 8.124C82.8577 8.044 83.2057 7.936 83.5337 7.8L83.3177 8.364V5.376H81.1697V4.596H84.1697V8.508C83.9537 8.62 83.6857 8.724 83.3657 8.82C83.0457 8.908 82.7097 8.976 82.3577 9.024C82.0057 9.08 81.6657 9.108 81.3377 9.108ZM87.8367 9.108C87.2447 9.108 86.7967 8.932 86.4927 8.58C86.1967 8.228 86.0487 7.724 86.0487 7.068V0.539999H87.0207V6.996C87.0207 7.276 87.0567 7.512 87.1287 7.704C87.2087 7.896 87.3247 8.04 87.4767 8.136C87.6287 8.232 87.8167 8.28 88.0407 8.28C88.1367 8.28 88.2287 8.276 88.3167 8.268C88.4127 8.252 88.5007 8.232 88.5807 8.208L88.5567 9.024C88.4287 9.048 88.3047 9.068 88.1847 9.084C88.0727 9.1 87.9567 9.108 87.8367 9.108ZM91.4355 9.108C91.0355 9.108 90.6755 9.032 90.3555 8.88C90.0435 8.72 89.7955 8.504 89.6115 8.232C89.4275 7.96 89.3355 7.656 89.3355 7.32C89.3355 6.888 89.4435 6.548 89.6595 6.3C89.8835 6.052 90.2475 5.876 90.7515 5.772C91.2635 5.668 91.9595 5.616 92.8395 5.616H93.3795V6.252H92.8515C92.3635 6.252 91.9555 6.268 91.6275 6.3C91.2995 6.332 91.0395 6.388 90.8475 6.468C90.6555 6.548 90.5195 6.652 90.4395 6.78C90.3595 6.908 90.3195 7.068 90.3195 7.26C90.3195 7.588 90.4315 7.856 90.6555 8.064C90.8875 8.272 91.1995 8.376 91.5915 8.376C91.9115 8.376 92.1915 8.3 92.4315 8.148C92.6795 7.996 92.8715 7.788 93.0075 7.524C93.1515 7.26 93.2235 6.956 93.2235 6.612V5.244C93.2235 4.748 93.1235 4.392 92.9235 4.176C92.7235 3.952 92.3955 3.84 91.9395 3.84C91.5875 3.84 91.2475 3.892 90.9195 3.996C90.5915 4.092 90.2555 4.252 89.9115 4.476L89.5755 3.768C89.7835 3.624 90.0195 3.5 90.2835 3.396C90.5475 3.284 90.8235 3.2 91.1115 3.144C91.3995 3.088 91.6755 3.06 91.9395 3.06C92.4435 3.06 92.8595 3.144 93.1875 3.312C93.5155 3.472 93.7595 3.72 93.9195 4.056C94.0795 4.384 94.1595 4.808 94.1595 5.328V9H93.2475V7.644H93.3555C93.2915 7.948 93.1675 8.208 92.9835 8.424C92.8075 8.64 92.5875 8.808 92.3235 8.928C92.0595 9.048 91.7635 9.108 91.4355 9.108ZM97.9308 9.108C97.6268 9.108 97.3308 9.076 97.0428 9.012C96.7628 8.956 96.4988 8.876 96.2508 8.772C96.0108 8.66 95.8028 8.528 95.6268 8.376L95.9388 7.692C96.1308 7.844 96.3388 7.972 96.5628 8.076C96.7868 8.172 97.0148 8.244 97.2468 8.292C97.4788 8.34 97.7148 8.364 97.9548 8.364C98.4108 8.364 98.7548 8.28 98.9868 8.112C99.2188 7.944 99.3348 7.716 99.3348 7.428C99.3348 7.204 99.2588 7.028 99.1068 6.9C98.9548 6.764 98.7148 6.66 98.3868 6.588L97.2948 6.348C96.7908 6.244 96.4148 6.064 96.1668 5.808C95.9268 5.552 95.8068 5.22 95.8068 4.812C95.8068 4.452 95.8988 4.144 96.0828 3.888C96.2748 3.624 96.5428 3.42 96.8868 3.276C97.2308 3.132 97.6308 3.06 98.0868 3.06C98.3588 3.06 98.6188 3.088 98.8668 3.144C99.1148 3.2 99.3468 3.284 99.5628 3.396C99.7868 3.5 99.9788 3.632 100.139 3.792L99.8148 4.476C99.6628 4.332 99.4908 4.212 99.2988 4.116C99.1068 4.012 98.9068 3.936 98.6988 3.888C98.4988 3.832 98.2948 3.804 98.0868 3.804C97.6388 3.804 97.2988 3.892 97.0668 4.068C96.8348 4.244 96.7188 4.476 96.7188 4.764C96.7188 4.988 96.7908 5.172 96.9348 5.316C97.0788 5.46 97.3028 5.564 97.6068 5.628L98.6988 5.856C99.2188 5.968 99.6068 6.148 99.8628 6.396C100.127 6.636 100.259 6.964 100.259 7.38C100.259 7.732 100.163 8.04 99.9708 8.304C99.7788 8.56 99.5068 8.76 99.1548 8.904C98.8108 9.04 98.4028 9.108 97.9308 9.108ZM103.708 9.108C103.404 9.108 103.108 9.076 102.82 9.012C102.54 8.956 102.276 8.876 102.028 8.772C101.788 8.66 101.58 8.528 101.404 8.376L101.716 7.692C101.908 7.844 102.116 7.972 102.34 8.076C102.564 8.172 102.792 8.244 103.024 8.292C103.256 8.34 103.492 8.364 103.732 8.364C104.188 8.364 104.532 8.28 104.764 8.112C104.996 7.944 105.112 7.716 105.112 7.428C105.112 7.204 105.036 7.028 104.884 6.9C104.732 6.764 104.492 6.66 104.164 6.588L103.072 6.348C102.568 6.244 102.192 6.064 101.944 5.808C101.704 5.552 101.584 5.22 101.584 4.812C101.584 4.452 101.676 4.144 101.86 3.888C102.052 3.624 102.32 3.42 102.664 3.276C103.008 3.132 103.408 3.06 103.864 3.06C104.136 3.06 104.396 3.088 104.644 3.144C104.892 3.2 105.124 3.284 105.34 3.396C105.564 3.5 105.756 3.632 105.916 3.792L105.592 4.476C105.44 4.332 105.268 4.212 105.076 4.116C104.884 4.012 104.684 3.936 104.476 3.888C104.276 3.832 104.072 3.804 103.864 3.804C103.416 3.804 103.076 3.892 102.844 4.068C102.612 4.244 102.496 4.476 102.496 4.764C102.496 4.988 102.568 5.172 102.712 5.316C102.856 5.46 103.08 5.564 103.384 5.628L104.476 5.856C104.996 5.968 105.384 6.148 105.64 6.396C105.904 6.636 106.036 6.964 106.036 7.38C106.036 7.732 105.94 8.04 105.748 8.304C105.556 8.56 105.284 8.76 104.932 8.904C104.588 9.04 104.18 9.108 103.708 9.108ZM107.807 10.368L107.351 10.02C107.495 9.868 107.603 9.724 107.675 9.588C107.755 9.46 107.807 9.328 107.831 9.192C107.863 9.064 107.879 8.932 107.879 8.796L108.095 9H107.303V7.776H108.527V8.64C108.527 8.856 108.503 9.06 108.455 9.252C108.415 9.452 108.343 9.644 108.239 9.828C108.135 10.012 107.991 10.192 107.807 10.368ZM113.403 9V0.539999H116.751C117.359 0.539999 117.871 0.64 118.287 0.84C118.711 1.032 119.031 1.32 119.247 1.704C119.463 2.08 119.571 2.54 119.571 3.084C119.571 3.612 119.463 4.068 119.247 4.452C119.031 4.836 118.711 5.128 118.287 5.328C117.871 5.528 117.359 5.628 116.751 5.628H114.387V9H113.403ZM114.387 4.8H116.631C117.279 4.8 117.767 4.656 118.095 4.368C118.431 4.072 118.599 3.644 118.599 3.084C118.599 2.516 118.431 2.088 118.095 1.8C117.767 1.504 117.279 1.356 116.631 1.356H114.387V4.8ZM123.235 9.108C122.619 9.108 122.087 8.988 121.639 8.748C121.199 8.5 120.855 8.152 120.607 7.704C120.367 7.256 120.247 6.72 120.247 6.096C120.247 5.488 120.367 4.96 120.607 4.512C120.847 4.056 121.175 3.7 121.591 3.444C122.015 3.188 122.503 3.06 123.055 3.06C123.583 3.06 124.035 3.176 124.411 3.408C124.787 3.64 125.075 3.968 125.275 4.392C125.483 4.816 125.587 5.324 125.587 5.916V6.288H120.991V5.652H124.939L124.747 5.808C124.747 5.168 124.603 4.672 124.315 4.32C124.035 3.96 123.623 3.78 123.079 3.78C122.671 3.78 122.323 3.876 122.035 4.068C121.755 4.252 121.543 4.512 121.399 4.848C121.255 5.176 121.183 5.56 121.183 6V6.072C121.183 6.56 121.259 6.972 121.411 7.308C121.571 7.644 121.807 7.9 122.119 8.076C122.431 8.244 122.803 8.328 123.235 8.328C123.579 8.328 123.911 8.276 124.231 8.172C124.559 8.06 124.867 7.88 125.155 7.632L125.491 8.316C125.227 8.556 124.891 8.748 124.483 8.892C124.075 9.036 123.659 9.108 123.235 9.108ZM126.994 9V3.168H127.942V4.548H127.822C127.958 4.076 128.194 3.72 128.53 3.48C128.866 3.232 129.31 3.088 129.862 3.048L130.21 3.012L130.282 3.852L129.67 3.924C129.126 3.972 128.706 4.148 128.41 4.452C128.122 4.748 127.978 5.156 127.978 5.676V9H126.994ZM131.923 9V3.924H130.771V3.168H132.187L131.923 3.42V2.964C131.923 2.188 132.115 1.6 132.499 1.2C132.891 0.799999 133.491 0.575999 134.299 0.528L134.767 0.504L134.851 1.248L134.299 1.284C133.971 1.308 133.703 1.38 133.495 1.5C133.287 1.62 133.135 1.792 133.039 2.016C132.943 2.24 132.895 2.516 132.895 2.844V3.348L132.751 3.168H134.575V3.924H132.895V9H131.923ZM138.071 9.108C137.455 9.108 136.923 8.988 136.475 8.748C136.035 8.5 135.691 8.152 135.443 7.704C135.203 7.256 135.083 6.72 135.083 6.096C135.083 5.488 135.203 4.96 135.443 4.512C135.683 4.056 136.011 3.7 136.427 3.444C136.851 3.188 137.339 3.06 137.891 3.06C138.419 3.06 138.871 3.176 139.247 3.408C139.623 3.64 139.911 3.968 140.111 4.392C140.319 4.816 140.423 5.324 140.423 5.916V6.288H135.827V5.652H139.775L139.583 5.808C139.583 5.168 139.439 4.672 139.151 4.32C138.871 3.96 138.459 3.78 137.915 3.78C137.507 3.78 137.159 3.876 136.871 4.068C136.591 4.252 136.379 4.512 136.235 4.848C136.091 5.176 136.019 5.56 136.019 6V6.072C136.019 6.56 136.095 6.972 136.247 7.308C136.407 7.644 136.643 7.9 136.955 8.076C137.267 8.244 137.639 8.328 138.071 8.328C138.415 8.328 138.747 8.276 139.067 8.172C139.395 8.06 139.703 7.88 139.991 7.632L140.327 8.316C140.063 8.556 139.727 8.748 139.319 8.892C138.911 9.036 138.495 9.108 138.071 9.108ZM144.302 9.108C143.718 9.108 143.214 8.98 142.79 8.724C142.366 8.468 142.038 8.112 141.806 7.656C141.582 7.192 141.47 6.656 141.47 6.048C141.47 5.432 141.582 4.9 141.806 4.452C142.038 4.004 142.366 3.66 142.79 3.42C143.214 3.18 143.718 3.06 144.302 3.06C144.662 3.06 145.018 3.124 145.37 3.252C145.722 3.38 146.014 3.56 146.246 3.792L145.91 4.5C145.678 4.276 145.422 4.112 145.142 4.008C144.87 3.904 144.61 3.852 144.362 3.852C143.754 3.852 143.286 4.044 142.958 4.428C142.63 4.804 142.466 5.348 142.466 6.06C142.466 6.756 142.63 7.308 142.958 7.716C143.286 8.116 143.754 8.316 144.362 8.316C144.61 8.316 144.87 8.264 145.142 8.16C145.422 8.056 145.678 7.888 145.91 7.656L146.246 8.364C146.014 8.596 145.718 8.78 145.358 8.916C145.006 9.044 144.654 9.108 144.302 9.108ZM149.725 9.108C149.037 9.108 148.521 8.924 148.177 8.556C147.833 8.188 147.661 7.664 147.661 6.984V3.924H146.521V3.168H147.661V1.38H148.633V3.168H150.481V3.924H148.633V6.888C148.633 7.344 148.729 7.692 148.921 7.932C149.113 8.164 149.425 8.28 149.857 8.28C149.985 8.28 150.113 8.264 150.241 8.232C150.369 8.2 150.485 8.168 150.589 8.136L150.757 8.88C150.653 8.936 150.501 8.988 150.301 9.036C150.101 9.084 149.909 9.108 149.725 9.108ZM154.794 9V0.539999H160.026V1.368H155.778V4.32H159.786V5.148H155.778V9H154.794ZM163.438 9.108C162.87 9.108 162.378 8.984 161.962 8.736C161.546 8.488 161.222 8.14 160.99 7.692C160.766 7.236 160.654 6.7 160.654 6.084C160.654 5.468 160.766 4.936 160.99 4.488C161.222 4.032 161.546 3.68 161.962 3.432C162.378 3.184 162.87 3.06 163.438 3.06C164.006 3.06 164.498 3.184 164.914 3.432C165.33 3.68 165.65 4.032 165.874 4.488C166.106 4.936 166.222 5.468 166.222 6.084C166.222 6.7 166.106 7.236 165.874 7.692C165.65 8.14 165.33 8.488 164.914 8.736C164.498 8.984 164.006 9.108 163.438 9.108ZM163.438 8.328C163.99 8.328 164.426 8.136 164.746 7.752C165.074 7.36 165.238 6.8 165.238 6.072C165.238 5.352 165.074 4.8 164.746 4.416C164.426 4.032 163.99 3.84 163.438 3.84C162.894 3.84 162.458 4.032 162.13 4.416C161.802 4.8 161.638 5.352 161.638 6.072C161.638 6.8 161.802 7.36 162.13 7.752C162.458 8.136 162.894 8.328 163.438 8.328ZM167.682 9V3.168H168.63V4.548H168.51C168.646 4.076 168.882 3.72 169.218 3.48C169.554 3.232 169.998 3.088 170.55 3.048L170.898 3.012L170.97 3.852L170.358 3.924C169.814 3.972 169.394 4.148 169.098 4.452C168.81 4.748 168.666 5.156 168.666 5.676V9H167.682ZM177.932 9.108C177.492 9.108 177.076 9.068 176.684 8.988C176.3 8.908 175.944 8.796 175.616 8.652C175.296 8.5 175.004 8.316 174.74 8.1L175.088 7.308C175.36 7.508 175.636 7.68 175.916 7.824C176.204 7.96 176.512 8.064 176.84 8.136C177.176 8.2 177.54 8.232 177.932 8.232C178.652 8.232 179.184 8.1 179.528 7.836C179.88 7.564 180.056 7.208 180.056 6.768C180.056 6.536 180 6.336 179.888 6.168C179.784 6 179.608 5.856 179.36 5.736C179.12 5.616 178.804 5.516 178.412 5.436L177.164 5.184C176.412 5.024 175.848 4.764 175.472 4.404C175.104 4.036 174.92 3.548 174.92 2.94C174.92 2.436 175.048 1.996 175.304 1.62C175.568 1.244 175.932 0.951999 176.396 0.744C176.868 0.536 177.404 0.431999 178.004 0.431999C178.388 0.431999 178.752 0.471999 179.096 0.551999C179.44 0.632 179.756 0.752 180.044 0.912C180.34 1.064 180.6 1.252 180.824 1.476L180.476 2.244C180.116 1.916 179.736 1.68 179.336 1.536C178.936 1.384 178.488 1.308 177.992 1.308C177.568 1.308 177.2 1.372 176.888 1.5C176.584 1.628 176.344 1.816 176.168 2.064C176 2.304 175.916 2.584 175.916 2.904C175.916 3.288 176.032 3.592 176.264 3.816C176.504 4.04 176.892 4.204 177.428 4.308L178.676 4.572C179.484 4.74 180.08 4.996 180.464 5.34C180.856 5.676 181.052 6.136 181.052 6.72C181.052 7.184 180.924 7.6 180.668 7.968C180.42 8.328 180.06 8.608 179.588 8.808C179.124 9.008 178.572 9.108 177.932 9.108ZM182.471 9V3.168H183.419V4.464H183.287C183.383 4.168 183.523 3.916 183.707 3.708C183.899 3.492 184.123 3.332 184.379 3.228C184.643 3.116 184.931 3.06 185.243 3.06C185.739 3.06 186.139 3.18 186.443 3.42C186.755 3.652 186.963 4.016 187.067 4.512H186.887C187.031 4.064 187.287 3.712 187.655 3.456C188.031 3.192 188.467 3.06 188.963 3.06C189.403 3.06 189.763 3.144 190.043 3.312C190.331 3.48 190.547 3.736 190.691 4.08C190.835 4.416 190.907 4.844 190.907 5.364V9H189.935V5.412C189.935 4.876 189.843 4.484 189.659 4.236C189.475 3.98 189.163 3.852 188.723 3.852C188.411 3.852 188.135 3.928 187.895 4.08C187.663 4.232 187.483 4.448 187.355 4.728C187.235 5 187.175 5.324 187.175 5.7V9H186.203V5.412C186.203 4.876 186.107 4.484 185.915 4.236C185.731 3.98 185.423 3.852 184.991 3.852C184.671 3.852 184.395 3.928 184.163 4.08C183.931 4.232 183.751 4.448 183.623 4.728C183.503 5 183.443 5.324 183.443 5.7V9H182.471ZM195.149 9.108C194.581 9.108 194.089 8.984 193.673 8.736C193.257 8.488 192.933 8.14 192.701 7.692C192.477 7.236 192.365 6.7 192.365 6.084C192.365 5.468 192.477 4.936 192.701 4.488C192.933 4.032 193.257 3.68 193.673 3.432C194.089 3.184 194.581 3.06 195.149 3.06C195.717 3.06 196.209 3.184 196.625 3.432C197.041 3.68 197.361 4.032 197.585 4.488C197.817 4.936 197.933 5.468 197.933 6.084C197.933 6.7 197.817 7.236 197.585 7.692C197.361 8.14 197.041 8.488 196.625 8.736C196.209 8.984 195.717 9.108 195.149 9.108ZM195.149 8.328C195.701 8.328 196.137 8.136 196.457 7.752C196.785 7.36 196.949 6.8 196.949 6.072C196.949 5.352 196.785 4.8 196.457 4.416C196.137 4.032 195.701 3.84 195.149 3.84C194.605 3.84 194.169 4.032 193.841 4.416C193.513 4.8 193.349 5.352 193.349 6.072C193.349 6.8 193.513 7.36 193.841 7.752C194.169 8.136 194.605 8.328 195.149 8.328ZM201.816 9.108C201.248 9.108 200.756 8.984 200.34 8.736C199.924 8.488 199.6 8.14 199.368 7.692C199.144 7.236 199.032 6.7 199.032 6.084C199.032 5.468 199.144 4.936 199.368 4.488C199.6 4.032 199.924 3.68 200.34 3.432C200.756 3.184 201.248 3.06 201.816 3.06C202.384 3.06 202.876 3.184 203.292 3.432C203.708 3.68 204.028 4.032 204.252 4.488C204.484 4.936 204.6 5.468 204.6 6.084C204.6 6.7 204.484 7.236 204.252 7.692C204.028 8.14 203.708 8.488 203.292 8.736C202.876 8.984 202.384 9.108 201.816 9.108ZM201.816 8.328C202.368 8.328 202.804 8.136 203.124 7.752C203.452 7.36 203.616 6.8 203.616 6.072C203.616 5.352 203.452 4.8 203.124 4.416C202.804 4.032 202.368 3.84 201.816 3.84C201.272 3.84 200.836 4.032 200.508 4.416C200.18 4.8 200.016 5.352 200.016 6.072C200.016 6.8 200.18 7.36 200.508 7.752C200.836 8.136 201.272 8.328 201.816 8.328ZM208.342 9.108C207.654 9.108 207.138 8.924 206.794 8.556C206.45 8.188 206.278 7.664 206.278 6.984V3.924H205.138V3.168H206.278V1.38H207.25V3.168H209.098V3.924H207.25V6.888C207.25 7.344 207.346 7.692 207.538 7.932C207.73 8.164 208.042 8.28 208.474 8.28C208.602 8.28 208.73 8.264 208.858 8.232C208.986 8.2 209.102 8.168 209.206 8.136L209.374 8.88C209.27 8.936 209.118 8.988 208.918 9.036C208.718 9.084 208.526 9.108 208.342 9.108ZM210.197 9V0.539999H211.169V4.464H211.013C211.181 4 211.453 3.652 211.829 3.42C212.213 3.18 212.653 3.06 213.149 3.06C213.613 3.06 213.997 3.144 214.301 3.312C214.613 3.48 214.845 3.736 214.997 4.08C215.149 4.416 215.225 4.844 215.225 5.364V9H214.253V5.424C214.253 5.064 214.205 4.768 214.109 4.536C214.021 4.304 213.877 4.132 213.677 4.02C213.485 3.908 213.233 3.852 212.921 3.852C212.569 3.852 212.261 3.928 211.997 4.08C211.733 4.232 211.529 4.444 211.385 4.716C211.241 4.988 211.169 5.308 211.169 5.676V9H210.197ZM216.897 1.716V0.624H218.097V1.716H216.897ZM217.017 9V3.168H217.989V9H217.017ZM222.435 9.108C221.819 9.108 221.287 8.988 220.839 8.748C220.399 8.5 220.055 8.152 219.807 7.704C219.567 7.256 219.447 6.72 219.447 6.096C219.447 5.488 219.567 4.96 219.807 4.512C220.047 4.056 220.375 3.7 220.791 3.444C221.215 3.188 221.703 3.06 222.255 3.06C222.783 3.06 223.235 3.176 223.611 3.408C223.987 3.64 224.275 3.968 224.475 4.392C224.683 4.816 224.787 5.324 224.787 5.916V6.288H220.191V5.652H224.139L223.947 5.808C223.947 5.168 223.803 4.672 223.515 4.32C223.235 3.96 222.823 3.78 222.279 3.78C221.871 3.78 221.523 3.876 221.235 4.068C220.955 4.252 220.743 4.512 220.599 4.848C220.455 5.176 220.383 5.56 220.383 6V6.072C220.383 6.56 220.459 6.972 220.611 7.308C220.771 7.644 221.007 7.9 221.319 8.076C221.631 8.244 222.003 8.328 222.435 8.328C222.779 8.328 223.111 8.276 223.431 8.172C223.759 8.06 224.067 7.88 224.355 7.632L224.691 8.316C224.427 8.556 224.091 8.748 223.683 8.892C223.275 9.036 222.859 9.108 222.435 9.108ZM228.161 9.108C227.857 9.108 227.561 9.076 227.273 9.012C226.993 8.956 226.729 8.876 226.481 8.772C226.241 8.66 226.033 8.528 225.857 8.376L226.169 7.692C226.361 7.844 226.569 7.972 226.793 8.076C227.017 8.172 227.245 8.244 227.477 8.292C227.709 8.34 227.945 8.364 228.185 8.364C228.641 8.364 228.985 8.28 229.217 8.112C229.449 7.944 229.565 7.716 229.565 7.428C229.565 7.204 229.489 7.028 229.337 6.9C229.185 6.764 228.945 6.66 228.617 6.588L227.525 6.348C227.021 6.244 226.645 6.064 226.397 5.808C226.157 5.552 226.037 5.22 226.037 4.812C226.037 4.452 226.129 4.144 226.313 3.888C226.505 3.624 226.773 3.42 227.117 3.276C227.461 3.132 227.861 3.06 228.317 3.06C228.589 3.06 228.849 3.088 229.097 3.144C229.345 3.2 229.577 3.284 229.793 3.396C230.017 3.5 230.209 3.632 230.369 3.792L230.045 4.476C229.893 4.332 229.721 4.212 229.529 4.116C229.337 4.012 229.137 3.936 228.929 3.888C228.729 3.832 228.525 3.804 228.317 3.804C227.869 3.804 227.529 3.892 227.297 4.068C227.065 4.244 226.949 4.476 226.949 4.764C226.949 4.988 227.021 5.172 227.165 5.316C227.309 5.46 227.533 5.564 227.837 5.628L228.929 5.856C229.449 5.968 229.837 6.148 230.093 6.396C230.357 6.636 230.489 6.964 230.489 7.38C230.489 7.732 230.393 8.04 230.201 8.304C230.009 8.56 229.737 8.76 229.385 8.904C229.041 9.04 228.633 9.108 228.161 9.108ZM232.26 10.368L231.804 10.02C231.948 9.868 232.056 9.724 232.128 9.588C232.208 9.46 232.26 9.328 232.284 9.192C232.316 9.064 232.332 8.932 232.332 8.796L232.548 9H231.756V7.776H232.98V8.64C232.98 8.856 232.956 9.06 232.908 9.252C232.868 9.452 232.796 9.644 232.692 9.828C232.588 10.012 232.444 10.192 232.26 10.368ZM236.764 9.084L236.692 8.256L237.413 8.208C237.693 8.184 237.925 8.116 238.109 8.004C238.293 7.884 238.433 7.716 238.529 7.5C238.625 7.284 238.673 7.032 238.673 6.744V0.539999H239.657V6.756C239.657 7.212 239.577 7.608 239.417 7.944C239.257 8.272 239.021 8.528 238.709 8.712C238.397 8.896 238.009 9.004 237.545 9.036L236.764 9.084ZM243.679 9.108C243.207 9.108 242.815 9.024 242.503 8.856C242.199 8.68 241.967 8.42 241.807 8.076C241.655 7.732 241.579 7.304 241.579 6.792V3.168H242.551V6.78C242.551 7.124 242.595 7.412 242.683 7.644C242.779 7.868 242.927 8.036 243.127 8.148C243.327 8.252 243.575 8.304 243.871 8.304C244.207 8.304 244.499 8.228 244.747 8.076C244.995 7.924 245.191 7.712 245.335 7.44C245.479 7.168 245.551 6.848 245.551 6.48V3.168H246.523V9H245.575V7.656H245.731C245.571 8.128 245.307 8.488 244.939 8.736C244.579 8.984 244.159 9.108 243.679 9.108ZM248.222 1.716V0.624H249.422V1.716H248.222ZM248.342 9V3.168H249.314V9H248.342ZM253.603 9.108C253.019 9.108 252.515 8.98 252.091 8.724C251.667 8.468 251.339 8.112 251.107 7.656C250.883 7.192 250.771 6.656 250.771 6.048C250.771 5.432 250.883 4.9 251.107 4.452C251.339 4.004 251.667 3.66 252.091 3.42C252.515 3.18 253.019 3.06 253.603 3.06C253.963 3.06 254.319 3.124 254.671 3.252C255.023 3.38 255.315 3.56 255.547 3.792L255.211 4.5C254.979 4.276 254.723 4.112 254.443 4.008C254.171 3.904 253.911 3.852 253.663 3.852C253.055 3.852 252.587 4.044 252.259 4.428C251.931 4.804 251.767 5.348 251.767 6.06C251.767 6.756 251.931 7.308 252.259 7.716C252.587 8.116 253.055 8.316 253.663 8.316C253.911 8.316 254.171 8.264 254.443 8.16C254.723 8.056 254.979 7.888 255.211 7.656L255.547 8.364C255.315 8.596 255.019 8.78 254.659 8.916C254.307 9.044 253.955 9.108 253.603 9.108ZM259.196 9.108C258.58 9.108 258.048 8.988 257.6 8.748C257.16 8.5 256.816 8.152 256.568 7.704C256.328 7.256 256.208 6.72 256.208 6.096C256.208 5.488 256.328 4.96 256.568 4.512C256.808 4.056 257.136 3.7 257.552 3.444C257.976 3.188 258.464 3.06 259.016 3.06C259.544 3.06 259.996 3.176 260.372 3.408C260.748 3.64 261.036 3.968 261.236 4.392C261.444 4.816 261.548 5.324 261.548 5.916V6.288H256.952V5.652H260.9L260.708 5.808C260.708 5.168 260.564 4.672 260.276 4.32C259.996 3.96 259.584 3.78 259.04 3.78C258.632 3.78 258.284 3.876 257.996 4.068C257.716 4.252 257.504 4.512 257.36 4.848C257.216 5.176 257.144 5.56 257.144 6V6.072C257.144 6.56 257.22 6.972 257.372 7.308C257.532 7.644 257.768 7.9 258.08 8.076C258.392 8.244 258.764 8.328 259.196 8.328C259.54 8.328 259.872 8.276 260.192 8.172C260.52 8.06 260.828 7.88 261.116 7.632L261.452 8.316C261.188 8.556 260.852 8.748 260.444 8.892C260.036 9.036 259.62 9.108 259.196 9.108ZM264.923 9.108C264.619 9.108 264.323 9.076 264.035 9.012C263.755 8.956 263.491 8.876 263.243 8.772C263.003 8.66 262.795 8.528 262.619 8.376L262.931 7.692C263.123 7.844 263.331 7.972 263.555 8.076C263.779 8.172 264.007 8.244 264.239 8.292C264.471 8.34 264.707 8.364 264.947 8.364C265.403 8.364 265.747 8.28 265.979 8.112C266.211 7.944 266.327 7.716 266.327 7.428C266.327 7.204 266.251 7.028 266.099 6.9C265.947 6.764 265.707 6.66 265.379 6.588L264.287 6.348C263.783 6.244 263.407 6.064 263.159 5.808C262.919 5.552 262.799 5.22 262.799 4.812C262.799 4.452 262.891 4.144 263.075 3.888C263.267 3.624 263.535 3.42 263.879 3.276C264.223 3.132 264.623 3.06 265.079 3.06C265.351 3.06 265.611 3.088 265.859 3.144C266.107 3.2 266.339 3.284 266.555 3.396C266.779 3.5 266.971 3.632 267.131 3.792L266.807 4.476C266.655 4.332 266.483 4.212 266.291 4.116C266.099 4.012 265.899 3.936 265.691 3.888C265.491 3.832 265.287 3.804 265.079 3.804C264.631 3.804 264.291 3.892 264.059 4.068C263.827 4.244 263.711 4.476 263.711 4.764C263.711 4.988 263.783 5.172 263.927 5.316C264.071 5.46 264.295 5.564 264.599 5.628L265.691 5.856C266.211 5.968 266.599 6.148 266.855 6.396C267.119 6.636 267.251 6.964 267.251 7.38C267.251 7.732 267.155 8.04 266.963 8.304C266.771 8.56 266.499 8.76 266.147 8.904C265.803 9.04 265.395 9.108 264.923 9.108ZM269.022 10.368L268.566 10.02C268.71 9.868 268.818 9.724 268.89 9.588C268.97 9.46 269.022 9.328 269.046 9.192C269.078 9.064 269.094 8.932 269.094 8.796L269.31 9H268.518V7.776H269.742V8.64C269.742 8.856 269.718 9.06 269.67 9.252C269.63 9.452 269.558 9.644 269.454 9.828C269.35 10.012 269.206 10.192 269.022 10.368ZM274.642 9V0.539999H275.47L278.902 6.984H278.542L281.95 0.539999H282.778V9H281.866V1.86H282.154L279.046 7.692H278.398L275.254 1.848H275.542V9H274.642ZM287.176 9.108C286.608 9.108 286.116 8.984 285.7 8.736C285.284 8.488 284.96 8.14 284.728 7.692C284.504 7.236 284.392 6.7 284.392 6.084C284.392 5.468 284.504 4.936 284.728 4.488C284.96 4.032 285.284 3.68 285.7 3.432C286.116 3.184 286.608 3.06 287.176 3.06C287.744 3.06 288.236 3.184 288.652 3.432C289.068 3.68 289.388 4.032 289.612 4.488C289.844 4.936 289.96 5.468 289.96 6.084C289.96 6.7 289.844 7.236 289.612 7.692C289.388 8.14 289.068 8.488 288.652 8.736C288.236 8.984 287.744 9.108 287.176 9.108ZM287.176 8.328C287.728 8.328 288.164 8.136 288.484 7.752C288.812 7.36 288.976 6.8 288.976 6.072C288.976 5.352 288.812 4.8 288.484 4.416C288.164 4.032 287.728 3.84 287.176 3.84C286.632 3.84 286.196 4.032 285.868 4.416C285.54 4.8 285.376 5.352 285.376 6.072C285.376 6.8 285.54 7.36 285.868 7.752C286.196 8.136 286.632 8.328 287.176 8.328ZM293.892 9.108C293.308 9.108 292.804 8.98 292.38 8.724C291.956 8.468 291.628 8.112 291.396 7.656C291.172 7.192 291.06 6.656 291.06 6.048C291.06 5.432 291.172 4.9 291.396 4.452C291.628 4.004 291.956 3.66 292.38 3.42C292.804 3.18 293.308 3.06 293.892 3.06C294.252 3.06 294.608 3.124 294.96 3.252C295.312 3.38 295.604 3.56 295.836 3.792L295.5 4.5C295.268 4.276 295.012 4.112 294.732 4.008C294.46 3.904 294.2 3.852 293.952 3.852C293.344 3.852 292.876 4.044 292.548 4.428C292.22 4.804 292.056 5.348 292.056 6.06C292.056 6.756 292.22 7.308 292.548 7.716C292.876 8.116 293.344 8.316 293.952 8.316C294.2 8.316 294.46 8.264 294.732 8.16C295.012 8.056 295.268 7.888 295.5 7.656L295.836 8.364C295.604 8.596 295.308 8.78 294.948 8.916C294.596 9.044 294.244 9.108 293.892 9.108ZM296.975 9V0.539999H297.947V5.76H297.971L300.671 3.168H301.907L298.703 6.24V5.712L302.159 9H300.923L297.971 6.264H297.947V9H296.975ZM305.174 9.108C304.486 9.108 303.97 8.924 303.626 8.556C303.282 8.188 303.11 7.664 303.11 6.984V3.924H301.97V3.168H303.11V1.38H304.082V3.168H305.93V3.924H304.082V6.888C304.082 7.344 304.178 7.692 304.37 7.932C304.562 8.164 304.874 8.28 305.306 8.28C305.434 8.28 305.562 8.264 305.69 8.232C305.818 8.2 305.934 8.168 306.038 8.136L306.206 8.88C306.102 8.936 305.95 8.988 305.75 9.036C305.55 9.084 305.358 9.108 305.174 9.108ZM308.865 9.108C308.465 9.108 308.105 9.032 307.785 8.88C307.473 8.72 307.225 8.504 307.041 8.232C306.857 7.96 306.765 7.656 306.765 7.32C306.765 6.888 306.873 6.548 307.089 6.3C307.313 6.052 307.677 5.876 308.181 5.772C308.693 5.668 309.389 5.616 310.269 5.616H310.809V6.252H310.281C309.793 6.252 309.385 6.268 309.057 6.3C308.729 6.332 308.469 6.388 308.277 6.468C308.085 6.548 307.949 6.652 307.869 6.78C307.789 6.908 307.749 7.068 307.749 7.26C307.749 7.588 307.861 7.856 308.085 8.064C308.317 8.272 308.629 8.376 309.021 8.376C309.341 8.376 309.621 8.3 309.861 8.148C310.109 7.996 310.301 7.788 310.437 7.524C310.581 7.26 310.653 6.956 310.653 6.612V5.244C310.653 4.748 310.553 4.392 310.353 4.176C310.153 3.952 309.825 3.84 309.369 3.84C309.017 3.84 308.677 3.892 308.349 3.996C308.021 4.092 307.685 4.252 307.341 4.476L307.005 3.768C307.213 3.624 307.449 3.5 307.713 3.396C307.977 3.284 308.253 3.2 308.541 3.144C308.829 3.088 309.105 3.06 309.369 3.06C309.873 3.06 310.289 3.144 310.617 3.312C310.945 3.472 311.189 3.72 311.349 4.056C311.509 4.384 311.589 4.808 311.589 5.328V9H310.677V7.644H310.785C310.721 7.948 310.597 8.208 310.413 8.424C310.237 8.64 310.017 8.808 309.753 8.928C309.489 9.048 309.193 9.108 308.865 9.108ZM313.272 1.716V0.624H314.472V1.716H313.272ZM313.392 9V3.168H314.364V9H313.392ZM317.97 9.108C317.378 9.108 316.93 8.932 316.626 8.58C316.33 8.228 316.182 7.724 316.182 7.068V0.539999H317.154V6.996C317.154 7.276 317.19 7.512 317.262 7.704C317.342 7.896 317.458 8.04 317.61 8.136C317.762 8.232 317.95 8.28 318.174 8.28C318.27 8.28 318.362 8.276 318.45 8.268C318.546 8.252 318.634 8.232 318.714 8.208L318.69 9.024C318.562 9.048 318.438 9.068 318.318 9.084C318.206 9.1 318.09 9.108 317.97 9.108ZM321.642 9.108C321.338 9.108 321.042 9.076 320.754 9.012C320.474 8.956 320.21 8.876 319.962 8.772C319.722 8.66 319.514 8.528 319.338 8.376L319.65 7.692C319.842 7.844 320.05 7.972 320.274 8.076C320.498 8.172 320.726 8.244 320.958 8.292C321.19 8.34 321.426 8.364 321.666 8.364C322.122 8.364 322.466 8.28 322.698 8.112C322.93 7.944 323.046 7.716 323.046 7.428C323.046 7.204 322.97 7.028 322.818 6.9C322.666 6.764 322.426 6.66 322.098 6.588L321.006 6.348C320.502 6.244 320.126 6.064 319.878 5.808C319.638 5.552 319.518 5.22 319.518 4.812C319.518 4.452 319.61 4.144 319.794 3.888C319.986 3.624 320.254 3.42 320.598 3.276C320.942 3.132 321.342 3.06 321.798 3.06C322.07 3.06 322.33 3.088 322.578 3.144C322.826 3.2 323.058 3.284 323.274 3.396C323.498 3.5 323.69 3.632 323.85 3.792L323.526 4.476C323.374 4.332 323.202 4.212 323.01 4.116C322.818 4.012 322.618 3.936 322.41 3.888C322.21 3.832 322.006 3.804 321.798 3.804C321.35 3.804 321.01 3.892 320.778 4.068C320.546 4.244 320.43 4.476 320.43 4.764C320.43 4.988 320.502 5.172 320.646 5.316C320.79 5.46 321.014 5.564 321.318 5.628L322.41 5.856C322.93 5.968 323.318 6.148 323.574 6.396C323.838 6.636 323.97 6.964 323.97 7.38C323.97 7.732 323.874 8.04 323.682 8.304C323.49 8.56 323.218 8.76 322.866 8.904C322.522 9.04 322.114 9.108 321.642 9.108ZM0.228 25L3.96 16.54H4.8L8.532 25H7.512L6.468 22.588L6.948 22.84H1.788L2.28 22.588L1.248 25H0.228ZM4.368 17.692L2.436 22.24L2.148 22.012H6.588L6.324 22.24L4.392 17.692H4.368ZM9.65419 25V19.168H10.6022V20.464H10.4702C10.6382 20 10.9102 19.652 11.2862 19.42C11.6702 19.18 12.1102 19.06 12.6062 19.06C13.0702 19.06 13.4542 19.144 13.7582 19.312C14.0702 19.472 14.3022 19.724 14.4542 20.068C14.6062 20.412 14.6822 20.844 14.6822 21.364V25H13.7102V21.424C13.7102 21.064 13.6622 20.768 13.5662 20.536C13.4782 20.304 13.3342 20.132 13.1342 20.02C12.9422 19.908 12.6902 19.852 12.3782 19.852C12.0262 19.852 11.7182 19.928 11.4542 20.08C11.1902 20.232 10.9862 20.444 10.8422 20.716C10.6982 20.988 10.6262 21.308 10.6262 21.676V25H9.65419ZM18.6945 25.108C18.1745 25.108 17.7185 24.984 17.3265 24.736C16.9425 24.488 16.6425 24.14 16.4265 23.692C16.2185 23.236 16.1145 22.7 16.1145 22.084C16.1145 21.46 16.2185 20.924 16.4265 20.476C16.6425 20.02 16.9425 19.672 17.3265 19.432C17.7185 19.184 18.1745 19.06 18.6945 19.06C19.2225 19.06 19.6745 19.192 20.0505 19.456C20.4265 19.72 20.6785 20.076 20.8065 20.524H20.6745V16.54H21.6465V25H20.6985V23.608H20.8185C20.6905 24.064 20.4345 24.428 20.0505 24.7C19.6745 24.972 19.2225 25.108 18.6945 25.108ZM18.8985 24.328C19.4505 24.328 19.8865 24.136 20.2065 23.752C20.5345 23.36 20.6985 22.804 20.6985 22.084C20.6985 21.356 20.5345 20.8 20.2065 20.416C19.8865 20.032 19.4505 19.84 18.8985 19.84C18.3545 19.84 17.9185 20.032 17.5905 20.416C17.2625 20.8 17.0985 21.356 17.0985 22.084C17.0985 22.804 17.2625 23.36 17.5905 23.752C17.9185 24.136 18.3545 24.328 18.8985 24.328ZM26.6846 25V16.54H30.0326C30.9366 16.54 31.6326 16.752 32.1206 17.176C32.6086 17.6 32.8526 18.204 32.8526 18.988C32.8526 19.484 32.7406 19.916 32.5166 20.284C32.3006 20.644 31.9806 20.92 31.5566 21.112C31.1326 21.296 30.6246 21.388 30.0326 21.388L30.1526 21.232H30.3926C30.7046 21.232 30.9766 21.312 31.2086 21.472C31.4406 21.632 31.6526 21.888 31.8446 22.24L33.3326 25H32.2526L30.7886 22.288C30.6686 22.064 30.5326 21.888 30.3806 21.76C30.2366 21.632 30.0686 21.544 29.8766 21.496C29.6926 21.448 29.4686 21.424 29.2046 21.424H27.6686V25H26.6846ZM27.6686 20.644H29.8886C30.5446 20.644 31.0406 20.508 31.3766 20.236C31.7126 19.956 31.8806 19.54 31.8806 18.988C31.8806 18.452 31.7126 18.048 31.3766 17.776C31.0406 17.496 30.5446 17.356 29.8886 17.356H27.6686V20.644ZM37.0791 25.108C36.4631 25.108 35.9311 24.988 35.4831 24.748C35.0431 24.5 34.6991 24.152 34.4511 23.704C34.2111 23.256 34.0911 22.72 34.0911 22.096C34.0911 21.488 34.2111 20.96 34.4511 20.512C34.6911 20.056 35.0191 19.7 35.4351 19.444C35.8591 19.188 36.3471 19.06 36.8991 19.06C37.4271 19.06 37.8791 19.176 38.2551 19.408C38.6311 19.64 38.9191 19.968 39.1191 20.392C39.3271 20.816 39.4311 21.324 39.4311 21.916V22.288H34.8351V21.652H38.7831L38.5911 21.808C38.5911 21.168 38.4471 20.672 38.1591 20.32C37.8791 19.96 37.4671 19.78 36.9231 19.78C36.5151 19.78 36.1671 19.876 35.8791 20.068C35.5991 20.252 35.3871 20.512 35.2431 20.848C35.0991 21.176 35.0271 21.56 35.0271 22V22.072C35.0271 22.56 35.1031 22.972 35.2551 23.308C35.4151 23.644 35.6511 23.9 35.9631 24.076C36.2751 24.244 36.6471 24.328 37.0791 24.328C37.4231 24.328 37.7551 24.276 38.0751 24.172C38.4031 24.06 38.7111 23.88 38.9991 23.632L39.3351 24.316C39.0711 24.556 38.7351 24.748 38.3271 24.892C37.9191 25.036 37.5031 25.108 37.0791 25.108ZM41.1498 25V19.924H39.9978V19.168H41.4138L41.1498 19.42V18.964C41.1498 18.188 41.3418 17.6 41.7258 17.2C42.1178 16.8 42.7178 16.576 43.5258 16.528L43.9938 16.504L44.0778 17.248L43.5258 17.284C43.1978 17.308 42.9298 17.38 42.7218 17.5C42.5138 17.62 42.3618 17.792 42.2658 18.016C42.1698 18.24 42.1218 18.516 42.1218 18.844V19.348L41.9778 19.168H43.8018V19.924H42.1218V25H41.1498ZM44.8339 25V19.168H45.7819V20.548H45.6619C45.7979 20.076 46.0339 19.72 46.3699 19.48C46.7059 19.232 47.1499 19.088 47.7019 19.048L48.0499 19.012L48.1219 19.852L47.5099 19.924C46.9659 19.972 46.5459 20.148 46.2499 20.452C45.9619 20.748 45.8179 21.156 45.8179 21.676V25H44.8339ZM51.6923 25.108C51.0763 25.108 50.5443 24.988 50.0963 24.748C49.6563 24.5 49.3123 24.152 49.0643 23.704C48.8243 23.256 48.7043 22.72 48.7043 22.096C48.7043 21.488 48.8243 20.96 49.0643 20.512C49.3043 20.056 49.6323 19.7 50.0483 19.444C50.4723 19.188 50.9603 19.06 51.5123 19.06C52.0403 19.06 52.4923 19.176 52.8683 19.408C53.2443 19.64 53.5323 19.968 53.7323 20.392C53.9403 20.816 54.0443 21.324 54.0443 21.916V22.288H49.4483V21.652H53.3963L53.2043 21.808C53.2043 21.168 53.0603 20.672 52.7723 20.32C52.4923 19.96 52.0803 19.78 51.5363 19.78C51.1283 19.78 50.7803 19.876 50.4923 20.068C50.2123 20.252 50.0003 20.512 49.8563 20.848C49.7123 21.176 49.6403 21.56 49.6403 22V22.072C49.6403 22.56 49.7163 22.972 49.8683 23.308C50.0283 23.644 50.2643 23.9 50.5763 24.076C50.8883 24.244 51.2603 24.328 51.6923 24.328C52.0363 24.328 52.3683 24.276 52.6883 24.172C53.0163 24.06 53.3243 23.88 53.6123 23.632L53.9483 24.316C53.6843 24.556 53.3483 24.748 52.9403 24.892C52.5323 25.036 52.1163 25.108 51.6923 25.108ZM57.4191 25.108C57.1151 25.108 56.8191 25.076 56.5311 25.012C56.2511 24.956 55.9871 24.876 55.7391 24.772C55.4991 24.66 55.2911 24.528 55.1151 24.376L55.4271 23.692C55.6191 23.844 55.8271 23.972 56.0511 24.076C56.2751 24.172 56.5031 24.244 56.7351 24.292C56.9671 24.34 57.2031 24.364 57.4431 24.364C57.8991 24.364 58.2431 24.28 58.4751 24.112C58.7071 23.944 58.8231 23.716 58.8231 23.428C58.8231 23.204 58.7471 23.028 58.5951 22.9C58.4431 22.764 58.2031 22.66 57.8751 22.588L56.7831 22.348C56.2791 22.244 55.9031 22.064 55.6551 21.808C55.4151 21.552 55.2951 21.22 55.2951 20.812C55.2951 20.452 55.3871 20.144 55.5711 19.888C55.7631 19.624 56.0311 19.42 56.3751 19.276C56.7191 19.132 57.1191 19.06 57.5751 19.06C57.8471 19.06 58.1071 19.088 58.3551 19.144C58.6031 19.2 58.8351 19.284 59.0511 19.396C59.2751 19.5 59.4671 19.632 59.6271 19.792L59.3031 20.476C59.1511 20.332 58.9791 20.212 58.7871 20.116C58.5951 20.012 58.3951 19.936 58.1871 19.888C57.9871 19.832 57.7831 19.804 57.5751 19.804C57.1271 19.804 56.7871 19.892 56.5551 20.068C56.3231 20.244 56.2071 20.476 56.2071 20.764C56.2071 20.988 56.2791 21.172 56.4231 21.316C56.5671 21.46 56.7911 21.564 57.0951 21.628L58.1871 21.856C58.7071 21.968 59.0951 22.148 59.3511 22.396C59.6151 22.636 59.7471 22.964 59.7471 23.38C59.7471 23.732 59.6511 24.04 59.4591 24.304C59.2671 24.56 58.9951 24.76 58.6431 24.904C58.2991 25.04 57.8911 25.108 57.4191 25.108ZM61.2284 25V16.54H62.2004V20.464H62.0444C62.2124 20 62.4844 19.652 62.8604 19.42C63.2444 19.18 63.6844 19.06 64.1804 19.06C64.6444 19.06 65.0284 19.144 65.3324 19.312C65.6444 19.48 65.8764 19.736 66.0284 20.08C66.1804 20.416 66.2564 20.844 66.2564 21.364V25H65.2844V21.424C65.2844 21.064 65.2364 20.768 65.1404 20.536C65.0524 20.304 64.9084 20.132 64.7084 20.02C64.5164 19.908 64.2644 19.852 63.9524 19.852C63.6004 19.852 63.2924 19.928 63.0284 20.08C62.7644 20.232 62.5604 20.444 62.4164 20.716C62.2724 20.988 62.2004 21.308 62.2004 21.676V25H61.2284ZM67.9287 17.716V16.624H69.1287V17.716H67.9287ZM68.0487 25V19.168H69.0207V25H68.0487ZM70.8378 25V19.168H71.7858V20.464H71.6538C71.8218 20 72.0938 19.652 72.4698 19.42C72.8538 19.18 73.2938 19.06 73.7898 19.06C74.2538 19.06 74.6378 19.144 74.9418 19.312C75.2538 19.472 75.4858 19.724 75.6378 20.068C75.7898 20.412 75.8658 20.844 75.8658 21.364V25H74.8938V21.424C74.8938 21.064 74.8458 20.768 74.7498 20.536C74.6618 20.304 74.5178 20.132 74.3178 20.02C74.1258 19.908 73.8738 19.852 73.5618 19.852C73.2098 19.852 72.9018 19.928 72.6378 20.08C72.3738 20.232 72.1698 20.444 72.0258 20.716C71.8818 20.988 71.8098 21.308 71.8098 21.676V25H70.8378ZM80.2381 27.268C79.7341 27.268 79.2581 27.2 78.8101 27.064C78.3701 26.936 77.9781 26.74 77.6341 26.476L77.9581 25.768C78.1981 25.936 78.4341 26.072 78.6661 26.176C78.9061 26.288 79.1501 26.368 79.3981 26.416C79.6541 26.464 79.9181 26.488 80.1901 26.488C80.7581 26.488 81.1861 26.336 81.4741 26.032C81.7701 25.728 81.9181 25.288 81.9181 24.712V23.356H82.0381C81.9181 23.82 81.6621 24.188 81.2701 24.46C80.8861 24.732 80.4341 24.868 79.9141 24.868C79.3781 24.868 78.9141 24.748 78.5221 24.508C78.1301 24.26 77.8261 23.916 77.6101 23.476C77.4021 23.036 77.2981 22.528 77.2981 21.952C77.2981 21.376 77.4021 20.872 77.6101 20.44C77.8261 20 78.1301 19.66 78.5221 19.42C78.9141 19.18 79.3781 19.06 79.9141 19.06C80.4421 19.06 80.8981 19.196 81.2821 19.468C81.6661 19.732 81.9141 20.092 82.0261 20.548H81.9181V19.168H82.8661V24.58C82.8661 25.172 82.7661 25.668 82.5661 26.068C82.3741 26.468 82.0821 26.768 81.6901 26.968C81.2981 27.168 80.8141 27.268 80.2381 27.268ZM80.0941 24.076C80.6541 24.076 81.0981 23.884 81.4261 23.5C81.7541 23.116 81.9181 22.6 81.9181 21.952C81.9181 21.304 81.7541 20.792 81.4261 20.416C81.0981 20.032 80.6541 19.84 80.0941 19.84C79.5421 19.84 79.1021 20.032 78.7741 20.416C78.4461 20.792 78.2821 21.304 78.2821 21.952C78.2821 22.6 78.4461 23.116 78.7741 23.5C79.1021 23.884 79.5421 24.076 80.0941 24.076ZM87.9034 25V16.54H91.2874C92.1514 16.54 92.8234 16.732 93.3034 17.116C93.7834 17.5 94.0234 18.044 94.0234 18.748C94.0234 19.276 93.8674 19.716 93.5554 20.068C93.2514 20.42 92.8354 20.652 92.3074 20.764V20.596C92.7074 20.644 93.0514 20.76 93.3394 20.944C93.6274 21.12 93.8474 21.356 93.9994 21.652C94.1514 21.94 94.2274 22.28 94.2274 22.672C94.2274 23.176 94.1154 23.604 93.8914 23.956C93.6754 24.3 93.3594 24.56 92.9434 24.736C92.5274 24.912 92.0234 25 91.4314 25H87.9034ZM88.8634 24.208H91.3354C91.5914 24.208 91.8194 24.188 92.0194 24.148C92.2274 24.108 92.4074 24.048 92.5594 23.968C92.7114 23.88 92.8394 23.776 92.9434 23.656C93.0474 23.536 93.1234 23.392 93.1714 23.224C93.2274 23.056 93.2554 22.868 93.2554 22.66C93.2554 22.444 93.2274 22.256 93.1714 22.096C93.1234 21.928 93.0474 21.784 92.9434 21.664C92.8394 21.536 92.7114 21.432 92.5594 21.352C92.4074 21.272 92.2274 21.212 92.0194 21.172C91.8194 21.132 91.5914 21.112 91.3354 21.112H88.8634V24.208ZM88.8634 20.32H91.1434C91.7674 20.32 92.2394 20.192 92.5594 19.936C92.8874 19.68 93.0514 19.312 93.0514 18.832C93.0514 18.336 92.8874 17.964 92.5594 17.716C92.2394 17.46 91.7674 17.332 91.1434 17.332H88.8634V20.32ZM98.5088 25.108C97.8928 25.108 97.3608 24.988 96.9128 24.748C96.4728 24.5 96.1288 24.152 95.8808 23.704C95.6408 23.256 95.5208 22.72 95.5208 22.096C95.5208 21.488 95.6408 20.96 95.8808 20.512C96.1208 20.056 96.4488 19.7 96.8648 19.444C97.2888 19.188 97.7768 19.06 98.3288 19.06C98.8568 19.06 99.3088 19.176 99.6848 19.408C100.061 19.64 100.349 19.968 100.549 20.392C100.757 20.816 100.861 21.324 100.861 21.916V22.288H96.2648V21.652H100.213L100.021 21.808C100.021 21.168 99.8768 20.672 99.5888 20.32C99.3088 19.96 98.8968 19.78 98.3528 19.78C97.9448 19.78 97.5968 19.876 97.3088 20.068C97.0288 20.252 96.8168 20.512 96.6728 20.848C96.5288 21.176 96.4568 21.56 96.4568 22V22.072C96.4568 22.56 96.5328 22.972 96.6848 23.308C96.8448 23.644 97.0808 23.9 97.3928 24.076C97.7048 24.244 98.0768 24.328 98.5088 24.328C98.8528 24.328 99.1848 24.276 99.5048 24.172C99.8328 24.06 100.141 23.88 100.429 23.632L100.765 24.316C100.501 24.556 100.165 24.748 99.7568 24.892C99.3488 25.036 98.9328 25.108 98.5088 25.108ZM103.913 25L101.405 19.168H102.461L104.549 24.28H104.225L106.349 19.168H107.345L104.825 25H103.913ZM110.919 25.108C110.303 25.108 109.771 24.988 109.323 24.748C108.883 24.5 108.539 24.152 108.291 23.704C108.051 23.256 107.931 22.72 107.931 22.096C107.931 21.488 108.051 20.96 108.291 20.512C108.531 20.056 108.859 19.7 109.275 19.444C109.699 19.188 110.187 19.06 110.739 19.06C111.267 19.06 111.719 19.176 112.095 19.408C112.471 19.64 112.759 19.968 112.959 20.392C113.167 20.816 113.271 21.324 113.271 21.916V22.288H108.675V21.652H112.623L112.431 21.808C112.431 21.168 112.287 20.672 111.999 20.32C111.719 19.96 111.307 19.78 110.763 19.78C110.355 19.78 110.007 19.876 109.719 20.068C109.439 20.252 109.227 20.512 109.083 20.848C108.939 21.176 108.867 21.56 108.867 22V22.072C108.867 22.56 108.943 22.972 109.095 23.308C109.255 23.644 109.491 23.9 109.803 24.076C110.115 24.244 110.487 24.328 110.919 24.328C111.263 24.328 111.595 24.276 111.915 24.172C112.243 24.06 112.551 23.88 112.839 23.632L113.175 24.316C112.911 24.556 112.575 24.748 112.167 24.892C111.759 25.036 111.343 25.108 110.919 25.108ZM114.678 25V19.168H115.626V20.548H115.506C115.642 20.076 115.878 19.72 116.214 19.48C116.55 19.232 116.994 19.088 117.546 19.048L117.894 19.012L117.966 19.852L117.354 19.924C116.81 19.972 116.39 20.148 116.094 20.452C115.806 20.748 115.662 21.156 115.662 21.676V25H114.678ZM120.756 25.108C120.356 25.108 119.996 25.032 119.676 24.88C119.364 24.72 119.116 24.504 118.932 24.232C118.748 23.96 118.656 23.656 118.656 23.32C118.656 22.888 118.764 22.548 118.98 22.3C119.204 22.052 119.568 21.876 120.072 21.772C120.584 21.668 121.28 21.616 122.16 21.616H122.7V22.252H122.172C121.684 22.252 121.276 22.268 120.948 22.3C120.62 22.332 120.36 22.388 120.168 22.468C119.976 22.548 119.84 22.652 119.76 22.78C119.68 22.908 119.64 23.068 119.64 23.26C119.64 23.588 119.752 23.856 119.976 24.064C120.208 24.272 120.52 24.376 120.912 24.376C121.232 24.376 121.512 24.3 121.752 24.148C122 23.996 122.192 23.788 122.328 23.524C122.472 23.26 122.544 22.956 122.544 22.612V21.244C122.544 20.748 122.444 20.392 122.244 20.176C122.044 19.952 121.716 19.84 121.26 19.84C120.908 19.84 120.568 19.892 120.24 19.996C119.912 20.092 119.576 20.252 119.232 20.476L118.896 19.768C119.104 19.624 119.34 19.5 119.604 19.396C119.868 19.284 120.144 19.2 120.432 19.144C120.72 19.088 120.996 19.06 121.26 19.06C121.764 19.06 122.18 19.144 122.508 19.312C122.836 19.472 123.08 19.72 123.24 20.056C123.4 20.384 123.48 20.808 123.48 21.328V25H122.568V23.644H122.676C122.612 23.948 122.488 24.208 122.304 24.424C122.128 24.64 121.908 24.808 121.644 24.928C121.38 25.048 121.084 25.108 120.756 25.108ZM127.863 27.268C127.359 27.268 126.883 27.2 126.435 27.064C125.995 26.936 125.603 26.74 125.259 26.476L125.583 25.768C125.823 25.936 126.059 26.072 126.291 26.176C126.531 26.288 126.775 26.368 127.023 26.416C127.279 26.464 127.543 26.488 127.815 26.488C128.383 26.488 128.811 26.336 129.099 26.032C129.395 25.728 129.543 25.288 129.543 24.712V23.356H129.663C129.543 23.82 129.287 24.188 128.895 24.46C128.511 24.732 128.059 24.868 127.539 24.868C127.003 24.868 126.539 24.748 126.147 24.508C125.755 24.26 125.451 23.916 125.235 23.476C125.027 23.036 124.923 22.528 124.923 21.952C124.923 21.376 125.027 20.872 125.235 20.44C125.451 20 125.755 19.66 126.147 19.42C126.539 19.18 127.003 19.06 127.539 19.06C128.067 19.06 128.523 19.196 128.907 19.468C129.291 19.732 129.539 20.092 129.651 20.548H129.543V19.168H130.491V24.58C130.491 25.172 130.391 25.668 130.191 26.068C129.999 26.468 129.707 26.768 129.315 26.968C128.923 27.168 128.439 27.268 127.863 27.268ZM127.719 24.076C128.279 24.076 128.723 23.884 129.051 23.5C129.379 23.116 129.543 22.6 129.543 21.952C129.543 21.304 129.379 20.792 129.051 20.416C128.723 20.032 128.279 19.84 127.719 19.84C127.167 19.84 126.727 20.032 126.399 20.416C126.071 20.792 125.907 21.304 125.907 21.952C125.907 22.6 126.071 23.116 126.399 23.5C126.727 23.884 127.167 24.076 127.719 24.076ZM134.942 25.108C134.326 25.108 133.794 24.988 133.346 24.748C132.906 24.5 132.562 24.152 132.314 23.704C132.074 23.256 131.954 22.72 131.954 22.096C131.954 21.488 132.074 20.96 132.314 20.512C132.554 20.056 132.882 19.7 133.298 19.444C133.722 19.188 134.21 19.06 134.762 19.06C135.29 19.06 135.742 19.176 136.118 19.408C136.494 19.64 136.782 19.968 136.982 20.392C137.19 20.816 137.294 21.324 137.294 21.916V22.288H132.698V21.652H136.646L136.454 21.808C136.454 21.168 136.31 20.672 136.022 20.32C135.742 19.96 135.33 19.78 134.786 19.78C134.378 19.78 134.03 19.876 133.742 20.068C133.462 20.252 133.25 20.512 133.106 20.848C132.962 21.176 132.89 21.56 132.89 22V22.072C132.89 22.56 132.966 22.972 133.118 23.308C133.278 23.644 133.514 23.9 133.826 24.076C134.138 24.244 134.51 24.328 134.942 24.328C135.286 24.328 135.618 24.276 135.938 24.172C136.266 24.06 136.574 23.88 136.862 23.632L137.198 24.316C136.934 24.556 136.598 24.748 136.19 24.892C135.782 25.036 135.366 25.108 134.942 25.108ZM140.669 25.108C140.365 25.108 140.069 25.076 139.781 25.012C139.501 24.956 139.237 24.876 138.989 24.772C138.749 24.66 138.541 24.528 138.365 24.376L138.677 23.692C138.869 23.844 139.077 23.972 139.301 24.076C139.525 24.172 139.753 24.244 139.985 24.292C140.217 24.34 140.453 24.364 140.693 24.364C141.149 24.364 141.493 24.28 141.725 24.112C141.957 23.944 142.073 23.716 142.073 23.428C142.073 23.204 141.997 23.028 141.845 22.9C141.693 22.764 141.453 22.66 141.125 22.588L140.033 22.348C139.529 22.244 139.153 22.064 138.905 21.808C138.665 21.552 138.545 21.22 138.545 20.812C138.545 20.452 138.637 20.144 138.821 19.888C139.013 19.624 139.281 19.42 139.625 19.276C139.969 19.132 140.369 19.06 140.825 19.06C141.097 19.06 141.357 19.088 141.605 19.144C141.853 19.2 142.085 19.284 142.301 19.396C142.525 19.5 142.717 19.632 142.877 19.792L142.553 20.476C142.401 20.332 142.229 20.212 142.037 20.116C141.845 20.012 141.645 19.936 141.437 19.888C141.237 19.832 141.033 19.804 140.825 19.804C140.377 19.804 140.037 19.892 139.805 20.068C139.573 20.244 139.457 20.476 139.457 20.764C139.457 20.988 139.529 21.172 139.673 21.316C139.817 21.46 140.041 21.564 140.345 21.628L141.437 21.856C141.957 21.968 142.345 22.148 142.601 22.396C142.865 22.636 142.997 22.964 142.997 23.38C142.997 23.732 142.901 24.04 142.709 24.304C142.517 24.56 142.245 24.76 141.893 24.904C141.549 25.04 141.141 25.108 140.669 25.108ZM143.566 22.12V21.484H155.566V22.12H143.566ZM159.692 25V16.54H160.676V25H159.692ZM164.851 25.108C164.331 25.108 163.875 24.984 163.483 24.736C163.099 24.488 162.799 24.14 162.583 23.692C162.375 23.236 162.271 22.7 162.271 22.084C162.271 21.46 162.375 20.924 162.583 20.476C162.799 20.02 163.099 19.672 163.483 19.432C163.875 19.184 164.331 19.06 164.851 19.06C165.379 19.06 165.831 19.192 166.207 19.456C166.583 19.72 166.835 20.076 166.963 20.524H166.831V16.54H167.803V25H166.855V23.608H166.975C166.847 24.064 166.591 24.428 166.207 24.7C165.831 24.972 165.379 25.108 164.851 25.108ZM165.055 24.328C165.607 24.328 166.043 24.136 166.363 23.752C166.691 23.36 166.855 22.804 166.855 22.084C166.855 21.356 166.691 20.8 166.363 20.416C166.043 20.032 165.607 19.84 165.055 19.84C164.511 19.84 164.075 20.032 163.747 20.416C163.419 20.8 163.255 21.356 163.255 22.084C163.255 22.804 163.419 23.36 163.747 23.752C164.075 24.136 164.511 24.328 165.055 24.328ZM172.255 25.108C171.639 25.108 171.107 24.988 170.659 24.748C170.219 24.5 169.875 24.152 169.627 23.704C169.387 23.256 169.267 22.72 169.267 22.096C169.267 21.488 169.387 20.96 169.627 20.512C169.867 20.056 170.195 19.7 170.611 19.444C171.035 19.188 171.523 19.06 172.075 19.06C172.603 19.06 173.055 19.176 173.431 19.408C173.807 19.64 174.095 19.968 174.295 20.392C174.503 20.816 174.607 21.324 174.607 21.916V22.288H170.011V21.652H173.959L173.767 21.808C173.767 21.168 173.623 20.672 173.335 20.32C173.055 19.96 172.643 19.78 172.099 19.78C171.691 19.78 171.343 19.876 171.055 20.068C170.775 20.252 170.563 20.512 170.419 20.848C170.275 21.176 170.203 21.56 170.203 22V22.072C170.203 22.56 170.279 22.972 170.431 23.308C170.591 23.644 170.827 23.9 171.139 24.076C171.451 24.244 171.823 24.328 172.255 24.328C172.599 24.328 172.931 24.276 173.251 24.172C173.579 24.06 173.887 23.88 174.175 23.632L174.511 24.316C174.247 24.556 173.911 24.748 173.503 24.892C173.095 25.036 172.679 25.108 172.255 25.108ZM177.85 25.108C177.45 25.108 177.09 25.032 176.77 24.88C176.458 24.72 176.21 24.504 176.026 24.232C175.842 23.96 175.75 23.656 175.75 23.32C175.75 22.888 175.858 22.548 176.074 22.3C176.298 22.052 176.662 21.876 177.166 21.772C177.678 21.668 178.374 21.616 179.254 21.616H179.794V22.252H179.266C178.778 22.252 178.37 22.268 178.042 22.3C177.714 22.332 177.454 22.388 177.262 22.468C177.07 22.548 176.934 22.652 176.854 22.78C176.774 22.908 176.734 23.068 176.734 23.26C176.734 23.588 176.846 23.856 177.07 24.064C177.302 24.272 177.614 24.376 178.006 24.376C178.326 24.376 178.606 24.3 178.846 24.148C179.094 23.996 179.286 23.788 179.422 23.524C179.566 23.26 179.638 22.956 179.638 22.612V21.244C179.638 20.748 179.538 20.392 179.338 20.176C179.138 19.952 178.81 19.84 178.354 19.84C178.002 19.84 177.662 19.892 177.334 19.996C177.006 20.092 176.67 20.252 176.326 20.476L175.99 19.768C176.198 19.624 176.434 19.5 176.698 19.396C176.962 19.284 177.238 19.2 177.526 19.144C177.814 19.088 178.09 19.06 178.354 19.06C178.858 19.06 179.274 19.144 179.602 19.312C179.93 19.472 180.174 19.72 180.334 20.056C180.494 20.384 180.574 20.808 180.574 21.328V25H179.662V23.644H179.77C179.706 23.948 179.582 24.208 179.398 24.424C179.222 24.64 179.002 24.808 178.738 24.928C178.474 25.048 178.178 25.108 177.85 25.108ZM184.165 25.108C183.573 25.108 183.125 24.932 182.821 24.58C182.525 24.228 182.377 23.724 182.377 23.068V16.54H183.349V22.996C183.349 23.276 183.385 23.512 183.457 23.704C183.537 23.896 183.653 24.04 183.805 24.136C183.957 24.232 184.145 24.28 184.369 24.28C184.465 24.28 184.557 24.276 184.645 24.268C184.741 24.252 184.829 24.232 184.909 24.208L184.885 25.024C184.757 25.048 184.633 25.068 184.513 25.084C184.401 25.1 184.285 25.108 184.165 25.108ZM189.142 25V16.54H194.374V17.368H190.126V20.32H194.134V21.148H190.126V25H189.142ZM197.785 25.108C197.217 25.108 196.725 24.984 196.309 24.736C195.893 24.488 195.569 24.14 195.337 23.692C195.113 23.236 195.001 22.7 195.001 22.084C195.001 21.468 195.113 20.936 195.337 20.488C195.569 20.032 195.893 19.68 196.309 19.432C196.725 19.184 197.217 19.06 197.785 19.06C198.353 19.06 198.845 19.184 199.261 19.432C199.677 19.68 199.997 20.032 200.221 20.488C200.453 20.936 200.569 21.468 200.569 22.084C200.569 22.7 200.453 23.236 200.221 23.692C199.997 24.14 199.677 24.488 199.261 24.736C198.845 24.984 198.353 25.108 197.785 25.108ZM197.785 24.328C198.337 24.328 198.773 24.136 199.093 23.752C199.421 23.36 199.585 22.8 199.585 22.072C199.585 21.352 199.421 20.8 199.093 20.416C198.773 20.032 198.337 19.84 197.785 19.84C197.241 19.84 196.805 20.032 196.477 20.416C196.149 20.8 195.985 21.352 195.985 22.072C195.985 22.8 196.149 23.36 196.477 23.752C196.805 24.136 197.241 24.328 197.785 24.328ZM202.029 25V19.168H202.977V20.548H202.857C202.993 20.076 203.229 19.72 203.565 19.48C203.901 19.232 204.345 19.088 204.897 19.048L205.245 19.012L205.317 19.852L204.705 19.924C204.161 19.972 203.741 20.148 203.445 20.452C203.157 20.748 203.013 21.156 203.013 21.676V25H202.029ZM209.544 25V16.54H214.884V17.368H210.504V20.296H214.632V21.124H210.504V24.172H214.884V25H209.544ZM218.019 25L215.511 19.168H216.567L218.655 24.28H218.331L220.455 19.168H221.451L218.931 25H218.019ZM225.024 25.108C224.408 25.108 223.876 24.988 223.428 24.748C222.988 24.5 222.644 24.152 222.396 23.704C222.156 23.256 222.036 22.72 222.036 22.096C222.036 21.488 222.156 20.96 222.396 20.512C222.636 20.056 222.964 19.7 223.38 19.444C223.804 19.188 224.292 19.06 224.844 19.06C225.372 19.06 225.824 19.176 226.2 19.408C226.576 19.64 226.864 19.968 227.064 20.392C227.272 20.816 227.376 21.324 227.376 21.916V22.288H222.78V21.652H226.728L226.536 21.808C226.536 21.168 226.392 20.672 226.104 20.32C225.824 19.96 225.412 19.78 224.868 19.78C224.46 19.78 224.112 19.876 223.824 20.068C223.544 20.252 223.332 20.512 223.188 20.848C223.044 21.176 222.972 21.56 222.972 22V22.072C222.972 22.56 223.048 22.972 223.2 23.308C223.36 23.644 223.596 23.9 223.908 24.076C224.22 24.244 224.592 24.328 225.024 24.328C225.368 24.328 225.7 24.276 226.02 24.172C226.348 24.06 226.656 23.88 226.944 23.632L227.28 24.316C227.016 24.556 226.68 24.748 226.272 24.892C225.864 25.036 225.448 25.108 225.024 25.108ZM228.783 25V19.168H229.731V20.548H229.611C229.747 20.076 229.983 19.72 230.319 19.48C230.655 19.232 231.099 19.088 231.651 19.048L231.999 19.012L232.071 19.852L231.459 19.924C230.915 19.972 230.495 20.148 230.199 20.452C229.911 20.748 229.767 21.156 229.767 21.676V25H228.783ZM234.119 27.16L235.211 24.7V25.12L232.655 19.168H233.711L235.799 24.28H235.475L237.587 19.168H238.607L235.139 27.16H234.119ZM241.749 25.108C241.229 25.108 240.773 24.984 240.381 24.736C239.997 24.488 239.697 24.14 239.481 23.692C239.273 23.236 239.169 22.7 239.169 22.084C239.169 21.46 239.273 20.924 239.481 20.476C239.697 20.02 239.997 19.672 240.381 19.432C240.773 19.184 241.229 19.06 241.749 19.06C242.277 19.06 242.729 19.192 243.105 19.456C243.481 19.72 243.733 20.076 243.861 20.524H243.729V16.54H244.701V25H243.753V23.608H243.873C243.745 24.064 243.489 24.428 243.105 24.7C242.729 24.972 242.277 25.108 241.749 25.108ZM241.953 24.328C242.505 24.328 242.941 24.136 243.261 23.752C243.589 23.36 243.753 22.804 243.753 22.084C243.753 21.356 243.589 20.8 243.261 20.416C242.941 20.032 242.505 19.84 241.953 19.84C241.409 19.84 240.973 20.032 240.645 20.416C240.317 20.8 240.153 21.356 240.153 22.084C240.153 22.804 240.317 23.36 240.645 23.752C240.973 24.136 241.409 24.328 241.953 24.328ZM248.361 25.108C247.961 25.108 247.601 25.032 247.281 24.88C246.969 24.72 246.721 24.504 246.537 24.232C246.353 23.96 246.261 23.656 246.261 23.32C246.261 22.888 246.369 22.548 246.585 22.3C246.809 22.052 247.173 21.876 247.677 21.772C248.189 21.668 248.885 21.616 249.765 21.616H250.305V22.252H249.777C249.289 22.252 248.881 22.268 248.553 22.3C248.225 22.332 247.965 22.388 247.773 22.468C247.581 22.548 247.445 22.652 247.365 22.78C247.285 22.908 247.245 23.068 247.245 23.26C247.245 23.588 247.357 23.856 247.581 24.064C247.813 24.272 248.125 24.376 248.517 24.376C248.837 24.376 249.117 24.3 249.357 24.148C249.605 23.996 249.797 23.788 249.933 23.524C250.077 23.26 250.149 22.956 250.149 22.612V21.244C250.149 20.748 250.049 20.392 249.849 20.176C249.649 19.952 249.321 19.84 248.865 19.84C248.513 19.84 248.173 19.892 247.845 19.996C247.517 20.092 247.181 20.252 246.837 20.476L246.501 19.768C246.709 19.624 246.945 19.5 247.209 19.396C247.473 19.284 247.749 19.2 248.037 19.144C248.325 19.088 248.601 19.06 248.865 19.06C249.369 19.06 249.785 19.144 250.113 19.312C250.441 19.472 250.685 19.72 250.845 20.056C251.005 20.384 251.085 20.808 251.085 21.328V25H250.173V23.644H250.281C250.217 23.948 250.093 24.208 249.909 24.424C249.733 24.64 249.513 24.808 249.249 24.928C248.985 25.048 248.689 25.108 248.361 25.108ZM253.502 27.16L254.594 24.7V25.12L252.038 19.168H253.094L255.182 24.28H254.858L256.97 19.168H257.99L254.522 27.16H253.502ZM265.544 25.108C264.44 25.108 263.596 24.816 263.012 24.232C262.436 23.64 262.148 22.78 262.148 21.652V16.54H263.132V21.604C263.132 22.484 263.336 23.144 263.744 23.584C264.152 24.016 264.752 24.232 265.544 24.232C266.336 24.232 266.932 24.016 267.332 23.584C267.732 23.144 267.932 22.484 267.932 21.604V16.54H268.916V21.652C268.916 22.78 268.628 23.64 268.052 24.232C267.484 24.816 266.648 25.108 265.544 25.108ZM272.775 25.108C272.471 25.108 272.175 25.076 271.887 25.012C271.607 24.956 271.343 24.876 271.095 24.772C270.855 24.66 270.647 24.528 270.471 24.376L270.783 23.692C270.975 23.844 271.183 23.972 271.407 24.076C271.631 24.172 271.859 24.244 272.091 24.292C272.323 24.34 272.559 24.364 272.799 24.364C273.255 24.364 273.599 24.28 273.831 24.112C274.063 23.944 274.179 23.716 274.179 23.428C274.179 23.204 274.103 23.028 273.951 22.9C273.799 22.764 273.559 22.66 273.231 22.588L272.139 22.348C271.635 22.244 271.259 22.064 271.011 21.808C270.771 21.552 270.651 21.22 270.651 20.812C270.651 20.452 270.743 20.144 270.927 19.888C271.119 19.624 271.387 19.42 271.731 19.276C272.075 19.132 272.475 19.06 272.931 19.06C273.203 19.06 273.463 19.088 273.711 19.144C273.959 19.2 274.191 19.284 274.407 19.396C274.631 19.5 274.823 19.632 274.983 19.792L274.659 20.476C274.507 20.332 274.335 20.212 274.143 20.116C273.951 20.012 273.751 19.936 273.543 19.888C273.343 19.832 273.139 19.804 272.931 19.804C272.483 19.804 272.143 19.892 271.911 20.068C271.679 20.244 271.563 20.476 271.563 20.764C271.563 20.988 271.635 21.172 271.779 21.316C271.923 21.46 272.147 21.564 272.451 21.628L273.543 21.856C274.063 21.968 274.451 22.148 274.707 22.396C274.971 22.636 275.103 22.964 275.103 23.38C275.103 23.732 275.007 24.04 274.815 24.304C274.623 24.56 274.351 24.76 273.999 24.904C273.655 25.04 273.247 25.108 272.775 25.108ZM279.212 25.108C278.596 25.108 278.064 24.988 277.616 24.748C277.176 24.5 276.832 24.152 276.584 23.704C276.344 23.256 276.224 22.72 276.224 22.096C276.224 21.488 276.344 20.96 276.584 20.512C276.824 20.056 277.152 19.7 277.568 19.444C277.992 19.188 278.48 19.06 279.032 19.06C279.56 19.06 280.012 19.176 280.388 19.408C280.764 19.64 281.052 19.968 281.252 20.392C281.46 20.816 281.564 21.324 281.564 21.916V22.288H276.968V21.652H280.916L280.724 21.808C280.724 21.168 280.58 20.672 280.292 20.32C280.012 19.96 279.6 19.78 279.056 19.78C278.648 19.78 278.3 19.876 278.012 20.068C277.732 20.252 277.52 20.512 277.376 20.848C277.232 21.176 277.16 21.56 277.16 22V22.072C277.16 22.56 277.236 22.972 277.388 23.308C277.548 23.644 277.784 23.9 278.096 24.076C278.408 24.244 278.78 24.328 279.212 24.328C279.556 24.328 279.888 24.276 280.208 24.172C280.536 24.06 280.844 23.88 281.132 23.632L281.468 24.316C281.204 24.556 280.868 24.748 280.46 24.892C280.052 25.036 279.636 25.108 279.212 25.108ZM282.815 25V23.776H284.039V25H282.815Z" fill="white"/>
</svg>
