<svg width="347" height="28" viewBox="0 0 347 28" fill="none" xmlns="http://www.w3.org/2000/svg">
<path d="M1.08 9V8.256L3.972 5.136C4.244 4.84 4.464 4.564 4.632 4.308C4.8 4.044 4.924 3.788 5.004 3.54C5.084 3.292 5.124 3.04 5.124 2.784C5.124 2.304 4.976 1.94 4.68 1.692C4.392 1.436 3.968 1.308 3.408 1.308C2.976 1.308 2.572 1.388 2.196 1.548C1.828 1.7 1.476 1.94 1.14 2.268L0.768 1.5C1.08 1.18 1.476 0.924 1.956 0.732C2.444 0.532 2.956 0.431999 3.492 0.431999C4.06 0.431999 4.54 0.52 4.932 0.696C5.324 0.872 5.62 1.132 5.82 1.476C6.02 1.812 6.12 2.224 6.12 2.712C6.12 2.968 6.088 3.22 6.024 3.468C5.968 3.708 5.876 3.952 5.748 4.2C5.628 4.44 5.472 4.688 5.28 4.944C5.096 5.2 4.872 5.464 4.608 5.736L2.064 8.436V8.16H6.468V9H1.08ZM10.9753 9.108C10.6153 9.108 10.2633 9.068 9.91931 8.988C9.57531 8.908 9.25131 8.792 8.94731 8.64C8.65131 8.488 8.38731 8.308 8.15531 8.1L8.52731 7.32C8.91131 7.632 9.29931 7.864 9.69131 8.016C10.0913 8.16 10.5153 8.232 10.9633 8.232C11.5553 8.232 12.0153 8.068 12.3433 7.74C12.6793 7.412 12.8473 6.98 12.8473 6.444C12.8473 5.892 12.6873 5.44 12.3673 5.088C12.0473 4.736 11.6073 4.56 11.0473 4.56C10.6393 4.56 10.2793 4.644 9.96731 4.812C9.66331 4.972 9.38731 5.224 9.13931 5.568H8.41931V0.539999H13.3273V1.38H9.39131V4.752H9.12731C9.33531 4.416 9.62331 4.16 9.99131 3.984C10.3593 3.8 10.7713 3.708 11.2273 3.708C11.7633 3.708 12.2233 3.82 12.6073 4.044C12.9993 4.268 13.2993 4.584 13.5073 4.992C13.7233 5.392 13.8313 5.86 13.8313 6.396C13.8313 6.924 13.7153 7.392 13.4833 7.8C13.2513 8.208 12.9233 8.528 12.4993 8.76C12.0753 8.992 11.5673 9.108 10.9753 9.108ZM17.9906 9.108C17.3506 9.108 16.8066 8.944 16.3586 8.616C15.9186 8.28 15.5866 7.788 15.3626 7.14C15.1386 6.492 15.0266 5.7 15.0266 4.764C15.0266 3.82 15.1386 3.028 15.3626 2.388C15.5866 1.74 15.9186 1.252 16.3586 0.924C16.8066 0.595999 17.3506 0.431999 17.9906 0.431999C18.6386 0.431999 19.1826 0.595999 19.6226 0.924C20.0626 1.252 20.3946 1.736 20.6186 2.376C20.8426 3.016 20.9546 3.808 20.9546 4.752C20.9546 5.696 20.8426 6.492 20.6186 7.14C20.3946 7.788 20.0626 8.28 19.6226 8.616C19.1826 8.944 18.6386 9.108 17.9906 9.108ZM17.9906 8.256C18.6626 8.256 19.1586 7.972 19.4786 7.404C19.8066 6.836 19.9706 5.952 19.9706 4.752C19.9706 3.552 19.8106 2.676 19.4906 2.124C19.1706 1.564 18.6706 1.284 17.9906 1.284C17.3266 1.284 16.8306 1.564 16.5026 2.124C16.1746 2.684 16.0106 3.56 16.0106 4.752C16.0106 5.952 16.1706 6.836 16.4906 7.404C16.8186 7.972 17.3186 8.256 17.9906 8.256ZM22.5219 9V3.168H23.4699V4.464H23.3379C23.4339 4.168 23.5739 3.916 23.7579 3.708C23.9499 3.492 24.1739 3.332 24.4299 3.228C24.6939 3.116 24.9819 3.06 25.2939 3.06C25.7899 3.06 26.1899 3.18 26.4939 3.42C26.8059 3.652 27.0139 4.016 27.1179 4.512H26.9379C27.0819 4.064 27.3379 3.712 27.7059 3.456C28.0819 3.192 28.5179 3.06 29.0139 3.06C29.4539 3.06 29.8139 3.144 30.0939 3.312C30.3819 3.48 30.5979 3.736 30.7419 4.08C30.8859 4.416 30.9579 4.844 30.9579 5.364V9H29.9859V5.412C29.9859 4.876 29.8939 4.484 29.7099 4.236C29.5259 3.98 29.2139 3.852 28.7739 3.852C28.4619 3.852 28.1859 3.928 27.9459 4.08C27.7139 4.232 27.5339 4.448 27.4059 4.728C27.2859 5 27.2259 5.324 27.2259 5.7V9H26.2539V5.412C26.2539 4.876 26.1579 4.484 25.9659 4.236C25.7819 3.98 25.4739 3.852 25.0419 3.852C24.7219 3.852 24.4459 3.928 24.2139 4.08C23.9819 4.232 23.8019 4.448 23.6739 4.728C23.5539 5 23.4939 5.324 23.4939 5.7V9H22.5219ZM34.5633 9.108C33.9713 9.108 33.5233 8.932 33.2193 8.58C32.9233 8.228 32.7753 7.724 32.7753 7.068V0.539999H33.7473V6.996C33.7473 7.276 33.7833 7.512 33.8553 7.704C33.9353 7.896 34.0513 8.04 34.2033 8.136C34.3553 8.232 34.5433 8.28 34.7673 8.28C34.8633 8.28 34.9553 8.276 35.0433 8.268C35.1393 8.252 35.2273 8.232 35.3073 8.208L35.2833 9.024C35.1553 9.048 35.0313 9.068 34.9113 9.084C34.7993 9.1 34.6833 9.108 34.5633 9.108ZM43.4041 9.108C42.5001 9.108 41.7361 8.936 41.1121 8.592C40.4961 8.248 40.0281 7.752 39.7081 7.104C39.3881 6.456 39.2281 5.68 39.2281 4.776C39.2281 3.88 39.3881 3.108 39.7081 2.46C40.0281 1.812 40.4881 1.312 41.0881 0.96C41.6881 0.608 42.4121 0.431999 43.2601 0.431999C43.6601 0.431999 44.0361 0.471999 44.3881 0.551999C44.7481 0.632 45.0801 0.752 45.3841 0.912C45.6961 1.064 45.9681 1.256 46.2001 1.488L45.8161 2.28C45.4321 1.944 45.0361 1.7 44.6281 1.548C44.2201 1.396 43.7601 1.32 43.2481 1.32C42.2801 1.32 41.5401 1.62 41.0281 2.22C40.5241 2.82 40.2721 3.672 40.2721 4.776C40.2721 5.896 40.5321 6.752 41.0521 7.344C41.5801 7.936 42.3721 8.232 43.4281 8.232C43.8121 8.232 44.1881 8.196 44.5561 8.124C44.9241 8.044 45.2721 7.936 45.6001 7.8L45.3841 8.364V5.376H43.2361V4.596H46.2361V8.508C46.0201 8.62 45.7521 8.724 45.4321 8.82C45.1121 8.908 44.7761 8.976 44.4241 9.024C44.0721 9.08 43.7321 9.108 43.4041 9.108ZM49.9031 9.108C49.3111 9.108 48.8631 8.932 48.5591 8.58C48.2631 8.228 48.1151 7.724 48.1151 7.068V0.539999H49.0871V6.996C49.0871 7.276 49.1231 7.512 49.1951 7.704C49.2751 7.896 49.3911 8.04 49.5431 8.136C49.6951 8.232 49.8831 8.28 50.1071 8.28C50.2031 8.28 50.2951 8.276 50.3831 8.268C50.4791 8.252 50.5671 8.232 50.6471 8.208L50.6231 9.024C50.4951 9.048 50.3711 9.068 50.2511 9.084C50.1391 9.1 50.0231 9.108 49.9031 9.108ZM53.5019 9.108C53.1019 9.108 52.7419 9.032 52.4219 8.88C52.1099 8.72 51.8619 8.504 51.6779 8.232C51.4939 7.96 51.4019 7.656 51.4019 7.32C51.4019 6.888 51.5099 6.548 51.7259 6.3C51.9499 6.052 52.3139 5.876 52.8179 5.772C53.3299 5.668 54.0259 5.616 54.9059 5.616H55.4459V6.252H54.9179C54.4299 6.252 54.0219 6.268 53.6939 6.3C53.3659 6.332 53.1059 6.388 52.9139 6.468C52.7219 6.548 52.5859 6.652 52.5059 6.78C52.4259 6.908 52.3859 7.068 52.3859 7.26C52.3859 7.588 52.4979 7.856 52.7219 8.064C52.9539 8.272 53.2659 8.376 53.6579 8.376C53.9779 8.376 54.2579 8.3 54.4979 8.148C54.7459 7.996 54.9379 7.788 55.0739 7.524C55.2179 7.26 55.2899 6.956 55.2899 6.612V5.244C55.2899 4.748 55.1899 4.392 54.9899 4.176C54.7899 3.952 54.4619 3.84 54.0059 3.84C53.6539 3.84 53.3139 3.892 52.9859 3.996C52.6579 4.092 52.3219 4.252 51.9779 4.476L51.6419 3.768C51.8499 3.624 52.0859 3.5 52.3499 3.396C52.6139 3.284 52.8899 3.2 53.1779 3.144C53.4659 3.088 53.7419 3.06 54.0059 3.06C54.5099 3.06 54.9259 3.144 55.2539 3.312C55.5819 3.472 55.8259 3.72 55.9859 4.056C56.1459 4.384 56.2259 4.808 56.2259 5.328V9H55.3139V7.644H55.4219C55.3579 7.948 55.2339 8.208 55.0499 8.424C54.8739 8.64 54.6539 8.808 54.3899 8.928C54.1259 9.048 53.8299 9.108 53.5019 9.108ZM59.9972 9.108C59.6932 9.108 59.3972 9.076 59.1092 9.012C58.8292 8.956 58.5652 8.876 58.3172 8.772C58.0772 8.66 57.8692 8.528 57.6932 8.376L58.0052 7.692C58.1972 7.844 58.4052 7.972 58.6292 8.076C58.8532 8.172 59.0812 8.244 59.3132 8.292C59.5452 8.34 59.7812 8.364 60.0212 8.364C60.4772 8.364 60.8212 8.28 61.0532 8.112C61.2852 7.944 61.4012 7.716 61.4012 7.428C61.4012 7.204 61.3252 7.028 61.1732 6.9C61.0212 6.764 60.7812 6.66 60.4532 6.588L59.3612 6.348C58.8572 6.244 58.4812 6.064 58.2332 5.808C57.9932 5.552 57.8732 5.22 57.8732 4.812C57.8732 4.452 57.9652 4.144 58.1492 3.888C58.3412 3.624 58.6092 3.42 58.9532 3.276C59.2972 3.132 59.6972 3.06 60.1532 3.06C60.4252 3.06 60.6852 3.088 60.9332 3.144C61.1812 3.2 61.4132 3.284 61.6292 3.396C61.8532 3.5 62.0452 3.632 62.2052 3.792L61.8812 4.476C61.7292 4.332 61.5572 4.212 61.3652 4.116C61.1732 4.012 60.9732 3.936 60.7652 3.888C60.5652 3.832 60.3612 3.804 60.1532 3.804C59.7052 3.804 59.3652 3.892 59.1332 4.068C58.9012 4.244 58.7852 4.476 58.7852 4.764C58.7852 4.988 58.8572 5.172 59.0012 5.316C59.1452 5.46 59.3692 5.564 59.6732 5.628L60.7652 5.856C61.2852 5.968 61.6732 6.148 61.9292 6.396C62.1932 6.636 62.3252 6.964 62.3252 7.38C62.3252 7.732 62.2292 8.04 62.0372 8.304C61.8452 8.56 61.5732 8.76 61.2212 8.904C60.8772 9.04 60.4692 9.108 59.9972 9.108ZM65.7745 9.108C65.4705 9.108 65.1745 9.076 64.8865 9.012C64.6065 8.956 64.3425 8.876 64.0945 8.772C63.8545 8.66 63.6465 8.528 63.4705 8.376L63.7825 7.692C63.9745 7.844 64.1825 7.972 64.4065 8.076C64.6305 8.172 64.8585 8.244 65.0905 8.292C65.3225 8.34 65.5585 8.364 65.7985 8.364C66.2545 8.364 66.5985 8.28 66.8305 8.112C67.0625 7.944 67.1785 7.716 67.1785 7.428C67.1785 7.204 67.1025 7.028 66.9505 6.9C66.7985 6.764 66.5585 6.66 66.2305 6.588L65.1385 6.348C64.6345 6.244 64.2585 6.064 64.0105 5.808C63.7705 5.552 63.6505 5.22 63.6505 4.812C63.6505 4.452 63.7425 4.144 63.9265 3.888C64.1185 3.624 64.3865 3.42 64.7305 3.276C65.0745 3.132 65.4745 3.06 65.9305 3.06C66.2025 3.06 66.4625 3.088 66.7105 3.144C66.9585 3.2 67.1905 3.284 67.4065 3.396C67.6305 3.5 67.8225 3.632 67.9825 3.792L67.6585 4.476C67.5065 4.332 67.3345 4.212 67.1425 4.116C66.9505 4.012 66.7505 3.936 66.5425 3.888C66.3425 3.832 66.1385 3.804 65.9305 3.804C65.4825 3.804 65.1425 3.892 64.9105 4.068C64.6785 4.244 64.5625 4.476 64.5625 4.764C64.5625 4.988 64.6345 5.172 64.7785 5.316C64.9225 5.46 65.1465 5.564 65.4505 5.628L66.5425 5.856C67.0625 5.968 67.4505 6.148 67.7065 6.396C67.9705 6.636 68.1025 6.964 68.1025 7.38C68.1025 7.732 68.0065 8.04 67.8145 8.304C67.6225 8.56 67.3505 8.76 66.9985 8.904C66.6545 9.04 66.2465 9.108 65.7745 9.108ZM75.0779 9L72.1139 0.539999H73.1459L75.7499 8.16H75.3299L77.9819 0.539999H78.7739L81.3899 8.16H81.0179L83.6339 0.539999H84.6179L81.6539 9H80.7779L78.2339 1.68H78.4979L75.9299 9H75.0779ZM85.7529 1.716V0.624H86.9529V1.716H85.7529ZM85.8729 9V3.168H86.8449V9H85.8729ZM91.002 9.108C90.314 9.108 89.798 8.924 89.454 8.556C89.11 8.188 88.938 7.664 88.938 6.984V3.924H87.798V3.168H88.938V1.38H89.91V3.168H91.758V3.924H89.91V6.888C89.91 7.344 90.006 7.692 90.198 7.932C90.39 8.164 90.702 8.28 91.134 8.28C91.262 8.28 91.39 8.264 91.518 8.232C91.646 8.2 91.762 8.168 91.866 8.136L92.034 8.88C91.93 8.936 91.778 8.988 91.578 9.036C91.378 9.084 91.186 9.108 91.002 9.108ZM92.8573 9V0.539999H93.8293V4.464H93.6733C93.8413 4 94.1133 3.652 94.4893 3.42C94.8733 3.18 95.3133 3.06 95.8093 3.06C96.2733 3.06 96.6573 3.144 96.9613 3.312C97.2733 3.48 97.5053 3.736 97.6573 4.08C97.8093 4.416 97.8853 4.844 97.8853 5.364V9H96.9133V5.424C96.9133 5.064 96.8653 4.768 96.7693 4.536C96.6813 4.304 96.5373 4.132 96.3373 4.02C96.1453 3.908 95.8933 3.852 95.5813 3.852C95.2293 3.852 94.9213 3.928 94.6573 4.08C94.3933 4.232 94.1893 4.444 94.0453 4.716C93.9013 4.988 93.8293 5.308 93.8293 5.676V9H92.8573ZM102.892 9V0.539999H108.124V1.368H103.876V4.32H107.884V5.148H103.876V9H102.892ZM111.122 9.108C110.53 9.108 110.082 8.932 109.778 8.58C109.482 8.228 109.334 7.724 109.334 7.068V0.539999H110.306V6.996C110.306 7.276 110.342 7.512 110.414 7.704C110.494 7.896 110.61 8.04 110.762 8.136C110.914 8.232 111.102 8.28 111.326 8.28C111.422 8.28 111.514 8.276 111.602 8.268C111.698 8.252 111.786 8.232 111.866 8.208L111.842 9.024C111.714 9.048 111.59 9.068 111.47 9.084C111.358 9.1 111.242 9.108 111.122 9.108ZM114.721 9.108C114.321 9.108 113.961 9.032 113.641 8.88C113.329 8.72 113.081 8.504 112.897 8.232C112.713 7.96 112.621 7.656 112.621 7.32C112.621 6.888 112.729 6.548 112.945 6.3C113.169 6.052 113.533 5.876 114.037 5.772C114.549 5.668 115.245 5.616 116.125 5.616H116.665V6.252H116.137C115.649 6.252 115.241 6.268 114.913 6.3C114.585 6.332 114.325 6.388 114.133 6.468C113.941 6.548 113.805 6.652 113.725 6.78C113.645 6.908 113.605 7.068 113.605 7.26C113.605 7.588 113.717 7.856 113.941 8.064C114.173 8.272 114.485 8.376 114.877 8.376C115.197 8.376 115.477 8.3 115.717 8.148C115.965 7.996 116.157 7.788 116.293 7.524C116.437 7.26 116.509 6.956 116.509 6.612V5.244C116.509 4.748 116.409 4.392 116.209 4.176C116.009 3.952 115.681 3.84 115.225 3.84C114.873 3.84 114.533 3.892 114.205 3.996C113.877 4.092 113.541 4.252 113.197 4.476L112.861 3.768C113.069 3.624 113.305 3.5 113.569 3.396C113.833 3.284 114.109 3.2 114.397 3.144C114.685 3.088 114.961 3.06 115.225 3.06C115.729 3.06 116.145 3.144 116.473 3.312C116.801 3.472 117.045 3.72 117.205 4.056C117.365 4.384 117.445 4.808 117.445 5.328V9H116.533V7.644H116.641C116.577 7.948 116.453 8.208 116.269 8.424C116.093 8.64 115.873 8.808 115.609 8.928C115.345 9.048 115.049 9.108 114.721 9.108ZM121.588 9.108C120.9 9.108 120.384 8.924 120.04 8.556C119.696 8.188 119.524 7.664 119.524 6.984V3.924H118.384V3.168H119.524V1.38H120.496V3.168H122.344V3.924H120.496V6.888C120.496 7.344 120.592 7.692 120.784 7.932C120.976 8.164 121.288 8.28 121.72 8.28C121.848 8.28 121.976 8.264 122.104 8.232C122.232 8.2 122.348 8.168 122.452 8.136L122.62 8.88C122.516 8.936 122.364 8.988 122.164 9.036C121.964 9.084 121.772 9.108 121.588 9.108ZM126.657 9V0.539999H127.641V8.136H131.949V9H126.657ZM132.921 1.716V0.624H134.121V1.716H132.921ZM133.041 9V3.168H134.013V9H133.041ZM138.05 9.108C137.53 9.108 137.074 8.984 136.682 8.736C136.298 8.488 135.998 8.14 135.782 7.692C135.574 7.236 135.47 6.7 135.47 6.084C135.47 5.46 135.574 4.924 135.782 4.476C135.998 4.02 136.298 3.672 136.682 3.432C137.074 3.184 137.53 3.06 138.05 3.06C138.578 3.06 139.03 3.192 139.406 3.456C139.782 3.72 140.034 4.076 140.162 4.524H140.03V0.539999H141.002V9H140.054V7.608H140.174C140.046 8.064 139.79 8.428 139.406 8.7C139.03 8.972 138.578 9.108 138.05 9.108ZM138.254 8.328C138.806 8.328 139.242 8.136 139.562 7.752C139.89 7.36 140.054 6.804 140.054 6.084C140.054 5.356 139.89 4.8 139.562 4.416C139.242 4.032 138.806 3.84 138.254 3.84C137.71 3.84 137.274 4.032 136.946 4.416C136.618 4.8 136.454 5.356 136.454 6.084C136.454 6.804 136.618 7.36 136.946 7.752C137.274 8.136 137.71 8.328 138.254 8.328ZM143.174 10.368L142.718 10.02C142.862 9.868 142.97 9.724 143.042 9.588C143.122 9.46 143.174 9.328 143.198 9.192C143.23 9.064 143.246 8.932 143.246 8.796L143.462 9H142.67V7.776H143.894V8.64C143.894 8.856 143.87 9.06 143.822 9.252C143.782 9.452 143.71 9.644 143.606 9.828C143.502 10.012 143.358 10.192 143.174 10.368ZM148.771 9V0.539999H149.755V8.136H154.063V9H148.771ZM157.724 9.108C157.108 9.108 156.576 8.988 156.128 8.748C155.688 8.5 155.344 8.152 155.096 7.704C154.856 7.256 154.736 6.72 154.736 6.096C154.736 5.488 154.856 4.96 155.096 4.512C155.336 4.056 155.664 3.7 156.08 3.444C156.504 3.188 156.992 3.06 157.544 3.06C158.072 3.06 158.524 3.176 158.9 3.408C159.276 3.64 159.564 3.968 159.764 4.392C159.972 4.816 160.076 5.324 160.076 5.916V6.288H155.48V5.652H159.428L159.236 5.808C159.236 5.168 159.092 4.672 158.804 4.32C158.524 3.96 158.112 3.78 157.568 3.78C157.16 3.78 156.812 3.876 156.524 4.068C156.244 4.252 156.032 4.512 155.888 4.848C155.744 5.176 155.672 5.56 155.672 6V6.072C155.672 6.56 155.748 6.972 155.9 7.308C156.06 7.644 156.296 7.9 156.608 8.076C156.92 8.244 157.292 8.328 157.724 8.328C158.068 8.328 158.4 8.276 158.72 8.172C159.048 8.06 159.356 7.88 159.644 7.632L159.98 8.316C159.716 8.556 159.38 8.748 158.972 8.892C158.564 9.036 158.148 9.108 157.724 9.108ZM163.318 9.108C162.918 9.108 162.558 9.032 162.238 8.88C161.926 8.72 161.678 8.504 161.494 8.232C161.31 7.96 161.218 7.656 161.218 7.32C161.218 6.888 161.326 6.548 161.542 6.3C161.766 6.052 162.13 5.876 162.634 5.772C163.146 5.668 163.842 5.616 164.722 5.616H165.262V6.252H164.734C164.246 6.252 163.838 6.268 163.51 6.3C163.182 6.332 162.922 6.388 162.73 6.468C162.538 6.548 162.402 6.652 162.322 6.78C162.242 6.908 162.202 7.068 162.202 7.26C162.202 7.588 162.314 7.856 162.538 8.064C162.77 8.272 163.082 8.376 163.474 8.376C163.794 8.376 164.074 8.3 164.314 8.148C164.562 7.996 164.754 7.788 164.89 7.524C165.034 7.26 165.106 6.956 165.106 6.612V5.244C165.106 4.748 165.006 4.392 164.806 4.176C164.606 3.952 164.278 3.84 163.822 3.84C163.47 3.84 163.13 3.892 162.802 3.996C162.474 4.092 162.138 4.252 161.794 4.476L161.458 3.768C161.666 3.624 161.902 3.5 162.166 3.396C162.43 3.284 162.706 3.2 162.994 3.144C163.282 3.088 163.558 3.06 163.822 3.06C164.326 3.06 164.742 3.144 165.07 3.312C165.398 3.472 165.642 3.72 165.802 4.056C165.962 4.384 166.042 4.808 166.042 5.328V9H165.13V7.644H165.238C165.174 7.948 165.05 8.208 164.866 8.424C164.69 8.64 164.47 8.808 164.206 8.928C163.942 9.048 163.646 9.108 163.318 9.108ZM167.846 9V0.539999H168.818V5.76H168.842L171.542 3.168H172.778L169.574 6.24V5.712L173.03 9H171.794L168.842 6.264H168.818V9H167.846ZM173.446 6.204V5.4H176.806V6.204H173.446ZM178.712 9V0.539999H182.06C182.668 0.539999 183.18 0.64 183.596 0.84C184.02 1.032 184.34 1.32 184.556 1.704C184.772 2.08 184.88 2.54 184.88 3.084C184.88 3.612 184.772 4.068 184.556 4.452C184.34 4.836 184.02 5.128 183.596 5.328C183.18 5.528 182.668 5.628 182.06 5.628H179.696V9H178.712ZM179.696 4.8H181.94C182.588 4.8 183.076 4.656 183.404 4.368C183.74 4.072 183.908 3.644 183.908 3.084C183.908 2.516 183.74 2.088 183.404 1.8C183.076 1.504 182.588 1.356 181.94 1.356H179.696V4.8ZM186.057 9V3.168H187.005V4.548H186.885C187.021 4.076 187.257 3.72 187.593 3.48C187.929 3.232 188.373 3.088 188.925 3.048L189.273 3.012L189.345 3.852L188.733 3.924C188.189 3.972 187.769 4.148 187.473 4.452C187.185 4.748 187.041 5.156 187.041 5.676V9H186.057ZM192.711 9.108C192.143 9.108 191.651 8.984 191.235 8.736C190.819 8.488 190.495 8.14 190.263 7.692C190.039 7.236 189.927 6.7 189.927 6.084C189.927 5.468 190.039 4.936 190.263 4.488C190.495 4.032 190.819 3.68 191.235 3.432C191.651 3.184 192.143 3.06 192.711 3.06C193.279 3.06 193.771 3.184 194.187 3.432C194.603 3.68 194.923 4.032 195.147 4.488C195.379 4.936 195.495 5.468 195.495 6.084C195.495 6.7 195.379 7.236 195.147 7.692C194.923 8.14 194.603 8.488 194.187 8.736C193.771 8.984 193.279 9.108 192.711 9.108ZM192.711 8.328C193.263 8.328 193.699 8.136 194.019 7.752C194.347 7.36 194.511 6.8 194.511 6.072C194.511 5.352 194.347 4.8 194.019 4.416C193.699 4.032 193.263 3.84 192.711 3.84C192.167 3.84 191.731 4.032 191.403 4.416C191.075 4.8 190.911 5.352 190.911 6.072C190.911 6.8 191.075 7.36 191.403 7.752C191.731 8.136 192.167 8.328 192.711 8.328ZM199.379 9.108C198.811 9.108 198.319 8.984 197.903 8.736C197.487 8.488 197.163 8.14 196.931 7.692C196.707 7.236 196.595 6.7 196.595 6.084C196.595 5.468 196.707 4.936 196.931 4.488C197.163 4.032 197.487 3.68 197.903 3.432C198.319 3.184 198.811 3.06 199.379 3.06C199.947 3.06 200.439 3.184 200.855 3.432C201.271 3.68 201.591 4.032 201.815 4.488C202.047 4.936 202.163 5.468 202.163 6.084C202.163 6.7 202.047 7.236 201.815 7.692C201.591 8.14 201.271 8.488 200.855 8.736C200.439 8.984 199.947 9.108 199.379 9.108ZM199.379 8.328C199.931 8.328 200.367 8.136 200.687 7.752C201.015 7.36 201.179 6.8 201.179 6.072C201.179 5.352 201.015 4.8 200.687 4.416C200.367 4.032 199.931 3.84 199.379 3.84C198.835 3.84 198.399 4.032 198.071 4.416C197.743 4.8 197.579 5.352 197.579 6.072C197.579 6.8 197.743 7.36 198.071 7.752C198.399 8.136 198.835 8.328 199.379 8.328ZM203.876 9V3.924H202.724V3.168H204.14L203.876 3.42V2.964C203.876 2.188 204.068 1.6 204.452 1.2C204.844 0.799999 205.444 0.575999 206.252 0.528L206.72 0.504L206.804 1.248L206.252 1.284C205.924 1.308 205.656 1.38 205.448 1.5C205.24 1.62 205.088 1.792 204.992 2.016C204.896 2.24 204.848 2.516 204.848 2.844V3.348L204.704 3.168H206.528V3.924H204.848V9H203.876ZM213.51 9.108C213.07 9.108 212.654 9.068 212.262 8.988C211.878 8.908 211.522 8.796 211.194 8.652C210.874 8.5 210.582 8.316 210.318 8.1L210.666 7.308C210.938 7.508 211.214 7.68 211.494 7.824C211.782 7.96 212.09 8.064 212.418 8.136C212.754 8.2 213.118 8.232 213.51 8.232C214.23 8.232 214.762 8.1 215.106 7.836C215.458 7.564 215.634 7.208 215.634 6.768C215.634 6.536 215.578 6.336 215.466 6.168C215.362 6 215.186 5.856 214.938 5.736C214.698 5.616 214.382 5.516 213.99 5.436L212.742 5.184C211.99 5.024 211.426 4.764 211.05 4.404C210.682 4.036 210.498 3.548 210.498 2.94C210.498 2.436 210.626 1.996 210.882 1.62C211.146 1.244 211.51 0.951999 211.974 0.744C212.446 0.536 212.982 0.431999 213.582 0.431999C213.966 0.431999 214.33 0.471999 214.674 0.551999C215.018 0.632 215.334 0.752 215.622 0.912C215.918 1.064 216.178 1.252 216.402 1.476L216.054 2.244C215.694 1.916 215.314 1.68 214.914 1.536C214.514 1.384 214.066 1.308 213.57 1.308C213.146 1.308 212.778 1.372 212.466 1.5C212.162 1.628 211.922 1.816 211.746 2.064C211.578 2.304 211.494 2.584 211.494 2.904C211.494 3.288 211.61 3.592 211.842 3.816C212.082 4.04 212.47 4.204 213.006 4.308L214.254 4.572C215.062 4.74 215.658 4.996 216.042 5.34C216.434 5.676 216.63 6.136 216.63 6.72C216.63 7.184 216.502 7.6 216.246 7.968C215.998 8.328 215.638 8.608 215.166 8.808C214.702 9.008 214.15 9.108 213.51 9.108ZM220.653 9.108C220.037 9.108 219.505 8.988 219.057 8.748C218.617 8.5 218.273 8.152 218.025 7.704C217.785 7.256 217.665 6.72 217.665 6.096C217.665 5.488 217.785 4.96 218.025 4.512C218.265 4.056 218.593 3.7 219.009 3.444C219.433 3.188 219.921 3.06 220.473 3.06C221.001 3.06 221.453 3.176 221.829 3.408C222.205 3.64 222.493 3.968 222.693 4.392C222.901 4.816 223.005 5.324 223.005 5.916V6.288H218.409V5.652H222.357L222.165 5.808C222.165 5.168 222.021 4.672 221.733 4.32C221.453 3.96 221.041 3.78 220.497 3.78C220.089 3.78 219.741 3.876 219.453 4.068C219.173 4.252 218.961 4.512 218.817 4.848C218.673 5.176 218.601 5.56 218.601 6V6.072C218.601 6.56 218.677 6.972 218.829 7.308C218.989 7.644 219.225 7.9 219.537 8.076C219.849 8.244 220.221 8.328 220.653 8.328C220.997 8.328 221.329 8.276 221.649 8.172C221.977 8.06 222.285 7.88 222.573 7.632L222.909 8.316C222.645 8.556 222.309 8.748 221.901 8.892C221.493 9.036 221.077 9.108 220.653 9.108ZM226.248 9.108C225.848 9.108 225.488 9.032 225.168 8.88C224.856 8.72 224.608 8.504 224.424 8.232C224.24 7.96 224.148 7.656 224.148 7.32C224.148 6.888 224.256 6.548 224.472 6.3C224.696 6.052 225.06 5.876 225.564 5.772C226.076 5.668 226.772 5.616 227.652 5.616H228.192V6.252H227.664C227.176 6.252 226.768 6.268 226.44 6.3C226.112 6.332 225.852 6.388 225.66 6.468C225.468 6.548 225.332 6.652 225.252 6.78C225.172 6.908 225.132 7.068 225.132 7.26C225.132 7.588 225.244 7.856 225.468 8.064C225.7 8.272 226.012 8.376 226.404 8.376C226.724 8.376 227.004 8.3 227.244 8.148C227.492 7.996 227.684 7.788 227.82 7.524C227.964 7.26 228.036 6.956 228.036 6.612V5.244C228.036 4.748 227.936 4.392 227.736 4.176C227.536 3.952 227.208 3.84 226.752 3.84C226.4 3.84 226.06 3.892 225.732 3.996C225.404 4.092 225.068 4.252 224.724 4.476L224.388 3.768C224.596 3.624 224.832 3.5 225.096 3.396C225.36 3.284 225.636 3.2 225.924 3.144C226.212 3.088 226.488 3.06 226.752 3.06C227.256 3.06 227.672 3.144 228 3.312C228.328 3.472 228.572 3.72 228.732 4.056C228.892 4.384 228.972 4.808 228.972 5.328V9H228.06V7.644H228.168C228.104 7.948 227.98 8.208 227.796 8.424C227.62 8.64 227.4 8.808 227.136 8.928C226.872 9.048 226.576 9.108 226.248 9.108ZM232.563 9.108C231.971 9.108 231.523 8.932 231.219 8.58C230.923 8.228 230.775 7.724 230.775 7.068V0.539999H231.747V6.996C231.747 7.276 231.783 7.512 231.855 7.704C231.935 7.896 232.051 8.04 232.203 8.136C232.355 8.232 232.543 8.28 232.767 8.28C232.863 8.28 232.955 8.276 233.043 8.268C233.139 8.252 233.227 8.232 233.307 8.208L233.283 9.024C233.155 9.048 233.031 9.068 232.911 9.084C232.799 9.1 232.683 9.108 232.563 9.108ZM234.206 1.716V0.624H235.406V1.716H234.206ZM234.326 9V3.168H235.298V9H234.326ZM237.115 9V3.168H238.063V4.464H237.931C238.099 4 238.371 3.652 238.747 3.42C239.131 3.18 239.571 3.06 240.067 3.06C240.531 3.06 240.915 3.144 241.219 3.312C241.531 3.472 241.763 3.724 241.915 4.068C242.067 4.412 242.143 4.844 242.143 5.364V9H241.171V5.424C241.171 5.064 241.123 4.768 241.027 4.536C240.939 4.304 240.795 4.132 240.595 4.02C240.403 3.908 240.151 3.852 239.839 3.852C239.487 3.852 239.179 3.928 238.915 4.08C238.651 4.232 238.447 4.444 238.303 4.716C238.159 4.988 238.087 5.308 238.087 5.676V9H237.115ZM246.515 11.268C246.011 11.268 245.535 11.2 245.087 11.064C244.647 10.936 244.255 10.74 243.911 10.476L244.235 9.768C244.475 9.936 244.711 10.072 244.943 10.176C245.183 10.288 245.427 10.368 245.675 10.416C245.931 10.464 246.195 10.488 246.467 10.488C247.035 10.488 247.463 10.336 247.751 10.032C248.047 9.728 248.195 9.288 248.195 8.712V7.356H248.315C248.195 7.82 247.939 8.188 247.547 8.46C247.163 8.732 246.711 8.868 246.191 8.868C245.655 8.868 245.191 8.748 244.799 8.508C244.407 8.26 244.103 7.916 243.887 7.476C243.679 7.036 243.575 6.528 243.575 5.952C243.575 5.376 243.679 4.872 243.887 4.44C244.103 4 244.407 3.66 244.799 3.42C245.191 3.18 245.655 3.06 246.191 3.06C246.719 3.06 247.175 3.196 247.559 3.468C247.943 3.732 248.191 4.092 248.303 4.548H248.195V3.168H249.143V8.58C249.143 9.172 249.043 9.668 248.843 10.068C248.651 10.468 248.359 10.768 247.967 10.968C247.575 11.168 247.091 11.268 246.515 11.268ZM246.371 8.076C246.931 8.076 247.375 7.884 247.703 7.5C248.031 7.116 248.195 6.6 248.195 5.952C248.195 5.304 248.031 4.792 247.703 4.416C247.375 4.032 246.931 3.84 246.371 3.84C245.819 3.84 245.379 4.032 245.051 4.416C244.723 4.792 244.559 5.304 244.559 5.952C244.559 6.6 244.723 7.116 245.051 7.5C245.379 7.884 245.819 8.076 246.371 8.076ZM254.181 9V0.539999H259.413V1.368H255.165V4.32H259.173V5.148H255.165V9H254.181ZM260.503 1.716V0.624H261.703V1.716H260.503ZM260.623 9V3.168H261.595V9H260.623ZM263.412 9V3.168H264.36V4.548H264.24C264.376 4.076 264.612 3.72 264.948 3.48C265.284 3.232 265.728 3.088 266.28 3.048L266.628 3.012L266.7 3.852L266.088 3.924C265.544 3.972 265.124 4.148 264.828 4.452C264.54 4.748 264.396 5.156 264.396 5.676V9H263.412ZM269.622 9.108C269.318 9.108 269.022 9.076 268.734 9.012C268.454 8.956 268.19 8.876 267.942 8.772C267.702 8.66 267.494 8.528 267.318 8.376L267.63 7.692C267.822 7.844 268.03 7.972 268.254 8.076C268.478 8.172 268.706 8.244 268.938 8.292C269.17 8.34 269.406 8.364 269.646 8.364C270.102 8.364 270.446 8.28 270.678 8.112C270.91 7.944 271.026 7.716 271.026 7.428C271.026 7.204 270.95 7.028 270.798 6.9C270.646 6.764 270.406 6.66 270.078 6.588L268.986 6.348C268.482 6.244 268.106 6.064 267.858 5.808C267.618 5.552 267.498 5.22 267.498 4.812C267.498 4.452 267.59 4.144 267.774 3.888C267.966 3.624 268.234 3.42 268.578 3.276C268.922 3.132 269.322 3.06 269.778 3.06C270.05 3.06 270.31 3.088 270.558 3.144C270.806 3.2 271.038 3.284 271.254 3.396C271.478 3.5 271.67 3.632 271.83 3.792L271.506 4.476C271.354 4.332 271.182 4.212 270.99 4.116C270.798 4.012 270.598 3.936 270.39 3.888C270.19 3.832 269.986 3.804 269.778 3.804C269.33 3.804 268.99 3.892 268.758 4.068C268.526 4.244 268.41 4.476 268.41 4.764C268.41 4.988 268.482 5.172 268.626 5.316C268.77 5.46 268.994 5.564 269.298 5.628L270.39 5.856C270.91 5.968 271.298 6.148 271.554 6.396C271.818 6.636 271.95 6.964 271.95 7.38C271.95 7.732 271.854 8.04 271.662 8.304C271.47 8.56 271.198 8.76 270.846 8.904C270.502 9.04 270.094 9.108 269.622 9.108ZM275.713 9.108C275.025 9.108 274.509 8.924 274.165 8.556C273.821 8.188 273.649 7.664 273.649 6.984V3.924H272.509V3.168H273.649V1.38H274.621V3.168H276.469V3.924H274.621V6.888C274.621 7.344 274.717 7.692 274.909 7.932C275.101 8.164 275.413 8.28 275.845 8.28C275.973 8.28 276.101 8.264 276.229 8.232C276.357 8.2 276.473 8.168 276.577 8.136L276.745 8.88C276.641 8.936 276.489 8.988 276.289 9.036C276.089 9.084 275.897 9.108 275.713 9.108ZM282.858 9V1.392H279.786V0.539999H286.926V1.392H283.854V9H282.858ZM287.749 1.716V0.624H288.949V1.716H287.749ZM287.869 9V3.168H288.841V9H287.869ZM290.682 9V3.168H291.63V4.464H291.498C291.594 4.168 291.734 3.916 291.918 3.708C292.11 3.492 292.334 3.332 292.59 3.228C292.854 3.116 293.142 3.06 293.454 3.06C293.95 3.06 294.35 3.18 294.654 3.42C294.966 3.652 295.174 4.016 295.278 4.512H295.098C295.242 4.064 295.498 3.712 295.866 3.456C296.242 3.192 296.678 3.06 297.174 3.06C297.614 3.06 297.974 3.144 298.254 3.312C298.542 3.48 298.758 3.736 298.902 4.08C299.046 4.416 299.118 4.844 299.118 5.364V9H298.146V5.412C298.146 4.876 298.054 4.484 297.87 4.236C297.686 3.98 297.374 3.852 296.934 3.852C296.622 3.852 296.346 3.928 296.106 4.08C295.874 4.232 295.694 4.448 295.566 4.728C295.446 5 295.386 5.324 295.386 5.7V9H294.414V5.412C294.414 4.876 294.318 4.484 294.126 4.236C293.942 3.98 293.634 3.852 293.202 3.852C292.882 3.852 292.606 3.928 292.374 4.08C292.142 4.232 291.962 4.448 291.834 4.728C291.714 5 291.654 5.324 291.654 5.7V9H290.682ZM303.563 9.108C302.947 9.108 302.415 8.988 301.967 8.748C301.527 8.5 301.183 8.152 300.935 7.704C300.695 7.256 300.575 6.72 300.575 6.096C300.575 5.488 300.695 4.96 300.935 4.512C301.175 4.056 301.503 3.7 301.919 3.444C302.343 3.188 302.831 3.06 303.383 3.06C303.911 3.06 304.363 3.176 304.739 3.408C305.115 3.64 305.403 3.968 305.603 4.392C305.811 4.816 305.915 5.324 305.915 5.916V6.288H301.319V5.652H305.267L305.075 5.808C305.075 5.168 304.931 4.672 304.643 4.32C304.363 3.96 303.951 3.78 303.407 3.78C302.999 3.78 302.651 3.876 302.363 4.068C302.083 4.252 301.871 4.512 301.727 4.848C301.583 5.176 301.511 5.56 301.511 6V6.072C301.511 6.56 301.587 6.972 301.739 7.308C301.899 7.644 302.135 7.9 302.447 8.076C302.759 8.244 303.131 8.328 303.563 8.328C303.907 8.328 304.239 8.276 304.559 8.172C304.887 8.06 305.195 7.88 305.483 7.632L305.819 8.316C305.555 8.556 305.219 8.748 304.811 8.892C304.403 9.036 303.987 9.108 303.563 9.108ZM310.536 9V0.539999H311.52V9H310.536ZM313.475 9V3.168H314.423V4.464H314.291C314.459 4 314.731 3.652 315.107 3.42C315.491 3.18 315.931 3.06 316.427 3.06C316.891 3.06 317.275 3.144 317.579 3.312C317.891 3.472 318.123 3.724 318.275 4.068C318.427 4.412 318.503 4.844 318.503 5.364V9H317.531V5.424C317.531 5.064 317.483 4.768 317.387 4.536C317.299 4.304 317.155 4.132 316.955 4.02C316.763 3.908 316.511 3.852 316.199 3.852C315.847 3.852 315.539 3.928 315.275 4.08C315.011 4.232 314.807 4.444 314.663 4.716C314.519 4.988 314.447 5.308 314.447 5.676V9H313.475ZM1.044 25V16.54H2.028V25H1.044ZM3.98231 25V19.168H4.93031V20.464H4.79831C4.96631 20 5.23831 19.652 5.61431 19.42C5.99831 19.18 6.43831 19.06 6.93431 19.06C7.39831 19.06 7.78231 19.144 8.08631 19.312C8.39831 19.472 8.63031 19.724 8.78231 20.068C8.93431 20.412 9.01031 20.844 9.01031 21.364V25H8.03831V21.424C8.03831 21.064 7.99031 20.768 7.89431 20.536C7.80631 20.304 7.66231 20.132 7.46231 20.02C7.27031 19.908 7.01831 19.852 6.70631 19.852C6.35431 19.852 6.04631 19.928 5.78231 20.08C5.51831 20.232 5.31431 20.444 5.17031 20.716C5.02631 20.988 4.95431 21.308 4.95431 21.676V25H3.98231ZM13.0226 25.108C12.5026 25.108 12.0466 24.984 11.6546 24.736C11.2706 24.488 10.9706 24.14 10.7546 23.692C10.5466 23.236 10.4426 22.7 10.4426 22.084C10.4426 21.46 10.5466 20.924 10.7546 20.476C10.9706 20.02 11.2706 19.672 11.6546 19.432C12.0466 19.184 12.5026 19.06 13.0226 19.06C13.5506 19.06 14.0026 19.192 14.3786 19.456C14.7546 19.72 15.0066 20.076 15.1346 20.524H15.0026V16.54H15.9746V25H15.0266V23.608H15.1466C15.0186 24.064 14.7626 24.428 14.3786 24.7C14.0026 24.972 13.5506 25.108 13.0226 25.108ZM13.2266 24.328C13.7786 24.328 14.2146 24.136 14.5346 23.752C14.8626 23.36 15.0266 22.804 15.0266 22.084C15.0266 21.356 14.8626 20.8 14.5346 20.416C14.2146 20.032 13.7786 19.84 13.2266 19.84C12.6826 19.84 12.2466 20.032 11.9186 20.416C11.5906 20.8 11.4266 21.356 11.4266 22.084C11.4266 22.804 11.5906 23.36 11.9186 23.752C12.2466 24.136 12.6826 24.328 13.2266 24.328ZM17.6787 17.716V16.624H18.8787V17.716H17.6787ZM17.7987 25V19.168H18.7707V25H17.7987ZM22.4238 25.108C22.0238 25.108 21.6638 25.032 21.3438 24.88C21.0318 24.72 20.7838 24.504 20.5998 24.232C20.4158 23.96 20.3238 23.656 20.3238 23.32C20.3238 22.888 20.4318 22.548 20.6478 22.3C20.8718 22.052 21.2358 21.876 21.7398 21.772C22.2518 21.668 22.9478 21.616 23.8278 21.616H24.3678V22.252H23.8398C23.3518 22.252 22.9438 22.268 22.6158 22.3C22.2878 22.332 22.0278 22.388 21.8358 22.468C21.6438 22.548 21.5078 22.652 21.4278 22.78C21.3478 22.908 21.3078 23.068 21.3078 23.26C21.3078 23.588 21.4198 23.856 21.6438 24.064C21.8758 24.272 22.1878 24.376 22.5798 24.376C22.8998 24.376 23.1798 24.3 23.4198 24.148C23.6678 23.996 23.8598 23.788 23.9958 23.524C24.1398 23.26 24.2118 22.956 24.2118 22.612V21.244C24.2118 20.748 24.1118 20.392 23.9118 20.176C23.7118 19.952 23.3838 19.84 22.9278 19.84C22.5758 19.84 22.2358 19.892 21.9078 19.996C21.5798 20.092 21.2438 20.252 20.8998 20.476L20.5638 19.768C20.7718 19.624 21.0078 19.5 21.2718 19.396C21.5358 19.284 21.8118 19.2 22.0998 19.144C22.3878 19.088 22.6638 19.06 22.9278 19.06C23.4318 19.06 23.8478 19.144 24.1758 19.312C24.5038 19.472 24.7478 19.72 24.9078 20.056C25.0678 20.384 25.1478 20.808 25.1478 21.328V25H24.2358V23.644H24.3438C24.2798 23.948 24.1558 24.208 23.9718 24.424C23.7958 24.64 23.5758 24.808 23.3118 24.928C23.0478 25.048 22.7518 25.108 22.4238 25.108ZM27.2991 26.368L26.8431 26.02C26.9871 25.868 27.0951 25.724 27.1671 25.588C27.2471 25.46 27.2991 25.328 27.3231 25.192C27.3551 25.064 27.3711 24.932 27.3711 24.796L27.5871 25H26.7951V23.776H28.0191V24.64C28.0191 24.856 27.9951 25.06 27.9471 25.252C27.9071 25.452 27.8351 25.644 27.7311 25.828C27.6271 26.012 27.4831 26.192 27.2991 26.368ZM32.8956 25V16.54H33.8796V25H32.8956ZM38.0539 25.108C37.5339 25.108 37.0779 24.984 36.6859 24.736C36.3019 24.488 36.0019 24.14 35.7859 23.692C35.5779 23.236 35.4739 22.7 35.4739 22.084C35.4739 21.46 35.5779 20.924 35.7859 20.476C36.0019 20.02 36.3019 19.672 36.6859 19.432C37.0779 19.184 37.5339 19.06 38.0539 19.06C38.5819 19.06 39.0339 19.192 39.4099 19.456C39.7859 19.72 40.0379 20.076 40.1659 20.524H40.0339V16.54H41.0059V25H40.0579V23.608H40.1779C40.0499 24.064 39.7939 24.428 39.4099 24.7C39.0339 24.972 38.5819 25.108 38.0539 25.108ZM38.2579 24.328C38.8099 24.328 39.2459 24.136 39.5659 23.752C39.8939 23.36 40.0579 22.804 40.0579 22.084C40.0579 21.356 39.8939 20.8 39.5659 20.416C39.2459 20.032 38.8099 19.84 38.2579 19.84C37.7139 19.84 37.2779 20.032 36.9499 20.416C36.6219 20.8 36.4579 21.356 36.4579 22.084C36.4579 22.804 36.6219 23.36 36.9499 23.752C37.2779 24.136 37.7139 24.328 38.2579 24.328ZM45.458 25.108C44.842 25.108 44.31 24.988 43.862 24.748C43.422 24.5 43.078 24.152 42.83 23.704C42.59 23.256 42.47 22.72 42.47 22.096C42.47 21.488 42.59 20.96 42.83 20.512C43.07 20.056 43.398 19.7 43.814 19.444C44.238 19.188 44.726 19.06 45.278 19.06C45.806 19.06 46.258 19.176 46.634 19.408C47.01 19.64 47.298 19.968 47.498 20.392C47.706 20.816 47.81 21.324 47.81 21.916V22.288H43.214V21.652H47.162L46.97 21.808C46.97 21.168 46.826 20.672 46.538 20.32C46.258 19.96 45.846 19.78 45.302 19.78C44.894 19.78 44.546 19.876 44.258 20.068C43.978 20.252 43.766 20.512 43.622 20.848C43.478 21.176 43.406 21.56 43.406 22V22.072C43.406 22.56 43.482 22.972 43.634 23.308C43.794 23.644 44.03 23.9 44.342 24.076C44.654 24.244 45.026 24.328 45.458 24.328C45.802 24.328 46.134 24.276 46.454 24.172C46.782 24.06 47.09 23.88 47.378 23.632L47.714 24.316C47.45 24.556 47.114 24.748 46.706 24.892C46.298 25.036 45.882 25.108 45.458 25.108ZM51.0527 25.108C50.6527 25.108 50.2927 25.032 49.9727 24.88C49.6607 24.72 49.4127 24.504 49.2287 24.232C49.0447 23.96 48.9527 23.656 48.9527 23.32C48.9527 22.888 49.0607 22.548 49.2767 22.3C49.5007 22.052 49.8647 21.876 50.3687 21.772C50.8807 21.668 51.5767 21.616 52.4567 21.616H52.9967V22.252H52.4687C51.9807 22.252 51.5727 22.268 51.2447 22.3C50.9167 22.332 50.6567 22.388 50.4647 22.468C50.2727 22.548 50.1367 22.652 50.0567 22.78C49.9767 22.908 49.9367 23.068 49.9367 23.26C49.9367 23.588 50.0487 23.856 50.2727 24.064C50.5047 24.272 50.8167 24.376 51.2087 24.376C51.5287 24.376 51.8087 24.3 52.0487 24.148C52.2967 23.996 52.4887 23.788 52.6247 23.524C52.7687 23.26 52.8407 22.956 52.8407 22.612V21.244C52.8407 20.748 52.7407 20.392 52.5407 20.176C52.3407 19.952 52.0127 19.84 51.5567 19.84C51.2047 19.84 50.8647 19.892 50.5367 19.996C50.2087 20.092 49.8727 20.252 49.5287 20.476L49.1927 19.768C49.4007 19.624 49.6367 19.5 49.9007 19.396C50.1647 19.284 50.4407 19.2 50.7287 19.144C51.0167 19.088 51.2927 19.06 51.5567 19.06C52.0607 19.06 52.4767 19.144 52.8047 19.312C53.1327 19.472 53.3767 19.72 53.5367 20.056C53.6967 20.384 53.7767 20.808 53.7767 21.328V25H52.8647V23.644H52.9727C52.9087 23.948 52.7847 24.208 52.6007 24.424C52.4247 24.64 52.2047 24.808 51.9407 24.928C51.6767 25.048 51.3807 25.108 51.0527 25.108ZM57.368 25.108C56.776 25.108 56.328 24.932 56.024 24.58C55.728 24.228 55.58 23.724 55.58 23.068V16.54H56.552V22.996C56.552 23.276 56.588 23.512 56.66 23.704C56.74 23.896 56.856 24.04 57.008 24.136C57.16 24.232 57.348 24.28 57.572 24.28C57.668 24.28 57.76 24.276 57.848 24.268C57.944 24.252 58.032 24.232 58.112 24.208L58.088 25.024C57.96 25.048 57.836 25.068 57.716 25.084C57.604 25.1 57.488 25.108 57.368 25.108ZM62.3448 25V16.54H67.5768V17.368H63.3288V20.32H67.3368V21.148H63.3288V25H62.3448ZM70.9883 25.108C70.4203 25.108 69.9283 24.984 69.5123 24.736C69.0963 24.488 68.7723 24.14 68.5403 23.692C68.3163 23.236 68.2043 22.7 68.2043 22.084C68.2043 21.468 68.3163 20.936 68.5403 20.488C68.7723 20.032 69.0963 19.68 69.5123 19.432C69.9283 19.184 70.4203 19.06 70.9883 19.06C71.5563 19.06 72.0483 19.184 72.4643 19.432C72.8803 19.68 73.2003 20.032 73.4243 20.488C73.6563 20.936 73.7723 21.468 73.7723 22.084C73.7723 22.7 73.6563 23.236 73.4243 23.692C73.2003 24.14 72.8803 24.488 72.4643 24.736C72.0483 24.984 71.5563 25.108 70.9883 25.108ZM70.9883 24.328C71.5403 24.328 71.9763 24.136 72.2963 23.752C72.6243 23.36 72.7883 22.8 72.7883 22.072C72.7883 21.352 72.6243 20.8 72.2963 20.416C71.9763 20.032 71.5403 19.84 70.9883 19.84C70.4443 19.84 70.0083 20.032 69.6803 20.416C69.3523 20.8 69.1883 21.352 69.1883 22.072C69.1883 22.8 69.3523 23.36 69.6803 23.752C70.0083 24.136 70.4443 24.328 70.9883 24.328ZM75.2323 25V19.168H76.1803V20.548H76.0603C76.1963 20.076 76.4323 19.72 76.7683 19.48C77.1043 19.232 77.5483 19.088 78.1003 19.048L78.4483 19.012L78.5203 19.852L77.9083 19.924C77.3643 19.972 76.9443 20.148 76.6483 20.452C76.3603 20.748 76.2163 21.156 76.2163 21.676V25H75.2323ZM81.6551 25.084L81.5831 24.256L82.3031 24.208C82.5831 24.184 82.8151 24.116 82.9991 24.004C83.1831 23.884 83.3231 23.716 83.4191 23.5C83.5151 23.284 83.5631 23.032 83.5631 22.744V16.54H84.5471V22.756C84.5471 23.212 84.4671 23.608 84.3071 23.944C84.1471 24.272 83.9111 24.528 83.5991 24.712C83.2871 24.896 82.8991 25.004 82.4351 25.036L81.6551 25.084ZM88.5698 25.108C88.0978 25.108 87.7058 25.024 87.3938 24.856C87.0898 24.68 86.8578 24.42 86.6978 24.076C86.5458 23.732 86.4698 23.304 86.4698 22.792V19.168H87.4418V22.78C87.4418 23.124 87.4858 23.412 87.5738 23.644C87.6698 23.868 87.8178 24.036 88.0178 24.148C88.2178 24.252 88.4658 24.304 88.7617 24.304C89.0978 24.304 89.3898 24.228 89.6378 24.076C89.8858 23.924 90.0818 23.712 90.2258 23.44C90.3698 23.168 90.4418 22.848 90.4418 22.48V19.168H91.4138V25H90.4658V23.656H90.6218C90.4618 24.128 90.1978 24.488 89.8298 24.736C89.4698 24.984 89.0498 25.108 88.5698 25.108ZM93.1123 17.716V16.624H94.3123V17.716H93.1123ZM93.2323 25V19.168H94.2043V25H93.2323ZM98.4934 25.108C97.9094 25.108 97.4054 24.98 96.9814 24.724C96.5574 24.468 96.2294 24.112 95.9974 23.656C95.7734 23.192 95.6614 22.656 95.6614 22.048C95.6614 21.432 95.7734 20.9 95.9974 20.452C96.2294 20.004 96.5574 19.66 96.9814 19.42C97.4054 19.18 97.9094 19.06 98.4934 19.06C98.8534 19.06 99.2094 19.124 99.5614 19.252C99.9134 19.38 100.205 19.56 100.437 19.792L100.101 20.5C99.8694 20.276 99.6134 20.112 99.3334 20.008C99.0614 19.904 98.8014 19.852 98.5534 19.852C97.9454 19.852 97.4774 20.044 97.1494 20.428C96.8214 20.804 96.6574 21.348 96.6574 22.06C96.6574 22.756 96.8214 23.308 97.1494 23.716C97.4774 24.116 97.9454 24.316 98.5534 24.316C98.8014 24.316 99.0614 24.264 99.3334 24.16C99.6134 24.056 99.8694 23.888 100.101 23.656L100.437 24.364C100.205 24.596 99.9094 24.78 99.5494 24.916C99.1974 25.044 98.8454 25.108 98.4934 25.108ZM104.087 25.108C103.471 25.108 102.939 24.988 102.491 24.748C102.051 24.5 101.707 24.152 101.459 23.704C101.219 23.256 101.099 22.72 101.099 22.096C101.099 21.488 101.219 20.96 101.459 20.512C101.699 20.056 102.027 19.7 102.443 19.444C102.867 19.188 103.355 19.06 103.907 19.06C104.435 19.06 104.887 19.176 105.263 19.408C105.639 19.64 105.927 19.968 106.127 20.392C106.335 20.816 106.439 21.324 106.439 21.916V22.288H101.843V21.652H105.791L105.599 21.808C105.599 21.168 105.455 20.672 105.167 20.32C104.887 19.96 104.475 19.78 103.931 19.78C103.523 19.78 103.175 19.876 102.887 20.068C102.607 20.252 102.395 20.512 102.251 20.848C102.107 21.176 102.035 21.56 102.035 22V22.072C102.035 22.56 102.111 22.972 102.263 23.308C102.423 23.644 102.659 23.9 102.971 24.076C103.283 24.244 103.655 24.328 104.087 24.328C104.431 24.328 104.763 24.276 105.083 24.172C105.411 24.06 105.719 23.88 106.007 23.632L106.343 24.316C106.079 24.556 105.743 24.748 105.335 24.892C104.927 25.036 104.511 25.108 104.087 25.108ZM109.814 25.108C109.51 25.108 109.214 25.076 108.926 25.012C108.646 24.956 108.382 24.876 108.134 24.772C107.894 24.66 107.686 24.528 107.51 24.376L107.822 23.692C108.014 23.844 108.222 23.972 108.446 24.076C108.67 24.172 108.898 24.244 109.13 24.292C109.362 24.34 109.598 24.364 109.838 24.364C110.294 24.364 110.638 24.28 110.87 24.112C111.102 23.944 111.218 23.716 111.218 23.428C111.218 23.204 111.142 23.028 110.99 22.9C110.838 22.764 110.598 22.66 110.27 22.588L109.178 22.348C108.674 22.244 108.298 22.064 108.05 21.808C107.81 21.552 107.69 21.22 107.69 20.812C107.69 20.452 107.782 20.144 107.966 19.888C108.158 19.624 108.426 19.42 108.77 19.276C109.114 19.132 109.514 19.06 109.97 19.06C110.242 19.06 110.502 19.088 110.75 19.144C110.998 19.2 111.23 19.284 111.446 19.396C111.67 19.5 111.862 19.632 112.022 19.792L111.698 20.476C111.546 20.332 111.374 20.212 111.182 20.116C110.99 20.012 110.79 19.936 110.582 19.888C110.382 19.832 110.178 19.804 109.97 19.804C109.522 19.804 109.182 19.892 108.95 20.068C108.718 20.244 108.602 20.476 108.602 20.764C108.602 20.988 108.674 21.172 108.818 21.316C108.962 21.46 109.186 21.564 109.49 21.628L110.582 21.856C111.102 21.968 111.49 22.148 111.746 22.396C112.01 22.636 112.142 22.964 112.142 23.38C112.142 23.732 112.046 24.04 111.854 24.304C111.662 24.56 111.39 24.76 111.038 24.904C110.694 25.04 110.286 25.108 109.814 25.108ZM113.912 26.368L113.456 26.02C113.6 25.868 113.708 25.724 113.78 25.588C113.86 25.46 113.912 25.328 113.936 25.192C113.968 25.064 113.984 24.932 113.984 24.796L114.2 25H113.408V23.776H114.632V24.64C114.632 24.856 114.608 25.06 114.56 25.252C114.52 25.452 114.448 25.644 114.344 25.828C114.24 26.012 114.096 26.192 113.912 26.368ZM122.245 25.108C121.805 25.108 121.389 25.068 120.997 24.988C120.613 24.908 120.257 24.796 119.929 24.652C119.609 24.5 119.317 24.316 119.053 24.1L119.401 23.308C119.673 23.508 119.949 23.68 120.229 23.824C120.517 23.96 120.825 24.064 121.153 24.136C121.489 24.2 121.853 24.232 122.245 24.232C122.965 24.232 123.497 24.1 123.841 23.836C124.193 23.564 124.369 23.208 124.369 22.768C124.369 22.536 124.313 22.336 124.201 22.168C124.097 22 123.921 21.856 123.673 21.736C123.433 21.616 123.117 21.516 122.725 21.436L121.477 21.184C120.725 21.024 120.161 20.764 119.785 20.404C119.417 20.036 119.233 19.548 119.233 18.94C119.233 18.436 119.361 17.996 119.617 17.62C119.881 17.244 120.245 16.952 120.709 16.744C121.181 16.536 121.717 16.432 122.317 16.432C122.701 16.432 123.065 16.472 123.409 16.552C123.753 16.632 124.069 16.752 124.357 16.912C124.653 17.064 124.913 17.252 125.137 17.476L124.789 18.244C124.429 17.916 124.049 17.68 123.649 17.536C123.249 17.384 122.801 17.308 122.305 17.308C121.881 17.308 121.513 17.372 121.201 17.5C120.897 17.628 120.657 17.816 120.481 18.064C120.313 18.304 120.229 18.584 120.229 18.904C120.229 19.288 120.345 19.592 120.577 19.816C120.817 20.04 121.205 20.204 121.741 20.308L122.989 20.572C123.797 20.74 124.393 20.996 124.777 21.34C125.169 21.676 125.365 22.136 125.365 22.72C125.365 23.184 125.237 23.6 124.981 23.968C124.733 24.328 124.373 24.608 123.901 24.808C123.437 25.008 122.885 25.108 122.245 25.108ZM126.784 25V19.168H127.732V20.464H127.6C127.696 20.168 127.836 19.916 128.02 19.708C128.212 19.492 128.436 19.332 128.692 19.228C128.956 19.116 129.244 19.06 129.556 19.06C130.052 19.06 130.452 19.18 130.756 19.42C131.068 19.652 131.276 20.016 131.38 20.512H131.2C131.344 20.064 131.6 19.712 131.968 19.456C132.344 19.192 132.78 19.06 133.276 19.06C133.716 19.06 134.076 19.144 134.356 19.312C134.644 19.48 134.86 19.736 135.004 20.08C135.148 20.416 135.22 20.844 135.22 21.364V25H134.248V21.412C134.248 20.876 134.156 20.484 133.972 20.236C133.788 19.98 133.476 19.852 133.036 19.852C132.724 19.852 132.448 19.928 132.208 20.08C131.976 20.232 131.796 20.448 131.668 20.728C131.548 21 131.488 21.324 131.488 21.7V25H130.516V21.412C130.516 20.876 130.42 20.484 130.228 20.236C130.044 19.98 129.736 19.852 129.304 19.852C128.984 19.852 128.708 19.928 128.476 20.08C128.244 20.232 128.064 20.448 127.936 20.728C127.816 21 127.756 21.324 127.756 21.7V25H126.784ZM139.461 25.108C138.893 25.108 138.401 24.984 137.985 24.736C137.569 24.488 137.245 24.14 137.013 23.692C136.789 23.236 136.677 22.7 136.677 22.084C136.677 21.468 136.789 20.936 137.013 20.488C137.245 20.032 137.569 19.68 137.985 19.432C138.401 19.184 138.893 19.06 139.461 19.06C140.029 19.06 140.521 19.184 140.937 19.432C141.353 19.68 141.673 20.032 141.897 20.488C142.129 20.936 142.245 21.468 142.245 22.084C142.245 22.7 142.129 23.236 141.897 23.692C141.673 24.14 141.353 24.488 140.937 24.736C140.521 24.984 140.029 25.108 139.461 25.108ZM139.461 24.328C140.013 24.328 140.449 24.136 140.769 23.752C141.097 23.36 141.261 22.8 141.261 22.072C141.261 21.352 141.097 20.8 140.769 20.416C140.449 20.032 140.013 19.84 139.461 19.84C138.917 19.84 138.481 20.032 138.153 20.416C137.825 20.8 137.661 21.352 137.661 22.072C137.661 22.8 137.825 23.36 138.153 23.752C138.481 24.136 138.917 24.328 139.461 24.328ZM146.129 25.108C145.561 25.108 145.069 24.984 144.653 24.736C144.237 24.488 143.913 24.14 143.681 23.692C143.457 23.236 143.345 22.7 143.345 22.084C143.345 21.468 143.457 20.936 143.681 20.488C143.913 20.032 144.237 19.68 144.653 19.432C145.069 19.184 145.561 19.06 146.129 19.06C146.697 19.06 147.189 19.184 147.605 19.432C148.021 19.68 148.341 20.032 148.565 20.488C148.797 20.936 148.913 21.468 148.913 22.084C148.913 22.7 148.797 23.236 148.565 23.692C148.341 24.14 148.021 24.488 147.605 24.736C147.189 24.984 146.697 25.108 146.129 25.108ZM146.129 24.328C146.681 24.328 147.117 24.136 147.437 23.752C147.765 23.36 147.929 22.8 147.929 22.072C147.929 21.352 147.765 20.8 147.437 20.416C147.117 20.032 146.681 19.84 146.129 19.84C145.585 19.84 145.149 20.032 144.821 20.416C144.493 20.8 144.329 21.352 144.329 22.072C144.329 22.8 144.493 23.36 144.821 23.752C145.149 24.136 145.585 24.328 146.129 24.328ZM152.654 25.108C151.966 25.108 151.45 24.924 151.106 24.556C150.762 24.188 150.59 23.664 150.59 22.984V19.924H149.45V19.168H150.59V17.38H151.562V19.168H153.41V19.924H151.562V22.888C151.562 23.344 151.658 23.692 151.85 23.932C152.042 24.164 152.354 24.28 152.786 24.28C152.914 24.28 153.042 24.264 153.17 24.232C153.298 24.2 153.414 24.168 153.518 24.136L153.686 24.88C153.582 24.936 153.43 24.988 153.23 25.036C153.03 25.084 152.838 25.108 152.654 25.108ZM154.51 25V16.54H155.482V20.464H155.326C155.494 20 155.766 19.652 156.142 19.42C156.526 19.18 156.966 19.06 157.462 19.06C157.926 19.06 158.31 19.144 158.614 19.312C158.926 19.48 159.158 19.736 159.31 20.08C159.462 20.416 159.538 20.844 159.538 21.364V25H158.566V21.424C158.566 21.064 158.518 20.768 158.422 20.536C158.334 20.304 158.19 20.132 157.99 20.02C157.798 19.908 157.546 19.852 157.234 19.852C156.882 19.852 156.574 19.928 156.31 20.08C156.046 20.232 155.842 20.444 155.698 20.716C155.554 20.988 155.482 21.308 155.482 21.676V25H154.51ZM161.21 17.716V16.624H162.41V17.716H161.21ZM161.33 25V19.168H162.302V25H161.33ZM166.747 25.108C166.131 25.108 165.599 24.988 165.151 24.748C164.711 24.5 164.367 24.152 164.119 23.704C163.879 23.256 163.759 22.72 163.759 22.096C163.759 21.488 163.879 20.96 164.119 20.512C164.359 20.056 164.687 19.7 165.103 19.444C165.527 19.188 166.015 19.06 166.567 19.06C167.095 19.06 167.547 19.176 167.923 19.408C168.299 19.64 168.587 19.968 168.787 20.392C168.995 20.816 169.099 21.324 169.099 21.916V22.288H164.503V21.652H168.451L168.259 21.808C168.259 21.168 168.115 20.672 167.827 20.32C167.547 19.96 167.135 19.78 166.591 19.78C166.183 19.78 165.835 19.876 165.547 20.068C165.267 20.252 165.055 20.512 164.911 20.848C164.767 21.176 164.695 21.56 164.695 22V22.072C164.695 22.56 164.771 22.972 164.923 23.308C165.083 23.644 165.319 23.9 165.631 24.076C165.943 24.244 166.315 24.328 166.747 24.328C167.091 24.328 167.423 24.276 167.743 24.172C168.071 24.06 168.379 23.88 168.667 23.632L169.003 24.316C168.739 24.556 168.403 24.748 167.995 24.892C167.587 25.036 167.171 25.108 166.747 25.108ZM172.474 25.108C172.17 25.108 171.874 25.076 171.586 25.012C171.306 24.956 171.042 24.876 170.794 24.772C170.554 24.66 170.346 24.528 170.17 24.376L170.482 23.692C170.674 23.844 170.882 23.972 171.106 24.076C171.33 24.172 171.558 24.244 171.79 24.292C172.022 24.34 172.258 24.364 172.498 24.364C172.954 24.364 173.298 24.28 173.53 24.112C173.762 23.944 173.878 23.716 173.878 23.428C173.878 23.204 173.802 23.028 173.65 22.9C173.498 22.764 173.258 22.66 172.93 22.588L171.838 22.348C171.334 22.244 170.958 22.064 170.71 21.808C170.47 21.552 170.35 21.22 170.35 20.812C170.35 20.452 170.442 20.144 170.626 19.888C170.818 19.624 171.086 19.42 171.43 19.276C171.774 19.132 172.174 19.06 172.63 19.06C172.902 19.06 173.162 19.088 173.41 19.144C173.658 19.2 173.89 19.284 174.106 19.396C174.33 19.5 174.522 19.632 174.682 19.792L174.358 20.476C174.206 20.332 174.034 20.212 173.842 20.116C173.65 20.012 173.45 19.936 173.242 19.888C173.042 19.832 172.838 19.804 172.63 19.804C172.182 19.804 171.842 19.892 171.61 20.068C171.378 20.244 171.262 20.476 171.262 20.764C171.262 20.988 171.334 21.172 171.478 21.316C171.622 21.46 171.846 21.564 172.15 21.628L173.242 21.856C173.762 21.968 174.15 22.148 174.406 22.396C174.67 22.636 174.802 22.964 174.802 23.38C174.802 23.732 174.706 24.04 174.514 24.304C174.322 24.56 174.05 24.76 173.698 24.904C173.354 25.04 172.946 25.108 172.474 25.108ZM176.573 26.368L176.117 26.02C176.261 25.868 176.369 25.724 176.441 25.588C176.521 25.46 176.573 25.328 176.597 25.192C176.629 25.064 176.645 24.932 176.645 24.796L176.861 25H176.069V23.776H177.293V24.64C177.293 24.856 177.269 25.06 177.221 25.252C177.181 25.452 177.109 25.644 177.005 25.828C176.901 26.012 176.757 26.192 176.573 26.368ZM182.169 25V16.54H185.025C185.945 16.54 186.721 16.704 187.353 17.032C187.993 17.352 188.477 17.828 188.805 18.46C189.141 19.084 189.309 19.852 189.309 20.764C189.309 21.676 189.141 22.448 188.805 23.08C188.477 23.712 187.993 24.192 187.353 24.52C186.721 24.84 185.945 25 185.025 25H182.169ZM183.153 24.16H184.953C186.065 24.16 186.893 23.876 187.437 23.308C187.989 22.74 188.265 21.892 188.265 20.764C188.265 19.636 187.989 18.792 187.437 18.232C186.885 17.664 186.057 17.38 184.953 17.38H183.153V24.16ZM193.571 25.108C192.955 25.108 192.423 24.988 191.975 24.748C191.535 24.5 191.191 24.152 190.943 23.704C190.703 23.256 190.583 22.72 190.583 22.096C190.583 21.488 190.703 20.96 190.943 20.512C191.183 20.056 191.511 19.7 191.927 19.444C192.351 19.188 192.839 19.06 193.391 19.06C193.919 19.06 194.371 19.176 194.747 19.408C195.123 19.64 195.411 19.968 195.611 20.392C195.819 20.816 195.923 21.324 195.923 21.916V22.288H191.327V21.652H195.275L195.083 21.808C195.083 21.168 194.939 20.672 194.651 20.32C194.371 19.96 193.959 19.78 193.415 19.78C193.007 19.78 192.659 19.876 192.371 20.068C192.091 20.252 191.879 20.512 191.735 20.848C191.591 21.176 191.519 21.56 191.519 22V22.072C191.519 22.56 191.595 22.972 191.747 23.308C191.907 23.644 192.143 23.9 192.455 24.076C192.767 24.244 193.139 24.328 193.571 24.328C193.915 24.328 194.247 24.276 194.567 24.172C194.895 24.06 195.203 23.88 195.491 23.632L195.827 24.316C195.563 24.556 195.227 24.748 194.819 24.892C194.411 25.036 193.995 25.108 193.571 25.108ZM199.298 25.108C198.994 25.108 198.698 25.076 198.41 25.012C198.13 24.956 197.866 24.876 197.618 24.772C197.378 24.66 197.17 24.528 196.994 24.376L197.306 23.692C197.498 23.844 197.706 23.972 197.93 24.076C198.154 24.172 198.382 24.244 198.614 24.292C198.846 24.34 199.082 24.364 199.322 24.364C199.778 24.364 200.122 24.28 200.354 24.112C200.586 23.944 200.702 23.716 200.702 23.428C200.702 23.204 200.626 23.028 200.474 22.9C200.322 22.764 200.082 22.66 199.754 22.588L198.662 22.348C198.158 22.244 197.782 22.064 197.534 21.808C197.294 21.552 197.174 21.22 197.174 20.812C197.174 20.452 197.266 20.144 197.45 19.888C197.642 19.624 197.91 19.42 198.254 19.276C198.598 19.132 198.998 19.06 199.454 19.06C199.726 19.06 199.986 19.088 200.234 19.144C200.482 19.2 200.714 19.284 200.93 19.396C201.154 19.5 201.346 19.632 201.506 19.792L201.182 20.476C201.03 20.332 200.858 20.212 200.666 20.116C200.474 20.012 200.274 19.936 200.066 19.888C199.866 19.832 199.662 19.804 199.454 19.804C199.006 19.804 198.666 19.892 198.434 20.068C198.202 20.244 198.086 20.476 198.086 20.764C198.086 20.988 198.158 21.172 198.302 21.316C198.446 21.46 198.67 21.564 198.974 21.628L200.066 21.856C200.586 21.968 200.974 22.148 201.23 22.396C201.494 22.636 201.626 22.964 201.626 23.38C201.626 23.732 201.53 24.04 201.338 24.304C201.146 24.56 200.874 24.76 200.522 24.904C200.178 25.04 199.77 25.108 199.298 25.108ZM205.075 25.108C204.771 25.108 204.475 25.076 204.187 25.012C203.907 24.956 203.643 24.876 203.395 24.772C203.155 24.66 202.947 24.528 202.771 24.376L203.083 23.692C203.275 23.844 203.483 23.972 203.707 24.076C203.931 24.172 204.159 24.244 204.391 24.292C204.623 24.34 204.859 24.364 205.099 24.364C205.555 24.364 205.899 24.28 206.131 24.112C206.363 23.944 206.479 23.716 206.479 23.428C206.479 23.204 206.403 23.028 206.251 22.9C206.099 22.764 205.859 22.66 205.531 22.588L204.439 22.348C203.935 22.244 203.559 22.064 203.311 21.808C203.071 21.552 202.951 21.22 202.951 20.812C202.951 20.452 203.043 20.144 203.227 19.888C203.419 19.624 203.687 19.42 204.031 19.276C204.375 19.132 204.775 19.06 205.231 19.06C205.503 19.06 205.763 19.088 206.011 19.144C206.259 19.2 206.491 19.284 206.707 19.396C206.931 19.5 207.123 19.632 207.283 19.792L206.959 20.476C206.807 20.332 206.635 20.212 206.443 20.116C206.251 20.012 206.051 19.936 205.843 19.888C205.643 19.832 205.439 19.804 205.231 19.804C204.783 19.804 204.443 19.892 204.211 20.068C203.979 20.244 203.863 20.476 203.863 20.764C203.863 20.988 203.935 21.172 204.079 21.316C204.223 21.46 204.447 21.564 204.751 21.628L205.843 21.856C206.363 21.968 206.751 22.148 207.007 22.396C207.271 22.636 207.403 22.964 207.403 23.38C207.403 23.732 207.307 24.04 207.115 24.304C206.923 24.56 206.651 24.76 206.299 24.904C205.955 25.04 205.547 25.108 205.075 25.108ZM211.513 25.108C210.897 25.108 210.365 24.988 209.917 24.748C209.477 24.5 209.133 24.152 208.885 23.704C208.645 23.256 208.525 22.72 208.525 22.096C208.525 21.488 208.645 20.96 208.885 20.512C209.125 20.056 209.453 19.7 209.869 19.444C210.293 19.188 210.781 19.06 211.333 19.06C211.861 19.06 212.313 19.176 212.689 19.408C213.065 19.64 213.353 19.968 213.553 20.392C213.761 20.816 213.865 21.324 213.865 21.916V22.288H209.269V21.652H213.217L213.025 21.808C213.025 21.168 212.881 20.672 212.593 20.32C212.313 19.96 211.901 19.78 211.357 19.78C210.949 19.78 210.601 19.876 210.313 20.068C210.033 20.252 209.821 20.512 209.677 20.848C209.533 21.176 209.461 21.56 209.461 22V22.072C209.461 22.56 209.537 22.972 209.689 23.308C209.849 23.644 210.085 23.9 210.397 24.076C210.709 24.244 211.081 24.328 211.513 24.328C211.857 24.328 212.189 24.276 212.509 24.172C212.837 24.06 213.145 23.88 213.433 23.632L213.769 24.316C213.505 24.556 213.169 24.748 212.761 24.892C212.353 25.036 211.937 25.108 211.513 25.108ZM215.271 25V19.168H216.219V20.548H216.099C216.235 20.076 216.471 19.72 216.807 19.48C217.143 19.232 217.587 19.088 218.139 19.048L218.487 19.012L218.559 19.852L217.947 19.924C217.403 19.972 216.983 20.148 216.687 20.452C216.399 20.748 216.255 21.156 216.255 21.676V25H215.271ZM222.229 25.108C221.541 25.108 221.025 24.924 220.681 24.556C220.337 24.188 220.165 23.664 220.165 22.984V19.924H219.025V19.168H220.165V17.38H221.137V19.168H222.985V19.924H221.137V22.888C221.137 23.344 221.233 23.692 221.425 23.932C221.617 24.164 221.929 24.28 222.361 24.28C222.489 24.28 222.617 24.264 222.745 24.232C222.873 24.2 222.989 24.168 223.093 24.136L223.261 24.88C223.157 24.936 223.005 24.988 222.805 25.036C222.605 25.084 222.413 25.108 222.229 25.108ZM226.052 25.108C225.748 25.108 225.452 25.076 225.164 25.012C224.884 24.956 224.62 24.876 224.372 24.772C224.132 24.66 223.924 24.528 223.748 24.376L224.06 23.692C224.252 23.844 224.46 23.972 224.684 24.076C224.908 24.172 225.136 24.244 225.368 24.292C225.6 24.34 225.836 24.364 226.076 24.364C226.532 24.364 226.876 24.28 227.108 24.112C227.34 23.944 227.456 23.716 227.456 23.428C227.456 23.204 227.38 23.028 227.228 22.9C227.076 22.764 226.836 22.66 226.508 22.588L225.416 22.348C224.912 22.244 224.536 22.064 224.288 21.808C224.048 21.552 223.928 21.22 223.928 20.812C223.928 20.452 224.02 20.144 224.204 19.888C224.396 19.624 224.664 19.42 225.008 19.276C225.352 19.132 225.752 19.06 226.208 19.06C226.48 19.06 226.74 19.088 226.988 19.144C227.236 19.2 227.468 19.284 227.684 19.396C227.908 19.5 228.1 19.632 228.26 19.792L227.936 20.476C227.784 20.332 227.612 20.212 227.42 20.116C227.228 20.012 227.028 19.936 226.82 19.888C226.62 19.832 226.416 19.804 226.208 19.804C225.76 19.804 225.42 19.892 225.188 20.068C224.956 20.244 224.84 20.476 224.84 20.764C224.84 20.988 224.912 21.172 225.056 21.316C225.2 21.46 225.424 21.564 225.728 21.628L226.82 21.856C227.34 21.968 227.728 22.148 227.984 22.396C228.248 22.636 228.38 22.964 228.38 23.38C228.38 23.732 228.284 24.04 228.092 24.304C227.9 24.56 227.628 24.76 227.276 24.904C226.932 25.04 226.524 25.108 226.052 25.108ZM230.151 26.368L229.695 26.02C229.839 25.868 229.947 25.724 230.019 25.588C230.099 25.46 230.151 25.328 230.175 25.192C230.207 25.064 230.223 24.932 230.223 24.796L230.439 25H229.647V23.776H230.871V24.64C230.871 24.856 230.847 25.06 230.799 25.252C230.759 25.452 230.687 25.644 230.583 25.828C230.479 26.012 230.335 26.192 230.151 26.368ZM234.931 25L238.663 16.54H239.503L243.235 25H242.215L241.171 22.588L241.651 22.84H236.491L236.983 22.588L235.951 25H234.931ZM239.071 17.692L237.139 22.24L236.851 22.012H241.291L241.027 22.24L239.095 17.692H239.071ZM244.357 25V19.168H245.305V20.464H245.173C245.341 20 245.613 19.652 245.989 19.42C246.373 19.18 246.813 19.06 247.309 19.06C247.773 19.06 248.157 19.144 248.461 19.312C248.773 19.472 249.005 19.724 249.157 20.068C249.309 20.412 249.385 20.844 249.385 21.364V25H248.413V21.424C248.413 21.064 248.365 20.768 248.269 20.536C248.181 20.304 248.037 20.132 247.837 20.02C247.645 19.908 247.393 19.852 247.081 19.852C246.729 19.852 246.421 19.928 246.157 20.08C245.893 20.232 245.689 20.444 245.545 20.716C245.401 20.988 245.329 21.308 245.329 21.676V25H244.357ZM253.398 25.108C252.878 25.108 252.422 24.984 252.03 24.736C251.646 24.488 251.346 24.14 251.13 23.692C250.922 23.236 250.818 22.7 250.818 22.084C250.818 21.46 250.922 20.924 251.13 20.476C251.346 20.02 251.646 19.672 252.03 19.432C252.422 19.184 252.878 19.06 253.398 19.06C253.926 19.06 254.378 19.192 254.754 19.456C255.13 19.72 255.382 20.076 255.51 20.524H255.378V16.54H256.35V25H255.402V23.608H255.522C255.394 24.064 255.138 24.428 254.754 24.7C254.378 24.972 253.926 25.108 253.398 25.108ZM253.602 24.328C254.154 24.328 254.59 24.136 254.91 23.752C255.238 23.36 255.402 22.804 255.402 22.084C255.402 21.356 255.238 20.8 254.91 20.416C254.59 20.032 254.154 19.84 253.602 19.84C253.058 19.84 252.622 20.032 252.294 20.416C251.966 20.8 251.802 21.356 251.802 22.084C251.802 22.804 251.966 23.36 252.294 23.752C252.622 24.136 253.058 24.328 253.602 24.328ZM265.048 25.108C264.216 25.108 263.504 24.932 262.912 24.58C262.32 24.228 261.864 23.728 261.544 23.08C261.232 22.432 261.076 21.66 261.076 20.764C261.076 19.868 261.232 19.1 261.544 18.46C261.864 17.812 262.32 17.312 262.912 16.96C263.504 16.608 264.216 16.432 265.048 16.432C265.632 16.432 266.172 16.524 266.668 16.708C267.164 16.892 267.58 17.16 267.916 17.512L267.532 18.316C267.164 17.972 266.78 17.724 266.38 17.572C265.988 17.412 265.552 17.332 265.072 17.332C264.12 17.332 263.392 17.632 262.888 18.232C262.384 18.832 262.132 19.676 262.132 20.764C262.132 21.852 262.384 22.7 262.888 23.308C263.392 23.908 264.12 24.208 265.072 24.208C265.552 24.208 265.988 24.132 266.38 23.98C266.78 23.82 267.164 23.568 267.532 23.224L267.916 24.028C267.58 24.372 267.164 24.64 266.668 24.832C266.172 25.016 265.632 25.108 265.048 25.108ZM271.332 25.108C270.764 25.108 270.272 24.984 269.856 24.736C269.44 24.488 269.116 24.14 268.884 23.692C268.66 23.236 268.548 22.7 268.548 22.084C268.548 21.468 268.66 20.936 268.884 20.488C269.116 20.032 269.44 19.68 269.856 19.432C270.272 19.184 270.764 19.06 271.332 19.06C271.9 19.06 272.392 19.184 272.808 19.432C273.224 19.68 273.544 20.032 273.768 20.488C274 20.936 274.116 21.468 274.116 22.084C274.116 22.7 274 23.236 273.768 23.692C273.544 24.14 273.224 24.488 272.808 24.736C272.392 24.984 271.9 25.108 271.332 25.108ZM271.332 24.328C271.884 24.328 272.32 24.136 272.64 23.752C272.968 23.36 273.132 22.8 273.132 22.072C273.132 21.352 272.968 20.8 272.64 20.416C272.32 20.032 271.884 19.84 271.332 19.84C270.788 19.84 270.352 20.032 270.024 20.416C269.696 20.8 269.532 21.352 269.532 22.072C269.532 22.8 269.696 23.36 270.024 23.752C270.352 24.136 270.788 24.328 271.332 24.328ZM277.364 25.108C276.772 25.108 276.324 24.932 276.02 24.58C275.724 24.228 275.576 23.724 275.576 23.068V16.54H276.548V22.996C276.548 23.276 276.584 23.512 276.656 23.704C276.736 23.896 276.852 24.04 277.004 24.136C277.156 24.232 277.344 24.28 277.568 24.28C277.664 24.28 277.756 24.276 277.844 24.268C277.94 24.252 278.028 24.232 278.108 24.208L278.084 25.024C277.956 25.048 277.832 25.068 277.712 25.084C277.6 25.1 277.484 25.108 277.364 25.108ZM281.288 25.108C280.768 25.108 280.312 24.984 279.92 24.736C279.536 24.488 279.236 24.14 279.02 23.692C278.812 23.236 278.708 22.7 278.708 22.084C278.708 21.46 278.812 20.924 279.02 20.476C279.236 20.02 279.536 19.672 279.92 19.432C280.312 19.184 280.768 19.06 281.288 19.06C281.816 19.06 282.268 19.192 282.644 19.456C283.02 19.72 283.272 20.076 283.4 20.524H283.268V16.54H284.24V25H283.292V23.608H283.412C283.284 24.064 283.028 24.428 282.644 24.7C282.268 24.972 281.816 25.108 281.288 25.108ZM281.492 24.328C282.044 24.328 282.48 24.136 282.8 23.752C283.128 23.36 283.292 22.804 283.292 22.084C283.292 21.356 283.128 20.8 282.8 20.416C282.48 20.032 282.044 19.84 281.492 19.84C280.948 19.84 280.512 20.032 280.184 20.416C279.856 20.8 279.692 21.356 279.692 22.084C279.692 22.804 279.856 23.36 280.184 23.752C280.512 24.136 280.948 24.328 281.492 24.328ZM289.278 25V16.54H292.662C293.526 16.54 294.198 16.732 294.678 17.116C295.158 17.5 295.398 18.044 295.398 18.748C295.398 19.276 295.242 19.716 294.93 20.068C294.626 20.42 294.21 20.652 293.682 20.764V20.596C294.082 20.644 294.426 20.76 294.714 20.944C295.002 21.12 295.222 21.356 295.374 21.652C295.526 21.94 295.602 22.28 295.602 22.672C295.602 23.176 295.49 23.604 295.266 23.956C295.05 24.3 294.734 24.56 294.318 24.736C293.902 24.912 293.398 25 292.806 25H289.278ZM290.238 24.208H292.71C292.966 24.208 293.194 24.188 293.394 24.148C293.602 24.108 293.782 24.048 293.934 23.968C294.086 23.88 294.214 23.776 294.318 23.656C294.422 23.536 294.498 23.392 294.546 23.224C294.602 23.056 294.63 22.868 294.63 22.66C294.63 22.444 294.602 22.256 294.546 22.096C294.498 21.928 294.422 21.784 294.318 21.664C294.214 21.536 294.086 21.432 293.934 21.352C293.782 21.272 293.602 21.212 293.394 21.172C293.194 21.132 292.966 21.112 292.71 21.112H290.238V24.208ZM290.238 20.32H292.518C293.142 20.32 293.614 20.192 293.934 19.936C294.262 19.68 294.426 19.312 294.426 18.832C294.426 18.336 294.262 17.964 293.934 17.716C293.614 17.46 293.142 17.332 292.518 17.332H290.238V20.32ZM299.884 25.108C299.268 25.108 298.736 24.988 298.288 24.748C297.848 24.5 297.504 24.152 297.256 23.704C297.016 23.256 296.896 22.72 296.896 22.096C296.896 21.488 297.016 20.96 297.256 20.512C297.496 20.056 297.824 19.7 298.24 19.444C298.664 19.188 299.152 19.06 299.704 19.06C300.232 19.06 300.684 19.176 301.06 19.408C301.436 19.64 301.724 19.968 301.924 20.392C302.132 20.816 302.236 21.324 302.236 21.916V22.288H297.64V21.652H301.588L301.396 21.808C301.396 21.168 301.252 20.672 300.964 20.32C300.684 19.96 300.272 19.78 299.728 19.78C299.32 19.78 298.972 19.876 298.684 20.068C298.404 20.252 298.192 20.512 298.048 20.848C297.904 21.176 297.832 21.56 297.832 22V22.072C297.832 22.56 297.908 22.972 298.06 23.308C298.22 23.644 298.456 23.9 298.768 24.076C299.08 24.244 299.452 24.328 299.884 24.328C300.228 24.328 300.56 24.276 300.88 24.172C301.208 24.06 301.516 23.88 301.804 23.632L302.14 24.316C301.876 24.556 301.54 24.748 301.132 24.892C300.724 25.036 300.308 25.108 299.884 25.108ZM305.288 25L302.78 19.168H303.836L305.924 24.28H305.6L307.724 19.168H308.72L306.2 25H305.288ZM312.294 25.108C311.678 25.108 311.146 24.988 310.698 24.748C310.258 24.5 309.914 24.152 309.666 23.704C309.426 23.256 309.306 22.72 309.306 22.096C309.306 21.488 309.426 20.96 309.666 20.512C309.906 20.056 310.234 19.7 310.65 19.444C311.074 19.188 311.562 19.06 312.114 19.06C312.642 19.06 313.094 19.176 313.47 19.408C313.846 19.64 314.134 19.968 314.334 20.392C314.542 20.816 314.646 21.324 314.646 21.916V22.288H310.05V21.652H313.998L313.806 21.808C313.806 21.168 313.662 20.672 313.374 20.32C313.094 19.96 312.682 19.78 312.138 19.78C311.73 19.78 311.382 19.876 311.094 20.068C310.814 20.252 310.602 20.512 310.458 20.848C310.314 21.176 310.242 21.56 310.242 22V22.072C310.242 22.56 310.318 22.972 310.47 23.308C310.63 23.644 310.866 23.9 311.178 24.076C311.49 24.244 311.862 24.328 312.294 24.328C312.638 24.328 312.97 24.276 313.29 24.172C313.618 24.06 313.926 23.88 314.214 23.632L314.55 24.316C314.286 24.556 313.95 24.748 313.542 24.892C313.134 25.036 312.718 25.108 312.294 25.108ZM316.053 25V19.168H317.001V20.548H316.881C317.017 20.076 317.253 19.72 317.589 19.48C317.925 19.232 318.369 19.088 318.921 19.048L319.269 19.012L319.341 19.852L318.729 19.924C318.185 19.972 317.765 20.148 317.469 20.452C317.181 20.748 317.037 21.156 317.037 21.676V25H316.053ZM322.131 25.108C321.731 25.108 321.371 25.032 321.051 24.88C320.739 24.72 320.491 24.504 320.307 24.232C320.123 23.96 320.031 23.656 320.031 23.32C320.031 22.888 320.139 22.548 320.355 22.3C320.579 22.052 320.943 21.876 321.447 21.772C321.959 21.668 322.655 21.616 323.535 21.616H324.075V22.252H323.547C323.059 22.252 322.651 22.268 322.323 22.3C321.995 22.332 321.735 22.388 321.543 22.468C321.351 22.548 321.215 22.652 321.135 22.78C321.055 22.908 321.015 23.068 321.015 23.26C321.015 23.588 321.127 23.856 321.351 24.064C321.583 24.272 321.895 24.376 322.287 24.376C322.607 24.376 322.887 24.3 323.127 24.148C323.375 23.996 323.567 23.788 323.703 23.524C323.847 23.26 323.919 22.956 323.919 22.612V21.244C323.919 20.748 323.819 20.392 323.619 20.176C323.419 19.952 323.091 19.84 322.635 19.84C322.283 19.84 321.943 19.892 321.615 19.996C321.287 20.092 320.951 20.252 320.607 20.476L320.271 19.768C320.479 19.624 320.715 19.5 320.979 19.396C321.243 19.284 321.519 19.2 321.807 19.144C322.095 19.088 322.371 19.06 322.635 19.06C323.139 19.06 323.555 19.144 323.883 19.312C324.211 19.472 324.455 19.72 324.615 20.056C324.775 20.384 324.855 20.808 324.855 21.328V25H323.943V23.644H324.051C323.987 23.948 323.863 24.208 323.679 24.424C323.503 24.64 323.283 24.808 323.019 24.928C322.755 25.048 322.459 25.108 322.131 25.108ZM329.238 27.268C328.734 27.268 328.258 27.2 327.81 27.064C327.37 26.936 326.978 26.74 326.634 26.476L326.958 25.768C327.198 25.936 327.434 26.072 327.666 26.176C327.906 26.288 328.15 26.368 328.398 26.416C328.654 26.464 328.918 26.488 329.19 26.488C329.758 26.488 330.186 26.336 330.474 26.032C330.77 25.728 330.918 25.288 330.918 24.712V23.356H331.038C330.918 23.82 330.662 24.188 330.27 24.46C329.886 24.732 329.434 24.868 328.914 24.868C328.378 24.868 327.914 24.748 327.522 24.508C327.13 24.26 326.826 23.916 326.61 23.476C326.402 23.036 326.298 22.528 326.298 21.952C326.298 21.376 326.402 20.872 326.61 20.44C326.826 20 327.13 19.66 327.522 19.42C327.914 19.18 328.378 19.06 328.914 19.06C329.442 19.06 329.898 19.196 330.282 19.468C330.666 19.732 330.914 20.092 331.026 20.548H330.918V19.168H331.866V24.58C331.866 25.172 331.766 25.668 331.566 26.068C331.374 26.468 331.082 26.768 330.69 26.968C330.298 27.168 329.814 27.268 329.238 27.268ZM329.094 24.076C329.654 24.076 330.098 23.884 330.426 23.5C330.754 23.116 330.918 22.6 330.918 21.952C330.918 21.304 330.754 20.792 330.426 20.416C330.098 20.032 329.654 19.84 329.094 19.84C328.542 19.84 328.102 20.032 327.774 20.416C327.446 20.792 327.282 21.304 327.282 21.952C327.282 22.6 327.446 23.116 327.774 23.5C328.102 23.884 328.542 24.076 329.094 24.076ZM336.317 25.108C335.701 25.108 335.169 24.988 334.721 24.748C334.281 24.5 333.937 24.152 333.689 23.704C333.449 23.256 333.329 22.72 333.329 22.096C333.329 21.488 333.449 20.96 333.689 20.512C333.929 20.056 334.257 19.7 334.673 19.444C335.097 19.188 335.585 19.06 336.137 19.06C336.665 19.06 337.117 19.176 337.493 19.408C337.869 19.64 338.157 19.968 338.357 20.392C338.565 20.816 338.669 21.324 338.669 21.916V22.288H334.073V21.652H338.021L337.829 21.808C337.829 21.168 337.685 20.672 337.397 20.32C337.117 19.96 336.705 19.78 336.161 19.78C335.753 19.78 335.405 19.876 335.117 20.068C334.837 20.252 334.625 20.512 334.481 20.848C334.337 21.176 334.265 21.56 334.265 22V22.072C334.265 22.56 334.341 22.972 334.493 23.308C334.653 23.644 334.889 23.9 335.201 24.076C335.513 24.244 335.885 24.328 336.317 24.328C336.661 24.328 336.993 24.276 337.313 24.172C337.641 24.06 337.949 23.88 338.237 23.632L338.573 24.316C338.309 24.556 337.973 24.748 337.565 24.892C337.157 25.036 336.741 25.108 336.317 25.108ZM342.044 25.108C341.74 25.108 341.444 25.076 341.156 25.012C340.876 24.956 340.612 24.876 340.364 24.772C340.124 24.66 339.916 24.528 339.74 24.376L340.052 23.692C340.244 23.844 340.452 23.972 340.676 24.076C340.9 24.172 341.128 24.244 341.36 24.292C341.592 24.34 341.828 24.364 342.068 24.364C342.524 24.364 342.868 24.28 343.1 24.112C343.332 23.944 343.448 23.716 343.448 23.428C343.448 23.204 343.372 23.028 343.22 22.9C343.068 22.764 342.828 22.66 342.5 22.588L341.408 22.348C340.904 22.244 340.528 22.064 340.28 21.808C340.04 21.552 339.92 21.22 339.92 20.812C339.92 20.452 340.012 20.144 340.196 19.888C340.388 19.624 340.656 19.42 341 19.276C341.344 19.132 341.744 19.06 342.2 19.06C342.472 19.06 342.732 19.088 342.98 19.144C343.228 19.2 343.46 19.284 343.676 19.396C343.9 19.5 344.092 19.632 344.252 19.792L343.928 20.476C343.776 20.332 343.604 20.212 343.412 20.116C343.22 20.012 343.02 19.936 342.812 19.888C342.612 19.832 342.408 19.804 342.2 19.804C341.752 19.804 341.412 19.892 341.18 20.068C340.948 20.244 340.832 20.476 340.832 20.764C340.832 20.988 340.904 21.172 341.048 21.316C341.192 21.46 341.416 21.564 341.72 21.628L342.812 21.856C343.332 21.968 343.72 22.148 343.976 22.396C344.24 22.636 344.372 22.964 344.372 23.38C344.372 23.732 344.276 24.04 344.084 24.304C343.892 24.56 343.62 24.76 343.268 24.904C342.924 25.04 342.516 25.108 342.044 25.108ZM345.639 25V23.776H346.863V25H345.639Z" fill="white"/>
</svg>
