<svg width="136" height="80" viewBox="0 0 136 80" fill="none" xmlns="http://www.w3.org/2000/svg">
<g filter="url(#filter0_d_535_101)">
<rect x="4" y="25.0574" width="127.682" height="46.9785" rx="2" fill="white"/>
<rect x="4.25" y="25.3074" width="127.182" height="46.4785" rx="1.75" stroke="white" stroke-width="0.5"/>
</g>
<rect x="52.5" y="0.96582" width="30.1136" height="30.1144" rx="3" fill="#CB3335"/>
<g clip-path="url(#clip0_535_101)">
<path fill-rule="evenodd" clip-rule="evenodd" d="M67.0393 3.38291C67.121 3.37782 67.2065 3.39137 67.2298 3.41255C67.2531 3.43372 67.8917 3.76955 68.6485 4.15915C69.4056 4.54833 70.3487 5.03407 70.7447 5.23819C71.1406 5.44188 72.8464 6.31849 74.5347 7.18621C76.2236 8.05351 77.6375 8.7946 77.6778 8.83272C77.7455 8.89709 77.7506 9.25239 77.7531 14.2165C77.7553 18.4678 77.7447 19.5464 77.7015 19.6083C77.6718 19.6506 75.275 20.8944 72.375 22.3719C69.4751 23.8499 67.0647 25.0589 67.0181 25.0589C66.9715 25.0589 66.7238 24.948 66.4676 24.8129C66.2114 24.6774 63.812 23.4433 61.1356 22.0704C57.1253 20.0127 56.2555 19.5511 56.1899 19.4465C56.1285 19.3487 56.1141 19.2614 56.1268 19.0654C56.1361 18.9256 56.1768 16.5723 56.217 13.8353C56.2577 11.0984 56.308 8.81154 56.3292 8.75353C56.3614 8.66502 57.2291 8.2174 61.6294 6.01994C65.1455 4.26375 66.9402 3.38926 67.0393 3.38291ZM57.3752 8.89836C57.3803 8.91191 58.0367 9.26975 58.8345 9.69366C59.6323 10.1176 60.3327 10.4915 60.3907 10.525C60.4924 10.5838 60.6842 10.489 65.2713 8.11364C67.8972 6.75341 70.0315 5.62864 70.0142 5.61339C69.9968 5.59815 69.3298 5.25047 68.532 4.84054C67.7342 4.4306 67.0579 4.09648 67.0287 4.09775C66.9995 4.09902 64.8135 5.17424 62.171 6.48704C59.5286 7.79984 57.3705 8.88481 57.3752 8.89836ZM64.2753 9.36758C62.6055 10.2294 61.2385 10.9438 61.2385 10.9556C61.2381 10.9671 61.6425 11.1941 62.1376 11.4596L63.0375 11.9419C63.4969 11.7069 65.6384 10.594 68.0925 9.31718C70.5465 8.0408 72.5567 6.97701 72.5601 6.95372C72.5631 6.93043 72.1713 6.70641 71.689 6.45613C71.2071 6.20585 70.8069 6.00131 70.7997 6.00215C70.7929 6.003 70.0049 6.40785 69.0491 6.90205C68.0933 7.39626 65.945 8.50579 64.2753 9.36758ZM66.5006 10.8794C65.0049 11.6548 63.7802 12.304 63.7798 12.3214C63.779 12.3387 64.4934 12.7343 65.3666 13.2001L66.9546 14.0471C74.3882 10.2421 76.5789 9.11306 76.6191 9.083C76.6822 9.03599 76.4785 8.91953 75.0408 8.18182C74.1325 7.71599 73.3757 7.33231 73.3588 7.32935C73.3418 7.32639 72.4038 7.80662 71.274 8.39653C70.1442 8.98602 67.9963 10.1036 66.5006 10.8794ZM56.8797 14.2588C56.8264 17.7123 56.8183 19.0785 56.8514 19.1128C56.8763 19.1386 57.3642 19.3986 57.9346 19.6908C58.5054 19.9826 60.7062 21.1104 62.8257 22.1966C64.9452 23.2824 66.6836 24.1658 66.6891 24.159C66.6941 24.1527 66.6806 22.0031 66.6586 19.383C66.6366 16.7625 66.6133 14.6158 66.6065 14.612C66.6001 14.6082 65.8705 14.2152 64.9854 13.7392L63.3762 12.8736C63.3347 13.0773 63.311 13.6414 63.2962 14.2588C63.2729 15.2574 63.2615 15.3929 63.192 15.4869C63.1398 15.5575 63.0657 15.5966 62.9697 15.6042C62.8537 15.614 62.5882 15.4907 61.5998 14.969C60.9256 14.6133 60.3302 14.2889 60.2764 14.2482L60.179 14.1741L60.1578 11.1487C58.2869 10.1434 57.5675 9.75718 57.3515 9.64199C57.1355 9.52638 56.9577 9.4366 56.9564 9.44211C56.9555 9.44762 56.9208 11.615 56.8797 14.2588ZM67.3217 14.6056C67.3027 14.6128 67.3027 16.7675 67.3217 19.3936C67.3412 22.0196 67.3666 24.1692 67.3781 24.1696C67.3895 24.1705 69.581 23.0584 72.248 21.6982L77.0968 19.2254C77.1133 11.7662 77.104 9.60176 77.0862 9.60346C77.0688 9.60558 74.8727 10.7287 72.2056 12.0999C69.5386 13.4711 67.3412 14.5984 67.3217 14.6056ZM60.8151 13.8142C62.1304 14.5032 62.5348 14.709 62.5632 14.7153C62.6004 14.7238 62.6225 14.5358 62.6457 14.0166C62.6635 13.6257 62.6775 13.1247 62.6775 12.9037V12.5014C61.2991 11.7628 60.8799 11.5485 60.8566 11.5485C60.8295 11.5485 60.8142 11.9542 60.8146 12.6813L60.8151 13.8142Z" fill="white"/>
</g>
<path d="M16.832 40.0007V34.3607H19.152C19.5573 34.3607 19.9013 34.4274 20.184 34.5607C20.4667 34.6941 20.6827 34.8887 20.832 35.1447C20.9867 35.3954 21.064 35.6994 21.064 36.0567C21.064 36.4141 20.9867 36.7207 20.832 36.9767C20.6827 37.2327 20.464 37.4301 20.176 37.5687C19.8933 37.7074 19.552 37.7767 19.152 37.7767H17.544V40.0007H16.832ZM17.544 37.1687H19.048C19.4747 37.1687 19.7973 37.0781 20.016 36.8967C20.2347 36.7101 20.344 36.4327 20.344 36.0647C20.344 35.6914 20.2347 35.4167 20.016 35.2407C19.7973 35.0594 19.4747 34.9687 19.048 34.9687H17.544V37.1687ZM21.7242 35.0967V34.3047H22.5882V35.0967H21.7242ZM21.8042 40.0007V36.0487H22.5162V40.0007H21.8042ZM25.441 40.0727C24.9983 40.0727 24.6143 39.9927 24.289 39.8327C23.969 39.6674 23.7237 39.4327 23.553 39.1287C23.3823 38.8194 23.297 38.4514 23.297 38.0247C23.297 37.6247 23.377 37.2727 23.537 36.9687C23.697 36.6594 23.9237 36.4167 24.217 36.2407C24.5103 36.0647 24.8597 35.9767 25.265 35.9767C25.649 35.9767 25.9743 36.0594 26.241 36.2247C26.513 36.3901 26.7183 36.6221 26.857 36.9207C27.001 37.2194 27.073 37.5741 27.073 37.9847V38.2167H23.833V37.7207H26.609L26.457 37.8807C26.457 37.4434 26.353 37.1074 26.145 36.8727C25.9423 36.6381 25.649 36.5207 25.265 36.5207C25.0143 36.5207 24.7903 36.5794 24.593 36.6967C24.401 36.8087 24.2517 36.9687 24.145 37.1767C24.0383 37.3847 23.985 37.6381 23.985 37.9367V38.0167C23.985 38.3367 24.0437 38.6061 24.161 38.8247C24.2783 39.0434 24.4463 39.2087 24.665 39.3207C24.8837 39.4327 25.145 39.4887 25.449 39.4887C25.6677 39.4887 25.889 39.4594 26.113 39.4007C26.3423 39.3367 26.5557 39.2247 26.753 39.0647L26.993 39.5767C26.7903 39.7474 26.5477 39.8727 26.265 39.9527C25.9877 40.0327 25.713 40.0727 25.441 40.0727ZM29.6079 40.0727C29.2026 40.0727 28.8506 39.9874 28.5519 39.8167C28.2533 39.6461 28.0213 39.4087 27.8559 39.1047C27.6906 38.7954 27.6079 38.4327 27.6079 38.0167C27.6079 37.6007 27.6906 37.2407 27.8559 36.9367C28.0213 36.6274 28.2533 36.3901 28.5519 36.2247C28.8559 36.0594 29.2106 35.9767 29.6159 35.9767C29.8879 35.9767 30.1466 36.0221 30.3919 36.1127C30.6373 36.2034 30.8399 36.3261 30.9999 36.4807L30.7519 37.0087C30.5973 36.8701 30.4239 36.7661 30.2319 36.6967C30.0399 36.6221 29.8533 36.5847 29.6719 36.5847C29.2559 36.5847 28.9279 36.7101 28.6879 36.9607C28.4479 37.2114 28.3279 37.5661 28.3279 38.0247C28.3279 38.4781 28.4479 38.8327 28.6879 39.0887C28.9279 39.3394 29.2533 39.4647 29.6639 39.4647C29.8506 39.4647 30.0373 39.4301 30.2239 39.3607C30.4159 39.2861 30.5866 39.1821 30.7359 39.0487L30.9839 39.5767C30.8293 39.7314 30.6293 39.8541 30.3839 39.9447C30.1386 40.0301 29.8799 40.0727 29.6079 40.0727ZM33.3363 40.0727C32.8936 40.0727 32.5096 39.9927 32.1843 39.8327C31.8643 39.6674 31.619 39.4327 31.4483 39.1287C31.2776 38.8194 31.1923 38.4514 31.1923 38.0247C31.1923 37.6247 31.2723 37.2727 31.4323 36.9687C31.5923 36.6594 31.819 36.4167 32.1123 36.2407C32.4056 36.0647 32.755 35.9767 33.1603 35.9767C33.5443 35.9767 33.8696 36.0594 34.1363 36.2247C34.4083 36.3901 34.6136 36.6221 34.7523 36.9207C34.8963 37.2194 34.9683 37.5741 34.9683 37.9847V38.2167H31.7283V37.7207H34.5043L34.3523 37.8807C34.3523 37.4434 34.2483 37.1074 34.0403 36.8727C33.8376 36.6381 33.5443 36.5207 33.1603 36.5207C32.9096 36.5207 32.6856 36.5794 32.4883 36.6967C32.2963 36.8087 32.147 36.9687 32.0403 37.1767C31.9336 37.3847 31.8803 37.6381 31.8803 37.9367V38.0167C31.8803 38.3367 31.939 38.6061 32.0563 38.8247C32.1736 39.0434 32.3416 39.2087 32.5603 39.3207C32.779 39.4327 33.0403 39.4887 33.3443 39.4887C33.563 39.4887 33.7843 39.4594 34.0083 39.4007C34.2376 39.3367 34.451 39.2247 34.6483 39.0647L34.8883 39.5767C34.6856 39.7474 34.443 39.8727 34.1603 39.9527C33.883 40.0327 33.6083 40.0727 33.3363 40.0727ZM37.1993 40.0727C36.9806 40.0727 36.7646 40.0514 36.5513 40.0087C36.3433 39.9714 36.1486 39.9181 35.9673 39.8487C35.7913 39.7741 35.6393 39.6834 35.5113 39.5767L35.7433 39.0727C35.8766 39.1741 36.0233 39.2567 36.1833 39.3207C36.3486 39.3847 36.5166 39.4327 36.6873 39.4647C36.8633 39.4914 37.0313 39.5047 37.1913 39.5047C37.5219 39.5047 37.7753 39.4541 37.9513 39.3527C38.1326 39.2514 38.2233 39.1101 38.2233 38.9287C38.2233 38.7741 38.1699 38.6567 38.0633 38.5767C37.9619 38.4914 37.7913 38.4274 37.5513 38.3847L36.7273 38.2407C36.3593 38.1714 36.0819 38.0461 35.8953 37.8647C35.7139 37.6834 35.6233 37.4461 35.6233 37.1527C35.6233 36.9181 35.6873 36.7127 35.8153 36.5367C35.9486 36.3607 36.1379 36.2247 36.3833 36.1287C36.6286 36.0274 36.9219 35.9767 37.2633 35.9767C37.4499 35.9767 37.6393 35.9954 37.8313 36.0327C38.0286 36.0701 38.2099 36.1261 38.3753 36.2007C38.5459 36.2701 38.6846 36.3581 38.7913 36.4647L38.5513 36.9687C38.4446 36.8674 38.3166 36.7874 38.1673 36.7287C38.0233 36.6647 37.8713 36.6194 37.7113 36.5927C37.5566 36.5607 37.4046 36.5447 37.2553 36.5447C36.9459 36.5447 36.7059 36.5981 36.5353 36.7047C36.3646 36.8061 36.2793 36.9501 36.2793 37.1367C36.2793 37.2861 36.3273 37.4034 36.4233 37.4887C36.5246 37.5741 36.6873 37.6381 36.9113 37.6807L37.7113 37.8247C38.1059 37.8994 38.3993 38.0247 38.5913 38.2007C38.7833 38.3714 38.8793 38.6087 38.8793 38.9127C38.8793 39.1474 38.8099 39.3527 38.6713 39.5287C38.5326 39.6994 38.3379 39.8327 38.0873 39.9287C37.8366 40.0247 37.5406 40.0727 37.1993 40.0727Z" fill="#CE3439"/>
<path d="M55.1774 40.0007V39.3927H56.7214V34.9287L57.0974 34.9847L55.4574 36.0407L55.1374 35.4887L56.9054 34.3607H57.4254V39.3927H58.8494V40.0007H55.1774ZM61.6383 40.0727C61.2063 40.0727 60.8409 39.9634 60.5423 39.7447C60.2436 39.5207 60.0169 39.1954 59.8623 38.7687C59.7129 38.3367 59.6383 37.8061 59.6383 37.1767C59.6383 36.5474 59.7129 36.0194 59.8623 35.5927C60.0169 35.1661 60.2436 34.8434 60.5423 34.6247C60.8409 34.4007 61.2063 34.2887 61.6383 34.2887C62.0809 34.2887 62.4489 34.3981 62.7423 34.6167C63.0356 34.8354 63.2569 35.1581 63.4063 35.5847C63.5609 36.0114 63.6383 36.5394 63.6383 37.1687C63.6383 37.7981 63.5609 38.3287 63.4063 38.7607C63.2569 39.1927 63.0329 39.5207 62.7343 39.7447C62.4356 39.9634 62.0703 40.0727 61.6383 40.0727ZM61.6383 39.4487C62.0756 39.4487 62.4009 39.2647 62.6143 38.8967C62.8276 38.5287 62.9343 37.9527 62.9343 37.1687C62.9343 36.3901 62.8276 35.8194 62.6143 35.4567C62.4063 35.0941 62.0836 34.9127 61.6463 34.9127C61.2036 34.9127 60.8756 35.0967 60.6623 35.4647C60.4489 35.8274 60.3423 36.3981 60.3423 37.1767C60.3423 37.9501 60.4489 38.5234 60.6623 38.8967C60.8756 39.2647 61.2009 39.4487 61.6383 39.4487ZM66.4352 40.0727C66.0032 40.0727 65.6378 39.9634 65.3392 39.7447C65.0405 39.5207 64.8138 39.1954 64.6592 38.7687C64.5098 38.3367 64.4352 37.8061 64.4352 37.1767C64.4352 36.5474 64.5098 36.0194 64.6592 35.5927C64.8138 35.1661 65.0405 34.8434 65.3392 34.6247C65.6378 34.4007 66.0032 34.2887 66.4352 34.2887C66.8778 34.2887 67.2458 34.3981 67.5392 34.6167C67.8325 34.8354 68.0538 35.1581 68.2032 35.5847C68.3578 36.0114 68.4352 36.5394 68.4352 37.1687C68.4352 37.7981 68.3578 38.3287 68.2032 38.7607C68.0538 39.1927 67.8298 39.5207 67.5312 39.7447C67.2325 39.9634 66.8672 40.0727 66.4352 40.0727ZM66.4352 39.4487C66.8725 39.4487 67.1978 39.2647 67.4112 38.8967C67.6245 38.5287 67.7312 37.9527 67.7312 37.1687C67.7312 36.3901 67.6245 35.8194 67.4112 35.4567C67.2032 35.0941 66.8805 34.9127 66.4432 34.9127C66.0005 34.9127 65.6725 35.0967 65.4592 35.4647C65.2458 35.8274 65.1392 36.3981 65.1392 37.1767C65.1392 37.9501 65.2458 38.5234 65.4592 38.8967C65.6725 39.2647 65.9978 39.4487 66.4352 39.4487ZM71.232 40.0727C70.8 40.0727 70.4347 39.9634 70.136 39.7447C69.8374 39.5207 69.6107 39.1954 69.456 38.7687C69.3067 38.3367 69.232 37.8061 69.232 37.1767C69.232 36.5474 69.3067 36.0194 69.456 35.5927C69.6107 35.1661 69.8374 34.8434 70.136 34.6247C70.4347 34.4007 70.8 34.2887 71.232 34.2887C71.6747 34.2887 72.0427 34.3981 72.336 34.6167C72.6294 34.8354 72.8507 35.1581 73 35.5847C73.1547 36.0114 73.232 36.5394 73.232 37.1687C73.232 37.7981 73.1547 38.3287 73 38.7607C72.8507 39.1927 72.6267 39.5207 72.328 39.7447C72.0294 39.9634 71.664 40.0727 71.232 40.0727ZM71.232 39.4487C71.6694 39.4487 71.9947 39.2647 72.208 38.8967C72.4214 38.5287 72.528 37.9527 72.528 37.1687C72.528 36.3901 72.4214 35.8194 72.208 35.4567C72 35.0941 71.6774 34.9127 71.24 34.9127C70.7974 34.9127 70.4694 35.0967 70.256 35.4647C70.0427 35.8274 69.936 36.3981 69.936 37.1767C69.936 37.9501 70.0427 38.5234 70.256 38.8967C70.4694 39.2647 70.7947 39.4487 71.232 39.4487ZM76.6953 40.0007V34.3607H77.3273L80.7833 38.9527H80.7513V34.3607H81.4313V40.0007H80.7833L77.3433 35.4247H77.3753V40.0007H76.6953ZM84.6937 40.0727C84.2937 40.0727 83.9471 39.9874 83.6537 39.8167C83.3604 39.6461 83.1337 39.4087 82.9737 39.1047C82.8137 38.7954 82.7337 38.4327 82.7337 38.0167C82.7337 37.6061 82.8137 37.2487 82.9737 36.9447C83.1337 36.6354 83.3604 36.3981 83.6537 36.2327C83.9471 36.0621 84.2937 35.9767 84.6937 35.9767C85.0937 35.9767 85.4377 36.0621 85.7257 36.2327C86.0191 36.3981 86.2457 36.6354 86.4057 36.9447C86.5657 37.2487 86.6457 37.6061 86.6457 38.0167C86.6457 38.4327 86.5657 38.7954 86.4057 39.1047C86.2511 39.4087 86.0271 39.6461 85.7337 39.8167C85.4404 39.9874 85.0937 40.0727 84.6937 40.0727ZM84.6857 39.4727C85.0751 39.4727 85.3817 39.3421 85.6057 39.0807C85.8297 38.8194 85.9417 38.4647 85.9417 38.0167C85.9417 37.5687 85.8297 37.2167 85.6057 36.9607C85.3871 36.7047 85.0831 36.5767 84.6937 36.5767C84.3044 36.5767 83.9977 36.7047 83.7737 36.9607C83.5497 37.2167 83.4377 37.5687 83.4377 38.0167C83.4377 38.4647 83.5497 38.8194 83.7737 39.0807C84.0031 39.3421 84.3071 39.4727 84.6857 39.4727ZM89.2969 40.0727C89.0782 40.0727 88.8622 40.0514 88.6489 40.0087C88.4409 39.9714 88.2462 39.9181 88.0649 39.8487C87.8889 39.7741 87.7369 39.6834 87.6089 39.5767L87.8409 39.0727C87.9742 39.1741 88.1209 39.2567 88.2809 39.3207C88.4462 39.3847 88.6142 39.4327 88.7849 39.4647C88.9609 39.4914 89.1289 39.5047 89.2889 39.5047C89.6196 39.5047 89.8729 39.4541 90.0489 39.3527C90.2302 39.2514 90.3209 39.1101 90.3209 38.9287C90.3209 38.7741 90.2676 38.6567 90.1609 38.5767C90.0596 38.4914 89.8889 38.4274 89.6489 38.3847L88.8249 38.2407C88.4569 38.1714 88.1796 38.0461 87.9929 37.8647C87.8116 37.6834 87.7209 37.4461 87.7209 37.1527C87.7209 36.9181 87.7849 36.7127 87.9129 36.5367C88.0462 36.3607 88.2356 36.2247 88.4809 36.1287C88.7262 36.0274 89.0196 35.9767 89.3609 35.9767C89.5476 35.9767 89.7369 35.9954 89.9289 36.0327C90.1262 36.0701 90.3076 36.1261 90.4729 36.2007C90.6436 36.2701 90.7822 36.3581 90.8889 36.4647L90.6489 36.9687C90.5422 36.8674 90.4142 36.7874 90.2649 36.7287C90.1209 36.6647 89.9689 36.6194 89.8089 36.5927C89.6542 36.5607 89.5022 36.5447 89.3529 36.5447C89.0436 36.5447 88.8036 36.5981 88.6329 36.7047C88.4622 36.8061 88.3769 36.9501 88.3769 37.1367C88.3769 37.2861 88.4249 37.4034 88.5209 37.4887C88.6222 37.5741 88.7849 37.6381 89.0089 37.6807L89.8089 37.8247C90.2036 37.8994 90.4969 38.0247 90.6889 38.2007C90.8809 38.3714 90.9769 38.6087 90.9769 38.9127C90.9769 39.1474 90.9076 39.3527 90.7689 39.5287C90.6302 39.6994 90.4356 39.8327 90.1849 39.9287C89.9342 40.0247 89.6382 40.0727 89.2969 40.0727ZM91.8814 40.5047L91.3214 40.3527L93.3614 33.9847L93.9134 34.1367L91.8814 40.5047ZM96.9627 40.0727C96.424 40.0727 95.9547 39.9581 95.5547 39.7287C95.16 39.4941 94.856 39.1607 94.6427 38.7287C94.4293 38.2914 94.3227 37.7741 94.3227 37.1767C94.3227 36.5794 94.4293 36.0647 94.6427 35.6327C94.856 35.2007 95.16 34.8701 95.5547 34.6407C95.9493 34.4061 96.4187 34.2887 96.9627 34.2887C97.3573 34.2887 97.7173 34.3501 98.0427 34.4727C98.368 34.5901 98.648 34.7634 98.8827 34.9927L98.6027 35.5527C98.3573 35.3341 98.104 35.1767 97.8427 35.0807C97.5867 34.9847 97.2987 34.9367 96.9787 34.9367C96.3813 34.9367 95.912 35.1287 95.5707 35.5127C95.2347 35.8914 95.0667 36.4461 95.0667 37.1767C95.0667 37.9021 95.2347 38.4594 95.5707 38.8487C95.9067 39.2327 96.376 39.4247 96.9787 39.4247C97.2987 39.4247 97.5867 39.3767 97.8427 39.2807C98.104 39.1847 98.3573 39.0274 98.6027 38.8087L98.8827 39.3687C98.648 39.5981 98.368 39.7741 98.0427 39.8967C97.7173 40.0141 97.3573 40.0727 96.9627 40.0727ZM101.614 40.0727C101.14 40.0727 100.78 39.9474 100.534 39.6967C100.294 39.4461 100.174 39.0887 100.174 38.6247V36.6327H99.3743V36.0487H100.198V34.8727H100.886V36.0487H102.302V36.6327H100.886V38.5607C100.886 38.8647 100.953 39.0914 101.086 39.2407C101.225 39.3847 101.436 39.4567 101.718 39.4567C101.83 39.4567 101.937 39.4461 102.038 39.4247C102.145 39.4034 102.246 39.3714 102.342 39.3287L102.454 39.8887C102.348 39.9474 102.217 39.9927 102.062 40.0247C101.913 40.0567 101.764 40.0727 101.614 40.0727ZM103.286 40.0007V36.0487H103.95V36.9047C104.078 36.6114 104.27 36.3847 104.526 36.2247C104.782 36.0594 105.07 35.9767 105.39 35.9767C105.716 35.9767 105.988 36.0354 106.206 36.1527C106.425 36.2647 106.588 36.4407 106.694 36.6807C106.806 36.9154 106.862 37.2087 106.862 37.5607V40.0007H106.15V37.6007C106.15 37.3874 106.121 37.2061 106.062 37.0567C106.004 36.9074 105.905 36.7927 105.766 36.7127C105.633 36.6274 105.454 36.5847 105.23 36.5847C104.996 36.5847 104.782 36.6381 104.59 36.7447C104.404 36.8514 104.257 36.9954 104.15 37.1767C104.049 37.3581 103.998 37.5607 103.998 37.7847V40.0007H103.286Z" fill="black"/>
<path d="M18.72 53.0727C18.4107 53.0727 18.1173 53.0487 17.84 53.0007C17.5627 52.9527 17.3093 52.8807 17.08 52.7847C16.8507 52.6887 16.6507 52.5714 16.48 52.4327L16.744 51.8407C16.9253 51.9847 17.1173 52.1021 17.32 52.1927C17.528 52.2781 17.7467 52.3394 17.976 52.3767C18.2107 52.4141 18.4587 52.4327 18.72 52.4327C19.1627 52.4327 19.5013 52.3447 19.736 52.1687C19.976 51.9927 20.096 51.7527 20.096 51.4487C20.096 51.2887 20.056 51.1554 19.976 51.0487C19.9013 50.9421 19.7813 50.8541 19.616 50.7847C19.456 50.7154 19.248 50.6541 18.992 50.6007L18.072 50.4247C17.5547 50.3234 17.1813 50.1447 16.952 49.8887C16.7227 49.6327 16.608 49.3101 16.608 48.9207C16.608 48.5901 16.6987 48.3047 16.88 48.0647C17.0667 47.8194 17.3227 47.6301 17.648 47.4967C17.9787 47.3581 18.3547 47.2887 18.776 47.2887C19.0427 47.2887 19.2907 47.3154 19.52 47.3687C19.7547 47.4167 19.968 47.4914 20.16 47.5927C20.3573 47.6941 20.5333 47.8167 20.688 47.9607L20.424 48.5447C20.1947 48.3207 19.944 48.1634 19.672 48.0727C19.4 47.9767 19.0987 47.9287 18.768 47.9287C18.4907 47.9287 18.2427 47.9687 18.024 48.0487C17.8053 48.1234 17.632 48.2354 17.504 48.3847C17.3813 48.5287 17.32 48.7074 17.32 48.9207C17.32 49.1554 17.3947 49.3421 17.544 49.4807C17.6933 49.6141 17.9467 49.7181 18.304 49.7927L19.216 49.9687C19.76 50.0701 20.1627 50.2407 20.424 50.4807C20.6853 50.7207 20.816 51.0327 20.816 51.4167C20.816 51.7367 20.728 52.0221 20.552 52.2727C20.3813 52.5234 20.1387 52.7207 19.824 52.8647C19.5147 53.0034 19.1467 53.0727 18.72 53.0727ZM21.882 48.0967V47.3047H22.746V48.0967H21.882ZM21.962 53.0007V49.0487H22.674V53.0007H21.962ZM23.8628 53.0007V52.5447L26.3668 49.4167L26.4068 49.6407H23.9188V49.0487H27.0708V49.5047L24.5428 52.6567L24.5028 52.4087H27.1588V53.0007H23.8628ZM30.0691 53.0727C29.6265 53.0727 29.2425 52.9927 28.9171 52.8327C28.5971 52.6674 28.3518 52.4327 28.1811 52.1287C28.0105 51.8194 27.9251 51.4514 27.9251 51.0247C27.9251 50.6247 28.0051 50.2727 28.1651 49.9687C28.3251 49.6594 28.5518 49.4167 28.8451 49.2407C29.1385 49.0647 29.4878 48.9767 29.8931 48.9767C30.2771 48.9767 30.6025 49.0594 30.8691 49.2247C31.1411 49.3901 31.3465 49.6221 31.4851 49.9207C31.6291 50.2194 31.7011 50.5741 31.7011 50.9847V51.2167H28.4611V50.7207H31.2371L31.0851 50.8807C31.0851 50.4434 30.9811 50.1074 30.7731 49.8727C30.5705 49.6381 30.2771 49.5207 29.8931 49.5207C29.6425 49.5207 29.4185 49.5794 29.2211 49.6967C29.0291 49.8087 28.8798 49.9687 28.7731 50.1767C28.6665 50.3847 28.6131 50.6381 28.6131 50.9367V51.0167C28.6131 51.3367 28.6718 51.6061 28.7891 51.8247C28.9065 52.0434 29.0745 52.2087 29.2931 52.3207C29.5118 52.4327 29.7731 52.4887 30.0771 52.4887C30.2958 52.4887 30.5171 52.4594 30.7411 52.4007C30.9705 52.3367 31.1838 52.2247 31.3811 52.0647L31.6211 52.5767C31.4185 52.7474 31.1758 52.8727 30.8931 52.9527C30.6158 53.0327 30.3411 53.0727 30.0691 53.0727Z" fill="#CE3439"/>
<path d="M58.464 53.0727C58.2187 53.0727 57.9813 53.0461 57.752 52.9927C57.528 52.9394 57.3173 52.8621 57.12 52.7607C56.9227 52.6541 56.7467 52.5261 56.592 52.3767L56.872 51.8167C57.1173 52.0407 57.368 52.2034 57.624 52.3047C57.8853 52.4007 58.1653 52.4487 58.464 52.4487C58.8587 52.4487 59.1653 52.3474 59.384 52.1447C59.608 51.9367 59.72 51.6461 59.72 51.2727C59.72 50.9047 59.616 50.6114 59.408 50.3927C59.2 50.1741 58.912 50.0647 58.544 50.0647C58.2987 50.0647 58.0747 50.1154 57.872 50.2167C57.6747 50.3127 57.4907 50.4754 57.32 50.7047H56.76V47.3607H60.136V47.9767H57.408V50.0967H57.376C57.504 49.9047 57.68 49.7501 57.904 49.6327C58.128 49.5101 58.3787 49.4487 58.656 49.4487C59.0187 49.4487 59.3307 49.5261 59.592 49.6807C59.8533 49.8301 60.0533 50.0381 60.192 50.3047C60.336 50.5714 60.408 50.8834 60.408 51.2407C60.408 51.6194 60.328 51.9474 60.168 52.2247C60.008 52.4967 59.784 52.7074 59.496 52.8567C59.208 53.0007 58.864 53.0727 58.464 53.0727ZM61.4529 53.0007V52.4727L63.4369 50.3927C63.6289 50.1901 63.7782 50.0061 63.8849 49.8407C63.9915 49.6754 64.0689 49.5154 64.1169 49.3607C64.1649 49.2061 64.1889 49.0487 64.1889 48.8887C64.1889 48.5741 64.0875 48.3341 63.8849 48.1687C63.6875 47.9981 63.4129 47.9127 63.0609 47.9127C62.7942 47.9127 62.5302 47.9661 62.2689 48.0727C62.0129 48.1741 61.7675 48.3367 61.5329 48.5607L61.2609 48.0007C61.4955 47.7767 61.7755 47.6034 62.1009 47.4807C62.4262 47.3527 62.7622 47.2887 63.1089 47.2887C63.4769 47.2887 63.7942 47.3527 64.0609 47.4807C64.3275 47.6034 64.5302 47.7821 64.6689 48.0167C64.8129 48.2461 64.8849 48.5234 64.8849 48.8487C64.8849 49.0141 64.8662 49.1767 64.8289 49.3367C64.7915 49.4914 64.7329 49.6461 64.6529 49.8007C64.5782 49.9554 64.4795 50.1154 64.3569 50.2807C64.2342 50.4461 64.0849 50.6194 63.9089 50.8007L62.3569 52.4167V52.3847H65.1169V53.0007H61.4529ZM67.9938 53.0727C67.5618 53.0727 67.1964 52.9634 66.8978 52.7447C66.5991 52.5207 66.3724 52.1954 66.2178 51.7687C66.0684 51.3367 65.9938 50.8061 65.9938 50.1767C65.9938 49.5474 66.0684 49.0194 66.2178 48.5927C66.3724 48.1661 66.5991 47.8434 66.8978 47.6247C67.1964 47.4007 67.5618 47.2887 67.9938 47.2887C68.4364 47.2887 68.8044 47.3981 69.0978 47.6167C69.3911 47.8354 69.6124 48.1581 69.7618 48.5847C69.9164 49.0114 69.9938 49.5394 69.9938 50.1687C69.9938 50.7981 69.9164 51.3287 69.7618 51.7607C69.6124 52.1927 69.3884 52.5207 69.0898 52.7447C68.7911 52.9634 68.4258 53.0727 67.9938 53.0727ZM67.9938 52.4487C68.4311 52.4487 68.7564 52.2647 68.9698 51.8967C69.1831 51.5287 69.2898 50.9527 69.2898 50.1687C69.2898 49.3901 69.1831 48.8194 68.9698 48.4567C68.7618 48.0941 68.4391 47.9127 68.0018 47.9127C67.5591 47.9127 67.2311 48.0967 67.0178 48.4647C66.8044 48.8274 66.6978 49.3981 66.6978 50.1767C66.6978 50.9501 66.8044 51.5234 67.0178 51.8967C67.2311 52.2647 67.5564 52.4487 67.9938 52.4487ZM72.817 53.0007L74.905 49.9767V50.2407L72.929 47.3607H73.753L75.353 49.7127H75.313L76.913 47.3607H77.737L75.745 50.2407V49.9767L77.841 53.0007H77.009L75.297 50.4967H75.353L73.641 53.0007H72.817ZM82.7296 53.0727C82.4843 53.0727 82.247 53.0461 82.0176 52.9927C81.7936 52.9394 81.583 52.8621 81.3856 52.7607C81.1883 52.6541 81.0123 52.5261 80.8576 52.3767L81.1376 51.8167C81.383 52.0407 81.6336 52.2034 81.8896 52.3047C82.151 52.4007 82.431 52.4487 82.7296 52.4487C83.1243 52.4487 83.431 52.3474 83.6496 52.1447C83.8736 51.9367 83.9856 51.6461 83.9856 51.2727C83.9856 50.9047 83.8816 50.6114 83.6736 50.3927C83.4656 50.1741 83.1776 50.0647 82.8096 50.0647C82.5643 50.0647 82.3403 50.1154 82.1376 50.2167C81.9403 50.3127 81.7563 50.4754 81.5856 50.7047H81.0256V47.3607H84.4016V47.9767H81.6736V50.0967H81.6416C81.7696 49.9047 81.9456 49.7501 82.1696 49.6327C82.3936 49.5101 82.6443 49.4487 82.9216 49.4487C83.2843 49.4487 83.5963 49.5261 83.8576 49.6807C84.119 49.8301 84.319 50.0381 84.4576 50.3047C84.6016 50.5714 84.6736 50.8834 84.6736 51.2407C84.6736 51.6194 84.5936 51.9474 84.4336 52.2247C84.2736 52.4967 84.0496 52.7074 83.7616 52.8567C83.4736 53.0007 83.1296 53.0727 82.7296 53.0727ZM87.4625 53.0727C87.0305 53.0727 86.6652 52.9634 86.3665 52.7447C86.0678 52.5207 85.8412 52.1954 85.6865 51.7687C85.5372 51.3367 85.4625 50.8061 85.4625 50.1767C85.4625 49.5474 85.5372 49.0194 85.6865 48.5927C85.8412 48.1661 86.0678 47.8434 86.3665 47.6247C86.6652 47.4007 87.0305 47.2887 87.4625 47.2887C87.9052 47.2887 88.2732 47.3981 88.5665 47.6167C88.8598 47.8354 89.0812 48.1581 89.2305 48.5847C89.3852 49.0114 89.4625 49.5394 89.4625 50.1687C89.4625 50.7981 89.3852 51.3287 89.2305 51.7607C89.0812 52.1927 88.8572 52.5207 88.5585 52.7447C88.2598 52.9634 87.8945 53.0727 87.4625 53.0727ZM87.4625 52.4487C87.8998 52.4487 88.2252 52.2647 88.4385 51.8967C88.6518 51.5287 88.7585 50.9527 88.7585 50.1687C88.7585 49.3901 88.6518 48.8194 88.4385 48.4567C88.2305 48.0941 87.9078 47.9127 87.4705 47.9127C87.0278 47.9127 86.6998 48.0967 86.4865 48.4647C86.2732 48.8274 86.1665 49.3981 86.1665 50.1767C86.1665 50.9501 86.2732 51.5234 86.4865 51.8967C86.6998 52.2647 87.0252 52.4487 87.4625 52.4487ZM92.2594 53.0727C91.63 53.0727 91.134 52.9367 90.7714 52.6647C90.4087 52.3874 90.2274 52.0034 90.2274 51.5127C90.2274 51.2621 90.2754 51.0407 90.3714 50.8487C90.4727 50.6514 90.6114 50.4914 90.7874 50.3687C90.9687 50.2407 91.1767 50.1554 91.4114 50.1127V50.1207C91.2087 50.0727 91.0274 49.9847 90.8674 49.8567C90.7127 49.7287 90.59 49.5741 90.4994 49.3927C90.4087 49.2114 90.3634 49.0114 90.3634 48.7927C90.3634 48.3234 90.534 47.9554 90.8754 47.6887C91.222 47.4221 91.6834 47.2887 92.2594 47.2887C92.8354 47.2887 93.294 47.4221 93.6354 47.6887C93.982 47.9554 94.1554 48.3234 94.1554 48.7927C94.1554 49.0061 94.11 49.2061 94.0194 49.3927C93.9287 49.5741 93.8034 49.7287 93.6434 49.8567C93.4887 49.9847 93.3074 50.0727 93.0994 50.1207V50.1127C93.3287 50.1501 93.5314 50.2327 93.7074 50.3607C93.8887 50.4887 94.03 50.6514 94.1314 50.8487C94.238 51.0407 94.2914 51.2621 94.2914 51.5127C94.2914 52.0034 94.11 52.3874 93.7474 52.6647C93.39 52.9367 92.894 53.0727 92.2594 53.0727ZM92.2594 52.4727C92.702 52.4727 93.038 52.3874 93.2674 52.2167C93.502 52.0461 93.6194 51.7954 93.6194 51.4647C93.6194 51.1341 93.502 50.8807 93.2674 50.7047C93.038 50.5287 92.702 50.4407 92.2594 50.4407C91.8167 50.4407 91.478 50.5287 91.2434 50.7047C91.014 50.8807 90.8994 51.1341 90.8994 51.4647C90.8994 51.7954 91.014 52.0461 91.2434 52.2167C91.478 52.3874 91.8167 52.4727 92.2594 52.4727ZM92.2594 49.8407C92.6434 49.8407 92.9447 49.7554 93.1634 49.5847C93.382 49.4087 93.4914 49.1661 93.4914 48.8567C93.4914 48.5527 93.382 48.3154 93.1634 48.1447C92.9447 47.9687 92.6434 47.8807 92.2594 47.8807C91.8807 47.8807 91.582 47.9687 91.3634 48.1447C91.1447 48.3154 91.0354 48.5527 91.0354 48.8567C91.0354 49.1661 91.1447 49.4087 91.3634 49.5847C91.582 49.7554 91.8807 49.8407 92.2594 49.8407ZM97.0826 53.0007L99.1706 49.9767V50.2407L97.1946 47.3607H98.0186L99.6186 49.7127H99.5786L101.179 47.3607H102.003L100.011 50.2407V49.9767L102.107 53.0007H101.275L99.5626 50.4967H99.6186L97.9066 53.0007H97.0826ZM107.579 53.0007V51.8327H104.947V51.2967L107.547 47.3607H108.259V51.2327H109.043V51.8327H108.259V53.0007H107.579ZM107.603 51.2327V48.2407H107.635L105.571 51.3687L105.515 51.2327H107.603ZM111.648 53.0727C111.413 53.0727 111.181 53.0487 110.952 53.0007C110.723 52.9527 110.504 52.8781 110.296 52.7767C110.093 52.6754 109.907 52.5501 109.736 52.4007L110.008 51.8407C110.264 52.0594 110.531 52.2167 110.808 52.3127C111.085 52.4034 111.365 52.4487 111.648 52.4487C111.883 52.4487 112.093 52.4141 112.28 52.3447C112.472 52.2701 112.621 52.1607 112.728 52.0167C112.84 51.8674 112.896 51.6754 112.896 51.4407C112.896 51.1154 112.787 50.8701 112.568 50.7047C112.349 50.5341 112.032 50.4487 111.616 50.4487H110.768V49.8327H111.512C111.752 49.8327 111.965 49.7954 112.152 49.7207C112.344 49.6407 112.493 49.5234 112.6 49.3687C112.707 49.2141 112.76 49.0221 112.76 48.7927C112.76 48.4994 112.659 48.2807 112.456 48.1367C112.253 47.9874 111.992 47.9127 111.672 47.9127C111.389 47.9127 111.112 47.9607 110.84 48.0567C110.573 48.1527 110.328 48.3181 110.104 48.5527L109.84 48.0007C110.064 47.7607 110.341 47.5821 110.672 47.4647C111.003 47.3474 111.347 47.2887 111.704 47.2887C112.061 47.2887 112.368 47.3474 112.624 47.4647C112.885 47.5767 113.088 47.7421 113.232 47.9607C113.376 48.1741 113.448 48.4327 113.448 48.7367C113.448 49.0567 113.357 49.3394 113.176 49.5847C112.995 49.8301 112.749 50.0034 112.44 50.1047V50.0967C112.664 50.1394 112.861 50.2221 113.032 50.3447C113.203 50.4621 113.339 50.6167 113.44 50.8087C113.541 50.9954 113.592 51.2167 113.592 51.4727C113.592 51.8087 113.509 52.0967 113.344 52.3367C113.184 52.5767 112.957 52.7607 112.664 52.8887C112.376 53.0114 112.037 53.0727 111.648 53.0727ZM116.525 53.0727C115.896 53.0727 115.4 52.9367 115.037 52.6647C114.674 52.3874 114.493 52.0034 114.493 51.5127C114.493 51.2621 114.541 51.0407 114.637 50.8487C114.738 50.6514 114.877 50.4914 115.053 50.3687C115.234 50.2407 115.442 50.1554 115.677 50.1127V50.1207C115.474 50.0727 115.293 49.9847 115.133 49.8567C114.978 49.7287 114.856 49.5741 114.765 49.3927C114.674 49.2114 114.629 49.0114 114.629 48.7927C114.629 48.3234 114.8 47.9554 115.141 47.6887C115.488 47.4221 115.949 47.2887 116.525 47.2887C117.101 47.2887 117.56 47.4221 117.901 47.6887C118.248 47.9554 118.421 48.3234 118.421 48.7927C118.421 49.0061 118.376 49.2061 118.285 49.3927C118.194 49.5741 118.069 49.7287 117.909 49.8567C117.754 49.9847 117.573 50.0727 117.365 50.1207V50.1127C117.594 50.1501 117.797 50.2327 117.973 50.3607C118.154 50.4887 118.296 50.6514 118.397 50.8487C118.504 51.0407 118.557 51.2621 118.557 51.5127C118.557 52.0034 118.376 52.3874 118.013 52.6647C117.656 52.9367 117.16 53.0727 116.525 53.0727ZM116.525 52.4727C116.968 52.4727 117.304 52.3874 117.533 52.2167C117.768 52.0461 117.885 51.7954 117.885 51.4647C117.885 51.1341 117.768 50.8807 117.533 50.7047C117.304 50.5287 116.968 50.4407 116.525 50.4407C116.082 50.4407 115.744 50.5287 115.509 50.7047C115.28 50.8807 115.165 51.1341 115.165 51.4647C115.165 51.7954 115.28 52.0461 115.509 52.2167C115.744 52.3874 116.082 52.4727 116.525 52.4727ZM116.525 49.8407C116.909 49.8407 117.21 49.7554 117.429 49.5847C117.648 49.4087 117.757 49.1661 117.757 48.8567C117.757 48.5527 117.648 48.3154 117.429 48.1447C117.21 47.9687 116.909 47.8807 116.525 47.8807C116.146 47.8807 115.848 47.9687 115.629 48.1447C115.41 48.3154 115.301 48.5527 115.301 48.8567C115.301 49.1661 115.41 49.4087 115.629 49.5847C115.848 49.7554 116.146 49.8407 116.525 49.8407Z" fill="black"/>
<path d="M18.168 66.0007L16.36 60.3607H17.112L18.584 65.1447H18.512L20.152 60.3607H20.736L22.36 65.1447H22.304L23.792 60.3607H24.512L22.696 66.0007H22.016L20.424 61.3447H20.456L18.832 66.0007H18.168ZM27.0223 66.0727C26.5796 66.0727 26.1956 65.9927 25.8703 65.8327C25.5503 65.6674 25.3049 65.4327 25.1343 65.1287C24.9636 64.8194 24.8783 64.4514 24.8783 64.0247C24.8783 63.6247 24.9583 63.2727 25.1183 62.9687C25.2783 62.6594 25.5049 62.4167 25.7983 62.2407C26.0916 62.0647 26.4409 61.9767 26.8463 61.9767C27.2303 61.9767 27.5556 62.0594 27.8223 62.2247C28.0943 62.3901 28.2996 62.6221 28.4383 62.9207C28.5823 63.2194 28.6543 63.5741 28.6543 63.9847V64.2167H25.4143V63.7207H28.1903L28.0383 63.8807C28.0383 63.4434 27.9343 63.1074 27.7263 62.8727C27.5236 62.6381 27.2303 62.5207 26.8463 62.5207C26.5956 62.5207 26.3716 62.5794 26.1743 62.6967C25.9823 62.8087 25.8329 62.9687 25.7263 63.1767C25.6196 63.3847 25.5663 63.6381 25.5663 63.9367V64.0167C25.5663 64.3367 25.6249 64.6061 25.7423 64.8247C25.8596 65.0434 26.0276 65.2087 26.2463 65.3207C26.4649 65.4327 26.7263 65.4887 27.0303 65.4887C27.2489 65.4887 27.4703 65.4594 27.6943 65.4007C27.9236 65.3367 28.1369 65.2247 28.3343 65.0647L28.5743 65.5767C28.3716 65.7474 28.1289 65.8727 27.8463 65.9527C27.5689 66.0327 27.2943 66.0727 27.0223 66.0727ZM29.7492 61.0967V60.3047H30.6132V61.0967H29.7492ZM29.8292 66.0007V62.0487H30.5412V66.0007H29.8292ZM33.674 67.5127C33.3593 67.5127 33.0473 67.4647 32.738 67.3687C32.4287 67.2781 32.1647 67.1527 31.946 66.9927L32.17 66.4407C32.3193 66.5367 32.4767 66.6194 32.642 66.6887C32.8073 66.7634 32.9753 66.8167 33.146 66.8487C33.322 66.8861 33.4953 66.9047 33.666 66.9047C34.0767 66.9047 34.3967 66.8007 34.626 66.5927C34.8607 66.3847 34.978 66.0887 34.978 65.7047V64.9767H34.962C34.866 65.2487 34.6927 65.4701 34.442 65.6407C34.1913 65.8061 33.9007 65.8887 33.57 65.8887C33.1967 65.8887 32.8713 65.8087 32.594 65.6487C32.3167 65.4834 32.1007 65.2541 31.946 64.9607C31.7967 64.6674 31.722 64.3234 31.722 63.9287C31.722 63.5394 31.7967 63.1981 31.946 62.9047C32.1007 62.6114 32.3167 62.3847 32.594 62.2247C32.8713 62.0594 33.1967 61.9767 33.57 61.9767C33.9007 61.9767 34.1913 62.0621 34.442 62.2327C34.698 62.4034 34.874 62.6301 34.97 62.9127H34.978V62.0487H35.642V65.6407C35.642 66.0247 35.562 66.3554 35.402 66.6327C35.2473 66.9154 35.0233 67.1314 34.73 67.2807C34.4367 67.4354 34.0847 67.5127 33.674 67.5127ZM33.69 65.3047C34.0793 65.3047 34.386 65.1794 34.61 64.9287C34.8393 64.6781 34.954 64.3447 34.954 63.9287C34.954 63.5127 34.8393 63.1821 34.61 62.9367C34.386 62.6861 34.0793 62.5607 33.69 62.5607C33.306 62.5607 32.9993 62.6861 32.77 62.9367C32.546 63.1821 32.434 63.5127 32.434 63.9287C32.434 64.3447 32.546 64.6781 32.77 64.9287C32.9993 65.1794 33.306 65.3047 33.69 65.3047ZM37.0636 66.0007V60.3607H37.7516V62.8887C37.8689 62.6061 38.0529 62.3847 38.3036 62.2247C38.5596 62.0594 38.8476 61.9767 39.1676 61.9767C39.4929 61.9767 39.7649 62.0354 39.9836 62.1527C40.2022 62.2647 40.3649 62.4407 40.4716 62.6807C40.5836 62.9154 40.6396 63.2087 40.6396 63.5607V66.0007H39.9276V63.6007C39.9276 63.3874 39.8956 63.2061 39.8316 63.0567C39.7729 62.9074 39.6769 62.7927 39.5436 62.7127C39.4102 62.6274 39.2316 62.5847 39.0076 62.5847C38.7729 62.5847 38.5622 62.6381 38.3756 62.7447C38.1889 62.8514 38.0422 62.9954 37.9356 63.1767C37.8289 63.3581 37.7756 63.5607 37.7756 63.7847V66.0007H37.0636ZM43.7119 66.0727C43.2373 66.0727 42.8773 65.9474 42.6319 65.6967C42.3919 65.4461 42.2719 65.0887 42.2719 64.6247V62.6327H41.4719V62.0487H42.2959V60.8727H42.9839V62.0487H44.3999V62.6327H42.9839V64.5607C42.9839 64.8647 43.0506 65.0914 43.1839 65.2407C43.3226 65.3847 43.5333 65.4567 43.8159 65.4567C43.9279 65.4567 44.0346 65.4461 44.1359 65.4247C44.2426 65.4034 44.3439 65.3714 44.4399 65.3287L44.5519 65.8887C44.4453 65.9474 44.3146 65.9927 44.1599 66.0247C44.0106 66.0567 43.8613 66.0727 43.7119 66.0727Z" fill="#CE3439"/>
<path d="M57.8357 66.0007V65.4727L59.8197 63.3927C60.0117 63.1901 60.161 63.0061 60.2677 62.8407C60.3744 62.6754 60.4517 62.5154 60.4997 62.3607C60.5477 62.2061 60.5717 62.0487 60.5717 61.8887C60.5717 61.5741 60.4704 61.3341 60.2677 61.1687C60.0704 60.9981 59.7957 60.9127 59.4437 60.9127C59.177 60.9127 58.913 60.9661 58.6517 61.0727C58.3957 61.1741 58.1504 61.3367 57.9157 61.5607L57.6437 61.0007C57.8784 60.7767 58.1584 60.6034 58.4837 60.4807C58.809 60.3527 59.145 60.2887 59.4917 60.2887C59.8597 60.2887 60.177 60.3527 60.4437 60.4807C60.7104 60.6034 60.913 60.7821 61.0517 61.0167C61.1957 61.2461 61.2677 61.5234 61.2677 61.8487C61.2677 62.0141 61.249 62.1767 61.2117 62.3367C61.1744 62.4914 61.1157 62.6461 61.0357 62.8007C60.961 62.9554 60.8624 63.1154 60.7397 63.2807C60.617 63.4461 60.4677 63.6194 60.2917 63.8007L58.7397 65.4167V65.3847H61.4997V66.0007H57.8357ZM62.7126 66.0007V65.3927H64.2566V60.9287L64.6326 60.9847L62.9926 62.0407L62.6726 61.4887L64.4406 60.3607H64.9606V65.3927H66.3846V66.0007H62.7126ZM68.6614 67.5367C68.2828 66.9607 68.0028 66.3741 67.8214 65.7767C67.6454 65.1741 67.5574 64.5474 67.5574 63.8967C67.5574 63.2461 67.6454 62.6221 67.8214 62.0247C68.0028 61.4274 68.2828 60.8381 68.6614 60.2567L69.1734 60.4407C68.9708 60.8194 68.8028 61.2007 68.6694 61.5847C68.5361 61.9687 68.4348 62.3527 68.3654 62.7367C68.3014 63.1154 68.2694 63.5021 68.2694 63.8967C68.2694 64.2861 68.3014 64.6727 68.3654 65.0567C68.4348 65.4407 68.5361 65.8221 68.6694 66.2007C68.8028 66.5847 68.9708 66.9687 69.1734 67.3527L68.6614 67.5367ZM70.2929 66.0007V60.3607H71.0049V62.9047H71.0369L73.7169 60.3607H74.6209L71.5089 63.3127L71.5569 62.9207L74.8129 66.0007H73.8609L71.0369 63.3527H71.0049V66.0007H70.2929ZM77.1428 67.5127C76.8281 67.5127 76.5161 67.4647 76.2068 67.3687C75.8974 67.2781 75.6334 67.1527 75.4148 66.9927L75.6388 66.4407C75.7881 66.5367 75.9454 66.6194 76.1108 66.6887C76.2761 66.7634 76.4441 66.8167 76.6148 66.8487C76.7908 66.8861 76.9641 66.9047 77.1348 66.9047C77.5454 66.9047 77.8654 66.8007 78.0948 66.5927C78.3294 66.3847 78.4468 66.0887 78.4468 65.7047V64.9767H78.4308C78.3348 65.2487 78.1614 65.4701 77.9108 65.6407C77.6601 65.8061 77.3694 65.8887 77.0388 65.8887C76.6654 65.8887 76.3401 65.8087 76.0628 65.6487C75.7854 65.4834 75.5694 65.2541 75.4148 64.9607C75.2654 64.6674 75.1908 64.3234 75.1908 63.9287C75.1908 63.5394 75.2654 63.1981 75.4148 62.9047C75.5694 62.6114 75.7854 62.3847 76.0628 62.2247C76.3401 62.0594 76.6654 61.9767 77.0388 61.9767C77.3694 61.9767 77.6601 62.0621 77.9108 62.2327C78.1668 62.4034 78.3428 62.6301 78.4388 62.9127H78.4468V62.0487H79.1108V65.6407C79.1108 66.0247 79.0308 66.3554 78.8708 66.6327C78.7161 66.9154 78.4921 67.1314 78.1988 67.2807C77.9054 67.4354 77.5534 67.5127 77.1428 67.5127ZM77.1588 65.3047C77.5481 65.3047 77.8548 65.1794 78.0788 64.9287C78.3081 64.6781 78.4228 64.3447 78.4228 63.9287C78.4228 63.5127 78.3081 63.1821 78.0788 62.9367C77.8548 62.6861 77.5481 62.5607 77.1588 62.5607C76.7748 62.5607 76.4681 62.6861 76.2388 62.9367C76.0148 63.1821 75.9028 63.5127 75.9028 63.9287C75.9028 64.3447 76.0148 64.6781 76.2388 64.9287C76.4681 65.1794 76.7748 65.3047 77.1588 65.3047ZM81.9883 66.0727C81.7696 66.0727 81.5536 66.0514 81.3403 66.0087C81.1323 65.9714 80.9376 65.9181 80.7563 65.8487C80.5803 65.7741 80.4283 65.6834 80.3003 65.5767L80.5323 65.0727C80.6656 65.1741 80.8123 65.2567 80.9723 65.3207C81.1376 65.3847 81.3056 65.4327 81.4763 65.4647C81.6523 65.4914 81.8203 65.5047 81.9803 65.5047C82.311 65.5047 82.5643 65.4541 82.7403 65.3527C82.9216 65.2514 83.0123 65.1101 83.0123 64.9287C83.0123 64.7741 82.959 64.6567 82.8523 64.5767C82.751 64.4914 82.5803 64.4274 82.3403 64.3847L81.5163 64.2407C81.1483 64.1714 80.871 64.0461 80.6843 63.8647C80.503 63.6834 80.4123 63.4461 80.4123 63.1527C80.4123 62.9181 80.4763 62.7127 80.6043 62.5367C80.7376 62.3607 80.927 62.2247 81.1723 62.1287C81.4176 62.0274 81.711 61.9767 82.0523 61.9767C82.239 61.9767 82.4283 61.9954 82.6203 62.0327C82.8176 62.0701 82.999 62.1261 83.1643 62.2007C83.335 62.2701 83.4736 62.3581 83.5803 62.4647L83.3403 62.9687C83.2336 62.8674 83.1056 62.7874 82.9563 62.7287C82.8123 62.6647 82.6603 62.6194 82.5003 62.5927C82.3456 62.5607 82.1936 62.5447 82.0443 62.5447C81.735 62.5447 81.495 62.5981 81.3243 62.7047C81.1536 62.8061 81.0683 62.9501 81.0683 63.1367C81.0683 63.2861 81.1163 63.4034 81.2123 63.4887C81.3136 63.5741 81.4763 63.6381 81.7003 63.6807L82.5003 63.8247C82.895 63.8994 83.1883 64.0247 83.3803 64.2007C83.5723 64.3714 83.6683 64.6087 83.6683 64.9127C83.6683 65.1474 83.599 65.3527 83.4603 65.5287C83.3216 65.6994 83.127 65.8327 82.8763 65.9287C82.6256 66.0247 82.3296 66.0727 81.9883 66.0727ZM84.9408 67.5367L84.4208 67.3527C84.6288 66.9634 84.7995 66.5767 84.9328 66.1927C85.0661 65.8141 85.1648 65.4354 85.2288 65.0567C85.2928 64.6727 85.3248 64.2861 85.3248 63.8967C85.3248 63.5074 85.2928 63.1234 85.2288 62.7447C85.1648 62.3607 85.0661 61.9767 84.9328 61.5927C84.7995 61.2087 84.6288 60.8247 84.4208 60.4407L84.9408 60.2567C85.3141 60.8327 85.5888 61.4221 85.7648 62.0247C85.9461 62.6221 86.0368 63.2461 86.0368 63.8967C86.0368 64.5421 85.9461 65.1661 85.7648 65.7687C85.5888 66.3661 85.3141 66.9554 84.9408 67.5367Z" fill="black"/>
<defs>
<filter id="filter0_d_535_101" x="0.0999999" y="25.0574" width="135.482" height="54.8785" filterUnits="userSpaceOnUse" color-interpolation-filters="sRGB">
<feFlood flood-opacity="0" result="BackgroundImageFix"/>
<feColorMatrix in="SourceAlpha" type="matrix" values="0 0 0 0 0 0 0 0 0 0 0 0 0 0 0 0 0 0 127 0" result="hardAlpha"/>
<feOffset dy="4"/>
<feGaussianBlur stdDeviation="1.95"/>
<feComposite in2="hardAlpha" operator="out"/>
<feColorMatrix type="matrix" values="0 0 0 0 0 0 0 0 0 0 0 0 0 0 0 0 0 0 0.2 0"/>
<feBlend mode="normal" in2="BackgroundImageFix" result="effect1_dropShadow_535_101"/>
<feBlend mode="normal" in="SourceGraphic" in2="effect1_dropShadow_535_101" result="shape"/>
</filter>
<clipPath id="clip0_535_101">
<rect width="21.6818" height="21.6824" fill="white" transform="translate(56.1138 3.375)"/>
</clipPath>
</defs>
</svg>
