<svg width="311" height="28" viewBox="0 0 311 28" fill="none" xmlns="http://www.w3.org/2000/svg">
<path d="M2.044 9V0.539999H3.028V9H2.044ZM4.98231 9V3.168H5.93031V4.464H5.79831C5.96631 4 6.23831 3.652 6.61431 3.42C6.99831 3.18 7.43831 3.06 7.93431 3.06C8.39831 3.06 8.78231 3.144 9.08631 3.312C9.39831 3.472 9.63031 3.724 9.78231 4.068C9.93431 4.412 10.0103 4.844 10.0103 5.364V9H9.03831V5.424C9.03831 5.064 8.99031 4.768 8.89431 4.536C8.80631 4.304 8.66231 4.132 8.46231 4.02C8.27031 3.908 8.01831 3.852 7.70631 3.852C7.35431 3.852 7.04631 3.928 6.78231 4.08C6.51831 4.232 6.31431 4.444 6.17031 4.716C6.02631 4.988 5.95431 5.308 5.95431 5.676V9H4.98231ZM14.0226 9.108C13.5026 9.108 13.0466 8.984 12.6546 8.736C12.2706 8.488 11.9706 8.14 11.7546 7.692C11.5466 7.236 11.4426 6.7 11.4426 6.084C11.4426 5.46 11.5466 4.924 11.7546 4.476C11.9706 4.02 12.2706 3.672 12.6546 3.432C13.0466 3.184 13.5026 3.06 14.0226 3.06C14.5506 3.06 15.0026 3.192 15.3786 3.456C15.7546 3.72 16.0066 4.076 16.1346 4.524H16.0026V0.539999H16.9746V9H16.0266V7.608H16.1466C16.0186 8.064 15.7626 8.428 15.3786 8.7C15.0026 8.972 14.5506 9.108 14.0226 9.108ZM14.2266 8.328C14.7786 8.328 15.2146 8.136 15.5346 7.752C15.8626 7.36 16.0266 6.804 16.0266 6.084C16.0266 5.356 15.8626 4.8 15.5346 4.416C15.2146 4.032 14.7786 3.84 14.2266 3.84C13.6826 3.84 13.2466 4.032 12.9186 4.416C12.5906 4.8 12.4266 5.356 12.4266 6.084C12.4266 6.804 12.5906 7.36 12.9186 7.752C13.2466 8.136 13.6826 8.328 14.2266 8.328ZM18.6787 1.716V0.624H19.8787V1.716H18.6787ZM18.7987 9V3.168H19.7707V9H18.7987ZM23.4238 9.108C23.0238 9.108 22.6638 9.032 22.3438 8.88C22.0318 8.72 21.7838 8.504 21.5998 8.232C21.4158 7.96 21.3238 7.656 21.3238 7.32C21.3238 6.888 21.4318 6.548 21.6478 6.3C21.8718 6.052 22.2358 5.876 22.7398 5.772C23.2518 5.668 23.9478 5.616 24.8278 5.616H25.3678V6.252H24.8398C24.3518 6.252 23.9438 6.268 23.6158 6.3C23.2878 6.332 23.0278 6.388 22.8358 6.468C22.6438 6.548 22.5078 6.652 22.4278 6.78C22.3478 6.908 22.3078 7.068 22.3078 7.26C22.3078 7.588 22.4198 7.856 22.6438 8.064C22.8758 8.272 23.1878 8.376 23.5798 8.376C23.8998 8.376 24.1798 8.3 24.4198 8.148C24.6678 7.996 24.8598 7.788 24.9958 7.524C25.1398 7.26 25.2118 6.956 25.2118 6.612V5.244C25.2118 4.748 25.1118 4.392 24.9118 4.176C24.7118 3.952 24.3838 3.84 23.9278 3.84C23.5758 3.84 23.2358 3.892 22.9078 3.996C22.5798 4.092 22.2438 4.252 21.8998 4.476L21.5638 3.768C21.7718 3.624 22.0078 3.5 22.2718 3.396C22.5358 3.284 22.8118 3.2 23.0998 3.144C23.3878 3.088 23.6638 3.06 23.9278 3.06C24.4318 3.06 24.8478 3.144 25.1758 3.312C25.5038 3.472 25.7478 3.72 25.9078 4.056C26.0678 4.384 26.1478 4.808 26.1478 5.328V9H25.2358V7.644H25.3438C25.2798 7.948 25.1558 8.208 24.9718 8.424C24.7958 8.64 24.5758 8.808 24.3118 8.928C24.0478 9.048 23.7518 9.108 23.4238 9.108ZM28.0764 3.144L27.6324 2.784C27.7764 2.64 27.8844 2.5 27.9564 2.364C28.0364 2.228 28.0884 2.096 28.1124 1.968C28.1444 1.84 28.1604 1.708 28.1604 1.572L28.4604 1.764H27.5844V0.539999H28.8084V1.404C28.8084 1.62 28.7844 1.828 28.7364 2.028C28.6964 2.22 28.6244 2.408 28.5204 2.592C28.4164 2.776 28.2684 2.96 28.0764 3.144ZM32.0753 9.108C31.7713 9.108 31.4753 9.076 31.1873 9.012C30.9073 8.956 30.6433 8.876 30.3953 8.772C30.1553 8.66 29.9473 8.528 29.7713 8.376L30.0833 7.692C30.2753 7.844 30.4833 7.972 30.7073 8.076C30.9313 8.172 31.1593 8.244 31.3913 8.292C31.6233 8.34 31.8593 8.364 32.0993 8.364C32.5553 8.364 32.8993 8.28 33.1313 8.112C33.3633 7.944 33.4793 7.716 33.4793 7.428C33.4793 7.204 33.4033 7.028 33.2513 6.9C33.0993 6.764 32.8593 6.66 32.5313 6.588L31.4393 6.348C30.9353 6.244 30.5593 6.064 30.3113 5.808C30.0713 5.552 29.9513 5.22 29.9513 4.812C29.9513 4.452 30.0433 4.144 30.2273 3.888C30.4193 3.624 30.6873 3.42 31.0313 3.276C31.3753 3.132 31.7753 3.06 32.2313 3.06C32.5033 3.06 32.7633 3.088 33.0113 3.144C33.2593 3.2 33.4913 3.284 33.7073 3.396C33.9313 3.5 34.1233 3.632 34.2833 3.792L33.9593 4.476C33.8073 4.332 33.6353 4.212 33.4433 4.116C33.2513 4.012 33.0513 3.936 32.8433 3.888C32.6433 3.832 32.4393 3.804 32.2313 3.804C31.7833 3.804 31.4433 3.892 31.2113 4.068C30.9793 4.244 30.8633 4.476 30.8633 4.764C30.8633 4.988 30.9353 5.172 31.0793 5.316C31.2233 5.46 31.4473 5.564 31.7513 5.628L32.8433 5.856C33.3633 5.968 33.7513 6.148 34.0073 6.396C34.2713 6.636 34.4033 6.964 34.4033 7.38C34.4033 7.732 34.3073 8.04 34.1153 8.304C33.9233 8.56 33.6513 8.76 33.2993 8.904C32.9553 9.04 32.5473 9.108 32.0753 9.108ZM39.0987 9V0.539999H44.3307V1.368H40.0827V4.32H44.0907V5.148H40.0827V9H39.0987ZM45.4209 1.716V0.624H46.6209V1.716H45.4209ZM45.5409 9V3.168H46.5129V9H45.5409ZM48.33 9V3.168H49.278V4.548H49.158C49.294 4.076 49.53 3.72 49.866 3.48C50.202 3.232 50.646 3.088 51.198 3.048L51.546 3.012L51.618 3.852L51.006 3.924C50.462 3.972 50.042 4.148 49.746 4.452C49.458 4.748 49.314 5.156 49.314 5.676V9H48.33ZM54.5402 9.108C54.2362 9.108 53.9402 9.076 53.6522 9.012C53.3722 8.956 53.1082 8.876 52.8602 8.772C52.6202 8.66 52.4122 8.528 52.2362 8.376L52.5482 7.692C52.7402 7.844 52.9482 7.972 53.1722 8.076C53.3962 8.172 53.6242 8.244 53.8562 8.292C54.0882 8.34 54.3242 8.364 54.5642 8.364C55.0202 8.364 55.3642 8.28 55.5962 8.112C55.8282 7.944 55.9442 7.716 55.9442 7.428C55.9442 7.204 55.8682 7.028 55.7162 6.9C55.5642 6.764 55.3242 6.66 54.9962 6.588L53.9042 6.348C53.4002 6.244 53.0242 6.064 52.7762 5.808C52.5362 5.552 52.4162 5.22 52.4162 4.812C52.4162 4.452 52.5082 4.144 52.6922 3.888C52.8842 3.624 53.1522 3.42 53.4962 3.276C53.8402 3.132 54.2402 3.06 54.6962 3.06C54.9682 3.06 55.2282 3.088 55.4762 3.144C55.7242 3.2 55.9562 3.284 56.1722 3.396C56.3962 3.5 56.5882 3.632 56.7482 3.792L56.4242 4.476C56.2722 4.332 56.1002 4.212 55.9082 4.116C55.7162 4.012 55.5162 3.936 55.3082 3.888C55.1082 3.832 54.9042 3.804 54.6962 3.804C54.2482 3.804 53.9082 3.892 53.6762 4.068C53.4442 4.244 53.3282 4.476 53.3282 4.764C53.3282 4.988 53.4002 5.172 53.5442 5.316C53.6882 5.46 53.9122 5.564 54.2162 5.628L55.3082 5.856C55.8282 5.968 56.2162 6.148 56.4722 6.396C56.7362 6.636 56.8682 6.964 56.8682 7.38C56.8682 7.732 56.7722 8.04 56.5802 8.304C56.3882 8.56 56.1162 8.76 55.7642 8.904C55.4202 9.04 55.0122 9.108 54.5402 9.108ZM60.6309 9.108C59.9429 9.108 59.4269 8.924 59.0829 8.556C58.7389 8.188 58.5669 7.664 58.5669 6.984V3.924H57.4269V3.168H58.5669V1.38H59.5389V3.168H61.3869V3.924H59.5389V6.888C59.5389 7.344 59.6349 7.692 59.8269 7.932C60.0189 8.164 60.3309 8.28 60.7629 8.28C60.8909 8.28 61.0189 8.264 61.1469 8.232C61.2749 8.2 61.3909 8.168 61.4949 8.136L61.6629 8.88C61.5589 8.936 61.4069 8.988 61.2069 9.036C61.0069 9.084 60.8149 9.108 60.6309 9.108ZM69.0363 9.108C67.9323 9.108 67.0883 8.816 66.5043 8.232C65.9283 7.64 65.6403 6.78 65.6403 5.652V0.539999H66.6243V5.604C66.6243 6.484 66.8283 7.144 67.2363 7.584C67.6443 8.016 68.2443 8.232 69.0363 8.232C69.8283 8.232 70.4243 8.016 70.8242 7.584C71.2243 7.144 71.4243 6.484 71.4243 5.604V0.539999H72.4083V5.652C72.4083 6.78 72.1203 7.64 71.5443 8.232C70.9763 8.816 70.1403 9.108 69.0363 9.108ZM74.2987 9V3.168H75.2467V4.464H75.1147C75.2827 4 75.5547 3.652 75.9307 3.42C76.3147 3.18 76.7547 3.06 77.2507 3.06C77.7147 3.06 78.0987 3.144 78.4027 3.312C78.7147 3.472 78.9467 3.724 79.0987 4.068C79.2507 4.412 79.3267 4.844 79.3267 5.364V9H78.3547V5.424C78.3547 5.064 78.3067 4.768 78.2107 4.536C78.1227 4.304 77.9787 4.132 77.7787 4.02C77.5867 3.908 77.3347 3.852 77.0227 3.852C76.6707 3.852 76.3627 3.928 76.0987 4.08C75.8347 4.232 75.6307 4.444 75.4867 4.716C75.3427 4.988 75.2707 5.308 75.2707 5.676V9H74.2987ZM80.999 1.716V0.624H82.199V1.716H80.999ZM81.119 9V3.168H82.091V9H81.119ZM88.1081 11.16V7.632H88.2401C88.1121 8.08 87.8601 8.44 87.4841 8.712C87.1081 8.976 86.6561 9.108 86.1281 9.108C85.6081 9.108 85.1521 8.984 84.7601 8.736C84.3761 8.488 84.0761 8.14 83.8601 7.692C83.6521 7.236 83.5481 6.7 83.5481 6.084C83.5481 5.46 83.6521 4.924 83.8601 4.476C84.0761 4.02 84.3761 3.672 84.7601 3.432C85.1521 3.184 85.6081 3.06 86.1281 3.06C86.6561 3.06 87.1081 3.196 87.4841 3.468C87.8681 3.732 88.1241 4.092 88.2521 4.548H88.1321V3.168H89.0801V11.16H88.1081ZM86.3321 8.328C86.8841 8.328 87.3201 8.136 87.6401 7.752C87.9681 7.36 88.1321 6.804 88.1321 6.084C88.1321 5.356 87.9681 4.8 87.6401 4.416C87.3201 4.032 86.8841 3.84 86.3321 3.84C85.7881 3.84 85.3521 4.032 85.0241 4.416C84.6961 4.8 84.5321 5.356 84.5321 6.084C84.5321 6.804 84.6961 7.36 85.0241 7.752C85.3521 8.136 85.7881 8.328 86.3321 8.328ZM92.9682 9.108C92.4962 9.108 92.1042 9.024 91.7922 8.856C91.4882 8.68 91.2562 8.42 91.0962 8.076C90.9442 7.732 90.8682 7.304 90.8682 6.792V3.168H91.8402V6.78C91.8402 7.124 91.8842 7.412 91.9722 7.644C92.0682 7.868 92.2162 8.036 92.4162 8.148C92.6162 8.252 92.8642 8.304 93.1602 8.304C93.4962 8.304 93.7882 8.228 94.0362 8.076C94.2842 7.924 94.4802 7.712 94.6242 7.44C94.7682 7.168 94.8402 6.848 94.8402 6.48V3.168H95.8122V9H94.8642V7.656H95.0202C94.8602 8.128 94.5962 8.488 94.2282 8.736C93.8682 8.984 93.4482 9.108 92.9682 9.108ZM100.259 9.108C99.6428 9.108 99.1108 8.988 98.6628 8.748C98.2228 8.5 97.8788 8.152 97.6308 7.704C97.3908 7.256 97.2708 6.72 97.2708 6.096C97.2708 5.488 97.3908 4.96 97.6308 4.512C97.8708 4.056 98.1988 3.7 98.6148 3.444C99.0388 3.188 99.5268 3.06 100.079 3.06C100.607 3.06 101.059 3.176 101.435 3.408C101.811 3.64 102.099 3.968 102.299 4.392C102.507 4.816 102.611 5.324 102.611 5.916V6.288H98.0148V5.652H101.963L101.771 5.808C101.771 5.168 101.627 4.672 101.339 4.32C101.059 3.96 100.647 3.78 100.103 3.78C99.6948 3.78 99.3468 3.876 99.0588 4.068C98.7788 4.252 98.5668 4.512 98.4228 4.848C98.2788 5.176 98.2068 5.56 98.2068 6V6.072C98.2068 6.56 98.2828 6.972 98.4348 7.308C98.5948 7.644 98.8308 7.9 99.1428 8.076C99.4548 8.244 99.8268 8.328 100.259 8.328C100.603 8.328 100.935 8.276 101.255 8.172C101.583 8.06 101.891 7.88 102.179 7.632L102.515 8.316C102.251 8.556 101.915 8.748 101.507 8.892C101.099 9.036 100.683 9.108 100.259 9.108ZM109.692 9.108C109.316 9.108 108.952 9.068 108.6 8.988C108.256 8.908 107.932 8.796 107.628 8.652C107.324 8.5 107.056 8.316 106.824 8.1L107.184 7.32C107.576 7.64 107.972 7.872 108.372 8.016C108.772 8.16 109.204 8.232 109.668 8.232C110.076 8.232 110.42 8.172 110.7 8.052C110.98 7.932 111.192 7.756 111.336 7.524C111.48 7.284 111.552 6.992 111.552 6.648C111.552 6.152 111.388 5.776 111.06 5.52C110.732 5.264 110.256 5.136 109.632 5.136H108.384V4.284H109.548C109.916 4.284 110.228 4.22 110.484 4.092C110.748 3.964 110.952 3.784 111.096 3.552C111.24 3.312 111.312 3.024 111.312 2.688C111.312 2.24 111.168 1.9 110.88 1.668C110.592 1.428 110.176 1.308 109.632 1.308C109.184 1.308 108.772 1.388 108.396 1.548C108.02 1.7 107.664 1.94 107.328 2.268L106.968 1.5C107.288 1.164 107.688 0.903999 108.168 0.719999C108.656 0.527999 109.164 0.431999 109.692 0.431999C110.236 0.431999 110.7 0.52 111.084 0.696C111.476 0.864 111.776 1.112 111.984 1.44C112.192 1.76 112.296 2.148 112.296 2.604C112.296 3.124 112.152 3.572 111.864 3.948C111.576 4.316 111.184 4.568 110.688 4.704V4.572C111.08 4.636 111.412 4.764 111.684 4.956C111.964 5.148 112.176 5.396 112.32 5.7C112.464 5.996 112.536 6.336 112.536 6.72C112.536 7.208 112.42 7.632 112.188 7.992C111.964 8.344 111.64 8.62 111.216 8.82C110.792 9.012 110.284 9.108 109.692 9.108ZM117.163 9.108C116.803 9.108 116.451 9.068 116.107 8.988C115.763 8.908 115.439 8.792 115.135 8.64C114.839 8.488 114.575 8.308 114.343 8.1L114.715 7.32C115.099 7.632 115.487 7.864 115.879 8.016C116.279 8.16 116.703 8.232 117.151 8.232C117.743 8.232 118.203 8.068 118.531 7.74C118.867 7.412 119.035 6.98 119.035 6.444C119.035 5.892 118.875 5.44 118.555 5.088C118.235 4.736 117.795 4.56 117.235 4.56C116.827 4.56 116.467 4.644 116.155 4.812C115.851 4.972 115.575 5.224 115.327 5.568H114.607V0.539999H119.515V1.38H115.579V4.752H115.315C115.523 4.416 115.811 4.16 116.179 3.984C116.547 3.8 116.959 3.708 117.415 3.708C117.951 3.708 118.411 3.82 118.795 4.044C119.187 4.268 119.487 4.584 119.695 4.992C119.911 5.392 120.019 5.86 120.019 6.396C120.019 6.924 119.903 7.392 119.671 7.8C119.439 8.208 119.111 8.528 118.687 8.76C118.263 8.992 117.755 9.108 117.163 9.108ZM124.178 9.108C123.538 9.108 122.994 8.944 122.546 8.616C122.106 8.28 121.774 7.788 121.55 7.14C121.326 6.492 121.214 5.7 121.214 4.764C121.214 3.82 121.326 3.028 121.55 2.388C121.774 1.74 122.106 1.252 122.546 0.924C122.994 0.595999 123.538 0.431999 124.178 0.431999C124.826 0.431999 125.37 0.595999 125.81 0.924C126.25 1.252 126.582 1.736 126.806 2.376C127.03 3.016 127.142 3.808 127.142 4.752C127.142 5.696 127.03 6.492 126.806 7.14C126.582 7.788 126.25 8.28 125.81 8.616C125.37 8.944 124.826 9.108 124.178 9.108ZM124.178 8.256C124.85 8.256 125.346 7.972 125.666 7.404C125.994 6.836 126.158 5.952 126.158 4.752C126.158 3.552 125.998 2.676 125.678 2.124C125.358 1.564 124.858 1.284 124.178 1.284C123.514 1.284 123.018 1.564 122.69 2.124C122.362 2.684 122.198 3.56 122.198 4.752C122.198 5.952 122.358 6.836 122.678 7.404C123.006 7.972 123.506 8.256 124.178 8.256ZM128.709 9V3.168H129.657V4.464H129.525C129.621 4.168 129.761 3.916 129.945 3.708C130.137 3.492 130.361 3.332 130.617 3.228C130.881 3.116 131.169 3.06 131.481 3.06C131.977 3.06 132.377 3.18 132.681 3.42C132.993 3.652 133.201 4.016 133.305 4.512H133.125C133.269 4.064 133.525 3.712 133.893 3.456C134.269 3.192 134.705 3.06 135.201 3.06C135.641 3.06 136.001 3.144 136.281 3.312C136.569 3.48 136.785 3.736 136.929 4.08C137.073 4.416 137.145 4.844 137.145 5.364V9H136.173V5.412C136.173 4.876 136.081 4.484 135.897 4.236C135.713 3.98 135.401 3.852 134.961 3.852C134.649 3.852 134.373 3.928 134.133 4.08C133.901 4.232 133.721 4.448 133.593 4.728C133.473 5 133.413 5.324 133.413 5.7V9H132.441V5.412C132.441 4.876 132.345 4.484 132.153 4.236C131.969 3.98 131.661 3.852 131.229 3.852C130.909 3.852 130.633 3.928 130.401 4.08C130.169 4.232 129.989 4.448 129.861 4.728C129.741 5 129.681 5.324 129.681 5.7V9H128.709ZM140.751 9.108C140.159 9.108 139.711 8.932 139.407 8.58C139.111 8.228 138.963 7.724 138.963 7.068V0.539999H139.935V6.996C139.935 7.276 139.971 7.512 140.043 7.704C140.123 7.896 140.239 8.04 140.391 8.136C140.543 8.232 140.731 8.28 140.955 8.28C141.051 8.28 141.143 8.276 141.231 8.268C141.327 8.252 141.415 8.232 141.495 8.208L141.471 9.024C141.343 9.048 141.219 9.068 141.099 9.084C140.987 9.1 140.871 9.108 140.751 9.108ZM149.592 9.108C148.688 9.108 147.924 8.936 147.3 8.592C146.684 8.248 146.216 7.752 145.896 7.104C145.576 6.456 145.416 5.68 145.416 4.776C145.416 3.88 145.576 3.108 145.896 2.46C146.216 1.812 146.676 1.312 147.276 0.96C147.876 0.608 148.6 0.431999 149.448 0.431999C149.848 0.431999 150.224 0.471999 150.576 0.551999C150.936 0.632 151.268 0.752 151.572 0.912C151.884 1.064 152.156 1.256 152.388 1.488L152.004 2.28C151.62 1.944 151.224 1.7 150.816 1.548C150.408 1.396 149.948 1.32 149.436 1.32C148.468 1.32 147.728 1.62 147.216 2.22C146.712 2.82 146.46 3.672 146.46 4.776C146.46 5.896 146.72 6.752 147.24 7.344C147.768 7.936 148.56 8.232 149.616 8.232C150 8.232 150.376 8.196 150.744 8.124C151.112 8.044 151.46 7.936 151.788 7.8L151.572 8.364V5.376H149.424V4.596H152.424V8.508C152.208 8.62 151.94 8.724 151.62 8.82C151.3 8.908 150.964 8.976 150.612 9.024C150.26 9.08 149.92 9.108 149.592 9.108ZM156.091 9.108C155.499 9.108 155.051 8.932 154.747 8.58C154.451 8.228 154.303 7.724 154.303 7.068V0.539999H155.275V6.996C155.275 7.276 155.311 7.512 155.383 7.704C155.463 7.896 155.579 8.04 155.731 8.136C155.883 8.232 156.071 8.28 156.295 8.28C156.391 8.28 156.483 8.276 156.571 8.268C156.667 8.252 156.755 8.232 156.835 8.208L156.811 9.024C156.683 9.048 156.559 9.068 156.439 9.084C156.327 9.1 156.211 9.108 156.091 9.108ZM159.689 9.108C159.289 9.108 158.929 9.032 158.609 8.88C158.297 8.72 158.049 8.504 157.865 8.232C157.681 7.96 157.589 7.656 157.589 7.32C157.589 6.888 157.697 6.548 157.913 6.3C158.137 6.052 158.501 5.876 159.005 5.772C159.517 5.668 160.213 5.616 161.093 5.616H161.633V6.252H161.105C160.617 6.252 160.209 6.268 159.881 6.3C159.553 6.332 159.293 6.388 159.101 6.468C158.909 6.548 158.773 6.652 158.693 6.78C158.613 6.908 158.573 7.068 158.573 7.26C158.573 7.588 158.685 7.856 158.909 8.064C159.141 8.272 159.453 8.376 159.845 8.376C160.165 8.376 160.445 8.3 160.685 8.148C160.933 7.996 161.125 7.788 161.261 7.524C161.405 7.26 161.477 6.956 161.477 6.612V5.244C161.477 4.748 161.377 4.392 161.177 4.176C160.977 3.952 160.649 3.84 160.193 3.84C159.841 3.84 159.501 3.892 159.173 3.996C158.845 4.092 158.509 4.252 158.165 4.476L157.829 3.768C158.037 3.624 158.273 3.5 158.537 3.396C158.801 3.284 159.077 3.2 159.365 3.144C159.653 3.088 159.929 3.06 160.193 3.06C160.697 3.06 161.113 3.144 161.441 3.312C161.769 3.472 162.013 3.72 162.173 4.056C162.333 4.384 162.413 4.808 162.413 5.328V9H161.501V7.644H161.609C161.545 7.948 161.421 8.208 161.237 8.424C161.061 8.64 160.841 8.808 160.577 8.928C160.313 9.048 160.017 9.108 159.689 9.108ZM166.185 9.108C165.881 9.108 165.585 9.076 165.297 9.012C165.017 8.956 164.753 8.876 164.505 8.772C164.265 8.66 164.057 8.528 163.881 8.376L164.193 7.692C164.385 7.844 164.593 7.972 164.817 8.076C165.041 8.172 165.269 8.244 165.501 8.292C165.733 8.34 165.969 8.364 166.209 8.364C166.665 8.364 167.009 8.28 167.241 8.112C167.473 7.944 167.589 7.716 167.589 7.428C167.589 7.204 167.513 7.028 167.361 6.9C167.209 6.764 166.969 6.66 166.641 6.588L165.549 6.348C165.045 6.244 164.669 6.064 164.421 5.808C164.181 5.552 164.061 5.22 164.061 4.812C164.061 4.452 164.153 4.144 164.337 3.888C164.529 3.624 164.797 3.42 165.141 3.276C165.485 3.132 165.885 3.06 166.341 3.06C166.613 3.06 166.873 3.088 167.121 3.144C167.369 3.2 167.601 3.284 167.817 3.396C168.041 3.5 168.233 3.632 168.393 3.792L168.069 4.476C167.917 4.332 167.745 4.212 167.553 4.116C167.361 4.012 167.161 3.936 166.953 3.888C166.753 3.832 166.549 3.804 166.341 3.804C165.893 3.804 165.553 3.892 165.321 4.068C165.089 4.244 164.973 4.476 164.973 4.764C164.973 4.988 165.045 5.172 165.189 5.316C165.333 5.46 165.557 5.564 165.861 5.628L166.953 5.856C167.473 5.968 167.861 6.148 168.117 6.396C168.381 6.636 168.513 6.964 168.513 7.38C168.513 7.732 168.417 8.04 168.225 8.304C168.033 8.56 167.761 8.76 167.409 8.904C167.065 9.04 166.657 9.108 166.185 9.108ZM171.962 9.108C171.658 9.108 171.362 9.076 171.074 9.012C170.794 8.956 170.53 8.876 170.282 8.772C170.042 8.66 169.834 8.528 169.658 8.376L169.97 7.692C170.162 7.844 170.37 7.972 170.594 8.076C170.818 8.172 171.046 8.244 171.278 8.292C171.51 8.34 171.746 8.364 171.986 8.364C172.442 8.364 172.786 8.28 173.018 8.112C173.25 7.944 173.366 7.716 173.366 7.428C173.366 7.204 173.29 7.028 173.138 6.9C172.986 6.764 172.746 6.66 172.418 6.588L171.326 6.348C170.822 6.244 170.446 6.064 170.198 5.808C169.958 5.552 169.838 5.22 169.838 4.812C169.838 4.452 169.93 4.144 170.114 3.888C170.306 3.624 170.574 3.42 170.918 3.276C171.262 3.132 171.662 3.06 172.118 3.06C172.39 3.06 172.65 3.088 172.898 3.144C173.146 3.2 173.378 3.284 173.594 3.396C173.818 3.5 174.01 3.632 174.17 3.792L173.846 4.476C173.694 4.332 173.522 4.212 173.33 4.116C173.138 4.012 172.938 3.936 172.73 3.888C172.53 3.832 172.326 3.804 172.118 3.804C171.67 3.804 171.33 3.892 171.098 4.068C170.866 4.244 170.75 4.476 170.75 4.764C170.75 4.988 170.822 5.172 170.966 5.316C171.11 5.46 171.334 5.564 171.638 5.628L172.73 5.856C173.25 5.968 173.638 6.148 173.894 6.396C174.158 6.636 174.29 6.964 174.29 7.38C174.29 7.732 174.194 8.04 174.002 8.304C173.81 8.56 173.538 8.76 173.186 8.904C172.842 9.04 172.434 9.108 171.962 9.108ZM180.629 11.304C180.117 10.416 179.745 9.52 179.513 8.616C179.281 7.712 179.165 6.788 179.165 5.844C179.165 4.9 179.281 3.976 179.513 3.072C179.745 2.168 180.117 1.272 180.629 0.383999L181.325 0.648C181.077 1.24 180.869 1.824 180.701 2.4C180.533 2.968 180.405 3.536 180.317 4.104C180.237 4.672 180.197 5.252 180.197 5.844C180.197 6.428 180.237 7.008 180.317 7.584C180.405 8.152 180.533 8.72 180.701 9.288C180.869 9.856 181.077 10.44 181.325 11.04L180.629 11.304ZM185.53 9.108C185.09 9.108 184.674 9.068 184.282 8.988C183.898 8.908 183.542 8.796 183.214 8.652C182.894 8.5 182.602 8.316 182.338 8.1L182.686 7.308C182.958 7.508 183.234 7.68 183.514 7.824C183.802 7.96 184.11 8.064 184.438 8.136C184.774 8.2 185.138 8.232 185.53 8.232C186.25 8.232 186.782 8.1 187.126 7.836C187.478 7.564 187.654 7.208 187.654 6.768C187.654 6.536 187.598 6.336 187.486 6.168C187.382 6 187.206 5.856 186.958 5.736C186.718 5.616 186.402 5.516 186.01 5.436L184.762 5.184C184.01 5.024 183.446 4.764 183.07 4.404C182.702 4.036 182.518 3.548 182.518 2.94C182.518 2.436 182.646 1.996 182.902 1.62C183.166 1.244 183.53 0.951999 183.994 0.744C184.466 0.536 185.002 0.431999 185.602 0.431999C185.986 0.431999 186.35 0.471999 186.694 0.551999C187.038 0.632 187.354 0.752 187.642 0.912C187.938 1.064 188.198 1.252 188.422 1.476L188.074 2.244C187.714 1.916 187.334 1.68 186.934 1.536C186.534 1.384 186.086 1.308 185.59 1.308C185.166 1.308 184.798 1.372 184.486 1.5C184.182 1.628 183.942 1.816 183.766 2.064C183.598 2.304 183.514 2.584 183.514 2.904C183.514 3.288 183.63 3.592 183.862 3.816C184.102 4.04 184.49 4.204 185.026 4.308L186.274 4.572C187.082 4.74 187.678 4.996 188.062 5.34C188.454 5.676 188.65 6.136 188.65 6.72C188.65 7.184 188.522 7.6 188.266 7.968C188.018 8.328 187.658 8.608 187.186 8.808C186.722 9.008 186.17 9.108 185.53 9.108ZM189.925 1.716V0.624H191.125V1.716H189.925ZM190.045 9V3.168H191.017V9H190.045ZM192.834 9V3.168H193.782V4.464H193.65C193.818 4 194.09 3.652 194.466 3.42C194.85 3.18 195.29 3.06 195.786 3.06C196.25 3.06 196.634 3.144 196.938 3.312C197.25 3.472 197.482 3.724 197.634 4.068C197.786 4.412 197.862 4.844 197.862 5.364V9H196.89V5.424C196.89 5.064 196.842 4.768 196.746 4.536C196.658 4.304 196.514 4.132 196.314 4.02C196.122 3.908 195.87 3.852 195.558 3.852C195.206 3.852 194.898 3.928 194.634 4.08C194.37 4.232 194.166 4.444 194.022 4.716C193.878 4.988 193.806 5.308 193.806 5.676V9H192.834ZM202.126 9.108C201.542 9.108 201.038 8.98 200.614 8.724C200.19 8.468 199.862 8.112 199.63 7.656C199.406 7.192 199.294 6.656 199.294 6.048C199.294 5.432 199.406 4.9 199.63 4.452C199.862 4.004 200.19 3.66 200.614 3.42C201.038 3.18 201.542 3.06 202.126 3.06C202.486 3.06 202.842 3.124 203.194 3.252C203.546 3.38 203.838 3.56 204.07 3.792L203.734 4.5C203.502 4.276 203.246 4.112 202.966 4.008C202.694 3.904 202.434 3.852 202.186 3.852C201.578 3.852 201.11 4.044 200.782 4.428C200.454 4.804 200.29 5.348 200.29 6.06C200.29 6.756 200.454 7.308 200.782 7.716C201.11 8.116 201.578 8.316 202.186 8.316C202.434 8.316 202.694 8.264 202.966 8.16C203.246 8.056 203.502 7.888 203.734 7.656L204.07 8.364C203.838 8.596 203.542 8.78 203.182 8.916C202.83 9.044 202.478 9.108 202.126 9.108ZM207.72 9.108C207.104 9.108 206.572 8.988 206.124 8.748C205.684 8.5 205.34 8.152 205.092 7.704C204.852 7.256 204.732 6.72 204.732 6.096C204.732 5.488 204.852 4.96 205.092 4.512C205.332 4.056 205.66 3.7 206.076 3.444C206.5 3.188 206.988 3.06 207.54 3.06C208.068 3.06 208.52 3.176 208.896 3.408C209.272 3.64 209.56 3.968 209.76 4.392C209.968 4.816 210.072 5.324 210.072 5.916V6.288H205.476V5.652H209.424L209.232 5.808C209.232 5.168 209.088 4.672 208.8 4.32C208.52 3.96 208.108 3.78 207.564 3.78C207.156 3.78 206.808 3.876 206.52 4.068C206.24 4.252 206.028 4.512 205.884 4.848C205.74 5.176 205.668 5.56 205.668 6V6.072C205.668 6.56 205.744 6.972 205.896 7.308C206.056 7.644 206.292 7.9 206.604 8.076C206.916 8.244 207.288 8.328 207.72 8.328C208.064 8.328 208.396 8.276 208.716 8.172C209.044 8.06 209.352 7.88 209.64 7.632L209.976 8.316C209.712 8.556 209.376 8.748 208.968 8.892C208.56 9.036 208.144 9.108 207.72 9.108ZM214.728 9V8.256L217.62 5.136C217.892 4.84 218.112 4.564 218.28 4.308C218.448 4.044 218.572 3.788 218.652 3.54C218.732 3.292 218.772 3.04 218.772 2.784C218.772 2.304 218.624 1.94 218.328 1.692C218.04 1.436 217.616 1.308 217.056 1.308C216.624 1.308 216.22 1.388 215.844 1.548C215.476 1.7 215.124 1.94 214.788 2.268L214.416 1.5C214.728 1.18 215.124 0.924 215.604 0.732C216.092 0.532 216.604 0.431999 217.14 0.431999C217.708 0.431999 218.188 0.52 218.58 0.696C218.972 0.872 219.268 1.132 219.468 1.476C219.668 1.812 219.768 2.224 219.768 2.712C219.768 2.968 219.736 3.22 219.672 3.468C219.616 3.708 219.524 3.952 219.396 4.2C219.276 4.44 219.12 4.688 218.928 4.944C218.744 5.2 218.52 5.464 218.256 5.736L215.712 8.436V8.16H220.116V9H214.728ZM224.444 9.108C223.804 9.108 223.26 8.944 222.812 8.616C222.372 8.28 222.04 7.788 221.816 7.14C221.592 6.492 221.48 5.7 221.48 4.764C221.48 3.82 221.592 3.028 221.816 2.388C222.04 1.74 222.372 1.252 222.812 0.924C223.26 0.595999 223.804 0.431999 224.444 0.431999C225.092 0.431999 225.636 0.595999 226.076 0.924C226.516 1.252 226.848 1.736 227.072 2.376C227.296 3.016 227.408 3.808 227.408 4.752C227.408 5.696 227.296 6.492 227.072 7.14C226.848 7.788 226.516 8.28 226.076 8.616C225.636 8.944 225.092 9.108 224.444 9.108ZM224.444 8.256C225.116 8.256 225.612 7.972 225.932 7.404C226.26 6.836 226.424 5.952 226.424 4.752C226.424 3.552 226.264 2.676 225.944 2.124C225.624 1.564 225.124 1.284 224.444 1.284C223.78 1.284 223.284 1.564 222.956 2.124C222.628 2.684 222.464 3.56 222.464 4.752C222.464 5.952 222.624 6.836 222.944 7.404C223.272 7.972 223.772 8.256 224.444 8.256ZM229.119 9V8.256L232.011 5.136C232.283 4.84 232.503 4.564 232.671 4.308C232.839 4.044 232.963 3.788 233.043 3.54C233.123 3.292 233.163 3.04 233.163 2.784C233.163 2.304 233.015 1.94 232.719 1.692C232.431 1.436 232.007 1.308 231.447 1.308C231.015 1.308 230.611 1.388 230.235 1.548C229.867 1.7 229.515 1.94 229.179 2.268L228.807 1.5C229.119 1.18 229.515 0.924 229.995 0.732C230.483 0.532 230.995 0.431999 231.531 0.431999C232.099 0.431999 232.579 0.52 232.971 0.696C233.363 0.872 233.659 1.132 233.859 1.476C234.059 1.812 234.159 2.224 234.159 2.712C234.159 2.968 234.127 3.22 234.063 3.468C234.007 3.708 233.915 3.952 233.787 4.2C233.667 4.44 233.511 4.688 233.319 4.944C233.135 5.2 232.911 5.464 232.647 5.736L230.103 8.436V8.16H234.507V9H229.119ZM236.722 9V8.16H238.654V1.392H239.17L237.13 2.688L236.71 1.956L238.93 0.539999H239.638V8.16H241.45V9H236.722ZM243.546 11.304L242.85 11.04C243.106 10.432 243.314 9.84 243.474 9.264C243.642 8.696 243.766 8.132 243.846 7.572C243.926 7.004 243.966 6.428 243.966 5.844C243.966 5.26 243.926 4.688 243.846 4.128C243.766 3.56 243.642 2.988 243.474 2.412C243.314 1.836 243.106 1.248 242.85 0.648L243.546 0.383999C244.058 1.272 244.43 2.172 244.662 3.084C244.894 3.988 245.01 4.908 245.01 5.844C245.01 6.788 244.894 7.712 244.662 8.616C244.43 9.52 244.058 10.416 243.546 11.304ZM247.498 10.368L247.042 10.02C247.186 9.868 247.294 9.724 247.366 9.588C247.446 9.46 247.498 9.328 247.522 9.192C247.554 9.064 247.57 8.932 247.57 8.796L247.786 9H246.994V7.776H248.218V8.64C248.218 8.856 248.194 9.06 248.146 9.252C248.106 9.452 248.034 9.644 247.93 9.828C247.826 10.012 247.682 10.192 247.498 10.368ZM253.095 9V0.539999H256.443C257.051 0.539999 257.563 0.64 257.979 0.84C258.403 1.032 258.723 1.32 258.939 1.704C259.155 2.08 259.263 2.54 259.263 3.084C259.263 3.612 259.155 4.068 258.939 4.452C258.723 4.836 258.403 5.128 257.979 5.328C257.563 5.528 257.051 5.628 256.443 5.628H254.079V9H253.095ZM254.079 4.8H256.323C256.971 4.8 257.459 4.656 257.787 4.368C258.123 4.072 258.291 3.644 258.291 3.084C258.291 2.516 258.123 2.088 257.787 1.8C257.459 1.504 256.971 1.356 256.323 1.356H254.079V4.8ZM262.927 9.108C262.311 9.108 261.779 8.988 261.331 8.748C260.891 8.5 260.547 8.152 260.299 7.704C260.059 7.256 259.939 6.72 259.939 6.096C259.939 5.488 260.059 4.96 260.299 4.512C260.539 4.056 260.867 3.7 261.283 3.444C261.707 3.188 262.195 3.06 262.747 3.06C263.275 3.06 263.727 3.176 264.103 3.408C264.479 3.64 264.767 3.968 264.967 4.392C265.175 4.816 265.279 5.324 265.279 5.916V6.288H260.683V5.652H264.631L264.439 5.808C264.439 5.168 264.295 4.672 264.007 4.32C263.727 3.96 263.315 3.78 262.771 3.78C262.363 3.78 262.015 3.876 261.727 4.068C261.447 4.252 261.235 4.512 261.091 4.848C260.947 5.176 260.875 5.56 260.875 6V6.072C260.875 6.56 260.951 6.972 261.103 7.308C261.263 7.644 261.499 7.9 261.811 8.076C262.123 8.244 262.495 8.328 262.927 8.328C263.271 8.328 263.603 8.276 263.923 8.172C264.251 8.06 264.559 7.88 264.847 7.632L265.183 8.316C264.919 8.556 264.583 8.748 264.175 8.892C263.767 9.036 263.351 9.108 262.927 9.108ZM266.685 9V3.168H267.633V4.548H267.513C267.649 4.076 267.885 3.72 268.221 3.48C268.557 3.232 269.001 3.088 269.553 3.048L269.901 3.012L269.973 3.852L269.361 3.924C268.817 3.972 268.397 4.148 268.101 4.452C267.813 4.748 267.669 5.156 267.669 5.676V9H266.685ZM271.615 9V3.924H270.463V3.168H271.879L271.615 3.42V2.964C271.615 2.188 271.807 1.6 272.191 1.2C272.583 0.799999 273.183 0.575999 273.991 0.528L274.459 0.504L274.543 1.248L273.991 1.284C273.663 1.308 273.395 1.38 273.187 1.5C272.979 1.62 272.827 1.792 272.731 2.016C272.635 2.24 272.587 2.516 272.587 2.844V3.348L272.443 3.168H274.267V3.924H272.587V9H271.615ZM277.763 9.108C277.147 9.108 276.615 8.988 276.167 8.748C275.727 8.5 275.383 8.152 275.135 7.704C274.895 7.256 274.775 6.72 274.775 6.096C274.775 5.488 274.895 4.96 275.135 4.512C275.375 4.056 275.703 3.7 276.119 3.444C276.543 3.188 277.031 3.06 277.583 3.06C278.111 3.06 278.563 3.176 278.939 3.408C279.315 3.64 279.603 3.968 279.803 4.392C280.011 4.816 280.115 5.324 280.115 5.916V6.288H275.519V5.652H279.467L279.275 5.808C279.275 5.168 279.131 4.672 278.843 4.32C278.563 3.96 278.151 3.78 277.607 3.78C277.199 3.78 276.851 3.876 276.563 4.068C276.283 4.252 276.071 4.512 275.927 4.848C275.783 5.176 275.711 5.56 275.711 6V6.072C275.711 6.56 275.787 6.972 275.939 7.308C276.099 7.644 276.335 7.9 276.647 8.076C276.959 8.244 277.331 8.328 277.763 8.328C278.107 8.328 278.439 8.276 278.759 8.172C279.087 8.06 279.395 7.88 279.683 7.632L280.019 8.316C279.755 8.556 279.419 8.748 279.011 8.892C278.603 9.036 278.187 9.108 277.763 9.108ZM283.993 9.108C283.409 9.108 282.905 8.98 282.481 8.724C282.057 8.468 281.729 8.112 281.497 7.656C281.273 7.192 281.161 6.656 281.161 6.048C281.161 5.432 281.273 4.9 281.497 4.452C281.729 4.004 282.057 3.66 282.481 3.42C282.905 3.18 283.409 3.06 283.993 3.06C284.353 3.06 284.709 3.124 285.061 3.252C285.413 3.38 285.705 3.56 285.937 3.792L285.601 4.5C285.369 4.276 285.113 4.112 284.833 4.008C284.561 3.904 284.301 3.852 284.053 3.852C283.445 3.852 282.977 4.044 282.649 4.428C282.321 4.804 282.157 5.348 282.157 6.06C282.157 6.756 282.321 7.308 282.649 7.716C282.977 8.116 283.445 8.316 284.053 8.316C284.301 8.316 284.561 8.264 284.833 8.16C285.113 8.056 285.369 7.888 285.601 7.656L285.937 8.364C285.705 8.596 285.409 8.78 285.049 8.916C284.697 9.044 284.345 9.108 283.993 9.108ZM289.416 9.108C288.728 9.108 288.212 8.924 287.868 8.556C287.524 8.188 287.352 7.664 287.352 6.984V3.924H286.212V3.168H287.352V1.38H288.324V3.168H290.172V3.924H288.324V6.888C288.324 7.344 288.42 7.692 288.612 7.932C288.804 8.164 289.116 8.28 289.548 8.28C289.676 8.28 289.804 8.264 289.932 8.232C290.06 8.2 290.176 8.168 290.28 8.136L290.448 8.88C290.344 8.936 290.192 8.988 289.992 9.036C289.792 9.084 289.6 9.108 289.416 9.108ZM294.485 9V0.539999H299.717V1.368H295.469V4.32H299.477V5.148H295.469V9H294.485ZM303.129 9.108C302.561 9.108 302.069 8.984 301.653 8.736C301.237 8.488 300.913 8.14 300.681 7.692C300.457 7.236 300.345 6.7 300.345 6.084C300.345 5.468 300.457 4.936 300.681 4.488C300.913 4.032 301.237 3.68 301.653 3.432C302.069 3.184 302.561 3.06 303.129 3.06C303.697 3.06 304.189 3.184 304.605 3.432C305.021 3.68 305.341 4.032 305.565 4.488C305.797 4.936 305.913 5.468 305.913 6.084C305.913 6.7 305.797 7.236 305.565 7.692C305.341 8.14 305.021 8.488 304.605 8.736C304.189 8.984 303.697 9.108 303.129 9.108ZM303.129 8.328C303.681 8.328 304.117 8.136 304.437 7.752C304.765 7.36 304.929 6.8 304.929 6.072C304.929 5.352 304.765 4.8 304.437 4.416C304.117 4.032 303.681 3.84 303.129 3.84C302.585 3.84 302.149 4.032 301.821 4.416C301.493 4.8 301.329 5.352 301.329 6.072C301.329 6.8 301.493 7.36 301.821 7.752C302.149 8.136 302.585 8.328 303.129 8.328ZM307.373 9V3.168H308.321V4.548H308.201C308.337 4.076 308.573 3.72 308.909 3.48C309.245 3.232 309.689 3.088 310.241 3.048L310.589 3.012L310.661 3.852L310.049 3.924C309.505 3.972 309.085 4.148 308.789 4.452C308.501 4.748 308.357 5.156 308.357 5.676V9H307.373ZM0.952 25.084L0.88 24.256L1.6 24.208C1.88 24.184 2.112 24.116 2.296 24.004C2.48 23.884 2.62 23.716 2.716 23.5C2.812 23.284 2.86 23.032 2.86 22.744V16.54H3.844V22.756C3.844 23.212 3.764 23.608 3.604 23.944C3.444 24.272 3.208 24.528 2.896 24.712C2.584 24.896 2.196 25.004 1.732 25.036L0.952 25.084ZM7.86663 25.108C7.39463 25.108 7.00263 25.024 6.69063 24.856C6.38663 24.68 6.15463 24.42 5.99463 24.076C5.84263 23.732 5.76663 23.304 5.76663 22.792V19.168H6.73863V22.78C6.73863 23.124 6.78263 23.412 6.87063 23.644C6.96663 23.868 7.11463 24.036 7.31463 24.148C7.51463 24.252 7.76263 24.304 8.05862 24.304C8.39463 24.304 8.68663 24.228 8.93463 24.076C9.18263 23.924 9.37863 23.712 9.52263 23.44C9.66663 23.168 9.73863 22.848 9.73863 22.48V19.168H10.7106V25H9.76263V23.656H9.91863C9.75863 24.128 9.49463 24.488 9.12663 24.736C8.76663 24.984 8.34663 25.108 7.86663 25.108ZM12.4092 17.716V16.624H13.6092V17.716H12.4092ZM12.5292 25V19.168H13.5012V25H12.5292ZM17.7903 25.108C17.2063 25.108 16.7023 24.98 16.2783 24.724C15.8543 24.468 15.5263 24.112 15.2943 23.656C15.0703 23.192 14.9583 22.656 14.9583 22.048C14.9583 21.432 15.0703 20.9 15.2943 20.452C15.5263 20.004 15.8543 19.66 16.2783 19.42C16.7023 19.18 17.2063 19.06 17.7903 19.06C18.1503 19.06 18.5063 19.124 18.8583 19.252C19.2103 19.38 19.5023 19.56 19.7343 19.792L19.3983 20.5C19.1663 20.276 18.9103 20.112 18.6303 20.008C18.3583 19.904 18.0983 19.852 17.8503 19.852C17.2423 19.852 16.7743 20.044 16.4463 20.428C16.1183 20.804 15.9543 21.348 15.9543 22.06C15.9543 22.756 16.1183 23.308 16.4463 23.716C16.7743 24.116 17.2423 24.316 17.8503 24.316C18.0983 24.316 18.3583 24.264 18.6303 24.16C18.9103 24.056 19.1663 23.888 19.3983 23.656L19.7343 24.364C19.5023 24.596 19.2063 24.78 18.8463 24.916C18.4943 25.044 18.1423 25.108 17.7903 25.108ZM23.3838 25.108C22.7678 25.108 22.2358 24.988 21.7878 24.748C21.3478 24.5 21.0038 24.152 20.7558 23.704C20.5158 23.256 20.3958 22.72 20.3958 22.096C20.3958 21.488 20.5158 20.96 20.7558 20.512C20.9958 20.056 21.3238 19.7 21.7398 19.444C22.1638 19.188 22.6518 19.06 23.2038 19.06C23.7318 19.06 24.1838 19.176 24.5598 19.408C24.9358 19.64 25.2238 19.968 25.4238 20.392C25.6318 20.816 25.7358 21.324 25.7358 21.916V22.288H21.1398V21.652H25.0878L24.8958 21.808C24.8958 21.168 24.7518 20.672 24.4638 20.32C24.1838 19.96 23.7718 19.78 23.2278 19.78C22.8198 19.78 22.4718 19.876 22.1838 20.068C21.9038 20.252 21.6918 20.512 21.5478 20.848C21.4038 21.176 21.3318 21.56 21.3318 22V22.072C21.3318 22.56 21.4078 22.972 21.5598 23.308C21.7198 23.644 21.9558 23.9 22.2678 24.076C22.5798 24.244 22.9518 24.328 23.3838 24.328C23.7278 24.328 24.0598 24.276 24.3798 24.172C24.7078 24.06 25.0158 23.88 25.3038 23.632L25.6398 24.316C25.3758 24.556 25.0398 24.748 24.6318 24.892C24.2238 25.036 23.8078 25.108 23.3838 25.108ZM29.1105 25.108C28.8065 25.108 28.5105 25.076 28.2225 25.012C27.9425 24.956 27.6785 24.876 27.4305 24.772C27.1905 24.66 26.9825 24.528 26.8065 24.376L27.1185 23.692C27.3105 23.844 27.5185 23.972 27.7425 24.076C27.9665 24.172 28.1945 24.244 28.4265 24.292C28.6585 24.34 28.8945 24.364 29.1345 24.364C29.5905 24.364 29.9345 24.28 30.1665 24.112C30.3985 23.944 30.5145 23.716 30.5145 23.428C30.5145 23.204 30.4385 23.028 30.2865 22.9C30.1345 22.764 29.8945 22.66 29.5665 22.588L28.4745 22.348C27.9705 22.244 27.5945 22.064 27.3465 21.808C27.1065 21.552 26.9865 21.22 26.9865 20.812C26.9865 20.452 27.0785 20.144 27.2625 19.888C27.4545 19.624 27.7225 19.42 28.0665 19.276C28.4105 19.132 28.8105 19.06 29.2665 19.06C29.5385 19.06 29.7985 19.088 30.0465 19.144C30.2945 19.2 30.5265 19.284 30.7425 19.396C30.9665 19.5 31.1585 19.632 31.3185 19.792L30.9945 20.476C30.8425 20.332 30.6705 20.212 30.4785 20.116C30.2865 20.012 30.0865 19.936 29.8785 19.888C29.6785 19.832 29.4745 19.804 29.2665 19.804C28.8185 19.804 28.4785 19.892 28.2465 20.068C28.0145 20.244 27.8985 20.476 27.8985 20.764C27.8985 20.988 27.9705 21.172 28.1145 21.316C28.2585 21.46 28.4825 21.564 28.7865 21.628L29.8785 21.856C30.3985 21.968 30.7865 22.148 31.0425 22.396C31.3065 22.636 31.4385 22.964 31.4385 23.38C31.4385 23.732 31.3425 24.04 31.1505 24.304C30.9585 24.56 30.6865 24.76 30.3345 24.904C29.9905 25.04 29.5825 25.108 29.1105 25.108ZM33.2092 26.368L32.7532 26.02C32.8972 25.868 33.0052 25.724 33.0772 25.588C33.1572 25.46 33.2092 25.328 33.2332 25.192C33.2652 25.064 33.2812 24.932 33.2812 24.796L33.4972 25H32.7052V23.776H33.9292V24.64C33.9292 24.856 33.9052 25.06 33.8572 25.252C33.8172 25.452 33.7452 25.644 33.6412 25.828C33.5372 26.012 33.3932 26.192 33.2092 26.368ZM41.5417 25.108C41.1017 25.108 40.6857 25.068 40.2937 24.988C39.9097 24.908 39.5537 24.796 39.2257 24.652C38.9057 24.5 38.6137 24.316 38.3497 24.1L38.6977 23.308C38.9697 23.508 39.2457 23.68 39.5257 23.824C39.8137 23.96 40.1217 24.064 40.4497 24.136C40.7857 24.2 41.1497 24.232 41.5417 24.232C42.2617 24.232 42.7937 24.1 43.1377 23.836C43.4897 23.564 43.6657 23.208 43.6657 22.768C43.6657 22.536 43.6097 22.336 43.4977 22.168C43.3937 22 43.2177 21.856 42.9697 21.736C42.7297 21.616 42.4137 21.516 42.0217 21.436L40.7737 21.184C40.0217 21.024 39.4577 20.764 39.0817 20.404C38.7137 20.036 38.5297 19.548 38.5297 18.94C38.5297 18.436 38.6577 17.996 38.9137 17.62C39.1777 17.244 39.5417 16.952 40.0057 16.744C40.4777 16.536 41.0137 16.432 41.6137 16.432C41.9977 16.432 42.3617 16.472 42.7057 16.552C43.0497 16.632 43.3657 16.752 43.6537 16.912C43.9497 17.064 44.2097 17.252 44.4337 17.476L44.0857 18.244C43.7257 17.916 43.3457 17.68 42.9457 17.536C42.5457 17.384 42.0977 17.308 41.6017 17.308C41.1777 17.308 40.8097 17.372 40.4977 17.5C40.1937 17.628 39.9537 17.816 39.7777 18.064C39.6097 18.304 39.5257 18.584 39.5257 18.904C39.5257 19.288 39.6417 19.592 39.8737 19.816C40.1137 20.04 40.5017 20.204 41.0377 20.308L42.2857 20.572C43.0937 20.74 43.6897 20.996 44.0737 21.34C44.4657 21.676 44.6617 22.136 44.6617 22.72C44.6617 23.184 44.5337 23.6 44.2777 23.968C44.0297 24.328 43.6697 24.608 43.1977 24.808C42.7337 25.008 42.1817 25.108 41.5417 25.108ZM46.0805 25V19.168H47.0285V20.464H46.8965C46.9925 20.168 47.1325 19.916 47.3165 19.708C47.5085 19.492 47.7325 19.332 47.9885 19.228C48.2525 19.116 48.5405 19.06 48.8525 19.06C49.3485 19.06 49.7485 19.18 50.0525 19.42C50.3645 19.652 50.5725 20.016 50.6765 20.512H50.4965C50.6405 20.064 50.8965 19.712 51.2645 19.456C51.6405 19.192 52.0765 19.06 52.5725 19.06C53.0125 19.06 53.3725 19.144 53.6525 19.312C53.9405 19.48 54.1565 19.736 54.3005 20.08C54.4445 20.416 54.5165 20.844 54.5165 21.364V25H53.5445V21.412C53.5445 20.876 53.4525 20.484 53.2685 20.236C53.0845 19.98 52.7725 19.852 52.3325 19.852C52.0205 19.852 51.7445 19.928 51.5045 20.08C51.2725 20.232 51.0925 20.448 50.9645 20.728C50.8445 21 50.7845 21.324 50.7845 21.7V25H49.8125V21.412C49.8125 20.876 49.7165 20.484 49.5245 20.236C49.3405 19.98 49.0325 19.852 48.6005 19.852C48.2805 19.852 48.0045 19.928 47.7725 20.08C47.5405 20.232 47.3605 20.448 47.2325 20.728C47.1125 21 47.0525 21.324 47.0525 21.7V25H46.0805ZM58.7579 25.108C58.1899 25.108 57.6979 24.984 57.2819 24.736C56.8659 24.488 56.5419 24.14 56.3099 23.692C56.0859 23.236 55.9739 22.7 55.9739 22.084C55.9739 21.468 56.0859 20.936 56.3099 20.488C56.5419 20.032 56.8659 19.68 57.2819 19.432C57.6979 19.184 58.1899 19.06 58.7579 19.06C59.3259 19.06 59.8179 19.184 60.2339 19.432C60.6499 19.68 60.9699 20.032 61.1939 20.488C61.4259 20.936 61.5419 21.468 61.5419 22.084C61.5419 22.7 61.4259 23.236 61.1939 23.692C60.9699 24.14 60.6499 24.488 60.2339 24.736C59.8179 24.984 59.3259 25.108 58.7579 25.108ZM58.7579 24.328C59.3099 24.328 59.7459 24.136 60.0659 23.752C60.3939 23.36 60.5579 22.8 60.5579 22.072C60.5579 21.352 60.3939 20.8 60.0659 20.416C59.7459 20.032 59.3099 19.84 58.7579 19.84C58.2139 19.84 57.7779 20.032 57.4499 20.416C57.1219 20.8 56.9579 21.352 56.9579 22.072C56.9579 22.8 57.1219 23.36 57.4499 23.752C57.7779 24.136 58.2139 24.328 58.7579 24.328ZM65.4258 25.108C64.8578 25.108 64.3658 24.984 63.9498 24.736C63.5338 24.488 63.2098 24.14 62.9778 23.692C62.7538 23.236 62.6418 22.7 62.6418 22.084C62.6418 21.468 62.7538 20.936 62.9778 20.488C63.2098 20.032 63.5338 19.68 63.9498 19.432C64.3658 19.184 64.8578 19.06 65.4258 19.06C65.9938 19.06 66.4858 19.184 66.9018 19.432C67.3178 19.68 67.6378 20.032 67.8618 20.488C68.0938 20.936 68.2098 21.468 68.2098 22.084C68.2098 22.7 68.0938 23.236 67.8618 23.692C67.6378 24.14 67.3178 24.488 66.9018 24.736C66.4858 24.984 65.9938 25.108 65.4258 25.108ZM65.4258 24.328C65.9778 24.328 66.4138 24.136 66.7338 23.752C67.0618 23.36 67.2258 22.8 67.2258 22.072C67.2258 21.352 67.0618 20.8 66.7338 20.416C66.4138 20.032 65.9778 19.84 65.4258 19.84C64.8818 19.84 64.4458 20.032 64.1178 20.416C63.7898 20.8 63.6258 21.352 63.6258 22.072C63.6258 22.8 63.7898 23.36 64.1178 23.752C64.4458 24.136 64.8818 24.328 65.4258 24.328ZM71.9512 25.108C71.2632 25.108 70.7472 24.924 70.4032 24.556C70.0592 24.188 69.8872 23.664 69.8872 22.984V19.924H68.7472V19.168H69.8872V17.38H70.8592V19.168H72.7072V19.924H70.8592V22.888C70.8592 23.344 70.9552 23.692 71.1472 23.932C71.3392 24.164 71.6512 24.28 72.0832 24.28C72.2112 24.28 72.3392 24.264 72.4672 24.232C72.5952 24.2 72.7112 24.168 72.8152 24.136L72.9832 24.88C72.8792 24.936 72.7272 24.988 72.5272 25.036C72.3272 25.084 72.1352 25.108 71.9512 25.108ZM73.8065 25V16.54H74.7785V20.464H74.6225C74.7905 20 75.0625 19.652 75.4385 19.42C75.8225 19.18 76.2625 19.06 76.7585 19.06C77.2225 19.06 77.6065 19.144 77.9105 19.312C78.2225 19.48 78.4545 19.736 78.6065 20.08C78.7585 20.416 78.8345 20.844 78.8345 21.364V25H77.8625V21.424C77.8625 21.064 77.8145 20.768 77.7185 20.536C77.6305 20.304 77.4865 20.132 77.2865 20.02C77.0945 19.908 76.8425 19.852 76.5305 19.852C76.1785 19.852 75.8705 19.928 75.6065 20.08C75.3425 20.232 75.1385 20.444 74.9945 20.716C74.8505 20.988 74.7785 21.308 74.7785 21.676V25H73.8065ZM80.5068 17.716V16.624H81.7068V17.716H80.5068ZM80.6268 25V19.168H81.5988V25H80.6268ZM86.0439 25.108C85.4279 25.108 84.8959 24.988 84.4479 24.748C84.0079 24.5 83.6639 24.152 83.4159 23.704C83.1759 23.256 83.0559 22.72 83.0559 22.096C83.0559 21.488 83.1759 20.96 83.4159 20.512C83.6559 20.056 83.9839 19.7 84.3999 19.444C84.8239 19.188 85.3119 19.06 85.8639 19.06C86.3919 19.06 86.8439 19.176 87.2199 19.408C87.5959 19.64 87.8839 19.968 88.0839 20.392C88.2919 20.816 88.3959 21.324 88.3959 21.916V22.288H83.7999V21.652H87.7479L87.5559 21.808C87.5559 21.168 87.4119 20.672 87.1239 20.32C86.8439 19.96 86.4319 19.78 85.8879 19.78C85.4799 19.78 85.1319 19.876 84.8439 20.068C84.5639 20.252 84.3519 20.512 84.2079 20.848C84.0639 21.176 83.9919 21.56 83.9919 22V22.072C83.9919 22.56 84.0679 22.972 84.2199 23.308C84.3799 23.644 84.6159 23.9 84.9279 24.076C85.2399 24.244 85.6119 24.328 86.0439 24.328C86.3879 24.328 86.7199 24.276 87.0399 24.172C87.3679 24.06 87.6759 23.88 87.9639 23.632L88.2999 24.316C88.0359 24.556 87.6999 24.748 87.2919 24.892C86.8839 25.036 86.4679 25.108 86.0439 25.108ZM91.7706 25.108C91.4666 25.108 91.1706 25.076 90.8826 25.012C90.6026 24.956 90.3386 24.876 90.0906 24.772C89.8506 24.66 89.6426 24.528 89.4666 24.376L89.7786 23.692C89.9706 23.844 90.1786 23.972 90.4026 24.076C90.6266 24.172 90.8546 24.244 91.0866 24.292C91.3186 24.34 91.5546 24.364 91.7946 24.364C92.2506 24.364 92.5946 24.28 92.8266 24.112C93.0586 23.944 93.1746 23.716 93.1746 23.428C93.1746 23.204 93.0986 23.028 92.9466 22.9C92.7946 22.764 92.5546 22.66 92.2266 22.588L91.1346 22.348C90.6306 22.244 90.2546 22.064 90.0066 21.808C89.7666 21.552 89.6466 21.22 89.6466 20.812C89.6466 20.452 89.7386 20.144 89.9226 19.888C90.1146 19.624 90.3826 19.42 90.7266 19.276C91.0706 19.132 91.4706 19.06 91.9266 19.06C92.1986 19.06 92.4586 19.088 92.7066 19.144C92.9546 19.2 93.1866 19.284 93.4026 19.396C93.6266 19.5 93.8186 19.632 93.9786 19.792L93.6546 20.476C93.5026 20.332 93.3306 20.212 93.1386 20.116C92.9466 20.012 92.7466 19.936 92.5386 19.888C92.3386 19.832 92.1346 19.804 91.9266 19.804C91.4786 19.804 91.1386 19.892 90.9066 20.068C90.6746 20.244 90.5586 20.476 90.5586 20.764C90.5586 20.988 90.6306 21.172 90.7746 21.316C90.9186 21.46 91.1426 21.564 91.4466 21.628L92.5386 21.856C93.0586 21.968 93.4466 22.148 93.7026 22.396C93.9666 22.636 94.0986 22.964 94.0986 23.38C94.0986 23.732 94.0026 24.04 93.8106 24.304C93.6186 24.56 93.3466 24.76 92.9946 24.904C92.6506 25.04 92.2426 25.108 91.7706 25.108ZM95.8694 26.368L95.4134 26.02C95.5574 25.868 95.6654 25.724 95.7374 25.588C95.8174 25.46 95.8694 25.328 95.8934 25.192C95.9254 25.064 95.9414 24.932 95.9414 24.796L96.1574 25H95.3654V23.776H96.5894V24.64C96.5894 24.856 96.5654 25.06 96.5174 25.252C96.4774 25.452 96.4054 25.644 96.3014 25.828C96.1974 26.012 96.0534 26.192 95.8694 26.368ZM101.49 25V16.54H102.318L105.75 22.984H105.39L108.798 16.54H109.626V25H108.714V17.86H109.002L105.894 23.692H105.246L102.102 17.848H102.39V25H101.49ZM114.024 25.108C113.456 25.108 112.964 24.984 112.548 24.736C112.132 24.488 111.808 24.14 111.576 23.692C111.352 23.236 111.24 22.7 111.24 22.084C111.24 21.468 111.352 20.936 111.576 20.488C111.808 20.032 112.132 19.68 112.548 19.432C112.964 19.184 113.456 19.06 114.024 19.06C114.592 19.06 115.084 19.184 115.5 19.432C115.916 19.68 116.236 20.032 116.46 20.488C116.692 20.936 116.808 21.468 116.808 22.084C116.808 22.7 116.692 23.236 116.46 23.692C116.236 24.14 115.916 24.488 115.5 24.736C115.084 24.984 114.592 25.108 114.024 25.108ZM114.024 24.328C114.576 24.328 115.012 24.136 115.332 23.752C115.66 23.36 115.824 22.8 115.824 22.072C115.824 21.352 115.66 20.8 115.332 20.416C115.012 20.032 114.576 19.84 114.024 19.84C113.48 19.84 113.044 20.032 112.716 20.416C112.388 20.8 112.224 21.352 112.224 22.072C112.224 22.8 112.388 23.36 112.716 23.752C113.044 24.136 113.48 24.328 114.024 24.328ZM120.739 25.108C120.155 25.108 119.651 24.98 119.227 24.724C118.803 24.468 118.475 24.112 118.243 23.656C118.019 23.192 117.907 22.656 117.907 22.048C117.907 21.432 118.019 20.9 118.243 20.452C118.475 20.004 118.803 19.66 119.227 19.42C119.651 19.18 120.155 19.06 120.739 19.06C121.099 19.06 121.455 19.124 121.807 19.252C122.159 19.38 122.451 19.56 122.683 19.792L122.347 20.5C122.115 20.276 121.859 20.112 121.579 20.008C121.307 19.904 121.047 19.852 120.799 19.852C120.191 19.852 119.723 20.044 119.395 20.428C119.067 20.804 118.903 21.348 118.903 22.06C118.903 22.756 119.067 23.308 119.395 23.716C119.723 24.116 120.191 24.316 120.799 24.316C121.047 24.316 121.307 24.264 121.579 24.16C121.859 24.056 122.115 23.888 122.347 23.656L122.683 24.364C122.451 24.596 122.155 24.78 121.795 24.916C121.443 25.044 121.091 25.108 120.739 25.108ZM123.822 25V16.54H124.794V21.76H124.818L127.518 19.168H128.754L125.55 22.24V21.712L129.006 25H127.77L124.818 22.264H124.794V25H123.822ZM132.022 25.108C131.334 25.108 130.818 24.924 130.474 24.556C130.13 24.188 129.958 23.664 129.958 22.984V19.924H128.818V19.168H129.958V17.38H130.93V19.168H132.778V19.924H130.93V22.888C130.93 23.344 131.026 23.692 131.218 23.932C131.41 24.164 131.722 24.28 132.154 24.28C132.282 24.28 132.41 24.264 132.538 24.232C132.666 24.2 132.782 24.168 132.886 24.136L133.054 24.88C132.95 24.936 132.798 24.988 132.598 25.036C132.398 25.084 132.206 25.108 132.022 25.108ZM135.713 25.108C135.313 25.108 134.953 25.032 134.633 24.88C134.321 24.72 134.073 24.504 133.889 24.232C133.705 23.96 133.613 23.656 133.613 23.32C133.613 22.888 133.721 22.548 133.937 22.3C134.161 22.052 134.525 21.876 135.029 21.772C135.541 21.668 136.237 21.616 137.117 21.616H137.657V22.252H137.129C136.641 22.252 136.233 22.268 135.905 22.3C135.577 22.332 135.317 22.388 135.125 22.468C134.933 22.548 134.797 22.652 134.717 22.78C134.637 22.908 134.597 23.068 134.597 23.26C134.597 23.588 134.709 23.856 134.933 24.064C135.165 24.272 135.477 24.376 135.869 24.376C136.189 24.376 136.469 24.3 136.709 24.148C136.957 23.996 137.149 23.788 137.285 23.524C137.429 23.26 137.501 22.956 137.501 22.612V21.244C137.501 20.748 137.401 20.392 137.201 20.176C137.001 19.952 136.673 19.84 136.217 19.84C135.865 19.84 135.525 19.892 135.197 19.996C134.869 20.092 134.533 20.252 134.189 20.476L133.853 19.768C134.061 19.624 134.297 19.5 134.561 19.396C134.825 19.284 135.101 19.2 135.389 19.144C135.677 19.088 135.953 19.06 136.217 19.06C136.721 19.06 137.137 19.144 137.465 19.312C137.793 19.472 138.037 19.72 138.197 20.056C138.357 20.384 138.437 20.808 138.437 21.328V25H137.525V23.644H137.633C137.569 23.948 137.445 24.208 137.261 24.424C137.085 24.64 136.865 24.808 136.601 24.928C136.337 25.048 136.041 25.108 135.713 25.108ZM140.12 17.716V16.624H141.32V17.716H140.12ZM140.24 25V19.168H141.212V25H140.24ZM144.817 25.108C144.225 25.108 143.777 24.932 143.473 24.58C143.177 24.228 143.029 23.724 143.029 23.068V16.54H144.001V22.996C144.001 23.276 144.037 23.512 144.109 23.704C144.189 23.896 144.305 24.04 144.457 24.136C144.609 24.232 144.797 24.28 145.021 24.28C145.117 24.28 145.209 24.276 145.297 24.268C145.393 24.252 145.481 24.232 145.561 24.208L145.537 25.024C145.409 25.048 145.285 25.068 145.165 25.084C145.053 25.1 144.937 25.108 144.817 25.108ZM148.489 25.108C148.185 25.108 147.889 25.076 147.601 25.012C147.321 24.956 147.057 24.876 146.809 24.772C146.569 24.66 146.361 24.528 146.185 24.376L146.497 23.692C146.689 23.844 146.897 23.972 147.121 24.076C147.345 24.172 147.573 24.244 147.805 24.292C148.037 24.34 148.273 24.364 148.513 24.364C148.969 24.364 149.313 24.28 149.545 24.112C149.777 23.944 149.893 23.716 149.893 23.428C149.893 23.204 149.817 23.028 149.665 22.9C149.513 22.764 149.273 22.66 148.945 22.588L147.853 22.348C147.349 22.244 146.973 22.064 146.725 21.808C146.485 21.552 146.365 21.22 146.365 20.812C146.365 20.452 146.457 20.144 146.641 19.888C146.833 19.624 147.101 19.42 147.445 19.276C147.789 19.132 148.189 19.06 148.645 19.06C148.917 19.06 149.177 19.088 149.425 19.144C149.673 19.2 149.905 19.284 150.121 19.396C150.345 19.5 150.537 19.632 150.697 19.792L150.373 20.476C150.221 20.332 150.049 20.212 149.857 20.116C149.665 20.012 149.465 19.936 149.257 19.888C149.057 19.832 148.853 19.804 148.645 19.804C148.197 19.804 147.857 19.892 147.625 20.068C147.393 20.244 147.277 20.476 147.277 20.764C147.277 20.988 147.349 21.172 147.493 21.316C147.637 21.46 147.861 21.564 148.165 21.628L149.257 21.856C149.777 21.968 150.165 22.148 150.421 22.396C150.685 22.636 150.817 22.964 150.817 23.38C150.817 23.732 150.721 24.04 150.529 24.304C150.337 24.56 150.065 24.76 149.713 24.904C149.369 25.04 148.961 25.108 148.489 25.108ZM152.588 26.368L152.132 26.02C152.276 25.868 152.384 25.724 152.456 25.588C152.536 25.46 152.588 25.328 152.612 25.192C152.644 25.064 152.66 24.932 152.66 24.796L152.876 25H152.084V23.776H153.308V24.64C153.308 24.856 153.284 25.06 153.236 25.252C153.196 25.452 153.124 25.644 153.02 25.828C152.916 26.012 152.772 26.192 152.588 26.368ZM157.369 25L161.101 16.54H161.941L165.673 25H164.653L163.609 22.588L164.089 22.84H158.929L159.421 22.588L158.389 25H157.369ZM161.509 17.692L159.577 22.24L159.289 22.012H163.729L163.465 22.24L161.533 17.692H161.509ZM166.795 25V19.168H167.743V20.464H167.611C167.779 20 168.051 19.652 168.427 19.42C168.811 19.18 169.251 19.06 169.747 19.06C170.211 19.06 170.595 19.144 170.899 19.312C171.211 19.472 171.443 19.724 171.595 20.068C171.747 20.412 171.823 20.844 171.823 21.364V25H170.851V21.424C170.851 21.064 170.803 20.768 170.707 20.536C170.619 20.304 170.475 20.132 170.275 20.02C170.083 19.908 169.831 19.852 169.519 19.852C169.167 19.852 168.859 19.928 168.595 20.08C168.331 20.232 168.127 20.444 167.983 20.716C167.839 20.988 167.767 21.308 167.767 21.676V25H166.795ZM175.835 25.108C175.315 25.108 174.859 24.984 174.467 24.736C174.083 24.488 173.783 24.14 173.567 23.692C173.359 23.236 173.255 22.7 173.255 22.084C173.255 21.46 173.359 20.924 173.567 20.476C173.783 20.02 174.083 19.672 174.467 19.432C174.859 19.184 175.315 19.06 175.835 19.06C176.363 19.06 176.815 19.192 177.191 19.456C177.567 19.72 177.819 20.076 177.947 20.524H177.815V16.54H178.787V25H177.839V23.608H177.959C177.831 24.064 177.575 24.428 177.191 24.7C176.815 24.972 176.363 25.108 175.835 25.108ZM176.039 24.328C176.591 24.328 177.027 24.136 177.347 23.752C177.675 23.36 177.839 22.804 177.839 22.084C177.839 21.356 177.675 20.8 177.347 20.416C177.027 20.032 176.591 19.84 176.039 19.84C175.495 19.84 175.059 20.032 174.731 20.416C174.403 20.8 174.239 21.356 174.239 22.084C174.239 22.804 174.403 23.36 174.731 23.752C175.059 24.136 175.495 24.328 176.039 24.328ZM183.825 25V16.54H187.173C188.077 16.54 188.773 16.752 189.261 17.176C189.749 17.6 189.993 18.204 189.993 18.988C189.993 19.484 189.881 19.916 189.657 20.284C189.441 20.644 189.121 20.92 188.697 21.112C188.273 21.296 187.765 21.388 187.173 21.388L187.293 21.232H187.533C187.845 21.232 188.117 21.312 188.349 21.472C188.581 21.632 188.793 21.888 188.985 22.24L190.473 25H189.393L187.929 22.288C187.809 22.064 187.673 21.888 187.521 21.76C187.377 21.632 187.209 21.544 187.017 21.496C186.833 21.448 186.609 21.424 186.345 21.424H184.809V25H183.825ZM184.809 20.644H187.029C187.685 20.644 188.181 20.508 188.517 20.236C188.853 19.956 189.021 19.54 189.021 18.988C189.021 18.452 188.853 18.048 188.517 17.776C188.181 17.496 187.685 17.356 187.029 17.356H184.809V20.644ZM194.22 25.108C193.604 25.108 193.072 24.988 192.624 24.748C192.184 24.5 191.84 24.152 191.592 23.704C191.352 23.256 191.232 22.72 191.232 22.096C191.232 21.488 191.352 20.96 191.592 20.512C191.832 20.056 192.16 19.7 192.576 19.444C193 19.188 193.488 19.06 194.04 19.06C194.568 19.06 195.02 19.176 195.396 19.408C195.772 19.64 196.06 19.968 196.26 20.392C196.468 20.816 196.572 21.324 196.572 21.916V22.288H191.976V21.652H195.924L195.732 21.808C195.732 21.168 195.588 20.672 195.3 20.32C195.02 19.96 194.608 19.78 194.064 19.78C193.656 19.78 193.308 19.876 193.02 20.068C192.74 20.252 192.528 20.512 192.384 20.848C192.24 21.176 192.168 21.56 192.168 22V22.072C192.168 22.56 192.244 22.972 192.396 23.308C192.556 23.644 192.792 23.9 193.104 24.076C193.416 24.244 193.788 24.328 194.22 24.328C194.564 24.328 194.896 24.276 195.216 24.172C195.544 24.06 195.852 23.88 196.14 23.632L196.476 24.316C196.212 24.556 195.876 24.748 195.468 24.892C195.06 25.036 194.644 25.108 194.22 25.108ZM198.29 25V19.924H197.138V19.168H198.554L198.29 19.42V18.964C198.29 18.188 198.482 17.6 198.866 17.2C199.258 16.8 199.858 16.576 200.666 16.528L201.134 16.504L201.218 17.248L200.666 17.284C200.338 17.308 200.07 17.38 199.862 17.5C199.654 17.62 199.502 17.792 199.406 18.016C199.31 18.24 199.262 18.516 199.262 18.844V19.348L199.118 19.168H200.942V19.924H199.262V25H198.29ZM201.975 25V19.168H202.923V20.548H202.803C202.939 20.076 203.175 19.72 203.511 19.48C203.847 19.232 204.291 19.088 204.843 19.048L205.191 19.012L205.263 19.852L204.651 19.924C204.107 19.972 203.687 20.148 203.391 20.452C203.103 20.748 202.959 21.156 202.959 21.676V25H201.975ZM208.833 25.108C208.217 25.108 207.685 24.988 207.237 24.748C206.797 24.5 206.453 24.152 206.205 23.704C205.965 23.256 205.845 22.72 205.845 22.096C205.845 21.488 205.965 20.96 206.205 20.512C206.445 20.056 206.773 19.7 207.189 19.444C207.613 19.188 208.101 19.06 208.653 19.06C209.181 19.06 209.633 19.176 210.009 19.408C210.385 19.64 210.673 19.968 210.873 20.392C211.081 20.816 211.185 21.324 211.185 21.916V22.288H206.589V21.652H210.537L210.345 21.808C210.345 21.168 210.201 20.672 209.913 20.32C209.633 19.96 209.221 19.78 208.677 19.78C208.269 19.78 207.921 19.876 207.633 20.068C207.353 20.252 207.141 20.512 206.997 20.848C206.853 21.176 206.781 21.56 206.781 22V22.072C206.781 22.56 206.857 22.972 207.009 23.308C207.169 23.644 207.405 23.9 207.717 24.076C208.029 24.244 208.401 24.328 208.833 24.328C209.177 24.328 209.509 24.276 209.829 24.172C210.157 24.06 210.465 23.88 210.753 23.632L211.089 24.316C210.825 24.556 210.489 24.748 210.081 24.892C209.673 25.036 209.257 25.108 208.833 25.108ZM214.56 25.108C214.256 25.108 213.96 25.076 213.672 25.012C213.392 24.956 213.128 24.876 212.88 24.772C212.64 24.66 212.432 24.528 212.256 24.376L212.568 23.692C212.76 23.844 212.968 23.972 213.192 24.076C213.416 24.172 213.644 24.244 213.876 24.292C214.108 24.34 214.344 24.364 214.584 24.364C215.04 24.364 215.384 24.28 215.616 24.112C215.848 23.944 215.964 23.716 215.964 23.428C215.964 23.204 215.888 23.028 215.736 22.9C215.584 22.764 215.344 22.66 215.016 22.588L213.924 22.348C213.42 22.244 213.044 22.064 212.796 21.808C212.556 21.552 212.436 21.22 212.436 20.812C212.436 20.452 212.528 20.144 212.712 19.888C212.904 19.624 213.172 19.42 213.516 19.276C213.86 19.132 214.26 19.06 214.716 19.06C214.988 19.06 215.248 19.088 215.496 19.144C215.744 19.2 215.976 19.284 216.192 19.396C216.416 19.5 216.608 19.632 216.768 19.792L216.444 20.476C216.292 20.332 216.12 20.212 215.928 20.116C215.736 20.012 215.536 19.936 215.328 19.888C215.128 19.832 214.924 19.804 214.716 19.804C214.268 19.804 213.928 19.892 213.696 20.068C213.464 20.244 213.348 20.476 213.348 20.764C213.348 20.988 213.42 21.172 213.564 21.316C213.708 21.46 213.932 21.564 214.236 21.628L215.328 21.856C215.848 21.968 216.236 22.148 216.492 22.396C216.756 22.636 216.888 22.964 216.888 23.38C216.888 23.732 216.792 24.04 216.6 24.304C216.408 24.56 216.136 24.76 215.784 24.904C215.44 25.04 215.032 25.108 214.56 25.108ZM218.369 25V16.54H219.341V20.464H219.185C219.353 20 219.625 19.652 220.001 19.42C220.385 19.18 220.825 19.06 221.321 19.06C221.785 19.06 222.169 19.144 222.473 19.312C222.785 19.48 223.017 19.736 223.169 20.08C223.321 20.416 223.397 20.844 223.397 21.364V25H222.425V21.424C222.425 21.064 222.377 20.768 222.281 20.536C222.193 20.304 222.049 20.132 221.849 20.02C221.657 19.908 221.405 19.852 221.093 19.852C220.741 19.852 220.433 19.928 220.169 20.08C219.905 20.232 219.701 20.444 219.557 20.716C219.413 20.988 219.341 21.308 219.341 21.676V25H218.369ZM225.069 17.716V16.624H226.269V17.716H225.069ZM225.189 25V19.168H226.161V25H225.189ZM227.978 25V19.168H228.926V20.464H228.794C228.962 20 229.234 19.652 229.61 19.42C229.994 19.18 230.434 19.06 230.93 19.06C231.394 19.06 231.778 19.144 232.082 19.312C232.394 19.472 232.626 19.724 232.778 20.068C232.93 20.412 233.006 20.844 233.006 21.364V25H232.034V21.424C232.034 21.064 231.986 20.768 231.89 20.536C231.802 20.304 231.658 20.132 231.458 20.02C231.266 19.908 231.014 19.852 230.702 19.852C230.35 19.852 230.042 19.928 229.778 20.08C229.514 20.232 229.31 20.444 229.166 20.716C229.022 20.988 228.95 21.308 228.95 21.676V25H227.978ZM237.379 27.268C236.875 27.268 236.399 27.2 235.951 27.064C235.511 26.936 235.119 26.74 234.775 26.476L235.099 25.768C235.339 25.936 235.575 26.072 235.807 26.176C236.047 26.288 236.291 26.368 236.539 26.416C236.795 26.464 237.059 26.488 237.331 26.488C237.899 26.488 238.327 26.336 238.615 26.032C238.911 25.728 239.059 25.288 239.059 24.712V23.356H239.179C239.059 23.82 238.803 24.188 238.411 24.46C238.027 24.732 237.575 24.868 237.055 24.868C236.519 24.868 236.055 24.748 235.663 24.508C235.271 24.26 234.967 23.916 234.751 23.476C234.543 23.036 234.439 22.528 234.439 21.952C234.439 21.376 234.543 20.872 234.751 20.44C234.967 20 235.271 19.66 235.663 19.42C236.055 19.18 236.519 19.06 237.055 19.06C237.583 19.06 238.039 19.196 238.423 19.468C238.807 19.732 239.055 20.092 239.167 20.548H239.059V19.168H240.007V24.58C240.007 25.172 239.907 25.668 239.707 26.068C239.515 26.468 239.223 26.768 238.831 26.968C238.439 27.168 237.955 27.268 237.379 27.268ZM237.235 24.076C237.795 24.076 238.239 23.884 238.567 23.5C238.895 23.116 239.059 22.6 239.059 21.952C239.059 21.304 238.895 20.792 238.567 20.416C238.239 20.032 237.795 19.84 237.235 19.84C236.683 19.84 236.243 20.032 235.915 20.416C235.587 20.792 235.423 21.304 235.423 21.952C235.423 22.6 235.587 23.116 235.915 23.5C236.243 23.884 236.683 24.076 237.235 24.076ZM245.044 25V16.54H247.9C248.82 16.54 249.596 16.704 250.228 17.032C250.868 17.352 251.352 17.828 251.68 18.46C252.016 19.084 252.184 19.852 252.184 20.764C252.184 21.676 252.016 22.448 251.68 23.08C251.352 23.712 250.868 24.192 250.228 24.52C249.596 24.84 248.82 25 247.9 25H245.044ZM246.028 24.16H247.828C248.94 24.16 249.768 23.876 250.312 23.308C250.864 22.74 251.14 21.892 251.14 20.764C251.14 19.636 250.864 18.792 250.312 18.232C249.76 17.664 248.932 17.38 247.828 17.38H246.028V24.16ZM253.818 25V19.168H254.766V20.548H254.646C254.782 20.076 255.018 19.72 255.354 19.48C255.69 19.232 256.134 19.088 256.686 19.048L257.034 19.012L257.106 19.852L256.494 19.924C255.95 19.972 255.53 20.148 255.234 20.452C254.946 20.748 254.802 21.156 254.802 21.676V25H253.818ZM257.999 17.716V16.624H259.199V17.716H257.999ZM258.119 25V19.168H259.091V25H258.119ZM260.908 25V19.168H261.856V20.464H261.724C261.892 20 262.164 19.652 262.54 19.42C262.924 19.18 263.364 19.06 263.86 19.06C264.324 19.06 264.708 19.144 265.012 19.312C265.324 19.472 265.556 19.724 265.708 20.068C265.86 20.412 265.936 20.844 265.936 21.364V25H264.964V21.424C264.964 21.064 264.916 20.768 264.82 20.536C264.732 20.304 264.588 20.132 264.388 20.02C264.196 19.908 263.944 19.852 263.632 19.852C263.28 19.852 262.972 19.928 262.708 20.08C262.444 20.232 262.24 20.444 262.096 20.716C261.952 20.988 261.88 21.308 261.88 21.676V25H260.908ZM267.728 25V16.54H268.7V21.76H268.724L271.424 19.168H272.66L269.456 22.24V21.712L272.912 25H271.676L268.724 22.264H268.7V25H267.728ZM275.591 25.108C275.287 25.108 274.991 25.076 274.703 25.012C274.423 24.956 274.159 24.876 273.911 24.772C273.671 24.66 273.463 24.528 273.287 24.376L273.599 23.692C273.791 23.844 273.999 23.972 274.223 24.076C274.447 24.172 274.675 24.244 274.907 24.292C275.139 24.34 275.375 24.364 275.615 24.364C276.071 24.364 276.415 24.28 276.647 24.112C276.879 23.944 276.995 23.716 276.995 23.428C276.995 23.204 276.919 23.028 276.767 22.9C276.615 22.764 276.375 22.66 276.047 22.588L274.955 22.348C274.451 22.244 274.075 22.064 273.827 21.808C273.587 21.552 273.467 21.22 273.467 20.812C273.467 20.452 273.559 20.144 273.743 19.888C273.935 19.624 274.203 19.42 274.547 19.276C274.891 19.132 275.291 19.06 275.747 19.06C276.019 19.06 276.279 19.088 276.527 19.144C276.775 19.2 277.007 19.284 277.223 19.396C277.447 19.5 277.639 19.632 277.799 19.792L277.475 20.476C277.323 20.332 277.151 20.212 276.959 20.116C276.767 20.012 276.567 19.936 276.359 19.888C276.159 19.832 275.955 19.804 275.747 19.804C275.299 19.804 274.959 19.892 274.727 20.068C274.495 20.244 274.379 20.476 274.379 20.764C274.379 20.988 274.451 21.172 274.595 21.316C274.739 21.46 274.963 21.564 275.267 21.628L276.359 21.856C276.879 21.968 277.267 22.148 277.523 22.396C277.787 22.636 277.919 22.964 277.919 23.38C277.919 23.732 277.823 24.04 277.631 24.304C277.439 24.56 277.167 24.76 276.815 24.904C276.471 25.04 276.063 25.108 275.591 25.108ZM279.186 25V23.776H280.41V25H279.186Z" fill="black"/>
</svg>
