<svg width="321" height="28" viewBox="0 0 321 28" fill="none" xmlns="http://www.w3.org/2000/svg">
<path d="M0.488 9V8.16H2.42V1.392H2.936L0.896 2.688L0.476 1.956L2.696 0.539999H3.404V8.16H5.216V9H0.488ZM7.27531 9V8.256L10.1673 5.136C10.4393 4.84 10.6593 4.564 10.8273 4.308C10.9953 4.044 11.1193 3.788 11.1993 3.54C11.2793 3.292 11.3193 3.04 11.3193 2.784C11.3193 2.304 11.1713 1.94 10.8753 1.692C10.5873 1.436 10.1633 1.308 9.60331 1.308C9.17131 1.308 8.76731 1.388 8.39131 1.548C8.02331 1.7 7.67131 1.94 7.33531 2.268L6.96331 1.5C7.27531 1.18 7.67131 0.924 8.15131 0.732C8.63931 0.532 9.15131 0.431999 9.68731 0.431999C10.2553 0.431999 10.7353 0.52 11.1273 0.696C11.5193 0.872 11.8153 1.132 12.0153 1.476C12.2153 1.812 12.3153 2.224 12.3153 2.712C12.3153 2.968 12.2833 3.22 12.2193 3.468C12.1633 3.708 12.0713 3.952 11.9433 4.2C11.8233 4.44 11.6673 4.688 11.4753 4.944C11.2913 5.2 11.0673 5.464 10.8033 5.736L8.25931 8.436V8.16H12.6633V9H7.27531ZM16.9906 9.108C16.3506 9.108 15.8066 8.944 15.3586 8.616C14.9186 8.28 14.5866 7.788 14.3626 7.14C14.1386 6.492 14.0266 5.7 14.0266 4.764C14.0266 3.82 14.1386 3.028 14.3626 2.388C14.5866 1.74 14.9186 1.252 15.3586 0.924C15.8066 0.595999 16.3506 0.431999 16.9906 0.431999C17.6386 0.431999 18.1826 0.595999 18.6226 0.924C19.0626 1.252 19.3946 1.736 19.6186 2.376C19.8426 3.016 19.9546 3.808 19.9546 4.752C19.9546 5.696 19.8426 6.492 19.6186 7.14C19.3946 7.788 19.0626 8.28 18.6226 8.616C18.1826 8.944 17.6386 9.108 16.9906 9.108ZM16.9906 8.256C17.6626 8.256 18.1586 7.972 18.4786 7.404C18.8066 6.836 18.9706 5.952 18.9706 4.752C18.9706 3.552 18.8106 2.676 18.4906 2.124C18.1706 1.564 17.6706 1.284 16.9906 1.284C16.3266 1.284 15.8306 1.564 15.5026 2.124C15.1746 2.684 15.0106 3.56 15.0106 4.752C15.0106 5.952 15.1706 6.836 15.4906 7.404C15.8186 7.972 16.3186 8.256 16.9906 8.256ZM21.5219 9V3.168H22.4699V4.464H22.3379C22.4339 4.168 22.5739 3.916 22.7579 3.708C22.9499 3.492 23.1739 3.332 23.4299 3.228C23.6939 3.116 23.9819 3.06 24.2939 3.06C24.7899 3.06 25.1899 3.18 25.4939 3.42C25.8059 3.652 26.0139 4.016 26.1179 4.512H25.9379C26.0819 4.064 26.3379 3.712 26.7059 3.456C27.0819 3.192 27.5179 3.06 28.0139 3.06C28.4539 3.06 28.8139 3.144 29.0939 3.312C29.3819 3.48 29.5979 3.736 29.7419 4.08C29.8859 4.416 29.9579 4.844 29.9579 5.364V9H28.9859V5.412C28.9859 4.876 28.8939 4.484 28.7099 4.236C28.5259 3.98 28.2139 3.852 27.7739 3.852C27.4619 3.852 27.1859 3.928 26.9459 4.08C26.7139 4.232 26.5339 4.448 26.4059 4.728C26.2859 5 26.2259 5.324 26.2259 5.7V9H25.2539V5.412C25.2539 4.876 25.1579 4.484 24.9659 4.236C24.7819 3.98 24.4739 3.852 24.0419 3.852C23.7219 3.852 23.4459 3.928 23.2139 4.08C22.9819 4.232 22.8019 4.448 22.6739 4.728C22.5539 5 22.4939 5.324 22.4939 5.7V9H21.5219ZM33.5633 9.108C32.9713 9.108 32.5233 8.932 32.2193 8.58C31.9233 8.228 31.7753 7.724 31.7753 7.068V0.539999H32.7473V6.996C32.7473 7.276 32.7833 7.512 32.8553 7.704C32.9353 7.896 33.0513 8.04 33.2033 8.136C33.3553 8.232 33.5433 8.28 33.7673 8.28C33.8633 8.28 33.9553 8.276 34.0433 8.268C34.1393 8.252 34.2273 8.232 34.3073 8.208L34.2833 9.024C34.1553 9.048 34.0313 9.068 33.9113 9.084C33.7993 9.1 33.6833 9.108 33.5633 9.108ZM38.5401 9V0.539999H41.8881C42.7921 0.539999 43.4881 0.752 43.9761 1.176C44.4641 1.6 44.7081 2.204 44.7081 2.988C44.7081 3.484 44.5961 3.916 44.3721 4.284C44.1561 4.644 43.8361 4.92 43.4121 5.112C42.9881 5.296 42.4801 5.388 41.8881 5.388L42.0081 5.232H42.2481C42.5601 5.232 42.8321 5.312 43.0641 5.472C43.2961 5.632 43.5081 5.888 43.7001 6.24L45.1881 9H44.1081L42.6441 6.288C42.5241 6.064 42.3881 5.888 42.2361 5.76C42.0921 5.632 41.9241 5.544 41.7321 5.496C41.5481 5.448 41.3241 5.424 41.0601 5.424H39.5241V9H38.5401ZM39.5241 4.644H41.7441C42.4001 4.644 42.8961 4.508 43.2321 4.236C43.5681 3.956 43.7361 3.54 43.7361 2.988C43.7361 2.452 43.5681 2.048 43.2321 1.776C42.8961 1.496 42.4001 1.356 41.7441 1.356H39.5241V4.644ZM48.7305 9.108C48.1625 9.108 47.6705 8.984 47.2545 8.736C46.8385 8.488 46.5145 8.14 46.2825 7.692C46.0585 7.236 45.9465 6.7 45.9465 6.084C45.9465 5.468 46.0585 4.936 46.2825 4.488C46.5145 4.032 46.8385 3.68 47.2545 3.432C47.6705 3.184 48.1625 3.06 48.7305 3.06C49.2985 3.06 49.7905 3.184 50.2065 3.432C50.6225 3.68 50.9425 4.032 51.1665 4.488C51.3985 4.936 51.5145 5.468 51.5145 6.084C51.5145 6.7 51.3985 7.236 51.1665 7.692C50.9425 8.14 50.6225 8.488 50.2065 8.736C49.7905 8.984 49.2985 9.108 48.7305 9.108ZM48.7305 8.328C49.2825 8.328 49.7185 8.136 50.0385 7.752C50.3665 7.36 50.5305 6.8 50.5305 6.072C50.5305 5.352 50.3665 4.8 50.0385 4.416C49.7185 4.032 49.2825 3.84 48.7305 3.84C48.1865 3.84 47.7505 4.032 47.4225 4.416C47.0945 4.8 46.9305 5.352 46.9305 6.072C46.9305 6.8 47.0945 7.36 47.4225 7.752C47.7505 8.136 48.1865 8.328 48.7305 8.328ZM55.0385 9.108C54.5665 9.108 54.1745 9.024 53.8625 8.856C53.5585 8.68 53.3265 8.42 53.1665 8.076C53.0145 7.732 52.9385 7.304 52.9385 6.792V3.168H53.9105V6.78C53.9105 7.124 53.9545 7.412 54.0425 7.644C54.1385 7.868 54.2865 8.036 54.4865 8.148C54.6865 8.252 54.9345 8.304 55.2305 8.304C55.5665 8.304 55.8585 8.228 56.1065 8.076C56.3545 7.924 56.5505 7.712 56.6945 7.44C56.8385 7.168 56.9105 6.848 56.9105 6.48V3.168H57.8825V9H56.9345V7.656H57.0905C56.9305 8.128 56.6665 8.488 56.2985 8.736C55.9385 8.984 55.5185 9.108 55.0385 9.108ZM59.7011 9V3.168H60.6491V4.464H60.5171C60.6851 4 60.9571 3.652 61.3331 3.42C61.7171 3.18 62.1571 3.06 62.6531 3.06C63.1171 3.06 63.5011 3.144 63.8051 3.312C64.1171 3.472 64.3491 3.724 64.5011 4.068C64.6531 4.412 64.7291 4.844 64.7291 5.364V9H63.7571V5.424C63.7571 5.064 63.7091 4.768 63.6131 4.536C63.5251 4.304 63.3811 4.132 63.1811 4.02C62.9891 3.908 62.7371 3.852 62.4251 3.852C62.0731 3.852 61.7651 3.928 61.5011 4.08C61.2371 4.232 61.0331 4.444 60.8891 4.716C60.7451 4.988 60.6731 5.308 60.6731 5.676V9H59.7011ZM68.7414 9.108C68.2214 9.108 67.7654 8.984 67.3734 8.736C66.9894 8.488 66.6894 8.14 66.4734 7.692C66.2654 7.236 66.1614 6.7 66.1614 6.084C66.1614 5.46 66.2654 4.924 66.4734 4.476C66.6894 4.02 66.9894 3.672 67.3734 3.432C67.7654 3.184 68.2214 3.06 68.7414 3.06C69.2694 3.06 69.7214 3.192 70.0974 3.456C70.4734 3.72 70.7254 4.076 70.8534 4.524H70.7214V0.539999H71.6934V9H70.7454V7.608H70.8654C70.7374 8.064 70.4814 8.428 70.0974 8.7C69.7214 8.972 69.2694 9.108 68.7414 9.108ZM68.9454 8.328C69.4974 8.328 69.9334 8.136 70.2534 7.752C70.5814 7.36 70.7454 6.804 70.7454 6.084C70.7454 5.356 70.5814 4.8 70.2534 4.416C69.9334 4.032 69.4974 3.84 68.9454 3.84C68.4014 3.84 67.9654 4.032 67.6374 4.416C67.3094 4.8 67.1454 5.356 67.1454 6.084C67.1454 6.804 67.3094 7.36 67.6374 7.752C67.9654 8.136 68.4014 8.328 68.9454 8.328ZM80.3915 9.108C79.5595 9.108 78.8475 8.932 78.2555 8.58C77.6635 8.228 77.2075 7.728 76.8875 7.08C76.5755 6.432 76.4195 5.66 76.4195 4.764C76.4195 3.868 76.5755 3.1 76.8875 2.46C77.2075 1.812 77.6635 1.312 78.2555 0.96C78.8475 0.608 79.5595 0.431999 80.3915 0.431999C80.9755 0.431999 81.5155 0.523999 82.0115 0.707999C82.5075 0.891999 82.9235 1.16 83.2595 1.512L82.8755 2.316C82.5075 1.972 82.1235 1.724 81.7235 1.572C81.3315 1.412 80.8955 1.332 80.4155 1.332C79.4635 1.332 78.7355 1.632 78.2315 2.232C77.7275 2.832 77.4755 3.676 77.4755 4.764C77.4755 5.852 77.7275 6.7 78.2315 7.308C78.7355 7.908 79.4635 8.208 80.4155 8.208C80.8955 8.208 81.3315 8.132 81.7235 7.98C82.1235 7.82 82.5075 7.568 82.8755 7.224L83.2595 8.028C82.9235 8.372 82.5075 8.64 82.0115 8.832C81.5155 9.016 80.9755 9.108 80.3915 9.108ZM86.6758 9.108C86.1078 9.108 85.6158 8.984 85.1998 8.736C84.7838 8.488 84.4598 8.14 84.2278 7.692C84.0038 7.236 83.8918 6.7 83.8918 6.084C83.8918 5.468 84.0038 4.936 84.2278 4.488C84.4598 4.032 84.7838 3.68 85.1998 3.432C85.6158 3.184 86.1078 3.06 86.6758 3.06C87.2438 3.06 87.7358 3.184 88.1518 3.432C88.5678 3.68 88.8878 4.032 89.1118 4.488C89.3438 4.936 89.4598 5.468 89.4598 6.084C89.4598 6.7 89.3438 7.236 89.1118 7.692C88.8878 8.14 88.5678 8.488 88.1518 8.736C87.7358 8.984 87.2438 9.108 86.6758 9.108ZM86.6758 8.328C87.2278 8.328 87.6638 8.136 87.9838 7.752C88.3118 7.36 88.4758 6.8 88.4758 6.072C88.4758 5.352 88.3118 4.8 87.9838 4.416C87.6638 4.032 87.2278 3.84 86.6758 3.84C86.1318 3.84 85.6958 4.032 85.3678 4.416C85.0398 4.8 84.8758 5.352 84.8758 6.072C84.8758 6.8 85.0398 7.36 85.3678 7.752C85.6958 8.136 86.1318 8.328 86.6758 8.328ZM90.9198 9V3.168H91.8678V4.464H91.7358C91.9038 4 92.1758 3.652 92.5518 3.42C92.9358 3.18 93.3758 3.06 93.8718 3.06C94.3358 3.06 94.7198 3.144 95.0238 3.312C95.3358 3.472 95.5678 3.724 95.7198 4.068C95.8718 4.412 95.9478 4.844 95.9478 5.364V9H94.9758V5.424C94.9758 5.064 94.9278 4.768 94.8318 4.536C94.7438 4.304 94.5998 4.132 94.3998 4.02C94.2078 3.908 93.9558 3.852 93.6438 3.852C93.2918 3.852 92.9838 3.928 92.7198 4.08C92.4558 4.232 92.2518 4.444 92.1078 4.716C91.9638 4.988 91.8918 5.308 91.8918 5.676V9H90.9198ZM100.08 9.108C99.3921 9.108 98.8761 8.924 98.5321 8.556C98.1881 8.188 98.0161 7.664 98.0161 6.984V3.924H96.8761V3.168H98.0161V1.38H98.9881V3.168H100.836V3.924H98.9881V6.888C98.9881 7.344 99.0841 7.692 99.2761 7.932C99.4681 8.164 99.7801 8.28 100.212 8.28C100.34 8.28 100.468 8.264 100.596 8.232C100.724 8.2 100.84 8.168 100.944 8.136L101.112 8.88C101.008 8.936 100.856 8.988 100.656 9.036C100.456 9.084 100.264 9.108 100.08 9.108ZM103.771 9.108C103.371 9.108 103.011 9.032 102.691 8.88C102.379 8.72 102.131 8.504 101.947 8.232C101.763 7.96 101.671 7.656 101.671 7.32C101.671 6.888 101.779 6.548 101.995 6.3C102.219 6.052 102.583 5.876 103.087 5.772C103.599 5.668 104.295 5.616 105.175 5.616H105.715V6.252H105.187C104.699 6.252 104.291 6.268 103.963 6.3C103.635 6.332 103.375 6.388 103.183 6.468C102.991 6.548 102.855 6.652 102.775 6.78C102.695 6.908 102.655 7.068 102.655 7.26C102.655 7.588 102.767 7.856 102.991 8.064C103.223 8.272 103.535 8.376 103.927 8.376C104.247 8.376 104.527 8.3 104.767 8.148C105.015 7.996 105.207 7.788 105.343 7.524C105.487 7.26 105.559 6.956 105.559 6.612V5.244C105.559 4.748 105.459 4.392 105.259 4.176C105.059 3.952 104.731 3.84 104.275 3.84C103.923 3.84 103.583 3.892 103.255 3.996C102.927 4.092 102.591 4.252 102.247 4.476L101.911 3.768C102.119 3.624 102.355 3.5 102.619 3.396C102.883 3.284 103.159 3.2 103.447 3.144C103.735 3.088 104.011 3.06 104.275 3.06C104.779 3.06 105.195 3.144 105.523 3.312C105.851 3.472 106.095 3.72 106.255 4.056C106.415 4.384 106.495 4.808 106.495 5.328V9H105.583V7.644H105.691C105.627 7.948 105.503 8.208 105.319 8.424C105.143 8.64 104.923 8.808 104.659 8.928C104.395 9.048 104.099 9.108 103.771 9.108ZM108.179 1.716V0.624H109.379V1.716H108.179ZM108.299 9V3.168H109.271V9H108.299ZM111.088 9V3.168H112.036V4.464H111.904C112.072 4 112.344 3.652 112.72 3.42C113.104 3.18 113.544 3.06 114.04 3.06C114.504 3.06 114.888 3.144 115.192 3.312C115.504 3.472 115.736 3.724 115.888 4.068C116.04 4.412 116.116 4.844 116.116 5.364V9H115.144V5.424C115.144 5.064 115.096 4.768 115 4.536C114.912 4.304 114.768 4.132 114.568 4.02C114.376 3.908 114.124 3.852 113.812 3.852C113.46 3.852 113.152 3.928 112.888 4.08C112.624 4.232 112.42 4.444 112.276 4.716C112.132 4.988 112.06 5.308 112.06 5.676V9H111.088ZM120.536 9.108C119.92 9.108 119.388 8.988 118.94 8.748C118.5 8.5 118.156 8.152 117.908 7.704C117.668 7.256 117.548 6.72 117.548 6.096C117.548 5.488 117.668 4.96 117.908 4.512C118.148 4.056 118.476 3.7 118.892 3.444C119.316 3.188 119.804 3.06 120.356 3.06C120.884 3.06 121.336 3.176 121.712 3.408C122.088 3.64 122.376 3.968 122.576 4.392C122.784 4.816 122.888 5.324 122.888 5.916V6.288H118.292V5.652H122.24L122.048 5.808C122.048 5.168 121.904 4.672 121.616 4.32C121.336 3.96 120.924 3.78 120.38 3.78C119.972 3.78 119.624 3.876 119.336 4.068C119.056 4.252 118.844 4.512 118.7 4.848C118.556 5.176 118.484 5.56 118.484 6V6.072C118.484 6.56 118.56 6.972 118.712 7.308C118.872 7.644 119.108 7.9 119.42 8.076C119.732 8.244 120.104 8.328 120.536 8.328C120.88 8.328 121.212 8.276 121.532 8.172C121.86 8.06 122.168 7.88 122.456 7.632L122.792 8.316C122.528 8.556 122.192 8.748 121.784 8.892C121.376 9.036 120.96 9.108 120.536 9.108ZM124.295 9V3.168H125.243V4.548H125.123C125.259 4.076 125.495 3.72 125.831 3.48C126.167 3.232 126.611 3.088 127.163 3.048L127.511 3.012L127.583 3.852L126.971 3.924C126.427 3.972 126.007 4.148 125.711 4.452C125.423 4.748 125.279 5.156 125.279 5.676V9H124.295ZM128.698 10.368L128.242 10.02C128.386 9.868 128.494 9.724 128.566 9.588C128.646 9.46 128.698 9.328 128.722 9.192C128.754 9.064 128.77 8.932 128.77 8.796L128.986 9H128.194V7.776H129.418V8.64C129.418 8.856 129.394 9.06 129.346 9.252C129.306 9.452 129.234 9.644 129.13 9.828C129.026 10.012 128.882 10.192 128.698 10.368ZM134.294 9V0.539999H139.526V1.368H135.278V4.32H139.286V5.148H135.278V9H134.294ZM140.619 9V3.168H141.567V4.548H141.447C141.583 4.076 141.819 3.72 142.155 3.48C142.491 3.232 142.935 3.088 143.487 3.048L143.835 3.012L143.907 3.852L143.295 3.924C142.751 3.972 142.331 4.148 142.035 4.452C141.747 4.748 141.603 5.156 141.603 5.676V9H140.619ZM147.478 9.108C146.862 9.108 146.33 8.988 145.882 8.748C145.442 8.5 145.098 8.152 144.85 7.704C144.61 7.256 144.49 6.72 144.49 6.096C144.49 5.488 144.61 4.96 144.85 4.512C145.09 4.056 145.418 3.7 145.834 3.444C146.258 3.188 146.746 3.06 147.298 3.06C147.826 3.06 148.278 3.176 148.654 3.408C149.03 3.64 149.318 3.968 149.518 4.392C149.726 4.816 149.83 5.324 149.83 5.916V6.288H145.234V5.652H149.182L148.99 5.808C148.99 5.168 148.846 4.672 148.558 4.32C148.278 3.96 147.866 3.78 147.322 3.78C146.914 3.78 146.566 3.876 146.278 4.068C145.998 4.252 145.786 4.512 145.642 4.848C145.498 5.176 145.426 5.56 145.426 6V6.072C145.426 6.56 145.502 6.972 145.654 7.308C145.814 7.644 146.05 7.9 146.362 8.076C146.674 8.244 147.046 8.328 147.478 8.328C147.822 8.328 148.154 8.276 148.474 8.172C148.802 8.06 149.11 7.88 149.398 7.632L149.734 8.316C149.47 8.556 149.134 8.748 148.726 8.892C148.318 9.036 147.902 9.108 147.478 9.108ZM153.864 9.108C153.248 9.108 152.716 8.988 152.268 8.748C151.828 8.5 151.484 8.152 151.236 7.704C150.996 7.256 150.876 6.72 150.876 6.096C150.876 5.488 150.996 4.96 151.236 4.512C151.476 4.056 151.804 3.7 152.22 3.444C152.644 3.188 153.132 3.06 153.684 3.06C154.212 3.06 154.664 3.176 155.04 3.408C155.416 3.64 155.704 3.968 155.904 4.392C156.112 4.816 156.216 5.324 156.216 5.916V6.288H151.62V5.652H155.568L155.376 5.808C155.376 5.168 155.232 4.672 154.944 4.32C154.664 3.96 154.252 3.78 153.708 3.78C153.3 3.78 152.952 3.876 152.664 4.068C152.384 4.252 152.172 4.512 152.028 4.848C151.884 5.176 151.812 5.56 151.812 6V6.072C151.812 6.56 151.888 6.972 152.04 7.308C152.2 7.644 152.436 7.9 152.748 8.076C153.06 8.244 153.432 8.328 153.864 8.328C154.208 8.328 154.54 8.276 154.86 8.172C155.188 8.06 155.496 7.88 155.784 7.632L156.12 8.316C155.856 8.556 155.52 8.748 155.112 8.892C154.704 9.036 154.288 9.108 153.864 9.108ZM157.348 9V8.352L160.864 3.672V3.924H157.348V3.168H161.764V3.816L158.212 8.52V8.244H161.896V9H157.348ZM165.665 9.108C165.049 9.108 164.517 8.988 164.069 8.748C163.629 8.5 163.285 8.152 163.037 7.704C162.797 7.256 162.677 6.72 162.677 6.096C162.677 5.488 162.797 4.96 163.037 4.512C163.277 4.056 163.605 3.7 164.021 3.444C164.445 3.188 164.933 3.06 165.485 3.06C166.013 3.06 166.465 3.176 166.841 3.408C167.217 3.64 167.505 3.968 167.705 4.392C167.913 4.816 168.017 5.324 168.017 5.916V6.288H163.421V5.652H167.369L167.177 5.808C167.177 5.168 167.033 4.672 166.745 4.32C166.465 3.96 166.053 3.78 165.509 3.78C165.101 3.78 164.753 3.876 164.465 4.068C164.185 4.252 163.973 4.512 163.829 4.848C163.685 5.176 163.613 5.56 163.613 6V6.072C163.613 6.56 163.689 6.972 163.841 7.308C164.001 7.644 164.237 7.9 164.549 8.076C164.861 8.244 165.233 8.328 165.665 8.328C166.009 8.328 166.341 8.276 166.661 8.172C166.989 8.06 167.297 7.88 167.585 7.632L167.921 8.316C167.657 8.556 167.321 8.748 166.913 8.892C166.505 9.036 166.089 9.108 165.665 9.108ZM169.424 9V3.168H170.372V4.548H170.252C170.388 4.076 170.624 3.72 170.96 3.48C171.296 3.232 171.74 3.088 172.292 3.048L172.64 3.012L172.712 3.852L172.1 3.924C171.556 3.972 171.136 4.148 170.84 4.452C170.552 4.748 170.408 5.156 170.408 5.676V9H169.424ZM173.395 6.204V5.4H176.755V6.204H173.395ZM181.163 9.108C180.723 9.108 180.307 9.068 179.915 8.988C179.531 8.908 179.175 8.796 178.847 8.652C178.527 8.5 178.235 8.316 177.971 8.1L178.319 7.308C178.591 7.508 178.867 7.68 179.147 7.824C179.435 7.96 179.743 8.064 180.071 8.136C180.407 8.2 180.771 8.232 181.163 8.232C181.883 8.232 182.415 8.1 182.759 7.836C183.111 7.564 183.287 7.208 183.287 6.768C183.287 6.536 183.231 6.336 183.119 6.168C183.015 6 182.839 5.856 182.591 5.736C182.351 5.616 182.035 5.516 181.643 5.436L180.395 5.184C179.643 5.024 179.079 4.764 178.703 4.404C178.335 4.036 178.151 3.548 178.151 2.94C178.151 2.436 178.279 1.996 178.535 1.62C178.799 1.244 179.163 0.951999 179.627 0.744C180.099 0.536 180.635 0.431999 181.235 0.431999C181.619 0.431999 181.983 0.471999 182.327 0.551999C182.671 0.632 182.987 0.752 183.275 0.912C183.571 1.064 183.831 1.252 184.055 1.476L183.707 2.244C183.347 1.916 182.967 1.68 182.567 1.536C182.167 1.384 181.719 1.308 181.223 1.308C180.799 1.308 180.431 1.372 180.119 1.5C179.815 1.628 179.575 1.816 179.399 2.064C179.231 2.304 179.147 2.584 179.147 2.904C179.147 3.288 179.263 3.592 179.495 3.816C179.735 4.04 180.123 4.204 180.659 4.308L181.907 4.572C182.715 4.74 183.311 4.996 183.695 5.34C184.087 5.676 184.283 6.136 184.283 6.72C184.283 7.184 184.155 7.6 183.899 7.968C183.651 8.328 183.291 8.608 182.819 8.808C182.355 9.008 181.803 9.108 181.163 9.108ZM187.514 9.108C187.114 9.108 186.754 9.032 186.434 8.88C186.122 8.72 185.874 8.504 185.69 8.232C185.506 7.96 185.414 7.656 185.414 7.32C185.414 6.888 185.522 6.548 185.738 6.3C185.962 6.052 186.326 5.876 186.83 5.772C187.342 5.668 188.038 5.616 188.918 5.616H189.458V6.252H188.93C188.442 6.252 188.034 6.268 187.706 6.3C187.378 6.332 187.118 6.388 186.926 6.468C186.734 6.548 186.598 6.652 186.518 6.78C186.438 6.908 186.398 7.068 186.398 7.26C186.398 7.588 186.51 7.856 186.734 8.064C186.966 8.272 187.278 8.376 187.67 8.376C187.99 8.376 188.27 8.3 188.51 8.148C188.758 7.996 188.95 7.788 189.086 7.524C189.23 7.26 189.302 6.956 189.302 6.612V5.244C189.302 4.748 189.202 4.392 189.002 4.176C188.802 3.952 188.474 3.84 188.018 3.84C187.666 3.84 187.326 3.892 186.998 3.996C186.67 4.092 186.334 4.252 185.99 4.476L185.654 3.768C185.862 3.624 186.098 3.5 186.362 3.396C186.626 3.284 186.902 3.2 187.19 3.144C187.478 3.088 187.754 3.06 188.018 3.06C188.522 3.06 188.938 3.144 189.266 3.312C189.594 3.472 189.838 3.72 189.998 4.056C190.158 4.384 190.238 4.808 190.238 5.328V9H189.326V7.644H189.434C189.37 7.948 189.246 8.208 189.062 8.424C188.886 8.64 188.666 8.808 188.402 8.928C188.138 9.048 187.842 9.108 187.514 9.108ZM192.353 9V3.924H191.201V3.168H192.617L192.353 3.42V2.964C192.353 2.188 192.545 1.6 192.929 1.2C193.321 0.799999 193.921 0.575999 194.729 0.528L195.197 0.504L195.281 1.248L194.729 1.284C194.401 1.308 194.133 1.38 193.925 1.5C193.717 1.62 193.565 1.792 193.469 2.016C193.373 2.24 193.325 2.516 193.325 2.844V3.348L193.181 3.168H195.005V3.924H193.325V9H192.353ZM198.501 9.108C197.885 9.108 197.353 8.988 196.905 8.748C196.465 8.5 196.121 8.152 195.873 7.704C195.633 7.256 195.513 6.72 195.513 6.096C195.513 5.488 195.633 4.96 195.873 4.512C196.113 4.056 196.441 3.7 196.857 3.444C197.281 3.188 197.769 3.06 198.321 3.06C198.849 3.06 199.301 3.176 199.677 3.408C200.053 3.64 200.341 3.968 200.541 4.392C200.749 4.816 200.853 5.324 200.853 5.916V6.288H196.257V5.652H200.205L200.013 5.808C200.013 5.168 199.869 4.672 199.581 4.32C199.301 3.96 198.889 3.78 198.345 3.78C197.937 3.78 197.589 3.876 197.301 4.068C197.021 4.252 196.809 4.512 196.665 4.848C196.521 5.176 196.449 5.56 196.449 6V6.072C196.449 6.56 196.525 6.972 196.677 7.308C196.837 7.644 197.073 7.9 197.385 8.076C197.697 8.244 198.069 8.328 198.501 8.328C198.845 8.328 199.177 8.276 199.497 8.172C199.825 8.06 200.133 7.88 200.421 7.632L200.757 8.316C200.493 8.556 200.157 8.748 199.749 8.892C199.341 9.036 198.925 9.108 198.501 9.108ZM202.608 10.368L202.152 10.02C202.296 9.868 202.404 9.724 202.476 9.588C202.556 9.46 202.608 9.328 202.632 9.192C202.664 9.064 202.68 8.932 202.68 8.796L202.896 9H202.104V7.776H203.328V8.64C203.328 8.856 203.304 9.06 203.256 9.252C203.216 9.452 203.144 9.644 203.04 9.828C202.936 10.012 202.792 10.192 202.608 10.368ZM208.228 9V0.539999H209.056L212.488 6.984H212.128L215.536 0.539999H216.364V9H215.452V1.86H215.74L212.632 7.692H211.984L208.84 1.848H209.128V9H208.228ZM220.174 9.108C219.774 9.108 219.414 9.032 219.094 8.88C218.782 8.72 218.534 8.504 218.35 8.232C218.166 7.96 218.074 7.656 218.074 7.32C218.074 6.888 218.182 6.548 218.398 6.3C218.622 6.052 218.986 5.876 219.49 5.772C220.002 5.668 220.698 5.616 221.578 5.616H222.118V6.252H221.59C221.102 6.252 220.694 6.268 220.366 6.3C220.038 6.332 219.778 6.388 219.586 6.468C219.394 6.548 219.258 6.652 219.178 6.78C219.098 6.908 219.058 7.068 219.058 7.26C219.058 7.588 219.17 7.856 219.394 8.064C219.626 8.272 219.938 8.376 220.33 8.376C220.65 8.376 220.93 8.3 221.17 8.148C221.418 7.996 221.61 7.788 221.746 7.524C221.89 7.26 221.962 6.956 221.962 6.612V5.244C221.962 4.748 221.862 4.392 221.662 4.176C221.462 3.952 221.134 3.84 220.678 3.84C220.326 3.84 219.986 3.892 219.658 3.996C219.33 4.092 218.994 4.252 218.65 4.476L218.314 3.768C218.522 3.624 218.758 3.5 219.022 3.396C219.286 3.284 219.562 3.2 219.85 3.144C220.138 3.088 220.414 3.06 220.678 3.06C221.182 3.06 221.598 3.144 221.926 3.312C222.254 3.472 222.498 3.72 222.658 4.056C222.818 4.384 222.898 4.808 222.898 5.328V9H221.986V7.644H222.094C222.03 7.948 221.906 8.208 221.722 8.424C221.546 8.64 221.326 8.808 221.062 8.928C220.798 9.048 220.502 9.108 220.174 9.108ZM226.921 9.108C226.401 9.108 225.945 8.984 225.553 8.736C225.169 8.488 224.869 8.14 224.653 7.692C224.445 7.236 224.341 6.7 224.341 6.084C224.341 5.46 224.445 4.924 224.653 4.476C224.869 4.02 225.169 3.672 225.553 3.432C225.945 3.184 226.401 3.06 226.921 3.06C227.449 3.06 227.901 3.192 228.277 3.456C228.653 3.72 228.905 4.076 229.033 4.524H228.901V0.539999H229.873V9H228.925V7.608H229.045C228.917 8.064 228.661 8.428 228.277 8.7C227.901 8.972 227.449 9.108 226.921 9.108ZM227.125 8.328C227.677 8.328 228.113 8.136 228.433 7.752C228.761 7.36 228.925 6.804 228.925 6.084C228.925 5.356 228.761 4.8 228.433 4.416C228.113 4.032 227.677 3.84 227.125 3.84C226.581 3.84 226.145 4.032 225.817 4.416C225.489 4.8 225.325 5.356 225.325 6.084C225.325 6.804 225.489 7.36 225.817 7.752C226.145 8.136 226.581 8.328 227.125 8.328ZM234.325 9.108C233.709 9.108 233.177 8.988 232.729 8.748C232.289 8.5 231.945 8.152 231.697 7.704C231.457 7.256 231.337 6.72 231.337 6.096C231.337 5.488 231.457 4.96 231.697 4.512C231.937 4.056 232.265 3.7 232.681 3.444C233.105 3.188 233.593 3.06 234.145 3.06C234.673 3.06 235.125 3.176 235.501 3.408C235.877 3.64 236.165 3.968 236.365 4.392C236.573 4.816 236.677 5.324 236.677 5.916V6.288H232.081V5.652H236.029L235.837 5.808C235.837 5.168 235.693 4.672 235.405 4.32C235.125 3.96 234.713 3.78 234.169 3.78C233.761 3.78 233.413 3.876 233.125 4.068C232.845 4.252 232.633 4.512 232.489 4.848C232.345 5.176 232.273 5.56 232.273 6V6.072C232.273 6.56 232.349 6.972 232.501 7.308C232.661 7.644 232.897 7.9 233.209 8.076C233.521 8.244 233.893 8.328 234.325 8.328C234.669 8.328 235.001 8.276 235.321 8.172C235.649 8.06 235.957 7.88 236.245 7.632L236.581 8.316C236.317 8.556 235.981 8.748 235.573 8.892C235.165 9.036 234.749 9.108 234.325 9.108ZM244.85 9.108C244.266 9.108 243.734 9.008 243.254 8.808C242.774 8.6 242.366 8.308 242.03 7.932C241.694 7.556 241.434 7.1 241.25 6.564C241.074 6.028 240.986 5.428 240.986 4.764C240.986 4.092 241.074 3.492 241.25 2.964C241.434 2.428 241.694 1.976 242.03 1.608C242.366 1.232 242.77 0.944 243.242 0.744C243.722 0.536 244.258 0.431999 244.85 0.431999C245.45 0.431999 245.986 0.532 246.458 0.732C246.938 0.932 247.346 1.22 247.682 1.596C248.026 1.972 248.286 2.428 248.462 2.964C248.646 3.492 248.738 4.088 248.738 4.752C248.738 5.424 248.646 6.028 248.462 6.564C248.278 7.1 248.018 7.556 247.682 7.932C247.346 8.308 246.938 8.6 246.458 8.808C245.986 9.008 245.45 9.108 244.85 9.108ZM244.85 8.232C245.458 8.232 245.97 8.096 246.386 7.824C246.81 7.552 247.134 7.156 247.358 6.636C247.582 6.116 247.694 5.492 247.694 4.764C247.694 4.028 247.582 3.404 247.358 2.892C247.134 2.38 246.81 1.988 246.386 1.716C245.97 1.444 245.458 1.308 244.85 1.308C244.258 1.308 243.75 1.444 243.326 1.716C242.91 1.988 242.59 2.384 242.366 2.904C242.142 3.416 242.03 4.036 242.03 4.764C242.03 5.492 242.142 6.116 242.366 6.636C242.59 7.148 242.91 7.544 243.326 7.824C243.75 8.096 244.258 8.232 244.85 8.232ZM250.677 9V3.924H249.525V3.168H250.941L250.677 3.42V2.964C250.677 2.188 250.869 1.6 251.253 1.2C251.645 0.799999 252.245 0.575999 253.053 0.528L253.521 0.504L253.605 1.248L253.053 1.284C252.725 1.308 252.457 1.38 252.249 1.5C252.041 1.62 251.889 1.792 251.793 2.016C251.697 2.24 251.649 2.516 251.649 2.844V3.348L251.505 3.168H253.329V3.924H251.649V9H250.677ZM257.575 9V0.539999H262.807V1.368H258.559V4.32H262.567V5.148H258.559V9H257.575ZM266.219 9.108C265.651 9.108 265.159 8.984 264.743 8.736C264.327 8.488 264.003 8.14 263.771 7.692C263.547 7.236 263.435 6.7 263.435 6.084C263.435 5.468 263.547 4.936 263.771 4.488C264.003 4.032 264.327 3.68 264.743 3.432C265.159 3.184 265.651 3.06 266.219 3.06C266.787 3.06 267.279 3.184 267.695 3.432C268.111 3.68 268.431 4.032 268.655 4.488C268.887 4.936 269.003 5.468 269.003 6.084C269.003 6.7 268.887 7.236 268.655 7.692C268.431 8.14 268.111 8.488 267.695 8.736C267.279 8.984 266.787 9.108 266.219 9.108ZM266.219 8.328C266.771 8.328 267.207 8.136 267.527 7.752C267.855 7.36 268.019 6.8 268.019 6.072C268.019 5.352 267.855 4.8 267.527 4.416C267.207 4.032 266.771 3.84 266.219 3.84C265.675 3.84 265.239 4.032 264.911 4.416C264.583 4.8 264.419 5.352 264.419 6.072C264.419 6.8 264.583 7.36 264.911 7.752C265.239 8.136 265.675 8.328 266.219 8.328ZM272.887 9.108C272.319 9.108 271.827 8.984 271.411 8.736C270.995 8.488 270.671 8.14 270.439 7.692C270.215 7.236 270.103 6.7 270.103 6.084C270.103 5.468 270.215 4.936 270.439 4.488C270.671 4.032 270.995 3.68 271.411 3.432C271.827 3.184 272.319 3.06 272.887 3.06C273.455 3.06 273.947 3.184 274.363 3.432C274.779 3.68 275.099 4.032 275.323 4.488C275.555 4.936 275.671 5.468 275.671 6.084C275.671 6.7 275.555 7.236 275.323 7.692C275.099 8.14 274.779 8.488 274.363 8.736C273.947 8.984 273.455 9.108 272.887 9.108ZM272.887 8.328C273.439 8.328 273.875 8.136 274.195 7.752C274.523 7.36 274.687 6.8 274.687 6.072C274.687 5.352 274.523 4.8 274.195 4.416C273.875 4.032 273.439 3.84 272.887 3.84C272.343 3.84 271.907 4.032 271.579 4.416C271.251 4.8 271.087 5.352 271.087 6.072C271.087 6.8 271.251 7.36 271.579 7.752C271.907 8.136 272.343 8.328 272.887 8.328ZM279.351 9.108C278.831 9.108 278.375 8.984 277.983 8.736C277.599 8.488 277.299 8.14 277.083 7.692C276.875 7.236 276.771 6.7 276.771 6.084C276.771 5.46 276.875 4.924 277.083 4.476C277.299 4.02 277.599 3.672 277.983 3.432C278.375 3.184 278.831 3.06 279.351 3.06C279.879 3.06 280.331 3.192 280.707 3.456C281.083 3.72 281.335 4.076 281.463 4.524H281.331V0.539999H282.303V9H281.355V7.608H281.475C281.347 8.064 281.091 8.428 280.707 8.7C280.331 8.972 279.879 9.108 279.351 9.108ZM279.555 8.328C280.107 8.328 280.543 8.136 280.863 7.752C281.191 7.36 281.355 6.804 281.355 6.084C281.355 5.356 281.191 4.8 280.863 4.416C280.543 4.032 280.107 3.84 279.555 3.84C279.011 3.84 278.575 4.032 278.247 4.416C277.919 4.8 277.755 5.356 277.755 6.084C277.755 6.804 277.919 7.36 278.247 7.752C278.575 8.136 279.011 8.328 279.555 8.328ZM284.079 6.204V5.4H287.439V6.204H284.079ZM293.209 9.108C292.305 9.108 291.541 8.936 290.917 8.592C290.301 8.248 289.833 7.752 289.513 7.104C289.193 6.456 289.033 5.68 289.033 4.776C289.033 3.88 289.193 3.108 289.513 2.46C289.833 1.812 290.293 1.312 290.893 0.96C291.493 0.608 292.217 0.431999 293.065 0.431999C293.465 0.431999 293.841 0.471999 294.193 0.551999C294.553 0.632 294.885 0.752 295.189 0.912C295.501 1.064 295.773 1.256 296.005 1.488L295.621 2.28C295.237 1.944 294.841 1.7 294.433 1.548C294.025 1.396 293.565 1.32 293.053 1.32C292.085 1.32 291.345 1.62 290.833 2.22C290.329 2.82 290.077 3.672 290.077 4.776C290.077 5.896 290.337 6.752 290.857 7.344C291.385 7.936 292.177 8.232 293.233 8.232C293.617 8.232 293.993 8.196 294.361 8.124C294.729 8.044 295.077 7.936 295.405 7.8L295.189 8.364V5.376H293.041V4.596H296.041V8.508C295.825 8.62 295.557 8.724 295.237 8.82C294.917 8.908 294.581 8.976 294.229 9.024C293.877 9.08 293.537 9.108 293.209 9.108ZM297.92 9V3.168H298.868V4.548H298.748C298.884 4.076 299.12 3.72 299.456 3.48C299.792 3.232 300.236 3.088 300.788 3.048L301.136 3.012L301.208 3.852L300.596 3.924C300.052 3.972 299.632 4.148 299.336 4.452C299.048 4.748 298.904 5.156 298.904 5.676V9H297.92ZM303.998 9.108C303.598 9.108 303.238 9.032 302.918 8.88C302.606 8.72 302.358 8.504 302.174 8.232C301.99 7.96 301.898 7.656 301.898 7.32C301.898 6.888 302.006 6.548 302.222 6.3C302.446 6.052 302.81 5.876 303.314 5.772C303.826 5.668 304.522 5.616 305.402 5.616H305.942V6.252H305.414C304.926 6.252 304.518 6.268 304.19 6.3C303.862 6.332 303.602 6.388 303.41 6.468C303.218 6.548 303.082 6.652 303.002 6.78C302.922 6.908 302.882 7.068 302.882 7.26C302.882 7.588 302.994 7.856 303.218 8.064C303.45 8.272 303.762 8.376 304.154 8.376C304.474 8.376 304.754 8.3 304.994 8.148C305.242 7.996 305.434 7.788 305.57 7.524C305.714 7.26 305.786 6.956 305.786 6.612V5.244C305.786 4.748 305.686 4.392 305.486 4.176C305.286 3.952 304.958 3.84 304.502 3.84C304.15 3.84 303.81 3.892 303.482 3.996C303.154 4.092 302.818 4.252 302.474 4.476L302.138 3.768C302.346 3.624 302.582 3.5 302.846 3.396C303.11 3.284 303.386 3.2 303.674 3.144C303.962 3.088 304.238 3.06 304.502 3.06C305.006 3.06 305.422 3.144 305.75 3.312C306.078 3.472 306.322 3.72 306.482 4.056C306.642 4.384 306.722 4.808 306.722 5.328V9H305.81V7.644H305.918C305.854 7.948 305.73 8.208 305.546 8.424C305.37 8.64 305.15 8.808 304.886 8.928C304.622 9.048 304.326 9.108 303.998 9.108ZM310.745 9.108C310.225 9.108 309.769 8.984 309.377 8.736C308.993 8.488 308.693 8.14 308.477 7.692C308.269 7.236 308.165 6.7 308.165 6.084C308.165 5.46 308.269 4.924 308.477 4.476C308.693 4.02 308.993 3.672 309.377 3.432C309.769 3.184 310.225 3.06 310.745 3.06C311.273 3.06 311.725 3.192 312.101 3.456C312.477 3.72 312.729 4.076 312.857 4.524H312.725V0.539999H313.697V9H312.749V7.608H312.869C312.741 8.064 312.485 8.428 312.101 8.7C311.725 8.972 311.273 9.108 310.745 9.108ZM310.949 8.328C311.501 8.328 311.937 8.136 312.257 7.752C312.585 7.36 312.749 6.804 312.749 6.084C312.749 5.356 312.585 4.8 312.257 4.416C311.937 4.032 311.501 3.84 310.949 3.84C310.405 3.84 309.969 4.032 309.641 4.416C309.313 4.8 309.149 5.356 309.149 6.084C309.149 6.804 309.313 7.36 309.641 7.752C309.969 8.136 310.405 8.328 310.949 8.328ZM318.149 9.108C317.533 9.108 317.001 8.988 316.553 8.748C316.113 8.5 315.769 8.152 315.521 7.704C315.281 7.256 315.161 6.72 315.161 6.096C315.161 5.488 315.281 4.96 315.521 4.512C315.761 4.056 316.089 3.7 316.505 3.444C316.929 3.188 317.417 3.06 317.969 3.06C318.497 3.06 318.949 3.176 319.325 3.408C319.701 3.64 319.989 3.968 320.189 4.392C320.397 4.816 320.501 5.324 320.501 5.916V6.288H315.905V5.652H319.853L319.661 5.808C319.661 5.168 319.517 4.672 319.229 4.32C318.949 3.96 318.537 3.78 317.993 3.78C317.585 3.78 317.237 3.876 316.949 4.068C316.669 4.252 316.457 4.512 316.313 4.848C316.169 5.176 316.097 5.56 316.097 6V6.072C316.097 6.56 316.173 6.972 316.325 7.308C316.485 7.644 316.721 7.9 317.033 8.076C317.345 8.244 317.717 8.328 318.149 8.328C318.493 8.328 318.825 8.276 319.145 8.172C319.473 8.06 319.781 7.88 320.069 7.632L320.405 8.316C320.141 8.556 319.805 8.748 319.397 8.892C318.989 9.036 318.573 9.108 318.149 9.108ZM0.0440001 25V16.54H3.392C4 16.54 4.512 16.64 4.928 16.84C5.352 17.032 5.672 17.32 5.888 17.704C6.104 18.08 6.212 18.54 6.212 19.084C6.212 19.612 6.104 20.068 5.888 20.452C5.672 20.836 5.352 21.128 4.928 21.328C4.512 21.528 4 21.628 3.392 21.628H1.028V25H0.0440001ZM1.028 20.8H3.272C3.92 20.8 4.408 20.656 4.736 20.368C5.072 20.072 5.24 19.644 5.24 19.084C5.24 18.516 5.072 18.088 4.736 17.8C4.408 17.504 3.92 17.356 3.272 17.356H1.028V20.8ZM9.29375 25.108C8.70175 25.108 8.25375 24.932 7.94975 24.58C7.65375 24.228 7.50575 23.724 7.50575 23.068V16.54H8.47775V22.996C8.47775 23.276 8.51375 23.512 8.58575 23.704C8.66575 23.896 8.78175 24.04 8.93375 24.136C9.08575 24.232 9.27375 24.28 9.49775 24.28C9.59375 24.28 9.68575 24.276 9.77375 24.268C9.86975 24.252 9.95775 24.232 10.0378 24.208L10.0138 25.024C9.88575 25.048 9.76175 25.068 9.64175 25.084C9.52975 25.1 9.41375 25.108 9.29375 25.108ZM12.8925 25.108C12.4925 25.108 12.1325 25.032 11.8125 24.88C11.5005 24.72 11.2525 24.504 11.0685 24.232C10.8845 23.96 10.7925 23.656 10.7925 23.32C10.7925 22.888 10.9005 22.548 11.1165 22.3C11.3405 22.052 11.7045 21.876 12.2085 21.772C12.7205 21.668 13.4165 21.616 14.2965 21.616H14.8365V22.252H14.3085C13.8205 22.252 13.4125 22.268 13.0845 22.3C12.7565 22.332 12.4965 22.388 12.3045 22.468C12.1125 22.548 11.9765 22.652 11.8965 22.78C11.8165 22.908 11.7765 23.068 11.7765 23.26C11.7765 23.588 11.8885 23.856 12.1125 24.064C12.3445 24.272 12.6565 24.376 13.0485 24.376C13.3685 24.376 13.6485 24.3 13.8885 24.148C14.1365 23.996 14.3285 23.788 14.4645 23.524C14.6085 23.26 14.6805 22.956 14.6805 22.612V21.244C14.6805 20.748 14.5805 20.392 14.3805 20.176C14.1805 19.952 13.8525 19.84 13.3965 19.84C13.0445 19.84 12.7045 19.892 12.3765 19.996C12.0485 20.092 11.7125 20.252 11.3685 20.476L11.0325 19.768C11.2405 19.624 11.4765 19.5 11.7405 19.396C12.0045 19.284 12.2805 19.2 12.5685 19.144C12.8565 19.088 13.1325 19.06 13.3965 19.06C13.9005 19.06 14.3165 19.144 14.6445 19.312C14.9725 19.472 15.2165 19.72 15.3765 20.056C15.5365 20.384 15.6165 20.808 15.6165 21.328V25H14.7045V23.644H14.8125C14.7485 23.948 14.6245 24.208 14.4405 24.424C14.2645 24.64 14.0445 24.808 13.7805 24.928C13.5165 25.048 13.2205 25.108 12.8925 25.108ZM19.3878 25.108C19.0838 25.108 18.7878 25.076 18.4998 25.012C18.2198 24.956 17.9558 24.876 17.7078 24.772C17.4678 24.66 17.2598 24.528 17.0838 24.376L17.3958 23.692C17.5878 23.844 17.7958 23.972 18.0198 24.076C18.2438 24.172 18.4718 24.244 18.7038 24.292C18.9358 24.34 19.1718 24.364 19.4118 24.364C19.8678 24.364 20.2118 24.28 20.4438 24.112C20.6758 23.944 20.7918 23.716 20.7918 23.428C20.7918 23.204 20.7158 23.028 20.5638 22.9C20.4118 22.764 20.1718 22.66 19.8438 22.588L18.7518 22.348C18.2478 22.244 17.8718 22.064 17.6238 21.808C17.3838 21.552 17.2638 21.22 17.2638 20.812C17.2638 20.452 17.3558 20.144 17.5398 19.888C17.7318 19.624 17.9998 19.42 18.3438 19.276C18.6878 19.132 19.0878 19.06 19.5438 19.06C19.8158 19.06 20.0758 19.088 20.3238 19.144C20.5718 19.2 20.8038 19.284 21.0198 19.396C21.2438 19.5 21.4358 19.632 21.5958 19.792L21.2718 20.476C21.1198 20.332 20.9478 20.212 20.7558 20.116C20.5638 20.012 20.3638 19.936 20.1558 19.888C19.9558 19.832 19.7518 19.804 19.5438 19.804C19.0958 19.804 18.7558 19.892 18.5238 20.068C18.2918 20.244 18.1758 20.476 18.1758 20.764C18.1758 20.988 18.2478 21.172 18.3918 21.316C18.5358 21.46 18.7598 21.564 19.0638 21.628L20.1558 21.856C20.6758 21.968 21.0638 22.148 21.3198 22.396C21.5838 22.636 21.7158 22.964 21.7158 23.38C21.7158 23.732 21.6198 24.04 21.4278 24.304C21.2358 24.56 20.9638 24.76 20.6118 24.904C20.2678 25.04 19.8598 25.108 19.3878 25.108ZM25.4786 25.108C24.7906 25.108 24.2746 24.924 23.9306 24.556C23.5866 24.188 23.4146 23.664 23.4146 22.984V19.924H22.2746V19.168H23.4146V17.38H24.3866V19.168H26.2346V19.924H24.3866V22.888C24.3866 23.344 24.4826 23.692 24.6746 23.932C24.8666 24.164 25.1786 24.28 25.6106 24.28C25.7386 24.28 25.8666 24.264 25.9946 24.232C26.1226 24.2 26.2386 24.168 26.3426 24.136L26.5106 24.88C26.4066 24.936 26.2546 24.988 26.0546 25.036C25.8546 25.084 25.6626 25.108 25.4786 25.108ZM27.2139 17.716V16.624H28.4139V17.716H27.2139ZM27.3339 25V19.168H28.3059V25H27.3339ZM32.5949 25.108C32.0109 25.108 31.5069 24.98 31.0829 24.724C30.6589 24.468 30.3309 24.112 30.0989 23.656C29.8749 23.192 29.7629 22.656 29.7629 22.048C29.7629 21.432 29.8749 20.9 30.0989 20.452C30.3309 20.004 30.6589 19.66 31.0829 19.42C31.5069 19.18 32.0109 19.06 32.5949 19.06C32.9549 19.06 33.3109 19.124 33.6629 19.252C34.0149 19.38 34.3069 19.56 34.5389 19.792L34.2029 20.5C33.9709 20.276 33.7149 20.112 33.4349 20.008C33.1629 19.904 32.9029 19.852 32.6549 19.852C32.0469 19.852 31.5789 20.044 31.2509 20.428C30.9229 20.804 30.7589 21.348 30.7589 22.06C30.7589 22.756 30.9229 23.308 31.2509 23.716C31.5789 24.116 32.0469 24.316 32.6549 24.316C32.9029 24.316 33.1629 24.264 33.4349 24.16C33.7149 24.056 33.9709 23.888 34.2029 23.656L34.5389 24.364C34.3069 24.596 34.0109 24.78 33.6509 24.916C33.2989 25.044 32.9469 25.108 32.5949 25.108ZM34.6484 22.12V21.484H46.6484V22.12H34.6484ZM47.6924 25V16.54H48.6764V25H47.6924ZM52.8508 25.108C52.3308 25.108 51.8748 24.984 51.4827 24.736C51.0988 24.488 50.7988 24.14 50.5828 23.692C50.3748 23.236 50.2708 22.7 50.2708 22.084C50.2708 21.46 50.3748 20.924 50.5828 20.476C50.7988 20.02 51.0988 19.672 51.4827 19.432C51.8748 19.184 52.3308 19.06 52.8508 19.06C53.3788 19.06 53.8308 19.192 54.2068 19.456C54.5828 19.72 54.8348 20.076 54.9628 20.524H54.8308V16.54H55.8028V25H54.8548V23.608H54.9748C54.8468 24.064 54.5908 24.428 54.2068 24.7C53.8308 24.972 53.3788 25.108 52.8508 25.108ZM53.0548 24.328C53.6068 24.328 54.0428 24.136 54.3628 23.752C54.6908 23.36 54.8548 22.804 54.8548 22.084C54.8548 21.356 54.6908 20.8 54.3628 20.416C54.0428 20.032 53.6068 19.84 53.0548 19.84C52.5108 19.84 52.0748 20.032 51.7468 20.416C51.4188 20.8 51.2548 21.356 51.2548 22.084C51.2548 22.804 51.4188 23.36 51.7468 23.752C52.0748 24.136 52.5108 24.328 53.0548 24.328ZM60.2548 25.108C59.6388 25.108 59.1068 24.988 58.6588 24.748C58.2188 24.5 57.8748 24.152 57.6268 23.704C57.3868 23.256 57.2668 22.72 57.2668 22.096C57.2668 21.488 57.3868 20.96 57.6268 20.512C57.8668 20.056 58.1948 19.7 58.6108 19.444C59.0348 19.188 59.5228 19.06 60.0748 19.06C60.6028 19.06 61.0548 19.176 61.4308 19.408C61.8068 19.64 62.0948 19.968 62.2948 20.392C62.5028 20.816 62.6068 21.324 62.6068 21.916V22.288H58.0108V21.652H61.9588L61.7668 21.808C61.7668 21.168 61.6228 20.672 61.3348 20.32C61.0548 19.96 60.6428 19.78 60.0988 19.78C59.6908 19.78 59.3428 19.876 59.0548 20.068C58.7748 20.252 58.5628 20.512 58.4188 20.848C58.2748 21.176 58.2028 21.56 58.2028 22V22.072C58.2028 22.56 58.2788 22.972 58.4308 23.308C58.5908 23.644 58.8268 23.9 59.1388 24.076C59.4508 24.244 59.8228 24.328 60.2548 24.328C60.5988 24.328 60.9308 24.276 61.2508 24.172C61.5788 24.06 61.8868 23.88 62.1748 23.632L62.5108 24.316C62.2468 24.556 61.9108 24.748 61.5028 24.892C61.0948 25.036 60.6788 25.108 60.2548 25.108ZM65.8496 25.108C65.4496 25.108 65.0896 25.032 64.7696 24.88C64.4576 24.72 64.2096 24.504 64.0256 24.232C63.8416 23.96 63.7496 23.656 63.7496 23.32C63.7496 22.888 63.8576 22.548 64.0736 22.3C64.2976 22.052 64.6616 21.876 65.1656 21.772C65.6776 21.668 66.3736 21.616 67.2536 21.616H67.7936V22.252H67.2656C66.7776 22.252 66.3696 22.268 66.0416 22.3C65.7136 22.332 65.4536 22.388 65.2616 22.468C65.0696 22.548 64.9336 22.652 64.8536 22.78C64.7736 22.908 64.7336 23.068 64.7336 23.26C64.7336 23.588 64.8456 23.856 65.0696 24.064C65.3016 24.272 65.6136 24.376 66.0056 24.376C66.3256 24.376 66.6056 24.3 66.8456 24.148C67.0936 23.996 67.2856 23.788 67.4216 23.524C67.5656 23.26 67.6376 22.956 67.6376 22.612V21.244C67.6376 20.748 67.5376 20.392 67.3376 20.176C67.1376 19.952 66.8096 19.84 66.3536 19.84C66.0016 19.84 65.6616 19.892 65.3336 19.996C65.0056 20.092 64.6696 20.252 64.3256 20.476L63.9896 19.768C64.1976 19.624 64.4336 19.5 64.6976 19.396C64.9616 19.284 65.2376 19.2 65.5256 19.144C65.8136 19.088 66.0896 19.06 66.3536 19.06C66.8576 19.06 67.2736 19.144 67.6016 19.312C67.9296 19.472 68.1736 19.72 68.3336 20.056C68.4936 20.384 68.5736 20.808 68.5736 21.328V25H67.6616V23.644H67.7696C67.7056 23.948 67.5816 24.208 67.3976 24.424C67.2216 24.64 67.0016 24.808 66.7376 24.928C66.4736 25.048 66.1776 25.108 65.8496 25.108ZM72.1648 25.108C71.5728 25.108 71.1248 24.932 70.8208 24.58C70.5248 24.228 70.3768 23.724 70.3768 23.068V16.54H71.3488V22.996C71.3488 23.276 71.3848 23.512 71.4568 23.704C71.5368 23.896 71.6528 24.04 71.8048 24.136C71.9568 24.232 72.1448 24.28 72.3688 24.28C72.4648 24.28 72.5568 24.276 72.6448 24.268C72.7408 24.252 72.8288 24.232 72.9088 24.208L72.8848 25.024C72.7568 25.048 72.6328 25.068 72.5128 25.084C72.4008 25.1 72.2848 25.108 72.1648 25.108ZM77.1417 25V16.54H82.3737V17.368H78.1257V20.32H82.1337V21.148H78.1257V25H77.1417ZM85.7852 25.108C85.2172 25.108 84.7252 24.984 84.3092 24.736C83.8932 24.488 83.5692 24.14 83.3372 23.692C83.1132 23.236 83.0012 22.7 83.0012 22.084C83.0012 21.468 83.1132 20.936 83.3372 20.488C83.5692 20.032 83.8932 19.68 84.3092 19.432C84.7252 19.184 85.2172 19.06 85.7852 19.06C86.3532 19.06 86.8452 19.184 87.2612 19.432C87.6772 19.68 87.9972 20.032 88.2212 20.488C88.4532 20.936 88.5692 21.468 88.5692 22.084C88.5692 22.7 88.4532 23.236 88.2212 23.692C87.9972 24.14 87.6772 24.488 87.2612 24.736C86.8452 24.984 86.3532 25.108 85.7852 25.108ZM85.7852 24.328C86.3372 24.328 86.7732 24.136 87.0932 23.752C87.4212 23.36 87.5852 22.8 87.5852 22.072C87.5852 21.352 87.4212 20.8 87.0932 20.416C86.7732 20.032 86.3372 19.84 85.7852 19.84C85.2412 19.84 84.8052 20.032 84.4772 20.416C84.1492 20.8 83.9852 21.352 83.9852 22.072C83.9852 22.8 84.1492 23.36 84.4772 23.752C84.8052 24.136 85.2412 24.328 85.7852 24.328ZM90.0292 25V19.168H90.9772V20.548H90.8572C90.9932 20.076 91.2292 19.72 91.5652 19.48C91.9012 19.232 92.3452 19.088 92.8972 19.048L93.2452 19.012L93.3172 19.852L92.7052 19.924C92.1612 19.972 91.7412 20.148 91.4452 20.452C91.1572 20.748 91.0132 21.156 91.0132 21.676V25H90.0292ZM100.28 25.108C99.84 25.108 99.424 25.068 99.032 24.988C98.648 24.908 98.292 24.796 97.964 24.652C97.644 24.5 97.352 24.316 97.088 24.1L97.436 23.308C97.708 23.508 97.984 23.68 98.264 23.824C98.552 23.96 98.86 24.064 99.188 24.136C99.524 24.2 99.888 24.232 100.28 24.232C101 24.232 101.532 24.1 101.876 23.836C102.228 23.564 102.404 23.208 102.404 22.768C102.404 22.536 102.348 22.336 102.236 22.168C102.132 22 101.956 21.856 101.708 21.736C101.468 21.616 101.152 21.516 100.76 21.436L99.512 21.184C98.76 21.024 98.196 20.764 97.82 20.404C97.452 20.036 97.268 19.548 97.268 18.94C97.268 18.436 97.396 17.996 97.652 17.62C97.916 17.244 98.28 16.952 98.744 16.744C99.216 16.536 99.752 16.432 100.352 16.432C100.736 16.432 101.1 16.472 101.444 16.552C101.788 16.632 102.104 16.752 102.392 16.912C102.688 17.064 102.948 17.252 103.172 17.476L102.824 18.244C102.464 17.916 102.084 17.68 101.684 17.536C101.284 17.384 100.836 17.308 100.34 17.308C99.916 17.308 99.548 17.372 99.236 17.5C98.932 17.628 98.692 17.816 98.516 18.064C98.348 18.304 98.264 18.584 98.264 18.904C98.264 19.288 98.38 19.592 98.612 19.816C98.852 20.04 99.24 20.204 99.776 20.308L101.024 20.572C101.832 20.74 102.428 20.996 102.812 21.34C103.204 21.676 103.4 22.136 103.4 22.72C103.4 23.184 103.272 23.6 103.016 23.968C102.768 24.328 102.408 24.608 101.936 24.808C101.472 25.008 100.92 25.108 100.28 25.108ZM104.795 25V19.168H105.743V20.464H105.611C105.779 20 106.051 19.652 106.427 19.42C106.811 19.18 107.251 19.06 107.747 19.06C108.211 19.06 108.595 19.144 108.899 19.312C109.211 19.472 109.443 19.724 109.595 20.068C109.747 20.412 109.823 20.844 109.823 21.364V25H108.851V21.424C108.851 21.064 108.803 20.768 108.707 20.536C108.619 20.304 108.475 20.132 108.275 20.02C108.083 19.908 107.831 19.852 107.519 19.852C107.167 19.852 106.859 19.928 106.595 20.08C106.331 20.232 106.127 20.444 105.983 20.716C105.839 20.988 105.767 21.308 105.767 21.676V25H104.795ZM113.451 25.108C113.051 25.108 112.691 25.032 112.371 24.88C112.059 24.72 111.811 24.504 111.627 24.232C111.443 23.96 111.351 23.656 111.351 23.32C111.351 22.888 111.459 22.548 111.675 22.3C111.899 22.052 112.263 21.876 112.767 21.772C113.279 21.668 113.975 21.616 114.855 21.616H115.395V22.252H114.867C114.379 22.252 113.971 22.268 113.643 22.3C113.315 22.332 113.055 22.388 112.863 22.468C112.671 22.548 112.535 22.652 112.455 22.78C112.375 22.908 112.335 23.068 112.335 23.26C112.335 23.588 112.447 23.856 112.671 24.064C112.903 24.272 113.215 24.376 113.607 24.376C113.927 24.376 114.207 24.3 114.447 24.148C114.695 23.996 114.887 23.788 115.023 23.524C115.167 23.26 115.239 22.956 115.239 22.612V21.244C115.239 20.748 115.139 20.392 114.939 20.176C114.739 19.952 114.411 19.84 113.955 19.84C113.603 19.84 113.263 19.892 112.935 19.996C112.607 20.092 112.271 20.252 111.927 20.476L111.591 19.768C111.799 19.624 112.035 19.5 112.299 19.396C112.563 19.284 112.839 19.2 113.127 19.144C113.415 19.088 113.691 19.06 113.955 19.06C114.459 19.06 114.875 19.144 115.203 19.312C115.531 19.472 115.775 19.72 115.935 20.056C116.095 20.384 116.175 20.808 116.175 21.328V25H115.263V23.644H115.371C115.307 23.948 115.183 24.208 114.999 24.424C114.823 24.64 114.603 24.808 114.339 24.928C114.075 25.048 113.779 25.108 113.451 25.108ZM120.45 25.108C119.866 25.108 119.362 24.98 118.938 24.724C118.514 24.468 118.186 24.112 117.954 23.656C117.73 23.192 117.618 22.656 117.618 22.048C117.618 21.432 117.73 20.9 117.954 20.452C118.186 20.004 118.514 19.66 118.938 19.42C119.362 19.18 119.866 19.06 120.45 19.06C120.81 19.06 121.166 19.124 121.518 19.252C121.87 19.38 122.162 19.56 122.394 19.792L122.058 20.5C121.826 20.276 121.57 20.112 121.29 20.008C121.018 19.904 120.758 19.852 120.51 19.852C119.902 19.852 119.434 20.044 119.106 20.428C118.778 20.804 118.614 21.348 118.614 22.06C118.614 22.756 118.778 23.308 119.106 23.716C119.434 24.116 119.902 24.316 120.51 24.316C120.758 24.316 121.018 24.264 121.29 24.16C121.57 24.056 121.826 23.888 122.058 23.656L122.394 24.364C122.162 24.596 121.866 24.78 121.506 24.916C121.154 25.044 120.802 25.108 120.45 25.108ZM123.533 25V16.54H124.505V21.76H124.529L127.229 19.168H128.465L125.261 22.24V21.712L128.717 25H127.481L124.529 22.264H124.505V25H123.533ZM131.396 25.108C131.092 25.108 130.796 25.076 130.508 25.012C130.228 24.956 129.964 24.876 129.716 24.772C129.476 24.66 129.268 24.528 129.092 24.376L129.404 23.692C129.596 23.844 129.804 23.972 130.028 24.076C130.252 24.172 130.48 24.244 130.712 24.292C130.944 24.34 131.18 24.364 131.42 24.364C131.876 24.364 132.22 24.28 132.452 24.112C132.684 23.944 132.8 23.716 132.8 23.428C132.8 23.204 132.724 23.028 132.572 22.9C132.42 22.764 132.18 22.66 131.852 22.588L130.76 22.348C130.256 22.244 129.88 22.064 129.632 21.808C129.392 21.552 129.272 21.22 129.272 20.812C129.272 20.452 129.364 20.144 129.548 19.888C129.74 19.624 130.008 19.42 130.352 19.276C130.696 19.132 131.096 19.06 131.552 19.06C131.824 19.06 132.084 19.088 132.332 19.144C132.58 19.2 132.812 19.284 133.028 19.396C133.252 19.5 133.444 19.632 133.604 19.792L133.28 20.476C133.128 20.332 132.956 20.212 132.764 20.116C132.572 20.012 132.372 19.936 132.164 19.888C131.964 19.832 131.76 19.804 131.552 19.804C131.104 19.804 130.764 19.892 130.532 20.068C130.3 20.244 130.184 20.476 130.184 20.764C130.184 20.988 130.256 21.172 130.4 21.316C130.544 21.46 130.768 21.564 131.072 21.628L132.164 21.856C132.684 21.968 133.072 22.148 133.328 22.396C133.592 22.636 133.724 22.964 133.724 23.38C133.724 23.732 133.628 24.04 133.436 24.304C133.244 24.56 132.972 24.76 132.62 24.904C132.276 25.04 131.868 25.108 131.396 25.108ZM135.494 26.368L135.038 26.02C135.182 25.868 135.29 25.724 135.362 25.588C135.442 25.46 135.494 25.328 135.518 25.192C135.55 25.064 135.566 24.932 135.566 24.796L135.782 25H134.99V23.776H136.214V24.64C136.214 24.856 136.19 25.06 136.142 25.252C136.102 25.452 136.03 25.644 135.926 25.828C135.822 26.012 135.678 26.192 135.494 26.368ZM141.091 25V16.54H143.947C144.867 16.54 145.643 16.704 146.275 17.032C146.915 17.352 147.399 17.828 147.727 18.46C148.063 19.084 148.231 19.852 148.231 20.764C148.231 21.676 148.063 22.448 147.727 23.08C147.399 23.712 146.915 24.192 146.275 24.52C145.643 24.84 144.867 25 143.947 25H141.091ZM142.075 24.16H143.875C144.987 24.16 145.815 23.876 146.359 23.308C146.911 22.74 147.187 21.892 147.187 20.764C147.187 19.636 146.911 18.792 146.359 18.232C145.807 17.664 144.979 17.38 143.875 17.38H142.075V24.16ZM152.493 25.108C151.877 25.108 151.345 24.988 150.897 24.748C150.457 24.5 150.113 24.152 149.865 23.704C149.625 23.256 149.505 22.72 149.505 22.096C149.505 21.488 149.625 20.96 149.865 20.512C150.105 20.056 150.433 19.7 150.849 19.444C151.273 19.188 151.761 19.06 152.313 19.06C152.841 19.06 153.293 19.176 153.669 19.408C154.045 19.64 154.333 19.968 154.533 20.392C154.741 20.816 154.845 21.324 154.845 21.916V22.288H150.249V21.652H154.197L154.005 21.808C154.005 21.168 153.861 20.672 153.573 20.32C153.293 19.96 152.881 19.78 152.337 19.78C151.929 19.78 151.581 19.876 151.293 20.068C151.013 20.252 150.801 20.512 150.657 20.848C150.513 21.176 150.441 21.56 150.441 22V22.072C150.441 22.56 150.517 22.972 150.669 23.308C150.829 23.644 151.065 23.9 151.377 24.076C151.689 24.244 152.061 24.328 152.493 24.328C152.837 24.328 153.169 24.276 153.489 24.172C153.817 24.06 154.125 23.88 154.413 23.632L154.749 24.316C154.485 24.556 154.149 24.748 153.741 24.892C153.333 25.036 152.917 25.108 152.493 25.108ZM158.22 25.108C157.916 25.108 157.62 25.076 157.332 25.012C157.052 24.956 156.788 24.876 156.54 24.772C156.3 24.66 156.092 24.528 155.916 24.376L156.228 23.692C156.42 23.844 156.628 23.972 156.852 24.076C157.076 24.172 157.304 24.244 157.536 24.292C157.768 24.34 158.004 24.364 158.244 24.364C158.7 24.364 159.044 24.28 159.276 24.112C159.508 23.944 159.624 23.716 159.624 23.428C159.624 23.204 159.548 23.028 159.396 22.9C159.244 22.764 159.004 22.66 158.676 22.588L157.584 22.348C157.08 22.244 156.704 22.064 156.456 21.808C156.216 21.552 156.096 21.22 156.096 20.812C156.096 20.452 156.188 20.144 156.372 19.888C156.564 19.624 156.832 19.42 157.176 19.276C157.52 19.132 157.92 19.06 158.376 19.06C158.648 19.06 158.908 19.088 159.156 19.144C159.404 19.2 159.636 19.284 159.852 19.396C160.076 19.5 160.268 19.632 160.428 19.792L160.104 20.476C159.952 20.332 159.78 20.212 159.588 20.116C159.396 20.012 159.196 19.936 158.988 19.888C158.788 19.832 158.584 19.804 158.376 19.804C157.928 19.804 157.588 19.892 157.356 20.068C157.124 20.244 157.008 20.476 157.008 20.764C157.008 20.988 157.08 21.172 157.224 21.316C157.368 21.46 157.592 21.564 157.896 21.628L158.988 21.856C159.508 21.968 159.896 22.148 160.152 22.396C160.416 22.636 160.548 22.964 160.548 23.38C160.548 23.732 160.452 24.04 160.26 24.304C160.068 24.56 159.796 24.76 159.444 24.904C159.1 25.04 158.692 25.108 158.22 25.108ZM163.997 25.108C163.693 25.108 163.397 25.076 163.109 25.012C162.829 24.956 162.565 24.876 162.317 24.772C162.077 24.66 161.869 24.528 161.693 24.376L162.005 23.692C162.197 23.844 162.405 23.972 162.629 24.076C162.853 24.172 163.081 24.244 163.313 24.292C163.545 24.34 163.781 24.364 164.021 24.364C164.477 24.364 164.821 24.28 165.053 24.112C165.285 23.944 165.401 23.716 165.401 23.428C165.401 23.204 165.325 23.028 165.173 22.9C165.021 22.764 164.781 22.66 164.453 22.588L163.361 22.348C162.857 22.244 162.481 22.064 162.233 21.808C161.993 21.552 161.873 21.22 161.873 20.812C161.873 20.452 161.965 20.144 162.149 19.888C162.341 19.624 162.609 19.42 162.953 19.276C163.297 19.132 163.697 19.06 164.153 19.06C164.425 19.06 164.685 19.088 164.933 19.144C165.181 19.2 165.413 19.284 165.629 19.396C165.853 19.5 166.045 19.632 166.205 19.792L165.881 20.476C165.729 20.332 165.557 20.212 165.365 20.116C165.173 20.012 164.973 19.936 164.765 19.888C164.565 19.832 164.361 19.804 164.153 19.804C163.705 19.804 163.365 19.892 163.133 20.068C162.901 20.244 162.785 20.476 162.785 20.764C162.785 20.988 162.857 21.172 163.001 21.316C163.145 21.46 163.369 21.564 163.673 21.628L164.765 21.856C165.285 21.968 165.673 22.148 165.929 22.396C166.193 22.636 166.325 22.964 166.325 23.38C166.325 23.732 166.229 24.04 166.037 24.304C165.845 24.56 165.573 24.76 165.221 24.904C164.877 25.04 164.469 25.108 163.997 25.108ZM170.435 25.108C169.819 25.108 169.287 24.988 168.839 24.748C168.399 24.5 168.055 24.152 167.807 23.704C167.567 23.256 167.447 22.72 167.447 22.096C167.447 21.488 167.567 20.96 167.807 20.512C168.047 20.056 168.375 19.7 168.791 19.444C169.215 19.188 169.703 19.06 170.255 19.06C170.783 19.06 171.235 19.176 171.611 19.408C171.987 19.64 172.275 19.968 172.475 20.392C172.683 20.816 172.787 21.324 172.787 21.916V22.288H168.191V21.652H172.139L171.947 21.808C171.947 21.168 171.803 20.672 171.515 20.32C171.235 19.96 170.823 19.78 170.279 19.78C169.871 19.78 169.523 19.876 169.235 20.068C168.955 20.252 168.743 20.512 168.599 20.848C168.455 21.176 168.383 21.56 168.383 22V22.072C168.383 22.56 168.459 22.972 168.611 23.308C168.771 23.644 169.007 23.9 169.319 24.076C169.631 24.244 170.003 24.328 170.435 24.328C170.779 24.328 171.111 24.276 171.431 24.172C171.759 24.06 172.067 23.88 172.355 23.632L172.691 24.316C172.427 24.556 172.091 24.748 171.683 24.892C171.275 25.036 170.859 25.108 170.435 25.108ZM174.193 25V19.168H175.141V20.548H175.021C175.157 20.076 175.393 19.72 175.729 19.48C176.065 19.232 176.509 19.088 177.061 19.048L177.409 19.012L177.481 19.852L176.869 19.924C176.325 19.972 175.905 20.148 175.609 20.452C175.321 20.748 175.177 21.156 175.177 21.676V25H174.193ZM181.15 25.108C180.462 25.108 179.946 24.924 179.602 24.556C179.258 24.188 179.086 23.664 179.086 22.984V19.924H177.946V19.168H179.086V17.38H180.058V19.168H181.906V19.924H180.058V22.888C180.058 23.344 180.154 23.692 180.346 23.932C180.538 24.164 180.85 24.28 181.282 24.28C181.41 24.28 181.538 24.264 181.666 24.232C181.794 24.2 181.91 24.168 182.014 24.136L182.182 24.88C182.078 24.936 181.926 24.988 181.726 25.036C181.526 25.084 181.334 25.108 181.15 25.108ZM184.974 25.108C184.67 25.108 184.374 25.076 184.086 25.012C183.806 24.956 183.542 24.876 183.294 24.772C183.054 24.66 182.846 24.528 182.67 24.376L182.982 23.692C183.174 23.844 183.382 23.972 183.606 24.076C183.83 24.172 184.058 24.244 184.29 24.292C184.522 24.34 184.758 24.364 184.998 24.364C185.454 24.364 185.798 24.28 186.03 24.112C186.262 23.944 186.378 23.716 186.378 23.428C186.378 23.204 186.302 23.028 186.15 22.9C185.998 22.764 185.758 22.66 185.43 22.588L184.338 22.348C183.834 22.244 183.458 22.064 183.21 21.808C182.97 21.552 182.85 21.22 182.85 20.812C182.85 20.452 182.942 20.144 183.126 19.888C183.318 19.624 183.586 19.42 183.93 19.276C184.274 19.132 184.674 19.06 185.13 19.06C185.402 19.06 185.662 19.088 185.91 19.144C186.158 19.2 186.39 19.284 186.606 19.396C186.83 19.5 187.022 19.632 187.182 19.792L186.858 20.476C186.706 20.332 186.534 20.212 186.342 20.116C186.15 20.012 185.95 19.936 185.742 19.888C185.542 19.832 185.338 19.804 185.13 19.804C184.682 19.804 184.342 19.892 184.11 20.068C183.878 20.244 183.762 20.476 183.762 20.764C183.762 20.988 183.834 21.172 183.978 21.316C184.122 21.46 184.346 21.564 184.65 21.628L185.742 21.856C186.262 21.968 186.65 22.148 186.906 22.396C187.17 22.636 187.302 22.964 187.302 23.38C187.302 23.732 187.206 24.04 187.014 24.304C186.822 24.56 186.55 24.76 186.198 24.904C185.854 25.04 185.446 25.108 184.974 25.108ZM189.073 26.368L188.617 26.02C188.761 25.868 188.869 25.724 188.941 25.588C189.021 25.46 189.073 25.328 189.097 25.192C189.129 25.064 189.145 24.932 189.145 24.796L189.361 25H188.569V23.776H189.793V24.64C189.793 24.856 189.769 25.06 189.721 25.252C189.681 25.452 189.609 25.644 189.505 25.828C189.401 26.012 189.257 26.192 189.073 26.368ZM197.405 25.108C196.965 25.108 196.549 25.068 196.157 24.988C195.773 24.908 195.417 24.796 195.089 24.652C194.769 24.5 194.477 24.316 194.213 24.1L194.561 23.308C194.833 23.508 195.109 23.68 195.389 23.824C195.677 23.96 195.985 24.064 196.313 24.136C196.649 24.2 197.013 24.232 197.405 24.232C198.125 24.232 198.657 24.1 199.001 23.836C199.353 23.564 199.529 23.208 199.529 22.768C199.529 22.536 199.473 22.336 199.361 22.168C199.257 22 199.081 21.856 198.833 21.736C198.593 21.616 198.277 21.516 197.885 21.436L196.637 21.184C195.885 21.024 195.321 20.764 194.945 20.404C194.577 20.036 194.393 19.548 194.393 18.94C194.393 18.436 194.521 17.996 194.777 17.62C195.041 17.244 195.405 16.952 195.869 16.744C196.341 16.536 196.877 16.432 197.477 16.432C197.861 16.432 198.225 16.472 198.569 16.552C198.913 16.632 199.229 16.752 199.517 16.912C199.813 17.064 200.073 17.252 200.297 17.476L199.949 18.244C199.589 17.916 199.209 17.68 198.809 17.536C198.409 17.384 197.961 17.308 197.465 17.308C197.041 17.308 196.673 17.372 196.361 17.5C196.057 17.628 195.817 17.816 195.641 18.064C195.473 18.304 195.389 18.584 195.389 18.904C195.389 19.288 195.505 19.592 195.737 19.816C195.977 20.04 196.365 20.204 196.901 20.308L198.149 20.572C198.957 20.74 199.553 20.996 199.937 21.34C200.329 21.676 200.525 22.136 200.525 22.72C200.525 23.184 200.397 23.6 200.141 23.968C199.893 24.328 199.533 24.608 199.061 24.808C198.597 25.008 198.045 25.108 197.405 25.108ZM203.756 25.108C203.356 25.108 202.996 25.032 202.676 24.88C202.364 24.72 202.116 24.504 201.932 24.232C201.748 23.96 201.656 23.656 201.656 23.32C201.656 22.888 201.764 22.548 201.98 22.3C202.204 22.052 202.568 21.876 203.072 21.772C203.584 21.668 204.28 21.616 205.16 21.616H205.7V22.252H205.172C204.684 22.252 204.276 22.268 203.948 22.3C203.62 22.332 203.36 22.388 203.168 22.468C202.976 22.548 202.84 22.652 202.76 22.78C202.68 22.908 202.64 23.068 202.64 23.26C202.64 23.588 202.752 23.856 202.976 24.064C203.208 24.272 203.52 24.376 203.912 24.376C204.232 24.376 204.512 24.3 204.752 24.148C205 23.996 205.192 23.788 205.328 23.524C205.472 23.26 205.544 22.956 205.544 22.612V21.244C205.544 20.748 205.444 20.392 205.244 20.176C205.044 19.952 204.716 19.84 204.26 19.84C203.908 19.84 203.568 19.892 203.24 19.996C202.912 20.092 202.576 20.252 202.232 20.476L201.896 19.768C202.104 19.624 202.34 19.5 202.604 19.396C202.868 19.284 203.144 19.2 203.432 19.144C203.72 19.088 203.996 19.06 204.26 19.06C204.764 19.06 205.18 19.144 205.508 19.312C205.836 19.472 206.08 19.72 206.24 20.056C206.4 20.384 206.48 20.808 206.48 21.328V25H205.568V23.644H205.676C205.612 23.948 205.488 24.208 205.304 24.424C205.128 24.64 204.908 24.808 204.644 24.928C204.38 25.048 204.084 25.108 203.756 25.108ZM210.347 25.108C209.875 25.108 209.483 25.024 209.171 24.856C208.867 24.68 208.635 24.42 208.475 24.076C208.323 23.732 208.247 23.304 208.247 22.792V19.168H209.219V22.78C209.219 23.124 209.263 23.412 209.351 23.644C209.447 23.868 209.595 24.036 209.795 24.148C209.995 24.252 210.243 24.304 210.539 24.304C210.875 24.304 211.167 24.228 211.415 24.076C211.663 23.924 211.859 23.712 212.003 23.44C212.147 23.168 212.219 22.848 212.219 22.48V19.168H213.191V25H212.243V23.656H212.399C212.239 24.128 211.975 24.488 211.607 24.736C211.247 24.984 210.827 25.108 210.347 25.108ZM217.482 25.108C216.898 25.108 216.394 24.98 215.97 24.724C215.546 24.468 215.218 24.112 214.986 23.656C214.762 23.192 214.65 22.656 214.65 22.048C214.65 21.432 214.762 20.9 214.986 20.452C215.218 20.004 215.546 19.66 215.97 19.42C216.394 19.18 216.898 19.06 217.482 19.06C217.842 19.06 218.198 19.124 218.55 19.252C218.902 19.38 219.194 19.56 219.426 19.792L219.09 20.5C218.858 20.276 218.602 20.112 218.322 20.008C218.05 19.904 217.79 19.852 217.542 19.852C216.934 19.852 216.466 20.044 216.138 20.428C215.81 20.804 215.646 21.348 215.646 22.06C215.646 22.756 215.81 23.308 216.138 23.716C216.466 24.116 216.934 24.316 217.542 24.316C217.79 24.316 218.05 24.264 218.322 24.16C218.602 24.056 218.858 23.888 219.09 23.656L219.426 24.364C219.194 24.596 218.898 24.78 218.538 24.916C218.186 25.044 217.834 25.108 217.482 25.108ZM223.075 25.108C222.459 25.108 221.927 24.988 221.479 24.748C221.039 24.5 220.695 24.152 220.447 23.704C220.207 23.256 220.087 22.72 220.087 22.096C220.087 21.488 220.207 20.96 220.447 20.512C220.687 20.056 221.015 19.7 221.431 19.444C221.855 19.188 222.343 19.06 222.895 19.06C223.423 19.06 223.875 19.176 224.251 19.408C224.627 19.64 224.915 19.968 225.115 20.392C225.323 20.816 225.427 21.324 225.427 21.916V22.288H220.831V21.652H224.779L224.587 21.808C224.587 21.168 224.443 20.672 224.155 20.32C223.875 19.96 223.463 19.78 222.919 19.78C222.511 19.78 222.163 19.876 221.875 20.068C221.595 20.252 221.383 20.512 221.239 20.848C221.095 21.176 221.023 21.56 221.023 22V22.072C221.023 22.56 221.099 22.972 221.251 23.308C221.411 23.644 221.647 23.9 221.959 24.076C222.271 24.244 222.643 24.328 223.075 24.328C223.419 24.328 223.751 24.276 224.071 24.172C224.399 24.06 224.707 23.88 224.995 23.632L225.331 24.316C225.067 24.556 224.731 24.748 224.323 24.892C223.915 25.036 223.499 25.108 223.075 25.108ZM228.802 25.108C228.498 25.108 228.202 25.076 227.914 25.012C227.634 24.956 227.37 24.876 227.122 24.772C226.882 24.66 226.674 24.528 226.498 24.376L226.81 23.692C227.002 23.844 227.21 23.972 227.434 24.076C227.658 24.172 227.886 24.244 228.118 24.292C228.35 24.34 228.586 24.364 228.826 24.364C229.282 24.364 229.626 24.28 229.858 24.112C230.09 23.944 230.206 23.716 230.206 23.428C230.206 23.204 230.13 23.028 229.978 22.9C229.826 22.764 229.586 22.66 229.258 22.588L228.166 22.348C227.662 22.244 227.286 22.064 227.038 21.808C226.798 21.552 226.678 21.22 226.678 20.812C226.678 20.452 226.77 20.144 226.954 19.888C227.146 19.624 227.414 19.42 227.758 19.276C228.102 19.132 228.502 19.06 228.958 19.06C229.23 19.06 229.49 19.088 229.738 19.144C229.986 19.2 230.218 19.284 230.434 19.396C230.658 19.5 230.85 19.632 231.01 19.792L230.686 20.476C230.534 20.332 230.362 20.212 230.17 20.116C229.978 20.012 229.778 19.936 229.57 19.888C229.37 19.832 229.166 19.804 228.958 19.804C228.51 19.804 228.17 19.892 227.938 20.068C227.706 20.244 227.59 20.476 227.59 20.764C227.59 20.988 227.662 21.172 227.806 21.316C227.95 21.46 228.174 21.564 228.478 21.628L229.57 21.856C230.09 21.968 230.478 22.148 230.734 22.396C230.998 22.636 231.13 22.964 231.13 23.38C231.13 23.732 231.034 24.04 230.842 24.304C230.65 24.56 230.378 24.76 230.026 24.904C229.682 25.04 229.274 25.108 228.802 25.108ZM232.901 26.368L232.445 26.02C232.589 25.868 232.697 25.724 232.769 25.588C232.849 25.46 232.901 25.328 232.925 25.192C232.957 25.064 232.973 24.932 232.973 24.796L233.189 25H232.397V23.776H233.621V24.64C233.621 24.856 233.597 25.06 233.549 25.252C233.509 25.452 233.437 25.644 233.333 25.828C233.229 26.012 233.085 26.192 232.901 26.368ZM237.681 25L241.413 16.54H242.253L245.985 25H244.965L243.921 22.588L244.401 22.84H239.241L239.733 22.588L238.701 25H237.681ZM241.821 17.692L239.889 22.24L239.601 22.012H244.041L243.777 22.24L241.845 17.692H241.821ZM247.107 25V19.168H248.055V20.464H247.923C248.091 20 248.363 19.652 248.739 19.42C249.123 19.18 249.563 19.06 250.059 19.06C250.523 19.06 250.907 19.144 251.211 19.312C251.523 19.472 251.755 19.724 251.907 20.068C252.059 20.412 252.135 20.844 252.135 21.364V25H251.163V21.424C251.163 21.064 251.115 20.768 251.019 20.536C250.931 20.304 250.787 20.132 250.587 20.02C250.395 19.908 250.143 19.852 249.831 19.852C249.479 19.852 249.171 19.928 248.907 20.08C248.643 20.232 248.439 20.444 248.295 20.716C248.151 20.988 248.079 21.308 248.079 21.676V25H247.107ZM256.148 25.108C255.628 25.108 255.172 24.984 254.78 24.736C254.396 24.488 254.096 24.14 253.88 23.692C253.672 23.236 253.568 22.7 253.568 22.084C253.568 21.46 253.672 20.924 253.88 20.476C254.096 20.02 254.396 19.672 254.78 19.432C255.172 19.184 255.628 19.06 256.148 19.06C256.676 19.06 257.128 19.192 257.504 19.456C257.88 19.72 258.132 20.076 258.26 20.524H258.128V16.54H259.1V25H258.152V23.608H258.272C258.144 24.064 257.888 24.428 257.504 24.7C257.128 24.972 256.676 25.108 256.148 25.108ZM256.352 24.328C256.904 24.328 257.34 24.136 257.66 23.752C257.988 23.36 258.152 22.804 258.152 22.084C258.152 21.356 257.988 20.8 257.66 20.416C257.34 20.032 256.904 19.84 256.352 19.84C255.808 19.84 255.372 20.032 255.044 20.416C254.716 20.8 254.552 21.356 254.552 22.084C254.552 22.804 254.716 23.36 255.044 23.752C255.372 24.136 255.808 24.328 256.352 24.328ZM264.138 25V16.54H266.994C267.914 16.54 268.69 16.704 269.322 17.032C269.962 17.352 270.446 17.828 270.774 18.46C271.11 19.084 271.278 19.852 271.278 20.764C271.278 21.676 271.11 22.448 270.774 23.08C270.446 23.712 269.962 24.192 269.322 24.52C268.69 24.84 267.914 25 266.994 25H264.138ZM265.122 24.16H266.922C268.034 24.16 268.862 23.876 269.406 23.308C269.958 22.74 270.234 21.892 270.234 20.764C270.234 19.636 269.958 18.792 269.406 18.232C268.854 17.664 268.026 17.38 266.922 17.38H265.122V24.16ZM272.792 17.716V16.624H273.992V17.716H272.792ZM272.912 25V19.168H273.884V25H272.912ZM275.701 27.16V19.168H276.649V20.548H276.529C276.657 20.092 276.909 19.732 277.285 19.468C277.669 19.196 278.125 19.06 278.653 19.06C279.173 19.06 279.625 19.184 280.009 19.432C280.401 19.672 280.701 20.02 280.909 20.476C281.125 20.924 281.233 21.46 281.233 22.084C281.233 22.7 281.125 23.236 280.909 23.692C280.701 24.14 280.405 24.488 280.021 24.736C279.637 24.984 279.181 25.108 278.653 25.108C278.125 25.108 277.673 24.976 277.297 24.712C276.921 24.44 276.665 24.08 276.529 23.632H276.673V27.16H275.701ZM278.449 24.328C279.001 24.328 279.437 24.136 279.757 23.752C280.085 23.36 280.249 22.804 280.249 22.084C280.249 21.356 280.085 20.8 279.757 20.416C279.437 20.032 279.001 19.84 278.449 19.84C277.905 19.84 277.469 20.032 277.141 20.416C276.813 20.8 276.649 21.356 276.649 22.084C276.649 22.804 276.813 23.36 277.141 23.752C277.469 24.136 277.905 24.328 278.449 24.328ZM284.665 25.108C284.361 25.108 284.065 25.076 283.777 25.012C283.497 24.956 283.233 24.876 282.985 24.772C282.745 24.66 282.537 24.528 282.361 24.376L282.673 23.692C282.865 23.844 283.073 23.972 283.297 24.076C283.521 24.172 283.749 24.244 283.981 24.292C284.213 24.34 284.449 24.364 284.689 24.364C285.145 24.364 285.489 24.28 285.721 24.112C285.953 23.944 286.069 23.716 286.069 23.428C286.069 23.204 285.993 23.028 285.841 22.9C285.689 22.764 285.449 22.66 285.121 22.588L284.029 22.348C283.525 22.244 283.149 22.064 282.901 21.808C282.661 21.552 282.541 21.22 282.541 20.812C282.541 20.452 282.633 20.144 282.817 19.888C283.009 19.624 283.277 19.42 283.621 19.276C283.965 19.132 284.365 19.06 284.821 19.06C285.093 19.06 285.353 19.088 285.601 19.144C285.849 19.2 286.081 19.284 286.297 19.396C286.521 19.5 286.713 19.632 286.873 19.792L286.549 20.476C286.397 20.332 286.225 20.212 286.033 20.116C285.841 20.012 285.641 19.936 285.433 19.888C285.233 19.832 285.029 19.804 284.821 19.804C284.373 19.804 284.033 19.892 283.801 20.068C283.569 20.244 283.453 20.476 283.453 20.764C283.453 20.988 283.525 21.172 283.669 21.316C283.813 21.46 284.037 21.564 284.341 21.628L285.433 21.856C285.953 21.968 286.341 22.148 286.597 22.396C286.861 22.636 286.993 22.964 286.993 23.38C286.993 23.732 286.897 24.04 286.705 24.304C286.513 24.56 286.241 24.76 285.889 24.904C285.545 25.04 285.137 25.108 284.665 25.108Z" fill="black"/>
</svg>
