<svg width="314" height="27" viewBox="0 0 314 27" fill="none" xmlns="http://www.w3.org/2000/svg">
<path d="M0.0440001 9V0.539999H2.9C3.82 0.539999 4.596 0.704 5.228 1.032C5.868 1.352 6.352 1.828 6.68 2.46C7.016 3.084 7.184 3.852 7.184 4.764C7.184 5.676 7.016 6.448 6.68 7.08C6.352 7.712 5.868 8.192 5.228 8.52C4.596 8.84 3.82 9 2.9 9H0.0440001ZM1.028 8.16H2.828C3.94 8.16 4.768 7.876 5.312 7.308C5.864 6.74 6.14 5.892 6.14 4.764C6.14 3.636 5.864 2.792 5.312 2.232C4.76 1.664 3.932 1.38 2.828 1.38H1.028V8.16ZM10.8823 9.108C10.4103 9.108 10.0183 9.024 9.70625 8.856C9.40225 8.68 9.17025 8.42 9.01025 8.076C8.85825 7.732 8.78225 7.304 8.78225 6.792V3.168H9.75425V6.78C9.75425 7.124 9.79825 7.412 9.88625 7.644C9.98225 7.868 10.1303 8.036 10.3303 8.148C10.5303 8.252 10.7783 8.304 11.0742 8.304C11.4103 8.304 11.7023 8.228 11.9503 8.076C12.1983 7.924 12.3943 7.712 12.5383 7.44C12.6823 7.168 12.7543 6.848 12.7543 6.48V3.168H13.7263V9H12.7783V7.656H12.9343C12.7743 8.128 12.5103 8.488 12.1423 8.736C11.7823 8.984 11.3623 9.108 10.8823 9.108ZM15.5448 9V3.168H16.4928V4.548H16.3728C16.5088 4.076 16.7448 3.72 17.0808 3.48C17.4168 3.232 17.8608 3.088 18.4128 3.048L18.7608 3.012L18.8328 3.852L18.2208 3.924C17.6768 3.972 17.2568 4.148 16.9608 4.452C16.6728 4.748 16.5288 5.156 16.5288 5.676V9H15.5448ZM21.623 9.108C21.223 9.108 20.863 9.032 20.543 8.88C20.231 8.72 19.983 8.504 19.799 8.232C19.615 7.96 19.523 7.656 19.523 7.32C19.523 6.888 19.631 6.548 19.847 6.3C20.071 6.052 20.435 5.876 20.939 5.772C21.451 5.668 22.147 5.616 23.027 5.616H23.567V6.252H23.039C22.551 6.252 22.143 6.268 21.815 6.3C21.487 6.332 21.227 6.388 21.035 6.468C20.843 6.548 20.707 6.652 20.627 6.78C20.547 6.908 20.507 7.068 20.507 7.26C20.507 7.588 20.619 7.856 20.843 8.064C21.075 8.272 21.387 8.376 21.779 8.376C22.099 8.376 22.379 8.3 22.619 8.148C22.867 7.996 23.059 7.788 23.195 7.524C23.339 7.26 23.411 6.956 23.411 6.612V5.244C23.411 4.748 23.311 4.392 23.111 4.176C22.911 3.952 22.583 3.84 22.127 3.84C21.775 3.84 21.435 3.892 21.107 3.996C20.779 4.092 20.443 4.252 20.099 4.476L19.763 3.768C19.971 3.624 20.207 3.5 20.471 3.396C20.735 3.284 21.011 3.2 21.299 3.144C21.587 3.088 21.863 3.06 22.127 3.06C22.631 3.06 23.047 3.144 23.375 3.312C23.703 3.472 23.947 3.72 24.107 4.056C24.267 4.384 24.347 4.808 24.347 5.328V9H23.435V7.644H23.543C23.479 7.948 23.355 8.208 23.171 8.424C22.995 8.64 22.775 8.808 22.511 8.928C22.247 9.048 21.951 9.108 21.623 9.108ZM29.1023 9.108C28.5743 9.108 28.1183 8.972 27.7343 8.7C27.3583 8.428 27.1063 8.064 26.9783 7.608H27.0983V9H26.1503V0.539999H27.1223V4.524H26.9783C27.1143 4.076 27.3703 3.72 27.7463 3.456C28.1223 3.192 28.5743 3.06 29.1023 3.06C29.6303 3.06 30.0863 3.184 30.4703 3.432C30.8543 3.672 31.1503 4.02 31.3583 4.476C31.5743 4.924 31.6823 5.46 31.6823 6.084C31.6823 6.7 31.5743 7.236 31.3583 7.692C31.1503 8.14 30.8503 8.488 30.4583 8.736C30.0743 8.984 29.6223 9.108 29.1023 9.108ZM28.8983 8.328C29.4503 8.328 29.8863 8.136 30.2063 7.752C30.5343 7.36 30.6983 6.804 30.6983 6.084C30.6983 5.356 30.5343 4.8 30.2063 4.416C29.8863 4.032 29.4503 3.84 28.8983 3.84C28.3543 3.84 27.9183 4.032 27.5903 4.416C27.2623 4.8 27.0983 5.356 27.0983 6.084C27.0983 6.804 27.2623 7.36 27.5903 7.752C27.9183 8.136 28.3543 8.328 28.8983 8.328ZM34.9344 9.108C34.3424 9.108 33.8944 8.932 33.5904 8.58C33.2944 8.228 33.1464 7.724 33.1464 7.068V0.539999H34.1184V6.996C34.1184 7.276 34.1544 7.512 34.2264 7.704C34.3064 7.896 34.4224 8.04 34.5744 8.136C34.7264 8.232 34.9144 8.28 35.1384 8.28C35.2344 8.28 35.3264 8.276 35.4144 8.268C35.5104 8.252 35.5984 8.232 35.6784 8.208L35.6544 9.024C35.5264 9.048 35.4024 9.068 35.2824 9.084C35.1704 9.1 35.0544 9.108 34.9344 9.108ZM39.2666 9.108C38.6506 9.108 38.1186 8.988 37.6706 8.748C37.2306 8.5 36.8866 8.152 36.6386 7.704C36.3986 7.256 36.2786 6.72 36.2786 6.096C36.2786 5.488 36.3986 4.96 36.6386 4.512C36.8786 4.056 37.2066 3.7 37.6226 3.444C38.0466 3.188 38.5346 3.06 39.0866 3.06C39.6146 3.06 40.0666 3.176 40.4426 3.408C40.8186 3.64 41.1066 3.968 41.3066 4.392C41.5146 4.816 41.6186 5.324 41.6186 5.916V6.288H37.0226V5.652H40.9706L40.7786 5.808C40.7786 5.168 40.6346 4.672 40.3466 4.32C40.0666 3.96 39.6546 3.78 39.1106 3.78C38.7026 3.78 38.3546 3.876 38.0666 4.068C37.7866 4.252 37.5746 4.512 37.4306 4.848C37.2866 5.176 37.2146 5.56 37.2146 6V6.072C37.2146 6.56 37.2906 6.972 37.4426 7.308C37.6026 7.644 37.8386 7.9 38.1506 8.076C38.4626 8.244 38.8346 8.328 39.2666 8.328C39.6106 8.328 39.9426 8.276 40.2626 8.172C40.5906 8.06 40.8986 7.88 41.1866 7.632L41.5226 8.316C41.2586 8.556 40.9226 8.748 40.5146 8.892C40.1066 9.036 39.6906 9.108 39.2666 9.108ZM46.2753 9V8.256L49.1673 5.136C49.4393 4.84 49.6593 4.564 49.8273 4.308C49.9953 4.044 50.1193 3.788 50.1993 3.54C50.2793 3.292 50.3193 3.04 50.3193 2.784C50.3193 2.304 50.1713 1.94 49.8753 1.692C49.5873 1.436 49.1633 1.308 48.6033 1.308C48.1713 1.308 47.7673 1.388 47.3913 1.548C47.0233 1.7 46.6713 1.94 46.3353 2.268L45.9633 1.5C46.2753 1.18 46.6713 0.924 47.1513 0.732C47.6393 0.532 48.1513 0.431999 48.6873 0.431999C49.2553 0.431999 49.7353 0.52 50.1273 0.696C50.5193 0.872 50.8153 1.132 51.0153 1.476C51.2153 1.812 51.3153 2.224 51.3153 2.712C51.3153 2.968 51.2833 3.22 51.2193 3.468C51.1633 3.708 51.0713 3.952 50.9433 4.2C50.8233 4.44 50.6673 4.688 50.4753 4.944C50.2913 5.2 50.0673 5.464 49.8033 5.736L47.2593 8.436V8.16H51.6633V9H46.2753ZM56.1706 9.108C55.8106 9.108 55.4586 9.068 55.1146 8.988C54.7706 8.908 54.4466 8.792 54.1426 8.64C53.8466 8.488 53.5826 8.308 53.3506 8.1L53.7226 7.32C54.1066 7.632 54.4946 7.864 54.8866 8.016C55.2866 8.16 55.7106 8.232 56.1586 8.232C56.7506 8.232 57.2106 8.068 57.5386 7.74C57.8746 7.412 58.0426 6.98 58.0426 6.444C58.0426 5.892 57.8826 5.44 57.5626 5.088C57.2426 4.736 56.8026 4.56 56.2426 4.56C55.8346 4.56 55.4746 4.644 55.1626 4.812C54.8586 4.972 54.5826 5.224 54.3346 5.568H53.6146V0.539999H58.5226V1.38H54.5866V4.752H54.3226C54.5306 4.416 54.8186 4.16 55.1866 3.984C55.5546 3.8 55.9666 3.708 56.4226 3.708C56.9586 3.708 57.4186 3.82 57.8026 4.044C58.1946 4.268 58.4946 4.584 58.7026 4.992C58.9186 5.392 59.0266 5.86 59.0266 6.396C59.0266 6.924 58.9106 7.392 58.6786 7.8C58.4466 8.208 58.1186 8.528 57.6946 8.76C57.2706 8.992 56.7626 9.108 56.1706 9.108ZM63.1859 9.108C62.5459 9.108 62.0019 8.944 61.5539 8.616C61.1139 8.28 60.7819 7.788 60.5579 7.14C60.3339 6.492 60.2219 5.7 60.2219 4.764C60.2219 3.82 60.3339 3.028 60.5579 2.388C60.7819 1.74 61.1139 1.252 61.5539 0.924C62.0019 0.595999 62.5459 0.431999 63.1859 0.431999C63.8339 0.431999 64.3779 0.595999 64.8179 0.924C65.2579 1.252 65.5899 1.736 65.8139 2.376C66.0379 3.016 66.1499 3.808 66.1499 4.752C66.1499 5.696 66.0379 6.492 65.8139 7.14C65.5899 7.788 65.2579 8.28 64.8179 8.616C64.3779 8.944 63.8339 9.108 63.1859 9.108ZM63.1859 8.256C63.8579 8.256 64.3539 7.972 64.6739 7.404C65.0019 6.836 65.1659 5.952 65.1659 4.752C65.1659 3.552 65.0059 2.676 64.6859 2.124C64.3659 1.564 63.8659 1.284 63.1859 1.284C62.5219 1.284 62.0259 1.564 61.6979 2.124C61.3699 2.684 61.2059 3.56 61.2059 4.752C61.2059 5.952 61.3659 6.836 61.6859 7.404C62.0139 7.972 62.5139 8.256 63.1859 8.256ZM67.7173 9V3.168H68.6653V4.464H68.5333C68.6293 4.168 68.7693 3.916 68.9533 3.708C69.1453 3.492 69.3693 3.332 69.6253 3.228C69.8893 3.116 70.1773 3.06 70.4893 3.06C70.9853 3.06 71.3853 3.18 71.6893 3.42C72.0013 3.652 72.2093 4.016 72.3133 4.512H72.1333C72.2773 4.064 72.5333 3.712 72.9013 3.456C73.2773 3.192 73.7133 3.06 74.2093 3.06C74.6493 3.06 75.0093 3.144 75.2893 3.312C75.5773 3.48 75.7933 3.736 75.9373 4.08C76.0813 4.416 76.1533 4.844 76.1533 5.364V9H75.1813V5.412C75.1813 4.876 75.0893 4.484 74.9053 4.236C74.7213 3.98 74.4093 3.852 73.9693 3.852C73.6573 3.852 73.3813 3.928 73.1413 4.08C72.9093 4.232 72.7293 4.448 72.6013 4.728C72.4813 5 72.4213 5.324 72.4213 5.7V9H71.4493V5.412C71.4493 4.876 71.3533 4.484 71.1613 4.236C70.9773 3.98 70.6693 3.852 70.2373 3.852C69.9173 3.852 69.6413 3.928 69.4093 4.08C69.1773 4.232 68.9973 4.448 68.8693 4.728C68.7493 5 68.6893 5.324 68.6893 5.7V9H67.7173ZM79.7586 9.108C79.1666 9.108 78.7186 8.932 78.4146 8.58C78.1186 8.228 77.9706 7.724 77.9706 7.068V0.539999H78.9426V6.996C78.9426 7.276 78.9786 7.512 79.0506 7.704C79.1306 7.896 79.2466 8.04 79.3986 8.136C79.5506 8.232 79.7386 8.28 79.9626 8.28C80.0586 8.28 80.1506 8.276 80.2386 8.268C80.3346 8.252 80.4226 8.232 80.5026 8.208L80.4786 9.024C80.3506 9.048 80.2266 9.068 80.1066 9.084C79.9946 9.1 79.8786 9.108 79.7586 9.108ZM88.3954 9.108C87.5634 9.108 86.8514 8.932 86.2594 8.58C85.6674 8.228 85.2114 7.728 84.8914 7.08C84.5794 6.432 84.4234 5.66 84.4234 4.764C84.4234 3.868 84.5794 3.1 84.8914 2.46C85.2114 1.812 85.6674 1.312 86.2594 0.96C86.8514 0.608 87.5634 0.431999 88.3954 0.431999C88.9794 0.431999 89.5194 0.523999 90.0154 0.707999C90.5114 0.891999 90.9274 1.16 91.2634 1.512L90.8794 2.316C90.5114 1.972 90.1274 1.724 89.7274 1.572C89.3354 1.412 88.8994 1.332 88.4194 1.332C87.4674 1.332 86.7394 1.632 86.2354 2.232C85.7314 2.832 85.4794 3.676 85.4794 4.764C85.4794 5.852 85.7314 6.7 86.2354 7.308C86.7394 7.908 87.4674 8.208 88.4194 8.208C88.8994 8.208 89.3354 8.132 89.7274 7.98C90.1274 7.82 90.5114 7.568 90.8794 7.224L91.2634 8.028C90.9274 8.372 90.5114 8.64 90.0154 8.832C89.5194 9.016 88.9794 9.108 88.3954 9.108ZM94.6798 9.108C94.1118 9.108 93.6198 8.984 93.2038 8.736C92.7878 8.488 92.4638 8.14 92.2318 7.692C92.0078 7.236 91.8958 6.7 91.8958 6.084C91.8958 5.468 92.0078 4.936 92.2318 4.488C92.4638 4.032 92.7878 3.68 93.2038 3.432C93.6198 3.184 94.1118 3.06 94.6798 3.06C95.2478 3.06 95.7398 3.184 96.1558 3.432C96.5718 3.68 96.8918 4.032 97.1158 4.488C97.3478 4.936 97.4638 5.468 97.4638 6.084C97.4638 6.7 97.3478 7.236 97.1158 7.692C96.8918 8.14 96.5718 8.488 96.1558 8.736C95.7398 8.984 95.2478 9.108 94.6798 9.108ZM94.6798 8.328C95.2318 8.328 95.6678 8.136 95.9878 7.752C96.3158 7.36 96.4798 6.8 96.4798 6.072C96.4798 5.352 96.3158 4.8 95.9878 4.416C95.6678 4.032 95.2318 3.84 94.6798 3.84C94.1358 3.84 93.6998 4.032 93.3718 4.416C93.0438 4.8 92.8798 5.352 92.8798 6.072C92.8798 6.8 93.0438 7.36 93.3718 7.752C93.6998 8.136 94.1358 8.328 94.6798 8.328ZM98.9237 9V3.168H99.8717V4.464H99.7397C99.9077 4 100.18 3.652 100.556 3.42C100.94 3.18 101.38 3.06 101.876 3.06C102.34 3.06 102.724 3.144 103.028 3.312C103.34 3.472 103.572 3.724 103.724 4.068C103.876 4.412 103.952 4.844 103.952 5.364V9H102.98V5.424C102.98 5.064 102.932 4.768 102.836 4.536C102.748 4.304 102.604 4.132 102.404 4.02C102.212 3.908 101.96 3.852 101.648 3.852C101.296 3.852 100.988 3.928 100.724 4.08C100.46 4.232 100.256 4.444 100.112 4.716C99.9677 4.988 99.8957 5.308 99.8957 5.676V9H98.9237ZM108.084 9.108C107.396 9.108 106.88 8.924 106.536 8.556C106.192 8.188 106.02 7.664 106.02 6.984V3.924H104.88V3.168H106.02V1.38H106.992V3.168H108.84V3.924H106.992V6.888C106.992 7.344 107.088 7.692 107.28 7.932C107.472 8.164 107.784 8.28 108.216 8.28C108.344 8.28 108.472 8.264 108.6 8.232C108.728 8.2 108.844 8.168 108.948 8.136L109.116 8.88C109.012 8.936 108.86 8.988 108.66 9.036C108.46 9.084 108.268 9.108 108.084 9.108ZM111.775 9.108C111.375 9.108 111.015 9.032 110.695 8.88C110.383 8.72 110.135 8.504 109.951 8.232C109.767 7.96 109.675 7.656 109.675 7.32C109.675 6.888 109.783 6.548 109.999 6.3C110.223 6.052 110.587 5.876 111.091 5.772C111.603 5.668 112.299 5.616 113.179 5.616H113.719V6.252H113.191C112.703 6.252 112.295 6.268 111.967 6.3C111.639 6.332 111.379 6.388 111.187 6.468C110.995 6.548 110.859 6.652 110.779 6.78C110.699 6.908 110.659 7.068 110.659 7.26C110.659 7.588 110.771 7.856 110.995 8.064C111.227 8.272 111.539 8.376 111.931 8.376C112.251 8.376 112.531 8.3 112.771 8.148C113.019 7.996 113.211 7.788 113.347 7.524C113.491 7.26 113.563 6.956 113.563 6.612V5.244C113.563 4.748 113.463 4.392 113.263 4.176C113.063 3.952 112.735 3.84 112.279 3.84C111.927 3.84 111.587 3.892 111.259 3.996C110.931 4.092 110.595 4.252 110.251 4.476L109.915 3.768C110.123 3.624 110.359 3.5 110.623 3.396C110.887 3.284 111.163 3.2 111.451 3.144C111.739 3.088 112.015 3.06 112.279 3.06C112.783 3.06 113.199 3.144 113.527 3.312C113.855 3.472 114.099 3.72 114.259 4.056C114.419 4.384 114.499 4.808 114.499 5.328V9H113.587V7.644H113.695C113.631 7.948 113.507 8.208 113.323 8.424C113.147 8.64 112.927 8.808 112.663 8.928C112.399 9.048 112.103 9.108 111.775 9.108ZM116.183 1.716V0.624H117.383V1.716H116.183ZM116.303 9V3.168H117.275V9H116.303ZM119.092 9V3.168H120.04V4.464H119.908C120.076 4 120.348 3.652 120.724 3.42C121.108 3.18 121.548 3.06 122.044 3.06C122.508 3.06 122.892 3.144 123.196 3.312C123.508 3.472 123.74 3.724 123.892 4.068C124.044 4.412 124.12 4.844 124.12 5.364V9H123.148V5.424C123.148 5.064 123.1 4.768 123.004 4.536C122.916 4.304 122.772 4.132 122.572 4.02C122.38 3.908 122.128 3.852 121.816 3.852C121.464 3.852 121.156 3.928 120.892 4.08C120.628 4.232 120.424 4.444 120.28 4.716C120.136 4.988 120.064 5.308 120.064 5.676V9H119.092ZM128.54 9.108C127.924 9.108 127.392 8.988 126.944 8.748C126.504 8.5 126.16 8.152 125.912 7.704C125.672 7.256 125.552 6.72 125.552 6.096C125.552 5.488 125.672 4.96 125.912 4.512C126.152 4.056 126.48 3.7 126.896 3.444C127.32 3.188 127.808 3.06 128.36 3.06C128.888 3.06 129.34 3.176 129.716 3.408C130.092 3.64 130.38 3.968 130.58 4.392C130.788 4.816 130.892 5.324 130.892 5.916V6.288H126.296V5.652H130.244L130.052 5.808C130.052 5.168 129.908 4.672 129.62 4.32C129.34 3.96 128.928 3.78 128.384 3.78C127.976 3.78 127.628 3.876 127.34 4.068C127.06 4.252 126.848 4.512 126.704 4.848C126.56 5.176 126.488 5.56 126.488 6V6.072C126.488 6.56 126.564 6.972 126.716 7.308C126.876 7.644 127.112 7.9 127.424 8.076C127.736 8.244 128.108 8.328 128.54 8.328C128.884 8.328 129.216 8.276 129.536 8.172C129.864 8.06 130.172 7.88 130.46 7.632L130.796 8.316C130.532 8.556 130.196 8.748 129.788 8.892C129.38 9.036 128.964 9.108 128.54 9.108ZM132.299 9V3.168H133.247V4.548H133.127C133.263 4.076 133.499 3.72 133.835 3.48C134.171 3.232 134.615 3.088 135.167 3.048L135.515 3.012L135.587 3.852L134.975 3.924C134.431 3.972 134.011 4.148 133.715 4.452C133.427 4.748 133.283 5.156 133.283 5.676V9H132.299ZM136.701 10.368L136.245 10.02C136.389 9.868 136.497 9.724 136.569 9.588C136.649 9.46 136.701 9.328 136.725 9.192C136.757 9.064 136.773 8.932 136.773 8.796L136.989 9H136.197V7.776H137.421V8.64C137.421 8.856 137.397 9.06 137.349 9.252C137.309 9.452 137.237 9.644 137.133 9.828C137.029 10.012 136.885 10.192 136.701 10.368ZM142.322 9V0.539999H143.15L146.582 6.984H146.222L149.63 0.539999H150.458V9H149.546V1.86H149.834L146.726 7.692H146.078L142.934 1.848H143.222V9H142.322ZM152.312 1.716V0.624H153.512V1.716H152.312ZM152.432 9V3.168H153.404V9H152.432ZM157.693 9.108C157.109 9.108 156.605 8.98 156.181 8.724C155.757 8.468 155.429 8.112 155.197 7.656C154.973 7.192 154.861 6.656 154.861 6.048C154.861 5.432 154.973 4.9 155.197 4.452C155.429 4.004 155.757 3.66 156.181 3.42C156.605 3.18 157.109 3.06 157.693 3.06C158.053 3.06 158.409 3.124 158.761 3.252C159.113 3.38 159.405 3.56 159.637 3.792L159.301 4.5C159.069 4.276 158.813 4.112 158.533 4.008C158.261 3.904 158.001 3.852 157.753 3.852C157.145 3.852 156.677 4.044 156.349 4.428C156.021 4.804 155.857 5.348 155.857 6.06C155.857 6.756 156.021 7.308 156.349 7.716C156.677 8.116 157.145 8.316 157.753 8.316C158.001 8.316 158.261 8.264 158.533 8.16C158.813 8.056 159.069 7.888 159.301 7.656L159.637 8.364C159.405 8.596 159.109 8.78 158.749 8.916C158.397 9.044 158.045 9.108 157.693 9.108ZM160.775 9V3.168H161.723V4.548H161.603C161.739 4.076 161.975 3.72 162.311 3.48C162.647 3.232 163.091 3.088 163.643 3.048L163.991 3.012L164.063 3.852L163.451 3.924C162.907 3.972 162.487 4.148 162.191 4.452C161.903 4.748 161.759 5.156 161.759 5.676V9H160.775ZM167.43 9.108C166.862 9.108 166.37 8.984 165.954 8.736C165.538 8.488 165.214 8.14 164.982 7.692C164.758 7.236 164.646 6.7 164.646 6.084C164.646 5.468 164.758 4.936 164.982 4.488C165.214 4.032 165.538 3.68 165.954 3.432C166.37 3.184 166.862 3.06 167.43 3.06C167.998 3.06 168.49 3.184 168.906 3.432C169.322 3.68 169.642 4.032 169.866 4.488C170.098 4.936 170.214 5.468 170.214 6.084C170.214 6.7 170.098 7.236 169.866 7.692C169.642 8.14 169.322 8.488 168.906 8.736C168.49 8.984 167.998 9.108 167.43 9.108ZM167.43 8.328C167.982 8.328 168.418 8.136 168.738 7.752C169.066 7.36 169.23 6.8 169.23 6.072C169.23 5.352 169.066 4.8 168.738 4.416C168.418 4.032 167.982 3.84 167.43 3.84C166.886 3.84 166.45 4.032 166.122 4.416C165.794 4.8 165.63 5.352 165.63 6.072C165.63 6.8 165.794 7.36 166.122 7.752C166.45 8.136 166.886 8.328 167.43 8.328ZM173.14 9L170.968 3.168H171.988L173.776 8.28H173.488L175.336 3.168H176.164L177.976 8.28H177.7L179.512 3.168H180.484L178.3 9H177.376L175.468 3.756H175.984L174.076 9H173.14ZM183.4 9.108C183 9.108 182.64 9.032 182.32 8.88C182.008 8.72 181.76 8.504 181.576 8.232C181.392 7.96 181.3 7.656 181.3 7.32C181.3 6.888 181.408 6.548 181.624 6.3C181.848 6.052 182.212 5.876 182.716 5.772C183.228 5.668 183.924 5.616 184.804 5.616H185.344V6.252H184.816C184.328 6.252 183.92 6.268 183.592 6.3C183.264 6.332 183.004 6.388 182.812 6.468C182.62 6.548 182.484 6.652 182.404 6.78C182.324 6.908 182.284 7.068 182.284 7.26C182.284 7.588 182.396 7.856 182.62 8.064C182.852 8.272 183.164 8.376 183.556 8.376C183.876 8.376 184.156 8.3 184.396 8.148C184.644 7.996 184.836 7.788 184.972 7.524C185.116 7.26 185.188 6.956 185.188 6.612V5.244C185.188 4.748 185.088 4.392 184.888 4.176C184.688 3.952 184.36 3.84 183.904 3.84C183.552 3.84 183.212 3.892 182.884 3.996C182.556 4.092 182.22 4.252 181.876 4.476L181.54 3.768C181.748 3.624 181.984 3.5 182.248 3.396C182.512 3.284 182.788 3.2 183.076 3.144C183.364 3.088 183.64 3.06 183.904 3.06C184.408 3.06 184.824 3.144 185.152 3.312C185.48 3.472 185.724 3.72 185.884 4.056C186.044 4.384 186.124 4.808 186.124 5.328V9H185.212V7.644H185.32C185.256 7.948 185.132 8.208 184.948 8.424C184.772 8.64 184.552 8.808 184.288 8.928C184.024 9.048 183.728 9.108 183.4 9.108ZM189.585 9L187.077 3.168H188.133L190.221 8.28H189.897L192.021 3.168H193.017L190.497 9H189.585ZM196.591 9.108C195.975 9.108 195.443 8.988 194.995 8.748C194.555 8.5 194.211 8.152 193.963 7.704C193.723 7.256 193.603 6.72 193.603 6.096C193.603 5.488 193.723 4.96 193.963 4.512C194.203 4.056 194.531 3.7 194.947 3.444C195.371 3.188 195.859 3.06 196.411 3.06C196.939 3.06 197.391 3.176 197.767 3.408C198.143 3.64 198.431 3.968 198.631 4.392C198.839 4.816 198.943 5.324 198.943 5.916V6.288H194.347V5.652H198.295L198.103 5.808C198.103 5.168 197.959 4.672 197.671 4.32C197.391 3.96 196.979 3.78 196.435 3.78C196.027 3.78 195.679 3.876 195.391 4.068C195.111 4.252 194.899 4.512 194.755 4.848C194.611 5.176 194.539 5.56 194.539 6V6.072C194.539 6.56 194.615 6.972 194.767 7.308C194.927 7.644 195.163 7.9 195.475 8.076C195.787 8.244 196.159 8.328 196.591 8.328C196.935 8.328 197.267 8.276 197.587 8.172C197.915 8.06 198.223 7.88 198.511 7.632L198.847 8.316C198.583 8.556 198.247 8.748 197.839 8.892C197.431 9.036 197.015 9.108 196.591 9.108ZM200.43 6.204V5.4H203.79V6.204H200.43ZM207.962 9L211.694 0.539999H212.534L216.266 9H215.246L214.202 6.588L214.682 6.84H209.522L210.014 6.588L208.982 9H207.962ZM212.102 1.692L210.17 6.24L209.882 6.012H214.322L214.058 6.24L212.126 1.692H212.102ZM217.389 9V3.168H218.337V4.464H218.205C218.373 4 218.645 3.652 219.021 3.42C219.405 3.18 219.845 3.06 220.341 3.06C220.805 3.06 221.189 3.144 221.493 3.312C221.805 3.472 222.037 3.724 222.189 4.068C222.341 4.412 222.417 4.844 222.417 5.364V9H221.445V5.424C221.445 5.064 221.397 4.768 221.301 4.536C221.213 4.304 221.069 4.132 220.869 4.02C220.677 3.908 220.425 3.852 220.113 3.852C219.761 3.852 219.453 3.928 219.189 4.08C218.925 4.232 218.721 4.444 218.577 4.716C218.433 4.988 218.361 5.308 218.361 5.676V9H217.389ZM226.429 9.108C225.909 9.108 225.453 8.984 225.061 8.736C224.677 8.488 224.377 8.14 224.161 7.692C223.953 7.236 223.849 6.7 223.849 6.084C223.849 5.46 223.953 4.924 224.161 4.476C224.377 4.02 224.677 3.672 225.061 3.432C225.453 3.184 225.909 3.06 226.429 3.06C226.957 3.06 227.409 3.192 227.785 3.456C228.161 3.72 228.413 4.076 228.541 4.524H228.409V0.539999H229.381V9H228.433V7.608H228.553C228.425 8.064 228.169 8.428 227.785 8.7C227.409 8.972 226.957 9.108 226.429 9.108ZM226.633 8.328C227.185 8.328 227.621 8.136 227.941 7.752C228.269 7.36 228.433 6.804 228.433 6.084C228.433 5.356 228.269 4.8 227.941 4.416C227.621 4.032 227.185 3.84 226.633 3.84C226.089 3.84 225.653 4.032 225.325 4.416C224.997 4.8 224.833 5.356 224.833 6.084C224.833 6.804 224.997 7.36 225.325 7.752C225.653 8.136 226.089 8.328 226.633 8.328ZM234.419 9V0.539999H239.651V1.368H235.403V4.32H239.411V5.148H235.403V9H234.419ZM240.744 9V3.168H241.692V4.548H241.572C241.708 4.076 241.944 3.72 242.28 3.48C242.616 3.232 243.06 3.088 243.612 3.048L243.96 3.012L244.032 3.852L243.42 3.924C242.876 3.972 242.456 4.148 242.16 4.452C241.872 4.748 241.728 5.156 241.728 5.676V9H240.744ZM247.603 9.108C246.987 9.108 246.455 8.988 246.007 8.748C245.567 8.5 245.223 8.152 244.975 7.704C244.735 7.256 244.615 6.72 244.615 6.096C244.615 5.488 244.735 4.96 244.975 4.512C245.215 4.056 245.543 3.7 245.959 3.444C246.383 3.188 246.871 3.06 247.423 3.06C247.951 3.06 248.403 3.176 248.779 3.408C249.155 3.64 249.443 3.968 249.643 4.392C249.851 4.816 249.955 5.324 249.955 5.916V6.288H245.359V5.652H249.307L249.115 5.808C249.115 5.168 248.971 4.672 248.683 4.32C248.403 3.96 247.991 3.78 247.447 3.78C247.039 3.78 246.691 3.876 246.403 4.068C246.123 4.252 245.911 4.512 245.767 4.848C245.623 5.176 245.551 5.56 245.551 6V6.072C245.551 6.56 245.627 6.972 245.779 7.308C245.939 7.644 246.175 7.9 246.487 8.076C246.799 8.244 247.171 8.328 247.603 8.328C247.947 8.328 248.279 8.276 248.599 8.172C248.927 8.06 249.235 7.88 249.523 7.632L249.859 8.316C249.595 8.556 249.259 8.748 248.851 8.892C248.443 9.036 248.027 9.108 247.603 9.108ZM253.989 9.108C253.373 9.108 252.841 8.988 252.393 8.748C251.953 8.5 251.609 8.152 251.361 7.704C251.121 7.256 251.001 6.72 251.001 6.096C251.001 5.488 251.121 4.96 251.361 4.512C251.601 4.056 251.929 3.7 252.345 3.444C252.769 3.188 253.257 3.06 253.809 3.06C254.337 3.06 254.789 3.176 255.165 3.408C255.541 3.64 255.829 3.968 256.029 4.392C256.237 4.816 256.341 5.324 256.341 5.916V6.288H251.745V5.652H255.693L255.501 5.808C255.501 5.168 255.357 4.672 255.069 4.32C254.789 3.96 254.377 3.78 253.833 3.78C253.425 3.78 253.077 3.876 252.789 4.068C252.509 4.252 252.297 4.512 252.153 4.848C252.009 5.176 251.937 5.56 251.937 6V6.072C251.937 6.56 252.013 6.972 252.165 7.308C252.325 7.644 252.561 7.9 252.873 8.076C253.185 8.244 253.557 8.328 253.989 8.328C254.333 8.328 254.665 8.276 254.985 8.172C255.313 8.06 255.621 7.88 255.909 7.632L256.245 8.316C255.981 8.556 255.645 8.748 255.237 8.892C254.829 9.036 254.413 9.108 253.989 9.108ZM257.473 9V8.352L260.989 3.672V3.924H257.473V3.168H261.889V3.816L258.337 8.52V8.244H262.021V9H257.473ZM265.79 9.108C265.174 9.108 264.642 8.988 264.194 8.748C263.754 8.5 263.41 8.152 263.162 7.704C262.922 7.256 262.802 6.72 262.802 6.096C262.802 5.488 262.922 4.96 263.162 4.512C263.402 4.056 263.73 3.7 264.146 3.444C264.57 3.188 265.058 3.06 265.61 3.06C266.138 3.06 266.59 3.176 266.966 3.408C267.342 3.64 267.63 3.968 267.83 4.392C268.038 4.816 268.142 5.324 268.142 5.916V6.288H263.546V5.652H267.494L267.302 5.808C267.302 5.168 267.158 4.672 266.87 4.32C266.59 3.96 266.178 3.78 265.634 3.78C265.226 3.78 264.878 3.876 264.59 4.068C264.31 4.252 264.098 4.512 263.954 4.848C263.81 5.176 263.738 5.56 263.738 6V6.072C263.738 6.56 263.814 6.972 263.966 7.308C264.126 7.644 264.362 7.9 264.674 8.076C264.986 8.244 265.358 8.328 265.79 8.328C266.134 8.328 266.466 8.276 266.786 8.172C267.114 8.06 267.422 7.88 267.71 7.632L268.046 8.316C267.782 8.556 267.446 8.748 267.038 8.892C266.63 9.036 266.214 9.108 265.79 9.108ZM269.549 9V3.168H270.497V4.548H270.377C270.513 4.076 270.749 3.72 271.085 3.48C271.421 3.232 271.865 3.088 272.417 3.048L272.765 3.012L272.837 3.852L272.225 3.924C271.681 3.972 271.261 4.148 270.965 4.452C270.677 4.748 270.533 5.156 270.533 5.676V9H269.549ZM273.52 6.204V5.4H276.88V6.204H273.52ZM281.288 9.108C280.848 9.108 280.432 9.068 280.04 8.988C279.656 8.908 279.3 8.796 278.972 8.652C278.652 8.5 278.36 8.316 278.096 8.1L278.444 7.308C278.716 7.508 278.992 7.68 279.272 7.824C279.56 7.96 279.868 8.064 280.196 8.136C280.532 8.2 280.896 8.232 281.288 8.232C282.008 8.232 282.54 8.1 282.884 7.836C283.236 7.564 283.412 7.208 283.412 6.768C283.412 6.536 283.356 6.336 283.244 6.168C283.14 6 282.964 5.856 282.716 5.736C282.476 5.616 282.16 5.516 281.768 5.436L280.52 5.184C279.768 5.024 279.204 4.764 278.828 4.404C278.46 4.036 278.276 3.548 278.276 2.94C278.276 2.436 278.404 1.996 278.66 1.62C278.924 1.244 279.288 0.951999 279.752 0.744C280.224 0.536 280.76 0.431999 281.36 0.431999C281.744 0.431999 282.108 0.471999 282.452 0.551999C282.796 0.632 283.112 0.752 283.4 0.912C283.696 1.064 283.956 1.252 284.18 1.476L283.832 2.244C283.472 1.916 283.092 1.68 282.692 1.536C282.292 1.384 281.844 1.308 281.348 1.308C280.924 1.308 280.556 1.372 280.244 1.5C279.94 1.628 279.7 1.816 279.524 2.064C279.356 2.304 279.272 2.584 279.272 2.904C279.272 3.288 279.388 3.592 279.62 3.816C279.86 4.04 280.248 4.204 280.784 4.308L282.032 4.572C282.84 4.74 283.436 4.996 283.82 5.34C284.212 5.676 284.408 6.136 284.408 6.72C284.408 7.184 284.28 7.6 284.024 7.968C283.776 8.328 283.416 8.608 282.944 8.808C282.48 9.008 281.928 9.108 281.288 9.108ZM287.639 9.108C287.239 9.108 286.879 9.032 286.559 8.88C286.247 8.72 285.999 8.504 285.815 8.232C285.631 7.96 285.539 7.656 285.539 7.32C285.539 6.888 285.647 6.548 285.863 6.3C286.087 6.052 286.451 5.876 286.955 5.772C287.467 5.668 288.163 5.616 289.043 5.616H289.583V6.252H289.055C288.567 6.252 288.159 6.268 287.831 6.3C287.503 6.332 287.243 6.388 287.051 6.468C286.859 6.548 286.723 6.652 286.643 6.78C286.563 6.908 286.523 7.068 286.523 7.26C286.523 7.588 286.635 7.856 286.859 8.064C287.091 8.272 287.403 8.376 287.795 8.376C288.115 8.376 288.395 8.3 288.635 8.148C288.883 7.996 289.075 7.788 289.211 7.524C289.355 7.26 289.427 6.956 289.427 6.612V5.244C289.427 4.748 289.327 4.392 289.127 4.176C288.927 3.952 288.599 3.84 288.143 3.84C287.791 3.84 287.451 3.892 287.123 3.996C286.795 4.092 286.459 4.252 286.115 4.476L285.779 3.768C285.987 3.624 286.223 3.5 286.487 3.396C286.751 3.284 287.027 3.2 287.315 3.144C287.603 3.088 287.879 3.06 288.143 3.06C288.647 3.06 289.063 3.144 289.391 3.312C289.719 3.472 289.963 3.72 290.123 4.056C290.283 4.384 290.363 4.808 290.363 5.328V9H289.451V7.644H289.559C289.495 7.948 289.371 8.208 289.187 8.424C289.011 8.64 288.791 8.808 288.527 8.928C288.263 9.048 287.967 9.108 287.639 9.108ZM292.478 9V3.924H291.326V3.168H292.742L292.478 3.42V2.964C292.478 2.188 292.67 1.6 293.054 1.2C293.446 0.799999 294.046 0.575999 294.854 0.528L295.322 0.504L295.406 1.248L294.854 1.284C294.526 1.308 294.258 1.38 294.05 1.5C293.842 1.62 293.69 1.792 293.594 2.016C293.498 2.24 293.45 2.516 293.45 2.844V3.348L293.306 3.168H295.13V3.924H293.45V9H292.478ZM298.626 9.108C298.01 9.108 297.478 8.988 297.03 8.748C296.59 8.5 296.246 8.152 295.998 7.704C295.758 7.256 295.638 6.72 295.638 6.096C295.638 5.488 295.758 4.96 295.998 4.512C296.238 4.056 296.566 3.7 296.982 3.444C297.406 3.188 297.894 3.06 298.446 3.06C298.974 3.06 299.426 3.176 299.802 3.408C300.178 3.64 300.466 3.968 300.666 4.392C300.874 4.816 300.978 5.324 300.978 5.916V6.288H296.382V5.652H300.33L300.138 5.808C300.138 5.168 299.994 4.672 299.706 4.32C299.426 3.96 299.014 3.78 298.47 3.78C298.062 3.78 297.714 3.876 297.426 4.068C297.146 4.252 296.934 4.512 296.79 4.848C296.646 5.176 296.574 5.56 296.574 6V6.072C296.574 6.56 296.65 6.972 296.802 7.308C296.962 7.644 297.198 7.9 297.51 8.076C297.822 8.244 298.194 8.328 298.626 8.328C298.97 8.328 299.302 8.276 299.622 8.172C299.95 8.06 300.258 7.88 300.546 7.632L300.882 8.316C300.618 8.556 300.282 8.748 299.874 8.892C299.466 9.036 299.05 9.108 298.626 9.108ZM301.602 6.12V5.484H313.602V6.12H301.602ZM0.0440001 25V16.54H3.392C4 16.54 4.512 16.64 4.928 16.84C5.352 17.032 5.672 17.32 5.888 17.704C6.104 18.08 6.212 18.54 6.212 19.084C6.212 19.612 6.104 20.068 5.888 20.452C5.672 20.836 5.352 21.128 4.928 21.328C4.512 21.528 4 21.628 3.392 21.628H1.028V25H0.0440001ZM1.028 20.8H3.272C3.92 20.8 4.408 20.656 4.736 20.368C5.072 20.072 5.24 19.644 5.24 19.084C5.24 18.516 5.072 18.088 4.736 17.8C4.408 17.504 3.92 17.356 3.272 17.356H1.028V20.8ZM9.87594 25.108C9.25994 25.108 8.72794 24.988 8.27994 24.748C7.83994 24.5 7.49594 24.152 7.24794 23.704C7.00794 23.256 6.88794 22.72 6.88794 22.096C6.88794 21.488 7.00794 20.96 7.24794 20.512C7.48794 20.056 7.81594 19.7 8.23194 19.444C8.65594 19.188 9.14394 19.06 9.69594 19.06C10.2239 19.06 10.6759 19.176 11.0519 19.408C11.4279 19.64 11.7159 19.968 11.9159 20.392C12.1239 20.816 12.2279 21.324 12.2279 21.916V22.288H7.63194V21.652H11.5799L11.3879 21.808C11.3879 21.168 11.2439 20.672 10.9559 20.32C10.6759 19.96 10.2639 19.78 9.71994 19.78C9.31194 19.78 8.96394 19.876 8.67594 20.068C8.39594 20.252 8.18394 20.512 8.03994 20.848C7.89594 21.176 7.82394 21.56 7.82394 22V22.072C7.82394 22.56 7.89994 22.972 8.05194 23.308C8.21194 23.644 8.44794 23.9 8.75994 24.076C9.07194 24.244 9.44394 24.328 9.87594 24.328C10.2199 24.328 10.5519 24.276 10.8719 24.172C11.1999 24.06 11.5079 23.88 11.7959 23.632L12.1319 24.316C11.8679 24.556 11.5319 24.748 11.1239 24.892C10.7159 25.036 10.2999 25.108 9.87594 25.108ZM13.6347 25V19.168H14.5827V20.548H14.4627C14.5987 20.076 14.8347 19.72 15.1707 19.48C15.5067 19.232 15.9507 19.088 16.5027 19.048L16.8507 19.012L16.9227 19.852L16.3107 19.924C15.7667 19.972 15.3467 20.148 15.0507 20.452C14.7627 20.748 14.6187 21.156 14.6187 21.676V25H13.6347ZM18.5638 25V19.924H17.4118V19.168H18.8278L18.5638 19.42V18.964C18.5638 18.188 18.7558 17.6 19.1398 17.2C19.5318 16.8 20.1318 16.576 20.9398 16.528L21.4078 16.504L21.4918 17.248L20.9398 17.284C20.6118 17.308 20.3438 17.38 20.1358 17.5C19.9278 17.62 19.7758 17.792 19.6798 18.016C19.5838 18.24 19.5358 18.516 19.5358 18.844V19.348L19.3918 19.168H21.2158V19.924H19.5358V25H18.5638ZM24.7119 25.108C24.0959 25.108 23.5639 24.988 23.1159 24.748C22.6759 24.5 22.3319 24.152 22.0839 23.704C21.8439 23.256 21.7239 22.72 21.7239 22.096C21.7239 21.488 21.8439 20.96 22.0839 20.512C22.3239 20.056 22.6519 19.7 23.0679 19.444C23.4919 19.188 23.9799 19.06 24.5319 19.06C25.0599 19.06 25.5119 19.176 25.8879 19.408C26.2639 19.64 26.5519 19.968 26.7519 20.392C26.9599 20.816 27.0639 21.324 27.0639 21.916V22.288H22.4679V21.652H26.4159L26.2239 21.808C26.2239 21.168 26.0799 20.672 25.7919 20.32C25.5119 19.96 25.0999 19.78 24.5559 19.78C24.1479 19.78 23.7999 19.876 23.5119 20.068C23.2319 20.252 23.0199 20.512 22.8759 20.848C22.7319 21.176 22.6599 21.56 22.6599 22V22.072C22.6599 22.56 22.7359 22.972 22.8879 23.308C23.0479 23.644 23.2839 23.9 23.5959 24.076C23.9079 24.244 24.2799 24.328 24.7119 24.328C25.0559 24.328 25.3879 24.276 25.7079 24.172C26.0359 24.06 26.3439 23.88 26.6319 23.632L26.9679 24.316C26.7039 24.556 26.3679 24.748 25.9599 24.892C25.5519 25.036 25.1359 25.108 24.7119 25.108ZM30.9426 25.108C30.3586 25.108 29.8546 24.98 29.4306 24.724C29.0066 24.468 28.6786 24.112 28.4466 23.656C28.2226 23.192 28.1106 22.656 28.1106 22.048C28.1106 21.432 28.2226 20.9 28.4466 20.452C28.6786 20.004 29.0066 19.66 29.4306 19.42C29.8546 19.18 30.3586 19.06 30.9426 19.06C31.3026 19.06 31.6586 19.124 32.0106 19.252C32.3626 19.38 32.6546 19.56 32.8866 19.792L32.5506 20.5C32.3186 20.276 32.0626 20.112 31.7826 20.008C31.5106 19.904 31.2506 19.852 31.0026 19.852C30.3946 19.852 29.9266 20.044 29.5986 20.428C29.2706 20.804 29.1066 21.348 29.1066 22.06C29.1066 22.756 29.2706 23.308 29.5986 23.716C29.9266 24.116 30.3946 24.316 31.0026 24.316C31.2506 24.316 31.5106 24.264 31.7826 24.16C32.0626 24.056 32.3186 23.888 32.5506 23.656L32.8866 24.364C32.6546 24.596 32.3586 24.78 31.9986 24.916C31.6466 25.044 31.2946 25.108 30.9426 25.108ZM36.3653 25.108C35.6773 25.108 35.1613 24.924 34.8173 24.556C34.4733 24.188 34.3013 23.664 34.3013 22.984V19.924H33.1613V19.168H34.3013V17.38H35.2733V19.168H37.1213V19.924H35.2733V22.888C35.2733 23.344 35.3693 23.692 35.5613 23.932C35.7533 24.164 36.0653 24.28 36.4973 24.28C36.6253 24.28 36.7533 24.264 36.8813 24.232C37.0093 24.2 37.1253 24.168 37.2293 24.136L37.3973 24.88C37.2933 24.936 37.1413 24.988 36.9413 25.036C36.7413 25.084 36.5493 25.108 36.3653 25.108ZM41.4346 25V16.54H46.6666V17.368H42.4186V20.32H46.4266V21.148H42.4186V25H41.4346ZM50.0782 25.108C49.5102 25.108 49.0182 24.984 48.6022 24.736C48.1862 24.488 47.8622 24.14 47.6302 23.692C47.4062 23.236 47.2942 22.7 47.2942 22.084C47.2942 21.468 47.4062 20.936 47.6302 20.488C47.8622 20.032 48.1862 19.68 48.6022 19.432C49.0182 19.184 49.5102 19.06 50.0782 19.06C50.6462 19.06 51.1382 19.184 51.5542 19.432C51.9702 19.68 52.2902 20.032 52.5142 20.488C52.7462 20.936 52.8622 21.468 52.8622 22.084C52.8622 22.7 52.7462 23.236 52.5142 23.692C52.2902 24.14 51.9702 24.488 51.5542 24.736C51.1382 24.984 50.6462 25.108 50.0782 25.108ZM50.0782 24.328C50.6302 24.328 51.0662 24.136 51.3862 23.752C51.7142 23.36 51.8782 22.8 51.8782 22.072C51.8782 21.352 51.7142 20.8 51.3862 20.416C51.0662 20.032 50.6302 19.84 50.0782 19.84C49.5342 19.84 49.0982 20.032 48.7702 20.416C48.4422 20.8 48.2782 21.352 48.2782 22.072C48.2782 22.8 48.4422 23.36 48.7702 23.752C49.0982 24.136 49.5342 24.328 50.0782 24.328ZM54.3222 25V19.168H55.2702V20.548H55.1502C55.2862 20.076 55.5222 19.72 55.8582 19.48C56.1942 19.232 56.6382 19.088 57.1902 19.048L57.5382 19.012L57.6102 19.852L56.9982 19.924C56.4542 19.972 56.0342 20.148 55.7382 20.452C55.4502 20.748 55.3062 21.156 55.3062 21.676V25H54.3222ZM64.573 25.108C64.133 25.108 63.717 25.068 63.325 24.988C62.941 24.908 62.585 24.796 62.257 24.652C61.937 24.5 61.645 24.316 61.381 24.1L61.729 23.308C62.001 23.508 62.277 23.68 62.557 23.824C62.845 23.96 63.153 24.064 63.481 24.136C63.817 24.2 64.181 24.232 64.573 24.232C65.293 24.232 65.825 24.1 66.169 23.836C66.521 23.564 66.697 23.208 66.697 22.768C66.697 22.536 66.641 22.336 66.529 22.168C66.425 22 66.249 21.856 66.001 21.736C65.761 21.616 65.445 21.516 65.053 21.436L63.805 21.184C63.053 21.024 62.489 20.764 62.113 20.404C61.745 20.036 61.561 19.548 61.561 18.94C61.561 18.436 61.689 17.996 61.945 17.62C62.209 17.244 62.573 16.952 63.037 16.744C63.509 16.536 64.045 16.432 64.645 16.432C65.029 16.432 65.393 16.472 65.737 16.552C66.081 16.632 66.397 16.752 66.685 16.912C66.981 17.064 67.241 17.252 67.465 17.476L67.117 18.244C66.757 17.916 66.377 17.68 65.977 17.536C65.577 17.384 65.129 17.308 64.633 17.308C64.209 17.308 63.841 17.372 63.529 17.5C63.225 17.628 62.985 17.816 62.809 18.064C62.641 18.304 62.557 18.584 62.557 18.904C62.557 19.288 62.673 19.592 62.905 19.816C63.145 20.04 63.533 20.204 64.069 20.308L65.317 20.572C66.125 20.74 66.721 20.996 67.105 21.34C67.497 21.676 67.693 22.136 67.693 22.72C67.693 23.184 67.565 23.6 67.309 23.968C67.061 24.328 66.701 24.608 66.229 24.808C65.765 25.008 65.213 25.108 64.573 25.108ZM70.9238 25.108C70.5238 25.108 70.1638 25.032 69.8438 24.88C69.5318 24.72 69.2838 24.504 69.0998 24.232C68.9158 23.96 68.8238 23.656 68.8238 23.32C68.8238 22.888 68.9318 22.548 69.1478 22.3C69.3718 22.052 69.7358 21.876 70.2398 21.772C70.7518 21.668 71.4478 21.616 72.3278 21.616H72.8678V22.252H72.3398C71.8518 22.252 71.4438 22.268 71.1158 22.3C70.7878 22.332 70.5278 22.388 70.3358 22.468C70.1438 22.548 70.0078 22.652 69.9278 22.78C69.8478 22.908 69.8078 23.068 69.8078 23.26C69.8078 23.588 69.9198 23.856 70.1438 24.064C70.3758 24.272 70.6878 24.376 71.0798 24.376C71.3998 24.376 71.6798 24.3 71.9198 24.148C72.1678 23.996 72.3598 23.788 72.4958 23.524C72.6398 23.26 72.7118 22.956 72.7118 22.612V21.244C72.7118 20.748 72.6118 20.392 72.4118 20.176C72.2118 19.952 71.8838 19.84 71.4278 19.84C71.0758 19.84 70.7358 19.892 70.4078 19.996C70.0798 20.092 69.7438 20.252 69.3998 20.476L69.0638 19.768C69.2718 19.624 69.5078 19.5 69.7718 19.396C70.0358 19.284 70.3118 19.2 70.5998 19.144C70.8878 19.088 71.1638 19.06 71.4278 19.06C71.9318 19.06 72.3478 19.144 72.6758 19.312C73.0038 19.472 73.2478 19.72 73.4078 20.056C73.5678 20.384 73.6478 20.808 73.6478 21.328V25H72.7358V23.644H72.8438C72.7798 23.948 72.6558 24.208 72.4718 24.424C72.2958 24.64 72.0758 24.808 71.8118 24.928C71.5478 25.048 71.2518 25.108 70.9238 25.108ZM77.2391 25.108C76.6471 25.108 76.1991 24.932 75.8951 24.58C75.5991 24.228 75.4511 23.724 75.4511 23.068V16.54H76.4231V22.996C76.4231 23.276 76.4591 23.512 76.5311 23.704C76.6111 23.896 76.7271 24.04 76.8791 24.136C77.0311 24.232 77.2191 24.28 77.4431 24.28C77.5391 24.28 77.6311 24.276 77.7191 24.268C77.8151 24.252 77.9031 24.232 77.9831 24.208L77.9591 25.024C77.8311 25.048 77.7071 25.068 77.5871 25.084C77.4751 25.1 77.3591 25.108 77.2391 25.108ZM80.8378 25.108C80.4378 25.108 80.0778 25.032 79.7578 24.88C79.4458 24.72 79.1978 24.504 79.0138 24.232C78.8298 23.96 78.7378 23.656 78.7378 23.32C78.7378 22.888 78.8458 22.548 79.0618 22.3C79.2858 22.052 79.6498 21.876 80.1538 21.772C80.6658 21.668 81.3618 21.616 82.2418 21.616H82.7818V22.252H82.2538C81.7658 22.252 81.3578 22.268 81.0298 22.3C80.7018 22.332 80.4418 22.388 80.2498 22.468C80.0578 22.548 79.9218 22.652 79.8418 22.78C79.7618 22.908 79.7218 23.068 79.7218 23.26C79.7218 23.588 79.8338 23.856 80.0578 24.064C80.2898 24.272 80.6018 24.376 80.9938 24.376C81.3138 24.376 81.5938 24.3 81.8338 24.148C82.0818 23.996 82.2738 23.788 82.4098 23.524C82.5538 23.26 82.6258 22.956 82.6258 22.612V21.244C82.6258 20.748 82.5258 20.392 82.3258 20.176C82.1258 19.952 81.7978 19.84 81.3418 19.84C80.9898 19.84 80.6498 19.892 80.3218 19.996C79.9938 20.092 79.6578 20.252 79.3138 20.476L78.9778 19.768C79.1858 19.624 79.4218 19.5 79.6858 19.396C79.9498 19.284 80.2258 19.2 80.5138 19.144C80.8018 19.088 81.0778 19.06 81.3418 19.06C81.8458 19.06 82.2618 19.144 82.5898 19.312C82.9178 19.472 83.1618 19.72 83.3218 20.056C83.4818 20.384 83.5618 20.808 83.5618 21.328V25H82.6498V23.644H82.7578C82.6938 23.948 82.5698 24.208 82.3858 24.424C82.2098 24.64 81.9898 24.808 81.7258 24.928C81.4618 25.048 81.1658 25.108 80.8378 25.108ZM87.5851 25.108C87.0651 25.108 86.6091 24.984 86.2171 24.736C85.8331 24.488 85.5331 24.14 85.3171 23.692C85.1091 23.236 85.0051 22.7 85.0051 22.084C85.0051 21.46 85.1091 20.924 85.3171 20.476C85.5331 20.02 85.8331 19.672 86.2171 19.432C86.6091 19.184 87.0651 19.06 87.5851 19.06C88.1131 19.06 88.5651 19.192 88.9411 19.456C89.3171 19.72 89.5691 20.076 89.6971 20.524H89.5651V16.54H90.5371V25H89.5891V23.608H89.7091C89.5811 24.064 89.3251 24.428 88.9411 24.7C88.5651 24.972 88.1131 25.108 87.5851 25.108ZM87.7891 24.328C88.3411 24.328 88.7771 24.136 89.0971 23.752C89.4251 23.36 89.5891 22.804 89.5891 22.084C89.5891 21.356 89.4251 20.8 89.0971 20.416C88.7771 20.032 88.3411 19.84 87.7891 19.84C87.2451 19.84 86.8091 20.032 86.4811 20.416C86.1531 20.8 85.9891 21.356 85.9891 22.084C85.9891 22.804 86.1531 23.36 86.4811 23.752C86.8091 24.136 87.2451 24.328 87.7891 24.328ZM94.3292 25.108C94.0252 25.108 93.7292 25.076 93.4412 25.012C93.1612 24.956 92.8972 24.876 92.6492 24.772C92.4092 24.66 92.2012 24.528 92.0252 24.376L92.3372 23.692C92.5292 23.844 92.7372 23.972 92.9612 24.076C93.1852 24.172 93.4132 24.244 93.6452 24.292C93.8772 24.34 94.1132 24.364 94.3532 24.364C94.8092 24.364 95.1532 24.28 95.3852 24.112C95.6172 23.944 95.7332 23.716 95.7332 23.428C95.7332 23.204 95.6572 23.028 95.5052 22.9C95.3532 22.764 95.1132 22.66 94.7852 22.588L93.6932 22.348C93.1892 22.244 92.8132 22.064 92.5652 21.808C92.3252 21.552 92.2052 21.22 92.2052 20.812C92.2052 20.452 92.2972 20.144 92.4812 19.888C92.6732 19.624 92.9412 19.42 93.2852 19.276C93.6292 19.132 94.0292 19.06 94.4852 19.06C94.7572 19.06 95.0172 19.088 95.2652 19.144C95.5132 19.2 95.7452 19.284 95.9612 19.396C96.1852 19.5 96.3772 19.632 96.5372 19.792L96.2132 20.476C96.0612 20.332 95.8892 20.212 95.6972 20.116C95.5052 20.012 95.3052 19.936 95.0972 19.888C94.8972 19.832 94.6932 19.804 94.4852 19.804C94.0372 19.804 93.6972 19.892 93.4652 20.068C93.2332 20.244 93.1172 20.476 93.1172 20.764C93.1172 20.988 93.1892 21.172 93.3332 21.316C93.4772 21.46 93.7012 21.564 94.0052 21.628L95.0972 21.856C95.6172 21.968 96.0052 22.148 96.2612 22.396C96.5252 22.636 96.6572 22.964 96.6572 23.38C96.6572 23.732 96.5612 24.04 96.3692 24.304C96.1772 24.56 95.9052 24.76 95.5532 24.904C95.2092 25.04 94.8012 25.108 94.3292 25.108ZM98.428 26.368L97.972 26.02C98.116 25.868 98.224 25.724 98.296 25.588C98.376 25.46 98.428 25.328 98.452 25.192C98.484 25.064 98.5 24.932 98.5 24.796L98.716 25H97.924V23.776H99.148V24.64C99.148 24.856 99.124 25.06 99.076 25.252C99.036 25.452 98.964 25.644 98.86 25.828C98.756 26.012 98.612 26.192 98.428 26.368ZM104.024 25V16.54H109.256V17.368H105.008V20.32H109.016V21.148H105.008V25H104.024ZM110.35 25V19.168H111.298V20.548H111.178C111.314 20.076 111.55 19.72 111.886 19.48C112.222 19.232 112.666 19.088 113.218 19.048L113.566 19.012L113.638 19.852L113.026 19.924C112.482 19.972 112.062 20.148 111.766 20.452C111.478 20.748 111.334 21.156 111.334 21.676V25H110.35ZM116.714 25.108C116.242 25.108 115.85 25.024 115.538 24.856C115.234 24.68 115.002 24.42 114.842 24.076C114.69 23.732 114.614 23.304 114.614 22.792V19.168H115.586V22.78C115.586 23.124 115.63 23.412 115.718 23.644C115.814 23.868 115.962 24.036 116.162 24.148C116.362 24.252 116.61 24.304 116.906 24.304C117.242 24.304 117.534 24.228 117.782 24.076C118.03 23.924 118.226 23.712 118.37 23.44C118.514 23.168 118.586 22.848 118.586 22.48V19.168H119.558V25H118.61V23.656H118.766C118.606 24.128 118.342 24.488 117.974 24.736C117.614 24.984 117.194 25.108 116.714 25.108ZM121.257 17.716V16.624H122.457V17.716H121.257ZM121.377 25V19.168H122.349V25H121.377ZM126.506 25.108C125.818 25.108 125.302 24.924 124.958 24.556C124.614 24.188 124.442 23.664 124.442 22.984V19.924H123.302V19.168H124.442V17.38H125.414V19.168H127.262V19.924H125.414V22.888C125.414 23.344 125.51 23.692 125.702 23.932C125.894 24.164 126.206 24.28 126.638 24.28C126.766 24.28 126.894 24.264 127.022 24.232C127.15 24.2 127.266 24.168 127.37 24.136L127.538 24.88C127.434 24.936 127.282 24.988 127.082 25.036C126.882 25.084 126.69 25.108 126.506 25.108ZM130.329 25.108C130.025 25.108 129.729 25.076 129.441 25.012C129.161 24.956 128.897 24.876 128.649 24.772C128.409 24.66 128.201 24.528 128.025 24.376L128.337 23.692C128.529 23.844 128.737 23.972 128.961 24.076C129.185 24.172 129.413 24.244 129.645 24.292C129.877 24.34 130.113 24.364 130.353 24.364C130.809 24.364 131.153 24.28 131.385 24.112C131.617 23.944 131.733 23.716 131.733 23.428C131.733 23.204 131.657 23.028 131.505 22.9C131.353 22.764 131.113 22.66 130.785 22.588L129.693 22.348C129.189 22.244 128.813 22.064 128.565 21.808C128.325 21.552 128.205 21.22 128.205 20.812C128.205 20.452 128.297 20.144 128.481 19.888C128.673 19.624 128.941 19.42 129.285 19.276C129.629 19.132 130.029 19.06 130.485 19.06C130.757 19.06 131.017 19.088 131.265 19.144C131.513 19.2 131.745 19.284 131.961 19.396C132.185 19.5 132.377 19.632 132.537 19.792L132.213 20.476C132.061 20.332 131.889 20.212 131.697 20.116C131.505 20.012 131.305 19.936 131.097 19.888C130.897 19.832 130.693 19.804 130.485 19.804C130.037 19.804 129.697 19.892 129.465 20.068C129.233 20.244 129.117 20.476 129.117 20.764C129.117 20.988 129.189 21.172 129.333 21.316C129.477 21.46 129.701 21.564 130.005 21.628L131.097 21.856C131.617 21.968 132.005 22.148 132.261 22.396C132.525 22.636 132.657 22.964 132.657 23.38C132.657 23.732 132.561 24.04 132.369 24.304C132.177 24.56 131.905 24.76 131.553 24.904C131.209 25.04 130.801 25.108 130.329 25.108ZM134.428 26.368L133.972 26.02C134.116 25.868 134.224 25.724 134.296 25.588C134.376 25.46 134.428 25.328 134.452 25.192C134.484 25.064 134.5 24.932 134.5 24.796L134.716 25H133.924V23.776H135.148V24.64C135.148 24.856 135.124 25.06 135.076 25.252C135.036 25.452 134.964 25.644 134.86 25.828C134.756 26.012 134.612 26.192 134.428 26.368ZM139.208 25L142.94 16.54H143.78L147.512 25H146.492L145.448 22.588L145.928 22.84H140.768L141.26 22.588L140.228 25H139.208ZM143.348 17.692L141.416 22.24L141.128 22.012H145.568L145.304 22.24L143.372 17.692H143.348ZM148.635 25V19.168H149.583V20.464H149.451C149.619 20 149.891 19.652 150.267 19.42C150.651 19.18 151.091 19.06 151.587 19.06C152.051 19.06 152.435 19.144 152.739 19.312C153.051 19.472 153.283 19.724 153.435 20.068C153.587 20.412 153.663 20.844 153.663 21.364V25H152.691V21.424C152.691 21.064 152.643 20.768 152.547 20.536C152.459 20.304 152.315 20.132 152.115 20.02C151.923 19.908 151.671 19.852 151.359 19.852C151.007 19.852 150.699 19.928 150.435 20.08C150.171 20.232 149.967 20.444 149.823 20.716C149.679 20.988 149.607 21.308 149.607 21.676V25H148.635ZM157.675 25.108C157.155 25.108 156.699 24.984 156.307 24.736C155.923 24.488 155.623 24.14 155.407 23.692C155.199 23.236 155.095 22.7 155.095 22.084C155.095 21.46 155.199 20.924 155.407 20.476C155.623 20.02 155.923 19.672 156.307 19.432C156.699 19.184 157.155 19.06 157.675 19.06C158.203 19.06 158.655 19.192 159.031 19.456C159.407 19.72 159.659 20.076 159.787 20.524H159.655V16.54H160.627V25H159.679V23.608H159.799C159.671 24.064 159.415 24.428 159.031 24.7C158.655 24.972 158.203 25.108 157.675 25.108ZM157.879 24.328C158.431 24.328 158.867 24.136 159.187 23.752C159.515 23.36 159.679 22.804 159.679 22.084C159.679 21.356 159.515 20.8 159.187 20.416C158.867 20.032 158.431 19.84 157.879 19.84C157.335 19.84 156.899 20.032 156.571 20.416C156.243 20.8 156.079 21.356 156.079 22.084C156.079 22.804 156.243 23.36 156.571 23.752C156.899 24.136 157.335 24.328 157.879 24.328ZM165.665 25V16.54H168.521C169.441 16.54 170.217 16.704 170.849 17.032C171.489 17.352 171.973 17.828 172.301 18.46C172.637 19.084 172.805 19.852 172.805 20.764C172.805 21.676 172.637 22.448 172.301 23.08C171.973 23.712 171.489 24.192 170.849 24.52C170.217 24.84 169.441 25 168.521 25H165.665ZM166.649 24.16H168.449C169.561 24.16 170.389 23.876 170.933 23.308C171.485 22.74 171.761 21.892 171.761 20.764C171.761 19.636 171.485 18.792 170.933 18.232C170.381 17.664 169.553 17.38 168.449 17.38H166.649V24.16ZM177.067 25.108C176.451 25.108 175.919 24.988 175.471 24.748C175.031 24.5 174.687 24.152 174.439 23.704C174.199 23.256 174.079 22.72 174.079 22.096C174.079 21.488 174.199 20.96 174.439 20.512C174.679 20.056 175.007 19.7 175.423 19.444C175.847 19.188 176.335 19.06 176.887 19.06C177.415 19.06 177.867 19.176 178.243 19.408C178.619 19.64 178.907 19.968 179.107 20.392C179.315 20.816 179.419 21.324 179.419 21.916V22.288H174.823V21.652H178.771L178.579 21.808C178.579 21.168 178.435 20.672 178.147 20.32C177.867 19.96 177.455 19.78 176.911 19.78C176.503 19.78 176.155 19.876 175.867 20.068C175.587 20.252 175.375 20.512 175.231 20.848C175.087 21.176 175.015 21.56 175.015 22V22.072C175.015 22.56 175.091 22.972 175.243 23.308C175.403 23.644 175.639 23.9 175.951 24.076C176.263 24.244 176.635 24.328 177.067 24.328C177.411 24.328 177.743 24.276 178.063 24.172C178.391 24.06 178.699 23.88 178.987 23.632L179.323 24.316C179.059 24.556 178.723 24.748 178.315 24.892C177.907 25.036 177.491 25.108 177.067 25.108ZM182.794 25.108C182.49 25.108 182.194 25.076 181.906 25.012C181.626 24.956 181.362 24.876 181.114 24.772C180.874 24.66 180.666 24.528 180.49 24.376L180.802 23.692C180.994 23.844 181.202 23.972 181.426 24.076C181.65 24.172 181.878 24.244 182.11 24.292C182.342 24.34 182.578 24.364 182.818 24.364C183.274 24.364 183.618 24.28 183.85 24.112C184.082 23.944 184.198 23.716 184.198 23.428C184.198 23.204 184.122 23.028 183.97 22.9C183.818 22.764 183.578 22.66 183.25 22.588L182.158 22.348C181.654 22.244 181.278 22.064 181.03 21.808C180.79 21.552 180.67 21.22 180.67 20.812C180.67 20.452 180.762 20.144 180.946 19.888C181.138 19.624 181.406 19.42 181.75 19.276C182.094 19.132 182.494 19.06 182.95 19.06C183.222 19.06 183.482 19.088 183.73 19.144C183.978 19.2 184.21 19.284 184.426 19.396C184.65 19.5 184.842 19.632 185.002 19.792L184.678 20.476C184.526 20.332 184.354 20.212 184.162 20.116C183.97 20.012 183.77 19.936 183.562 19.888C183.362 19.832 183.158 19.804 182.95 19.804C182.502 19.804 182.162 19.892 181.93 20.068C181.698 20.244 181.582 20.476 181.582 20.764C181.582 20.988 181.654 21.172 181.798 21.316C181.942 21.46 182.166 21.564 182.47 21.628L183.562 21.856C184.082 21.968 184.47 22.148 184.726 22.396C184.99 22.636 185.122 22.964 185.122 23.38C185.122 23.732 185.026 24.04 184.834 24.304C184.642 24.56 184.37 24.76 184.018 24.904C183.674 25.04 183.266 25.108 182.794 25.108ZM188.571 25.108C188.267 25.108 187.971 25.076 187.683 25.012C187.403 24.956 187.139 24.876 186.891 24.772C186.651 24.66 186.443 24.528 186.267 24.376L186.579 23.692C186.771 23.844 186.979 23.972 187.203 24.076C187.427 24.172 187.655 24.244 187.887 24.292C188.119 24.34 188.355 24.364 188.595 24.364C189.051 24.364 189.395 24.28 189.627 24.112C189.859 23.944 189.975 23.716 189.975 23.428C189.975 23.204 189.899 23.028 189.747 22.9C189.595 22.764 189.355 22.66 189.027 22.588L187.935 22.348C187.431 22.244 187.055 22.064 186.807 21.808C186.567 21.552 186.447 21.22 186.447 20.812C186.447 20.452 186.539 20.144 186.723 19.888C186.915 19.624 187.183 19.42 187.527 19.276C187.871 19.132 188.271 19.06 188.727 19.06C188.999 19.06 189.259 19.088 189.507 19.144C189.755 19.2 189.987 19.284 190.203 19.396C190.427 19.5 190.619 19.632 190.779 19.792L190.455 20.476C190.303 20.332 190.131 20.212 189.939 20.116C189.747 20.012 189.547 19.936 189.339 19.888C189.139 19.832 188.935 19.804 188.727 19.804C188.279 19.804 187.939 19.892 187.707 20.068C187.475 20.244 187.359 20.476 187.359 20.764C187.359 20.988 187.431 21.172 187.575 21.316C187.719 21.46 187.943 21.564 188.247 21.628L189.339 21.856C189.859 21.968 190.247 22.148 190.503 22.396C190.767 22.636 190.899 22.964 190.899 23.38C190.899 23.732 190.803 24.04 190.611 24.304C190.419 24.56 190.147 24.76 189.795 24.904C189.451 25.04 189.043 25.108 188.571 25.108ZM195.009 25.108C194.393 25.108 193.861 24.988 193.413 24.748C192.973 24.5 192.629 24.152 192.381 23.704C192.141 23.256 192.021 22.72 192.021 22.096C192.021 21.488 192.141 20.96 192.381 20.512C192.621 20.056 192.949 19.7 193.365 19.444C193.789 19.188 194.277 19.06 194.829 19.06C195.357 19.06 195.809 19.176 196.185 19.408C196.561 19.64 196.849 19.968 197.049 20.392C197.257 20.816 197.361 21.324 197.361 21.916V22.288H192.765V21.652H196.713L196.521 21.808C196.521 21.168 196.377 20.672 196.089 20.32C195.809 19.96 195.397 19.78 194.853 19.78C194.445 19.78 194.097 19.876 193.809 20.068C193.529 20.252 193.317 20.512 193.173 20.848C193.029 21.176 192.957 21.56 192.957 22V22.072C192.957 22.56 193.033 22.972 193.185 23.308C193.345 23.644 193.581 23.9 193.893 24.076C194.205 24.244 194.577 24.328 195.009 24.328C195.353 24.328 195.685 24.276 196.005 24.172C196.333 24.06 196.641 23.88 196.929 23.632L197.265 24.316C197.001 24.556 196.665 24.748 196.257 24.892C195.849 25.036 195.433 25.108 195.009 25.108ZM198.767 25V19.168H199.715V20.548H199.595C199.731 20.076 199.967 19.72 200.303 19.48C200.639 19.232 201.083 19.088 201.635 19.048L201.983 19.012L202.055 19.852L201.443 19.924C200.899 19.972 200.479 20.148 200.183 20.452C199.895 20.748 199.751 21.156 199.751 21.676V25H198.767ZM205.725 25.108C205.037 25.108 204.521 24.924 204.177 24.556C203.833 24.188 203.661 23.664 203.661 22.984V19.924H202.521V19.168H203.661V17.38H204.633V19.168H206.481V19.924H204.633V22.888C204.633 23.344 204.729 23.692 204.921 23.932C205.113 24.164 205.425 24.28 205.857 24.28C205.985 24.28 206.113 24.264 206.241 24.232C206.369 24.2 206.485 24.168 206.589 24.136L206.757 24.88C206.653 24.936 206.501 24.988 206.301 25.036C206.101 25.084 205.909 25.108 205.725 25.108ZM209.548 25.108C209.244 25.108 208.948 25.076 208.66 25.012C208.38 24.956 208.116 24.876 207.868 24.772C207.628 24.66 207.42 24.528 207.244 24.376L207.556 23.692C207.748 23.844 207.956 23.972 208.18 24.076C208.404 24.172 208.632 24.244 208.864 24.292C209.096 24.34 209.332 24.364 209.572 24.364C210.028 24.364 210.372 24.28 210.604 24.112C210.836 23.944 210.952 23.716 210.952 23.428C210.952 23.204 210.876 23.028 210.724 22.9C210.572 22.764 210.332 22.66 210.004 22.588L208.912 22.348C208.408 22.244 208.032 22.064 207.784 21.808C207.544 21.552 207.424 21.22 207.424 20.812C207.424 20.452 207.516 20.144 207.7 19.888C207.892 19.624 208.16 19.42 208.504 19.276C208.848 19.132 209.248 19.06 209.704 19.06C209.976 19.06 210.236 19.088 210.484 19.144C210.732 19.2 210.964 19.284 211.18 19.396C211.404 19.5 211.596 19.632 211.756 19.792L211.432 20.476C211.28 20.332 211.108 20.212 210.916 20.116C210.724 20.012 210.524 19.936 210.316 19.888C210.116 19.832 209.912 19.804 209.704 19.804C209.256 19.804 208.916 19.892 208.684 20.068C208.452 20.244 208.336 20.476 208.336 20.764C208.336 20.988 208.408 21.172 208.552 21.316C208.696 21.46 208.92 21.564 209.224 21.628L210.316 21.856C210.836 21.968 211.224 22.148 211.48 22.396C211.744 22.636 211.876 22.964 211.876 23.38C211.876 23.732 211.78 24.04 211.588 24.304C211.396 24.56 211.124 24.76 210.772 24.904C210.428 25.04 210.02 25.108 209.548 25.108ZM213.143 25V23.776H214.367V25H213.143Z" fill="white"/>
</svg>
