<svg width="312" height="29" viewBox="0 0 312 29" fill="none" xmlns="http://www.w3.org/2000/svg">
<path d="M0.0440001 10V1.54H2.9C3.82 1.54 4.596 1.704 5.228 2.032C5.868 2.352 6.352 2.828 6.68 3.46C7.016 4.084 7.184 4.852 7.184 5.764C7.184 6.676 7.016 7.448 6.68 8.08C6.352 8.712 5.868 9.192 5.228 9.52C4.596 9.84 3.82 10 2.9 10H0.0440001ZM1.028 9.16H2.828C3.94 9.16 4.768 8.876 5.312 8.308C5.864 7.74 6.14 6.892 6.14 5.764C6.14 4.636 5.864 3.792 5.312 3.232C4.76 2.664 3.932 2.38 2.828 2.38H1.028V9.16ZM10.8823 10.108C10.4103 10.108 10.0183 10.024 9.70625 9.856C9.40225 9.68 9.17025 9.42 9.01025 9.076C8.85825 8.732 8.78225 8.304 8.78225 7.792V4.168H9.75425V7.78C9.75425 8.124 9.79825 8.412 9.88625 8.644C9.98225 8.868 10.1303 9.036 10.3303 9.148C10.5303 9.252 10.7783 9.304 11.0742 9.304C11.4103 9.304 11.7023 9.228 11.9503 9.076C12.1983 8.924 12.3943 8.712 12.5383 8.44C12.6823 8.168 12.7543 7.848 12.7543 7.48V4.168H13.7263V10H12.7783V8.656H12.9343C12.7743 9.128 12.5103 9.488 12.1423 9.736C11.7823 9.984 11.3623 10.108 10.8823 10.108ZM15.5448 10V4.168H16.4928V5.548H16.3728C16.5088 5.076 16.7448 4.72 17.0808 4.48C17.4168 4.232 17.8608 4.088 18.4128 4.048L18.7608 4.012L18.8328 4.852L18.2208 4.924C17.6768 4.972 17.2568 5.148 16.9608 5.452C16.6728 5.748 16.5288 6.156 16.5288 6.676V10H15.5448ZM21.623 10.108C21.223 10.108 20.863 10.032 20.543 9.88C20.231 9.72 19.983 9.504 19.799 9.232C19.615 8.96 19.523 8.656 19.523 8.32C19.523 7.888 19.631 7.548 19.847 7.3C20.071 7.052 20.435 6.876 20.939 6.772C21.451 6.668 22.147 6.616 23.027 6.616H23.567V7.252H23.039C22.551 7.252 22.143 7.268 21.815 7.3C21.487 7.332 21.227 7.388 21.035 7.468C20.843 7.548 20.707 7.652 20.627 7.78C20.547 7.908 20.507 8.068 20.507 8.26C20.507 8.588 20.619 8.856 20.843 9.064C21.075 9.272 21.387 9.376 21.779 9.376C22.099 9.376 22.379 9.3 22.619 9.148C22.867 8.996 23.059 8.788 23.195 8.524C23.339 8.26 23.411 7.956 23.411 7.612V6.244C23.411 5.748 23.311 5.392 23.111 5.176C22.911 4.952 22.583 4.84 22.127 4.84C21.775 4.84 21.435 4.892 21.107 4.996C20.779 5.092 20.443 5.252 20.099 5.476L19.763 4.768C19.971 4.624 20.207 4.5 20.471 4.396C20.735 4.284 21.011 4.2 21.299 4.144C21.587 4.088 21.863 4.06 22.127 4.06C22.631 4.06 23.047 4.144 23.375 4.312C23.703 4.472 23.947 4.72 24.107 5.056C24.267 5.384 24.347 5.808 24.347 6.328V10H23.435V8.644H23.543C23.479 8.948 23.355 9.208 23.171 9.424C22.995 9.64 22.775 9.808 22.511 9.928C22.247 10.048 21.951 10.108 21.623 10.108ZM29.1023 10.108C28.5743 10.108 28.1183 9.972 27.7343 9.7C27.3583 9.428 27.1063 9.064 26.9783 8.608H27.0983V10H26.1503V1.54H27.1223V5.524H26.9783C27.1143 5.076 27.3703 4.72 27.7463 4.456C28.1223 4.192 28.5743 4.06 29.1023 4.06C29.6303 4.06 30.0863 4.184 30.4703 4.432C30.8543 4.672 31.1503 5.02 31.3583 5.476C31.5743 5.924 31.6823 6.46 31.6823 7.084C31.6823 7.7 31.5743 8.236 31.3583 8.692C31.1503 9.14 30.8503 9.488 30.4583 9.736C30.0743 9.984 29.6223 10.108 29.1023 10.108ZM28.8983 9.328C29.4503 9.328 29.8863 9.136 30.2063 8.752C30.5343 8.36 30.6983 7.804 30.6983 7.084C30.6983 6.356 30.5343 5.8 30.2063 5.416C29.8863 5.032 29.4503 4.84 28.8983 4.84C28.3543 4.84 27.9183 5.032 27.5903 5.416C27.2623 5.8 27.0983 6.356 27.0983 7.084C27.0983 7.804 27.2623 8.36 27.5903 8.752C27.9183 9.136 28.3543 9.328 28.8983 9.328ZM34.9344 10.108C34.3424 10.108 33.8944 9.932 33.5904 9.58C33.2944 9.228 33.1464 8.724 33.1464 8.068V1.54H34.1184V7.996C34.1184 8.276 34.1544 8.512 34.2264 8.704C34.3064 8.896 34.4224 9.04 34.5744 9.136C34.7264 9.232 34.9144 9.28 35.1384 9.28C35.2344 9.28 35.3264 9.276 35.4144 9.268C35.5104 9.252 35.5984 9.232 35.6784 9.208L35.6544 10.024C35.5264 10.048 35.4024 10.068 35.2824 10.084C35.1704 10.1 35.0544 10.108 34.9344 10.108ZM39.2666 10.108C38.6506 10.108 38.1186 9.988 37.6706 9.748C37.2306 9.5 36.8866 9.152 36.6386 8.704C36.3986 8.256 36.2786 7.72 36.2786 7.096C36.2786 6.488 36.3986 5.96 36.6386 5.512C36.8786 5.056 37.2066 4.7 37.6226 4.444C38.0466 4.188 38.5346 4.06 39.0866 4.06C39.6146 4.06 40.0666 4.176 40.4426 4.408C40.8186 4.64 41.1066 4.968 41.3066 5.392C41.5146 5.816 41.6186 6.324 41.6186 6.916V7.288H37.0226V6.652H40.9706L40.7786 6.808C40.7786 6.168 40.6346 5.672 40.3466 5.32C40.0666 4.96 39.6546 4.78 39.1106 4.78C38.7026 4.78 38.3546 4.876 38.0666 5.068C37.7866 5.252 37.5746 5.512 37.4306 5.848C37.2866 6.176 37.2146 6.56 37.2146 7V7.072C37.2146 7.56 37.2906 7.972 37.4426 8.308C37.6026 8.644 37.8386 8.9 38.1506 9.076C38.4626 9.244 38.8346 9.328 39.2666 9.328C39.6106 9.328 39.9426 9.276 40.2626 9.172C40.5906 9.06 40.8986 8.88 41.1866 8.632L41.5226 9.316C41.2586 9.556 40.9226 9.748 40.5146 9.892C40.1066 10.036 39.6906 10.108 39.2666 10.108ZM46.2753 10V9.256L49.1673 6.136C49.4393 5.84 49.6593 5.564 49.8273 5.308C49.9953 5.044 50.1193 4.788 50.1993 4.54C50.2793 4.292 50.3193 4.04 50.3193 3.784C50.3193 3.304 50.1713 2.94 49.8753 2.692C49.5873 2.436 49.1633 2.308 48.6033 2.308C48.1713 2.308 47.7673 2.388 47.3913 2.548C47.0233 2.7 46.6713 2.94 46.3353 3.268L45.9633 2.5C46.2753 2.18 46.6713 1.924 47.1513 1.732C47.6393 1.532 48.1513 1.432 48.6873 1.432C49.2553 1.432 49.7353 1.52 50.1273 1.696C50.5193 1.872 50.8153 2.132 51.0153 2.476C51.2153 2.812 51.3153 3.224 51.3153 3.712C51.3153 3.968 51.2833 4.22 51.2193 4.468C51.1633 4.708 51.0713 4.952 50.9433 5.2C50.8233 5.44 50.6673 5.688 50.4753 5.944C50.2913 6.2 50.0673 6.464 49.8033 6.736L47.2593 9.436V9.16H51.6633V10H46.2753ZM56.1706 10.108C55.8106 10.108 55.4586 10.068 55.1146 9.988C54.7706 9.908 54.4466 9.792 54.1426 9.64C53.8466 9.488 53.5826 9.308 53.3506 9.1L53.7226 8.32C54.1066 8.632 54.4946 8.864 54.8866 9.016C55.2866 9.16 55.7106 9.232 56.1586 9.232C56.7506 9.232 57.2106 9.068 57.5386 8.74C57.8746 8.412 58.0426 7.98 58.0426 7.444C58.0426 6.892 57.8826 6.44 57.5626 6.088C57.2426 5.736 56.8026 5.56 56.2426 5.56C55.8346 5.56 55.4746 5.644 55.1626 5.812C54.8586 5.972 54.5826 6.224 54.3346 6.568H53.6146V1.54H58.5226V2.38H54.5866V5.752H54.3226C54.5306 5.416 54.8186 5.16 55.1866 4.984C55.5546 4.8 55.9666 4.708 56.4226 4.708C56.9586 4.708 57.4186 4.82 57.8026 5.044C58.1946 5.268 58.4946 5.584 58.7026 5.992C58.9186 6.392 59.0266 6.86 59.0266 7.396C59.0266 7.924 58.9106 8.392 58.6786 8.8C58.4466 9.208 58.1186 9.528 57.6946 9.76C57.2706 9.992 56.7626 10.108 56.1706 10.108ZM63.1859 10.108C62.5459 10.108 62.0019 9.944 61.5539 9.616C61.1139 9.28 60.7819 8.788 60.5579 8.14C60.3339 7.492 60.2219 6.7 60.2219 5.764C60.2219 4.82 60.3339 4.028 60.5579 3.388C60.7819 2.74 61.1139 2.252 61.5539 1.924C62.0019 1.596 62.5459 1.432 63.1859 1.432C63.8339 1.432 64.3779 1.596 64.8179 1.924C65.2579 2.252 65.5899 2.736 65.8139 3.376C66.0379 4.016 66.1499 4.808 66.1499 5.752C66.1499 6.696 66.0379 7.492 65.8139 8.14C65.5899 8.788 65.2579 9.28 64.8179 9.616C64.3779 9.944 63.8339 10.108 63.1859 10.108ZM63.1859 9.256C63.8579 9.256 64.3539 8.972 64.6739 8.404C65.0019 7.836 65.1659 6.952 65.1659 5.752C65.1659 4.552 65.0059 3.676 64.6859 3.124C64.3659 2.564 63.8659 2.284 63.1859 2.284C62.5219 2.284 62.0259 2.564 61.6979 3.124C61.3699 3.684 61.2059 4.56 61.2059 5.752C61.2059 6.952 61.3659 7.836 61.6859 8.404C62.0139 8.972 62.5139 9.256 63.1859 9.256ZM67.7173 10V4.168H68.6653V5.464H68.5333C68.6293 5.168 68.7693 4.916 68.9533 4.708C69.1453 4.492 69.3693 4.332 69.6253 4.228C69.8893 4.116 70.1773 4.06 70.4893 4.06C70.9853 4.06 71.3853 4.18 71.6893 4.42C72.0013 4.652 72.2093 5.016 72.3133 5.512H72.1333C72.2773 5.064 72.5333 4.712 72.9013 4.456C73.2773 4.192 73.7133 4.06 74.2093 4.06C74.6493 4.06 75.0093 4.144 75.2893 4.312C75.5773 4.48 75.7933 4.736 75.9373 5.08C76.0813 5.416 76.1533 5.844 76.1533 6.364V10H75.1813V6.412C75.1813 5.876 75.0893 5.484 74.9053 5.236C74.7213 4.98 74.4093 4.852 73.9693 4.852C73.6573 4.852 73.3813 4.928 73.1413 5.08C72.9093 5.232 72.7293 5.448 72.6013 5.728C72.4813 6 72.4213 6.324 72.4213 6.7V10H71.4493V6.412C71.4493 5.876 71.3533 5.484 71.1613 5.236C70.9773 4.98 70.6693 4.852 70.2373 4.852C69.9173 4.852 69.6413 4.928 69.4093 5.08C69.1773 5.232 68.9973 5.448 68.8693 5.728C68.7493 6 68.6893 6.324 68.6893 6.7V10H67.7173ZM79.7586 10.108C79.1666 10.108 78.7186 9.932 78.4146 9.58C78.1186 9.228 77.9706 8.724 77.9706 8.068V1.54H78.9426V7.996C78.9426 8.276 78.9786 8.512 79.0506 8.704C79.1306 8.896 79.2466 9.04 79.3986 9.136C79.5506 9.232 79.7386 9.28 79.9626 9.28C80.0586 9.28 80.1506 9.276 80.2386 9.268C80.3346 9.252 80.4226 9.232 80.5026 9.208L80.4786 10.024C80.3506 10.048 80.2266 10.068 80.1066 10.084C79.9946 10.1 79.8786 10.108 79.7586 10.108ZM84.7354 10V1.54H88.0834C88.9874 1.54 89.6834 1.752 90.1714 2.176C90.6594 2.6 90.9034 3.204 90.9034 3.988C90.9034 4.484 90.7914 4.916 90.5674 5.284C90.3514 5.644 90.0314 5.92 89.6074 6.112C89.1834 6.296 88.6754 6.388 88.0834 6.388L88.2034 6.232H88.4434C88.7554 6.232 89.0274 6.312 89.2594 6.472C89.4914 6.632 89.7034 6.888 89.8954 7.24L91.3834 10H90.3034L88.8394 7.288C88.7194 7.064 88.5834 6.888 88.4314 6.76C88.2874 6.632 88.1194 6.544 87.9274 6.496C87.7434 6.448 87.5194 6.424 87.2554 6.424H85.7194V10H84.7354ZM85.7194 5.644H87.9394C88.5954 5.644 89.0914 5.508 89.4274 5.236C89.7634 4.956 89.9314 4.54 89.9314 3.988C89.9314 3.452 89.7634 3.048 89.4274 2.776C89.0914 2.496 88.5954 2.356 87.9394 2.356H85.7194V5.644ZM94.9258 10.108C94.3578 10.108 93.8658 9.984 93.4498 9.736C93.0338 9.488 92.7098 9.14 92.4778 8.692C92.2538 8.236 92.1418 7.7 92.1418 7.084C92.1418 6.468 92.2538 5.936 92.4778 5.488C92.7098 5.032 93.0338 4.68 93.4498 4.432C93.8658 4.184 94.3578 4.06 94.9258 4.06C95.4938 4.06 95.9858 4.184 96.4018 4.432C96.8178 4.68 97.1378 5.032 97.3618 5.488C97.5938 5.936 97.7098 6.468 97.7098 7.084C97.7098 7.7 97.5938 8.236 97.3618 8.692C97.1378 9.14 96.8178 9.488 96.4018 9.736C95.9858 9.984 95.4938 10.108 94.9258 10.108ZM94.9258 9.328C95.4778 9.328 95.9138 9.136 96.2338 8.752C96.5618 8.36 96.7258 7.8 96.7258 7.072C96.7258 6.352 96.5618 5.8 96.2338 5.416C95.9138 5.032 95.4778 4.84 94.9258 4.84C94.3818 4.84 93.9458 5.032 93.6178 5.416C93.2898 5.8 93.1258 6.352 93.1258 7.072C93.1258 7.8 93.2898 8.36 93.6178 8.752C93.9458 9.136 94.3818 9.328 94.9258 9.328ZM101.234 10.108C100.762 10.108 100.37 10.024 100.058 9.856C99.7538 9.68 99.5218 9.42 99.3618 9.076C99.2098 8.732 99.1338 8.304 99.1338 7.792V4.168H100.106V7.78C100.106 8.124 100.15 8.412 100.238 8.644C100.334 8.868 100.482 9.036 100.682 9.148C100.882 9.252 101.13 9.304 101.426 9.304C101.762 9.304 102.054 9.228 102.302 9.076C102.55 8.924 102.746 8.712 102.89 8.44C103.034 8.168 103.106 7.848 103.106 7.48V4.168H104.078V10H103.13V8.656H103.286C103.126 9.128 102.862 9.488 102.494 9.736C102.134 9.984 101.714 10.108 101.234 10.108ZM105.896 10V4.168H106.844V5.464H106.712C106.88 5 107.152 4.652 107.528 4.42C107.912 4.18 108.352 4.06 108.848 4.06C109.312 4.06 109.696 4.144 110 4.312C110.312 4.472 110.544 4.724 110.696 5.068C110.848 5.412 110.924 5.844 110.924 6.364V10H109.952V6.424C109.952 6.064 109.904 5.768 109.808 5.536C109.72 5.304 109.576 5.132 109.376 5.02C109.184 4.908 108.932 4.852 108.62 4.852C108.268 4.852 107.96 4.928 107.696 5.08C107.432 5.232 107.228 5.444 107.084 5.716C106.94 5.988 106.868 6.308 106.868 6.676V10H105.896ZM114.937 10.108C114.417 10.108 113.961 9.984 113.569 9.736C113.185 9.488 112.885 9.14 112.669 8.692C112.461 8.236 112.357 7.7 112.357 7.084C112.357 6.46 112.461 5.924 112.669 5.476C112.885 5.02 113.185 4.672 113.569 4.432C113.961 4.184 114.417 4.06 114.937 4.06C115.465 4.06 115.917 4.192 116.293 4.456C116.669 4.72 116.921 5.076 117.049 5.524H116.917V1.54H117.889V10H116.941V8.608H117.061C116.933 9.064 116.677 9.428 116.293 9.7C115.917 9.972 115.465 10.108 114.937 10.108ZM115.141 9.328C115.693 9.328 116.129 9.136 116.449 8.752C116.777 8.36 116.941 7.804 116.941 7.084C116.941 6.356 116.777 5.8 116.449 5.416C116.129 5.032 115.693 4.84 115.141 4.84C114.597 4.84 114.161 5.032 113.833 5.416C113.505 5.8 113.341 6.356 113.341 7.084C113.341 7.804 113.505 8.36 113.833 8.752C114.161 9.136 114.597 9.328 115.141 9.328ZM126.587 10.108C125.755 10.108 125.043 9.932 124.451 9.58C123.859 9.228 123.403 8.728 123.083 8.08C122.771 7.432 122.615 6.66 122.615 5.764C122.615 4.868 122.771 4.1 123.083 3.46C123.403 2.812 123.859 2.312 124.451 1.96C125.043 1.608 125.755 1.432 126.587 1.432C127.171 1.432 127.711 1.524 128.207 1.708C128.703 1.892 129.119 2.16 129.455 2.512L129.071 3.316C128.703 2.972 128.319 2.724 127.919 2.572C127.527 2.412 127.091 2.332 126.611 2.332C125.659 2.332 124.931 2.632 124.427 3.232C123.923 3.832 123.671 4.676 123.671 5.764C123.671 6.852 123.923 7.7 124.427 8.308C124.931 8.908 125.659 9.208 126.611 9.208C127.091 9.208 127.527 9.132 127.919 8.98C128.319 8.82 128.703 8.568 129.071 8.224L129.455 9.028C129.119 9.372 128.703 9.64 128.207 9.832C127.711 10.016 127.171 10.108 126.587 10.108ZM132.871 10.108C132.303 10.108 131.811 9.984 131.395 9.736C130.979 9.488 130.655 9.14 130.423 8.692C130.199 8.236 130.087 7.7 130.087 7.084C130.087 6.468 130.199 5.936 130.423 5.488C130.655 5.032 130.979 4.68 131.395 4.432C131.811 4.184 132.303 4.06 132.871 4.06C133.439 4.06 133.931 4.184 134.347 4.432C134.763 4.68 135.083 5.032 135.307 5.488C135.539 5.936 135.655 6.468 135.655 7.084C135.655 7.7 135.539 8.236 135.307 8.692C135.083 9.14 134.763 9.488 134.347 9.736C133.931 9.984 133.439 10.108 132.871 10.108ZM132.871 9.328C133.423 9.328 133.859 9.136 134.179 8.752C134.507 8.36 134.671 7.8 134.671 7.072C134.671 6.352 134.507 5.8 134.179 5.416C133.859 5.032 133.423 4.84 132.871 4.84C132.327 4.84 131.891 5.032 131.563 5.416C131.235 5.8 131.071 6.352 131.071 7.072C131.071 7.8 131.235 8.36 131.563 8.752C131.891 9.136 132.327 9.328 132.871 9.328ZM137.115 10V4.168H138.063V5.464H137.931C138.099 5 138.371 4.652 138.747 4.42C139.131 4.18 139.571 4.06 140.067 4.06C140.531 4.06 140.915 4.144 141.219 4.312C141.531 4.472 141.763 4.724 141.915 5.068C142.067 5.412 142.143 5.844 142.143 6.364V10H141.171V6.424C141.171 6.064 141.123 5.768 141.027 5.536C140.939 5.304 140.795 5.132 140.595 5.02C140.403 4.908 140.151 4.852 139.839 4.852C139.487 4.852 139.179 4.928 138.915 5.08C138.651 5.232 138.447 5.444 138.303 5.716C138.159 5.988 138.087 6.308 138.087 6.676V10H137.115ZM146.275 10.108C145.587 10.108 145.071 9.924 144.727 9.556C144.383 9.188 144.211 8.664 144.211 7.984V4.924H143.071V4.168H144.211V2.38H145.183V4.168H147.031V4.924H145.183V7.888C145.183 8.344 145.279 8.692 145.471 8.932C145.663 9.164 145.975 9.28 146.407 9.28C146.535 9.28 146.663 9.264 146.791 9.232C146.919 9.2 147.035 9.168 147.139 9.136L147.307 9.88C147.203 9.936 147.051 9.988 146.851 10.036C146.651 10.084 146.459 10.108 146.275 10.108ZM149.967 10.108C149.567 10.108 149.207 10.032 148.887 9.88C148.575 9.72 148.327 9.504 148.143 9.232C147.959 8.96 147.867 8.656 147.867 8.32C147.867 7.888 147.975 7.548 148.191 7.3C148.415 7.052 148.779 6.876 149.283 6.772C149.795 6.668 150.491 6.616 151.371 6.616H151.911V7.252H151.383C150.895 7.252 150.487 7.268 150.159 7.3C149.831 7.332 149.571 7.388 149.379 7.468C149.187 7.548 149.051 7.652 148.971 7.78C148.891 7.908 148.851 8.068 148.851 8.26C148.851 8.588 148.963 8.856 149.187 9.064C149.419 9.272 149.731 9.376 150.123 9.376C150.443 9.376 150.723 9.3 150.963 9.148C151.211 8.996 151.403 8.788 151.539 8.524C151.683 8.26 151.755 7.956 151.755 7.612V6.244C151.755 5.748 151.655 5.392 151.455 5.176C151.255 4.952 150.927 4.84 150.471 4.84C150.119 4.84 149.779 4.892 149.451 4.996C149.123 5.092 148.787 5.252 148.443 5.476L148.107 4.768C148.315 4.624 148.551 4.5 148.815 4.396C149.079 4.284 149.355 4.2 149.643 4.144C149.931 4.088 150.207 4.06 150.471 4.06C150.975 4.06 151.391 4.144 151.719 4.312C152.047 4.472 152.291 4.72 152.451 5.056C152.611 5.384 152.691 5.808 152.691 6.328V10H151.779V8.644H151.887C151.823 8.948 151.699 9.208 151.515 9.424C151.339 9.64 151.119 9.808 150.855 9.928C150.591 10.048 150.295 10.108 149.967 10.108ZM154.374 2.716V1.624H155.574V2.716H154.374ZM154.494 10V4.168H155.466V10H154.494ZM157.283 10V4.168H158.231V5.464H158.099C158.267 5 158.539 4.652 158.915 4.42C159.299 4.18 159.739 4.06 160.235 4.06C160.699 4.06 161.083 4.144 161.387 4.312C161.699 4.472 161.931 4.724 162.083 5.068C162.235 5.412 162.311 5.844 162.311 6.364V10H161.339V6.424C161.339 6.064 161.291 5.768 161.195 5.536C161.107 5.304 160.963 5.132 160.763 5.02C160.571 4.908 160.319 4.852 160.007 4.852C159.655 4.852 159.347 4.928 159.083 5.08C158.819 5.232 158.615 5.444 158.471 5.716C158.327 5.988 158.255 6.308 158.255 6.676V10H157.283ZM166.731 10.108C166.115 10.108 165.583 9.988 165.135 9.748C164.695 9.5 164.351 9.152 164.103 8.704C163.863 8.256 163.743 7.72 163.743 7.096C163.743 6.488 163.863 5.96 164.103 5.512C164.343 5.056 164.671 4.7 165.087 4.444C165.511 4.188 165.999 4.06 166.551 4.06C167.079 4.06 167.531 4.176 167.907 4.408C168.283 4.64 168.571 4.968 168.771 5.392C168.979 5.816 169.083 6.324 169.083 6.916V7.288H164.487V6.652H168.435L168.243 6.808C168.243 6.168 168.099 5.672 167.811 5.32C167.531 4.96 167.119 4.78 166.575 4.78C166.167 4.78 165.819 4.876 165.531 5.068C165.251 5.252 165.039 5.512 164.895 5.848C164.751 6.176 164.679 6.56 164.679 7V7.072C164.679 7.56 164.755 7.972 164.907 8.308C165.067 8.644 165.303 8.9 165.615 9.076C165.927 9.244 166.299 9.328 166.731 9.328C167.075 9.328 167.407 9.276 167.727 9.172C168.055 9.06 168.363 8.88 168.651 8.632L168.987 9.316C168.723 9.556 168.387 9.748 167.979 9.892C167.571 10.036 167.155 10.108 166.731 10.108ZM170.49 10V4.168H171.438V5.548H171.318C171.454 5.076 171.69 4.72 172.026 4.48C172.362 4.232 172.806 4.088 173.358 4.048L173.706 4.012L173.778 4.852L173.166 4.924C172.622 4.972 172.202 5.148 171.906 5.452C171.618 5.748 171.474 6.156 171.474 6.676V10H170.49ZM174.893 11.368L174.437 11.02C174.581 10.868 174.689 10.724 174.761 10.588C174.841 10.46 174.893 10.328 174.917 10.192C174.949 10.064 174.965 9.932 174.965 9.796L175.181 10H174.389V8.776H175.613V9.64C175.613 9.856 175.589 10.06 175.541 10.252C175.501 10.452 175.429 10.644 175.325 10.828C175.221 11.012 175.077 11.192 174.893 11.368ZM180.513 10V1.54H181.341L184.773 7.984H184.413L187.821 1.54H188.649V10H187.737V2.86H188.025L184.917 8.692H184.269L181.125 2.848H181.413V10H180.513ZM190.503 2.716V1.624H191.703V2.716H190.503ZM190.623 10V4.168H191.595V10H190.623ZM195.884 10.108C195.3 10.108 194.796 9.98 194.372 9.724C193.948 9.468 193.62 9.112 193.388 8.656C193.164 8.192 193.052 7.656 193.052 7.048C193.052 6.432 193.164 5.9 193.388 5.452C193.62 5.004 193.948 4.66 194.372 4.42C194.796 4.18 195.3 4.06 195.884 4.06C196.244 4.06 196.6 4.124 196.952 4.252C197.304 4.38 197.596 4.56 197.828 4.792L197.492 5.5C197.26 5.276 197.004 5.112 196.724 5.008C196.452 4.904 196.192 4.852 195.944 4.852C195.336 4.852 194.868 5.044 194.54 5.428C194.212 5.804 194.048 6.348 194.048 7.06C194.048 7.756 194.212 8.308 194.54 8.716C194.868 9.116 195.336 9.316 195.944 9.316C196.192 9.316 196.452 9.264 196.724 9.16C197.004 9.056 197.26 8.888 197.492 8.656L197.828 9.364C197.596 9.596 197.3 9.78 196.94 9.916C196.588 10.044 196.236 10.108 195.884 10.108ZM198.967 10V4.168H199.915V5.548H199.795C199.931 5.076 200.167 4.72 200.503 4.48C200.839 4.232 201.283 4.088 201.835 4.048L202.183 4.012L202.255 4.852L201.643 4.924C201.099 4.972 200.679 5.148 200.383 5.452C200.095 5.748 199.951 6.156 199.951 6.676V10H198.967ZM205.621 10.108C205.053 10.108 204.561 9.984 204.145 9.736C203.729 9.488 203.405 9.14 203.173 8.692C202.949 8.236 202.837 7.7 202.837 7.084C202.837 6.468 202.949 5.936 203.173 5.488C203.405 5.032 203.729 4.68 204.145 4.432C204.561 4.184 205.053 4.06 205.621 4.06C206.189 4.06 206.681 4.184 207.097 4.432C207.513 4.68 207.833 5.032 208.057 5.488C208.289 5.936 208.405 6.468 208.405 7.084C208.405 7.7 208.289 8.236 208.057 8.692C207.833 9.14 207.513 9.488 207.097 9.736C206.681 9.984 206.189 10.108 205.621 10.108ZM205.621 9.328C206.173 9.328 206.609 9.136 206.929 8.752C207.257 8.36 207.421 7.8 207.421 7.072C207.421 6.352 207.257 5.8 206.929 5.416C206.609 5.032 206.173 4.84 205.621 4.84C205.077 4.84 204.641 5.032 204.313 5.416C203.985 5.8 203.821 6.352 203.821 7.072C203.821 7.8 203.985 8.36 204.313 8.752C204.641 9.136 205.077 9.328 205.621 9.328ZM211.331 10L209.159 4.168H210.179L211.967 9.28H211.679L213.527 4.168H214.355L216.167 9.28H215.891L217.703 4.168H218.675L216.491 10H215.567L213.659 4.756H214.175L212.267 10H211.331ZM221.592 10.108C221.192 10.108 220.832 10.032 220.512 9.88C220.2 9.72 219.952 9.504 219.768 9.232C219.584 8.96 219.492 8.656 219.492 8.32C219.492 7.888 219.6 7.548 219.816 7.3C220.04 7.052 220.404 6.876 220.908 6.772C221.42 6.668 222.116 6.616 222.996 6.616H223.536V7.252H223.008C222.52 7.252 222.112 7.268 221.784 7.3C221.456 7.332 221.196 7.388 221.004 7.468C220.812 7.548 220.676 7.652 220.596 7.78C220.516 7.908 220.476 8.068 220.476 8.26C220.476 8.588 220.588 8.856 220.812 9.064C221.044 9.272 221.356 9.376 221.748 9.376C222.068 9.376 222.348 9.3 222.588 9.148C222.836 8.996 223.028 8.788 223.164 8.524C223.308 8.26 223.38 7.956 223.38 7.612V6.244C223.38 5.748 223.28 5.392 223.08 5.176C222.88 4.952 222.552 4.84 222.096 4.84C221.744 4.84 221.404 4.892 221.076 4.996C220.748 5.092 220.412 5.252 220.068 5.476L219.732 4.768C219.94 4.624 220.176 4.5 220.44 4.396C220.704 4.284 220.98 4.2 221.268 4.144C221.556 4.088 221.832 4.06 222.096 4.06C222.6 4.06 223.016 4.144 223.344 4.312C223.672 4.472 223.916 4.72 224.076 5.056C224.236 5.384 224.316 5.808 224.316 6.328V10H223.404V8.644H223.512C223.448 8.948 223.324 9.208 223.14 9.424C222.964 9.64 222.744 9.808 222.48 9.928C222.216 10.048 221.92 10.108 221.592 10.108ZM227.776 10L225.268 4.168H226.324L228.412 9.28H228.088L230.212 4.168H231.208L228.688 10H227.776ZM234.782 10.108C234.166 10.108 233.634 9.988 233.186 9.748C232.746 9.5 232.402 9.152 232.154 8.704C231.914 8.256 231.794 7.72 231.794 7.096C231.794 6.488 231.914 5.96 232.154 5.512C232.394 5.056 232.722 4.7 233.138 4.444C233.562 4.188 234.05 4.06 234.602 4.06C235.13 4.06 235.582 4.176 235.958 4.408C236.334 4.64 236.622 4.968 236.822 5.392C237.03 5.816 237.134 6.324 237.134 6.916V7.288H232.538V6.652H236.486L236.294 6.808C236.294 6.168 236.15 5.672 235.862 5.32C235.582 4.96 235.17 4.78 234.626 4.78C234.218 4.78 233.87 4.876 233.582 5.068C233.302 5.252 233.09 5.512 232.946 5.848C232.802 6.176 232.73 6.56 232.73 7V7.072C232.73 7.56 232.806 7.972 232.958 8.308C233.118 8.644 233.354 8.9 233.666 9.076C233.978 9.244 234.35 9.328 234.782 9.328C235.126 9.328 235.458 9.276 235.778 9.172C236.106 9.06 236.414 8.88 236.702 8.632L237.038 9.316C236.774 9.556 236.438 9.748 236.03 9.892C235.622 10.036 235.206 10.108 234.782 10.108ZM238.204 10.756L237.436 10.528L240.508 0.976L241.288 1.204L238.204 10.756ZM242.107 10V1.54H247.339V2.368H243.091V5.32H247.099V6.148H243.091V10H242.107ZM248.432 10V4.168H249.38V5.548H249.26C249.396 5.076 249.632 4.72 249.968 4.48C250.304 4.232 250.748 4.088 251.3 4.048L251.648 4.012L251.72 4.852L251.108 4.924C250.564 4.972 250.144 5.148 249.848 5.452C249.56 5.748 249.416 6.156 249.416 6.676V10H248.432ZM255.29 10.108C254.674 10.108 254.142 9.988 253.694 9.748C253.254 9.5 252.91 9.152 252.662 8.704C252.422 8.256 252.302 7.72 252.302 7.096C252.302 6.488 252.422 5.96 252.662 5.512C252.902 5.056 253.23 4.7 253.646 4.444C254.07 4.188 254.558 4.06 255.11 4.06C255.638 4.06 256.09 4.176 256.466 4.408C256.842 4.64 257.13 4.968 257.33 5.392C257.538 5.816 257.642 6.324 257.642 6.916V7.288H253.046V6.652H256.994L256.802 6.808C256.802 6.168 256.658 5.672 256.37 5.32C256.09 4.96 255.678 4.78 255.134 4.78C254.726 4.78 254.378 4.876 254.09 5.068C253.81 5.252 253.598 5.512 253.454 5.848C253.31 6.176 253.238 6.56 253.238 7V7.072C253.238 7.56 253.314 7.972 253.466 8.308C253.626 8.644 253.862 8.9 254.174 9.076C254.486 9.244 254.858 9.328 255.29 9.328C255.634 9.328 255.966 9.276 256.286 9.172C256.614 9.06 256.922 8.88 257.21 8.632L257.546 9.316C257.282 9.556 256.946 9.748 256.538 9.892C256.13 10.036 255.714 10.108 255.29 10.108ZM261.677 10.108C261.061 10.108 260.529 9.988 260.081 9.748C259.641 9.5 259.297 9.152 259.049 8.704C258.809 8.256 258.689 7.72 258.689 7.096C258.689 6.488 258.809 5.96 259.049 5.512C259.289 5.056 259.617 4.7 260.033 4.444C260.457 4.188 260.945 4.06 261.497 4.06C262.025 4.06 262.477 4.176 262.853 4.408C263.229 4.64 263.517 4.968 263.717 5.392C263.925 5.816 264.029 6.324 264.029 6.916V7.288H259.433V6.652H263.381L263.189 6.808C263.189 6.168 263.045 5.672 262.757 5.32C262.477 4.96 262.065 4.78 261.521 4.78C261.113 4.78 260.765 4.876 260.477 5.068C260.197 5.252 259.985 5.512 259.841 5.848C259.697 6.176 259.625 6.56 259.625 7V7.072C259.625 7.56 259.701 7.972 259.853 8.308C260.013 8.644 260.249 8.9 260.561 9.076C260.873 9.244 261.245 9.328 261.677 9.328C262.021 9.328 262.353 9.276 262.673 9.172C263.001 9.06 263.309 8.88 263.597 8.632L263.933 9.316C263.669 9.556 263.333 9.748 262.925 9.892C262.517 10.036 262.101 10.108 261.677 10.108ZM265.16 10V9.352L268.676 4.672V4.924H265.16V4.168H269.576V4.816L266.024 9.52V9.244H269.708V10H265.16ZM273.478 10.108C272.862 10.108 272.33 9.988 271.882 9.748C271.442 9.5 271.098 9.152 270.85 8.704C270.61 8.256 270.49 7.72 270.49 7.096C270.49 6.488 270.61 5.96 270.85 5.512C271.09 5.056 271.418 4.7 271.834 4.444C272.258 4.188 272.746 4.06 273.298 4.06C273.826 4.06 274.278 4.176 274.654 4.408C275.03 4.64 275.318 4.968 275.518 5.392C275.726 5.816 275.83 6.324 275.83 6.916V7.288H271.234V6.652H275.182L274.99 6.808C274.99 6.168 274.846 5.672 274.558 5.32C274.278 4.96 273.866 4.78 273.322 4.78C272.914 4.78 272.566 4.876 272.278 5.068C271.998 5.252 271.786 5.512 271.642 5.848C271.498 6.176 271.426 6.56 271.426 7V7.072C271.426 7.56 271.502 7.972 271.654 8.308C271.814 8.644 272.05 8.9 272.362 9.076C272.674 9.244 273.046 9.328 273.478 9.328C273.822 9.328 274.154 9.276 274.474 9.172C274.802 9.06 275.11 8.88 275.398 8.632L275.734 9.316C275.47 9.556 275.134 9.748 274.726 9.892C274.318 10.036 273.902 10.108 273.478 10.108ZM277.236 10V4.168H278.184V5.548H278.064C278.2 5.076 278.436 4.72 278.772 4.48C279.108 4.232 279.552 4.088 280.104 4.048L280.452 4.012L280.524 4.852L279.912 4.924C279.368 4.972 278.948 5.148 278.652 5.452C278.364 5.748 278.22 6.156 278.22 6.676V10H277.236ZM281.208 7.204V6.4H284.568V7.204H281.208ZM288.975 10.108C288.535 10.108 288.119 10.068 287.727 9.988C287.343 9.908 286.987 9.796 286.659 9.652C286.339 9.5 286.047 9.316 285.783 9.1L286.131 8.308C286.403 8.508 286.679 8.68 286.959 8.824C287.247 8.96 287.555 9.064 287.883 9.136C288.219 9.2 288.583 9.232 288.975 9.232C289.695 9.232 290.227 9.1 290.571 8.836C290.923 8.564 291.099 8.208 291.099 7.768C291.099 7.536 291.043 7.336 290.931 7.168C290.827 7 290.651 6.856 290.403 6.736C290.163 6.616 289.847 6.516 289.455 6.436L288.207 6.184C287.455 6.024 286.891 5.764 286.515 5.404C286.147 5.036 285.963 4.548 285.963 3.94C285.963 3.436 286.091 2.996 286.347 2.62C286.611 2.244 286.975 1.952 287.439 1.744C287.911 1.536 288.447 1.432 289.047 1.432C289.431 1.432 289.795 1.472 290.139 1.552C290.483 1.632 290.799 1.752 291.087 1.912C291.383 2.064 291.643 2.252 291.867 2.476L291.519 3.244C291.159 2.916 290.779 2.68 290.379 2.536C289.979 2.384 289.531 2.308 289.035 2.308C288.611 2.308 288.243 2.372 287.931 2.5C287.627 2.628 287.387 2.816 287.211 3.064C287.043 3.304 286.959 3.584 286.959 3.904C286.959 4.288 287.075 4.592 287.307 4.816C287.547 5.04 287.935 5.204 288.471 5.308L289.719 5.572C290.527 5.74 291.123 5.996 291.507 6.34C291.899 6.676 292.095 7.136 292.095 7.72C292.095 8.184 291.967 8.6 291.711 8.968C291.463 9.328 291.103 9.608 290.631 9.808C290.167 10.008 289.615 10.108 288.975 10.108ZM295.326 10.108C294.926 10.108 294.566 10.032 294.246 9.88C293.934 9.72 293.686 9.504 293.502 9.232C293.318 8.96 293.226 8.656 293.226 8.32C293.226 7.888 293.334 7.548 293.55 7.3C293.774 7.052 294.138 6.876 294.642 6.772C295.154 6.668 295.85 6.616 296.73 6.616H297.27V7.252H296.742C296.254 7.252 295.846 7.268 295.518 7.3C295.19 7.332 294.93 7.388 294.738 7.468C294.546 7.548 294.41 7.652 294.33 7.78C294.25 7.908 294.21 8.068 294.21 8.26C294.21 8.588 294.322 8.856 294.546 9.064C294.778 9.272 295.09 9.376 295.482 9.376C295.802 9.376 296.082 9.3 296.322 9.148C296.57 8.996 296.762 8.788 296.898 8.524C297.042 8.26 297.114 7.956 297.114 7.612V6.244C297.114 5.748 297.014 5.392 296.814 5.176C296.614 4.952 296.286 4.84 295.83 4.84C295.478 4.84 295.138 4.892 294.81 4.996C294.482 5.092 294.146 5.252 293.802 5.476L293.466 4.768C293.674 4.624 293.91 4.5 294.174 4.396C294.438 4.284 294.714 4.2 295.002 4.144C295.29 4.088 295.566 4.06 295.83 4.06C296.334 4.06 296.75 4.144 297.078 4.312C297.406 4.472 297.65 4.72 297.81 5.056C297.97 5.384 298.05 5.808 298.05 6.328V10H297.138V8.644H297.246C297.182 8.948 297.058 9.208 296.874 9.424C296.698 9.64 296.478 9.808 296.214 9.928C295.95 10.048 295.654 10.108 295.326 10.108ZM300.165 10V4.924H299.013V4.168H300.429L300.165 4.42V3.964C300.165 3.188 300.357 2.6 300.741 2.2C301.133 1.8 301.733 1.576 302.541 1.528L303.009 1.504L303.093 2.248L302.541 2.284C302.213 2.308 301.945 2.38 301.737 2.5C301.529 2.62 301.377 2.792 301.281 3.016C301.185 3.24 301.137 3.516 301.137 3.844V4.348L300.993 4.168H302.817V4.924H301.137V10H300.165ZM306.313 10.108C305.697 10.108 305.165 9.988 304.717 9.748C304.277 9.5 303.933 9.152 303.685 8.704C303.445 8.256 303.325 7.72 303.325 7.096C303.325 6.488 303.445 5.96 303.685 5.512C303.925 5.056 304.253 4.7 304.669 4.444C305.093 4.188 305.581 4.06 306.133 4.06C306.661 4.06 307.113 4.176 307.489 4.408C307.865 4.64 308.153 4.968 308.353 5.392C308.561 5.816 308.665 6.324 308.665 6.916V7.288H304.069V6.652H308.017L307.825 6.808C307.825 6.168 307.681 5.672 307.393 5.32C307.113 4.96 306.701 4.78 306.157 4.78C305.749 4.78 305.401 4.876 305.113 5.068C304.833 5.252 304.621 5.512 304.477 5.848C304.333 6.176 304.261 6.56 304.261 7V7.072C304.261 7.56 304.337 7.972 304.489 8.308C304.649 8.644 304.885 8.9 305.197 9.076C305.509 9.244 305.881 9.328 306.313 9.328C306.657 9.328 306.989 9.276 307.309 9.172C307.637 9.06 307.945 8.88 308.233 8.632L308.569 9.316C308.305 9.556 307.969 9.748 307.561 9.892C307.153 10.036 306.737 10.108 306.313 10.108ZM310.42 11.368L309.964 11.02C310.108 10.868 310.216 10.724 310.288 10.588C310.368 10.46 310.42 10.328 310.444 10.192C310.476 10.064 310.492 9.932 310.492 9.796L310.708 10H309.916V8.776H311.14V9.64C311.14 9.856 311.116 10.06 311.068 10.252C311.028 10.452 310.956 10.644 310.852 10.828C310.748 11.012 310.604 11.192 310.42 11.368ZM0.0440001 26V17.54H3.392C4 17.54 4.512 17.64 4.928 17.84C5.352 18.032 5.672 18.32 5.888 18.704C6.104 19.08 6.212 19.54 6.212 20.084C6.212 20.612 6.104 21.068 5.888 21.452C5.672 21.836 5.352 22.128 4.928 22.328C4.512 22.528 4 22.628 3.392 22.628H1.028V26H0.0440001ZM1.028 21.8H3.272C3.92 21.8 4.408 21.656 4.736 21.368C5.072 21.072 5.24 20.644 5.24 20.084C5.24 19.516 5.072 19.088 4.736 18.8C4.408 18.504 3.92 18.356 3.272 18.356H1.028V21.8ZM9.87594 26.108C9.25994 26.108 8.72794 25.988 8.27994 25.748C7.83994 25.5 7.49594 25.152 7.24794 24.704C7.00794 24.256 6.88794 23.72 6.88794 23.096C6.88794 22.488 7.00794 21.96 7.24794 21.512C7.48794 21.056 7.81594 20.7 8.23194 20.444C8.65594 20.188 9.14394 20.06 9.69594 20.06C10.2239 20.06 10.6759 20.176 11.0519 20.408C11.4279 20.64 11.7159 20.968 11.9159 21.392C12.1239 21.816 12.2279 22.324 12.2279 22.916V23.288H7.63194V22.652H11.5799L11.3879 22.808C11.3879 22.168 11.2439 21.672 10.9559 21.32C10.6759 20.96 10.2639 20.78 9.71994 20.78C9.31194 20.78 8.96394 20.876 8.67594 21.068C8.39594 21.252 8.18394 21.512 8.03994 21.848C7.89594 22.176 7.82394 22.56 7.82394 23V23.072C7.82394 23.56 7.89994 23.972 8.05194 24.308C8.21194 24.644 8.44794 24.9 8.75994 25.076C9.07194 25.244 9.44394 25.328 9.87594 25.328C10.2199 25.328 10.5519 25.276 10.8719 25.172C11.1999 25.06 11.5079 24.88 11.7959 24.632L12.1319 25.316C11.8679 25.556 11.5319 25.748 11.1239 25.892C10.7159 26.036 10.2999 26.108 9.87594 26.108ZM13.6347 26V20.168H14.5827V21.548H14.4627C14.5987 21.076 14.8347 20.72 15.1707 20.48C15.5067 20.232 15.9507 20.088 16.5027 20.048L16.8507 20.012L16.9227 20.852L16.3107 20.924C15.7667 20.972 15.3467 21.148 15.0507 21.452C14.7627 21.748 14.6187 22.156 14.6187 22.676V26H13.6347ZM18.5638 26V20.924H17.4118V20.168H18.8278L18.5638 20.42V19.964C18.5638 19.188 18.7558 18.6 19.1398 18.2C19.5318 17.8 20.1318 17.576 20.9398 17.528L21.4078 17.504L21.4918 18.248L20.9398 18.284C20.6118 18.308 20.3438 18.38 20.1358 18.5C19.9278 18.62 19.7758 18.792 19.6798 19.016C19.5838 19.24 19.5358 19.516 19.5358 19.844V20.348L19.3918 20.168H21.2158V20.924H19.5358V26H18.5638ZM24.7119 26.108C24.0959 26.108 23.5639 25.988 23.1159 25.748C22.6759 25.5 22.3319 25.152 22.0839 24.704C21.8439 24.256 21.7239 23.72 21.7239 23.096C21.7239 22.488 21.8439 21.96 22.0839 21.512C22.3239 21.056 22.6519 20.7 23.0679 20.444C23.4919 20.188 23.9799 20.06 24.5319 20.06C25.0599 20.06 25.5119 20.176 25.8879 20.408C26.2639 20.64 26.5519 20.968 26.7519 21.392C26.9599 21.816 27.0639 22.324 27.0639 22.916V23.288H22.4679V22.652H26.4159L26.2239 22.808C26.2239 22.168 26.0799 21.672 25.7919 21.32C25.5119 20.96 25.0999 20.78 24.5559 20.78C24.1479 20.78 23.7999 20.876 23.5119 21.068C23.2319 21.252 23.0199 21.512 22.8759 21.848C22.7319 22.176 22.6599 22.56 22.6599 23V23.072C22.6599 23.56 22.7359 23.972 22.8879 24.308C23.0479 24.644 23.2839 24.9 23.5959 25.076C23.9079 25.244 24.2799 25.328 24.7119 25.328C25.0559 25.328 25.3879 25.276 25.7079 25.172C26.0359 25.06 26.3439 24.88 26.6319 24.632L26.9679 25.316C26.7039 25.556 26.3679 25.748 25.9599 25.892C25.5519 26.036 25.1359 26.108 24.7119 26.108ZM30.9426 26.108C30.3586 26.108 29.8546 25.98 29.4306 25.724C29.0066 25.468 28.6786 25.112 28.4466 24.656C28.2226 24.192 28.1106 23.656 28.1106 23.048C28.1106 22.432 28.2226 21.9 28.4466 21.452C28.6786 21.004 29.0066 20.66 29.4306 20.42C29.8546 20.18 30.3586 20.06 30.9426 20.06C31.3026 20.06 31.6586 20.124 32.0106 20.252C32.3626 20.38 32.6546 20.56 32.8866 20.792L32.5506 21.5C32.3186 21.276 32.0626 21.112 31.7826 21.008C31.5106 20.904 31.2506 20.852 31.0026 20.852C30.3946 20.852 29.9266 21.044 29.5986 21.428C29.2706 21.804 29.1066 22.348 29.1066 23.06C29.1066 23.756 29.2706 24.308 29.5986 24.716C29.9266 25.116 30.3946 25.316 31.0026 25.316C31.2506 25.316 31.5106 25.264 31.7826 25.16C32.0626 25.056 32.3186 24.888 32.5506 24.656L32.8866 25.364C32.6546 25.596 32.3586 25.78 31.9986 25.916C31.6466 26.044 31.2946 26.108 30.9426 26.108ZM36.3653 26.108C35.6773 26.108 35.1613 25.924 34.8173 25.556C34.4733 25.188 34.3013 24.664 34.3013 23.984V20.924H33.1613V20.168H34.3013V18.38H35.2733V20.168H37.1213V20.924H35.2733V23.888C35.2733 24.344 35.3693 24.692 35.5613 24.932C35.7533 25.164 36.0653 25.28 36.4973 25.28C36.6253 25.28 36.7533 25.264 36.8813 25.232C37.0093 25.2 37.1253 25.168 37.2293 25.136L37.3973 25.88C37.2933 25.936 37.1413 25.988 36.9413 26.036C36.7413 26.084 36.5493 26.108 36.3653 26.108ZM41.4346 26V17.54H46.6666V18.368H42.4186V21.32H46.4266V22.148H42.4186V26H41.4346ZM50.0782 26.108C49.5102 26.108 49.0182 25.984 48.6022 25.736C48.1862 25.488 47.8622 25.14 47.6302 24.692C47.4062 24.236 47.2942 23.7 47.2942 23.084C47.2942 22.468 47.4062 21.936 47.6302 21.488C47.8622 21.032 48.1862 20.68 48.6022 20.432C49.0182 20.184 49.5102 20.06 50.0782 20.06C50.6462 20.06 51.1382 20.184 51.5542 20.432C51.9702 20.68 52.2902 21.032 52.5142 21.488C52.7462 21.936 52.8622 22.468 52.8622 23.084C52.8622 23.7 52.7462 24.236 52.5142 24.692C52.2902 25.14 51.9702 25.488 51.5542 25.736C51.1382 25.984 50.6462 26.108 50.0782 26.108ZM50.0782 25.328C50.6302 25.328 51.0662 25.136 51.3862 24.752C51.7142 24.36 51.8782 23.8 51.8782 23.072C51.8782 22.352 51.7142 21.8 51.3862 21.416C51.0662 21.032 50.6302 20.84 50.0782 20.84C49.5342 20.84 49.0982 21.032 48.7702 21.416C48.4422 21.8 48.2782 22.352 48.2782 23.072C48.2782 23.8 48.4422 24.36 48.7702 24.752C49.0982 25.136 49.5342 25.328 50.0782 25.328ZM54.3222 26V20.168H55.2702V21.548H55.1502C55.2862 21.076 55.5222 20.72 55.8582 20.48C56.1942 20.232 56.6382 20.088 57.1902 20.048L57.5382 20.012L57.6102 20.852L56.9982 20.924C56.4542 20.972 56.0342 21.148 55.7382 21.452C55.4502 21.748 55.3062 22.156 55.3062 22.676V26H54.3222ZM64.573 26.108C64.133 26.108 63.717 26.068 63.325 25.988C62.941 25.908 62.585 25.796 62.257 25.652C61.937 25.5 61.645 25.316 61.381 25.1L61.729 24.308C62.001 24.508 62.277 24.68 62.557 24.824C62.845 24.96 63.153 25.064 63.481 25.136C63.817 25.2 64.181 25.232 64.573 25.232C65.293 25.232 65.825 25.1 66.169 24.836C66.521 24.564 66.697 24.208 66.697 23.768C66.697 23.536 66.641 23.336 66.529 23.168C66.425 23 66.249 22.856 66.001 22.736C65.761 22.616 65.445 22.516 65.053 22.436L63.805 22.184C63.053 22.024 62.489 21.764 62.113 21.404C61.745 21.036 61.561 20.548 61.561 19.94C61.561 19.436 61.689 18.996 61.945 18.62C62.209 18.244 62.573 17.952 63.037 17.744C63.509 17.536 64.045 17.432 64.645 17.432C65.029 17.432 65.393 17.472 65.737 17.552C66.081 17.632 66.397 17.752 66.685 17.912C66.981 18.064 67.241 18.252 67.465 18.476L67.117 19.244C66.757 18.916 66.377 18.68 65.977 18.536C65.577 18.384 65.129 18.308 64.633 18.308C64.209 18.308 63.841 18.372 63.529 18.5C63.225 18.628 62.985 18.816 62.809 19.064C62.641 19.304 62.557 19.584 62.557 19.904C62.557 20.288 62.673 20.592 62.905 20.816C63.145 21.04 63.533 21.204 64.069 21.308L65.317 21.572C66.125 21.74 66.721 21.996 67.105 22.34C67.497 22.676 67.693 23.136 67.693 23.72C67.693 24.184 67.565 24.6 67.309 24.968C67.061 25.328 66.701 25.608 66.229 25.808C65.765 26.008 65.213 26.108 64.573 26.108ZM71.7158 26.108C71.0998 26.108 70.5678 25.988 70.1198 25.748C69.6798 25.5 69.3358 25.152 69.0878 24.704C68.8478 24.256 68.7278 23.72 68.7278 23.096C68.7278 22.488 68.8478 21.96 69.0878 21.512C69.3278 21.056 69.6558 20.7 70.0718 20.444C70.4958 20.188 70.9838 20.06 71.5358 20.06C72.0638 20.06 72.5158 20.176 72.8918 20.408C73.2678 20.64 73.5558 20.968 73.7558 21.392C73.9638 21.816 74.0678 22.324 74.0678 22.916V23.288H69.4718V22.652H73.4198L73.2278 22.808C73.2278 22.168 73.0838 21.672 72.7958 21.32C72.5158 20.96 72.1038 20.78 71.5598 20.78C71.1518 20.78 70.8038 20.876 70.5158 21.068C70.2358 21.252 70.0238 21.512 69.8798 21.848C69.7358 22.176 69.6638 22.56 69.6638 23V23.072C69.6638 23.56 69.7398 23.972 69.8918 24.308C70.0518 24.644 70.2878 24.9 70.5998 25.076C70.9118 25.244 71.2838 25.328 71.7158 25.328C72.0598 25.328 72.3918 25.276 72.7118 25.172C73.0398 25.06 73.3478 24.88 73.6358 24.632L73.9718 25.316C73.7078 25.556 73.3718 25.748 72.9638 25.892C72.5558 26.036 72.1398 26.108 71.7158 26.108ZM75.4745 26V20.168H76.4225V21.548H76.3025C76.4385 21.076 76.6745 20.72 77.0105 20.48C77.3465 20.232 77.7905 20.088 78.3425 20.048L78.6905 20.012L78.7625 20.852L78.1505 20.924C77.6065 20.972 77.1865 21.148 76.8905 21.452C76.6025 21.748 76.4585 22.156 76.4585 22.676V26H75.4745ZM81.8546 26L79.3466 20.168H80.4026L82.4906 25.28H82.1666L84.2906 20.168H85.2866L82.7666 26H81.8546ZM86.1943 18.716V17.624H87.3943V18.716H86.1943ZM86.3143 26V20.168H87.2863V26H86.3143ZM89.1034 26V20.168H90.0514V21.464H89.9194C90.0874 21 90.3594 20.652 90.7354 20.42C91.1194 20.18 91.5594 20.06 92.0554 20.06C92.5194 20.06 92.9034 20.144 93.2074 20.312C93.5194 20.472 93.7514 20.724 93.9034 21.068C94.0554 21.412 94.1314 21.844 94.1314 22.364V26H93.1594V22.424C93.1594 22.064 93.1114 21.768 93.0154 21.536C92.9274 21.304 92.7834 21.132 92.5834 21.02C92.3914 20.908 92.1394 20.852 91.8274 20.852C91.4754 20.852 91.1674 20.928 90.9034 21.08C90.6394 21.232 90.4354 21.444 90.2914 21.716C90.1474 21.988 90.0754 22.308 90.0754 22.676V26H89.1034ZM98.5037 28.268C97.9997 28.268 97.5237 28.2 97.0757 28.064C96.6357 27.936 96.2437 27.74 95.8997 27.476L96.2237 26.768C96.4637 26.936 96.6997 27.072 96.9317 27.176C97.1717 27.288 97.4157 27.368 97.6637 27.416C97.9197 27.464 98.1837 27.488 98.4557 27.488C99.0237 27.488 99.4517 27.336 99.7397 27.032C100.036 26.728 100.184 26.288 100.184 25.712V24.356H100.304C100.184 24.82 99.9277 25.188 99.5357 25.46C99.1517 25.732 98.6997 25.868 98.1797 25.868C97.6437 25.868 97.1797 25.748 96.7877 25.508C96.3957 25.26 96.0917 24.916 95.8757 24.476C95.6677 24.036 95.5637 23.528 95.5637 22.952C95.5637 22.376 95.6677 21.872 95.8757 21.44C96.0917 21 96.3957 20.66 96.7877 20.42C97.1797 20.18 97.6437 20.06 98.1797 20.06C98.7077 20.06 99.1637 20.196 99.5477 20.468C99.9317 20.732 100.18 21.092 100.292 21.548H100.184V20.168H101.132V25.58C101.132 26.172 101.032 26.668 100.832 27.068C100.64 27.468 100.348 27.768 99.9557 27.968C99.5637 28.168 99.0797 28.268 98.5037 28.268ZM98.3597 25.076C98.9197 25.076 99.3637 24.884 99.6917 24.5C100.02 24.116 100.184 23.6 100.184 22.952C100.184 22.304 100.02 21.792 99.6917 21.416C99.3637 21.032 98.9197 20.84 98.3597 20.84C97.8077 20.84 97.3677 21.032 97.0397 21.416C96.7117 21.792 96.5477 22.304 96.5477 22.952C96.5477 23.6 96.7117 24.116 97.0397 24.5C97.3677 24.884 97.8077 25.076 98.3597 25.076ZM108.905 26.108C108.465 26.108 108.049 26.068 107.657 25.988C107.273 25.908 106.917 25.796 106.589 25.652C106.269 25.5 105.977 25.316 105.713 25.1L106.061 24.308C106.333 24.508 106.609 24.68 106.889 24.824C107.177 24.96 107.485 25.064 107.813 25.136C108.149 25.2 108.513 25.232 108.905 25.232C109.625 25.232 110.157 25.1 110.501 24.836C110.853 24.564 111.029 24.208 111.029 23.768C111.029 23.536 110.973 23.336 110.861 23.168C110.757 23 110.581 22.856 110.333 22.736C110.093 22.616 109.777 22.516 109.385 22.436L108.137 22.184C107.385 22.024 106.821 21.764 106.445 21.404C106.077 21.036 105.893 20.548 105.893 19.94C105.893 19.436 106.021 18.996 106.277 18.62C106.541 18.244 106.905 17.952 107.369 17.744C107.841 17.536 108.377 17.432 108.977 17.432C109.361 17.432 109.725 17.472 110.069 17.552C110.413 17.632 110.729 17.752 111.017 17.912C111.313 18.064 111.573 18.252 111.797 18.476L111.449 19.244C111.089 18.916 110.709 18.68 110.309 18.536C109.909 18.384 109.461 18.308 108.965 18.308C108.541 18.308 108.173 18.372 107.861 18.5C107.557 18.628 107.317 18.816 107.141 19.064C106.973 19.304 106.889 19.584 106.889 19.904C106.889 20.288 107.005 20.592 107.237 20.816C107.477 21.04 107.865 21.204 108.401 21.308L109.649 21.572C110.457 21.74 111.053 21.996 111.437 22.34C111.829 22.676 112.025 23.136 112.025 23.72C112.025 24.184 111.897 24.6 111.641 24.968C111.393 25.328 111.033 25.608 110.561 25.808C110.097 26.008 109.545 26.108 108.905 26.108ZM115.256 26.108C114.856 26.108 114.496 26.032 114.176 25.88C113.864 25.72 113.616 25.504 113.432 25.232C113.248 24.96 113.156 24.656 113.156 24.32C113.156 23.888 113.264 23.548 113.48 23.3C113.704 23.052 114.068 22.876 114.572 22.772C115.084 22.668 115.78 22.616 116.66 22.616H117.2V23.252H116.672C116.184 23.252 115.776 23.268 115.448 23.3C115.12 23.332 114.86 23.388 114.668 23.468C114.476 23.548 114.34 23.652 114.26 23.78C114.18 23.908 114.14 24.068 114.14 24.26C114.14 24.588 114.252 24.856 114.476 25.064C114.708 25.272 115.02 25.376 115.412 25.376C115.732 25.376 116.012 25.3 116.252 25.148C116.5 24.996 116.692 24.788 116.828 24.524C116.972 24.26 117.044 23.956 117.044 23.612V22.244C117.044 21.748 116.944 21.392 116.744 21.176C116.544 20.952 116.216 20.84 115.76 20.84C115.408 20.84 115.068 20.892 114.74 20.996C114.412 21.092 114.076 21.252 113.732 21.476L113.396 20.768C113.604 20.624 113.84 20.5 114.104 20.396C114.368 20.284 114.644 20.2 114.932 20.144C115.22 20.088 115.496 20.06 115.76 20.06C116.264 20.06 116.68 20.144 117.008 20.312C117.336 20.472 117.58 20.72 117.74 21.056C117.9 21.384 117.98 21.808 117.98 22.328V26H117.068V24.644H117.176C117.112 24.948 116.988 25.208 116.804 25.424C116.628 25.64 116.408 25.808 116.144 25.928C115.88 26.048 115.584 26.108 115.256 26.108ZM121.571 26.108C120.979 26.108 120.531 25.932 120.227 25.58C119.931 25.228 119.783 24.724 119.783 24.068V17.54H120.755V23.996C120.755 24.276 120.791 24.512 120.863 24.704C120.943 24.896 121.059 25.04 121.211 25.136C121.363 25.232 121.551 25.28 121.775 25.28C121.871 25.28 121.963 25.276 122.051 25.268C122.147 25.252 122.235 25.232 122.315 25.208L122.291 26.024C122.163 26.048 122.039 26.068 121.919 26.084C121.807 26.1 121.691 26.108 121.571 26.108ZM125.17 26.108C124.77 26.108 124.41 26.032 124.09 25.88C123.778 25.72 123.53 25.504 123.346 25.232C123.162 24.96 123.07 24.656 123.07 24.32C123.07 23.888 123.178 23.548 123.394 23.3C123.618 23.052 123.982 22.876 124.486 22.772C124.998 22.668 125.694 22.616 126.574 22.616H127.114V23.252H126.586C126.098 23.252 125.69 23.268 125.362 23.3C125.034 23.332 124.774 23.388 124.582 23.468C124.39 23.548 124.254 23.652 124.174 23.78C124.094 23.908 124.054 24.068 124.054 24.26C124.054 24.588 124.166 24.856 124.39 25.064C124.622 25.272 124.934 25.376 125.326 25.376C125.646 25.376 125.926 25.3 126.166 25.148C126.414 24.996 126.606 24.788 126.742 24.524C126.886 24.26 126.958 23.956 126.958 23.612V22.244C126.958 21.748 126.858 21.392 126.658 21.176C126.458 20.952 126.13 20.84 125.674 20.84C125.322 20.84 124.982 20.892 124.654 20.996C124.326 21.092 123.99 21.252 123.646 21.476L123.31 20.768C123.518 20.624 123.754 20.5 124.018 20.396C124.282 20.284 124.558 20.2 124.846 20.144C125.134 20.088 125.41 20.06 125.674 20.06C126.178 20.06 126.594 20.144 126.922 20.312C127.25 20.472 127.494 20.72 127.654 21.056C127.814 21.384 127.894 21.808 127.894 22.328V26H126.982V24.644H127.09C127.026 24.948 126.902 25.208 126.718 25.424C126.542 25.64 126.322 25.808 126.058 25.928C125.794 26.048 125.498 26.108 125.17 26.108ZM131.917 26.108C131.397 26.108 130.941 25.984 130.549 25.736C130.165 25.488 129.865 25.14 129.649 24.692C129.441 24.236 129.337 23.7 129.337 23.084C129.337 22.46 129.441 21.924 129.649 21.476C129.865 21.02 130.165 20.672 130.549 20.432C130.941 20.184 131.397 20.06 131.917 20.06C132.445 20.06 132.897 20.192 133.273 20.456C133.649 20.72 133.901 21.076 134.029 21.524H133.897V17.54H134.869V26H133.921V24.608H134.041C133.913 25.064 133.657 25.428 133.273 25.7C132.897 25.972 132.445 26.108 131.917 26.108ZM132.121 25.328C132.673 25.328 133.109 25.136 133.429 24.752C133.757 24.36 133.921 23.804 133.921 23.084C133.921 22.356 133.757 21.8 133.429 21.416C133.109 21.032 132.673 20.84 132.121 20.84C131.577 20.84 131.141 21.032 130.813 21.416C130.485 21.8 130.321 22.356 130.321 23.084C130.321 23.804 130.485 24.36 130.813 24.752C131.141 25.136 131.577 25.328 132.121 25.328ZM138.661 26.108C138.357 26.108 138.061 26.076 137.773 26.012C137.493 25.956 137.229 25.876 136.981 25.772C136.741 25.66 136.533 25.528 136.357 25.376L136.669 24.692C136.861 24.844 137.069 24.972 137.293 25.076C137.517 25.172 137.745 25.244 137.977 25.292C138.209 25.34 138.445 25.364 138.685 25.364C139.141 25.364 139.485 25.28 139.717 25.112C139.949 24.944 140.065 24.716 140.065 24.428C140.065 24.204 139.989 24.028 139.837 23.9C139.685 23.764 139.445 23.66 139.117 23.588L138.025 23.348C137.521 23.244 137.145 23.064 136.897 22.808C136.657 22.552 136.537 22.22 136.537 21.812C136.537 21.452 136.629 21.144 136.813 20.888C137.005 20.624 137.273 20.42 137.617 20.276C137.961 20.132 138.361 20.06 138.817 20.06C139.089 20.06 139.349 20.088 139.597 20.144C139.845 20.2 140.077 20.284 140.293 20.396C140.517 20.5 140.709 20.632 140.869 20.792L140.545 21.476C140.393 21.332 140.221 21.212 140.029 21.116C139.837 21.012 139.637 20.936 139.429 20.888C139.229 20.832 139.025 20.804 138.817 20.804C138.369 20.804 138.029 20.892 137.797 21.068C137.565 21.244 137.449 21.476 137.449 21.764C137.449 21.988 137.521 22.172 137.665 22.316C137.809 22.46 138.033 22.564 138.337 22.628L139.429 22.856C139.949 22.968 140.337 23.148 140.593 23.396C140.857 23.636 140.989 23.964 140.989 24.38C140.989 24.732 140.893 25.04 140.701 25.304C140.509 25.56 140.237 25.76 139.885 25.904C139.541 26.04 139.133 26.108 138.661 26.108ZM142.76 27.368L142.304 27.02C142.448 26.868 142.556 26.724 142.628 26.588C142.708 26.46 142.76 26.328 142.784 26.192C142.816 26.064 142.832 25.932 142.832 25.796L143.048 26H142.256V24.776H143.48V25.64C143.48 25.856 143.456 26.06 143.408 26.252C143.368 26.452 143.296 26.644 143.192 26.828C143.088 27.012 142.944 27.192 142.76 27.368ZM148.357 26V17.54H153.589V18.368H149.341V21.32H153.349V22.148H149.341V26H148.357ZM154.682 26V20.168H155.63V21.548H155.51C155.646 21.076 155.882 20.72 156.218 20.48C156.554 20.232 156.998 20.088 157.55 20.048L157.898 20.012L157.97 20.852L157.358 20.924C156.814 20.972 156.394 21.148 156.098 21.452C155.81 21.748 155.666 22.156 155.666 22.676V26H154.682ZM161.046 26.108C160.574 26.108 160.182 26.024 159.87 25.856C159.566 25.68 159.334 25.42 159.174 25.076C159.022 24.732 158.946 24.304 158.946 23.792V20.168H159.918V23.78C159.918 24.124 159.962 24.412 160.05 24.644C160.146 24.868 160.294 25.036 160.494 25.148C160.694 25.252 160.942 25.304 161.238 25.304C161.574 25.304 161.866 25.228 162.114 25.076C162.362 24.924 162.558 24.712 162.702 24.44C162.846 24.168 162.918 23.848 162.918 23.48V20.168H163.89V26H162.942V24.656H163.098C162.938 25.128 162.674 25.488 162.306 25.736C161.946 25.984 161.526 26.108 161.046 26.108ZM165.589 18.716V17.624H166.789V18.716H165.589ZM165.709 26V20.168H166.681V26H165.709ZM170.838 26.108C170.15 26.108 169.634 25.924 169.29 25.556C168.946 25.188 168.774 24.664 168.774 23.984V20.924H167.634V20.168H168.774V18.38H169.746V20.168H171.594V20.924H169.746V23.888C169.746 24.344 169.842 24.692 170.034 24.932C170.226 25.164 170.538 25.28 170.97 25.28C171.098 25.28 171.226 25.264 171.354 25.232C171.482 25.2 171.598 25.168 171.702 25.136L171.87 25.88C171.766 25.936 171.614 25.988 171.414 26.036C171.214 26.084 171.022 26.108 170.838 26.108ZM174.661 26.108C174.357 26.108 174.061 26.076 173.773 26.012C173.493 25.956 173.229 25.876 172.981 25.772C172.741 25.66 172.533 25.528 172.357 25.376L172.669 24.692C172.861 24.844 173.069 24.972 173.293 25.076C173.517 25.172 173.745 25.244 173.977 25.292C174.209 25.34 174.445 25.364 174.685 25.364C175.141 25.364 175.485 25.28 175.717 25.112C175.949 24.944 176.065 24.716 176.065 24.428C176.065 24.204 175.989 24.028 175.837 23.9C175.685 23.764 175.445 23.66 175.117 23.588L174.025 23.348C173.521 23.244 173.145 23.064 172.897 22.808C172.657 22.552 172.537 22.22 172.537 21.812C172.537 21.452 172.629 21.144 172.813 20.888C173.005 20.624 173.273 20.42 173.617 20.276C173.961 20.132 174.361 20.06 174.817 20.06C175.089 20.06 175.349 20.088 175.597 20.144C175.845 20.2 176.077 20.284 176.293 20.396C176.517 20.5 176.709 20.632 176.869 20.792L176.545 21.476C176.393 21.332 176.221 21.212 176.029 21.116C175.837 21.012 175.637 20.936 175.429 20.888C175.229 20.832 175.025 20.804 174.817 20.804C174.369 20.804 174.029 20.892 173.797 21.068C173.565 21.244 173.449 21.476 173.449 21.764C173.449 21.988 173.521 22.172 173.665 22.316C173.809 22.46 174.033 22.564 174.337 22.628L175.429 22.856C175.949 22.968 176.337 23.148 176.593 23.396C176.857 23.636 176.989 23.964 176.989 24.38C176.989 24.732 176.893 25.04 176.701 25.304C176.509 25.56 176.237 25.76 175.885 25.904C175.541 26.04 175.133 26.108 174.661 26.108ZM178.76 27.368L178.304 27.02C178.448 26.868 178.556 26.724 178.628 26.588C178.708 26.46 178.76 26.328 178.784 26.192C178.816 26.064 178.832 25.932 178.832 25.796L179.048 26H178.256V24.776H179.48V25.64C179.48 25.856 179.456 26.06 179.408 26.252C179.368 26.452 179.296 26.644 179.192 26.828C179.088 27.012 178.944 27.192 178.76 27.368ZM184.357 26V17.54H187.213C188.133 17.54 188.909 17.704 189.541 18.032C190.181 18.352 190.665 18.828 190.993 19.46C191.329 20.084 191.497 20.852 191.497 21.764C191.497 22.676 191.329 23.448 190.993 24.08C190.665 24.712 190.181 25.192 189.541 25.52C188.909 25.84 188.133 26 187.213 26H184.357ZM185.341 25.16H187.141C188.253 25.16 189.081 24.876 189.625 24.308C190.177 23.74 190.453 22.892 190.453 21.764C190.453 20.636 190.177 19.792 189.625 19.232C189.073 18.664 188.245 18.38 187.141 18.38H185.341V25.16ZM195.759 26.108C195.143 26.108 194.611 25.988 194.163 25.748C193.723 25.5 193.379 25.152 193.131 24.704C192.891 24.256 192.771 23.72 192.771 23.096C192.771 22.488 192.891 21.96 193.131 21.512C193.371 21.056 193.699 20.7 194.115 20.444C194.539 20.188 195.027 20.06 195.579 20.06C196.107 20.06 196.559 20.176 196.935 20.408C197.311 20.64 197.599 20.968 197.799 21.392C198.007 21.816 198.111 22.324 198.111 22.916V23.288H193.515V22.652H197.463L197.271 22.808C197.271 22.168 197.127 21.672 196.839 21.32C196.559 20.96 196.147 20.78 195.603 20.78C195.195 20.78 194.847 20.876 194.559 21.068C194.279 21.252 194.067 21.512 193.923 21.848C193.779 22.176 193.707 22.56 193.707 23V23.072C193.707 23.56 193.783 23.972 193.935 24.308C194.095 24.644 194.331 24.9 194.643 25.076C194.955 25.244 195.327 25.328 195.759 25.328C196.103 25.328 196.435 25.276 196.755 25.172C197.083 25.06 197.391 24.88 197.679 24.632L198.015 25.316C197.751 25.556 197.415 25.748 197.007 25.892C196.599 26.036 196.183 26.108 195.759 26.108ZM201.485 26.108C201.181 26.108 200.885 26.076 200.597 26.012C200.317 25.956 200.053 25.876 199.805 25.772C199.565 25.66 199.357 25.528 199.181 25.376L199.493 24.692C199.685 24.844 199.893 24.972 200.117 25.076C200.341 25.172 200.569 25.244 200.801 25.292C201.033 25.34 201.269 25.364 201.509 25.364C201.965 25.364 202.309 25.28 202.541 25.112C202.773 24.944 202.889 24.716 202.889 24.428C202.889 24.204 202.813 24.028 202.661 23.9C202.509 23.764 202.269 23.66 201.941 23.588L200.849 23.348C200.345 23.244 199.969 23.064 199.721 22.808C199.481 22.552 199.361 22.22 199.361 21.812C199.361 21.452 199.453 21.144 199.637 20.888C199.829 20.624 200.097 20.42 200.441 20.276C200.785 20.132 201.185 20.06 201.641 20.06C201.913 20.06 202.173 20.088 202.421 20.144C202.669 20.2 202.901 20.284 203.117 20.396C203.341 20.5 203.533 20.632 203.693 20.792L203.369 21.476C203.217 21.332 203.045 21.212 202.853 21.116C202.661 21.012 202.461 20.936 202.253 20.888C202.053 20.832 201.849 20.804 201.641 20.804C201.193 20.804 200.853 20.892 200.621 21.068C200.389 21.244 200.273 21.476 200.273 21.764C200.273 21.988 200.345 22.172 200.489 22.316C200.633 22.46 200.857 22.564 201.161 22.628L202.253 22.856C202.773 22.968 203.161 23.148 203.417 23.396C203.681 23.636 203.813 23.964 203.813 24.38C203.813 24.732 203.717 25.04 203.525 25.304C203.333 25.56 203.061 25.76 202.709 25.904C202.365 26.04 201.957 26.108 201.485 26.108ZM207.263 26.108C206.959 26.108 206.663 26.076 206.375 26.012C206.095 25.956 205.831 25.876 205.583 25.772C205.343 25.66 205.135 25.528 204.959 25.376L205.271 24.692C205.463 24.844 205.671 24.972 205.895 25.076C206.119 25.172 206.347 25.244 206.579 25.292C206.811 25.34 207.047 25.364 207.287 25.364C207.743 25.364 208.087 25.28 208.319 25.112C208.551 24.944 208.667 24.716 208.667 24.428C208.667 24.204 208.591 24.028 208.439 23.9C208.287 23.764 208.047 23.66 207.719 23.588L206.627 23.348C206.123 23.244 205.747 23.064 205.499 22.808C205.259 22.552 205.139 22.22 205.139 21.812C205.139 21.452 205.231 21.144 205.415 20.888C205.607 20.624 205.875 20.42 206.219 20.276C206.563 20.132 206.963 20.06 207.419 20.06C207.691 20.06 207.951 20.088 208.199 20.144C208.447 20.2 208.679 20.284 208.895 20.396C209.119 20.5 209.311 20.632 209.471 20.792L209.147 21.476C208.995 21.332 208.823 21.212 208.631 21.116C208.439 21.012 208.239 20.936 208.031 20.888C207.831 20.832 207.627 20.804 207.419 20.804C206.971 20.804 206.631 20.892 206.399 21.068C206.167 21.244 206.051 21.476 206.051 21.764C206.051 21.988 206.123 22.172 206.267 22.316C206.411 22.46 206.635 22.564 206.939 22.628L208.031 22.856C208.551 22.968 208.939 23.148 209.195 23.396C209.459 23.636 209.591 23.964 209.591 24.38C209.591 24.732 209.495 25.04 209.303 25.304C209.111 25.56 208.839 25.76 208.487 25.904C208.143 26.04 207.735 26.108 207.263 26.108ZM213.7 26.108C213.084 26.108 212.552 25.988 212.104 25.748C211.664 25.5 211.32 25.152 211.072 24.704C210.832 24.256 210.712 23.72 210.712 23.096C210.712 22.488 210.832 21.96 211.072 21.512C211.312 21.056 211.64 20.7 212.056 20.444C212.48 20.188 212.968 20.06 213.52 20.06C214.048 20.06 214.5 20.176 214.876 20.408C215.252 20.64 215.54 20.968 215.74 21.392C215.948 21.816 216.052 22.324 216.052 22.916V23.288H211.456V22.652H215.404L215.212 22.808C215.212 22.168 215.068 21.672 214.78 21.32C214.5 20.96 214.088 20.78 213.544 20.78C213.136 20.78 212.788 20.876 212.5 21.068C212.22 21.252 212.008 21.512 211.864 21.848C211.72 22.176 211.648 22.56 211.648 23V23.072C211.648 23.56 211.724 23.972 211.876 24.308C212.036 24.644 212.272 24.9 212.584 25.076C212.896 25.244 213.268 25.328 213.7 25.328C214.044 25.328 214.376 25.276 214.696 25.172C215.024 25.06 215.332 24.88 215.62 24.632L215.956 25.316C215.692 25.556 215.356 25.748 214.948 25.892C214.54 26.036 214.124 26.108 213.7 26.108ZM217.459 26V20.168H218.407V21.548H218.287C218.423 21.076 218.659 20.72 218.995 20.48C219.331 20.232 219.775 20.088 220.327 20.048L220.675 20.012L220.747 20.852L220.135 20.924C219.591 20.972 219.171 21.148 218.875 21.452C218.587 21.748 218.443 22.156 218.443 22.676V26H217.459ZM224.416 26.108C223.728 26.108 223.212 25.924 222.868 25.556C222.524 25.188 222.352 24.664 222.352 23.984V20.924H221.212V20.168H222.352V18.38H223.324V20.168H225.172V20.924H223.324V23.888C223.324 24.344 223.42 24.692 223.612 24.932C223.804 25.164 224.116 25.28 224.548 25.28C224.676 25.28 224.804 25.264 224.932 25.232C225.06 25.2 225.176 25.168 225.28 25.136L225.448 25.88C225.344 25.936 225.192 25.988 224.992 26.036C224.792 26.084 224.6 26.108 224.416 26.108ZM228.239 26.108C227.935 26.108 227.639 26.076 227.351 26.012C227.071 25.956 226.807 25.876 226.559 25.772C226.319 25.66 226.111 25.528 225.935 25.376L226.247 24.692C226.439 24.844 226.647 24.972 226.871 25.076C227.095 25.172 227.323 25.244 227.555 25.292C227.787 25.34 228.023 25.364 228.263 25.364C228.719 25.364 229.063 25.28 229.295 25.112C229.527 24.944 229.643 24.716 229.643 24.428C229.643 24.204 229.567 24.028 229.415 23.9C229.263 23.764 229.023 23.66 228.695 23.588L227.603 23.348C227.099 23.244 226.723 23.064 226.475 22.808C226.235 22.552 226.115 22.22 226.115 21.812C226.115 21.452 226.207 21.144 226.391 20.888C226.583 20.624 226.851 20.42 227.195 20.276C227.539 20.132 227.939 20.06 228.395 20.06C228.667 20.06 228.927 20.088 229.175 20.144C229.423 20.2 229.655 20.284 229.871 20.396C230.095 20.5 230.287 20.632 230.447 20.792L230.123 21.476C229.971 21.332 229.799 21.212 229.607 21.116C229.415 21.012 229.215 20.936 229.007 20.888C228.807 20.832 228.603 20.804 228.395 20.804C227.947 20.804 227.607 20.892 227.375 21.068C227.143 21.244 227.027 21.476 227.027 21.764C227.027 21.988 227.099 22.172 227.243 22.316C227.387 22.46 227.611 22.564 227.915 22.628L229.007 22.856C229.527 22.968 229.915 23.148 230.171 23.396C230.435 23.636 230.567 23.964 230.567 24.38C230.567 24.732 230.471 25.04 230.279 25.304C230.087 25.56 229.815 25.76 229.463 25.904C229.119 26.04 228.711 26.108 228.239 26.108ZM231.834 26V24.776H233.058V26H231.834Z" fill="white"/>
</svg>
