<svg width="318" height="28" viewBox="0 0 318 28" fill="none" xmlns="http://www.w3.org/2000/svg">
<path d="M1.068 9V0.539999H1.896L5.328 6.984H4.968L8.376 0.539999H9.204V9H8.292V1.86H8.58L5.472 7.692H4.824L1.68 1.848H1.968V9H1.068ZM11.0576 1.716V0.624H12.2576V1.716H11.0576ZM11.1776 9V3.168H12.1496V9H11.1776ZM16.4387 9.108C15.8547 9.108 15.3507 8.98 14.9267 8.724C14.5027 8.468 14.1747 8.112 13.9427 7.656C13.7187 7.192 13.6067 6.656 13.6067 6.048C13.6067 5.432 13.7187 4.9 13.9427 4.452C14.1747 4.004 14.5027 3.66 14.9267 3.42C15.3507 3.18 15.8547 3.06 16.4387 3.06C16.7987 3.06 17.1547 3.124 17.5067 3.252C17.8587 3.38 18.1507 3.56 18.3827 3.792L18.0467 4.5C17.8147 4.276 17.5587 4.112 17.2787 4.008C17.0067 3.904 16.7467 3.852 16.4987 3.852C15.8907 3.852 15.4227 4.044 15.0947 4.428C14.7667 4.804 14.6027 5.348 14.6027 6.06C14.6027 6.756 14.7667 7.308 15.0947 7.716C15.4227 8.116 15.8907 8.316 16.4987 8.316C16.7467 8.316 17.0067 8.264 17.2787 8.16C17.5587 8.056 17.8147 7.888 18.0467 7.656L18.3827 8.364C18.1507 8.596 17.8547 8.78 17.4947 8.916C17.1427 9.044 16.7907 9.108 16.4387 9.108ZM19.5214 9V3.168H20.4694V4.548H20.3494C20.4854 4.076 20.7214 3.72 21.0574 3.48C21.3934 3.232 21.8374 3.088 22.3894 3.048L22.7374 3.012L22.8094 3.852L22.1974 3.924C21.6534 3.972 21.2334 4.148 20.9374 4.452C20.6494 4.748 20.5054 5.156 20.5054 5.676V9H19.5214ZM26.1758 9.108C25.6078 9.108 25.1158 8.984 24.6998 8.736C24.2838 8.488 23.9598 8.14 23.7278 7.692C23.5038 7.236 23.3918 6.7 23.3918 6.084C23.3918 5.468 23.5038 4.936 23.7278 4.488C23.9598 4.032 24.2838 3.68 24.6998 3.432C25.1158 3.184 25.6078 3.06 26.1758 3.06C26.7438 3.06 27.2358 3.184 27.6518 3.432C28.0678 3.68 28.3878 4.032 28.6118 4.488C28.8438 4.936 28.9598 5.468 28.9598 6.084C28.9598 6.7 28.8438 7.236 28.6118 7.692C28.3878 8.14 28.0678 8.488 27.6518 8.736C27.2358 8.984 26.7438 9.108 26.1758 9.108ZM26.1758 8.328C26.7278 8.328 27.1638 8.136 27.4838 7.752C27.8118 7.36 27.9758 6.8 27.9758 6.072C27.9758 5.352 27.8118 4.8 27.4838 4.416C27.1638 4.032 26.7278 3.84 26.1758 3.84C25.6318 3.84 25.1958 4.032 24.8678 4.416C24.5398 4.8 24.3758 5.352 24.3758 6.072C24.3758 6.8 24.5398 7.36 24.8678 7.752C25.1958 8.136 25.6318 8.328 26.1758 8.328ZM31.8858 9L29.7138 3.168H30.7338L32.5218 8.28H32.2338L34.0818 3.168H34.9098L36.7218 8.28H36.4458L38.2578 3.168H39.2298L37.0458 9H36.1218L34.2138 3.756H34.7298L32.8218 9H31.8858ZM42.1464 9.108C41.7464 9.108 41.3864 9.032 41.0664 8.88C40.7544 8.72 40.5064 8.504 40.3224 8.232C40.1384 7.96 40.0464 7.656 40.0464 7.32C40.0464 6.888 40.1544 6.548 40.3704 6.3C40.5944 6.052 40.9584 5.876 41.4624 5.772C41.9744 5.668 42.6704 5.616 43.5504 5.616H44.0904V6.252H43.5624C43.0744 6.252 42.6664 6.268 42.3384 6.3C42.0104 6.332 41.7504 6.388 41.5584 6.468C41.3664 6.548 41.2304 6.652 41.1504 6.78C41.0704 6.908 41.0304 7.068 41.0304 7.26C41.0304 7.588 41.1424 7.856 41.3664 8.064C41.5984 8.272 41.9104 8.376 42.3024 8.376C42.6224 8.376 42.9024 8.3 43.1424 8.148C43.3904 7.996 43.5824 7.788 43.7184 7.524C43.8624 7.26 43.9344 6.956 43.9344 6.612V5.244C43.9344 4.748 43.8344 4.392 43.6344 4.176C43.4344 3.952 43.1064 3.84 42.6504 3.84C42.2984 3.84 41.9584 3.892 41.6304 3.996C41.3024 4.092 40.9664 4.252 40.6224 4.476L40.2864 3.768C40.4944 3.624 40.7304 3.5 40.9944 3.396C41.2584 3.284 41.5344 3.2 41.8224 3.144C42.1104 3.088 42.3864 3.06 42.6504 3.06C43.1544 3.06 43.5704 3.144 43.8984 3.312C44.2264 3.472 44.4704 3.72 44.6304 4.056C44.7904 4.384 44.8704 4.808 44.8704 5.328V9H43.9584V7.644H44.0664C44.0024 7.948 43.8784 8.208 43.6944 8.424C43.5184 8.64 43.2984 8.808 43.0344 8.928C42.7704 9.048 42.4744 9.108 42.1464 9.108ZM48.3311 9L45.8231 3.168H46.8791L48.9671 8.28H48.6431L50.7671 3.168H51.7631L49.2431 9H48.3311ZM55.3369 9.108C54.7209 9.108 54.1889 8.988 53.7409 8.748C53.3009 8.5 52.9569 8.152 52.7089 7.704C52.4689 7.256 52.3489 6.72 52.3489 6.096C52.3489 5.488 52.4689 4.96 52.7089 4.512C52.9489 4.056 53.2769 3.7 53.6929 3.444C54.1169 3.188 54.6049 3.06 55.1569 3.06C55.6849 3.06 56.1369 3.176 56.5129 3.408C56.8889 3.64 57.1769 3.968 57.3769 4.392C57.5849 4.816 57.6889 5.324 57.6889 5.916V6.288H53.0929V5.652H57.0409L56.8489 5.808C56.8489 5.168 56.7049 4.672 56.4169 4.32C56.1369 3.96 55.7249 3.78 55.1809 3.78C54.7729 3.78 54.4249 3.876 54.1369 4.068C53.8569 4.252 53.6449 4.512 53.5009 4.848C53.3569 5.176 53.2849 5.56 53.2849 6V6.072C53.2849 6.56 53.3609 6.972 53.5129 7.308C53.6729 7.644 53.9089 7.9 54.2209 8.076C54.5329 8.244 54.9049 8.328 55.3369 8.328C55.6809 8.328 56.0129 8.276 56.3329 8.172C56.6609 8.06 56.9689 7.88 57.2569 7.632L57.5929 8.316C57.3289 8.556 56.9929 8.748 56.5849 8.892C56.1769 9.036 55.7609 9.108 55.3369 9.108ZM59.1765 6.204V5.4H62.5365V6.204H59.1765ZM66.7085 9L70.4405 0.539999H71.2805L75.0125 9H73.9925L72.9485 6.588L73.4285 6.84H68.2685L68.7605 6.588L67.7285 9H66.7085ZM70.8485 1.692L68.9165 6.24L68.6285 6.012H73.0685L72.8045 6.24L70.8725 1.692H70.8485ZM76.1347 9V3.168H77.0827V4.464H76.9507C77.1187 4 77.3907 3.652 77.7667 3.42C78.1507 3.18 78.5907 3.06 79.0867 3.06C79.5507 3.06 79.9347 3.144 80.2387 3.312C80.5507 3.472 80.7827 3.724 80.9347 4.068C81.0867 4.412 81.1627 4.844 81.1627 5.364V9H80.1907V5.424C80.1907 5.064 80.1427 4.768 80.0467 4.536C79.9587 4.304 79.8147 4.132 79.6147 4.02C79.4227 3.908 79.1707 3.852 78.8587 3.852C78.5067 3.852 78.1987 3.928 77.9347 4.08C77.6707 4.232 77.4667 4.444 77.3227 4.716C77.1787 4.988 77.1067 5.308 77.1067 5.676V9H76.1347ZM85.175 9.108C84.655 9.108 84.199 8.984 83.807 8.736C83.423 8.488 83.123 8.14 82.907 7.692C82.699 7.236 82.595 6.7 82.595 6.084C82.595 5.46 82.699 4.924 82.907 4.476C83.123 4.02 83.423 3.672 83.807 3.432C84.199 3.184 84.655 3.06 85.175 3.06C85.703 3.06 86.155 3.192 86.531 3.456C86.907 3.72 87.159 4.076 87.287 4.524H87.155V0.539999H88.127V9H87.179V7.608H87.299C87.171 8.064 86.915 8.428 86.531 8.7C86.155 8.972 85.703 9.108 85.175 9.108ZM85.379 8.328C85.931 8.328 86.367 8.136 86.687 7.752C87.015 7.36 87.179 6.804 87.179 6.084C87.179 5.356 87.015 4.8 86.687 4.416C86.367 4.032 85.931 3.84 85.379 3.84C84.835 3.84 84.399 4.032 84.071 4.416C83.743 4.8 83.579 5.356 83.579 6.084C83.579 6.804 83.743 7.36 84.071 7.752C84.399 8.136 84.835 8.328 85.379 8.328ZM93.1651 9V0.539999H98.3971V1.368H94.1491V4.32H98.1571V5.148H94.1491V9H93.1651ZM99.4901 9V3.168H100.438V4.548H100.318C100.454 4.076 100.69 3.72 101.026 3.48C101.362 3.232 101.806 3.088 102.358 3.048L102.706 3.012L102.778 3.852L102.166 3.924C101.622 3.972 101.202 4.148 100.906 4.452C100.618 4.748 100.474 5.156 100.474 5.676V9H99.4901ZM106.349 9.108C105.733 9.108 105.201 8.988 104.753 8.748C104.313 8.5 103.969 8.152 103.721 7.704C103.481 7.256 103.361 6.72 103.361 6.096C103.361 5.488 103.481 4.96 103.721 4.512C103.961 4.056 104.289 3.7 104.705 3.444C105.129 3.188 105.617 3.06 106.169 3.06C106.697 3.06 107.149 3.176 107.525 3.408C107.901 3.64 108.189 3.968 108.389 4.392C108.597 4.816 108.701 5.324 108.701 5.916V6.288H104.105V5.652H108.053L107.861 5.808C107.861 5.168 107.717 4.672 107.429 4.32C107.149 3.96 106.737 3.78 106.193 3.78C105.785 3.78 105.437 3.876 105.149 4.068C104.869 4.252 104.657 4.512 104.513 4.848C104.369 5.176 104.297 5.56 104.297 6V6.072C104.297 6.56 104.373 6.972 104.525 7.308C104.685 7.644 104.921 7.9 105.233 8.076C105.545 8.244 105.917 8.328 106.349 8.328C106.693 8.328 107.025 8.276 107.345 8.172C107.673 8.06 107.981 7.88 108.269 7.632L108.605 8.316C108.341 8.556 108.005 8.748 107.597 8.892C107.189 9.036 106.773 9.108 106.349 9.108ZM112.735 9.108C112.119 9.108 111.587 8.988 111.139 8.748C110.699 8.5 110.355 8.152 110.107 7.704C109.867 7.256 109.747 6.72 109.747 6.096C109.747 5.488 109.867 4.96 110.107 4.512C110.347 4.056 110.675 3.7 111.091 3.444C111.515 3.188 112.003 3.06 112.555 3.06C113.083 3.06 113.535 3.176 113.911 3.408C114.287 3.64 114.575 3.968 114.775 4.392C114.983 4.816 115.087 5.324 115.087 5.916V6.288H110.491V5.652H114.439L114.247 5.808C114.247 5.168 114.103 4.672 113.815 4.32C113.535 3.96 113.123 3.78 112.579 3.78C112.171 3.78 111.823 3.876 111.535 4.068C111.255 4.252 111.043 4.512 110.899 4.848C110.755 5.176 110.683 5.56 110.683 6V6.072C110.683 6.56 110.759 6.972 110.911 7.308C111.071 7.644 111.307 7.9 111.619 8.076C111.931 8.244 112.303 8.328 112.735 8.328C113.079 8.328 113.411 8.276 113.731 8.172C114.059 8.06 114.367 7.88 114.655 7.632L114.991 8.316C114.727 8.556 114.391 8.748 113.983 8.892C113.575 9.036 113.159 9.108 112.735 9.108ZM116.219 9V8.352L119.735 3.672V3.924H116.219V3.168H120.635V3.816L117.083 8.52V8.244H120.767V9H116.219ZM124.536 9.108C123.92 9.108 123.388 8.988 122.94 8.748C122.5 8.5 122.156 8.152 121.908 7.704C121.668 7.256 121.548 6.72 121.548 6.096C121.548 5.488 121.668 4.96 121.908 4.512C122.148 4.056 122.476 3.7 122.892 3.444C123.316 3.188 123.804 3.06 124.356 3.06C124.884 3.06 125.336 3.176 125.712 3.408C126.088 3.64 126.376 3.968 126.576 4.392C126.784 4.816 126.888 5.324 126.888 5.916V6.288H122.292V5.652H126.24L126.048 5.808C126.048 5.168 125.904 4.672 125.616 4.32C125.336 3.96 124.924 3.78 124.38 3.78C123.972 3.78 123.624 3.876 123.336 4.068C123.056 4.252 122.844 4.512 122.7 4.848C122.556 5.176 122.484 5.56 122.484 6V6.072C122.484 6.56 122.56 6.972 122.712 7.308C122.872 7.644 123.108 7.9 123.42 8.076C123.732 8.244 124.104 8.328 124.536 8.328C124.88 8.328 125.212 8.276 125.532 8.172C125.86 8.06 126.168 7.88 126.456 7.632L126.792 8.316C126.528 8.556 126.192 8.748 125.784 8.892C125.376 9.036 124.96 9.108 124.536 9.108ZM128.295 9V3.168H129.243V4.548H129.123C129.259 4.076 129.495 3.72 129.831 3.48C130.167 3.232 130.611 3.088 131.163 3.048L131.511 3.012L131.583 3.852L130.971 3.924C130.427 3.972 130.007 4.148 129.711 4.452C129.423 4.748 129.279 5.156 129.279 5.676V9H128.295ZM132.266 6.204V5.4H135.626V6.204H132.266ZM140.034 9.108C139.594 9.108 139.178 9.068 138.786 8.988C138.402 8.908 138.046 8.796 137.718 8.652C137.398 8.5 137.106 8.316 136.842 8.1L137.19 7.308C137.462 7.508 137.738 7.68 138.018 7.824C138.306 7.96 138.614 8.064 138.942 8.136C139.278 8.2 139.642 8.232 140.034 8.232C140.754 8.232 141.286 8.1 141.63 7.836C141.982 7.564 142.158 7.208 142.158 6.768C142.158 6.536 142.102 6.336 141.99 6.168C141.886 6 141.71 5.856 141.462 5.736C141.222 5.616 140.906 5.516 140.514 5.436L139.266 5.184C138.514 5.024 137.95 4.764 137.574 4.404C137.206 4.036 137.022 3.548 137.022 2.94C137.022 2.436 137.15 1.996 137.406 1.62C137.67 1.244 138.034 0.951999 138.498 0.744C138.97 0.536 139.506 0.431999 140.106 0.431999C140.49 0.431999 140.854 0.471999 141.198 0.551999C141.542 0.632 141.858 0.752 142.146 0.912C142.442 1.064 142.702 1.252 142.926 1.476L142.578 2.244C142.218 1.916 141.838 1.68 141.438 1.536C141.038 1.384 140.59 1.308 140.094 1.308C139.67 1.308 139.302 1.372 138.99 1.5C138.686 1.628 138.446 1.816 138.27 2.064C138.102 2.304 138.018 2.584 138.018 2.904C138.018 3.288 138.134 3.592 138.366 3.816C138.606 4.04 138.994 4.204 139.53 4.308L140.778 4.572C141.586 4.74 142.182 4.996 142.566 5.34C142.958 5.676 143.154 6.136 143.154 6.72C143.154 7.184 143.026 7.6 142.77 7.968C142.522 8.328 142.162 8.608 141.69 8.808C141.226 9.008 140.674 9.108 140.034 9.108ZM146.385 9.108C145.985 9.108 145.625 9.032 145.305 8.88C144.993 8.72 144.745 8.504 144.561 8.232C144.377 7.96 144.285 7.656 144.285 7.32C144.285 6.888 144.393 6.548 144.609 6.3C144.833 6.052 145.197 5.876 145.701 5.772C146.213 5.668 146.909 5.616 147.789 5.616H148.329V6.252H147.801C147.313 6.252 146.905 6.268 146.577 6.3C146.249 6.332 145.989 6.388 145.797 6.468C145.605 6.548 145.469 6.652 145.389 6.78C145.309 6.908 145.269 7.068 145.269 7.26C145.269 7.588 145.381 7.856 145.605 8.064C145.837 8.272 146.149 8.376 146.541 8.376C146.861 8.376 147.141 8.3 147.381 8.148C147.629 7.996 147.821 7.788 147.957 7.524C148.101 7.26 148.173 6.956 148.173 6.612V5.244C148.173 4.748 148.073 4.392 147.873 4.176C147.673 3.952 147.345 3.84 146.889 3.84C146.537 3.84 146.197 3.892 145.869 3.996C145.541 4.092 145.205 4.252 144.861 4.476L144.525 3.768C144.733 3.624 144.969 3.5 145.233 3.396C145.497 3.284 145.773 3.2 146.061 3.144C146.349 3.088 146.625 3.06 146.889 3.06C147.393 3.06 147.809 3.144 148.137 3.312C148.465 3.472 148.709 3.72 148.869 4.056C149.029 4.384 149.109 4.808 149.109 5.328V9H148.197V7.644H148.305C148.241 7.948 148.117 8.208 147.933 8.424C147.757 8.64 147.537 8.808 147.273 8.928C147.009 9.048 146.713 9.108 146.385 9.108ZM151.224 9V3.924H150.072V3.168H151.488L151.224 3.42V2.964C151.224 2.188 151.416 1.6 151.8 1.2C152.192 0.799999 152.792 0.575999 153.6 0.528L154.068 0.504L154.152 1.248L153.6 1.284C153.272 1.308 153.004 1.38 152.796 1.5C152.588 1.62 152.436 1.792 152.34 2.016C152.244 2.24 152.196 2.516 152.196 2.844V3.348L152.052 3.168H153.876V3.924H152.196V9H151.224ZM157.372 9.108C156.756 9.108 156.224 8.988 155.776 8.748C155.336 8.5 154.992 8.152 154.744 7.704C154.504 7.256 154.384 6.72 154.384 6.096C154.384 5.488 154.504 4.96 154.744 4.512C154.984 4.056 155.312 3.7 155.728 3.444C156.152 3.188 156.64 3.06 157.192 3.06C157.72 3.06 158.172 3.176 158.548 3.408C158.924 3.64 159.212 3.968 159.412 4.392C159.62 4.816 159.724 5.324 159.724 5.916V6.288H155.128V5.652H159.076L158.884 5.808C158.884 5.168 158.74 4.672 158.452 4.32C158.172 3.96 157.76 3.78 157.216 3.78C156.808 3.78 156.46 3.876 156.172 4.068C155.892 4.252 155.68 4.512 155.536 4.848C155.392 5.176 155.32 5.56 155.32 6V6.072C155.32 6.56 155.396 6.972 155.548 7.308C155.708 7.644 155.944 7.9 156.256 8.076C156.568 8.244 156.94 8.328 157.372 8.328C157.716 8.328 158.048 8.276 158.368 8.172C158.696 8.06 159.004 7.88 159.292 7.632L159.628 8.316C159.364 8.556 159.028 8.748 158.62 8.892C158.212 9.036 157.796 9.108 157.372 9.108ZM164.789 9V8.16H166.721V1.392H167.237L165.197 2.688L164.777 1.956L166.997 0.539999H167.705V8.16H169.517V9H164.789ZM171.576 9V8.256L174.468 5.136C174.74 4.84 174.96 4.564 175.128 4.308C175.296 4.044 175.42 3.788 175.5 3.54C175.58 3.292 175.62 3.04 175.62 2.784C175.62 2.304 175.472 1.94 175.176 1.692C174.888 1.436 174.464 1.308 173.904 1.308C173.472 1.308 173.068 1.388 172.692 1.548C172.324 1.7 171.972 1.94 171.636 2.268L171.264 1.5C171.576 1.18 171.972 0.924 172.452 0.732C172.94 0.532 173.452 0.431999 173.988 0.431999C174.556 0.431999 175.036 0.52 175.428 0.696C175.82 0.872 176.116 1.132 176.316 1.476C176.516 1.812 176.616 2.224 176.616 2.712C176.616 2.968 176.584 3.22 176.52 3.468C176.464 3.708 176.372 3.952 176.244 4.2C176.124 4.44 175.968 4.688 175.776 4.944C175.592 5.2 175.368 5.464 175.104 5.736L172.56 8.436V8.16H176.964V9H171.576ZM181.291 9.108C180.651 9.108 180.107 8.944 179.659 8.616C179.219 8.28 178.887 7.788 178.663 7.14C178.439 6.492 178.327 5.7 178.327 4.764C178.327 3.82 178.439 3.028 178.663 2.388C178.887 1.74 179.219 1.252 179.659 0.924C180.107 0.595999 180.651 0.431999 181.291 0.431999C181.939 0.431999 182.483 0.595999 182.923 0.924C183.363 1.252 183.695 1.736 183.919 2.376C184.143 3.016 184.255 3.808 184.255 4.752C184.255 5.696 184.143 6.492 183.919 7.14C183.695 7.788 183.363 8.28 182.923 8.616C182.483 8.944 181.939 9.108 181.291 9.108ZM181.291 8.256C181.963 8.256 182.459 7.972 182.779 7.404C183.107 6.836 183.271 5.952 183.271 4.752C183.271 3.552 183.111 2.676 182.791 2.124C182.471 1.564 181.971 1.284 181.291 1.284C180.627 1.284 180.131 1.564 179.803 2.124C179.475 2.684 179.311 3.56 179.311 4.752C179.311 5.952 179.471 6.836 179.791 7.404C180.119 7.972 180.619 8.256 181.291 8.256ZM185.823 9V3.168H186.771V4.464H186.639C186.735 4.168 186.875 3.916 187.059 3.708C187.251 3.492 187.475 3.332 187.731 3.228C187.995 3.116 188.283 3.06 188.595 3.06C189.091 3.06 189.491 3.18 189.795 3.42C190.107 3.652 190.315 4.016 190.419 4.512H190.239C190.383 4.064 190.639 3.712 191.007 3.456C191.383 3.192 191.819 3.06 192.315 3.06C192.755 3.06 193.115 3.144 193.395 3.312C193.683 3.48 193.899 3.736 194.043 4.08C194.187 4.416 194.259 4.844 194.259 5.364V9H193.287V5.412C193.287 4.876 193.195 4.484 193.011 4.236C192.827 3.98 192.515 3.852 192.075 3.852C191.763 3.852 191.487 3.928 191.247 4.08C191.015 4.232 190.835 4.448 190.707 4.728C190.587 5 190.527 5.324 190.527 5.7V9H189.555V5.412C189.555 4.876 189.459 4.484 189.267 4.236C189.083 3.98 188.775 3.852 188.343 3.852C188.023 3.852 187.747 3.928 187.515 4.08C187.283 4.232 187.103 4.448 186.975 4.728C186.855 5 186.795 5.324 186.795 5.7V9H185.823ZM197.864 9.108C197.272 9.108 196.824 8.932 196.52 8.58C196.224 8.228 196.076 7.724 196.076 7.068V0.539999H197.048V6.996C197.048 7.276 197.084 7.512 197.156 7.704C197.236 7.896 197.352 8.04 197.504 8.136C197.656 8.232 197.844 8.28 198.068 8.28C198.164 8.28 198.256 8.276 198.344 8.268C198.44 8.252 198.528 8.232 198.608 8.208L198.584 9.024C198.456 9.048 198.332 9.068 198.212 9.084C198.1 9.1 197.984 9.108 197.864 9.108ZM206.501 9.108C205.669 9.108 204.957 8.932 204.365 8.58C203.773 8.228 203.317 7.728 202.997 7.08C202.685 6.432 202.529 5.66 202.529 4.764C202.529 3.868 202.685 3.1 202.997 2.46C203.317 1.812 203.773 1.312 204.365 0.96C204.957 0.608 205.669 0.431999 206.501 0.431999C207.085 0.431999 207.625 0.523999 208.121 0.707999C208.617 0.891999 209.033 1.16 209.369 1.512L208.985 2.316C208.617 1.972 208.233 1.724 207.833 1.572C207.441 1.412 207.005 1.332 206.525 1.332C205.573 1.332 204.845 1.632 204.341 2.232C203.837 2.832 203.585 3.676 203.585 4.764C203.585 5.852 203.837 6.7 204.341 7.308C204.845 7.908 205.573 8.208 206.525 8.208C207.005 8.208 207.441 8.132 207.833 7.98C208.233 7.82 208.617 7.568 208.985 7.224L209.369 8.028C209.033 8.372 208.617 8.64 208.121 8.832C207.625 9.016 207.085 9.108 206.501 9.108ZM212.785 9.108C212.217 9.108 211.725 8.984 211.309 8.736C210.893 8.488 210.569 8.14 210.337 7.692C210.113 7.236 210.001 6.7 210.001 6.084C210.001 5.468 210.113 4.936 210.337 4.488C210.569 4.032 210.893 3.68 211.309 3.432C211.725 3.184 212.217 3.06 212.785 3.06C213.353 3.06 213.845 3.184 214.261 3.432C214.677 3.68 214.997 4.032 215.221 4.488C215.453 4.936 215.569 5.468 215.569 6.084C215.569 6.7 215.453 7.236 215.221 7.692C214.997 8.14 214.677 8.488 214.261 8.736C213.845 8.984 213.353 9.108 212.785 9.108ZM212.785 8.328C213.337 8.328 213.773 8.136 214.093 7.752C214.421 7.36 214.585 6.8 214.585 6.072C214.585 5.352 214.421 4.8 214.093 4.416C213.773 4.032 213.337 3.84 212.785 3.84C212.241 3.84 211.805 4.032 211.477 4.416C211.149 4.8 210.985 5.352 210.985 6.072C210.985 6.8 211.149 7.36 211.477 7.752C211.805 8.136 212.241 8.328 212.785 8.328ZM217.029 9V3.168H217.977V4.464H217.845C218.013 4 218.285 3.652 218.661 3.42C219.045 3.18 219.485 3.06 219.981 3.06C220.445 3.06 220.829 3.144 221.133 3.312C221.445 3.472 221.677 3.724 221.829 4.068C221.981 4.412 222.057 4.844 222.057 5.364V9H221.085V5.424C221.085 5.064 221.037 4.768 220.941 4.536C220.853 4.304 220.709 4.132 220.509 4.02C220.317 3.908 220.065 3.852 219.753 3.852C219.401 3.852 219.093 3.928 218.829 4.08C218.565 4.232 218.361 4.444 218.217 4.716C218.073 4.988 218.001 5.308 218.001 5.676V9H217.029ZM226.19 9.108C225.502 9.108 224.986 8.924 224.642 8.556C224.298 8.188 224.126 7.664 224.126 6.984V3.924H222.986V3.168H224.126V1.38H225.098V3.168H226.946V3.924H225.098V6.888C225.098 7.344 225.194 7.692 225.386 7.932C225.578 8.164 225.89 8.28 226.322 8.28C226.45 8.28 226.578 8.264 226.706 8.232C226.834 8.2 226.95 8.168 227.054 8.136L227.222 8.88C227.118 8.936 226.966 8.988 226.766 9.036C226.566 9.084 226.374 9.108 226.19 9.108ZM229.881 9.108C229.481 9.108 229.121 9.032 228.801 8.88C228.489 8.72 228.241 8.504 228.057 8.232C227.873 7.96 227.781 7.656 227.781 7.32C227.781 6.888 227.889 6.548 228.105 6.3C228.329 6.052 228.693 5.876 229.197 5.772C229.709 5.668 230.405 5.616 231.285 5.616H231.825V6.252H231.297C230.809 6.252 230.401 6.268 230.073 6.3C229.745 6.332 229.485 6.388 229.293 6.468C229.101 6.548 228.965 6.652 228.885 6.78C228.805 6.908 228.765 7.068 228.765 7.26C228.765 7.588 228.877 7.856 229.101 8.064C229.333 8.272 229.645 8.376 230.037 8.376C230.357 8.376 230.637 8.3 230.877 8.148C231.125 7.996 231.317 7.788 231.453 7.524C231.597 7.26 231.669 6.956 231.669 6.612V5.244C231.669 4.748 231.569 4.392 231.369 4.176C231.169 3.952 230.841 3.84 230.385 3.84C230.033 3.84 229.693 3.892 229.365 3.996C229.037 4.092 228.701 4.252 228.357 4.476L228.021 3.768C228.229 3.624 228.465 3.5 228.729 3.396C228.993 3.284 229.269 3.2 229.557 3.144C229.845 3.088 230.121 3.06 230.385 3.06C230.889 3.06 231.305 3.144 231.633 3.312C231.961 3.472 232.205 3.72 232.365 4.056C232.525 4.384 232.605 4.808 232.605 5.328V9H231.693V7.644H231.801C231.737 7.948 231.613 8.208 231.429 8.424C231.253 8.64 231.033 8.808 230.769 8.928C230.505 9.048 230.209 9.108 229.881 9.108ZM234.288 1.716V0.624H235.488V1.716H234.288ZM234.408 9V3.168H235.38V9H234.408ZM237.197 9V3.168H238.145V4.464H238.013C238.181 4 238.453 3.652 238.829 3.42C239.213 3.18 239.653 3.06 240.149 3.06C240.613 3.06 240.997 3.144 241.301 3.312C241.613 3.472 241.845 3.724 241.997 4.068C242.149 4.412 242.225 4.844 242.225 5.364V9H241.253V5.424C241.253 5.064 241.205 4.768 241.109 4.536C241.021 4.304 240.877 4.132 240.677 4.02C240.485 3.908 240.233 3.852 239.921 3.852C239.569 3.852 239.261 3.928 238.997 4.08C238.733 4.232 238.529 4.444 238.385 4.716C238.241 4.988 238.169 5.308 238.169 5.676V9H237.197ZM246.645 9.108C246.029 9.108 245.497 8.988 245.049 8.748C244.609 8.5 244.265 8.152 244.017 7.704C243.777 7.256 243.657 6.72 243.657 6.096C243.657 5.488 243.777 4.96 244.017 4.512C244.257 4.056 244.585 3.7 245.001 3.444C245.425 3.188 245.913 3.06 246.465 3.06C246.993 3.06 247.445 3.176 247.821 3.408C248.197 3.64 248.485 3.968 248.685 4.392C248.893 4.816 248.997 5.324 248.997 5.916V6.288H244.401V5.652H248.349L248.157 5.808C248.157 5.168 248.013 4.672 247.725 4.32C247.445 3.96 247.033 3.78 246.489 3.78C246.081 3.78 245.733 3.876 245.445 4.068C245.165 4.252 244.953 4.512 244.809 4.848C244.665 5.176 244.593 5.56 244.593 6V6.072C244.593 6.56 244.669 6.972 244.821 7.308C244.981 7.644 245.217 7.9 245.529 8.076C245.841 8.244 246.213 8.328 246.645 8.328C246.989 8.328 247.321 8.276 247.641 8.172C247.969 8.06 248.277 7.88 248.565 7.632L248.901 8.316C248.637 8.556 248.301 8.748 247.893 8.892C247.485 9.036 247.069 9.108 246.645 9.108ZM250.404 9V3.168H251.352V4.548H251.232C251.368 4.076 251.604 3.72 251.94 3.48C252.276 3.232 252.72 3.088 253.272 3.048L253.62 3.012L253.692 3.852L253.08 3.924C252.536 3.972 252.116 4.148 251.82 4.452C251.532 4.748 251.388 5.156 251.388 5.676V9H250.404ZM254.807 10.368L254.351 10.02C254.495 9.868 254.603 9.724 254.675 9.588C254.755 9.46 254.807 9.328 254.831 9.192C254.863 9.064 254.879 8.932 254.879 8.796L255.095 9H254.303V7.776H255.527V8.64C255.527 8.856 255.503 9.06 255.455 9.252C255.415 9.452 255.343 9.644 255.239 9.828C255.135 10.012 254.991 10.192 254.807 10.368ZM260.403 9V0.539999H263.751C264.359 0.539999 264.871 0.64 265.287 0.84C265.711 1.032 266.031 1.32 266.247 1.704C266.463 2.08 266.571 2.54 266.571 3.084C266.571 3.612 266.463 4.068 266.247 4.452C266.031 4.836 265.711 5.128 265.287 5.328C264.871 5.528 264.359 5.628 263.751 5.628H261.387V9H260.403ZM261.387 4.8H263.631C264.279 4.8 264.767 4.656 265.095 4.368C265.431 4.072 265.599 3.644 265.599 3.084C265.599 2.516 265.431 2.088 265.095 1.8C264.767 1.504 264.279 1.356 263.631 1.356H261.387V4.8ZM270.235 9.108C269.619 9.108 269.087 8.988 268.639 8.748C268.199 8.5 267.855 8.152 267.607 7.704C267.367 7.256 267.247 6.72 267.247 6.096C267.247 5.488 267.367 4.96 267.607 4.512C267.847 4.056 268.175 3.7 268.591 3.444C269.015 3.188 269.503 3.06 270.055 3.06C270.583 3.06 271.035 3.176 271.411 3.408C271.787 3.64 272.075 3.968 272.275 4.392C272.483 4.816 272.587 5.324 272.587 5.916V6.288H267.991V5.652H271.939L271.747 5.808C271.747 5.168 271.603 4.672 271.315 4.32C271.035 3.96 270.623 3.78 270.079 3.78C269.671 3.78 269.323 3.876 269.035 4.068C268.755 4.252 268.543 4.512 268.399 4.848C268.255 5.176 268.183 5.56 268.183 6V6.072C268.183 6.56 268.259 6.972 268.411 7.308C268.571 7.644 268.807 7.9 269.119 8.076C269.431 8.244 269.803 8.328 270.235 8.328C270.579 8.328 270.911 8.276 271.231 8.172C271.559 8.06 271.867 7.88 272.155 7.632L272.491 8.316C272.227 8.556 271.891 8.748 271.483 8.892C271.075 9.036 270.659 9.108 270.235 9.108ZM273.994 9V3.168H274.942V4.548H274.822C274.958 4.076 275.194 3.72 275.53 3.48C275.866 3.232 276.31 3.088 276.862 3.048L277.21 3.012L277.282 3.852L276.67 3.924C276.126 3.972 275.706 4.148 275.41 4.452C275.122 4.748 274.978 5.156 274.978 5.676V9H273.994ZM278.923 9V3.924H277.771V3.168H279.187L278.923 3.42V2.964C278.923 2.188 279.115 1.6 279.499 1.2C279.891 0.799999 280.491 0.575999 281.299 0.528L281.767 0.504L281.851 1.248L281.299 1.284C280.971 1.308 280.703 1.38 280.495 1.5C280.287 1.62 280.135 1.792 280.039 2.016C279.943 2.24 279.895 2.516 279.895 2.844V3.348L279.751 3.168H281.575V3.924H279.895V9H278.923ZM285.071 9.108C284.455 9.108 283.923 8.988 283.475 8.748C283.035 8.5 282.691 8.152 282.443 7.704C282.203 7.256 282.083 6.72 282.083 6.096C282.083 5.488 282.203 4.96 282.443 4.512C282.683 4.056 283.011 3.7 283.427 3.444C283.851 3.188 284.339 3.06 284.891 3.06C285.419 3.06 285.871 3.176 286.247 3.408C286.623 3.64 286.911 3.968 287.111 4.392C287.319 4.816 287.423 5.324 287.423 5.916V6.288H282.827V5.652H286.775L286.583 5.808C286.583 5.168 286.439 4.672 286.151 4.32C285.871 3.96 285.459 3.78 284.915 3.78C284.507 3.78 284.159 3.876 283.871 4.068C283.591 4.252 283.379 4.512 283.235 4.848C283.091 5.176 283.019 5.56 283.019 6V6.072C283.019 6.56 283.095 6.972 283.247 7.308C283.407 7.644 283.643 7.9 283.955 8.076C284.267 8.244 284.639 8.328 285.071 8.328C285.415 8.328 285.747 8.276 286.067 8.172C286.395 8.06 286.703 7.88 286.991 7.632L287.327 8.316C287.063 8.556 286.727 8.748 286.319 8.892C285.911 9.036 285.495 9.108 285.071 9.108ZM291.302 9.108C290.718 9.108 290.214 8.98 289.79 8.724C289.366 8.468 289.038 8.112 288.806 7.656C288.582 7.192 288.47 6.656 288.47 6.048C288.47 5.432 288.582 4.9 288.806 4.452C289.038 4.004 289.366 3.66 289.79 3.42C290.214 3.18 290.718 3.06 291.302 3.06C291.662 3.06 292.018 3.124 292.37 3.252C292.722 3.38 293.014 3.56 293.246 3.792L292.91 4.5C292.678 4.276 292.422 4.112 292.142 4.008C291.87 3.904 291.61 3.852 291.362 3.852C290.754 3.852 290.286 4.044 289.958 4.428C289.63 4.804 289.466 5.348 289.466 6.06C289.466 6.756 289.63 7.308 289.958 7.716C290.286 8.116 290.754 8.316 291.362 8.316C291.61 8.316 291.87 8.264 292.142 8.16C292.422 8.056 292.678 7.888 292.91 7.656L293.246 8.364C293.014 8.596 292.718 8.78 292.358 8.916C292.006 9.044 291.654 9.108 291.302 9.108ZM296.725 9.108C296.037 9.108 295.521 8.924 295.177 8.556C294.833 8.188 294.661 7.664 294.661 6.984V3.924H293.521V3.168H294.661V1.38H295.633V3.168H297.481V3.924H295.633V6.888C295.633 7.344 295.729 7.692 295.921 7.932C296.113 8.164 296.425 8.28 296.857 8.28C296.985 8.28 297.113 8.264 297.241 8.232C297.369 8.2 297.485 8.168 297.589 8.136L297.757 8.88C297.653 8.936 297.501 8.988 297.301 9.036C297.101 9.084 296.909 9.108 296.725 9.108ZM301.794 9V0.539999H307.026V1.368H302.778V4.32H306.786V5.148H302.778V9H301.794ZM310.438 9.108C309.87 9.108 309.378 8.984 308.962 8.736C308.546 8.488 308.222 8.14 307.99 7.692C307.766 7.236 307.654 6.7 307.654 6.084C307.654 5.468 307.766 4.936 307.99 4.488C308.222 4.032 308.546 3.68 308.962 3.432C309.378 3.184 309.87 3.06 310.438 3.06C311.006 3.06 311.498 3.184 311.914 3.432C312.33 3.68 312.65 4.032 312.874 4.488C313.106 4.936 313.222 5.468 313.222 6.084C313.222 6.7 313.106 7.236 312.874 7.692C312.65 8.14 312.33 8.488 311.914 8.736C311.498 8.984 311.006 9.108 310.438 9.108ZM310.438 8.328C310.99 8.328 311.426 8.136 311.746 7.752C312.074 7.36 312.238 6.8 312.238 6.072C312.238 5.352 312.074 4.8 311.746 4.416C311.426 4.032 310.99 3.84 310.438 3.84C309.894 3.84 309.458 4.032 309.13 4.416C308.802 4.8 308.638 5.352 308.638 6.072C308.638 6.8 308.802 7.36 309.13 7.752C309.458 8.136 309.894 8.328 310.438 8.328ZM314.682 9V3.168H315.63V4.548H315.51C315.646 4.076 315.882 3.72 316.218 3.48C316.554 3.232 316.998 3.088 317.55 3.048L317.898 3.012L317.97 3.852L317.358 3.924C316.814 3.972 316.394 4.148 316.098 4.452C315.81 4.748 315.666 5.156 315.666 5.676V9H314.682ZM3.78 25.108C3.34 25.108 2.924 25.068 2.532 24.988C2.148 24.908 1.792 24.796 1.464 24.652C1.144 24.5 0.852 24.316 0.588 24.1L0.936 23.308C1.208 23.508 1.484 23.68 1.764 23.824C2.052 23.96 2.36 24.064 2.688 24.136C3.024 24.2 3.388 24.232 3.78 24.232C4.5 24.232 5.032 24.1 5.376 23.836C5.728 23.564 5.904 23.208 5.904 22.768C5.904 22.536 5.848 22.336 5.736 22.168C5.632 22 5.456 21.856 5.208 21.736C4.968 21.616 4.652 21.516 4.26 21.436L3.012 21.184C2.26 21.024 1.696 20.764 1.32 20.404C0.952 20.036 0.768 19.548 0.768 18.94C0.768 18.436 0.896 17.996 1.152 17.62C1.416 17.244 1.78 16.952 2.244 16.744C2.716 16.536 3.252 16.432 3.852 16.432C4.236 16.432 4.6 16.472 4.944 16.552C5.288 16.632 5.604 16.752 5.892 16.912C6.188 17.064 6.448 17.252 6.672 17.476L6.324 18.244C5.964 17.916 5.584 17.68 5.184 17.536C4.784 17.384 4.336 17.308 3.84 17.308C3.416 17.308 3.048 17.372 2.736 17.5C2.432 17.628 2.192 17.816 2.016 18.064C1.848 18.304 1.764 18.584 1.764 18.904C1.764 19.288 1.88 19.592 2.112 19.816C2.352 20.04 2.74 20.204 3.276 20.308L4.524 20.572C5.332 20.74 5.928 20.996 6.312 21.34C6.704 21.676 6.9 22.136 6.9 22.72C6.9 23.184 6.772 23.6 6.516 23.968C6.268 24.328 5.908 24.608 5.436 24.808C4.972 25.008 4.42 25.108 3.78 25.108ZM8.29481 25V19.168H9.24281V20.464H9.11081C9.27881 20 9.55081 19.652 9.92681 19.42C10.3108 19.18 10.7508 19.06 11.2468 19.06C11.7108 19.06 12.0948 19.144 12.3988 19.312C12.7108 19.472 12.9428 19.724 13.0948 20.068C13.2468 20.412 13.3228 20.844 13.3228 21.364V25H12.3508V21.424C12.3508 21.064 12.3028 20.768 12.2068 20.536C12.1188 20.304 11.9748 20.132 11.7748 20.02C11.5828 19.908 11.3308 19.852 11.0188 19.852C10.6668 19.852 10.3588 19.928 10.0948 20.08C9.83081 20.232 9.62681 20.444 9.48281 20.716C9.33881 20.988 9.26681 21.308 9.26681 21.676V25H8.29481ZM16.9511 25.108C16.5511 25.108 16.1911 25.032 15.8711 24.88C15.5591 24.72 15.3111 24.504 15.1271 24.232C14.9431 23.96 14.8511 23.656 14.8511 23.32C14.8511 22.888 14.9591 22.548 15.1751 22.3C15.3991 22.052 15.7631 21.876 16.2671 21.772C16.7791 21.668 17.4751 21.616 18.3551 21.616H18.8951V22.252H18.3671C17.8791 22.252 17.4711 22.268 17.1431 22.3C16.8151 22.332 16.5551 22.388 16.3631 22.468C16.1711 22.548 16.0351 22.652 15.9551 22.78C15.8751 22.908 15.8351 23.068 15.8351 23.26C15.8351 23.588 15.9471 23.856 16.1711 24.064C16.4031 24.272 16.7151 24.376 17.1071 24.376C17.4271 24.376 17.7071 24.3 17.9471 24.148C18.1951 23.996 18.3871 23.788 18.5231 23.524C18.6671 23.26 18.7391 22.956 18.7391 22.612V21.244C18.7391 20.748 18.6391 20.392 18.4391 20.176C18.2391 19.952 17.9111 19.84 17.4551 19.84C17.1031 19.84 16.7631 19.892 16.4351 19.996C16.1071 20.092 15.7711 20.252 15.4271 20.476L15.0911 19.768C15.2991 19.624 15.5351 19.5 15.7991 19.396C16.0631 19.284 16.3391 19.2 16.6271 19.144C16.9151 19.088 17.1911 19.06 17.4551 19.06C17.9591 19.06 18.3751 19.144 18.7031 19.312C19.0311 19.472 19.2751 19.72 19.4351 20.056C19.5951 20.384 19.6751 20.808 19.6751 21.328V25H18.7631V23.644H18.8711C18.8071 23.948 18.6831 24.208 18.4991 24.424C18.3231 24.64 18.1031 24.808 17.8391 24.928C17.5751 25.048 17.2791 25.108 16.9511 25.108ZM23.9504 25.108C23.3664 25.108 22.8624 24.98 22.4384 24.724C22.0144 24.468 21.6864 24.112 21.4544 23.656C21.2304 23.192 21.1184 22.656 21.1184 22.048C21.1184 21.432 21.2304 20.9 21.4544 20.452C21.6864 20.004 22.0144 19.66 22.4384 19.42C22.8624 19.18 23.3664 19.06 23.9504 19.06C24.3104 19.06 24.6664 19.124 25.0184 19.252C25.3704 19.38 25.6624 19.56 25.8944 19.792L25.5584 20.5C25.3264 20.276 25.0704 20.112 24.7904 20.008C24.5184 19.904 24.2584 19.852 24.0104 19.852C23.4024 19.852 22.9344 20.044 22.6064 20.428C22.2784 20.804 22.1144 21.348 22.1144 22.06C22.1144 22.756 22.2784 23.308 22.6064 23.716C22.9344 24.116 23.4024 24.316 24.0104 24.316C24.2584 24.316 24.5184 24.264 24.7904 24.16C25.0704 24.056 25.3264 23.888 25.5584 23.656L25.8944 24.364C25.6624 24.596 25.3664 24.78 25.0064 24.916C24.6544 25.044 24.3024 25.108 23.9504 25.108ZM27.0331 25V16.54H28.0051V21.76H28.0291L30.7291 19.168H31.9651L28.7611 22.24V21.712L32.2171 25H30.9811L28.0291 22.264H28.0051V25H27.0331ZM34.8956 25.108C34.5916 25.108 34.2956 25.076 34.0076 25.012C33.7276 24.956 33.4636 24.876 33.2156 24.772C32.9756 24.66 32.7676 24.528 32.5916 24.376L32.9036 23.692C33.0956 23.844 33.3036 23.972 33.5276 24.076C33.7516 24.172 33.9796 24.244 34.2116 24.292C34.4436 24.34 34.6796 24.364 34.9196 24.364C35.3756 24.364 35.7196 24.28 35.9516 24.112C36.1836 23.944 36.2996 23.716 36.2996 23.428C36.2996 23.204 36.2236 23.028 36.0716 22.9C35.9196 22.764 35.6796 22.66 35.3516 22.588L34.2596 22.348C33.7556 22.244 33.3796 22.064 33.1316 21.808C32.8916 21.552 32.7716 21.22 32.7716 20.812C32.7716 20.452 32.8636 20.144 33.0476 19.888C33.2396 19.624 33.5076 19.42 33.8516 19.276C34.1956 19.132 34.5956 19.06 35.0516 19.06C35.3236 19.06 35.5836 19.088 35.8316 19.144C36.0796 19.2 36.3116 19.284 36.5276 19.396C36.7516 19.5 36.9436 19.632 37.1036 19.792L36.7796 20.476C36.6276 20.332 36.4556 20.212 36.2636 20.116C36.0716 20.012 35.8716 19.936 35.6636 19.888C35.4636 19.832 35.2596 19.804 35.0516 19.804C34.6036 19.804 34.2636 19.892 34.0316 20.068C33.7996 20.244 33.6836 20.476 33.6836 20.764C33.6836 20.988 33.7556 21.172 33.8996 21.316C34.0436 21.46 34.2676 21.564 34.5716 21.628L35.6636 21.856C36.1836 21.968 36.5716 22.148 36.8276 22.396C37.0916 22.636 37.2236 22.964 37.2236 23.38C37.2236 23.732 37.1276 24.04 36.9356 24.304C36.7436 24.56 36.4716 24.76 36.1196 24.904C35.7756 25.04 35.3676 25.108 34.8956 25.108ZM38.9944 26.368L38.5384 26.02C38.6824 25.868 38.7904 25.724 38.8624 25.588C38.9424 25.46 38.9944 25.328 39.0184 25.192C39.0504 25.064 39.0664 24.932 39.0664 24.796L39.2824 25H38.4904V23.776H39.7144V24.64C39.7144 24.856 39.6904 25.06 39.6424 25.252C39.6024 25.452 39.5304 25.644 39.4264 25.828C39.3224 26.012 39.1784 26.192 38.9944 26.368ZM44.5909 25V16.54H47.4469C48.3669 16.54 49.1429 16.704 49.7749 17.032C50.4149 17.352 50.8989 17.828 51.2269 18.46C51.5629 19.084 51.7309 19.852 51.7309 20.764C51.7309 21.676 51.5629 22.448 51.2269 23.08C50.8989 23.712 50.4149 24.192 49.7749 24.52C49.1429 24.84 48.3669 25 47.4469 25H44.5909ZM45.5749 24.16H47.3749C48.4869 24.16 49.3149 23.876 49.8589 23.308C50.4109 22.74 50.6869 21.892 50.6869 20.764C50.6869 19.636 50.4109 18.792 49.8589 18.232C49.3069 17.664 48.4789 17.38 47.3749 17.38H45.5749V24.16ZM55.9931 25.108C55.3771 25.108 54.8451 24.988 54.3971 24.748C53.9571 24.5 53.6131 24.152 53.3651 23.704C53.1251 23.256 53.0051 22.72 53.0051 22.096C53.0051 21.488 53.1251 20.96 53.3651 20.512C53.6051 20.056 53.9331 19.7 54.3491 19.444C54.7731 19.188 55.2611 19.06 55.8131 19.06C56.3411 19.06 56.7931 19.176 57.1691 19.408C57.5451 19.64 57.8331 19.968 58.0331 20.392C58.2411 20.816 58.3451 21.324 58.3451 21.916V22.288H53.7491V21.652H57.6971L57.5051 21.808C57.5051 21.168 57.3611 20.672 57.0731 20.32C56.7931 19.96 56.3811 19.78 55.8371 19.78C55.4291 19.78 55.0811 19.876 54.7931 20.068C54.5131 20.252 54.3011 20.512 54.1571 20.848C54.0131 21.176 53.9411 21.56 53.9411 22V22.072C53.9411 22.56 54.0171 22.972 54.1691 23.308C54.3291 23.644 54.5651 23.9 54.8771 24.076C55.1891 24.244 55.5611 24.328 55.9931 24.328C56.3371 24.328 56.6691 24.276 56.9891 24.172C57.3171 24.06 57.6251 23.88 57.9131 23.632L58.2491 24.316C57.9851 24.556 57.6491 24.748 57.2411 24.892C56.8331 25.036 56.4171 25.108 55.9931 25.108ZM61.7198 25.108C61.4158 25.108 61.1198 25.076 60.8318 25.012C60.5518 24.956 60.2878 24.876 60.0398 24.772C59.7998 24.66 59.5918 24.528 59.4158 24.376L59.7278 23.692C59.9198 23.844 60.1278 23.972 60.3518 24.076C60.5758 24.172 60.8038 24.244 61.0358 24.292C61.2678 24.34 61.5038 24.364 61.7438 24.364C62.1998 24.364 62.5438 24.28 62.7758 24.112C63.0078 23.944 63.1238 23.716 63.1238 23.428C63.1238 23.204 63.0478 23.028 62.8958 22.9C62.7438 22.764 62.5038 22.66 62.1758 22.588L61.0838 22.348C60.5798 22.244 60.2038 22.064 59.9558 21.808C59.7158 21.552 59.5958 21.22 59.5958 20.812C59.5958 20.452 59.6878 20.144 59.8718 19.888C60.0638 19.624 60.3318 19.42 60.6758 19.276C61.0198 19.132 61.4198 19.06 61.8758 19.06C62.1478 19.06 62.4078 19.088 62.6558 19.144C62.9038 19.2 63.1358 19.284 63.3518 19.396C63.5758 19.5 63.7678 19.632 63.9278 19.792L63.6038 20.476C63.4518 20.332 63.2798 20.212 63.0878 20.116C62.8958 20.012 62.6958 19.936 62.4878 19.888C62.2878 19.832 62.0838 19.804 61.8758 19.804C61.4278 19.804 61.0878 19.892 60.8558 20.068C60.6238 20.244 60.5078 20.476 60.5078 20.764C60.5078 20.988 60.5798 21.172 60.7238 21.316C60.8678 21.46 61.0918 21.564 61.3958 21.628L62.4878 21.856C63.0078 21.968 63.3958 22.148 63.6518 22.396C63.9158 22.636 64.0478 22.964 64.0478 23.38C64.0478 23.732 63.9518 24.04 63.7598 24.304C63.5678 24.56 63.2958 24.76 62.9438 24.904C62.5998 25.04 62.1918 25.108 61.7198 25.108ZM67.4972 25.108C67.1932 25.108 66.8972 25.076 66.6092 25.012C66.3292 24.956 66.0652 24.876 65.8172 24.772C65.5772 24.66 65.3692 24.528 65.1932 24.376L65.5052 23.692C65.6972 23.844 65.9052 23.972 66.1292 24.076C66.3532 24.172 66.5812 24.244 66.8132 24.292C67.0452 24.34 67.2812 24.364 67.5212 24.364C67.9772 24.364 68.3212 24.28 68.5532 24.112C68.7852 23.944 68.9012 23.716 68.9012 23.428C68.9012 23.204 68.8252 23.028 68.6732 22.9C68.5212 22.764 68.2812 22.66 67.9532 22.588L66.8612 22.348C66.3572 22.244 65.9812 22.064 65.7332 21.808C65.4932 21.552 65.3732 21.22 65.3732 20.812C65.3732 20.452 65.4652 20.144 65.6492 19.888C65.8412 19.624 66.1092 19.42 66.4532 19.276C66.7972 19.132 67.1972 19.06 67.6532 19.06C67.9252 19.06 68.1852 19.088 68.4332 19.144C68.6812 19.2 68.9132 19.284 69.1292 19.396C69.3532 19.5 69.5452 19.632 69.7052 19.792L69.3812 20.476C69.2292 20.332 69.0572 20.212 68.8652 20.116C68.6732 20.012 68.4732 19.936 68.2652 19.888C68.0652 19.832 67.8612 19.804 67.6532 19.804C67.2052 19.804 66.8652 19.892 66.6332 20.068C66.4012 20.244 66.2852 20.476 66.2852 20.764C66.2852 20.988 66.3572 21.172 66.5012 21.316C66.6452 21.46 66.8692 21.564 67.1732 21.628L68.2652 21.856C68.7852 21.968 69.1732 22.148 69.4292 22.396C69.6932 22.636 69.8252 22.964 69.8252 23.38C69.8252 23.732 69.7292 24.04 69.5372 24.304C69.3452 24.56 69.0732 24.76 68.7212 24.904C68.3772 25.04 67.9692 25.108 67.4972 25.108ZM73.9345 25.108C73.3185 25.108 72.7865 24.988 72.3385 24.748C71.8985 24.5 71.5545 24.152 71.3065 23.704C71.0665 23.256 70.9465 22.72 70.9465 22.096C70.9465 21.488 71.0665 20.96 71.3065 20.512C71.5465 20.056 71.8745 19.7 72.2905 19.444C72.7145 19.188 73.2025 19.06 73.7545 19.06C74.2825 19.06 74.7345 19.176 75.1105 19.408C75.4865 19.64 75.7745 19.968 75.9745 20.392C76.1825 20.816 76.2865 21.324 76.2865 21.916V22.288H71.6905V21.652H75.6385L75.4465 21.808C75.4465 21.168 75.3025 20.672 75.0145 20.32C74.7345 19.96 74.3225 19.78 73.7785 19.78C73.3705 19.78 73.0225 19.876 72.7345 20.068C72.4545 20.252 72.2425 20.512 72.0985 20.848C71.9545 21.176 71.8825 21.56 71.8825 22V22.072C71.8825 22.56 71.9585 22.972 72.1105 23.308C72.2705 23.644 72.5065 23.9 72.8185 24.076C73.1305 24.244 73.5025 24.328 73.9345 24.328C74.2785 24.328 74.6105 24.276 74.9305 24.172C75.2585 24.06 75.5665 23.88 75.8545 23.632L76.1905 24.316C75.9265 24.556 75.5905 24.748 75.1825 24.892C74.7745 25.036 74.3585 25.108 73.9345 25.108ZM77.6933 25V19.168H78.6413V20.548H78.5213C78.6573 20.076 78.8933 19.72 79.2293 19.48C79.5653 19.232 80.0093 19.088 80.5613 19.048L80.9093 19.012L80.9813 19.852L80.3693 19.924C79.8253 19.972 79.4053 20.148 79.1093 20.452C78.8213 20.748 78.6773 21.156 78.6773 21.676V25H77.6933ZM84.6504 25.108C83.9624 25.108 83.4464 24.924 83.1024 24.556C82.7584 24.188 82.5864 23.664 82.5864 22.984V19.924H81.4464V19.168H82.5864V17.38H83.5584V19.168H85.4064V19.924H83.5584V22.888C83.5584 23.344 83.6544 23.692 83.8464 23.932C84.0384 24.164 84.3504 24.28 84.7824 24.28C84.9104 24.28 85.0384 24.264 85.1664 24.232C85.2944 24.2 85.4104 24.168 85.5144 24.136L85.6824 24.88C85.5784 24.936 85.4264 24.988 85.2264 25.036C85.0264 25.084 84.8344 25.108 84.6504 25.108ZM88.4738 25.108C88.1698 25.108 87.8738 25.076 87.5858 25.012C87.3058 24.956 87.0418 24.876 86.7938 24.772C86.5538 24.66 86.3458 24.528 86.1698 24.376L86.4818 23.692C86.6738 23.844 86.8818 23.972 87.1058 24.076C87.3298 24.172 87.5578 24.244 87.7898 24.292C88.0218 24.34 88.2578 24.364 88.4978 24.364C88.9538 24.364 89.2978 24.28 89.5298 24.112C89.7618 23.944 89.8778 23.716 89.8778 23.428C89.8778 23.204 89.8018 23.028 89.6498 22.9C89.4978 22.764 89.2578 22.66 88.9298 22.588L87.8378 22.348C87.3338 22.244 86.9578 22.064 86.7098 21.808C86.4698 21.552 86.3498 21.22 86.3498 20.812C86.3498 20.452 86.4418 20.144 86.6258 19.888C86.8178 19.624 87.0858 19.42 87.4298 19.276C87.7738 19.132 88.1738 19.06 88.6298 19.06C88.9018 19.06 89.1618 19.088 89.4098 19.144C89.6578 19.2 89.8898 19.284 90.1058 19.396C90.3298 19.5 90.5218 19.632 90.6818 19.792L90.3578 20.476C90.2058 20.332 90.0338 20.212 89.8418 20.116C89.6498 20.012 89.4498 19.936 89.2418 19.888C89.0418 19.832 88.8378 19.804 88.6298 19.804C88.1818 19.804 87.8418 19.892 87.6098 20.068C87.3778 20.244 87.2618 20.476 87.2618 20.764C87.2618 20.988 87.3338 21.172 87.4778 21.316C87.6218 21.46 87.8458 21.564 88.1498 21.628L89.2418 21.856C89.7618 21.968 90.1498 22.148 90.4058 22.396C90.6698 22.636 90.8018 22.964 90.8018 23.38C90.8018 23.732 90.7058 24.04 90.5138 24.304C90.3218 24.56 90.0498 24.76 89.6978 24.904C89.3538 25.04 88.9458 25.108 88.4738 25.108ZM92.5725 26.368L92.1165 26.02C92.2605 25.868 92.3685 25.724 92.4405 25.588C92.5205 25.46 92.5725 25.328 92.5965 25.192C92.6285 25.064 92.6445 24.932 92.6445 24.796L92.8605 25H92.0685V23.776H93.2925V24.64C93.2925 24.856 93.2685 25.06 93.2205 25.252C93.1805 25.452 93.1085 25.644 93.0045 25.828C92.9005 26.012 92.7565 26.192 92.5725 26.368ZM100.905 25.108C100.465 25.108 100.049 25.068 99.657 24.988C99.273 24.908 98.917 24.796 98.589 24.652C98.269 24.5 97.977 24.316 97.713 24.1L98.061 23.308C98.333 23.508 98.609 23.68 98.889 23.824C99.177 23.96 99.485 24.064 99.813 24.136C100.149 24.2 100.513 24.232 100.905 24.232C101.625 24.232 102.157 24.1 102.501 23.836C102.853 23.564 103.029 23.208 103.029 22.768C103.029 22.536 102.973 22.336 102.861 22.168C102.757 22 102.581 21.856 102.333 21.736C102.093 21.616 101.777 21.516 101.385 21.436L100.137 21.184C99.385 21.024 98.821 20.764 98.445 20.404C98.077 20.036 97.893 19.548 97.893 18.94C97.893 18.436 98.021 17.996 98.277 17.62C98.541 17.244 98.905 16.952 99.369 16.744C99.841 16.536 100.377 16.432 100.977 16.432C101.361 16.432 101.725 16.472 102.069 16.552C102.413 16.632 102.729 16.752 103.017 16.912C103.313 17.064 103.573 17.252 103.797 17.476L103.449 18.244C103.089 17.916 102.709 17.68 102.309 17.536C101.909 17.384 101.461 17.308 100.965 17.308C100.541 17.308 100.173 17.372 99.861 17.5C99.557 17.628 99.317 17.816 99.141 18.064C98.973 18.304 98.889 18.584 98.889 18.904C98.889 19.288 99.005 19.592 99.237 19.816C99.477 20.04 99.865 20.204 100.401 20.308L101.649 20.572C102.457 20.74 103.053 20.996 103.437 21.34C103.829 21.676 104.025 22.136 104.025 22.72C104.025 23.184 103.897 23.6 103.641 23.968C103.393 24.328 103.033 24.608 102.561 24.808C102.097 25.008 101.545 25.108 100.905 25.108ZM107.256 25.108C106.856 25.108 106.496 25.032 106.176 24.88C105.864 24.72 105.616 24.504 105.432 24.232C105.248 23.96 105.156 23.656 105.156 23.32C105.156 22.888 105.264 22.548 105.48 22.3C105.704 22.052 106.068 21.876 106.572 21.772C107.084 21.668 107.78 21.616 108.66 21.616H109.2V22.252H108.672C108.184 22.252 107.776 22.268 107.448 22.3C107.12 22.332 106.86 22.388 106.668 22.468C106.476 22.548 106.34 22.652 106.26 22.78C106.18 22.908 106.14 23.068 106.14 23.26C106.14 23.588 106.252 23.856 106.476 24.064C106.708 24.272 107.02 24.376 107.412 24.376C107.732 24.376 108.012 24.3 108.252 24.148C108.5 23.996 108.692 23.788 108.828 23.524C108.972 23.26 109.044 22.956 109.044 22.612V21.244C109.044 20.748 108.944 20.392 108.744 20.176C108.544 19.952 108.216 19.84 107.76 19.84C107.408 19.84 107.068 19.892 106.74 19.996C106.412 20.092 106.076 20.252 105.732 20.476L105.396 19.768C105.604 19.624 105.84 19.5 106.104 19.396C106.368 19.284 106.644 19.2 106.932 19.144C107.22 19.088 107.496 19.06 107.76 19.06C108.264 19.06 108.68 19.144 109.008 19.312C109.336 19.472 109.58 19.72 109.74 20.056C109.9 20.384 109.98 20.808 109.98 21.328V25H109.068V23.644H109.176C109.112 23.948 108.988 24.208 108.804 24.424C108.628 24.64 108.408 24.808 108.144 24.928C107.88 25.048 107.584 25.108 107.256 25.108ZM113.847 25.108C113.375 25.108 112.983 25.024 112.671 24.856C112.367 24.68 112.135 24.42 111.975 24.076C111.823 23.732 111.747 23.304 111.747 22.792V19.168H112.719V22.78C112.719 23.124 112.763 23.412 112.851 23.644C112.947 23.868 113.095 24.036 113.295 24.148C113.495 24.252 113.743 24.304 114.039 24.304C114.375 24.304 114.667 24.228 114.915 24.076C115.163 23.924 115.359 23.712 115.503 23.44C115.647 23.168 115.719 22.848 115.719 22.48V19.168H116.691V25H115.743V23.656H115.899C115.739 24.128 115.475 24.488 115.107 24.736C114.747 24.984 114.327 25.108 113.847 25.108ZM120.982 25.108C120.398 25.108 119.894 24.98 119.47 24.724C119.046 24.468 118.718 24.112 118.486 23.656C118.262 23.192 118.15 22.656 118.15 22.048C118.15 21.432 118.262 20.9 118.486 20.452C118.718 20.004 119.046 19.66 119.47 19.42C119.894 19.18 120.398 19.06 120.982 19.06C121.342 19.06 121.698 19.124 122.05 19.252C122.402 19.38 122.694 19.56 122.926 19.792L122.59 20.5C122.358 20.276 122.102 20.112 121.822 20.008C121.55 19.904 121.29 19.852 121.042 19.852C120.434 19.852 119.966 20.044 119.638 20.428C119.31 20.804 119.146 21.348 119.146 22.06C119.146 22.756 119.31 23.308 119.638 23.716C119.966 24.116 120.434 24.316 121.042 24.316C121.29 24.316 121.55 24.264 121.822 24.16C122.102 24.056 122.358 23.888 122.59 23.656L122.926 24.364C122.694 24.596 122.398 24.78 122.038 24.916C121.686 25.044 121.334 25.108 120.982 25.108ZM126.575 25.108C125.959 25.108 125.427 24.988 124.979 24.748C124.539 24.5 124.195 24.152 123.947 23.704C123.707 23.256 123.587 22.72 123.587 22.096C123.587 21.488 123.707 20.96 123.947 20.512C124.187 20.056 124.515 19.7 124.931 19.444C125.355 19.188 125.843 19.06 126.395 19.06C126.923 19.06 127.375 19.176 127.751 19.408C128.127 19.64 128.415 19.968 128.615 20.392C128.823 20.816 128.927 21.324 128.927 21.916V22.288H124.331V21.652H128.279L128.087 21.808C128.087 21.168 127.943 20.672 127.655 20.32C127.375 19.96 126.963 19.78 126.419 19.78C126.011 19.78 125.663 19.876 125.375 20.068C125.095 20.252 124.883 20.512 124.739 20.848C124.595 21.176 124.523 21.56 124.523 22V22.072C124.523 22.56 124.599 22.972 124.751 23.308C124.911 23.644 125.147 23.9 125.459 24.076C125.771 24.244 126.143 24.328 126.575 24.328C126.919 24.328 127.251 24.276 127.571 24.172C127.899 24.06 128.207 23.88 128.495 23.632L128.831 24.316C128.567 24.556 128.231 24.748 127.823 24.892C127.415 25.036 126.999 25.108 126.575 25.108ZM132.302 25.108C131.998 25.108 131.702 25.076 131.414 25.012C131.134 24.956 130.87 24.876 130.622 24.772C130.382 24.66 130.174 24.528 129.998 24.376L130.31 23.692C130.502 23.844 130.71 23.972 130.934 24.076C131.158 24.172 131.386 24.244 131.618 24.292C131.85 24.34 132.086 24.364 132.326 24.364C132.782 24.364 133.126 24.28 133.358 24.112C133.59 23.944 133.706 23.716 133.706 23.428C133.706 23.204 133.63 23.028 133.478 22.9C133.326 22.764 133.086 22.66 132.758 22.588L131.666 22.348C131.162 22.244 130.786 22.064 130.538 21.808C130.298 21.552 130.178 21.22 130.178 20.812C130.178 20.452 130.27 20.144 130.454 19.888C130.646 19.624 130.914 19.42 131.258 19.276C131.602 19.132 132.002 19.06 132.458 19.06C132.73 19.06 132.99 19.088 133.238 19.144C133.486 19.2 133.718 19.284 133.934 19.396C134.158 19.5 134.35 19.632 134.51 19.792L134.186 20.476C134.034 20.332 133.862 20.212 133.67 20.116C133.478 20.012 133.278 19.936 133.07 19.888C132.87 19.832 132.666 19.804 132.458 19.804C132.01 19.804 131.67 19.892 131.438 20.068C131.206 20.244 131.09 20.476 131.09 20.764C131.09 20.988 131.162 21.172 131.306 21.316C131.45 21.46 131.674 21.564 131.978 21.628L133.07 21.856C133.59 21.968 133.978 22.148 134.234 22.396C134.498 22.636 134.63 22.964 134.63 23.38C134.63 23.732 134.534 24.04 134.342 24.304C134.15 24.56 133.878 24.76 133.526 24.904C133.182 25.04 132.774 25.108 132.302 25.108ZM136.401 26.368L135.945 26.02C136.089 25.868 136.197 25.724 136.269 25.588C136.349 25.46 136.401 25.328 136.425 25.192C136.457 25.064 136.473 24.932 136.473 24.796L136.689 25H135.897V23.776H137.121V24.64C137.121 24.856 137.097 25.06 137.049 25.252C137.009 25.452 136.937 25.644 136.833 25.828C136.729 26.012 136.585 26.192 136.401 26.368ZM141.181 25L144.913 16.54H145.753L149.485 25H148.465L147.421 22.588L147.901 22.84H142.741L143.233 22.588L142.201 25H141.181ZM145.321 17.692L143.389 22.24L143.101 22.012H147.541L147.277 22.24L145.345 17.692H145.321ZM150.607 25V19.168H151.555V20.464H151.423C151.591 20 151.863 19.652 152.239 19.42C152.623 19.18 153.063 19.06 153.559 19.06C154.023 19.06 154.407 19.144 154.711 19.312C155.023 19.472 155.255 19.724 155.407 20.068C155.559 20.412 155.635 20.844 155.635 21.364V25H154.663V21.424C154.663 21.064 154.615 20.768 154.519 20.536C154.431 20.304 154.287 20.132 154.087 20.02C153.895 19.908 153.643 19.852 153.331 19.852C152.979 19.852 152.671 19.928 152.407 20.08C152.143 20.232 151.939 20.444 151.795 20.716C151.651 20.988 151.579 21.308 151.579 21.676V25H150.607ZM159.648 25.108C159.128 25.108 158.672 24.984 158.28 24.736C157.896 24.488 157.596 24.14 157.38 23.692C157.172 23.236 157.068 22.7 157.068 22.084C157.068 21.46 157.172 20.924 157.38 20.476C157.596 20.02 157.896 19.672 158.28 19.432C158.672 19.184 159.128 19.06 159.648 19.06C160.176 19.06 160.628 19.192 161.004 19.456C161.38 19.72 161.632 20.076 161.76 20.524H161.628V16.54H162.6V25H161.652V23.608H161.772C161.644 24.064 161.388 24.428 161.004 24.7C160.628 24.972 160.176 25.108 159.648 25.108ZM159.852 24.328C160.404 24.328 160.84 24.136 161.16 23.752C161.488 23.36 161.652 22.804 161.652 22.084C161.652 21.356 161.488 20.8 161.16 20.416C160.84 20.032 160.404 19.84 159.852 19.84C159.308 19.84 158.872 20.032 158.544 20.416C158.216 20.8 158.052 21.356 158.052 22.084C158.052 22.804 158.216 23.36 158.544 23.752C158.872 24.136 159.308 24.328 159.852 24.328ZM167.638 25V16.54H170.494C171.414 16.54 172.19 16.704 172.822 17.032C173.462 17.352 173.946 17.828 174.274 18.46C174.61 19.084 174.778 19.852 174.778 20.764C174.778 21.676 174.61 22.448 174.274 23.08C173.946 23.712 173.462 24.192 172.822 24.52C172.19 24.84 171.414 25 170.494 25H167.638ZM168.622 24.16H170.422C171.534 24.16 172.362 23.876 172.906 23.308C173.458 22.74 173.734 21.892 173.734 20.764C173.734 19.636 173.458 18.792 172.906 18.232C172.354 17.664 171.526 17.38 170.422 17.38H168.622V24.16ZM176.292 17.716V16.624H177.492V17.716H176.292ZM176.412 25V19.168H177.384V25H176.412ZM179.201 27.16V19.168H180.149V20.548H180.029C180.157 20.092 180.409 19.732 180.785 19.468C181.169 19.196 181.625 19.06 182.153 19.06C182.673 19.06 183.125 19.184 183.509 19.432C183.901 19.672 184.201 20.02 184.409 20.476C184.625 20.924 184.733 21.46 184.733 22.084C184.733 22.7 184.625 23.236 184.409 23.692C184.201 24.14 183.905 24.488 183.521 24.736C183.137 24.984 182.681 25.108 182.153 25.108C181.625 25.108 181.173 24.976 180.797 24.712C180.421 24.44 180.165 24.08 180.029 23.632H180.173V27.16H179.201ZM181.949 24.328C182.501 24.328 182.937 24.136 183.257 23.752C183.585 23.36 183.749 22.804 183.749 22.084C183.749 21.356 183.585 20.8 183.257 20.416C182.937 20.032 182.501 19.84 181.949 19.84C181.405 19.84 180.969 20.032 180.641 20.416C180.313 20.8 180.149 21.356 180.149 22.084C180.149 22.804 180.313 23.36 180.641 23.752C180.969 24.136 181.405 24.328 181.949 24.328ZM188.165 25.108C187.861 25.108 187.565 25.076 187.277 25.012C186.997 24.956 186.733 24.876 186.485 24.772C186.245 24.66 186.037 24.528 185.861 24.376L186.173 23.692C186.365 23.844 186.573 23.972 186.797 24.076C187.021 24.172 187.249 24.244 187.481 24.292C187.713 24.34 187.949 24.364 188.189 24.364C188.645 24.364 188.989 24.28 189.221 24.112C189.453 23.944 189.569 23.716 189.569 23.428C189.569 23.204 189.493 23.028 189.341 22.9C189.189 22.764 188.949 22.66 188.621 22.588L187.529 22.348C187.025 22.244 186.649 22.064 186.401 21.808C186.161 21.552 186.041 21.22 186.041 20.812C186.041 20.452 186.133 20.144 186.317 19.888C186.509 19.624 186.777 19.42 187.121 19.276C187.465 19.132 187.865 19.06 188.321 19.06C188.593 19.06 188.853 19.088 189.101 19.144C189.349 19.2 189.581 19.284 189.797 19.396C190.021 19.5 190.213 19.632 190.373 19.792L190.049 20.476C189.897 20.332 189.725 20.212 189.533 20.116C189.341 20.012 189.141 19.936 188.933 19.888C188.733 19.832 188.529 19.804 188.321 19.804C187.873 19.804 187.533 19.892 187.301 20.068C187.069 20.244 186.953 20.476 186.953 20.764C186.953 20.988 187.025 21.172 187.169 21.316C187.313 21.46 187.537 21.564 187.841 21.628L188.933 21.856C189.453 21.968 189.841 22.148 190.097 22.396C190.361 22.636 190.493 22.964 190.493 23.38C190.493 23.732 190.397 24.04 190.205 24.304C190.013 24.56 189.741 24.76 189.389 24.904C189.045 25.04 188.637 25.108 188.165 25.108Z" fill="black"/>
</svg>
