<svg width="315" height="28" viewBox="0 0 315 28" fill="none" xmlns="http://www.w3.org/2000/svg">
<path d="M0.068 9V0.539999H0.896L4.328 6.984H3.968L7.376 0.539999H8.204V9H7.292V1.86H7.58L4.472 7.692H3.824L0.68 1.848H0.968V9H0.068ZM10.0576 1.716V0.624H11.2576V1.716H10.0576ZM10.1776 9V3.168H11.1496V9H10.1776ZM15.4387 9.108C14.8547 9.108 14.3507 8.98 13.9267 8.724C13.5027 8.468 13.1747 8.112 12.9427 7.656C12.7187 7.192 12.6067 6.656 12.6067 6.048C12.6067 5.432 12.7187 4.9 12.9427 4.452C13.1747 4.004 13.5027 3.66 13.9267 3.42C14.3507 3.18 14.8547 3.06 15.4387 3.06C15.7987 3.06 16.1547 3.124 16.5067 3.252C16.8587 3.38 17.1507 3.56 17.3827 3.792L17.0467 4.5C16.8147 4.276 16.5587 4.112 16.2787 4.008C16.0067 3.904 15.7467 3.852 15.4987 3.852C14.8907 3.852 14.4227 4.044 14.0947 4.428C13.7667 4.804 13.6027 5.348 13.6027 6.06C13.6027 6.756 13.7667 7.308 14.0947 7.716C14.4227 8.116 14.8907 8.316 15.4987 8.316C15.7467 8.316 16.0067 8.264 16.2787 8.16C16.5587 8.056 16.8147 7.888 17.0467 7.656L17.3827 8.364C17.1507 8.596 16.8547 8.78 16.4947 8.916C16.1427 9.044 15.7907 9.108 15.4387 9.108ZM18.5214 9V3.168H19.4694V4.548H19.3494C19.4854 4.076 19.7214 3.72 20.0574 3.48C20.3934 3.232 20.8374 3.088 21.3894 3.048L21.7374 3.012L21.8094 3.852L21.1974 3.924C20.6534 3.972 20.2334 4.148 19.9374 4.452C19.6494 4.748 19.5054 5.156 19.5054 5.676V9H18.5214ZM25.1758 9.108C24.6078 9.108 24.1158 8.984 23.6998 8.736C23.2838 8.488 22.9598 8.14 22.7278 7.692C22.5038 7.236 22.3918 6.7 22.3918 6.084C22.3918 5.468 22.5038 4.936 22.7278 4.488C22.9598 4.032 23.2838 3.68 23.6998 3.432C24.1158 3.184 24.6078 3.06 25.1758 3.06C25.7438 3.06 26.2358 3.184 26.6518 3.432C27.0678 3.68 27.3878 4.032 27.6118 4.488C27.8438 4.936 27.9598 5.468 27.9598 6.084C27.9598 6.7 27.8438 7.236 27.6118 7.692C27.3878 8.14 27.0678 8.488 26.6518 8.736C26.2358 8.984 25.7438 9.108 25.1758 9.108ZM25.1758 8.328C25.7278 8.328 26.1638 8.136 26.4838 7.752C26.8118 7.36 26.9758 6.8 26.9758 6.072C26.9758 5.352 26.8118 4.8 26.4838 4.416C26.1638 4.032 25.7278 3.84 25.1758 3.84C24.6318 3.84 24.1958 4.032 23.8678 4.416C23.5398 4.8 23.3758 5.352 23.3758 6.072C23.3758 6.8 23.5398 7.36 23.8678 7.752C24.1958 8.136 24.6318 8.328 25.1758 8.328ZM30.8858 9L28.7138 3.168H29.7338L31.5218 8.28H31.2338L33.0818 3.168H33.9098L35.7218 8.28H35.4458L37.2578 3.168H38.2298L36.0458 9H35.1218L33.2138 3.756H33.7298L31.8218 9H30.8858ZM41.1464 9.108C40.7464 9.108 40.3864 9.032 40.0664 8.88C39.7544 8.72 39.5064 8.504 39.3224 8.232C39.1384 7.96 39.0464 7.656 39.0464 7.32C39.0464 6.888 39.1544 6.548 39.3704 6.3C39.5944 6.052 39.9584 5.876 40.4624 5.772C40.9744 5.668 41.6704 5.616 42.5504 5.616H43.0904V6.252H42.5624C42.0744 6.252 41.6664 6.268 41.3384 6.3C41.0104 6.332 40.7504 6.388 40.5584 6.468C40.3664 6.548 40.2304 6.652 40.1504 6.78C40.0704 6.908 40.0304 7.068 40.0304 7.26C40.0304 7.588 40.1424 7.856 40.3664 8.064C40.5984 8.272 40.9104 8.376 41.3024 8.376C41.6224 8.376 41.9024 8.3 42.1424 8.148C42.3904 7.996 42.5824 7.788 42.7184 7.524C42.8624 7.26 42.9344 6.956 42.9344 6.612V5.244C42.9344 4.748 42.8344 4.392 42.6344 4.176C42.4344 3.952 42.1064 3.84 41.6504 3.84C41.2984 3.84 40.9584 3.892 40.6304 3.996C40.3024 4.092 39.9664 4.252 39.6224 4.476L39.2864 3.768C39.4944 3.624 39.7304 3.5 39.9944 3.396C40.2584 3.284 40.5344 3.2 40.8224 3.144C41.1104 3.088 41.3864 3.06 41.6504 3.06C42.1544 3.06 42.5704 3.144 42.8984 3.312C43.2264 3.472 43.4704 3.72 43.6304 4.056C43.7904 4.384 43.8704 4.808 43.8704 5.328V9H42.9584V7.644H43.0664C43.0024 7.948 42.8784 8.208 42.6944 8.424C42.5184 8.64 42.2984 8.808 42.0344 8.928C41.7704 9.048 41.4744 9.108 41.1464 9.108ZM47.3311 9L44.8231 3.168H45.8791L47.9671 8.28H47.6431L49.7671 3.168H50.7631L48.2431 9H47.3311ZM54.3369 9.108C53.7209 9.108 53.1889 8.988 52.7409 8.748C52.3009 8.5 51.9569 8.152 51.7089 7.704C51.4689 7.256 51.3489 6.72 51.3489 6.096C51.3489 5.488 51.4689 4.96 51.7089 4.512C51.9489 4.056 52.2769 3.7 52.6929 3.444C53.1169 3.188 53.6049 3.06 54.1569 3.06C54.6849 3.06 55.1369 3.176 55.5129 3.408C55.8889 3.64 56.1769 3.968 56.3769 4.392C56.5849 4.816 56.6889 5.324 56.6889 5.916V6.288H52.0929V5.652H56.0409L55.8489 5.808C55.8489 5.168 55.7049 4.672 55.4169 4.32C55.1369 3.96 54.7249 3.78 54.1809 3.78C53.7729 3.78 53.4249 3.876 53.1369 4.068C52.8569 4.252 52.6449 4.512 52.5009 4.848C52.3569 5.176 52.2849 5.56 52.2849 6V6.072C52.2849 6.56 52.3609 6.972 52.5129 7.308C52.6729 7.644 52.9089 7.9 53.2209 8.076C53.5329 8.244 53.9049 8.328 54.3369 8.328C54.6809 8.328 55.0129 8.276 55.3329 8.172C55.6609 8.06 55.9689 7.88 56.2569 7.632L56.5929 8.316C56.3289 8.556 55.9929 8.748 55.5849 8.892C55.1769 9.036 54.7609 9.108 54.3369 9.108ZM58.1765 6.204V5.4H61.5365V6.204H58.1765ZM65.9441 9.108C65.5041 9.108 65.0881 9.068 64.6961 8.988C64.3121 8.908 63.9561 8.796 63.6281 8.652C63.3081 8.5 63.0161 8.316 62.7521 8.1L63.1001 7.308C63.3721 7.508 63.6481 7.68 63.9281 7.824C64.2161 7.96 64.5241 8.064 64.8521 8.136C65.1881 8.2 65.5521 8.232 65.9441 8.232C66.6641 8.232 67.1961 8.1 67.5401 7.836C67.8921 7.564 68.0681 7.208 68.0681 6.768C68.0681 6.536 68.0121 6.336 67.9001 6.168C67.7961 6 67.6201 5.856 67.3721 5.736C67.1321 5.616 66.8161 5.516 66.4241 5.436L65.1761 5.184C64.4241 5.024 63.8601 4.764 63.4841 4.404C63.1161 4.036 62.9321 3.548 62.9321 2.94C62.9321 2.436 63.0601 1.996 63.3161 1.62C63.5801 1.244 63.9441 0.951999 64.4081 0.744C64.8801 0.536 65.4161 0.431999 66.0161 0.431999C66.4001 0.431999 66.7641 0.471999 67.1081 0.551999C67.4521 0.632 67.7681 0.752 68.0561 0.912C68.3521 1.064 68.6121 1.252 68.8361 1.476L68.4881 2.244C68.1281 1.916 67.7481 1.68 67.3481 1.536C66.9481 1.384 66.5001 1.308 66.0041 1.308C65.5801 1.308 65.2121 1.372 64.9001 1.5C64.5961 1.628 64.3561 1.816 64.1801 2.064C64.0121 2.304 63.9281 2.584 63.9281 2.904C63.9281 3.288 64.0441 3.592 64.2761 3.816C64.5161 4.04 64.9041 4.204 65.4401 4.308L66.6881 4.572C67.4961 4.74 68.0921 4.996 68.4761 5.34C68.8681 5.676 69.0641 6.136 69.0641 6.72C69.0641 7.184 68.9361 7.6 68.6801 7.968C68.4321 8.328 68.0721 8.608 67.6001 8.808C67.1361 9.008 66.5841 9.108 65.9441 9.108ZM72.2949 9.108C71.8949 9.108 71.5349 9.032 71.2149 8.88C70.9029 8.72 70.6549 8.504 70.4709 8.232C70.2869 7.96 70.1949 7.656 70.1949 7.32C70.1949 6.888 70.3029 6.548 70.5189 6.3C70.7429 6.052 71.1069 5.876 71.6109 5.772C72.1229 5.668 72.8189 5.616 73.6989 5.616H74.2389V6.252H73.7109C73.2229 6.252 72.8149 6.268 72.4869 6.3C72.1589 6.332 71.8989 6.388 71.7069 6.468C71.5149 6.548 71.3789 6.652 71.2989 6.78C71.2189 6.908 71.1789 7.068 71.1789 7.26C71.1789 7.588 71.2909 7.856 71.5149 8.064C71.7469 8.272 72.0589 8.376 72.4509 8.376C72.7709 8.376 73.0509 8.3 73.2909 8.148C73.5389 7.996 73.7309 7.788 73.8669 7.524C74.0109 7.26 74.0829 6.956 74.0829 6.612V5.244C74.0829 4.748 73.9829 4.392 73.7829 4.176C73.5829 3.952 73.2549 3.84 72.7989 3.84C72.4469 3.84 72.1069 3.892 71.7789 3.996C71.4509 4.092 71.1149 4.252 70.7709 4.476L70.4349 3.768C70.6429 3.624 70.8789 3.5 71.1429 3.396C71.4069 3.284 71.6829 3.2 71.9709 3.144C72.2589 3.088 72.5349 3.06 72.7989 3.06C73.3029 3.06 73.7189 3.144 74.0469 3.312C74.3749 3.472 74.6189 3.72 74.7789 4.056C74.9389 4.384 75.0189 4.808 75.0189 5.328V9H74.1069V7.644H74.2149C74.1509 7.948 74.0269 8.208 73.8429 8.424C73.6669 8.64 73.4469 8.808 73.1829 8.928C72.9189 9.048 72.6229 9.108 72.2949 9.108ZM77.1342 9V3.924H75.9822V3.168H77.3982L77.1342 3.42V2.964C77.1342 2.188 77.3262 1.6 77.7102 1.2C78.1022 0.799999 78.7022 0.575999 79.5102 0.528L79.9782 0.504L80.0622 1.248L79.5102 1.284C79.1822 1.308 78.9142 1.38 78.7062 1.5C78.4982 1.62 78.3462 1.792 78.2502 2.016C78.1542 2.24 78.1062 2.516 78.1062 2.844V3.348L77.9622 3.168H79.7862V3.924H78.1062V9H77.1342ZM83.2822 9.108C82.6662 9.108 82.1342 8.988 81.6862 8.748C81.2462 8.5 80.9022 8.152 80.6542 7.704C80.4142 7.256 80.2942 6.72 80.2942 6.096C80.2942 5.488 80.4142 4.96 80.6542 4.512C80.8942 4.056 81.2222 3.7 81.6382 3.444C82.0622 3.188 82.5502 3.06 83.1022 3.06C83.6302 3.06 84.0822 3.176 84.4582 3.408C84.8342 3.64 85.1222 3.968 85.3222 4.392C85.5302 4.816 85.6342 5.324 85.6342 5.916V6.288H81.0382V5.652H84.9862L84.7942 5.808C84.7942 5.168 84.6502 4.672 84.3622 4.32C84.0822 3.96 83.6702 3.78 83.1262 3.78C82.7182 3.78 82.3702 3.876 82.0822 4.068C81.8022 4.252 81.5902 4.512 81.4462 4.848C81.3022 5.176 81.2302 5.56 81.2302 6V6.072C81.2302 6.56 81.3062 6.972 81.4582 7.308C81.6182 7.644 81.8542 7.9 82.1662 8.076C82.4782 8.244 82.8502 8.328 83.2822 8.328C83.6262 8.328 83.9582 8.276 84.2782 8.172C84.6062 8.06 84.9142 7.88 85.2022 7.632L85.5382 8.316C85.2742 8.556 84.9382 8.748 84.5302 8.892C84.1222 9.036 83.7062 9.108 83.2822 9.108ZM87.3889 10.368L86.9329 10.02C87.0769 9.868 87.1849 9.724 87.2569 9.588C87.3369 9.46 87.3889 9.328 87.4129 9.192C87.4449 9.064 87.4609 8.932 87.4609 8.796L87.6769 9H86.8849V7.776H88.1089V8.64C88.1089 8.856 88.0849 9.06 88.0369 9.252C87.9969 9.452 87.9249 9.644 87.8209 9.828C87.7169 10.012 87.5729 10.192 87.3889 10.368ZM92.9854 9V0.539999H95.8414C96.7614 0.539999 97.5374 0.704 98.1694 1.032C98.8094 1.352 99.2934 1.828 99.6214 2.46C99.9574 3.084 100.125 3.852 100.125 4.764C100.125 5.676 99.9574 6.448 99.6214 7.08C99.2934 7.712 98.8094 8.192 98.1694 8.52C97.5374 8.84 96.7614 9 95.8414 9H92.9854ZM93.9694 8.16H95.7694C96.8814 8.16 97.7094 7.876 98.2534 7.308C98.8054 6.74 99.0814 5.892 99.0814 4.764C99.0814 3.636 98.8054 2.792 98.2534 2.232C97.7014 1.664 96.8734 1.38 95.7694 1.38H93.9694V8.16ZM103.824 9.108C103.352 9.108 102.96 9.024 102.648 8.856C102.344 8.68 102.112 8.42 101.952 8.076C101.8 7.732 101.724 7.304 101.724 6.792V3.168H102.696V6.78C102.696 7.124 102.74 7.412 102.828 7.644C102.924 7.868 103.072 8.036 103.272 8.148C103.472 8.252 103.72 8.304 104.016 8.304C104.352 8.304 104.644 8.228 104.892 8.076C105.14 7.924 105.336 7.712 105.48 7.44C105.624 7.168 105.696 6.848 105.696 6.48V3.168H106.668V9H105.72V7.656H105.876C105.716 8.128 105.452 8.488 105.084 8.736C104.724 8.984 104.304 9.108 103.824 9.108ZM108.486 9V3.168H109.434V4.548H109.314C109.45 4.076 109.686 3.72 110.022 3.48C110.358 3.232 110.802 3.088 111.354 3.048L111.702 3.012L111.774 3.852L111.162 3.924C110.618 3.972 110.198 4.148 109.902 4.452C109.614 4.748 109.47 5.156 109.47 5.676V9H108.486ZM114.564 9.108C114.164 9.108 113.804 9.032 113.484 8.88C113.172 8.72 112.924 8.504 112.74 8.232C112.556 7.96 112.464 7.656 112.464 7.32C112.464 6.888 112.572 6.548 112.788 6.3C113.012 6.052 113.376 5.876 113.88 5.772C114.392 5.668 115.088 5.616 115.968 5.616H116.508V6.252H115.98C115.492 6.252 115.084 6.268 114.756 6.3C114.428 6.332 114.168 6.388 113.976 6.468C113.784 6.548 113.648 6.652 113.568 6.78C113.488 6.908 113.448 7.068 113.448 7.26C113.448 7.588 113.56 7.856 113.784 8.064C114.016 8.272 114.328 8.376 114.72 8.376C115.04 8.376 115.32 8.3 115.56 8.148C115.808 7.996 116 7.788 116.136 7.524C116.28 7.26 116.352 6.956 116.352 6.612V5.244C116.352 4.748 116.252 4.392 116.052 4.176C115.852 3.952 115.524 3.84 115.068 3.84C114.716 3.84 114.376 3.892 114.048 3.996C113.72 4.092 113.384 4.252 113.04 4.476L112.704 3.768C112.912 3.624 113.148 3.5 113.412 3.396C113.676 3.284 113.952 3.2 114.24 3.144C114.528 3.088 114.804 3.06 115.068 3.06C115.572 3.06 115.988 3.144 116.316 3.312C116.644 3.472 116.888 3.72 117.048 4.056C117.208 4.384 117.288 4.808 117.288 5.328V9H116.376V7.644H116.484C116.42 7.948 116.296 8.208 116.112 8.424C115.936 8.64 115.716 8.808 115.452 8.928C115.188 9.048 114.892 9.108 114.564 9.108ZM122.044 9.108C121.516 9.108 121.06 8.972 120.676 8.7C120.3 8.428 120.048 8.064 119.92 7.608H120.04V9H119.092V0.539999H120.064V4.524H119.92C120.056 4.076 120.312 3.72 120.688 3.456C121.064 3.192 121.516 3.06 122.044 3.06C122.572 3.06 123.028 3.184 123.412 3.432C123.796 3.672 124.092 4.02 124.3 4.476C124.516 4.924 124.624 5.46 124.624 6.084C124.624 6.7 124.516 7.236 124.3 7.692C124.092 8.14 123.792 8.488 123.4 8.736C123.016 8.984 122.564 9.108 122.044 9.108ZM121.84 8.328C122.392 8.328 122.828 8.136 123.148 7.752C123.476 7.36 123.64 6.804 123.64 6.084C123.64 5.356 123.476 4.8 123.148 4.416C122.828 4.032 122.392 3.84 121.84 3.84C121.296 3.84 120.86 4.032 120.532 4.416C120.204 4.8 120.04 5.356 120.04 6.084C120.04 6.804 120.204 7.36 120.532 7.752C120.86 8.136 121.296 8.328 121.84 8.328ZM127.876 9.108C127.284 9.108 126.836 8.932 126.532 8.58C126.236 8.228 126.088 7.724 126.088 7.068V0.539999H127.06V6.996C127.06 7.276 127.096 7.512 127.168 7.704C127.248 7.896 127.364 8.04 127.516 8.136C127.668 8.232 127.856 8.28 128.08 8.28C128.176 8.28 128.268 8.276 128.356 8.268C128.452 8.252 128.54 8.232 128.62 8.208L128.596 9.024C128.468 9.048 128.344 9.068 128.224 9.084C128.112 9.1 127.996 9.108 127.876 9.108ZM132.208 9.108C131.592 9.108 131.06 8.988 130.612 8.748C130.172 8.5 129.828 8.152 129.58 7.704C129.34 7.256 129.22 6.72 129.22 6.096C129.22 5.488 129.34 4.96 129.58 4.512C129.82 4.056 130.148 3.7 130.564 3.444C130.988 3.188 131.476 3.06 132.028 3.06C132.556 3.06 133.008 3.176 133.384 3.408C133.76 3.64 134.048 3.968 134.248 4.392C134.456 4.816 134.56 5.324 134.56 5.916V6.288H129.964V5.652H133.912L133.72 5.808C133.72 5.168 133.576 4.672 133.288 4.32C133.008 3.96 132.596 3.78 132.052 3.78C131.644 3.78 131.296 3.876 131.008 4.068C130.728 4.252 130.516 4.512 130.372 4.848C130.228 5.176 130.156 5.56 130.156 6V6.072C130.156 6.56 130.232 6.972 130.384 7.308C130.544 7.644 130.78 7.9 131.092 8.076C131.404 8.244 131.776 8.328 132.208 8.328C132.552 8.328 132.884 8.276 133.204 8.172C133.532 8.06 133.84 7.88 134.128 7.632L134.464 8.316C134.2 8.556 133.864 8.748 133.456 8.892C133.048 9.036 132.632 9.108 132.208 9.108ZM141.917 9.108C141.557 9.108 141.205 9.068 140.861 8.988C140.517 8.908 140.193 8.792 139.889 8.64C139.593 8.488 139.329 8.308 139.097 8.1L139.469 7.32C139.853 7.632 140.241 7.864 140.633 8.016C141.033 8.16 141.457 8.232 141.905 8.232C142.497 8.232 142.957 8.068 143.285 7.74C143.621 7.412 143.789 6.98 143.789 6.444C143.789 5.892 143.629 5.44 143.309 5.088C142.989 4.736 142.549 4.56 141.989 4.56C141.581 4.56 141.221 4.644 140.909 4.812C140.605 4.972 140.329 5.224 140.081 5.568H139.361V0.539999H144.269V1.38H140.333V4.752H140.069C140.277 4.416 140.565 4.16 140.933 3.984C141.301 3.8 141.713 3.708 142.169 3.708C142.705 3.708 143.165 3.82 143.549 4.044C143.941 4.268 144.241 4.584 144.449 4.992C144.665 5.392 144.773 5.86 144.773 6.396C144.773 6.924 144.657 7.392 144.425 7.8C144.193 8.208 143.865 8.528 143.441 8.76C143.017 8.992 142.509 9.108 141.917 9.108ZM148.932 9.108C148.292 9.108 147.748 8.944 147.3 8.616C146.86 8.28 146.528 7.788 146.304 7.14C146.08 6.492 145.968 5.7 145.968 4.764C145.968 3.82 146.08 3.028 146.304 2.388C146.528 1.74 146.86 1.252 147.3 0.924C147.748 0.595999 148.292 0.431999 148.932 0.431999C149.58 0.431999 150.124 0.595999 150.564 0.924C151.004 1.252 151.336 1.736 151.56 2.376C151.784 3.016 151.896 3.808 151.896 4.752C151.896 5.696 151.784 6.492 151.56 7.14C151.336 7.788 151.004 8.28 150.564 8.616C150.124 8.944 149.58 9.108 148.932 9.108ZM148.932 8.256C149.604 8.256 150.1 7.972 150.42 7.404C150.748 6.836 150.912 5.952 150.912 4.752C150.912 3.552 150.752 2.676 150.432 2.124C150.112 1.564 149.612 1.284 148.932 1.284C148.268 1.284 147.772 1.564 147.444 2.124C147.116 2.684 146.952 3.56 146.952 4.752C146.952 5.952 147.112 6.836 147.432 7.404C147.76 7.972 148.26 8.256 148.932 8.256ZM153.463 9V3.168H154.411V4.464H154.279C154.375 4.168 154.515 3.916 154.699 3.708C154.891 3.492 155.115 3.332 155.371 3.228C155.635 3.116 155.923 3.06 156.235 3.06C156.731 3.06 157.131 3.18 157.435 3.42C157.747 3.652 157.955 4.016 158.059 4.512H157.879C158.023 4.064 158.279 3.712 158.647 3.456C159.023 3.192 159.459 3.06 159.955 3.06C160.395 3.06 160.755 3.144 161.035 3.312C161.323 3.48 161.539 3.736 161.683 4.08C161.827 4.416 161.899 4.844 161.899 5.364V9H160.927V5.412C160.927 4.876 160.835 4.484 160.651 4.236C160.467 3.98 160.155 3.852 159.715 3.852C159.403 3.852 159.127 3.928 158.887 4.08C158.655 4.232 158.475 4.448 158.347 4.728C158.227 5 158.167 5.324 158.167 5.7V9H157.195V5.412C157.195 4.876 157.099 4.484 156.907 4.236C156.723 3.98 156.415 3.852 155.983 3.852C155.663 3.852 155.387 3.928 155.155 4.08C154.923 4.232 154.743 4.448 154.615 4.728C154.495 5 154.435 5.324 154.435 5.7V9H153.463ZM165.505 9.108C164.913 9.108 164.465 8.932 164.161 8.58C163.865 8.228 163.717 7.724 163.717 7.068V0.539999H164.689V6.996C164.689 7.276 164.725 7.512 164.797 7.704C164.877 7.896 164.993 8.04 165.145 8.136C165.297 8.232 165.485 8.28 165.709 8.28C165.805 8.28 165.897 8.276 165.985 8.268C166.081 8.252 166.169 8.232 166.249 8.208L166.225 9.024C166.097 9.048 165.973 9.068 165.853 9.084C165.741 9.1 165.625 9.108 165.505 9.108ZM174.142 9.108C173.31 9.108 172.598 8.932 172.006 8.58C171.414 8.228 170.958 7.728 170.638 7.08C170.326 6.432 170.17 5.66 170.17 4.764C170.17 3.868 170.326 3.1 170.638 2.46C170.958 1.812 171.414 1.312 172.006 0.96C172.598 0.608 173.31 0.431999 174.142 0.431999C174.726 0.431999 175.266 0.523999 175.762 0.707999C176.258 0.891999 176.674 1.16 177.01 1.512L176.626 2.316C176.258 1.972 175.874 1.724 175.474 1.572C175.082 1.412 174.646 1.332 174.166 1.332C173.214 1.332 172.486 1.632 171.982 2.232C171.478 2.832 171.226 3.676 171.226 4.764C171.226 5.852 171.478 6.7 171.982 7.308C172.486 7.908 173.214 8.208 174.166 8.208C174.646 8.208 175.082 8.132 175.474 7.98C175.874 7.82 176.258 7.568 176.626 7.224L177.01 8.028C176.674 8.372 176.258 8.64 175.762 8.832C175.266 9.016 174.726 9.108 174.142 9.108ZM180.426 9.108C179.858 9.108 179.366 8.984 178.95 8.736C178.534 8.488 178.21 8.14 177.978 7.692C177.754 7.236 177.642 6.7 177.642 6.084C177.642 5.468 177.754 4.936 177.978 4.488C178.21 4.032 178.534 3.68 178.95 3.432C179.366 3.184 179.858 3.06 180.426 3.06C180.994 3.06 181.486 3.184 181.902 3.432C182.318 3.68 182.638 4.032 182.862 4.488C183.094 4.936 183.21 5.468 183.21 6.084C183.21 6.7 183.094 7.236 182.862 7.692C182.638 8.14 182.318 8.488 181.902 8.736C181.486 8.984 180.994 9.108 180.426 9.108ZM180.426 8.328C180.978 8.328 181.414 8.136 181.734 7.752C182.062 7.36 182.226 6.8 182.226 6.072C182.226 5.352 182.062 4.8 181.734 4.416C181.414 4.032 180.978 3.84 180.426 3.84C179.882 3.84 179.446 4.032 179.118 4.416C178.79 4.8 178.626 5.352 178.626 6.072C178.626 6.8 178.79 7.36 179.118 7.752C179.446 8.136 179.882 8.328 180.426 8.328ZM184.67 9V3.168H185.618V4.464H185.486C185.654 4 185.926 3.652 186.302 3.42C186.686 3.18 187.126 3.06 187.622 3.06C188.086 3.06 188.47 3.144 188.774 3.312C189.086 3.472 189.318 3.724 189.47 4.068C189.622 4.412 189.698 4.844 189.698 5.364V9H188.726V5.424C188.726 5.064 188.678 4.768 188.582 4.536C188.494 4.304 188.35 4.132 188.15 4.02C187.958 3.908 187.706 3.852 187.394 3.852C187.042 3.852 186.734 3.928 186.47 4.08C186.206 4.232 186.002 4.444 185.858 4.716C185.714 4.988 185.642 5.308 185.642 5.676V9H184.67ZM193.83 9.108C193.142 9.108 192.626 8.924 192.282 8.556C191.938 8.188 191.766 7.664 191.766 6.984V3.924H190.626V3.168H191.766V1.38H192.738V3.168H194.586V3.924H192.738V6.888C192.738 7.344 192.834 7.692 193.026 7.932C193.218 8.164 193.53 8.28 193.962 8.28C194.09 8.28 194.218 8.264 194.346 8.232C194.474 8.2 194.59 8.168 194.694 8.136L194.862 8.88C194.758 8.936 194.606 8.988 194.406 9.036C194.206 9.084 194.014 9.108 193.83 9.108ZM197.521 9.108C197.121 9.108 196.761 9.032 196.441 8.88C196.129 8.72 195.881 8.504 195.697 8.232C195.513 7.96 195.421 7.656 195.421 7.32C195.421 6.888 195.529 6.548 195.745 6.3C195.969 6.052 196.333 5.876 196.837 5.772C197.349 5.668 198.045 5.616 198.925 5.616H199.465V6.252H198.937C198.449 6.252 198.041 6.268 197.713 6.3C197.385 6.332 197.125 6.388 196.933 6.468C196.741 6.548 196.605 6.652 196.525 6.78C196.445 6.908 196.405 7.068 196.405 7.26C196.405 7.588 196.517 7.856 196.741 8.064C196.973 8.272 197.285 8.376 197.677 8.376C197.997 8.376 198.277 8.3 198.517 8.148C198.765 7.996 198.957 7.788 199.093 7.524C199.237 7.26 199.309 6.956 199.309 6.612V5.244C199.309 4.748 199.209 4.392 199.009 4.176C198.809 3.952 198.481 3.84 198.025 3.84C197.673 3.84 197.333 3.892 197.005 3.996C196.677 4.092 196.341 4.252 195.997 4.476L195.661 3.768C195.869 3.624 196.105 3.5 196.369 3.396C196.633 3.284 196.909 3.2 197.197 3.144C197.485 3.088 197.761 3.06 198.025 3.06C198.529 3.06 198.945 3.144 199.273 3.312C199.601 3.472 199.845 3.72 200.005 4.056C200.165 4.384 200.245 4.808 200.245 5.328V9H199.333V7.644H199.441C199.377 7.948 199.253 8.208 199.069 8.424C198.893 8.64 198.673 8.808 198.409 8.928C198.145 9.048 197.849 9.108 197.521 9.108ZM201.929 1.716V0.624H203.129V1.716H201.929ZM202.049 9V3.168H203.021V9H202.049ZM204.838 9V3.168H205.786V4.464H205.654C205.822 4 206.094 3.652 206.47 3.42C206.854 3.18 207.294 3.06 207.79 3.06C208.254 3.06 208.638 3.144 208.942 3.312C209.254 3.472 209.486 3.724 209.638 4.068C209.79 4.412 209.866 4.844 209.866 5.364V9H208.894V5.424C208.894 5.064 208.846 4.768 208.75 4.536C208.662 4.304 208.518 4.132 208.318 4.02C208.126 3.908 207.874 3.852 207.562 3.852C207.21 3.852 206.902 3.928 206.638 4.08C206.374 4.232 206.17 4.444 206.026 4.716C205.882 4.988 205.81 5.308 205.81 5.676V9H204.838ZM214.286 9.108C213.67 9.108 213.138 8.988 212.69 8.748C212.25 8.5 211.906 8.152 211.658 7.704C211.418 7.256 211.298 6.72 211.298 6.096C211.298 5.488 211.418 4.96 211.658 4.512C211.898 4.056 212.226 3.7 212.642 3.444C213.066 3.188 213.554 3.06 214.106 3.06C214.634 3.06 215.086 3.176 215.462 3.408C215.838 3.64 216.126 3.968 216.326 4.392C216.534 4.816 216.638 5.324 216.638 5.916V6.288H212.042V5.652H215.99L215.798 5.808C215.798 5.168 215.654 4.672 215.366 4.32C215.086 3.96 214.674 3.78 214.13 3.78C213.722 3.78 213.374 3.876 213.086 4.068C212.806 4.252 212.594 4.512 212.45 4.848C212.306 5.176 212.234 5.56 212.234 6V6.072C212.234 6.56 212.31 6.972 212.462 7.308C212.622 7.644 212.858 7.9 213.17 8.076C213.482 8.244 213.854 8.328 214.286 8.328C214.63 8.328 214.962 8.276 215.282 8.172C215.61 8.06 215.918 7.88 216.206 7.632L216.542 8.316C216.278 8.556 215.942 8.748 215.534 8.892C215.126 9.036 214.71 9.108 214.286 9.108ZM218.045 9V3.168H218.993V4.548H218.873C219.009 4.076 219.245 3.72 219.581 3.48C219.917 3.232 220.361 3.088 220.913 3.048L221.261 3.012L221.333 3.852L220.721 3.924C220.177 3.972 219.757 4.148 219.461 4.452C219.173 4.748 219.029 5.156 219.029 5.676V9H218.045ZM225.56 9V0.539999H226.544V9H225.56ZM230.718 9.108C230.198 9.108 229.742 8.984 229.35 8.736C228.966 8.488 228.666 8.14 228.45 7.692C228.242 7.236 228.138 6.7 228.138 6.084C228.138 5.46 228.242 4.924 228.45 4.476C228.666 4.02 228.966 3.672 229.35 3.432C229.742 3.184 230.198 3.06 230.718 3.06C231.246 3.06 231.698 3.192 232.074 3.456C232.45 3.72 232.702 4.076 232.83 4.524H232.698V0.539999H233.67V9H232.722V7.608H232.842C232.714 8.064 232.458 8.428 232.074 8.7C231.698 8.972 231.246 9.108 230.718 9.108ZM230.922 8.328C231.474 8.328 231.91 8.136 232.23 7.752C232.558 7.36 232.722 6.804 232.722 6.084C232.722 5.356 232.558 4.8 232.23 4.416C231.91 4.032 231.474 3.84 230.922 3.84C230.378 3.84 229.942 4.032 229.614 4.416C229.286 4.8 229.122 5.356 229.122 6.084C229.122 6.804 229.286 7.36 229.614 7.752C229.942 8.136 230.378 8.328 230.922 8.328ZM238.122 9.108C237.506 9.108 236.974 8.988 236.526 8.748C236.086 8.5 235.742 8.152 235.494 7.704C235.254 7.256 235.134 6.72 235.134 6.096C235.134 5.488 235.254 4.96 235.494 4.512C235.734 4.056 236.062 3.7 236.478 3.444C236.902 3.188 237.39 3.06 237.942 3.06C238.47 3.06 238.922 3.176 239.298 3.408C239.674 3.64 239.962 3.968 240.162 4.392C240.37 4.816 240.474 5.324 240.474 5.916V6.288H235.878V5.652H239.826L239.634 5.808C239.634 5.168 239.49 4.672 239.202 4.32C238.922 3.96 238.51 3.78 237.966 3.78C237.558 3.78 237.21 3.876 236.922 4.068C236.642 4.252 236.43 4.512 236.286 4.848C236.142 5.176 236.07 5.56 236.07 6V6.072C236.07 6.56 236.146 6.972 236.298 7.308C236.458 7.644 236.694 7.9 237.006 8.076C237.318 8.244 237.69 8.328 238.122 8.328C238.466 8.328 238.798 8.276 239.118 8.172C239.446 8.06 239.754 7.88 240.042 7.632L240.378 8.316C240.114 8.556 239.778 8.748 239.37 8.892C238.962 9.036 238.546 9.108 238.122 9.108ZM243.717 9.108C243.317 9.108 242.957 9.032 242.637 8.88C242.325 8.72 242.077 8.504 241.893 8.232C241.709 7.96 241.617 7.656 241.617 7.32C241.617 6.888 241.725 6.548 241.941 6.3C242.165 6.052 242.529 5.876 243.033 5.772C243.545 5.668 244.241 5.616 245.121 5.616H245.661V6.252H245.133C244.645 6.252 244.237 6.268 243.909 6.3C243.581 6.332 243.321 6.388 243.129 6.468C242.937 6.548 242.801 6.652 242.721 6.78C242.641 6.908 242.601 7.068 242.601 7.26C242.601 7.588 242.713 7.856 242.937 8.064C243.169 8.272 243.481 8.376 243.873 8.376C244.193 8.376 244.473 8.3 244.713 8.148C244.961 7.996 245.153 7.788 245.289 7.524C245.433 7.26 245.505 6.956 245.505 6.612V5.244C245.505 4.748 245.405 4.392 245.205 4.176C245.005 3.952 244.677 3.84 244.221 3.84C243.869 3.84 243.529 3.892 243.201 3.996C242.873 4.092 242.537 4.252 242.193 4.476L241.857 3.768C242.065 3.624 242.301 3.5 242.565 3.396C242.829 3.284 243.105 3.2 243.393 3.144C243.681 3.088 243.957 3.06 244.221 3.06C244.725 3.06 245.141 3.144 245.469 3.312C245.797 3.472 246.041 3.72 246.201 4.056C246.361 4.384 246.441 4.808 246.441 5.328V9H245.529V7.644H245.637C245.573 7.948 245.449 8.208 245.265 8.424C245.089 8.64 244.869 8.808 244.605 8.928C244.341 9.048 244.045 9.108 243.717 9.108ZM250.032 9.108C249.44 9.108 248.992 8.932 248.688 8.58C248.392 8.228 248.244 7.724 248.244 7.068V0.539999H249.216V6.996C249.216 7.276 249.252 7.512 249.324 7.704C249.404 7.896 249.52 8.04 249.672 8.136C249.824 8.232 250.012 8.28 250.236 8.28C250.332 8.28 250.424 8.276 250.512 8.268C250.608 8.252 250.696 8.232 250.776 8.208L250.752 9.024C250.624 9.048 250.5 9.068 250.38 9.084C250.268 9.1 250.152 9.108 250.032 9.108ZM255.009 9V0.539999H260.241V1.368H255.993V4.32H260.001V5.148H255.993V9H255.009ZM263.652 9.108C263.084 9.108 262.592 8.984 262.176 8.736C261.76 8.488 261.436 8.14 261.204 7.692C260.98 7.236 260.868 6.7 260.868 6.084C260.868 5.468 260.98 4.936 261.204 4.488C261.436 4.032 261.76 3.68 262.176 3.432C262.592 3.184 263.084 3.06 263.652 3.06C264.22 3.06 264.712 3.184 265.128 3.432C265.544 3.68 265.864 4.032 266.088 4.488C266.32 4.936 266.436 5.468 266.436 6.084C266.436 6.7 266.32 7.236 266.088 7.692C265.864 8.14 265.544 8.488 265.128 8.736C264.712 8.984 264.22 9.108 263.652 9.108ZM263.652 8.328C264.204 8.328 264.64 8.136 264.96 7.752C265.288 7.36 265.452 6.8 265.452 6.072C265.452 5.352 265.288 4.8 264.96 4.416C264.64 4.032 264.204 3.84 263.652 3.84C263.108 3.84 262.672 4.032 262.344 4.416C262.016 4.8 261.852 5.352 261.852 6.072C261.852 6.8 262.016 7.36 262.344 7.752C262.672 8.136 263.108 8.328 263.652 8.328ZM267.896 9V3.168H268.844V4.548H268.724C268.86 4.076 269.096 3.72 269.432 3.48C269.768 3.232 270.212 3.088 270.764 3.048L271.112 3.012L271.184 3.852L270.572 3.924C270.028 3.972 269.608 4.148 269.312 4.452C269.024 4.748 268.88 5.156 268.88 5.676V9H267.896ZM278.147 9.108C277.707 9.108 277.291 9.068 276.899 8.988C276.515 8.908 276.159 8.796 275.831 8.652C275.511 8.5 275.219 8.316 274.955 8.1L275.303 7.308C275.575 7.508 275.851 7.68 276.131 7.824C276.419 7.96 276.727 8.064 277.055 8.136C277.391 8.2 277.755 8.232 278.147 8.232C278.867 8.232 279.399 8.1 279.743 7.836C280.095 7.564 280.271 7.208 280.271 6.768C280.271 6.536 280.215 6.336 280.103 6.168C279.999 6 279.823 5.856 279.575 5.736C279.335 5.616 279.019 5.516 278.627 5.436L277.379 5.184C276.627 5.024 276.063 4.764 275.687 4.404C275.319 4.036 275.135 3.548 275.135 2.94C275.135 2.436 275.263 1.996 275.519 1.62C275.783 1.244 276.147 0.951999 276.611 0.744C277.083 0.536 277.619 0.431999 278.219 0.431999C278.603 0.431999 278.967 0.471999 279.311 0.551999C279.655 0.632 279.971 0.752 280.259 0.912C280.555 1.064 280.815 1.252 281.039 1.476L280.691 2.244C280.331 1.916 279.951 1.68 279.551 1.536C279.151 1.384 278.703 1.308 278.207 1.308C277.783 1.308 277.415 1.372 277.103 1.5C276.799 1.628 276.559 1.816 276.383 2.064C276.215 2.304 276.131 2.584 276.131 2.904C276.131 3.288 276.247 3.592 276.479 3.816C276.719 4.04 277.107 4.204 277.643 4.308L278.891 4.572C279.699 4.74 280.295 4.996 280.679 5.34C281.071 5.676 281.267 6.136 281.267 6.72C281.267 7.184 281.139 7.6 280.883 7.968C280.635 8.328 280.275 8.608 279.803 8.808C279.339 9.008 278.787 9.108 278.147 9.108ZM282.662 9V3.168H283.61V4.464H283.478C283.646 4 283.918 3.652 284.294 3.42C284.678 3.18 285.118 3.06 285.614 3.06C286.078 3.06 286.462 3.144 286.766 3.312C287.078 3.472 287.31 3.724 287.462 4.068C287.614 4.412 287.69 4.844 287.69 5.364V9H286.718V5.424C286.718 5.064 286.67 4.768 286.574 4.536C286.486 4.304 286.342 4.132 286.142 4.02C285.95 3.908 285.698 3.852 285.386 3.852C285.034 3.852 284.726 3.928 284.462 4.08C284.198 4.232 283.994 4.444 283.85 4.716C283.706 4.988 283.634 5.308 283.634 5.676V9H282.662ZM291.318 9.108C290.918 9.108 290.558 9.032 290.238 8.88C289.926 8.72 289.678 8.504 289.494 8.232C289.31 7.96 289.218 7.656 289.218 7.32C289.218 6.888 289.326 6.548 289.542 6.3C289.766 6.052 290.13 5.876 290.634 5.772C291.146 5.668 291.842 5.616 292.722 5.616H293.262V6.252H292.734C292.246 6.252 291.838 6.268 291.51 6.3C291.182 6.332 290.922 6.388 290.73 6.468C290.538 6.548 290.402 6.652 290.322 6.78C290.242 6.908 290.202 7.068 290.202 7.26C290.202 7.588 290.314 7.856 290.538 8.064C290.77 8.272 291.082 8.376 291.474 8.376C291.794 8.376 292.074 8.3 292.314 8.148C292.562 7.996 292.754 7.788 292.89 7.524C293.034 7.26 293.106 6.956 293.106 6.612V5.244C293.106 4.748 293.006 4.392 292.806 4.176C292.606 3.952 292.278 3.84 291.822 3.84C291.47 3.84 291.13 3.892 290.802 3.996C290.474 4.092 290.138 4.252 289.794 4.476L289.458 3.768C289.666 3.624 289.902 3.5 290.166 3.396C290.43 3.284 290.706 3.2 290.994 3.144C291.282 3.088 291.558 3.06 291.822 3.06C292.326 3.06 292.742 3.144 293.07 3.312C293.398 3.472 293.642 3.72 293.802 4.056C293.962 4.384 294.042 4.808 294.042 5.328V9H293.13V7.644H293.238C293.174 7.948 293.05 8.208 292.866 8.424C292.69 8.64 292.47 8.808 292.206 8.928C291.942 9.048 291.646 9.108 291.318 9.108ZM298.318 9.108C297.734 9.108 297.23 8.98 296.806 8.724C296.382 8.468 296.054 8.112 295.822 7.656C295.598 7.192 295.486 6.656 295.486 6.048C295.486 5.432 295.598 4.9 295.822 4.452C296.054 4.004 296.382 3.66 296.806 3.42C297.23 3.18 297.734 3.06 298.318 3.06C298.678 3.06 299.034 3.124 299.386 3.252C299.738 3.38 300.03 3.56 300.262 3.792L299.926 4.5C299.694 4.276 299.438 4.112 299.158 4.008C298.886 3.904 298.626 3.852 298.378 3.852C297.77 3.852 297.302 4.044 296.974 4.428C296.646 4.804 296.482 5.348 296.482 6.06C296.482 6.756 296.646 7.308 296.974 7.716C297.302 8.116 297.77 8.316 298.378 8.316C298.626 8.316 298.886 8.264 299.158 8.16C299.438 8.056 299.694 7.888 299.926 7.656L300.262 8.364C300.03 8.596 299.734 8.78 299.374 8.916C299.022 9.044 298.67 9.108 298.318 9.108ZM301.4 9V0.539999H302.372V5.76H302.396L305.096 3.168H306.332L303.128 6.24V5.712L306.584 9H305.348L302.396 6.264H302.372V9H301.4ZM309.263 9.108C308.959 9.108 308.663 9.076 308.375 9.012C308.095 8.956 307.831 8.876 307.583 8.772C307.343 8.66 307.135 8.528 306.959 8.376L307.271 7.692C307.463 7.844 307.671 7.972 307.895 8.076C308.119 8.172 308.347 8.244 308.579 8.292C308.811 8.34 309.047 8.364 309.287 8.364C309.743 8.364 310.087 8.28 310.319 8.112C310.551 7.944 310.667 7.716 310.667 7.428C310.667 7.204 310.591 7.028 310.439 6.9C310.287 6.764 310.047 6.66 309.719 6.588L308.627 6.348C308.123 6.244 307.747 6.064 307.499 5.808C307.259 5.552 307.139 5.22 307.139 4.812C307.139 4.452 307.231 4.144 307.415 3.888C307.607 3.624 307.875 3.42 308.219 3.276C308.563 3.132 308.963 3.06 309.419 3.06C309.691 3.06 309.951 3.088 310.199 3.144C310.447 3.2 310.679 3.284 310.895 3.396C311.119 3.5 311.311 3.632 311.471 3.792L311.147 4.476C310.995 4.332 310.823 4.212 310.631 4.116C310.439 4.012 310.239 3.936 310.031 3.888C309.831 3.832 309.627 3.804 309.419 3.804C308.971 3.804 308.631 3.892 308.399 4.068C308.167 4.244 308.051 4.476 308.051 4.764C308.051 4.988 308.123 5.172 308.267 5.316C308.411 5.46 308.635 5.564 308.939 5.628L310.031 5.856C310.551 5.968 310.939 6.148 311.195 6.396C311.459 6.636 311.591 6.964 311.591 7.38C311.591 7.732 311.495 8.04 311.303 8.304C311.111 8.56 310.839 8.76 310.487 8.904C310.143 9.04 309.735 9.108 309.263 9.108ZM313.362 10.368L312.906 10.02C313.05 9.868 313.158 9.724 313.23 9.588C313.31 9.46 313.362 9.328 313.386 9.192C313.418 9.064 313.434 8.932 313.434 8.796L313.65 9H312.858V7.776H314.082V8.64C314.082 8.856 314.058 9.06 314.01 9.252C313.97 9.452 313.898 9.644 313.794 9.828C313.69 10.012 313.546 10.192 313.362 10.368ZM0.0440001 25V16.54H2.9C3.82 16.54 4.596 16.704 5.228 17.032C5.868 17.352 6.352 17.828 6.68 18.46C7.016 19.084 7.184 19.852 7.184 20.764C7.184 21.676 7.016 22.448 6.68 23.08C6.352 23.712 5.868 24.192 5.228 24.52C4.596 24.84 3.82 25 2.9 25H0.0440001ZM1.028 24.16H2.828C3.94 24.16 4.768 23.876 5.312 23.308C5.864 22.74 6.14 21.892 6.14 20.764C6.14 19.636 5.864 18.792 5.312 18.232C4.76 17.664 3.932 17.38 2.828 17.38H1.028V24.16ZM11.4463 25.108C10.8303 25.108 10.2983 24.988 9.85025 24.748C9.41025 24.5 9.06625 24.152 8.81825 23.704C8.57825 23.256 8.45825 22.72 8.45825 22.096C8.45825 21.488 8.57825 20.96 8.81825 20.512C9.05825 20.056 9.38625 19.7 9.80225 19.444C10.2263 19.188 10.7143 19.06 11.2663 19.06C11.7943 19.06 12.2463 19.176 12.6223 19.408C12.9983 19.64 13.2863 19.968 13.4863 20.392C13.6943 20.816 13.7983 21.324 13.7983 21.916V22.288H9.20225V21.652H13.1503L12.9583 21.808C12.9583 21.168 12.8143 20.672 12.5263 20.32C12.2463 19.96 11.8343 19.78 11.2903 19.78C10.8823 19.78 10.5343 19.876 10.2463 20.068C9.96625 20.252 9.75425 20.512 9.61025 20.848C9.46625 21.176 9.39425 21.56 9.39425 22V22.072C9.39425 22.56 9.47025 22.972 9.62225 23.308C9.78225 23.644 10.0183 23.9 10.3303 24.076C10.6423 24.244 11.0143 24.328 11.4463 24.328C11.7903 24.328 12.1223 24.276 12.4423 24.172C12.7703 24.06 13.0783 23.88 13.3663 23.632L13.7023 24.316C13.4383 24.556 13.1023 24.748 12.6943 24.892C12.2863 25.036 11.8703 25.108 11.4463 25.108ZM17.173 25.108C16.869 25.108 16.573 25.076 16.285 25.012C16.005 24.956 15.741 24.876 15.493 24.772C15.253 24.66 15.045 24.528 14.869 24.376L15.181 23.692C15.373 23.844 15.581 23.972 15.805 24.076C16.029 24.172 16.257 24.244 16.489 24.292C16.721 24.34 16.957 24.364 17.197 24.364C17.653 24.364 17.997 24.28 18.229 24.112C18.461 23.944 18.577 23.716 18.577 23.428C18.577 23.204 18.501 23.028 18.349 22.9C18.197 22.764 17.957 22.66 17.629 22.588L16.537 22.348C16.033 22.244 15.657 22.064 15.409 21.808C15.169 21.552 15.049 21.22 15.049 20.812C15.049 20.452 15.141 20.144 15.325 19.888C15.517 19.624 15.785 19.42 16.129 19.276C16.473 19.132 16.873 19.06 17.329 19.06C17.601 19.06 17.861 19.088 18.109 19.144C18.357 19.2 18.589 19.284 18.805 19.396C19.029 19.5 19.221 19.632 19.381 19.792L19.057 20.476C18.905 20.332 18.733 20.212 18.541 20.116C18.349 20.012 18.149 19.936 17.941 19.888C17.741 19.832 17.537 19.804 17.329 19.804C16.881 19.804 16.541 19.892 16.309 20.068C16.077 20.244 15.961 20.476 15.961 20.764C15.961 20.988 16.033 21.172 16.177 21.316C16.321 21.46 16.545 21.564 16.849 21.628L17.941 21.856C18.461 21.968 18.849 22.148 19.105 22.396C19.369 22.636 19.501 22.964 19.501 23.38C19.501 23.732 19.405 24.04 19.213 24.304C19.021 24.56 18.749 24.76 18.397 24.904C18.053 25.04 17.645 25.108 17.173 25.108ZM22.9503 25.108C22.6463 25.108 22.3503 25.076 22.0623 25.012C21.7823 24.956 21.5183 24.876 21.2703 24.772C21.0303 24.66 20.8223 24.528 20.6463 24.376L20.9583 23.692C21.1503 23.844 21.3583 23.972 21.5823 24.076C21.8063 24.172 22.0343 24.244 22.2663 24.292C22.4983 24.34 22.7343 24.364 22.9743 24.364C23.4303 24.364 23.7743 24.28 24.0063 24.112C24.2383 23.944 24.3543 23.716 24.3543 23.428C24.3543 23.204 24.2783 23.028 24.1263 22.9C23.9743 22.764 23.7343 22.66 23.4063 22.588L22.3143 22.348C21.8103 22.244 21.4343 22.064 21.1863 21.808C20.9463 21.552 20.8263 21.22 20.8263 20.812C20.8263 20.452 20.9183 20.144 21.1023 19.888C21.2943 19.624 21.5623 19.42 21.9063 19.276C22.2503 19.132 22.6503 19.06 23.1063 19.06C23.3783 19.06 23.6383 19.088 23.8863 19.144C24.1343 19.2 24.3663 19.284 24.5823 19.396C24.8063 19.5 24.9983 19.632 25.1583 19.792L24.8343 20.476C24.6823 20.332 24.5103 20.212 24.3183 20.116C24.1263 20.012 23.9263 19.936 23.7183 19.888C23.5183 19.832 23.3143 19.804 23.1063 19.804C22.6583 19.804 22.3183 19.892 22.0863 20.068C21.8543 20.244 21.7383 20.476 21.7383 20.764C21.7383 20.988 21.8103 21.172 21.9543 21.316C22.0983 21.46 22.3223 21.564 22.6263 21.628L23.7183 21.856C24.2383 21.968 24.6263 22.148 24.8823 22.396C25.1463 22.636 25.2783 22.964 25.2783 23.38C25.2783 23.732 25.1823 24.04 24.9903 24.304C24.7983 24.56 24.5263 24.76 24.1743 24.904C23.8303 25.04 23.4223 25.108 22.9503 25.108ZM29.3877 25.108C28.7717 25.108 28.2397 24.988 27.7917 24.748C27.3517 24.5 27.0077 24.152 26.7597 23.704C26.5197 23.256 26.3997 22.72 26.3997 22.096C26.3997 21.488 26.5197 20.96 26.7597 20.512C26.9997 20.056 27.3277 19.7 27.7437 19.444C28.1677 19.188 28.6557 19.06 29.2077 19.06C29.7357 19.06 30.1877 19.176 30.5637 19.408C30.9397 19.64 31.2277 19.968 31.4277 20.392C31.6357 20.816 31.7397 21.324 31.7397 21.916V22.288H27.1437V21.652H31.0917L30.8997 21.808C30.8997 21.168 30.7557 20.672 30.4677 20.32C30.1877 19.96 29.7757 19.78 29.2317 19.78C28.8237 19.78 28.4757 19.876 28.1877 20.068C27.9077 20.252 27.6957 20.512 27.5517 20.848C27.4077 21.176 27.3357 21.56 27.3357 22V22.072C27.3357 22.56 27.4117 22.972 27.5637 23.308C27.7237 23.644 27.9597 23.9 28.2717 24.076C28.5837 24.244 28.9557 24.328 29.3877 24.328C29.7317 24.328 30.0637 24.276 30.3837 24.172C30.7117 24.06 31.0197 23.88 31.3077 23.632L31.6437 24.316C31.3797 24.556 31.0437 24.748 30.6357 24.892C30.2277 25.036 29.8117 25.108 29.3877 25.108ZM33.1464 25V19.168H34.0944V20.548H33.9744C34.1104 20.076 34.3464 19.72 34.6824 19.48C35.0184 19.232 35.4624 19.088 36.0144 19.048L36.3624 19.012L36.4344 19.852L35.8224 19.924C35.2784 19.972 34.8584 20.148 34.5624 20.452C34.2744 20.748 34.1304 21.156 34.1304 21.676V25H33.1464ZM40.1036 25.108C39.4156 25.108 38.8996 24.924 38.5556 24.556C38.2116 24.188 38.0396 23.664 38.0396 22.984V19.924H36.8996V19.168H38.0396V17.38H39.0116V19.168H40.8596V19.924H39.0116V22.888C39.0116 23.344 39.1076 23.692 39.2996 23.932C39.4916 24.164 39.8036 24.28 40.2356 24.28C40.3636 24.28 40.4916 24.264 40.6196 24.232C40.7476 24.2 40.8636 24.168 40.9676 24.136L41.1356 24.88C41.0316 24.936 40.8796 24.988 40.6796 25.036C40.4796 25.084 40.2876 25.108 40.1036 25.108ZM43.9269 25.108C43.6229 25.108 43.3269 25.076 43.0389 25.012C42.7589 24.956 42.4949 24.876 42.2469 24.772C42.0069 24.66 41.7989 24.528 41.6229 24.376L41.9349 23.692C42.1269 23.844 42.3349 23.972 42.5589 24.076C42.7829 24.172 43.0109 24.244 43.2429 24.292C43.4749 24.34 43.7109 24.364 43.9509 24.364C44.4069 24.364 44.7509 24.28 44.9829 24.112C45.2149 23.944 45.3309 23.716 45.3309 23.428C45.3309 23.204 45.2549 23.028 45.1029 22.9C44.9509 22.764 44.7109 22.66 44.3829 22.588L43.2909 22.348C42.7869 22.244 42.4109 22.064 42.1629 21.808C41.9229 21.552 41.8029 21.22 41.8029 20.812C41.8029 20.452 41.8949 20.144 42.0789 19.888C42.2709 19.624 42.5389 19.42 42.8829 19.276C43.2269 19.132 43.6269 19.06 44.0829 19.06C44.3549 19.06 44.6149 19.088 44.8629 19.144C45.1109 19.2 45.3429 19.284 45.5589 19.396C45.7829 19.5 45.9749 19.632 46.1349 19.792L45.8109 20.476C45.6589 20.332 45.4869 20.212 45.2949 20.116C45.1029 20.012 44.9029 19.936 44.6949 19.888C44.4949 19.832 44.2909 19.804 44.0829 19.804C43.6349 19.804 43.2949 19.892 43.0629 20.068C42.8309 20.244 42.7149 20.476 42.7149 20.764C42.7149 20.988 42.7869 21.172 42.9309 21.316C43.0749 21.46 43.2989 21.564 43.6029 21.628L44.6949 21.856C45.2149 21.968 45.6029 22.148 45.8589 22.396C46.1229 22.636 46.2549 22.964 46.2549 23.38C46.2549 23.732 46.1589 24.04 45.9669 24.304C45.7749 24.56 45.5029 24.76 45.1509 24.904C44.8069 25.04 44.3989 25.108 43.9269 25.108ZM48.0256 26.368L47.5696 26.02C47.7136 25.868 47.8216 25.724 47.8936 25.588C47.9736 25.46 48.0256 25.328 48.0496 25.192C48.0816 25.064 48.0976 24.932 48.0976 24.796L48.3136 25H47.5216V23.776H48.7456V24.64C48.7456 24.856 48.7216 25.06 48.6736 25.252C48.6336 25.452 48.5616 25.644 48.4576 25.828C48.3536 26.012 48.2096 26.192 48.0256 26.368ZM52.8061 25L56.5381 16.54H57.3781L61.1101 25H60.0901L59.0461 22.588L59.5261 22.84H54.3661L54.8581 22.588L53.8261 25H52.8061ZM56.9461 17.692L55.0141 22.24L54.7261 22.012H59.1661L58.9021 22.24L56.9701 17.692H56.9461ZM62.2323 25V19.168H63.1803V20.464H63.0483C63.2163 20 63.4883 19.652 63.8643 19.42C64.2483 19.18 64.6883 19.06 65.1843 19.06C65.6483 19.06 66.0323 19.144 66.3363 19.312C66.6483 19.472 66.8803 19.724 67.0323 20.068C67.1843 20.412 67.2603 20.844 67.2603 21.364V25H66.2883V21.424C66.2883 21.064 66.2403 20.768 66.1443 20.536C66.0563 20.304 65.9123 20.132 65.7123 20.02C65.5203 19.908 65.2683 19.852 64.9563 19.852C64.6043 19.852 64.2963 19.928 64.0323 20.08C63.7683 20.232 63.5643 20.444 63.4203 20.716C63.2763 20.988 63.2043 21.308 63.2043 21.676V25H62.2323ZM71.2726 25.108C70.7526 25.108 70.2966 24.984 69.9046 24.736C69.5206 24.488 69.2206 24.14 69.0046 23.692C68.7966 23.236 68.6926 22.7 68.6926 22.084C68.6926 21.46 68.7966 20.924 69.0046 20.476C69.2206 20.02 69.5206 19.672 69.9046 19.432C70.2966 19.184 70.7526 19.06 71.2726 19.06C71.8006 19.06 72.2526 19.192 72.6286 19.456C73.0046 19.72 73.2566 20.076 73.3846 20.524H73.2526V16.54H74.2246V25H73.2766V23.608H73.3966C73.2686 24.064 73.0126 24.428 72.6286 24.7C72.2526 24.972 71.8006 25.108 71.2726 25.108ZM71.4766 24.328C72.0286 24.328 72.4646 24.136 72.7846 23.752C73.1126 23.36 73.2766 22.804 73.2766 22.084C73.2766 21.356 73.1126 20.8 72.7846 20.416C72.4646 20.032 72.0286 19.84 71.4766 19.84C70.9326 19.84 70.4966 20.032 70.1686 20.416C69.8406 20.8 69.6766 21.356 69.6766 22.084C69.6766 22.804 69.8406 23.36 70.1686 23.752C70.4966 24.136 70.9326 24.328 71.4766 24.328ZM79.2628 25V16.54H82.6468C83.5108 16.54 84.1828 16.732 84.6628 17.116C85.1428 17.5 85.3828 18.044 85.3828 18.748C85.3828 19.276 85.2268 19.716 84.9148 20.068C84.6108 20.42 84.1948 20.652 83.6668 20.764V20.596C84.0668 20.644 84.4108 20.76 84.6988 20.944C84.9868 21.12 85.2068 21.356 85.3588 21.652C85.5108 21.94 85.5868 22.28 85.5868 22.672C85.5868 23.176 85.4748 23.604 85.2508 23.956C85.0348 24.3 84.7188 24.56 84.3028 24.736C83.8868 24.912 83.3828 25 82.7908 25H79.2628ZM80.2228 24.208H82.6948C82.9508 24.208 83.1788 24.188 83.3788 24.148C83.5868 24.108 83.7668 24.048 83.9188 23.968C84.0708 23.88 84.1988 23.776 84.3028 23.656C84.4068 23.536 84.4828 23.392 84.5308 23.224C84.5868 23.056 84.6148 22.868 84.6148 22.66C84.6148 22.444 84.5868 22.256 84.5308 22.096C84.4828 21.928 84.4068 21.784 84.3028 21.664C84.1988 21.536 84.0708 21.432 83.9188 21.352C83.7668 21.272 83.5868 21.212 83.3788 21.172C83.1788 21.132 82.9508 21.112 82.6948 21.112H80.2228V24.208ZM80.2228 20.32H82.5028C83.1268 20.32 83.5988 20.192 83.9188 19.936C84.2468 19.68 84.4108 19.312 84.4108 18.832C84.4108 18.336 84.2468 17.964 83.9188 17.716C83.5988 17.46 83.1268 17.332 82.5028 17.332H80.2228V20.32ZM89.8681 25.108C89.2521 25.108 88.7201 24.988 88.2721 24.748C87.8321 24.5 87.4881 24.152 87.2401 23.704C87.0001 23.256 86.8801 22.72 86.8801 22.096C86.8801 21.488 87.0001 20.96 87.2401 20.512C87.4801 20.056 87.8081 19.7 88.2241 19.444C88.6481 19.188 89.1361 19.06 89.6881 19.06C90.2161 19.06 90.6681 19.176 91.0441 19.408C91.4201 19.64 91.7081 19.968 91.9081 20.392C92.1161 20.816 92.2201 21.324 92.2201 21.916V22.288H87.6241V21.652H91.5721L91.3801 21.808C91.3801 21.168 91.2361 20.672 90.9481 20.32C90.6681 19.96 90.2561 19.78 89.7121 19.78C89.3041 19.78 88.9561 19.876 88.6681 20.068C88.3881 20.252 88.1761 20.512 88.0321 20.848C87.8881 21.176 87.8161 21.56 87.8161 22V22.072C87.8161 22.56 87.8921 22.972 88.0441 23.308C88.2041 23.644 88.4401 23.9 88.7521 24.076C89.0641 24.244 89.4361 24.328 89.8681 24.328C90.2121 24.328 90.5441 24.276 90.8641 24.172C91.1921 24.06 91.5001 23.88 91.7881 23.632L92.1241 24.316C91.8601 24.556 91.5241 24.748 91.1161 24.892C90.7081 25.036 90.2921 25.108 89.8681 25.108ZM95.2725 25L92.7645 19.168H93.8205L95.9085 24.28H95.5845L97.7085 19.168H98.7045L96.1845 25H95.2725ZM102.278 25.108C101.662 25.108 101.13 24.988 100.682 24.748C100.242 24.5 99.8983 24.152 99.6503 23.704C99.4103 23.256 99.2903 22.72 99.2903 22.096C99.2903 21.488 99.4103 20.96 99.6503 20.512C99.8903 20.056 100.218 19.7 100.634 19.444C101.058 19.188 101.546 19.06 102.098 19.06C102.626 19.06 103.078 19.176 103.454 19.408C103.83 19.64 104.118 19.968 104.318 20.392C104.526 20.816 104.63 21.324 104.63 21.916V22.288H100.034V21.652H103.982L103.79 21.808C103.79 21.168 103.646 20.672 103.358 20.32C103.078 19.96 102.666 19.78 102.122 19.78C101.714 19.78 101.366 19.876 101.078 20.068C100.798 20.252 100.586 20.512 100.442 20.848C100.298 21.176 100.226 21.56 100.226 22V22.072C100.226 22.56 100.302 22.972 100.454 23.308C100.614 23.644 100.85 23.9 101.162 24.076C101.474 24.244 101.846 24.328 102.278 24.328C102.622 24.328 102.954 24.276 103.274 24.172C103.602 24.06 103.91 23.88 104.198 23.632L104.534 24.316C104.27 24.556 103.934 24.748 103.526 24.892C103.118 25.036 102.702 25.108 102.278 25.108ZM106.037 25V19.168H106.985V20.548H106.865C107.001 20.076 107.237 19.72 107.573 19.48C107.909 19.232 108.353 19.088 108.905 19.048L109.253 19.012L109.325 19.852L108.713 19.924C108.169 19.972 107.749 20.148 107.453 20.452C107.165 20.748 107.021 21.156 107.021 21.676V25H106.037ZM112.115 25.108C111.715 25.108 111.355 25.032 111.035 24.88C110.723 24.72 110.475 24.504 110.291 24.232C110.107 23.96 110.015 23.656 110.015 23.32C110.015 22.888 110.123 22.548 110.339 22.3C110.563 22.052 110.927 21.876 111.431 21.772C111.943 21.668 112.639 21.616 113.519 21.616H114.059V22.252H113.531C113.043 22.252 112.635 22.268 112.307 22.3C111.979 22.332 111.719 22.388 111.527 22.468C111.335 22.548 111.199 22.652 111.119 22.78C111.039 22.908 110.999 23.068 110.999 23.26C110.999 23.588 111.111 23.856 111.335 24.064C111.567 24.272 111.879 24.376 112.271 24.376C112.591 24.376 112.871 24.3 113.111 24.148C113.359 23.996 113.551 23.788 113.687 23.524C113.831 23.26 113.903 22.956 113.903 22.612V21.244C113.903 20.748 113.803 20.392 113.603 20.176C113.403 19.952 113.075 19.84 112.619 19.84C112.267 19.84 111.927 19.892 111.599 19.996C111.271 20.092 110.935 20.252 110.591 20.476L110.255 19.768C110.463 19.624 110.699 19.5 110.963 19.396C111.227 19.284 111.503 19.2 111.791 19.144C112.079 19.088 112.355 19.06 112.619 19.06C113.123 19.06 113.539 19.144 113.867 19.312C114.195 19.472 114.439 19.72 114.599 20.056C114.759 20.384 114.839 20.808 114.839 21.328V25H113.927V23.644H114.035C113.971 23.948 113.847 24.208 113.663 24.424C113.487 24.64 113.267 24.808 113.003 24.928C112.739 25.048 112.443 25.108 112.115 25.108ZM119.222 27.268C118.718 27.268 118.242 27.2 117.794 27.064C117.354 26.936 116.962 26.74 116.618 26.476L116.942 25.768C117.182 25.936 117.418 26.072 117.65 26.176C117.89 26.288 118.134 26.368 118.382 26.416C118.638 26.464 118.902 26.488 119.174 26.488C119.742 26.488 120.17 26.336 120.458 26.032C120.754 25.728 120.902 25.288 120.902 24.712V23.356H121.022C120.902 23.82 120.646 24.188 120.254 24.46C119.87 24.732 119.418 24.868 118.898 24.868C118.362 24.868 117.898 24.748 117.506 24.508C117.114 24.26 116.81 23.916 116.594 23.476C116.386 23.036 116.282 22.528 116.282 21.952C116.282 21.376 116.386 20.872 116.594 20.44C116.81 20 117.114 19.66 117.506 19.42C117.898 19.18 118.362 19.06 118.898 19.06C119.426 19.06 119.882 19.196 120.266 19.468C120.65 19.732 120.898 20.092 121.01 20.548H120.902V19.168H121.85V24.58C121.85 25.172 121.75 25.668 121.55 26.068C121.358 26.468 121.066 26.768 120.674 26.968C120.282 27.168 119.798 27.268 119.222 27.268ZM119.078 24.076C119.638 24.076 120.082 23.884 120.41 23.5C120.738 23.116 120.902 22.6 120.902 21.952C120.902 21.304 120.738 20.792 120.41 20.416C120.082 20.032 119.638 19.84 119.078 19.84C118.526 19.84 118.086 20.032 117.758 20.416C117.43 20.792 117.266 21.304 117.266 21.952C117.266 22.6 117.43 23.116 117.758 23.5C118.086 23.884 118.526 24.076 119.078 24.076ZM126.302 25.108C125.686 25.108 125.154 24.988 124.706 24.748C124.266 24.5 123.922 24.152 123.674 23.704C123.434 23.256 123.314 22.72 123.314 22.096C123.314 21.488 123.434 20.96 123.674 20.512C123.914 20.056 124.242 19.7 124.658 19.444C125.082 19.188 125.57 19.06 126.122 19.06C126.65 19.06 127.102 19.176 127.478 19.408C127.854 19.64 128.142 19.968 128.342 20.392C128.55 20.816 128.654 21.324 128.654 21.916V22.288H124.058V21.652H128.006L127.814 21.808C127.814 21.168 127.67 20.672 127.382 20.32C127.102 19.96 126.69 19.78 126.146 19.78C125.738 19.78 125.39 19.876 125.102 20.068C124.822 20.252 124.61 20.512 124.466 20.848C124.322 21.176 124.25 21.56 124.25 22V22.072C124.25 22.56 124.326 22.972 124.478 23.308C124.638 23.644 124.874 23.9 125.186 24.076C125.498 24.244 125.87 24.328 126.302 24.328C126.646 24.328 126.978 24.276 127.298 24.172C127.626 24.06 127.934 23.88 128.222 23.632L128.558 24.316C128.294 24.556 127.958 24.748 127.55 24.892C127.142 25.036 126.726 25.108 126.302 25.108ZM132.028 25.108C131.724 25.108 131.428 25.076 131.14 25.012C130.86 24.956 130.596 24.876 130.348 24.772C130.108 24.66 129.9 24.528 129.724 24.376L130.036 23.692C130.228 23.844 130.436 23.972 130.66 24.076C130.884 24.172 131.112 24.244 131.344 24.292C131.576 24.34 131.812 24.364 132.052 24.364C132.508 24.364 132.852 24.28 133.084 24.112C133.316 23.944 133.432 23.716 133.432 23.428C133.432 23.204 133.356 23.028 133.204 22.9C133.052 22.764 132.812 22.66 132.484 22.588L131.392 22.348C130.888 22.244 130.512 22.064 130.264 21.808C130.024 21.552 129.904 21.22 129.904 20.812C129.904 20.452 129.996 20.144 130.18 19.888C130.372 19.624 130.64 19.42 130.984 19.276C131.328 19.132 131.728 19.06 132.184 19.06C132.456 19.06 132.716 19.088 132.964 19.144C133.212 19.2 133.444 19.284 133.66 19.396C133.884 19.5 134.076 19.632 134.236 19.792L133.912 20.476C133.76 20.332 133.588 20.212 133.396 20.116C133.204 20.012 133.004 19.936 132.796 19.888C132.596 19.832 132.392 19.804 132.184 19.804C131.736 19.804 131.396 19.892 131.164 20.068C130.932 20.244 130.816 20.476 130.816 20.764C130.816 20.988 130.888 21.172 131.032 21.316C131.176 21.46 131.4 21.564 131.704 21.628L132.796 21.856C133.316 21.968 133.704 22.148 133.96 22.396C134.224 22.636 134.356 22.964 134.356 23.38C134.356 23.732 134.26 24.04 134.068 24.304C133.876 24.56 133.604 24.76 133.252 24.904C132.908 25.04 132.5 25.108 132.028 25.108ZM135.623 25V23.776H136.847V25H135.623Z" fill="white"/>
</svg>
