<svg width="329" height="28" viewBox="0 0 329 28" fill="none" xmlns="http://www.w3.org/2000/svg">
<path d="M3.78 9.108C3.42 9.108 3.068 9.068 2.724 8.988C2.38 8.908 2.056 8.792 1.752 8.64C1.456 8.488 1.192 8.308 0.96 8.1L1.332 7.32C1.716 7.632 2.104 7.864 2.496 8.016C2.896 8.16 3.32 8.232 3.768 8.232C4.36 8.232 4.82 8.068 5.148 7.74C5.484 7.412 5.652 6.98 5.652 6.444C5.652 5.892 5.492 5.44 5.172 5.088C4.852 4.736 4.412 4.56 3.852 4.56C3.444 4.56 3.084 4.644 2.772 4.812C2.468 4.972 2.192 5.224 1.944 5.568H1.224V0.539999H6.132V1.38H2.196V4.752H1.932C2.14 4.416 2.428 4.16 2.796 3.984C3.164 3.8 3.576 3.708 4.032 3.708C4.568 3.708 5.028 3.82 5.412 4.044C5.804 4.268 6.104 4.584 6.312 4.992C6.528 5.392 6.636 5.86 6.636 6.396C6.636 6.924 6.52 7.392 6.288 7.8C6.056 8.208 5.728 8.528 5.304 8.76C4.88 8.992 4.372 9.108 3.78 9.108ZM10.7953 9.108C10.1553 9.108 9.61131 8.944 9.16331 8.616C8.72331 8.28 8.39131 7.788 8.16731 7.14C7.94331 6.492 7.83131 5.7 7.83131 4.764C7.83131 3.82 7.94331 3.028 8.16731 2.388C8.39131 1.74 8.72331 1.252 9.16331 0.924C9.61131 0.595999 10.1553 0.431999 10.7953 0.431999C11.4433 0.431999 11.9873 0.595999 12.4273 0.924C12.8673 1.252 13.1993 1.736 13.4233 2.376C13.6473 3.016 13.7593 3.808 13.7593 4.752C13.7593 5.696 13.6473 6.492 13.4233 7.14C13.1993 7.788 12.8673 8.28 12.4273 8.616C11.9873 8.944 11.4433 9.108 10.7953 9.108ZM10.7953 8.256C11.4673 8.256 11.9633 7.972 12.2833 7.404C12.6113 6.836 12.7753 5.952 12.7753 4.752C12.7753 3.552 12.6153 2.676 12.2953 2.124C11.9753 1.564 11.4753 1.284 10.7953 1.284C10.1313 1.284 9.63531 1.564 9.30731 2.124C8.97931 2.684 8.81531 3.56 8.81531 4.752C8.81531 5.952 8.97531 6.836 9.29531 7.404C9.62331 7.972 10.1233 8.256 10.7953 8.256ZM15.3266 9V3.168H16.2746V4.464H16.1426C16.2386 4.168 16.3786 3.916 16.5626 3.708C16.7546 3.492 16.9786 3.332 17.2346 3.228C17.4986 3.116 17.7866 3.06 18.0986 3.06C18.5946 3.06 18.9946 3.18 19.2986 3.42C19.6106 3.652 19.8186 4.016 19.9226 4.512H19.7426C19.8866 4.064 20.1426 3.712 20.5106 3.456C20.8866 3.192 21.3226 3.06 21.8186 3.06C22.2586 3.06 22.6186 3.144 22.8986 3.312C23.1866 3.48 23.4026 3.736 23.5466 4.08C23.6906 4.416 23.7626 4.844 23.7626 5.364V9H22.7906V5.412C22.7906 4.876 22.6986 4.484 22.5146 4.236C22.3306 3.98 22.0186 3.852 21.5786 3.852C21.2666 3.852 20.9906 3.928 20.7506 4.08C20.5186 4.232 20.3386 4.448 20.2106 4.728C20.0906 5 20.0306 5.324 20.0306 5.7V9H19.0586V5.412C19.0586 4.876 18.9626 4.484 18.7706 4.236C18.5866 3.98 18.2786 3.852 17.8466 3.852C17.5266 3.852 17.2506 3.928 17.0186 4.08C16.7866 4.232 16.6066 4.448 16.4786 4.728C16.3586 5 16.2986 5.324 16.2986 5.7V9H15.3266ZM27.368 9.108C26.776 9.108 26.328 8.932 26.024 8.58C25.728 8.228 25.58 7.724 25.58 7.068V0.539999H26.552V6.996C26.552 7.276 26.588 7.512 26.66 7.704C26.74 7.896 26.856 8.04 27.008 8.136C27.16 8.232 27.348 8.28 27.572 8.28C27.668 8.28 27.76 8.276 27.848 8.268C27.944 8.252 28.032 8.232 28.112 8.208L28.088 9.024C27.96 9.048 27.836 9.068 27.716 9.084C27.604 9.1 27.488 9.108 27.368 9.108ZM32.3448 9V0.539999H35.2008C36.1208 0.539999 36.8968 0.704 37.5288 1.032C38.1688 1.352 38.6528 1.828 38.9808 2.46C39.3168 3.084 39.4848 3.852 39.4848 4.764C39.4848 5.676 39.3168 6.448 38.9808 7.08C38.6528 7.712 38.1688 8.192 37.5288 8.52C36.8968 8.84 36.1208 9 35.2008 9H32.3448ZM33.3288 8.16H35.1288C36.2408 8.16 37.0688 7.876 37.6128 7.308C38.1648 6.74 38.4408 5.892 38.4408 4.764C38.4408 3.636 38.1648 2.792 37.6128 2.232C37.0608 1.664 36.2328 1.38 35.1288 1.38H33.3288V8.16ZM43.183 9.108C42.711 9.108 42.319 9.024 42.007 8.856C41.703 8.68 41.471 8.42 41.311 8.076C41.159 7.732 41.083 7.304 41.083 6.792V3.168H42.055V6.78C42.055 7.124 42.099 7.412 42.187 7.644C42.283 7.868 42.431 8.036 42.631 8.148C42.831 8.252 43.079 8.304 43.375 8.304C43.711 8.304 44.003 8.228 44.251 8.076C44.499 7.924 44.695 7.712 44.839 7.44C44.983 7.168 45.055 6.848 45.055 6.48V3.168H46.027V9H45.079V7.656H45.235C45.075 8.128 44.811 8.488 44.443 8.736C44.083 8.984 43.663 9.108 43.183 9.108ZM47.8456 9V3.168H48.7936V4.548H48.6736C48.8096 4.076 49.0456 3.72 49.3816 3.48C49.7176 3.232 50.1616 3.088 50.7136 3.048L51.0616 3.012L51.1336 3.852L50.5216 3.924C49.9776 3.972 49.5576 4.148 49.2616 4.452C48.9736 4.748 48.8296 5.156 48.8296 5.676V9H47.8456ZM53.9238 9.108C53.5238 9.108 53.1638 9.032 52.8438 8.88C52.5318 8.72 52.2838 8.504 52.0998 8.232C51.9158 7.96 51.8238 7.656 51.8238 7.32C51.8238 6.888 51.9318 6.548 52.1478 6.3C52.3718 6.052 52.7358 5.876 53.2398 5.772C53.7518 5.668 54.4478 5.616 55.3278 5.616H55.8678V6.252H55.3398C54.8518 6.252 54.4438 6.268 54.1158 6.3C53.7878 6.332 53.5278 6.388 53.3358 6.468C53.1438 6.548 53.0078 6.652 52.9278 6.78C52.8478 6.908 52.8078 7.068 52.8078 7.26C52.8078 7.588 52.9198 7.856 53.1438 8.064C53.3758 8.272 53.6878 8.376 54.0798 8.376C54.3998 8.376 54.6798 8.3 54.9198 8.148C55.1678 7.996 55.3598 7.788 55.4958 7.524C55.6398 7.26 55.7118 6.956 55.7118 6.612V5.244C55.7118 4.748 55.6118 4.392 55.4118 4.176C55.2118 3.952 54.8838 3.84 54.4278 3.84C54.0758 3.84 53.7358 3.892 53.4078 3.996C53.0798 4.092 52.7438 4.252 52.3998 4.476L52.0638 3.768C52.2718 3.624 52.5078 3.5 52.7718 3.396C53.0358 3.284 53.3118 3.2 53.5998 3.144C53.8878 3.088 54.1638 3.06 54.4278 3.06C54.9318 3.06 55.3478 3.144 55.6758 3.312C56.0038 3.472 56.2478 3.72 56.4078 4.056C56.5678 4.384 56.6478 4.808 56.6478 5.328V9H55.7358V7.644H55.8438C55.7798 7.948 55.6558 8.208 55.4718 8.424C55.2958 8.64 55.0758 8.808 54.8118 8.928C54.5478 9.048 54.2518 9.108 53.9238 9.108ZM61.4031 9.108C60.8751 9.108 60.4191 8.972 60.0351 8.7C59.6591 8.428 59.4071 8.064 59.2791 7.608H59.3991V9H58.4511V0.539999H59.4231V4.524H59.2791C59.4151 4.076 59.6711 3.72 60.0471 3.456C60.4231 3.192 60.8751 3.06 61.4031 3.06C61.9311 3.06 62.3871 3.184 62.7711 3.432C63.1551 3.672 63.4511 4.02 63.6591 4.476C63.8751 4.924 63.9831 5.46 63.9831 6.084C63.9831 6.7 63.8751 7.236 63.6591 7.692C63.4511 8.14 63.1511 8.488 62.7591 8.736C62.3751 8.984 61.9231 9.108 61.4031 9.108ZM61.1991 8.328C61.7511 8.328 62.1871 8.136 62.5071 7.752C62.8351 7.36 62.9991 6.804 62.9991 6.084C62.9991 5.356 62.8351 4.8 62.5071 4.416C62.1871 4.032 61.7511 3.84 61.1991 3.84C60.6551 3.84 60.2191 4.032 59.8911 4.416C59.5631 4.8 59.3991 5.356 59.3991 6.084C59.3991 6.804 59.5631 7.36 59.8911 7.752C60.2191 8.136 60.6551 8.328 61.1991 8.328ZM67.2352 9.108C66.6432 9.108 66.1952 8.932 65.8912 8.58C65.5952 8.228 65.4472 7.724 65.4472 7.068V0.539999H66.4192V6.996C66.4192 7.276 66.4552 7.512 66.5272 7.704C66.6072 7.896 66.7232 8.04 66.8752 8.136C67.0272 8.232 67.2152 8.28 67.4392 8.28C67.5352 8.28 67.6272 8.276 67.7152 8.268C67.8112 8.252 67.8992 8.232 67.9792 8.208L67.9552 9.024C67.8272 9.048 67.7032 9.068 67.5832 9.084C67.4712 9.1 67.3552 9.108 67.2352 9.108ZM71.5673 9.108C70.9513 9.108 70.4193 8.988 69.9713 8.748C69.5313 8.5 69.1873 8.152 68.9393 7.704C68.6993 7.256 68.5793 6.72 68.5793 6.096C68.5793 5.488 68.6993 4.96 68.9393 4.512C69.1793 4.056 69.5073 3.7 69.9233 3.444C70.3473 3.188 70.8353 3.06 71.3873 3.06C71.9153 3.06 72.3673 3.176 72.7433 3.408C73.1193 3.64 73.4073 3.968 73.6073 4.392C73.8153 4.816 73.9193 5.324 73.9193 5.916V6.288H69.3233V5.652H73.2713L73.0793 5.808C73.0793 5.168 72.9353 4.672 72.6473 4.32C72.3673 3.96 71.9553 3.78 71.4113 3.78C71.0033 3.78 70.6553 3.876 70.3673 4.068C70.0873 4.252 69.8753 4.512 69.7313 4.848C69.5873 5.176 69.5153 5.56 69.5153 6V6.072C69.5153 6.56 69.5913 6.972 69.7433 7.308C69.9033 7.644 70.1393 7.9 70.4513 8.076C70.7633 8.244 71.1353 8.328 71.5673 8.328C71.9113 8.328 72.2433 8.276 72.5633 8.172C72.8913 8.06 73.1993 7.88 73.4873 7.632L73.8233 8.316C73.5593 8.556 73.2233 8.748 72.8153 8.892C72.4073 9.036 71.9913 9.108 71.5673 9.108ZM78.5401 9V0.539999H79.5241V4.284H84.6001V0.539999H85.5841V9H84.6001V5.136H79.5241V9H78.5401ZM87.417 1.716V0.624H88.617V1.716H87.417ZM87.537 9V3.168H88.509V9H87.537ZM90.3261 9V3.168H91.2741V4.464H91.1421C91.3101 4 91.5821 3.652 91.9581 3.42C92.3421 3.18 92.7821 3.06 93.2781 3.06C93.7421 3.06 94.1261 3.144 94.4301 3.312C94.7421 3.472 94.9741 3.724 95.1261 4.068C95.2781 4.412 95.3541 4.844 95.3541 5.364V9H94.3821V5.424C94.3821 5.064 94.3341 4.768 94.2381 4.536C94.1501 4.304 94.0061 4.132 93.8061 4.02C93.6141 3.908 93.3621 3.852 93.0501 3.852C92.6981 3.852 92.3901 3.928 92.1261 4.08C91.8621 4.232 91.6581 4.444 91.5141 4.716C91.3701 4.988 91.2981 5.308 91.2981 5.676V9H90.3261ZM99.7264 11.268C99.2224 11.268 98.7464 11.2 98.2984 11.064C97.8584 10.936 97.4664 10.74 97.1224 10.476L97.4464 9.768C97.6864 9.936 97.9224 10.072 98.1544 10.176C98.3944 10.288 98.6384 10.368 98.8864 10.416C99.1424 10.464 99.4064 10.488 99.6784 10.488C100.246 10.488 100.674 10.336 100.962 10.032C101.258 9.728 101.406 9.288 101.406 8.712V7.356H101.526C101.406 7.82 101.15 8.188 100.758 8.46C100.374 8.732 99.9224 8.868 99.4024 8.868C98.8664 8.868 98.4024 8.748 98.0104 8.508C97.6184 8.26 97.3144 7.916 97.0984 7.476C96.8904 7.036 96.7864 6.528 96.7864 5.952C96.7864 5.376 96.8904 4.872 97.0984 4.44C97.3144 4 97.6184 3.66 98.0104 3.42C98.4024 3.18 98.8664 3.06 99.4024 3.06C99.9304 3.06 100.386 3.196 100.77 3.468C101.154 3.732 101.402 4.092 101.514 4.548H101.406V3.168H102.354V8.58C102.354 9.172 102.254 9.668 102.054 10.068C101.862 10.468 101.57 10.768 101.178 10.968C100.786 11.168 100.302 11.268 99.7264 11.268ZM99.5824 8.076C100.142 8.076 100.586 7.884 100.914 7.5C101.242 7.116 101.406 6.6 101.406 5.952C101.406 5.304 101.242 4.792 100.914 4.416C100.586 4.032 100.142 3.84 99.5824 3.84C99.0304 3.84 98.5904 4.032 98.2624 4.416C97.9344 4.792 97.7704 5.304 97.7704 5.952C97.7704 6.6 97.9344 7.116 98.2624 7.5C98.5904 7.884 99.0304 8.076 99.5824 8.076ZM106.806 9.108C106.19 9.108 105.658 8.988 105.21 8.748C104.77 8.5 104.426 8.152 104.178 7.704C103.938 7.256 103.818 6.72 103.818 6.096C103.818 5.488 103.938 4.96 104.178 4.512C104.418 4.056 104.746 3.7 105.162 3.444C105.586 3.188 106.074 3.06 106.626 3.06C107.154 3.06 107.606 3.176 107.982 3.408C108.358 3.64 108.646 3.968 108.846 4.392C109.054 4.816 109.158 5.324 109.158 5.916V6.288H104.562V5.652H108.51L108.318 5.808C108.318 5.168 108.174 4.672 107.886 4.32C107.606 3.96 107.194 3.78 106.65 3.78C106.242 3.78 105.894 3.876 105.606 4.068C105.326 4.252 105.114 4.512 104.97 4.848C104.826 5.176 104.754 5.56 104.754 6V6.072C104.754 6.56 104.83 6.972 104.982 7.308C105.142 7.644 105.378 7.9 105.69 8.076C106.002 8.244 106.374 8.328 106.806 8.328C107.15 8.328 107.482 8.276 107.802 8.172C108.13 8.06 108.438 7.88 108.726 7.632L109.062 8.316C108.798 8.556 108.462 8.748 108.054 8.892C107.646 9.036 107.23 9.108 106.806 9.108ZM112.784 9.108C112.264 9.108 111.808 8.984 111.416 8.736C111.032 8.488 110.732 8.14 110.516 7.692C110.308 7.236 110.204 6.7 110.204 6.084C110.204 5.46 110.308 4.924 110.516 4.476C110.732 4.02 111.032 3.672 111.416 3.432C111.808 3.184 112.264 3.06 112.784 3.06C113.312 3.06 113.764 3.192 114.14 3.456C114.516 3.72 114.768 4.076 114.896 4.524H114.764V0.539999H115.736V9H114.788V7.608H114.908C114.78 8.064 114.524 8.428 114.14 8.7C113.764 8.972 113.312 9.108 112.784 9.108ZM112.988 8.328C113.54 8.328 113.976 8.136 114.296 7.752C114.624 7.36 114.788 6.804 114.788 6.084C114.788 5.356 114.624 4.8 114.296 4.416C113.976 4.032 113.54 3.84 112.988 3.84C112.444 3.84 112.008 4.032 111.68 4.416C111.352 4.8 111.188 5.356 111.188 6.084C111.188 6.804 111.352 7.36 111.68 7.752C112.008 8.136 112.444 8.328 112.988 8.328ZM124.434 9.108C123.602 9.108 122.89 8.932 122.298 8.58C121.706 8.228 121.25 7.728 120.93 7.08C120.618 6.432 120.462 5.66 120.462 4.764C120.462 3.868 120.618 3.1 120.93 2.46C121.25 1.812 121.706 1.312 122.298 0.96C122.89 0.608 123.602 0.431999 124.434 0.431999C125.018 0.431999 125.558 0.523999 126.054 0.707999C126.55 0.891999 126.966 1.16 127.302 1.512L126.918 2.316C126.55 1.972 126.166 1.724 125.766 1.572C125.374 1.412 124.938 1.332 124.458 1.332C123.506 1.332 122.778 1.632 122.274 2.232C121.77 2.832 121.518 3.676 121.518 4.764C121.518 5.852 121.77 6.7 122.274 7.308C122.778 7.908 123.506 8.208 124.458 8.208C124.938 8.208 125.374 8.132 125.766 7.98C126.166 7.82 126.55 7.568 126.918 7.224L127.302 8.028C126.966 8.372 126.55 8.64 126.054 8.832C125.558 9.016 125.018 9.108 124.434 9.108ZM130.719 9.108C130.151 9.108 129.659 8.984 129.243 8.736C128.827 8.488 128.503 8.14 128.271 7.692C128.047 7.236 127.935 6.7 127.935 6.084C127.935 5.468 128.047 4.936 128.271 4.488C128.503 4.032 128.827 3.68 129.243 3.432C129.659 3.184 130.151 3.06 130.719 3.06C131.287 3.06 131.779 3.184 132.195 3.432C132.611 3.68 132.931 4.032 133.155 4.488C133.387 4.936 133.503 5.468 133.503 6.084C133.503 6.7 133.387 7.236 133.155 7.692C132.931 8.14 132.611 8.488 132.195 8.736C131.779 8.984 131.287 9.108 130.719 9.108ZM130.719 8.328C131.271 8.328 131.707 8.136 132.027 7.752C132.355 7.36 132.519 6.8 132.519 6.072C132.519 5.352 132.355 4.8 132.027 4.416C131.707 4.032 131.271 3.84 130.719 3.84C130.175 3.84 129.739 4.032 129.411 4.416C129.083 4.8 128.919 5.352 128.919 6.072C128.919 6.8 129.083 7.36 129.411 7.752C129.739 8.136 130.175 8.328 130.719 8.328ZM134.963 9V3.168H135.911V4.464H135.779C135.947 4 136.219 3.652 136.595 3.42C136.979 3.18 137.419 3.06 137.915 3.06C138.379 3.06 138.763 3.144 139.067 3.312C139.379 3.472 139.611 3.724 139.763 4.068C139.915 4.412 139.991 4.844 139.991 5.364V9H139.019V5.424C139.019 5.064 138.971 4.768 138.875 4.536C138.787 4.304 138.643 4.132 138.443 4.02C138.251 3.908 137.999 3.852 137.687 3.852C137.335 3.852 137.027 3.928 136.763 4.08C136.499 4.232 136.295 4.444 136.151 4.716C136.007 4.988 135.935 5.308 135.935 5.676V9H134.963ZM144.123 9.108C143.435 9.108 142.919 8.924 142.575 8.556C142.231 8.188 142.059 7.664 142.059 6.984V3.924H140.919V3.168H142.059V1.38H143.031V3.168H144.879V3.924H143.031V6.888C143.031 7.344 143.127 7.692 143.319 7.932C143.511 8.164 143.823 8.28 144.255 8.28C144.383 8.28 144.511 8.264 144.639 8.232C144.767 8.2 144.883 8.168 144.987 8.136L145.155 8.88C145.051 8.936 144.899 8.988 144.699 9.036C144.499 9.084 144.307 9.108 144.123 9.108ZM147.814 9.108C147.414 9.108 147.054 9.032 146.734 8.88C146.422 8.72 146.174 8.504 145.99 8.232C145.806 7.96 145.714 7.656 145.714 7.32C145.714 6.888 145.822 6.548 146.038 6.3C146.262 6.052 146.626 5.876 147.13 5.772C147.642 5.668 148.338 5.616 149.218 5.616H149.758V6.252H149.23C148.742 6.252 148.334 6.268 148.006 6.3C147.678 6.332 147.418 6.388 147.226 6.468C147.034 6.548 146.898 6.652 146.818 6.78C146.738 6.908 146.698 7.068 146.698 7.26C146.698 7.588 146.81 7.856 147.034 8.064C147.266 8.272 147.578 8.376 147.97 8.376C148.29 8.376 148.57 8.3 148.81 8.148C149.058 7.996 149.25 7.788 149.386 7.524C149.53 7.26 149.602 6.956 149.602 6.612V5.244C149.602 4.748 149.502 4.392 149.302 4.176C149.102 3.952 148.774 3.84 148.318 3.84C147.966 3.84 147.626 3.892 147.298 3.996C146.97 4.092 146.634 4.252 146.29 4.476L145.954 3.768C146.162 3.624 146.398 3.5 146.662 3.396C146.926 3.284 147.202 3.2 147.49 3.144C147.778 3.088 148.054 3.06 148.318 3.06C148.822 3.06 149.238 3.144 149.566 3.312C149.894 3.472 150.138 3.72 150.298 4.056C150.458 4.384 150.538 4.808 150.538 5.328V9H149.626V7.644H149.734C149.67 7.948 149.546 8.208 149.362 8.424C149.186 8.64 148.966 8.808 148.702 8.928C148.438 9.048 148.142 9.108 147.814 9.108ZM152.222 1.716V0.624H153.422V1.716H152.222ZM152.342 9V3.168H153.314V9H152.342ZM155.131 9V3.168H156.079V4.464H155.947C156.115 4 156.387 3.652 156.763 3.42C157.147 3.18 157.587 3.06 158.083 3.06C158.547 3.06 158.931 3.144 159.235 3.312C159.547 3.472 159.779 3.724 159.931 4.068C160.083 4.412 160.159 4.844 160.159 5.364V9H159.187V5.424C159.187 5.064 159.139 4.768 159.043 4.536C158.955 4.304 158.811 4.132 158.611 4.02C158.419 3.908 158.167 3.852 157.855 3.852C157.503 3.852 157.195 3.928 156.931 4.08C156.667 4.232 156.463 4.444 156.319 4.716C156.175 4.988 156.103 5.308 156.103 5.676V9H155.131ZM164.579 9.108C163.963 9.108 163.431 8.988 162.983 8.748C162.543 8.5 162.199 8.152 161.951 7.704C161.711 7.256 161.591 6.72 161.591 6.096C161.591 5.488 161.711 4.96 161.951 4.512C162.191 4.056 162.519 3.7 162.935 3.444C163.359 3.188 163.847 3.06 164.399 3.06C164.927 3.06 165.379 3.176 165.755 3.408C166.131 3.64 166.419 3.968 166.619 4.392C166.827 4.816 166.931 5.324 166.931 5.916V6.288H162.335V5.652H166.283L166.091 5.808C166.091 5.168 165.947 4.672 165.659 4.32C165.379 3.96 164.967 3.78 164.423 3.78C164.015 3.78 163.667 3.876 163.379 4.068C163.099 4.252 162.887 4.512 162.743 4.848C162.599 5.176 162.527 5.56 162.527 6V6.072C162.527 6.56 162.603 6.972 162.755 7.308C162.915 7.644 163.151 7.9 163.463 8.076C163.775 8.244 164.147 8.328 164.579 8.328C164.923 8.328 165.255 8.276 165.575 8.172C165.903 8.06 166.211 7.88 166.499 7.632L166.835 8.316C166.571 8.556 166.235 8.748 165.827 8.892C165.419 9.036 165.003 9.108 164.579 9.108ZM168.338 9V3.168H169.286V4.548H169.166C169.302 4.076 169.538 3.72 169.874 3.48C170.21 3.232 170.654 3.088 171.206 3.048L171.554 3.012L171.626 3.852L171.014 3.924C170.47 3.972 170.05 4.148 169.754 4.452C169.466 4.748 169.322 5.156 169.322 5.676V9H168.338ZM172.74 10.368L172.284 10.02C172.428 9.868 172.536 9.724 172.608 9.588C172.688 9.46 172.74 9.328 172.764 9.192C172.796 9.064 172.812 8.932 172.812 8.796L173.028 9H172.236V7.776H173.46V8.64C173.46 8.856 173.436 9.06 173.388 9.252C173.348 9.452 173.276 9.644 173.172 9.828C173.068 10.012 172.924 10.192 172.74 10.368ZM178.361 9V0.539999H179.189L182.621 6.984H182.261L185.669 0.539999H186.497V9H185.585V1.86H185.873L182.765 7.692H182.117L178.973 1.848H179.261V9H178.361ZM188.351 1.716V0.624H189.551V1.716H188.351ZM188.471 9V3.168H189.443V9H188.471ZM193.732 9.108C193.148 9.108 192.644 8.98 192.22 8.724C191.796 8.468 191.468 8.112 191.236 7.656C191.012 7.192 190.9 6.656 190.9 6.048C190.9 5.432 191.012 4.9 191.236 4.452C191.468 4.004 191.796 3.66 192.22 3.42C192.644 3.18 193.148 3.06 193.732 3.06C194.092 3.06 194.448 3.124 194.8 3.252C195.152 3.38 195.444 3.56 195.676 3.792L195.34 4.5C195.108 4.276 194.852 4.112 194.572 4.008C194.3 3.904 194.04 3.852 193.792 3.852C193.184 3.852 192.716 4.044 192.388 4.428C192.06 4.804 191.896 5.348 191.896 6.06C191.896 6.756 192.06 7.308 192.388 7.716C192.716 8.116 193.184 8.316 193.792 8.316C194.04 8.316 194.3 8.264 194.572 8.16C194.852 8.056 195.108 7.888 195.34 7.656L195.676 8.364C195.444 8.596 195.148 8.78 194.788 8.916C194.436 9.044 194.084 9.108 193.732 9.108ZM196.814 9V3.168H197.762V4.548H197.642C197.778 4.076 198.014 3.72 198.35 3.48C198.686 3.232 199.13 3.088 199.682 3.048L200.03 3.012L200.102 3.852L199.49 3.924C198.946 3.972 198.526 4.148 198.23 4.452C197.942 4.748 197.798 5.156 197.798 5.676V9H196.814ZM203.469 9.108C202.901 9.108 202.409 8.984 201.993 8.736C201.577 8.488 201.253 8.14 201.021 7.692C200.797 7.236 200.685 6.7 200.685 6.084C200.685 5.468 200.797 4.936 201.021 4.488C201.253 4.032 201.577 3.68 201.993 3.432C202.409 3.184 202.901 3.06 203.469 3.06C204.037 3.06 204.529 3.184 204.945 3.432C205.361 3.68 205.681 4.032 205.905 4.488C206.137 4.936 206.253 5.468 206.253 6.084C206.253 6.7 206.137 7.236 205.905 7.692C205.681 8.14 205.361 8.488 204.945 8.736C204.529 8.984 204.037 9.108 203.469 9.108ZM203.469 8.328C204.021 8.328 204.457 8.136 204.777 7.752C205.105 7.36 205.269 6.8 205.269 6.072C205.269 5.352 205.105 4.8 204.777 4.416C204.457 4.032 204.021 3.84 203.469 3.84C202.925 3.84 202.489 4.032 202.161 4.416C201.833 4.8 201.669 5.352 201.669 6.072C201.669 6.8 201.833 7.36 202.161 7.752C202.489 8.136 202.925 8.328 203.469 8.328ZM209.179 9L207.007 3.168H208.027L209.815 8.28H209.527L211.375 3.168H212.203L214.015 8.28H213.739L215.551 3.168H216.523L214.339 9H213.415L211.507 3.756H212.023L210.115 9H209.179ZM219.439 9.108C219.039 9.108 218.679 9.032 218.359 8.88C218.047 8.72 217.799 8.504 217.615 8.232C217.431 7.96 217.339 7.656 217.339 7.32C217.339 6.888 217.447 6.548 217.663 6.3C217.887 6.052 218.251 5.876 218.755 5.772C219.267 5.668 219.963 5.616 220.843 5.616H221.383V6.252H220.855C220.367 6.252 219.959 6.268 219.631 6.3C219.303 6.332 219.043 6.388 218.851 6.468C218.659 6.548 218.523 6.652 218.443 6.78C218.363 6.908 218.323 7.068 218.323 7.26C218.323 7.588 218.435 7.856 218.659 8.064C218.891 8.272 219.203 8.376 219.595 8.376C219.915 8.376 220.195 8.3 220.435 8.148C220.683 7.996 220.875 7.788 221.011 7.524C221.155 7.26 221.227 6.956 221.227 6.612V5.244C221.227 4.748 221.127 4.392 220.927 4.176C220.727 3.952 220.399 3.84 219.943 3.84C219.591 3.84 219.251 3.892 218.923 3.996C218.595 4.092 218.259 4.252 217.915 4.476L217.579 3.768C217.787 3.624 218.023 3.5 218.287 3.396C218.551 3.284 218.827 3.2 219.115 3.144C219.403 3.088 219.679 3.06 219.943 3.06C220.447 3.06 220.863 3.144 221.191 3.312C221.519 3.472 221.763 3.72 221.923 4.056C222.083 4.384 222.163 4.808 222.163 5.328V9H221.251V7.644H221.359C221.295 7.948 221.171 8.208 220.987 8.424C220.811 8.64 220.591 8.808 220.327 8.928C220.063 9.048 219.767 9.108 219.439 9.108ZM225.624 9L223.116 3.168H224.172L226.26 8.28H225.936L228.06 3.168H229.056L226.536 9H225.624ZM232.63 9.108C232.014 9.108 231.482 8.988 231.034 8.748C230.594 8.5 230.25 8.152 230.002 7.704C229.762 7.256 229.642 6.72 229.642 6.096C229.642 5.488 229.762 4.96 230.002 4.512C230.242 4.056 230.57 3.7 230.986 3.444C231.41 3.188 231.898 3.06 232.45 3.06C232.978 3.06 233.43 3.176 233.806 3.408C234.182 3.64 234.47 3.968 234.67 4.392C234.878 4.816 234.982 5.324 234.982 5.916V6.288H230.386V5.652H234.334L234.142 5.808C234.142 5.168 233.998 4.672 233.71 4.32C233.43 3.96 233.018 3.78 232.474 3.78C232.066 3.78 231.718 3.876 231.43 4.068C231.15 4.252 230.938 4.512 230.794 4.848C230.65 5.176 230.578 5.56 230.578 6V6.072C230.578 6.56 230.654 6.972 230.806 7.308C230.966 7.644 231.202 7.9 231.514 8.076C231.826 8.244 232.198 8.328 232.63 8.328C232.974 8.328 233.306 8.276 233.626 8.172C233.954 8.06 234.262 7.88 234.55 7.632L234.886 8.316C234.622 8.556 234.286 8.748 233.878 8.892C233.47 9.036 233.054 9.108 232.63 9.108ZM236.469 6.204V5.4H239.829V6.204H236.469ZM244.237 9.108C243.797 9.108 243.381 9.068 242.989 8.988C242.605 8.908 242.249 8.796 241.921 8.652C241.601 8.5 241.309 8.316 241.045 8.1L241.393 7.308C241.665 7.508 241.941 7.68 242.221 7.824C242.509 7.96 242.817 8.064 243.145 8.136C243.481 8.2 243.845 8.232 244.237 8.232C244.957 8.232 245.489 8.1 245.833 7.836C246.185 7.564 246.361 7.208 246.361 6.768C246.361 6.536 246.305 6.336 246.193 6.168C246.089 6 245.913 5.856 245.665 5.736C245.425 5.616 245.109 5.516 244.717 5.436L243.469 5.184C242.717 5.024 242.153 4.764 241.777 4.404C241.409 4.036 241.225 3.548 241.225 2.94C241.225 2.436 241.353 1.996 241.609 1.62C241.873 1.244 242.237 0.951999 242.701 0.744C243.173 0.536 243.709 0.431999 244.309 0.431999C244.693 0.431999 245.057 0.471999 245.401 0.551999C245.745 0.632 246.061 0.752 246.349 0.912C246.645 1.064 246.905 1.252 247.129 1.476L246.781 2.244C246.421 1.916 246.041 1.68 245.641 1.536C245.241 1.384 244.793 1.308 244.297 1.308C243.873 1.308 243.505 1.372 243.193 1.5C242.889 1.628 242.649 1.816 242.473 2.064C242.305 2.304 242.221 2.584 242.221 2.904C242.221 3.288 242.337 3.592 242.569 3.816C242.809 4.04 243.197 4.204 243.733 4.308L244.981 4.572C245.789 4.74 246.385 4.996 246.769 5.34C247.161 5.676 247.357 6.136 247.357 6.72C247.357 7.184 247.229 7.6 246.973 7.968C246.725 8.328 246.365 8.608 245.893 8.808C245.429 9.008 244.877 9.108 244.237 9.108ZM250.588 9.108C250.188 9.108 249.828 9.032 249.508 8.88C249.196 8.72 248.948 8.504 248.764 8.232C248.58 7.96 248.488 7.656 248.488 7.32C248.488 6.888 248.596 6.548 248.812 6.3C249.036 6.052 249.4 5.876 249.904 5.772C250.416 5.668 251.112 5.616 251.992 5.616H252.532V6.252H252.004C251.516 6.252 251.108 6.268 250.78 6.3C250.452 6.332 250.192 6.388 250 6.468C249.808 6.548 249.672 6.652 249.592 6.78C249.512 6.908 249.472 7.068 249.472 7.26C249.472 7.588 249.584 7.856 249.808 8.064C250.04 8.272 250.352 8.376 250.744 8.376C251.064 8.376 251.344 8.3 251.584 8.148C251.832 7.996 252.024 7.788 252.16 7.524C252.304 7.26 252.376 6.956 252.376 6.612V5.244C252.376 4.748 252.276 4.392 252.076 4.176C251.876 3.952 251.548 3.84 251.092 3.84C250.74 3.84 250.4 3.892 250.072 3.996C249.744 4.092 249.408 4.252 249.064 4.476L248.728 3.768C248.936 3.624 249.172 3.5 249.436 3.396C249.7 3.284 249.976 3.2 250.264 3.144C250.552 3.088 250.828 3.06 251.092 3.06C251.596 3.06 252.012 3.144 252.34 3.312C252.668 3.472 252.912 3.72 253.072 4.056C253.232 4.384 253.312 4.808 253.312 5.328V9H252.4V7.644H252.508C252.444 7.948 252.32 8.208 252.136 8.424C251.96 8.64 251.74 8.808 251.476 8.928C251.212 9.048 250.916 9.108 250.588 9.108ZM255.427 9V3.924H254.275V3.168H255.691L255.427 3.42V2.964C255.427 2.188 255.619 1.6 256.003 1.2C256.395 0.799999 256.995 0.575999 257.803 0.528L258.271 0.504L258.355 1.248L257.803 1.284C257.475 1.308 257.207 1.38 256.999 1.5C256.791 1.62 256.639 1.792 256.543 2.016C256.447 2.24 256.399 2.516 256.399 2.844V3.348L256.255 3.168H258.079V3.924H256.399V9H255.427ZM261.575 9.108C260.959 9.108 260.427 8.988 259.979 8.748C259.539 8.5 259.195 8.152 258.947 7.704C258.707 7.256 258.587 6.72 258.587 6.096C258.587 5.488 258.707 4.96 258.947 4.512C259.187 4.056 259.515 3.7 259.931 3.444C260.355 3.188 260.843 3.06 261.395 3.06C261.923 3.06 262.375 3.176 262.751 3.408C263.127 3.64 263.415 3.968 263.615 4.392C263.823 4.816 263.927 5.324 263.927 5.916V6.288H259.331V5.652H263.279L263.087 5.808C263.087 5.168 262.943 4.672 262.655 4.32C262.375 3.96 261.963 3.78 261.419 3.78C261.011 3.78 260.663 3.876 260.375 4.068C260.095 4.252 259.883 4.512 259.739 4.848C259.595 5.176 259.523 5.56 259.523 6V6.072C259.523 6.56 259.599 6.972 259.751 7.308C259.911 7.644 260.147 7.9 260.459 8.076C260.771 8.244 261.143 8.328 261.575 8.328C261.919 8.328 262.251 8.276 262.571 8.172C262.899 8.06 263.207 7.88 263.495 7.632L263.831 8.316C263.567 8.556 263.231 8.748 262.823 8.892C262.415 9.036 261.999 9.108 261.575 9.108ZM265.682 10.368L265.226 10.02C265.37 9.868 265.478 9.724 265.55 9.588C265.63 9.46 265.682 9.328 265.706 9.192C265.738 9.064 265.754 8.932 265.754 8.796L265.97 9H265.178V7.776H266.402V8.64C266.402 8.856 266.378 9.06 266.33 9.252C266.29 9.452 266.218 9.644 266.114 9.828C266.01 10.012 265.866 10.192 265.682 10.368ZM271.278 9V0.539999H274.626C275.234 0.539999 275.746 0.64 276.162 0.84C276.586 1.032 276.906 1.32 277.122 1.704C277.338 2.08 277.446 2.54 277.446 3.084C277.446 3.612 277.338 4.068 277.122 4.452C276.906 4.836 276.586 5.128 276.162 5.328C275.746 5.528 275.234 5.628 274.626 5.628H272.262V9H271.278ZM272.262 4.8H274.506C275.154 4.8 275.642 4.656 275.97 4.368C276.306 4.072 276.474 3.644 276.474 3.084C276.474 2.516 276.306 2.088 275.97 1.8C275.642 1.504 275.154 1.356 274.506 1.356H272.262V4.8ZM281.11 9.108C280.494 9.108 279.962 8.988 279.514 8.748C279.074 8.5 278.73 8.152 278.482 7.704C278.242 7.256 278.122 6.72 278.122 6.096C278.122 5.488 278.242 4.96 278.482 4.512C278.722 4.056 279.05 3.7 279.466 3.444C279.89 3.188 280.378 3.06 280.93 3.06C281.458 3.06 281.91 3.176 282.286 3.408C282.662 3.64 282.95 3.968 283.15 4.392C283.358 4.816 283.462 5.324 283.462 5.916V6.288H278.866V5.652H282.814L282.622 5.808C282.622 5.168 282.478 4.672 282.19 4.32C281.91 3.96 281.498 3.78 280.954 3.78C280.546 3.78 280.198 3.876 279.91 4.068C279.63 4.252 279.418 4.512 279.274 4.848C279.13 5.176 279.058 5.56 279.058 6V6.072C279.058 6.56 279.134 6.972 279.286 7.308C279.446 7.644 279.682 7.9 279.994 8.076C280.306 8.244 280.678 8.328 281.11 8.328C281.454 8.328 281.786 8.276 282.106 8.172C282.434 8.06 282.742 7.88 283.03 7.632L283.366 8.316C283.102 8.556 282.766 8.748 282.358 8.892C281.95 9.036 281.534 9.108 281.11 9.108ZM284.869 9V3.168H285.817V4.548H285.697C285.833 4.076 286.069 3.72 286.405 3.48C286.741 3.232 287.185 3.088 287.737 3.048L288.085 3.012L288.157 3.852L287.545 3.924C287.001 3.972 286.581 4.148 286.285 4.452C285.997 4.748 285.853 5.156 285.853 5.676V9H284.869ZM289.798 9V3.924H288.646V3.168H290.062L289.798 3.42V2.964C289.798 2.188 289.99 1.6 290.374 1.2C290.766 0.799999 291.366 0.575999 292.174 0.528L292.642 0.504L292.726 1.248L292.174 1.284C291.846 1.308 291.578 1.38 291.37 1.5C291.162 1.62 291.01 1.792 290.914 2.016C290.818 2.24 290.77 2.516 290.77 2.844V3.348L290.626 3.168H292.45V3.924H290.77V9H289.798ZM295.946 9.108C295.33 9.108 294.798 8.988 294.35 8.748C293.91 8.5 293.566 8.152 293.318 7.704C293.078 7.256 292.958 6.72 292.958 6.096C292.958 5.488 293.078 4.96 293.318 4.512C293.558 4.056 293.886 3.7 294.302 3.444C294.726 3.188 295.214 3.06 295.766 3.06C296.294 3.06 296.746 3.176 297.122 3.408C297.498 3.64 297.786 3.968 297.986 4.392C298.194 4.816 298.298 5.324 298.298 5.916V6.288H293.702V5.652H297.65L297.458 5.808C297.458 5.168 297.314 4.672 297.026 4.32C296.746 3.96 296.334 3.78 295.79 3.78C295.382 3.78 295.034 3.876 294.746 4.068C294.466 4.252 294.254 4.512 294.11 4.848C293.966 5.176 293.894 5.56 293.894 6V6.072C293.894 6.56 293.97 6.972 294.122 7.308C294.282 7.644 294.518 7.9 294.83 8.076C295.142 8.244 295.514 8.328 295.946 8.328C296.29 8.328 296.622 8.276 296.942 8.172C297.27 8.06 297.578 7.88 297.866 7.632L298.202 8.316C297.938 8.556 297.602 8.748 297.194 8.892C296.786 9.036 296.37 9.108 295.946 9.108ZM302.177 9.108C301.593 9.108 301.089 8.98 300.665 8.724C300.241 8.468 299.913 8.112 299.681 7.656C299.457 7.192 299.345 6.656 299.345 6.048C299.345 5.432 299.457 4.9 299.681 4.452C299.913 4.004 300.241 3.66 300.665 3.42C301.089 3.18 301.593 3.06 302.177 3.06C302.537 3.06 302.893 3.124 303.245 3.252C303.597 3.38 303.889 3.56 304.121 3.792L303.785 4.5C303.553 4.276 303.297 4.112 303.017 4.008C302.745 3.904 302.485 3.852 302.237 3.852C301.629 3.852 301.161 4.044 300.833 4.428C300.505 4.804 300.341 5.348 300.341 6.06C300.341 6.756 300.505 7.308 300.833 7.716C301.161 8.116 301.629 8.316 302.237 8.316C302.485 8.316 302.745 8.264 303.017 8.16C303.297 8.056 303.553 7.888 303.785 7.656L304.121 8.364C303.889 8.596 303.593 8.78 303.233 8.916C302.881 9.044 302.529 9.108 302.177 9.108ZM307.6 9.108C306.912 9.108 306.396 8.924 306.052 8.556C305.708 8.188 305.536 7.664 305.536 6.984V3.924H304.396V3.168H305.536V1.38H306.508V3.168H308.356V3.924H306.508V6.888C306.508 7.344 306.604 7.692 306.796 7.932C306.988 8.164 307.3 8.28 307.732 8.28C307.86 8.28 307.988 8.264 308.116 8.232C308.244 8.2 308.36 8.168 308.464 8.136L308.632 8.88C308.528 8.936 308.376 8.988 308.176 9.036C307.976 9.084 307.784 9.108 307.6 9.108ZM312.669 9V0.539999H317.901V1.368H313.653V4.32H317.661V5.148H313.653V9H312.669ZM321.313 9.108C320.745 9.108 320.253 8.984 319.837 8.736C319.421 8.488 319.097 8.14 318.865 7.692C318.641 7.236 318.529 6.7 318.529 6.084C318.529 5.468 318.641 4.936 318.865 4.488C319.097 4.032 319.421 3.68 319.837 3.432C320.253 3.184 320.745 3.06 321.313 3.06C321.881 3.06 322.373 3.184 322.789 3.432C323.205 3.68 323.525 4.032 323.749 4.488C323.981 4.936 324.097 5.468 324.097 6.084C324.097 6.7 323.981 7.236 323.749 7.692C323.525 8.14 323.205 8.488 322.789 8.736C322.373 8.984 321.881 9.108 321.313 9.108ZM321.313 8.328C321.865 8.328 322.301 8.136 322.621 7.752C322.949 7.36 323.113 6.8 323.113 6.072C323.113 5.352 322.949 4.8 322.621 4.416C322.301 4.032 321.865 3.84 321.313 3.84C320.769 3.84 320.333 4.032 320.005 4.416C319.677 4.8 319.513 5.352 319.513 6.072C319.513 6.8 319.677 7.36 320.005 7.752C320.333 8.136 320.769 8.328 321.313 8.328ZM325.557 9V3.168H326.505V4.548H326.385C326.521 4.076 326.757 3.72 327.093 3.48C327.429 3.232 327.873 3.088 328.425 3.048L328.773 3.012L328.845 3.852L328.233 3.924C327.689 3.972 327.269 4.148 326.973 4.452C326.685 4.748 326.541 5.156 326.541 5.676V9H325.557ZM3.78 25.108C3.34 25.108 2.924 25.068 2.532 24.988C2.148 24.908 1.792 24.796 1.464 24.652C1.144 24.5 0.852 24.316 0.588 24.1L0.936 23.308C1.208 23.508 1.484 23.68 1.764 23.824C2.052 23.96 2.36 24.064 2.688 24.136C3.024 24.2 3.388 24.232 3.78 24.232C4.5 24.232 5.032 24.1 5.376 23.836C5.728 23.564 5.904 23.208 5.904 22.768C5.904 22.536 5.848 22.336 5.736 22.168C5.632 22 5.456 21.856 5.208 21.736C4.968 21.616 4.652 21.516 4.26 21.436L3.012 21.184C2.26 21.024 1.696 20.764 1.32 20.404C0.952 20.036 0.768 19.548 0.768 18.94C0.768 18.436 0.896 17.996 1.152 17.62C1.416 17.244 1.78 16.952 2.244 16.744C2.716 16.536 3.252 16.432 3.852 16.432C4.236 16.432 4.6 16.472 4.944 16.552C5.288 16.632 5.604 16.752 5.892 16.912C6.188 17.064 6.448 17.252 6.672 17.476L6.324 18.244C5.964 17.916 5.584 17.68 5.184 17.536C4.784 17.384 4.336 17.308 3.84 17.308C3.416 17.308 3.048 17.372 2.736 17.5C2.432 17.628 2.192 17.816 2.016 18.064C1.848 18.304 1.764 18.584 1.764 18.904C1.764 19.288 1.88 19.592 2.112 19.816C2.352 20.04 2.74 20.204 3.276 20.308L4.524 20.572C5.332 20.74 5.928 20.996 6.312 21.34C6.704 21.676 6.9 22.136 6.9 22.72C6.9 23.184 6.772 23.6 6.516 23.968C6.268 24.328 5.908 24.608 5.436 24.808C4.972 25.008 4.42 25.108 3.78 25.108ZM10.9228 25.108C10.3068 25.108 9.77481 24.988 9.32681 24.748C8.88681 24.5 8.54281 24.152 8.29481 23.704C8.05481 23.256 7.93481 22.72 7.93481 22.096C7.93481 21.488 8.05481 20.96 8.29481 20.512C8.53481 20.056 8.86281 19.7 9.27881 19.444C9.70281 19.188 10.1908 19.06 10.7428 19.06C11.2708 19.06 11.7228 19.176 12.0988 19.408C12.4748 19.64 12.7628 19.968 12.9628 20.392C13.1708 20.816 13.2748 21.324 13.2748 21.916V22.288H8.67881V21.652H12.6268L12.4348 21.808C12.4348 21.168 12.2908 20.672 12.0028 20.32C11.7228 19.96 11.3108 19.78 10.7668 19.78C10.3588 19.78 10.0108 19.876 9.72281 20.068C9.44281 20.252 9.23081 20.512 9.08681 20.848C8.94281 21.176 8.87081 21.56 8.87081 22V22.072C8.87081 22.56 8.94681 22.972 9.09881 23.308C9.25881 23.644 9.49481 23.9 9.80681 24.076C10.1188 24.244 10.4908 24.328 10.9228 24.328C11.2668 24.328 11.5988 24.276 11.9188 24.172C12.2468 24.06 12.5548 23.88 12.8428 23.632L13.1788 24.316C12.9148 24.556 12.5788 24.748 12.1708 24.892C11.7628 25.036 11.3468 25.108 10.9228 25.108ZM14.6815 25V19.168H15.6295V20.548H15.5095C15.6455 20.076 15.8815 19.72 16.2175 19.48C16.5535 19.232 16.9975 19.088 17.5495 19.048L17.8975 19.012L17.9695 19.852L17.3575 19.924C16.8135 19.972 16.3935 20.148 16.0975 20.452C15.8095 20.748 15.6655 21.156 15.6655 21.676V25H14.6815ZM21.0616 25L18.5536 19.168H19.6096L21.6976 24.28H21.3736L23.4976 19.168H24.4936L21.9736 25H21.0616ZM25.4014 17.716V16.624H26.6014V17.716H25.4014ZM25.5214 25V19.168H26.4934V25H25.5214ZM28.3104 25V19.168H29.2584V20.464H29.1264C29.2944 20 29.5664 19.652 29.9424 19.42C30.3264 19.18 30.7664 19.06 31.2624 19.06C31.7264 19.06 32.1104 19.144 32.4144 19.312C32.7264 19.472 32.9584 19.724 33.1104 20.068C33.2624 20.412 33.3384 20.844 33.3384 21.364V25H32.3664V21.424C32.3664 21.064 32.3184 20.768 32.2224 20.536C32.1344 20.304 31.9904 20.132 31.7904 20.02C31.5984 19.908 31.3464 19.852 31.0344 19.852C30.6824 19.852 30.3744 19.928 30.1104 20.08C29.8464 20.232 29.6424 20.444 29.4984 20.716C29.3544 20.988 29.2824 21.308 29.2824 21.676V25H28.3104ZM37.7108 27.268C37.2068 27.268 36.7308 27.2 36.2828 27.064C35.8428 26.936 35.4508 26.74 35.1068 26.476L35.4308 25.768C35.6708 25.936 35.9068 26.072 36.1388 26.176C36.3788 26.288 36.6228 26.368 36.8708 26.416C37.1268 26.464 37.3908 26.488 37.6628 26.488C38.2308 26.488 38.6588 26.336 38.9468 26.032C39.2428 25.728 39.3908 25.288 39.3908 24.712V23.356H39.5108C39.3908 23.82 39.1348 24.188 38.7428 24.46C38.3588 24.732 37.9068 24.868 37.3867 24.868C36.8508 24.868 36.3868 24.748 35.9948 24.508C35.6028 24.26 35.2988 23.916 35.0828 23.476C34.8748 23.036 34.7708 22.528 34.7708 21.952C34.7708 21.376 34.8748 20.872 35.0828 20.44C35.2988 20 35.6028 19.66 35.9948 19.42C36.3868 19.18 36.8508 19.06 37.3867 19.06C37.9148 19.06 38.3708 19.196 38.7548 19.468C39.1388 19.732 39.3868 20.092 39.4988 20.548H39.3908V19.168H40.3388V24.58C40.3388 25.172 40.2388 25.668 40.0388 26.068C39.8468 26.468 39.5548 26.768 39.1628 26.968C38.7708 27.168 38.2868 27.268 37.7108 27.268ZM37.5668 24.076C38.1268 24.076 38.5708 23.884 38.8988 23.5C39.2268 23.116 39.3908 22.6 39.3908 21.952C39.3908 21.304 39.2268 20.792 38.8988 20.416C38.5708 20.032 38.1268 19.84 37.5668 19.84C37.0148 19.84 36.5748 20.032 36.2468 20.416C35.9188 20.792 35.7548 21.304 35.7548 21.952C35.7548 22.6 35.9188 23.116 36.2468 23.5C36.5748 23.884 37.0148 24.076 37.5668 24.076ZM48.928 25.108C48.344 25.108 47.812 25.008 47.332 24.808C46.852 24.6 46.444 24.308 46.108 23.932C45.772 23.556 45.512 23.1 45.328 22.564C45.152 22.028 45.064 21.428 45.064 20.764C45.064 20.092 45.152 19.492 45.328 18.964C45.512 18.428 45.772 17.976 46.108 17.608C46.444 17.232 46.848 16.944 47.32 16.744C47.8 16.536 48.336 16.432 48.928 16.432C49.528 16.432 50.064 16.532 50.536 16.732C51.016 16.932 51.424 17.22 51.76 17.596C52.104 17.972 52.364 18.428 52.54 18.964C52.724 19.492 52.816 20.088 52.816 20.752C52.816 21.424 52.724 22.028 52.54 22.564C52.356 23.1 52.096 23.556 51.76 23.932C51.424 24.308 51.016 24.6 50.536 24.808C50.064 25.008 49.528 25.108 48.928 25.108ZM48.928 24.232C49.536 24.232 50.048 24.096 50.464 23.824C50.888 23.552 51.212 23.156 51.436 22.636C51.66 22.116 51.772 21.492 51.772 20.764C51.772 20.028 51.66 19.404 51.436 18.892C51.212 18.38 50.888 17.988 50.464 17.716C50.048 17.444 49.536 17.308 48.928 17.308C48.336 17.308 47.828 17.444 47.404 17.716C46.988 17.988 46.668 18.384 46.444 18.904C46.22 19.416 46.108 20.036 46.108 20.764C46.108 21.492 46.22 22.116 46.444 22.636C46.668 23.148 46.988 23.544 47.404 23.824C47.828 24.096 48.336 24.232 48.928 24.232ZM54.4433 25V19.168H55.3913V20.548H55.2713C55.4073 20.076 55.6433 19.72 55.9793 19.48C56.3153 19.232 56.7593 19.088 57.3113 19.048L57.6593 19.012L57.7313 19.852L57.1193 19.924C56.5753 19.972 56.1553 20.148 55.8593 20.452C55.5713 20.748 55.4273 21.156 55.4273 21.676V25H54.4433ZM64.6941 25.108C64.2541 25.108 63.8381 25.068 63.4461 24.988C63.0621 24.908 62.7061 24.796 62.3781 24.652C62.0581 24.5 61.7661 24.316 61.5021 24.1L61.8501 23.308C62.1221 23.508 62.3981 23.68 62.6781 23.824C62.9661 23.96 63.2741 24.064 63.6021 24.136C63.9381 24.2 64.3021 24.232 64.6941 24.232C65.4141 24.232 65.9461 24.1 66.2901 23.836C66.6421 23.564 66.8181 23.208 66.8181 22.768C66.8181 22.536 66.7621 22.336 66.6501 22.168C66.5461 22 66.3701 21.856 66.1221 21.736C65.8821 21.616 65.5661 21.516 65.1741 21.436L63.9261 21.184C63.1741 21.024 62.6101 20.764 62.2341 20.404C61.8661 20.036 61.6821 19.548 61.6821 18.94C61.6821 18.436 61.8101 17.996 62.0661 17.62C62.3301 17.244 62.6941 16.952 63.1581 16.744C63.6301 16.536 64.1661 16.432 64.7661 16.432C65.1501 16.432 65.5141 16.472 65.8581 16.552C66.2021 16.632 66.5181 16.752 66.8061 16.912C67.1021 17.064 67.3621 17.252 67.5861 17.476L67.2381 18.244C66.8781 17.916 66.4981 17.68 66.0981 17.536C65.6981 17.384 65.2501 17.308 64.7541 17.308C64.3301 17.308 63.9621 17.372 63.6501 17.5C63.3461 17.628 63.1061 17.816 62.9301 18.064C62.7621 18.304 62.6781 18.584 62.6781 18.904C62.6781 19.288 62.7941 19.592 63.0261 19.816C63.2661 20.04 63.6541 20.204 64.1901 20.308L65.4381 20.572C66.2461 20.74 66.8421 20.996 67.2261 21.34C67.6181 21.676 67.8141 22.136 67.8141 22.72C67.8141 23.184 67.6861 23.6 67.4301 23.968C67.1821 24.328 66.8221 24.608 66.3501 24.808C65.8861 25.008 65.3341 25.108 64.6941 25.108ZM71.5254 25.108C70.8374 25.108 70.3214 24.924 69.9774 24.556C69.6334 24.188 69.4614 23.664 69.4614 22.984V19.924H68.3214V19.168H69.4614V17.38H70.4334V19.168H72.2814V19.924H70.4334V22.888C70.4334 23.344 70.5294 23.692 70.7214 23.932C70.9134 24.164 71.2254 24.28 71.6574 24.28C71.7854 24.28 71.9134 24.264 72.0414 24.232C72.1694 24.2 72.2854 24.168 72.3894 24.136L72.5574 24.88C72.4534 24.936 72.3014 24.988 72.1014 25.036C71.9014 25.084 71.7094 25.108 71.5254 25.108ZM75.7462 25.108C75.1782 25.108 74.6862 24.984 74.2702 24.736C73.8542 24.488 73.5302 24.14 73.2982 23.692C73.0742 23.236 72.9622 22.7 72.9622 22.084C72.9622 21.468 73.0742 20.936 73.2982 20.488C73.5302 20.032 73.8542 19.68 74.2702 19.432C74.6862 19.184 75.1782 19.06 75.7462 19.06C76.3142 19.06 76.8062 19.184 77.2222 19.432C77.6382 19.68 77.9582 20.032 78.1822 20.488C78.4142 20.936 78.5302 21.468 78.5302 22.084C78.5302 22.7 78.4142 23.236 78.1822 23.692C77.9582 24.14 77.6382 24.488 77.2222 24.736C76.8062 24.984 76.3142 25.108 75.7462 25.108ZM75.7462 24.328C76.2982 24.328 76.7342 24.136 77.0542 23.752C77.3822 23.36 77.5462 22.8 77.5462 22.072C77.5462 21.352 77.3822 20.8 77.0542 20.416C76.7342 20.032 76.2982 19.84 75.7462 19.84C75.2022 19.84 74.7662 20.032 74.4382 20.416C74.1102 20.8 73.9462 21.352 73.9462 22.072C73.9462 22.8 74.1102 23.36 74.4382 23.752C74.7662 24.136 75.2022 24.328 75.7462 24.328ZM79.9901 25V19.168H80.9381V20.548H80.8181C80.9541 20.076 81.1901 19.72 81.5261 19.48C81.8621 19.232 82.3061 19.088 82.8581 19.048L83.2061 19.012L83.2781 19.852L82.6661 19.924C82.1221 19.972 81.7021 20.148 81.4061 20.452C81.1181 20.748 80.9741 21.156 80.9741 21.676V25H79.9901ZM84.1709 17.716V16.624H85.3709V17.716H84.1709ZM84.2909 25V19.168H85.2629V25H84.2909ZM87.08 25V19.168H88.028V20.464H87.896C88.064 20 88.336 19.652 88.712 19.42C89.096 19.18 89.536 19.06 90.032 19.06C90.496 19.06 90.88 19.144 91.184 19.312C91.496 19.472 91.728 19.724 91.88 20.068C92.032 20.412 92.108 20.844 92.108 21.364V25H91.136V21.424C91.136 21.064 91.088 20.768 90.992 20.536C90.904 20.304 90.76 20.132 90.56 20.02C90.368 19.908 90.116 19.852 89.804 19.852C89.452 19.852 89.144 19.928 88.88 20.08C88.616 20.232 88.412 20.444 88.268 20.716C88.124 20.988 88.052 21.308 88.052 21.676V25H87.08ZM96.4803 27.268C95.9763 27.268 95.5003 27.2 95.0523 27.064C94.6123 26.936 94.2203 26.74 93.8763 26.476L94.2003 25.768C94.4403 25.936 94.6763 26.072 94.9083 26.176C95.1483 26.288 95.3923 26.368 95.6403 26.416C95.8963 26.464 96.1603 26.488 96.4323 26.488C97.0003 26.488 97.4283 26.336 97.7163 26.032C98.0123 25.728 98.1603 25.288 98.1603 24.712V23.356H98.2803C98.1603 23.82 97.9043 24.188 97.5123 24.46C97.1283 24.732 96.6763 24.868 96.1563 24.868C95.6203 24.868 95.1563 24.748 94.7643 24.508C94.3723 24.26 94.0683 23.916 93.8523 23.476C93.6443 23.036 93.5403 22.528 93.5403 21.952C93.5403 21.376 93.6443 20.872 93.8523 20.44C94.0683 20 94.3723 19.66 94.7643 19.42C95.1563 19.18 95.6203 19.06 96.1563 19.06C96.6843 19.06 97.1403 19.196 97.5243 19.468C97.9083 19.732 98.1563 20.092 98.2683 20.548H98.1603V19.168H99.1083V24.58C99.1083 25.172 99.0083 25.668 98.8083 26.068C98.6163 26.468 98.3243 26.768 97.9323 26.968C97.5403 27.168 97.0563 27.268 96.4803 27.268ZM96.3363 24.076C96.8963 24.076 97.3403 23.884 97.6683 23.5C97.9963 23.116 98.1603 22.6 98.1603 21.952C98.1603 21.304 97.9963 20.792 97.6683 20.416C97.3403 20.032 96.8963 19.84 96.3363 19.84C95.7843 19.84 95.3443 20.032 95.0163 20.416C94.6883 20.792 94.5243 21.304 94.5243 21.952C94.5243 22.6 94.6883 23.116 95.0163 23.5C95.3443 23.884 95.7843 24.076 96.3363 24.076ZM106.882 25.108C106.442 25.108 106.026 25.068 105.634 24.988C105.25 24.908 104.894 24.796 104.566 24.652C104.246 24.5 103.954 24.316 103.69 24.1L104.038 23.308C104.31 23.508 104.586 23.68 104.866 23.824C105.154 23.96 105.462 24.064 105.79 24.136C106.126 24.2 106.49 24.232 106.882 24.232C107.602 24.232 108.134 24.1 108.478 23.836C108.83 23.564 109.006 23.208 109.006 22.768C109.006 22.536 108.95 22.336 108.838 22.168C108.734 22 108.558 21.856 108.31 21.736C108.07 21.616 107.754 21.516 107.362 21.436L106.114 21.184C105.362 21.024 104.798 20.764 104.422 20.404C104.054 20.036 103.87 19.548 103.87 18.94C103.87 18.436 103.998 17.996 104.254 17.62C104.518 17.244 104.882 16.952 105.346 16.744C105.818 16.536 106.354 16.432 106.954 16.432C107.338 16.432 107.702 16.472 108.046 16.552C108.39 16.632 108.706 16.752 108.994 16.912C109.29 17.064 109.55 17.252 109.774 17.476L109.426 18.244C109.066 17.916 108.686 17.68 108.286 17.536C107.886 17.384 107.438 17.308 106.942 17.308C106.518 17.308 106.15 17.372 105.838 17.5C105.534 17.628 105.294 17.816 105.118 18.064C104.95 18.304 104.866 18.584 104.866 18.904C104.866 19.288 104.982 19.592 105.214 19.816C105.454 20.04 105.842 20.204 106.378 20.308L107.626 20.572C108.434 20.74 109.03 20.996 109.414 21.34C109.806 21.676 110.002 22.136 110.002 22.72C110.002 23.184 109.874 23.6 109.618 23.968C109.37 24.328 109.01 24.608 108.538 24.808C108.074 25.008 107.522 25.108 106.882 25.108ZM111.396 25V19.168H112.344V20.464H112.212C112.38 20 112.652 19.652 113.028 19.42C113.412 19.18 113.852 19.06 114.348 19.06C114.812 19.06 115.196 19.144 115.5 19.312C115.812 19.472 116.044 19.724 116.196 20.068C116.348 20.412 116.424 20.844 116.424 21.364V25H115.452V21.424C115.452 21.064 115.404 20.768 115.308 20.536C115.22 20.304 115.076 20.132 114.876 20.02C114.684 19.908 114.432 19.852 114.12 19.852C113.768 19.852 113.46 19.928 113.196 20.08C112.932 20.232 112.728 20.444 112.584 20.716C112.44 20.988 112.368 21.308 112.368 21.676V25H111.396ZM120.053 25.108C119.653 25.108 119.293 25.032 118.973 24.88C118.661 24.72 118.413 24.504 118.229 24.232C118.045 23.96 117.953 23.656 117.953 23.32C117.953 22.888 118.061 22.548 118.277 22.3C118.501 22.052 118.865 21.876 119.369 21.772C119.881 21.668 120.577 21.616 121.457 21.616H121.997V22.252H121.469C120.981 22.252 120.573 22.268 120.245 22.3C119.917 22.332 119.657 22.388 119.465 22.468C119.273 22.548 119.137 22.652 119.057 22.78C118.977 22.908 118.937 23.068 118.937 23.26C118.937 23.588 119.049 23.856 119.273 24.064C119.505 24.272 119.817 24.376 120.209 24.376C120.529 24.376 120.809 24.3 121.049 24.148C121.297 23.996 121.489 23.788 121.625 23.524C121.769 23.26 121.841 22.956 121.841 22.612V21.244C121.841 20.748 121.741 20.392 121.541 20.176C121.341 19.952 121.013 19.84 120.557 19.84C120.205 19.84 119.865 19.892 119.537 19.996C119.209 20.092 118.873 20.252 118.529 20.476L118.193 19.768C118.401 19.624 118.637 19.5 118.901 19.396C119.165 19.284 119.441 19.2 119.729 19.144C120.017 19.088 120.293 19.06 120.557 19.06C121.061 19.06 121.477 19.144 121.805 19.312C122.133 19.472 122.377 19.72 122.537 20.056C122.697 20.384 122.777 20.808 122.777 21.328V25H121.865V23.644H121.973C121.909 23.948 121.785 24.208 121.601 24.424C121.425 24.64 121.205 24.808 120.941 24.928C120.677 25.048 120.381 25.108 120.053 25.108ZM127.052 25.108C126.468 25.108 125.964 24.98 125.54 24.724C125.116 24.468 124.788 24.112 124.556 23.656C124.332 23.192 124.22 22.656 124.22 22.048C124.22 21.432 124.332 20.9 124.556 20.452C124.788 20.004 125.116 19.66 125.54 19.42C125.964 19.18 126.468 19.06 127.052 19.06C127.412 19.06 127.768 19.124 128.12 19.252C128.472 19.38 128.764 19.56 128.996 19.792L128.66 20.5C128.428 20.276 128.172 20.112 127.892 20.008C127.62 19.904 127.36 19.852 127.112 19.852C126.504 19.852 126.036 20.044 125.708 20.428C125.38 20.804 125.216 21.348 125.216 22.06C125.216 22.756 125.38 23.308 125.708 23.716C126.036 24.116 126.504 24.316 127.112 24.316C127.36 24.316 127.62 24.264 127.892 24.16C128.172 24.056 128.428 23.888 128.66 23.656L128.996 24.364C128.764 24.596 128.468 24.78 128.108 24.916C127.756 25.044 127.404 25.108 127.052 25.108ZM130.135 25V16.54H131.107V21.76H131.131L133.831 19.168H135.067L131.863 22.24V21.712L135.319 25H134.083L131.131 22.264H131.107V25H130.135ZM137.997 25.108C137.693 25.108 137.397 25.076 137.109 25.012C136.829 24.956 136.565 24.876 136.317 24.772C136.077 24.66 135.869 24.528 135.693 24.376L136.005 23.692C136.197 23.844 136.405 23.972 136.629 24.076C136.853 24.172 137.081 24.244 137.313 24.292C137.545 24.34 137.781 24.364 138.021 24.364C138.477 24.364 138.821 24.28 139.053 24.112C139.285 23.944 139.401 23.716 139.401 23.428C139.401 23.204 139.325 23.028 139.173 22.9C139.021 22.764 138.781 22.66 138.453 22.588L137.361 22.348C136.857 22.244 136.481 22.064 136.233 21.808C135.993 21.552 135.873 21.22 135.873 20.812C135.873 20.452 135.965 20.144 136.149 19.888C136.341 19.624 136.609 19.42 136.953 19.276C137.297 19.132 137.697 19.06 138.153 19.06C138.425 19.06 138.685 19.088 138.933 19.144C139.181 19.2 139.413 19.284 139.629 19.396C139.853 19.5 140.045 19.632 140.205 19.792L139.881 20.476C139.729 20.332 139.557 20.212 139.365 20.116C139.173 20.012 138.973 19.936 138.765 19.888C138.565 19.832 138.361 19.804 138.153 19.804C137.705 19.804 137.365 19.892 137.133 20.068C136.901 20.244 136.785 20.476 136.785 20.764C136.785 20.988 136.857 21.172 137.001 21.316C137.145 21.46 137.369 21.564 137.673 21.628L138.765 21.856C139.285 21.968 139.673 22.148 139.929 22.396C140.193 22.636 140.325 22.964 140.325 23.38C140.325 23.732 140.229 24.04 140.037 24.304C139.845 24.56 139.573 24.76 139.221 24.904C138.877 25.04 138.469 25.108 137.997 25.108ZM142.096 26.368L141.64 26.02C141.784 25.868 141.892 25.724 141.964 25.588C142.044 25.46 142.096 25.328 142.12 25.192C142.152 25.064 142.168 24.932 142.168 24.796L142.384 25H141.592V23.776H142.816V24.64C142.816 24.856 142.792 25.06 142.744 25.252C142.704 25.452 142.632 25.644 142.528 25.828C142.424 26.012 142.28 26.192 142.096 26.368ZM147.692 25V16.54H150.548C151.468 16.54 152.244 16.704 152.876 17.032C153.516 17.352 154 17.828 154.328 18.46C154.664 19.084 154.832 19.852 154.832 20.764C154.832 21.676 154.664 22.448 154.328 23.08C154 23.712 153.516 24.192 152.876 24.52C152.244 24.84 151.468 25 150.548 25H147.692ZM148.676 24.16H150.476C151.588 24.16 152.416 23.876 152.96 23.308C153.512 22.74 153.788 21.892 153.788 20.764C153.788 19.636 153.512 18.792 152.96 18.232C152.408 17.664 151.58 17.38 150.476 17.38H148.676V24.16ZM159.095 25.108C158.479 25.108 157.947 24.988 157.499 24.748C157.059 24.5 156.715 24.152 156.467 23.704C156.227 23.256 156.107 22.72 156.107 22.096C156.107 21.488 156.227 20.96 156.467 20.512C156.707 20.056 157.035 19.7 157.451 19.444C157.875 19.188 158.363 19.06 158.915 19.06C159.443 19.06 159.895 19.176 160.271 19.408C160.647 19.64 160.935 19.968 161.135 20.392C161.343 20.816 161.447 21.324 161.447 21.916V22.288H156.851V21.652H160.799L160.607 21.808C160.607 21.168 160.463 20.672 160.175 20.32C159.895 19.96 159.483 19.78 158.939 19.78C158.531 19.78 158.183 19.876 157.895 20.068C157.615 20.252 157.403 20.512 157.259 20.848C157.115 21.176 157.043 21.56 157.043 22V22.072C157.043 22.56 157.119 22.972 157.271 23.308C157.431 23.644 157.667 23.9 157.979 24.076C158.291 24.244 158.663 24.328 159.095 24.328C159.439 24.328 159.771 24.276 160.091 24.172C160.419 24.06 160.727 23.88 161.015 23.632L161.351 24.316C161.087 24.556 160.751 24.748 160.343 24.892C159.935 25.036 159.519 25.108 159.095 25.108ZM164.821 25.108C164.517 25.108 164.221 25.076 163.933 25.012C163.653 24.956 163.389 24.876 163.141 24.772C162.901 24.66 162.693 24.528 162.517 24.376L162.829 23.692C163.021 23.844 163.229 23.972 163.453 24.076C163.677 24.172 163.905 24.244 164.137 24.292C164.369 24.34 164.605 24.364 164.845 24.364C165.301 24.364 165.645 24.28 165.877 24.112C166.109 23.944 166.225 23.716 166.225 23.428C166.225 23.204 166.149 23.028 165.997 22.9C165.845 22.764 165.605 22.66 165.277 22.588L164.185 22.348C163.681 22.244 163.305 22.064 163.057 21.808C162.817 21.552 162.697 21.22 162.697 20.812C162.697 20.452 162.789 20.144 162.973 19.888C163.165 19.624 163.433 19.42 163.777 19.276C164.121 19.132 164.521 19.06 164.977 19.06C165.249 19.06 165.509 19.088 165.757 19.144C166.005 19.2 166.237 19.284 166.453 19.396C166.677 19.5 166.869 19.632 167.029 19.792L166.705 20.476C166.553 20.332 166.381 20.212 166.189 20.116C165.997 20.012 165.797 19.936 165.589 19.888C165.389 19.832 165.185 19.804 164.977 19.804C164.529 19.804 164.189 19.892 163.957 20.068C163.725 20.244 163.609 20.476 163.609 20.764C163.609 20.988 163.681 21.172 163.825 21.316C163.969 21.46 164.193 21.564 164.497 21.628L165.589 21.856C166.109 21.968 166.497 22.148 166.753 22.396C167.017 22.636 167.149 22.964 167.149 23.38C167.149 23.732 167.053 24.04 166.861 24.304C166.669 24.56 166.397 24.76 166.045 24.904C165.701 25.04 165.293 25.108 164.821 25.108ZM170.599 25.108C170.295 25.108 169.999 25.076 169.711 25.012C169.431 24.956 169.167 24.876 168.919 24.772C168.679 24.66 168.471 24.528 168.295 24.376L168.607 23.692C168.799 23.844 169.007 23.972 169.231 24.076C169.455 24.172 169.683 24.244 169.915 24.292C170.147 24.34 170.383 24.364 170.623 24.364C171.079 24.364 171.423 24.28 171.655 24.112C171.887 23.944 172.003 23.716 172.003 23.428C172.003 23.204 171.927 23.028 171.775 22.9C171.623 22.764 171.383 22.66 171.055 22.588L169.963 22.348C169.459 22.244 169.083 22.064 168.835 21.808C168.595 21.552 168.475 21.22 168.475 20.812C168.475 20.452 168.567 20.144 168.751 19.888C168.943 19.624 169.211 19.42 169.555 19.276C169.899 19.132 170.299 19.06 170.755 19.06C171.027 19.06 171.287 19.088 171.535 19.144C171.783 19.2 172.015 19.284 172.231 19.396C172.455 19.5 172.647 19.632 172.807 19.792L172.483 20.476C172.331 20.332 172.159 20.212 171.967 20.116C171.775 20.012 171.575 19.936 171.367 19.888C171.167 19.832 170.963 19.804 170.755 19.804C170.307 19.804 169.967 19.892 169.735 20.068C169.503 20.244 169.387 20.476 169.387 20.764C169.387 20.988 169.459 21.172 169.603 21.316C169.747 21.46 169.971 21.564 170.275 21.628L171.367 21.856C171.887 21.968 172.275 22.148 172.531 22.396C172.795 22.636 172.927 22.964 172.927 23.38C172.927 23.732 172.831 24.04 172.639 24.304C172.447 24.56 172.175 24.76 171.823 24.904C171.479 25.04 171.071 25.108 170.599 25.108ZM177.036 25.108C176.42 25.108 175.888 24.988 175.44 24.748C175 24.5 174.656 24.152 174.408 23.704C174.168 23.256 174.048 22.72 174.048 22.096C174.048 21.488 174.168 20.96 174.408 20.512C174.648 20.056 174.976 19.7 175.392 19.444C175.816 19.188 176.304 19.06 176.856 19.06C177.384 19.06 177.836 19.176 178.212 19.408C178.588 19.64 178.876 19.968 179.076 20.392C179.284 20.816 179.388 21.324 179.388 21.916V22.288H174.792V21.652H178.74L178.548 21.808C178.548 21.168 178.404 20.672 178.116 20.32C177.836 19.96 177.424 19.78 176.88 19.78C176.472 19.78 176.124 19.876 175.836 20.068C175.556 20.252 175.344 20.512 175.2 20.848C175.056 21.176 174.984 21.56 174.984 22V22.072C174.984 22.56 175.06 22.972 175.212 23.308C175.372 23.644 175.608 23.9 175.92 24.076C176.232 24.244 176.604 24.328 177.036 24.328C177.38 24.328 177.712 24.276 178.032 24.172C178.36 24.06 178.668 23.88 178.956 23.632L179.292 24.316C179.028 24.556 178.692 24.748 178.284 24.892C177.876 25.036 177.46 25.108 177.036 25.108ZM180.795 25V19.168H181.743V20.548H181.623C181.759 20.076 181.995 19.72 182.331 19.48C182.667 19.232 183.111 19.088 183.663 19.048L184.011 19.012L184.083 19.852L183.471 19.924C182.927 19.972 182.507 20.148 182.211 20.452C181.923 20.748 181.779 21.156 181.779 21.676V25H180.795ZM187.752 25.108C187.064 25.108 186.548 24.924 186.204 24.556C185.86 24.188 185.688 23.664 185.688 22.984V19.924H184.548V19.168H185.688V17.38H186.66V19.168H188.508V19.924H186.66V22.888C186.66 23.344 186.756 23.692 186.948 23.932C187.14 24.164 187.452 24.28 187.884 24.28C188.012 24.28 188.14 24.264 188.268 24.232C188.396 24.2 188.512 24.168 188.616 24.136L188.784 24.88C188.68 24.936 188.528 24.988 188.328 25.036C188.128 25.084 187.936 25.108 187.752 25.108ZM191.575 25.108C191.271 25.108 190.975 25.076 190.687 25.012C190.407 24.956 190.143 24.876 189.895 24.772C189.655 24.66 189.447 24.528 189.271 24.376L189.583 23.692C189.775 23.844 189.983 23.972 190.207 24.076C190.431 24.172 190.659 24.244 190.891 24.292C191.123 24.34 191.359 24.364 191.599 24.364C192.055 24.364 192.399 24.28 192.631 24.112C192.863 23.944 192.979 23.716 192.979 23.428C192.979 23.204 192.903 23.028 192.751 22.9C192.599 22.764 192.359 22.66 192.031 22.588L190.939 22.348C190.435 22.244 190.059 22.064 189.811 21.808C189.571 21.552 189.451 21.22 189.451 20.812C189.451 20.452 189.543 20.144 189.727 19.888C189.919 19.624 190.187 19.42 190.531 19.276C190.875 19.132 191.275 19.06 191.731 19.06C192.003 19.06 192.263 19.088 192.511 19.144C192.759 19.2 192.991 19.284 193.207 19.396C193.431 19.5 193.623 19.632 193.783 19.792L193.459 20.476C193.307 20.332 193.135 20.212 192.943 20.116C192.751 20.012 192.551 19.936 192.343 19.888C192.143 19.832 191.939 19.804 191.731 19.804C191.283 19.804 190.943 19.892 190.711 20.068C190.479 20.244 190.363 20.476 190.363 20.764C190.363 20.988 190.435 21.172 190.579 21.316C190.723 21.46 190.947 21.564 191.251 21.628L192.343 21.856C192.863 21.968 193.251 22.148 193.507 22.396C193.771 22.636 193.903 22.964 193.903 23.38C193.903 23.732 193.807 24.04 193.615 24.304C193.423 24.56 193.151 24.76 192.799 24.904C192.455 25.04 192.047 25.108 191.575 25.108ZM195.674 26.368L195.218 26.02C195.362 25.868 195.47 25.724 195.542 25.588C195.622 25.46 195.674 25.328 195.698 25.192C195.73 25.064 195.746 24.932 195.746 24.796L195.962 25H195.17V23.776H196.394V24.64C196.394 24.856 196.37 25.06 196.322 25.252C196.282 25.452 196.21 25.644 196.106 25.828C196.002 26.012 195.858 26.192 195.674 26.368ZM200.455 25L204.187 16.54H205.027L208.759 25H207.739L206.695 22.588L207.175 22.84H202.015L202.507 22.588L201.475 25H200.455ZM204.595 17.692L202.663 22.24L202.375 22.012H206.815L206.551 22.24L204.619 17.692H204.595ZM209.881 25V19.168H210.829V20.464H210.697C210.865 20 211.137 19.652 211.513 19.42C211.897 19.18 212.337 19.06 212.833 19.06C213.297 19.06 213.681 19.144 213.985 19.312C214.297 19.472 214.529 19.724 214.681 20.068C214.833 20.412 214.909 20.844 214.909 21.364V25H213.937V21.424C213.937 21.064 213.889 20.768 213.793 20.536C213.705 20.304 213.561 20.132 213.361 20.02C213.169 19.908 212.917 19.852 212.605 19.852C212.253 19.852 211.945 19.928 211.681 20.08C211.417 20.232 211.213 20.444 211.069 20.716C210.925 20.988 210.853 21.308 210.853 21.676V25H209.881ZM218.921 25.108C218.401 25.108 217.945 24.984 217.553 24.736C217.169 24.488 216.869 24.14 216.653 23.692C216.445 23.236 216.341 22.7 216.341 22.084C216.341 21.46 216.445 20.924 216.653 20.476C216.869 20.02 217.169 19.672 217.553 19.432C217.945 19.184 218.401 19.06 218.921 19.06C219.449 19.06 219.901 19.192 220.277 19.456C220.653 19.72 220.905 20.076 221.033 20.524H220.901V16.54H221.873V25H220.925V23.608H221.045C220.917 24.064 220.661 24.428 220.277 24.7C219.901 24.972 219.449 25.108 218.921 25.108ZM219.125 24.328C219.677 24.328 220.113 24.136 220.433 23.752C220.761 23.36 220.925 22.804 220.925 22.084C220.925 21.356 220.761 20.8 220.433 20.416C220.113 20.032 219.677 19.84 219.125 19.84C218.581 19.84 218.145 20.032 217.817 20.416C217.489 20.8 217.325 21.356 217.325 22.084C217.325 22.804 217.489 23.36 217.817 23.752C218.145 24.136 218.581 24.328 219.125 24.328ZM226.911 25V16.54H230.295C231.159 16.54 231.831 16.732 232.311 17.116C232.791 17.5 233.031 18.044 233.031 18.748C233.031 19.276 232.875 19.716 232.563 20.068C232.259 20.42 231.843 20.652 231.315 20.764V20.596C231.715 20.644 232.059 20.76 232.347 20.944C232.635 21.12 232.855 21.356 233.007 21.652C233.159 21.94 233.235 22.28 233.235 22.672C233.235 23.176 233.123 23.604 232.899 23.956C232.683 24.3 232.367 24.56 231.951 24.736C231.535 24.912 231.031 25 230.439 25H226.911ZM227.871 24.208H230.343C230.599 24.208 230.827 24.188 231.027 24.148C231.235 24.108 231.415 24.048 231.567 23.968C231.719 23.88 231.847 23.776 231.951 23.656C232.055 23.536 232.131 23.392 232.179 23.224C232.235 23.056 232.263 22.868 232.263 22.66C232.263 22.444 232.235 22.256 232.179 22.096C232.131 21.928 232.055 21.784 231.951 21.664C231.847 21.536 231.719 21.432 231.567 21.352C231.415 21.272 231.235 21.212 231.027 21.172C230.827 21.132 230.599 21.112 230.343 21.112H227.871V24.208ZM227.871 20.32H230.151C230.775 20.32 231.247 20.192 231.567 19.936C231.895 19.68 232.059 19.312 232.059 18.832C232.059 18.336 231.895 17.964 231.567 17.716C231.247 17.46 230.775 17.332 230.151 17.332H227.871V20.32ZM237.517 25.108C236.901 25.108 236.369 24.988 235.921 24.748C235.481 24.5 235.137 24.152 234.889 23.704C234.649 23.256 234.529 22.72 234.529 22.096C234.529 21.488 234.649 20.96 234.889 20.512C235.129 20.056 235.457 19.7 235.873 19.444C236.297 19.188 236.785 19.06 237.337 19.06C237.865 19.06 238.317 19.176 238.693 19.408C239.069 19.64 239.357 19.968 239.557 20.392C239.765 20.816 239.869 21.324 239.869 21.916V22.288H235.273V21.652H239.221L239.029 21.808C239.029 21.168 238.885 20.672 238.597 20.32C238.317 19.96 237.905 19.78 237.361 19.78C236.953 19.78 236.605 19.876 236.317 20.068C236.037 20.252 235.825 20.512 235.681 20.848C235.537 21.176 235.465 21.56 235.465 22V22.072C235.465 22.56 235.541 22.972 235.693 23.308C235.853 23.644 236.089 23.9 236.401 24.076C236.713 24.244 237.085 24.328 237.517 24.328C237.861 24.328 238.193 24.276 238.513 24.172C238.841 24.06 239.149 23.88 239.437 23.632L239.773 24.316C239.509 24.556 239.173 24.748 238.765 24.892C238.357 25.036 237.941 25.108 237.517 25.108ZM242.921 25L240.413 19.168H241.469L243.557 24.28H243.233L245.357 19.168H246.353L243.833 25H242.921ZM249.927 25.108C249.311 25.108 248.779 24.988 248.331 24.748C247.891 24.5 247.547 24.152 247.299 23.704C247.059 23.256 246.939 22.72 246.939 22.096C246.939 21.488 247.059 20.96 247.299 20.512C247.539 20.056 247.867 19.7 248.283 19.444C248.707 19.188 249.195 19.06 249.747 19.06C250.275 19.06 250.727 19.176 251.103 19.408C251.479 19.64 251.767 19.968 251.967 20.392C252.175 20.816 252.279 21.324 252.279 21.916V22.288H247.683V21.652H251.631L251.439 21.808C251.439 21.168 251.295 20.672 251.007 20.32C250.727 19.96 250.315 19.78 249.771 19.78C249.363 19.78 249.015 19.876 248.727 20.068C248.447 20.252 248.235 20.512 248.091 20.848C247.947 21.176 247.875 21.56 247.875 22V22.072C247.875 22.56 247.951 22.972 248.103 23.308C248.263 23.644 248.499 23.9 248.811 24.076C249.123 24.244 249.495 24.328 249.927 24.328C250.271 24.328 250.603 24.276 250.923 24.172C251.251 24.06 251.559 23.88 251.847 23.632L252.183 24.316C251.919 24.556 251.583 24.748 251.175 24.892C250.767 25.036 250.351 25.108 249.927 25.108ZM253.685 25V19.168H254.633V20.548H254.513C254.649 20.076 254.885 19.72 255.221 19.48C255.557 19.232 256.001 19.088 256.553 19.048L256.901 19.012L256.973 19.852L256.361 19.924C255.817 19.972 255.397 20.148 255.101 20.452C254.813 20.748 254.669 21.156 254.669 21.676V25H253.685ZM259.764 25.108C259.364 25.108 259.004 25.032 258.684 24.88C258.372 24.72 258.124 24.504 257.94 24.232C257.756 23.96 257.664 23.656 257.664 23.32C257.664 22.888 257.772 22.548 257.988 22.3C258.212 22.052 258.576 21.876 259.08 21.772C259.592 21.668 260.288 21.616 261.168 21.616H261.708V22.252H261.18C260.692 22.252 260.284 22.268 259.956 22.3C259.628 22.332 259.368 22.388 259.176 22.468C258.984 22.548 258.848 22.652 258.768 22.78C258.688 22.908 258.648 23.068 258.648 23.26C258.648 23.588 258.76 23.856 258.984 24.064C259.216 24.272 259.528 24.376 259.92 24.376C260.24 24.376 260.52 24.3 260.76 24.148C261.008 23.996 261.2 23.788 261.336 23.524C261.48 23.26 261.552 22.956 261.552 22.612V21.244C261.552 20.748 261.452 20.392 261.252 20.176C261.052 19.952 260.724 19.84 260.268 19.84C259.916 19.84 259.576 19.892 259.248 19.996C258.92 20.092 258.584 20.252 258.24 20.476L257.904 19.768C258.112 19.624 258.348 19.5 258.612 19.396C258.876 19.284 259.152 19.2 259.44 19.144C259.728 19.088 260.004 19.06 260.268 19.06C260.772 19.06 261.188 19.144 261.516 19.312C261.844 19.472 262.088 19.72 262.248 20.056C262.408 20.384 262.488 20.808 262.488 21.328V25H261.576V23.644H261.684C261.62 23.948 261.496 24.208 261.312 24.424C261.136 24.64 260.916 24.808 260.652 24.928C260.388 25.048 260.092 25.108 259.764 25.108ZM266.871 27.268C266.367 27.268 265.891 27.2 265.443 27.064C265.003 26.936 264.611 26.74 264.267 26.476L264.591 25.768C264.831 25.936 265.067 26.072 265.299 26.176C265.539 26.288 265.783 26.368 266.031 26.416C266.287 26.464 266.551 26.488 266.823 26.488C267.391 26.488 267.819 26.336 268.107 26.032C268.403 25.728 268.551 25.288 268.551 24.712V23.356H268.671C268.551 23.82 268.295 24.188 267.903 24.46C267.519 24.732 267.067 24.868 266.547 24.868C266.011 24.868 265.547 24.748 265.155 24.508C264.763 24.26 264.459 23.916 264.243 23.476C264.035 23.036 263.931 22.528 263.931 21.952C263.931 21.376 264.035 20.872 264.243 20.44C264.459 20 264.763 19.66 265.155 19.42C265.547 19.18 266.011 19.06 266.547 19.06C267.075 19.06 267.531 19.196 267.915 19.468C268.299 19.732 268.547 20.092 268.659 20.548H268.551V19.168H269.499V24.58C269.499 25.172 269.399 25.668 269.199 26.068C269.007 26.468 268.715 26.768 268.323 26.968C267.931 27.168 267.447 27.268 266.871 27.268ZM266.727 24.076C267.287 24.076 267.731 23.884 268.059 23.5C268.387 23.116 268.551 22.6 268.551 21.952C268.551 21.304 268.387 20.792 268.059 20.416C267.731 20.032 267.287 19.84 266.727 19.84C266.175 19.84 265.735 20.032 265.407 20.416C265.079 20.792 264.915 21.304 264.915 21.952C264.915 22.6 265.079 23.116 265.407 23.5C265.735 23.884 266.175 24.076 266.727 24.076ZM273.95 25.108C273.334 25.108 272.802 24.988 272.354 24.748C271.914 24.5 271.57 24.152 271.322 23.704C271.082 23.256 270.962 22.72 270.962 22.096C270.962 21.488 271.082 20.96 271.322 20.512C271.562 20.056 271.89 19.7 272.306 19.444C272.73 19.188 273.218 19.06 273.77 19.06C274.298 19.06 274.75 19.176 275.126 19.408C275.502 19.64 275.79 19.968 275.99 20.392C276.198 20.816 276.302 21.324 276.302 21.916V22.288H271.706V21.652H275.654L275.462 21.808C275.462 21.168 275.318 20.672 275.03 20.32C274.75 19.96 274.338 19.78 273.794 19.78C273.386 19.78 273.038 19.876 272.75 20.068C272.47 20.252 272.258 20.512 272.114 20.848C271.97 21.176 271.898 21.56 271.898 22V22.072C271.898 22.56 271.974 22.972 272.126 23.308C272.286 23.644 272.522 23.9 272.834 24.076C273.146 24.244 273.518 24.328 273.95 24.328C274.294 24.328 274.626 24.276 274.946 24.172C275.274 24.06 275.582 23.88 275.87 23.632L276.206 24.316C275.942 24.556 275.606 24.748 275.198 24.892C274.79 25.036 274.374 25.108 273.95 25.108ZM279.677 25.108C279.373 25.108 279.077 25.076 278.789 25.012C278.509 24.956 278.245 24.876 277.997 24.772C277.757 24.66 277.549 24.528 277.373 24.376L277.685 23.692C277.877 23.844 278.085 23.972 278.309 24.076C278.533 24.172 278.761 24.244 278.993 24.292C279.225 24.34 279.461 24.364 279.701 24.364C280.157 24.364 280.501 24.28 280.733 24.112C280.965 23.944 281.081 23.716 281.081 23.428C281.081 23.204 281.005 23.028 280.853 22.9C280.701 22.764 280.461 22.66 280.133 22.588L279.041 22.348C278.537 22.244 278.161 22.064 277.913 21.808C277.673 21.552 277.553 21.22 277.553 20.812C277.553 20.452 277.645 20.144 277.829 19.888C278.021 19.624 278.289 19.42 278.633 19.276C278.977 19.132 279.377 19.06 279.833 19.06C280.105 19.06 280.365 19.088 280.613 19.144C280.861 19.2 281.093 19.284 281.309 19.396C281.533 19.5 281.725 19.632 281.885 19.792L281.561 20.476C281.409 20.332 281.237 20.212 281.045 20.116C280.853 20.012 280.653 19.936 280.445 19.888C280.245 19.832 280.041 19.804 279.833 19.804C279.385 19.804 279.045 19.892 278.813 20.068C278.581 20.244 278.465 20.476 278.465 20.764C278.465 20.988 278.537 21.172 278.681 21.316C278.825 21.46 279.049 21.564 279.353 21.628L280.445 21.856C280.965 21.968 281.353 22.148 281.609 22.396C281.873 22.636 282.005 22.964 282.005 23.38C282.005 23.732 281.909 24.04 281.717 24.304C281.525 24.56 281.253 24.76 280.901 24.904C280.557 25.04 280.149 25.108 279.677 25.108ZM283.272 25V23.776H284.496V25H283.272Z" fill="white"/>
</svg>
