<svg width="312" height="29" viewBox="0 0 312 29" fill="none" xmlns="http://www.w3.org/2000/svg">
<path d="M1.344 10L5.496 1.96V2.392H0.804V1.54H6.396V2.284L2.436 10H1.344ZM10.9753 10.108C10.6153 10.108 10.2633 10.068 9.91931 9.988C9.57531 9.908 9.25131 9.792 8.94731 9.64C8.65131 9.488 8.38731 9.308 8.15531 9.1L8.52731 8.32C8.91131 8.632 9.29931 8.864 9.69131 9.016C10.0913 9.16 10.5153 9.232 10.9633 9.232C11.5553 9.232 12.0153 9.068 12.3433 8.74C12.6793 8.412 12.8473 7.98 12.8473 7.444C12.8473 6.892 12.6873 6.44 12.3673 6.088C12.0473 5.736 11.6073 5.56 11.0473 5.56C10.6393 5.56 10.2793 5.644 9.96731 5.812C9.66331 5.972 9.38731 6.224 9.13931 6.568H8.41931V1.54H13.3273V2.38H9.39131V5.752H9.12731C9.33531 5.416 9.62331 5.16 9.99131 4.984C10.3593 4.8 10.7713 4.708 11.2273 4.708C11.7633 4.708 12.2233 4.82 12.6073 5.044C12.9993 5.268 13.2993 5.584 13.5073 5.992C13.7233 6.392 13.8313 6.86 13.8313 7.396C13.8313 7.924 13.7153 8.392 13.4833 8.8C13.2513 9.208 12.9233 9.528 12.4993 9.76C12.0753 9.992 11.5673 10.108 10.9753 10.108ZM17.9906 10.108C17.3506 10.108 16.8066 9.944 16.3586 9.616C15.9186 9.28 15.5866 8.788 15.3626 8.14C15.1386 7.492 15.0266 6.7 15.0266 5.764C15.0266 4.82 15.1386 4.028 15.3626 3.388C15.5866 2.74 15.9186 2.252 16.3586 1.924C16.8066 1.596 17.3506 1.432 17.9906 1.432C18.6386 1.432 19.1826 1.596 19.6226 1.924C20.0626 2.252 20.3946 2.736 20.6186 3.376C20.8426 4.016 20.9546 4.808 20.9546 5.752C20.9546 6.696 20.8426 7.492 20.6186 8.14C20.3946 8.788 20.0626 9.28 19.6226 9.616C19.1826 9.944 18.6386 10.108 17.9906 10.108ZM17.9906 9.256C18.6626 9.256 19.1586 8.972 19.4786 8.404C19.8066 7.836 19.9706 6.952 19.9706 5.752C19.9706 4.552 19.8106 3.676 19.4906 3.124C19.1706 2.564 18.6706 2.284 17.9906 2.284C17.3266 2.284 16.8306 2.564 16.5026 3.124C16.1746 3.684 16.0106 4.56 16.0106 5.752C16.0106 6.952 16.1706 7.836 16.4906 8.404C16.8186 8.972 17.3186 9.256 17.9906 9.256ZM22.5219 10V4.168H23.4699V5.464H23.3379C23.4339 5.168 23.5739 4.916 23.7579 4.708C23.9499 4.492 24.1739 4.332 24.4299 4.228C24.6939 4.116 24.9819 4.06 25.2939 4.06C25.7899 4.06 26.1899 4.18 26.4939 4.42C26.8059 4.652 27.0139 5.016 27.1179 5.512H26.9379C27.0819 5.064 27.3379 4.712 27.7059 4.456C28.0819 4.192 28.5179 4.06 29.0139 4.06C29.4539 4.06 29.8139 4.144 30.0939 4.312C30.3819 4.48 30.5979 4.736 30.7419 5.08C30.8859 5.416 30.9579 5.844 30.9579 6.364V10H29.9859V6.412C29.9859 5.876 29.8939 5.484 29.7099 5.236C29.5259 4.98 29.2139 4.852 28.7739 4.852C28.4619 4.852 28.1859 4.928 27.9459 5.08C27.7139 5.232 27.5339 5.448 27.4059 5.728C27.2859 6 27.2259 6.324 27.2259 6.7V10H26.2539V6.412C26.2539 5.876 26.1579 5.484 25.9659 5.236C25.7819 4.98 25.4739 4.852 25.0419 4.852C24.7219 4.852 24.4459 4.928 24.2139 5.08C23.9819 5.232 23.8019 5.448 23.6739 5.728C23.5539 6 23.4939 6.324 23.4939 6.7V10H22.5219ZM34.5633 10.108C33.9713 10.108 33.5233 9.932 33.2193 9.58C32.9233 9.228 32.7753 8.724 32.7753 8.068V1.54H33.7473V7.996C33.7473 8.276 33.7833 8.512 33.8553 8.704C33.9353 8.896 34.0513 9.04 34.2033 9.136C34.3553 9.232 34.5433 9.28 34.7673 9.28C34.8633 9.28 34.9553 9.276 35.0433 9.268C35.1393 9.252 35.2273 9.232 35.3073 9.208L35.2833 10.024C35.1553 10.048 35.0313 10.068 34.9113 10.084C34.7993 10.1 34.6833 10.108 34.5633 10.108ZM39.5401 10V1.54H42.8881C43.7921 1.54 44.4881 1.752 44.9761 2.176C45.4641 2.6 45.7081 3.204 45.7081 3.988C45.7081 4.484 45.5961 4.916 45.3721 5.284C45.1561 5.644 44.8361 5.92 44.4121 6.112C43.9881 6.296 43.4801 6.388 42.8881 6.388L43.0081 6.232H43.2481C43.5601 6.232 43.8321 6.312 44.0641 6.472C44.2961 6.632 44.5081 6.888 44.7001 7.24L46.1881 10H45.1081L43.6441 7.288C43.5241 7.064 43.3881 6.888 43.2361 6.76C43.0921 6.632 42.9241 6.544 42.7321 6.496C42.5481 6.448 42.3241 6.424 42.0601 6.424H40.5241V10H39.5401ZM40.5241 5.644H42.7441C43.4001 5.644 43.8961 5.508 44.2321 5.236C44.5681 4.956 44.7361 4.54 44.7361 3.988C44.7361 3.452 44.5681 3.048 44.2321 2.776C43.8961 2.496 43.4001 2.356 42.7441 2.356H40.5241V5.644ZM49.7305 10.108C49.1625 10.108 48.6705 9.984 48.2545 9.736C47.8385 9.488 47.5145 9.14 47.2825 8.692C47.0585 8.236 46.9465 7.7 46.9465 7.084C46.9465 6.468 47.0585 5.936 47.2825 5.488C47.5145 5.032 47.8385 4.68 48.2545 4.432C48.6705 4.184 49.1625 4.06 49.7305 4.06C50.2985 4.06 50.7905 4.184 51.2065 4.432C51.6225 4.68 51.9425 5.032 52.1665 5.488C52.3985 5.936 52.5145 6.468 52.5145 7.084C52.5145 7.7 52.3985 8.236 52.1665 8.692C51.9425 9.14 51.6225 9.488 51.2065 9.736C50.7905 9.984 50.2985 10.108 49.7305 10.108ZM49.7305 9.328C50.2825 9.328 50.7185 9.136 51.0385 8.752C51.3665 8.36 51.5305 7.8 51.5305 7.072C51.5305 6.352 51.3665 5.8 51.0385 5.416C50.7185 5.032 50.2825 4.84 49.7305 4.84C49.1865 4.84 48.7505 5.032 48.4225 5.416C48.0945 5.8 47.9305 6.352 47.9305 7.072C47.9305 7.8 48.0945 8.36 48.4225 8.752C48.7505 9.136 49.1865 9.328 49.7305 9.328ZM56.0385 10.108C55.5665 10.108 55.1745 10.024 54.8625 9.856C54.5585 9.68 54.3265 9.42 54.1665 9.076C54.0145 8.732 53.9385 8.304 53.9385 7.792V4.168H54.9105V7.78C54.9105 8.124 54.9545 8.412 55.0425 8.644C55.1385 8.868 55.2865 9.036 55.4865 9.148C55.6865 9.252 55.9345 9.304 56.2305 9.304C56.5665 9.304 56.8585 9.228 57.1065 9.076C57.3545 8.924 57.5505 8.712 57.6945 8.44C57.8385 8.168 57.9105 7.848 57.9105 7.48V4.168H58.8825V10H57.9345V8.656H58.0905C57.9305 9.128 57.6665 9.488 57.2985 9.736C56.9385 9.984 56.5185 10.108 56.0385 10.108ZM60.7011 10V4.168H61.6491V5.464H61.5171C61.6851 5 61.9571 4.652 62.3331 4.42C62.7171 4.18 63.1571 4.06 63.6531 4.06C64.1171 4.06 64.5011 4.144 64.8051 4.312C65.1171 4.472 65.3491 4.724 65.5011 5.068C65.6531 5.412 65.7291 5.844 65.7291 6.364V10H64.7571V6.424C64.7571 6.064 64.7091 5.768 64.6131 5.536C64.5251 5.304 64.3811 5.132 64.1811 5.02C63.9891 4.908 63.7371 4.852 63.4251 4.852C63.0731 4.852 62.7651 4.928 62.5011 5.08C62.2371 5.232 62.0331 5.444 61.8891 5.716C61.7451 5.988 61.6731 6.308 61.6731 6.676V10H60.7011ZM69.7414 10.108C69.2214 10.108 68.7654 9.984 68.3734 9.736C67.9894 9.488 67.6894 9.14 67.4734 8.692C67.2654 8.236 67.1614 7.7 67.1614 7.084C67.1614 6.46 67.2654 5.924 67.4734 5.476C67.6894 5.02 67.9894 4.672 68.3734 4.432C68.7654 4.184 69.2214 4.06 69.7414 4.06C70.2694 4.06 70.7214 4.192 71.0974 4.456C71.4734 4.72 71.7254 5.076 71.8534 5.524H71.7214V1.54H72.6934V10H71.7454V8.608H71.8654C71.7374 9.064 71.4814 9.428 71.0974 9.7C70.7214 9.972 70.2694 10.108 69.7414 10.108ZM69.9454 9.328C70.4974 9.328 70.9334 9.136 71.2534 8.752C71.5814 8.36 71.7454 7.804 71.7454 7.084C71.7454 6.356 71.5814 5.8 71.2534 5.416C70.9334 5.032 70.4974 4.84 69.9454 4.84C69.4014 4.84 68.9654 5.032 68.6374 5.416C68.3094 5.8 68.1454 6.356 68.1454 7.084C68.1454 7.804 68.3094 8.36 68.6374 8.752C68.9654 9.136 69.4014 9.328 69.9454 9.328ZM81.3915 10.108C80.5595 10.108 79.8475 9.932 79.2555 9.58C78.6635 9.228 78.2075 8.728 77.8875 8.08C77.5755 7.432 77.4195 6.66 77.4195 5.764C77.4195 4.868 77.5755 4.1 77.8875 3.46C78.2075 2.812 78.6635 2.312 79.2555 1.96C79.8475 1.608 80.5595 1.432 81.3915 1.432C81.9755 1.432 82.5155 1.524 83.0115 1.708C83.5075 1.892 83.9235 2.16 84.2595 2.512L83.8755 3.316C83.5075 2.972 83.1235 2.724 82.7235 2.572C82.3315 2.412 81.8955 2.332 81.4155 2.332C80.4635 2.332 79.7355 2.632 79.2315 3.232C78.7275 3.832 78.4755 4.676 78.4755 5.764C78.4755 6.852 78.7275 7.7 79.2315 8.308C79.7355 8.908 80.4635 9.208 81.4155 9.208C81.8955 9.208 82.3315 9.132 82.7235 8.98C83.1235 8.82 83.5075 8.568 83.8755 8.224L84.2595 9.028C83.9235 9.372 83.5075 9.64 83.0115 9.832C82.5155 10.016 81.9755 10.108 81.3915 10.108ZM87.6758 10.108C87.1078 10.108 86.6158 9.984 86.1998 9.736C85.7838 9.488 85.4598 9.14 85.2278 8.692C85.0038 8.236 84.8918 7.7 84.8918 7.084C84.8918 6.468 85.0038 5.936 85.2278 5.488C85.4598 5.032 85.7838 4.68 86.1998 4.432C86.6158 4.184 87.1078 4.06 87.6758 4.06C88.2438 4.06 88.7358 4.184 89.1518 4.432C89.5678 4.68 89.8878 5.032 90.1118 5.488C90.3438 5.936 90.4598 6.468 90.4598 7.084C90.4598 7.7 90.3438 8.236 90.1118 8.692C89.8878 9.14 89.5678 9.488 89.1518 9.736C88.7358 9.984 88.2438 10.108 87.6758 10.108ZM87.6758 9.328C88.2278 9.328 88.6638 9.136 88.9838 8.752C89.3118 8.36 89.4758 7.8 89.4758 7.072C89.4758 6.352 89.3118 5.8 88.9838 5.416C88.6638 5.032 88.2278 4.84 87.6758 4.84C87.1318 4.84 86.6958 5.032 86.3678 5.416C86.0398 5.8 85.8758 6.352 85.8758 7.072C85.8758 7.8 86.0398 8.36 86.3678 8.752C86.6958 9.136 87.1318 9.328 87.6758 9.328ZM91.9198 10V4.168H92.8678V5.464H92.7358C92.9038 5 93.1758 4.652 93.5518 4.42C93.9358 4.18 94.3758 4.06 94.8718 4.06C95.3358 4.06 95.7198 4.144 96.0238 4.312C96.3358 4.472 96.5678 4.724 96.7198 5.068C96.8718 5.412 96.9478 5.844 96.9478 6.364V10H95.9758V6.424C95.9758 6.064 95.9278 5.768 95.8318 5.536C95.7438 5.304 95.5998 5.132 95.3998 5.02C95.2078 4.908 94.9558 4.852 94.6438 4.852C94.2918 4.852 93.9838 4.928 93.7198 5.08C93.4558 5.232 93.2518 5.444 93.1078 5.716C92.9638 5.988 92.8918 6.308 92.8918 6.676V10H91.9198ZM101.08 10.108C100.392 10.108 99.8761 9.924 99.5321 9.556C99.1881 9.188 99.0161 8.664 99.0161 7.984V4.924H97.8761V4.168H99.0161V2.38H99.9881V4.168H101.836V4.924H99.9881V7.888C99.9881 8.344 100.084 8.692 100.276 8.932C100.468 9.164 100.78 9.28 101.212 9.28C101.34 9.28 101.468 9.264 101.596 9.232C101.724 9.2 101.84 9.168 101.944 9.136L102.112 9.88C102.008 9.936 101.856 9.988 101.656 10.036C101.456 10.084 101.264 10.108 101.08 10.108ZM104.771 10.108C104.371 10.108 104.011 10.032 103.691 9.88C103.379 9.72 103.131 9.504 102.947 9.232C102.763 8.96 102.671 8.656 102.671 8.32C102.671 7.888 102.779 7.548 102.995 7.3C103.219 7.052 103.583 6.876 104.087 6.772C104.599 6.668 105.295 6.616 106.175 6.616H106.715V7.252H106.187C105.699 7.252 105.291 7.268 104.963 7.3C104.635 7.332 104.375 7.388 104.183 7.468C103.991 7.548 103.855 7.652 103.775 7.78C103.695 7.908 103.655 8.068 103.655 8.26C103.655 8.588 103.767 8.856 103.991 9.064C104.223 9.272 104.535 9.376 104.927 9.376C105.247 9.376 105.527 9.3 105.767 9.148C106.015 8.996 106.207 8.788 106.343 8.524C106.487 8.26 106.559 7.956 106.559 7.612V6.244C106.559 5.748 106.459 5.392 106.259 5.176C106.059 4.952 105.731 4.84 105.275 4.84C104.923 4.84 104.583 4.892 104.255 4.996C103.927 5.092 103.591 5.252 103.247 5.476L102.911 4.768C103.119 4.624 103.355 4.5 103.619 4.396C103.883 4.284 104.159 4.2 104.447 4.144C104.735 4.088 105.011 4.06 105.275 4.06C105.779 4.06 106.195 4.144 106.523 4.312C106.851 4.472 107.095 4.72 107.255 5.056C107.415 5.384 107.495 5.808 107.495 6.328V10H106.583V8.644H106.691C106.627 8.948 106.503 9.208 106.319 9.424C106.143 9.64 105.923 9.808 105.659 9.928C105.395 10.048 105.099 10.108 104.771 10.108ZM109.179 2.716V1.624H110.379V2.716H109.179ZM109.299 10V4.168H110.271V10H109.299ZM112.088 10V4.168H113.036V5.464H112.904C113.072 5 113.344 4.652 113.72 4.42C114.104 4.18 114.544 4.06 115.04 4.06C115.504 4.06 115.888 4.144 116.192 4.312C116.504 4.472 116.736 4.724 116.888 5.068C117.04 5.412 117.116 5.844 117.116 6.364V10H116.144V6.424C116.144 6.064 116.096 5.768 116 5.536C115.912 5.304 115.768 5.132 115.568 5.02C115.376 4.908 115.124 4.852 114.812 4.852C114.46 4.852 114.152 4.928 113.888 5.08C113.624 5.232 113.42 5.444 113.276 5.716C113.132 5.988 113.06 6.308 113.06 6.676V10H112.088ZM121.536 10.108C120.92 10.108 120.388 9.988 119.94 9.748C119.5 9.5 119.156 9.152 118.908 8.704C118.668 8.256 118.548 7.72 118.548 7.096C118.548 6.488 118.668 5.96 118.908 5.512C119.148 5.056 119.476 4.7 119.892 4.444C120.316 4.188 120.804 4.06 121.356 4.06C121.884 4.06 122.336 4.176 122.712 4.408C123.088 4.64 123.376 4.968 123.576 5.392C123.784 5.816 123.888 6.324 123.888 6.916V7.288H119.292V6.652H123.24L123.048 6.808C123.048 6.168 122.904 5.672 122.616 5.32C122.336 4.96 121.924 4.78 121.38 4.78C120.972 4.78 120.624 4.876 120.336 5.068C120.056 5.252 119.844 5.512 119.7 5.848C119.556 6.176 119.484 6.56 119.484 7V7.072C119.484 7.56 119.56 7.972 119.712 8.308C119.872 8.644 120.108 8.9 120.42 9.076C120.732 9.244 121.104 9.328 121.536 9.328C121.88 9.328 122.212 9.276 122.532 9.172C122.86 9.06 123.168 8.88 123.456 8.632L123.792 9.316C123.528 9.556 123.192 9.748 122.784 9.892C122.376 10.036 121.96 10.108 121.536 10.108ZM125.295 10V4.168H126.243V5.548H126.123C126.259 5.076 126.495 4.72 126.831 4.48C127.167 4.232 127.611 4.088 128.163 4.048L128.511 4.012L128.583 4.852L127.971 4.924C127.427 4.972 127.007 5.148 126.711 5.452C126.423 5.748 126.279 6.156 126.279 6.676V10H125.295ZM129.698 11.368L129.242 11.02C129.386 10.868 129.494 10.724 129.566 10.588C129.646 10.46 129.698 10.328 129.722 10.192C129.754 10.064 129.77 9.932 129.77 9.796L129.986 10H129.194V8.776H130.418V9.64C130.418 9.856 130.394 10.06 130.346 10.252C130.306 10.452 130.234 10.644 130.13 10.828C130.026 11.012 129.882 11.192 129.698 11.368ZM135.318 10V1.54H136.146L139.578 7.984H139.218L142.626 1.54H143.454V10H142.542V2.86H142.83L139.722 8.692H139.074L135.93 2.848H136.218V10H135.318ZM145.308 2.716V1.624H146.508V2.716H145.308ZM145.428 10V4.168H146.4V10H145.428ZM150.689 10.108C150.105 10.108 149.601 9.98 149.177 9.724C148.753 9.468 148.425 9.112 148.193 8.656C147.969 8.192 147.857 7.656 147.857 7.048C147.857 6.432 147.969 5.9 148.193 5.452C148.425 5.004 148.753 4.66 149.177 4.42C149.601 4.18 150.105 4.06 150.689 4.06C151.049 4.06 151.405 4.124 151.757 4.252C152.109 4.38 152.401 4.56 152.633 4.792L152.297 5.5C152.065 5.276 151.809 5.112 151.529 5.008C151.257 4.904 150.997 4.852 150.749 4.852C150.141 4.852 149.673 5.044 149.345 5.428C149.017 5.804 148.853 6.348 148.853 7.06C148.853 7.756 149.017 8.308 149.345 8.716C149.673 9.116 150.141 9.316 150.749 9.316C150.997 9.316 151.257 9.264 151.529 9.16C151.809 9.056 152.065 8.888 152.297 8.656L152.633 9.364C152.401 9.596 152.105 9.78 151.745 9.916C151.393 10.044 151.041 10.108 150.689 10.108ZM153.771 10V4.168H154.719V5.548H154.599C154.735 5.076 154.971 4.72 155.307 4.48C155.643 4.232 156.087 4.088 156.639 4.048L156.987 4.012L157.059 4.852L156.447 4.924C155.903 4.972 155.483 5.148 155.187 5.452C154.899 5.748 154.755 6.156 154.755 6.676V10H153.771ZM160.426 10.108C159.858 10.108 159.366 9.984 158.95 9.736C158.534 9.488 158.21 9.14 157.978 8.692C157.754 8.236 157.642 7.7 157.642 7.084C157.642 6.468 157.754 5.936 157.978 5.488C158.21 5.032 158.534 4.68 158.95 4.432C159.366 4.184 159.858 4.06 160.426 4.06C160.994 4.06 161.486 4.184 161.902 4.432C162.318 4.68 162.638 5.032 162.862 5.488C163.094 5.936 163.21 6.468 163.21 7.084C163.21 7.7 163.094 8.236 162.862 8.692C162.638 9.14 162.318 9.488 161.902 9.736C161.486 9.984 160.994 10.108 160.426 10.108ZM160.426 9.328C160.978 9.328 161.414 9.136 161.734 8.752C162.062 8.36 162.226 7.8 162.226 7.072C162.226 6.352 162.062 5.8 161.734 5.416C161.414 5.032 160.978 4.84 160.426 4.84C159.882 4.84 159.446 5.032 159.118 5.416C158.79 5.8 158.626 6.352 158.626 7.072C158.626 7.8 158.79 8.36 159.118 8.752C159.446 9.136 159.882 9.328 160.426 9.328ZM166.136 10L163.964 4.168H164.984L166.772 9.28H166.484L168.332 4.168H169.16L170.972 9.28H170.696L172.508 4.168H173.48L171.296 10H170.372L168.464 4.756H168.98L167.072 10H166.136ZM176.396 10.108C175.996 10.108 175.636 10.032 175.316 9.88C175.004 9.72 174.756 9.504 174.572 9.232C174.388 8.96 174.296 8.656 174.296 8.32C174.296 7.888 174.404 7.548 174.62 7.3C174.844 7.052 175.208 6.876 175.712 6.772C176.224 6.668 176.92 6.616 177.8 6.616H178.34V7.252H177.812C177.324 7.252 176.916 7.268 176.588 7.3C176.26 7.332 176 7.388 175.808 7.468C175.616 7.548 175.48 7.652 175.4 7.78C175.32 7.908 175.28 8.068 175.28 8.26C175.28 8.588 175.392 8.856 175.616 9.064C175.848 9.272 176.16 9.376 176.552 9.376C176.872 9.376 177.152 9.3 177.392 9.148C177.64 8.996 177.832 8.788 177.968 8.524C178.112 8.26 178.184 7.956 178.184 7.612V6.244C178.184 5.748 178.084 5.392 177.884 5.176C177.684 4.952 177.356 4.84 176.9 4.84C176.548 4.84 176.208 4.892 175.88 4.996C175.552 5.092 175.216 5.252 174.872 5.476L174.536 4.768C174.744 4.624 174.98 4.5 175.244 4.396C175.508 4.284 175.784 4.2 176.072 4.144C176.36 4.088 176.636 4.06 176.9 4.06C177.404 4.06 177.82 4.144 178.148 4.312C178.476 4.472 178.72 4.72 178.88 5.056C179.04 5.384 179.12 5.808 179.12 6.328V10H178.208V8.644H178.316C178.252 8.948 178.128 9.208 177.944 9.424C177.768 9.64 177.548 9.808 177.284 9.928C177.02 10.048 176.724 10.108 176.396 10.108ZM182.581 10L180.073 4.168H181.129L183.217 9.28H182.893L185.017 4.168H186.013L183.493 10H182.581ZM189.587 10.108C188.971 10.108 188.439 9.988 187.991 9.748C187.551 9.5 187.207 9.152 186.959 8.704C186.719 8.256 186.599 7.72 186.599 7.096C186.599 6.488 186.719 5.96 186.959 5.512C187.199 5.056 187.527 4.7 187.943 4.444C188.367 4.188 188.855 4.06 189.407 4.06C189.935 4.06 190.387 4.176 190.763 4.408C191.139 4.64 191.427 4.968 191.627 5.392C191.835 5.816 191.939 6.324 191.939 6.916V7.288H187.343V6.652H191.291L191.099 6.808C191.099 6.168 190.955 5.672 190.667 5.32C190.387 4.96 189.975 4.78 189.431 4.78C189.023 4.78 188.675 4.876 188.387 5.068C188.107 5.252 187.895 5.512 187.751 5.848C187.607 6.176 187.535 6.56 187.535 7V7.072C187.535 7.56 187.611 7.972 187.763 8.308C187.923 8.644 188.159 8.9 188.471 9.076C188.783 9.244 189.155 9.328 189.587 9.328C189.931 9.328 190.263 9.276 190.583 9.172C190.911 9.06 191.219 8.88 191.507 8.632L191.843 9.316C191.579 9.556 191.243 9.748 190.835 9.892C190.427 10.036 190.011 10.108 189.587 10.108ZM196.056 10.756L195.288 10.528L198.36 0.976L199.14 1.204L196.056 10.756ZM199.958 10V1.54H205.19V2.368H200.942V5.32H204.95V6.148H200.942V10H199.958ZM206.283 10V4.168H207.231V5.548H207.111C207.247 5.076 207.483 4.72 207.819 4.48C208.155 4.232 208.599 4.088 209.151 4.048L209.499 4.012L209.571 4.852L208.959 4.924C208.415 4.972 207.995 5.148 207.699 5.452C207.411 5.748 207.267 6.156 207.267 6.676V10H206.283ZM213.142 10.108C212.526 10.108 211.994 9.988 211.546 9.748C211.106 9.5 210.762 9.152 210.514 8.704C210.274 8.256 210.154 7.72 210.154 7.096C210.154 6.488 210.274 5.96 210.514 5.512C210.754 5.056 211.082 4.7 211.498 4.444C211.922 4.188 212.41 4.06 212.962 4.06C213.49 4.06 213.942 4.176 214.318 4.408C214.694 4.64 214.982 4.968 215.182 5.392C215.39 5.816 215.494 6.324 215.494 6.916V7.288H210.898V6.652H214.846L214.654 6.808C214.654 6.168 214.51 5.672 214.222 5.32C213.942 4.96 213.53 4.78 212.986 4.78C212.578 4.78 212.23 4.876 211.942 5.068C211.662 5.252 211.45 5.512 211.306 5.848C211.162 6.176 211.09 6.56 211.09 7V7.072C211.09 7.56 211.166 7.972 211.318 8.308C211.478 8.644 211.714 8.9 212.026 9.076C212.338 9.244 212.71 9.328 213.142 9.328C213.486 9.328 213.818 9.276 214.138 9.172C214.466 9.06 214.774 8.88 215.062 8.632L215.398 9.316C215.134 9.556 214.798 9.748 214.39 9.892C213.982 10.036 213.566 10.108 213.142 10.108ZM219.528 10.108C218.912 10.108 218.38 9.988 217.932 9.748C217.492 9.5 217.148 9.152 216.9 8.704C216.66 8.256 216.54 7.72 216.54 7.096C216.54 6.488 216.66 5.96 216.9 5.512C217.14 5.056 217.468 4.7 217.884 4.444C218.308 4.188 218.796 4.06 219.348 4.06C219.876 4.06 220.328 4.176 220.704 4.408C221.08 4.64 221.368 4.968 221.568 5.392C221.776 5.816 221.88 6.324 221.88 6.916V7.288H217.284V6.652H221.232L221.04 6.808C221.04 6.168 220.896 5.672 220.608 5.32C220.328 4.96 219.916 4.78 219.372 4.78C218.964 4.78 218.616 4.876 218.328 5.068C218.048 5.252 217.836 5.512 217.692 5.848C217.548 6.176 217.476 6.56 217.476 7V7.072C217.476 7.56 217.552 7.972 217.704 8.308C217.864 8.644 218.1 8.9 218.412 9.076C218.724 9.244 219.096 9.328 219.528 9.328C219.872 9.328 220.204 9.276 220.524 9.172C220.852 9.06 221.16 8.88 221.448 8.632L221.784 9.316C221.52 9.556 221.184 9.748 220.776 9.892C220.368 10.036 219.952 10.108 219.528 10.108ZM223.012 10V9.352L226.528 4.672V4.924H223.012V4.168H227.428V4.816L223.876 9.52V9.244H227.56V10H223.012ZM231.329 10.108C230.713 10.108 230.181 9.988 229.733 9.748C229.293 9.5 228.949 9.152 228.701 8.704C228.461 8.256 228.341 7.72 228.341 7.096C228.341 6.488 228.461 5.96 228.701 5.512C228.941 5.056 229.269 4.7 229.685 4.444C230.109 4.188 230.597 4.06 231.149 4.06C231.677 4.06 232.129 4.176 232.505 4.408C232.881 4.64 233.169 4.968 233.369 5.392C233.577 5.816 233.681 6.324 233.681 6.916V7.288H229.085V6.652H233.033L232.841 6.808C232.841 6.168 232.697 5.672 232.409 5.32C232.129 4.96 231.717 4.78 231.173 4.78C230.765 4.78 230.417 4.876 230.129 5.068C229.849 5.252 229.637 5.512 229.493 5.848C229.349 6.176 229.277 6.56 229.277 7V7.072C229.277 7.56 229.353 7.972 229.505 8.308C229.665 8.644 229.901 8.9 230.213 9.076C230.525 9.244 230.897 9.328 231.329 9.328C231.673 9.328 232.005 9.276 232.325 9.172C232.653 9.06 232.961 8.88 233.249 8.632L233.585 9.316C233.321 9.556 232.985 9.748 232.577 9.892C232.169 10.036 231.753 10.108 231.329 10.108ZM235.088 10V4.168H236.036V5.548H235.916C236.052 5.076 236.288 4.72 236.624 4.48C236.96 4.232 237.404 4.088 237.956 4.048L238.304 4.012L238.376 4.852L237.764 4.924C237.22 4.972 236.8 5.148 236.504 5.452C236.216 5.748 236.072 6.156 236.072 6.676V10H235.088ZM239.059 7.204V6.4H242.419V7.204H239.059ZM246.827 10.108C246.387 10.108 245.971 10.068 245.579 9.988C245.195 9.908 244.839 9.796 244.511 9.652C244.191 9.5 243.899 9.316 243.635 9.1L243.983 8.308C244.255 8.508 244.531 8.68 244.811 8.824C245.099 8.96 245.407 9.064 245.735 9.136C246.071 9.2 246.435 9.232 246.827 9.232C247.547 9.232 248.079 9.1 248.423 8.836C248.775 8.564 248.951 8.208 248.951 7.768C248.951 7.536 248.895 7.336 248.783 7.168C248.679 7 248.503 6.856 248.255 6.736C248.015 6.616 247.699 6.516 247.307 6.436L246.059 6.184C245.307 6.024 244.743 5.764 244.367 5.404C243.999 5.036 243.815 4.548 243.815 3.94C243.815 3.436 243.943 2.996 244.199 2.62C244.463 2.244 244.827 1.952 245.291 1.744C245.763 1.536 246.299 1.432 246.899 1.432C247.283 1.432 247.647 1.472 247.991 1.552C248.335 1.632 248.651 1.752 248.939 1.912C249.235 2.064 249.495 2.252 249.719 2.476L249.371 3.244C249.011 2.916 248.631 2.68 248.231 2.536C247.831 2.384 247.383 2.308 246.887 2.308C246.463 2.308 246.095 2.372 245.783 2.5C245.479 2.628 245.239 2.816 245.063 3.064C244.895 3.304 244.811 3.584 244.811 3.904C244.811 4.288 244.927 4.592 245.159 4.816C245.399 5.04 245.787 5.204 246.323 5.308L247.571 5.572C248.379 5.74 248.975 5.996 249.359 6.34C249.751 6.676 249.947 7.136 249.947 7.72C249.947 8.184 249.819 8.6 249.563 8.968C249.315 9.328 248.955 9.608 248.483 9.808C248.019 10.008 247.467 10.108 246.827 10.108ZM253.178 10.108C252.778 10.108 252.418 10.032 252.098 9.88C251.786 9.72 251.538 9.504 251.354 9.232C251.17 8.96 251.078 8.656 251.078 8.32C251.078 7.888 251.186 7.548 251.402 7.3C251.626 7.052 251.99 6.876 252.494 6.772C253.006 6.668 253.702 6.616 254.582 6.616H255.122V7.252H254.594C254.106 7.252 253.698 7.268 253.37 7.3C253.042 7.332 252.782 7.388 252.59 7.468C252.398 7.548 252.262 7.652 252.182 7.78C252.102 7.908 252.062 8.068 252.062 8.26C252.062 8.588 252.174 8.856 252.398 9.064C252.63 9.272 252.942 9.376 253.334 9.376C253.654 9.376 253.934 9.3 254.174 9.148C254.422 8.996 254.614 8.788 254.75 8.524C254.894 8.26 254.966 7.956 254.966 7.612V6.244C254.966 5.748 254.866 5.392 254.666 5.176C254.466 4.952 254.138 4.84 253.682 4.84C253.33 4.84 252.99 4.892 252.662 4.996C252.334 5.092 251.998 5.252 251.654 5.476L251.318 4.768C251.526 4.624 251.762 4.5 252.026 4.396C252.29 4.284 252.566 4.2 252.854 4.144C253.142 4.088 253.418 4.06 253.682 4.06C254.186 4.06 254.602 4.144 254.93 4.312C255.258 4.472 255.502 4.72 255.662 5.056C255.822 5.384 255.902 5.808 255.902 6.328V10H254.99V8.644H255.098C255.034 8.948 254.91 9.208 254.726 9.424C254.55 9.64 254.33 9.808 254.066 9.928C253.802 10.048 253.506 10.108 253.178 10.108ZM258.017 10V4.924H256.865V4.168H258.281L258.017 4.42V3.964C258.017 3.188 258.209 2.6 258.593 2.2C258.985 1.8 259.585 1.576 260.393 1.528L260.861 1.504L260.945 2.248L260.393 2.284C260.065 2.308 259.797 2.38 259.589 2.5C259.381 2.62 259.229 2.792 259.133 3.016C259.037 3.24 258.989 3.516 258.989 3.844V4.348L258.845 4.168H260.669V4.924H258.989V10H258.017ZM264.165 10.108C263.549 10.108 263.017 9.988 262.569 9.748C262.129 9.5 261.785 9.152 261.537 8.704C261.297 8.256 261.177 7.72 261.177 7.096C261.177 6.488 261.297 5.96 261.537 5.512C261.777 5.056 262.105 4.7 262.521 4.444C262.945 4.188 263.433 4.06 263.985 4.06C264.513 4.06 264.965 4.176 265.341 4.408C265.717 4.64 266.005 4.968 266.205 5.392C266.413 5.816 266.517 6.324 266.517 6.916V7.288H261.921V6.652H265.869L265.677 6.808C265.677 6.168 265.533 5.672 265.245 5.32C264.965 4.96 264.553 4.78 264.009 4.78C263.601 4.78 263.253 4.876 262.965 5.068C262.685 5.252 262.473 5.512 262.329 5.848C262.185 6.176 262.113 6.56 262.113 7V7.072C262.113 7.56 262.189 7.972 262.341 8.308C262.501 8.644 262.737 8.9 263.049 9.076C263.361 9.244 263.733 9.328 264.165 9.328C264.509 9.328 264.841 9.276 265.161 9.172C265.489 9.06 265.797 8.88 266.085 8.632L266.421 9.316C266.157 9.556 265.821 9.748 265.413 9.892C265.005 10.036 264.589 10.108 264.165 10.108ZM268.272 11.368L267.816 11.02C267.96 10.868 268.068 10.724 268.14 10.588C268.22 10.46 268.272 10.328 268.296 10.192C268.328 10.064 268.344 9.932 268.344 9.796L268.56 10H267.768V8.776H268.992V9.64C268.992 9.856 268.968 10.06 268.92 10.252C268.88 10.452 268.808 10.644 268.704 10.828C268.6 11.012 268.456 11.192 268.272 11.368ZM273.868 10V1.54H277.216C277.824 1.54 278.336 1.64 278.752 1.84C279.176 2.032 279.496 2.32 279.712 2.704C279.928 3.08 280.036 3.54 280.036 4.084C280.036 4.612 279.928 5.068 279.712 5.452C279.496 5.836 279.176 6.128 278.752 6.328C278.336 6.528 277.824 6.628 277.216 6.628H274.852V10H273.868ZM274.852 5.8H277.096C277.744 5.8 278.232 5.656 278.56 5.368C278.896 5.072 279.064 4.644 279.064 4.084C279.064 3.516 278.896 3.088 278.56 2.8C278.232 2.504 277.744 2.356 277.096 2.356H274.852V5.8ZM283.7 10.108C283.084 10.108 282.552 9.988 282.104 9.748C281.664 9.5 281.32 9.152 281.072 8.704C280.832 8.256 280.712 7.72 280.712 7.096C280.712 6.488 280.832 5.96 281.072 5.512C281.312 5.056 281.64 4.7 282.056 4.444C282.48 4.188 282.968 4.06 283.52 4.06C284.048 4.06 284.5 4.176 284.876 4.408C285.252 4.64 285.54 4.968 285.74 5.392C285.948 5.816 286.052 6.324 286.052 6.916V7.288H281.456V6.652H285.404L285.212 6.808C285.212 6.168 285.068 5.672 284.78 5.32C284.5 4.96 284.088 4.78 283.544 4.78C283.136 4.78 282.788 4.876 282.5 5.068C282.22 5.252 282.008 5.512 281.864 5.848C281.72 6.176 281.648 6.56 281.648 7V7.072C281.648 7.56 281.724 7.972 281.876 8.308C282.036 8.644 282.272 8.9 282.584 9.076C282.896 9.244 283.268 9.328 283.7 9.328C284.044 9.328 284.376 9.276 284.696 9.172C285.024 9.06 285.332 8.88 285.62 8.632L285.956 9.316C285.692 9.556 285.356 9.748 284.948 9.892C284.54 10.036 284.124 10.108 283.7 10.108ZM287.459 10V4.168H288.407V5.548H288.287C288.423 5.076 288.659 4.72 288.995 4.48C289.331 4.232 289.775 4.088 290.327 4.048L290.675 4.012L290.747 4.852L290.135 4.924C289.591 4.972 289.171 5.148 288.875 5.452C288.587 5.748 288.443 6.156 288.443 6.676V10H287.459ZM292.388 10V4.924H291.236V4.168H292.652L292.388 4.42V3.964C292.388 3.188 292.58 2.6 292.964 2.2C293.356 1.8 293.956 1.576 294.764 1.528L295.232 1.504L295.316 2.248L294.764 2.284C294.436 2.308 294.168 2.38 293.96 2.5C293.752 2.62 293.6 2.792 293.504 3.016C293.408 3.24 293.36 3.516 293.36 3.844V4.348L293.216 4.168H295.04V4.924H293.36V10H292.388ZM298.536 10.108C297.92 10.108 297.388 9.988 296.94 9.748C296.5 9.5 296.156 9.152 295.908 8.704C295.668 8.256 295.548 7.72 295.548 7.096C295.548 6.488 295.668 5.96 295.908 5.512C296.148 5.056 296.476 4.7 296.892 4.444C297.316 4.188 297.804 4.06 298.356 4.06C298.884 4.06 299.336 4.176 299.712 4.408C300.088 4.64 300.376 4.968 300.576 5.392C300.784 5.816 300.888 6.324 300.888 6.916V7.288H296.292V6.652H300.24L300.048 6.808C300.048 6.168 299.904 5.672 299.616 5.32C299.336 4.96 298.924 4.78 298.38 4.78C297.972 4.78 297.624 4.876 297.336 5.068C297.056 5.252 296.844 5.512 296.7 5.848C296.556 6.176 296.484 6.56 296.484 7V7.072C296.484 7.56 296.56 7.972 296.712 8.308C296.872 8.644 297.108 8.9 297.42 9.076C297.732 9.244 298.104 9.328 298.536 9.328C298.88 9.328 299.212 9.276 299.532 9.172C299.86 9.06 300.168 8.88 300.456 8.632L300.792 9.316C300.528 9.556 300.192 9.748 299.784 9.892C299.376 10.036 298.96 10.108 298.536 10.108ZM304.767 10.108C304.183 10.108 303.679 9.98 303.255 9.724C302.831 9.468 302.503 9.112 302.271 8.656C302.047 8.192 301.935 7.656 301.935 7.048C301.935 6.432 302.047 5.9 302.271 5.452C302.503 5.004 302.831 4.66 303.255 4.42C303.679 4.18 304.183 4.06 304.767 4.06C305.127 4.06 305.483 4.124 305.835 4.252C306.187 4.38 306.479 4.56 306.711 4.792L306.375 5.5C306.143 5.276 305.887 5.112 305.607 5.008C305.335 4.904 305.075 4.852 304.827 4.852C304.219 4.852 303.751 5.044 303.423 5.428C303.095 5.804 302.931 6.348 302.931 7.06C302.931 7.756 303.095 8.308 303.423 8.716C303.751 9.116 304.219 9.316 304.827 9.316C305.075 9.316 305.335 9.264 305.607 9.16C305.887 9.056 306.143 8.888 306.375 8.656L306.711 9.364C306.479 9.596 306.183 9.78 305.823 9.916C305.471 10.044 305.119 10.108 304.767 10.108ZM310.19 10.108C309.502 10.108 308.986 9.924 308.642 9.556C308.298 9.188 308.126 8.664 308.126 7.984V4.924H306.986V4.168H308.126V2.38H309.098V4.168H310.946V4.924H309.098V7.888C309.098 8.344 309.194 8.692 309.386 8.932C309.578 9.164 309.89 9.28 310.322 9.28C310.45 9.28 310.578 9.264 310.706 9.232C310.834 9.2 310.95 9.168 311.054 9.136L311.222 9.88C311.118 9.936 310.966 9.988 310.766 10.036C310.566 10.084 310.374 10.108 310.19 10.108ZM1.044 26V17.54H6.276V18.368H2.028V21.32H6.036V22.148H2.028V26H1.044ZM9.68756 26.108C9.11956 26.108 8.62756 25.984 8.21156 25.736C7.79556 25.488 7.47156 25.14 7.23956 24.692C7.01556 24.236 6.90356 23.7 6.90356 23.084C6.90356 22.468 7.01556 21.936 7.23956 21.488C7.47156 21.032 7.79556 20.68 8.21156 20.432C8.62756 20.184 9.11956 20.06 9.68756 20.06C10.2556 20.06 10.7476 20.184 11.1636 20.432C11.5796 20.68 11.8996 21.032 12.1236 21.488C12.3556 21.936 12.4716 22.468 12.4716 23.084C12.4716 23.7 12.3556 24.236 12.1236 24.692C11.8996 25.14 11.5796 25.488 11.1636 25.736C10.7476 25.984 10.2556 26.108 9.68756 26.108ZM9.68756 25.328C10.2396 25.328 10.6756 25.136 10.9956 24.752C11.3236 24.36 11.4876 23.8 11.4876 23.072C11.4876 22.352 11.3236 21.8 10.9956 21.416C10.6756 21.032 10.2396 20.84 9.68756 20.84C9.14356 20.84 8.70756 21.032 8.37956 21.416C8.05156 21.8 7.88756 22.352 7.88756 23.072C7.88756 23.8 8.05156 24.36 8.37956 24.752C8.70756 25.136 9.14356 25.328 9.68756 25.328ZM13.9315 26V20.168H14.8795V21.548H14.7595C14.8955 21.076 15.1315 20.72 15.4675 20.48C15.8035 20.232 16.2475 20.088 16.7995 20.048L17.1475 20.012L17.2195 20.852L16.6075 20.924C16.0635 20.972 15.6435 21.148 15.3475 21.452C15.0595 21.748 14.9155 22.156 14.9155 22.676V26H13.9315ZM21.4463 26V17.54H22.4303V25.136H26.7383V26H21.4463ZM29.666 26.108C29.266 26.108 28.906 26.032 28.586 25.88C28.274 25.72 28.026 25.504 27.842 25.232C27.658 24.96 27.566 24.656 27.566 24.32C27.566 23.888 27.674 23.548 27.89 23.3C28.114 23.052 28.478 22.876 28.982 22.772C29.494 22.668 30.19 22.616 31.07 22.616H31.61V23.252H31.082C30.594 23.252 30.186 23.268 29.858 23.3C29.53 23.332 29.27 23.388 29.078 23.468C28.886 23.548 28.75 23.652 28.67 23.78C28.59 23.908 28.55 24.068 28.55 24.26C28.55 24.588 28.662 24.856 28.886 25.064C29.118 25.272 29.43 25.376 29.822 25.376C30.142 25.376 30.422 25.3 30.662 25.148C30.91 24.996 31.102 24.788 31.238 24.524C31.382 24.26 31.454 23.956 31.454 23.612V22.244C31.454 21.748 31.354 21.392 31.154 21.176C30.954 20.952 30.626 20.84 30.17 20.84C29.818 20.84 29.478 20.892 29.15 20.996C28.822 21.092 28.486 21.252 28.142 21.476L27.806 20.768C28.014 20.624 28.25 20.5 28.514 20.396C28.778 20.284 29.054 20.2 29.342 20.144C29.63 20.088 29.906 20.06 30.17 20.06C30.674 20.06 31.09 20.144 31.418 20.312C31.746 20.472 31.99 20.72 32.15 21.056C32.31 21.384 32.39 21.808 32.39 22.328V26H31.478V24.644H31.586C31.522 24.948 31.398 25.208 31.214 25.424C31.038 25.64 30.818 25.808 30.554 25.928C30.29 26.048 29.994 26.108 29.666 26.108ZM34.1933 26V20.168H35.1413V21.548H35.0213C35.1573 21.076 35.3933 20.72 35.7293 20.48C36.0653 20.232 36.5093 20.088 37.0613 20.048L37.4093 20.012L37.4813 20.852L36.8693 20.924C36.3253 20.972 35.9053 21.148 35.6093 21.452C35.3213 21.748 35.1773 22.156 35.1773 22.676V26H34.1933ZM41.0037 28.268C40.4997 28.268 40.0237 28.2 39.5757 28.064C39.1357 27.936 38.7437 27.74 38.3997 27.476L38.7237 26.768C38.9637 26.936 39.1997 27.072 39.4317 27.176C39.6717 27.288 39.9157 27.368 40.1637 27.416C40.4197 27.464 40.6837 27.488 40.9557 27.488C41.5237 27.488 41.9517 27.336 42.2397 27.032C42.5357 26.728 42.6837 26.288 42.6837 25.712V24.356H42.8037C42.6837 24.82 42.4277 25.188 42.0357 25.46C41.6517 25.732 41.1997 25.868 40.6797 25.868C40.1437 25.868 39.6797 25.748 39.2877 25.508C38.8957 25.26 38.5917 24.916 38.3757 24.476C38.1677 24.036 38.0637 23.528 38.0637 22.952C38.0637 22.376 38.1677 21.872 38.3757 21.44C38.5917 21 38.8957 20.66 39.2877 20.42C39.6797 20.18 40.1437 20.06 40.6797 20.06C41.2077 20.06 41.6637 20.196 42.0477 20.468C42.4317 20.732 42.6797 21.092 42.7917 21.548H42.6837V20.168H43.6317V25.58C43.6317 26.172 43.5317 26.668 43.3317 27.068C43.1397 27.468 42.8477 27.768 42.4557 27.968C42.0637 28.168 41.5797 28.268 41.0037 28.268ZM40.8597 25.076C41.4197 25.076 41.8637 24.884 42.1917 24.5C42.5197 24.116 42.6837 23.6 42.6837 22.952C42.6837 22.304 42.5197 21.792 42.1917 21.416C41.8637 21.032 41.4197 20.84 40.8597 20.84C40.3077 20.84 39.8677 21.032 39.5397 21.416C39.2117 21.792 39.0477 22.304 39.0477 22.952C39.0477 23.6 39.2117 24.116 39.5397 24.5C39.8677 24.884 40.3077 25.076 40.8597 25.076ZM48.083 26.108C47.467 26.108 46.935 25.988 46.487 25.748C46.047 25.5 45.703 25.152 45.455 24.704C45.215 24.256 45.095 23.72 45.095 23.096C45.095 22.488 45.215 21.96 45.455 21.512C45.695 21.056 46.023 20.7 46.439 20.444C46.863 20.188 47.351 20.06 47.903 20.06C48.431 20.06 48.883 20.176 49.259 20.408C49.635 20.64 49.923 20.968 50.123 21.392C50.331 21.816 50.435 22.324 50.435 22.916V23.288H45.839V22.652H49.787L49.595 22.808C49.595 22.168 49.451 21.672 49.163 21.32C48.883 20.96 48.471 20.78 47.927 20.78C47.519 20.78 47.171 20.876 46.883 21.068C46.603 21.252 46.391 21.512 46.247 21.848C46.103 22.176 46.031 22.56 46.031 23V23.072C46.031 23.56 46.107 23.972 46.259 24.308C46.419 24.644 46.655 24.9 46.967 25.076C47.279 25.244 47.651 25.328 48.083 25.328C48.427 25.328 48.759 25.276 49.079 25.172C49.407 25.06 49.715 24.88 50.003 24.632L50.339 25.316C50.075 25.556 49.739 25.748 49.331 25.892C48.923 26.036 48.507 26.108 48.083 26.108ZM55.0797 26V17.54H55.9077L59.3397 23.984H58.9797L62.3877 17.54H63.2157V26H62.3037V18.86H62.5917L59.4837 24.692H58.8357L55.6917 18.848H55.9797V26H55.0797ZM67.8173 26.108C67.2013 26.108 66.6693 25.988 66.2213 25.748C65.7813 25.5 65.4373 25.152 65.1893 24.704C64.9493 24.256 64.8293 23.72 64.8293 23.096C64.8293 22.488 64.9493 21.96 65.1893 21.512C65.4293 21.056 65.7573 20.7 66.1733 20.444C66.5973 20.188 67.0853 20.06 67.6373 20.06C68.1653 20.06 68.6173 20.176 68.9933 20.408C69.3693 20.64 69.6573 20.968 69.8573 21.392C70.0653 21.816 70.1693 22.324 70.1693 22.916V23.288H65.5733V22.652H69.5213L69.3293 22.808C69.3293 22.168 69.1853 21.672 68.8973 21.32C68.6173 20.96 68.2053 20.78 67.6613 20.78C67.2533 20.78 66.9053 20.876 66.6173 21.068C66.3373 21.252 66.1253 21.512 65.9813 21.848C65.8373 22.176 65.7653 22.56 65.7653 23V23.072C65.7653 23.56 65.8413 23.972 65.9933 24.308C66.1533 24.644 66.3893 24.9 66.7013 25.076C67.0133 25.244 67.3853 25.328 67.8173 25.328C68.1613 25.328 68.4933 25.276 68.8133 25.172C69.1413 25.06 69.4493 24.88 69.7373 24.632L70.0733 25.316C69.8093 25.556 69.4733 25.748 69.0653 25.892C68.6573 26.036 68.2413 26.108 67.8173 26.108ZM73.4121 26.108C73.0121 26.108 72.6521 26.032 72.3321 25.88C72.0201 25.72 71.7721 25.504 71.5881 25.232C71.4041 24.96 71.3121 24.656 71.3121 24.32C71.3121 23.888 71.4201 23.548 71.6361 23.3C71.8601 23.052 72.2241 22.876 72.7281 22.772C73.2401 22.668 73.9361 22.616 74.8161 22.616H75.3561V23.252H74.8281C74.3401 23.252 73.9321 23.268 73.6041 23.3C73.2761 23.332 73.0161 23.388 72.8241 23.468C72.6321 23.548 72.4961 23.652 72.4161 23.78C72.3361 23.908 72.2961 24.068 72.2961 24.26C72.2961 24.588 72.4081 24.856 72.6321 25.064C72.8641 25.272 73.1761 25.376 73.5681 25.376C73.8881 25.376 74.1681 25.3 74.4081 25.148C74.6561 24.996 74.8481 24.788 74.9841 24.524C75.1281 24.26 75.2001 23.956 75.2001 23.612V22.244C75.2001 21.748 75.1001 21.392 74.9001 21.176C74.7001 20.952 74.3721 20.84 73.9161 20.84C73.5641 20.84 73.2241 20.892 72.8961 20.996C72.5681 21.092 72.2321 21.252 71.8881 21.476L71.5521 20.768C71.7601 20.624 71.9961 20.5 72.2601 20.396C72.5241 20.284 72.8001 20.2 73.0881 20.144C73.3761 20.088 73.6521 20.06 73.9161 20.06C74.4201 20.06 74.8361 20.144 75.1641 20.312C75.4921 20.472 75.7361 20.72 75.8961 21.056C76.0561 21.384 76.1361 21.808 76.1361 22.328V26H75.2241V24.644H75.3321C75.2681 24.948 75.1441 25.208 74.9601 25.424C74.7841 25.64 74.5641 25.808 74.3001 25.928C74.0361 26.048 73.7401 26.108 73.4121 26.108ZM79.7273 26.108C79.1353 26.108 78.6873 25.932 78.3833 25.58C78.0873 25.228 77.9393 24.724 77.9393 24.068V17.54H78.9113V23.996C78.9113 24.276 78.9473 24.512 79.0193 24.704C79.0993 24.896 79.2153 25.04 79.3673 25.136C79.5193 25.232 79.7073 25.28 79.9313 25.28C80.0273 25.28 80.1193 25.276 80.2073 25.268C80.3033 25.252 80.3913 25.232 80.4713 25.208L80.4473 26.024C80.3193 26.048 80.1953 26.068 80.0753 26.084C79.9633 26.1 79.8473 26.108 79.7273 26.108ZM83.3995 26.108C83.0955 26.108 82.7995 26.076 82.5115 26.012C82.2315 25.956 81.9675 25.876 81.7195 25.772C81.4795 25.66 81.2715 25.528 81.0955 25.376L81.4075 24.692C81.5995 24.844 81.8075 24.972 82.0315 25.076C82.2555 25.172 82.4835 25.244 82.7155 25.292C82.9475 25.34 83.1835 25.364 83.4235 25.364C83.8795 25.364 84.2235 25.28 84.4555 25.112C84.6875 24.944 84.8035 24.716 84.8035 24.428C84.8035 24.204 84.7275 24.028 84.5755 23.9C84.4235 23.764 84.1835 23.66 83.8555 23.588L82.7635 23.348C82.2595 23.244 81.8835 23.064 81.6355 22.808C81.3955 22.552 81.2755 22.22 81.2755 21.812C81.2755 21.452 81.3675 21.144 81.5515 20.888C81.7435 20.624 82.0115 20.42 82.3555 20.276C82.6995 20.132 83.0995 20.06 83.5555 20.06C83.8275 20.06 84.0875 20.088 84.3355 20.144C84.5835 20.2 84.8155 20.284 85.0315 20.396C85.2555 20.5 85.4475 20.632 85.6075 20.792L85.2835 21.476C85.1315 21.332 84.9595 21.212 84.7675 21.116C84.5755 21.012 84.3755 20.936 84.1675 20.888C83.9675 20.832 83.7635 20.804 83.5555 20.804C83.1075 20.804 82.7675 20.892 82.5355 21.068C82.3035 21.244 82.1875 21.476 82.1875 21.764C82.1875 21.988 82.2595 22.172 82.4035 22.316C82.5475 22.46 82.7715 22.564 83.0755 22.628L84.1675 22.856C84.6875 22.968 85.0755 23.148 85.3315 23.396C85.5955 23.636 85.7275 23.964 85.7275 24.38C85.7275 24.732 85.6315 25.04 85.4395 25.304C85.2475 25.56 84.9755 25.76 84.6235 25.904C84.2795 26.04 83.8715 26.108 83.3995 26.108ZM87.4983 27.368L87.0423 27.02C87.1863 26.868 87.2943 26.724 87.3663 26.588C87.4463 26.46 87.4983 26.328 87.5223 26.192C87.5543 26.064 87.5703 25.932 87.5703 25.796L87.7863 26H86.9943V24.776H88.2183V25.64C88.2183 25.856 88.1943 26.06 88.1463 26.252C88.1063 26.452 88.0343 26.644 87.9303 26.828C87.8263 27.012 87.6823 27.192 87.4983 27.368ZM93.0948 26V17.54H96.4788C97.3428 17.54 98.0148 17.732 98.4948 18.116C98.9748 18.5 99.2148 19.044 99.2148 19.748C99.2148 20.276 99.0588 20.716 98.7468 21.068C98.4428 21.42 98.0268 21.652 97.4988 21.764V21.596C97.8988 21.644 98.2428 21.76 98.5308 21.944C98.8188 22.12 99.0388 22.356 99.1908 22.652C99.3428 22.94 99.4188 23.28 99.4188 23.672C99.4188 24.176 99.3068 24.604 99.0828 24.956C98.8668 25.3 98.5508 25.56 98.1348 25.736C97.7188 25.912 97.2148 26 96.6228 26H93.0948ZM94.0548 25.208H96.5268C96.7828 25.208 97.0108 25.188 97.2108 25.148C97.4188 25.108 97.5988 25.048 97.7508 24.968C97.9028 24.88 98.0308 24.776 98.1348 24.656C98.2388 24.536 98.3148 24.392 98.3628 24.224C98.4188 24.056 98.4468 23.868 98.4468 23.66C98.4468 23.444 98.4188 23.256 98.3628 23.096C98.3148 22.928 98.2388 22.784 98.1348 22.664C98.0308 22.536 97.9028 22.432 97.7508 22.352C97.5988 22.272 97.4188 22.212 97.2108 22.172C97.0108 22.132 96.7828 22.112 96.5268 22.112H94.0548V25.208ZM94.0548 21.32H96.3348C96.9588 21.32 97.4308 21.192 97.7508 20.936C98.0788 20.68 98.2428 20.312 98.2428 19.832C98.2428 19.336 98.0788 18.964 97.7508 18.716C97.4308 18.46 96.9588 18.332 96.3348 18.332H94.0548V21.32ZM100.952 18.716V17.624H102.152V18.716H100.952ZM101.072 26V20.168H102.044V26H101.072ZM103.861 26V20.168H104.809V21.548H104.689C104.825 21.076 105.061 20.72 105.397 20.48C105.733 20.232 106.177 20.088 106.729 20.048L107.077 20.012L107.149 20.852L106.537 20.924C105.993 20.972 105.573 21.148 105.277 21.452C104.989 21.748 104.845 22.156 104.845 22.676V26H103.861ZM109.197 28.16L110.289 25.7V26.12L107.733 20.168H108.789L110.877 25.28H110.553L112.665 20.168H113.685L110.217 28.16H109.197ZM116.408 26.108C116.008 26.108 115.648 26.032 115.328 25.88C115.016 25.72 114.768 25.504 114.584 25.232C114.4 24.96 114.308 24.656 114.308 24.32C114.308 23.888 114.416 23.548 114.632 23.3C114.856 23.052 115.22 22.876 115.724 22.772C116.236 22.668 116.932 22.616 117.812 22.616H118.352V23.252H117.824C117.336 23.252 116.928 23.268 116.6 23.3C116.272 23.332 116.012 23.388 115.82 23.468C115.628 23.548 115.492 23.652 115.412 23.78C115.332 23.908 115.292 24.068 115.292 24.26C115.292 24.588 115.404 24.856 115.628 25.064C115.86 25.272 116.172 25.376 116.564 25.376C116.884 25.376 117.164 25.3 117.404 25.148C117.652 24.996 117.844 24.788 117.98 24.524C118.124 24.26 118.196 23.956 118.196 23.612V22.244C118.196 21.748 118.096 21.392 117.896 21.176C117.696 20.952 117.368 20.84 116.912 20.84C116.56 20.84 116.22 20.892 115.892 20.996C115.564 21.092 115.228 21.252 114.884 21.476L114.548 20.768C114.756 20.624 114.992 20.5 115.256 20.396C115.52 20.284 115.796 20.2 116.084 20.144C116.372 20.088 116.648 20.06 116.912 20.06C117.416 20.06 117.832 20.144 118.16 20.312C118.488 20.472 118.732 20.72 118.892 21.056C119.052 21.384 119.132 21.808 119.132 22.328V26H118.22V24.644H118.328C118.264 24.948 118.14 25.208 117.956 25.424C117.78 25.64 117.56 25.808 117.296 25.928C117.032 26.048 116.736 26.108 116.408 26.108ZM120.935 26V20.168H121.883V21.464H121.751C121.919 21 122.191 20.652 122.567 20.42C122.951 20.18 123.391 20.06 123.887 20.06C124.351 20.06 124.735 20.144 125.039 20.312C125.351 20.472 125.583 20.724 125.735 21.068C125.887 21.412 125.963 21.844 125.963 22.364V26H124.991V22.424C124.991 22.064 124.943 21.768 124.847 21.536C124.759 21.304 124.615 21.132 124.415 21.02C124.223 20.908 123.971 20.852 123.659 20.852C123.307 20.852 122.999 20.928 122.735 21.08C122.471 21.232 122.267 21.444 122.123 21.716C121.979 21.988 121.907 22.308 121.907 22.676V26H120.935ZM127.636 18.716V17.624H128.836V18.716H127.636ZM127.756 26V20.168H128.728V26H127.756ZM130.893 27.368L130.437 27.02C130.581 26.868 130.689 26.724 130.761 26.588C130.841 26.46 130.893 26.328 130.917 26.192C130.949 26.064 130.965 25.932 130.965 25.796L131.181 26H130.389V24.776H131.613V25.64C131.613 25.856 131.589 26.06 131.541 26.252C131.501 26.452 131.429 26.644 131.325 26.828C131.221 27.012 131.077 27.192 130.893 27.368ZM136.26 26.108C135.82 26.108 135.404 26.068 135.012 25.988C134.628 25.908 134.272 25.796 133.944 25.652C133.624 25.5 133.332 25.316 133.068 25.1L133.416 24.308C133.688 24.508 133.964 24.68 134.244 24.824C134.532 24.96 134.84 25.064 135.168 25.136C135.504 25.2 135.868 25.232 136.26 25.232C136.98 25.232 137.512 25.1 137.856 24.836C138.208 24.564 138.384 24.208 138.384 23.768C138.384 23.536 138.328 23.336 138.216 23.168C138.112 23 137.936 22.856 137.688 22.736C137.448 22.616 137.132 22.516 136.74 22.436L135.492 22.184C134.74 22.024 134.176 21.764 133.8 21.404C133.432 21.036 133.248 20.548 133.248 19.94C133.248 19.436 133.376 18.996 133.632 18.62C133.896 18.244 134.26 17.952 134.724 17.744C135.196 17.536 135.732 17.432 136.332 17.432C136.716 17.432 137.08 17.472 137.424 17.552C137.768 17.632 138.084 17.752 138.372 17.912C138.668 18.064 138.928 18.252 139.152 18.476L138.804 19.244C138.444 18.916 138.064 18.68 137.664 18.536C137.264 18.384 136.816 18.308 136.32 18.308C135.896 18.308 135.528 18.372 135.216 18.5C134.912 18.628 134.672 18.816 134.496 19.064C134.328 19.304 134.244 19.584 134.244 19.904C134.244 20.288 134.36 20.592 134.592 20.816C134.832 21.04 135.22 21.204 135.756 21.308L137.004 21.572C137.812 21.74 138.408 21.996 138.792 22.34C139.184 22.676 139.38 23.136 139.38 23.72C139.38 24.184 139.252 24.6 138.996 24.968C138.748 25.328 138.388 25.608 137.916 25.808C137.452 26.008 136.9 26.108 136.26 26.108ZM142.611 26.108C142.211 26.108 141.851 26.032 141.531 25.88C141.219 25.72 140.971 25.504 140.787 25.232C140.603 24.96 140.511 24.656 140.511 24.32C140.511 23.888 140.619 23.548 140.835 23.3C141.059 23.052 141.423 22.876 141.927 22.772C142.439 22.668 143.135 22.616 144.015 22.616H144.555V23.252H144.027C143.539 23.252 143.131 23.268 142.803 23.3C142.475 23.332 142.215 23.388 142.023 23.468C141.831 23.548 141.695 23.652 141.615 23.78C141.535 23.908 141.495 24.068 141.495 24.26C141.495 24.588 141.607 24.856 141.831 25.064C142.063 25.272 142.375 25.376 142.767 25.376C143.087 25.376 143.367 25.3 143.607 25.148C143.855 24.996 144.047 24.788 144.183 24.524C144.327 24.26 144.399 23.956 144.399 23.612V22.244C144.399 21.748 144.299 21.392 144.099 21.176C143.899 20.952 143.571 20.84 143.115 20.84C142.763 20.84 142.423 20.892 142.095 20.996C141.767 21.092 141.431 21.252 141.087 21.476L140.751 20.768C140.959 20.624 141.195 20.5 141.459 20.396C141.723 20.284 141.999 20.2 142.287 20.144C142.575 20.088 142.851 20.06 143.115 20.06C143.619 20.06 144.035 20.144 144.363 20.312C144.691 20.472 144.935 20.72 145.095 21.056C145.255 21.384 145.335 21.808 145.335 22.328V26H144.423V24.644H144.531C144.467 24.948 144.343 25.208 144.159 25.424C143.983 25.64 143.763 25.808 143.499 25.928C143.235 26.048 142.939 26.108 142.611 26.108ZM148.927 26.108C148.335 26.108 147.887 25.932 147.583 25.58C147.287 25.228 147.139 24.724 147.139 24.068V17.54H148.111V23.996C148.111 24.276 148.147 24.512 148.219 24.704C148.299 24.896 148.415 25.04 148.567 25.136C148.719 25.232 148.907 25.28 149.131 25.28C149.227 25.28 149.319 25.276 149.407 25.268C149.503 25.252 149.591 25.232 149.671 25.208L149.647 26.024C149.519 26.048 149.395 26.068 149.275 26.084C149.163 26.1 149.047 26.108 148.927 26.108ZM152.525 26.108C152.125 26.108 151.765 26.032 151.445 25.88C151.133 25.72 150.885 25.504 150.701 25.232C150.517 24.96 150.425 24.656 150.425 24.32C150.425 23.888 150.533 23.548 150.749 23.3C150.973 23.052 151.337 22.876 151.841 22.772C152.353 22.668 153.049 22.616 153.929 22.616H154.469V23.252H153.941C153.453 23.252 153.045 23.268 152.717 23.3C152.389 23.332 152.129 23.388 151.937 23.468C151.745 23.548 151.609 23.652 151.529 23.78C151.449 23.908 151.409 24.068 151.409 24.26C151.409 24.588 151.521 24.856 151.745 25.064C151.977 25.272 152.289 25.376 152.681 25.376C153.001 25.376 153.281 25.3 153.521 25.148C153.769 24.996 153.961 24.788 154.097 24.524C154.241 24.26 154.313 23.956 154.313 23.612V22.244C154.313 21.748 154.213 21.392 154.013 21.176C153.813 20.952 153.485 20.84 153.029 20.84C152.677 20.84 152.337 20.892 152.009 20.996C151.681 21.092 151.345 21.252 151.001 21.476L150.665 20.768C150.873 20.624 151.109 20.5 151.373 20.396C151.637 20.284 151.913 20.2 152.201 20.144C152.489 20.088 152.765 20.06 153.029 20.06C153.533 20.06 153.949 20.144 154.277 20.312C154.605 20.472 154.849 20.72 155.009 21.056C155.169 21.384 155.249 21.808 155.249 22.328V26H154.337V24.644H154.445C154.381 24.948 154.257 25.208 154.073 25.424C153.897 25.64 153.677 25.808 153.413 25.928C153.149 26.048 152.853 26.108 152.525 26.108ZM159.273 26.108C158.753 26.108 158.297 25.984 157.905 25.736C157.521 25.488 157.221 25.14 157.005 24.692C156.797 24.236 156.693 23.7 156.693 23.084C156.693 22.46 156.797 21.924 157.005 21.476C157.221 21.02 157.521 20.672 157.905 20.432C158.297 20.184 158.753 20.06 159.273 20.06C159.801 20.06 160.253 20.192 160.629 20.456C161.005 20.72 161.257 21.076 161.385 21.524H161.253V17.54H162.225V26H161.277V24.608H161.397C161.269 25.064 161.013 25.428 160.629 25.7C160.253 25.972 159.801 26.108 159.273 26.108ZM159.477 25.328C160.029 25.328 160.465 25.136 160.785 24.752C161.113 24.36 161.277 23.804 161.277 23.084C161.277 22.356 161.113 21.8 160.785 21.416C160.465 21.032 160.029 20.84 159.477 20.84C158.933 20.84 158.497 21.032 158.169 21.416C157.841 21.8 157.677 22.356 157.677 23.084C157.677 23.804 157.841 24.36 158.169 24.752C158.497 25.136 158.933 25.328 159.477 25.328ZM166.017 26.108C165.713 26.108 165.417 26.076 165.129 26.012C164.849 25.956 164.585 25.876 164.337 25.772C164.097 25.66 163.889 25.528 163.713 25.376L164.025 24.692C164.217 24.844 164.425 24.972 164.649 25.076C164.873 25.172 165.101 25.244 165.333 25.292C165.565 25.34 165.801 25.364 166.041 25.364C166.497 25.364 166.841 25.28 167.073 25.112C167.305 24.944 167.421 24.716 167.421 24.428C167.421 24.204 167.345 24.028 167.193 23.9C167.041 23.764 166.801 23.66 166.473 23.588L165.381 23.348C164.877 23.244 164.501 23.064 164.253 22.808C164.013 22.552 163.893 22.22 163.893 21.812C163.893 21.452 163.985 21.144 164.169 20.888C164.361 20.624 164.629 20.42 164.973 20.276C165.317 20.132 165.717 20.06 166.173 20.06C166.445 20.06 166.705 20.088 166.953 20.144C167.201 20.2 167.433 20.284 167.649 20.396C167.873 20.5 168.065 20.632 168.225 20.792L167.901 21.476C167.749 21.332 167.577 21.212 167.385 21.116C167.193 21.012 166.993 20.936 166.785 20.888C166.585 20.832 166.381 20.804 166.173 20.804C165.725 20.804 165.385 20.892 165.153 21.068C164.921 21.244 164.805 21.476 164.805 21.764C164.805 21.988 164.877 22.172 165.021 22.316C165.165 22.46 165.389 22.564 165.693 22.628L166.785 22.856C167.305 22.968 167.693 23.148 167.949 23.396C168.213 23.636 168.345 23.964 168.345 24.38C168.345 24.732 168.249 25.04 168.057 25.304C167.865 25.56 167.593 25.76 167.241 25.904C166.897 26.04 166.489 26.108 166.017 26.108ZM170.115 27.368L169.659 27.02C169.803 26.868 169.911 26.724 169.983 26.588C170.063 26.46 170.115 26.328 170.139 26.192C170.171 26.064 170.187 25.932 170.187 25.796L170.403 26H169.611V24.776H170.835V25.64C170.835 25.856 170.811 26.06 170.763 26.252C170.723 26.452 170.651 26.644 170.547 26.828C170.443 27.012 170.299 27.192 170.115 27.368ZM178.448 26.108C178.008 26.108 177.592 26.068 177.2 25.988C176.816 25.908 176.46 25.796 176.132 25.652C175.812 25.5 175.52 25.316 175.256 25.1L175.604 24.308C175.876 24.508 176.152 24.68 176.432 24.824C176.72 24.96 177.028 25.064 177.356 25.136C177.692 25.2 178.056 25.232 178.448 25.232C179.168 25.232 179.7 25.1 180.044 24.836C180.396 24.564 180.572 24.208 180.572 23.768C180.572 23.536 180.516 23.336 180.404 23.168C180.3 23 180.124 22.856 179.876 22.736C179.636 22.616 179.32 22.516 178.928 22.436L177.68 22.184C176.928 22.024 176.364 21.764 175.988 21.404C175.62 21.036 175.436 20.548 175.436 19.94C175.436 19.436 175.564 18.996 175.82 18.62C176.084 18.244 176.448 17.952 176.912 17.744C177.384 17.536 177.92 17.432 178.52 17.432C178.904 17.432 179.268 17.472 179.612 17.552C179.956 17.632 180.272 17.752 180.56 17.912C180.856 18.064 181.116 18.252 181.34 18.476L180.992 19.244C180.632 18.916 180.252 18.68 179.852 18.536C179.452 18.384 179.004 18.308 178.508 18.308C178.084 18.308 177.716 18.372 177.404 18.5C177.1 18.628 176.86 18.816 176.684 19.064C176.516 19.304 176.432 19.584 176.432 19.904C176.432 20.288 176.548 20.592 176.78 20.816C177.02 21.04 177.408 21.204 177.944 21.308L179.192 21.572C180 21.74 180.596 21.996 180.98 22.34C181.372 22.676 181.568 23.136 181.568 23.72C181.568 24.184 181.44 24.6 181.184 24.968C180.936 25.328 180.576 25.608 180.104 25.808C179.64 26.008 179.088 26.108 178.448 26.108ZM185.387 26.108C184.819 26.108 184.327 25.984 183.911 25.736C183.495 25.488 183.171 25.14 182.939 24.692C182.715 24.236 182.603 23.7 182.603 23.084C182.603 22.468 182.715 21.936 182.939 21.488C183.171 21.032 183.495 20.68 183.911 20.432C184.327 20.184 184.819 20.06 185.387 20.06C185.955 20.06 186.447 20.184 186.863 20.432C187.279 20.68 187.599 21.032 187.823 21.488C188.055 21.936 188.171 22.468 188.171 23.084C188.171 23.7 188.055 24.236 187.823 24.692C187.599 25.14 187.279 25.488 186.863 25.736C186.447 25.984 185.955 26.108 185.387 26.108ZM185.387 25.328C185.939 25.328 186.375 25.136 186.695 24.752C187.023 24.36 187.187 23.8 187.187 23.072C187.187 22.352 187.023 21.8 186.695 21.416C186.375 21.032 185.939 20.84 185.387 20.84C184.843 20.84 184.407 21.032 184.079 21.416C183.751 21.8 183.587 22.352 183.587 23.072C183.587 23.8 183.751 24.36 184.079 24.752C184.407 25.136 184.843 25.328 185.387 25.328ZM191.695 26.108C191.223 26.108 190.831 26.024 190.519 25.856C190.215 25.68 189.983 25.42 189.823 25.076C189.671 24.732 189.595 24.304 189.595 23.792V20.168H190.567V23.78C190.567 24.124 190.611 24.412 190.699 24.644C190.795 24.868 190.943 25.036 191.143 25.148C191.343 25.252 191.591 25.304 191.887 25.304C192.223 25.304 192.515 25.228 192.763 25.076C193.011 24.924 193.207 24.712 193.351 24.44C193.495 24.168 193.567 23.848 193.567 23.48V20.168H194.539V26H193.591V24.656H193.747C193.587 25.128 193.323 25.488 192.955 25.736C192.595 25.984 192.175 26.108 191.695 26.108ZM196.357 28.16V20.168H197.305V21.548H197.185C197.313 21.092 197.565 20.732 197.941 20.468C198.325 20.196 198.781 20.06 199.309 20.06C199.829 20.06 200.281 20.184 200.665 20.432C201.057 20.672 201.357 21.02 201.565 21.476C201.781 21.924 201.889 22.46 201.889 23.084C201.889 23.7 201.781 24.236 201.565 24.692C201.357 25.14 201.061 25.488 200.677 25.736C200.293 25.984 199.837 26.108 199.309 26.108C198.781 26.108 198.329 25.976 197.953 25.712C197.577 25.44 197.321 25.08 197.185 24.632H197.329V28.16H196.357ZM199.105 25.328C199.657 25.328 200.093 25.136 200.413 24.752C200.741 24.36 200.905 23.804 200.905 23.084C200.905 22.356 200.741 21.8 200.413 21.416C200.093 21.032 199.657 20.84 199.105 20.84C198.561 20.84 198.125 21.032 197.797 21.416C197.469 21.8 197.305 22.356 197.305 23.084C197.305 23.804 197.469 24.36 197.797 24.752C198.125 25.136 198.561 25.328 199.105 25.328ZM205.321 26.108C205.017 26.108 204.721 26.076 204.433 26.012C204.153 25.956 203.889 25.876 203.641 25.772C203.401 25.66 203.193 25.528 203.017 25.376L203.329 24.692C203.521 24.844 203.729 24.972 203.953 25.076C204.177 25.172 204.405 25.244 204.637 25.292C204.869 25.34 205.105 25.364 205.345 25.364C205.801 25.364 206.145 25.28 206.377 25.112C206.609 24.944 206.725 24.716 206.725 24.428C206.725 24.204 206.649 24.028 206.497 23.9C206.345 23.764 206.105 23.66 205.777 23.588L204.685 23.348C204.181 23.244 203.805 23.064 203.557 22.808C203.317 22.552 203.197 22.22 203.197 21.812C203.197 21.452 203.289 21.144 203.473 20.888C203.665 20.624 203.933 20.42 204.277 20.276C204.621 20.132 205.021 20.06 205.477 20.06C205.749 20.06 206.009 20.088 206.257 20.144C206.505 20.2 206.737 20.284 206.953 20.396C207.177 20.5 207.369 20.632 207.529 20.792L207.205 21.476C207.053 21.332 206.881 21.212 206.689 21.116C206.497 21.012 206.297 20.936 206.089 20.888C205.889 20.832 205.685 20.804 205.477 20.804C205.029 20.804 204.689 20.892 204.457 21.068C204.225 21.244 204.109 21.476 204.109 21.764C204.109 21.988 204.181 22.172 204.325 22.316C204.469 22.46 204.693 22.564 204.997 22.628L206.089 22.856C206.609 22.968 206.997 23.148 207.253 23.396C207.517 23.636 207.649 23.964 207.649 24.38C207.649 24.732 207.553 25.04 207.361 25.304C207.169 25.56 206.897 25.76 206.545 25.904C206.201 26.04 205.793 26.108 205.321 26.108ZM209.42 27.368L208.964 27.02C209.108 26.868 209.216 26.724 209.288 26.588C209.368 26.46 209.42 26.328 209.444 26.192C209.476 26.064 209.492 25.932 209.492 25.796L209.708 26H208.916V24.776H210.14V25.64C210.14 25.856 210.116 26.06 210.068 26.252C210.028 26.452 209.956 26.644 209.852 26.828C209.748 27.012 209.604 27.192 209.42 27.368ZM218.677 26.108C217.845 26.108 217.133 25.932 216.541 25.58C215.949 25.228 215.493 24.728 215.173 24.08C214.861 23.432 214.705 22.66 214.705 21.764C214.705 20.868 214.861 20.1 215.173 19.46C215.493 18.812 215.949 18.312 216.541 17.96C217.133 17.608 217.845 17.432 218.677 17.432C219.261 17.432 219.801 17.524 220.297 17.708C220.793 17.892 221.209 18.16 221.545 18.512L221.161 19.316C220.793 18.972 220.409 18.724 220.009 18.572C219.617 18.412 219.181 18.332 218.701 18.332C217.749 18.332 217.021 18.632 216.517 19.232C216.013 19.832 215.761 20.676 215.761 21.764C215.761 22.852 216.013 23.7 216.517 24.308C217.021 24.908 217.749 25.208 218.701 25.208C219.181 25.208 219.617 25.132 220.009 24.98C220.409 24.82 220.793 24.568 221.161 24.224L221.545 25.028C221.209 25.372 220.793 25.64 220.297 25.832C219.801 26.016 219.261 26.108 218.677 26.108ZM224.894 26.108C224.422 26.108 224.03 26.024 223.718 25.856C223.414 25.68 223.182 25.42 223.022 25.076C222.87 24.732 222.794 24.304 222.794 23.792V20.168H223.766V23.78C223.766 24.124 223.81 24.412 223.898 24.644C223.994 24.868 224.142 25.036 224.342 25.148C224.542 25.252 224.79 25.304 225.086 25.304C225.422 25.304 225.714 25.228 225.962 25.076C226.21 24.924 226.406 24.712 226.55 24.44C226.694 24.168 226.766 23.848 226.766 23.48V20.168H227.738V26H226.79V24.656H226.946C226.786 25.128 226.522 25.488 226.154 25.736C225.794 25.984 225.374 26.108 224.894 26.108ZM229.557 26V20.168H230.505V21.548H230.385C230.521 21.076 230.757 20.72 231.093 20.48C231.429 20.232 231.873 20.088 232.425 20.048L232.773 20.012L232.845 20.852L232.233 20.924C231.689 20.972 231.269 21.148 230.973 21.452C230.685 21.748 230.541 22.156 230.541 22.676V26H229.557ZM233.857 26V20.168H234.805V21.548H234.685C234.821 21.076 235.057 20.72 235.393 20.48C235.729 20.232 236.173 20.088 236.725 20.048L237.073 20.012L237.145 20.852L236.533 20.924C235.989 20.972 235.569 21.148 235.273 21.452C234.985 21.748 234.841 22.156 234.841 22.676V26H233.857ZM238.038 18.716V17.624H239.238V18.716H238.038ZM238.158 26V20.168H239.13V26H238.158ZM243.575 26.108C242.959 26.108 242.427 25.988 241.979 25.748C241.539 25.5 241.195 25.152 240.947 24.704C240.707 24.256 240.587 23.72 240.587 23.096C240.587 22.488 240.707 21.96 240.947 21.512C241.187 21.056 241.515 20.7 241.931 20.444C242.355 20.188 242.843 20.06 243.395 20.06C243.923 20.06 244.375 20.176 244.751 20.408C245.127 20.64 245.415 20.968 245.615 21.392C245.823 21.816 245.927 22.324 245.927 22.916V23.288H241.331V22.652H245.279L245.087 22.808C245.087 22.168 244.943 21.672 244.655 21.32C244.375 20.96 243.963 20.78 243.419 20.78C243.011 20.78 242.663 20.876 242.375 21.068C242.095 21.252 241.883 21.512 241.739 21.848C241.595 22.176 241.523 22.56 241.523 23V23.072C241.523 23.56 241.599 23.972 241.751 24.308C241.911 24.644 242.147 24.9 242.459 25.076C242.771 25.244 243.143 25.328 243.575 25.328C243.919 25.328 244.251 25.276 244.571 25.172C244.899 25.06 245.207 24.88 245.495 24.632L245.831 25.316C245.567 25.556 245.231 25.748 244.823 25.892C244.415 26.036 243.999 26.108 243.575 26.108ZM249.302 26.108C248.998 26.108 248.702 26.076 248.414 26.012C248.134 25.956 247.87 25.876 247.622 25.772C247.382 25.66 247.174 25.528 246.998 25.376L247.31 24.692C247.502 24.844 247.71 24.972 247.934 25.076C248.158 25.172 248.386 25.244 248.618 25.292C248.85 25.34 249.086 25.364 249.326 25.364C249.782 25.364 250.126 25.28 250.358 25.112C250.59 24.944 250.706 24.716 250.706 24.428C250.706 24.204 250.63 24.028 250.478 23.9C250.326 23.764 250.086 23.66 249.758 23.588L248.666 23.348C248.162 23.244 247.786 23.064 247.538 22.808C247.298 22.552 247.178 22.22 247.178 21.812C247.178 21.452 247.27 21.144 247.454 20.888C247.646 20.624 247.914 20.42 248.258 20.276C248.602 20.132 249.002 20.06 249.458 20.06C249.73 20.06 249.99 20.088 250.238 20.144C250.486 20.2 250.718 20.284 250.934 20.396C251.158 20.5 251.35 20.632 251.51 20.792L251.186 21.476C251.034 21.332 250.862 21.212 250.67 21.116C250.478 21.012 250.278 20.936 250.07 20.888C249.87 20.832 249.666 20.804 249.458 20.804C249.01 20.804 248.67 20.892 248.438 21.068C248.206 21.244 248.09 21.476 248.09 21.764C248.09 21.988 248.162 22.172 248.306 22.316C248.45 22.46 248.674 22.564 248.978 22.628L250.07 22.856C250.59 22.968 250.978 23.148 251.234 23.396C251.498 23.636 251.63 23.964 251.63 24.38C251.63 24.732 251.534 25.04 251.342 25.304C251.15 25.56 250.878 25.76 250.526 25.904C250.182 26.04 249.774 26.108 249.302 26.108ZM252.897 26V24.776H254.121V26H252.897Z" fill="black"/>
</svg>
