<svg width="314" height="28" viewBox="0 0 314 28" fill="none" xmlns="http://www.w3.org/2000/svg">
<path d="M0.0440001 9V0.539999H2.9C3.82 0.539999 4.596 0.704 5.228 1.032C5.868 1.352 6.352 1.828 6.68 2.46C7.016 3.084 7.184 3.852 7.184 4.764C7.184 5.676 7.016 6.448 6.68 7.08C6.352 7.712 5.868 8.192 5.228 8.52C4.596 8.84 3.82 9 2.9 9H0.0440001ZM1.028 8.16H2.828C3.94 8.16 4.768 7.876 5.312 7.308C5.864 6.74 6.14 5.892 6.14 4.764C6.14 3.636 5.864 2.792 5.312 2.232C4.76 1.664 3.932 1.38 2.828 1.38H1.028V8.16ZM10.8823 9.108C10.4103 9.108 10.0183 9.024 9.70625 8.856C9.40225 8.68 9.17025 8.42 9.01025 8.076C8.85825 7.732 8.78225 7.304 8.78225 6.792V3.168H9.75425V6.78C9.75425 7.124 9.79825 7.412 9.88625 7.644C9.98225 7.868 10.1303 8.036 10.3303 8.148C10.5303 8.252 10.7783 8.304 11.0742 8.304C11.4103 8.304 11.7023 8.228 11.9503 8.076C12.1983 7.924 12.3943 7.712 12.5383 7.44C12.6823 7.168 12.7543 6.848 12.7543 6.48V3.168H13.7263V9H12.7783V7.656H12.9343C12.7743 8.128 12.5103 8.488 12.1423 8.736C11.7823 8.984 11.3623 9.108 10.8823 9.108ZM15.5448 9V3.168H16.4928V4.548H16.3728C16.5088 4.076 16.7448 3.72 17.0808 3.48C17.4168 3.232 17.8608 3.088 18.4128 3.048L18.7608 3.012L18.8328 3.852L18.2208 3.924C17.6768 3.972 17.2568 4.148 16.9608 4.452C16.6728 4.748 16.5288 5.156 16.5288 5.676V9H15.5448ZM21.623 9.108C21.223 9.108 20.863 9.032 20.543 8.88C20.231 8.72 19.983 8.504 19.799 8.232C19.615 7.96 19.523 7.656 19.523 7.32C19.523 6.888 19.631 6.548 19.847 6.3C20.071 6.052 20.435 5.876 20.939 5.772C21.451 5.668 22.147 5.616 23.027 5.616H23.567V6.252H23.039C22.551 6.252 22.143 6.268 21.815 6.3C21.487 6.332 21.227 6.388 21.035 6.468C20.843 6.548 20.707 6.652 20.627 6.78C20.547 6.908 20.507 7.068 20.507 7.26C20.507 7.588 20.619 7.856 20.843 8.064C21.075 8.272 21.387 8.376 21.779 8.376C22.099 8.376 22.379 8.3 22.619 8.148C22.867 7.996 23.059 7.788 23.195 7.524C23.339 7.26 23.411 6.956 23.411 6.612V5.244C23.411 4.748 23.311 4.392 23.111 4.176C22.911 3.952 22.583 3.84 22.127 3.84C21.775 3.84 21.435 3.892 21.107 3.996C20.779 4.092 20.443 4.252 20.099 4.476L19.763 3.768C19.971 3.624 20.207 3.5 20.471 3.396C20.735 3.284 21.011 3.2 21.299 3.144C21.587 3.088 21.863 3.06 22.127 3.06C22.631 3.06 23.047 3.144 23.375 3.312C23.703 3.472 23.947 3.72 24.107 4.056C24.267 4.384 24.347 4.808 24.347 5.328V9H23.435V7.644H23.543C23.479 7.948 23.355 8.208 23.171 8.424C22.995 8.64 22.775 8.808 22.511 8.928C22.247 9.048 21.951 9.108 21.623 9.108ZM29.1023 9.108C28.5743 9.108 28.1183 8.972 27.7343 8.7C27.3583 8.428 27.1063 8.064 26.9783 7.608H27.0983V9H26.1503V0.539999H27.1223V4.524H26.9783C27.1143 4.076 27.3703 3.72 27.7463 3.456C28.1223 3.192 28.5743 3.06 29.1023 3.06C29.6303 3.06 30.0863 3.184 30.4703 3.432C30.8543 3.672 31.1503 4.02 31.3583 4.476C31.5743 4.924 31.6823 5.46 31.6823 6.084C31.6823 6.7 31.5743 7.236 31.3583 7.692C31.1503 8.14 30.8503 8.488 30.4583 8.736C30.0743 8.984 29.6223 9.108 29.1023 9.108ZM28.8983 8.328C29.4503 8.328 29.8863 8.136 30.2063 7.752C30.5343 7.36 30.6983 6.804 30.6983 6.084C30.6983 5.356 30.5343 4.8 30.2063 4.416C29.8863 4.032 29.4503 3.84 28.8983 3.84C28.3543 3.84 27.9183 4.032 27.5903 4.416C27.2623 4.8 27.0983 5.356 27.0983 6.084C27.0983 6.804 27.2623 7.36 27.5903 7.752C27.9183 8.136 28.3543 8.328 28.8983 8.328ZM34.9344 9.108C34.3424 9.108 33.8944 8.932 33.5904 8.58C33.2944 8.228 33.1464 7.724 33.1464 7.068V0.539999H34.1184V6.996C34.1184 7.276 34.1544 7.512 34.2264 7.704C34.3064 7.896 34.4224 8.04 34.5744 8.136C34.7264 8.232 34.9144 8.28 35.1384 8.28C35.2344 8.28 35.3264 8.276 35.4144 8.268C35.5104 8.252 35.5984 8.232 35.6784 8.208L35.6544 9.024C35.5264 9.048 35.4024 9.068 35.2824 9.084C35.1704 9.1 35.0544 9.108 34.9344 9.108ZM39.2666 9.108C38.6506 9.108 38.1186 8.988 37.6706 8.748C37.2306 8.5 36.8866 8.152 36.6386 7.704C36.3986 7.256 36.2786 6.72 36.2786 6.096C36.2786 5.488 36.3986 4.96 36.6386 4.512C36.8786 4.056 37.2066 3.7 37.6226 3.444C38.0466 3.188 38.5346 3.06 39.0866 3.06C39.6146 3.06 40.0666 3.176 40.4426 3.408C40.8186 3.64 41.1066 3.968 41.3066 4.392C41.5146 4.816 41.6186 5.324 41.6186 5.916V6.288H37.0226V5.652H40.9706L40.7786 5.808C40.7786 5.168 40.6346 4.672 40.3466 4.32C40.0666 3.96 39.6546 3.78 39.1106 3.78C38.7026 3.78 38.3546 3.876 38.0666 4.068C37.7866 4.252 37.5746 4.512 37.4306 4.848C37.2866 5.176 37.2146 5.56 37.2146 6V6.072C37.2146 6.56 37.2906 6.972 37.4426 7.308C37.6026 7.644 37.8386 7.9 38.1506 8.076C38.4626 8.244 38.8346 8.328 39.2666 8.328C39.6106 8.328 39.9426 8.276 40.2626 8.172C40.5906 8.06 40.8986 7.88 41.1866 7.632L41.5226 8.316C41.2586 8.556 40.9226 8.748 40.5146 8.892C40.1066 9.036 39.6906 9.108 39.2666 9.108ZM46.5393 9L50.6913 0.96V1.392H45.9993V0.539999H51.5913V1.284L47.6313 9H46.5393ZM56.1706 9.108C55.8106 9.108 55.4586 9.068 55.1146 8.988C54.7706 8.908 54.4466 8.792 54.1426 8.64C53.8466 8.488 53.5826 8.308 53.3506 8.1L53.7226 7.32C54.1066 7.632 54.4946 7.864 54.8866 8.016C55.2866 8.16 55.7106 8.232 56.1586 8.232C56.7506 8.232 57.2106 8.068 57.5386 7.74C57.8746 7.412 58.0426 6.98 58.0426 6.444C58.0426 5.892 57.8826 5.44 57.5626 5.088C57.2426 4.736 56.8026 4.56 56.2426 4.56C55.8346 4.56 55.4746 4.644 55.1626 4.812C54.8586 4.972 54.5826 5.224 54.3346 5.568H53.6146V0.539999H58.5226V1.38H54.5866V4.752H54.3226C54.5306 4.416 54.8186 4.16 55.1866 3.984C55.5546 3.8 55.9666 3.708 56.4226 3.708C56.9586 3.708 57.4186 3.82 57.8026 4.044C58.1946 4.268 58.4946 4.584 58.7026 4.992C58.9186 5.392 59.0266 5.86 59.0266 6.396C59.0266 6.924 58.9106 7.392 58.6786 7.8C58.4466 8.208 58.1186 8.528 57.6946 8.76C57.2706 8.992 56.7626 9.108 56.1706 9.108ZM63.1859 9.108C62.5459 9.108 62.0019 8.944 61.5539 8.616C61.1139 8.28 60.7819 7.788 60.5579 7.14C60.3339 6.492 60.2219 5.7 60.2219 4.764C60.2219 3.82 60.3339 3.028 60.5579 2.388C60.7819 1.74 61.1139 1.252 61.5539 0.924C62.0019 0.595999 62.5459 0.431999 63.1859 0.431999C63.8339 0.431999 64.3779 0.595999 64.8179 0.924C65.2579 1.252 65.5899 1.736 65.8139 2.376C66.0379 3.016 66.1499 3.808 66.1499 4.752C66.1499 5.696 66.0379 6.492 65.8139 7.14C65.5899 7.788 65.2579 8.28 64.8179 8.616C64.3779 8.944 63.8339 9.108 63.1859 9.108ZM63.1859 8.256C63.8579 8.256 64.3539 7.972 64.6739 7.404C65.0019 6.836 65.1659 5.952 65.1659 4.752C65.1659 3.552 65.0059 2.676 64.6859 2.124C64.3659 1.564 63.8659 1.284 63.1859 1.284C62.5219 1.284 62.0259 1.564 61.6979 2.124C61.3699 2.684 61.2059 3.56 61.2059 4.752C61.2059 5.952 61.3659 6.836 61.6859 7.404C62.0139 7.972 62.5139 8.256 63.1859 8.256ZM67.7173 9V3.168H68.6653V4.464H68.5333C68.6293 4.168 68.7693 3.916 68.9533 3.708C69.1453 3.492 69.3693 3.332 69.6253 3.228C69.8893 3.116 70.1773 3.06 70.4893 3.06C70.9853 3.06 71.3853 3.18 71.6893 3.42C72.0013 3.652 72.2093 4.016 72.3133 4.512H72.1333C72.2773 4.064 72.5333 3.712 72.9013 3.456C73.2773 3.192 73.7133 3.06 74.2093 3.06C74.6493 3.06 75.0093 3.144 75.2893 3.312C75.5773 3.48 75.7933 3.736 75.9373 4.08C76.0813 4.416 76.1533 4.844 76.1533 5.364V9H75.1813V5.412C75.1813 4.876 75.0893 4.484 74.9053 4.236C74.7213 3.98 74.4093 3.852 73.9693 3.852C73.6573 3.852 73.3813 3.928 73.1413 4.08C72.9093 4.232 72.7293 4.448 72.6013 4.728C72.4813 5 72.4213 5.324 72.4213 5.7V9H71.4493V5.412C71.4493 4.876 71.3533 4.484 71.1613 4.236C70.9773 3.98 70.6693 3.852 70.2373 3.852C69.9173 3.852 69.6413 3.928 69.4093 4.08C69.1773 4.232 68.9973 4.448 68.8693 4.728C68.7493 5 68.6893 5.324 68.6893 5.7V9H67.7173ZM79.7586 9.108C79.1666 9.108 78.7186 8.932 78.4146 8.58C78.1186 8.228 77.9706 7.724 77.9706 7.068V0.539999H78.9426V6.996C78.9426 7.276 78.9786 7.512 79.0506 7.704C79.1306 7.896 79.2466 8.04 79.3986 8.136C79.5506 8.232 79.7386 8.28 79.9626 8.28C80.0586 8.28 80.1506 8.276 80.2386 8.268C80.3346 8.252 80.4226 8.232 80.5026 8.208L80.4786 9.024C80.3506 9.048 80.2266 9.068 80.1066 9.084C79.9946 9.1 79.8786 9.108 79.7586 9.108ZM88.3954 9.108C87.5634 9.108 86.8514 8.932 86.2594 8.58C85.6674 8.228 85.2114 7.728 84.8914 7.08C84.5794 6.432 84.4234 5.66 84.4234 4.764C84.4234 3.868 84.5794 3.1 84.8914 2.46C85.2114 1.812 85.6674 1.312 86.2594 0.96C86.8514 0.608 87.5634 0.431999 88.3954 0.431999C88.9794 0.431999 89.5194 0.523999 90.0154 0.707999C90.5114 0.891999 90.9274 1.16 91.2634 1.512L90.8794 2.316C90.5114 1.972 90.1274 1.724 89.7274 1.572C89.3354 1.412 88.8994 1.332 88.4194 1.332C87.4674 1.332 86.7394 1.632 86.2354 2.232C85.7314 2.832 85.4794 3.676 85.4794 4.764C85.4794 5.852 85.7314 6.7 86.2354 7.308C86.7394 7.908 87.4674 8.208 88.4194 8.208C88.8994 8.208 89.3354 8.132 89.7274 7.98C90.1274 7.82 90.5114 7.568 90.8794 7.224L91.2634 8.028C90.9274 8.372 90.5114 8.64 90.0154 8.832C89.5194 9.016 88.9794 9.108 88.3954 9.108ZM94.6798 9.108C94.1118 9.108 93.6198 8.984 93.2038 8.736C92.7878 8.488 92.4638 8.14 92.2318 7.692C92.0078 7.236 91.8958 6.7 91.8958 6.084C91.8958 5.468 92.0078 4.936 92.2318 4.488C92.4638 4.032 92.7878 3.68 93.2038 3.432C93.6198 3.184 94.1118 3.06 94.6798 3.06C95.2478 3.06 95.7398 3.184 96.1558 3.432C96.5718 3.68 96.8918 4.032 97.1158 4.488C97.3478 4.936 97.4638 5.468 97.4638 6.084C97.4638 6.7 97.3478 7.236 97.1158 7.692C96.8918 8.14 96.5718 8.488 96.1558 8.736C95.7398 8.984 95.2478 9.108 94.6798 9.108ZM94.6798 8.328C95.2318 8.328 95.6678 8.136 95.9878 7.752C96.3158 7.36 96.4798 6.8 96.4798 6.072C96.4798 5.352 96.3158 4.8 95.9878 4.416C95.6678 4.032 95.2318 3.84 94.6798 3.84C94.1358 3.84 93.6998 4.032 93.3718 4.416C93.0438 4.8 92.8798 5.352 92.8798 6.072C92.8798 6.8 93.0438 7.36 93.3718 7.752C93.6998 8.136 94.1358 8.328 94.6798 8.328ZM98.9237 9V3.168H99.8717V4.464H99.7397C99.9077 4 100.18 3.652 100.556 3.42C100.94 3.18 101.38 3.06 101.876 3.06C102.34 3.06 102.724 3.144 103.028 3.312C103.34 3.472 103.572 3.724 103.724 4.068C103.876 4.412 103.952 4.844 103.952 5.364V9H102.98V5.424C102.98 5.064 102.932 4.768 102.836 4.536C102.748 4.304 102.604 4.132 102.404 4.02C102.212 3.908 101.96 3.852 101.648 3.852C101.296 3.852 100.988 3.928 100.724 4.08C100.46 4.232 100.256 4.444 100.112 4.716C99.9677 4.988 99.8957 5.308 99.8957 5.676V9H98.9237ZM108.084 9.108C107.396 9.108 106.88 8.924 106.536 8.556C106.192 8.188 106.02 7.664 106.02 6.984V3.924H104.88V3.168H106.02V1.38H106.992V3.168H108.84V3.924H106.992V6.888C106.992 7.344 107.088 7.692 107.28 7.932C107.472 8.164 107.784 8.28 108.216 8.28C108.344 8.28 108.472 8.264 108.6 8.232C108.728 8.2 108.844 8.168 108.948 8.136L109.116 8.88C109.012 8.936 108.86 8.988 108.66 9.036C108.46 9.084 108.268 9.108 108.084 9.108ZM111.775 9.108C111.375 9.108 111.015 9.032 110.695 8.88C110.383 8.72 110.135 8.504 109.951 8.232C109.767 7.96 109.675 7.656 109.675 7.32C109.675 6.888 109.783 6.548 109.999 6.3C110.223 6.052 110.587 5.876 111.091 5.772C111.603 5.668 112.299 5.616 113.179 5.616H113.719V6.252H113.191C112.703 6.252 112.295 6.268 111.967 6.3C111.639 6.332 111.379 6.388 111.187 6.468C110.995 6.548 110.859 6.652 110.779 6.78C110.699 6.908 110.659 7.068 110.659 7.26C110.659 7.588 110.771 7.856 110.995 8.064C111.227 8.272 111.539 8.376 111.931 8.376C112.251 8.376 112.531 8.3 112.771 8.148C113.019 7.996 113.211 7.788 113.347 7.524C113.491 7.26 113.563 6.956 113.563 6.612V5.244C113.563 4.748 113.463 4.392 113.263 4.176C113.063 3.952 112.735 3.84 112.279 3.84C111.927 3.84 111.587 3.892 111.259 3.996C110.931 4.092 110.595 4.252 110.251 4.476L109.915 3.768C110.123 3.624 110.359 3.5 110.623 3.396C110.887 3.284 111.163 3.2 111.451 3.144C111.739 3.088 112.015 3.06 112.279 3.06C112.783 3.06 113.199 3.144 113.527 3.312C113.855 3.472 114.099 3.72 114.259 4.056C114.419 4.384 114.499 4.808 114.499 5.328V9H113.587V7.644H113.695C113.631 7.948 113.507 8.208 113.323 8.424C113.147 8.64 112.927 8.808 112.663 8.928C112.399 9.048 112.103 9.108 111.775 9.108ZM116.183 1.716V0.624H117.383V1.716H116.183ZM116.303 9V3.168H117.275V9H116.303ZM119.092 9V3.168H120.04V4.464H119.908C120.076 4 120.348 3.652 120.724 3.42C121.108 3.18 121.548 3.06 122.044 3.06C122.508 3.06 122.892 3.144 123.196 3.312C123.508 3.472 123.74 3.724 123.892 4.068C124.044 4.412 124.12 4.844 124.12 5.364V9H123.148V5.424C123.148 5.064 123.1 4.768 123.004 4.536C122.916 4.304 122.772 4.132 122.572 4.02C122.38 3.908 122.128 3.852 121.816 3.852C121.464 3.852 121.156 3.928 120.892 4.08C120.628 4.232 120.424 4.444 120.28 4.716C120.136 4.988 120.064 5.308 120.064 5.676V9H119.092ZM128.54 9.108C127.924 9.108 127.392 8.988 126.944 8.748C126.504 8.5 126.16 8.152 125.912 7.704C125.672 7.256 125.552 6.72 125.552 6.096C125.552 5.488 125.672 4.96 125.912 4.512C126.152 4.056 126.48 3.7 126.896 3.444C127.32 3.188 127.808 3.06 128.36 3.06C128.888 3.06 129.34 3.176 129.716 3.408C130.092 3.64 130.38 3.968 130.58 4.392C130.788 4.816 130.892 5.324 130.892 5.916V6.288H126.296V5.652H130.244L130.052 5.808C130.052 5.168 129.908 4.672 129.62 4.32C129.34 3.96 128.928 3.78 128.384 3.78C127.976 3.78 127.628 3.876 127.34 4.068C127.06 4.252 126.848 4.512 126.704 4.848C126.56 5.176 126.488 5.56 126.488 6V6.072C126.488 6.56 126.564 6.972 126.716 7.308C126.876 7.644 127.112 7.9 127.424 8.076C127.736 8.244 128.108 8.328 128.54 8.328C128.884 8.328 129.216 8.276 129.536 8.172C129.864 8.06 130.172 7.88 130.46 7.632L130.796 8.316C130.532 8.556 130.196 8.748 129.788 8.892C129.38 9.036 128.964 9.108 128.54 9.108ZM132.299 9V3.168H133.247V4.548H133.127C133.263 4.076 133.499 3.72 133.835 3.48C134.171 3.232 134.615 3.088 135.167 3.048L135.515 3.012L135.587 3.852L134.975 3.924C134.431 3.972 134.011 4.148 133.715 4.452C133.427 4.748 133.283 5.156 133.283 5.676V9H132.299ZM136.701 10.368L136.245 10.02C136.389 9.868 136.497 9.724 136.569 9.588C136.649 9.46 136.701 9.328 136.725 9.192C136.757 9.064 136.773 8.932 136.773 8.796L136.989 9H136.197V7.776H137.421V8.64C137.421 8.856 137.397 9.06 137.349 9.252C137.309 9.452 137.237 9.644 137.133 9.828C137.029 10.012 136.885 10.192 136.701 10.368ZM142.322 9V0.539999H143.15L146.582 6.984H146.222L149.63 0.539999H150.458V9H149.546V1.86H149.834L146.726 7.692H146.078L142.934 1.848H143.222V9H142.322ZM152.312 1.716V0.624H153.512V1.716H152.312ZM152.432 9V3.168H153.404V9H152.432ZM157.693 9.108C157.109 9.108 156.605 8.98 156.181 8.724C155.757 8.468 155.429 8.112 155.197 7.656C154.973 7.192 154.861 6.656 154.861 6.048C154.861 5.432 154.973 4.9 155.197 4.452C155.429 4.004 155.757 3.66 156.181 3.42C156.605 3.18 157.109 3.06 157.693 3.06C158.053 3.06 158.409 3.124 158.761 3.252C159.113 3.38 159.405 3.56 159.637 3.792L159.301 4.5C159.069 4.276 158.813 4.112 158.533 4.008C158.261 3.904 158.001 3.852 157.753 3.852C157.145 3.852 156.677 4.044 156.349 4.428C156.021 4.804 155.857 5.348 155.857 6.06C155.857 6.756 156.021 7.308 156.349 7.716C156.677 8.116 157.145 8.316 157.753 8.316C158.001 8.316 158.261 8.264 158.533 8.16C158.813 8.056 159.069 7.888 159.301 7.656L159.637 8.364C159.405 8.596 159.109 8.78 158.749 8.916C158.397 9.044 158.045 9.108 157.693 9.108ZM160.775 9V3.168H161.723V4.548H161.603C161.739 4.076 161.975 3.72 162.311 3.48C162.647 3.232 163.091 3.088 163.643 3.048L163.991 3.012L164.063 3.852L163.451 3.924C162.907 3.972 162.487 4.148 162.191 4.452C161.903 4.748 161.759 5.156 161.759 5.676V9H160.775ZM167.43 9.108C166.862 9.108 166.37 8.984 165.954 8.736C165.538 8.488 165.214 8.14 164.982 7.692C164.758 7.236 164.646 6.7 164.646 6.084C164.646 5.468 164.758 4.936 164.982 4.488C165.214 4.032 165.538 3.68 165.954 3.432C166.37 3.184 166.862 3.06 167.43 3.06C167.998 3.06 168.49 3.184 168.906 3.432C169.322 3.68 169.642 4.032 169.866 4.488C170.098 4.936 170.214 5.468 170.214 6.084C170.214 6.7 170.098 7.236 169.866 7.692C169.642 8.14 169.322 8.488 168.906 8.736C168.49 8.984 167.998 9.108 167.43 9.108ZM167.43 8.328C167.982 8.328 168.418 8.136 168.738 7.752C169.066 7.36 169.23 6.8 169.23 6.072C169.23 5.352 169.066 4.8 168.738 4.416C168.418 4.032 167.982 3.84 167.43 3.84C166.886 3.84 166.45 4.032 166.122 4.416C165.794 4.8 165.63 5.352 165.63 6.072C165.63 6.8 165.794 7.36 166.122 7.752C166.45 8.136 166.886 8.328 167.43 8.328ZM173.14 9L170.968 3.168H171.988L173.776 8.28H173.488L175.336 3.168H176.164L177.976 8.28H177.7L179.512 3.168H180.484L178.3 9H177.376L175.468 3.756H175.984L174.076 9H173.14ZM183.4 9.108C183 9.108 182.64 9.032 182.32 8.88C182.008 8.72 181.76 8.504 181.576 8.232C181.392 7.96 181.3 7.656 181.3 7.32C181.3 6.888 181.408 6.548 181.624 6.3C181.848 6.052 182.212 5.876 182.716 5.772C183.228 5.668 183.924 5.616 184.804 5.616H185.344V6.252H184.816C184.328 6.252 183.92 6.268 183.592 6.3C183.264 6.332 183.004 6.388 182.812 6.468C182.62 6.548 182.484 6.652 182.404 6.78C182.324 6.908 182.284 7.068 182.284 7.26C182.284 7.588 182.396 7.856 182.62 8.064C182.852 8.272 183.164 8.376 183.556 8.376C183.876 8.376 184.156 8.3 184.396 8.148C184.644 7.996 184.836 7.788 184.972 7.524C185.116 7.26 185.188 6.956 185.188 6.612V5.244C185.188 4.748 185.088 4.392 184.888 4.176C184.688 3.952 184.36 3.84 183.904 3.84C183.552 3.84 183.212 3.892 182.884 3.996C182.556 4.092 182.22 4.252 181.876 4.476L181.54 3.768C181.748 3.624 181.984 3.5 182.248 3.396C182.512 3.284 182.788 3.2 183.076 3.144C183.364 3.088 183.64 3.06 183.904 3.06C184.408 3.06 184.824 3.144 185.152 3.312C185.48 3.472 185.724 3.72 185.884 4.056C186.044 4.384 186.124 4.808 186.124 5.328V9H185.212V7.644H185.32C185.256 7.948 185.132 8.208 184.948 8.424C184.772 8.64 184.552 8.808 184.288 8.928C184.024 9.048 183.728 9.108 183.4 9.108ZM189.585 9L187.077 3.168H188.133L190.221 8.28H189.897L192.021 3.168H193.017L190.497 9H189.585ZM196.591 9.108C195.975 9.108 195.443 8.988 194.995 8.748C194.555 8.5 194.211 8.152 193.963 7.704C193.723 7.256 193.603 6.72 193.603 6.096C193.603 5.488 193.723 4.96 193.963 4.512C194.203 4.056 194.531 3.7 194.947 3.444C195.371 3.188 195.859 3.06 196.411 3.06C196.939 3.06 197.391 3.176 197.767 3.408C198.143 3.64 198.431 3.968 198.631 4.392C198.839 4.816 198.943 5.324 198.943 5.916V6.288H194.347V5.652H198.295L198.103 5.808C198.103 5.168 197.959 4.672 197.671 4.32C197.391 3.96 196.979 3.78 196.435 3.78C196.027 3.78 195.679 3.876 195.391 4.068C195.111 4.252 194.899 4.512 194.755 4.848C194.611 5.176 194.539 5.56 194.539 6V6.072C194.539 6.56 194.615 6.972 194.767 7.308C194.927 7.644 195.163 7.9 195.475 8.076C195.787 8.244 196.159 8.328 196.591 8.328C196.935 8.328 197.267 8.276 197.587 8.172C197.915 8.06 198.223 7.88 198.511 7.632L198.847 8.316C198.583 8.556 198.247 8.748 197.839 8.892C197.431 9.036 197.015 9.108 196.591 9.108ZM200.43 6.204V5.4H203.79V6.204H200.43ZM207.962 9L211.694 0.539999H212.534L216.266 9H215.246L214.202 6.588L214.682 6.84H209.522L210.014 6.588L208.982 9H207.962ZM212.102 1.692L210.17 6.24L209.882 6.012H214.322L214.058 6.24L212.126 1.692H212.102ZM217.389 9V3.168H218.337V4.464H218.205C218.373 4 218.645 3.652 219.021 3.42C219.405 3.18 219.845 3.06 220.341 3.06C220.805 3.06 221.189 3.144 221.493 3.312C221.805 3.472 222.037 3.724 222.189 4.068C222.341 4.412 222.417 4.844 222.417 5.364V9H221.445V5.424C221.445 5.064 221.397 4.768 221.301 4.536C221.213 4.304 221.069 4.132 220.869 4.02C220.677 3.908 220.425 3.852 220.113 3.852C219.761 3.852 219.453 3.928 219.189 4.08C218.925 4.232 218.721 4.444 218.577 4.716C218.433 4.988 218.361 5.308 218.361 5.676V9H217.389ZM226.429 9.108C225.909 9.108 225.453 8.984 225.061 8.736C224.677 8.488 224.377 8.14 224.161 7.692C223.953 7.236 223.849 6.7 223.849 6.084C223.849 5.46 223.953 4.924 224.161 4.476C224.377 4.02 224.677 3.672 225.061 3.432C225.453 3.184 225.909 3.06 226.429 3.06C226.957 3.06 227.409 3.192 227.785 3.456C228.161 3.72 228.413 4.076 228.541 4.524H228.409V0.539999H229.381V9H228.433V7.608H228.553C228.425 8.064 228.169 8.428 227.785 8.7C227.409 8.972 226.957 9.108 226.429 9.108ZM226.633 8.328C227.185 8.328 227.621 8.136 227.941 7.752C228.269 7.36 228.433 6.804 228.433 6.084C228.433 5.356 228.269 4.8 227.941 4.416C227.621 4.032 227.185 3.84 226.633 3.84C226.089 3.84 225.653 4.032 225.325 4.416C224.997 4.8 224.833 5.356 224.833 6.084C224.833 6.804 224.997 7.36 225.325 7.752C225.653 8.136 226.089 8.328 226.633 8.328ZM234.419 9V0.539999H239.651V1.368H235.403V4.32H239.411V5.148H235.403V9H234.419ZM240.744 9V3.168H241.692V4.548H241.572C241.708 4.076 241.944 3.72 242.28 3.48C242.616 3.232 243.06 3.088 243.612 3.048L243.96 3.012L244.032 3.852L243.42 3.924C242.876 3.972 242.456 4.148 242.16 4.452C241.872 4.748 241.728 5.156 241.728 5.676V9H240.744ZM247.603 9.108C246.987 9.108 246.455 8.988 246.007 8.748C245.567 8.5 245.223 8.152 244.975 7.704C244.735 7.256 244.615 6.72 244.615 6.096C244.615 5.488 244.735 4.96 244.975 4.512C245.215 4.056 245.543 3.7 245.959 3.444C246.383 3.188 246.871 3.06 247.423 3.06C247.951 3.06 248.403 3.176 248.779 3.408C249.155 3.64 249.443 3.968 249.643 4.392C249.851 4.816 249.955 5.324 249.955 5.916V6.288H245.359V5.652H249.307L249.115 5.808C249.115 5.168 248.971 4.672 248.683 4.32C248.403 3.96 247.991 3.78 247.447 3.78C247.039 3.78 246.691 3.876 246.403 4.068C246.123 4.252 245.911 4.512 245.767 4.848C245.623 5.176 245.551 5.56 245.551 6V6.072C245.551 6.56 245.627 6.972 245.779 7.308C245.939 7.644 246.175 7.9 246.487 8.076C246.799 8.244 247.171 8.328 247.603 8.328C247.947 8.328 248.279 8.276 248.599 8.172C248.927 8.06 249.235 7.88 249.523 7.632L249.859 8.316C249.595 8.556 249.259 8.748 248.851 8.892C248.443 9.036 248.027 9.108 247.603 9.108ZM253.989 9.108C253.373 9.108 252.841 8.988 252.393 8.748C251.953 8.5 251.609 8.152 251.361 7.704C251.121 7.256 251.001 6.72 251.001 6.096C251.001 5.488 251.121 4.96 251.361 4.512C251.601 4.056 251.929 3.7 252.345 3.444C252.769 3.188 253.257 3.06 253.809 3.06C254.337 3.06 254.789 3.176 255.165 3.408C255.541 3.64 255.829 3.968 256.029 4.392C256.237 4.816 256.341 5.324 256.341 5.916V6.288H251.745V5.652H255.693L255.501 5.808C255.501 5.168 255.357 4.672 255.069 4.32C254.789 3.96 254.377 3.78 253.833 3.78C253.425 3.78 253.077 3.876 252.789 4.068C252.509 4.252 252.297 4.512 252.153 4.848C252.009 5.176 251.937 5.56 251.937 6V6.072C251.937 6.56 252.013 6.972 252.165 7.308C252.325 7.644 252.561 7.9 252.873 8.076C253.185 8.244 253.557 8.328 253.989 8.328C254.333 8.328 254.665 8.276 254.985 8.172C255.313 8.06 255.621 7.88 255.909 7.632L256.245 8.316C255.981 8.556 255.645 8.748 255.237 8.892C254.829 9.036 254.413 9.108 253.989 9.108ZM257.473 9V8.352L260.989 3.672V3.924H257.473V3.168H261.889V3.816L258.337 8.52V8.244H262.021V9H257.473ZM265.79 9.108C265.174 9.108 264.642 8.988 264.194 8.748C263.754 8.5 263.41 8.152 263.162 7.704C262.922 7.256 262.802 6.72 262.802 6.096C262.802 5.488 262.922 4.96 263.162 4.512C263.402 4.056 263.73 3.7 264.146 3.444C264.57 3.188 265.058 3.06 265.61 3.06C266.138 3.06 266.59 3.176 266.966 3.408C267.342 3.64 267.63 3.968 267.83 4.392C268.038 4.816 268.142 5.324 268.142 5.916V6.288H263.546V5.652H267.494L267.302 5.808C267.302 5.168 267.158 4.672 266.87 4.32C266.59 3.96 266.178 3.78 265.634 3.78C265.226 3.78 264.878 3.876 264.59 4.068C264.31 4.252 264.098 4.512 263.954 4.848C263.81 5.176 263.738 5.56 263.738 6V6.072C263.738 6.56 263.814 6.972 263.966 7.308C264.126 7.644 264.362 7.9 264.674 8.076C264.986 8.244 265.358 8.328 265.79 8.328C266.134 8.328 266.466 8.276 266.786 8.172C267.114 8.06 267.422 7.88 267.71 7.632L268.046 8.316C267.782 8.556 267.446 8.748 267.038 8.892C266.63 9.036 266.214 9.108 265.79 9.108ZM269.549 9V3.168H270.497V4.548H270.377C270.513 4.076 270.749 3.72 271.085 3.48C271.421 3.232 271.865 3.088 272.417 3.048L272.765 3.012L272.837 3.852L272.225 3.924C271.681 3.972 271.261 4.148 270.965 4.452C270.677 4.748 270.533 5.156 270.533 5.676V9H269.549ZM273.52 6.204V5.4H276.88V6.204H273.52ZM281.288 9.108C280.848 9.108 280.432 9.068 280.04 8.988C279.656 8.908 279.3 8.796 278.972 8.652C278.652 8.5 278.36 8.316 278.096 8.1L278.444 7.308C278.716 7.508 278.992 7.68 279.272 7.824C279.56 7.96 279.868 8.064 280.196 8.136C280.532 8.2 280.896 8.232 281.288 8.232C282.008 8.232 282.54 8.1 282.884 7.836C283.236 7.564 283.412 7.208 283.412 6.768C283.412 6.536 283.356 6.336 283.244 6.168C283.14 6 282.964 5.856 282.716 5.736C282.476 5.616 282.16 5.516 281.768 5.436L280.52 5.184C279.768 5.024 279.204 4.764 278.828 4.404C278.46 4.036 278.276 3.548 278.276 2.94C278.276 2.436 278.404 1.996 278.66 1.62C278.924 1.244 279.288 0.951999 279.752 0.744C280.224 0.536 280.76 0.431999 281.36 0.431999C281.744 0.431999 282.108 0.471999 282.452 0.551999C282.796 0.632 283.112 0.752 283.4 0.912C283.696 1.064 283.956 1.252 284.18 1.476L283.832 2.244C283.472 1.916 283.092 1.68 282.692 1.536C282.292 1.384 281.844 1.308 281.348 1.308C280.924 1.308 280.556 1.372 280.244 1.5C279.94 1.628 279.7 1.816 279.524 2.064C279.356 2.304 279.272 2.584 279.272 2.904C279.272 3.288 279.388 3.592 279.62 3.816C279.86 4.04 280.248 4.204 280.784 4.308L282.032 4.572C282.84 4.74 283.436 4.996 283.82 5.34C284.212 5.676 284.408 6.136 284.408 6.72C284.408 7.184 284.28 7.6 284.024 7.968C283.776 8.328 283.416 8.608 282.944 8.808C282.48 9.008 281.928 9.108 281.288 9.108ZM287.639 9.108C287.239 9.108 286.879 9.032 286.559 8.88C286.247 8.72 285.999 8.504 285.815 8.232C285.631 7.96 285.539 7.656 285.539 7.32C285.539 6.888 285.647 6.548 285.863 6.3C286.087 6.052 286.451 5.876 286.955 5.772C287.467 5.668 288.163 5.616 289.043 5.616H289.583V6.252H289.055C288.567 6.252 288.159 6.268 287.831 6.3C287.503 6.332 287.243 6.388 287.051 6.468C286.859 6.548 286.723 6.652 286.643 6.78C286.563 6.908 286.523 7.068 286.523 7.26C286.523 7.588 286.635 7.856 286.859 8.064C287.091 8.272 287.403 8.376 287.795 8.376C288.115 8.376 288.395 8.3 288.635 8.148C288.883 7.996 289.075 7.788 289.211 7.524C289.355 7.26 289.427 6.956 289.427 6.612V5.244C289.427 4.748 289.327 4.392 289.127 4.176C288.927 3.952 288.599 3.84 288.143 3.84C287.791 3.84 287.451 3.892 287.123 3.996C286.795 4.092 286.459 4.252 286.115 4.476L285.779 3.768C285.987 3.624 286.223 3.5 286.487 3.396C286.751 3.284 287.027 3.2 287.315 3.144C287.603 3.088 287.879 3.06 288.143 3.06C288.647 3.06 289.063 3.144 289.391 3.312C289.719 3.472 289.963 3.72 290.123 4.056C290.283 4.384 290.363 4.808 290.363 5.328V9H289.451V7.644H289.559C289.495 7.948 289.371 8.208 289.187 8.424C289.011 8.64 288.791 8.808 288.527 8.928C288.263 9.048 287.967 9.108 287.639 9.108ZM292.478 9V3.924H291.326V3.168H292.742L292.478 3.42V2.964C292.478 2.188 292.67 1.6 293.054 1.2C293.446 0.799999 294.046 0.575999 294.854 0.528L295.322 0.504L295.406 1.248L294.854 1.284C294.526 1.308 294.258 1.38 294.05 1.5C293.842 1.62 293.69 1.792 293.594 2.016C293.498 2.24 293.45 2.516 293.45 2.844V3.348L293.306 3.168H295.13V3.924H293.45V9H292.478ZM298.626 9.108C298.01 9.108 297.478 8.988 297.03 8.748C296.59 8.5 296.246 8.152 295.998 7.704C295.758 7.256 295.638 6.72 295.638 6.096C295.638 5.488 295.758 4.96 295.998 4.512C296.238 4.056 296.566 3.7 296.982 3.444C297.406 3.188 297.894 3.06 298.446 3.06C298.974 3.06 299.426 3.176 299.802 3.408C300.178 3.64 300.466 3.968 300.666 4.392C300.874 4.816 300.978 5.324 300.978 5.916V6.288H296.382V5.652H300.33L300.138 5.808C300.138 5.168 299.994 4.672 299.706 4.32C299.426 3.96 299.014 3.78 298.47 3.78C298.062 3.78 297.714 3.876 297.426 4.068C297.146 4.252 296.934 4.512 296.79 4.848C296.646 5.176 296.574 5.56 296.574 6V6.072C296.574 6.56 296.65 6.972 296.802 7.308C296.962 7.644 297.198 7.9 297.51 8.076C297.822 8.244 298.194 8.328 298.626 8.328C298.97 8.328 299.302 8.276 299.622 8.172C299.95 8.06 300.258 7.88 300.546 7.632L300.882 8.316C300.618 8.556 300.282 8.748 299.874 8.892C299.466 9.036 299.05 9.108 298.626 9.108ZM301.602 6.12V5.484H313.602V6.12H301.602ZM0.0440001 25V16.54H3.392C4 16.54 4.512 16.64 4.928 16.84C5.352 17.032 5.672 17.32 5.888 17.704C6.104 18.08 6.212 18.54 6.212 19.084C6.212 19.612 6.104 20.068 5.888 20.452C5.672 20.836 5.352 21.128 4.928 21.328C4.512 21.528 4 21.628 3.392 21.628H1.028V25H0.0440001ZM1.028 20.8H3.272C3.92 20.8 4.408 20.656 4.736 20.368C5.072 20.072 5.24 19.644 5.24 19.084C5.24 18.516 5.072 18.088 4.736 17.8C4.408 17.504 3.92 17.356 3.272 17.356H1.028V20.8ZM9.87594 25.108C9.25994 25.108 8.72794 24.988 8.27994 24.748C7.83994 24.5 7.49594 24.152 7.24794 23.704C7.00794 23.256 6.88794 22.72 6.88794 22.096C6.88794 21.488 7.00794 20.96 7.24794 20.512C7.48794 20.056 7.81594 19.7 8.23194 19.444C8.65594 19.188 9.14394 19.06 9.69594 19.06C10.2239 19.06 10.6759 19.176 11.0519 19.408C11.4279 19.64 11.7159 19.968 11.9159 20.392C12.1239 20.816 12.2279 21.324 12.2279 21.916V22.288H7.63194V21.652H11.5799L11.3879 21.808C11.3879 21.168 11.2439 20.672 10.9559 20.32C10.6759 19.96 10.2639 19.78 9.71994 19.78C9.31194 19.78 8.96394 19.876 8.67594 20.068C8.39594 20.252 8.18394 20.512 8.03994 20.848C7.89594 21.176 7.82394 21.56 7.82394 22V22.072C7.82394 22.56 7.89994 22.972 8.05194 23.308C8.21194 23.644 8.44794 23.9 8.75994 24.076C9.07194 24.244 9.44394 24.328 9.87594 24.328C10.2199 24.328 10.5519 24.276 10.8719 24.172C11.1999 24.06 11.5079 23.88 11.7959 23.632L12.1319 24.316C11.8679 24.556 11.5319 24.748 11.1239 24.892C10.7159 25.036 10.2999 25.108 9.87594 25.108ZM13.6347 25V19.168H14.5827V20.548H14.4627C14.5987 20.076 14.8347 19.72 15.1707 19.48C15.5067 19.232 15.9507 19.088 16.5027 19.048L16.8507 19.012L16.9227 19.852L16.3107 19.924C15.7667 19.972 15.3467 20.148 15.0507 20.452C14.7627 20.748 14.6187 21.156 14.6187 21.676V25H13.6347ZM18.5638 25V19.924H17.4118V19.168H18.8278L18.5638 19.42V18.964C18.5638 18.188 18.7558 17.6 19.1398 17.2C19.5318 16.8 20.1318 16.576 20.9398 16.528L21.4078 16.504L21.4918 17.248L20.9398 17.284C20.6118 17.308 20.3438 17.38 20.1358 17.5C19.9278 17.62 19.7758 17.792 19.6798 18.016C19.5838 18.24 19.5358 18.516 19.5358 18.844V19.348L19.3918 19.168H21.2158V19.924H19.5358V25H18.5638ZM24.7119 25.108C24.0959 25.108 23.5639 24.988 23.1159 24.748C22.6759 24.5 22.3319 24.152 22.0839 23.704C21.8439 23.256 21.7239 22.72 21.7239 22.096C21.7239 21.488 21.8439 20.96 22.0839 20.512C22.3239 20.056 22.6519 19.7 23.0679 19.444C23.4919 19.188 23.9799 19.06 24.5319 19.06C25.0599 19.06 25.5119 19.176 25.8879 19.408C26.2639 19.64 26.5519 19.968 26.7519 20.392C26.9599 20.816 27.0639 21.324 27.0639 21.916V22.288H22.4679V21.652H26.4159L26.2239 21.808C26.2239 21.168 26.0799 20.672 25.7919 20.32C25.5119 19.96 25.0999 19.78 24.5559 19.78C24.1479 19.78 23.7999 19.876 23.5119 20.068C23.2319 20.252 23.0199 20.512 22.8759 20.848C22.7319 21.176 22.6599 21.56 22.6599 22V22.072C22.6599 22.56 22.7359 22.972 22.8879 23.308C23.0479 23.644 23.2839 23.9 23.5959 24.076C23.9079 24.244 24.2799 24.328 24.7119 24.328C25.0559 24.328 25.3879 24.276 25.7079 24.172C26.0359 24.06 26.3439 23.88 26.6319 23.632L26.9679 24.316C26.7039 24.556 26.3679 24.748 25.9599 24.892C25.5519 25.036 25.1359 25.108 24.7119 25.108ZM30.9426 25.108C30.3586 25.108 29.8546 24.98 29.4306 24.724C29.0066 24.468 28.6786 24.112 28.4466 23.656C28.2226 23.192 28.1106 22.656 28.1106 22.048C28.1106 21.432 28.2226 20.9 28.4466 20.452C28.6786 20.004 29.0066 19.66 29.4306 19.42C29.8546 19.18 30.3586 19.06 30.9426 19.06C31.3026 19.06 31.6586 19.124 32.0106 19.252C32.3626 19.38 32.6546 19.56 32.8866 19.792L32.5506 20.5C32.3186 20.276 32.0626 20.112 31.7826 20.008C31.5106 19.904 31.2506 19.852 31.0026 19.852C30.3946 19.852 29.9266 20.044 29.5986 20.428C29.2706 20.804 29.1066 21.348 29.1066 22.06C29.1066 22.756 29.2706 23.308 29.5986 23.716C29.9266 24.116 30.3946 24.316 31.0026 24.316C31.2506 24.316 31.5106 24.264 31.7826 24.16C32.0626 24.056 32.3186 23.888 32.5506 23.656L32.8866 24.364C32.6546 24.596 32.3586 24.78 31.9986 24.916C31.6466 25.044 31.2946 25.108 30.9426 25.108ZM36.3653 25.108C35.6773 25.108 35.1613 24.924 34.8173 24.556C34.4733 24.188 34.3013 23.664 34.3013 22.984V19.924H33.1613V19.168H34.3013V17.38H35.2733V19.168H37.1213V19.924H35.2733V22.888C35.2733 23.344 35.3693 23.692 35.5613 23.932C35.7533 24.164 36.0653 24.28 36.4973 24.28C36.6253 24.28 36.7533 24.264 36.8813 24.232C37.0093 24.2 37.1253 24.168 37.2293 24.136L37.3973 24.88C37.2933 24.936 37.1413 24.988 36.9413 25.036C36.7413 25.084 36.5493 25.108 36.3653 25.108ZM41.4346 25V16.54H46.6666V17.368H42.4186V20.32H46.4266V21.148H42.4186V25H41.4346ZM50.0782 25.108C49.5102 25.108 49.0182 24.984 48.6022 24.736C48.1862 24.488 47.8622 24.14 47.6302 23.692C47.4062 23.236 47.2942 22.7 47.2942 22.084C47.2942 21.468 47.4062 20.936 47.6302 20.488C47.8622 20.032 48.1862 19.68 48.6022 19.432C49.0182 19.184 49.5102 19.06 50.0782 19.06C50.6462 19.06 51.1382 19.184 51.5542 19.432C51.9702 19.68 52.2902 20.032 52.5142 20.488C52.7462 20.936 52.8622 21.468 52.8622 22.084C52.8622 22.7 52.7462 23.236 52.5142 23.692C52.2902 24.14 51.9702 24.488 51.5542 24.736C51.1382 24.984 50.6462 25.108 50.0782 25.108ZM50.0782 24.328C50.6302 24.328 51.0662 24.136 51.3862 23.752C51.7142 23.36 51.8782 22.8 51.8782 22.072C51.8782 21.352 51.7142 20.8 51.3862 20.416C51.0662 20.032 50.6302 19.84 50.0782 19.84C49.5342 19.84 49.0982 20.032 48.7702 20.416C48.4422 20.8 48.2782 21.352 48.2782 22.072C48.2782 22.8 48.4422 23.36 48.7702 23.752C49.0982 24.136 49.5342 24.328 50.0782 24.328ZM54.3222 25V19.168H55.2702V20.548H55.1502C55.2862 20.076 55.5222 19.72 55.8582 19.48C56.1942 19.232 56.6382 19.088 57.1902 19.048L57.5382 19.012L57.6102 19.852L56.9982 19.924C56.4542 19.972 56.0342 20.148 55.7382 20.452C55.4502 20.748 55.3062 21.156 55.3062 21.676V25H54.3222ZM61.837 25V16.54H65.221C66.085 16.54 66.757 16.732 67.237 17.116C67.717 17.5 67.957 18.044 67.957 18.748C67.957 19.276 67.801 19.716 67.489 20.068C67.185 20.42 66.769 20.652 66.241 20.764V20.596C66.641 20.644 66.985 20.76 67.273 20.944C67.561 21.12 67.781 21.356 67.933 21.652C68.085 21.94 68.161 22.28 68.161 22.672C68.161 23.176 68.049 23.604 67.825 23.956C67.609 24.3 67.293 24.56 66.877 24.736C66.461 24.912 65.957 25 65.365 25H61.837ZM62.797 24.208H65.269C65.525 24.208 65.753 24.188 65.953 24.148C66.161 24.108 66.341 24.048 66.493 23.968C66.645 23.88 66.773 23.776 66.877 23.656C66.981 23.536 67.057 23.392 67.105 23.224C67.161 23.056 67.189 22.868 67.189 22.66C67.189 22.444 67.161 22.256 67.105 22.096C67.057 21.928 66.981 21.784 66.877 21.664C66.773 21.536 66.645 21.432 66.493 21.352C66.341 21.272 66.161 21.212 65.953 21.172C65.753 21.132 65.525 21.112 65.269 21.112H62.797V24.208ZM62.797 20.32H65.077C65.701 20.32 66.173 20.192 66.493 19.936C66.821 19.68 66.985 19.312 66.985 18.832C66.985 18.336 66.821 17.964 66.493 17.716C66.173 17.46 65.701 17.332 65.077 17.332H62.797V20.32ZM69.6943 17.716V16.624H70.8943V17.716H69.6943ZM69.8143 25V19.168H70.7863V25H69.8143ZM72.6034 25V19.168H73.5514V20.548H73.4314C73.5674 20.076 73.8034 19.72 74.1394 19.48C74.4754 19.232 74.9194 19.088 75.4714 19.048L75.8194 19.012L75.8914 19.852L75.2794 19.924C74.7354 19.972 74.3154 20.148 74.0194 20.452C73.7314 20.748 73.5874 21.156 73.5874 21.676V25H72.6034ZM77.9395 27.16L79.0315 24.7V25.12L76.4755 19.168H77.5315L79.6195 24.28H79.2955L81.4075 19.168H82.4275L78.9595 27.16H77.9395ZM85.1503 25.108C84.7503 25.108 84.3903 25.032 84.0703 24.88C83.7583 24.72 83.5103 24.504 83.3263 24.232C83.1423 23.96 83.0503 23.656 83.0503 23.32C83.0503 22.888 83.1583 22.548 83.3743 22.3C83.5983 22.052 83.9623 21.876 84.4663 21.772C84.9783 21.668 85.6743 21.616 86.5543 21.616H87.0943V22.252H86.5663C86.0783 22.252 85.6703 22.268 85.3423 22.3C85.0143 22.332 84.7543 22.388 84.5623 22.468C84.3703 22.548 84.2343 22.652 84.1543 22.78C84.0743 22.908 84.0343 23.068 84.0343 23.26C84.0343 23.588 84.1463 23.856 84.3703 24.064C84.6023 24.272 84.9143 24.376 85.3063 24.376C85.6263 24.376 85.9063 24.3 86.1463 24.148C86.3943 23.996 86.5863 23.788 86.7223 23.524C86.8663 23.26 86.9383 22.956 86.9383 22.612V21.244C86.9383 20.748 86.8383 20.392 86.6383 20.176C86.4383 19.952 86.1103 19.84 85.6543 19.84C85.3023 19.84 84.9623 19.892 84.6343 19.996C84.3063 20.092 83.9703 20.252 83.6263 20.476L83.2903 19.768C83.4983 19.624 83.7343 19.5 83.9983 19.396C84.2623 19.284 84.5383 19.2 84.8263 19.144C85.1143 19.088 85.3903 19.06 85.6543 19.06C86.1583 19.06 86.5743 19.144 86.9023 19.312C87.2303 19.472 87.4743 19.72 87.6343 20.056C87.7943 20.384 87.8743 20.808 87.8743 21.328V25H86.9623V23.644H87.0703C87.0063 23.948 86.8823 24.208 86.6983 24.424C86.5223 24.64 86.3023 24.808 86.0383 24.928C85.7743 25.048 85.4783 25.108 85.1503 25.108ZM89.6776 25V19.168H90.6256V20.464H90.4936C90.6616 20 90.9336 19.652 91.3096 19.42C91.6936 19.18 92.1336 19.06 92.6296 19.06C93.0936 19.06 93.4776 19.144 93.7816 19.312C94.0936 19.472 94.3256 19.724 94.4776 20.068C94.6296 20.412 94.7056 20.844 94.7056 21.364V25H93.7336V21.424C93.7336 21.064 93.6856 20.768 93.5896 20.536C93.5016 20.304 93.3576 20.132 93.1576 20.02C92.9656 19.908 92.7136 19.852 92.4016 19.852C92.0496 19.852 91.7416 19.928 91.4776 20.08C91.2136 20.232 91.0096 20.444 90.8656 20.716C90.7216 20.988 90.6496 21.308 90.6496 21.676V25H89.6776ZM96.3779 17.716V16.624H97.5779V17.716H96.3779ZM96.4979 25V19.168H97.4699V25H96.4979ZM99.635 26.368L99.179 26.02C99.323 25.868 99.431 25.724 99.503 25.588C99.583 25.46 99.635 25.328 99.659 25.192C99.691 25.064 99.707 24.932 99.707 24.796L99.923 25H99.131V23.776H100.355V24.64C100.355 24.856 100.331 25.06 100.283 25.252C100.243 25.452 100.171 25.644 100.067 25.828C99.963 26.012 99.819 26.192 99.635 26.368ZM105.232 25V16.54H110.464V17.368H106.216V20.32H110.224V21.148H106.216V25H105.232ZM113.609 25.108C113.137 25.108 112.745 25.024 112.433 24.856C112.129 24.68 111.897 24.42 111.737 24.076C111.585 23.732 111.509 23.304 111.509 22.792V19.168H112.481V22.78C112.481 23.124 112.525 23.412 112.613 23.644C112.709 23.868 112.857 24.036 113.057 24.148C113.257 24.252 113.505 24.304 113.801 24.304C114.137 24.304 114.429 24.228 114.677 24.076C114.925 23.924 115.121 23.712 115.265 23.44C115.409 23.168 115.481 22.848 115.481 22.48V19.168H116.453V25H115.505V23.656H115.661C115.501 24.128 115.237 24.488 114.869 24.736C114.509 24.984 114.089 25.108 113.609 25.108ZM120.059 25.108C119.467 25.108 119.019 24.932 118.715 24.58C118.419 24.228 118.271 23.724 118.271 23.068V16.54H119.243V22.996C119.243 23.276 119.279 23.512 119.351 23.704C119.431 23.896 119.547 24.04 119.699 24.136C119.851 24.232 120.039 24.28 120.263 24.28C120.359 24.28 120.451 24.276 120.539 24.268C120.635 24.252 120.723 24.232 120.803 24.208L120.779 25.024C120.651 25.048 120.527 25.068 120.407 25.084C120.295 25.1 120.179 25.108 120.059 25.108ZM123.61 25.108C123.018 25.108 122.57 24.932 122.266 24.58C121.97 24.228 121.822 23.724 121.822 23.068V16.54H122.794V22.996C122.794 23.276 122.83 23.512 122.902 23.704C122.982 23.896 123.098 24.04 123.25 24.136C123.402 24.232 123.59 24.28 123.814 24.28C123.91 24.28 124.002 24.276 124.09 24.268C124.186 24.252 124.274 24.232 124.354 24.208L124.33 25.024C124.202 25.048 124.078 25.068 123.958 25.084C123.846 25.1 123.73 25.108 123.61 25.108ZM128.611 25V16.54H129.439L132.871 22.984H132.511L135.919 16.54H136.747V25H135.835V17.86H136.123L133.015 23.692H132.367L129.223 17.848H129.511V25H128.611ZM141.349 25.108C140.733 25.108 140.201 24.988 139.753 24.748C139.313 24.5 138.969 24.152 138.721 23.704C138.481 23.256 138.361 22.72 138.361 22.096C138.361 21.488 138.481 20.96 138.721 20.512C138.961 20.056 139.289 19.7 139.705 19.444C140.129 19.188 140.617 19.06 141.169 19.06C141.697 19.06 142.149 19.176 142.525 19.408C142.901 19.64 143.189 19.968 143.389 20.392C143.597 20.816 143.701 21.324 143.701 21.916V22.288H139.105V21.652H143.053L142.861 21.808C142.861 21.168 142.717 20.672 142.429 20.32C142.149 19.96 141.737 19.78 141.193 19.78C140.785 19.78 140.437 19.876 140.149 20.068C139.869 20.252 139.657 20.512 139.513 20.848C139.369 21.176 139.297 21.56 139.297 22V22.072C139.297 22.56 139.373 22.972 139.525 23.308C139.685 23.644 139.921 23.9 140.233 24.076C140.545 24.244 140.917 24.328 141.349 24.328C141.693 24.328 142.025 24.276 142.345 24.172C142.673 24.06 142.981 23.88 143.269 23.632L143.605 24.316C143.341 24.556 143.005 24.748 142.597 24.892C142.189 25.036 141.773 25.108 141.349 25.108ZM146.943 25.108C146.543 25.108 146.183 25.032 145.863 24.88C145.551 24.72 145.303 24.504 145.119 24.232C144.935 23.96 144.843 23.656 144.843 23.32C144.843 22.888 144.951 22.548 145.167 22.3C145.391 22.052 145.755 21.876 146.259 21.772C146.771 21.668 147.467 21.616 148.347 21.616H148.887V22.252H148.359C147.871 22.252 147.463 22.268 147.135 22.3C146.807 22.332 146.547 22.388 146.355 22.468C146.163 22.548 146.027 22.652 145.947 22.78C145.867 22.908 145.827 23.068 145.827 23.26C145.827 23.588 145.939 23.856 146.163 24.064C146.395 24.272 146.707 24.376 147.099 24.376C147.419 24.376 147.699 24.3 147.939 24.148C148.187 23.996 148.379 23.788 148.515 23.524C148.659 23.26 148.731 22.956 148.731 22.612V21.244C148.731 20.748 148.631 20.392 148.431 20.176C148.231 19.952 147.903 19.84 147.447 19.84C147.095 19.84 146.755 19.892 146.427 19.996C146.099 20.092 145.763 20.252 145.419 20.476L145.083 19.768C145.291 19.624 145.527 19.5 145.791 19.396C146.055 19.284 146.331 19.2 146.619 19.144C146.907 19.088 147.183 19.06 147.447 19.06C147.951 19.06 148.367 19.144 148.695 19.312C149.023 19.472 149.267 19.72 149.427 20.056C149.587 20.384 149.667 20.808 149.667 21.328V25H148.755V23.644H148.863C148.799 23.948 148.675 24.208 148.491 24.424C148.315 24.64 148.095 24.808 147.831 24.928C147.567 25.048 147.271 25.108 146.943 25.108ZM153.259 25.108C152.667 25.108 152.219 24.932 151.915 24.58C151.619 24.228 151.471 23.724 151.471 23.068V16.54H152.443V22.996C152.443 23.276 152.479 23.512 152.551 23.704C152.631 23.896 152.747 24.04 152.899 24.136C153.051 24.232 153.239 24.28 153.463 24.28C153.559 24.28 153.651 24.276 153.739 24.268C153.835 24.252 153.923 24.232 154.003 24.208L153.979 25.024C153.851 25.048 153.727 25.068 153.607 25.084C153.495 25.1 153.379 25.108 153.259 25.108ZM156.931 25.108C156.627 25.108 156.331 25.076 156.043 25.012C155.763 24.956 155.499 24.876 155.251 24.772C155.011 24.66 154.803 24.528 154.627 24.376L154.939 23.692C155.131 23.844 155.339 23.972 155.563 24.076C155.787 24.172 156.015 24.244 156.247 24.292C156.479 24.34 156.715 24.364 156.955 24.364C157.411 24.364 157.755 24.28 157.987 24.112C158.219 23.944 158.335 23.716 158.335 23.428C158.335 23.204 158.259 23.028 158.107 22.9C157.955 22.764 157.715 22.66 157.387 22.588L156.295 22.348C155.791 22.244 155.415 22.064 155.167 21.808C154.927 21.552 154.807 21.22 154.807 20.812C154.807 20.452 154.899 20.144 155.083 19.888C155.275 19.624 155.543 19.42 155.887 19.276C156.231 19.132 156.631 19.06 157.087 19.06C157.359 19.06 157.619 19.088 157.867 19.144C158.115 19.2 158.347 19.284 158.563 19.396C158.787 19.5 158.979 19.632 159.139 19.792L158.815 20.476C158.663 20.332 158.491 20.212 158.299 20.116C158.107 20.012 157.907 19.936 157.699 19.888C157.499 19.832 157.295 19.804 157.087 19.804C156.639 19.804 156.299 19.892 156.067 20.068C155.835 20.244 155.719 20.476 155.719 20.764C155.719 20.988 155.791 21.172 155.935 21.316C156.079 21.46 156.303 21.564 156.607 21.628L157.699 21.856C158.219 21.968 158.607 22.148 158.863 22.396C159.127 22.636 159.259 22.964 159.259 23.38C159.259 23.732 159.163 24.04 158.971 24.304C158.779 24.56 158.507 24.76 158.155 24.904C157.811 25.04 157.403 25.108 156.931 25.108ZM161.03 26.368L160.574 26.02C160.718 25.868 160.826 25.724 160.898 25.588C160.978 25.46 161.03 25.328 161.054 25.192C161.086 25.064 161.102 24.932 161.102 24.796L161.318 25H160.526V23.776H161.75V24.64C161.75 24.856 161.726 25.06 161.678 25.252C161.638 25.452 161.566 25.644 161.462 25.828C161.358 26.012 161.214 26.192 161.03 26.368ZM165.81 25L169.542 16.54H170.382L174.114 25H173.094L172.05 22.588L172.53 22.84H167.37L167.862 22.588L166.83 25H165.81ZM169.95 17.692L168.018 22.24L167.73 22.012H172.17L171.906 22.24L169.974 17.692H169.95ZM175.236 25V19.168H176.184V20.464H176.052C176.22 20 176.492 19.652 176.868 19.42C177.252 19.18 177.692 19.06 178.188 19.06C178.652 19.06 179.036 19.144 179.34 19.312C179.652 19.472 179.884 19.724 180.036 20.068C180.188 20.412 180.264 20.844 180.264 21.364V25H179.292V21.424C179.292 21.064 179.244 20.768 179.148 20.536C179.06 20.304 178.916 20.132 178.716 20.02C178.524 19.908 178.272 19.852 177.96 19.852C177.608 19.852 177.3 19.928 177.036 20.08C176.772 20.232 176.568 20.444 176.424 20.716C176.28 20.988 176.208 21.308 176.208 21.676V25H175.236ZM184.277 25.108C183.757 25.108 183.301 24.984 182.909 24.736C182.525 24.488 182.225 24.14 182.009 23.692C181.801 23.236 181.697 22.7 181.697 22.084C181.697 21.46 181.801 20.924 182.009 20.476C182.225 20.02 182.525 19.672 182.909 19.432C183.301 19.184 183.757 19.06 184.277 19.06C184.805 19.06 185.257 19.192 185.633 19.456C186.009 19.72 186.261 20.076 186.389 20.524H186.257V16.54H187.229V25H186.281V23.608H186.401C186.273 24.064 186.017 24.428 185.633 24.7C185.257 24.972 184.805 25.108 184.277 25.108ZM184.481 24.328C185.033 24.328 185.469 24.136 185.789 23.752C186.117 23.36 186.281 22.804 186.281 22.084C186.281 21.356 186.117 20.8 185.789 20.416C185.469 20.032 185.033 19.84 184.481 19.84C183.937 19.84 183.501 20.032 183.173 20.416C182.845 20.8 182.681 21.356 182.681 22.084C182.681 22.804 182.845 23.36 183.173 23.752C183.501 24.136 183.937 24.328 184.481 24.328ZM194.343 25V17.392H191.271V16.54H198.411V17.392H195.339V25H194.343ZM200.275 25.108C199.875 25.108 199.515 25.032 199.195 24.88C198.883 24.72 198.635 24.504 198.451 24.232C198.267 23.96 198.175 23.656 198.175 23.32C198.175 22.888 198.283 22.548 198.499 22.3C198.723 22.052 199.087 21.876 199.591 21.772C200.103 21.668 200.799 21.616 201.679 21.616H202.219V22.252H201.691C201.203 22.252 200.795 22.268 200.467 22.3C200.139 22.332 199.879 22.388 199.687 22.468C199.495 22.548 199.359 22.652 199.279 22.78C199.199 22.908 199.159 23.068 199.159 23.26C199.159 23.588 199.271 23.856 199.495 24.064C199.727 24.272 200.039 24.376 200.431 24.376C200.751 24.376 201.031 24.3 201.271 24.148C201.519 23.996 201.711 23.788 201.847 23.524C201.991 23.26 202.063 22.956 202.063 22.612V21.244C202.063 20.748 201.963 20.392 201.763 20.176C201.563 19.952 201.235 19.84 200.779 19.84C200.427 19.84 200.087 19.892 199.759 19.996C199.431 20.092 199.095 20.252 198.751 20.476L198.415 19.768C198.623 19.624 198.859 19.5 199.123 19.396C199.387 19.284 199.663 19.2 199.951 19.144C200.239 19.088 200.515 19.06 200.779 19.06C201.283 19.06 201.699 19.144 202.027 19.312C202.355 19.472 202.599 19.72 202.759 20.056C202.919 20.384 202.999 20.808 202.999 21.328V25H202.087V23.644H202.195C202.131 23.948 202.007 24.208 201.823 24.424C201.647 24.64 201.427 24.808 201.163 24.928C200.899 25.048 200.603 25.108 200.275 25.108ZM204.803 25V16.54H205.775V21.76H205.799L208.499 19.168H209.735L206.531 22.24V21.712L209.987 25H208.751L205.799 22.264H205.775V25H204.803ZM213.278 25.108C212.662 25.108 212.13 24.988 211.682 24.748C211.242 24.5 210.898 24.152 210.65 23.704C210.41 23.256 210.29 22.72 210.29 22.096C210.29 21.488 210.41 20.96 210.65 20.512C210.89 20.056 211.218 19.7 211.634 19.444C212.058 19.188 212.546 19.06 213.098 19.06C213.626 19.06 214.078 19.176 214.454 19.408C214.83 19.64 215.118 19.968 215.318 20.392C215.526 20.816 215.63 21.324 215.63 21.916V22.288H211.034V21.652H214.982L214.79 21.808C214.79 21.168 214.646 20.672 214.358 20.32C214.078 19.96 213.666 19.78 213.122 19.78C212.714 19.78 212.366 19.876 212.078 20.068C211.798 20.252 211.586 20.512 211.442 20.848C211.298 21.176 211.226 21.56 211.226 22V22.072C211.226 22.56 211.302 22.972 211.454 23.308C211.614 23.644 211.85 23.9 212.162 24.076C212.474 24.244 212.846 24.328 213.278 24.328C213.622 24.328 213.954 24.276 214.274 24.172C214.602 24.06 214.91 23.88 215.198 23.632L215.534 24.316C215.27 24.556 214.934 24.748 214.526 24.892C214.118 25.036 213.702 25.108 213.278 25.108ZM218.873 25.108C218.473 25.108 218.113 25.032 217.793 24.88C217.481 24.72 217.233 24.504 217.049 24.232C216.865 23.96 216.773 23.656 216.773 23.32C216.773 22.888 216.881 22.548 217.097 22.3C217.321 22.052 217.685 21.876 218.189 21.772C218.701 21.668 219.397 21.616 220.277 21.616H220.817V22.252H220.289C219.801 22.252 219.393 22.268 219.065 22.3C218.737 22.332 218.477 22.388 218.285 22.468C218.093 22.548 217.957 22.652 217.877 22.78C217.797 22.908 217.757 23.068 217.757 23.26C217.757 23.588 217.869 23.856 218.093 24.064C218.325 24.272 218.637 24.376 219.029 24.376C219.349 24.376 219.629 24.3 219.869 24.148C220.117 23.996 220.309 23.788 220.445 23.524C220.589 23.26 220.661 22.956 220.661 22.612V21.244C220.661 20.748 220.561 20.392 220.361 20.176C220.161 19.952 219.833 19.84 219.377 19.84C219.025 19.84 218.685 19.892 218.357 19.996C218.029 20.092 217.693 20.252 217.349 20.476L217.013 19.768C217.221 19.624 217.457 19.5 217.721 19.396C217.985 19.284 218.261 19.2 218.549 19.144C218.837 19.088 219.113 19.06 219.377 19.06C219.881 19.06 220.297 19.144 220.625 19.312C220.953 19.472 221.197 19.72 221.357 20.056C221.517 20.384 221.597 20.808 221.597 21.328V25H220.685V23.644H220.793C220.729 23.948 220.605 24.208 220.421 24.424C220.245 24.64 220.025 24.808 219.761 24.928C219.497 25.048 219.201 25.108 218.873 25.108ZM224.89 25L222.718 19.168H223.738L225.526 24.28H225.238L227.086 19.168H227.914L229.726 24.28H229.45L231.262 19.168H232.234L230.05 25H229.126L227.218 19.756H227.734L225.826 25H224.89ZM235.15 25.108C234.75 25.108 234.39 25.032 234.07 24.88C233.758 24.72 233.51 24.504 233.326 24.232C233.142 23.96 233.05 23.656 233.05 23.32C233.05 22.888 233.158 22.548 233.374 22.3C233.598 22.052 233.962 21.876 234.466 21.772C234.978 21.668 235.674 21.616 236.554 21.616H237.094V22.252H236.566C236.078 22.252 235.67 22.268 235.342 22.3C235.014 22.332 234.754 22.388 234.562 22.468C234.37 22.548 234.234 22.652 234.154 22.78C234.074 22.908 234.034 23.068 234.034 23.26C234.034 23.588 234.146 23.856 234.37 24.064C234.602 24.272 234.914 24.376 235.306 24.376C235.626 24.376 235.906 24.3 236.146 24.148C236.394 23.996 236.586 23.788 236.722 23.524C236.866 23.26 236.938 22.956 236.938 22.612V21.244C236.938 20.748 236.838 20.392 236.638 20.176C236.438 19.952 236.11 19.84 235.654 19.84C235.302 19.84 234.962 19.892 234.634 19.996C234.306 20.092 233.97 20.252 233.626 20.476L233.29 19.768C233.498 19.624 233.734 19.5 233.998 19.396C234.262 19.284 234.538 19.2 234.826 19.144C235.114 19.088 235.39 19.06 235.654 19.06C236.158 19.06 236.574 19.144 236.902 19.312C237.23 19.472 237.474 19.72 237.634 20.056C237.794 20.384 237.874 20.808 237.874 21.328V25H236.962V23.644H237.07C237.006 23.948 236.882 24.208 236.698 24.424C236.522 24.64 236.302 24.808 236.038 24.928C235.774 25.048 235.478 25.108 235.15 25.108ZM240.291 27.16L241.383 24.7V25.12L238.827 19.168H239.883L241.971 24.28H241.647L243.759 19.168H244.779L241.311 27.16H240.291ZM247.634 25.108C247.33 25.108 247.034 25.076 246.746 25.012C246.466 24.956 246.202 24.876 245.954 24.772C245.714 24.66 245.506 24.528 245.33 24.376L245.642 23.692C245.834 23.844 246.042 23.972 246.266 24.076C246.49 24.172 246.718 24.244 246.95 24.292C247.182 24.34 247.418 24.364 247.658 24.364C248.114 24.364 248.458 24.28 248.69 24.112C248.922 23.944 249.038 23.716 249.038 23.428C249.038 23.204 248.962 23.028 248.81 22.9C248.658 22.764 248.418 22.66 248.09 22.588L246.998 22.348C246.494 22.244 246.118 22.064 245.87 21.808C245.63 21.552 245.51 21.22 245.51 20.812C245.51 20.452 245.602 20.144 245.786 19.888C245.978 19.624 246.246 19.42 246.59 19.276C246.934 19.132 247.334 19.06 247.79 19.06C248.062 19.06 248.322 19.088 248.57 19.144C248.818 19.2 249.05 19.284 249.266 19.396C249.49 19.5 249.682 19.632 249.842 19.792L249.518 20.476C249.366 20.332 249.194 20.212 249.002 20.116C248.81 20.012 248.61 19.936 248.402 19.888C248.202 19.832 247.998 19.804 247.79 19.804C247.342 19.804 247.002 19.892 246.77 20.068C246.538 20.244 246.422 20.476 246.422 20.764C246.422 20.988 246.494 21.172 246.638 21.316C246.782 21.46 247.006 21.564 247.31 21.628L248.402 21.856C248.922 21.968 249.31 22.148 249.566 22.396C249.83 22.636 249.962 22.964 249.962 23.38C249.962 23.732 249.866 24.04 249.674 24.304C249.482 24.56 249.21 24.76 248.858 24.904C248.514 25.04 248.106 25.108 247.634 25.108ZM251.229 25V23.776H252.453V25H251.229Z" fill="black"/>
</svg>
