<svg width="314" height="27" viewBox="0 0 314 27" fill="none" xmlns="http://www.w3.org/2000/svg">
<path d="M0.0440001 9V0.539999H2.9C3.82 0.539999 4.596 0.704 5.228 1.032C5.868 1.352 6.352 1.828 6.68 2.46C7.016 3.084 7.184 3.852 7.184 4.764C7.184 5.676 7.016 6.448 6.68 7.08C6.352 7.712 5.868 8.192 5.228 8.52C4.596 8.84 3.82 9 2.9 9H0.0440001ZM1.028 8.16H2.828C3.94 8.16 4.768 7.876 5.312 7.308C5.864 6.74 6.14 5.892 6.14 4.764C6.14 3.636 5.864 2.792 5.312 2.232C4.76 1.664 3.932 1.38 2.828 1.38H1.028V8.16ZM10.8823 9.108C10.4103 9.108 10.0183 9.024 9.70625 8.856C9.40225 8.68 9.17025 8.42 9.01025 8.076C8.85825 7.732 8.78225 7.304 8.78225 6.792V3.168H9.75425V6.78C9.75425 7.124 9.79825 7.412 9.88625 7.644C9.98225 7.868 10.1303 8.036 10.3303 8.148C10.5303 8.252 10.7783 8.304 11.0742 8.304C11.4103 8.304 11.7023 8.228 11.9503 8.076C12.1983 7.924 12.3943 7.712 12.5383 7.44C12.6823 7.168 12.7543 6.848 12.7543 6.48V3.168H13.7263V9H12.7783V7.656H12.9343C12.7743 8.128 12.5103 8.488 12.1423 8.736C11.7823 8.984 11.3623 9.108 10.8823 9.108ZM15.5448 9V3.168H16.4928V4.548H16.3728C16.5088 4.076 16.7448 3.72 17.0808 3.48C17.4168 3.232 17.8608 3.088 18.4128 3.048L18.7608 3.012L18.8328 3.852L18.2208 3.924C17.6768 3.972 17.2568 4.148 16.9608 4.452C16.6728 4.748 16.5288 5.156 16.5288 5.676V9H15.5448ZM21.623 9.108C21.223 9.108 20.863 9.032 20.543 8.88C20.231 8.72 19.983 8.504 19.799 8.232C19.615 7.96 19.523 7.656 19.523 7.32C19.523 6.888 19.631 6.548 19.847 6.3C20.071 6.052 20.435 5.876 20.939 5.772C21.451 5.668 22.147 5.616 23.027 5.616H23.567V6.252H23.039C22.551 6.252 22.143 6.268 21.815 6.3C21.487 6.332 21.227 6.388 21.035 6.468C20.843 6.548 20.707 6.652 20.627 6.78C20.547 6.908 20.507 7.068 20.507 7.26C20.507 7.588 20.619 7.856 20.843 8.064C21.075 8.272 21.387 8.376 21.779 8.376C22.099 8.376 22.379 8.3 22.619 8.148C22.867 7.996 23.059 7.788 23.195 7.524C23.339 7.26 23.411 6.956 23.411 6.612V5.244C23.411 4.748 23.311 4.392 23.111 4.176C22.911 3.952 22.583 3.84 22.127 3.84C21.775 3.84 21.435 3.892 21.107 3.996C20.779 4.092 20.443 4.252 20.099 4.476L19.763 3.768C19.971 3.624 20.207 3.5 20.471 3.396C20.735 3.284 21.011 3.2 21.299 3.144C21.587 3.088 21.863 3.06 22.127 3.06C22.631 3.06 23.047 3.144 23.375 3.312C23.703 3.472 23.947 3.72 24.107 4.056C24.267 4.384 24.347 4.808 24.347 5.328V9H23.435V7.644H23.543C23.479 7.948 23.355 8.208 23.171 8.424C22.995 8.64 22.775 8.808 22.511 8.928C22.247 9.048 21.951 9.108 21.623 9.108ZM29.1023 9.108C28.5743 9.108 28.1183 8.972 27.7343 8.7C27.3583 8.428 27.1063 8.064 26.9783 7.608H27.0983V9H26.1503V0.539999H27.1223V4.524H26.9783C27.1143 4.076 27.3703 3.72 27.7463 3.456C28.1223 3.192 28.5743 3.06 29.1023 3.06C29.6303 3.06 30.0863 3.184 30.4703 3.432C30.8543 3.672 31.1503 4.02 31.3583 4.476C31.5743 4.924 31.6823 5.46 31.6823 6.084C31.6823 6.7 31.5743 7.236 31.3583 7.692C31.1503 8.14 30.8503 8.488 30.4583 8.736C30.0743 8.984 29.6223 9.108 29.1023 9.108ZM28.8983 8.328C29.4503 8.328 29.8863 8.136 30.2063 7.752C30.5343 7.36 30.6983 6.804 30.6983 6.084C30.6983 5.356 30.5343 4.8 30.2063 4.416C29.8863 4.032 29.4503 3.84 28.8983 3.84C28.3543 3.84 27.9183 4.032 27.5903 4.416C27.2623 4.8 27.0983 5.356 27.0983 6.084C27.0983 6.804 27.2623 7.36 27.5903 7.752C27.9183 8.136 28.3543 8.328 28.8983 8.328ZM34.9344 9.108C34.3424 9.108 33.8944 8.932 33.5904 8.58C33.2944 8.228 33.1464 7.724 33.1464 7.068V0.539999H34.1184V6.996C34.1184 7.276 34.1544 7.512 34.2264 7.704C34.3064 7.896 34.4224 8.04 34.5744 8.136C34.7264 8.232 34.9144 8.28 35.1384 8.28C35.2344 8.28 35.3264 8.276 35.4144 8.268C35.5104 8.252 35.5984 8.232 35.6784 8.208L35.6544 9.024C35.5264 9.048 35.4024 9.068 35.2824 9.084C35.1704 9.1 35.0544 9.108 34.9344 9.108ZM39.2666 9.108C38.6506 9.108 38.1186 8.988 37.6706 8.748C37.2306 8.5 36.8866 8.152 36.6386 7.704C36.3986 7.256 36.2786 6.72 36.2786 6.096C36.2786 5.488 36.3986 4.96 36.6386 4.512C36.8786 4.056 37.2066 3.7 37.6226 3.444C38.0466 3.188 38.5346 3.06 39.0866 3.06C39.6146 3.06 40.0666 3.176 40.4426 3.408C40.8186 3.64 41.1066 3.968 41.3066 4.392C41.5146 4.816 41.6186 5.324 41.6186 5.916V6.288H37.0226V5.652H40.9706L40.7786 5.808C40.7786 5.168 40.6346 4.672 40.3466 4.32C40.0666 3.96 39.6546 3.78 39.1106 3.78C38.7026 3.78 38.3546 3.876 38.0666 4.068C37.7866 4.252 37.5746 4.512 37.4306 4.848C37.2866 5.176 37.2146 5.56 37.2146 6V6.072C37.2146 6.56 37.2906 6.972 37.4426 7.308C37.6026 7.644 37.8386 7.9 38.1506 8.076C38.4626 8.244 38.8346 8.328 39.2666 8.328C39.6106 8.328 39.9426 8.276 40.2626 8.172C40.5906 8.06 40.8986 7.88 41.1866 7.632L41.5226 8.316C41.2586 8.556 40.9226 8.748 40.5146 8.892C40.1066 9.036 39.6906 9.108 39.2666 9.108ZM48.9753 9.108C48.6153 9.108 48.2633 9.068 47.9193 8.988C47.5753 8.908 47.2513 8.792 46.9473 8.64C46.6513 8.488 46.3873 8.308 46.1553 8.1L46.5273 7.32C46.9113 7.632 47.2993 7.864 47.6913 8.016C48.0913 8.16 48.5153 8.232 48.9633 8.232C49.5553 8.232 50.0153 8.068 50.3433 7.74C50.6793 7.412 50.8473 6.98 50.8473 6.444C50.8473 5.892 50.6873 5.44 50.3673 5.088C50.0473 4.736 49.6073 4.56 49.0473 4.56C48.6393 4.56 48.2793 4.644 47.9673 4.812C47.6633 4.972 47.3873 5.224 47.1393 5.568H46.4193V0.539999H51.3273V1.38H47.3913V4.752H47.1273C47.3353 4.416 47.6233 4.16 47.9913 3.984C48.3593 3.8 48.7713 3.708 49.2273 3.708C49.7633 3.708 50.2233 3.82 50.6073 4.044C50.9993 4.268 51.2993 4.584 51.5073 4.992C51.7233 5.392 51.8313 5.86 51.8313 6.396C51.8313 6.924 51.7153 7.392 51.4833 7.8C51.2513 8.208 50.9233 8.528 50.4993 8.76C50.0753 8.992 49.5673 9.108 48.9753 9.108ZM55.9906 9.108C55.3506 9.108 54.8066 8.944 54.3586 8.616C53.9186 8.28 53.5866 7.788 53.3626 7.14C53.1386 6.492 53.0266 5.7 53.0266 4.764C53.0266 3.82 53.1386 3.028 53.3626 2.388C53.5866 1.74 53.9186 1.252 54.3586 0.924C54.8066 0.595999 55.3506 0.431999 55.9906 0.431999C56.6386 0.431999 57.1826 0.595999 57.6226 0.924C58.0626 1.252 58.3946 1.736 58.6186 2.376C58.8426 3.016 58.9546 3.808 58.9546 4.752C58.9546 5.696 58.8426 6.492 58.6186 7.14C58.3946 7.788 58.0626 8.28 57.6226 8.616C57.1826 8.944 56.6386 9.108 55.9906 9.108ZM55.9906 8.256C56.6626 8.256 57.1586 7.972 57.4786 7.404C57.8066 6.836 57.9706 5.952 57.9706 4.752C57.9706 3.552 57.8106 2.676 57.4906 2.124C57.1706 1.564 56.6706 1.284 55.9906 1.284C55.3266 1.284 54.8306 1.564 54.5026 2.124C54.1746 2.684 54.0106 3.56 54.0106 4.752C54.0106 5.952 54.1706 6.836 54.4906 7.404C54.8186 7.972 55.3186 8.256 55.9906 8.256ZM63.1859 9.108C62.5459 9.108 62.0019 8.944 61.5539 8.616C61.1139 8.28 60.7819 7.788 60.5579 7.14C60.3339 6.492 60.2219 5.7 60.2219 4.764C60.2219 3.82 60.3339 3.028 60.5579 2.388C60.7819 1.74 61.1139 1.252 61.5539 0.924C62.0019 0.595999 62.5459 0.431999 63.1859 0.431999C63.8339 0.431999 64.3779 0.595999 64.8179 0.924C65.2579 1.252 65.5899 1.736 65.8139 2.376C66.0379 3.016 66.1499 3.808 66.1499 4.752C66.1499 5.696 66.0379 6.492 65.8139 7.14C65.5899 7.788 65.2579 8.28 64.8179 8.616C64.3779 8.944 63.8339 9.108 63.1859 9.108ZM63.1859 8.256C63.8579 8.256 64.3539 7.972 64.6739 7.404C65.0019 6.836 65.1659 5.952 65.1659 4.752C65.1659 3.552 65.0059 2.676 64.6859 2.124C64.3659 1.564 63.8659 1.284 63.1859 1.284C62.5219 1.284 62.0259 1.564 61.6979 2.124C61.3699 2.684 61.2059 3.56 61.2059 4.752C61.2059 5.952 61.3659 6.836 61.6859 7.404C62.0139 7.972 62.5139 8.256 63.1859 8.256ZM67.7173 9V3.168H68.6653V4.464H68.5333C68.6293 4.168 68.7693 3.916 68.9533 3.708C69.1453 3.492 69.3693 3.332 69.6253 3.228C69.8893 3.116 70.1773 3.06 70.4893 3.06C70.9853 3.06 71.3853 3.18 71.6893 3.42C72.0013 3.652 72.2093 4.016 72.3133 4.512H72.1333C72.2773 4.064 72.5333 3.712 72.9013 3.456C73.2773 3.192 73.7133 3.06 74.2093 3.06C74.6493 3.06 75.0093 3.144 75.2893 3.312C75.5773 3.48 75.7933 3.736 75.9373 4.08C76.0813 4.416 76.1533 4.844 76.1533 5.364V9H75.1813V5.412C75.1813 4.876 75.0893 4.484 74.9053 4.236C74.7213 3.98 74.4093 3.852 73.9693 3.852C73.6573 3.852 73.3813 3.928 73.1413 4.08C72.9093 4.232 72.7293 4.448 72.6013 4.728C72.4813 5 72.4213 5.324 72.4213 5.7V9H71.4493V5.412C71.4493 4.876 71.3533 4.484 71.1613 4.236C70.9773 3.98 70.6693 3.852 70.2373 3.852C69.9173 3.852 69.6413 3.928 69.4093 4.08C69.1773 4.232 68.9973 4.448 68.8693 4.728C68.7493 5 68.6893 5.324 68.6893 5.7V9H67.7173ZM79.7586 9.108C79.1666 9.108 78.7186 8.932 78.4146 8.58C78.1186 8.228 77.9706 7.724 77.9706 7.068V0.539999H78.9426V6.996C78.9426 7.276 78.9786 7.512 79.0506 7.704C79.1306 7.896 79.2466 8.04 79.3986 8.136C79.5506 8.232 79.7386 8.28 79.9626 8.28C80.0586 8.28 80.1506 8.276 80.2386 8.268C80.3346 8.252 80.4226 8.232 80.5026 8.208L80.4786 9.024C80.3506 9.048 80.2266 9.068 80.1066 9.084C79.9946 9.1 79.8786 9.108 79.7586 9.108ZM88.3954 9.108C87.5634 9.108 86.8514 8.932 86.2594 8.58C85.6674 8.228 85.2114 7.728 84.8914 7.08C84.5794 6.432 84.4234 5.66 84.4234 4.764C84.4234 3.868 84.5794 3.1 84.8914 2.46C85.2114 1.812 85.6674 1.312 86.2594 0.96C86.8514 0.608 87.5634 0.431999 88.3954 0.431999C88.9794 0.431999 89.5194 0.523999 90.0154 0.707999C90.5114 0.891999 90.9274 1.16 91.2634 1.512L90.8794 2.316C90.5114 1.972 90.1274 1.724 89.7274 1.572C89.3354 1.412 88.8994 1.332 88.4194 1.332C87.4674 1.332 86.7394 1.632 86.2354 2.232C85.7314 2.832 85.4794 3.676 85.4794 4.764C85.4794 5.852 85.7314 6.7 86.2354 7.308C86.7394 7.908 87.4674 8.208 88.4194 8.208C88.8994 8.208 89.3354 8.132 89.7274 7.98C90.1274 7.82 90.5114 7.568 90.8794 7.224L91.2634 8.028C90.9274 8.372 90.5114 8.64 90.0154 8.832C89.5194 9.016 88.9794 9.108 88.3954 9.108ZM94.6798 9.108C94.1118 9.108 93.6198 8.984 93.2038 8.736C92.7878 8.488 92.4638 8.14 92.2318 7.692C92.0078 7.236 91.8958 6.7 91.8958 6.084C91.8958 5.468 92.0078 4.936 92.2318 4.488C92.4638 4.032 92.7878 3.68 93.2038 3.432C93.6198 3.184 94.1118 3.06 94.6798 3.06C95.2478 3.06 95.7398 3.184 96.1558 3.432C96.5718 3.68 96.8918 4.032 97.1158 4.488C97.3478 4.936 97.4638 5.468 97.4638 6.084C97.4638 6.7 97.3478 7.236 97.1158 7.692C96.8918 8.14 96.5718 8.488 96.1558 8.736C95.7398 8.984 95.2478 9.108 94.6798 9.108ZM94.6798 8.328C95.2318 8.328 95.6678 8.136 95.9878 7.752C96.3158 7.36 96.4798 6.8 96.4798 6.072C96.4798 5.352 96.3158 4.8 95.9878 4.416C95.6678 4.032 95.2318 3.84 94.6798 3.84C94.1358 3.84 93.6998 4.032 93.3718 4.416C93.0438 4.8 92.8798 5.352 92.8798 6.072C92.8798 6.8 93.0438 7.36 93.3718 7.752C93.6998 8.136 94.1358 8.328 94.6798 8.328ZM98.9237 9V3.168H99.8717V4.464H99.7397C99.9077 4 100.18 3.652 100.556 3.42C100.94 3.18 101.38 3.06 101.876 3.06C102.34 3.06 102.724 3.144 103.028 3.312C103.34 3.472 103.572 3.724 103.724 4.068C103.876 4.412 103.952 4.844 103.952 5.364V9H102.98V5.424C102.98 5.064 102.932 4.768 102.836 4.536C102.748 4.304 102.604 4.132 102.404 4.02C102.212 3.908 101.96 3.852 101.648 3.852C101.296 3.852 100.988 3.928 100.724 4.08C100.46 4.232 100.256 4.444 100.112 4.716C99.9677 4.988 99.8957 5.308 99.8957 5.676V9H98.9237ZM108.084 9.108C107.396 9.108 106.88 8.924 106.536 8.556C106.192 8.188 106.02 7.664 106.02 6.984V3.924H104.88V3.168H106.02V1.38H106.992V3.168H108.84V3.924H106.992V6.888C106.992 7.344 107.088 7.692 107.28 7.932C107.472 8.164 107.784 8.28 108.216 8.28C108.344 8.28 108.472 8.264 108.6 8.232C108.728 8.2 108.844 8.168 108.948 8.136L109.116 8.88C109.012 8.936 108.86 8.988 108.66 9.036C108.46 9.084 108.268 9.108 108.084 9.108ZM111.775 9.108C111.375 9.108 111.015 9.032 110.695 8.88C110.383 8.72 110.135 8.504 109.951 8.232C109.767 7.96 109.675 7.656 109.675 7.32C109.675 6.888 109.783 6.548 109.999 6.3C110.223 6.052 110.587 5.876 111.091 5.772C111.603 5.668 112.299 5.616 113.179 5.616H113.719V6.252H113.191C112.703 6.252 112.295 6.268 111.967 6.3C111.639 6.332 111.379 6.388 111.187 6.468C110.995 6.548 110.859 6.652 110.779 6.78C110.699 6.908 110.659 7.068 110.659 7.26C110.659 7.588 110.771 7.856 110.995 8.064C111.227 8.272 111.539 8.376 111.931 8.376C112.251 8.376 112.531 8.3 112.771 8.148C113.019 7.996 113.211 7.788 113.347 7.524C113.491 7.26 113.563 6.956 113.563 6.612V5.244C113.563 4.748 113.463 4.392 113.263 4.176C113.063 3.952 112.735 3.84 112.279 3.84C111.927 3.84 111.587 3.892 111.259 3.996C110.931 4.092 110.595 4.252 110.251 4.476L109.915 3.768C110.123 3.624 110.359 3.5 110.623 3.396C110.887 3.284 111.163 3.2 111.451 3.144C111.739 3.088 112.015 3.06 112.279 3.06C112.783 3.06 113.199 3.144 113.527 3.312C113.855 3.472 114.099 3.72 114.259 4.056C114.419 4.384 114.499 4.808 114.499 5.328V9H113.587V7.644H113.695C113.631 7.948 113.507 8.208 113.323 8.424C113.147 8.64 112.927 8.808 112.663 8.928C112.399 9.048 112.103 9.108 111.775 9.108ZM116.183 1.716V0.624H117.383V1.716H116.183ZM116.303 9V3.168H117.275V9H116.303ZM119.092 9V3.168H120.04V4.464H119.908C120.076 4 120.348 3.652 120.724 3.42C121.108 3.18 121.548 3.06 122.044 3.06C122.508 3.06 122.892 3.144 123.196 3.312C123.508 3.472 123.74 3.724 123.892 4.068C124.044 4.412 124.12 4.844 124.12 5.364V9H123.148V5.424C123.148 5.064 123.1 4.768 123.004 4.536C122.916 4.304 122.772 4.132 122.572 4.02C122.38 3.908 122.128 3.852 121.816 3.852C121.464 3.852 121.156 3.928 120.892 4.08C120.628 4.232 120.424 4.444 120.28 4.716C120.136 4.988 120.064 5.308 120.064 5.676V9H119.092ZM128.54 9.108C127.924 9.108 127.392 8.988 126.944 8.748C126.504 8.5 126.16 8.152 125.912 7.704C125.672 7.256 125.552 6.72 125.552 6.096C125.552 5.488 125.672 4.96 125.912 4.512C126.152 4.056 126.48 3.7 126.896 3.444C127.32 3.188 127.808 3.06 128.36 3.06C128.888 3.06 129.34 3.176 129.716 3.408C130.092 3.64 130.38 3.968 130.58 4.392C130.788 4.816 130.892 5.324 130.892 5.916V6.288H126.296V5.652H130.244L130.052 5.808C130.052 5.168 129.908 4.672 129.62 4.32C129.34 3.96 128.928 3.78 128.384 3.78C127.976 3.78 127.628 3.876 127.34 4.068C127.06 4.252 126.848 4.512 126.704 4.848C126.56 5.176 126.488 5.56 126.488 6V6.072C126.488 6.56 126.564 6.972 126.716 7.308C126.876 7.644 127.112 7.9 127.424 8.076C127.736 8.244 128.108 8.328 128.54 8.328C128.884 8.328 129.216 8.276 129.536 8.172C129.864 8.06 130.172 7.88 130.46 7.632L130.796 8.316C130.532 8.556 130.196 8.748 129.788 8.892C129.38 9.036 128.964 9.108 128.54 9.108ZM132.299 9V3.168H133.247V4.548H133.127C133.263 4.076 133.499 3.72 133.835 3.48C134.171 3.232 134.615 3.088 135.167 3.048L135.515 3.012L135.587 3.852L134.975 3.924C134.431 3.972 134.011 4.148 133.715 4.452C133.427 4.748 133.283 5.156 133.283 5.676V9H132.299ZM136.701 10.368L136.245 10.02C136.389 9.868 136.497 9.724 136.569 9.588C136.649 9.46 136.701 9.328 136.725 9.192C136.757 9.064 136.773 8.932 136.773 8.796L136.989 9H136.197V7.776H137.421V8.64C137.421 8.856 137.397 9.06 137.349 9.252C137.309 9.452 137.237 9.644 137.133 9.828C137.029 10.012 136.885 10.192 136.701 10.368ZM142.322 9V0.539999H143.15L146.582 6.984H146.222L149.63 0.539999H150.458V9H149.546V1.86H149.834L146.726 7.692H146.078L142.934 1.848H143.222V9H142.322ZM152.312 1.716V0.624H153.512V1.716H152.312ZM152.432 9V3.168H153.404V9H152.432ZM157.693 9.108C157.109 9.108 156.605 8.98 156.181 8.724C155.757 8.468 155.429 8.112 155.197 7.656C154.973 7.192 154.861 6.656 154.861 6.048C154.861 5.432 154.973 4.9 155.197 4.452C155.429 4.004 155.757 3.66 156.181 3.42C156.605 3.18 157.109 3.06 157.693 3.06C158.053 3.06 158.409 3.124 158.761 3.252C159.113 3.38 159.405 3.56 159.637 3.792L159.301 4.5C159.069 4.276 158.813 4.112 158.533 4.008C158.261 3.904 158.001 3.852 157.753 3.852C157.145 3.852 156.677 4.044 156.349 4.428C156.021 4.804 155.857 5.348 155.857 6.06C155.857 6.756 156.021 7.308 156.349 7.716C156.677 8.116 157.145 8.316 157.753 8.316C158.001 8.316 158.261 8.264 158.533 8.16C158.813 8.056 159.069 7.888 159.301 7.656L159.637 8.364C159.405 8.596 159.109 8.78 158.749 8.916C158.397 9.044 158.045 9.108 157.693 9.108ZM160.775 9V3.168H161.723V4.548H161.603C161.739 4.076 161.975 3.72 162.311 3.48C162.647 3.232 163.091 3.088 163.643 3.048L163.991 3.012L164.063 3.852L163.451 3.924C162.907 3.972 162.487 4.148 162.191 4.452C161.903 4.748 161.759 5.156 161.759 5.676V9H160.775ZM167.43 9.108C166.862 9.108 166.37 8.984 165.954 8.736C165.538 8.488 165.214 8.14 164.982 7.692C164.758 7.236 164.646 6.7 164.646 6.084C164.646 5.468 164.758 4.936 164.982 4.488C165.214 4.032 165.538 3.68 165.954 3.432C166.37 3.184 166.862 3.06 167.43 3.06C167.998 3.06 168.49 3.184 168.906 3.432C169.322 3.68 169.642 4.032 169.866 4.488C170.098 4.936 170.214 5.468 170.214 6.084C170.214 6.7 170.098 7.236 169.866 7.692C169.642 8.14 169.322 8.488 168.906 8.736C168.49 8.984 167.998 9.108 167.43 9.108ZM167.43 8.328C167.982 8.328 168.418 8.136 168.738 7.752C169.066 7.36 169.23 6.8 169.23 6.072C169.23 5.352 169.066 4.8 168.738 4.416C168.418 4.032 167.982 3.84 167.43 3.84C166.886 3.84 166.45 4.032 166.122 4.416C165.794 4.8 165.63 5.352 165.63 6.072C165.63 6.8 165.794 7.36 166.122 7.752C166.45 8.136 166.886 8.328 167.43 8.328ZM173.14 9L170.968 3.168H171.988L173.776 8.28H173.488L175.336 3.168H176.164L177.976 8.28H177.7L179.512 3.168H180.484L178.3 9H177.376L175.468 3.756H175.984L174.076 9H173.14ZM183.4 9.108C183 9.108 182.64 9.032 182.32 8.88C182.008 8.72 181.76 8.504 181.576 8.232C181.392 7.96 181.3 7.656 181.3 7.32C181.3 6.888 181.408 6.548 181.624 6.3C181.848 6.052 182.212 5.876 182.716 5.772C183.228 5.668 183.924 5.616 184.804 5.616H185.344V6.252H184.816C184.328 6.252 183.92 6.268 183.592 6.3C183.264 6.332 183.004 6.388 182.812 6.468C182.62 6.548 182.484 6.652 182.404 6.78C182.324 6.908 182.284 7.068 182.284 7.26C182.284 7.588 182.396 7.856 182.62 8.064C182.852 8.272 183.164 8.376 183.556 8.376C183.876 8.376 184.156 8.3 184.396 8.148C184.644 7.996 184.836 7.788 184.972 7.524C185.116 7.26 185.188 6.956 185.188 6.612V5.244C185.188 4.748 185.088 4.392 184.888 4.176C184.688 3.952 184.36 3.84 183.904 3.84C183.552 3.84 183.212 3.892 182.884 3.996C182.556 4.092 182.22 4.252 181.876 4.476L181.54 3.768C181.748 3.624 181.984 3.5 182.248 3.396C182.512 3.284 182.788 3.2 183.076 3.144C183.364 3.088 183.64 3.06 183.904 3.06C184.408 3.06 184.824 3.144 185.152 3.312C185.48 3.472 185.724 3.72 185.884 4.056C186.044 4.384 186.124 4.808 186.124 5.328V9H185.212V7.644H185.32C185.256 7.948 185.132 8.208 184.948 8.424C184.772 8.64 184.552 8.808 184.288 8.928C184.024 9.048 183.728 9.108 183.4 9.108ZM189.585 9L187.077 3.168H188.133L190.221 8.28H189.897L192.021 3.168H193.017L190.497 9H189.585ZM196.591 9.108C195.975 9.108 195.443 8.988 194.995 8.748C194.555 8.5 194.211 8.152 193.963 7.704C193.723 7.256 193.603 6.72 193.603 6.096C193.603 5.488 193.723 4.96 193.963 4.512C194.203 4.056 194.531 3.7 194.947 3.444C195.371 3.188 195.859 3.06 196.411 3.06C196.939 3.06 197.391 3.176 197.767 3.408C198.143 3.64 198.431 3.968 198.631 4.392C198.839 4.816 198.943 5.324 198.943 5.916V6.288H194.347V5.652H198.295L198.103 5.808C198.103 5.168 197.959 4.672 197.671 4.32C197.391 3.96 196.979 3.78 196.435 3.78C196.027 3.78 195.679 3.876 195.391 4.068C195.111 4.252 194.899 4.512 194.755 4.848C194.611 5.176 194.539 5.56 194.539 6V6.072C194.539 6.56 194.615 6.972 194.767 7.308C194.927 7.644 195.163 7.9 195.475 8.076C195.787 8.244 196.159 8.328 196.591 8.328C196.935 8.328 197.267 8.276 197.587 8.172C197.915 8.06 198.223 7.88 198.511 7.632L198.847 8.316C198.583 8.556 198.247 8.748 197.839 8.892C197.431 9.036 197.015 9.108 196.591 9.108ZM200.43 6.204V5.4H203.79V6.204H200.43ZM207.962 9L211.694 0.539999H212.534L216.266 9H215.246L214.202 6.588L214.682 6.84H209.522L210.014 6.588L208.982 9H207.962ZM212.102 1.692L210.17 6.24L209.882 6.012H214.322L214.058 6.24L212.126 1.692H212.102ZM217.389 9V3.168H218.337V4.464H218.205C218.373 4 218.645 3.652 219.021 3.42C219.405 3.18 219.845 3.06 220.341 3.06C220.805 3.06 221.189 3.144 221.493 3.312C221.805 3.472 222.037 3.724 222.189 4.068C222.341 4.412 222.417 4.844 222.417 5.364V9H221.445V5.424C221.445 5.064 221.397 4.768 221.301 4.536C221.213 4.304 221.069 4.132 220.869 4.02C220.677 3.908 220.425 3.852 220.113 3.852C219.761 3.852 219.453 3.928 219.189 4.08C218.925 4.232 218.721 4.444 218.577 4.716C218.433 4.988 218.361 5.308 218.361 5.676V9H217.389ZM226.429 9.108C225.909 9.108 225.453 8.984 225.061 8.736C224.677 8.488 224.377 8.14 224.161 7.692C223.953 7.236 223.849 6.7 223.849 6.084C223.849 5.46 223.953 4.924 224.161 4.476C224.377 4.02 224.677 3.672 225.061 3.432C225.453 3.184 225.909 3.06 226.429 3.06C226.957 3.06 227.409 3.192 227.785 3.456C228.161 3.72 228.413 4.076 228.541 4.524H228.409V0.539999H229.381V9H228.433V7.608H228.553C228.425 8.064 228.169 8.428 227.785 8.7C227.409 8.972 226.957 9.108 226.429 9.108ZM226.633 8.328C227.185 8.328 227.621 8.136 227.941 7.752C228.269 7.36 228.433 6.804 228.433 6.084C228.433 5.356 228.269 4.8 227.941 4.416C227.621 4.032 227.185 3.84 226.633 3.84C226.089 3.84 225.653 4.032 225.325 4.416C224.997 4.8 224.833 5.356 224.833 6.084C224.833 6.804 224.997 7.36 225.325 7.752C225.653 8.136 226.089 8.328 226.633 8.328ZM234.419 9V0.539999H239.651V1.368H235.403V4.32H239.411V5.148H235.403V9H234.419ZM240.744 9V3.168H241.692V4.548H241.572C241.708 4.076 241.944 3.72 242.28 3.48C242.616 3.232 243.06 3.088 243.612 3.048L243.96 3.012L244.032 3.852L243.42 3.924C242.876 3.972 242.456 4.148 242.16 4.452C241.872 4.748 241.728 5.156 241.728 5.676V9H240.744ZM247.603 9.108C246.987 9.108 246.455 8.988 246.007 8.748C245.567 8.5 245.223 8.152 244.975 7.704C244.735 7.256 244.615 6.72 244.615 6.096C244.615 5.488 244.735 4.96 244.975 4.512C245.215 4.056 245.543 3.7 245.959 3.444C246.383 3.188 246.871 3.06 247.423 3.06C247.951 3.06 248.403 3.176 248.779 3.408C249.155 3.64 249.443 3.968 249.643 4.392C249.851 4.816 249.955 5.324 249.955 5.916V6.288H245.359V5.652H249.307L249.115 5.808C249.115 5.168 248.971 4.672 248.683 4.32C248.403 3.96 247.991 3.78 247.447 3.78C247.039 3.78 246.691 3.876 246.403 4.068C246.123 4.252 245.911 4.512 245.767 4.848C245.623 5.176 245.551 5.56 245.551 6V6.072C245.551 6.56 245.627 6.972 245.779 7.308C245.939 7.644 246.175 7.9 246.487 8.076C246.799 8.244 247.171 8.328 247.603 8.328C247.947 8.328 248.279 8.276 248.599 8.172C248.927 8.06 249.235 7.88 249.523 7.632L249.859 8.316C249.595 8.556 249.259 8.748 248.851 8.892C248.443 9.036 248.027 9.108 247.603 9.108ZM253.989 9.108C253.373 9.108 252.841 8.988 252.393 8.748C251.953 8.5 251.609 8.152 251.361 7.704C251.121 7.256 251.001 6.72 251.001 6.096C251.001 5.488 251.121 4.96 251.361 4.512C251.601 4.056 251.929 3.7 252.345 3.444C252.769 3.188 253.257 3.06 253.809 3.06C254.337 3.06 254.789 3.176 255.165 3.408C255.541 3.64 255.829 3.968 256.029 4.392C256.237 4.816 256.341 5.324 256.341 5.916V6.288H251.745V5.652H255.693L255.501 5.808C255.501 5.168 255.357 4.672 255.069 4.32C254.789 3.96 254.377 3.78 253.833 3.78C253.425 3.78 253.077 3.876 252.789 4.068C252.509 4.252 252.297 4.512 252.153 4.848C252.009 5.176 251.937 5.56 251.937 6V6.072C251.937 6.56 252.013 6.972 252.165 7.308C252.325 7.644 252.561 7.9 252.873 8.076C253.185 8.244 253.557 8.328 253.989 8.328C254.333 8.328 254.665 8.276 254.985 8.172C255.313 8.06 255.621 7.88 255.909 7.632L256.245 8.316C255.981 8.556 255.645 8.748 255.237 8.892C254.829 9.036 254.413 9.108 253.989 9.108ZM257.473 9V8.352L260.989 3.672V3.924H257.473V3.168H261.889V3.816L258.337 8.52V8.244H262.021V9H257.473ZM265.79 9.108C265.174 9.108 264.642 8.988 264.194 8.748C263.754 8.5 263.41 8.152 263.162 7.704C262.922 7.256 262.802 6.72 262.802 6.096C262.802 5.488 262.922 4.96 263.162 4.512C263.402 4.056 263.73 3.7 264.146 3.444C264.57 3.188 265.058 3.06 265.61 3.06C266.138 3.06 266.59 3.176 266.966 3.408C267.342 3.64 267.63 3.968 267.83 4.392C268.038 4.816 268.142 5.324 268.142 5.916V6.288H263.546V5.652H267.494L267.302 5.808C267.302 5.168 267.158 4.672 266.87 4.32C266.59 3.96 266.178 3.78 265.634 3.78C265.226 3.78 264.878 3.876 264.59 4.068C264.31 4.252 264.098 4.512 263.954 4.848C263.81 5.176 263.738 5.56 263.738 6V6.072C263.738 6.56 263.814 6.972 263.966 7.308C264.126 7.644 264.362 7.9 264.674 8.076C264.986 8.244 265.358 8.328 265.79 8.328C266.134 8.328 266.466 8.276 266.786 8.172C267.114 8.06 267.422 7.88 267.71 7.632L268.046 8.316C267.782 8.556 267.446 8.748 267.038 8.892C266.63 9.036 266.214 9.108 265.79 9.108ZM269.549 9V3.168H270.497V4.548H270.377C270.513 4.076 270.749 3.72 271.085 3.48C271.421 3.232 271.865 3.088 272.417 3.048L272.765 3.012L272.837 3.852L272.225 3.924C271.681 3.972 271.261 4.148 270.965 4.452C270.677 4.748 270.533 5.156 270.533 5.676V9H269.549ZM273.52 6.204V5.4H276.88V6.204H273.52ZM281.288 9.108C280.848 9.108 280.432 9.068 280.04 8.988C279.656 8.908 279.3 8.796 278.972 8.652C278.652 8.5 278.36 8.316 278.096 8.1L278.444 7.308C278.716 7.508 278.992 7.68 279.272 7.824C279.56 7.96 279.868 8.064 280.196 8.136C280.532 8.2 280.896 8.232 281.288 8.232C282.008 8.232 282.54 8.1 282.884 7.836C283.236 7.564 283.412 7.208 283.412 6.768C283.412 6.536 283.356 6.336 283.244 6.168C283.14 6 282.964 5.856 282.716 5.736C282.476 5.616 282.16 5.516 281.768 5.436L280.52 5.184C279.768 5.024 279.204 4.764 278.828 4.404C278.46 4.036 278.276 3.548 278.276 2.94C278.276 2.436 278.404 1.996 278.66 1.62C278.924 1.244 279.288 0.951999 279.752 0.744C280.224 0.536 280.76 0.431999 281.36 0.431999C281.744 0.431999 282.108 0.471999 282.452 0.551999C282.796 0.632 283.112 0.752 283.4 0.912C283.696 1.064 283.956 1.252 284.18 1.476L283.832 2.244C283.472 1.916 283.092 1.68 282.692 1.536C282.292 1.384 281.844 1.308 281.348 1.308C280.924 1.308 280.556 1.372 280.244 1.5C279.94 1.628 279.7 1.816 279.524 2.064C279.356 2.304 279.272 2.584 279.272 2.904C279.272 3.288 279.388 3.592 279.62 3.816C279.86 4.04 280.248 4.204 280.784 4.308L282.032 4.572C282.84 4.74 283.436 4.996 283.82 5.34C284.212 5.676 284.408 6.136 284.408 6.72C284.408 7.184 284.28 7.6 284.024 7.968C283.776 8.328 283.416 8.608 282.944 8.808C282.48 9.008 281.928 9.108 281.288 9.108ZM287.639 9.108C287.239 9.108 286.879 9.032 286.559 8.88C286.247 8.72 285.999 8.504 285.815 8.232C285.631 7.96 285.539 7.656 285.539 7.32C285.539 6.888 285.647 6.548 285.863 6.3C286.087 6.052 286.451 5.876 286.955 5.772C287.467 5.668 288.163 5.616 289.043 5.616H289.583V6.252H289.055C288.567 6.252 288.159 6.268 287.831 6.3C287.503 6.332 287.243 6.388 287.051 6.468C286.859 6.548 286.723 6.652 286.643 6.78C286.563 6.908 286.523 7.068 286.523 7.26C286.523 7.588 286.635 7.856 286.859 8.064C287.091 8.272 287.403 8.376 287.795 8.376C288.115 8.376 288.395 8.3 288.635 8.148C288.883 7.996 289.075 7.788 289.211 7.524C289.355 7.26 289.427 6.956 289.427 6.612V5.244C289.427 4.748 289.327 4.392 289.127 4.176C288.927 3.952 288.599 3.84 288.143 3.84C287.791 3.84 287.451 3.892 287.123 3.996C286.795 4.092 286.459 4.252 286.115 4.476L285.779 3.768C285.987 3.624 286.223 3.5 286.487 3.396C286.751 3.284 287.027 3.2 287.315 3.144C287.603 3.088 287.879 3.06 288.143 3.06C288.647 3.06 289.063 3.144 289.391 3.312C289.719 3.472 289.963 3.72 290.123 4.056C290.283 4.384 290.363 4.808 290.363 5.328V9H289.451V7.644H289.559C289.495 7.948 289.371 8.208 289.187 8.424C289.011 8.64 288.791 8.808 288.527 8.928C288.263 9.048 287.967 9.108 287.639 9.108ZM292.478 9V3.924H291.326V3.168H292.742L292.478 3.42V2.964C292.478 2.188 292.67 1.6 293.054 1.2C293.446 0.799999 294.046 0.575999 294.854 0.528L295.322 0.504L295.406 1.248L294.854 1.284C294.526 1.308 294.258 1.38 294.05 1.5C293.842 1.62 293.69 1.792 293.594 2.016C293.498 2.24 293.45 2.516 293.45 2.844V3.348L293.306 3.168H295.13V3.924H293.45V9H292.478ZM298.626 9.108C298.01 9.108 297.478 8.988 297.03 8.748C296.59 8.5 296.246 8.152 295.998 7.704C295.758 7.256 295.638 6.72 295.638 6.096C295.638 5.488 295.758 4.96 295.998 4.512C296.238 4.056 296.566 3.7 296.982 3.444C297.406 3.188 297.894 3.06 298.446 3.06C298.974 3.06 299.426 3.176 299.802 3.408C300.178 3.64 300.466 3.968 300.666 4.392C300.874 4.816 300.978 5.324 300.978 5.916V6.288H296.382V5.652H300.33L300.138 5.808C300.138 5.168 299.994 4.672 299.706 4.32C299.426 3.96 299.014 3.78 298.47 3.78C298.062 3.78 297.714 3.876 297.426 4.068C297.146 4.252 296.934 4.512 296.79 4.848C296.646 5.176 296.574 5.56 296.574 6V6.072C296.574 6.56 296.65 6.972 296.802 7.308C296.962 7.644 297.198 7.9 297.51 8.076C297.822 8.244 298.194 8.328 298.626 8.328C298.97 8.328 299.302 8.276 299.622 8.172C299.95 8.06 300.258 7.88 300.546 7.632L300.882 8.316C300.618 8.556 300.282 8.748 299.874 8.892C299.466 9.036 299.05 9.108 298.626 9.108ZM301.602 6.12V5.484H313.602V6.12H301.602ZM0.0440001 25V16.54H1.028V25H0.0440001ZM5.20231 25.108C4.68231 25.108 4.22631 24.984 3.83431 24.736C3.45031 24.488 3.15031 24.14 2.93431 23.692C2.72631 23.236 2.62231 22.7 2.62231 22.084C2.62231 21.46 2.72631 20.924 2.93431 20.476C3.15031 20.02 3.45031 19.672 3.83431 19.432C4.22631 19.184 4.68231 19.06 5.20231 19.06C5.73031 19.06 6.18231 19.192 6.55831 19.456C6.93431 19.72 7.18631 20.076 7.31431 20.524H7.18231V16.54H8.15431V25H7.20631V23.608H7.32631C7.19831 24.064 6.94231 24.428 6.55831 24.7C6.18231 24.972 5.73031 25.108 5.20231 25.108ZM5.40631 24.328C5.95831 24.328 6.39431 24.136 6.71431 23.752C7.04231 23.36 7.20631 22.804 7.20631 22.084C7.20631 21.356 7.04231 20.8 6.71431 20.416C6.39431 20.032 5.95831 19.84 5.40631 19.84C4.86231 19.84 4.42631 20.032 4.09831 20.416C3.77031 20.8 3.60631 21.356 3.60631 22.084C3.60631 22.804 3.77031 23.36 4.09831 23.752C4.42631 24.136 4.86231 24.328 5.40631 24.328ZM12.6064 25.108C11.9904 25.108 11.4584 24.988 11.0104 24.748C10.5704 24.5 10.2264 24.152 9.97841 23.704C9.73841 23.256 9.61841 22.72 9.61841 22.096C9.61841 21.488 9.73841 20.96 9.97841 20.512C10.2184 20.056 10.5464 19.7 10.9624 19.444C11.3864 19.188 11.8744 19.06 12.4264 19.06C12.9544 19.06 13.4064 19.176 13.7824 19.408C14.1584 19.64 14.4464 19.968 14.6464 20.392C14.8544 20.816 14.9584 21.324 14.9584 21.916V22.288H10.3624V21.652H14.3104L14.1184 21.808C14.1184 21.168 13.9744 20.672 13.6864 20.32C13.4064 19.96 12.9944 19.78 12.4504 19.78C12.0424 19.78 11.6944 19.876 11.4064 20.068C11.1264 20.252 10.9144 20.512 10.7704 20.848C10.6264 21.176 10.5544 21.56 10.5544 22V22.072C10.5544 22.56 10.6304 22.972 10.7824 23.308C10.9424 23.644 11.1784 23.9 11.4904 24.076C11.8024 24.244 12.1744 24.328 12.6064 24.328C12.9504 24.328 13.2824 24.276 13.6024 24.172C13.9304 24.06 14.2384 23.88 14.5264 23.632L14.8624 24.316C14.5984 24.556 14.2624 24.748 13.8544 24.892C13.4464 25.036 13.0304 25.108 12.6064 25.108ZM18.2011 25.108C17.8011 25.108 17.4411 25.032 17.1211 24.88C16.8091 24.72 16.5611 24.504 16.3771 24.232C16.1931 23.96 16.1011 23.656 16.1011 23.32C16.1011 22.888 16.2091 22.548 16.4251 22.3C16.6491 22.052 17.0131 21.876 17.5171 21.772C18.0291 21.668 18.7251 21.616 19.6051 21.616H20.1451V22.252H19.6171C19.1291 22.252 18.7211 22.268 18.3931 22.3C18.0651 22.332 17.8051 22.388 17.6131 22.468C17.4211 22.548 17.2851 22.652 17.2051 22.78C17.1251 22.908 17.0851 23.068 17.0851 23.26C17.0851 23.588 17.1971 23.856 17.4211 24.064C17.6531 24.272 17.9651 24.376 18.3571 24.376C18.6771 24.376 18.9571 24.3 19.1971 24.148C19.4451 23.996 19.6371 23.788 19.7731 23.524C19.9171 23.26 19.9891 22.956 19.9891 22.612V21.244C19.9891 20.748 19.8891 20.392 19.6891 20.176C19.4891 19.952 19.1611 19.84 18.7051 19.84C18.3531 19.84 18.0131 19.892 17.6851 19.996C17.3571 20.092 17.0211 20.252 16.6771 20.476L16.3411 19.768C16.5491 19.624 16.7851 19.5 17.0491 19.396C17.3131 19.284 17.5891 19.2 17.8771 19.144C18.1651 19.088 18.4411 19.06 18.7051 19.06C19.2091 19.06 19.6251 19.144 19.9531 19.312C20.2811 19.472 20.5251 19.72 20.6851 20.056C20.8451 20.384 20.9251 20.808 20.9251 21.328V25H20.0131V23.644H20.1211C20.0571 23.948 19.9331 24.208 19.7491 24.424C19.5731 24.64 19.3531 24.808 19.0891 24.928C18.8251 25.048 18.5291 25.108 18.2011 25.108ZM24.5164 25.108C23.9244 25.108 23.4764 24.932 23.1724 24.58C22.8764 24.228 22.7284 23.724 22.7284 23.068V16.54H23.7004V22.996C23.7004 23.276 23.7364 23.512 23.8084 23.704C23.8884 23.896 24.0044 24.04 24.1564 24.136C24.3084 24.232 24.4964 24.28 24.7204 24.28C24.8164 24.28 24.9084 24.276 24.9964 24.268C25.0924 24.252 25.1804 24.232 25.2604 24.208L25.2364 25.024C25.1084 25.048 24.9844 25.068 24.8644 25.084C24.7524 25.1 24.6364 25.108 24.5164 25.108ZM29.4932 25V16.54H34.7252V17.368H30.4772V20.32H34.4852V21.148H30.4772V25H29.4932ZM38.1368 25.108C37.5688 25.108 37.0768 24.984 36.6608 24.736C36.2448 24.488 35.9208 24.14 35.6888 23.692C35.4648 23.236 35.3528 22.7 35.3528 22.084C35.3528 21.468 35.4648 20.936 35.6888 20.488C35.9208 20.032 36.2448 19.68 36.6608 19.432C37.0768 19.184 37.5688 19.06 38.1368 19.06C38.7048 19.06 39.1968 19.184 39.6128 19.432C40.0288 19.68 40.3488 20.032 40.5728 20.488C40.8048 20.936 40.9208 21.468 40.9208 22.084C40.9208 22.7 40.8048 23.236 40.5728 23.692C40.3488 24.14 40.0288 24.488 39.6128 24.736C39.1968 24.984 38.7048 25.108 38.1368 25.108ZM38.1368 24.328C38.6888 24.328 39.1248 24.136 39.4448 23.752C39.7728 23.36 39.9368 22.8 39.9368 22.072C39.9368 21.352 39.7728 20.8 39.4448 20.416C39.1248 20.032 38.6888 19.84 38.1368 19.84C37.5928 19.84 37.1568 20.032 36.8288 20.416C36.5008 20.8 36.3368 21.352 36.3368 22.072C36.3368 22.8 36.5008 23.36 36.8288 23.752C37.1568 24.136 37.5928 24.328 38.1368 24.328ZM42.3808 25V19.168H43.3288V20.548H43.2088C43.3448 20.076 43.5808 19.72 43.9168 19.48C44.2528 19.232 44.6968 19.088 45.2488 19.048L45.5968 19.012L45.6688 19.852L45.0568 19.924C44.5128 19.972 44.0928 20.148 43.7968 20.452C43.5088 20.748 43.3648 21.156 43.3648 21.676V25H42.3808ZM49.8956 25V16.54H53.2436C54.1476 16.54 54.8436 16.752 55.3316 17.176C55.8196 17.6 56.0636 18.204 56.0636 18.988C56.0636 19.484 55.9516 19.916 55.7276 20.284C55.5116 20.644 55.1916 20.92 54.7676 21.112C54.3436 21.296 53.8356 21.388 53.2436 21.388L53.3636 21.232H53.6036C53.9156 21.232 54.1876 21.312 54.4196 21.472C54.6516 21.632 54.8636 21.888 55.0556 22.24L56.5436 25H55.4636L53.9996 22.288C53.8796 22.064 53.7436 21.888 53.5916 21.76C53.4476 21.632 53.2796 21.544 53.0876 21.496C52.9036 21.448 52.6796 21.424 52.4156 21.424H50.8796V25H49.8956ZM50.8796 20.644H53.0996C53.7556 20.644 54.2516 20.508 54.5876 20.236C54.9236 19.956 55.0916 19.54 55.0916 18.988C55.0916 18.452 54.9236 18.048 54.5876 17.776C54.2516 17.496 53.7556 17.356 53.0996 17.356H50.8796V20.644ZM57.6709 17.716V16.624H58.8709V17.716H57.6709ZM57.7909 25V19.168H58.7629V25H57.7909ZM63.052 25.108C62.468 25.108 61.964 24.98 61.54 24.724C61.116 24.468 60.788 24.112 60.556 23.656C60.332 23.192 60.22 22.656 60.22 22.048C60.22 21.432 60.332 20.9 60.556 20.452C60.788 20.004 61.116 19.66 61.54 19.42C61.964 19.18 62.468 19.06 63.052 19.06C63.412 19.06 63.768 19.124 64.12 19.252C64.472 19.38 64.764 19.56 64.996 19.792L64.66 20.5C64.428 20.276 64.172 20.112 63.892 20.008C63.62 19.904 63.36 19.852 63.112 19.852C62.504 19.852 62.036 20.044 61.708 20.428C61.38 20.804 61.216 21.348 61.216 22.06C61.216 22.756 61.38 23.308 61.708 23.716C62.036 24.116 62.504 24.316 63.112 24.316C63.36 24.316 63.62 24.264 63.892 24.16C64.172 24.056 64.428 23.888 64.66 23.656L64.996 24.364C64.764 24.596 64.468 24.78 64.108 24.916C63.756 25.044 63.404 25.108 63.052 25.108ZM68.6455 25.108C68.0295 25.108 67.4975 24.988 67.0495 24.748C66.6095 24.5 66.2655 24.152 66.0175 23.704C65.7775 23.256 65.6575 22.72 65.6575 22.096C65.6575 21.488 65.7775 20.96 66.0175 20.512C66.2575 20.056 66.5855 19.7 67.0015 19.444C67.4255 19.188 67.9135 19.06 68.4655 19.06C68.9935 19.06 69.4455 19.176 69.8215 19.408C70.1975 19.64 70.4855 19.968 70.6855 20.392C70.8935 20.816 70.9975 21.324 70.9975 21.916V22.288H66.4015V21.652H70.3495L70.1575 21.808C70.1575 21.168 70.0135 20.672 69.7255 20.32C69.4455 19.96 69.0335 19.78 68.4895 19.78C68.0815 19.78 67.7335 19.876 67.4455 20.068C67.1655 20.252 66.9535 20.512 66.8095 20.848C66.6655 21.176 66.5935 21.56 66.5935 22V22.072C66.5935 22.56 66.6695 22.972 66.8215 23.308C66.9815 23.644 67.2175 23.9 67.5295 24.076C67.8415 24.244 68.2135 24.328 68.6455 24.328C68.9895 24.328 69.3215 24.276 69.6415 24.172C69.9695 24.06 70.2775 23.88 70.5655 23.632L70.9015 24.316C70.6375 24.556 70.3015 24.748 69.8935 24.892C69.4855 25.036 69.0695 25.108 68.6455 25.108ZM72.7522 26.368L72.2962 26.02C72.4402 25.868 72.5482 25.724 72.6202 25.588C72.7002 25.46 72.7522 25.328 72.7762 25.192C72.8082 25.064 72.8242 24.932 72.8242 24.796L73.0402 25H72.2482V23.776H73.4722V24.64C73.4722 24.856 73.4482 25.06 73.4002 25.252C73.3602 25.452 73.2882 25.644 73.1842 25.828C73.0802 26.012 72.9362 26.192 72.7522 26.368ZM78.3487 25V16.54H79.1167L84.5047 23.728H84.2167V16.54H85.1287V25H84.3847L78.9967 17.812H79.2727V25H78.3487ZM89.5235 25.108C88.9555 25.108 88.4635 24.984 88.0475 24.736C87.6315 24.488 87.3075 24.14 87.0755 23.692C86.8515 23.236 86.7395 22.7 86.7395 22.084C86.7395 21.468 86.8515 20.936 87.0755 20.488C87.3075 20.032 87.6315 19.68 88.0475 19.432C88.4635 19.184 88.9555 19.06 89.5235 19.06C90.0915 19.06 90.5835 19.184 90.9995 19.432C91.4155 19.68 91.7355 20.032 91.9595 20.488C92.1915 20.936 92.3075 21.468 92.3075 22.084C92.3075 22.7 92.1915 23.236 91.9595 23.692C91.7355 24.14 91.4155 24.488 90.9995 24.736C90.5835 24.984 90.0915 25.108 89.5235 25.108ZM89.5235 24.328C90.0755 24.328 90.5115 24.136 90.8315 23.752C91.1595 23.36 91.3235 22.8 91.3235 22.072C91.3235 21.352 91.1595 20.8 90.8315 20.416C90.5115 20.032 90.0755 19.84 89.5235 19.84C88.9795 19.84 88.5435 20.032 88.2155 20.416C87.8875 20.8 87.7235 21.352 87.7235 22.072C87.7235 22.8 87.8875 23.36 88.2155 23.752C88.5435 24.136 88.9795 24.328 89.5235 24.328ZM96.1915 25.108C95.6235 25.108 95.1315 24.984 94.7155 24.736C94.2995 24.488 93.9755 24.14 93.7435 23.692C93.5195 23.236 93.4075 22.7 93.4075 22.084C93.4075 21.468 93.5195 20.936 93.7435 20.488C93.9755 20.032 94.2995 19.68 94.7155 19.432C95.1315 19.184 95.6235 19.06 96.1915 19.06C96.7595 19.06 97.2515 19.184 97.6675 19.432C98.0835 19.68 98.4035 20.032 98.6275 20.488C98.8595 20.936 98.9755 21.468 98.9755 22.084C98.9755 22.7 98.8595 23.236 98.6275 23.692C98.4035 24.14 98.0835 24.488 97.6675 24.736C97.2515 24.984 96.7595 25.108 96.1915 25.108ZM96.1915 24.328C96.7435 24.328 97.1795 24.136 97.4995 23.752C97.8275 23.36 97.9915 22.8 97.9915 22.072C97.9915 21.352 97.8275 20.8 97.4995 20.416C97.1795 20.032 96.7435 19.84 96.1915 19.84C95.6475 19.84 95.2115 20.032 94.8835 20.416C94.5555 20.8 94.3915 21.352 94.3915 22.072C94.3915 22.8 94.5555 23.36 94.8835 23.752C95.2115 24.136 95.6475 24.328 96.1915 24.328ZM102.655 25.108C102.135 25.108 101.679 24.984 101.287 24.736C100.903 24.488 100.603 24.14 100.387 23.692C100.179 23.236 100.075 22.7 100.075 22.084C100.075 21.46 100.179 20.924 100.387 20.476C100.603 20.02 100.903 19.672 101.287 19.432C101.679 19.184 102.135 19.06 102.655 19.06C103.183 19.06 103.635 19.192 104.011 19.456C104.387 19.72 104.639 20.076 104.767 20.524H104.635V16.54H105.607V25H104.659V23.608H104.779C104.651 24.064 104.395 24.428 104.011 24.7C103.635 24.972 103.183 25.108 102.655 25.108ZM102.859 24.328C103.411 24.328 103.847 24.136 104.167 23.752C104.495 23.36 104.659 22.804 104.659 22.084C104.659 21.356 104.495 20.8 104.167 20.416C103.847 20.032 103.411 19.84 102.859 19.84C102.315 19.84 101.879 20.032 101.551 20.416C101.223 20.8 101.059 21.356 101.059 22.084C101.059 22.804 101.223 23.36 101.551 23.752C101.879 24.136 102.315 24.328 102.859 24.328ZM109.22 25.108C108.628 25.108 108.18 24.932 107.876 24.58C107.58 24.228 107.432 23.724 107.432 23.068V16.54H108.404V22.996C108.404 23.276 108.44 23.512 108.512 23.704C108.592 23.896 108.708 24.04 108.86 24.136C109.012 24.232 109.2 24.28 109.424 24.28C109.52 24.28 109.612 24.276 109.7 24.268C109.796 24.252 109.884 24.232 109.964 24.208L109.94 25.024C109.812 25.048 109.688 25.068 109.568 25.084C109.456 25.1 109.34 25.108 109.22 25.108ZM113.552 25.108C112.936 25.108 112.404 24.988 111.956 24.748C111.516 24.5 111.172 24.152 110.924 23.704C110.684 23.256 110.564 22.72 110.564 22.096C110.564 21.488 110.684 20.96 110.924 20.512C111.164 20.056 111.492 19.7 111.908 19.444C112.332 19.188 112.82 19.06 113.372 19.06C113.9 19.06 114.352 19.176 114.728 19.408C115.104 19.64 115.392 19.968 115.592 20.392C115.8 20.816 115.904 21.324 115.904 21.916V22.288H111.308V21.652H115.256L115.064 21.808C115.064 21.168 114.92 20.672 114.632 20.32C114.352 19.96 113.94 19.78 113.396 19.78C112.988 19.78 112.64 19.876 112.352 20.068C112.072 20.252 111.86 20.512 111.716 20.848C111.572 21.176 111.5 21.56 111.5 22V22.072C111.5 22.56 111.576 22.972 111.728 23.308C111.888 23.644 112.124 23.9 112.436 24.076C112.748 24.244 113.12 24.328 113.552 24.328C113.896 24.328 114.228 24.276 114.548 24.172C114.876 24.06 115.184 23.88 115.472 23.632L115.808 24.316C115.544 24.556 115.208 24.748 114.8 24.892C114.392 25.036 113.976 25.108 113.552 25.108ZM119.278 25.108C118.974 25.108 118.678 25.076 118.39 25.012C118.11 24.956 117.846 24.876 117.598 24.772C117.358 24.66 117.15 24.528 116.974 24.376L117.286 23.692C117.478 23.844 117.686 23.972 117.91 24.076C118.134 24.172 118.362 24.244 118.594 24.292C118.826 24.34 119.062 24.364 119.302 24.364C119.758 24.364 120.102 24.28 120.334 24.112C120.566 23.944 120.682 23.716 120.682 23.428C120.682 23.204 120.606 23.028 120.454 22.9C120.302 22.764 120.062 22.66 119.734 22.588L118.642 22.348C118.138 22.244 117.762 22.064 117.514 21.808C117.274 21.552 117.154 21.22 117.154 20.812C117.154 20.452 117.246 20.144 117.43 19.888C117.622 19.624 117.89 19.42 118.234 19.276C118.578 19.132 118.978 19.06 119.434 19.06C119.706 19.06 119.966 19.088 120.214 19.144C120.462 19.2 120.694 19.284 120.91 19.396C121.134 19.5 121.326 19.632 121.486 19.792L121.162 20.476C121.01 20.332 120.838 20.212 120.646 20.116C120.454 20.012 120.254 19.936 120.046 19.888C119.846 19.832 119.642 19.804 119.434 19.804C118.986 19.804 118.646 19.892 118.414 20.068C118.182 20.244 118.066 20.476 118.066 20.764C118.066 20.988 118.138 21.172 118.282 21.316C118.426 21.46 118.65 21.564 118.954 21.628L120.046 21.856C120.566 21.968 120.954 22.148 121.21 22.396C121.474 22.636 121.606 22.964 121.606 23.38C121.606 23.732 121.51 24.04 121.318 24.304C121.126 24.56 120.854 24.76 120.502 24.904C120.158 25.04 119.75 25.108 119.278 25.108ZM123.377 26.368L122.921 26.02C123.065 25.868 123.173 25.724 123.245 25.588C123.325 25.46 123.377 25.328 123.401 25.192C123.433 25.064 123.449 24.932 123.449 24.796L123.665 25H122.873V23.776H124.097V24.64C124.097 24.856 124.073 25.06 124.025 25.252C123.985 25.452 123.913 25.644 123.809 25.828C123.705 26.012 123.561 26.192 123.377 26.368ZM132.838 25.108C131.934 25.108 131.17 24.936 130.546 24.592C129.93 24.248 129.462 23.752 129.142 23.104C128.822 22.456 128.662 21.68 128.662 20.776C128.662 19.88 128.822 19.108 129.142 18.46C129.462 17.812 129.922 17.312 130.522 16.96C131.122 16.608 131.846 16.432 132.694 16.432C133.094 16.432 133.47 16.472 133.822 16.552C134.182 16.632 134.514 16.752 134.818 16.912C135.13 17.064 135.402 17.256 135.634 17.488L135.25 18.28C134.866 17.944 134.47 17.7 134.062 17.548C133.654 17.396 133.194 17.32 132.682 17.32C131.714 17.32 130.974 17.62 130.462 18.22C129.958 18.82 129.706 19.672 129.706 20.776C129.706 21.896 129.966 22.752 130.486 23.344C131.014 23.936 131.806 24.232 132.862 24.232C133.246 24.232 133.622 24.196 133.99 24.124C134.358 24.044 134.706 23.936 135.034 23.8L134.818 24.364V21.376H132.67V20.596H135.67V24.508C135.454 24.62 135.186 24.724 134.866 24.82C134.546 24.908 134.21 24.976 133.858 25.024C133.506 25.08 133.166 25.108 132.838 25.108ZM137.549 25V19.168H138.497V20.548H138.377C138.513 20.076 138.749 19.72 139.085 19.48C139.421 19.232 139.865 19.088 140.417 19.048L140.765 19.012L140.837 19.852L140.225 19.924C139.681 19.972 139.261 20.148 138.965 20.452C138.677 20.748 138.533 21.156 138.533 21.676V25H137.549ZM143.627 25.108C143.227 25.108 142.867 25.032 142.547 24.88C142.235 24.72 141.987 24.504 141.803 24.232C141.619 23.96 141.527 23.656 141.527 23.32C141.527 22.888 141.635 22.548 141.851 22.3C142.075 22.052 142.439 21.876 142.943 21.772C143.455 21.668 144.151 21.616 145.031 21.616H145.571V22.252H145.043C144.555 22.252 144.147 22.268 143.819 22.3C143.491 22.332 143.231 22.388 143.039 22.468C142.847 22.548 142.711 22.652 142.631 22.78C142.551 22.908 142.511 23.068 142.511 23.26C142.511 23.588 142.623 23.856 142.847 24.064C143.079 24.272 143.391 24.376 143.783 24.376C144.103 24.376 144.383 24.3 144.623 24.148C144.871 23.996 145.063 23.788 145.199 23.524C145.343 23.26 145.415 22.956 145.415 22.612V21.244C145.415 20.748 145.315 20.392 145.115 20.176C144.915 19.952 144.587 19.84 144.131 19.84C143.779 19.84 143.439 19.892 143.111 19.996C142.783 20.092 142.447 20.252 142.103 20.476L141.767 19.768C141.975 19.624 142.211 19.5 142.475 19.396C142.739 19.284 143.015 19.2 143.303 19.144C143.591 19.088 143.867 19.06 144.131 19.06C144.635 19.06 145.051 19.144 145.379 19.312C145.707 19.472 145.951 19.72 146.111 20.056C146.271 20.384 146.351 20.808 146.351 21.328V25H145.439V23.644H145.547C145.483 23.948 145.359 24.208 145.175 24.424C144.999 24.64 144.779 24.808 144.515 24.928C144.251 25.048 143.955 25.108 143.627 25.108ZM149.812 25L147.304 19.168H148.36L150.448 24.28H150.124L152.248 19.168H153.244L150.724 25H149.812ZM154.151 17.716V16.624H155.351V17.716H154.151ZM154.271 25V19.168H155.243V25H154.271ZM159.688 25.108C159.072 25.108 158.54 24.988 158.092 24.748C157.652 24.5 157.308 24.152 157.06 23.704C156.82 23.256 156.7 22.72 156.7 22.096C156.7 21.488 156.82 20.96 157.06 20.512C157.3 20.056 157.628 19.7 158.044 19.444C158.468 19.188 158.956 19.06 159.508 19.06C160.036 19.06 160.488 19.176 160.864 19.408C161.24 19.64 161.528 19.968 161.728 20.392C161.936 20.816 162.04 21.324 162.04 21.916V22.288H157.444V21.652H161.392L161.2 21.808C161.2 21.168 161.056 20.672 160.768 20.32C160.488 19.96 160.076 19.78 159.532 19.78C159.124 19.78 158.776 19.876 158.488 20.068C158.208 20.252 157.996 20.512 157.852 20.848C157.708 21.176 157.636 21.56 157.636 22V22.072C157.636 22.56 157.712 22.972 157.864 23.308C158.024 23.644 158.26 23.9 158.572 24.076C158.884 24.244 159.256 24.328 159.688 24.328C160.032 24.328 160.364 24.276 160.684 24.172C161.012 24.06 161.32 23.88 161.608 23.632L161.944 24.316C161.68 24.556 161.344 24.748 160.936 24.892C160.528 25.036 160.112 25.108 159.688 25.108ZM165.415 25.108C165.111 25.108 164.815 25.076 164.527 25.012C164.247 24.956 163.983 24.876 163.735 24.772C163.495 24.66 163.287 24.528 163.111 24.376L163.423 23.692C163.615 23.844 163.823 23.972 164.047 24.076C164.271 24.172 164.499 24.244 164.731 24.292C164.963 24.34 165.199 24.364 165.439 24.364C165.895 24.364 166.239 24.28 166.471 24.112C166.703 23.944 166.819 23.716 166.819 23.428C166.819 23.204 166.743 23.028 166.591 22.9C166.439 22.764 166.199 22.66 165.871 22.588L164.779 22.348C164.275 22.244 163.899 22.064 163.651 21.808C163.411 21.552 163.291 21.22 163.291 20.812C163.291 20.452 163.383 20.144 163.567 19.888C163.759 19.624 164.027 19.42 164.371 19.276C164.715 19.132 165.115 19.06 165.571 19.06C165.843 19.06 166.103 19.088 166.351 19.144C166.599 19.2 166.831 19.284 167.047 19.396C167.271 19.5 167.463 19.632 167.623 19.792L167.299 20.476C167.147 20.332 166.975 20.212 166.783 20.116C166.591 20.012 166.391 19.936 166.183 19.888C165.983 19.832 165.779 19.804 165.571 19.804C165.123 19.804 164.783 19.892 164.551 20.068C164.319 20.244 164.203 20.476 164.203 20.764C164.203 20.988 164.275 21.172 164.419 21.316C164.563 21.46 164.787 21.564 165.091 21.628L166.183 21.856C166.703 21.968 167.091 22.148 167.347 22.396C167.611 22.636 167.743 22.964 167.743 23.38C167.743 23.732 167.647 24.04 167.455 24.304C167.263 24.56 166.991 24.76 166.639 24.904C166.295 25.04 165.887 25.108 165.415 25.108ZM169.514 26.368L169.058 26.02C169.202 25.868 169.31 25.724 169.382 25.588C169.462 25.46 169.514 25.328 169.538 25.192C169.57 25.064 169.586 24.932 169.586 24.796L169.802 25H169.01V23.776H170.234V24.64C170.234 24.856 170.21 25.06 170.162 25.252C170.122 25.452 170.05 25.644 169.946 25.828C169.842 26.012 169.698 26.192 169.514 26.368ZM174.294 25L178.026 16.54H178.866L182.598 25H181.578L180.534 22.588L181.014 22.84H175.854L176.346 22.588L175.314 25H174.294ZM178.434 17.692L176.502 22.24L176.214 22.012H180.654L180.39 22.24L178.458 17.692H178.434ZM183.721 25V19.168H184.669V20.464H184.537C184.705 20 184.977 19.652 185.353 19.42C185.737 19.18 186.177 19.06 186.673 19.06C187.137 19.06 187.521 19.144 187.825 19.312C188.137 19.472 188.369 19.724 188.521 20.068C188.673 20.412 188.749 20.844 188.749 21.364V25H187.777V21.424C187.777 21.064 187.729 20.768 187.633 20.536C187.545 20.304 187.401 20.132 187.201 20.02C187.009 19.908 186.757 19.852 186.445 19.852C186.093 19.852 185.785 19.928 185.521 20.08C185.257 20.232 185.053 20.444 184.909 20.716C184.765 20.988 184.693 21.308 184.693 21.676V25H183.721ZM192.761 25.108C192.241 25.108 191.785 24.984 191.393 24.736C191.009 24.488 190.709 24.14 190.493 23.692C190.285 23.236 190.181 22.7 190.181 22.084C190.181 21.46 190.285 20.924 190.493 20.476C190.709 20.02 191.009 19.672 191.393 19.432C191.785 19.184 192.241 19.06 192.761 19.06C193.289 19.06 193.741 19.192 194.117 19.456C194.493 19.72 194.745 20.076 194.873 20.524H194.741V16.54H195.713V25H194.765V23.608H194.885C194.757 24.064 194.501 24.428 194.117 24.7C193.741 24.972 193.289 25.108 192.761 25.108ZM192.965 24.328C193.517 24.328 193.953 24.136 194.273 23.752C194.601 23.36 194.765 22.804 194.765 22.084C194.765 21.356 194.601 20.8 194.273 20.416C193.953 20.032 193.517 19.84 192.965 19.84C192.421 19.84 191.985 20.032 191.657 20.416C191.329 20.8 191.165 21.356 191.165 22.084C191.165 22.804 191.329 23.36 191.657 23.752C191.985 24.136 192.421 24.328 192.965 24.328ZM204.411 25.108C203.579 25.108 202.867 24.932 202.275 24.58C201.683 24.228 201.227 23.728 200.907 23.08C200.595 22.432 200.439 21.66 200.439 20.764C200.439 19.868 200.595 19.1 200.907 18.46C201.227 17.812 201.683 17.312 202.275 16.96C202.867 16.608 203.579 16.432 204.411 16.432C204.995 16.432 205.535 16.524 206.031 16.708C206.527 16.892 206.943 17.16 207.279 17.512L206.895 18.316C206.527 17.972 206.143 17.724 205.743 17.572C205.351 17.412 204.915 17.332 204.435 17.332C203.483 17.332 202.755 17.632 202.251 18.232C201.747 18.832 201.495 19.676 201.495 20.764C201.495 21.852 201.747 22.7 202.251 23.308C202.755 23.908 203.483 24.208 204.435 24.208C204.915 24.208 205.351 24.132 205.743 23.98C206.143 23.82 206.527 23.568 206.895 23.224L207.279 24.028C206.943 24.372 206.527 24.64 206.031 24.832C205.535 25.016 204.995 25.108 204.411 25.108ZM210.628 25.108C210.156 25.108 209.764 25.024 209.452 24.856C209.148 24.68 208.916 24.42 208.756 24.076C208.604 23.732 208.528 23.304 208.528 22.792V19.168H209.5V22.78C209.5 23.124 209.544 23.412 209.632 23.644C209.728 23.868 209.876 24.036 210.076 24.148C210.276 24.252 210.524 24.304 210.82 24.304C211.156 24.304 211.448 24.228 211.696 24.076C211.944 23.924 212.14 23.712 212.284 23.44C212.428 23.168 212.5 22.848 212.5 22.48V19.168H213.472V25H212.524V23.656H212.68C212.52 24.128 212.256 24.488 211.888 24.736C211.528 24.984 211.108 25.108 210.628 25.108ZM215.291 25V19.168H216.239V20.548H216.119C216.255 20.076 216.491 19.72 216.827 19.48C217.163 19.232 217.607 19.088 218.159 19.048L218.507 19.012L218.579 19.852L217.967 19.924C217.423 19.972 217.003 20.148 216.707 20.452C216.419 20.748 216.275 21.156 216.275 21.676V25H215.291ZM219.592 25V19.168H220.54V20.548H220.42C220.556 20.076 220.792 19.72 221.128 19.48C221.464 19.232 221.908 19.088 222.46 19.048L222.808 19.012L222.88 19.852L222.268 19.924C221.724 19.972 221.304 20.148 221.008 20.452C220.72 20.748 220.576 21.156 220.576 21.676V25H219.592ZM223.772 17.716V16.624H224.972V17.716H223.772ZM223.892 25V19.168H224.864V25H223.892ZM229.31 25.108C228.694 25.108 228.162 24.988 227.714 24.748C227.274 24.5 226.93 24.152 226.682 23.704C226.442 23.256 226.322 22.72 226.322 22.096C226.322 21.488 226.442 20.96 226.682 20.512C226.922 20.056 227.25 19.7 227.666 19.444C228.09 19.188 228.578 19.06 229.13 19.06C229.658 19.06 230.11 19.176 230.486 19.408C230.862 19.64 231.15 19.968 231.35 20.392C231.558 20.816 231.662 21.324 231.662 21.916V22.288H227.066V21.652H231.014L230.822 21.808C230.822 21.168 230.678 20.672 230.39 20.32C230.11 19.96 229.698 19.78 229.154 19.78C228.746 19.78 228.398 19.876 228.11 20.068C227.83 20.252 227.618 20.512 227.474 20.848C227.33 21.176 227.258 21.56 227.258 22V22.072C227.258 22.56 227.334 22.972 227.486 23.308C227.646 23.644 227.882 23.9 228.194 24.076C228.506 24.244 228.878 24.328 229.31 24.328C229.654 24.328 229.986 24.276 230.306 24.172C230.634 24.06 230.942 23.88 231.23 23.632L231.566 24.316C231.302 24.556 230.966 24.748 230.558 24.892C230.15 25.036 229.734 25.108 229.31 25.108ZM235.036 25.108C234.732 25.108 234.436 25.076 234.148 25.012C233.868 24.956 233.604 24.876 233.356 24.772C233.116 24.66 232.908 24.528 232.732 24.376L233.044 23.692C233.236 23.844 233.444 23.972 233.668 24.076C233.892 24.172 234.12 24.244 234.352 24.292C234.584 24.34 234.82 24.364 235.06 24.364C235.516 24.364 235.86 24.28 236.092 24.112C236.324 23.944 236.44 23.716 236.44 23.428C236.44 23.204 236.364 23.028 236.212 22.9C236.06 22.764 235.82 22.66 235.492 22.588L234.4 22.348C233.896 22.244 233.52 22.064 233.272 21.808C233.032 21.552 232.912 21.22 232.912 20.812C232.912 20.452 233.004 20.144 233.188 19.888C233.38 19.624 233.648 19.42 233.992 19.276C234.336 19.132 234.736 19.06 235.192 19.06C235.464 19.06 235.724 19.088 235.972 19.144C236.22 19.2 236.452 19.284 236.668 19.396C236.892 19.5 237.084 19.632 237.244 19.792L236.92 20.476C236.768 20.332 236.596 20.212 236.404 20.116C236.212 20.012 236.012 19.936 235.804 19.888C235.604 19.832 235.4 19.804 235.192 19.804C234.744 19.804 234.404 19.892 234.172 20.068C233.94 20.244 233.824 20.476 233.824 20.764C233.824 20.988 233.896 21.172 234.04 21.316C234.184 21.46 234.408 21.564 234.712 21.628L235.804 21.856C236.324 21.968 236.712 22.148 236.968 22.396C237.232 22.636 237.364 22.964 237.364 23.38C237.364 23.732 237.268 24.04 237.076 24.304C236.884 24.56 236.612 24.76 236.26 24.904C235.916 25.04 235.508 25.108 235.036 25.108ZM238.631 25V23.776H239.855V25H238.631Z" fill="white"/>
</svg>
