<svg width="309" height="28" viewBox="0 0 309 28" fill="none" xmlns="http://www.w3.org/2000/svg">
<path d="M3.78 9.108C3.42 9.108 3.068 9.068 2.724 8.988C2.38 8.908 2.056 8.792 1.752 8.64C1.456 8.488 1.192 8.308 0.96 8.1L1.332 7.32C1.716 7.632 2.104 7.864 2.496 8.016C2.896 8.16 3.32 8.232 3.768 8.232C4.36 8.232 4.82 8.068 5.148 7.74C5.484 7.412 5.652 6.98 5.652 6.444C5.652 5.892 5.492 5.44 5.172 5.088C4.852 4.736 4.412 4.56 3.852 4.56C3.444 4.56 3.084 4.644 2.772 4.812C2.468 4.972 2.192 5.224 1.944 5.568H1.224V0.539999H6.132V1.38H2.196V4.752H1.932C2.14 4.416 2.428 4.16 2.796 3.984C3.164 3.8 3.576 3.708 4.032 3.708C4.568 3.708 5.028 3.82 5.412 4.044C5.804 4.268 6.104 4.584 6.312 4.992C6.528 5.392 6.636 5.86 6.636 6.396C6.636 6.924 6.52 7.392 6.288 7.8C6.056 8.208 5.728 8.528 5.304 8.76C4.88 8.992 4.372 9.108 3.78 9.108ZM10.7953 9.108C10.1553 9.108 9.61131 8.944 9.16331 8.616C8.72331 8.28 8.39131 7.788 8.16731 7.14C7.94331 6.492 7.83131 5.7 7.83131 4.764C7.83131 3.82 7.94331 3.028 8.16731 2.388C8.39131 1.74 8.72331 1.252 9.16331 0.924C9.61131 0.595999 10.1553 0.431999 10.7953 0.431999C11.4433 0.431999 11.9873 0.595999 12.4273 0.924C12.8673 1.252 13.1993 1.736 13.4233 2.376C13.6473 3.016 13.7593 3.808 13.7593 4.752C13.7593 5.696 13.6473 6.492 13.4233 7.14C13.1993 7.788 12.8673 8.28 12.4273 8.616C11.9873 8.944 11.4433 9.108 10.7953 9.108ZM10.7953 8.256C11.4673 8.256 11.9633 7.972 12.2833 7.404C12.6113 6.836 12.7753 5.952 12.7753 4.752C12.7753 3.552 12.6153 2.676 12.2953 2.124C11.9753 1.564 11.4753 1.284 10.7953 1.284C10.1313 1.284 9.63531 1.564 9.30731 2.124C8.97931 2.684 8.81531 3.56 8.81531 4.752C8.81531 5.952 8.97531 6.836 9.29531 7.404C9.62331 7.972 10.1233 8.256 10.7953 8.256ZM17.9906 9.108C17.3506 9.108 16.8066 8.944 16.3586 8.616C15.9186 8.28 15.5866 7.788 15.3626 7.14C15.1386 6.492 15.0266 5.7 15.0266 4.764C15.0266 3.82 15.1386 3.028 15.3626 2.388C15.5866 1.74 15.9186 1.252 16.3586 0.924C16.8066 0.595999 17.3506 0.431999 17.9906 0.431999C18.6386 0.431999 19.1826 0.595999 19.6226 0.924C20.0626 1.252 20.3946 1.736 20.6186 2.376C20.8426 3.016 20.9546 3.808 20.9546 4.752C20.9546 5.696 20.8426 6.492 20.6186 7.14C20.3946 7.788 20.0626 8.28 19.6226 8.616C19.1826 8.944 18.6386 9.108 17.9906 9.108ZM17.9906 8.256C18.6626 8.256 19.1586 7.972 19.4786 7.404C19.8066 6.836 19.9706 5.952 19.9706 4.752C19.9706 3.552 19.8106 2.676 19.4906 2.124C19.1706 1.564 18.6706 1.284 17.9906 1.284C17.3266 1.284 16.8306 1.564 16.5026 2.124C16.1746 2.684 16.0106 3.56 16.0106 4.752C16.0106 5.952 16.1706 6.836 16.4906 7.404C16.8186 7.972 17.3186 8.256 17.9906 8.256ZM22.5219 9V3.168H23.4699V4.464H23.3379C23.4339 4.168 23.5739 3.916 23.7579 3.708C23.9499 3.492 24.1739 3.332 24.4299 3.228C24.6939 3.116 24.9819 3.06 25.2939 3.06C25.7899 3.06 26.1899 3.18 26.4939 3.42C26.8059 3.652 27.0139 4.016 27.1179 4.512H26.9379C27.0819 4.064 27.3379 3.712 27.7059 3.456C28.0819 3.192 28.5179 3.06 29.0139 3.06C29.4539 3.06 29.8139 3.144 30.0939 3.312C30.3819 3.48 30.5979 3.736 30.7419 4.08C30.8859 4.416 30.9579 4.844 30.9579 5.364V9H29.9859V5.412C29.9859 4.876 29.8939 4.484 29.7099 4.236C29.5259 3.98 29.2139 3.852 28.7739 3.852C28.4619 3.852 28.1859 3.928 27.9459 4.08C27.7139 4.232 27.5339 4.448 27.4059 4.728C27.2859 5 27.2259 5.324 27.2259 5.7V9H26.2539V5.412C26.2539 4.876 26.1579 4.484 25.9659 4.236C25.7819 3.98 25.4739 3.852 25.0419 3.852C24.7219 3.852 24.4459 3.928 24.2139 4.08C23.9819 4.232 23.8019 4.448 23.6739 4.728C23.5539 5 23.4939 5.324 23.4939 5.7V9H22.5219ZM34.5633 9.108C33.9713 9.108 33.5233 8.932 33.2193 8.58C32.9233 8.228 32.7753 7.724 32.7753 7.068V0.539999H33.7473V6.996C33.7473 7.276 33.7833 7.512 33.8553 7.704C33.9353 7.896 34.0513 8.04 34.2033 8.136C34.3553 8.232 34.5433 8.28 34.7673 8.28C34.8633 8.28 34.9553 8.276 35.0433 8.268C35.1393 8.252 35.2273 8.232 35.3073 8.208L35.2833 9.024C35.1553 9.048 35.0313 9.068 34.9113 9.084C34.7993 9.1 34.6833 9.108 34.5633 9.108ZM39.5401 9V0.539999H42.8881C43.7921 0.539999 44.4881 0.752 44.9761 1.176C45.4641 1.6 45.7081 2.204 45.7081 2.988C45.7081 3.484 45.5961 3.916 45.3721 4.284C45.1561 4.644 44.8361 4.92 44.4121 5.112C43.9881 5.296 43.4801 5.388 42.8881 5.388L43.0081 5.232H43.2481C43.5601 5.232 43.8321 5.312 44.0641 5.472C44.2961 5.632 44.5081 5.888 44.7001 6.24L46.1881 9H45.1081L43.6441 6.288C43.5241 6.064 43.3881 5.888 43.2361 5.76C43.0921 5.632 42.9241 5.544 42.7321 5.496C42.5481 5.448 42.3241 5.424 42.0601 5.424H40.5241V9H39.5401ZM40.5241 4.644H42.7441C43.4001 4.644 43.8961 4.508 44.2321 4.236C44.5681 3.956 44.7361 3.54 44.7361 2.988C44.7361 2.452 44.5681 2.048 44.2321 1.776C43.8961 1.496 43.4001 1.356 42.7441 1.356H40.5241V4.644ZM49.7305 9.108C49.1625 9.108 48.6705 8.984 48.2545 8.736C47.8385 8.488 47.5145 8.14 47.2825 7.692C47.0585 7.236 46.9465 6.7 46.9465 6.084C46.9465 5.468 47.0585 4.936 47.2825 4.488C47.5145 4.032 47.8385 3.68 48.2545 3.432C48.6705 3.184 49.1625 3.06 49.7305 3.06C50.2985 3.06 50.7905 3.184 51.2065 3.432C51.6225 3.68 51.9425 4.032 52.1665 4.488C52.3985 4.936 52.5145 5.468 52.5145 6.084C52.5145 6.7 52.3985 7.236 52.1665 7.692C51.9425 8.14 51.6225 8.488 51.2065 8.736C50.7905 8.984 50.2985 9.108 49.7305 9.108ZM49.7305 8.328C50.2825 8.328 50.7185 8.136 51.0385 7.752C51.3665 7.36 51.5305 6.8 51.5305 6.072C51.5305 5.352 51.3665 4.8 51.0385 4.416C50.7185 4.032 50.2825 3.84 49.7305 3.84C49.1865 3.84 48.7505 4.032 48.4225 4.416C48.0945 4.8 47.9305 5.352 47.9305 6.072C47.9305 6.8 48.0945 7.36 48.4225 7.752C48.7505 8.136 49.1865 8.328 49.7305 8.328ZM56.0385 9.108C55.5665 9.108 55.1745 9.024 54.8625 8.856C54.5585 8.68 54.3265 8.42 54.1665 8.076C54.0145 7.732 53.9385 7.304 53.9385 6.792V3.168H54.9105V6.78C54.9105 7.124 54.9545 7.412 55.0425 7.644C55.1385 7.868 55.2865 8.036 55.4865 8.148C55.6865 8.252 55.9345 8.304 56.2305 8.304C56.5665 8.304 56.8585 8.228 57.1065 8.076C57.3545 7.924 57.5505 7.712 57.6945 7.44C57.8385 7.168 57.9105 6.848 57.9105 6.48V3.168H58.8825V9H57.9345V7.656H58.0905C57.9305 8.128 57.6665 8.488 57.2985 8.736C56.9385 8.984 56.5185 9.108 56.0385 9.108ZM60.7011 9V3.168H61.6491V4.464H61.5171C61.6851 4 61.9571 3.652 62.3331 3.42C62.7171 3.18 63.1571 3.06 63.6531 3.06C64.1171 3.06 64.5011 3.144 64.8051 3.312C65.1171 3.472 65.3491 3.724 65.5011 4.068C65.6531 4.412 65.7291 4.844 65.7291 5.364V9H64.7571V5.424C64.7571 5.064 64.7091 4.768 64.6131 4.536C64.5251 4.304 64.3811 4.132 64.1811 4.02C63.9891 3.908 63.7371 3.852 63.4251 3.852C63.0731 3.852 62.7651 3.928 62.5011 4.08C62.2371 4.232 62.0331 4.444 61.8891 4.716C61.7451 4.988 61.6731 5.308 61.6731 5.676V9H60.7011ZM69.7414 9.108C69.2214 9.108 68.7654 8.984 68.3734 8.736C67.9894 8.488 67.6894 8.14 67.4734 7.692C67.2654 7.236 67.1614 6.7 67.1614 6.084C67.1614 5.46 67.2654 4.924 67.4734 4.476C67.6894 4.02 67.9894 3.672 68.3734 3.432C68.7654 3.184 69.2214 3.06 69.7414 3.06C70.2694 3.06 70.7214 3.192 71.0974 3.456C71.4734 3.72 71.7254 4.076 71.8534 4.524H71.7214V0.539999H72.6934V9H71.7454V7.608H71.8654C71.7374 8.064 71.4814 8.428 71.0974 8.7C70.7214 8.972 70.2694 9.108 69.7414 9.108ZM69.9454 8.328C70.4974 8.328 70.9334 8.136 71.2534 7.752C71.5814 7.36 71.7454 6.804 71.7454 6.084C71.7454 5.356 71.5814 4.8 71.2534 4.416C70.9334 4.032 70.4974 3.84 69.9454 3.84C69.4014 3.84 68.9654 4.032 68.6374 4.416C68.3094 4.8 68.1454 5.356 68.1454 6.084C68.1454 6.804 68.3094 7.36 68.6374 7.752C68.9654 8.136 69.4014 8.328 69.9454 8.328ZM81.3915 9.108C80.5595 9.108 79.8475 8.932 79.2555 8.58C78.6635 8.228 78.2075 7.728 77.8875 7.08C77.5755 6.432 77.4195 5.66 77.4195 4.764C77.4195 3.868 77.5755 3.1 77.8875 2.46C78.2075 1.812 78.6635 1.312 79.2555 0.96C79.8475 0.608 80.5595 0.431999 81.3915 0.431999C81.9755 0.431999 82.5155 0.523999 83.0115 0.707999C83.5075 0.891999 83.9235 1.16 84.2595 1.512L83.8755 2.316C83.5075 1.972 83.1235 1.724 82.7235 1.572C82.3315 1.412 81.8955 1.332 81.4155 1.332C80.4635 1.332 79.7355 1.632 79.2315 2.232C78.7275 2.832 78.4755 3.676 78.4755 4.764C78.4755 5.852 78.7275 6.7 79.2315 7.308C79.7355 7.908 80.4635 8.208 81.4155 8.208C81.8955 8.208 82.3315 8.132 82.7235 7.98C83.1235 7.82 83.5075 7.568 83.8755 7.224L84.2595 8.028C83.9235 8.372 83.5075 8.64 83.0115 8.832C82.5155 9.016 81.9755 9.108 81.3915 9.108ZM87.6758 9.108C87.1078 9.108 86.6158 8.984 86.1998 8.736C85.7838 8.488 85.4598 8.14 85.2278 7.692C85.0038 7.236 84.8918 6.7 84.8918 6.084C84.8918 5.468 85.0038 4.936 85.2278 4.488C85.4598 4.032 85.7838 3.68 86.1998 3.432C86.6158 3.184 87.1078 3.06 87.6758 3.06C88.2438 3.06 88.7358 3.184 89.1518 3.432C89.5678 3.68 89.8878 4.032 90.1118 4.488C90.3438 4.936 90.4598 5.468 90.4598 6.084C90.4598 6.7 90.3438 7.236 90.1118 7.692C89.8878 8.14 89.5678 8.488 89.1518 8.736C88.7358 8.984 88.2438 9.108 87.6758 9.108ZM87.6758 8.328C88.2278 8.328 88.6638 8.136 88.9838 7.752C89.3118 7.36 89.4758 6.8 89.4758 6.072C89.4758 5.352 89.3118 4.8 88.9838 4.416C88.6638 4.032 88.2278 3.84 87.6758 3.84C87.1318 3.84 86.6958 4.032 86.3678 4.416C86.0398 4.8 85.8758 5.352 85.8758 6.072C85.8758 6.8 86.0398 7.36 86.3678 7.752C86.6958 8.136 87.1318 8.328 87.6758 8.328ZM91.9198 9V3.168H92.8678V4.464H92.7358C92.9038 4 93.1758 3.652 93.5518 3.42C93.9358 3.18 94.3758 3.06 94.8718 3.06C95.3358 3.06 95.7198 3.144 96.0238 3.312C96.3358 3.472 96.5678 3.724 96.7198 4.068C96.8718 4.412 96.9478 4.844 96.9478 5.364V9H95.9758V5.424C95.9758 5.064 95.9278 4.768 95.8318 4.536C95.7438 4.304 95.5998 4.132 95.3998 4.02C95.2078 3.908 94.9558 3.852 94.6438 3.852C94.2918 3.852 93.9838 3.928 93.7198 4.08C93.4558 4.232 93.2518 4.444 93.1078 4.716C92.9638 4.988 92.8918 5.308 92.8918 5.676V9H91.9198ZM101.08 9.108C100.392 9.108 99.8761 8.924 99.5321 8.556C99.1881 8.188 99.0161 7.664 99.0161 6.984V3.924H97.8761V3.168H99.0161V1.38H99.9881V3.168H101.836V3.924H99.9881V6.888C99.9881 7.344 100.084 7.692 100.276 7.932C100.468 8.164 100.78 8.28 101.212 8.28C101.34 8.28 101.468 8.264 101.596 8.232C101.724 8.2 101.84 8.168 101.944 8.136L102.112 8.88C102.008 8.936 101.856 8.988 101.656 9.036C101.456 9.084 101.264 9.108 101.08 9.108ZM104.771 9.108C104.371 9.108 104.011 9.032 103.691 8.88C103.379 8.72 103.131 8.504 102.947 8.232C102.763 7.96 102.671 7.656 102.671 7.32C102.671 6.888 102.779 6.548 102.995 6.3C103.219 6.052 103.583 5.876 104.087 5.772C104.599 5.668 105.295 5.616 106.175 5.616H106.715V6.252H106.187C105.699 6.252 105.291 6.268 104.963 6.3C104.635 6.332 104.375 6.388 104.183 6.468C103.991 6.548 103.855 6.652 103.775 6.78C103.695 6.908 103.655 7.068 103.655 7.26C103.655 7.588 103.767 7.856 103.991 8.064C104.223 8.272 104.535 8.376 104.927 8.376C105.247 8.376 105.527 8.3 105.767 8.148C106.015 7.996 106.207 7.788 106.343 7.524C106.487 7.26 106.559 6.956 106.559 6.612V5.244C106.559 4.748 106.459 4.392 106.259 4.176C106.059 3.952 105.731 3.84 105.275 3.84C104.923 3.84 104.583 3.892 104.255 3.996C103.927 4.092 103.591 4.252 103.247 4.476L102.911 3.768C103.119 3.624 103.355 3.5 103.619 3.396C103.883 3.284 104.159 3.2 104.447 3.144C104.735 3.088 105.011 3.06 105.275 3.06C105.779 3.06 106.195 3.144 106.523 3.312C106.851 3.472 107.095 3.72 107.255 4.056C107.415 4.384 107.495 4.808 107.495 5.328V9H106.583V7.644H106.691C106.627 7.948 106.503 8.208 106.319 8.424C106.143 8.64 105.923 8.808 105.659 8.928C105.395 9.048 105.099 9.108 104.771 9.108ZM109.179 1.716V0.624H110.379V1.716H109.179ZM109.299 9V3.168H110.271V9H109.299ZM112.088 9V3.168H113.036V4.464H112.904C113.072 4 113.344 3.652 113.72 3.42C114.104 3.18 114.544 3.06 115.04 3.06C115.504 3.06 115.888 3.144 116.192 3.312C116.504 3.472 116.736 3.724 116.888 4.068C117.04 4.412 117.116 4.844 117.116 5.364V9H116.144V5.424C116.144 5.064 116.096 4.768 116 4.536C115.912 4.304 115.768 4.132 115.568 4.02C115.376 3.908 115.124 3.852 114.812 3.852C114.46 3.852 114.152 3.928 113.888 4.08C113.624 4.232 113.42 4.444 113.276 4.716C113.132 4.988 113.06 5.308 113.06 5.676V9H112.088ZM121.536 9.108C120.92 9.108 120.388 8.988 119.94 8.748C119.5 8.5 119.156 8.152 118.908 7.704C118.668 7.256 118.548 6.72 118.548 6.096C118.548 5.488 118.668 4.96 118.908 4.512C119.148 4.056 119.476 3.7 119.892 3.444C120.316 3.188 120.804 3.06 121.356 3.06C121.884 3.06 122.336 3.176 122.712 3.408C123.088 3.64 123.376 3.968 123.576 4.392C123.784 4.816 123.888 5.324 123.888 5.916V6.288H119.292V5.652H123.24L123.048 5.808C123.048 5.168 122.904 4.672 122.616 4.32C122.336 3.96 121.924 3.78 121.38 3.78C120.972 3.78 120.624 3.876 120.336 4.068C120.056 4.252 119.844 4.512 119.7 4.848C119.556 5.176 119.484 5.56 119.484 6V6.072C119.484 6.56 119.56 6.972 119.712 7.308C119.872 7.644 120.108 7.9 120.42 8.076C120.732 8.244 121.104 8.328 121.536 8.328C121.88 8.328 122.212 8.276 122.532 8.172C122.86 8.06 123.168 7.88 123.456 7.632L123.792 8.316C123.528 8.556 123.192 8.748 122.784 8.892C122.376 9.036 121.96 9.108 121.536 9.108ZM125.295 9V3.168H126.243V4.548H126.123C126.259 4.076 126.495 3.72 126.831 3.48C127.167 3.232 127.611 3.088 128.163 3.048L128.511 3.012L128.583 3.852L127.971 3.924C127.427 3.972 127.007 4.148 126.711 4.452C126.423 4.748 126.279 5.156 126.279 5.676V9H125.295ZM129.698 10.368L129.242 10.02C129.386 9.868 129.494 9.724 129.566 9.588C129.646 9.46 129.698 9.328 129.722 9.192C129.754 9.064 129.77 8.932 129.77 8.796L129.986 9H129.194V7.776H130.418V8.64C130.418 8.856 130.394 9.06 130.346 9.252C130.306 9.452 130.234 9.644 130.13 9.828C130.026 10.012 129.882 10.192 129.698 10.368ZM135.294 9V0.539999H138.15C139.07 0.539999 139.846 0.704 140.478 1.032C141.118 1.352 141.602 1.828 141.93 2.46C142.266 3.084 142.434 3.852 142.434 4.764C142.434 5.676 142.266 6.448 141.93 7.08C141.602 7.712 141.118 8.192 140.478 8.52C139.846 8.84 139.07 9 138.15 9H135.294ZM136.278 8.16H138.078C139.19 8.16 140.018 7.876 140.562 7.308C141.114 6.74 141.39 5.892 141.39 4.764C141.39 3.636 141.114 2.792 140.562 2.232C140.01 1.664 139.182 1.38 138.078 1.38H136.278V8.16ZM146.132 9.108C145.66 9.108 145.268 9.024 144.956 8.856C144.652 8.68 144.42 8.42 144.26 8.076C144.108 7.732 144.032 7.304 144.032 6.792V3.168H145.004V6.78C145.004 7.124 145.048 7.412 145.136 7.644C145.232 7.868 145.38 8.036 145.58 8.148C145.78 8.252 146.028 8.304 146.324 8.304C146.66 8.304 146.952 8.228 147.2 8.076C147.448 7.924 147.644 7.712 147.788 7.44C147.932 7.168 148.004 6.848 148.004 6.48V3.168H148.976V9H148.028V7.656H148.184C148.024 8.128 147.76 8.488 147.392 8.736C147.032 8.984 146.612 9.108 146.132 9.108ZM150.795 9V3.168H151.743V4.548H151.623C151.759 4.076 151.995 3.72 152.331 3.48C152.667 3.232 153.111 3.088 153.663 3.048L154.011 3.012L154.083 3.852L153.471 3.924C152.927 3.972 152.507 4.148 152.211 4.452C151.923 4.748 151.779 5.156 151.779 5.676V9H150.795ZM156.873 9.108C156.473 9.108 156.113 9.032 155.793 8.88C155.481 8.72 155.233 8.504 155.049 8.232C154.865 7.96 154.773 7.656 154.773 7.32C154.773 6.888 154.881 6.548 155.097 6.3C155.321 6.052 155.685 5.876 156.189 5.772C156.701 5.668 157.397 5.616 158.277 5.616H158.817V6.252H158.289C157.801 6.252 157.393 6.268 157.065 6.3C156.737 6.332 156.477 6.388 156.285 6.468C156.093 6.548 155.957 6.652 155.877 6.78C155.797 6.908 155.757 7.068 155.757 7.26C155.757 7.588 155.869 7.856 156.093 8.064C156.325 8.272 156.637 8.376 157.029 8.376C157.349 8.376 157.629 8.3 157.869 8.148C158.117 7.996 158.309 7.788 158.445 7.524C158.589 7.26 158.661 6.956 158.661 6.612V5.244C158.661 4.748 158.561 4.392 158.361 4.176C158.161 3.952 157.833 3.84 157.377 3.84C157.025 3.84 156.685 3.892 156.357 3.996C156.029 4.092 155.693 4.252 155.349 4.476L155.013 3.768C155.221 3.624 155.457 3.5 155.721 3.396C155.985 3.284 156.261 3.2 156.549 3.144C156.837 3.088 157.113 3.06 157.377 3.06C157.881 3.06 158.297 3.144 158.625 3.312C158.953 3.472 159.197 3.72 159.357 4.056C159.517 4.384 159.597 4.808 159.597 5.328V9H158.685V7.644H158.793C158.729 7.948 158.605 8.208 158.421 8.424C158.245 8.64 158.025 8.808 157.761 8.928C157.497 9.048 157.201 9.108 156.873 9.108ZM164.352 9.108C163.824 9.108 163.368 8.972 162.984 8.7C162.608 8.428 162.356 8.064 162.228 7.608H162.348V9H161.4V0.539999H162.372V4.524H162.228C162.364 4.076 162.62 3.72 162.996 3.456C163.372 3.192 163.824 3.06 164.352 3.06C164.88 3.06 165.336 3.184 165.72 3.432C166.104 3.672 166.4 4.02 166.608 4.476C166.824 4.924 166.932 5.46 166.932 6.084C166.932 6.7 166.824 7.236 166.608 7.692C166.4 8.14 166.1 8.488 165.708 8.736C165.324 8.984 164.872 9.108 164.352 9.108ZM164.148 8.328C164.7 8.328 165.136 8.136 165.456 7.752C165.784 7.36 165.948 6.804 165.948 6.084C165.948 5.356 165.784 4.8 165.456 4.416C165.136 4.032 164.7 3.84 164.148 3.84C163.604 3.84 163.168 4.032 162.84 4.416C162.512 4.8 162.348 5.356 162.348 6.084C162.348 6.804 162.512 7.36 162.84 7.752C163.168 8.136 163.604 8.328 164.148 8.328ZM170.184 9.108C169.592 9.108 169.144 8.932 168.84 8.58C168.544 8.228 168.396 7.724 168.396 7.068V0.539999H169.368V6.996C169.368 7.276 169.404 7.512 169.476 7.704C169.556 7.896 169.672 8.04 169.824 8.136C169.976 8.232 170.164 8.28 170.388 8.28C170.484 8.28 170.576 8.276 170.664 8.268C170.76 8.252 170.848 8.232 170.928 8.208L170.904 9.024C170.776 9.048 170.652 9.068 170.532 9.084C170.42 9.1 170.304 9.108 170.184 9.108ZM174.517 9.108C173.901 9.108 173.369 8.988 172.921 8.748C172.481 8.5 172.137 8.152 171.889 7.704C171.649 7.256 171.529 6.72 171.529 6.096C171.529 5.488 171.649 4.96 171.889 4.512C172.129 4.056 172.457 3.7 172.873 3.444C173.297 3.188 173.785 3.06 174.337 3.06C174.865 3.06 175.317 3.176 175.693 3.408C176.069 3.64 176.357 3.968 176.557 4.392C176.765 4.816 176.869 5.324 176.869 5.916V6.288H172.273V5.652H176.221L176.029 5.808C176.029 5.168 175.885 4.672 175.597 4.32C175.317 3.96 174.905 3.78 174.361 3.78C173.953 3.78 173.605 3.876 173.317 4.068C173.037 4.252 172.825 4.512 172.681 4.848C172.537 5.176 172.465 5.56 172.465 6V6.072C172.465 6.56 172.541 6.972 172.693 7.308C172.853 7.644 173.089 7.9 173.401 8.076C173.713 8.244 174.085 8.328 174.517 8.328C174.861 8.328 175.193 8.276 175.513 8.172C175.841 8.06 176.149 7.88 176.437 7.632L176.773 8.316C176.509 8.556 176.173 8.748 175.765 8.892C175.357 9.036 174.941 9.108 174.517 9.108ZM178.623 10.368L178.167 10.02C178.311 9.868 178.419 9.724 178.491 9.588C178.571 9.46 178.623 9.328 178.647 9.192C178.679 9.064 178.695 8.932 178.695 8.796L178.911 9H178.119V7.776H179.343V8.64C179.343 8.856 179.319 9.06 179.271 9.252C179.231 9.452 179.159 9.644 179.055 9.828C178.951 10.012 178.807 10.192 178.623 10.368ZM184.22 9V0.539999H185.204V9H184.22ZM189.378 9.108C188.858 9.108 188.402 8.984 188.01 8.736C187.626 8.488 187.326 8.14 187.11 7.692C186.902 7.236 186.798 6.7 186.798 6.084C186.798 5.46 186.902 4.924 187.11 4.476C187.326 4.02 187.626 3.672 188.01 3.432C188.402 3.184 188.858 3.06 189.378 3.06C189.906 3.06 190.358 3.192 190.734 3.456C191.11 3.72 191.362 4.076 191.49 4.524H191.358V0.539999H192.33V9H191.382V7.608H191.502C191.374 8.064 191.118 8.428 190.734 8.7C190.358 8.972 189.906 9.108 189.378 9.108ZM189.582 8.328C190.134 8.328 190.57 8.136 190.89 7.752C191.218 7.36 191.382 6.804 191.382 6.084C191.382 5.356 191.218 4.8 190.89 4.416C190.57 4.032 190.134 3.84 189.582 3.84C189.038 3.84 188.602 4.032 188.274 4.416C187.946 4.8 187.782 5.356 187.782 6.084C187.782 6.804 187.946 7.36 188.274 7.752C188.602 8.136 189.038 8.328 189.582 8.328ZM196.782 9.108C196.166 9.108 195.634 8.988 195.186 8.748C194.746 8.5 194.402 8.152 194.154 7.704C193.914 7.256 193.794 6.72 193.794 6.096C193.794 5.488 193.914 4.96 194.154 4.512C194.394 4.056 194.722 3.7 195.138 3.444C195.562 3.188 196.05 3.06 196.602 3.06C197.13 3.06 197.582 3.176 197.958 3.408C198.334 3.64 198.622 3.968 198.822 4.392C199.03 4.816 199.134 5.324 199.134 5.916V6.288H194.538V5.652H198.486L198.294 5.808C198.294 5.168 198.15 4.672 197.862 4.32C197.582 3.96 197.17 3.78 196.626 3.78C196.218 3.78 195.87 3.876 195.582 4.068C195.302 4.252 195.09 4.512 194.946 4.848C194.802 5.176 194.73 5.56 194.73 6V6.072C194.73 6.56 194.806 6.972 194.958 7.308C195.118 7.644 195.354 7.9 195.666 8.076C195.978 8.244 196.35 8.328 196.782 8.328C197.126 8.328 197.458 8.276 197.778 8.172C198.106 8.06 198.414 7.88 198.702 7.632L199.038 8.316C198.774 8.556 198.438 8.748 198.03 8.892C197.622 9.036 197.206 9.108 196.782 9.108ZM202.377 9.108C201.977 9.108 201.617 9.032 201.297 8.88C200.985 8.72 200.737 8.504 200.553 8.232C200.369 7.96 200.277 7.656 200.277 7.32C200.277 6.888 200.385 6.548 200.601 6.3C200.825 6.052 201.189 5.876 201.693 5.772C202.205 5.668 202.901 5.616 203.781 5.616H204.321V6.252H203.793C203.305 6.252 202.897 6.268 202.569 6.3C202.241 6.332 201.981 6.388 201.789 6.468C201.597 6.548 201.461 6.652 201.381 6.78C201.301 6.908 201.261 7.068 201.261 7.26C201.261 7.588 201.373 7.856 201.597 8.064C201.829 8.272 202.141 8.376 202.533 8.376C202.853 8.376 203.133 8.3 203.373 8.148C203.621 7.996 203.813 7.788 203.949 7.524C204.093 7.26 204.165 6.956 204.165 6.612V5.244C204.165 4.748 204.065 4.392 203.865 4.176C203.665 3.952 203.337 3.84 202.881 3.84C202.529 3.84 202.189 3.892 201.861 3.996C201.533 4.092 201.197 4.252 200.853 4.476L200.517 3.768C200.725 3.624 200.961 3.5 201.225 3.396C201.489 3.284 201.765 3.2 202.053 3.144C202.341 3.088 202.617 3.06 202.881 3.06C203.385 3.06 203.801 3.144 204.129 3.312C204.457 3.472 204.701 3.72 204.861 4.056C205.021 4.384 205.101 4.808 205.101 5.328V9H204.189V7.644H204.297C204.233 7.948 204.109 8.208 203.925 8.424C203.749 8.64 203.529 8.808 203.265 8.928C203.001 9.048 202.705 9.108 202.377 9.108ZM208.692 9.108C208.1 9.108 207.652 8.932 207.348 8.58C207.052 8.228 206.904 7.724 206.904 7.068V0.539999H207.876V6.996C207.876 7.276 207.912 7.512 207.984 7.704C208.064 7.896 208.18 8.04 208.332 8.136C208.484 8.232 208.672 8.28 208.896 8.28C208.992 8.28 209.084 8.276 209.172 8.268C209.268 8.252 209.356 8.232 209.436 8.208L209.412 9.024C209.284 9.048 209.16 9.068 209.04 9.084C208.928 9.1 208.812 9.108 208.692 9.108ZM213.669 9V0.539999H218.901V1.368H214.653V4.32H218.661V5.148H214.653V9H213.669ZM222.313 9.108C221.745 9.108 221.253 8.984 220.837 8.736C220.421 8.488 220.097 8.14 219.865 7.692C219.641 7.236 219.529 6.7 219.529 6.084C219.529 5.468 219.641 4.936 219.865 4.488C220.097 4.032 220.421 3.68 220.837 3.432C221.253 3.184 221.745 3.06 222.313 3.06C222.881 3.06 223.373 3.184 223.789 3.432C224.205 3.68 224.525 4.032 224.749 4.488C224.981 4.936 225.097 5.468 225.097 6.084C225.097 6.7 224.981 7.236 224.749 7.692C224.525 8.14 224.205 8.488 223.789 8.736C223.373 8.984 222.881 9.108 222.313 9.108ZM222.313 8.328C222.865 8.328 223.301 8.136 223.621 7.752C223.949 7.36 224.113 6.8 224.113 6.072C224.113 5.352 223.949 4.8 223.621 4.416C223.301 4.032 222.865 3.84 222.313 3.84C221.769 3.84 221.333 4.032 221.005 4.416C220.677 4.8 220.513 5.352 220.513 6.072C220.513 6.8 220.677 7.36 221.005 7.752C221.333 8.136 221.769 8.328 222.313 8.328ZM226.557 9V3.168H227.505V4.548H227.385C227.521 4.076 227.757 3.72 228.093 3.48C228.429 3.232 228.873 3.088 229.425 3.048L229.773 3.012L229.845 3.852L229.233 3.924C228.689 3.972 228.269 4.148 227.973 4.452C227.685 4.748 227.541 5.156 227.541 5.676V9H226.557ZM234.071 9V0.539999H237.419C238.323 0.539999 239.019 0.752 239.507 1.176C239.995 1.6 240.239 2.204 240.239 2.988C240.239 3.484 240.127 3.916 239.903 4.284C239.687 4.644 239.367 4.92 238.943 5.112C238.519 5.296 238.011 5.388 237.419 5.388L237.539 5.232H237.779C238.091 5.232 238.363 5.312 238.595 5.472C238.827 5.632 239.039 5.888 239.231 6.24L240.719 9H239.639L238.175 6.288C238.055 6.064 237.919 5.888 237.767 5.76C237.623 5.632 237.455 5.544 237.263 5.496C237.079 5.448 236.855 5.424 236.591 5.424H235.055V9H234.071ZM235.055 4.644H237.275C237.931 4.644 238.427 4.508 238.763 4.236C239.099 3.956 239.267 3.54 239.267 2.988C239.267 2.452 239.099 2.048 238.763 1.776C238.427 1.496 237.931 1.356 237.275 1.356H235.055V4.644ZM241.847 1.716V0.624H243.047V1.716H241.847ZM241.967 9V3.168H242.939V9H241.967ZM247.228 9.108C246.644 9.108 246.14 8.98 245.716 8.724C245.292 8.468 244.964 8.112 244.732 7.656C244.508 7.192 244.396 6.656 244.396 6.048C244.396 5.432 244.508 4.9 244.732 4.452C244.964 4.004 245.292 3.66 245.716 3.42C246.14 3.18 246.644 3.06 247.228 3.06C247.588 3.06 247.944 3.124 248.296 3.252C248.648 3.38 248.94 3.56 249.172 3.792L248.836 4.5C248.604 4.276 248.348 4.112 248.068 4.008C247.796 3.904 247.536 3.852 247.288 3.852C246.68 3.852 246.212 4.044 245.884 4.428C245.556 4.804 245.392 5.348 245.392 6.06C245.392 6.756 245.556 7.308 245.884 7.716C246.212 8.116 246.68 8.316 247.288 8.316C247.536 8.316 247.796 8.264 248.068 8.16C248.348 8.056 248.604 7.888 248.836 7.656L249.172 8.364C248.94 8.596 248.644 8.78 248.284 8.916C247.932 9.044 247.58 9.108 247.228 9.108ZM252.821 9.108C252.205 9.108 251.673 8.988 251.225 8.748C250.785 8.5 250.441 8.152 250.193 7.704C249.953 7.256 249.833 6.72 249.833 6.096C249.833 5.488 249.953 4.96 250.193 4.512C250.433 4.056 250.761 3.7 251.177 3.444C251.601 3.188 252.089 3.06 252.641 3.06C253.169 3.06 253.621 3.176 253.997 3.408C254.373 3.64 254.661 3.968 254.861 4.392C255.069 4.816 255.173 5.324 255.173 5.916V6.288H250.577V5.652H254.525L254.333 5.808C254.333 5.168 254.189 4.672 253.901 4.32C253.621 3.96 253.209 3.78 252.665 3.78C252.257 3.78 251.909 3.876 251.621 4.068C251.341 4.252 251.129 4.512 250.985 4.848C250.841 5.176 250.769 5.56 250.769 6V6.072C250.769 6.56 250.845 6.972 250.997 7.308C251.157 7.644 251.393 7.9 251.705 8.076C252.017 8.244 252.389 8.328 252.821 8.328C253.165 8.328 253.497 8.276 253.817 8.172C254.145 8.06 254.453 7.88 254.741 7.632L255.077 8.316C254.813 8.556 254.477 8.748 254.069 8.892C253.661 9.036 253.245 9.108 252.821 9.108ZM256.928 10.368L256.472 10.02C256.616 9.868 256.724 9.724 256.796 9.588C256.876 9.46 256.928 9.328 256.952 9.192C256.984 9.064 257 8.932 257 8.796L257.216 9H256.424V7.776H257.648V8.64C257.648 8.856 257.624 9.06 257.576 9.252C257.536 9.452 257.464 9.644 257.36 9.828C257.256 10.012 257.112 10.192 256.928 10.368ZM262.524 9V0.539999H263.292L268.68 7.728H268.392V0.539999H269.304V9H268.56L263.172 1.812H263.448V9H262.524ZM273.699 9.108C273.131 9.108 272.639 8.984 272.223 8.736C271.807 8.488 271.483 8.14 271.251 7.692C271.027 7.236 270.915 6.7 270.915 6.084C270.915 5.468 271.027 4.936 271.251 4.488C271.483 4.032 271.807 3.68 272.223 3.432C272.639 3.184 273.131 3.06 273.699 3.06C274.267 3.06 274.759 3.184 275.175 3.432C275.591 3.68 275.911 4.032 276.135 4.488C276.367 4.936 276.483 5.468 276.483 6.084C276.483 6.7 276.367 7.236 276.135 7.692C275.911 8.14 275.591 8.488 275.175 8.736C274.759 8.984 274.267 9.108 273.699 9.108ZM273.699 8.328C274.251 8.328 274.687 8.136 275.007 7.752C275.335 7.36 275.499 6.8 275.499 6.072C275.499 5.352 275.335 4.8 275.007 4.416C274.687 4.032 274.251 3.84 273.699 3.84C273.155 3.84 272.719 4.032 272.391 4.416C272.063 4.8 271.899 5.352 271.899 6.072C271.899 6.8 272.063 7.36 272.391 7.752C272.719 8.136 273.155 8.328 273.699 8.328ZM280.367 9.108C279.799 9.108 279.307 8.984 278.891 8.736C278.475 8.488 278.151 8.14 277.919 7.692C277.695 7.236 277.583 6.7 277.583 6.084C277.583 5.468 277.695 4.936 277.919 4.488C278.151 4.032 278.475 3.68 278.891 3.432C279.307 3.184 279.799 3.06 280.367 3.06C280.935 3.06 281.427 3.184 281.843 3.432C282.259 3.68 282.579 4.032 282.803 4.488C283.035 4.936 283.151 5.468 283.151 6.084C283.151 6.7 283.035 7.236 282.803 7.692C282.579 8.14 282.259 8.488 281.843 8.736C281.427 8.984 280.935 9.108 280.367 9.108ZM280.367 8.328C280.919 8.328 281.355 8.136 281.675 7.752C282.003 7.36 282.167 6.8 282.167 6.072C282.167 5.352 282.003 4.8 281.675 4.416C281.355 4.032 280.919 3.84 280.367 3.84C279.823 3.84 279.387 4.032 279.059 4.416C278.731 4.8 278.567 5.352 278.567 6.072C278.567 6.8 278.731 7.36 279.059 7.752C279.387 8.136 279.823 8.328 280.367 8.328ZM286.831 9.108C286.311 9.108 285.855 8.984 285.463 8.736C285.079 8.488 284.779 8.14 284.563 7.692C284.355 7.236 284.251 6.7 284.251 6.084C284.251 5.46 284.355 4.924 284.563 4.476C284.779 4.02 285.079 3.672 285.463 3.432C285.855 3.184 286.311 3.06 286.831 3.06C287.359 3.06 287.811 3.192 288.187 3.456C288.563 3.72 288.815 4.076 288.943 4.524H288.811V0.539999H289.783V9H288.835V7.608H288.955C288.827 8.064 288.571 8.428 288.187 8.7C287.811 8.972 287.359 9.108 286.831 9.108ZM287.035 8.328C287.587 8.328 288.023 8.136 288.343 7.752C288.671 7.36 288.835 6.804 288.835 6.084C288.835 5.356 288.671 4.8 288.343 4.416C288.023 4.032 287.587 3.84 287.035 3.84C286.491 3.84 286.055 4.032 285.727 4.416C285.399 4.8 285.235 5.356 285.235 6.084C285.235 6.804 285.399 7.36 285.727 7.752C286.055 8.136 286.491 8.328 287.035 8.328ZM293.395 9.108C292.803 9.108 292.355 8.932 292.051 8.58C291.755 8.228 291.607 7.724 291.607 7.068V0.539999H292.579V6.996C292.579 7.276 292.615 7.512 292.687 7.704C292.767 7.896 292.883 8.04 293.035 8.136C293.187 8.232 293.375 8.28 293.599 8.28C293.695 8.28 293.787 8.276 293.875 8.268C293.971 8.252 294.059 8.232 294.139 8.208L294.115 9.024C293.987 9.048 293.863 9.068 293.743 9.084C293.631 9.1 293.515 9.108 293.395 9.108ZM297.728 9.108C297.112 9.108 296.58 8.988 296.132 8.748C295.692 8.5 295.348 8.152 295.1 7.704C294.86 7.256 294.74 6.72 294.74 6.096C294.74 5.488 294.86 4.96 295.1 4.512C295.34 4.056 295.668 3.7 296.084 3.444C296.508 3.188 296.996 3.06 297.548 3.06C298.076 3.06 298.528 3.176 298.904 3.408C299.28 3.64 299.568 3.968 299.768 4.392C299.976 4.816 300.08 5.324 300.08 5.916V6.288H295.484V5.652H299.432L299.24 5.808C299.24 5.168 299.096 4.672 298.808 4.32C298.528 3.96 298.116 3.78 297.572 3.78C297.164 3.78 296.816 3.876 296.528 4.068C296.248 4.252 296.036 4.512 295.892 4.848C295.748 5.176 295.676 5.56 295.676 6V6.072C295.676 6.56 295.752 6.972 295.904 7.308C296.064 7.644 296.3 7.9 296.612 8.076C296.924 8.244 297.296 8.328 297.728 8.328C298.072 8.328 298.404 8.276 298.724 8.172C299.052 8.06 299.36 7.88 299.648 7.632L299.984 8.316C299.72 8.556 299.384 8.748 298.976 8.892C298.568 9.036 298.152 9.108 297.728 9.108ZM303.454 9.108C303.15 9.108 302.854 9.076 302.566 9.012C302.286 8.956 302.022 8.876 301.774 8.772C301.534 8.66 301.326 8.528 301.15 8.376L301.462 7.692C301.654 7.844 301.862 7.972 302.086 8.076C302.31 8.172 302.538 8.244 302.77 8.292C303.002 8.34 303.238 8.364 303.478 8.364C303.934 8.364 304.278 8.28 304.51 8.112C304.742 7.944 304.858 7.716 304.858 7.428C304.858 7.204 304.782 7.028 304.63 6.9C304.478 6.764 304.238 6.66 303.91 6.588L302.818 6.348C302.314 6.244 301.938 6.064 301.69 5.808C301.45 5.552 301.33 5.22 301.33 4.812C301.33 4.452 301.422 4.144 301.606 3.888C301.798 3.624 302.066 3.42 302.41 3.276C302.754 3.132 303.154 3.06 303.61 3.06C303.882 3.06 304.142 3.088 304.39 3.144C304.638 3.2 304.87 3.284 305.086 3.396C305.31 3.5 305.502 3.632 305.662 3.792L305.338 4.476C305.186 4.332 305.014 4.212 304.822 4.116C304.63 4.012 304.43 3.936 304.222 3.888C304.022 3.832 303.818 3.804 303.61 3.804C303.162 3.804 302.822 3.892 302.59 4.068C302.358 4.244 302.242 4.476 302.242 4.764C302.242 4.988 302.314 5.172 302.458 5.316C302.602 5.46 302.826 5.564 303.13 5.628L304.222 5.856C304.742 5.968 305.13 6.148 305.386 6.396C305.65 6.636 305.782 6.964 305.782 7.38C305.782 7.732 305.686 8.04 305.494 8.304C305.302 8.56 305.03 8.76 304.678 8.904C304.334 9.04 303.926 9.108 303.454 9.108ZM307.553 10.368L307.097 10.02C307.241 9.868 307.349 9.724 307.421 9.588C307.501 9.46 307.553 9.328 307.577 9.192C307.609 9.064 307.625 8.932 307.625 8.796L307.841 9H307.049V7.776H308.273V8.64C308.273 8.856 308.249 9.06 308.201 9.252C308.161 9.452 308.089 9.644 307.985 9.828C307.881 10.012 307.737 10.192 307.553 10.368ZM4.908 25.108C4.004 25.108 3.24 24.936 2.616 24.592C2 24.248 1.532 23.752 1.212 23.104C0.892 22.456 0.732 21.68 0.732 20.776C0.732 19.88 0.892 19.108 1.212 18.46C1.532 17.812 1.992 17.312 2.592 16.96C3.192 16.608 3.916 16.432 4.764 16.432C5.164 16.432 5.54 16.472 5.892 16.552C6.252 16.632 6.584 16.752 6.888 16.912C7.2 17.064 7.472 17.256 7.704 17.488L7.32 18.28C6.936 17.944 6.54 17.7 6.132 17.548C5.724 17.396 5.264 17.32 4.752 17.32C3.784 17.32 3.044 17.62 2.532 18.22C2.028 18.82 1.776 19.672 1.776 20.776C1.776 21.896 2.036 22.752 2.556 23.344C3.084 23.936 3.876 24.232 4.932 24.232C5.316 24.232 5.692 24.196 6.06 24.124C6.428 24.044 6.776 23.936 7.104 23.8L6.888 24.364V21.376H4.74V20.596H7.74V24.508C7.524 24.62 7.256 24.724 6.936 24.82C6.616 24.908 6.28 24.976 5.928 25.024C5.576 25.08 5.236 25.108 4.908 25.108ZM9.61903 25V19.168H10.567V20.548H10.447C10.583 20.076 10.819 19.72 11.155 19.48C11.491 19.232 11.935 19.088 12.487 19.048L12.835 19.012L12.907 19.852L12.295 19.924C11.751 19.972 11.331 20.148 11.035 20.452C10.747 20.748 10.603 21.156 10.603 21.676V25H9.61903ZM15.6972 25.108C15.2972 25.108 14.9372 25.032 14.6172 24.88C14.3052 24.72 14.0572 24.504 13.8732 24.232C13.6892 23.96 13.5972 23.656 13.5972 23.32C13.5972 22.888 13.7052 22.548 13.9212 22.3C14.1452 22.052 14.5092 21.876 15.0132 21.772C15.5252 21.668 16.2212 21.616 17.1012 21.616H17.6412V22.252H17.1132C16.6252 22.252 16.2172 22.268 15.8892 22.3C15.5612 22.332 15.3012 22.388 15.1092 22.468C14.9172 22.548 14.7812 22.652 14.7012 22.78C14.6212 22.908 14.5812 23.068 14.5812 23.26C14.5812 23.588 14.6932 23.856 14.9172 24.064C15.1492 24.272 15.4612 24.376 15.8532 24.376C16.1732 24.376 16.4532 24.3 16.6932 24.148C16.9412 23.996 17.1332 23.788 17.2692 23.524C17.4132 23.26 17.4852 22.956 17.4852 22.612V21.244C17.4852 20.748 17.3852 20.392 17.1852 20.176C16.9852 19.952 16.6572 19.84 16.2012 19.84C15.8492 19.84 15.5092 19.892 15.1812 19.996C14.8532 20.092 14.5172 20.252 14.1732 20.476L13.8372 19.768C14.0452 19.624 14.2812 19.5 14.5452 19.396C14.8092 19.284 15.0852 19.2 15.3732 19.144C15.6612 19.088 15.9372 19.06 16.2012 19.06C16.7052 19.06 17.1212 19.144 17.4492 19.312C17.7772 19.472 18.0212 19.72 18.1812 20.056C18.3412 20.384 18.4212 20.808 18.4212 21.328V25H17.5092V23.644H17.6172C17.5532 23.948 17.4292 24.208 17.2452 24.424C17.0692 24.64 16.8492 24.808 16.5852 24.928C16.3212 25.048 16.0252 25.108 15.6972 25.108ZM21.8819 25L19.3739 19.168H20.4299L22.5179 24.28H22.1939L24.3179 19.168H25.3139L22.7939 25H21.8819ZM26.2217 17.716V16.624H27.4217V17.716H26.2217ZM26.3417 25V19.168H27.3137V25H26.3417ZM31.7588 25.108C31.1428 25.108 30.6108 24.988 30.1628 24.748C29.7228 24.5 29.3788 24.152 29.1308 23.704C28.8908 23.256 28.7708 22.72 28.7708 22.096C28.7708 21.488 28.8908 20.96 29.1308 20.512C29.3708 20.056 29.6988 19.7 30.1148 19.444C30.5388 19.188 31.0268 19.06 31.5788 19.06C32.1068 19.06 32.5588 19.176 32.9348 19.408C33.3108 19.64 33.5988 19.968 33.7988 20.392C34.0068 20.816 34.1108 21.324 34.1108 21.916V22.288H29.5148V21.652H33.4628L33.2708 21.808C33.2708 21.168 33.1268 20.672 32.8388 20.32C32.5588 19.96 32.1468 19.78 31.6028 19.78C31.1948 19.78 30.8468 19.876 30.5588 20.068C30.2788 20.252 30.0668 20.512 29.9228 20.848C29.7788 21.176 29.7068 21.56 29.7068 22V22.072C29.7068 22.56 29.7828 22.972 29.9348 23.308C30.0948 23.644 30.3308 23.9 30.6428 24.076C30.9548 24.244 31.3268 24.328 31.7588 24.328C32.1028 24.328 32.4348 24.276 32.7548 24.172C33.0828 24.06 33.3908 23.88 33.6788 23.632L34.0148 24.316C33.7508 24.556 33.4148 24.748 33.0068 24.892C32.5988 25.036 32.1828 25.108 31.7588 25.108ZM37.4855 25.108C37.1815 25.108 36.8855 25.076 36.5975 25.012C36.3175 24.956 36.0535 24.876 35.8055 24.772C35.5655 24.66 35.3575 24.528 35.1815 24.376L35.4935 23.692C35.6855 23.844 35.8935 23.972 36.1175 24.076C36.3415 24.172 36.5695 24.244 36.8015 24.292C37.0335 24.34 37.2695 24.364 37.5095 24.364C37.9655 24.364 38.3095 24.28 38.5415 24.112C38.7735 23.944 38.8895 23.716 38.8895 23.428C38.8895 23.204 38.8135 23.028 38.6615 22.9C38.5095 22.764 38.2695 22.66 37.9415 22.588L36.8495 22.348C36.3455 22.244 35.9695 22.064 35.7215 21.808C35.4815 21.552 35.3615 21.22 35.3615 20.812C35.3615 20.452 35.4535 20.144 35.6375 19.888C35.8295 19.624 36.0975 19.42 36.4415 19.276C36.7855 19.132 37.1855 19.06 37.6415 19.06C37.9135 19.06 38.1735 19.088 38.4215 19.144C38.6695 19.2 38.9015 19.284 39.1175 19.396C39.3415 19.5 39.5335 19.632 39.6935 19.792L39.3695 20.476C39.2175 20.332 39.0455 20.212 38.8535 20.116C38.6615 20.012 38.4615 19.936 38.2535 19.888C38.0535 19.832 37.8495 19.804 37.6415 19.804C37.1935 19.804 36.8535 19.892 36.6215 20.068C36.3895 20.244 36.2735 20.476 36.2735 20.764C36.2735 20.988 36.3455 21.172 36.4895 21.316C36.6335 21.46 36.8575 21.564 37.1615 21.628L38.2535 21.856C38.7735 21.968 39.1615 22.148 39.4175 22.396C39.6815 22.636 39.8135 22.964 39.8135 23.38C39.8135 23.732 39.7175 24.04 39.5255 24.304C39.3335 24.56 39.0615 24.76 38.7095 24.904C38.3655 25.04 37.9575 25.108 37.4855 25.108ZM41.5842 26.368L41.1282 26.02C41.2722 25.868 41.3802 25.724 41.4522 25.588C41.5322 25.46 41.5842 25.328 41.6082 25.192C41.6402 25.064 41.6562 24.932 41.6562 24.796L41.8722 25H41.0802V23.776H42.3042V24.64C42.3042 24.856 42.2802 25.06 42.2322 25.252C42.1922 25.452 42.1202 25.644 42.0162 25.828C41.9122 26.012 41.7682 26.192 41.5842 26.368ZM50.8407 25.108C50.0087 25.108 49.2967 24.932 48.7047 24.58C48.1127 24.228 47.6567 23.728 47.3367 23.08C47.0247 22.432 46.8687 21.66 46.8687 20.764C46.8687 19.868 47.0247 19.1 47.3367 18.46C47.6567 17.812 48.1127 17.312 48.7047 16.96C49.2967 16.608 50.0087 16.432 50.8407 16.432C51.4247 16.432 51.9647 16.524 52.4607 16.708C52.9567 16.892 53.3727 17.16 53.7087 17.512L53.3247 18.316C52.9567 17.972 52.5727 17.724 52.1727 17.572C51.7807 17.412 51.3447 17.332 50.8647 17.332C49.9127 17.332 49.1847 17.632 48.6807 18.232C48.1767 18.832 47.9247 19.676 47.9247 20.764C47.9247 21.852 48.1767 22.7 48.6807 23.308C49.1847 23.908 49.9127 24.208 50.8647 24.208C51.3447 24.208 51.7807 24.132 52.1727 23.98C52.5727 23.82 52.9567 23.568 53.3247 23.224L53.7087 24.028C53.3727 24.372 52.9567 24.64 52.4607 24.832C51.9647 25.016 51.4247 25.108 50.8407 25.108ZM57.058 25.108C56.586 25.108 56.194 25.024 55.882 24.856C55.578 24.68 55.346 24.42 55.186 24.076C55.034 23.732 54.958 23.304 54.958 22.792V19.168H55.93V22.78C55.93 23.124 55.974 23.412 56.062 23.644C56.158 23.868 56.306 24.036 56.506 24.148C56.706 24.252 56.954 24.304 57.25 24.304C57.586 24.304 57.878 24.228 58.126 24.076C58.374 23.924 58.57 23.712 58.714 23.44C58.858 23.168 58.93 22.848 58.93 22.48V19.168H59.902V25H58.954V23.656H59.11C58.95 24.128 58.686 24.488 58.318 24.736C57.958 24.984 57.538 25.108 57.058 25.108ZM61.7206 25V19.168H62.6686V20.548H62.5486C62.6846 20.076 62.9206 19.72 63.2566 19.48C63.5926 19.232 64.0366 19.088 64.5886 19.048L64.9366 19.012L65.0086 19.852L64.3966 19.924C63.8526 19.972 63.4326 20.148 63.1366 20.452C62.8486 20.748 62.7046 21.156 62.7046 21.676V25H61.7206ZM66.0214 25V19.168H66.9694V20.548H66.8494C66.9854 20.076 67.2214 19.72 67.5574 19.48C67.8934 19.232 68.3374 19.088 68.8894 19.048L69.2374 19.012L69.3094 19.852L68.6974 19.924C68.1534 19.972 67.7334 20.148 67.4374 20.452C67.1494 20.748 67.0054 21.156 67.0054 21.676V25H66.0214ZM70.2022 17.716V16.624H71.4022V17.716H70.2022ZM70.3222 25V19.168H71.2942V25H70.3222ZM75.7392 25.108C75.1232 25.108 74.5912 24.988 74.1432 24.748C73.7032 24.5 73.3592 24.152 73.1112 23.704C72.8712 23.256 72.7512 22.72 72.7512 22.096C72.7512 21.488 72.8712 20.96 73.1112 20.512C73.3512 20.056 73.6792 19.7 74.0952 19.444C74.5192 19.188 75.0072 19.06 75.5592 19.06C76.0872 19.06 76.5392 19.176 76.9152 19.408C77.2912 19.64 77.5792 19.968 77.7792 20.392C77.9872 20.816 78.0912 21.324 78.0912 21.916V22.288H73.4952V21.652H77.4432L77.2512 21.808C77.2512 21.168 77.1072 20.672 76.8192 20.32C76.5392 19.96 76.1272 19.78 75.5832 19.78C75.1752 19.78 74.8272 19.876 74.5392 20.068C74.2592 20.252 74.0472 20.512 73.9032 20.848C73.7592 21.176 73.6872 21.56 73.6872 22V22.072C73.6872 22.56 73.7632 22.972 73.9152 23.308C74.0752 23.644 74.3112 23.9 74.6232 24.076C74.9352 24.244 75.3072 24.328 75.7392 24.328C76.0832 24.328 76.4152 24.276 76.7352 24.172C77.0632 24.06 77.3712 23.88 77.6592 23.632L77.9952 24.316C77.7312 24.556 77.3952 24.748 76.9872 24.892C76.5792 25.036 76.1632 25.108 75.7392 25.108ZM81.4659 25.108C81.1619 25.108 80.8659 25.076 80.5779 25.012C80.2979 24.956 80.0339 24.876 79.7859 24.772C79.5459 24.66 79.3379 24.528 79.1619 24.376L79.4739 23.692C79.6659 23.844 79.8739 23.972 80.0979 24.076C80.3219 24.172 80.5499 24.244 80.7819 24.292C81.0139 24.34 81.2499 24.364 81.4899 24.364C81.9459 24.364 82.2899 24.28 82.5219 24.112C82.7539 23.944 82.8699 23.716 82.8699 23.428C82.8699 23.204 82.7939 23.028 82.6419 22.9C82.4899 22.764 82.2499 22.66 81.9219 22.588L80.8299 22.348C80.3259 22.244 79.9499 22.064 79.7019 21.808C79.4619 21.552 79.3419 21.22 79.3419 20.812C79.3419 20.452 79.4339 20.144 79.6179 19.888C79.8099 19.624 80.0779 19.42 80.4219 19.276C80.7659 19.132 81.1659 19.06 81.6219 19.06C81.8939 19.06 82.1539 19.088 82.4019 19.144C82.6499 19.2 82.8819 19.284 83.0979 19.396C83.3219 19.5 83.5139 19.632 83.6739 19.792L83.3499 20.476C83.1979 20.332 83.0259 20.212 82.8339 20.116C82.6419 20.012 82.4419 19.936 82.2339 19.888C82.0339 19.832 81.8299 19.804 81.6219 19.804C81.1739 19.804 80.8339 19.892 80.6019 20.068C80.3699 20.244 80.2539 20.476 80.2539 20.764C80.2539 20.988 80.3259 21.172 80.4699 21.316C80.6139 21.46 80.8379 21.564 81.1419 21.628L82.2339 21.856C82.7539 21.968 83.1419 22.148 83.3979 22.396C83.6619 22.636 83.7939 22.964 83.7939 23.38C83.7939 23.732 83.6979 24.04 83.5059 24.304C83.3139 24.56 83.0419 24.76 82.6899 24.904C82.3459 25.04 81.9379 25.108 81.4659 25.108ZM85.5647 26.368L85.1087 26.02C85.2527 25.868 85.3607 25.724 85.4327 25.588C85.5127 25.46 85.5647 25.328 85.5887 25.192C85.6207 25.064 85.6367 24.932 85.6367 24.796L85.8527 25H85.0607V23.776H86.2847V24.64C86.2847 24.856 86.2607 25.06 86.2127 25.252C86.1727 25.452 86.1007 25.644 85.9967 25.828C85.8927 26.012 85.7487 26.192 85.5647 26.368ZM93.8972 25.108C93.4572 25.108 93.0412 25.068 92.6492 24.988C92.2652 24.908 91.9092 24.796 91.5812 24.652C91.2612 24.5 90.9692 24.316 90.7052 24.1L91.0532 23.308C91.3252 23.508 91.6012 23.68 91.8812 23.824C92.1692 23.96 92.4772 24.064 92.8052 24.136C93.1412 24.2 93.5052 24.232 93.8972 24.232C94.6172 24.232 95.1492 24.1 95.4932 23.836C95.8452 23.564 96.0212 23.208 96.0212 22.768C96.0212 22.536 95.9652 22.336 95.8532 22.168C95.7492 22 95.5732 21.856 95.3252 21.736C95.0852 21.616 94.7692 21.516 94.3772 21.436L93.1292 21.184C92.3772 21.024 91.8132 20.764 91.4372 20.404C91.0692 20.036 90.8852 19.548 90.8852 18.94C90.8852 18.436 91.0132 17.996 91.2692 17.62C91.5332 17.244 91.8972 16.952 92.3612 16.744C92.8332 16.536 93.3692 16.432 93.9692 16.432C94.3532 16.432 94.7172 16.472 95.0612 16.552C95.4052 16.632 95.7212 16.752 96.0092 16.912C96.3052 17.064 96.5652 17.252 96.7892 17.476L96.4412 18.244C96.0812 17.916 95.7012 17.68 95.3012 17.536C94.9012 17.384 94.4532 17.308 93.9572 17.308C93.5332 17.308 93.1652 17.372 92.8532 17.5C92.5492 17.628 92.3092 17.816 92.1332 18.064C91.9652 18.304 91.8812 18.584 91.8812 18.904C91.8812 19.288 91.9972 19.592 92.2292 19.816C92.4692 20.04 92.8572 20.204 93.3932 20.308L94.6412 20.572C95.4492 20.74 96.0452 20.996 96.4292 21.34C96.8212 21.676 97.0172 22.136 97.0172 22.72C97.0172 23.184 96.8892 23.6 96.6332 23.968C96.3852 24.328 96.0252 24.608 95.5532 24.808C95.0892 25.008 94.5372 25.108 93.8972 25.108ZM100.836 25.108C100.268 25.108 99.776 24.984 99.36 24.736C98.944 24.488 98.62 24.14 98.388 23.692C98.164 23.236 98.052 22.7 98.052 22.084C98.052 21.468 98.164 20.936 98.388 20.488C98.62 20.032 98.944 19.68 99.36 19.432C99.776 19.184 100.268 19.06 100.836 19.06C101.404 19.06 101.896 19.184 102.312 19.432C102.728 19.68 103.048 20.032 103.272 20.488C103.504 20.936 103.62 21.468 103.62 22.084C103.62 22.7 103.504 23.236 103.272 23.692C103.048 24.14 102.728 24.488 102.312 24.736C101.896 24.984 101.404 25.108 100.836 25.108ZM100.836 24.328C101.388 24.328 101.824 24.136 102.144 23.752C102.472 23.36 102.636 22.8 102.636 22.072C102.636 21.352 102.472 20.8 102.144 20.416C101.824 20.032 101.388 19.84 100.836 19.84C100.292 19.84 99.856 20.032 99.528 20.416C99.2 20.8 99.036 21.352 99.036 22.072C99.036 22.8 99.2 23.36 99.528 23.752C99.856 24.136 100.292 24.328 100.836 24.328ZM107.144 25.108C106.672 25.108 106.28 25.024 105.968 24.856C105.664 24.68 105.432 24.42 105.272 24.076C105.12 23.732 105.044 23.304 105.044 22.792V19.168H106.016V22.78C106.016 23.124 106.06 23.412 106.148 23.644C106.244 23.868 106.392 24.036 106.592 24.148C106.792 24.252 107.04 24.304 107.336 24.304C107.672 24.304 107.964 24.228 108.212 24.076C108.46 23.924 108.656 23.712 108.8 23.44C108.944 23.168 109.016 22.848 109.016 22.48V19.168H109.988V25H109.04V23.656H109.196C109.036 24.128 108.772 24.488 108.404 24.736C108.044 24.984 107.624 25.108 107.144 25.108ZM111.807 27.16V19.168H112.755V20.548H112.635C112.763 20.092 113.015 19.732 113.391 19.468C113.775 19.196 114.231 19.06 114.759 19.06C115.279 19.06 115.731 19.184 116.115 19.432C116.507 19.672 116.807 20.02 117.015 20.476C117.231 20.924 117.339 21.46 117.339 22.084C117.339 22.7 117.231 23.236 117.015 23.692C116.807 24.14 116.511 24.488 116.127 24.736C115.743 24.984 115.287 25.108 114.759 25.108C114.231 25.108 113.779 24.976 113.403 24.712C113.027 24.44 112.771 24.08 112.635 23.632H112.779V27.16H111.807ZM114.555 24.328C115.107 24.328 115.543 24.136 115.863 23.752C116.191 23.36 116.355 22.804 116.355 22.084C116.355 21.356 116.191 20.8 115.863 20.416C115.543 20.032 115.107 19.84 114.555 19.84C114.011 19.84 113.575 20.032 113.247 20.416C112.919 20.8 112.755 21.356 112.755 22.084C112.755 22.804 112.919 23.36 113.247 23.752C113.575 24.136 114.011 24.328 114.555 24.328ZM120.771 25.108C120.467 25.108 120.171 25.076 119.883 25.012C119.603 24.956 119.339 24.876 119.091 24.772C118.851 24.66 118.643 24.528 118.467 24.376L118.779 23.692C118.971 23.844 119.179 23.972 119.403 24.076C119.627 24.172 119.855 24.244 120.087 24.292C120.319 24.34 120.555 24.364 120.795 24.364C121.251 24.364 121.595 24.28 121.827 24.112C122.059 23.944 122.175 23.716 122.175 23.428C122.175 23.204 122.099 23.028 121.947 22.9C121.795 22.764 121.555 22.66 121.227 22.588L120.135 22.348C119.631 22.244 119.255 22.064 119.007 21.808C118.767 21.552 118.647 21.22 118.647 20.812C118.647 20.452 118.739 20.144 118.923 19.888C119.115 19.624 119.383 19.42 119.727 19.276C120.071 19.132 120.471 19.06 120.927 19.06C121.199 19.06 121.459 19.088 121.707 19.144C121.955 19.2 122.187 19.284 122.403 19.396C122.627 19.5 122.819 19.632 122.979 19.792L122.655 20.476C122.503 20.332 122.331 20.212 122.139 20.116C121.947 20.012 121.747 19.936 121.539 19.888C121.339 19.832 121.135 19.804 120.927 19.804C120.479 19.804 120.139 19.892 119.907 20.068C119.675 20.244 119.559 20.476 119.559 20.764C119.559 20.988 119.631 21.172 119.775 21.316C119.919 21.46 120.143 21.564 120.447 21.628L121.539 21.856C122.059 21.968 122.447 22.148 122.703 22.396C122.967 22.636 123.099 22.964 123.099 23.38C123.099 23.732 123.003 24.04 122.811 24.304C122.619 24.56 122.347 24.76 121.995 24.904C121.651 25.04 121.243 25.108 120.771 25.108ZM124.869 26.368L124.413 26.02C124.557 25.868 124.665 25.724 124.737 25.588C124.817 25.46 124.869 25.328 124.893 25.192C124.925 25.064 124.941 24.932 124.941 24.796L125.157 25H124.365V23.776H125.589V24.64C125.589 24.856 125.565 25.06 125.517 25.252C125.477 25.452 125.405 25.644 125.301 25.828C125.197 26.012 125.053 26.192 124.869 26.368ZM133.202 25.108C132.762 25.108 132.346 25.068 131.954 24.988C131.57 24.908 131.214 24.796 130.886 24.652C130.566 24.5 130.274 24.316 130.01 24.1L130.358 23.308C130.63 23.508 130.906 23.68 131.186 23.824C131.474 23.96 131.782 24.064 132.11 24.136C132.446 24.2 132.81 24.232 133.202 24.232C133.922 24.232 134.454 24.1 134.798 23.836C135.15 23.564 135.326 23.208 135.326 22.768C135.326 22.536 135.27 22.336 135.158 22.168C135.054 22 134.878 21.856 134.63 21.736C134.39 21.616 134.074 21.516 133.682 21.436L132.434 21.184C131.682 21.024 131.118 20.764 130.742 20.404C130.374 20.036 130.19 19.548 130.19 18.94C130.19 18.436 130.318 17.996 130.574 17.62C130.838 17.244 131.202 16.952 131.666 16.744C132.138 16.536 132.674 16.432 133.274 16.432C133.658 16.432 134.022 16.472 134.366 16.552C134.71 16.632 135.026 16.752 135.314 16.912C135.61 17.064 135.87 17.252 136.094 17.476L135.746 18.244C135.386 17.916 135.006 17.68 134.606 17.536C134.206 17.384 133.758 17.308 133.262 17.308C132.838 17.308 132.47 17.372 132.158 17.5C131.854 17.628 131.614 17.816 131.438 18.064C131.27 18.304 131.186 18.584 131.186 18.904C131.186 19.288 131.302 19.592 131.534 19.816C131.774 20.04 132.162 20.204 132.698 20.308L133.946 20.572C134.754 20.74 135.35 20.996 135.734 21.34C136.126 21.676 136.322 22.136 136.322 22.72C136.322 23.184 136.194 23.6 135.938 23.968C135.69 24.328 135.33 24.608 134.858 24.808C134.394 25.008 133.842 25.108 133.202 25.108ZM139.553 25.108C139.153 25.108 138.793 25.032 138.473 24.88C138.161 24.72 137.913 24.504 137.729 24.232C137.545 23.96 137.453 23.656 137.453 23.32C137.453 22.888 137.561 22.548 137.777 22.3C138.001 22.052 138.365 21.876 138.869 21.772C139.381 21.668 140.077 21.616 140.957 21.616H141.497V22.252H140.969C140.481 22.252 140.073 22.268 139.745 22.3C139.417 22.332 139.157 22.388 138.965 22.468C138.773 22.548 138.637 22.652 138.557 22.78C138.477 22.908 138.437 23.068 138.437 23.26C138.437 23.588 138.549 23.856 138.773 24.064C139.005 24.272 139.317 24.376 139.709 24.376C140.029 24.376 140.309 24.3 140.549 24.148C140.797 23.996 140.989 23.788 141.125 23.524C141.269 23.26 141.341 22.956 141.341 22.612V21.244C141.341 20.748 141.241 20.392 141.041 20.176C140.841 19.952 140.513 19.84 140.057 19.84C139.705 19.84 139.365 19.892 139.037 19.996C138.709 20.092 138.373 20.252 138.029 20.476L137.693 19.768C137.901 19.624 138.137 19.5 138.401 19.396C138.665 19.284 138.941 19.2 139.229 19.144C139.517 19.088 139.793 19.06 140.057 19.06C140.561 19.06 140.977 19.144 141.305 19.312C141.633 19.472 141.877 19.72 142.037 20.056C142.197 20.384 142.277 20.808 142.277 21.328V25H141.365V23.644H141.473C141.409 23.948 141.285 24.208 141.101 24.424C140.925 24.64 140.705 24.808 140.441 24.928C140.177 25.048 139.881 25.108 139.553 25.108ZM145.868 25.108C145.276 25.108 144.828 24.932 144.524 24.58C144.228 24.228 144.08 23.724 144.08 23.068V16.54H145.052V22.996C145.052 23.276 145.088 23.512 145.16 23.704C145.24 23.896 145.356 24.04 145.508 24.136C145.66 24.232 145.848 24.28 146.072 24.28C146.168 24.28 146.26 24.276 146.348 24.268C146.444 24.252 146.532 24.232 146.612 24.208L146.588 25.024C146.46 25.048 146.336 25.068 146.216 25.084C146.104 25.1 145.988 25.108 145.868 25.108ZM149.467 25.108C149.067 25.108 148.707 25.032 148.387 24.88C148.075 24.72 147.827 24.504 147.643 24.232C147.459 23.96 147.367 23.656 147.367 23.32C147.367 22.888 147.475 22.548 147.691 22.3C147.915 22.052 148.279 21.876 148.783 21.772C149.295 21.668 149.991 21.616 150.871 21.616H151.411V22.252H150.883C150.395 22.252 149.987 22.268 149.659 22.3C149.331 22.332 149.071 22.388 148.879 22.468C148.687 22.548 148.551 22.652 148.471 22.78C148.391 22.908 148.351 23.068 148.351 23.26C148.351 23.588 148.463 23.856 148.687 24.064C148.919 24.272 149.231 24.376 149.623 24.376C149.943 24.376 150.223 24.3 150.463 24.148C150.711 23.996 150.903 23.788 151.039 23.524C151.183 23.26 151.255 22.956 151.255 22.612V21.244C151.255 20.748 151.155 20.392 150.955 20.176C150.755 19.952 150.427 19.84 149.971 19.84C149.619 19.84 149.279 19.892 148.951 19.996C148.623 20.092 148.287 20.252 147.943 20.476L147.607 19.768C147.815 19.624 148.051 19.5 148.315 19.396C148.579 19.284 148.855 19.2 149.143 19.144C149.431 19.088 149.707 19.06 149.971 19.06C150.475 19.06 150.891 19.144 151.219 19.312C151.547 19.472 151.791 19.72 151.951 20.056C152.111 20.384 152.191 20.808 152.191 21.328V25H151.279V23.644H151.387C151.323 23.948 151.199 24.208 151.015 24.424C150.839 24.64 150.619 24.808 150.355 24.928C150.091 25.048 149.795 25.108 149.467 25.108ZM156.214 25.108C155.694 25.108 155.238 24.984 154.846 24.736C154.462 24.488 154.162 24.14 153.946 23.692C153.738 23.236 153.634 22.7 153.634 22.084C153.634 21.46 153.738 20.924 153.946 20.476C154.162 20.02 154.462 19.672 154.846 19.432C155.238 19.184 155.694 19.06 156.214 19.06C156.742 19.06 157.194 19.192 157.57 19.456C157.946 19.72 158.198 20.076 158.326 20.524H158.194V16.54H159.166V25H158.218V23.608H158.338C158.21 24.064 157.954 24.428 157.57 24.7C157.194 24.972 156.742 25.108 156.214 25.108ZM156.418 24.328C156.97 24.328 157.406 24.136 157.726 23.752C158.054 23.36 158.218 22.804 158.218 22.084C158.218 21.356 158.054 20.8 157.726 20.416C157.406 20.032 156.97 19.84 156.418 19.84C155.874 19.84 155.438 20.032 155.11 20.416C154.782 20.8 154.618 21.356 154.618 22.084C154.618 22.804 154.782 23.36 155.11 23.752C155.438 24.136 155.874 24.328 156.418 24.328ZM162.958 25.108C162.654 25.108 162.358 25.076 162.07 25.012C161.79 24.956 161.526 24.876 161.278 24.772C161.038 24.66 160.83 24.528 160.654 24.376L160.966 23.692C161.158 23.844 161.366 23.972 161.59 24.076C161.814 24.172 162.042 24.244 162.274 24.292C162.506 24.34 162.742 24.364 162.982 24.364C163.438 24.364 163.782 24.28 164.014 24.112C164.246 23.944 164.362 23.716 164.362 23.428C164.362 23.204 164.286 23.028 164.134 22.9C163.982 22.764 163.742 22.66 163.414 22.588L162.322 22.348C161.818 22.244 161.442 22.064 161.194 21.808C160.954 21.552 160.834 21.22 160.834 20.812C160.834 20.452 160.926 20.144 161.11 19.888C161.302 19.624 161.57 19.42 161.914 19.276C162.258 19.132 162.658 19.06 163.114 19.06C163.386 19.06 163.646 19.088 163.894 19.144C164.142 19.2 164.374 19.284 164.59 19.396C164.814 19.5 165.006 19.632 165.166 19.792L164.842 20.476C164.69 20.332 164.518 20.212 164.326 20.116C164.134 20.012 163.934 19.936 163.726 19.888C163.526 19.832 163.322 19.804 163.114 19.804C162.666 19.804 162.326 19.892 162.094 20.068C161.862 20.244 161.746 20.476 161.746 20.764C161.746 20.988 161.818 21.172 161.962 21.316C162.106 21.46 162.33 21.564 162.634 21.628L163.726 21.856C164.246 21.968 164.634 22.148 164.89 22.396C165.154 22.636 165.286 22.964 165.286 23.38C165.286 23.732 165.19 24.04 164.998 24.304C164.806 24.56 164.534 24.76 164.182 24.904C163.838 25.04 163.43 25.108 162.958 25.108ZM167.057 26.368L166.601 26.02C166.745 25.868 166.853 25.724 166.925 25.588C167.005 25.46 167.057 25.328 167.081 25.192C167.113 25.064 167.129 24.932 167.129 24.796L167.345 25H166.553V23.776H167.777V24.64C167.777 24.856 167.753 25.06 167.705 25.252C167.665 25.452 167.593 25.644 167.489 25.828C167.385 26.012 167.241 26.192 167.057 26.368ZM171.837 25L175.569 16.54H176.409L180.141 25H179.121L178.077 22.588L178.557 22.84H173.397L173.889 22.588L172.857 25H171.837ZM175.977 17.692L174.045 22.24L173.757 22.012H178.197L177.933 22.24L176.001 17.692H175.977ZM181.264 25V19.168H182.212V20.464H182.08C182.248 20 182.52 19.652 182.896 19.42C183.28 19.18 183.72 19.06 184.216 19.06C184.68 19.06 185.064 19.144 185.368 19.312C185.68 19.472 185.912 19.724 186.064 20.068C186.216 20.412 186.292 20.844 186.292 21.364V25H185.32V21.424C185.32 21.064 185.272 20.768 185.176 20.536C185.088 20.304 184.944 20.132 184.744 20.02C184.552 19.908 184.3 19.852 183.988 19.852C183.636 19.852 183.328 19.928 183.064 20.08C182.8 20.232 182.596 20.444 182.452 20.716C182.308 20.988 182.236 21.308 182.236 21.676V25H181.264ZM190.304 25.108C189.784 25.108 189.328 24.984 188.936 24.736C188.552 24.488 188.252 24.14 188.036 23.692C187.828 23.236 187.724 22.7 187.724 22.084C187.724 21.46 187.828 20.924 188.036 20.476C188.252 20.02 188.552 19.672 188.936 19.432C189.328 19.184 189.784 19.06 190.304 19.06C190.832 19.06 191.284 19.192 191.66 19.456C192.036 19.72 192.288 20.076 192.416 20.524H192.284V16.54H193.256V25H192.308V23.608H192.428C192.3 24.064 192.044 24.428 191.66 24.7C191.284 24.972 190.832 25.108 190.304 25.108ZM190.508 24.328C191.06 24.328 191.496 24.136 191.816 23.752C192.144 23.36 192.308 22.804 192.308 22.084C192.308 21.356 192.144 20.8 191.816 20.416C191.496 20.032 191.06 19.84 190.508 19.84C189.964 19.84 189.528 20.032 189.2 20.416C188.872 20.8 188.708 21.356 188.708 22.084C188.708 22.804 188.872 23.36 189.2 23.752C189.528 24.136 189.964 24.328 190.508 24.328ZM198.318 25V16.54H199.146L202.578 22.984H202.218L205.626 16.54H206.454V25H205.542V17.86H205.83L202.722 23.692H202.074L198.93 17.848H199.218V25H198.318ZM211.056 25.108C210.44 25.108 209.908 24.988 209.46 24.748C209.02 24.5 208.676 24.152 208.428 23.704C208.188 23.256 208.068 22.72 208.068 22.096C208.068 21.488 208.188 20.96 208.428 20.512C208.668 20.056 208.996 19.7 209.412 19.444C209.836 19.188 210.324 19.06 210.876 19.06C211.404 19.06 211.856 19.176 212.232 19.408C212.608 19.64 212.896 19.968 213.096 20.392C213.304 20.816 213.408 21.324 213.408 21.916V22.288H208.812V21.652H212.76L212.568 21.808C212.568 21.168 212.424 20.672 212.136 20.32C211.856 19.96 211.444 19.78 210.9 19.78C210.492 19.78 210.144 19.876 209.856 20.068C209.576 20.252 209.364 20.512 209.22 20.848C209.076 21.176 209.004 21.56 209.004 22V22.072C209.004 22.56 209.08 22.972 209.232 23.308C209.392 23.644 209.628 23.9 209.94 24.076C210.252 24.244 210.624 24.328 211.056 24.328C211.4 24.328 211.732 24.276 212.052 24.172C212.38 24.06 212.688 23.88 212.976 23.632L213.312 24.316C213.048 24.556 212.712 24.748 212.304 24.892C211.896 25.036 211.48 25.108 211.056 25.108ZM216.65 25.108C216.25 25.108 215.89 25.032 215.57 24.88C215.258 24.72 215.01 24.504 214.826 24.232C214.642 23.96 214.55 23.656 214.55 23.32C214.55 22.888 214.658 22.548 214.874 22.3C215.098 22.052 215.462 21.876 215.966 21.772C216.478 21.668 217.174 21.616 218.054 21.616H218.594V22.252H218.066C217.578 22.252 217.17 22.268 216.842 22.3C216.514 22.332 216.254 22.388 216.062 22.468C215.87 22.548 215.734 22.652 215.654 22.78C215.574 22.908 215.534 23.068 215.534 23.26C215.534 23.588 215.646 23.856 215.87 24.064C216.102 24.272 216.414 24.376 216.806 24.376C217.126 24.376 217.406 24.3 217.646 24.148C217.894 23.996 218.086 23.788 218.222 23.524C218.366 23.26 218.438 22.956 218.438 22.612V21.244C218.438 20.748 218.338 20.392 218.138 20.176C217.938 19.952 217.61 19.84 217.154 19.84C216.802 19.84 216.462 19.892 216.134 19.996C215.806 20.092 215.47 20.252 215.126 20.476L214.79 19.768C214.998 19.624 215.234 19.5 215.498 19.396C215.762 19.284 216.038 19.2 216.326 19.144C216.614 19.088 216.89 19.06 217.154 19.06C217.658 19.06 218.074 19.144 218.402 19.312C218.73 19.472 218.974 19.72 219.134 20.056C219.294 20.384 219.374 20.808 219.374 21.328V25H218.462V23.644H218.57C218.506 23.948 218.382 24.208 218.198 24.424C218.022 24.64 217.802 24.808 217.538 24.928C217.274 25.048 216.978 25.108 216.65 25.108ZM222.966 25.108C222.374 25.108 221.926 24.932 221.622 24.58C221.326 24.228 221.178 23.724 221.178 23.068V16.54H222.15V22.996C222.15 23.276 222.186 23.512 222.258 23.704C222.338 23.896 222.454 24.04 222.606 24.136C222.758 24.232 222.946 24.28 223.17 24.28C223.266 24.28 223.358 24.276 223.446 24.268C223.542 24.252 223.63 24.232 223.71 24.208L223.686 25.024C223.558 25.048 223.434 25.068 223.314 25.084C223.202 25.1 223.086 25.108 222.966 25.108ZM230.678 25.108C230.238 25.108 229.822 25.068 229.43 24.988C229.046 24.908 228.69 24.796 228.362 24.652C228.042 24.5 227.75 24.316 227.486 24.1L227.834 23.308C228.106 23.508 228.382 23.68 228.662 23.824C228.95 23.96 229.258 24.064 229.586 24.136C229.922 24.2 230.286 24.232 230.678 24.232C231.398 24.232 231.93 24.1 232.274 23.836C232.626 23.564 232.802 23.208 232.802 22.768C232.802 22.536 232.746 22.336 232.634 22.168C232.53 22 232.354 21.856 232.106 21.736C231.866 21.616 231.55 21.516 231.158 21.436L229.91 21.184C229.158 21.024 228.594 20.764 228.218 20.404C227.85 20.036 227.666 19.548 227.666 18.94C227.666 18.436 227.794 17.996 228.05 17.62C228.314 17.244 228.678 16.952 229.142 16.744C229.614 16.536 230.15 16.432 230.75 16.432C231.134 16.432 231.498 16.472 231.842 16.552C232.186 16.632 232.502 16.752 232.79 16.912C233.086 17.064 233.346 17.252 233.57 17.476L233.222 18.244C232.862 17.916 232.482 17.68 232.082 17.536C231.682 17.384 231.234 17.308 230.738 17.308C230.314 17.308 229.946 17.372 229.634 17.5C229.33 17.628 229.09 17.816 228.914 18.064C228.746 18.304 228.662 18.584 228.662 18.904C228.662 19.288 228.778 19.592 229.01 19.816C229.25 20.04 229.638 20.204 230.174 20.308L231.422 20.572C232.23 20.74 232.826 20.996 233.21 21.34C233.602 21.676 233.798 22.136 233.798 22.72C233.798 23.184 233.67 23.6 233.414 23.968C233.166 24.328 232.806 24.608 232.334 24.808C231.87 25.008 231.318 25.108 230.678 25.108ZM237.51 25.108C236.822 25.108 236.306 24.924 235.962 24.556C235.618 24.188 235.446 23.664 235.446 22.984V19.924H234.306V19.168H235.446V17.38H236.418V19.168H238.266V19.924H236.418V22.888C236.418 23.344 236.514 23.692 236.706 23.932C236.898 24.164 237.21 24.28 237.642 24.28C237.77 24.28 237.898 24.264 238.026 24.232C238.154 24.2 238.27 24.168 238.374 24.136L238.542 24.88C238.438 24.936 238.286 24.988 238.086 25.036C237.886 25.084 237.694 25.108 237.51 25.108ZM241.731 25.108C241.163 25.108 240.671 24.984 240.255 24.736C239.839 24.488 239.515 24.14 239.283 23.692C239.059 23.236 238.947 22.7 238.947 22.084C238.947 21.468 239.059 20.936 239.283 20.488C239.515 20.032 239.839 19.68 240.255 19.432C240.671 19.184 241.163 19.06 241.731 19.06C242.299 19.06 242.791 19.184 243.207 19.432C243.623 19.68 243.943 20.032 244.167 20.488C244.399 20.936 244.515 21.468 244.515 22.084C244.515 22.7 244.399 23.236 244.167 23.692C243.943 24.14 243.623 24.488 243.207 24.736C242.791 24.984 242.299 25.108 241.731 25.108ZM241.731 24.328C242.283 24.328 242.719 24.136 243.039 23.752C243.367 23.36 243.531 22.8 243.531 22.072C243.531 21.352 243.367 20.8 243.039 20.416C242.719 20.032 242.283 19.84 241.731 19.84C241.187 19.84 240.751 20.032 240.423 20.416C240.095 20.8 239.931 21.352 239.931 22.072C239.931 22.8 240.095 23.36 240.423 23.752C240.751 24.136 241.187 24.328 241.731 24.328ZM245.975 25V19.168H246.923V20.548H246.803C246.939 20.076 247.175 19.72 247.511 19.48C247.847 19.232 248.291 19.088 248.843 19.048L249.191 19.012L249.263 19.852L248.651 19.924C248.107 19.972 247.687 20.148 247.391 20.452C247.103 20.748 246.959 21.156 246.959 21.676V25H245.975ZM252.053 25.108C251.653 25.108 251.293 25.032 250.973 24.88C250.661 24.72 250.413 24.504 250.229 24.232C250.045 23.96 249.953 23.656 249.953 23.32C249.953 22.888 250.061 22.548 250.277 22.3C250.501 22.052 250.865 21.876 251.369 21.772C251.881 21.668 252.577 21.616 253.457 21.616H253.997V22.252H253.469C252.981 22.252 252.573 22.268 252.245 22.3C251.917 22.332 251.657 22.388 251.465 22.468C251.273 22.548 251.137 22.652 251.057 22.78C250.977 22.908 250.937 23.068 250.937 23.26C250.937 23.588 251.049 23.856 251.273 24.064C251.505 24.272 251.817 24.376 252.209 24.376C252.529 24.376 252.809 24.3 253.049 24.148C253.297 23.996 253.489 23.788 253.625 23.524C253.769 23.26 253.841 22.956 253.841 22.612V21.244C253.841 20.748 253.741 20.392 253.541 20.176C253.341 19.952 253.013 19.84 252.557 19.84C252.205 19.84 251.865 19.892 251.537 19.996C251.209 20.092 250.873 20.252 250.529 20.476L250.193 19.768C250.401 19.624 250.637 19.5 250.901 19.396C251.165 19.284 251.441 19.2 251.729 19.144C252.017 19.088 252.293 19.06 252.557 19.06C253.061 19.06 253.477 19.144 253.805 19.312C254.133 19.472 254.377 19.72 254.537 20.056C254.697 20.384 254.777 20.808 254.777 21.328V25H253.865V23.644H253.973C253.909 23.948 253.785 24.208 253.601 24.424C253.425 24.64 253.205 24.808 252.941 24.928C252.677 25.048 252.381 25.108 252.053 25.108ZM259.16 27.268C258.656 27.268 258.18 27.2 257.732 27.064C257.292 26.936 256.9 26.74 256.556 26.476L256.88 25.768C257.12 25.936 257.356 26.072 257.588 26.176C257.828 26.288 258.072 26.368 258.32 26.416C258.576 26.464 258.84 26.488 259.112 26.488C259.68 26.488 260.108 26.336 260.396 26.032C260.692 25.728 260.84 25.288 260.84 24.712V23.356H260.96C260.84 23.82 260.584 24.188 260.192 24.46C259.808 24.732 259.356 24.868 258.836 24.868C258.3 24.868 257.836 24.748 257.444 24.508C257.052 24.26 256.748 23.916 256.532 23.476C256.324 23.036 256.22 22.528 256.22 21.952C256.22 21.376 256.324 20.872 256.532 20.44C256.748 20 257.052 19.66 257.444 19.42C257.836 19.18 258.3 19.06 258.836 19.06C259.364 19.06 259.82 19.196 260.204 19.468C260.588 19.732 260.836 20.092 260.948 20.548H260.84V19.168H261.788V24.58C261.788 25.172 261.688 25.668 261.488 26.068C261.296 26.468 261.004 26.768 260.612 26.968C260.22 27.168 259.736 27.268 259.16 27.268ZM259.016 24.076C259.576 24.076 260.02 23.884 260.348 23.5C260.676 23.116 260.84 22.6 260.84 21.952C260.84 21.304 260.676 20.792 260.348 20.416C260.02 20.032 259.576 19.84 259.016 19.84C258.464 19.84 258.024 20.032 257.696 20.416C257.368 20.792 257.204 21.304 257.204 21.952C257.204 22.6 257.368 23.116 257.696 23.5C258.024 23.884 258.464 24.076 259.016 24.076ZM266.239 25.108C265.623 25.108 265.091 24.988 264.643 24.748C264.203 24.5 263.859 24.152 263.611 23.704C263.371 23.256 263.251 22.72 263.251 22.096C263.251 21.488 263.371 20.96 263.611 20.512C263.851 20.056 264.179 19.7 264.595 19.444C265.019 19.188 265.507 19.06 266.059 19.06C266.587 19.06 267.039 19.176 267.415 19.408C267.791 19.64 268.079 19.968 268.279 20.392C268.487 20.816 268.591 21.324 268.591 21.916V22.288H263.995V21.652H267.943L267.751 21.808C267.751 21.168 267.607 20.672 267.319 20.32C267.039 19.96 266.627 19.78 266.083 19.78C265.675 19.78 265.327 19.876 265.039 20.068C264.759 20.252 264.547 20.512 264.403 20.848C264.259 21.176 264.187 21.56 264.187 22V22.072C264.187 22.56 264.263 22.972 264.415 23.308C264.575 23.644 264.811 23.9 265.123 24.076C265.435 24.244 265.807 24.328 266.239 24.328C266.583 24.328 266.915 24.276 267.235 24.172C267.563 24.06 267.871 23.88 268.159 23.632L268.495 24.316C268.231 24.556 267.895 24.748 267.487 24.892C267.079 25.036 266.663 25.108 266.239 25.108ZM269.842 25V23.776H271.066V25H269.842Z" fill="white"/>
</svg>
